# Generated from Roblox mesh JSON (v2.00)
# Hello from RBX_Toolbox ;)
o LeftLowerArmWrapTarget
v 0.069129 0.312441 0.365408
v 0.241338 0.234473 0.375713
v 0.182652 0.490276 0.322447
v 0.322839 0.420273 0.324996
v 0.363937 0.194456 0.233968
v 0.422586 0.381200 0.216699
v 0.241338 0.234473 0.375713
v 0.322839 0.420273 0.324996
v 0.076703 0.553090 0.212876
v -0.056765 0.388638 0.217110
v 0.069129 0.312441 0.365408
v 0.182652 0.490276 0.322447
v 0.394536 0.192025 0.058243
v 0.435770 0.376382 0.078272
v 0.363937 0.194456 0.233968
v 0.422586 0.381200 0.216699
v -0.116540 0.429324 0.048513
v 0.076703 0.553090 0.212876
v 0.038666 0.579789 0.070314
v -0.056765 0.388638 0.217110
v -0.063851 0.407600 -0.100339
v 0.038666 0.579789 0.070314
v 0.082188 0.559698 -0.056699
v -0.116540 0.429324 0.048513
v -0.041381 0.132652 0.308664
v 0.135271 0.053347 0.326872
v 0.069129 0.312441 0.365408
v 0.241338 0.234473 0.375713
v 0.062809 0.351049 -0.189397
v 0.082188 0.559698 -0.056699
v 0.181912 0.508430 -0.119363
v -0.063851 0.407600 -0.100339
v 0.241338 0.234473 0.375713
v 0.135271 0.053347 0.326872
v 0.249758 0.019731 0.191044
v 0.363937 0.194456 0.233968
v -0.165025 0.202044 0.161410
v 0.069129 0.312441 0.365408
v -0.056765 0.388638 0.217110
v -0.041381 0.132652 0.308664
v -0.063851 0.407600 -0.100339
v -0.165200 0.221383 -0.154470
v -0.220356 0.239195 -0.006996
v -0.116540 0.429324 0.048513
v -0.165025 0.202044 0.161410
v -0.116540 0.429324 0.048513
v -0.220356 0.239195 -0.006996
v -0.056765 0.388638 0.217110
v -0.296820 -0.166305 -0.245379
v -0.381882 -0.329182 -0.188676
v -0.344200 -0.150348 -0.136835
v -0.349615 -0.338281 -0.286973
v 0.394536 0.192025 0.058243
v 0.249758 0.019731 0.191044
v 0.285882 0.018165 0.019604
v 0.363937 0.194456 0.233968
v 0.203844 0.283294 -0.161406
v 0.181912 0.508430 -0.119363
v 0.288852 0.450678 -0.111413
v 0.062809 0.351049 -0.189397
v -0.237622 0.023617 -0.200398
v -0.344200 -0.150348 -0.136835
v -0.289003 0.038911 -0.074070
v -0.296820 -0.166305 -0.245379
v -0.165200 0.221383 -0.154470
v -0.220356 0.239195 -0.006996
v 0.435770 0.376382 0.078272
v 0.300551 0.234928 -0.057155
v 0.381899 0.403445 -0.037468
v 0.394536 0.192025 0.058243
v -0.036509 0.167670 -0.219592
v -0.063851 0.407600 -0.100339
v 0.062809 0.351049 -0.189397
v -0.165200 0.221383 -0.154470
v -0.344200 -0.150348 -0.136835
v -0.381882 -0.329182 -0.188676
v -0.365084 -0.347929 -0.072490
v -0.307339 -0.176911 -0.007762
v 0.135271 0.053347 0.326872
v 0.121229 -0.148273 0.110036
v 0.249758 0.019731 0.191044
v 0.012250 -0.112687 0.206492
v 0.012250 -0.112687 0.206492
v -0.011247 -0.302817 0.019554
v 0.121229 -0.148273 0.110036
v -0.094499 -0.272563 0.102149
v -0.134206 -0.046633 0.189919
v -0.094499 -0.272563 0.102149
v 0.012250 -0.112687 0.206492
v -0.221631 -0.217322 0.089829
v -0.220356 0.239195 -0.006996
v -0.245555 0.009707 0.074678
v -0.165025 0.202044 0.161410
v -0.289003 0.038911 -0.074070
v -0.289003 0.038911 -0.074070
v -0.307339 -0.176911 -0.007762
v -0.245555 0.009707 0.074678
v -0.344200 -0.150348 -0.136835
v -0.094499 -0.272563 0.102149
v -0.129891 -0.443796 -0.056982
v -0.011247 -0.302817 0.019554
v -0.189214 -0.417800 0.015473
v 0.285882 0.018165 0.019604
v 0.121229 -0.148273 0.110036
v 0.153663 -0.151511 -0.037920
v 0.249758 0.019731 0.191044
v -0.036509 0.167670 -0.219592
v -0.117366 -0.021976 -0.258238
v -0.237622 0.023617 -0.200398
v -0.165200 0.221383 -0.154470
v -0.041381 0.132652 0.308664
v 0.012250 -0.112687 0.206492
v 0.135271 0.053347 0.326872
v -0.134206 -0.046633 0.189919
v -0.193373 -0.201270 -0.290783
v -0.237622 0.023617 -0.200398
v -0.117366 -0.021976 -0.258238
v -0.296820 -0.166305 -0.245379
v -0.261282 -0.366304 -0.327930
v -0.296820 -0.166305 -0.245379
v -0.193373 -0.201270 -0.290783
v -0.349615 -0.338281 -0.286973
v -0.221631 -0.217322 0.089829
v -0.189214 -0.417800 0.015473
v -0.094499 -0.272563 0.102149
v -0.297111 -0.375487 0.015272
v 0.121229 -0.148273 0.110036
v -0.011247 -0.302817 0.019554
v 0.153663 -0.151511 -0.037920
v 0.004830 -0.299667 -0.096557
v -0.245555 0.009707 0.074678
v -0.221631 -0.217322 0.089829
v -0.134206 -0.046633 0.189919
v -0.307339 -0.176911 -0.007762
v -0.165025 0.202044 0.161410
v -0.134206 -0.046633 0.189919
v -0.041381 0.132652 0.308664
v -0.245555 0.009707 0.074678
v 0.394536 0.192025 0.058243
v 0.212230 0.056669 -0.107440
v 0.300551 0.234928 -0.057155
v 0.285882 0.018165 0.019604
v -0.307339 -0.176911 -0.007762
v -0.297111 -0.375487 0.015272
v -0.221631 -0.217322 0.089829
v -0.365084 -0.347929 -0.072490
v -0.011247 -0.302817 0.019554
v -0.129891 -0.443796 -0.056982
v 0.004830 -0.299667 -0.096557
v -0.114823 -0.440319 -0.153317
v -0.349615 -0.338281 -0.286973
v -0.435770 -0.487308 -0.236836
v -0.381882 -0.329182 -0.188676
v -0.411671 -0.492850 -0.337656
v 0.381899 0.403445 -0.037468
v 0.203844 0.283294 -0.161406
v 0.288852 0.450678 -0.111413
v 0.300551 0.234928 -0.057155
v 0.093076 -0.120283 -0.156334
v 0.004830 -0.299667 -0.096557
v -0.040495 -0.280908 -0.195571
v 0.153663 -0.151511 -0.037920
v 0.153663 -0.151511 -0.037920
v 0.212230 0.056669 -0.107440
v 0.285882 0.018165 0.019604
v 0.093076 -0.120283 -0.156334
v 0.300551 0.234928 -0.057155
v 0.212230 0.056669 -0.107440
v 0.203844 0.283294 -0.161406
v 0.103929 0.105314 -0.191957
v -0.381882 -0.329182 -0.188676
v -0.435770 -0.487308 -0.236836
v -0.429848 -0.499747 -0.115866
v -0.365084 -0.347929 -0.072490
v 0.001162 -0.076756 -0.228800
v -0.036509 0.167670 -0.219592
v 0.103929 0.105314 -0.191957
v -0.117366 -0.021976 -0.258238
v -0.104094 -0.245947 -0.263812
v -0.117366 -0.021976 -0.258238
v 0.001162 -0.076756 -0.228800
v -0.193373 -0.201270 -0.290783
v 0.093076 -0.120283 -0.156334
v 0.103929 0.105314 -0.191957
v 0.212230 0.056669 -0.107440
v 0.001162 -0.076756 -0.228800
v -0.040495 -0.280908 -0.195571
v 0.001162 -0.076756 -0.228800
v 0.093076 -0.120283 -0.156334
v -0.104094 -0.245947 -0.263812
v 0.103929 0.105314 -0.191957
v 0.062809 0.351049 -0.189397
v 0.203844 0.283294 -0.161406
v -0.036509 0.167670 -0.219592
v -0.040495 -0.280908 -0.195571
v -0.114823 -0.440319 -0.153317
v -0.145780 -0.430440 -0.241407
v 0.004830 -0.299667 -0.096557
v -0.323900 -0.520914 -0.375713
v -0.349615 -0.338281 -0.286973
v -0.261282 -0.366304 -0.327930
v -0.411671 -0.492850 -0.337656
v -0.104094 -0.245947 -0.263812
v -0.190916 -0.400349 -0.305493
v -0.261282 -0.366304 -0.327930
v -0.193373 -0.201270 -0.290783
v -0.429848 -0.499747 -0.115866
v -0.297111 -0.375487 0.015272
v -0.365084 -0.347929 -0.072490
v -0.363639 -0.524153 -0.027880
v -0.040495 -0.280908 -0.195571
v -0.190916 -0.400349 -0.305493
v -0.104094 -0.245947 -0.263812
v -0.145780 -0.430440 -0.241407
v -0.189214 -0.417800 0.015473
v -0.265315 -0.557343 -0.037856
v -0.215171 -0.579789 -0.109481
v -0.129891 -0.443796 -0.056982
v -0.297111 -0.375487 0.015272
v -0.265315 -0.557343 -0.037856
v -0.189214 -0.417800 0.015473
v -0.363639 -0.524153 -0.027880
v -0.129891 -0.443796 -0.056982
v -0.215171 -0.579789 -0.109481
v -0.114823 -0.440319 -0.153317
v -0.204008 -0.579663 -0.207064
v -0.265979 -0.543930 -0.347285
v -0.261282 -0.366304 -0.327930
v -0.190916 -0.400349 -0.305493
v -0.323900 -0.520914 -0.375713
v -0.145780 -0.430440 -0.241407
v -0.204008 -0.579663 -0.207064
v -0.230209 -0.568669 -0.295135
v -0.114823 -0.440319 -0.153317
v -0.145780 -0.430440 -0.241407
v -0.265979 -0.543930 -0.347285
v -0.190916 -0.400349 -0.305493
v -0.230209 -0.568669 -0.295135
vt 5.344955 3.635815
vt 5.344955 3.717676
vt 5.312208 3.635815
vt 5.312208 3.717676
vt 5.344955 3.754214
vt 5.312208 3.754225
vt 5.344955 3.717676
vt 5.312208 3.717676
vt 5.312208 3.557655
vt 5.344956 3.557655
vt 5.344955 3.635815
vt 5.312208 3.635815
vt 5.344955 3.790663
vt 5.312208 3.790663
vt 5.344955 3.754214
vt 5.312208 3.754225
vt 5.344956 3.501845
vt 5.312208 3.557655
vt 5.312208 3.501846
vt 5.344956 3.557655
vt 5.344956 3.447445
vt 5.312208 3.501846
vt 5.312208 3.447445
vt 5.344956 3.501845
vt 5.414290 3.635815
vt 5.414290 3.717676
vt 5.344955 3.635815
vt 5.344955 3.717676
vt 5.344955 3.367380
vt 5.312208 3.447445
vt 5.312208 3.367380
vt 5.344956 3.447445
vt 5.344955 3.717676
vt 5.414290 3.717676
vt 5.414290 3.754205
vt 5.344955 3.754214
vt 5.414290 3.557655
vt 5.344955 3.635815
vt 5.344956 3.557655
vt 5.414290 3.635815
vt 5.344956 3.447445
vt 5.414290 3.447445
vt 5.414290 3.501845
vt 5.344956 3.501845
vt 5.414290 3.557655
vt 5.344956 3.501845
vt 5.414290 3.501845
vt 5.344956 3.557655
vt 5.588373 3.447445
vt 5.638083 3.501845
vt 5.588373 3.501845
vt 5.638083 3.447445
vt 5.344955 3.790663
vt 5.414290 3.754205
vt 5.414290 3.790663
vt 5.344955 3.754214
vt 5.344956 3.285752
vt 5.312208 3.367380
vt 5.312208 3.285752
vt 5.344955 3.367380
vt 5.488954 3.447445
vt 5.588373 3.501845
vt 5.488954 3.501845
vt 5.588373 3.447445
vt 5.414290 3.447445
vt 5.414290 3.501845
vt 5.312208 3.209337
vt 5.344956 3.248539
vt 5.312208 3.248766
vt 5.344955 3.209337
vt 5.414290 3.367380
vt 5.344956 3.447445
vt 5.344955 3.367380
vt 5.414290 3.447445
vt 5.588373 3.501845
vt 5.638083 3.501845
vt 5.638083 3.557655
vt 5.588373 3.557655
vt 5.414290 3.717676
vt 5.488954 3.754169
vt 5.414290 3.754205
vt 5.488954 3.717676
vt 5.488954 3.717676
vt 5.588373 3.754169
vt 5.488954 3.754169
vt 5.588373 3.717676
vt 5.488954 3.635815
vt 5.588373 3.717676
vt 5.488954 3.717676
vt 5.588373 3.635815
vt 5.414290 3.501845
vt 5.488954 3.557655
vt 5.414290 3.557655
vt 5.488954 3.501845
vt 5.488954 3.501845
vt 5.588373 3.557655
vt 5.488954 3.557655
vt 5.588373 3.501845
vt 5.588373 3.717676
vt 5.638083 3.754169
vt 5.588373 3.754169
vt 5.638083 3.717676
vt 5.414290 3.790663
vt 5.488954 3.754169
vt 5.488954 3.790663
vt 5.414290 3.754205
vt 5.414290 3.367380
vt 5.488954 3.367380
vt 5.488954 3.447445
vt 5.414290 3.447445
vt 5.414290 3.635815
vt 5.488954 3.717676
vt 5.414290 3.717676
vt 5.488954 3.635815
vt 5.588373 3.367380
vt 5.488954 3.447445
vt 5.488954 3.367380
vt 5.588373 3.447445
vt 5.638083 3.367380
vt 5.588373 3.447445
vt 5.588373 3.367380
vt 5.638083 3.447445
vt 5.588373 3.635815
vt 5.638083 3.717676
vt 5.588373 3.717676
vt 5.638083 3.635815
vt 5.488954 3.754169
vt 5.588373 3.754169
vt 5.488954 3.790663
vt 5.588373 3.790663
vt 5.488954 3.557655
vt 5.588373 3.635815
vt 5.488954 3.635815
vt 5.588373 3.557655
vt 5.414290 3.557655
vt 5.488954 3.635815
vt 5.414290 3.635815
vt 5.488954 3.557655
vt 5.344955 3.209337
vt 5.414290 3.248313
vt 5.344956 3.248539
vt 5.414290 3.209337
vt 5.588373 3.557655
vt 5.638083 3.635815
vt 5.588373 3.635815
vt 5.638083 3.557655
vt 5.588373 3.754169
vt 5.638083 3.754169
vt 5.588373 3.790663
vt 5.638083 3.790663
vt 5.638083 3.447445
vt 5.687792 3.501845
vt 5.638083 3.501845
vt 5.687792 3.447445
vt 5.312208 3.248766
vt 5.344956 3.285752
vt 5.312208 3.285752
vt 5.344956 3.248539
vt 5.488954 3.247544
vt 5.588373 3.209337
vt 5.588373 3.247544
vt 5.488954 3.209337
vt 5.488954 3.209337
vt 5.414290 3.248313
vt 5.414290 3.209337
vt 5.488954 3.247544
vt 5.344956 3.248539
vt 5.414290 3.248313
vt 5.344956 3.285752
vt 5.414290 3.285752
vt 5.638083 3.501845
vt 5.687792 3.501845
vt 5.687792 3.557655
vt 5.638083 3.557655
vt 5.488954 3.285752
vt 5.414290 3.367380
vt 5.414290 3.285752
vt 5.488954 3.367380
vt 5.588373 3.285752
vt 5.488954 3.367380
vt 5.488954 3.285752
vt 5.588373 3.367380
vt 5.488954 3.247544
vt 5.414290 3.285752
vt 5.414290 3.248313
vt 5.488954 3.285752
vt 5.588373 3.247544
vt 5.488954 3.285752
vt 5.488954 3.247544
vt 5.588373 3.285752
vt 5.414290 3.285752
vt 5.344955 3.367380
vt 5.344956 3.285752
vt 5.414290 3.367380
vt 5.588373 3.247544
vt 5.638083 3.209337
vt 5.638083 3.247544
vt 5.588373 3.209337
vt 5.687792 3.385719
vt 5.638083 3.447445
vt 5.638083 3.367380
vt 5.687792 3.447445
vt 5.588373 3.285752
vt 5.638083 3.285752
vt 5.638083 3.367380
vt 5.588373 3.367380
vt 5.687792 3.557655
vt 5.638083 3.635815
vt 5.638083 3.557655
vt 5.687792 3.614785
vt 5.588373 3.247544
vt 5.638083 3.285752
vt 5.588373 3.285752
vt 5.638083 3.247544
vt 5.638083 3.717676
vt 5.687792 3.717676
vt 5.687792 3.769116
vt 5.638083 3.754169
vt 5.638083 3.635815
vt 5.687792 3.717676
vt 5.638083 3.717676
vt 5.687792 3.614785
vt 5.638083 3.754169
vt 5.687792 3.769116
vt 5.638083 3.790663
vt 5.687792 3.790663
vt 5.687792 3.285752
vt 5.638083 3.367380
vt 5.638083 3.285752
vt 5.687792 3.385719
vt 5.638083 3.247544
vt 5.687792 3.209337
vt 5.687792 3.247544
vt 5.638083 3.209337
vt 5.638083 3.247544
vt 5.687792 3.285752
vt 5.638083 3.285752
vt 5.687792 3.247544
vn 0.062825 0.217251 0.974092
vn 0.062825 0.217251 0.974092
vn 0.062825 0.217251 0.974092
vn 0.062825 0.217251 0.974092
vn 0.716205 -0.144849 0.682693
vn 0.716205 -0.144849 0.682693
vn 0.716205 -0.144849 0.682693
vn 0.716205 -0.144849 0.682693
vn -0.514979 0.470414 0.716595
vn -0.514979 0.470414 0.716595
vn -0.514979 0.470414 0.716595
vn -0.514979 0.470414 0.716595
vn 0.955973 -0.258340 0.139194
vn 0.955973 -0.258340 0.139194
vn 0.955973 -0.258340 0.139194
vn 0.955973 -0.258340 0.139194
vn -0.699105 0.621087 0.354265
vn -0.699105 0.621087 0.354265
vn -0.699105 0.621087 0.354265
vn -0.699105 0.621087 0.354265
vn -0.633318 0.701327 -0.327182
vn -0.633318 0.701327 -0.327182
vn -0.633318 0.701327 -0.327182
vn -0.633318 0.701327 -0.327182
vn -0.162920 -0.185714 0.969003
vn -0.162920 -0.185714 0.969003
vn -0.162920 -0.185714 0.969003
vn -0.162920 -0.185714 0.969003
vn -0.280646 0.533507 -0.797877
vn -0.280646 0.533507 -0.797877
vn -0.280646 0.533507 -0.797877
vn -0.280646 0.533507 -0.797877
vn 0.576743 -0.519534 0.630438
vn 0.576743 -0.519534 0.630438
vn 0.576743 -0.519534 0.630438
vn 0.576743 -0.519534 0.630438
vn -0.696023 0.204352 0.688325
vn -0.696023 0.204352 0.688325
vn -0.696023 0.204352 0.688325
vn -0.696023 0.204352 0.688325
vn -0.774882 0.524991 -0.352055
vn -0.774882 0.524991 -0.352055
vn -0.774882 0.524991 -0.352055
vn -0.774882 0.524991 -0.352055
vn -0.850620 0.367998 0.375530
vn -0.850620 0.367998 0.375530
vn -0.850620 0.367998 0.375530
vn -0.850620 0.367998 0.375530
vn -0.869134 0.323739 -0.373896
vn -0.869134 0.323739 -0.373896
vn -0.869134 0.323739 -0.373896
vn -0.869134 0.323739 -0.373896
vn 0.813594 -0.558179 0.162793
vn 0.813594 -0.558179 0.162793
vn 0.813594 -0.558179 0.162793
vn 0.813594 -0.558179 0.162793
vn 0.239276 0.200712 -0.949980
vn 0.239276 0.200712 -0.949980
vn 0.239276 0.200712 -0.949980
vn 0.239276 0.200712 -0.949980
vn -0.837729 0.382794 -0.389458
vn -0.838949 0.367229 -0.401631
vn -0.838574 0.382521 -0.387906
vn -0.838949 0.367229 -0.401631
vn -0.835713 0.402298 -0.373818
vn -0.835713 0.402298 -0.373818
vn 0.793111 -0.211219 -0.571280
vn 0.793111 -0.211219 -0.571280
vn 0.793111 -0.211219 -0.571280
vn 0.793111 -0.211219 -0.571280
vn -0.349650 0.384736 -0.854238
vn -0.349650 0.384736 -0.854238
vn -0.349650 0.384736 -0.854238
vn -0.349650 0.384736 -0.854238
vn -0.953573 0.179535 0.241795
vn -0.953573 0.179535 0.241795
vn -0.953573 0.179535 0.241795
vn -0.953573 0.179535 0.241795
vn 0.417695 -0.678721 0.604044
vn 0.417695 -0.678721 0.604044
vn 0.417695 -0.678721 0.604044
vn 0.417695 -0.678721 0.604044
vn 0.365556 -0.675152 0.640732
vn 0.365556 -0.675152 0.640732
vn 0.365556 -0.675152 0.640732
vn 0.365556 -0.675152 0.640732
vn -0.265745 -0.389321 0.881934
vn -0.265745 -0.389321 0.881934
vn -0.265745 -0.389321 0.881934
vn -0.265745 -0.389321 0.881934
vn -0.917703 0.218785 0.331593
vn -0.917703 0.218785 0.331593
vn -0.917703 0.218785 0.331593
vn -0.917703 0.218785 0.331593
vn -0.936287 0.173393 0.305452
vn -0.936287 0.173393 0.305452
vn -0.936287 0.173393 0.305452
vn -0.936287 0.173393 0.305452
vn 0.414712 -0.663965 0.622226
vn 0.414712 -0.663965 0.622226
vn 0.414712 -0.663965 0.622226
vn 0.414712 -0.663965 0.622226
vn 0.745138 -0.644973 0.169642
vn 0.745138 -0.644973 0.169642
vn 0.745138 -0.644973 0.169642
vn 0.745138 -0.644973 0.169642
vn -0.314143 0.319458 -0.894014
vn -0.314143 0.319458 -0.894014
vn -0.314143 0.319458 -0.894014
vn -0.314143 0.319458 -0.894014
vn -0.282093 -0.420736 0.862209
vn -0.282093 -0.420736 0.862209
vn -0.282093 -0.420736 0.862209
vn -0.282093 -0.420736 0.862209
vn -0.307629 0.302106 -0.902273
vn -0.307629 0.302106 -0.902273
vn -0.307629 0.302106 -0.902273
vn -0.307629 0.302106 -0.902273
vn -0.300587 0.317767 -0.899262
vn -0.300587 0.317767 -0.899262
vn -0.300587 0.317767 -0.899262
vn -0.300587 0.317767 -0.899262
vn -0.201531 -0.369091 0.907280
vn -0.201531 -0.369091 0.907280
vn -0.201531 -0.369091 0.907280
vn -0.201531 -0.369091 0.907280
vn 0.694331 -0.708219 0.127791
vn 0.694331 -0.708219 0.127791
vn 0.694331 -0.708219 0.127791
vn 0.694331 -0.708219 0.127791
vn -0.740870 -0.033307 0.670822
vn -0.740870 -0.033307 0.670822
vn -0.740870 -0.033307 0.670822
vn -0.740870 -0.033307 0.670822
vn -0.748958 -0.016882 0.662403
vn -0.748958 -0.016882 0.662403
vn -0.748958 -0.016882 0.662403
vn -0.748958 -0.016882 0.662403
vn 0.748942 -0.265649 -0.607056
vn 0.748942 -0.265649 -0.607056
vn 0.748942 -0.265649 -0.607056
vn 0.748942 -0.265649 -0.607056
vn -0.762872 0.035591 0.645570
vn -0.762872 0.035591 0.645570
vn -0.762872 0.035591 0.645570
vn -0.762872 0.035591 0.645570
vn 0.739627 -0.667289 0.087615
vn 0.739627 -0.667289 0.087615
vn 0.739627 -0.667289 0.087615
vn 0.739627 -0.667289 0.087615
vn -0.869397 0.409685 -0.276237
vn -0.869397 0.409685 -0.276237
vn -0.869397 0.409685 -0.276237
vn -0.869397 0.409685 -0.276237
vn 0.633152 -0.156317 -0.758079
vn 0.633152 -0.156317 -0.758079
vn 0.633152 -0.156317 -0.758079
vn 0.633152 -0.156317 -0.758079
vn 0.720834 -0.510744 -0.468549
vn 0.720834 -0.510744 -0.468549
vn 0.720834 -0.510744 -0.468549
vn 0.720834 -0.510744 -0.468549
vn 0.757594 -0.388333 -0.524643
vn 0.757594 -0.388333 -0.524643
vn 0.757594 -0.388333 -0.524643
vn 0.757594 -0.388333 -0.524643
vn 0.627216 -0.158378 -0.762572
vn 0.627216 -0.158378 -0.762572
vn 0.627216 -0.158378 -0.762572
vn 0.627216 -0.158378 -0.762572
vn -0.938127 0.320155 0.131976
vn -0.938127 0.320155 0.131976
vn -0.938127 0.320155 0.131976
vn -0.938127 0.320155 0.131976
vn 0.246608 0.074409 -0.966254
vn 0.246608 0.074409 -0.966254
vn 0.246608 0.074409 -0.966254
vn 0.246608 0.074409 -0.966254
vn 0.279739 0.040450 -0.959224
vn 0.279739 0.040450 -0.959224
vn 0.279739 0.040450 -0.959224
vn 0.279739 0.040450 -0.959224
vn 0.564316 -0.155183 -0.810843
vn 0.564316 -0.155183 -0.810843
vn 0.564316 -0.155183 -0.810843
vn 0.564316 -0.155183 -0.810843
vn 0.579673 -0.244786 -0.777212
vn 0.579673 -0.244786 -0.777212
vn 0.579673 -0.244786 -0.777212
vn 0.579673 -0.244786 -0.777212
vn 0.214089 0.045986 -0.975731
vn 0.214089 0.045986 -0.975731
vn 0.214089 0.045986 -0.975731
vn 0.214089 0.045986 -0.975731
vn 0.788681 -0.472121 -0.393807
vn 0.788681 -0.472121 -0.393807
vn 0.788681 -0.472121 -0.393807
vn 0.788681 -0.472121 -0.393807
vn -0.270882 0.389573 -0.880259
vn -0.270882 0.389573 -0.880259
vn -0.270882 0.389573 -0.880259
vn -0.270882 0.389573 -0.880259
vn 0.327809 0.073637 -0.941870
vn 0.327809 0.073637 -0.941870
vn 0.327809 0.073637 -0.941870
vn 0.327809 0.073637 -0.941870
vn -0.763214 0.152675 0.627850
vn -0.763214 0.152675 0.627850
vn -0.763214 0.152675 0.627850
vn -0.763214 0.152675 0.627850
vn 0.689391 -0.238820 -0.683890
vn 0.689391 -0.238820 -0.683890
vn 0.689391 -0.238820 -0.683890
vn 0.689391 -0.238820 -0.683890
vn 0.557096 -0.561345 0.611993
vn 0.557096 -0.561345 0.611993
vn 0.557096 -0.561345 0.611993
vn 0.557096 -0.561345 0.611993
vn -0.060783 -0.289681 0.955191
vn -0.060783 -0.289681 0.955191
vn -0.060783 -0.289681 0.955191
vn -0.060783 -0.289681 0.955191
vn 0.822346 -0.559982 0.100830
vn 0.822346 -0.559982 0.100830
vn 0.822346 -0.559982 0.100830
vn 0.822346 -0.559982 0.100830
vn 0.400986 0.088752 -0.911775
vn 0.400986 0.088752 -0.911775
vn 0.400986 0.088752 -0.911775
vn 0.400986 0.088752 -0.911775
vn 0.853227 -0.407767 -0.325161
vn 0.853227 -0.407767 -0.325161
vn 0.853227 -0.407767 -0.325161
vn 0.853227 -0.407767 -0.325161
vn 0.751584 -0.213850 -0.624011
vn 0.751584 -0.213850 -0.624011
vn 0.751584 -0.213850 -0.624011
vn 0.751584 -0.213850 -0.624011
f 1/1/1 2/2/2 3/3/3
f 3/3/3 2/2/2 4/4/4
f 5/5/5 6/6/6 7/7/7
f 6/6/6 8/8/8 7/7/7
f 9/9/9 10/10/10 11/11/11
f 9/9/9 11/11/11 12/12/12
f 13/13/13 14/14/14 15/15/15
f 14/14/14 16/16/16 15/15/15
f 17/17/17 18/18/18 19/19/19
f 18/18/18 17/17/17 20/20/20
f 21/21/21 22/22/22 23/23/23
f 22/22/22 21/21/21 24/24/24
f 25/25/25 26/26/26 27/27/27
f 27/27/27 26/26/26 28/28/28
f 29/29/29 30/30/30 31/31/31
f 30/30/30 29/29/29 32/32/32
f 33/33/33 34/34/34 35/35/35
f 35/35/35 36/36/36 33/33/33
f 37/37/37 38/38/38 39/39/39
f 38/38/38 37/37/37 40/40/40
f 41/41/41 42/42/42 43/43/43
f 41/41/41 43/43/43 44/44/44
f 45/45/45 46/46/46 47/47/47
f 46/46/46 45/45/45 48/48/48
f 49/49/49 50/50/50 51/51/51
f 50/50/50 49/49/49 52/52/52
f 53/53/53 54/54/54 55/55/55
f 54/54/54 53/53/53 56/56/56
f 57/57/57 58/58/58 59/59/59
f 58/58/58 57/57/57 60/60/60
f 61/61/61 62/62/62 63/63/63
f 62/62/62 61/61/61 64/64/64
f 63/63/63 65/65/65 61/61/61
f 65/65/65 63/63/63 66/66/66
f 67/67/67 68/68/68 69/69/69
f 68/68/68 67/67/67 70/70/70
f 71/71/71 72/72/72 73/73/73
f 72/72/72 71/71/71 74/74/74
f 75/75/75 76/76/76 77/77/77
f 75/75/75 77/77/77 78/78/78
f 79/79/79 80/80/80 81/81/81
f 80/80/80 79/79/79 82/82/82
f 83/83/83 84/84/84 85/85/85
f 84/84/84 83/83/83 86/86/86
f 87/87/87 88/88/88 89/89/89
f 88/88/88 87/87/87 90/90/90
f 91/91/91 92/92/92 93/93/93
f 92/92/92 91/91/91 94/94/94
f 95/95/95 96/96/96 97/97/97
f 96/96/96 95/95/95 98/98/98
f 99/99/99 100/100/100 101/101/101
f 100/100/100 99/99/99 102/102/102
f 103/103/103 104/104/104 105/105/105
f 104/104/104 103/103/103 106/106/106
f 107/107/107 108/108/108 109/109/109
f 107/107/107 109/109/109 110/110/110
f 111/111/111 112/112/112 113/113/113
f 112/112/112 111/111/111 114/114/114
f 115/115/115 116/116/116 117/117/117
f 116/116/116 115/115/115 118/118/118
f 119/119/119 120/120/120 121/121/121
f 120/120/120 119/119/119 122/122/122
f 123/123/123 124/124/124 125/125/125
f 124/124/124 123/123/123 126/126/126
f 127/127/127 128/128/128 129/129/129
f 130/130/130 129/129/129 128/128/128
f 131/131/131 132/132/132 133/133/133
f 132/132/132 131/131/131 134/134/134
f 135/135/135 136/136/136 137/137/137
f 136/136/136 135/135/135 138/138/138
f 139/139/139 140/140/140 141/141/141
f 140/140/140 139/139/139 142/142/142
f 143/143/143 144/144/144 145/145/145
f 144/144/144 143/143/143 146/146/146
f 147/147/147 148/148/148 149/149/149
f 150/150/150 149/149/149 148/148/148
f 151/151/151 152/152/152 153/153/153
f 152/152/152 151/151/151 154/154/154
f 155/155/155 156/156/156 157/157/157
f 156/156/156 155/155/155 158/158/158
f 159/159/159 160/160/160 161/161/161
f 160/160/160 159/159/159 162/162/162
f 163/163/163 164/164/164 165/165/165
f 164/164/164 163/163/163 166/166/166
f 167/167/167 168/168/168 169/169/169
f 168/168/168 170/170/170 169/169/169
f 171/171/171 172/172/172 173/173/173
f 171/171/171 173/173/173 174/174/174
f 175/175/175 176/176/176 177/177/177
f 176/176/176 175/175/175 178/178/178
f 179/179/179 180/180/180 181/181/181
f 180/180/180 179/179/179 182/182/182
f 183/183/183 184/184/184 185/185/185
f 184/184/184 183/183/183 186/186/186
f 187/187/187 188/188/188 189/189/189
f 188/188/188 187/187/187 190/190/190
f 191/191/191 192/192/192 193/193/193
f 192/192/192 191/191/191 194/194/194
f 195/195/195 196/196/196 197/197/197
f 196/196/196 195/195/195 198/198/198
f 199/199/199 200/200/200 201/201/201
f 200/200/200 199/199/199 202/202/202
f 203/203/203 204/204/204 205/205/205
f 203/203/203 205/205/205 206/206/206
f 207/207/207 208/208/208 209/209/209
f 208/208/208 207/207/207 210/210/210
f 211/211/211 212/212/212 213/213/213
f 212/212/212 211/211/211 214/214/214
f 215/215/215 216/216/216 217/217/217
f 215/215/215 217/217/217 218/218/218
f 219/219/219 220/220/220 221/221/221
f 220/220/220 219/219/219 222/222/222
f 223/223/223 224/224/224 225/225/225
f 226/226/226 225/225/225 224/224/224
f 227/227/227 228/228/228 229/229/229
f 228/228/228 227/227/227 230/230/230
f 231/231/231 232/232/232 233/233/233
f 232/232/232 231/231/231 234/234/234
f 235/235/235 236/236/236 237/237/237
f 236/236/236 235/235/235 238/238/238
