# Generated from Roblox mesh JSON (v2.00)
# Hello from RBX_Toolbox ;)
o LeftUpperArmWrapTarget
v 0.069589 0.659973 0.193250
v -0.089109 0.479821 0.256596
v 0.157842 0.523288 0.382088
v 0.041866 0.322092 0.438001
v -0.097982 0.543355 0.007721
v 0.069589 0.659973 0.193250
v 0.040154 0.699625 -0.034184
v -0.089109 0.479821 0.256596
v 0.040154 0.699625 -0.034184
v -0.033978 0.503116 -0.207095
v -0.097982 0.543355 0.007721
v 0.094456 0.633282 -0.247271
v 0.157842 0.523288 0.382088
v 0.041866 0.322092 0.438001
v 0.238613 0.310786 0.443147
v 0.242605 0.150248 0.372943
v -0.139741 -0.231335 0.340705
v -0.046067 -0.468836 0.294622
v 0.059430 -0.317187 0.353930
v -0.237772 -0.388253 0.267029
v 0.010957 0.103139 0.430448
v 0.242605 0.150248 0.372943
v 0.041866 0.322092 0.438001
v 0.209218 -0.007920 0.371574
v 0.134332 0.350053 -0.381937
v -0.033978 0.503116 -0.207095
v 0.213264 0.490259 -0.413193
v 0.094456 0.633282 -0.247271
v 0.127073 -0.526996 0.180922
v 0.059430 -0.317187 0.353930
v -0.046067 -0.468836 0.294622
v 0.237428 -0.378387 0.211620
v 0.010538 -0.689890 0.132282
v -0.046067 -0.468836 0.294622
v -0.153434 -0.644304 0.234484
v 0.127073 -0.526996 0.180922
v -0.042581 -0.074027 0.386712
v 0.059430 -0.317187 0.353930
v 0.151329 -0.167109 0.381405
v -0.139741 -0.231335 0.340705
v -0.042581 -0.074027 0.386712
v 0.209218 -0.007920 0.371574
v 0.010957 0.103139 0.430448
v 0.151329 -0.167109 0.381405
v -0.237772 -0.388253 0.267029
v -0.153434 -0.644304 0.234484
v -0.046067 -0.468836 0.294622
v -0.346425 -0.573256 0.205311
v 0.464694 -0.014049 0.002469
v 0.382363 -0.075512 -0.192510
v 0.405736 0.045042 -0.182580
v 0.428980 -0.121615 -0.007113
v 0.186943 -0.538414 -0.005167
v 0.295641 -0.389669 0.003627
v 0.127073 -0.526996 0.180922
v 0.237428 -0.378387 0.211620
v 0.010538 -0.689890 0.132282
v 0.055266 -0.699625 -0.020399
v 0.005020 -0.677316 -0.150128
v 0.186943 -0.538414 -0.005167
v 0.055266 -0.699625 -0.020399
v 0.135287 -0.510695 -0.158682
v 0.242605 0.150248 0.372943
v 0.209218 -0.007920 0.371574
v 0.387168 0.028365 0.257243
v 0.361502 -0.105409 0.230357
v 0.237428 -0.378387 0.211620
v 0.151329 -0.167109 0.381405
v 0.059430 -0.317187 0.353930
v 0.312676 -0.232504 0.222038
v 0.005020 -0.677316 -0.150128
v 0.022765 -0.460425 -0.262006
v 0.135287 -0.510695 -0.158682
v -0.103418 -0.634684 -0.234758
v 0.295641 -0.389669 0.003627
v 0.135287 -0.510695 -0.158682
v 0.247742 -0.361413 -0.164467
v 0.186943 -0.538414 -0.005167
v 0.151329 -0.167109 0.381405
v 0.361502 -0.105409 0.230357
v 0.209218 -0.007920 0.371574
v 0.312676 -0.232504 0.222038
v 0.135287 -0.510695 -0.158682
v 0.137121 -0.301699 -0.280314
v 0.247742 -0.361413 -0.164467
v 0.022765 -0.460425 -0.262006
v -0.261581 -0.161703 0.200856
v -0.237772 -0.388253 0.267029
v -0.139741 -0.231335 0.340705
v -0.361851 -0.329442 0.140789
v -0.361851 -0.329442 0.140789
v -0.346425 -0.573256 0.205311
v -0.237772 -0.388253 0.267029
v -0.454550 -0.523325 0.080887
v 0.464694 -0.014049 0.002469
v 0.361502 -0.105409 0.230357
v 0.428980 -0.121615 -0.007113
v 0.387168 0.028365 0.257243
v 0.246764 -0.124305 -0.282211
v 0.382363 -0.075512 -0.192510
v 0.333927 -0.205965 -0.170345
v 0.294547 0.030392 -0.267914
v -0.129058 0.214022 0.265261
v 0.041866 0.322092 0.438001
v -0.089109 0.479821 0.256596
v 0.010957 0.103139 0.430448
v 0.137121 -0.301699 -0.280314
v 0.333927 -0.205965 -0.170345
v 0.247742 -0.361413 -0.164467
v 0.246764 -0.124305 -0.282211
v 0.382363 -0.075512 -0.192510
v 0.428980 -0.121615 -0.007113
v 0.333927 -0.205965 -0.170345
v 0.366551 -0.238602 0.013209
v 0.366551 -0.238602 0.013209
v 0.237428 -0.378387 0.211620
v 0.295641 -0.389669 0.003627
v 0.312676 -0.232504 0.222038
v 0.366551 -0.238602 0.013209
v 0.361502 -0.105409 0.230357
v 0.312676 -0.232504 0.222038
v 0.428980 -0.121615 -0.007113
v 0.366551 -0.238602 0.013209
v 0.247742 -0.361413 -0.164467
v 0.333927 -0.205965 -0.170345
v 0.295641 -0.389669 0.003627
v -0.103418 -0.634684 -0.234758
v -0.135319 -0.390892 -0.277089
v 0.022765 -0.460425 -0.262006
v -0.240664 -0.579694 -0.249272
v -0.261581 -0.161703 0.200856
v -0.042581 -0.074027 0.386712
v -0.156994 0.009650 0.241660
v -0.139741 -0.231335 0.340705
v -0.386970 -0.306635 -0.028593
v -0.464694 -0.508567 -0.063518
v -0.454550 -0.523325 0.080887
v -0.361851 -0.329442 0.140789
v -0.129058 0.214022 0.265261
v -0.156994 0.009650 0.241660
v 0.010957 0.103139 0.430448
v -0.042581 -0.074027 0.386712
v 0.137121 -0.301699 -0.280314
v 0.022765 -0.460425 -0.262006
v -0.013001 -0.217097 -0.288154
v -0.135319 -0.390892 -0.277089
v 0.294547 0.030392 -0.267914
v 0.405736 0.045042 -0.182580
v 0.382363 -0.075512 -0.192510
v 0.312165 0.172768 -0.377719
v 0.294547 0.030392 -0.267914
v 0.246764 -0.124305 -0.282211
v 0.090335 -0.031767 -0.285175
v 0.127895 0.151326 -0.329738
v 0.137121 -0.301699 -0.280314
v 0.090335 -0.031767 -0.285175
v 0.246764 -0.124305 -0.282211
v -0.013001 -0.217097 -0.288154
v -0.240664 -0.579694 -0.249272
v -0.292664 -0.331482 -0.186414
v -0.135319 -0.390892 -0.277089
v -0.380500 -0.530959 -0.189788
v 0.356756 0.036802 -0.076182
v 0.387168 0.028365 0.257243
v 0.464694 -0.014049 0.002469
v 0.315444 0.107171 0.399801
v -0.292664 -0.331482 -0.186414
v -0.464694 -0.508567 -0.063518
v -0.386970 -0.306635 -0.028593
v -0.380500 -0.530959 -0.189788
v -0.278262 -0.127143 0.008223
v -0.156994 0.009650 0.241660
v -0.176400 0.065577 0.029643
v -0.261581 -0.161703 0.200856
v -0.154394 0.289601 0.020101
v -0.089109 0.479821 0.256596
v -0.097982 0.543355 0.007721
v -0.129058 0.214022 0.265261
v -0.278262 -0.127143 0.008223
v -0.361851 -0.329442 0.140789
v -0.261581 -0.161703 0.200856
v -0.386970 -0.306635 -0.028593
v -0.013001 -0.217097 -0.288154
v -0.135319 -0.390892 -0.277089
v -0.181684 -0.151009 -0.187810
v -0.292664 -0.331482 -0.186414
v -0.013001 -0.217097 -0.288154
v -0.077073 0.037867 -0.181199
v 0.090335 -0.031767 -0.285175
v -0.181684 -0.151009 -0.187810
v -0.176400 0.065577 0.029643
v -0.129058 0.214022 0.265261
v -0.154394 0.289601 0.020101
v -0.156994 0.009650 0.241660
v -0.077073 0.037867 -0.181199
v -0.278262 -0.127143 0.008223
v -0.176400 0.065577 0.029643
v -0.181684 -0.151009 -0.187810
v -0.033978 0.503116 -0.207095
v -0.062811 0.252387 -0.206069
v -0.154394 0.289601 0.020101
v -0.097982 0.543355 0.007721
v -0.181684 -0.151009 -0.187810
v -0.386970 -0.306635 -0.028593
v -0.278262 -0.127143 0.008223
v -0.292664 -0.331482 -0.186414
v 0.127895 0.151326 -0.329738
v -0.077073 0.037867 -0.181199
v -0.062811 0.252387 -0.206069
v 0.090335 -0.031767 -0.285175
v 0.134332 0.350053 -0.381937
v 0.127895 0.151326 -0.329738
v -0.062811 0.252387 -0.206069
v -0.033978 0.503116 -0.207095
v 0.134332 0.350053 -0.381937
v 0.305648 0.304290 -0.443147
v 0.312165 0.172768 -0.377719
v 0.213264 0.490259 -0.413193
v -0.176400 0.065577 0.029643
v -0.062811 0.252387 -0.206069
v -0.077073 0.037867 -0.181199
v -0.154394 0.289601 0.020101
v 0.374777 0.128631 -0.400297
v 0.356756 0.036802 -0.076182
v 0.405736 0.045042 -0.182580
v 0.464694 -0.014049 0.002469
v 0.312165 0.172768 -0.377719
v 0.294547 0.030392 -0.267914
v 0.127895 0.151326 -0.329738
v 0.134332 0.350053 -0.381937
v 0.238613 0.310786 0.443147
v 0.242605 0.150248 0.372943
v 0.315444 0.107171 0.399801
v 0.387168 0.028365 0.257243
v 0.374777 0.128631 -0.400297
v 0.312165 0.172768 -0.377719
v 0.305648 0.304290 -0.443147
v 0.405736 0.045042 -0.182580
vt 4.249259 3.511224
vt 4.317513 3.511224
vt 4.249259 3.579725
vt 4.317513 3.579725
vt 4.317513 3.462179
vt 4.249259 3.511224
vt 4.249259 3.462179
vt 4.317513 3.511224
vt 4.249259 3.462179
vt 4.317513 3.414271
vt 4.317513 3.462179
vt 4.249259 3.401921
vt 4.249259 3.579725
vt 4.317513 3.579725
vt 4.249260 3.651093
vt 4.317513 3.651093
vt 4.573396 3.579725
vt 4.674969 3.651093
vt 4.573396 3.651094
vt 4.674969 3.579725
vt 4.383102 3.579725
vt 4.317513 3.651093
vt 4.317513 3.579725
vt 4.383102 3.651093
vt 4.317513 3.344108
vt 4.317513 3.414271
vt 4.249259 3.343375
vt 4.249259 3.401921
vt 4.674968 3.682632
vt 4.573396 3.651094
vt 4.674969 3.651093
vt 4.573396 3.682632
vt 4.750740 3.682632
vt 4.674969 3.651093
vt 4.750741 3.651093
vt 4.674968 3.682632
vt 4.464461 3.579725
vt 4.573396 3.651094
vt 4.464461 3.651093
vt 4.573396 3.579725
vt 4.464461 3.579725
vt 4.383102 3.651093
vt 4.383102 3.579725
vt 4.464461 3.651093
vt 4.674969 3.579725
vt 4.750741 3.651093
vt 4.674969 3.651093
vt 4.750740 3.579725
vt 4.317512 3.209337
vt 4.383102 3.241270
vt 4.317513 3.241285
vt 4.383102 3.209337
vt 4.674969 3.714510
vt 4.573396 3.714510
vt 4.674968 3.682632
vt 4.573396 3.682632
vt 4.750740 3.682632
vt 4.750741 3.714510
vt 4.750740 3.241194
vt 4.674968 3.209337
vt 4.750740 3.209337
vt 4.674968 3.241194
vt 4.317513 3.651093
vt 4.383102 3.651093
vt 4.317513 3.682776
vt 4.383102 3.682749
vt 4.573396 3.682632
vt 4.464461 3.651093
vt 4.573396 3.651094
vt 4.464461 3.682632
vt 4.750740 3.241194
vt 4.674968 3.273265
vt 4.674968 3.241194
vt 4.750740 3.273265
vt 4.573396 3.209337
vt 4.674968 3.241194
vt 4.573396 3.241194
vt 4.674968 3.209337
vt 4.464461 3.651093
vt 4.383102 3.682749
vt 4.383102 3.651093
vt 4.464461 3.682632
vt 4.674968 3.241194
vt 4.573396 3.273265
vt 4.573396 3.241194
vt 4.674968 3.273265
vt 4.573396 3.511224
vt 4.674969 3.579725
vt 4.573396 3.579725
vt 4.674968 3.511224
vt 4.674968 3.511224
vt 4.750740 3.579725
vt 4.674969 3.579725
vt 4.750740 3.511224
vt 4.317512 3.714511
vt 4.383102 3.682749
vt 4.383102 3.714510
vt 4.317513 3.682776
vt 4.464461 3.273264
vt 4.383102 3.241270
vt 4.464461 3.241194
vt 4.383102 3.273265
vt 4.383102 3.511224
vt 4.317513 3.579725
vt 4.317513 3.511224
vt 4.383102 3.579725
vt 4.573396 3.273265
vt 4.464461 3.241194
vt 4.573396 3.241194
vt 4.464461 3.273264
vt 4.383102 3.241270
vt 4.383102 3.209337
vt 4.464461 3.241194
vt 4.464461 3.209337
vt 4.464461 3.714510
vt 4.573396 3.682632
vt 4.573396 3.714510
vt 4.464461 3.682632
vt 4.464461 3.714510
vt 4.383102 3.682749
vt 4.464461 3.682632
vt 4.383102 3.714510
vt 4.464461 3.209337
vt 4.573396 3.241194
vt 4.464461 3.241194
vt 4.573396 3.209337
vt 4.750740 3.273265
vt 4.674969 3.344108
vt 4.674968 3.273265
vt 4.750741 3.344108
vt 4.573396 3.511224
vt 4.464461 3.579725
vt 4.464461 3.511224
vt 4.573396 3.579725
vt 4.674968 3.462179
vt 4.750740 3.462179
vt 4.750740 3.511224
vt 4.674968 3.511224
vt 4.383102 3.511224
vt 4.464461 3.511224
vt 4.383102 3.579725
vt 4.464461 3.579725
vt 4.573396 3.273265
vt 4.674968 3.273265
vt 4.573396 3.344108
vt 4.674969 3.344108
vt 4.383102 3.273265
vt 4.317513 3.241285
vt 4.383102 3.241270
vt 4.317513 3.273265
vt 4.383102 3.273265
vt 4.464461 3.273264
vt 4.464461 3.344108
vt 4.383102 3.344108
vt 4.573396 3.273265
vt 4.464461 3.344108
vt 4.464461 3.273264
vt 4.573396 3.344108
vt 4.750741 3.344108
vt 4.674968 3.414270
vt 4.674969 3.344108
vt 4.750740 3.414270
vt 4.249260 3.714511
vt 4.317513 3.682776
vt 4.317512 3.714511
vt 4.249259 3.682803
vt 4.674968 3.414270
vt 4.750740 3.462179
vt 4.674968 3.462179
vt 4.750740 3.414270
vt 4.573396 3.462179
vt 4.464461 3.511224
vt 4.464461 3.462179
vt 4.573396 3.511224
vt 4.383102 3.462179
vt 4.317513 3.511224
vt 4.317513 3.462179
vt 4.383102 3.511224
vt 4.573396 3.462179
vt 4.674968 3.511224
vt 4.573396 3.511224
vt 4.674968 3.462179
vt 4.573396 3.344108
vt 4.674969 3.344108
vt 4.573396 3.414270
vt 4.674968 3.414270
vt 4.573396 3.344108
vt 4.464461 3.414271
vt 4.464461 3.344108
vt 4.573396 3.414270
vt 4.464461 3.462179
vt 4.383102 3.511224
vt 4.383102 3.462179
vt 4.464461 3.511224
vt 4.464461 3.414271
vt 4.573396 3.462179
vt 4.464461 3.462179
vt 4.573396 3.414270
vt 4.317513 3.414271
vt 4.383102 3.414270
vt 4.383102 3.462179
vt 4.317513 3.462179
vt 4.573396 3.414270
vt 4.674968 3.462179
vt 4.573396 3.462179
vt 4.674968 3.414270
vt 4.383102 3.344108
vt 4.464461 3.414271
vt 4.383102 3.414270
vt 4.464461 3.344108
vt 4.317513 3.344108
vt 4.383102 3.344108
vt 4.383102 3.414270
vt 4.317513 3.414271
vt 4.317513 3.344108
vt 4.249260 3.273265
vt 4.317513 3.273265
vt 4.249259 3.343375
vt 4.464461 3.462179
vt 4.383102 3.414270
vt 4.464461 3.414271
vt 4.383102 3.462179
vt 4.249259 3.241301
vt 4.249260 3.209337
vt 4.317513 3.241285
vt 4.317512 3.209337
vt 4.317513 3.273265
vt 4.383102 3.273265
vt 4.383102 3.344108
vt 4.317513 3.344108
vt 4.249260 3.651093
vt 4.317513 3.651093
vt 4.249259 3.682803
vt 4.317513 3.682776
vt 4.249259 3.241301
vt 4.317513 3.273265
vt 4.249260 3.273265
vt 4.317513 3.241285
vn -0.453787 0.546874 0.703567
vn -0.453787 0.546874 0.703567
vn -0.453787 0.546874 0.703567
vn -0.453787 0.546874 0.703567
vn -0.701430 0.682819 0.204336
vn -0.701430 0.682819 0.204336
vn -0.701430 0.682819 0.204336
vn -0.701430 0.682819 0.204336
vn -0.733904 0.583228 -0.348181
vn -0.733904 0.583228 -0.348181
vn -0.733904 0.583228 -0.348181
vn -0.733904 0.583228 -0.348181
vn -0.027907 -0.030835 0.999135
vn -0.027907 -0.030835 0.999135
vn -0.027907 -0.030835 0.999135
vn -0.027907 -0.030835 0.999135
vn -0.211433 -0.265888 0.940532
vn -0.211433 -0.265888 0.940532
vn -0.211433 -0.265888 0.940532
vn -0.211433 -0.265888 0.940532
vn 0.253023 -0.065970 0.965208
vn 0.253023 -0.065970 0.965208
vn 0.253023 -0.065970 0.965208
vn 0.253023 -0.065970 0.965208
vn -0.608339 0.269329 -0.746583
vn -0.608339 0.269329 -0.746583
vn -0.608339 0.269329 -0.746583
vn -0.608339 0.269329 -0.746583
vn 0.387433 -0.508944 0.768682
vn 0.387433 -0.508944 0.768682
vn 0.387433 -0.508944 0.768682
vn 0.387433 -0.508944 0.768682
vn 0.357260 -0.491699 0.794102
vn 0.357260 -0.491699 0.794102
vn 0.357260 -0.491699 0.794102
vn 0.357260 -0.491699 0.794102
vn -0.098725 -0.173518 0.979870
vn -0.098725 -0.173518 0.979870
vn -0.098725 -0.173518 0.979870
vn -0.098725 -0.173518 0.979870
vn 0.093598 -0.130502 0.987020
vn 0.093598 -0.130502 0.987020
vn 0.093598 -0.130502 0.987020
vn 0.093598 -0.130502 0.987020
vn -0.217336 -0.193194 0.956787
vn -0.217336 -0.193194 0.956787
vn -0.217336 -0.193194 0.956787
vn -0.217336 -0.193194 0.956787
vn 0.922529 -0.211328 -0.322926
vn 0.922529 -0.211328 -0.322926
vn 0.922529 -0.211328 -0.322926
vn 0.922529 -0.211328 -0.322926
vn 0.750200 -0.606086 0.264311
vn 0.760053 -0.594707 0.261999
vn 0.750054 -0.606252 0.264344
vn 0.760053 -0.594707 0.261999
vn 0.739043 -0.618569 0.266809
vn 0.739043 -0.618569 0.266809
vn 0.731001 -0.576652 -0.364843
vn 0.731001 -0.576652 -0.364843
vn 0.731001 -0.576652 -0.364843
vn 0.731001 -0.576652 -0.364843
vn 0.557860 -0.191009 0.807656
vn 0.557860 -0.191009 0.807656
vn 0.557860 -0.191009 0.807656
vn 0.557860 -0.191009 0.807656
vn 0.524700 -0.393013 0.755136
vn 0.524700 -0.393013 0.755136
vn 0.524700 -0.393013 0.755136
vn 0.524700 -0.393013 0.755136
vn 0.470498 -0.434621 -0.767943
vn 0.470498 -0.434621 -0.767943
vn 0.470498 -0.434621 -0.767943
vn 0.470498 -0.434621 -0.767943
vn 0.758993 -0.559863 -0.332390
vn 0.758993 -0.559863 -0.332390
vn 0.758993 -0.559863 -0.332390
vn 0.758993 -0.559863 -0.332390
vn 0.611272 -0.223848 0.759104
vn 0.611272 -0.223848 0.759104
vn 0.611272 -0.223848 0.759104
vn 0.611272 -0.223848 0.759104
vn 0.512479 -0.435280 -0.740200
vn 0.512479 -0.435280 -0.740200
vn 0.512479 -0.435280 -0.740200
vn 0.512479 -0.435280 -0.740200
vn -0.694916 0.133364 0.706616
vn -0.694916 0.133364 0.706616
vn -0.694916 0.133364 0.706616
vn -0.694916 0.133364 0.706616
vn -0.694471 0.142689 0.705231
vn -0.694471 0.142689 0.705231
vn -0.694471 0.142689 0.705231
vn -0.694471 0.142689 0.705231
vn 0.912092 -0.277566 0.301738
vn 0.912092 -0.277566 0.301738
vn 0.912092 -0.277566 0.301738
vn 0.912092 -0.277566 0.301738
vn 0.592176 -0.221198 -0.774855
vn 0.592176 -0.221198 -0.774855
vn 0.592176 -0.221198 -0.774855
vn 0.592176 -0.221198 -0.774855
vn -0.740003 0.109690 0.663599
vn -0.740003 0.109690 0.663599
vn -0.740003 0.109690 0.663599
vn -0.740003 0.109690 0.663599
vn 0.582325 -0.359643 -0.729078
vn 0.582325 -0.359643 -0.729078
vn 0.582325 -0.359643 -0.729078
vn 0.582325 -0.359643 -0.729078
vn 0.858378 -0.432084 -0.276569
vn 0.858378 -0.432084 -0.276569
vn 0.858378 -0.432084 -0.276569
vn 0.858378 -0.432084 -0.276569
vn 0.861900 -0.441073 0.250165
vn 0.861900 -0.441073 0.250165
vn 0.861900 -0.441073 0.250165
vn 0.861900 -0.441073 0.250165
vn 0.883466 -0.389922 0.259710
vn 0.883466 -0.389922 0.259710
vn 0.883466 -0.389922 0.259710
vn 0.883466 -0.389922 0.259710
vn 0.857715 -0.436308 -0.271956
vn 0.857715 -0.436308 -0.271956
vn 0.857715 -0.436308 -0.271956
vn 0.857715 -0.436308 -0.271956
vn 0.028166 -0.167431 -0.985481
vn 0.028166 -0.167431 -0.985481
vn 0.028166 -0.167431 -0.985481
vn 0.028166 -0.167431 -0.985481
vn -0.681956 0.235740 0.692361
vn -0.681956 0.235740 0.692361
vn -0.681956 0.235740 0.692361
vn -0.681956 0.235740 0.692361
vn -0.920825 0.361317 0.146735
vn -0.920825 0.361317 0.146735
vn -0.920825 0.361317 0.146735
vn -0.920825 0.361317 0.146735
vn -0.757742 0.046940 0.650863
vn -0.757742 0.046940 0.650863
vn -0.757742 0.046940 0.650863
vn -0.757742 0.046940 0.650863
vn 0.022147 -0.103599 -0.994373
vn 0.022147 -0.103599 -0.994373
vn 0.022147 -0.103599 -0.994373
vn 0.022147 -0.103599 -0.994373
vn 0.596684 -0.364574 -0.714880
vn 0.596684 -0.364574 -0.714880
vn 0.596684 -0.364574 -0.714880
vn 0.596684 -0.364574 -0.714880
vn 0.119386 -0.118485 -0.985753
vn 0.119386 -0.118485 -0.985753
vn 0.119386 -0.118485 -0.985753
vn 0.119386 -0.118485 -0.985753
vn 0.027588 -0.013220 -0.999532
vn 0.027588 -0.013220 -0.999532
vn 0.027588 -0.013220 -0.999532
vn 0.027588 -0.013220 -0.999532
vn -0.403985 0.144128 -0.903340
vn -0.403985 0.144128 -0.903340
vn -0.403985 0.144128 -0.903340
vn -0.403985 0.144128 -0.903340
vn 0.577380 0.815848 -0.032020
vn 0.577380 0.815848 -0.032020
vn 0.577380 0.815848 -0.032020
vn 0.577380 0.815848 -0.032020
vn -0.759877 0.364750 -0.538094
vn -0.759877 0.364750 -0.538094
vn -0.759877 0.364750 -0.538094
vn -0.759877 0.364750 -0.538094
vn -0.868494 0.461601 0.180675
vn -0.868494 0.461601 0.180675
vn -0.868494 0.461601 0.180675
vn -0.868494 0.461601 0.180675
vn -0.975266 0.185734 0.119833
vn -0.975266 0.185734 0.119833
vn -0.975266 0.185734 0.119833
vn -0.975266 0.185734 0.119833
vn -0.864401 0.471540 0.174530
vn -0.864401 0.471540 0.174530
vn -0.864401 0.471540 0.174530
vn -0.864401 0.471540 0.174530
vn -0.418304 0.244700 -0.874725
vn -0.418304 0.244700 -0.874725
vn -0.418304 0.244700 -0.874725
vn -0.418304 0.244700 -0.874725
vn -0.423788 0.257751 -0.868313
vn -0.423788 0.257751 -0.868313
vn -0.423788 0.257751 -0.868313
vn -0.423788 0.257751 -0.868313
vn -0.985541 0.110684 0.128290
vn -0.985541 0.110684 0.128290
vn -0.985541 0.110684 0.128290
vn -0.985541 0.110684 0.128290
vn -0.779242 0.453410 -0.432668
vn -0.779242 0.453410 -0.432668
vn -0.779242 0.453410 -0.432668
vn -0.779242 0.453410 -0.432668
vn -0.924428 0.146853 -0.351947
vn -0.924428 0.146853 -0.351947
vn -0.924428 0.146853 -0.351947
vn -0.924428 0.146853 -0.351947
vn -0.734878 0.494202 -0.464455
vn -0.734878 0.494202 -0.464455
vn -0.734878 0.494202 -0.464455
vn -0.734878 0.494202 -0.464455
vn -0.559103 -0.071372 -0.826020
vn -0.559103 -0.071372 -0.826020
vn -0.559103 -0.071372 -0.826020
vn -0.559103 -0.071372 -0.826020
vn -0.654656 -0.038031 -0.754970
vn -0.654656 -0.038031 -0.754970
vn -0.654656 -0.038031 -0.754970
vn -0.654656 -0.038031 -0.754970
vn -0.379600 -0.218686 -0.898933
vn -0.379600 -0.218686 -0.898933
vn -0.379600 -0.218686 -0.898933
vn -0.379600 -0.218686 -0.898933
vn -0.913101 0.043706 -0.405384
vn -0.913101 0.043706 -0.405384
vn -0.913101 0.043706 -0.405384
vn -0.913101 0.043706 -0.405384
vn 0.364575 0.900361 0.237559
vn 0.364575 0.900361 0.237559
vn 0.364575 0.900361 0.237559
vn 0.364575 0.900361 0.237559
vn -0.184637 -0.410983 -0.892750
vn -0.184637 -0.410983 -0.892750
vn -0.184637 -0.410983 -0.892750
vn -0.184637 -0.410983 -0.892750
vn -0.568885 -0.639571 0.517028
vn -0.568885 -0.639571 0.517028
vn -0.568885 -0.639571 0.517028
vn -0.568885 -0.639571 0.517028
vn -0.619088 -0.662635 -0.421480
vn -0.619088 -0.662635 -0.421480
vn -0.619088 -0.662635 -0.421480
vn -0.619088 -0.662635 -0.421480
f 1/1/1 2/2/2 3/3/3
f 3/3/3 2/2/2 4/4/4
f 5/5/5 6/6/6 7/7/7
f 6/6/6 5/5/5 8/8/8
f 9/9/9 10/10/10 11/11/11
f 10/10/10 9/9/9 12/12/12
f 13/13/13 14/14/14 15/15/15
f 14/14/14 16/16/16 15/15/15
f 17/17/17 18/18/18 19/19/19
f 18/18/18 17/17/17 20/20/20
f 21/21/21 22/22/22 23/23/23
f 22/22/22 21/21/21 24/24/24
f 25/25/25 26/26/26 27/27/27
f 26/26/26 28/28/28 27/27/27
f 29/29/29 30/30/30 31/31/31
f 30/30/30 29/29/29 32/32/32
f 33/33/33 34/34/34 35/35/35
f 34/34/34 33/33/33 36/36/36
f 37/37/37 38/38/38 39/39/39
f 38/38/38 37/37/37 40/40/40
f 41/41/41 42/42/42 43/43/43
f 42/42/42 41/41/41 44/44/44
f 45/45/45 46/46/46 47/47/47
f 46/46/46 45/45/45 48/48/48
f 49/49/49 50/50/50 51/51/51
f 50/50/50 49/49/49 52/52/52
f 53/53/53 54/54/54 55/55/55
f 54/54/54 56/56/56 55/55/55
f 53/53/53 55/55/55 57/57/57
f 58/58/58 53/53/53 57/57/57
f 59/59/59 60/60/60 61/61/61
f 60/60/60 59/59/59 62/62/62
f 63/63/63 64/64/64 65/65/65
f 64/64/64 66/66/66 65/65/65
f 67/67/67 68/68/68 69/69/69
f 68/68/68 67/67/67 70/70/70
f 71/71/71 72/72/72 73/73/73
f 72/72/72 71/71/71 74/74/74
f 75/75/75 76/76/76 77/77/77
f 76/76/76 75/75/75 78/78/78
f 79/79/79 80/80/80 81/81/81
f 80/80/80 79/79/79 82/82/82
f 83/83/83 84/84/84 85/85/85
f 84/84/84 83/83/83 86/86/86
f 87/87/87 88/88/88 89/89/89
f 88/88/88 87/87/87 90/90/90
f 91/91/91 92/92/92 93/93/93
f 92/92/92 91/91/91 94/94/94
f 95/95/95 96/96/96 97/97/97
f 96/96/96 95/95/95 98/98/98
f 99/99/99 100/100/100 101/101/101
f 100/100/100 99/99/99 102/102/102
f 103/103/103 104/104/104 105/105/105
f 104/104/104 103/103/103 106/106/106
f 107/107/107 108/108/108 109/109/109
f 108/108/108 107/107/107 110/110/110
f 111/111/111 112/112/112 113/113/113
f 113/113/113 112/112/112 114/114/114
f 115/115/115 116/116/116 117/117/117
f 116/116/116 115/115/115 118/118/118
f 119/119/119 120/120/120 121/121/121
f 120/120/120 119/119/119 122/122/122
f 123/123/123 124/124/124 125/125/125
f 124/124/124 123/123/123 126/126/126
f 127/127/127 128/128/128 129/129/129
f 128/128/128 127/127/127 130/130/130
f 131/131/131 132/132/132 133/133/133
f 132/132/132 131/131/131 134/134/134
f 135/135/135 136/136/136 137/137/137
f 135/135/135 137/137/137 138/138/138
f 139/139/139 140/140/140 141/141/141
f 141/141/141 140/140/140 142/142/142
f 143/143/143 144/144/144 145/145/145
f 144/144/144 146/146/146 145/145/145
f 147/147/147 148/148/148 149/149/149
f 148/148/148 147/147/147 150/150/150
f 151/151/151 152/152/152 153/153/153
f 151/151/151 153/153/153 154/154/154
f 155/155/155 156/156/156 157/157/157
f 156/156/156 155/155/155 158/158/158
f 159/159/159 160/160/160 161/161/161
f 160/160/160 159/159/159 162/162/162
f 163/163/163 164/164/164 165/165/165
f 163/163/163 166/166/166 164/164/164
f 167/167/167 168/168/168 169/169/169
f 168/168/168 167/167/167 170/170/170
f 171/171/171 172/172/172 173/173/173
f 172/172/172 171/171/171 174/174/174
f 175/175/175 176/176/176 177/177/177
f 176/176/176 175/175/175 178/178/178
f 179/179/179 180/180/180 181/181/181
f 180/180/180 179/179/179 182/182/182
f 183/183/183 184/184/184 185/185/185
f 184/184/184 186/186/186 185/185/185
f 187/187/187 188/188/188 189/189/189
f 188/188/188 187/187/187 190/190/190
f 191/191/191 192/192/192 193/193/193
f 192/192/192 191/191/191 194/194/194
f 195/195/195 196/196/196 197/197/197
f 196/196/196 195/195/195 198/198/198
f 199/199/199 200/200/200 201/201/201
f 201/201/201 202/202/202 199/199/199
f 203/203/203 204/204/204 205/205/205
f 204/204/204 203/203/203 206/206/206
f 207/207/207 208/208/208 209/209/209
f 207/207/207 210/210/210 208/208/208
f 211/211/211 212/212/212 213/213/213
f 213/213/213 214/214/214 211/211/211
f 215/215/215 216/216/216 217/217/217
f 216/216/216 215/215/215 218/218/218
f 219/219/219 220/220/220 221/221/221
f 220/220/220 219/219/219 222/222/222
f 223/223/223 224/224/224 225/225/225
f 226/226/226 225/225/225 224/224/224
f 227/227/227 228/228/228 229/229/229
f 229/229/229 230/230/230 227/227/227
f 231/231/231 232/232/232 233/233/233
f 232/232/232 234/234/234 233/233/233
f 235/235/235 236/236/236 237/237/237
f 236/236/236 235/235/235 238/238/238
