# Generated from Roblox mesh JSON (v4.01)
# Hello from RBX_Toolbox ;)
o LeftLowerArm
v -0.375646 -0.447295 -0.314148
v -0.327341 -0.433641 -0.356994
v -0.279964 -0.627222 -0.297319
v -0.269204 -0.433734 -0.362583
v -0.228911 -0.449833 -0.341815
v -0.279964 -0.627222 -0.297319
v -0.398568 -0.467441 -0.256289
v -0.279964 -0.627222 -0.297319
v -0.399318 -0.488736 -0.197621
v -0.279964 -0.627222 -0.297319
v -0.327341 -0.433641 -0.356994
v -0.269204 -0.433734 -0.362583
v -0.279964 -0.627222 -0.297319
v -0.260858 -0.195521 -0.260565
v -0.310643 -0.192385 -0.224483
v -0.375646 -0.447295 -0.314148
v -0.398568 -0.467441 -0.256289
v -0.228911 -0.449833 -0.341815
v -0.203175 -0.478526 -0.313569
v -0.279964 -0.627222 -0.297319
v -0.185366 -0.533490 -0.283034
v -0.279964 -0.627222 -0.297319
v -0.185366 -0.533490 -0.283034
v -0.194182 -0.540199 -0.200784
v -0.279964 -0.627222 -0.297319
v -0.194182 -0.540199 -0.200784
v -0.208521 -0.551049 -0.148521
v -0.279964 -0.627222 -0.297319
v -0.106928 -0.306813 -0.162166
v -0.203175 -0.478526 -0.313569
v -0.161184 -0.241705 -0.242212
v -0.125970 -0.273741 -0.208827
v -0.380304 -0.509290 -0.140696
v -0.399318 -0.488736 -0.197621
v -0.279964 -0.627222 -0.297319
v -0.339339 -0.527773 -0.097323
v -0.279964 -0.627222 -0.297319
v -0.285892 -0.542974 -0.084842
v -0.279964 -0.627222 -0.297319
v -0.272151 -0.293010 -0.003138
v -0.214631 -0.323544 0.007225
v -0.313232 -0.259471 -0.045785
v -0.334576 -0.229565 -0.102982
v -0.238541 -0.552791 -0.104715
v -0.285892 -0.542974 -0.084842
v -0.279964 -0.627222 -0.297319
v -0.208521 -0.551049 -0.148521
v -0.279964 -0.627222 -0.297319
v -0.109388 -0.332061 -0.105385
v -0.123340 -0.347292 -0.053432
v -0.214631 -0.323544 0.007225
v -0.160508 -0.342856 -0.014370
v -0.207040 -0.213389 -0.265497
v -0.335189 -0.206073 -0.165222
v -0.246922 0.062651 -0.081786
v -0.209547 0.065434 -0.149230
v -0.207040 -0.213389 -0.265497
v -0.155707 0.053192 -0.193720
v -0.023828 -0.014136 -0.183912
v -0.089538 0.024715 -0.203012
v -0.089538 0.024715 -0.203012
v -0.106642 0.336818 -0.098571
v -0.040154 0.318802 -0.154110
v -0.220114 -0.004417 0.074548
v -0.159879 -0.056330 0.123945
v -0.087757 -0.107312 0.139411
v -0.251109 0.038170 -0.000774
v -0.128249 0.298315 0.083113
v -0.090865 0.249612 0.173231
v -0.017198 -0.144788 0.117182
v -0.087757 -0.107312 0.139411
v -0.018631 0.187594 0.234673
v -0.135164 0.328648 -0.011640
v 0.060046 -0.107526 -0.076004
v 0.061633 -0.143721 -0.004388
v 0.035254 -0.157019 0.063864
v 0.028033 -0.059488 -0.137456
v 0.044226 0.278711 -0.160017
v 0.191105 0.168126 -0.061061
v 0.236816 0.110414 0.013530
v 0.245743 0.071536 0.097568
v 0.126206 0.226388 -0.125070
v 0.044226 0.278711 -0.160017
v 0.374530 0.356888 0.091653
v 0.149744 0.082012 0.237861
v 0.065767 0.127025 0.259600
v 0.065767 0.127025 0.259600
v 0.217747 0.383632 0.362583
v 0.216149 0.060349 0.179335
v 0.399318 0.328622 0.173716
v 0.310639 0.342131 0.331068
v 0.375327 0.324125 0.260808
v 0.217747 0.383632 0.362583
v 0.039001 0.588677 -0.016906
v 0.105615 0.557441 -0.063105
v -0.004796 0.591215 0.067303
v 0.177388 0.510407 -0.069748
v 0.317964 0.627222 0.139979
v 0.250508 0.457469 -0.033941
v 0.177388 0.510407 -0.069748
v 0.321102 0.403086 0.020444
v 0.317964 0.627222 0.139979
v 0.177388 0.510407 -0.069748
v 0.105615 0.557441 -0.063105
v 0.317964 0.627222 0.139979
v 0.250508 0.457469 -0.033941
v 0.177388 0.510407 -0.069748
v 0.317964 0.627222 0.139979
v 0.317964 0.627222 0.139979
v 0.317964 0.627222 0.139979
v 0.045754 0.504611 0.264674
v 0.119762 0.443147 0.338425
v -0.003230 0.559343 0.172635
v -0.004796 0.591215 0.067303
v -0.003230 0.559343 0.172635
v 0.317964 0.627222 0.139979
v 0.317964 0.627222 0.139979
v 0.317964 0.627222 0.139979
v 0.317964 0.627222 0.139979
v 0.310639 0.342131 0.331068
v 0.375327 0.324125 0.260808
v 0.317964 0.627222 0.139979
v 0.317964 0.627222 0.139979
v 0.317964 0.627222 0.139979
v 0.119762 0.443147 0.338425
v 0.217747 0.383632 0.362583
v 0.317964 0.627222 0.139979
vt 0.760831 0.957893
vt 0.762081 0.950034
vt 0.760831 0.957893
vt 0.851177 0.380268
vt 0.845447 0.380736
vt 0.851177 0.380268
vt 0.758985 0.965592
vt 0.758985 0.965592
vt 0.756697 0.972803
vt 0.756697 0.972803
vt 0.762081 0.950034
vt 0.762670 0.943059
vt 0.762081 0.950034
vt 0.731528 0.940302
vt 0.729248 0.947285
vt 0.760831 0.957893
vt 0.758985 0.965592
vt 0.845447 0.380736
vt 0.839969 0.379833
vt 0.845447 0.380736
vt 0.833533 0.375791
vt 0.839969 0.379833
vt 0.833533 0.375791
vt 0.824167 0.378124
vt 0.833533 0.375791
vt 0.824167 0.378124
vt 0.817792 0.378289
vt 0.824167 0.378124
vt 0.829585 0.408287
vt 0.839969 0.379833
vt 0.844124 0.409053
vt 0.836994 0.408888
vt 0.753828 0.979927
vt 0.756697 0.972803
vt 0.753828 0.979927
vt 0.750624 0.986756
vt 0.750624 0.986756
vt 0.748068 0.993112
vt 0.748068 0.993112
vt 0.720732 0.978129
vt 0.719492 0.985904
vt 0.722572 0.970211
vt 0.724691 0.962380
vt 0.811643 0.378192
vt 0.805556 0.377517
vt 0.811643 0.378192
vt 0.817792 0.378289
vt 0.817792 0.378289
vt 0.821902 0.407677
vt 0.815007 0.407128
vt 0.801100 0.405344
vt 0.808407 0.406476
vt 0.733950 0.933951
vt 0.726923 0.954755
vt 0.693824 0.943104
vt 0.697033 0.934496
vt 0.851190 0.408663
vt 0.700276 0.926641
vt 0.847499 0.441360
vt 0.856720 0.439916
vt 0.703901 0.918715
vt 0.664001 0.922304
vt 0.667698 0.912631
vt 0.688334 0.963203
vt 0.686519 0.974102
vt 0.685681 0.984728
vt 0.690883 0.952682
vt 0.656602 0.943599
vt 0.653434 0.956130
vt 0.800533 0.438527
vt 0.790838 0.436613
vt 0.650961 0.969361
vt 0.660217 0.932401
vt 0.827699 0.441616
vt 0.818244 0.440665
vt 0.809472 0.439735
vt 0.837681 0.442009
vt 0.671580 0.902308
vt 0.838075 0.476822
vt 0.825853 0.476590
vt 0.815089 0.476138
vt 0.850756 0.476043
vt 0.862943 0.474604
vt 0.826093 0.511538
vt 0.794300 0.474502
vt 0.782845 0.472802
vt 0.649451 0.981997
vt 0.612379 0.976817
vt 0.804925 0.475514
vt 0.814894 0.512692
vt 0.791806 0.512428
vt 0.803683 0.513094
vt 0.779002 0.510810
vt 0.630021 0.910689
vt 0.634438 0.900970
vt 0.625726 0.921574
vt 0.638663 0.891406
vt 0.630021 0.910689
vt 0.851232 0.509418
vt 0.862943 0.508931
vt 0.838467 0.510280
vt 0.838467 0.510280
vt 0.638663 0.891406
vt 0.634438 0.900970
vt 0.638663 0.891406
vt 0.851232 0.509418
vt 0.862943 0.508931
vt 0.851232 0.509418
vt 0.634438 0.900970
vt 0.826093 0.511538
vt 0.618139 0.948552
vt 0.614832 0.962945
vt 0.621674 0.934516
vt 0.625726 0.921574
vt 0.621674 0.934516
vt 0.625726 0.921574
vt 0.621674 0.934516
vt 0.618139 0.948552
vt 0.803683 0.513094
vt 0.791806 0.512428
vt 0.803683 0.513094
vt 0.791806 0.512428
vt 0.814894 0.512692
vt 0.779002 0.510810
vt 0.614832 0.962945
vt 0.612379 0.976817
vt 0.614832 0.962945
vn -0.796040 0.016430 -0.605020
vn -0.438156 0.078531 -0.895462
vn -0.490955 -0.609899 -0.622082
vn 0.048974 0.086959 -0.995007
vn 0.657094 -0.145758 -0.739582
vn -0.490955 -0.609899 -0.622082
vn -0.959486 -0.099907 -0.263448
vn -0.490955 -0.609899 -0.622082
vn -0.974233 -0.218483 0.055987
vn -0.490955 -0.609899 -0.622082
vn -0.438156 0.078531 -0.895462
vn 0.048974 0.086959 -0.995007
vn -0.490955 -0.609899 -0.622082
vn -0.269432 0.390257 -0.880401
vn -0.740468 0.410942 -0.531822
vn -0.796040 0.016430 -0.605020
vn -0.959486 -0.099907 -0.263448
vn 0.657094 -0.145758 -0.739582
vn 0.724317 -0.096578 -0.682669
vn -0.490955 -0.609899 -0.622082
vn 0.820006 -0.454863 -0.347405
vn -0.490955 -0.609899 -0.622082
vn 0.820006 -0.454863 -0.347405
vn 0.856256 -0.515494 0.033060
vn -0.490955 -0.609899 -0.622082
vn 0.856256 -0.515494 0.033060
vn 0.772629 -0.613578 0.162993
vn -0.490955 -0.609899 -0.622082
vn 0.877748 -0.343261 -0.334260
vn 0.724317 -0.096578 -0.682669
vn 0.582800 0.020091 -0.812367
vn 0.757119 -0.150566 -0.635689
vn -0.834801 -0.378190 0.400100
vn -0.974233 -0.218483 0.055987
vn -0.490955 -0.609899 -0.622082
vn -0.492991 -0.545691 0.677629
vn -0.490955 -0.609899 -0.622082
vn -0.094121 -0.651584 0.752715
vn -0.490955 -0.609899 -0.622082
vn -0.551327 -0.173196 0.816114
vn -0.096920 -0.420312 0.902189
vn -0.837733 0.033422 0.545056
vn -0.951923 0.173416 0.252527
vn 0.407218 -0.744284 0.529353
vn -0.094121 -0.651584 0.752715
vn -0.490955 -0.609899 -0.622082
vn 0.772629 -0.613578 0.162993
vn -0.490955 -0.609899 -0.622082
vn 0.852736 -0.518375 -0.064260
vn 0.714165 -0.618503 0.327754
vn -0.096920 -0.420312 0.902189
vn 0.338024 -0.584542 0.737598
vn 0.273768 0.218709 -0.936599
vn -0.948510 0.302384 -0.094301
vn -0.902910 0.389790 -0.181154
vn -0.690472 0.408241 -0.597149
vn 0.273768 0.218709 -0.936599
vn -0.297392 0.314230 -0.901564
vn 0.454851 -0.056840 -0.888752
vn 0.142920 0.137123 -0.980189
vn 0.142920 0.137123 -0.980189
vn -0.718640 0.470791 -0.511774
vn -0.232149 0.354921 -0.905615
vn -0.778382 0.071677 0.623686
vn -0.521899 -0.140985 0.841275
vn -0.195284 -0.383960 0.902463
vn -0.924849 0.265368 0.272459
vn -0.887181 0.307495 0.344029
vn -0.746878 0.147972 0.648288
vn 0.219623 -0.611606 0.760068
vn -0.195284 -0.383960 0.902463
vn -0.523797 -0.071243 0.848859
vn -0.906976 0.420765 -0.018736
vn 0.768228 -0.435233 -0.469465
vn 0.769305 -0.632853 -0.087568
vn 0.593406 -0.710336 0.378539
vn 0.659096 -0.233951 -0.714744
vn 0.240899 0.131450 -0.961607
vn 0.682597 -0.191749 -0.705191
vn 0.792987 -0.359403 -0.491936
vn 0.823497 -0.563297 -0.067444
vn 0.535549 -0.043336 -0.843392
vn 0.240899 0.131450 -0.961607
vn 0.961585 -0.093637 -0.258044
vn 0.217068 -0.511390 0.831482
vn -0.203961 -0.297100 0.932808
vn -0.203961 -0.297100 0.932808
vn 0.099159 0.114241 0.988492
vn 0.618485 -0.629603 0.470187
vn 0.982781 -0.131768 -0.129531
vn 0.528736 -0.066894 0.846146
vn 0.874448 -0.151937 0.460712
vn 0.099159 0.114241 0.988492
vn -0.453795 0.708965 -0.539851
vn -0.137081 0.664141 -0.734932
vn -0.668162 0.743843 -0.016037
vn 0.239705 0.447946 -0.861328
vn 0.689093 0.427650 -0.585034
vn 0.657736 0.143375 -0.739478
vn 0.239705 0.447946 -0.861328
vn 0.692534 0.088593 -0.715925
vn 0.689093 0.427650 -0.585034
vn 0.239705 0.447946 -0.861328
vn -0.137081 0.664141 -0.734932
vn 0.689093 0.427650 -0.585034
vn 0.657736 0.143375 -0.739478
vn 0.239705 0.447946 -0.861328
vn 0.689093 0.427650 -0.585034
vn 0.689093 0.427650 -0.585034
vn 0.689093 0.427650 -0.585034
vn -0.516080 0.490113 0.702460
vn -0.278279 0.301542 0.911939
vn -0.643185 0.613127 0.458680
vn -0.668162 0.743843 -0.016037
vn -0.643185 0.613127 0.458680
vn 0.689093 0.427650 -0.585034
vn 0.689093 0.427650 -0.585034
vn 0.689093 0.427650 -0.585034
vn 0.689093 0.427650 -0.585034
vn 0.528736 -0.066894 0.846146
vn 0.874448 -0.151937 0.460712
vn 0.689093 0.427650 -0.585034
vn 0.689093 0.427650 -0.585034
vn 0.689093 0.427650 -0.585034
vn -0.278279 0.301542 0.911939
vn 0.099159 0.114241 0.988492
vn 0.689093 0.427650 -0.585034
f 120/120/120 121/121/121 122/122/122
f 125/125/125 126/126/126 127/127/127
f 114/114/114 115/115/115 116/116/116
f 1/1/1 2/2/2 3/3/3
f 7/7/7 1/1/1 8/8/8
f 9/9/9 7/7/7 10/10/10
f 103/103/103 104/104/104 105/105/105
f 106/106/106 107/107/107 108/108/108
f 18/18/18 19/19/19 20/20/20
f 19/19/19 21/21/21 22/22/22
f 26/26/26 27/27/27 28/28/28
f 11/11/11 12/12/12 13/13/13
f 14/14/14 12/12/12 11/11/11
f 12/12/12 14/14/14 53/53/53
f 14/14/14 11/11/11 15/15/15
f 15/15/15 11/11/11 16/16/16
f 17/17/17 15/15/15 16/16/16
f 58/58/58 53/53/53 14/14/14
f 53/53/53 58/58/58 61/61/61
f 56/56/56 14/14/14 15/15/15
f 14/14/14 56/56/56 58/58/58
f 15/15/15 17/17/17 54/54/54
f 54/54/54 56/56/56 15/15/15
f 17/17/17 43/43/43 54/54/54
f 56/56/56 54/54/54 55/55/55
f 43/43/43 55/55/55 54/54/54
f 43/43/43 17/17/17 34/34/34
f 58/58/58 63/63/63 61/61/61
f 78/78/78 61/61/61 63/63/63
f 62/62/62 58/58/58 56/56/56
f 58/58/58 62/62/62 63/63/63
f 55/55/55 62/62/62 56/56/56
f 95/95/95 78/78/78 63/63/63
f 78/78/78 95/95/95 97/97/97
f 63/63/63 94/94/94 95/95/95
f 94/94/94 63/63/63 62/62/62
f 95/95/95 94/94/94 109/109/109
f 62/62/62 55/55/55 73/73/73
f 94/94/94 62/62/62 73/73/73
f 94/94/94 73/73/73 96/96/96
f 94/94/94 96/96/96 98/98/98
f 96/96/96 73/73/73 68/68/68
f 55/55/55 68/68/68 73/73/73
f 96/96/96 68/68/68 113/113/113
f 68/68/68 55/55/55 67/67/67
f 55/55/55 43/43/43 67/67/67
f 68/68/68 111/111/111 113/113/113
f 113/113/113 111/111/111 117/117/117
f 67/67/67 69/69/69 68/68/68
f 111/111/111 68/68/68 69/69/69
f 69/69/69 112/112/112 111/111/111
f 111/111/111 112/112/112 118/118/118
f 69/69/69 67/67/67 64/64/64
f 43/43/43 64/64/64 67/67/67
f 112/112/112 69/69/69 72/72/72
f 64/64/64 72/72/72 69/69/69
f 72/72/72 88/88/88 112/112/112
f 88/88/88 72/72/72 87/87/87
f 65/65/65 87/87/87 72/72/72
f 72/72/72 64/64/64 65/65/65
f 87/87/87 65/65/65 66/66/66
f 64/64/64 43/43/43 42/42/42
f 42/42/42 65/65/65 64/64/64
f 34/34/34 42/42/42 43/43/43
f 40/40/40 66/66/66 65/65/65
f 65/65/65 42/42/42 40/40/40
f 66/66/66 40/40/40 41/41/41
f 42/42/42 34/34/34 33/33/33
f 33/33/33 40/40/40 42/42/42
f 33/33/33 34/34/34 35/35/35
f 36/36/36 41/41/41 40/40/40
f 40/40/40 33/33/33 36/36/36
f 36/36/36 33/33/33 37/37/37
f 41/41/41 36/36/36 38/38/38
f 38/38/38 36/36/36 39/39/39
f 4/4/4 5/5/5 6/6/6
f 4/4/4 31/31/31 5/5/5
f 31/31/31 4/4/4 57/57/57
f 32/32/32 5/5/5 31/31/31
f 5/5/5 32/32/32 30/30/30
f 57/57/57 59/59/59 31/31/31
f 59/59/59 57/57/57 60/60/60
f 31/31/31 77/77/77 32/32/32
f 77/77/77 31/31/31 59/59/59
f 29/29/29 30/30/30 32/32/32
f 29/29/29 23/23/23 30/30/30
f 32/32/32 77/77/77 74/74/74
f 74/74/74 29/29/29 32/32/32
f 23/23/23 29/29/29 24/24/24
f 23/23/23 24/24/24 25/25/25
f 49/49/49 24/24/24 29/29/29
f 74/74/74 49/49/49 29/29/29
f 24/24/24 49/49/49 47/47/47
f 77/77/77 80/80/80 74/74/74
f 50/50/50 47/47/47 49/49/49
f 49/49/49 74/74/74 75/75/75
f 75/75/75 50/50/50 49/49/49
f 74/74/74 81/81/81 75/75/75
f 81/81/81 74/74/74 80/80/80
f 75/75/75 81/81/81 76/76/76
f 76/76/76 50/50/50 75/75/75
f 47/47/47 50/50/50 44/44/44
f 47/47/47 44/44/44 48/48/48
f 44/44/44 45/45/45 46/46/46
f 44/44/44 51/51/51 45/45/45
f 51/51/51 44/44/44 52/52/52
f 52/52/52 44/44/44 50/50/50
f 52/52/52 71/71/71 51/51/51
f 50/50/50 70/70/70 52/52/52
f 71/71/71 52/52/52 70/70/70
f 70/70/70 50/50/50 76/76/76
f 86/86/86 71/71/71 70/70/70
f 86/86/86 70/70/70 85/85/85
f 76/76/76 85/85/85 70/70/70
f 93/93/93 86/86/86 85/85/85
f 93/93/93 85/85/85 91/91/91
f 93/93/93 91/91/91 124/124/124
f 85/85/85 76/76/76 89/89/89
f 89/89/89 91/91/91 85/85/85
f 89/89/89 76/76/76 81/81/81
f 91/91/91 89/89/89 92/92/92
f 81/81/81 90/90/90 89/89/89
f 92/92/92 89/89/89 90/90/90
f 92/92/92 90/90/90 119/119/119
f 80/80/80 90/90/90 81/81/81
f 90/90/90 80/80/80 84/84/84
f 90/90/90 84/84/84 123/123/123
f 84/84/84 80/80/80 79/79/79
f 80/80/80 77/77/77 79/79/79
f 59/59/59 79/79/79 77/77/77
f 79/79/79 101/101/101 84/84/84
f 84/84/84 101/101/101 110/110/110
f 79/79/79 59/59/59 82/82/82
f 82/82/82 101/101/101 79/79/79
f 60/60/60 82/82/82 59/59/59
f 82/82/82 60/60/60 83/83/83
f 101/101/101 82/82/82 99/99/99
f 83/83/83 99/99/99 82/82/82
f 101/101/101 99/99/99 102/102/102
f 99/99/99 83/83/83 100/100/100
