# Generated from Roblox mesh JSON (v4.01)
# Hello from RBX_Toolbox ;)
o LowerTorso
v -0.814532 -0.357474 -0.189278
v -0.599041 -0.287961 -0.417595
v -0.592392 -0.419516 -0.333367
v -0.385873 -0.358444 -0.479453
v -0.290135 -0.452507 -0.329761
v -0.592392 -0.419516 -0.333367
v -0.290135 -0.452507 -0.329761
v -0.549912 -0.599236 0.179175
v -0.888599 -0.332041 0.059798
v -0.549912 -0.599236 0.179175
v -0.549912 -0.599236 0.179175
v -0.847047 -0.169161 0.052820
v -0.650741 -0.109675 -0.617471
v -0.338224 -0.259752 -0.666928
v -0.787594 -0.194437 -0.228622
v -0.854053 -0.000085 -0.334789
v -0.087789 -0.612926 -0.162290
v -0.549912 -0.599236 0.179175
v -0.133887 -0.363201 -0.473236
v 0.000303 -0.536690 -0.273082
v -0.000008 -0.354300 -0.484654
v 0.000114 -0.652349 0.009606
v -0.087789 -0.612926 -0.162290
v -0.009206 -0.645946 0.023941
v -0.549912 -0.599236 0.179175
v -0.009206 -0.645946 0.023941
v -0.262030 0.104642 -0.800306
v -0.100281 -0.254510 -0.659503
v -0.000018 -0.252652 -0.629929
v -0.000013 -0.611615 0.138932
v -0.807893 -0.348967 0.347765
v -0.549912 -0.599236 0.179175
v -0.669599 -0.405122 0.632968
v -0.549912 -0.599236 0.179175
v -0.083977 -0.701359 0.450988
v -0.184561 -0.657407 0.660987
v -0.549912 -0.599236 0.179175
v -0.364180 -0.473328 0.788767
v -0.549912 -0.599236 0.179175
v -0.634799 -0.207370 0.630399
v -0.184561 -0.657407 0.660987
v -0.549912 -0.599236 0.179175
v -0.812821 -0.195205 0.369520
v -0.876596 -0.007384 0.378719
v -0.359676 -0.169387 0.762438
v -0.000045 -0.406446 0.800427
v -0.027484 -0.652372 0.210571
v -0.083977 -0.701359 0.450988
v -0.549912 -0.599236 0.179175
v 0.000068 -0.582984 0.308778
v -0.000027 -0.687519 0.466999
v -0.000007 -0.619802 0.679643
v 0.027488 -0.652369 0.210560
v -0.027484 -0.652372 0.210571
v -0.549912 -0.599236 0.179175
v 0.000010 -0.129324 0.768423
v -0.921812 0.020926 0.022615
v -0.611260 0.268086 -0.663022
v -0.828683 0.288330 -0.357588
v -0.942268 0.279621 -0.001489
v -0.874339 0.262154 0.347320
v -0.535034 0.595950 -0.513284
v -0.758991 0.566852 -0.287921
v -0.858584 0.539290 0.015626
v -0.831846 0.520059 0.325677
v 0.002215 0.702909 0.029155
v -0.282791 0.608807 -0.674975
v -0.000036 0.139934 -0.756003
v 0.000003 0.599678 -0.676676
v 0.000003 0.599678 -0.676676
v -0.282791 0.608807 -0.674975
v 0.002215 0.702909 0.029155
v -0.535034 0.595950 -0.513284
v -0.758991 0.566852 -0.287921
v 0.002215 0.702909 0.029155
v 0.002215 0.702909 0.029155
v 0.002215 0.702909 0.029155
v -0.678895 0.003740 0.647338
v -0.688180 0.260975 0.618427
v -0.367364 0.047071 0.714283
v -0.630744 0.490309 0.555501
v -0.368509 0.255223 0.712344
v -0.831846 0.520059 0.325677
v -0.630744 0.490309 0.555501
v 0.002215 0.702909 0.029155
v 0.000012 0.071493 0.668074
v -0.000048 0.241253 0.607908
v -0.341127 0.466619 0.672271
v 0.002215 0.702909 0.029155
v -0.000044 0.439689 0.601395
v 0.002215 0.702909 0.029155
v -0.000044 0.439689 0.601395
v -0.341127 0.466619 0.672271
v -0.000008 -0.354300 -0.484654
v 0.133847 -0.363300 -0.473388
v 0.000303 -0.536690 -0.273082
v 0.290210 -0.451791 -0.329018
v 0.079901 -0.616361 -0.170483
v 0.000114 -0.652349 0.009606
v 0.009370 -0.645847 0.024054
v 0.551699 -0.598432 0.182612
v 0.385774 -0.358344 -0.479633
v 0.100234 -0.254619 -0.659662
v 0.338251 -0.260502 -0.667967
v 0.262003 0.104623 -0.800427
v -0.000018 -0.252652 -0.629929
v 0.551699 -0.598432 0.182612
v 0.592352 -0.419715 -0.333648
v 0.599037 -0.287691 -0.417649
v 0.814213 -0.357400 -0.189483
v 0.290210 -0.451791 -0.329018
v 0.592352 -0.419715 -0.333648
v 0.551699 -0.598432 0.182612
v 0.814213 -0.357400 -0.189483
v 0.551699 -0.598432 0.182612
v 0.847732 -0.168156 0.049714
v 0.890463 -0.331118 0.059611
v 0.650697 -0.109576 -0.617288
v 0.788080 -0.194257 -0.230037
v 0.854088 0.000047 -0.335327
v 0.551699 -0.598432 0.182612
v 0.009370 -0.645847 0.024054
v 0.082544 -0.702909 0.451370
v 0.000068 -0.582984 0.308778
v 0.027488 -0.652369 0.210560
v 0.551699 -0.598432 0.182612
v -0.000027 -0.687519 0.466999
v -0.000007 -0.619802 0.679643
v 0.184536 -0.657391 0.661027
v -0.000045 -0.406446 0.800427
v 0.027488 -0.652369 0.210560
v 0.009370 -0.645847 0.024054
v 0.551699 -0.598432 0.182612
v 0.364684 -0.473863 0.792524
v 0.358841 -0.170025 0.757932
v 0.000010 -0.129324 0.768423
v 0.184536 -0.657391 0.661027
v 0.082544 -0.702909 0.451370
v 0.551699 -0.598432 0.182612
v 0.823695 -0.344048 0.354420
v 0.670058 -0.405067 0.633638
v 0.551699 -0.598432 0.182612
v 0.551699 -0.598432 0.182612
v 0.551699 -0.598432 0.182612
v 0.551699 -0.598432 0.182612
v 0.635320 -0.207448 0.631408
v 0.784325 -0.190934 0.358252
v 0.866137 -0.005299 0.374333
v -0.000036 0.139934 -0.756003
v 0.282828 0.608915 -0.675470
v 0.610903 0.268052 -0.662551
v 0.000003 0.599678 -0.676676
v 0.282828 0.608915 -0.675470
v 0.000003 0.599678 -0.676676
v 0.002215 0.702909 0.029155
v 0.533810 0.595555 -0.511877
v 0.002215 0.702909 0.029155
v 0.758697 0.566786 -0.287799
v 0.002215 0.702909 0.029155
v 0.858490 0.539292 0.015581
v 0.758697 0.566786 -0.287799
v 0.002215 0.702909 0.029155
v 0.828297 0.288370 -0.357556
v 0.919749 0.021719 0.020650
v 0.942268 0.279601 -0.001670
v 0.876271 0.262362 0.348061
v 0.858490 0.539292 0.015581
v 0.831741 0.520010 0.325646
v 0.831741 0.520010 0.325646
v 0.002215 0.702909 0.029155
v 0.000012 0.071493 0.668074
v 0.368484 0.255241 0.712557
v -0.000048 0.241253 0.607908
v 0.367432 0.047174 0.715513
v 0.688268 0.261018 0.618639
v 0.679076 0.003753 0.647744
v 0.341068 0.466634 0.672175
v 0.341068 0.466634 0.672175
v 0.630590 0.490253 0.555338
v 0.002215 0.702909 0.029155
v 0.002215 0.702909 0.029155
v -0.000044 0.439689 0.601395
v 0.002215 0.702909 0.029155
v 0.630590 0.490253 0.555338
vt 0.137846 0.108298
vt 0.106014 0.102143
vt 0.116484 0.088055
vt 0.089880 0.081403
vt 0.105181 0.059343
vt 0.116484 0.088055
vt 0.105181 0.059343
vt 0.116484 0.088055
vt 0.164500 0.116918
vt 0.164500 0.116918
vt 0.137846 0.108298
vt 0.163327 0.133618
vt 0.087722 0.125940
vt 0.066468 0.094404
vt 0.130521 0.124055
vt 0.120652 0.146193
vt 0.127500 0.028629
vt 0.105181 0.059343
vt 0.072675 0.057655
vt 0.106303 0.022365
vt 0.058554 0.048551
vt 0.150525 0.015573
vt 0.127500 0.028629
vt 0.152851 0.017026
vt 0.127500 0.028629
vt 0.152851 0.017026
vt 0.036538 0.135445
vt 0.045239 0.078389
vt 0.036440 0.069944
vt 0.168341 0.013088
vt 0.195115 0.113047
vt 0.195115 0.113047
vt 0.225610 0.101543
vt 0.225610 0.101543
vt 0.212048 0.022178
vt 0.237328 0.039889
vt 0.212048 0.022178
vt 0.250603 0.076137
vt 0.250603 0.076137
vt 0.235391 0.122349
vt 0.237328 0.039889
vt 0.237328 0.039889
vt 0.199237 0.129214
vt 0.199498 0.150789
vt 0.267495 0.113350
vt 0.288085 0.058825
vt 0.178461 0.016546
vt 0.212048 0.022178
vt 0.178461 0.016546
vt 0.191359 0.006676
vt 0.217455 0.013486
vt 0.253693 0.025785
vt 0.176222 0.006963
vt 0.178461 0.016546
vt 0.152851 0.017026
vt 0.307382 0.103765
vt 0.159817 0.154162
vt 0.073125 0.165554
vt 0.113357 0.176417
vt 0.155676 0.181035
vt 0.197448 0.180388
vt 0.071997 0.207504
vt 0.112591 0.208447
vt 0.154229 0.208836
vt 0.195736 0.209052
vt 0.112591 0.208447
vt 0.034857 0.203006
vt 0.005533 0.132430
vt 0.002026 0.200596
vt 0.002026 0.200596
vt 0.034857 0.203006
vt 0.002026 0.200596
vt 0.071997 0.207504
vt 0.112591 0.208447
vt 0.071997 0.207504
vt 0.034857 0.203006
vt 0.154229 0.208836
vt 0.236021 0.146917
vt 0.235724 0.177309
vt 0.272761 0.143928
vt 0.236641 0.207132
vt 0.273997 0.172461
vt 0.195736 0.209052
vt 0.236641 0.207132
vt 0.195736 0.209052
vt 0.315231 0.139925
vt 0.318396 0.167564
vt 0.275976 0.201598
vt 0.236641 0.207132
vt 0.317748 0.196578
vt 0.275976 0.201598
vt 0.317748 0.196578
vt 0.275976 0.201598
vt 0.356105 0.495540
vt 0.339591 0.491594
vt 0.355510 0.460865
vt 0.318269 0.471949
vt 0.349658 0.445654
vt 0.366875 0.430404
vt 0.366456 0.428024
vt 0.366456 0.428024
vt 0.307205 0.495456
vt 0.347388 0.516829
vt 0.319863 0.517549
vt 0.331990 0.561870
vt 0.359382 0.514673
vt 0.349658 0.445654
vt 0.272705 0.485037
vt 0.276355 0.503450
vt 0.232999 0.495996
vt 0.318269 0.471949
vt 0.272705 0.485037
vt 0.318269 0.471949
vt 0.232999 0.495996
vt 0.272705 0.485037
vt 0.199144 0.520696
vt 0.197263 0.500682
vt 0.284974 0.534102
vt 0.238352 0.515484
vt 0.244308 0.542189
vt 0.232999 0.495996
vt 0.152648 0.013743
vt 0.031466 0.447058
vt 0.006901 0.442818
vt 0.006120 0.428024
vt 0.031466 0.447058
vt 0.024011 0.454762
vt 0.033319 0.477465
vt 0.053936 0.468749
vt 0.036515 0.505394
vt 0.176222 0.006963
vt 0.152648 0.013743
vt 0.176222 0.006963
vt 0.078460 0.493859
vt 0.081137 0.530250
vt 0.038914 0.537913
vt 0.053936 0.468749
vt 0.031466 0.447058
vt 0.053936 0.468749
vt 0.158269 0.502868
vt 0.119271 0.499369
vt 0.158269 0.502868
vt 0.197263 0.500682
vt 0.119271 0.499369
vt 0.078460 0.493859
vt 0.117881 0.523481
vt 0.157485 0.521543
vt 0.159991 0.545300
vt 0.362649 0.568467
vt 0.320806 0.621098
vt 0.288915 0.576589
vt 0.354072 0.625141
vt 0.320806 0.621098
vt 0.354072 0.625141
vt 0.320806 0.621098
vt 0.284088 0.617831
vt 0.284088 0.617831
vt 0.244624 0.611410
vt 0.244624 0.611410
vt 0.204198 0.607605
vt 0.244624 0.611410
vt 0.204198 0.607605
vt 0.247066 0.576954
vt 0.202228 0.545027
vt 0.204463 0.576137
vt 0.163083 0.576951
vt 0.204198 0.607605
vt 0.164110 0.608013
vt 0.164110 0.608013
vt 0.164110 0.608013
vt 0.040324 0.564337
vt 0.085711 0.582652
vt 0.040630 0.585792
vt 0.083808 0.556949
vt 0.124524 0.579195
vt 0.121324 0.548720
vt 0.084615 0.609584
vt 0.084615 0.609584
vt 0.124291 0.609507
vt 0.084615 0.609584
vt 0.124291 0.609507
vt 0.042446 0.609233
vt 0.042446 0.609233
vt 0.124291 0.609507
vn -0.779293 -0.405888 -0.477449
vn -0.584465 -0.605422 -0.540245
vn -0.302696 -0.696951 -0.650103
vn -0.324026 -0.840417 -0.434403
vn -0.104817 -0.854369 -0.508987
vn -0.302696 -0.696951 -0.650103
vn -0.104817 -0.854369 -0.508987
vn -0.231165 -0.913489 -0.334815
vn -0.962283 -0.269534 0.036901
vn -0.231165 -0.913489 -0.334815
vn -0.231165 -0.913489 -0.334815
vn -0.994298 -0.097994 -0.042060
vn -0.622516 -0.327414 -0.710826
vn -0.325497 -0.535346 -0.779395
vn -0.879787 -0.259485 -0.398300
vn -0.919138 -0.172814 -0.354007
vn -0.118280 -0.923472 -0.364980
vn -0.231165 -0.913489 -0.334815
vn 0.009569 -0.829810 -0.557964
vn 0.002180 -0.818801 -0.574074
vn 0.041497 -0.810100 -0.584821
vn 0.008044 -0.992396 -0.122821
vn -0.118280 -0.923472 -0.364980
vn -0.413565 -0.902015 0.123828
vn -0.231165 -0.913489 -0.334815
vn -0.413565 -0.902015 0.123828
vn -0.103480 -0.013568 -0.994539
vn -0.035690 -0.893838 -0.446968
vn -0.000688 -0.481489 -0.876452
vn 0.017111 -0.998807 -0.045735
vn -0.903458 -0.359955 0.232801
vn -0.231165 -0.913489 -0.334815
vn -0.715230 -0.411638 0.564801
vn -0.231165 -0.913489 -0.334815
vn 0.203587 -0.976363 0.072574
vn -0.150848 -0.796510 0.585505
vn -0.231165 -0.913489 -0.334815
vn -0.324489 -0.426779 0.844137
vn -0.231165 -0.913489 -0.334815
vn -0.653183 -0.041398 0.756068
vn -0.150848 -0.796510 0.585505
vn -0.231165 -0.913489 -0.334815
vn -0.921277 -0.214464 0.324427
vn -0.927619 -0.107429 0.357746
vn -0.226475 0.136393 0.964420
vn -0.005014 -0.178138 0.983993
vn 0.528452 -0.810212 -0.253566
vn 0.203587 -0.976363 0.072574
vn -0.231165 -0.913489 -0.334815
vn 0.000006 -0.990729 -0.135852
vn -0.009028 -0.995091 -0.098552
vn -0.000034 -0.764585 0.644523
vn -0.582395 -0.804641 -0.115626
vn 0.528452 -0.810212 -0.253566
vn -0.231165 -0.913489 -0.334815
vn 0.006278 0.266873 0.963711
vn -0.976871 -0.211263 -0.033025
vn -0.558727 0.210082 -0.802303
vn -0.877774 0.183754 -0.442432
vn -0.990969 0.120060 -0.059720
vn -0.917809 0.116068 0.379678
vn -0.463094 0.782482 -0.416253
vn -0.609749 0.756528 -0.236373
vn -0.738815 0.672223 -0.047628
vn -0.652909 0.680186 0.333251
vn 0.046159 0.990967 -0.125910
vn -0.246004 0.699026 -0.671449
vn -0.000234 -0.054742 -0.998500
vn -0.001207 0.698440 -0.715667
vn -0.001207 0.698440 -0.715667
vn -0.246004 0.699026 -0.671449
vn 0.046159 0.990967 -0.125910
vn -0.463094 0.782482 -0.416253
vn -0.609749 0.756528 -0.236373
vn 0.046159 0.990967 -0.125910
vn 0.046159 0.990967 -0.125910
vn 0.046159 0.990967 -0.125910
vn -0.546722 -0.040934 0.836313
vn -0.570709 0.206445 0.794778
vn -0.041905 0.116198 0.992342
vn -0.373938 0.674855 0.636193
vn 0.018017 0.098509 0.994973
vn -0.652909 0.680186 0.333251
vn -0.373938 0.674855 0.636193
vn 0.046159 0.990967 -0.125910
vn -0.001583 0.397271 0.917700
vn -0.000289 0.178167 0.984000
vn -0.051343 0.603731 0.795533
vn 0.046159 0.990967 -0.125910
vn -0.087366 0.597463 0.797123
vn 0.046159 0.990967 -0.125910
vn -0.087366 0.597463 0.797123
vn -0.051343 0.603731 0.795533
vn 0.041497 -0.810100 -0.584821
vn -0.013071 -0.824104 -0.566287
vn 0.002180 -0.818801 -0.574074
vn 0.117194 -0.850213 -0.513228
vn 0.093627 -0.911507 -0.400485
vn 0.008044 -0.992396 -0.122821
vn 0.414699 -0.909834 0.015088
vn 0.212113 -0.920128 -0.329200
vn 0.324319 -0.842670 -0.429795
vn -0.365314 -0.817140 -0.445902
vn 0.292924 -0.502159 -0.813654
vn 0.118088 -0.022283 -0.992753
vn -0.000688 -0.481489 -0.876452
vn 0.212113 -0.920128 -0.329200
vn 0.278955 -0.714272 -0.641872
vn 0.583068 -0.605288 -0.541902
vn 0.768820 -0.422099 -0.480362
vn 0.117194 -0.850213 -0.513228
vn 0.278955 -0.714272 -0.641872
vn 0.212113 -0.920128 -0.329200
vn 0.768820 -0.422099 -0.480362
vn 0.212113 -0.920128 -0.329200
vn 0.996612 -0.081959 0.006833
vn 0.963789 -0.266654 0.002678
vn 0.623182 -0.326503 -0.710662
vn 0.878236 -0.261367 -0.400486
vn 0.920038 -0.169950 -0.353054
vn 0.212113 -0.920128 -0.329200
vn 0.414699 -0.909834 0.015088
vn -0.203748 -0.975694 0.080676
vn 0.000006 -0.990729 -0.135852
vn -0.582395 -0.804641 -0.115626
vn 0.212113 -0.920128 -0.329200
vn -0.009028 -0.995091 -0.098552
vn -0.000034 -0.764585 0.644523
vn 0.110264 -0.808887 0.577532
vn -0.005014 -0.178138 0.983993
vn -0.582395 -0.804641 -0.115626
vn 0.414699 -0.909834 0.015088
vn 0.212113 -0.920128 -0.329200
vn 0.323494 -0.417980 0.848908
vn 0.225287 0.141289 0.963993
vn 0.006278 0.266873 0.963711
vn 0.110264 -0.808887 0.577532
vn -0.203748 -0.975694 0.080676
vn 0.212113 -0.920128 -0.329200
vn 0.928572 -0.288815 0.233109
vn 0.699790 -0.424871 0.574264
vn 0.212113 -0.920128 -0.329200
vn 0.212113 -0.920128 -0.329200
vn 0.212113 -0.920128 -0.329200
vn 0.212113 -0.920128 -0.329200
vn 0.683036 -0.040199 0.729278
vn 0.933481 -0.136416 0.331668
vn 0.920249 -0.178838 0.348078
vn -0.000234 -0.054742 -0.998500
vn 0.247573 0.715181 -0.653624
vn 0.558279 0.212416 -0.802000
vn -0.001207 0.698440 -0.715667
vn 0.247573 0.715181 -0.653624
vn -0.001207 0.698440 -0.715667
vn 0.046159 0.990967 -0.125910
vn 0.461372 0.785201 -0.413032
vn 0.046159 0.990967 -0.125910
vn 0.605268 0.759439 -0.238545
vn 0.046159 0.990967 -0.125910
vn 0.741516 0.669837 -0.038384
vn 0.605268 0.759439 -0.238545
vn 0.046159 0.990967 -0.125910
vn 0.877218 0.184805 -0.443098
vn 0.977845 -0.208540 -0.018175
vn 0.991162 0.116695 -0.063086
vn 0.920191 0.095459 0.379653
vn 0.741516 0.669837 -0.038384
vn 0.648795 0.685494 0.330397
vn 0.648795 0.685494 0.330397
vn 0.046159 0.990967 -0.125910
vn -0.001583 0.397271 0.917700
vn -0.018410 0.101634 0.994652
vn -0.000289 0.178167 0.984000
vn 0.040254 0.105115 0.993645
vn 0.568475 0.207863 0.796008
vn 0.561246 -0.040907 0.826638
vn 0.051186 0.597476 0.800252
vn 0.051186 0.597476 0.800252
vn 0.373321 0.676712 0.634580
vn 0.046159 0.990967 -0.125910
vn 0.046159 0.990967 -0.125910
vn -0.087366 0.597463 0.797123
vn 0.046159 0.990967 -0.125910
vn 0.373321 0.676712 0.634580
f 153/153/153 154/154/154 155/155/155
f 70/70/70 71/71/71 72/72/72
f 71/71/71 73/73/73 76/76/76
f 73/73/73 74/74/74 75/75/75
f 160/160/160 161/161/161 162/162/162
f 169/169/169 160/160/160 170/170/170
f 179/179/179 169/169/169 181/181/181
f 178/178/178 179/179/179 180/180/180
f 83/83/83 84/84/84 85/85/85
f 84/84/84 88/88/88 89/89/89
f 88/88/88 90/90/90 91/91/91
f 81/81/81 61/61/61 79/79/79
f 61/61/61 44/44/44 79/79/79
f 79/79/79 82/82/82 81/81/81
f 82/82/82 93/93/93 81/81/81
f 82/82/82 87/87/87 93/93/93
f 87/87/87 92/92/92 93/93/93
f 87/87/87 82/82/82 86/86/86
f 80/80/80 86/86/86 82/82/82
f 79/79/79 80/80/80 82/82/82
f 86/86/86 80/80/80 56/56/56
f 80/80/80 79/79/79 78/78/78
f 44/44/44 78/78/78 79/79/79
f 45/45/45 56/56/56 80/80/80
f 78/78/78 45/45/45 80/80/80
f 45/45/45 46/46/46 56/56/56
f 44/44/44 40/40/40 78/78/78
f 45/45/45 78/78/78 40/40/40
f 46/46/46 45/45/45 38/38/38
f 40/40/40 38/38/38 45/45/45
f 41/41/41 46/46/46 38/38/38
f 41/41/41 38/38/38 42/42/42
f 38/38/38 40/40/40 33/33/33
f 38/38/38 33/33/33 39/39/39
f 40/40/40 44/44/44 43/43/43
f 12/12/12 43/43/43 44/44/44
f 40/40/40 31/31/31 33/33/33
f 31/31/31 40/40/40 43/43/43
f 33/33/33 31/31/31 34/34/34
f 9/9/9 43/43/43 12/12/12
f 43/43/43 9/9/9 31/31/31
f 31/31/31 9/9/9 32/32/32
f 12/12/12 1/1/1 9/9/9
f 9/9/9 1/1/1 10/10/10
f 137/137/137 138/138/138 139/139/139
f 35/35/35 36/36/36 37/37/37
f 1/1/1 2/2/2 3/3/3
f 1/1/1 3/3/3 11/11/11
f 4/4/4 3/3/3 2/2/2
f 3/3/3 4/4/4 5/5/5
f 2/2/2 1/1/1 15/15/15
f 4/4/4 19/19/19 5/5/5
f 15/15/15 16/16/16 2/2/2
f 13/13/13 4/4/4 2/2/2
f 2/2/2 16/16/16 13/13/13
f 4/4/4 13/13/13 14/14/14
f 19/19/19 4/4/4 14/14/14
f 5/5/5 17/17/17 18/18/18
f 17/17/17 5/5/5 20/20/20
f 5/5/5 19/19/19 20/20/20
f 20/20/20 22/22/22 17/17/17
f 19/19/19 21/21/21 20/20/20
f 26/26/26 17/17/17 22/22/22
f 19/19/19 29/29/29 21/21/21
f 26/26/26 22/22/22 30/30/30
f 30/30/30 22/22/22 122/122/122
f 30/30/30 122/122/122 53/53/53
f 26/26/26 30/30/30 47/47/47
f 53/53/53 47/47/47 30/30/30
f 50/50/50 47/47/47 53/53/53
f 29/29/29 19/19/19 28/28/28
f 19/19/19 14/14/14 28/28/28
f 68/68/68 29/29/29 28/28/28
f 14/14/14 27/27/27 28/28/28
f 28/28/28 27/27/27 68/68/68
f 27/27/27 14/14/14 13/13/13
f 48/48/48 47/47/47 50/50/50
f 47/47/47 48/48/48 49/49/49
f 48/48/48 50/50/50 51/51/51
f 52/52/52 48/48/48 51/51/51
f 48/48/48 52/52/52 41/41/41
f 46/46/46 41/41/41 52/52/52
f 67/67/67 68/68/68 27/27/27
f 67/67/67 69/69/69 68/68/68
f 67/67/67 27/27/27 58/58/58
f 27/27/27 13/13/13 58/58/58
f 67/67/67 58/58/58 62/62/62
f 58/58/58 13/13/13 16/16/16
f 62/62/62 58/58/58 59/59/59
f 58/58/58 16/16/16 59/59/59
f 62/62/62 59/59/59 63/63/63
f 16/16/16 60/60/60 59/59/59
f 63/63/63 59/59/59 60/60/60
f 63/63/63 64/64/64 66/66/66
f 63/63/63 60/60/60 64/64/64
f 64/64/64 60/60/60 65/65/65
f 64/64/64 65/65/65 77/77/77
f 60/60/60 16/16/16 57/57/57
f 15/15/15 57/57/57 16/16/16
f 60/60/60 61/61/61 65/65/65
f 60/60/60 57/57/57 61/61/61
f 61/61/61 81/81/81 65/65/65
f 57/57/57 15/15/15 12/12/12
f 1/1/1 12/12/12 15/15/15
f 57/57/57 44/44/44 61/61/61
f 44/44/44 57/57/57 12/12/12
f 131/131/131 132/132/132 133/133/133
f 111/111/111 112/112/112 113/113/113
f 112/112/112 114/114/114 115/115/115
f 23/23/23 24/24/24 25/25/25
f 24/24/24 54/54/54 55/55/55
f 6/6/6 7/7/7 8/8/8
f 94/94/94 95/95/95 96/96/96
f 106/106/106 95/95/95 94/94/94
f 95/95/95 106/106/106 103/103/103
f 149/149/149 103/103/103 106/106/106
f 96/96/96 95/95/95 97/97/97
f 97/97/97 98/98/98 96/96/96
f 99/99/99 96/96/96 98/98/98
f 98/98/98 100/100/100 99/99/99
f 100/100/100 98/98/98 101/101/101
f 98/98/98 97/97/97 107/107/107
f 102/102/102 97/97/97 95/95/95
f 108/108/108 97/97/97 102/102/102
f 95/95/95 104/104/104 102/102/102
f 95/95/95 103/103/103 104/104/104
f 102/102/102 109/109/109 108/108/108
f 103/103/103 105/105/105 104/104/104
f 103/103/103 149/149/149 105/105/105
f 118/118/118 102/102/102 104/104/104
f 105/105/105 118/118/118 104/104/104
f 102/102/102 118/118/118 109/109/109
f 109/109/109 110/110/110 108/108/108
f 150/150/150 105/105/105 149/149/149
f 152/152/152 150/150/150 149/149/149
f 105/105/105 151/151/151 118/118/118
f 150/150/150 151/151/151 105/105/105
f 109/109/109 118/118/118 120/120/120
f 118/118/118 151/151/151 120/120/120
f 110/110/110 109/109/109 119/119/119
f 119/119/119 109/109/109 120/120/120
f 151/151/151 150/150/150 156/156/156
f 156/156/156 150/150/150 157/157/157
f 151/151/151 163/163/163 120/120/120
f 151/151/151 156/156/156 163/163/163
f 158/158/158 163/163/163 156/156/156
f 158/158/158 156/156/156 159/159/159
f 158/158/158 165/165/165 163/163/163
f 163/163/163 165/165/165 120/120/120
f 165/165/165 158/158/158 167/167/167
f 165/165/165 167/167/167 168/168/168
f 120/120/120 165/165/165 164/164/164
f 120/120/120 164/164/164 119/119/119
f 165/165/165 168/168/168 166/166/166
f 165/165/165 166/166/166 164/164/164
f 166/166/166 168/168/168 184/184/184
f 119/119/119 164/164/164 116/116/116
f 164/164/164 166/166/166 148/148/148
f 164/164/164 148/148/148 116/116/116
f 119/119/119 116/116/116 110/110/110
f 110/110/110 116/116/116 117/117/117
f 110/110/110 117/117/117 121/121/121
f 116/116/116 147/147/147 117/117/117
f 116/116/116 148/148/148 147/147/147
f 117/117/117 147/147/147 140/140/140
f 117/117/117 140/140/140 143/143/143
f 148/148/148 146/146/146 147/147/147
f 147/147/147 146/146/146 140/140/140
f 140/140/140 141/141/141 142/142/142
f 146/146/146 141/141/141 140/140/140
f 134/134/134 141/141/141 146/146/146
f 141/141/141 134/134/134 144/144/144
f 146/146/146 148/148/148 176/176/176
f 134/134/134 146/146/146 135/135/135
f 176/176/176 135/135/135 146/146/146
f 134/134/134 135/135/135 130/130/130
f 130/130/130 129/129/129 134/134/134
f 134/134/134 129/129/129 145/145/145
f 129/129/129 130/130/130 128/128/128
f 130/130/130 135/135/135 136/136/136
f 128/128/128 123/123/123 129/129/129
f 123/123/123 128/128/128 127/127/127
f 124/124/124 123/123/123 127/127/127
f 123/123/123 124/124/124 125/125/125
f 123/123/123 125/125/125 126/126/126
f 136/136/136 135/135/135 174/174/174
f 135/135/135 176/176/176 174/174/174
f 136/136/136 174/174/174 171/171/171
f 176/176/176 175/175/175 174/174/174
f 148/148/148 175/175/175 176/176/176
f 148/148/148 166/166/166 175/175/175
f 166/166/166 184/184/184 175/175/175
f 174/174/174 175/175/175 172/172/172
f 171/171/171 174/174/174 172/172/172
f 175/175/175 184/184/184 172/172/172
f 171/171/171 172/172/172 173/173/173
f 172/172/172 184/184/184 177/177/177
f 173/173/173 172/172/172 177/177/177
f 173/173/173 177/177/177 182/182/182
f 182/182/182 177/177/177 183/183/183
