# Generated from Roblox mesh JSON (v4.01)
# Hello from RBX_Toolbox ;)
o RightUpperLeg
v -0.407046 0.129890 -0.176594
v -0.248305 -0.175097 -0.314502
v -0.337999 -0.167319 -0.143271
v -0.142662 -0.481706 -0.208801
v -0.220780 -0.460362 -0.065699
v -0.318672 -0.144303 0.047438
v -0.222997 -0.424262 0.094247
v -0.113194 -0.733135 0.048055
v -0.402987 0.137044 0.026791
v -0.294303 0.141775 -0.346330
v -0.087530 0.150998 -0.481719
v -0.465162 0.417601 0.000063
v -0.249485 -0.129571 0.235372
v -0.058875 -0.169627 -0.406957
v -0.003049 -0.476545 -0.288632
v 0.072119 -0.770042 -0.159312
v -0.029153 -0.755486 -0.071683
v 0.072119 -0.770042 -0.159312
v 0.024384 -1.023047 0.045431
v -0.029153 -0.755486 -0.071683
v -0.113194 -0.733135 0.048055
v -0.055407 -0.995030 0.167004
v -0.087530 0.150998 -0.481719
v 0.164231 -0.158361 -0.388691
v -0.058875 -0.169627 -0.406957
v 0.153573 -0.446198 -0.256558
v -0.003049 -0.476545 -0.288632
v -0.135050 -0.695407 0.184530
v -0.159639 -0.391802 0.234244
v -0.135050 -0.695407 0.184530
v -0.072343 -0.654078 0.288197
v -0.072746 -0.956433 0.302546
v -0.072343 -0.654078 0.288197
v -0.043626 -0.365257 0.318347
v -0.105576 -0.111272 0.348230
v -0.320710 0.146004 0.244515
v -0.159985 0.155674 0.396117
v 0.218217 -1.154207 0.288805
v -0.019214 -0.917460 0.410014
v 0.083941 -0.880526 0.480352
v 0.024926 -0.622187 0.344919
v 0.024926 -0.622187 0.344919
v 0.095704 -0.343119 0.312363
v 0.071175 -0.086638 0.348592
v 0.053233 0.175255 0.396584
v -0.471358 0.414474 -0.203387
v -0.355478 0.433120 -0.372851
v -0.500398 0.661094 -0.215171
v -0.407275 0.687412 -0.379660
v -0.473089 0.645942 -0.025679
v -0.503471 0.782473 -0.205384
v -0.432940 0.811960 -0.399921
v -0.432940 0.811960 -0.399921
v -0.503471 0.782473 -0.205384
v -0.198772 1.154207 -0.048739
v -0.485353 0.775951 -0.018878
v -0.485353 0.775951 -0.018878
v -0.198772 1.154207 -0.048739
v -0.185087 0.755866 -0.539839
v -0.127008 0.472399 -0.523298
v 0.169573 0.490732 -0.538633
v -0.127008 0.472399 -0.523298
v 0.126151 0.797368 -0.559157
v -0.185087 0.755866 -0.539839
v -0.222631 0.976529 -0.558456
v 0.079511 1.008605 -0.563086
v -0.222631 0.976529 -0.558456
v -0.222631 0.976529 -0.558456
v -0.198772 1.154207 -0.048739
v -0.198772 1.154207 -0.048739
v -0.389521 0.617574 0.214990
v -0.361136 0.414640 0.227980
v -0.189263 0.418953 0.397780
v -0.223670 0.631562 0.396752
v -0.430297 0.725411 0.221933
v -0.198772 1.154207 -0.048739
v -0.328305 0.770929 0.431589
v -0.198772 1.154207 -0.048739
v -0.010408 0.686043 0.456014
v 0.036728 0.438209 0.420600
v -0.148157 0.954458 0.563086
v -0.198772 1.154207 -0.048739
v -0.148157 0.954458 0.563086
v 0.157218 1.023253 0.404200
v -0.198772 1.154207 -0.048739
v -0.010408 0.686043 0.456014
v 0.218217 -1.154207 0.288805
v 0.203847 -0.749353 -0.162270
v 0.135684 -1.030719 -0.023438
v 0.072119 -0.770042 -0.159312
v 0.250864 -1.010773 -0.020312
v 0.135684 -1.030719 -0.023438
v 0.218217 -1.154207 0.288805
v 0.135684 -1.030719 -0.023438
v 0.250864 -1.010773 -0.020312
v 0.218217 -1.154207 0.288805
v 0.203847 -0.749353 -0.162270
v 0.072119 -0.770042 -0.159312
v 0.298867 -0.423590 -0.169539
v 0.297009 -0.700915 -0.057829
v 0.346177 -0.963891 0.063392
v 0.297009 -0.700915 -0.057829
v 0.369795 -0.391362 -0.023136
v 0.334117 -0.653672 0.076196
v 0.334117 -0.653672 0.076196
v 0.398760 -0.909713 0.190816
v 0.353853 -0.355594 0.126219
v 0.360875 -0.145089 -0.284630
v 0.436448 -0.112363 -0.102802
v 0.399383 -0.082324 0.077543
v 0.346177 -0.963891 0.063392
v 0.218217 -1.154207 0.288805
v -0.055407 -0.995030 0.167004
v 0.024384 -1.023047 0.045431
v 0.218217 -1.154207 0.288805
v 0.218217 -1.154207 0.288805
v 0.326741 -0.850605 0.425573
v 0.211772 -0.860378 0.477970
v 0.218217 -1.154207 0.288805
v 0.211772 -0.860378 0.477970
v 0.136056 -0.605449 0.337015
v 0.218217 -1.154207 0.288805
v 0.136056 -0.605449 0.337015
v 0.240089 -0.334736 0.239598
v 0.095704 -0.343119 0.312363
v 0.243998 -0.601211 0.287453
v 0.071175 -0.086638 0.348592
v 0.136056 -0.605449 0.337015
v 0.243998 -0.601211 0.287453
v 0.136056 -0.605449 0.337015
v 0.398760 -0.909713 0.190816
v 0.218217 -1.154207 0.288805
v 0.317338 -0.617410 0.198236
v 0.402145 -0.864465 0.322294
v 0.218217 -1.154207 0.288805
v 0.402145 -0.864465 0.322294
v 0.326741 -0.850605 0.425573
v 0.218217 -1.154207 0.288805
v 0.317338 -0.617410 0.198236
v 0.253588 -0.069288 0.237994
v 0.179126 0.157691 -0.485657
v 0.394573 0.175810 -0.355420
v 0.301372 1.070920 -0.418921
v 0.363255 0.828788 -0.412815
v 0.301372 1.070920 -0.418921
v 0.079511 1.008605 -0.563086
v -0.198772 1.154207 -0.048739
v 0.377622 1.097202 -0.169826
v -0.198772 1.154207 -0.048739
v 0.406330 0.511210 -0.402370
v 0.496060 0.197094 -0.152125
v 0.503471 0.531737 -0.168199
v 0.445197 0.205887 0.068506
v 0.451721 0.859156 -0.170006
v 0.377622 1.097202 -0.169826
v 0.409007 0.844729 0.116781
v 0.310854 1.084273 0.124982
v 0.053233 0.175255 0.396584
v 0.268253 0.197314 0.261398
v 0.270944 0.476291 0.296052
v 0.036728 0.438209 0.420600
v 0.223944 0.762262 0.345543
v 0.157218 1.023253 0.404200
v 0.310854 1.084273 0.124982
v -0.198772 1.154207 -0.048739
v -0.198772 1.154207 -0.048739
v 0.460186 0.520437 0.089022
vt 0.823533 0.123956
vt 0.800365 0.087640
vt 0.822806 0.088006
vt 0.805067 0.048066
vt 0.824700 0.049883
vt 0.845134 0.086030
vt 0.844462 0.050199
vt 0.829586 0.012896
vt 0.847304 0.121043
vt 0.799304 0.125313
vt 0.769943 0.123589
vt 0.849409 0.155020
vt 0.868260 0.081839
vt 0.775650 0.083795
vt 0.786261 0.044498
vt 0.795616 0.006375
vt 0.811535 0.009911
vt 0.760419 0.269236
vt 0.741356 0.234027
vt 0.744422 0.269858
vt 0.727092 0.270164
vt 0.723185 0.234982
vt 0.755745 0.398777
vt 0.717388 0.364508
vt 0.743174 0.358280
vt 0.706124 0.328022
vt 0.724733 0.321611
vt 0.847169 0.014604
vt 0.863467 0.048618
vt 0.710295 0.270602
vt 0.862700 0.014693
vt 0.705526 0.235948
vt 0.695118 0.271137
vt 0.880874 0.045275
vt 0.889280 0.076358
vt 0.873794 0.115561
vt 0.898362 0.108439
vt 0.705526 0.235948
vt 0.689817 0.236698
vt 0.673759 0.238061
vt 0.681103 0.272164
vt 0.876587 0.013179
vt 0.897258 0.040654
vt 0.909343 0.069649
vt 0.922274 0.100266
vt 0.825588 0.158287
vt 0.801334 0.160768
vt 0.827588 0.187494
vt 0.804674 0.191621
vt 0.850649 0.182262
vt 0.829908 0.201770
vt 0.804094 0.207185
vt 0.804094 0.207185
vt 0.829908 0.201770
vt 0.804094 0.207185
vt 0.853328 0.197700
vt 0.853328 0.197700
vt 0.829908 0.201770
vt 0.771100 0.196812
vt 0.768596 0.162689
vt 0.728171 0.443238
vt 0.763055 0.440763
vt 0.730533 0.480214
vt 0.767816 0.476977
vt 0.769877 0.504109
vt 0.733171 0.505804
vt 0.770533 0.223510
vt 0.770533 0.223510
vt 0.770533 0.223510
vt 0.733171 0.505804
vt 0.881137 0.172432
vt 0.878331 0.147848
vt 0.905989 0.139487
vt 0.911126 0.165424
vt 0.882275 0.186334
vt 0.853328 0.197700
vt 0.910114 0.186759
vt 0.882275 0.186334
vt 0.938326 0.160104
vt 0.931763 0.131127
vt 0.942869 0.197661
vt 0.910114 0.186759
vt 0.546306 0.491537
vt 0.587242 0.499046
vt 0.546306 0.491537
vt 0.565893 0.457879
vt 0.689817 0.236698
vt 0.560297 0.015023
vt 0.549535 0.051798
vt 0.544489 0.016098
vt 0.563662 0.051594
vt 0.757156 0.233569
vt 0.741356 0.234027
vt 0.549535 0.051798
vt 0.563662 0.051594
vt 0.549535 0.051798
vt 0.692819 0.292053
vt 0.707845 0.286742
vt 0.685304 0.332029
vt 0.675742 0.297556
vt 0.580311 0.050836
vt 0.577649 0.015541
vt 0.664648 0.334425
vt 0.658163 0.301301
vt 0.595089 0.015586
vt 0.598727 0.049510
vt 0.645457 0.335719
vt 0.691255 0.367649
vt 0.667550 0.369287
vt 0.645193 0.369422
vt 0.580311 0.050836
vt 0.563662 0.051594
vt 0.723185 0.234982
vt 0.741356 0.234027
vt 0.723185 0.234982
vt 0.673759 0.238061
vt 0.631869 0.046848
vt 0.646834 0.044578
vt 0.631869 0.046848
vt 0.658199 0.240539
vt 0.667764 0.274434
vt 0.658199 0.240539
vt 0.614533 0.299674
vt 0.625614 0.334732
vt 0.606620 0.330350
vt 0.628576 0.302209
vt 0.594778 0.360008
vt 0.889710 0.010040
vt 0.624861 0.012673
vt 0.638936 0.009737
vt 0.598727 0.049510
vt 0.580311 0.050836
vt 0.610678 0.014722
vt 0.616022 0.048220
vt 0.598727 0.049510
vt 0.616022 0.048220
vt 0.631869 0.046848
vt 0.616022 0.048220
vt 0.642591 0.303017
vt 0.619313 0.366733
vt 0.724094 0.403314
vt 0.694833 0.405456
vt 0.698844 0.511217
vt 0.697089 0.481404
vt 0.698844 0.511217
vt 0.733171 0.505804
vt 0.698844 0.511217
vt 0.664579 0.511768
vt 0.664579 0.511768
vt 0.696366 0.444163
vt 0.668466 0.406033
vt 0.667383 0.444191
vt 0.642300 0.403953
vt 0.666044 0.482382
vt 0.664579 0.511768
vt 0.631827 0.478177
vt 0.625936 0.507912
vt 0.582634 0.391997
vt 0.611989 0.399053
vt 0.605424 0.432943
vt 0.574103 0.425798
vt 0.596610 0.467596
vt 0.587242 0.499046
vt 0.625936 0.507912
vt 0.587242 0.499046
vt 0.625936 0.507912
vt 0.637545 0.440532
vn -0.930814 -0.241687 -0.274176
vn -0.653983 -0.311163 -0.689553
vn -0.933600 -0.323538 -0.153994
vn -0.641373 -0.489387 -0.590882
vn -0.897584 -0.410749 -0.160088
vn -0.931476 -0.269291 0.244614
vn -0.935918 -0.250151 0.247957
vn -0.879546 -0.390417 -0.271979
vn -0.951390 -0.230838 0.203888
vn -0.671936 -0.187134 -0.716577
vn -0.270476 -0.199375 -0.941856
vn -0.963271 -0.107317 0.246156
vn -0.778433 -0.244180 0.578288
vn -0.156121 -0.309616 -0.937958
vn -0.099360 -0.397863 -0.912049
vn -0.308543 -0.472336 -0.825652
vn -0.698288 -0.469311 -0.540500
vn -0.308543 -0.472336 -0.825652
vn -0.596099 -0.672202 -0.439101
vn -0.698288 -0.469311 -0.540500
vn -0.879546 -0.390417 -0.271979
vn -0.789918 -0.593404 -0.154600
vn -0.270476 -0.199375 -0.941856
vn 0.280864 -0.350775 -0.893349
vn -0.156121 -0.309616 -0.937958
vn 0.395288 -0.305395 -0.866303
vn -0.099360 -0.397863 -0.912049
vn -0.957454 -0.183013 0.223132
vn -0.742608 -0.186036 0.643369
vn -0.957454 -0.183013 0.223132
vn -0.716784 0.041264 0.696073
vn -0.827741 -0.486379 0.279785
vn -0.716784 0.041264 0.696073
vn -0.278181 -0.077260 0.957416
vn -0.301100 -0.206267 0.931017
vn -0.820746 -0.160950 0.548153
vn -0.363172 -0.143370 0.920625
vn 0.185777 -0.580512 0.792775
vn -0.663854 -0.255987 0.702687
vn -0.293628 -0.099108 0.950768
vn -0.271971 0.226708 0.935219
vn -0.271971 0.226708 0.935219
vn 0.266255 0.011791 0.963831
vn 0.304666 -0.128370 0.943769
vn 0.307936 -0.109447 0.945091
vn -0.940509 -0.185939 -0.284375
vn -0.653052 -0.180143 -0.735575
vn -0.977615 -0.086341 -0.191870
vn -0.676271 -0.189139 -0.711957
vn -0.968521 -0.041622 0.245428
vn -0.737807 0.674620 -0.022977
vn -0.749324 0.272400 -0.603582
vn -0.749324 0.272400 -0.603582
vn -0.737807 0.674620 -0.022977
vn -0.649677 0.667017 0.364703
vn -0.778758 0.621891 -0.082387
vn -0.778758 0.621891 -0.082387
vn -0.649677 0.667017 0.364703
vn -0.294082 -0.121842 -0.947982
vn -0.284535 -0.137059 -0.948817
vn 0.226599 -0.092635 -0.969573
vn -0.284535 -0.137059 -0.948817
vn 0.226527 -0.006589 -0.973983
vn -0.294082 -0.121842 -0.947982
vn -0.364495 0.509999 -0.779131
vn 0.266908 0.483641 -0.833578
vn -0.364495 0.509999 -0.779131
vn -0.364495 0.509999 -0.779131
vn -0.649677 0.667017 0.364703
vn -0.649677 0.667017 0.364703
vn -0.849786 -0.179460 0.495639
vn -0.818628 -0.083884 0.568165
vn -0.432162 -0.059020 0.899862
vn -0.481296 -0.270247 0.833859
vn -0.940228 -0.007494 0.340463
vn -0.649677 0.667017 0.364703
vn -0.766054 -0.093051 0.636006
vn -0.649677 0.667017 0.364703
vn 0.170145 -0.205096 0.963839
vn 0.225122 -0.084876 0.970627
vn -0.236050 0.387667 0.891064
vn -0.649677 0.667017 0.364703
vn -0.236050 0.387667 0.891064
vn 0.447332 0.614659 0.649684
vn -0.649677 0.667017 0.364703
vn 0.170145 -0.205096 0.963839
vn 0.185777 -0.580512 0.792775
vn 0.464098 -0.272689 -0.842766
vn -0.160992 -0.746766 -0.645308
vn -0.308543 -0.472336 -0.825652
vn 0.479646 -0.624802 -0.616086
vn -0.160992 -0.746766 -0.645308
vn 0.185777 -0.580512 0.792775
vn -0.160992 -0.746766 -0.645308
vn 0.479646 -0.624802 -0.616086
vn 0.185777 -0.580512 0.792775
vn 0.464098 -0.272689 -0.842766
vn -0.308543 -0.472336 -0.825652
vn 0.730171 -0.328376 -0.599182
vn 0.890202 -0.112352 -0.441494
vn 0.848855 -0.388122 -0.358895
vn 0.890202 -0.112352 -0.441494
vn 0.965957 -0.224892 -0.127869
vn 0.996113 0.020290 -0.085718
vn 0.996113 0.020290 -0.085718
vn 0.968547 -0.217012 -0.121745
vn 0.893032 -0.035752 0.448571
vn 0.713094 -0.309006 -0.629295
vn 0.972683 -0.222910 -0.064804
vn 0.872462 -0.092622 0.479825
vn 0.848855 -0.388122 -0.358895
vn 0.185777 -0.580512 0.792775
vn -0.789918 -0.593404 -0.154600
vn -0.596099 -0.672202 -0.439101
vn 0.185777 -0.580512 0.792775
vn 0.185777 -0.580512 0.792775
vn 0.649526 0.069851 0.757124
vn 0.230673 0.000061 0.973031
vn 0.185777 -0.580512 0.792775
vn 0.230673 0.000061 0.973031
vn 0.207983 0.340278 0.917036
vn 0.185777 -0.580512 0.792775
vn 0.207983 0.340278 0.917036
vn 0.585717 0.064558 0.807941
vn 0.266255 0.011791 0.963831
vn 0.581869 0.360540 0.728999
vn 0.304666 -0.128370 0.943769
vn 0.207983 0.340278 0.917036
vn 0.581869 0.360540 0.728999
vn 0.207983 0.340278 0.917036
vn 0.968547 -0.217012 -0.121745
vn 0.185777 -0.580512 0.792775
vn 0.916211 0.216763 0.337004
vn 0.953171 -0.044466 0.299144
vn 0.185777 -0.580512 0.792775
vn 0.953171 -0.044466 0.299144
vn 0.649526 0.069851 0.757124
vn 0.185777 -0.580512 0.792775
vn 0.916211 0.216763 0.337004
vn 0.635920 -0.065174 0.768998
vn 0.257801 -0.219477 -0.940940
vn 0.724331 -0.170039 -0.668155
vn 0.480864 0.727249 -0.489774
vn 0.751669 0.121784 -0.648199
vn 0.480864 0.727249 -0.489774
vn 0.266908 0.483641 -0.833578
vn -0.649677 0.667017 0.364703
vn 0.641043 0.761887 -0.092695
vn -0.649677 0.667017 0.364703
vn 0.743865 -0.023024 -0.667934
vn 0.987402 -0.113912 -0.109823
vn 0.991915 0.063431 -0.109914
vn 0.871721 -0.097076 0.480290
vn 0.972162 0.216128 -0.090492
vn 0.641043 0.761887 -0.092695
vn 0.880224 0.205854 0.427586
vn 0.540456 0.782035 0.310369
vn 0.307936 -0.109447 0.945091
vn 0.643188 -0.101227 0.758987
vn 0.623174 -0.067181 0.779192
vn 0.225122 -0.084876 0.970627
vn 0.633571 -0.021156 0.773395
vn 0.447332 0.614659 0.649684
vn 0.540456 0.782035 0.310369
vn -0.649677 0.667017 0.364703
vn -0.649677 0.667017 0.364703
vn 0.893195 0.016644 0.449361
f 145/145/145 146/146/146 147/147/147
f 148/148/148 145/145/145 149/149/149
f 164/164/164 148/148/148 166/166/166
f 163/163/163 164/164/164 165/165/165
f 94/94/94 95/95/95 96/96/96
f 95/95/95 111/111/111 112/112/112
f 111/111/111 131/131/131 132/132/132
f 53/53/53 54/54/54 55/55/55
f 54/54/54 57/57/57 58/58/58
f 68/68/68 53/53/53 69/69/69
f 113/113/113 114/114/114 115/115/115
f 136/136/136 137/137/137 138/138/138
f 18/18/18 19/19/19 20/20/20
f 19/19/19 18/18/18 92/92/92
f 19/19/19 92/92/92 93/93/93
f 19/19/19 21/21/21 20/20/20
f 21/21/21 19/19/19 22/22/22
f 22/22/22 30/30/30 21/21/21
f 30/30/30 22/22/22 32/32/32
f 32/32/32 22/22/22 38/38/38
f 32/32/32 33/33/33 30/30/30
f 39/39/39 33/33/33 32/32/32
f 39/39/39 32/32/32 87/87/87
f 40/40/40 33/33/33 39/39/39
f 40/40/40 39/39/39 116/116/116
f 33/33/33 40/40/40 41/41/41
f 121/121/121 41/41/41 40/40/40
f 120/120/120 121/121/121 40/40/40
f 120/120/120 40/40/40 122/122/122
f 88/88/88 89/89/89 90/90/90
f 89/89/89 88/88/88 91/91/91
f 88/88/88 101/101/101 91/91/91
f 101/101/101 88/88/88 102/102/102
f 101/101/101 102/102/102 105/105/105
f 101/101/101 105/105/105 106/106/106
f 133/133/133 106/106/106 105/105/105
f 106/106/106 133/133/133 134/134/134
f 106/106/106 134/134/134 135/135/135
f 134/134/134 133/133/133 129/129/129
f 129/129/129 117/117/117 134/134/134
f 129/129/129 118/118/118 117/117/117
f 117/117/117 118/118/118 119/119/119
f 118/118/118 129/129/129 130/130/130
f 1/1/1 2/2/2 3/3/3
f 3/3/3 9/9/9 1/1/1
f 2/2/2 1/1/1 10/10/10
f 4/4/4 3/3/3 2/2/2
f 11/11/11 2/2/2 10/10/10
f 2/2/2 11/11/11 14/14/14
f 14/14/14 4/4/4 2/2/2
f 10/10/10 60/60/60 11/11/11
f 4/4/4 14/14/14 15/15/15
f 17/17/17 4/4/4 15/15/15
f 15/15/15 16/16/16 17/17/17
f 17/17/17 5/5/5 4/4/4
f 3/3/3 4/4/4 5/5/5
f 5/5/5 17/17/17 8/8/8
f 5/5/5 6/6/6 3/3/3
f 9/9/9 3/3/3 6/6/6
f 8/8/8 7/7/7 5/5/5
f 6/6/6 5/5/5 7/7/7
f 7/7/7 8/8/8 28/28/28
f 31/31/31 7/7/7 28/28/28
f 29/29/29 6/6/6 7/7/7
f 7/7/7 31/31/31 29/29/29
f 6/6/6 29/29/29 13/13/13
f 13/13/13 9/9/9 6/6/6
f 34/34/34 29/29/29 31/31/31
f 42/42/42 34/34/34 31/31/31
f 43/43/43 34/34/34 42/42/42
f 128/128/128 43/43/43 42/42/42
f 43/43/43 44/44/44 34/34/34
f 34/34/34 35/35/35 29/29/29
f 44/44/44 35/35/35 34/34/34
f 35/35/35 13/13/13 29/29/29
f 44/44/44 45/45/45 35/35/35
f 35/35/35 37/37/37 13/13/13
f 45/45/45 37/37/37 35/35/35
f 37/37/37 36/36/36 13/13/13
f 9/9/9 13/13/13 36/36/36
f 37/37/37 45/45/45 73/73/73
f 73/73/73 36/36/36 37/37/37
f 45/45/45 80/80/80 73/73/73
f 79/79/79 73/73/73 80/80/80
f 36/36/36 73/73/73 72/72/72
f 72/72/72 9/9/9 36/36/36
f 73/73/73 79/79/79 74/74/74
f 81/81/81 74/74/74 79/79/79
f 73/73/73 71/71/71 72/72/72
f 71/71/71 73/73/73 74/74/74
f 74/74/74 81/81/81 77/77/77
f 77/77/77 81/81/81 82/82/82
f 75/75/75 74/74/74 77/77/77
f 74/74/74 75/75/75 71/71/71
f 75/75/75 77/77/77 78/78/78
f 9/9/9 72/72/72 12/12/12
f 71/71/71 12/12/12 72/72/72
f 12/12/12 1/1/1 9/9/9
f 50/50/50 71/71/71 75/75/75
f 12/12/12 71/71/71 50/50/50
f 56/56/56 75/75/75 76/76/76
f 75/75/75 56/56/56 50/50/50
f 51/51/51 50/50/50 56/56/56
f 1/1/1 12/12/12 46/46/46
f 50/50/50 46/46/46 12/12/12
f 46/46/46 10/10/10 1/1/1
f 51/51/51 48/48/48 50/50/50
f 46/46/46 50/50/50 48/48/48
f 10/10/10 46/46/46 47/47/47
f 48/48/48 47/47/47 46/46/46
f 60/60/60 10/10/10 47/47/47
f 51/51/51 49/49/49 48/48/48
f 47/47/47 48/48/48 49/49/49
f 49/49/49 60/60/60 47/47/47
f 49/49/49 51/51/51 52/52/52
f 59/59/59 60/60/60 49/49/49
f 52/52/52 59/59/59 49/49/49
f 59/59/59 52/52/52 67/67/67
f 23/23/23 24/24/24 25/25/25
f 26/26/26 25/25/25 24/24/24
f 25/25/25 26/26/26 27/27/27
f 98/98/98 27/27/27 26/26/26
f 26/26/26 97/97/97 98/98/98
f 26/26/26 100/100/100 97/97/97
f 24/24/24 99/99/99 26/26/26
f 100/100/100 26/26/26 99/99/99
f 141/141/141 24/24/24 23/23/23
f 100/100/100 99/99/99 103/103/103
f 100/100/100 103/103/103 104/104/104
f 99/99/99 24/24/24 108/108/108
f 141/141/141 108/108/108 24/24/24
f 99/99/99 109/109/109 103/103/103
f 99/99/99 108/108/108 109/109/109
f 104/104/104 103/103/103 107/107/107
f 104/104/104 107/107/107 139/139/139
f 103/103/103 109/109/109 110/110/110
f 103/103/103 110/110/110 107/107/107
f 108/108/108 151/151/151 109/109/109
f 151/151/151 110/110/110 109/109/109
f 139/139/139 107/107/107 124/124/124
f 110/110/110 124/124/124 107/107/107
f 139/139/139 124/124/124 126/126/126
f 124/124/124 123/123/123 126/126/126
f 123/123/123 124/124/124 125/125/125
f 125/125/125 124/124/124 127/127/127
f 124/124/124 140/140/140 127/127/127
f 124/124/124 110/110/110 140/140/140
f 140/140/140 158/158/158 127/127/127
f 153/153/153 140/140/140 110/110/110
f 110/110/110 151/151/151 153/153/153
f 158/158/158 140/140/140 159/159/159
f 140/140/140 153/153/153 159/159/159
f 158/158/158 159/159/159 161/161/161
f 159/159/159 160/160/160 161/161/161
f 153/153/153 160/160/160 159/159/159
f 160/160/160 86/86/86 161/161/161
f 152/152/152 153/153/153 151/151/151
f 160/160/160 153/153/153 167/167/167
f 153/153/153 152/152/152 167/167/167
f 162/162/162 160/160/160 167/167/167
f 86/86/86 160/160/160 162/162/162
f 167/167/167 156/156/156 162/162/162
f 152/152/152 156/156/156 167/167/167
f 162/162/162 84/84/84 86/86/86
f 156/156/156 84/84/84 162/162/162
f 84/84/84 83/83/83 86/86/86
f 83/83/83 84/84/84 85/85/85
f 84/84/84 156/156/156 157/157/157
f 154/154/154 157/157/157 156/156/156
f 156/156/156 152/152/152 154/154/154
f 157/157/157 154/154/154 155/155/155
f 154/154/154 143/143/143 155/155/155
f 144/144/144 154/154/154 152/152/152
f 143/143/143 154/154/154 144/144/144
f 150/150/150 144/144/144 152/152/152
f 150/150/150 152/152/152 151/151/151
f 63/63/63 143/143/143 144/144/144
f 61/61/61 144/144/144 150/150/150
f 144/144/144 61/61/61 63/63/63
f 143/143/143 63/63/63 66/66/66
f 142/142/142 150/150/150 151/151/151
f 150/150/150 142/142/142 61/61/61
f 151/151/151 108/108/108 142/142/142
f 142/142/142 108/108/108 141/141/141
f 61/61/61 142/142/142 141/141/141
f 23/23/23 61/61/61 141/141/141
f 61/61/61 23/23/23 62/62/62
f 62/62/62 63/63/63 61/61/61
f 63/63/63 62/62/62 64/64/64
f 66/66/66 63/63/63 64/64/64
f 65/65/65 66/66/66 64/64/64
f 66/66/66 65/65/65 70/70/70
