# Generated from Roblox mesh JSON (v4.01)
# Hello from RBX_Toolbox ;)
o RightLowerArm
v -0.181022 0.156730 -0.069966
v 0.125984 -0.279042 -0.208922
v -0.060409 -0.113093 -0.076292
v 0.023944 -0.019428 -0.183920
v -0.245913 0.065992 0.097536
v -0.061225 -0.148769 -0.004354
v -0.237717 0.104655 0.012929
v 0.089621 0.019475 -0.203089
v -0.126063 0.221110 -0.125045
v -0.044091 0.273387 -0.160035
v -0.374569 0.351556 0.091607
v 0.109375 -0.337424 -0.105390
v 0.106983 -0.312131 -0.162179
v 0.123321 -0.352653 -0.053344
v -0.034719 -0.161798 0.063592
v 0.089621 0.019475 -0.203089
v 0.040200 0.313327 -0.153712
v 0.155509 0.047571 -0.192791
v -0.044091 0.273387 -0.160035
v 0.106797 0.331553 -0.098608
v 0.017270 -0.150207 0.117352
v 0.160613 -0.348155 -0.014352
v -0.215883 0.055318 0.179214
v -0.399439 0.323199 0.173712
v -0.149649 0.076677 0.237945
v -0.310382 0.337046 0.330773
v -0.375256 0.318790 0.260870
v -0.217629 0.378347 0.362591
v -0.065711 0.121812 0.259352
v 0.018772 0.182268 0.234668
v -0.217629 0.378347 0.362591
v -0.065711 0.121812 0.259352
v 0.087871 -0.112605 0.139535
v 0.159999 -0.061621 0.123961
v 0.087871 -0.112605 0.139535
v -0.321281 0.397668 0.020103
v -0.250445 0.452105 -0.034131
v -0.177335 0.505170 -0.069858
v -0.290999 0.632061 0.154554
v -0.105557 0.552158 -0.062985
v -0.177335 0.505170 -0.069858
v -0.290999 0.632061 0.154554
v -0.290999 0.632061 0.154554
v -0.039219 0.582997 -0.016563
v -0.105557 0.552158 -0.062985
v -0.290999 0.632061 0.154554
v 0.135000 0.323242 -0.011640
v 0.004948 0.586006 0.067333
v 0.128364 0.293021 0.083136
v -0.177335 0.505170 -0.069858
v -0.290999 0.632061 0.154554
v -0.321281 0.397668 0.020103
v -0.374569 0.351556 0.091607
v -0.290999 0.632061 0.154554
v -0.399439 0.323199 0.173712
v -0.375256 0.318790 0.260870
v -0.290999 0.632061 0.154554
v -0.290999 0.632061 0.154554
v -0.290999 0.632061 0.154554
v -0.119667 0.437900 0.338448
v -0.045627 0.499333 0.264670
v -0.290999 0.632061 0.154554
v -0.290999 0.632061 0.154554
v -0.217629 0.378347 0.362591
v -0.119667 0.437900 0.338448
v -0.290999 0.632061 0.154554
v 0.003348 0.554057 0.172644
v -0.290999 0.632061 0.154554
v 0.090982 0.244324 0.173240
v 0.003348 0.554057 0.172644
v 0.004948 0.586006 0.067333
v -0.290999 0.632061 0.154554
v 0.161209 -0.247025 -0.242362
v 0.185483 -0.538776 -0.283024
v 0.203291 -0.483812 -0.313558
v 0.292368 -0.632060 -0.282499
v 0.229023 -0.455125 -0.341801
v 0.292368 -0.632060 -0.282499
v 0.194300 -0.545520 -0.200786
v 0.185483 -0.538776 -0.283024
v 0.292368 -0.632060 -0.282499
v 0.208639 -0.556336 -0.148513
v 0.292368 -0.632060 -0.282499
v 0.194300 -0.545520 -0.200786
v 0.269324 -0.439053 -0.362591
v 0.292368 -0.632060 -0.282499
v 0.327475 -0.438965 -0.356998
v 0.375773 -0.452621 -0.314153
v 0.292368 -0.632060 -0.282499
v 0.398686 -0.472725 -0.256290
v 0.292368 -0.632060 -0.282499
v 0.399439 -0.494017 -0.197623
v 0.292368 -0.632060 -0.282499
v 0.380424 -0.514575 -0.140686
v 0.292368 -0.632060 -0.282499
v 0.269324 -0.439053 -0.362591
v 0.292368 -0.632060 -0.282499
v 0.261090 -0.200623 -0.260843
v 0.311134 -0.197478 -0.224704
v 0.334692 -0.234852 -0.102974
v 0.208639 -0.556336 -0.148513
v 0.238654 -0.558076 -0.104712
v 0.292368 -0.632060 -0.282499
v 0.214739 -0.328835 0.007233
v 0.286008 -0.548258 -0.084832
v 0.286008 -0.548258 -0.084832
v 0.238654 -0.558076 -0.104712
v 0.292368 -0.632060 -0.282499
v 0.380424 -0.514575 -0.140686
v 0.339466 -0.533054 -0.097317
v 0.292368 -0.632060 -0.282499
v 0.339466 -0.533054 -0.097317
v 0.286008 -0.548258 -0.084832
v 0.292368 -0.632060 -0.282499
v 0.214739 -0.328835 0.007233
v 0.272255 -0.298262 -0.003110
v 0.313334 -0.264723 -0.045750
v 0.207200 -0.218725 -0.265179
v 0.207200 -0.218725 -0.265179
v 0.210050 0.060332 -0.149544
v 0.335204 -0.211392 -0.165203
v 0.247341 0.057542 -0.081813
v 0.251105 0.032802 -0.000823
v 0.220175 -0.009709 0.074512
vt 0.969698 0.044054
vt 0.973276 0.110502
vt 0.961787 0.078452
vt 0.981571 0.077318
vt 0.946691 0.044913
vt 0.952423 0.080073
vt 0.957416 0.043666
vt 0.990871 0.078119
vt 0.982302 0.042384
vt 0.994562 0.042925
vt 0.954865 0.008772
vt 0.958289 0.112720
vt 0.965918 0.111597
vt 0.951440 0.113728
vt 0.943776 0.081621
vt 0.972349 0.279125
vt 0.968148 0.315588
vt 0.963759 0.280393
vt 0.979129 0.314727
vt 0.957842 0.316440
vt 0.934968 0.083441
vt 0.944893 0.114809
vt 0.936626 0.046305
vt 0.943532 0.008484
vt 0.926144 0.048193
vt 0.920425 0.010677
vt 0.932249 0.008990
vt 0.907909 0.013471
vt 0.914827 0.050773
vt 0.909025 0.315911
vt 0.891151 0.350906
vt 0.896475 0.313855
vt 0.925412 0.086022
vt 0.914338 0.280434
vt 0.903893 0.278291
vt 0.967362 0.009124
vt 0.980200 0.009024
vt 0.991929 0.008623
vt 0.980200 0.009024
vt 0.970098 0.350777
vt 0.980455 0.349373
vt 0.970098 0.350777
vt 0.991929 0.008623
vt 0.959561 0.352304
vt 0.970098 0.350777
vt 0.959561 0.352304
vt 0.947096 0.317277
vt 0.947927 0.353422
vt 0.935341 0.317642
vt 0.980455 0.349373
vt 0.947927 0.353422
vt 0.967362 0.009124
vt 0.954865 0.008772
vt 0.967362 0.009124
vt 0.943532 0.008484
vt 0.932249 0.008990
vt 0.943532 0.008484
vt 0.932249 0.008990
vt 0.954865 0.008772
vt 0.905158 0.352401
vt 0.919903 0.353220
vt 0.905158 0.352401
vt 0.920425 0.010677
vt 0.891151 0.350906
vt 0.905158 0.352401
vt 0.891151 0.350906
vt 0.934368 0.353720
vt 0.919903 0.353220
vt 0.922422 0.317208
vt 0.934368 0.353720
vt 0.947927 0.353422
vt 0.934368 0.353720
vt 0.980383 0.109867
vt 0.971921 0.143776
vt 0.978087 0.139327
vt 0.971921 0.143776
vt 0.983496 0.138076
vt 0.978087 0.139327
vt 0.962427 0.142054
vt 0.971921 0.143776
vt 0.962427 0.142054
vt 0.956054 0.142302
vt 0.956054 0.142302
vt 0.962427 0.142054
vt 0.989244 0.138185
vt 0.983496 0.138076
vt 0.958438 0.214523
vt 0.950540 0.213543
vt 0.958438 0.214523
vt 0.942630 0.213178
vt 0.950540 0.213543
vt 0.935067 0.213373
vt 0.942630 0.213178
vt 0.927426 0.214151
vt 0.935067 0.213373
vt 0.965305 0.215886
vt 0.965305 0.215886
vt 0.959331 0.246573
vt 0.951964 0.246828
vt 0.936189 0.247015
vt 0.956054 0.142302
vt 0.949923 0.142793
vt 0.949923 0.142793
vt 0.937674 0.116407
vt 0.943889 0.143851
vt 0.943889 0.143851
vt 0.949923 0.142793
vt 0.943889 0.143851
vt 0.927426 0.214151
vt 0.919975 0.215333
vt 0.927426 0.214151
vt 0.919975 0.215333
vt 0.913159 0.216024
vt 0.919975 0.215333
vt 0.912147 0.245479
vt 0.919960 0.246446
vt 0.928078 0.246876
vt 0.987447 0.109796
vt 0.966114 0.246013
vt 0.955328 0.281324
vt 0.944130 0.246988
vt 0.946142 0.282018
vt 0.936121 0.282187
vt 0.925311 0.281716
vn -0.660346 -0.176853 -0.729840
vn -0.754833 -0.147505 -0.639116
vn -0.773707 -0.447147 -0.448817
vn -0.449919 -0.052346 -0.891534
vn -0.821971 -0.566349 -0.060105
vn -0.767740 -0.635704 -0.080347
vn -0.794693 -0.371537 -0.480025
vn -0.137179 0.139480 -0.980677
vn -0.534389 -0.041488 -0.844220
vn -0.239259 0.132353 -0.961893
vn -0.958096 -0.111229 -0.263971
vn -0.853225 -0.517529 -0.064584
vn -0.877145 -0.341027 -0.338107
vn -0.714288 -0.617580 0.329222
vn -0.595910 -0.709639 0.375903
vn -0.137179 0.139480 -0.980677
vn 0.232618 0.353442 -0.906073
vn 0.294445 0.314654 -0.902383
vn -0.239259 0.132353 -0.961893
vn 0.717562 0.472432 -0.511774
vn -0.223357 -0.613134 0.757746
vn -0.336786 -0.584632 0.738093
vn -0.616971 -0.630505 0.470968
vn -0.986678 -0.103097 -0.125847
vn -0.217715 -0.510708 0.831732
vn -0.530538 -0.063346 0.845291
vn -0.875162 -0.140323 0.463035
vn -0.099587 0.113476 0.988537
vn 0.204184 -0.296777 0.932862
vn 0.522941 -0.071903 0.849331
vn -0.099587 0.113476 0.988537
vn 0.204184 -0.296777 0.932862
vn 0.195977 -0.383059 0.902696
vn 0.522561 -0.140474 0.840950
vn 0.195977 -0.383059 0.902696
vn -0.697905 0.109583 -0.707757
vn -0.658723 0.149673 -0.737348
vn -0.243837 0.457382 -0.855187
vn -0.929928 0.311598 -0.195294
vn 0.127638 0.678803 -0.723143
vn -0.243837 0.457382 -0.855187
vn -0.929928 0.311598 -0.195294
vn -0.929928 0.311598 -0.195294
vn 0.460977 0.709257 -0.533343
vn 0.127638 0.678803 -0.723143
vn -0.929928 0.311598 -0.195294
vn 0.906821 0.421116 -0.018366
vn 0.660872 0.750457 -0.007930
vn 0.887573 0.307816 0.342729
vn -0.243837 0.457382 -0.855187
vn -0.929928 0.311598 -0.195294
vn -0.697905 0.109583 -0.707757
vn -0.958096 -0.111229 -0.263971
vn -0.929928 0.311598 -0.195294
vn -0.986678 -0.103097 -0.125847
vn -0.875162 -0.140323 0.463035
vn -0.929928 0.311598 -0.195294
vn -0.929928 0.311598 -0.195294
vn -0.929928 0.311598 -0.195294
vn 0.276300 0.305640 0.911176
vn 0.506878 0.501504 0.701119
vn -0.929928 0.311598 -0.195294
vn -0.929928 0.311598 -0.195294
vn -0.099587 0.113476 0.988537
vn 0.276300 0.305640 0.911176
vn -0.929928 0.311598 -0.195294
vn 0.626286 0.627786 0.462225
vn -0.929928 0.311598 -0.195294
vn 0.746933 0.147839 0.648255
vn 0.626286 0.627786 0.462225
vn 0.660872 0.750457 -0.007930
vn -0.929928 0.311598 -0.195294
vn -0.578336 0.022750 -0.815482
vn -0.808410 -0.451363 -0.377816
vn -0.733968 -0.153855 -0.661528
vn -0.115740 -0.604144 -0.788425
vn -0.641810 -0.176186 -0.746350
vn -0.115740 -0.604144 -0.788425
vn -0.850766 -0.523746 0.043439
vn -0.808410 -0.451363 -0.377816
vn -0.115740 -0.604144 -0.788425
vn -0.762800 -0.619262 0.186149
vn -0.115740 -0.604144 -0.788425
vn -0.850766 -0.523746 0.043439
vn -0.046973 0.071295 -0.996349
vn -0.115740 -0.604144 -0.788425
vn 0.435133 0.068921 -0.897724
vn 0.799429 0.025403 -0.600223
vn -0.115740 -0.604144 -0.788425
vn 0.961231 -0.091320 -0.260185
vn -0.115740 -0.604144 -0.788425
vn 0.975309 -0.212152 0.061348
vn -0.115740 -0.604144 -0.788425
vn 0.834274 -0.371030 0.407828
vn -0.115740 -0.604144 -0.788425
vn -0.046973 0.071295 -0.996349
vn -0.115740 -0.604144 -0.788425
vn 0.263548 0.390806 -0.881937
vn 0.742762 0.409874 -0.529441
vn 0.951984 0.173938 0.251937
vn -0.762800 -0.619262 0.186149
vn -0.422126 -0.725470 0.543602
vn -0.115740 -0.604144 -0.788425
vn 0.097070 -0.420449 0.902109
vn 0.117397 -0.644112 0.755869
vn 0.117397 -0.644112 0.755869
vn -0.422126 -0.725470 0.543602
vn -0.115740 -0.604144 -0.788425
vn 0.834274 -0.371030 0.407828
vn 0.500992 -0.530416 0.683861
vn -0.115740 -0.604144 -0.788425
vn 0.500992 -0.530416 0.683861
vn 0.117397 -0.644112 0.755869
vn -0.115740 -0.604144 -0.788425
vn 0.097070 -0.420449 0.902109
vn 0.551254 -0.173243 0.816153
vn 0.837709 0.033550 0.545086
vn -0.274596 0.218147 -0.936488
vn -0.274596 0.218147 -0.936488
vn 0.684927 0.408376 -0.603411
vn 0.949252 0.300974 -0.091300
vn 0.904032 0.388859 -0.177526
vn 0.924456 0.264638 0.274496
vn 0.778778 0.072098 0.623143
f 64/64/64 65/65/65 66/66/66
f 70/70/70 71/71/71 72/72/72
f 52/52/52 53/53/53 54/54/54
f 53/53/53 55/55/55 59/59/59
f 55/55/55 56/56/56 57/57/57
f 109/109/109 110/110/110 111/111/111
f 40/40/40 41/41/41 42/42/42
f 106/106/106 107/107/107 108/108/108
f 79/79/79 80/80/80 81/81/81
f 82/82/82 79/79/79 83/83/83
f 16/16/16 17/17/17 18/18/18
f 16/16/16 19/19/19 17/17/17
f 119/119/119 16/16/16 18/18/18
f 19/19/19 45/45/45 17/17/17
f 45/45/45 19/19/19 50/50/50
f 44/44/44 17/17/17 45/45/45
f 44/44/44 45/45/45 46/46/46
f 18/18/18 17/17/17 20/20/20
f 17/17/17 44/44/44 20/20/20
f 119/119/119 18/18/18 98/98/98
f 98/98/98 96/96/96 119/119/119
f 20/20/20 120/120/120 18/18/18
f 98/98/98 18/18/18 120/120/120
f 96/96/96 98/98/98 87/87/87
f 96/96/96 87/87/87 97/97/97
f 120/120/120 99/99/99 98/98/98
f 99/99/99 87/87/87 98/98/98
f 87/87/87 99/99/99 88/88/88
f 87/87/87 88/88/88 89/89/89
f 99/99/99 90/90/90 88/88/88
f 88/88/88 90/90/90 91/91/91
f 120/120/120 121/121/121 99/99/99
f 90/90/90 99/99/99 121/121/121
f 121/121/121 120/120/120 122/122/122
f 20/20/20 122/122/122 120/120/120
f 90/90/90 121/121/121 100/100/100
f 122/122/122 100/100/100 121/121/121
f 122/122/122 20/20/20 47/47/47
f 44/44/44 47/47/47 20/20/20
f 47/47/47 44/44/44 48/48/48
f 48/48/48 44/44/44 51/51/51
f 48/48/48 49/49/49 47/47/47
f 49/49/49 122/122/122 47/47/47
f 49/49/49 48/48/48 67/67/67
f 122/122/122 49/49/49 123/123/123
f 100/100/100 122/122/122 123/123/123
f 61/61/61 49/49/49 67/67/67
f 61/61/61 67/67/67 68/68/68
f 69/69/69 123/123/123 49/49/49
f 49/49/49 61/61/61 69/69/69
f 60/60/60 69/69/69 61/61/61
f 60/60/60 61/61/61 62/62/62
f 123/123/123 69/69/69 124/124/124
f 124/124/124 100/100/100 123/123/123
f 69/69/69 60/60/60 30/30/30
f 30/30/30 124/124/124 69/69/69
f 31/31/31 30/30/30 60/60/60
f 30/30/30 31/31/31 32/32/32
f 32/32/32 34/34/34 30/30/30
f 124/124/124 30/30/30 34/34/34
f 34/34/34 32/32/32 35/35/35
f 100/100/100 124/124/124 117/117/117
f 34/34/34 117/117/117 124/124/124
f 117/117/117 92/92/92 100/100/100
f 100/100/100 92/92/92 90/90/90
f 90/90/90 92/92/92 93/93/93
f 92/92/92 117/117/117 94/94/94
f 92/92/92 94/94/94 95/95/95
f 117/117/117 34/34/34 116/116/116
f 116/116/116 94/94/94 117/117/117
f 35/35/35 116/116/116 34/34/34
f 94/94/94 116/116/116 112/112/112
f 116/116/116 35/35/35 115/115/115
f 112/112/112 116/116/116 115/115/115
f 112/112/112 115/115/115 113/113/113
f 112/112/112 113/113/113 114/114/114
f 1/1/1 2/2/2 3/3/3
f 36/36/36 1/1/1 11/11/11
f 1/1/1 7/7/7 11/11/11
f 7/7/7 24/24/24 11/11/11
f 1/1/1 3/3/3 7/7/7
f 24/24/24 7/7/7 5/5/5
f 3/3/3 5/5/5 7/7/7
f 24/24/24 5/5/5 23/23/23
f 24/24/24 23/23/23 27/27/27
f 5/5/5 3/3/3 6/6/6
f 23/23/23 26/26/26 27/27/27
f 27/27/27 26/26/26 58/58/58
f 5/5/5 15/15/15 23/23/23
f 5/5/5 6/6/6 15/15/15
f 26/26/26 23/23/23 25/25/25
f 23/23/23 15/15/15 25/25/25
f 25/25/25 28/28/28 26/26/26
f 26/26/26 28/28/28 63/63/63
f 28/28/28 25/25/25 29/29/29
f 21/21/21 29/29/29 25/25/25
f 25/25/25 15/15/15 21/21/21
f 29/29/29 21/21/21 33/33/33
f 14/14/14 15/15/15 6/6/6
f 14/14/14 21/21/21 15/15/15
f 22/22/22 33/33/33 21/21/21
f 21/21/21 14/14/14 22/22/22
f 33/33/33 22/22/22 104/104/104
f 102/102/102 104/104/104 22/22/22
f 14/14/14 102/102/102 22/22/22
f 104/104/104 102/102/102 105/105/105
f 14/14/14 101/101/101 102/102/102
f 102/102/102 101/101/101 103/103/103
f 6/6/6 12/12/12 14/14/14
f 12/12/12 101/101/101 14/14/14
f 3/3/3 12/12/12 6/6/6
f 12/12/12 84/84/84 101/101/101
f 12/12/12 3/3/3 13/13/13
f 13/13/13 84/84/84 12/12/12
f 13/13/13 74/74/74 84/84/84
f 2/2/2 13/13/13 3/3/3
f 13/13/13 75/75/75 74/74/74
f 2/2/2 75/75/75 13/13/13
f 74/74/74 75/75/75 76/76/76
f 77/77/77 75/75/75 2/2/2
f 75/75/75 77/77/77 78/78/78
f 73/73/73 77/77/77 2/2/2
f 73/73/73 85/85/85 77/77/77
f 77/77/77 85/85/85 86/86/86
f 85/85/85 73/73/73 118/118/118
f 2/2/2 4/4/4 73/73/73
f 4/4/4 118/118/118 73/73/73
f 2/2/2 1/1/1 4/4/4
f 118/118/118 4/4/4 8/8/8
f 9/9/9 4/4/4 1/1/1
f 9/9/9 8/8/8 4/4/4
f 36/36/36 9/9/9 1/1/1
f 8/8/8 9/9/9 10/10/10
f 9/9/9 36/36/36 37/37/37
f 37/37/37 10/10/10 9/9/9
f 37/37/37 36/36/36 39/39/39
f 10/10/10 37/37/37 38/38/38
f 38/38/38 37/37/37 43/43/43
