# Generated from Roblox mesh JSON (v2.00)
# Hello from RBX_Toolbox ;)
o RightUpperArmWrapTarget
v 0.049907 0.513242 0.272192
v -0.098547 0.689579 0.203593
v -0.195630 0.567502 0.381168
v -0.093859 0.363689 0.431104
v -0.098547 0.689579 0.203593
v 0.078911 0.558433 0.032434
v -0.057254 0.717714 -0.019087
v 0.049907 0.513242 0.272192
v -0.057254 0.717714 -0.019087
v 0.030870 0.523040 -0.180695
v -0.098111 0.660664 -0.228262
v 0.078911 0.558433 0.032434
v 0.119015 -0.696833 0.209669
v 0.001672 -0.519863 0.276733
v -0.000284 -0.717714 0.106017
v -0.121240 -0.553804 0.158048
v -0.076865 0.128289 0.424169
v -0.093859 0.363689 0.431104
v -0.290449 0.179408 0.359150
v -0.264476 0.006174 0.352635
v -0.109116 -0.348209 0.328961
v -0.121240 -0.553804 0.158048
v 0.001672 -0.519863 0.276733
v -0.238681 -0.393997 0.185689
v -0.190963 0.526931 -0.394991
v 0.030870 0.523040 -0.180695
v -0.108309 0.381412 -0.362991
v -0.098111 0.660664 -0.228262
v 0.286456 -0.629719 0.198933
v 0.172679 -0.440349 0.272481
v 0.119015 -0.696833 0.209669
v 0.001672 -0.519863 0.276733
v -0.195630 0.567502 0.381168
v -0.282183 0.350569 0.429301
v -0.093859 0.363689 0.431104
v -0.290449 0.179408 0.359150
v 0.073279 -0.259934 0.340979
v 0.001672 -0.519863 0.276733
v 0.172679 -0.440349 0.272481
v -0.109116 -0.348209 0.328961
v -0.290449 0.179408 0.359150
v -0.416821 0.043722 0.243340
v -0.264476 0.006174 0.352635
v -0.384116 -0.099672 0.210585
v -0.025177 -0.072550 0.383792
v -0.076865 0.128289 0.424169
v -0.264476 0.006174 0.352635
v -0.204979 -0.172900 0.354340
v -0.025177 -0.072550 0.383792
v -0.109116 -0.348209 0.328961
v 0.073279 -0.259934 0.340979
v -0.204979 -0.172900 0.354340
v -0.204979 -0.172900 0.354340
v -0.384116 -0.099672 0.210585
v -0.324708 -0.235469 0.196911
v -0.264476 0.006174 0.352635
v -0.204979 -0.172900 0.354340
v -0.238681 -0.393997 0.185689
v -0.109116 -0.348209 0.328961
v -0.324708 -0.235469 0.196911
v -0.143956 -0.539028 -0.015987
v -0.121240 -0.553804 0.158048
v -0.258577 -0.386179 -0.009250
v -0.238681 -0.393997 0.185689
v -0.000284 -0.717714 0.106017
v -0.017524 -0.703658 -0.034647
v -0.409098 -0.110704 -0.017029
v -0.384116 -0.099672 0.210585
v -0.450482 0.000737 -0.003124
v -0.416821 0.043722 0.243340
v -0.339236 -0.055604 -0.198193
v -0.450482 0.000737 -0.003124
v -0.368887 0.067369 -0.183597
v -0.409098 -0.110704 -0.017029
v 0.409928 -0.559085 0.089011
v 0.172679 -0.440349 0.272481
v 0.286456 -0.629719 0.198933
v 0.318375 -0.360100 0.162038
v 0.318375 -0.360100 0.162038
v 0.218940 -0.173790 0.227027
v 0.073279 -0.259934 0.340979
v 0.172679 -0.440349 0.272481
v 0.409928 -0.559085 0.089011
v 0.380669 -0.312402 0.002591
v 0.318375 -0.360100 0.162038
v 0.450482 -0.519126 -0.045591
v -0.342230 -0.231636 -0.000183
v -0.384116 -0.099672 0.210585
v -0.409098 -0.110704 -0.017029
v -0.324708 -0.235469 0.196911
v -0.342230 -0.231636 -0.000183
v -0.238681 -0.393997 0.185689
v -0.324708 -0.235469 0.196911
v -0.258577 -0.386179 -0.009250
v -0.074271 -0.492032 -0.157820
v -0.189867 -0.342111 -0.168525
v -0.070847 -0.272936 -0.277615
v 0.045033 -0.430075 -0.250782
v -0.339236 -0.055604 -0.198193
v -0.192310 -0.099715 -0.286910
v -0.285844 -0.187551 -0.177902
v -0.250607 0.054852 -0.269365
v -0.074271 -0.492032 -0.157820
v -0.258577 -0.386179 -0.009250
v -0.189867 -0.342111 -0.168525
v -0.143956 -0.539028 -0.015987
v 0.083107 0.244371 0.288593
v -0.093859 0.363689 0.431104
v -0.076865 0.128289 0.424169
v 0.049907 0.513242 0.272192
v 0.218940 -0.173790 0.227027
v 0.111144 0.022166 0.268000
v -0.025177 -0.072550 0.383792
v 0.073279 -0.259934 0.340979
v 0.045033 -0.430075 -0.250782
v 0.070467 -0.190901 -0.276417
v 0.194334 -0.361578 -0.254168
v -0.070847 -0.272936 -0.277615
v -0.285844 -0.187551 -0.177902
v -0.070847 -0.272936 -0.277615
v -0.189867 -0.342111 -0.168525
v -0.192310 -0.099715 -0.286910
v -0.409098 -0.110704 -0.017029
v -0.339236 -0.055604 -0.198193
v -0.285844 -0.187551 -0.177902
v -0.342230 -0.231636 -0.000183
v 0.156534 -0.609720 -0.225611
v 0.194334 -0.361578 -0.254168
v 0.284086 -0.555092 -0.231586
v 0.045033 -0.430075 -0.250782
v 0.380669 -0.312402 0.002591
v 0.450482 -0.519126 -0.045591
v 0.324543 -0.316107 -0.154353
v 0.399674 -0.518986 -0.168050
v -0.189867 -0.342111 -0.168525
v -0.342230 -0.231636 -0.000183
v -0.285844 -0.187551 -0.177902
v -0.258577 -0.386179 -0.009250
v 0.045400 -0.663297 -0.151854
v -0.143956 -0.539028 -0.015987
v -0.074271 -0.492032 -0.157820
v -0.017524 -0.703658 -0.034647
v 0.045400 -0.663297 -0.151854
v 0.045033 -0.430075 -0.250782
v 0.156534 -0.609720 -0.225611
v -0.074271 -0.492032 -0.157820
v -0.450482 0.000737 -0.003124
v -0.416821 0.043722 0.243340
v -0.336814 0.056636 -0.077187
v -0.362447 0.130271 0.379905
v 0.111144 0.022166 0.268000
v 0.083107 0.244371 0.288593
v -0.076865 0.128289 0.424169
v -0.025177 -0.072550 0.383792
v -0.250607 0.054852 -0.269365
v -0.046524 -0.008757 -0.283676
v -0.192310 -0.099715 -0.286910
v -0.092715 0.177634 -0.320883
v -0.070847 -0.272936 -0.277615
v -0.046524 -0.008757 -0.283676
v 0.070467 -0.190901 -0.276417
v -0.192310 -0.099715 -0.286910
v 0.324543 -0.316107 -0.154353
v 0.284086 -0.555092 -0.231586
v 0.194334 -0.361578 -0.254168
v 0.399674 -0.518986 -0.168050
v -0.368887 0.067369 -0.183597
v -0.250607 0.054852 -0.269365
v -0.339236 -0.055604 -0.198193
v -0.264648 0.203203 -0.371599
v 0.218940 -0.173790 0.227027
v 0.380669 -0.312402 0.002591
v 0.275191 -0.123277 0.044926
v 0.318375 -0.360100 0.162038
v 0.111144 0.022166 0.268000
v 0.275191 -0.123277 0.044926
v 0.168033 0.082606 0.065690
v 0.218940 -0.173790 0.227027
v 0.216358 -0.134428 -0.160423
v 0.194334 -0.361578 -0.254168
v 0.070467 -0.190901 -0.276417
v 0.324543 -0.316107 -0.154353
v 0.102087 0.056393 -0.163769
v 0.070467 -0.190901 -0.276417
v -0.046524 -0.008757 -0.283676
v 0.216358 -0.134428 -0.160423
v 0.049907 0.513242 0.272192
v 0.138187 0.312384 0.057133
v 0.078911 0.558433 0.032434
v 0.083107 0.244371 0.288593
v 0.102087 0.056393 -0.163769
v 0.275191 -0.123277 0.044926
v 0.216358 -0.134428 -0.160423
v 0.168033 0.082606 0.065690
v 0.216358 -0.134428 -0.160423
v 0.380669 -0.312402 0.002591
v 0.324543 -0.316107 -0.154353
v 0.275191 -0.123277 0.044926
v 0.083107 0.244371 0.288593
v 0.168033 0.082606 0.065690
v 0.138187 0.312384 0.057133
v 0.111144 0.022166 0.268000
v 0.030870 0.523040 -0.180695
v 0.138187 0.312384 0.057133
v 0.073868 0.274184 -0.179638
v 0.078911 0.558433 0.032434
v -0.092715 0.177634 -0.320883
v 0.102087 0.056393 -0.163769
v -0.046524 -0.008757 -0.283676
v 0.073868 0.274184 -0.179638
v -0.092715 0.177634 -0.320883
v -0.108309 0.381412 -0.362991
v 0.073868 0.274184 -0.179638
v 0.030870 0.523040 -0.180695
v -0.450482 0.000737 -0.003124
v -0.336814 0.056636 -0.077187
v -0.368887 0.067369 -0.183597
v -0.320377 0.158906 -0.396873
v -0.108309 0.381412 -0.362991
v -0.264648 0.203203 -0.371599
v -0.261710 0.339360 -0.431104
v -0.190963 0.526931 -0.394991
v 0.073868 0.274184 -0.179638
v 0.168033 0.082606 0.065690
v 0.102087 0.056393 -0.163769
v 0.138187 0.312384 0.057133
v -0.264648 0.203203 -0.371599
v -0.092715 0.177634 -0.320883
v -0.250607 0.054852 -0.269365
v -0.108309 0.381412 -0.362991
v -0.282183 0.350569 0.429301
v -0.362447 0.130271 0.379905
v -0.290449 0.179408 0.359150
v -0.416821 0.043722 0.243340
v -0.368887 0.067369 -0.183597
v -0.320377 0.158906 -0.396873
v -0.264648 0.203203 -0.371599
v -0.261710 0.339360 -0.431104
vt 2.682487 3.511224
vt 2.750740 3.511224
vt 2.750740 3.579725
vt 2.682487 3.579725
vt 2.750740 3.511224
vt 2.682487 3.462179
vt 2.750740 3.462179
vt 2.682487 3.511224
vt 2.750740 3.462179
vt 2.682487 3.414271
vt 2.750740 3.401921
vt 2.682487 3.462179
vt 2.249260 3.651093
vt 2.325031 3.651093
vt 2.249260 3.682632
vt 2.325032 3.682632
vt 2.616898 3.579725
vt 2.682487 3.579725
vt 2.682487 3.651093
vt 2.616898 3.651093
vt 2.426604 3.651094
vt 2.325032 3.682632
vt 2.325031 3.651093
vt 2.426604 3.682632
vt 2.750740 3.343375
vt 2.682487 3.414271
vt 2.682487 3.344108
vt 2.750740 3.401921
vt 2.249260 3.579725
vt 2.325032 3.579725
vt 2.249260 3.651093
vt 2.325031 3.651093
vt 2.750740 3.579725
vt 2.750740 3.651093
vt 2.682487 3.579725
vt 2.682487 3.651093
vt 2.426604 3.579725
vt 2.325031 3.651093
vt 2.325032 3.579725
vt 2.426604 3.651094
vt 2.682487 3.651093
vt 2.682487 3.682776
vt 2.616898 3.651093
vt 2.616898 3.682749
vt 2.535539 3.579725
vt 2.616898 3.579725
vt 2.616898 3.651093
vt 2.535539 3.651093
vt 2.535539 3.579725
vt 2.426604 3.651094
vt 2.426604 3.579725
vt 2.535539 3.651093
vt 2.535539 3.651093
vt 2.616898 3.682749
vt 2.535539 3.682632
vt 2.616898 3.651093
vt 2.535539 3.651093
vt 2.426604 3.682632
vt 2.426604 3.651094
vt 2.535539 3.682632
vt 2.325031 3.714510
vt 2.325032 3.682632
vt 2.426604 3.714510
vt 2.426604 3.682632
vt 2.249260 3.682632
vt 2.249260 3.714510
vt 2.616898 3.714510
vt 2.616898 3.682749
vt 2.682487 3.714511
vt 2.682487 3.682776
vt 2.616898 3.241270
vt 2.682487 3.209337
vt 2.682487 3.241285
vt 2.616898 3.209337
vt 2.249260 3.511224
vt 2.325032 3.579725
vt 2.249260 3.579725
vt 2.325032 3.511224
vt 2.325032 3.511224
vt 2.426604 3.511224
vt 2.426604 3.579725
vt 2.325032 3.579725
vt 2.249260 3.511224
vt 2.325032 3.462179
vt 2.325032 3.511224
vt 2.249260 3.462179
vt 2.535539 3.714510
vt 2.616898 3.682749
vt 2.616898 3.714510
vt 2.535539 3.682632
vt 2.535539 3.714510
vt 2.426604 3.682632
vt 2.535539 3.682632
vt 2.426604 3.714510
vt 2.325032 3.241194
vt 2.426604 3.241194
vt 2.426604 3.273265
vt 2.325032 3.273265
vt 2.616898 3.241270
vt 2.535539 3.273264
vt 2.535539 3.241194
vt 2.616898 3.273265
vt 2.325032 3.241194
vt 2.426604 3.209337
vt 2.426604 3.241194
vt 2.325032 3.209337
vt 2.616898 3.511224
vt 2.682487 3.579725
vt 2.616898 3.579725
vt 2.682487 3.511224
vt 2.426604 3.511224
vt 2.535539 3.511224
vt 2.535539 3.579725
vt 2.426604 3.579725
vt 2.325032 3.273265
vt 2.426604 3.344108
vt 2.325031 3.344108
vt 2.426604 3.273265
vt 2.535539 3.241194
vt 2.426604 3.273265
vt 2.426604 3.241194
vt 2.535539 3.273264
vt 2.616898 3.209337
vt 2.616898 3.241270
vt 2.535539 3.241194
vt 2.535539 3.209337
vt 2.249260 3.273265
vt 2.325031 3.344108
vt 2.249260 3.344108
vt 2.325032 3.273265
vt 2.325032 3.462179
vt 2.249260 3.462179
vt 2.325032 3.414270
vt 2.249260 3.414270
vt 2.426604 3.241194
vt 2.535539 3.209337
vt 2.535539 3.241194
vt 2.426604 3.209337
vt 2.249260 3.241194
vt 2.325032 3.209337
vt 2.325032 3.241194
vt 2.249260 3.209337
vt 2.249260 3.241194
vt 2.325032 3.273265
vt 2.249260 3.273265
vt 2.325032 3.241194
vt 2.682487 3.714511
vt 2.682487 3.682776
vt 2.750740 3.714511
vt 2.750740 3.682803
vt 2.535539 3.511224
vt 2.616898 3.511224
vt 2.616898 3.579725
vt 2.535539 3.579725
vt 2.616898 3.273265
vt 2.535539 3.344108
vt 2.535539 3.273264
vt 2.616898 3.344108
vt 2.426604 3.273265
vt 2.535539 3.344108
vt 2.426604 3.344108
vt 2.535539 3.273264
vt 2.325032 3.414270
vt 2.249260 3.344108
vt 2.325031 3.344108
vt 2.249260 3.414270
vt 2.682487 3.241285
vt 2.616898 3.273265
vt 2.616898 3.241270
vt 2.682487 3.273265
vt 2.426604 3.511224
vt 2.325032 3.462179
vt 2.426604 3.462179
vt 2.325032 3.511224
vt 2.535539 3.511224
vt 2.426604 3.462179
vt 2.535539 3.462179
vt 2.426604 3.511224
vt 2.426604 3.414270
vt 2.325031 3.344108
vt 2.426604 3.344108
vt 2.325032 3.414270
vt 2.535539 3.414271
vt 2.426604 3.344108
vt 2.535539 3.344108
vt 2.426604 3.414270
vt 2.682487 3.511224
vt 2.616898 3.462179
vt 2.682487 3.462179
vt 2.616898 3.511224
vt 2.535539 3.414271
vt 2.426604 3.462179
vt 2.426604 3.414270
vt 2.535539 3.462179
vt 2.426604 3.414270
vt 2.325032 3.462179
vt 2.325032 3.414270
vt 2.426604 3.462179
vt 2.616898 3.511224
vt 2.535539 3.462179
vt 2.616898 3.462179
vt 2.535539 3.511224
vt 2.682487 3.414271
vt 2.616898 3.462179
vt 2.616898 3.414270
vt 2.682487 3.462179
vt 2.616898 3.344108
vt 2.535539 3.414271
vt 2.535539 3.344108
vt 2.616898 3.414270
vt 2.616898 3.344108
vt 2.682487 3.344108
vt 2.616898 3.414270
vt 2.682487 3.414271
vt 2.682487 3.209337
vt 2.750740 3.209337
vt 2.682487 3.241285
vt 2.750740 3.241301
vt 2.682487 3.344108
vt 2.682487 3.273265
vt 2.750740 3.273265
vt 2.750740 3.343375
vt 2.616898 3.414270
vt 2.535539 3.462179
vt 2.535539 3.414271
vt 2.616898 3.462179
vt 2.682487 3.273265
vt 2.616898 3.344108
vt 2.616898 3.273265
vt 2.682487 3.344108
vt 2.750740 3.651093
vt 2.750740 3.682803
vt 2.682487 3.651093
vt 2.682487 3.682776
vt 2.682487 3.241285
vt 2.750740 3.241301
vt 2.682487 3.273265
vt 2.750740 3.273265
vn 0.440006 0.518284 0.733333
vn 0.440006 0.518284 0.733333
vn 0.440006 0.518284 0.733333
vn 0.440006 0.518284 0.733333
vn 0.705765 0.675239 0.214354
vn 0.705765 0.675239 0.214354
vn 0.705765 0.675239 0.214354
vn 0.705765 0.675239 0.214354
vn 0.760049 0.582779 -0.287567
vn 0.760049 0.582779 -0.287567
vn 0.760049 0.582779 -0.287567
vn 0.760049 0.582779 -0.287567
vn -0.482123 -0.569602 0.665666
vn -0.482123 -0.569602 0.665666
vn -0.482123 -0.569602 0.665666
vn -0.482123 -0.569602 0.665666
vn -0.304473 -0.063298 0.950415
vn -0.304473 -0.063298 0.950415
vn -0.304473 -0.063298 0.950415
vn -0.304473 -0.063298 0.950415
vn -0.527722 -0.524385 0.668229
vn -0.527722 -0.524385 0.668229
vn -0.527722 -0.524385 0.668229
vn -0.527722 -0.524385 0.668229
vn 0.664457 0.304916 -0.682293
vn 0.664457 0.304916 -0.682293
vn 0.664457 0.304916 -0.682293
vn 0.664457 0.304916 -0.682293
vn 0.157284 -0.265832 0.951102
vn 0.157284 -0.265832 0.951102
vn 0.157284 -0.265832 0.951102
vn 0.157284 -0.265832 0.951102
vn -0.005712 -0.055252 0.998456
vn -0.005712 -0.055252 0.998456
vn -0.005712 -0.055252 0.998456
vn -0.005712 -0.055252 0.998456
vn 0.105147 -0.265820 0.958271
vn 0.105147 -0.265820 0.958271
vn 0.105147 -0.265820 0.958271
vn 0.105147 -0.265820 0.958271
vn -0.603480 -0.207333 0.769951
vn -0.603480 -0.207333 0.769951
vn -0.603480 -0.207333 0.769951
vn -0.603480 -0.207333 0.769951
vn -0.176195 -0.150583 0.972769
vn -0.176195 -0.150583 0.972769
vn -0.176195 -0.150583 0.972769
vn -0.176195 -0.150583 0.972769
vn -0.012721 -0.191344 0.981441
vn -0.012721 -0.191344 0.981441
vn -0.012721 -0.191344 0.981441
vn -0.012721 -0.191344 0.981441
vn -0.667790 -0.278416 0.690320
vn -0.667790 -0.278416 0.690320
vn -0.667790 -0.278416 0.690320
vn -0.667790 -0.278416 0.690320
vn -0.622842 -0.412253 0.664917
vn -0.622842 -0.412253 0.664917
vn -0.622842 -0.412253 0.664917
vn -0.622842 -0.412253 0.664917
vn -0.796242 -0.602857 0.050611
vn -0.796190 -0.602935 0.050511
vn -0.798809 -0.599013 0.055571
vn -0.798809 -0.599013 0.055571
vn -0.793351 -0.607091 0.045106
vn -0.793351 -0.607091 0.045106
vn -0.941516 -0.301342 0.150803
vn -0.941516 -0.301342 0.150803
vn -0.941516 -0.301342 0.150803
vn -0.941516 -0.301342 0.150803
vn -0.874039 -0.211691 -0.437313
vn -0.874039 -0.211691 -0.437313
vn -0.874039 -0.211691 -0.437313
vn -0.874039 -0.211691 -0.437313
vn 0.621824 0.033455 0.782442
vn 0.621824 0.033455 0.782442
vn 0.621824 0.033455 0.782442
vn 0.621824 0.033455 0.782442
vn 0.598040 0.032765 0.800797
vn 0.598040 0.032765 0.800797
vn 0.598040 0.032765 0.800797
vn 0.598040 0.032765 0.800797
vn 0.891781 0.240122 0.383495
vn 0.891781 0.240122 0.383495
vn 0.891781 0.240122 0.383495
vn 0.891781 0.240122 0.383495
vn -0.893584 -0.438322 0.096860
vn -0.893584 -0.438322 0.096860
vn -0.893584 -0.438322 0.096860
vn -0.893584 -0.438322 0.096860
vn -0.875173 -0.478821 0.069301
vn -0.875173 -0.478821 0.069301
vn -0.875173 -0.478821 0.069301
vn -0.875173 -0.478821 0.069301
vn -0.436982 -0.426246 -0.792061
vn -0.436982 -0.426246 -0.792061
vn -0.436982 -0.426246 -0.792061
vn -0.436982 -0.426246 -0.792061
vn -0.552064 -0.222906 -0.803454
vn -0.552064 -0.222906 -0.803454
vn -0.552064 -0.222906 -0.803454
vn -0.552064 -0.222906 -0.803454
vn -0.694820 -0.534627 -0.481039
vn -0.694820 -0.534627 -0.481039
vn -0.694820 -0.534627 -0.481039
vn -0.694820 -0.534627 -0.481039
vn 0.657185 0.079484 0.749526
vn 0.657185 0.079484 0.749526
vn 0.657185 0.079484 0.749526
vn 0.657185 0.079484 0.749526
vn 0.573817 0.132076 0.808264
vn 0.573817 0.132076 0.808264
vn 0.573817 0.132076 0.808264
vn 0.573817 0.132076 0.808264
vn 0.050401 -0.111735 -0.992459
vn 0.050401 -0.111735 -0.992459
vn 0.050401 -0.111735 -0.992459
vn 0.050401 -0.111735 -0.992459
vn -0.509322 -0.381805 -0.771243
vn -0.509322 -0.381805 -0.771243
vn -0.509322 -0.381805 -0.771243
vn -0.509322 -0.381805 -0.771243
vn -0.801761 -0.440589 -0.403809
vn -0.801761 -0.440589 -0.403809
vn -0.801761 -0.440589 -0.403809
vn -0.801761 -0.440589 -0.403809
vn 0.018498 -0.117091 -0.992949
vn 0.018498 -0.117091 -0.992949
vn 0.018498 -0.117091 -0.992949
vn 0.018498 -0.117091 -0.992949
vn 0.870168 0.358923 -0.337611
vn 0.870168 0.358923 -0.337611
vn 0.870168 0.358923 -0.337611
vn 0.870168 0.358923 -0.337611
vn -0.787563 -0.458094 -0.412183
vn -0.787563 -0.458094 -0.412183
vn -0.787563 -0.458094 -0.412183
vn -0.787563 -0.458094 -0.412183
vn -0.697107 -0.491009 -0.522447
vn -0.697107 -0.491009 -0.522447
vn -0.697107 -0.491009 -0.522447
vn -0.697107 -0.491009 -0.522447
vn -0.425178 -0.354011 -0.833007
vn -0.425178 -0.354011 -0.833007
vn -0.425178 -0.354011 -0.833007
vn -0.425178 -0.354011 -0.833007
vn -0.614968 0.779040 -0.122116
vn -0.614968 0.779040 -0.122116
vn -0.614968 0.779040 -0.122116
vn -0.614968 0.779040 -0.122116
vn 0.642476 0.010648 0.766232
vn 0.642476 0.010648 0.766232
vn 0.642476 0.010648 0.766232
vn 0.642476 0.010648 0.766232
vn -0.096576 -0.086777 -0.991536
vn -0.096576 -0.086777 -0.991536
vn -0.096576 -0.086777 -0.991536
vn -0.096576 -0.086777 -0.991536
vn 0.030952 -0.025775 -0.999188
vn 0.030952 -0.025775 -0.999188
vn 0.030952 -0.025775 -0.999188
vn 0.030952 -0.025775 -0.999188
vn 0.499327 0.188744 -0.845605
vn 0.499327 0.188744 -0.845605
vn 0.499327 0.188744 -0.845605
vn 0.499327 0.188744 -0.845605
vn -0.576267 -0.333758 -0.746003
vn -0.576267 -0.333758 -0.746003
vn -0.576267 -0.333758 -0.746003
vn -0.576267 -0.333758 -0.746003
vn 0.849042 0.350368 0.395436
vn 0.849042 0.350368 0.395436
vn 0.849042 0.350368 0.395436
vn 0.849042 0.350368 0.395436
vn 0.843801 0.395671 0.362552
vn 0.843801 0.395671 0.362552
vn 0.843801 0.395671 0.362552
vn 0.843801 0.395671 0.362552
vn 0.524531 0.280845 -0.803737
vn 0.524531 0.280845 -0.803737
vn 0.524531 0.280845 -0.803737
vn 0.524531 0.280845 -0.803737
vn 0.518455 0.298695 -0.801240
vn 0.518455 0.298695 -0.801240
vn 0.518455 0.298695 -0.801240
vn 0.518455 0.298695 -0.801240
vn 0.957784 0.189284 0.216381
vn 0.957784 0.189284 0.216381
vn 0.957784 0.189284 0.216381
vn 0.957784 0.189284 0.216381
vn 0.832960 0.477232 -0.280049
vn 0.832960 0.477232 -0.280049
vn 0.832960 0.477232 -0.280049
vn 0.832960 0.477232 -0.280049
vn 0.819533 0.499665 -0.280535
vn 0.819533 0.499665 -0.280535
vn 0.819533 0.499665 -0.280535
vn 0.819533 0.499665 -0.280535
vn 0.953142 0.114607 0.279975
vn 0.953142 0.114607 0.279975
vn 0.953142 0.114607 0.279975
vn 0.953142 0.114607 0.279975
vn 0.946637 0.181776 -0.266151
vn 0.946637 0.181776 -0.266151
vn 0.946637 0.181776 -0.266151
vn 0.946637 0.181776 -0.266151
vn 0.633360 0.014998 -0.773712
vn 0.633360 0.014998 -0.773712
vn 0.633360 0.014998 -0.773712
vn 0.633360 0.014998 -0.773712
vn 0.716790 0.026337 -0.696792
vn 0.716790 0.026337 -0.696792
vn 0.716790 0.026337 -0.696792
vn 0.716790 0.026337 -0.696792
vn -0.419781 0.881680 0.215464
vn -0.419781 0.881680 0.215464
vn -0.419781 0.881680 0.215464
vn -0.419781 0.881680 0.215464
vn 0.437441 -0.163461 -0.884266
vn 0.437441 -0.163461 -0.884266
vn 0.437441 -0.163461 -0.884266
vn 0.437441 -0.163461 -0.884266
vn 0.953465 0.108338 -0.281367
vn 0.953465 0.108338 -0.281367
vn 0.953465 0.108338 -0.281367
vn 0.953465 0.108338 -0.281367
vn 0.215596 -0.354775 -0.909754
vn 0.215596 -0.354775 -0.909754
vn 0.215596 -0.354775 -0.909754
vn 0.215596 -0.354775 -0.909754
vn 0.569297 -0.594158 0.568223
vn 0.569297 -0.594158 0.568223
vn 0.569297 -0.594158 0.568223
vn 0.569297 -0.594158 0.568223
vn 0.674755 -0.624216 -0.393776
vn 0.674755 -0.624216 -0.393776
vn 0.674755 -0.624216 -0.393776
vn 0.674755 -0.624216 -0.393776
f 1/1/1 2/2/2 3/3/3
f 3/3/3 4/4/4 1/1/1
f 5/5/5 6/6/6 7/7/7
f 6/6/6 5/5/5 8/8/8
f 9/9/9 10/10/10 11/11/11
f 10/10/10 9/9/9 12/12/12
f 13/13/13 14/14/14 15/15/15
f 14/14/14 16/16/16 15/15/15
f 17/17/17 18/18/18 19/19/19
f 17/17/17 19/19/19 20/20/20
f 21/21/21 22/22/22 23/23/23
f 22/22/22 21/21/21 24/24/24
f 25/25/25 26/26/26 27/27/27
f 26/26/26 25/25/25 28/28/28
f 29/29/29 30/30/30 31/31/31
f 30/30/30 32/32/32 31/31/31
f 33/33/33 34/34/34 35/35/35
f 34/34/34 36/36/36 35/35/35
f 37/37/37 38/38/38 39/39/39
f 38/38/38 37/37/37 40/40/40
f 41/41/41 42/42/42 43/43/43
f 43/43/43 42/42/42 44/44/44
f 45/45/45 46/46/46 47/47/47
f 45/45/45 47/47/47 48/48/48
f 49/49/49 50/50/50 51/51/51
f 50/50/50 49/49/49 52/52/52
f 53/53/53 54/54/54 55/55/55
f 54/54/54 53/53/53 56/56/56
f 57/57/57 58/58/58 59/59/59
f 58/58/58 57/57/57 60/60/60
f 61/61/61 62/62/62 63/63/63
f 63/63/63 62/62/62 64/64/64
f 61/61/61 65/65/65 62/62/62
f 65/65/65 61/61/61 66/66/66
f 67/67/67 68/68/68 69/69/69
f 68/68/68 70/70/70 69/69/69
f 71/71/71 72/72/72 73/73/73
f 72/72/72 71/71/71 74/74/74
f 75/75/75 76/76/76 77/77/77
f 76/76/76 75/75/75 78/78/78
f 79/79/79 80/80/80 81/81/81
f 79/79/79 81/81/81 82/82/82
f 83/83/83 84/84/84 85/85/85
f 84/84/84 83/83/83 86/86/86
f 87/87/87 88/88/88 89/89/89
f 88/88/88 87/87/87 90/90/90
f 91/91/91 92/92/92 93/93/93
f 92/92/92 91/91/91 94/94/94
f 95/95/95 96/96/96 97/97/97
f 95/95/95 97/97/97 98/98/98
f 99/99/99 100/100/100 101/101/101
f 100/100/100 99/99/99 102/102/102
f 103/103/103 104/104/104 105/105/105
f 104/104/104 103/103/103 106/106/106
f 107/107/107 108/108/108 109/109/109
f 108/108/108 107/107/107 110/110/110
f 111/111/111 112/112/112 113/113/113
f 111/111/111 113/113/113 114/114/114
f 115/115/115 116/116/116 117/117/117
f 116/116/116 115/115/115 118/118/118
f 119/119/119 120/120/120 121/121/121
f 120/120/120 119/119/119 122/122/122
f 123/123/123 124/124/124 125/125/125
f 125/125/125 126/126/126 123/123/123
f 127/127/127 128/128/128 129/129/129
f 128/128/128 127/127/127 130/130/130
f 131/131/131 132/132/132 133/133/133
f 134/134/134 133/133/133 132/132/132
f 135/135/135 136/136/136 137/137/137
f 136/136/136 135/135/135 138/138/138
f 139/139/139 140/140/140 141/141/141
f 140/140/140 139/139/139 142/142/142
f 143/143/143 144/144/144 145/145/145
f 144/144/144 143/143/143 146/146/146
f 147/147/147 148/148/148 149/149/149
f 150/150/150 149/149/149 148/148/148
f 151/151/151 152/152/152 153/153/153
f 151/151/151 153/153/153 154/154/154
f 155/155/155 156/156/156 157/157/157
f 156/156/156 155/155/155 158/158/158
f 159/159/159 160/160/160 161/161/161
f 160/160/160 159/159/159 162/162/162
f 163/163/163 164/164/164 165/165/165
f 164/164/164 163/163/163 166/166/166
f 167/167/167 168/168/168 169/169/169
f 168/168/168 167/167/167 170/170/170
f 171/171/171 172/172/172 173/173/173
f 172/172/172 171/171/171 174/174/174
f 175/175/175 176/176/176 177/177/177
f 176/176/176 175/175/175 178/178/178
f 179/179/179 180/180/180 181/181/181
f 180/180/180 179/179/179 182/182/182
f 183/183/183 184/184/184 185/185/185
f 184/184/184 183/183/183 186/186/186
f 187/187/187 188/188/188 189/189/189
f 188/188/188 187/187/187 190/190/190
f 191/191/191 192/192/192 193/193/193
f 192/192/192 191/191/191 194/194/194
f 195/195/195 196/196/196 197/197/197
f 196/196/196 195/195/195 198/198/198
f 199/199/199 200/200/200 201/201/201
f 200/200/200 199/199/199 202/202/202
f 203/203/203 204/204/204 205/205/205
f 204/204/204 203/203/203 206/206/206
f 207/207/207 208/208/208 209/209/209
f 208/208/208 207/207/207 210/210/210
f 211/211/211 212/212/212 213/213/213
f 213/213/213 212/212/212 214/214/214
f 215/215/215 216/216/216 217/217/217
f 216/216/216 218/218/218 217/217/217
f 219/219/219 220/220/220 221/221/221
f 221/221/221 222/222/222 219/219/219
f 223/223/223 224/224/224 225/225/225
f 224/224/224 223/223/223 226/226/226
f 227/227/227 228/228/228 229/229/229
f 227/227/227 230/230/230 228/228/228
f 231/231/231 232/232/232 233/233/233
f 234/234/234 233/233/233 232/232/232
f 235/235/235 236/236/236 237/237/237
f 236/236/236 238/238/238 237/237/237
