# Generated from Roblox mesh JSON (v4.01)
# Hello from RBX_Toolbox ;)
o RightLowerLeg
v -0.137732 -0.604176 -0.099210
v -0.068011 -0.843329 -0.280233
v -0.118546 -0.905553 -0.214220
v -0.109453 -0.584938 -0.179134
v -0.132856 -0.885306 -0.025798
v -0.156535 -0.316848 -0.045562
v -0.159124 -0.617369 0.006417
v -0.116194 -0.304587 -0.138730
v -0.153554 -0.030117 -0.134573
v -0.035128 -0.296782 -0.199801
v -0.219022 -0.042228 -0.021932
v -0.038577 -0.574433 -0.219592
v -0.014241 -0.826486 -0.292446
v -0.068011 -0.843329 -0.280233
v -0.014241 -0.826486 -0.292446
v 0.012529 -1.033858 -0.125029
v -0.132856 -0.885306 -0.025798
v -0.118546 -0.905553 -0.214220
v 0.012529 -1.033858 -0.125029
v 0.012529 -1.033858 -0.125029
v 0.044180 -0.574712 -0.220423
v -0.014241 -0.826486 -0.292446
v -0.038577 -0.574433 -0.219592
v -0.035128 -0.296782 -0.199801
v -0.036690 -0.017650 -0.197625
v 0.065733 -0.298529 -0.203546
v -0.036690 -0.017650 -0.197625
v -0.094601 -0.873463 0.078278
v 0.012529 -1.033858 -0.125029
v -0.169230 -0.329642 0.055308
v -0.118857 -0.622600 0.096503
v -0.130237 -0.337930 0.141838
v -0.224981 -0.048229 0.104153
v -0.298142 0.232208 -0.024121
v -0.170599 -0.048120 0.209923
v -0.063977 -0.043536 0.273682
v -0.039619 -0.866695 0.128646
v -0.039619 -0.866695 0.128646
v -0.094601 -0.873463 0.078278
v 0.012529 -1.033858 -0.125029
v -0.042530 -0.623392 0.135814
v 0.043532 -0.624896 0.130839
v -0.047152 -0.340486 0.189202
v 0.050422 -0.339168 0.188114
v -0.293195 0.242320 0.132722
v -0.298079 0.773493 -0.140112
v -0.213937 0.488081 -0.190179
v -0.307183 0.510309 -0.058992
v -0.204807 0.231635 -0.156692
v -0.218288 0.745475 -0.261685
v -0.298079 0.773493 -0.140112
v -0.315418 0.812090 -0.004570
v -0.051889 1.033858 -0.171153
v -0.218288 0.745475 -0.261685
v -0.051889 1.033858 -0.171153
v -0.315418 0.812090 -0.004570
v -0.261885 0.851063 0.102898
v -0.051889 1.033858 -0.171153
v -0.106988 0.737803 -0.330553
v -0.076288 0.485227 -0.261865
v -0.056071 0.240511 -0.223925
v -0.076288 0.485227 -0.261865
v 0.098675 0.254367 -0.226203
v -0.056071 0.240511 -0.223925
v -0.106988 0.737803 -0.330553
v 0.008193 0.757749 -0.327428
v 0.008193 0.757749 -0.327428
v -0.106988 0.737803 -0.330553
v -0.051889 1.033858 -0.171153
v -0.106988 0.737803 -0.330553
v -0.051889 1.033858 -0.171153
v -0.304279 0.539952 0.096500
v -0.226947 0.253753 0.263820
v -0.257081 0.570814 0.236158
v -0.085938 0.269793 0.330553
v -0.261885 0.851063 0.102898
v -0.116177 0.596102 0.313981
v -0.158731 0.887997 0.173236
v 0.064273 -0.040832 0.273762
v 0.042778 0.608405 0.295884
v -0.158731 0.887997 0.173236
v -0.051889 1.033858 -0.171153
v -0.030900 0.908145 0.170854
v -0.051889 1.033858 -0.171153
v 0.090642 -0.014261 -0.204256
v 0.044184 -0.826170 -0.284508
v 0.012529 -1.033858 -0.125029
v 0.111332 -0.586474 -0.168030
v 0.104163 -0.836414 -0.256490
v 0.012529 -1.033858 -0.125029
v 0.146128 -0.865077 -0.206388
v 0.012529 -1.033858 -0.125029
v 0.157905 -0.917080 -0.134460
v 0.109288 -0.885425 0.038086
v 0.012529 -1.033858 -0.125029
v 0.147744 -0.307633 -0.143963
v 0.146128 -0.865077 -0.206388
v 0.157905 -0.917080 -0.134460
v 0.012529 -1.033858 -0.125029
v 0.154623 -0.603991 -0.093576
v 0.166865 -0.620773 -0.010390
v 0.194297 -0.317821 -0.051648
v 0.250151 -0.028232 -0.022878
v 0.194299 -0.018928 -0.135852
v 0.032604 -0.871776 0.107957
v 0.012529 -1.033858 -0.125029
v 0.032604 -0.871776 0.107957
v 0.012529 -1.033858 -0.125029
v 0.130374 -0.628409 0.087891
v 0.032604 -0.871776 0.107957
v 0.043532 -0.624896 0.130839
v 0.050422 -0.339168 0.188114
v 0.138839 -0.335239 0.138914
v 0.064273 -0.040832 0.273762
v 0.172164 -0.039635 0.210350
v 0.188525 -0.326994 0.049642
v 0.233948 -0.034806 0.102950
v 0.067755 0.506139 -0.258020
v 0.193703 0.545809 -0.171404
v 0.103506 0.804632 -0.243724
v -0.051889 1.033858 -0.171153
v 0.103506 0.804632 -0.243724
v 0.156088 0.858809 -0.116299
v -0.051889 1.033858 -0.171153
v 0.159473 0.904058 0.015178
v -0.051889 1.033858 -0.171153
v 0.230504 0.268284 -0.142713
v 0.315418 0.274628 -0.005180
v 0.278307 0.589892 -0.034041
v 0.156088 0.858809 -0.116299
v 0.159473 0.904058 0.015178
v 0.084070 0.917917 0.118457
v -0.051889 1.033858 -0.171153
v 0.073968 0.279023 0.321852
v 0.220915 0.278750 0.282044
v 0.190150 0.628096 0.257601
v 0.073968 0.279023 0.321852
v 0.042778 0.608405 0.295884
v -0.030900 0.908145 0.170854
v -0.051889 1.033858 -0.171153
v 0.273035 0.618764 0.124917
v 0.307434 0.276765 0.154695
vt 0.732904 0.063781
vt 0.754025 0.033487
vt 0.743818 0.026545
vt 0.743103 0.065489
vt 0.721746 0.030582
vt 0.727828 0.099321
vt 0.720044 0.062938
vt 0.740206 0.100175
vt 0.740548 0.134825
vt 0.752447 0.100219
vt 0.724790 0.133835
vt 0.752818 0.066677
vt 0.760419 0.035988
vt 0.754025 0.033487
vt 0.760419 0.035988
vt 0.754025 0.033487
vt 0.721746 0.030582
vt 0.743818 0.026545
vt 0.721746 0.030582
vt 0.743818 0.026545
vt 0.559239 0.222920
vt 0.547762 0.253412
vt 0.549269 0.222371
vt 0.549137 0.188877
vt 0.546836 0.153566
vt 0.561156 0.188666
vt 0.756498 0.134655
vt 0.708682 0.032079
vt 0.708682 0.032079
vt 0.715345 0.097942
vt 0.708348 0.062224
vt 0.703771 0.096246
vt 0.709553 0.132365
vt 0.722032 0.167982
vt 0.695269 0.130520
vt 0.680504 0.127610
vt 0.699848 0.032428
vt 0.699848 0.032428
vt 0.708682 0.032079
vt 0.699848 0.032428
vt 0.698201 0.061180
vt 0.687996 0.059513
vt 0.692330 0.093959
vt 0.681117 0.090829
vt 0.704159 0.166906
vt 0.723185 0.234982
vt 0.740550 0.200982
vt 0.721342 0.201633
vt 0.740840 0.168476
vt 0.741356 0.234027
vt 0.723185 0.234982
vt 0.705526 0.235948
vt 0.723185 0.234982
vt 0.741356 0.234027
vt 0.741356 0.234027
vt 0.705526 0.235948
vt 0.689817 0.236698
vt 0.705526 0.235948
vt 0.757156 0.233569
vt 0.758943 0.201214
vt 0.760242 0.168545
vt 0.545749 0.085030
vt 0.562169 0.118382
vt 0.543844 0.118848
vt 0.549535 0.051798
vt 0.563662 0.051594
vt 0.563662 0.051594
vt 0.549535 0.051798
vt 0.563662 0.051594
vt 0.757156 0.233569
vt 0.757156 0.233569
vt 0.702671 0.201655
vt 0.687365 0.165340
vt 0.685136 0.201239
vt 0.669185 0.163019
vt 0.689817 0.236698
vt 0.666319 0.200750
vt 0.673759 0.238061
vt 0.665870 0.122587
vt 0.647248 0.200898
vt 0.673759 0.238061
vt 0.689817 0.236698
vt 0.658199 0.240539
vt 0.673759 0.238061
vt 0.562002 0.152837
vt 0.554655 0.254021
vt 0.547762 0.253412
vt 0.569578 0.224138
vt 0.562322 0.255501
vt 0.554655 0.254021
vt 0.570060 0.258582
vt 0.562322 0.255501
vt 0.579189 0.264073
vt 0.599920 0.259202
vt 0.579189 0.264073
vt 0.573341 0.189481
vt 0.570060 0.258582
vt 0.579189 0.264073
vt 0.570060 0.258582
vt 0.580070 0.225881
vt 0.590221 0.227507
vt 0.585840 0.190798
vt 0.592087 0.156021
vt 0.576896 0.153862
vt 0.690920 0.031114
vt 0.690920 0.031114
vt 0.612244 0.258037
vt 0.599920 0.259202
vt 0.602754 0.228618
vt 0.690920 0.031114
vt 0.614246 0.229634
vt 0.622028 0.198459
vt 0.610267 0.195204
vt 0.636705 0.166415
vt 0.622367 0.162047
vt 0.598076 0.192675
vt 0.607429 0.158822
vt 0.563127 0.085437
vt 0.581840 0.085127
vt 0.580311 0.050836
vt 0.580311 0.050836
vt 0.580311 0.050836
vt 0.598727 0.049510
vt 0.598727 0.049510
vt 0.616022 0.048220
vt 0.616022 0.048220
vt 0.580262 0.119062
vt 0.598567 0.120951
vt 0.601378 0.084932
vt 0.598727 0.049510
vt 0.616022 0.048220
vt 0.631869 0.046848
vt 0.631869 0.046848
vt 0.652182 0.128852
vt 0.634149 0.125601
vt 0.638028 0.085850
vt 0.650779 0.159315
vt 0.655923 0.085317
vt 0.646834 0.044578
vt 0.646834 0.044578
vt 0.620016 0.085217
vt 0.616594 0.123307
vn -0.966415 0.011200 -0.256741
vn -0.534240 -0.211038 -0.818566
vn -0.748055 -0.486946 -0.450886
vn -0.779685 0.092913 -0.619241
vn -0.897261 -0.419418 0.137880
vn -0.956343 -0.100588 -0.274391
vn -0.993030 -0.077912 0.088438
vn -0.784912 -0.012638 -0.619478
vn -0.677823 -0.136215 -0.722496
vn -0.336462 0.038251 -0.940920
vn -0.927958 -0.227826 -0.294941
vn -0.266029 0.155898 -0.951275
vn 0.026626 -0.127270 -0.991511
vn -0.534240 -0.211038 -0.818566
vn 0.026626 -0.127270 -0.991511
vn 0.229539 -0.664470 -0.711190
vn -0.897261 -0.419418 0.137880
vn -0.748055 -0.486946 -0.450886
vn 0.229539 -0.664470 -0.711190
vn 0.229539 -0.664470 -0.711190
vn 0.331820 0.129812 -0.934369
vn 0.026626 -0.127270 -0.991511
vn -0.266029 0.155898 -0.951275
vn -0.336462 0.038251 -0.940920
vn -0.270772 -0.053723 -0.961143
vn 0.292157 0.003314 -0.956365
vn -0.270772 -0.053723 -0.961143
vn -0.709007 -0.497957 0.499347
vn 0.229539 -0.664470 -0.711190
vn -0.983220 -0.134875 0.122831
vn -0.739791 -0.127627 0.660621
vn -0.732599 -0.194755 0.652203
vn -0.953158 -0.232744 0.193182
vn -0.944270 -0.169588 -0.282123
vn -0.698154 -0.252246 0.670039
vn -0.248273 -0.233527 0.940120
vn -0.187609 -0.431721 0.882281
vn -0.187609 -0.431721 0.882281
vn -0.709007 -0.497957 0.499347
vn 0.229539 -0.664470 -0.711190
vn -0.207076 -0.114791 0.971567
vn 0.259889 -0.152201 0.953568
vn -0.242816 -0.232882 0.941704
vn 0.259760 -0.238233 0.935826
vn -0.960746 -0.126302 0.247013
vn -0.897601 0.209627 -0.387776
vn -0.660966 -0.166834 -0.731636
vn -0.955090 -0.061986 -0.289759
vn -0.625718 -0.154946 -0.764506
vn -0.651849 0.135435 -0.746157
vn -0.897601 0.209627 -0.387776
vn -0.944203 0.319191 0.081227
vn -0.581960 0.799418 0.149177
vn -0.651849 0.135435 -0.746157
vn -0.581960 0.799418 0.149177
vn -0.944203 0.319191 0.081227
vn -0.758392 0.496495 0.422296
vn -0.581960 0.799418 0.149177
vn -0.276738 0.075438 -0.957980
vn -0.214397 -0.225688 -0.950315
vn -0.211067 -0.140198 -0.967365
vn -0.214397 -0.225688 -0.950315
vn 0.279368 -0.086509 -0.956279
vn -0.211067 -0.140198 -0.967365
vn -0.276738 0.075438 -0.957980
vn 0.266602 0.110568 -0.957444
vn 0.266602 0.110568 -0.957444
vn -0.276738 0.075438 -0.957980
vn -0.581960 0.799418 0.149177
vn -0.276738 0.075438 -0.957980
vn -0.581960 0.799418 0.149177
vn -0.985957 0.001782 0.166990
vn -0.676295 -0.125268 0.725902
vn -0.766132 0.125012 0.630407
vn -0.182600 -0.076655 0.980195
vn -0.758392 0.496495 0.422296
vn -0.216757 0.216705 0.951869
vn -0.337411 0.599725 0.725592
vn 0.256358 -0.213700 0.942663
vn 0.149336 0.254257 0.955537
vn -0.337411 0.599725 0.725592
vn -0.581960 0.799418 0.149177
vn 0.079877 0.693769 0.715754
vn -0.581960 0.799418 0.149177
vn 0.257700 -0.054892 -0.964664
vn 0.231672 -0.200577 -0.951891
vn 0.229539 -0.664470 -0.711190
vn 0.760541 0.074580 -0.644992
vn 0.532305 -0.180987 -0.826980
vn 0.229539 -0.664470 -0.711190
vn 0.834954 -0.244514 -0.493016
vn 0.229539 -0.664470 -0.711190
vn 0.848701 -0.528391 -0.022569
vn 0.634164 -0.430468 0.642287
vn 0.229539 -0.664470 -0.711190
vn 0.756567 -0.073740 -0.649745
vn 0.834954 -0.244514 -0.493016
vn 0.848701 -0.528391 -0.022569
vn 0.229539 -0.664470 -0.711190
vn 0.943838 0.010309 -0.330248
vn 0.988770 -0.088807 0.120192
vn 0.966946 -0.133763 -0.217079
vn 0.967555 -0.184248 -0.172889
vn 0.742726 -0.105290 -0.661266
vn 0.402141 -0.509439 0.760759
vn 0.229539 -0.664470 -0.711190
vn 0.402141 -0.509439 0.760759
vn 0.229539 -0.664470 -0.711190
vn 0.745980 -0.158604 0.646806
vn 0.402141 -0.509439 0.760759
vn 0.259889 -0.152201 0.953568
vn 0.259760 -0.238233 0.935826
vn 0.703234 -0.192263 0.684469
vn 0.256358 -0.213700 0.942663
vn 0.691263 -0.250418 0.677825
vn 0.951671 -0.159698 0.262334
vn 0.925421 -0.234088 0.297992
vn 0.340495 -0.126135 -0.931747
vn 0.720478 0.040218 -0.692310
vn 0.660029 0.300478 -0.688530
vn -0.581960 0.799418 0.149177
vn 0.660029 0.300478 -0.688530
vn 0.821068 0.480352 -0.308397
vn -0.581960 0.799418 0.149177
vn 0.726585 0.682392 0.080096
vn -0.581960 0.799418 0.149177
vn 0.715302 -0.043158 -0.697481
vn 0.967332 -0.048556 -0.248821
vn 0.933625 0.197831 -0.298675
vn 0.821068 0.480352 -0.308397
vn 0.726585 0.682392 0.080096
vn 0.406981 0.712122 0.572057
vn -0.581960 0.799418 0.149177
vn 0.156897 -0.028444 0.987205
vn 0.580136 -0.073027 0.811239
vn 0.556416 0.315840 0.768536
vn 0.156897 -0.028444 0.987205
vn 0.149336 0.254257 0.955537
vn 0.079877 0.693769 0.715754
vn -0.581960 0.799418 0.149177
vn 0.929957 0.273914 0.245257
vn 0.947479 -0.067198 0.312678
f 51/51/51 52/52/52 53/53/53
f 52/52/52 57/57/57 58/58/58
f 57/57/57 81/81/81 82/82/82
f 54/54/54 51/51/51 55/55/55
f 70/70/70 54/54/54 71/71/71
f 38/38/38 39/39/39 40/40/40
f 105/105/105 38/38/38 106/106/106
f 97/97/97 98/98/98 99/99/99
f 14/14/14 15/15/15 16/16/16
f 17/17/17 18/18/18 19/19/19
f 67/67/67 68/68/68 69/69/69
f 120/120/120 67/67/67 121/121/121
f 123/123/123 120/120/120 124/124/124
f 125/125/125 123/123/123 126/126/126
f 88/88/88 102/102/102 100/100/100
f 100/100/100 89/89/89 88/88/88
f 89/89/89 100/100/100 91/91/91
f 100/100/100 102/102/102 101/101/101
f 101/101/101 91/91/91 100/100/100
f 116/116/116 101/101/101 102/102/102
f 91/91/91 101/101/101 93/93/93
f 101/101/101 116/116/116 109/109/109
f 93/93/93 101/101/101 94/94/94
f 93/93/93 94/94/94 95/95/95
f 109/109/109 94/94/94 101/101/101
f 94/94/94 107/107/107 108/108/108
f 94/94/94 109/109/109 107/107/107
f 107/107/107 109/109/109 111/111/111
f 109/109/109 112/112/112 111/111/111
f 113/113/113 109/109/109 116/116/116
f 112/112/112 109/109/109 113/113/113
f 117/117/117 113/113/113 116/116/116
f 113/113/113 114/114/114 112/112/112
f 113/113/113 117/117/117 115/115/115
f 114/114/114 113/113/113 115/115/115
f 117/117/117 142/142/142 115/115/115
f 134/134/134 114/114/114 115/115/115
f 135/135/135 115/115/115 142/142/142
f 115/115/115 135/135/135 134/134/134
f 142/142/142 136/136/136 135/135/135
f 135/135/135 136/136/136 134/134/134
f 136/136/136 142/142/142 141/141/141
f 134/134/134 136/136/136 138/138/138
f 132/132/132 136/136/136 141/141/141
f 136/136/136 132/132/132 138/138/138
f 141/141/141 131/131/131 132/132/132
f 132/132/132 131/131/131 133/133/133
f 132/132/132 139/139/139 138/138/138
f 139/139/139 132/132/132 140/140/140
f 21/21/21 22/22/22 23/23/23
f 24/24/24 21/21/21 23/23/23
f 22/22/22 86/86/86 87/87/87
f 22/22/22 21/21/21 86/86/86
f 21/21/21 24/24/24 26/26/26
f 25/25/25 26/26/26 24/24/24
f 96/96/96 21/21/21 26/26/26
f 85/85/85 26/26/26 25/25/25
f 85/85/85 96/96/96 26/26/26
f 64/64/64 85/85/85 25/25/25
f 88/88/88 86/86/86 21/21/21
f 21/21/21 96/96/96 88/88/88
f 86/86/86 88/88/88 89/89/89
f 86/86/86 89/89/89 90/90/90
f 63/63/63 85/85/85 64/64/64
f 62/62/62 63/63/63 64/64/64
f 96/96/96 85/85/85 104/104/104
f 63/63/63 104/104/104 85/85/85
f 89/89/89 91/91/91 92/92/92
f 118/118/118 63/63/63 62/62/62
f 66/66/66 118/118/118 62/62/62
f 62/62/62 65/65/65 66/66/66
f 118/118/118 127/127/127 63/63/63
f 127/127/127 104/104/104 63/63/63
f 66/66/66 119/119/119 118/118/118
f 119/119/119 127/127/127 118/118/118
f 119/119/119 66/66/66 122/122/122
f 128/128/128 104/104/104 127/127/127
f 127/127/127 119/119/119 128/128/128
f 122/122/122 129/129/129 119/119/119
f 119/119/119 129/129/129 128/128/128
f 129/129/129 122/122/122 130/130/130
f 129/129/129 130/130/130 131/131/131
f 104/104/104 128/128/128 103/103/103
f 103/103/103 96/96/96 104/104/104
f 129/129/129 142/142/142 128/128/128
f 96/96/96 103/103/103 102/102/102
f 129/129/129 131/131/131 141/141/141
f 142/142/142 129/129/129 141/141/141
f 102/102/102 88/88/88 96/96/96
f 103/103/103 128/128/128 117/117/117
f 142/142/142 117/117/117 128/128/128
f 102/102/102 103/103/103 116/116/116
f 117/117/117 116/116/116 103/103/103
f 1/1/1 2/2/2 3/3/3
f 3/3/3 2/2/2 20/20/20
f 1/1/1 3/3/3 5/5/5
f 2/2/2 1/1/1 4/4/4
f 4/4/4 13/13/13 2/2/2
f 13/13/13 4/4/4 12/12/12
f 8/8/8 12/12/12 4/4/4
f 10/10/10 12/12/12 8/8/8
f 6/6/6 4/4/4 1/1/1
f 4/4/4 6/6/6 8/8/8
f 9/9/9 10/10/10 8/8/8
f 27/27/27 10/10/10 9/9/9
f 61/61/61 27/27/27 9/9/9
f 8/8/8 11/11/11 9/9/9
f 11/11/11 8/8/8 6/6/6
f 9/9/9 49/49/49 61/61/61
f 49/49/49 60/60/60 61/61/61
f 34/34/34 9/9/9 11/11/11
f 9/9/9 34/34/34 49/49/49
f 60/60/60 49/49/49 47/47/47
f 47/47/47 59/59/59 60/60/60
f 59/59/59 47/47/47 50/50/50
f 47/47/47 46/46/46 50/50/50
f 49/49/49 48/48/48 47/47/47
f 46/46/46 47/47/47 48/48/48
f 48/48/48 49/49/49 34/34/34
f 48/48/48 56/56/56 46/46/46
f 56/56/56 48/48/48 72/72/72
f 72/72/72 76/76/76 56/56/56
f 48/48/48 34/34/34 45/45/45
f 48/48/48 45/45/45 72/72/72
f 34/34/34 33/33/33 45/45/45
f 33/33/33 34/34/34 11/11/11
f 72/72/72 45/45/45 73/73/73
f 45/45/45 33/33/33 35/35/35
f 45/45/45 35/35/35 73/73/73
f 11/11/11 30/30/30 33/33/33
f 11/11/11 6/6/6 30/30/30
f 73/73/73 74/74/74 72/72/72
f 76/76/76 72/72/72 74/74/74
f 35/35/35 75/75/75 73/73/73
f 74/74/74 73/73/73 75/75/75
f 77/77/77 76/76/76 74/74/74
f 75/75/75 77/77/77 74/74/74
f 76/76/76 77/77/77 78/78/78
f 83/83/83 78/78/78 77/77/77
f 78/78/78 83/83/83 84/84/84
f 80/80/80 83/83/83 77/77/77
f 75/75/75 80/80/80 77/77/77
f 137/137/137 80/80/80 75/75/75
f 75/75/75 79/79/79 137/137/137
f 79/79/79 75/75/75 36/36/36
f 75/75/75 35/35/35 36/36/36
f 44/44/44 79/79/79 36/36/36
f 32/32/32 36/36/36 35/35/35
f 33/33/33 32/32/32 35/35/35
f 36/36/36 43/43/43 44/44/44
f 36/36/36 32/32/32 43/43/43
f 33/33/33 30/30/30 32/32/32
f 43/43/43 42/42/42 44/44/44
f 30/30/30 31/31/31 32/32/32
f 31/31/31 43/43/43 32/32/32
f 42/42/42 43/43/43 41/41/41
f 43/43/43 31/31/31 41/41/41
f 37/37/37 42/42/42 41/41/41
f 37/37/37 41/41/41 31/31/31
f 110/110/110 42/42/42 37/37/37
f 31/31/31 28/28/28 37/37/37
f 30/30/30 7/7/7 31/31/31
f 7/7/7 28/28/28 31/31/31
f 6/6/6 7/7/7 30/30/30
f 6/6/6 1/1/1 7/7/7
f 1/1/1 5/5/5 7/7/7
f 7/7/7 5/5/5 28/28/28
f 28/28/28 5/5/5 29/29/29
