# Generated from Roblox mesh JSON (v4.01)
# Hello from RBX_Toolbox ;)
o RightUpperArm
v -0.166005 -0.022355 -0.062019
v -0.217029 -0.034032 -0.002923
v -0.206769 -0.008698 -0.072486
v -0.175146 -0.046447 -0.000380
v -0.232654 -0.009945 0.062978
v -0.254291 0.017138 -0.028652
v -0.217029 -0.034032 -0.002923
v -0.206769 -0.008698 -0.072486
v -0.217029 -0.034032 -0.002923
v -0.254291 0.017138 -0.028652
v -0.213164 0.059242 -0.092777
v -0.154600 0.037535 -0.087330
v -0.254291 0.017138 -0.028652
v -0.068306 -0.087159 -0.000300
v 0.071296 -0.038243 -0.094578
v -0.059222 -0.062054 -0.064332
v -0.044184 0.000490 -0.090710
v 0.043604 -0.128662 -0.000224
v 0.087497 0.026676 -0.066870
v -0.033949 0.064451 -0.064084
v -0.173548 -0.021984 0.061168
v -0.175146 -0.046447 -0.000380
v -0.068306 -0.087159 -0.000300
v -0.162967 0.038968 0.087325
v -0.232654 -0.009945 0.062978
v -0.252364 0.048990 0.059602
v -0.254291 0.017138 -0.028652
v -0.239506 0.061482 0.091853
v -0.252364 0.048990 0.059602
v -0.049596 0.001416 0.090601
v 0.043604 -0.128662 -0.000224
v -0.064105 -0.060932 0.063673
v 0.038169 -0.097538 0.066197
v 0.056381 -0.033724 0.093955
v 0.074225 0.030480 0.066536
v -0.035861 0.064483 0.064268
v -0.235825 0.157343 -0.062141
v -0.213164 0.059242 -0.092777
v -0.234723 0.105983 -0.058182
v -0.234723 0.105983 -0.058182
v -0.248984 0.078426 -0.000185
v -0.232300 0.140762 0.029170
v -0.234723 0.105983 -0.058182
v -0.248984 0.078426 -0.000185
v -0.235825 0.157343 -0.062141
v -0.232300 0.140762 0.029170
v -0.245530 0.183005 0.002785
v -0.149702 0.136703 0.000440
v -0.150621 0.110623 -0.061636
v -0.030179 0.090811 0.000232
v -0.252364 0.048990 0.059602
v -0.248984 0.078426 -0.000185
v -0.252364 0.048990 0.059602
v -0.232300 0.140762 0.029170
v -0.248984 0.078426 -0.000185
v -0.239506 0.061482 0.091853
v -0.232300 0.140762 0.029170
v -0.252364 0.048990 0.059602
v -0.153576 0.110674 0.062091
v -0.245771 0.156452 0.071485
v -0.245771 0.156452 0.071485
v -0.245530 0.183005 0.002785
v -0.232300 0.140762 0.029170
v 0.052713 -0.102457 -0.066994
v 0.169207 -0.071073 -0.098047
v 0.147238 -0.136708 -0.069375
v 0.138142 -0.163912 -0.000167
v 0.187860 -0.183006 -0.000151
v 0.197172 -0.155171 -0.071011
v 0.219664 -0.087977 -0.100365
v 0.225487 -0.117956 -0.064270
v 0.225487 -0.117956 -0.064270
v 0.242153 -0.020779 -0.071011
v 0.225487 -0.117956 -0.064270
v 0.225487 -0.117956 -0.064270
v 0.254291 -0.031891 -0.026609
v 0.238686 -0.094348 -0.000065
v 0.187860 -0.183006 -0.000151
v 0.147140 -0.136978 0.069240
v 0.138142 -0.163912 -0.000167
v 0.197099 -0.155380 0.070899
v 0.169153 -0.071181 0.098093
v 0.219639 -0.088005 0.100365
v 0.213568 -0.153621 0.026628
v 0.213568 -0.153621 0.026628
v 0.213568 -0.153621 0.026628
v 0.213568 -0.153621 0.026628
v 0.225487 -0.117956 -0.064270
v 0.238686 -0.094348 -0.000065
v 0.242378 -0.067527 0.064263
v 0.213568 -0.153621 0.026628
v 0.238686 -0.094348 -0.000065
v 0.219639 -0.088005 0.100365
v 0.191179 -0.005421 -0.069388
v 0.093975 0.053500 0.000039
v 0.200282 0.021761 -0.000118
v 0.242153 -0.020779 -0.071011
v 0.251471 0.007057 -0.000151
v 0.242378 -0.067527 0.064263
v 0.254291 -0.031891 -0.026609
v 0.254291 -0.031891 -0.026609
v 0.238686 -0.094348 -0.000065
v 0.191211 -0.005280 0.069380
v 0.242204 -0.020595 0.070946
v 0.242378 -0.067527 0.064263
v 0.251471 0.007057 -0.000151
v 0.242204 -0.020595 0.070946
v 0.242378 -0.067527 0.064263
vt 0.839001 0.062906
vt 0.824401 0.041506
vt 0.839201 0.040906
vt 0.825201 0.062906
vt 0.923901 0.044206
vt 0.937101 0.046406
vt 0.937101 0.046406
vt 0.839201 0.040906
vt 0.824401 0.041506
vt 0.839201 0.040906
vt 0.853801 0.039106
vt 0.852901 0.061906
vt 0.846501 0.040006
vt 0.824001 0.083606
vt 0.849901 0.108006
vt 0.837801 0.084806
vt 0.851801 0.084506
vt 0.821001 0.105706
vt 0.864601 0.107706
vt 0.865901 0.083106
vt 0.921801 0.063506
vt 0.935201 0.065306
vt 0.935801 0.086206
vt 0.908201 0.061606
vt 0.923901 0.044206
vt 0.930501 0.045306
vt 0.937101 0.046406
vt 0.909301 0.040206
vt 0.923901 0.044206
vt 0.908001 0.084806
vt 0.937601 0.108406
vt 0.921901 0.085806
vt 0.923001 0.106506
vt 0.908501 0.106406
vt 0.893901 0.105806
vt 0.894001 0.083406
vt 0.868101 0.036106
vt 0.853801 0.039106
vt 0.868101 0.036106
vt 0.853801 0.039106
vt 0.853801 0.039106
vt 0.881601 0.032906
vt 0.874851 0.034506
vt 0.881601 0.032906
vt 0.868101 0.036106
vt 0.881601 0.032906
vt 0.881601 0.032906
vt 0.880701 0.054306
vt 0.866901 0.055306
vt 0.880001 0.082506
vt 0.930501 0.045306
vt 0.937101 0.046406
vt 0.909301 0.040206
vt 0.902401 0.037506
vt 0.909301 0.040206
vt 0.909301 0.040206
vt 0.902401 0.037506
vt 0.909301 0.040206
vt 0.894401 0.055306
vt 0.895501 0.034806
vt 0.895501 0.034806
vt 0.881601 0.032906
vt 0.895501 0.034806
vt 0.835401 0.107406
vt 0.847801 0.127806
vt 0.832701 0.126506
vt 0.817801 0.124506
vt 0.815801 0.134606
vt 0.831001 0.136706
vt 0.846601 0.137906
vt 0.831001 0.136706
vt 0.823401 0.135656
vt 0.862401 0.138606
vt 0.846601 0.137906
vt 0.846601 0.137906
vt 0.854501 0.138256
vt 0.846601 0.137906
vt 0.941301 0.137606
vt 0.924801 0.128706
vt 0.939901 0.127406
vt 0.925901 0.139006
vt 0.909601 0.129206
vt 0.910301 0.139506
vt 0.815801 0.134606
vt 0.925901 0.139006
vt 0.918101 0.139256
vt 0.815801 0.134606
vt 0.823401 0.135656
vt 0.815801 0.134606
vt 0.910301 0.139506
vt 0.918101 0.139256
vt 0.910301 0.139506
vt 0.910301 0.139506
vt 0.863201 0.128506
vt 0.879301 0.107706
vt 0.878701 0.129006
vt 0.862401 0.138606
vt 0.878401 0.139106
vt 0.886401 0.139256
vt 0.878401 0.139106
vt 0.862401 0.138606
vt 0.878401 0.139106
vt 0.894201 0.129306
vt 0.894401 0.139406
vt 0.894401 0.139406
vt 0.878401 0.139106
vt 0.894401 0.139406
vt 0.886401 0.139256
vn -0.211321 -0.693906 -0.688359
vn -0.076138 -0.996867 0.021449
vn -0.005513 -0.674318 -0.738421
vn -0.277485 -0.960726 -0.002574
vn -0.064790 -0.657060 0.751049
vn -0.044893 -0.918085 -0.393833
vn -0.076138 -0.996867 0.021449
vn -0.005513 -0.674318 -0.738421
vn -0.076138 -0.996867 0.021449
vn -0.044893 -0.918085 -0.393833
vn 0.182485 0.046936 -0.982088
vn 0.048256 -0.010215 -0.998783
vn -0.044893 -0.918085 -0.393833
vn -0.312028 -0.943446 0.112020
vn -0.031053 0.009815 -0.999470
vn -0.243001 -0.613942 -0.751016
vn -0.030020 0.008260 -0.999515
vn -0.325024 -0.934677 0.144005
vn 0.187487 0.652725 -0.734029
vn 0.213133 0.664714 -0.716051
vn -0.215773 -0.709838 0.670502
vn -0.277485 -0.960726 -0.002574
vn -0.312028 -0.943446 0.112020
vn 0.023484 -0.037319 0.999027
vn -0.064790 -0.657060 0.751049
vn 0.003844 -0.389941 0.920832
vn -0.044893 -0.918085 -0.393833
vn 0.072086 -0.081701 0.994047
vn 0.003844 -0.389941 0.920832
vn -0.028931 0.004795 0.999570
vn -0.325024 -0.934677 0.144005
vn -0.265993 -0.693411 0.669648
vn -0.261891 -0.664163 0.700215
vn -0.032321 0.006264 0.999458
vn 0.187702 0.653696 0.733109
vn 0.194264 0.614743 0.764430
vn 0.301991 0.674140 -0.674045
vn 0.182485 0.046936 -0.982088
vn 0.259054 0.385696 -0.885511
vn 0.259054 0.385696 -0.885511
vn -0.973258 0.219029 -0.069252
vn 0.344820 0.843582 0.411666
vn 0.259054 0.385696 -0.885511
vn -0.973258 0.219029 -0.069252
vn 0.301991 0.674140 -0.674045
vn 0.344820 0.843582 0.411666
vn 0.346850 0.937050 0.040413
vn 0.437126 0.874993 -0.208106
vn 0.316770 0.685257 -0.655804
vn 0.297241 0.945753 -0.131148
vn 0.003844 -0.389941 0.920832
vn -0.973258 0.219029 -0.069252
vn 0.003844 -0.389941 0.920832
vn 0.344820 0.843582 0.411666
vn -0.973258 0.219029 -0.069252
vn 0.072086 -0.081701 0.994047
vn 0.344820 0.843582 0.411666
vn 0.003844 -0.389941 0.920832
vn 0.289830 0.622685 0.726817
vn 0.292240 0.626582 0.722489
vn 0.292240 0.626582 0.722489
vn 0.346850 0.937050 0.040413
vn 0.344820 0.843582 0.411666
vn -0.242946 -0.614313 -0.750731
vn -0.042458 0.030528 -0.998632
vn -0.245108 -0.612861 -0.751215
vn -0.354222 -0.935159 -0.002232
vn -0.362976 -0.931796 -0.001932
vn -0.271853 -0.673096 -0.687777
vn -0.046660 0.014155 -0.998811
vn -0.173341 -0.358652 -0.917236
vn -0.173341 -0.358652 -0.917236
vn 0.149590 0.598171 -0.787283
vn -0.173341 -0.358652 -0.917236
vn -0.173341 -0.358652 -0.917236
vn 0.233950 0.867742 -0.438510
vn 0.948102 -0.317967 0.000252
vn -0.362976 -0.931796 -0.001932
vn -0.245169 -0.611977 0.751915
vn -0.354222 -0.935159 -0.002232
vn -0.272314 -0.673565 0.687135
vn -0.044811 -0.012351 0.998919
vn -0.045013 0.013466 0.998896
vn -0.342031 -0.864292 0.368800
vn -0.342031 -0.864292 0.368800
vn -0.342031 -0.864292 0.368800
vn -0.342031 -0.864292 0.368800
vn -0.173341 -0.358652 -0.917236
vn 0.948102 -0.317967 0.000252
vn 0.056130 0.323360 0.944610
vn -0.342031 -0.864292 0.368800
vn 0.948102 -0.317967 0.000252
vn -0.045013 0.013466 0.998896
vn 0.203990 0.715461 -0.668209
vn 0.286413 0.958105 0.001381
vn 0.281061 0.959688 -0.002131
vn 0.149590 0.598171 -0.787283
vn 0.271208 0.962520 -0.001534
vn 0.056130 0.323360 0.944610
vn 0.233950 0.867742 -0.438510
vn 0.233950 0.867742 -0.438510
vn 0.948102 -0.317967 0.000252
vn 0.204318 0.715324 0.668256
vn 0.151143 0.598049 0.787079
vn 0.056130 0.323360 0.944610
vn 0.271208 0.962520 -0.001534
vn 0.151143 0.598049 0.787079
vn 0.056130 0.323360 0.944610
f 53/53/53 54/54/54 55/55/55
f 37/37/37 38/38/38 39/39/39
f 37/37/37 43/43/43 42/42/42
f 42/42/42 43/43/43 44/44/44
f 87/87/87 88/88/88 89/89/89
f 90/90/90 91/91/91 92/92/92
f 93/93/93 91/91/91 90/90/90
f 75/75/75 76/76/76 77/77/77
f 97/97/97 76/76/76 75/75/75
f 106/106/106 107/107/107 108/108/108
f 56/56/56 57/57/57 58/58/58
f 56/56/56 61/61/61 57/57/57
f 61/61/61 62/62/62 63/63/63
f 25/25/25 26/26/26 27/27/27
f 8/8/8 9/9/9 10/10/10
f 1/1/1 2/2/2 3/3/3
f 2/2/2 1/1/1 4/4/4
f 1/1/1 14/14/14 4/4/4
f 14/14/14 1/1/1 16/16/16
f 16/16/16 18/18/18 14/14/14
f 12/12/12 1/1/1 3/3/3
f 18/18/18 16/16/16 64/64/64
f 64/64/64 67/67/67 18/18/18
f 1/1/1 17/17/17 16/16/16
f 17/17/17 1/1/1 12/12/12
f 16/16/16 15/15/15 64/64/64
f 15/15/15 16/16/16 17/17/17
f 67/67/67 64/64/64 66/66/66
f 66/66/66 68/68/68 67/67/67
f 65/65/65 64/64/64 15/15/15
f 64/64/64 65/65/65 66/66/66
f 68/68/68 72/72/72 84/84/84
f 68/68/68 69/69/69 72/72/72
f 68/68/68 66/66/66 69/69/69
f 66/66/66 70/70/70 69/69/69
f 70/70/70 66/66/66 65/65/65
f 69/69/69 70/70/70 71/71/71
f 15/15/15 94/94/94 65/65/65
f 70/70/70 65/65/65 94/94/94
f 17/17/17 19/19/19 15/15/15
f 94/94/94 15/15/15 19/19/19
f 73/73/73 70/70/70 94/94/94
f 73/73/73 74/74/74 70/70/70
f 19/19/19 17/17/17 20/20/20
f 12/12/12 20/20/20 17/17/17
f 95/95/95 94/94/94 19/19/19
f 96/96/96 73/73/73 94/94/94
f 94/94/94 95/95/95 96/96/96
f 73/73/73 96/96/96 98/98/98
f 73/73/73 98/98/98 101/101/101
f 96/96/96 104/104/104 98/98/98
f 98/98/98 99/99/99 100/100/100
f 100/100/100 99/99/99 102/102/102
f 104/104/104 96/96/96 103/103/103
f 95/95/95 103/103/103 96/96/96
f 104/104/104 83/83/83 105/105/105
f 103/103/103 83/83/83 104/104/104
f 103/103/103 95/95/95 35/35/35
f 19/19/19 50/50/50 95/95/95
f 50/50/50 35/35/35 95/95/95
f 50/50/50 19/19/19 20/20/20
f 34/34/34 103/103/103 35/35/35
f 83/83/83 103/103/103 82/82/82
f 103/103/103 34/34/34 82/82/82
f 83/83/83 81/81/81 86/86/86
f 20/20/20 48/48/48 50/50/50
f 79/79/79 83/83/83 82/82/82
f 83/83/83 79/79/79 81/81/81
f 79/79/79 78/78/78 81/81/81
f 81/81/81 78/78/78 85/85/85
f 78/78/78 79/79/79 80/80/80
f 82/82/82 33/33/33 79/79/79
f 33/33/33 80/80/80 79/79/79
f 33/33/33 82/82/82 34/34/34
f 80/80/80 33/33/33 31/31/31
f 31/31/31 33/33/33 32/32/32
f 34/34/34 32/32/32 33/33/33
f 23/23/23 31/31/31 32/32/32
f 32/32/32 34/34/34 30/30/30
f 21/21/21 23/23/23 32/32/32
f 30/30/30 21/21/21 32/32/32
f 35/35/35 30/30/30 34/34/34
f 23/23/23 21/21/21 22/22/22
f 21/21/21 7/7/7 22/22/22
f 30/30/30 35/35/35 36/36/36
f 35/35/35 50/50/50 36/36/36
f 21/21/21 30/30/30 24/24/24
f 36/36/36 24/24/24 30/30/30
f 7/7/7 21/21/21 5/5/5
f 24/24/24 5/5/5 21/21/21
f 5/5/5 6/6/6 7/7/7
f 6/6/6 51/51/51 52/52/52
f 5/5/5 24/24/24 28/28/28
f 5/5/5 28/28/28 29/29/29
f 59/59/59 28/28/28 24/24/24
f 24/24/24 36/36/36 59/59/59
f 28/28/28 59/59/59 60/60/60
f 59/59/59 47/47/47 60/60/60
f 36/36/36 48/48/48 59/59/59
f 47/47/47 59/59/59 48/48/48
f 48/48/48 36/36/36 50/50/50
f 48/48/48 45/45/45 47/47/47
f 45/45/45 46/46/46 47/47/47
f 45/45/45 48/48/48 49/49/49
f 48/48/48 20/20/20 49/49/49
f 20/20/20 12/12/12 49/49/49
f 11/11/11 45/45/45 49/49/49
f 11/11/11 49/49/49 12/12/12
f 11/11/11 12/12/12 3/3/3
f 11/11/11 3/3/3 13/13/13
f 11/11/11 13/13/13 40/40/40
f 40/40/40 13/13/13 41/41/41
