# Generated from Roblox mesh JSON (v7.00)
# Hello from RBX_Toolbox ;)
o LeftFoot_inner_cage
v -0.325220 0.086381 0.306564
v -0.327240 0.090188 0.401309
v -0.328850 0.114081 0.322014
v -0.330078 0.114081 0.405041
v -0.034855 0.114085 0.404616
v -0.034501 0.090025 0.400914
v 0.336735 0.114081 0.405250
v 0.336734 0.089027 0.401269
v -0.033690 -0.015789 0.388772
v 0.336734 -0.015789 0.388863
v -0.033085 -0.122768 0.387778
v 0.336734 -0.122767 0.387777
v -0.307169 -0.122767 0.387778
v -0.313831 -0.015789 0.388832
v -0.327240 0.090188 0.401309
v -0.311151 -0.015789 0.293539
v -0.303659 -0.122767 0.292083
v 0.336735 0.121907 -0.405250
v 0.336735 0.114081 -0.003840
v 0.336734 0.100783 -0.405250
v 0.336735 0.086546 -0.003840
v 0.336734 -0.015789 -0.405250
v 0.336734 0.089027 0.401269
v 0.336735 0.114081 0.405250
v 0.336734 -0.015789 0.388863
v 0.336735 -0.015789 -0.003840
v 0.336734 -0.122767 0.387777
v 0.336734 -0.122768 -0.003840
v 0.336734 -0.122768 -0.405250
v -0.336734 0.067898 -0.405250
v -0.336734 0.046096 -0.397737
v -0.336734 0.069757 -0.391313
v -0.336734 0.046159 -0.405250
v -0.035540 0.046159 -0.405250
v -0.035540 -0.015789 -0.405250
v -0.336734 -0.015790 -0.405250
v -0.336734 -0.122768 -0.405250
v -0.336734 0.046096 -0.397737
v -0.336734 -0.015790 -0.397738
v -0.336734 -0.015790 -0.397738
v -0.336735 -0.122768 -0.397738
v -0.035539 -0.122768 -0.405250
v -0.336735 -0.122768 -0.397738
v -0.336734 -0.122768 -0.405250
v 0.327022 -0.122767 -0.405250
v -0.336735 -0.122768 -0.390133
v 0.328551 -0.122768 -0.405250
v -0.336735 -0.122768 -0.382059
v 0.330834 -0.122768 -0.405250
v -0.336735 -0.122768 -0.263237
v 0.336734 -0.122768 -0.405250
v 0.336734 -0.122768 -0.003840
v -0.303659 -0.122768 -0.003840
v -0.303659 -0.122767 0.292083
v 0.336734 -0.122767 0.387777
v -0.303659 -0.122767 0.292083
v -0.033085 -0.122768 0.387778
v -0.307169 -0.122767 0.387778
v -0.336735 0.089729 -0.263237
v -0.328828 0.113907 -0.003840
v -0.336721 0.119684 -0.263782
v -0.336735 0.100783 -0.405250
v -0.336707 0.121590 -0.405250
v -0.035539 0.100783 -0.405250
v -0.035539 0.122768 -0.405250
v 0.336735 0.121907 -0.405250
v 0.336734 0.100783 -0.405250
v -0.325220 0.086381 0.306564
v -0.328850 0.114081 0.322014
v -0.325268 0.086731 -0.003840
v -0.311151 -0.015789 0.293539
v 0.329321 0.086663 -0.405250
v 0.336734 -0.015789 -0.405250
v -0.311151 -0.015789 -0.003840
v -0.303659 -0.122767 0.292083
v -0.303659 -0.122768 -0.003840
v -0.336735 -0.015789 -0.263237
v -0.336735 -0.122768 -0.263237
v -0.336735 0.087114 -0.382059
v -0.336734 -0.015789 -0.382059
v -0.336735 -0.122768 -0.382059
v -0.336735 0.100783 -0.405250
v -0.336734 0.069757 -0.391313
v -0.336734 0.086663 -0.405250
v -0.336734 -0.015790 -0.390133
v -0.336735 -0.122768 -0.390133
v -0.336734 0.046096 -0.397737
v -0.336735 -0.122768 -0.397738
v -0.336734 -0.015790 -0.397738
v -0.336734 0.069757 -0.391313
v -0.035539 0.086663 -0.405250
v -0.035539 0.067898 -0.405250
v 0.326081 0.067898 -0.405250
v 0.331182 -0.015789 -0.405250
v 0.336734 -0.122768 -0.405250
v 0.330834 -0.122768 -0.405250
v 0.329366 -0.015789 -0.405250
v 0.328551 -0.122768 -0.405250
v 0.324601 0.046159 -0.405250
v 0.327022 -0.015789 -0.405250
v 0.327022 -0.122767 -0.405250
v 0.327022 -0.122767 -0.405250
v -0.035539 -0.122768 -0.405250
vt 4.194766 0.282458
vt 4.238916 0.282458
vt 4.194766 0.265967
vt 4.239410 0.265967
vt 4.270662 0.265967
vt 4.269673 0.282458
vt 4.318013 0.265967
vt 4.318013 0.282458
vt 4.268683 0.298950
vt 4.318014 0.298950
vt 4.271470 0.314789
vt 4.318014 0.331237
vt 4.239882 0.314789
vt 4.238421 0.298950
vt 4.238916 0.282458
vt 4.194766 0.298950
vt 4.194766 0.331237
vt 4.506113 0.462830
vt 4.506113 0.400083
vt 4.483267 0.489435
vt 4.473156 0.405436
vt 4.459850 0.520492
vt 4.473156 0.344448
vt 4.506113 0.344448
vt 4.440199 0.344448
vt 4.440199 0.410790
vt 4.352232 0.344449
vt 4.352233 0.462831
vt 4.370996 0.530012
vt 4.638153 0.591883
vt 4.684694 0.642731
vt 4.687649 0.591883
vt 4.638482 0.645189
vt 4.550456 0.645189
vt 4.551443 0.677173
vt 4.639469 0.677173
vt 4.641174 0.734033
vt 4.684694 0.642731
vt 4.682166 0.677173
vt 4.682166 0.677173
vt 4.682166 0.734033
vt 4.318014 0.734033
vt 4.189589 0.714729
vt 4.194767 0.734033
vt 4.323193 0.714730
vt 4.179360 0.676602
vt 4.333421 0.676602
vt 4.163955 0.619170
vt 4.348827 0.619170
vt 4.163955 0.537050
vt 4.348826 0.505889
vt 4.348826 0.461884
vt 4.163955 0.461884
vt 4.194767 0.331236
vt 4.318014 0.331237
vt 4.194766 0.331237
vt 4.271470 0.314789
vt 4.239882 0.314789
vt 4.704070 0.498587
vt 4.682166 0.400083
vt 4.682166 0.462830
vt 4.638153 0.531907
vt 4.638153 0.462830
vt 4.550127 0.523390
vt 4.550126 0.462830
vt 4.506113 0.462830
vt 4.483267 0.489435
vt 4.715123 0.344449
vt 4.682166 0.344449
vt 4.715123 0.415276
vt 4.748080 0.344449
vt 4.491949 0.540659
vt 4.459850 0.520492
vt 4.748080 0.430471
vt 4.836046 0.344448
vt 4.836046 0.421691
vt 4.725916 0.527863
vt 4.836046 0.462830
vt 4.695859 0.545235
vt 4.709524 0.581196
vt 4.792064 0.620314
vt 4.638153 0.531907
vt 4.687649 0.591883
vt 4.638153 0.561895
vt 4.693131 0.634528
vt 4.770072 0.662958
vt 4.684694 0.642731
vt 4.748080 0.705603
vt 4.682166 0.677173
vt 4.687649 0.591883
vt 4.550127 0.557637
vt 4.550127 0.591883
vt 4.500630 0.591883
vt 4.477499 0.577510
vt 4.370996 0.530012
vt 4.396216 0.620314
vt 4.495148 0.634528
vt 4.418207 0.662958
vt 4.503838 0.642978
vt 4.506113 0.677173
vt 4.440199 0.705603
vt 4.506113 0.734033
vt 4.553147 0.734033
vn -0.991207 -0.129458 -0.008305
vn -0.166585 -0.279922 0.945286
vn -0.992184 -0.122618 -0.010259
vn -0.146067 -0.273083 0.951148
vn -0.000489 -0.153884 0.988276
vn -0.000489 -0.134343 0.991207
vn -0.001466 -0.154861 0.988276
vn -0.001466 -0.135320 0.991207
vn -0.000489 -0.063019 0.998046
vn -0.000489 -0.063019 0.998046
vn -0.000489 -0.009282 1.000000
vn -0.000489 -0.009282 1.000000
vn -0.147044 -0.079629 0.986321
vn -0.195896 -0.026869 0.980459
vn -0.153884 -0.249634 0.956033
vn -0.995115 -0.100147 -0.013190
vn -0.998046 -0.067904 -0.016121
vn 1.000000 -0.000489 -0.000489
vn 1.000000 -0.000489 -0.000489
vn 1.000000 -0.000489 -0.000489
vn 1.000000 -0.000489 -0.000489
vn 1.000000 -0.000489 -0.000489
vn 1.000000 -0.000489 0.000489
vn 1.000000 -0.000489 0.000489
vn 1.000000 -0.000489 0.000489
vn 1.000000 -0.000489 0.000489
vn 1.000000 -0.000489 0.000489
vn 1.000000 -0.000489 0.000489
vn 1.000000 -0.000489 -0.000489
vn -0.713727 0.122618 -0.689301
vn -0.744016 0.275037 -0.609184
vn -1.000000 0.000489 0.000489
vn -0.372741 0.868100 -0.327797
vn 0.000489 0.000489 -1.000000
vn 0.000489 -0.000489 -1.000000
vn -0.364924 0.868100 -0.335613
vn -0.736199 0.000489 -0.676600
vn -1.000000 0.000489 0.000489
vn -0.000489 0.343429 -0.939424
vn -0.999023 -0.033708 -0.038593
vn -0.998046 0.000489 -0.054226
vn 0.000489 -1.000000 0.000489
vn -0.000489 -1.000000 -0.000489
vn 0.000489 -1.000000 0.000489
vn -0.000489 -1.000000 -0.000489
vn 0.466536 -0.585735 -0.661944
vn 0.000489 -1.000000 0.000489
vn 0.000489 -0.343429 -0.939424
vn 0.000489 -1.000000 0.000489
vn 0.000489 -1.000000 0.000489
vn 0.000489 -1.000000 0.000489
vn 0.000489 -1.000000 0.000489
vn 0.000489 -1.000000 0.000489
vn 0.000489 -1.000000 -0.000489
vn 0.000489 -1.000000 -0.000489
vn 0.000489 -1.000000 -0.000489
vn 0.000489 -1.000000 -0.000489
vn 0.000489 -1.000000 -0.000489
vn -0.999023 -0.032731 0.026869
vn -0.995115 -0.095261 0.018075
vn -0.999023 -0.029800 0.018075
vn -0.231070 0.000489 -0.972643
vn -0.236932 0.002443 -0.971666
vn 0.000489 -0.000489 -1.000000
vn 0.000489 -0.000489 -1.000000
vn 0.000489 -0.000489 -1.000000
vn -0.000489 -0.000489 -1.000000
vn -0.991207 -0.129458 -0.008305
vn -0.992184 -0.122618 -0.010259
vn -0.995115 -0.099170 0.026869
vn -0.995115 -0.100147 -0.013190
vn -0.000489 -0.000489 -1.000000
vn -0.000489 0.000489 -1.000000
vn -0.996092 -0.077675 0.045432
vn -0.998046 -0.067904 -0.016121
vn -0.997069 -0.052272 0.056180
vn -0.999023 -0.025892 0.045432
vn -0.998046 -0.017098 0.056180
vn -0.741085 -0.316072 0.592574
vn -0.934538 0.000489 0.355154
vn -0.656082 0.000489 0.754763
vn -0.161700 -0.000489 -0.987298
vn -0.992184 0.046409 -0.116756
vn -0.591597 -0.616023 -0.520274
vn -1.000000 0.000489 -0.000489
vn -1.000000 0.000489 0.000489
vn -0.737176 0.089399 -0.669761
vn -1.000000 0.000489 0.000489
vn -1.000000 0.000489 0.000489
vn -0.988276 0.151930 -0.002443
vn 0.000489 0.000489 -1.000000
vn 0.000489 0.000489 -1.000000
vn 0.000489 0.000489 -1.000000
vn 0.000489 0.000489 -1.000000
vn 0.000489 0.000489 -1.000000
vn 0.000489 0.000489 -1.000000
vn 0.000489 0.000489 -1.000000
vn 0.000489 0.000489 -1.000000
vn 0.000489 0.000489 -1.000000
vn 0.000489 0.000489 -1.000000
vn 0.000489 0.000489 -1.000000
vn 0.000489 0.000489 -1.000000
vn 0.000489 -0.000489 -1.000000
f 1/1/1 2/2/2 3/3/3
f 3/3/3 2/2/2 4/4/4
f 2/2/2 5/5/5 4/4/4
f 5/5/5 2/2/2 6/6/6
f 6/6/6 7/7/7 5/5/5
f 7/7/7 6/6/6 8/8/8
f 9/9/9 8/8/8 6/6/6
f 8/8/8 9/9/9 10/10/10
f 11/11/11 10/10/10 9/9/9
f 10/10/10 11/11/11 12/12/12
f 9/9/9 13/13/13 11/11/11
f 14/14/14 9/9/9 6/6/6
f 13/13/13 9/9/9 14/14/14
f 14/14/14 6/6/6 15/15/15
f 1/1/1 14/14/14 15/15/15
f 1/1/1 16/16/16 14/14/14
f 16/16/16 13/13/13 14/14/14
f 13/13/13 16/16/16 17/17/17
f 18/18/18 19/19/19 20/20/20
f 19/19/19 21/21/21 20/20/20
f 21/21/21 22/22/22 20/20/20
f 23/23/23 21/21/21 19/19/19
f 19/19/19 24/24/24 23/23/23
f 21/21/21 23/23/23 25/25/25
f 25/25/25 26/26/26 21/21/21
f 22/22/22 21/21/21 26/26/26
f 27/27/27 26/26/26 25/25/25
f 26/26/26 27/27/27 28/28/28
f 28/28/28 22/22/22 26/26/26
f 22/22/22 28/28/28 29/29/29
f 30/30/30 31/31/31 32/32/32
f 30/30/30 33/33/33 31/31/31
f 30/30/30 34/34/34 33/33/33
f 33/33/33 34/34/34 35/35/35
f 33/33/33 35/35/35 36/36/36
f 35/35/35 37/37/37 36/36/36
f 36/36/36 38/38/38 33/33/33
f 38/38/38 36/36/36 39/39/39
f 37/37/37 40/40/40 36/36/36
f 40/40/40 37/37/37 41/41/41
f 42/42/42 43/43/43 44/44/44
f 45/45/45 43/43/43 42/42/42
f 45/45/45 46/46/46 43/43/43
f 47/47/47 46/46/46 45/45/45
f 47/47/47 48/48/48 46/46/46
f 49/49/49 48/48/48 47/47/47
f 49/49/49 50/50/50 48/48/48
f 51/51/51 50/50/50 49/49/49
f 50/50/50 51/51/51 52/52/52
f 50/50/50 52/52/52 53/53/53
f 53/53/53 52/52/52 54/54/54
f 55/55/55 54/54/54 52/52/52
f 56/56/56 55/55/55 57/57/57
f 56/56/56 57/57/57 58/58/58
f 59/59/59 60/60/60 61/61/61
f 61/61/61 62/62/62 59/59/59
f 62/62/62 61/61/61 63/63/63
f 63/63/63 64/64/64 62/62/62
f 63/63/63 65/65/65 64/64/64
f 66/66/66 64/64/64 65/65/65
f 64/64/64 66/66/66 67/67/67
f 60/60/60 68/68/68 69/69/69
f 68/68/68 60/60/60 70/70/70
f 60/60/60 59/59/59 70/70/70
f 70/70/70 71/71/71 68/68/68
f 64/64/64 67/67/67 72/72/72
f 67/67/67 73/73/73 72/72/72
f 71/71/71 70/70/70 74/74/74
f 74/74/74 75/75/75 71/71/71
f 75/75/75 74/74/74 76/76/76
f 70/70/70 77/77/77 74/74/74
f 77/77/77 76/76/76 74/74/74
f 77/77/77 70/70/70 59/59/59
f 78/78/78 76/76/76 77/77/77
f 79/79/79 77/77/77 59/59/59
f 80/80/80 78/78/78 77/77/77
f 80/80/80 77/77/77 79/79/79
f 78/78/78 80/80/80 81/81/81
f 59/59/59 82/82/82 79/79/79
f 80/80/80 79/79/79 83/83/83
f 84/84/84 79/79/79 82/82/82
f 85/85/85 81/81/81 80/80/80
f 83/83/83 85/85/85 80/80/80
f 85/85/85 86/86/86 81/81/81
f 85/85/85 83/83/83 87/87/87
f 85/85/85 88/88/88 86/86/86
f 87/87/87 89/89/89 85/85/85
f 88/88/88 85/85/85 89/89/89
f 84/84/84 90/90/90 79/79/79
f 64/64/64 84/84/84 82/82/82
f 90/90/90 84/84/84 30/30/30
f 84/84/84 64/64/64 91/91/91
f 64/64/64 72/72/72 91/91/91
f 92/92/92 84/84/84 91/91/91
f 84/84/84 92/92/92 30/30/30
f 91/91/91 72/72/72 93/93/93
f 91/91/91 93/93/93 92/92/92
f 72/72/72 94/94/94 93/93/93
f 72/72/72 73/73/73 94/94/94
f 73/73/73 95/95/95 94/94/94
f 94/94/94 95/95/95 96/96/96
f 96/96/96 97/97/97 94/94/94
f 93/93/93 94/94/94 97/97/97
f 97/97/97 96/96/96 98/98/98
f 99/99/99 92/92/92 93/93/93
f 93/93/93 97/97/97 99/99/99
f 98/98/98 100/100/100 97/97/97
f 99/99/99 97/97/97 100/100/100
f 100/100/100 98/98/98 101/101/101
f 92/92/92 99/99/99 34/34/34
f 34/34/34 30/30/30 92/92/92
f 35/35/35 99/99/99 100/100/100
f 99/99/99 35/35/35 34/34/34
f 102/102/102 103/103/103 100/100/100
f 35/35/35 100/100/100 103/103/103
f 37/37/37 35/35/35 103/103/103
