# Generated from Roblox mesh JSON (v7.00)
# Hello from RBX_Toolbox ;)
o LeftLowerArm_inner_cage
v 0.062178 0.254022 0.180189
v 0.154367 0.161430 0.179153
v 0.095372 0.350344 0.195522
v 0.194192 0.257447 0.195505
v -0.165865 -0.115718 -0.128571
v -0.197536 -0.238099 -0.121746
v -0.177655 -0.127992 -0.075122
v -0.175199 -0.223506 -0.174877
v -0.177655 -0.127992 -0.075122
v -0.192292 -0.287074 -0.054495
v -0.165660 -0.167222 -0.009973
v -0.197536 -0.238099 -0.121746
v -0.014801 0.338908 0.131097
v 0.095372 0.350344 0.195522
v 0.012124 0.436116 0.143758
v 0.062178 0.254022 0.180189
v -0.038938 0.268268 -0.061093
v -0.103135 0.150734 0.001112
v -0.064688 0.273446 0.028391
v -0.079503 0.163767 -0.085628
v -0.037151 0.378351 0.045320
v 0.012124 0.436116 0.143758
v -0.010014 0.468861 0.054240
v -0.014801 0.338908 0.131097
v -0.079503 0.163767 -0.085628
v -0.141791 0.012837 -0.030126
v -0.103135 0.150734 0.001112
v -0.120620 0.030514 -0.106067
v -0.120620 0.030514 -0.106067
v -0.177655 -0.127992 -0.075122
v -0.141791 0.012837 -0.030126
v -0.165865 -0.115718 -0.128571
v -0.064688 0.273446 0.028391
v -0.081399 0.114262 0.072657
v -0.042843 0.231881 0.104680
v -0.103135 0.150734 0.001112
v -0.038938 0.268268 -0.061093
v -0.064688 0.273446 0.028391
v -0.007238 0.365026 -0.041269
v -0.037151 0.378351 0.045320
v -0.141791 0.012837 -0.030126
v -0.165660 -0.167222 -0.009973
v -0.122975 -0.031044 0.031116
v -0.177655 -0.127992 -0.075122
v -0.103135 0.150734 0.001112
v -0.122975 -0.031044 0.031116
v -0.081399 0.114262 0.072657
v -0.141791 0.012837 -0.030126
v -0.063794 -0.101218 0.069861
v -0.015076 -0.306951 0.034179
v 0.029790 -0.191769 0.074572
v -0.112261 -0.229805 0.032496
v -0.037151 0.378351 0.045320
v -0.042843 0.231881 0.104680
v -0.014801 0.338908 0.131097
v -0.064688 0.273446 0.028391
v -0.013484 0.040849 0.108169
v 0.029790 -0.191769 0.074572
v 0.075899 -0.067513 0.111086
v -0.063794 -0.101218 0.069861
v -0.013484 0.040849 0.108169
v 0.114048 0.052580 0.142629
v 0.025081 0.149948 0.141966
v 0.075899 -0.067513 0.111086
v -0.007238 0.365026 -0.041269
v -0.037151 0.378351 0.045320
v 0.015680 0.455014 -0.032005
v -0.010014 0.468861 0.054240
v -0.165660 -0.167222 -0.009973
v -0.063794 -0.101218 0.069861
v -0.122975 -0.031044 0.031116
v -0.112261 -0.229805 0.032496
v -0.081399 0.114262 0.072657
v 0.025081 0.149948 0.141966
v -0.042843 0.231881 0.104680
v -0.013484 0.040849 0.108169
v -0.122975 -0.031044 0.031116
v -0.013484 0.040849 0.108169
v -0.081399 0.114262 0.072657
v -0.063794 -0.101218 0.069861
v 0.025081 0.149948 0.141966
v 0.114048 0.052580 0.142629
v 0.062178 0.254022 0.180189
v 0.154367 0.161430 0.179153
v -0.112261 -0.229805 0.032496
v -0.083222 -0.468860 -0.012227
v -0.015076 -0.306951 0.034179
v -0.166740 -0.357294 0.005442
v -0.165660 -0.167222 -0.009973
v -0.192292 -0.287074 -0.054495
v -0.112261 -0.229805 0.032496
v -0.166740 -0.357294 0.005442
v 0.039678 0.206590 -0.100217
v -0.007238 0.365026 -0.041269
v 0.067327 0.314228 -0.085926
v -0.038938 0.268268 -0.061093
v -0.042843 0.231881 0.104680
v 0.062178 0.254022 0.180189
v -0.014801 0.338908 0.131097
v 0.025081 0.149948 0.141966
v 0.037501 -0.110459 -0.143989
v 0.001356 -0.247482 -0.131432
v -0.008928 -0.220324 -0.168278
v 0.047237 -0.129267 -0.101574
v -0.084804 -0.155390 -0.159399
v -0.120620 0.030514 -0.106067
v -0.037780 -0.038207 -0.135652
v -0.165865 -0.115718 -0.128571
v -0.014321 -0.308033 -0.010518
v -0.083222 -0.468860 -0.012227
v -0.074900 -0.438431 -0.041707
v -0.015076 -0.306951 0.034179
v 0.003812 0.084509 -0.111809
v -0.038938 0.268268 -0.061093
v 0.039678 0.206590 -0.100217
v -0.079503 0.163767 -0.085628
v -0.037780 -0.038207 -0.135652
v -0.079503 0.163767 -0.085628
v 0.003812 0.084509 -0.111809
v -0.120620 0.030514 -0.106067
v 0.037501 -0.110459 -0.143989
v 0.003812 0.084509 -0.111809
v 0.082779 0.014502 -0.116836
v -0.037780 -0.038207 -0.135652
v 0.001356 -0.247482 -0.131432
v -0.059525 -0.395791 -0.111119
v -0.048930 -0.354373 -0.177610
v -0.010864 -0.273666 -0.076460
v -0.008928 -0.220324 -0.168278
v -0.037780 -0.038207 -0.135652
v 0.037501 -0.110459 -0.143989
v -0.084804 -0.155390 -0.159399
v -0.014321 -0.308033 -0.010518
v -0.074900 -0.438431 -0.041707
v -0.010864 -0.273666 -0.076460
v -0.059525 -0.395791 -0.111119
v 0.082779 0.014502 -0.116836
v 0.039678 0.206590 -0.100217
v 0.123428 0.124100 -0.101358
v 0.003812 0.084509 -0.111809
v 0.161169 0.230815 -0.092759
v 0.067327 0.314228 -0.085926
v 0.082779 0.014502 -0.116836
v 0.047237 -0.129267 -0.101574
v 0.037501 -0.110459 -0.143989
v 0.086132 -0.009344 -0.078059
v 0.169274 0.207038 -0.052711
v 0.123428 0.124100 -0.101358
v 0.161169 0.230815 -0.092759
v 0.128337 0.103578 -0.060897
v 0.197536 0.285699 -0.051182
v 0.161169 0.230815 -0.092759
v 0.184963 0.296251 -0.091038
v 0.169274 0.207038 -0.052711
v 0.128337 0.103578 -0.060897
v 0.082779 0.014502 -0.116836
v 0.123428 0.124100 -0.101358
v 0.086132 -0.009344 -0.078059
v 0.067327 0.314228 -0.085926
v 0.015680 0.455014 -0.032005
v 0.088793 0.395326 -0.075731
v -0.007238 0.365026 -0.041269
v 0.001356 -0.247482 -0.131432
v -0.041845 -0.325149 -0.195522
v -0.008928 -0.220324 -0.168278
v -0.048930 -0.354373 -0.177610
v -0.041845 -0.325149 -0.195522
v -0.084804 -0.155390 -0.159399
v -0.008928 -0.220324 -0.168278
v -0.121418 -0.265040 -0.182195
v 0.184963 0.296251 -0.091038
v 0.067327 0.314228 -0.085926
v 0.088793 0.395326 -0.075731
v 0.161169 0.230815 -0.092759
v 0.121908 0.075767 0.066252
v 0.075899 -0.067513 0.111086
v 0.081730 -0.043576 0.048815
v 0.114048 0.052580 0.142629
v 0.164521 0.190978 0.008926
v 0.197085 0.278948 0.014741
v 0.162840 0.183558 0.082732
v 0.196058 0.277683 0.092201
v 0.032320 -0.175151 0.017205
v -0.015076 -0.306951 0.034179
v -0.014321 -0.308033 -0.010518
v 0.029790 -0.191769 0.074572
v 0.197085 0.278948 0.014741
v 0.169274 0.207038 -0.052711
v 0.197536 0.285699 -0.051182
v 0.164521 0.190978 0.008926
v 0.047237 -0.129267 -0.101574
v -0.010864 -0.273666 -0.076460
v 0.001356 -0.247482 -0.131432
v 0.035930 -0.149879 -0.046626
v 0.081730 -0.043576 0.048815
v 0.029790 -0.191769 0.074572
v 0.032320 -0.175151 0.017205
v 0.075899 -0.067513 0.111086
v 0.125136 0.087247 -0.002593
v 0.081730 -0.043576 0.048815
v 0.082496 -0.027414 -0.020631
v 0.121908 0.075767 0.066252
v 0.082496 -0.027414 -0.020631
v 0.128337 0.103578 -0.060897
v 0.125136 0.087247 -0.002593
v 0.086132 -0.009344 -0.078059
v 0.164521 0.190978 0.008926
v 0.121908 0.075767 0.066252
v 0.125136 0.087247 -0.002593
v 0.162840 0.183558 0.082732
v 0.114048 0.052580 0.142629
v 0.154367 0.161430 0.179153
v 0.081730 -0.043576 0.048815
v 0.032320 -0.175151 0.017205
v 0.082496 -0.027414 -0.020631
v 0.035930 -0.149879 -0.046626
v 0.164521 0.190978 0.008926
v 0.128337 0.103578 -0.060897
v 0.169274 0.207038 -0.052711
v 0.125136 0.087247 -0.002593
v 0.086132 -0.009344 -0.078059
v 0.035930 -0.149879 -0.046626
v 0.047237 -0.129267 -0.101574
v 0.082496 -0.027414 -0.020631
v 0.032320 -0.175151 0.017205
v -0.014321 -0.308033 -0.010518
v 0.035930 -0.149879 -0.046626
v -0.010864 -0.273666 -0.076460
v 0.196058 0.277683 0.092201
v 0.194192 0.257447 0.195505
v 0.154367 0.161430 0.179153
v 0.162840 0.183558 0.082732
v -0.084804 -0.155390 -0.159399
v -0.175199 -0.223506 -0.174877
v -0.165865 -0.115718 -0.128571
v -0.121418 -0.265040 -0.182195
vt 5.344955 -2.635815
vt 5.344955 -2.717676
vt 5.312208 -2.635815
vt 5.312208 -2.717676
vt 5.638083 -2.447445
vt 5.687792 -2.501845
vt 5.638083 -2.501845
vt 5.687792 -2.447445
vt 5.638083 -2.501845
vt 5.687792 -2.557655
vt 5.638083 -2.557655
vt 5.687792 -2.501845
vt 5.344956 -2.557655
vt 5.312208 -2.635815
vt 5.312208 -2.557655
vt 5.344955 -2.635815
vt 5.414290 -2.447445
vt 5.488954 -2.501845
vt 5.414290 -2.501845
vt 5.488954 -2.447445
vt 5.344956 -2.501845
vt 5.312208 -2.557655
vt 5.312208 -2.501846
vt 5.344956 -2.557655
vt 5.488954 -2.447445
vt 5.588373 -2.501845
vt 5.488954 -2.501845
vt 5.588373 -2.447445
vt 5.588373 -2.447445
vt 5.638083 -2.501845
vt 5.588373 -2.501845
vt 5.638083 -2.447445
vt 5.414290 -2.501845
vt 5.488954 -2.557655
vt 5.414290 -2.557655
vt 5.488954 -2.501845
vt 5.414290 -2.447445
vt 5.414290 -2.501845
vt 5.344956 -2.447445
vt 5.344956 -2.501845
vt 5.588373 -2.501845
vt 5.638083 -2.557655
vt 5.588373 -2.557655
vt 5.638083 -2.501845
vt 5.488954 -2.501845
vt 5.588373 -2.557655
vt 5.488954 -2.557655
vt 5.588373 -2.501845
vt 5.588373 -2.635815
vt 5.638083 -2.717676
vt 5.588373 -2.717676
vt 5.638083 -2.635815
vt 5.344956 -2.501845
vt 5.414290 -2.557655
vt 5.344956 -2.557655
vt 5.414290 -2.501845
vt 5.488954 -2.635815
vt 5.588373 -2.717676
vt 5.488954 -2.717676
vt 5.588373 -2.635815
vt 5.488954 -2.635815
vt 5.414290 -2.717676
vt 5.414290 -2.635815
vt 5.488954 -2.717676
vt 5.344956 -2.447445
vt 5.344956 -2.501845
vt 5.312208 -2.447445
vt 5.312208 -2.501846
vt 5.638083 -2.557655
vt 5.588373 -2.635815
vt 5.588373 -2.557655
vt 5.638083 -2.635815
vt 5.488954 -2.557655
vt 5.414290 -2.635815
vt 5.414290 -2.557655
vt 5.488954 -2.635815
vt 5.588373 -2.557655
vt 5.488954 -2.635815
vt 5.488954 -2.557655
vt 5.588373 -2.635815
vt 5.414290 -2.635815
vt 5.414290 -2.717676
vt 5.344955 -2.635815
vt 5.344955 -2.717676
vt 5.638083 -2.635815
vt 5.687792 -2.717676
vt 5.638083 -2.717676
vt 5.687792 -2.614785
vt 5.638083 -2.557655
vt 5.687792 -2.557655
vt 5.638083 -2.635815
vt 5.687792 -2.614785
vt 5.414290 -2.367380
vt 5.344956 -2.447445
vt 5.344955 -2.367380
vt 5.414290 -2.447445
vt 5.414290 -2.557655
vt 5.344955 -2.635815
vt 5.344956 -2.557655
vt 5.414290 -2.635815
vt 5.588373 -2.285752
vt 5.638083 -2.247544
vt 5.638083 -2.285752
vt 5.588373 -2.247544
vt 5.638083 -2.367380
vt 5.588373 -2.447445
vt 5.588373 -2.367380
vt 5.638083 -2.447445
vt 5.638083 -2.754169
vt 5.687792 -2.717676
vt 5.687792 -2.769116
vt 5.638083 -2.717676
vt 5.488954 -2.367380
vt 5.414290 -2.447445
vt 5.414290 -2.367380
vt 5.488954 -2.447445
vt 5.588373 -2.367380
vt 5.488954 -2.447445
vt 5.488954 -2.367380
vt 5.588373 -2.447445
vt 5.588373 -2.285752
vt 5.488954 -2.367380
vt 5.488954 -2.285752
vt 5.588373 -2.367380
vt 5.638083 -2.247544
vt 5.687792 -2.209337
vt 5.687792 -2.247544
vt 5.638083 -2.209337
vt 5.638083 -2.285752
vt 5.588373 -2.367380
vt 5.588373 -2.285752
vt 5.638083 -2.367380
vt 5.638083 -2.754169
vt 5.687792 -2.769116
vt 5.638083 -2.790663
vt 5.687792 -2.790663
vt 5.488954 -2.285752
vt 5.414290 -2.367380
vt 5.414290 -2.285752
vt 5.488954 -2.367380
vt 5.344956 -2.285752
vt 5.344955 -2.367380
vt 5.488954 -2.285752
vt 5.588373 -2.247544
vt 5.588373 -2.285752
vt 5.488954 -2.247544
vt 5.344956 -2.248539
vt 5.414290 -2.285752
vt 5.344956 -2.285752
vt 5.414290 -2.248313
vt 5.312208 -2.248766
vt 5.344956 -2.285752
vt 5.312208 -2.285752
vt 5.344956 -2.248539
vt 5.414290 -2.248313
vt 5.488954 -2.285752
vt 5.414290 -2.285752
vt 5.488954 -2.247544
vt 5.344955 -2.367380
vt 5.312208 -2.447445
vt 5.312208 -2.367380
vt 5.344956 -2.447445
vt 5.638083 -2.247544
vt 5.687792 -2.285752
vt 5.638083 -2.285752
vt 5.687792 -2.247544
vt 5.687792 -2.285752
vt 5.638083 -2.367380
vt 5.638083 -2.285752
vt 5.687792 -2.385719
vt 5.312208 -2.285752
vt 5.344955 -2.367380
vt 5.312208 -2.367380
vt 5.344956 -2.285752
vt 5.414290 -2.754205
vt 5.488954 -2.717676
vt 5.488954 -2.754169
vt 5.414290 -2.717676
vt 5.344955 -2.790663
vt 5.312208 -2.790663
vt 5.344955 -2.754214
vt 5.312208 -2.754225
vt 5.588373 -2.754169
vt 5.638083 -2.717676
vt 5.638083 -2.754169
vt 5.588373 -2.717676
vt 5.312208 -2.209337
vt 5.344956 -2.248539
vt 5.312208 -2.248766
vt 5.344955 -2.209337
vt 5.588373 -2.247544
vt 5.638083 -2.209337
vt 5.638083 -2.247544
vt 5.588373 -2.209337
vt 5.488954 -2.754169
vt 5.588373 -2.717676
vt 5.588373 -2.754169
vt 5.488954 -2.717676
vt 5.414290 -2.790663
vt 5.488954 -2.754169
vt 5.488954 -2.790663
vt 5.414290 -2.754205
vt 5.488954 -2.209337
vt 5.414290 -2.248313
vt 5.414290 -2.209337
vt 5.488954 -2.247544
vt 5.344955 -2.790663
vt 5.414290 -2.754205
vt 5.414290 -2.790663
vt 5.344955 -2.754214
vt 5.414290 -2.717676
vt 5.344955 -2.717676
vt 5.488954 -2.754169
vt 5.588373 -2.754169
vt 5.488954 -2.790663
vt 5.588373 -2.790663
vt 5.344955 -2.209337
vt 5.414290 -2.248313
vt 5.344956 -2.248539
vt 5.414290 -2.209337
vt 5.488954 -2.247544
vt 5.588373 -2.209337
vt 5.588373 -2.247544
vt 5.488954 -2.209337
vt 5.588373 -2.754169
vt 5.638083 -2.754169
vt 5.588373 -2.790663
vt 5.638083 -2.790663
vt 5.312208 -2.754225
vt 5.312208 -2.717676
vt 5.344955 -2.717676
vt 5.344955 -2.754214
vt 5.638083 -2.367380
vt 5.687792 -2.447445
vt 5.638083 -2.447445
vt 5.687792 -2.385719
vn -0.111375 -0.120000 0.986483
vn -0.111375 -0.120000 0.986483
vn -0.111375 -0.120000 0.986483
vn -0.111375 -0.120000 0.986483
vn -0.942122 0.230502 -0.243179
vn -0.942122 0.230502 -0.243179
vn -0.942122 0.230502 -0.243179
vn -0.942122 0.230502 -0.243179
vn -0.972138 0.116250 0.204147
vn -0.972138 0.116250 0.204147
vn -0.972138 0.116250 0.204147
vn -0.972138 0.116250 0.204147
vn -0.507384 0.032981 0.861580
vn -0.507384 0.032981 0.861580
vn -0.507384 0.032981 0.861580
vn -0.507384 0.032981 0.861580
vn -0.899520 0.367023 -0.235433
vn -0.899520 0.367023 -0.235433
vn -0.899520 0.367023 -0.235433
vn -0.899520 0.367023 -0.235433
vn -0.917916 0.226629 0.326145
vn -0.917916 0.226629 0.326145
vn -0.917916 0.226629 0.326145
vn -0.917916 0.226629 0.326145
vn -0.929535 0.310865 -0.197672
vn -0.929535 0.310865 -0.197672
vn -0.929535 0.310865 -0.197672
vn -0.929535 0.310865 -0.197672
vn -0.937281 0.304088 -0.168624
vn -0.937281 0.304088 -0.168624
vn -0.937281 0.304088 -0.168624
vn -0.937281 0.304088 -0.168624
vn -0.906298 0.198550 0.372620
vn -0.906298 0.198550 0.372620
vn -0.906298 0.198550 0.372620
vn -0.906298 0.198550 0.372620
vn -0.892742 0.319580 -0.315797
vn -0.892742 0.319580 -0.315797
vn -0.892742 0.319580 -0.315797
vn -0.892742 0.319580 -0.315797
vn -0.929535 0.160789 0.331954
vn -0.929535 0.160789 0.331954
vn -0.929535 0.160789 0.331954
vn -0.929535 0.160789 0.331954
vn -0.912107 0.161757 0.376493
vn -0.912107 0.161757 0.376493
vn -0.912107 0.161757 0.376493
vn -0.912107 0.161757 0.376493
vn -0.222722 -0.217792 0.949689
vn -0.222722 -0.217792 0.949689
vn -0.222722 -0.217792 0.949689
vn -0.222722 -0.217792 0.949689
vn -0.924694 0.173376 0.338732
vn -0.924694 0.173376 0.338732
vn -0.924694 0.173376 0.338732
vn -0.924694 0.173376 0.338732
vn -0.237246 -0.181967 0.954531
vn -0.237246 -0.181967 0.954531
vn -0.237246 -0.181967 0.954531
vn -0.237246 -0.181967 0.954531
vn -0.239182 -0.190681 0.951626
vn -0.239182 -0.190681 0.951626
vn -0.239182 -0.190681 0.951626
vn -0.239182 -0.190681 0.951626
vn -0.899520 0.282787 -0.334193
vn -0.899520 0.282787 -0.334193
vn -0.899520 0.282787 -0.334193
vn -0.899520 0.282787 -0.334193
vn -0.606144 -0.027049 0.794772
vn -0.606144 -0.027049 0.794772
vn -0.606144 -0.027049 0.794772
vn -0.606144 -0.027049 0.794772
vn -0.528685 -0.065779 0.846088
vn -0.528685 -0.065779 0.846088
vn -0.528685 -0.065779 0.846088
vn -0.528685 -0.065779 0.846088
vn -0.549986 -0.056097 0.833501
vn -0.549986 -0.056097 0.833501
vn -0.549986 -0.056097 0.833501
vn -0.549986 -0.056097 0.833501
vn -0.248865 -0.239093 0.939039
vn -0.248865 -0.239093 0.939039
vn -0.248865 -0.239093 0.939039
vn -0.248865 -0.239093 0.939039
vn -0.119121 -0.196491 0.972927
vn -0.119121 -0.196491 0.972927
vn -0.119121 -0.196491 0.972927
vn -0.119121 -0.196491 0.972927
vn -0.753316 0.057187 0.655345
vn -0.753316 0.057187 0.655345
vn -0.753316 0.057187 0.655345
vn -0.753316 0.057187 0.655345
vn -0.320514 0.245994 -0.915135
vn -0.320514 0.245994 -0.915135
vn -0.320514 0.245994 -0.915135
vn -0.320514 0.245994 -0.915135
vn -0.572256 -0.073525 0.817041
vn -0.572256 -0.073525 0.817041
vn -0.572256 -0.073525 0.817041
vn -0.572256 -0.073525 0.817041
vn 0.885909 -0.268140 -0.379700
vn 0.885909 -0.268140 -0.379700
vn 0.885909 -0.268140 -0.379700
vn 0.885909 -0.268140 -0.379700
vn -0.195611 0.235343 -0.951928
vn -0.195611 0.235343 -0.951928
vn -0.195611 0.235343 -0.951928
vn -0.195611 0.235343 -0.951928
vn 0.918830 -0.393043 -0.042754
vn 0.918830 -0.393043 -0.042754
vn 0.918830 -0.393043 -0.042754
vn 0.918830 -0.393043 -0.042754
vn -0.195611 0.217915 -0.955801
vn -0.195611 0.217915 -0.955801
vn -0.195611 0.217915 -0.955801
vn -0.195611 0.217915 -0.955801
vn -0.136549 0.211137 -0.967420
vn -0.136549 0.211137 -0.967420
vn -0.136549 0.211137 -0.967420
vn -0.136549 0.211137 -0.967420
vn 0.076463 0.175312 -0.981944
vn 0.076463 0.175312 -0.981944
vn 0.076463 0.175312 -0.981944
vn 0.076463 0.175312 -0.981944
vn 0.922702 -0.384329 -0.040817
vn 0.922702 -0.384329 -0.040817
vn 0.922702 -0.384329 -0.040817
vn 0.922702 -0.384329 -0.040817
vn 0.056130 0.184995 -0.980975
vn 0.056130 0.184995 -0.980975
vn 0.056130 0.184995 -0.980975
vn 0.056130 0.184995 -0.980975
vn 0.922702 -0.376583 -0.086324
vn 0.922702 -0.376583 -0.086324
vn 0.922702 -0.376583 -0.086324
vn 0.922702 -0.376583 -0.086324
vn 0.054194 0.097853 -0.993563
vn 0.054194 0.097853 -0.993563
vn 0.054194 0.097853 -0.993563
vn 0.054194 0.097853 -0.993563
vn 0.042575 0.093012 -0.994531
vn 0.042575 0.093012 -0.994531
vn 0.922702 -0.258458 -0.284813
vn 0.922702 -0.258458 -0.284813
vn 0.922702 -0.258458 -0.284813
vn 0.922702 -0.258458 -0.284813
vn 0.896560 -0.310743 -0.315797
vn 0.896560 -0.310743 -0.315797
vn 0.896560 -0.310743 -0.315797
vn 0.896560 -0.310743 -0.315797
vn 0.880100 -0.309775 -0.360335
vn 0.880100 -0.309775 -0.360335
vn 0.880100 -0.309775 -0.360335
vn 0.880100 -0.309775 -0.360335
vn 0.915925 -0.302029 -0.264480
vn 0.915925 -0.302029 -0.264480
vn 0.915925 -0.302029 -0.264480
vn 0.915925 -0.302029 -0.264480
vn -0.386354 0.202423 -0.899644
vn -0.386354 0.202423 -0.899644
vn -0.386354 0.202423 -0.899644
vn -0.386354 0.202423 -0.899644
vn 0.915925 -0.251680 -0.312892
vn 0.915925 -0.251680 -0.312892
vn 0.915925 -0.251680 -0.312892
vn 0.915925 -0.251680 -0.312892
vn 0.034829 0.215978 -0.976134
vn 0.034829 0.215978 -0.976134
vn 0.034829 0.215978 -0.976134
vn 0.034829 0.215978 -0.976134
vn -0.029075 0.090107 -0.995499
vn -0.029075 0.090107 -0.995499
vn -0.029075 0.090107 -0.995499
vn -0.029075 0.090107 -0.995499
vn 0.950781 -0.308806 -0.010802
vn 0.950781 -0.308806 -0.010802
vn 0.950781 -0.308806 -0.010802
vn 0.950781 -0.308806 -0.010802
vn 0.940131 -0.339790 -0.003056
vn 0.940131 -0.339790 -0.003056
vn 0.940131 -0.339790 -0.003056
vn 0.940131 -0.339790 -0.003056
vn 0.940131 -0.340758 -0.021452
vn 0.940131 -0.340758 -0.021452
vn 0.940131 -0.340758 -0.021452
vn 0.940131 -0.340758 -0.021452
vn 0.939163 -0.341726 -0.022421
vn 0.939163 -0.341726 -0.022421
vn 0.939163 -0.341726 -0.022421
vn 0.939163 -0.341726 -0.022421
vn 0.929480 -0.366901 0.042451
vn 0.929480 -0.366901 0.042451
vn 0.929480 -0.366901 0.042451
vn 0.929480 -0.366901 0.042451
vn 0.940131 -0.337854 -0.048563
vn 0.940131 -0.337854 -0.048563
vn 0.940131 -0.337854 -0.048563
vn 0.940131 -0.337854 -0.048563
vn 0.944004 -0.328171 -0.037912
vn 0.944004 -0.328171 -0.037912
vn 0.944004 -0.328171 -0.037912
vn 0.944004 -0.328171 -0.037912
vn 0.938194 -0.342695 -0.046627
vn 0.938194 -0.342695 -0.046627
vn 0.938194 -0.342695 -0.046627
vn 0.938194 -0.342695 -0.046627
vn 0.935290 -0.353345 -0.014675
vn 0.936258 -0.350441 -0.004024
vn 0.935290 -0.353345 -0.014675
vn 0.935290 -0.353345 -0.014675
vn 0.936258 -0.350441 -0.003056
vn 0.936258 -0.350441 -0.003056
vn 0.938194 -0.337854 -0.073737
vn 0.938194 -0.337854 -0.073737
vn 0.938194 -0.337854 -0.073737
vn 0.938194 -0.337854 -0.073737
vn 0.933353 -0.358187 -0.035008
vn 0.933353 -0.358187 -0.035008
vn 0.933353 -0.358187 -0.035008
vn 0.933353 -0.358187 -0.035008
vn 0.942067 -0.333981 0.010499
vn 0.942067 -0.333981 0.010499
vn 0.942067 -0.333981 0.010499
vn 0.942067 -0.333981 0.010499
vn 0.942067 -0.321393 -0.096007
vn 0.942067 -0.321393 -0.096007
vn 0.942067 -0.321393 -0.096007
vn 0.942067 -0.321393 -0.096007
vn 0.934321 -0.355282 -0.027262
vn 0.934321 -0.355282 -0.027262
vn 0.934321 -0.355282 -0.027262
vn 0.934321 -0.355282 -0.027262
vn -0.076518 0.316675 -0.945151
vn -0.076518 0.316675 -0.945151
vn -0.076518 0.316675 -0.945151
vn -0.076518 0.316675 -0.945151
f 1/1/1 2/2/2 3/3/3
f 3/3/3 2/2/2 4/4/4
f 5/5/5 6/6/6 7/7/7
f 6/6/6 5/5/5 8/8/8
f 9/9/9 10/10/10 11/11/11
f 10/10/10 9/9/9 12/12/12
f 13/13/13 14/14/14 15/15/15
f 14/14/14 13/13/13 16/16/16
f 17/17/17 18/18/18 19/19/19
f 18/18/18 17/17/17 20/20/20
f 21/21/21 22/22/22 23/23/23
f 22/22/22 21/21/21 24/24/24
f 25/25/25 26/26/26 27/27/27
f 26/26/26 25/25/25 28/28/28
f 29/29/29 30/30/30 31/31/31
f 30/30/30 29/29/29 32/32/32
f 33/33/33 34/34/34 35/35/35
f 34/34/34 33/33/33 36/36/36
f 37/37/37 38/38/38 39/39/39
f 39/39/39 38/38/38 40/40/40
f 41/41/41 42/42/42 43/43/43
f 42/42/42 41/41/41 44/44/44
f 45/45/45 46/46/46 47/47/47
f 46/46/46 45/45/45 48/48/48
f 49/49/49 50/50/50 51/51/51
f 50/50/50 49/49/49 52/52/52
f 53/53/53 54/54/54 55/55/55
f 54/54/54 53/53/53 56/56/56
f 57/57/57 58/58/58 59/59/59
f 58/58/58 57/57/57 60/60/60
f 61/61/61 62/62/62 63/63/63
f 62/62/62 61/61/61 64/64/64
f 65/65/65 66/66/66 67/67/67
f 67/67/67 66/66/66 68/68/68
f 69/69/69 70/70/70 71/71/71
f 70/70/70 69/69/69 72/72/72
f 73/73/73 74/74/74 75/75/75
f 74/74/74 73/73/73 76/76/76
f 77/77/77 78/78/78 79/79/79
f 78/78/78 77/77/77 80/80/80
f 81/81/81 82/82/82 83/83/83
f 83/83/83 82/82/82 84/84/84
f 85/85/85 86/86/86 87/87/87
f 86/86/86 85/85/85 88/88/88
f 89/89/89 90/90/90 91/91/91
f 91/91/91 90/90/90 92/92/92
f 93/93/93 94/94/94 95/95/95
f 94/94/94 93/93/93 96/96/96
f 97/97/97 98/98/98 99/99/99
f 98/98/98 97/97/97 100/100/100
f 101/101/101 102/102/102 103/103/103
f 102/102/102 101/101/101 104/104/104
f 105/105/105 106/106/106 107/107/107
f 106/106/106 105/105/105 108/108/108
f 109/109/109 110/110/110 111/111/111
f 110/110/110 109/109/109 112/112/112
f 113/113/113 114/114/114 115/115/115
f 114/114/114 113/113/113 116/116/116
f 117/117/117 118/118/118 119/119/119
f 118/118/118 117/117/117 120/120/120
f 121/121/121 122/122/122 123/123/123
f 122/122/122 121/121/121 124/124/124
f 125/125/125 126/126/126 127/127/127
f 126/126/126 125/125/125 128/128/128
f 129/129/129 130/130/130 131/131/131
f 130/130/130 129/129/129 132/132/132
f 133/133/133 134/134/134 135/135/135
f 135/135/135 134/134/134 136/136/136
f 137/137/137 138/138/138 139/139/139
f 138/138/138 137/137/137 140/140/140
f 138/138/138 141/141/141 139/139/139
f 141/141/141 138/138/138 142/142/142
f 143/143/143 144/144/144 145/145/145
f 144/144/144 143/143/143 146/146/146
f 147/147/147 148/148/148 149/149/149
f 148/148/148 147/147/147 150/150/150
f 151/151/151 152/152/152 153/153/153
f 152/152/152 151/151/151 154/154/154
f 155/155/155 156/156/156 157/157/157
f 156/156/156 155/155/155 158/158/158
f 159/159/159 160/160/160 161/161/161
f 160/160/160 159/159/159 162/162/162
f 163/163/163 164/164/164 165/165/165
f 164/164/164 163/163/163 166/166/166
f 167/167/167 168/168/168 169/169/169
f 168/168/168 167/167/167 170/170/170
f 171/171/171 172/172/172 173/173/173
f 172/172/172 171/171/171 174/174/174
f 175/175/175 176/176/176 177/177/177
f 176/176/176 175/175/175 178/178/178
f 179/179/179 180/180/180 181/181/181
f 180/180/180 182/182/182 181/181/181
f 183/183/183 184/184/184 185/185/185
f 184/184/184 183/183/183 186/186/186
f 187/187/187 188/188/188 189/189/189
f 188/188/188 187/187/187 190/190/190
f 191/191/191 192/192/192 193/193/193
f 192/192/192 191/191/191 194/194/194
f 195/195/195 196/196/196 197/197/197
f 196/196/196 195/195/195 198/198/198
f 199/199/199 200/200/200 201/201/201
f 200/200/200 199/199/199 202/202/202
f 203/203/203 204/204/204 205/205/205
f 204/204/204 203/203/203 206/206/206
f 207/207/207 208/208/208 209/209/209
f 208/208/208 207/207/207 210/210/210
f 210/210/210 211/211/211 208/208/208
f 211/211/211 210/210/210 212/212/212
f 213/213/213 214/214/214 215/215/215
f 215/215/215 214/214/214 216/216/216
f 217/217/217 218/218/218 219/219/219
f 218/218/218 217/217/217 220/220/220
f 221/221/221 222/222/222 223/223/223
f 222/222/222 221/221/221 224/224/224
f 225/225/225 226/226/226 227/227/227
f 227/227/227 226/226/226 228/228/228
f 229/229/229 230/230/230 231/231/231
f 229/229/229 231/231/231 232/232/232
f 233/233/233 234/234/234 235/235/235
f 233/233/233 236/236/236 234/234/234
