# Generated from Roblox mesh JSON (v7.00)
# Hello from RBX_Toolbox ;)
o RightLowerLeg_inner_cage
v -0.329813 0.378336 -0.406447
v -0.329670 0.260681 -0.010166
v -0.329760 0.378336 -0.002832
v -0.329841 0.480282 -0.406286
v -0.329786 0.480283 0.046511
v -0.329717 0.260680 -0.407217
v -0.329533 0.137087 -0.016923
v -0.329569 0.137086 -0.407533
v -0.329372 -0.017878 -0.021412
v -0.329390 -0.017878 -0.407533
v -0.329326 -0.153738 -0.024515
v -0.329326 -0.153711 -0.407533
v -0.329326 -0.303806 -0.407533
v -0.329326 -0.306780 -0.022095
v -0.335881 -0.472283 -0.403025
v -0.335881 -0.480108 -0.001615
v -0.329760 0.378336 -0.002832
v -0.329722 0.260681 0.333514
v -0.329821 0.378336 0.328396
v -0.329786 0.480283 0.046511
v -0.329850 0.480282 0.325647
v -0.329670 0.260681 -0.010166
v -0.329570 0.137087 0.339278
v -0.329533 0.137087 -0.016923
v -0.329387 -0.017878 0.339496
v -0.329372 -0.017878 -0.021412
v -0.329326 -0.153738 -0.024515
v -0.329326 -0.153738 0.357928
v -0.329326 -0.306780 -0.022095
v -0.329326 -0.303688 0.376435
v -0.335881 -0.480108 -0.001615
v -0.335881 -0.480108 0.407473
v -0.030514 0.378336 0.328301
v -0.329722 0.260681 0.333514
v -0.027921 0.260681 0.333473
v -0.329570 0.137087 0.339278
v -0.329821 0.378336 0.328396
v -0.031132 0.480283 0.325542
v -0.329850 0.480282 0.325647
v 0.289880 0.378337 0.328012
v 0.295395 0.480283 0.372976
v 0.284374 0.260681 0.333115
v 0.297471 0.480283 0.283844
v -0.022898 0.137087 0.339331
v -0.329387 -0.017878 0.339496
v 0.291961 0.378337 0.286116
v -0.014911 -0.017878 0.339333
v -0.329326 -0.153738 0.357928
v 0.284981 0.137087 0.338828
v 0.286666 0.260681 0.288743
v 0.305394 0.378337 0.004427
v 0.311081 0.480283 0.005844
v 0.297612 0.480283 -0.271201
v 0.287737 0.137087 0.291503
v 0.299953 0.260681 -0.003660
v 0.291962 0.378336 -0.270350
v 0.285596 0.378336 -0.403635
v 0.291424 0.480282 -0.403250
v 0.286651 0.260681 -0.271875
v 0.004419 0.480282 -0.405978
v 0.301164 0.137087 -0.012207
v 0.280088 0.260681 -0.405343
v 0.004373 0.378336 -0.406137
v -0.329841 0.480282 -0.406286
v -0.329813 0.378336 -0.406447
v -0.329717 0.260680 -0.407217
v 0.006182 0.260680 -0.407011
v -0.329569 0.137086 -0.407533
v 0.010792 0.137087 -0.407497
v -0.329390 -0.017878 -0.407533
v 0.287782 0.137087 -0.273678
v 0.280811 0.137087 -0.407203
v 0.018949 -0.017878 -0.407533
v -0.329326 -0.153711 -0.407533
v 0.290323 -0.017878 -0.407533
v 0.027089 -0.153738 -0.407533
v -0.329326 -0.303806 -0.407533
v 0.298299 -0.017878 -0.273053
v 0.304538 -0.153738 -0.407533
v 0.035006 -0.306030 -0.407533
v 0.036422 -0.471608 -0.403025
v -0.335881 -0.472283 -0.403025
v 0.313836 -0.304007 -0.407533
v 0.335853 -0.472600 -0.403025
v 0.313687 -0.153738 -0.268628
v 0.324121 -0.307040 -0.264292
v 0.335868 -0.474505 -0.261557
v 0.315041 -0.153738 -0.023164
v 0.325283 -0.305838 -0.022035
v 0.335881 -0.480283 -0.001615
v 0.299263 -0.017878 -0.018162
v 0.298976 -0.017878 0.289761
v 0.325271 -0.305437 0.323118
v 0.315175 -0.153738 0.306103
v 0.335881 -0.480108 0.349230
v 0.295454 -0.017878 0.339001
v 0.310948 -0.153738 0.357393
v -0.007530 -0.153738 0.357654
v -0.329326 -0.303688 0.376435
v 0.000424 -0.305458 0.376634
v -0.335881 -0.480108 0.407473
v 0.018315 -0.480104 0.407533
v 0.320390 -0.303104 0.376418
v 0.335881 -0.480108 0.407080
vt 2.793036 -0.698511
vt 2.908824 -0.605312
vt 2.908824 -0.698511
vt 2.793036 -0.792453
vt 2.908824 -0.792453
vt 2.793036 -0.605312
vt 2.908824 -0.536557
vt 2.793036 -0.536557
vt 2.908824 -0.441824
vt 2.793036 -0.439684
vt 2.908824 -0.353774
vt 2.793036 -0.353774
vt 2.793036 -0.266038
vt 2.908824 -0.266038
vt 2.793036 -0.207547
vt 2.908824 -0.207547
vt 2.091176 -0.698511
vt 2.219756 -0.605312
vt 2.219756 -0.698511
vt 2.091176 -0.792453
vt 2.219756 -0.792453
vt 2.091176 -0.605312
vt 2.219756 -0.536557
vt 2.091176 -0.536557
vt 2.219756 -0.436622
vt 2.091176 -0.441824
vt 2.091176 -0.353774
vt 2.219756 -0.353774
vt 2.091176 -0.266038
vt 2.219756 -0.266038
vt 2.091176 -0.207547
vt 2.219756 -0.207547
vt 2.283767 -0.698511
vt 2.219756 -0.605312
vt 2.283767 -0.605312
vt 2.219756 -0.536557
vt 2.219756 -0.698511
vt 2.283767 -0.792453
vt 2.219756 -0.792453
vt 2.315774 -0.698511
vt 2.315774 -0.792453
vt 2.315774 -0.605312
vt 2.347780 -0.792453
vt 2.283767 -0.536557
vt 2.219756 -0.436622
vt 2.347780 -0.698511
vt 2.283767 -0.434716
vt 2.219756 -0.353774
vt 2.315774 -0.536557
vt 2.347780 -0.605312
vt 2.457450 -0.698511
vt 2.457450 -0.792453
vt 2.619125 -0.792453
vt 2.347780 -0.536557
vt 2.457450 -0.605312
vt 2.619125 -0.698511
vt 2.662603 -0.698511
vt 2.662603 -0.792453
vt 2.619125 -0.605312
vt 2.749558 -0.792453
vt 2.457450 -0.536557
vt 2.662603 -0.605312
vt 2.749558 -0.698511
vt 2.793036 -0.792453
vt 2.793036 -0.698511
vt 2.793036 -0.605312
vt 2.749558 -0.605312
vt 2.793036 -0.536557
vt 2.749558 -0.536557
vt 2.793036 -0.439684
vt 2.619125 -0.536557
vt 2.662603 -0.536557
vt 2.749558 -0.438862
vt 2.793036 -0.353774
vt 2.662603 -0.437218
vt 2.749558 -0.353774
vt 2.793036 -0.266038
vt 2.619125 -0.436396
vt 2.662603 -0.353774
vt 2.749558 -0.266038
vt 2.749558 -0.207547
vt 2.793036 -0.207547
vt 2.662603 -0.266038
vt 2.662603 -0.207547
vt 2.619125 -0.353774
vt 2.619125 -0.266038
vt 2.619125 -0.207547
vt 2.457450 -0.353774
vt 2.457450 -0.266038
vt 2.457450 -0.207547
vt 2.457450 -0.433402
vt 2.347780 -0.432810
vt 2.347780 -0.266038
vt 2.347780 -0.353774
vt 2.347780 -0.207547
vt 2.315774 -0.433763
vt 2.315774 -0.353774
vt 2.283767 -0.353774
vt 2.219756 -0.266038
vt 2.283767 -0.266038
vt 2.219756 -0.207547
vt 2.283767 -0.207547
vt 2.315774 -0.266038
vt 2.315774 -0.207547
vn -1.000000 -0.000753 0.000410
vn -1.000000 -0.000753 0.000410
vn -1.000000 -0.000753 0.000410
vn -1.000000 -0.000753 0.000410
vn -1.000000 0.000224 -0.000567
vn -1.000000 -0.000753 0.000410
vn -1.000000 -0.000753 0.000410
vn -1.000000 -0.000753 0.000410
vn -1.000000 -0.000753 0.000410
vn -1.000000 -0.000753 0.000410
vn -1.000000 0.000224 0.000410
vn -1.000000 0.000224 0.000410
vn -1.000000 0.018787 0.000410
vn -1.000000 0.018787 0.000410
vn -0.999023 0.038326 0.000410
vn -0.999023 0.038326 0.000410
vn -1.000000 -0.000753 0.000410
vn -1.000000 -0.000753 -0.000567
vn -1.000000 -0.000753 -0.000567
vn -1.000000 0.000224 -0.000567
vn -1.000000 0.000224 -0.000567
vn -1.000000 -0.000753 0.000410
vn -1.000000 -0.000753 -0.000567
vn -1.000000 -0.000753 0.000410
vn -1.000000 -0.000753 0.000410
vn -1.000000 -0.000753 0.000410
vn -1.000000 0.000224 0.000410
vn -1.000000 0.000224 0.000410
vn -1.000000 0.018787 0.000410
vn -1.000000 0.020741 0.000410
vn -0.999023 0.038326 0.000410
vn -0.999023 0.037349 -0.000567
vn -0.017176 -0.022246 0.999842
vn 0.000410 0.045165 0.998865
vn 0.000410 0.045165 0.998865
vn 0.000410 0.023671 0.999842
vn 0.000410 0.035395 0.999842
vn -0.035738 -0.086725 0.995934
vn 0.000410 0.026602 0.999842
vn 0.318899 -0.041785 0.947086
vn -0.093379 -0.276256 0.956856
vn 0.156723 0.026602 0.987142
vn 0.997888 -0.057416 0.040465
vn 0.000410 0.023671 0.999842
vn 0.000410 0.067635 0.997888
vn 0.997888 -0.051555 0.044373
vn 0.000410 0.067635 0.997888
vn 0.000410 0.129183 0.992026
vn 0.132299 -0.000753 0.991049
vn 0.998865 -0.018338 0.049258
vn 0.998865 -0.050578 0.000410
vn 0.998865 -0.055462 0.000410
vn 0.996911 -0.055462 -0.047462
vn 0.998865 0.029533 0.047304
vn 0.999842 -0.017361 -0.002521
vn 0.997888 -0.049601 -0.048439
vn 0.282752 -0.007591 -0.958968
vn 0.322807 -0.077933 -0.943336
vn 0.998865 -0.017361 -0.049416
vn 0.005294 0.002178 -1.000000
vn 0.999842 0.019764 -0.003498
vn 0.267120 -0.014430 -0.963852
vn 0.004317 0.005109 -1.000000
vn 0.001386 0.001201 -1.000000
vn 0.000410 0.004132 -1.000000
vn 0.000410 0.005109 -1.000000
vn 0.003340 0.008040 -1.000000
vn 0.000410 0.001201 -1.000000
vn 0.001386 0.003155 -1.000000
vn 0.000410 0.000224 -1.000000
vn 0.998865 0.028556 -0.046485
vn 0.258328 -0.001730 -0.965806
vn 0.000410 0.000224 -1.000000
vn 0.000410 0.000224 -1.000000
vn 0.245627 0.111598 -0.962875
vn 0.000410 0.000224 -1.000000
vn 0.000410 -0.013453 -1.000000
vn 0.995934 0.078381 -0.037692
vn 0.264189 0.114529 -0.957991
vn 0.000410 -0.013453 -1.000000
vn 0.000410 -0.027131 -1.000000
vn 0.000410 -0.027131 -1.000000
vn 0.264189 -0.024200 -0.963852
vn 0.381425 0.131137 -0.915004
vn 0.995934 0.088151 -0.034761
vn 0.996911 0.074474 -0.026945
vn 0.996911 0.081312 -0.017176
vn 0.995934 0.091082 -0.002521
vn 0.997888 0.064704 -0.001544
vn 0.997888 0.062750 -0.000567
vn 0.997888 0.071543 -0.002521
vn 0.995934 0.085220 0.039488
vn 0.996911 0.070566 0.031672
vn 0.994957 0.095967 0.040465
vn 0.996911 0.071543 0.022880
vn 0.190917 0.047119 0.980303
vn 0.169424 0.056888 0.984211
vn 0.000410 0.129183 0.992026
vn 0.000410 0.148723 0.989095
vn 0.000410 0.148723 0.989095
vn 0.000410 0.174124 0.985188
vn 0.000410 0.173147 0.985188
vn 0.190917 0.063727 0.979326
vn 0.127415 0.264981 0.955879
f 1/1/1 2/2/2 3/3/3
f 3/3/3 4/4/4 1/1/1
f 4/4/4 3/3/3 5/5/5
f 2/2/2 1/1/1 6/6/6
f 6/6/6 7/7/7 2/2/2
f 8/8/8 7/7/7 6/6/6
f 8/8/8 9/9/9 7/7/7
f 10/10/10 9/9/9 8/8/8
f 10/10/10 11/11/11 9/9/9
f 11/11/11 10/10/10 12/12/12
f 13/13/13 11/11/11 12/12/12
f 11/11/11 13/13/13 14/14/14
f 15/15/15 14/14/14 13/13/13
f 14/14/14 15/15/15 16/16/16
f 17/17/17 18/18/18 19/19/19
f 19/19/19 20/20/20 17/17/17
f 20/20/20 19/19/19 21/21/21
f 18/18/18 17/17/17 22/22/22
f 22/22/22 23/23/23 18/18/18
f 24/24/24 23/23/23 22/22/22
f 24/24/24 25/25/25 23/23/23
f 26/26/26 25/25/25 24/24/24
f 27/27/27 25/25/25 26/26/26
f 25/25/25 27/27/27 28/28/28
f 29/29/29 28/28/28 27/27/27
f 28/28/28 29/29/29 30/30/30
f 31/31/31 30/30/30 29/29/29
f 30/30/30 31/31/31 32/32/32
f 33/33/33 34/34/34 35/35/35
f 36/36/36 35/35/35 34/34/34
f 34/34/34 33/33/33 37/37/37
f 38/38/38 37/37/37 33/33/33
f 37/37/37 38/38/38 39/39/39
f 40/40/40 38/38/38 33/33/33
f 38/38/38 40/40/40 41/41/41
f 35/35/35 42/42/42 33/33/33
f 40/40/40 33/33/33 42/42/42
f 40/40/40 43/43/43 41/41/41
f 35/35/35 36/36/36 44/44/44
f 44/44/44 42/42/42 35/35/35
f 45/45/45 44/44/44 36/36/36
f 43/43/43 40/40/40 46/46/46
f 44/44/44 45/45/45 47/47/47
f 48/48/48 47/47/47 45/45/45
f 44/44/44 49/49/49 42/42/42
f 47/47/47 49/49/49 44/44/44
f 50/50/50 40/40/40 42/42/42
f 50/50/50 46/46/46 40/40/40
f 51/51/51 43/43/43 46/46/46
f 50/50/50 51/51/51 46/46/46
f 43/43/43 51/51/51 52/52/52
f 51/51/51 53/53/53 52/52/52
f 54/54/54 42/42/42 49/49/49
f 54/54/54 50/50/50 42/42/42
f 51/51/51 50/50/50 55/55/55
f 54/54/54 55/55/55 50/50/50
f 53/53/53 51/51/51 56/56/56
f 55/55/55 56/56/56 51/51/51
f 57/57/57 53/53/53 56/56/56
f 57/57/57 58/58/58 53/53/53
f 56/56/56 55/55/55 59/59/59
f 59/59/59 57/57/57 56/56/56
f 57/57/57 60/60/60 58/58/58
f 61/61/61 59/59/59 55/55/55
f 55/55/55 54/54/54 61/61/61
f 57/57/57 59/59/59 62/62/62
f 60/60/60 57/57/57 63/63/63
f 63/63/63 57/57/57 62/62/62
f 63/63/63 64/64/64 60/60/60
f 64/64/64 63/63/63 65/65/65
f 63/63/63 66/66/66 65/65/65
f 66/66/66 63/63/63 67/67/67
f 63/63/63 62/62/62 67/67/67
f 66/66/66 67/67/67 68/68/68
f 69/69/69 68/68/68 67/67/67
f 62/62/62 69/69/69 67/67/67
f 68/68/68 69/69/69 70/70/70
f 71/71/71 62/62/62 59/59/59
f 59/59/59 61/61/61 71/71/71
f 69/69/69 62/62/62 72/72/72
f 62/62/62 71/71/71 72/72/72
f 73/73/73 70/70/70 69/69/69
f 69/69/69 72/72/72 73/73/73
f 70/70/70 73/73/73 74/74/74
f 75/75/75 72/72/72 71/71/71
f 75/75/75 73/73/73 72/72/72
f 76/76/76 74/74/74 73/73/73
f 75/75/75 76/76/76 73/73/73
f 74/74/74 76/76/76 77/77/77
f 75/75/75 71/71/71 78/78/78
f 76/76/76 75/75/75 79/79/79
f 79/79/79 75/75/75 78/78/78
f 80/80/80 77/77/77 76/76/76
f 79/79/79 80/80/80 76/76/76
f 81/81/81 77/77/77 80/80/80
f 77/77/77 81/81/81 82/82/82
f 80/80/80 83/83/83 81/81/81
f 80/80/80 79/79/79 83/83/83
f 84/84/84 81/81/81 83/83/83
f 79/79/79 78/78/78 85/85/85
f 83/83/83 79/79/79 85/85/85
f 84/84/84 83/83/83 86/86/86
f 83/83/83 85/85/85 86/86/86
f 84/84/84 86/86/86 87/87/87
f 78/78/78 88/88/88 85/85/85
f 85/85/85 88/88/88 86/86/86
f 87/87/87 86/86/86 89/89/89
f 86/86/86 88/88/88 89/89/89
f 87/87/87 89/89/89 90/90/90
f 88/88/88 78/78/78 91/91/91
f 71/71/71 91/91/91 78/78/78
f 91/91/91 71/71/71 61/61/61
f 61/61/61 92/92/92 91/91/91
f 91/91/91 92/92/92 88/88/88
f 92/92/92 61/61/61 54/54/54
f 89/89/89 93/93/93 90/90/90
f 88/88/88 94/94/94 89/89/89
f 88/88/88 92/92/92 94/94/94
f 89/89/89 94/94/94 93/93/93
f 90/90/90 93/93/93 95/95/95
f 54/54/54 96/96/96 92/92/92
f 94/94/94 92/92/92 96/96/96
f 96/96/96 54/54/54 49/49/49
f 47/47/47 96/96/96 49/49/49
f 94/94/94 96/96/96 97/97/97
f 93/93/93 94/94/94 97/97/97
f 98/98/98 96/96/96 47/47/47
f 98/98/98 97/97/97 96/96/96
f 47/47/47 48/48/48 98/98/98
f 99/99/99 98/98/98 48/48/48
f 98/98/98 99/99/99 100/100/100
f 100/100/100 97/97/97 98/98/98
f 101/101/101 100/100/100 99/99/99
f 100/100/100 101/101/101 102/102/102
f 100/100/100 103/103/103 97/97/97
f 102/102/102 103/103/103 100/100/100
f 93/93/93 97/97/97 103/103/103
f 102/102/102 104/104/104 103/103/103
f 95/95/95 93/93/93 103/103/103
f 95/95/95 103/103/103 104/104/104
