# Generated from Roblox mesh JSON (v7.00)
# Hello from RBX_Toolbox ;)
o RightUpperLeg_inner_cage
v -0.357008 0.135565 -0.035469
v -0.357008 0.172349 0.405144
v -0.357008 0.282221 -0.028298
v -0.357008 0.324940 0.384854
v -0.344741 0.354640 0.007743
v -0.345962 0.434982 0.361914
v -0.357082 -0.007908 0.416840
v -0.357118 -0.035803 -0.032914
v -0.351762 -0.156214 0.414307
v -0.351773 -0.172993 -0.026916
v -0.348715 -0.298711 0.387215
v -0.348676 -0.303048 -0.018912
v -0.345635 -0.408976 0.356226
v -0.345634 -0.407326 -0.011373
v -0.343937 -0.525755 0.324601
v -0.343873 -0.525991 -0.002355
v 0.016582 -0.040546 -0.417424
v -0.357008 0.113303 -0.417586
v 0.028195 0.129161 -0.416867
v -0.357008 0.251830 -0.408309
v 0.034329 0.276070 -0.408615
v -0.357165 -0.044913 -0.417424
v 0.333104 0.158173 -0.416942
v 0.309228 0.315092 -0.415392
v 0.339810 -0.024043 -0.417424
v 0.007038 -0.175518 -0.415117
v -0.351823 -0.174474 -0.415097
v 0.337343 -0.168397 -0.415032
v 0.348411 -0.020790 -0.308489
v 0.341304 0.167433 -0.314217
v 0.317181 0.328983 -0.314612
v 0.349282 0.184892 -0.033608
v 0.357165 -0.014307 -0.016365
v 0.337526 0.198158 0.274043
v 0.346512 -0.168663 -0.303105
v 0.320896 -0.302923 -0.408337
v 0.000619 -0.303679 -0.409755
v 0.318380 0.370456 0.253592
v 0.276380 0.384523 0.330985
v 0.311597 0.210156 0.395860
v -0.039462 0.180670 0.407869
v -0.038321 0.342903 0.387304
v 0.324511 0.353265 -0.038684
v 0.285069 0.515563 0.189246
v 0.297372 0.503766 -0.040453
v 0.283770 0.477301 -0.293337
v 0.244372 0.451870 -0.365080
v 0.309228 0.315092 -0.415392
v 0.034329 0.276070 -0.408615
v 0.040056 0.368149 -0.376224
v -0.346391 0.326011 -0.377555
v -0.357008 0.251830 -0.408309
v -0.357008 0.282221 -0.028298
v -0.344741 0.354640 0.007743
v -0.357008 0.251830 -0.408309
v -0.357008 0.135565 -0.035469
v -0.357008 0.113303 -0.417586
v -0.357118 -0.035803 -0.032914
v -0.357165 -0.044913 -0.417424
v -0.351823 -0.174474 -0.415097
v -0.351773 -0.172993 -0.026916
v -0.348732 -0.303156 -0.409804
v -0.348676 -0.303048 -0.018912
v -0.345632 -0.409535 -0.404723
v -0.345634 -0.407326 -0.011373
v -0.343928 -0.526084 -0.407335
v -0.343873 -0.525991 -0.002355
v -0.348732 -0.303156 -0.409804
v -0.345632 -0.409535 -0.404723
v -0.012053 -0.526065 -0.407051
v -0.343928 -0.526084 -0.407335
v -0.001653 -0.409513 -0.404569
v 0.279688 -0.525951 -0.404299
v 0.301006 -0.409344 -0.402119
v 0.311229 -0.409340 -0.281542
v 0.290532 -0.525954 -0.274958
v 0.330838 -0.303503 -0.289654
v 0.320183 -0.409308 -0.005026
v 0.299350 -0.525940 0.004798
v 0.340018 -0.304289 -0.005928
v 0.355817 -0.168776 -0.013490
v 0.312694 -0.409075 0.263665
v 0.292642 -0.525798 0.255900
v 0.283677 -0.525774 0.324114
v 0.331985 -0.302434 0.278264
v 0.302486 -0.409052 0.355661
v -0.036291 -0.408999 0.355879
v -0.045220 -0.525741 0.324495
v -0.345635 -0.408976 0.356226
v -0.343937 -0.525755 0.324601
v -0.036410 -0.299594 0.386764
v -0.348715 -0.298711 0.387215
v 0.320572 -0.300391 0.386030
v 0.347082 -0.163821 0.288160
v -0.037088 -0.159875 0.414020
v -0.351762 -0.156214 0.414307
v 0.334363 -0.158586 0.412592
v 0.348051 -0.005630 0.288306
v 0.311597 0.210156 0.395860
v 0.335448 0.002705 0.414493
v 0.335448 0.002705 0.414493
v -0.038271 -0.010269 0.417586
v -0.357082 -0.007908 0.416840
v -0.357008 0.172349 0.405144
v -0.357008 0.324940 0.384854
v -0.345962 0.434982 0.361914
v -0.039638 0.460354 0.330317
v 0.230821 0.526084 0.262450
v 0.276380 0.384523 0.330985
v 0.318380 0.370456 0.253592
v 0.285069 0.515563 0.189246
vt 2.052537 -1.707134
vt 2.190971 -1.706690
vt 2.052537 -1.848960
vt 2.190971 -1.848132
vt 2.052537 -1.893425
vt 2.190971 -1.893425
vt 2.190971 -1.529449
vt 2.052537 -1.529449
vt 2.190971 -1.394775
vt 2.052537 -1.394775
vt 2.190971 -1.293279
vt 2.052537 -1.293279
vt 2.190971 -1.179393
vt 2.052537 -1.179393
vt 2.190971 -1.108962
vt 2.052537 -1.108962
vt 2.773426 -1.529449
vt 2.821005 -1.694002
vt 2.757988 -1.688721
vt 2.821005 -1.824441
vt 2.763903 -1.814581
vt 2.821005 -1.529449
vt 2.662830 -1.683484
vt 2.668745 -1.804801
vt 2.678268 -1.529449
vt 2.773426 -1.394775
vt 2.821005 -1.394775
vt 2.678268 -1.394775
vt 2.630689 -1.529449
vt 2.630689 -1.683527
vt 2.630689 -1.804883
vt 2.452581 -1.683746
vt 2.452581 -1.529449
vt 2.329405 -1.684821
vt 2.630689 -1.394775
vt 2.678268 -1.293279
vt 2.773426 -1.293279
vt 2.329405 -1.807297
vt 2.296614 -1.812258
vt 2.296614 -1.687478
vt 2.263822 -1.690134
vt 2.263822 -1.817218
vt 2.452581 -1.805290
vt 2.329405 -1.893425
vt 2.452581 -1.893425
vt 2.630689 -1.893425
vt 2.674081 -1.893425
vt 2.668745 -1.804801
vt 2.763903 -1.814581
vt 2.821005 -1.893425
vt 2.884234 -1.861380
vt 2.821005 -1.824441
vt 2.947463 -1.795165
vt 2.947463 -1.829336
vt 2.821005 -1.824441
vt 2.947463 -1.696367
vt 2.821005 -1.694002
vt 2.947463 -1.529449
vt 2.821005 -1.529449
vt 2.821005 -1.394775
vt 2.947463 -1.394775
vt 2.821005 -1.293279
vt 2.947463 -1.293279
vt 2.821005 -1.179393
vt 2.947463 -1.179393
vt 2.821005 -1.108962
vt 2.947463 -1.108962
vt 2.821005 -1.293279
vt 2.821005 -1.179393
vt 2.773426 -1.108962
vt 2.821005 -1.108962
vt 2.773426 -1.179393
vt 2.678268 -1.108962
vt 2.678268 -1.179393
vt 2.630689 -1.179393
vt 2.630689 -1.108962
vt 2.630689 -1.293279
vt 2.452581 -1.179393
vt 2.452581 -1.108962
vt 2.452581 -1.293279
vt 2.452581 -1.394775
vt 2.329405 -1.179393
vt 2.329405 -1.108962
vt 2.296614 -1.108962
vt 2.329405 -1.293279
vt 2.296614 -1.179393
vt 2.263822 -1.179393
vt 2.263822 -1.108962
vt 2.190971 -1.179393
vt 2.190971 -1.108962
vt 2.263822 -1.293279
vt 2.190971 -1.293279
vt 2.296614 -1.293279
vt 2.329405 -1.394775
vt 2.263822 -1.394775
vt 2.190971 -1.394775
vt 2.296614 -1.394775
vt 2.329405 -1.529449
vt 2.296614 -1.687478
vt 2.296614 -1.529449
vt 2.296614 -1.529449
vt 2.263822 -1.529449
vt 2.190971 -1.529449
vt 2.190971 -1.706690
vt 2.190971 -1.848132
vt 2.190971 -1.893425
vt 2.263822 -1.893425
vt 2.296910 -1.893425
vt 2.296614 -1.812258
vt 2.329405 -1.807297
vt 2.329405 -1.893425
vn -1.000000 0.000362 0.000449
vn -1.000000 0.000362 0.000449
vn -0.997069 0.073635 -0.007367
vn -0.998046 0.059958 -0.010298
vn -0.990230 0.137138 -0.018114
vn -0.991207 0.128346 -0.022022
vn -1.000000 -0.018200 0.001426
vn -1.000000 -0.019177 0.000449
vn -1.000000 -0.030901 0.001426
vn -1.000000 -0.030901 0.000449
vn -1.000000 -0.025039 0.000449
vn -1.000000 -0.026016 0.000449
vn -1.000000 -0.023085 0.000449
vn -1.000000 -0.022108 0.000449
vn -1.000000 -0.014292 -0.000528
vn -1.000000 -0.014292 0.000449
vn 0.000419 -0.007453 -0.999971
vn -0.000558 0.030648 -0.999971
vn -0.004466 0.024787 -0.999971
vn -0.002512 0.060935 -0.998017
vn -0.009351 0.045303 -0.998994
vn 0.000419 -0.008430 -0.999971
vn 0.218284 0.077543 -0.972615
vn 0.171389 0.132253 -0.976523
vn 0.221215 0.005247 -0.975546
vn 0.001396 -0.030901 -0.999971
vn 0.000419 -0.028947 -0.999971
vn 0.221215 -0.116874 -0.968707
vn 0.997907 0.011109 -0.055239
vn 0.994000 0.092198 -0.061101
vn 0.964690 0.225066 -0.135350
vn 0.995953 0.090244 -0.004436
vn 0.999861 0.016971 0.000449
vn 0.985207 0.121507 0.122570
vn 0.995953 -0.068026 -0.057193
vn 0.222192 -0.069003 -0.972615
vn 0.002373 -0.047509 -0.998994
vn 0.975437 0.183056 0.121593
vn -0.334682 0.244605 0.910009
vn -0.173482 0.317878 0.932480
vn 0.017028 0.126392 0.992075
vn 0.046337 0.288569 0.955927
vn 0.985207 0.170355 -0.013229
vn 0.978368 0.205526 0.022919
vn 0.979345 0.203572 -0.016160
vn 0.944174 0.279776 -0.171498
vn -0.077739 0.397013 -0.913997
vn -0.088485 0.477125 -0.873941
vn -0.049406 0.341325 -0.938421
vn -0.055268 0.337418 -0.939398
vn -0.799721 0.320809 -0.506600
vn -0.699093 0.350118 -0.622859
vn -0.997069 0.073635 -0.007367
vn -0.990230 0.137138 -0.018114
vn -1.000000 0.000362 0.000449
vn -1.000000 0.000362 0.000449
vn -1.000000 0.000362 0.000449
vn -1.000000 -0.019177 0.000449
vn -1.000000 -0.020154 0.000449
vn -0.999023 -0.031878 0.000449
vn -1.000000 -0.030901 0.000449
vn -1.000000 -0.026016 0.000449
vn -1.000000 -0.026016 0.000449
vn -1.000000 -0.022108 0.000449
vn -1.000000 -0.022108 0.000449
vn -1.000000 -0.014292 0.000449
vn -1.000000 -0.014292 0.000449
vn 0.000419 -0.044578 -0.998994
vn 0.000419 -0.014292 -0.999971
vn 0.004327 0.020879 -0.999971
vn 0.000419 0.021856 -0.999971
vn 0.004327 -0.015269 -0.999971
vn 0.093231 -0.151068 -0.984339
vn 0.201675 -0.223364 -0.954053
vn 0.981299 -0.182331 -0.057193
vn 0.982276 -0.177447 -0.056216
vn 0.986184 -0.153022 -0.057193
vn 0.983253 -0.179401 -0.002482
vn 0.984230 -0.174516 -0.000528
vn 0.989115 -0.149114 -0.000528
vn 0.997907 -0.062164 -0.001505
vn 0.980322 -0.182331 0.068837
vn 0.981299 -0.177447 0.070791
vn 0.070761 -0.404104 0.911963
vn 0.986184 -0.151068 0.068837
vn 0.158689 -0.118828 0.980351
vn 0.000419 -0.265374 0.963743
vn 0.000419 -0.260489 0.965697
vn 0.000419 -0.266351 0.963743
vn 0.000419 -0.260489 0.965697
vn 0.001396 -0.230203 0.973513
vn 0.000419 -0.229226 0.973513
vn 0.079554 -0.228249 0.970582
vn 0.995953 -0.061187 0.067860
vn 0.002373 -0.104174 0.995006
vn -0.000558 -0.102220 0.995006
vn 0.093231 -0.004523 0.995983
vn 0.996930 0.031625 0.077629
vn 0.023866 0.113691 0.993052
vn 0.099093 -0.039694 0.994029
vn 0.073692 0.147885 0.986213
vn 0.004327 0.022833 0.999891
vn -0.003489 0.018925 0.999891
vn -0.009351 0.093175 0.995983
vn 0.002373 0.223112 0.974490
vn 0.020936 0.330579 0.943226
vn 0.066853 0.396036 0.915871
vn 0.517237 0.459539 0.721454
vn 0.561201 0.474194 0.678467
vn 0.793720 0.421437 0.438132
vn 0.793720 0.421437 0.438132
f 1/1/1 2/2/2 3/3/3
f 3/3/3 2/2/2 4/4/4
f 3/3/3 4/4/4 5/5/5
f 5/5/5 4/4/4 6/6/6
f 1/1/1 7/7/7 2/2/2
f 8/8/8 7/7/7 1/1/1
f 8/8/8 9/9/9 7/7/7
f 9/9/9 8/8/8 10/10/10
f 10/10/10 11/11/11 9/9/9
f 11/11/11 10/10/10 12/12/12
f 11/11/11 12/12/12 13/13/13
f 13/13/13 12/12/12 14/14/14
f 14/14/14 15/15/15 13/13/13
f 15/15/15 14/14/14 16/16/16
f 17/17/17 18/18/18 19/19/19
f 20/20/20 19/19/19 18/18/18
f 19/19/19 20/20/20 21/21/21
f 18/18/18 17/17/17 22/22/22
f 21/21/21 23/23/23 19/19/19
f 23/23/23 21/21/21 24/24/24
f 19/19/19 25/25/25 17/17/17
f 25/25/25 19/19/19 23/23/23
f 26/26/26 22/22/22 17/17/17
f 22/22/22 26/26/26 27/27/27
f 17/17/17 25/25/25 28/28/28
f 17/17/17 28/28/28 26/26/26
f 23/23/23 29/29/29 25/25/25
f 28/28/28 25/25/25 29/29/29
f 24/24/24 30/30/30 23/23/23
f 29/29/29 23/23/23 30/30/30
f 30/30/30 24/24/24 31/31/31
f 31/31/31 32/32/32 30/30/30
f 29/29/29 30/30/30 32/32/32
f 29/29/29 32/32/32 33/33/33
f 33/33/33 32/32/32 34/34/34
f 28/28/28 29/29/29 35/35/35
f 29/29/29 33/33/33 35/35/35
f 36/36/36 28/28/28 35/35/35
f 26/26/26 28/28/28 36/36/36
f 26/26/26 36/36/36 37/37/37
f 37/37/37 27/27/27 26/26/26
f 34/34/34 38/38/38 39/39/39
f 34/34/34 39/39/39 40/40/40
f 39/39/39 41/41/41 40/40/40
f 32/32/32 38/38/38 34/34/34
f 41/41/41 39/39/39 42/42/42
f 32/32/32 43/43/43 38/38/38
f 43/43/43 44/44/44 38/38/38
f 43/43/43 45/45/45 44/44/44
f 43/43/43 46/46/46 45/45/45
f 46/46/46 43/43/43 31/31/31
f 32/32/32 31/31/31 43/43/43
f 31/31/31 47/47/47 46/46/46
f 47/47/47 31/31/31 48/48/48
f 49/49/49 47/47/47 48/48/48
f 47/47/47 49/49/49 50/50/50
f 49/49/49 51/51/51 50/50/50
f 51/51/51 49/49/49 52/52/52
f 52/52/52 53/53/53 51/51/51
f 54/54/54 51/51/51 53/53/53
f 55/55/55 56/56/56 53/53/53
f 57/57/57 56/56/56 55/55/55
f 57/57/57 58/58/58 56/56/56
f 59/59/59 58/58/58 57/57/57
f 60/60/60 58/58/58 59/59/59
f 58/58/58 60/60/60 61/61/61
f 62/62/62 61/61/61 60/60/60
f 61/61/61 62/62/62 63/63/63
f 64/64/64 63/63/63 62/62/62
f 63/63/63 64/64/64 65/65/65
f 66/66/66 65/65/65 64/64/64
f 65/65/65 66/66/66 67/67/67
f 27/27/27 37/37/37 68/68/68
f 68/68/68 37/37/37 69/69/69
f 69/69/69 70/70/70 71/71/71
f 70/70/70 69/69/69 72/72/72
f 72/72/72 69/69/69 37/37/37
f 72/72/72 73/73/73 70/70/70
f 37/37/37 74/74/74 72/72/72
f 72/72/72 74/74/74 73/73/73
f 74/74/74 37/37/37 36/36/36
f 73/73/73 74/74/74 75/75/75
f 73/73/73 75/75/75 76/76/76
f 74/74/74 36/36/36 77/77/77
f 74/74/74 77/77/77 75/75/75
f 36/36/36 35/35/35 77/77/77
f 75/75/75 78/78/78 76/76/76
f 76/76/76 78/78/78 79/79/79
f 77/77/77 80/80/80 75/75/75
f 75/75/75 80/80/80 78/78/78
f 35/35/35 81/81/81 77/77/77
f 77/77/77 81/81/81 80/80/80
f 35/35/35 33/33/33 81/81/81
f 78/78/78 82/82/82 79/79/79
f 80/80/80 82/82/82 78/78/78
f 79/79/79 82/82/82 83/83/83
f 82/82/82 84/84/84 83/83/83
f 82/82/82 80/80/80 85/85/85
f 81/81/81 85/85/85 80/80/80
f 84/84/84 82/82/82 86/86/86
f 85/85/85 86/86/86 82/82/82
f 87/87/87 84/84/84 86/86/86
f 84/84/84 87/87/87 88/88/88
f 87/87/87 89/89/89 88/88/88
f 90/90/90 88/88/88 89/89/89
f 91/91/91 89/89/89 87/87/87
f 86/86/86 91/91/91 87/87/87
f 89/89/89 91/91/91 92/92/92
f 86/86/86 85/85/85 93/93/93
f 91/91/91 86/86/86 93/93/93
f 85/85/85 81/81/81 94/94/94
f 94/94/94 93/93/93 85/85/85
f 33/33/33 94/94/94 81/81/81
f 95/95/95 92/92/92 91/91/91
f 93/93/93 95/95/95 91/91/91
f 92/92/92 95/95/95 96/96/96
f 93/93/93 94/94/94 97/97/97
f 95/95/95 93/93/93 97/97/97
f 94/94/94 33/33/33 98/98/98
f 98/98/98 97/97/97 94/94/94
f 33/33/33 34/34/34 98/98/98
f 98/98/98 34/34/34 99/99/99
f 97/97/97 98/98/98 100/100/100
f 98/98/98 99/99/99 101/101/101
f 102/102/102 97/97/97 100/100/100
f 97/97/97 102/102/102 95/95/95
f 99/99/99 102/102/102 101/101/101
f 102/102/102 96/96/96 95/95/95
f 96/96/96 102/102/102 103/103/103
f 102/102/102 99/99/99 41/41/41
f 103/103/103 102/102/102 104/104/104
f 41/41/41 104/104/104 102/102/102
f 104/104/104 41/41/41 105/105/105
f 42/42/42 105/105/105 41/41/41
f 105/105/105 42/42/42 106/106/106
f 107/107/107 106/106/106 42/42/42
f 42/42/42 108/108/108 107/107/107
f 108/108/108 42/42/42 109/109/109
f 110/110/110 108/108/108 109/109/109
f 110/110/110 111/111/111 108/108/108
