# Generated from Roblox mesh JSON (v2.00)
# Hello from RBX_Toolbox ;)
o RightUpperLeg
v 0.089990 -0.359750 0.012494
v 0.095909 -0.096170 0.027415
v 0.087117 -0.359930 0.031225
v 0.100288 -0.095950 -0.003582
v 0.050206 -0.431100 0.012218
v 0.080456 0.151260 0.016075
v 0.077455 -0.359480 0.046680
v 0.075478 0.150990 0.054437
v 0.152980 0.227950 0.023376
v 0.156722 0.250660 0.088405
v 0.080286 -0.094780 0.053843
v 0.056452 0.153200 0.088201
v 0.064064 -0.359120 0.054509
v 0.058405 -0.093430 0.069539
v 0.113195 0.260180 0.145752
v 0.050044 -0.359230 0.056539
v 0.029659 0.155380 0.110842
v 0.035341 -0.093950 0.073967
v 0.035993 -0.357990 0.054938
v 0.077585 -0.359200 -0.021762
v 0.095909 -0.096170 -0.034580
v 0.087129 -0.359910 -0.006215
v 0.100288 -0.095950 -0.003582
v 0.089990 -0.359750 0.012494
v 0.050206 -0.431100 0.012218
v 0.075478 0.150990 -0.022346
v 0.080456 0.151260 0.016075
v 0.152980 0.227950 0.023376
v 0.157116 0.250990 -0.038175
v 0.056452 0.153200 -0.056053
v 0.080286 -0.094780 -0.061023
v 0.064175 -0.358740 -0.029973
v 0.058405 -0.093430 -0.076898
v 0.113135 0.260710 -0.095880
v 0.050091 -0.358850 -0.032102
v 0.029659 0.155380 -0.078704
v 0.053626 0.249350 -0.137525
v 0.035341 -0.093950 -0.081441
v 0.060571 0.359400 0.054458
v -0.037629 0.325230 0.136383
v -0.013745 0.279900 0.083854
v 0.046946 0.301020 0.033222
v -0.026942 0.267220 -0.002881
v 0.033689 0.409080 0.043647
v -0.064511 0.374910 0.125571
v 0.050404 0.292720 -0.065925
v -0.006829 0.263300 -0.114440
v -0.084122 0.409980 0.055548
v 0.066166 0.345970 -0.105964
v -0.026440 0.298360 -0.184463
v -0.023431 0.431100 0.004916
v -0.088971 0.405710 -0.046940
v 0.039284 0.395650 -0.116776
v -0.053321 0.348050 -0.195275
v -0.019973 0.422790 -0.094231
v -0.077206 0.382060 -0.142746
v 0.053670 0.250110 0.184366
v 0.061107 0.288050 0.120581
v 0.001421 0.154030 0.117313
v 0.012277 -0.094200 0.068576
v 0.000394 0.227940 0.195275
v -0.002205 0.257080 0.161846
v -0.049389 0.202630 0.172081
v -0.026820 0.153400 0.108088
v 0.022668 -0.358330 0.047424
v 0.013226 -0.359480 0.033239
v 0.010423 -0.359040 0.012574
v -0.023823 -0.099200 0.028208
v -0.028121 -0.098640 -0.003582
v -0.076127 0.147960 0.015693
v -0.008961 -0.096630 0.052851
v -0.071011 0.147270 0.052847
v -0.130157 0.178200 0.018964
v -0.124230 0.195250 0.078538
v -0.052824 0.150430 0.084934
v -0.093530 0.202950 0.130245
v -0.060234 0.250290 0.110919
v -0.092733 0.230020 0.078500
v -0.124230 0.195250 0.078538
v -0.040848 0.316930 0.110983
v -0.013365 0.331840 0.085882
v -0.071488 0.303900 0.080762
v -0.002749 0.351140 0.038391
v -0.081174 0.243860 0.026419
v -0.084402 0.300540 0.030841
v -0.102092 0.235600 0.024812
v -0.117096 0.221130 0.023577
v -0.130157 0.178200 0.018964
v 0.085156 0.305490 0.040732
v 0.112853 0.285860 0.092828
v 0.113952 0.293610 0.031278
v 0.156722 0.250660 0.088405
v 0.142318 0.270250 0.027512
v 0.152980 0.227950 0.023376
v 0.036006 -0.358230 -0.030273
v 0.058933 0.287370 -0.043715
v 0.022691 -0.358440 -0.022615
v 0.000462 0.227950 -0.150048
v 0.012277 -0.094200 -0.075938
v 0.001421 0.154030 -0.085809
v -0.000634 0.257170 -0.104945
v -0.049389 0.202760 -0.131420
v -0.026820 0.153400 -0.076727
v -0.008961 -0.096630 -0.060039
v -0.052824 0.150430 -0.054134
v -0.093492 0.203300 -0.089405
v -0.059184 0.247370 -0.036633
v -0.071011 0.147270 -0.022075
v -0.023823 -0.099200 -0.035372
v 0.013182 -0.359350 -0.008121
v 0.010423 -0.359040 0.012574
v -0.028121 -0.098640 -0.003582
v -0.076127 0.147960 0.015693
v -0.124175 0.195080 -0.038451
v -0.130157 0.178200 0.018964
v -0.092341 0.229620 -0.031643
v -0.124175 0.195080 -0.038451
v -0.117096 0.221130 0.023577
v -0.130157 0.178200 0.018964
v -0.102092 0.235600 0.024812
v -0.081174 0.243860 0.026419
v -0.070501 0.302290 -0.006352
v -0.084402 0.300540 0.030841
v -0.040129 0.317030 -0.046505
v -0.014953 0.330630 -0.011906
v -0.002749 0.351140 0.038391
v 0.085156 0.305490 0.040732
v 0.113368 0.287080 -0.032868
v 0.113952 0.293610 0.031278
v 0.142318 0.270250 0.027512
v 0.157116 0.250990 -0.038175
v 0.152980 0.227950 0.023376
v -0.037629 0.325230 0.136383
v -0.130235 0.277630 0.057884
v -0.070978 0.250480 0.035339
v -0.013745 0.279900 0.083854
v -0.026942 0.267220 -0.002881
v -0.064511 0.374910 0.125571
v -0.067520 0.242180 -0.063808
v -0.006829 0.263300 -0.114440
v -0.124640 0.264200 -0.102538
v -0.026440 0.298360 -0.184463
v -0.053321 0.348050 -0.195275
v -0.157116 0.327310 0.047072
v -0.084122 0.409980 0.055548
v -0.151522 0.313880 -0.113350
v -0.077206 0.382060 -0.142746
v -0.141355 0.380560 0.007033
v -0.088971 0.405710 -0.046940
v -0.137897 0.372260 -0.092114
vt 0.408765 0.675375
vt 0.530135 0.690549
vt 0.413185 0.667254
vt 0.526137 0.704517
vt 0.381260 0.643382
vt 0.633377 0.719594
vt 0.416569 0.659875
vt 0.637573 0.703053
vt 0.672777 0.746168
vt 0.693419 0.732399
vt 0.535625 0.676372
vt 0.641464 0.685951
vt 0.418469 0.653459
vt 0.539935 0.663933
vt 0.702293 0.706853
vt 0.419366 0.647462
vt 0.643681 0.670258
vt 0.540124 0.653853
vt 0.420318 0.641473
vt 0.380574 0.526764
vt 0.263336 0.494734
vt 0.384295 0.519662
vt 0.267139 0.480809
vt 0.388146 0.511386
vt 0.412304 0.541032
vt 0.162469 0.479421
vt 0.161708 0.462001
vt 0.118635 0.434426
vt 0.099089 0.449769
vt 0.163271 0.496866
vt 0.259717 0.508327
vt 0.377919 0.532673
vt 0.255170 0.519784
vt 0.095142 0.478756
vt 0.376324 0.538212
vt 0.159222 0.512881
vt 0.107796 0.504777
vt 0.252605 0.530023
vt 0.699664 0.417200
vt 0.666943 0.422325
vt 0.682746 0.395632
vt 0.706683 0.398367
vt 0.721840 0.377196
vt 0.700222 0.444526
vt 0.671165 0.445126
vt 0.740763 0.400143
vt 0.762036 0.390912
vt 0.692973 0.474509
vt 0.754137 0.416888
vt 0.785045 0.424117
vt 0.714057 0.463667
vt 0.729599 0.483349
vt 0.754762 0.441936
vt 0.784569 0.445588
vt 0.747429 0.463381
vt 0.770913 0.466638
vt 0.698597 0.677510
vt 0.726499 0.687332
vt 0.644023 0.656240
vt 0.540167 0.643518
vt 0.690179 0.661155
vt 0.707936 0.658669
vt 0.685558 0.643481
vt 0.645144 0.641590
vt 0.419703 0.634953
vt 0.418149 0.627828
vt 0.415496 0.618549
vt 0.537714 0.619056
vt 0.536616 0.604746
vt 0.644901 0.590300
vt 0.539490 0.631657
vt 0.648542 0.606768
vt 0.670047 0.577439
vt 0.684027 0.597511
vt 0.648047 0.624261
vt 0.690290 0.620492
vt 0.718591 0.625512
vt 0.714140 0.604981
vt 0.695627 0.595609
vt 0.746693 0.642011
vt 0.757040 0.656755
vt 0.749199 0.621256
vt 0.780935 0.666693
vt 0.733244 0.591404
vt 0.755882 0.602180
vt 0.725409 0.585840
vt 0.718427 0.580825
vt 0.703196 0.570275
vt 0.759747 0.707948
vt 0.729662 0.713393
vt 0.757385 0.722361
vt 0.720491 0.735020
vt 0.751997 0.737249
vt 0.745340 0.754583
vt 0.375008 0.543784
vt 0.058687 0.500391
vt 0.374835 0.549860
vt 0.115897 0.525405
vt 0.251599 0.540377
vt 0.156487 0.527398
vt 0.091458 0.529938
vt 0.121639 0.545950
vt 0.155266 0.545016
vt 0.253584 0.552389
vt 0.154009 0.561495
vt 0.118428 0.569231
vt 0.074786 0.568327
vt 0.154380 0.580256
vt 0.256708 0.565518
vt 0.376180 0.556673
vt 0.379326 0.565193
vt 0.258814 0.579801
vt 0.155238 0.597104
vt 0.122998 0.593338
vt 0.131337 0.610788
vt 0.089091 0.581667
vt 0.109730 0.593151
vt 0.078334 0.603271
vt 0.094978 0.612612
vt 0.071179 0.598206
vt 0.063876 0.592375
vt 0.042357 0.568231
vt 0.038973 0.582372
vt 0.042063 0.547088
vt 0.029624 0.533738
vt 0.010058 0.524827
vt 0.025643 0.483266
vt 0.063562 0.476136
vt 0.034610 0.471045
vt 0.042405 0.456874
vt 0.073368 0.455107
vt 0.051387 0.440533
vt 0.333085 0.432962
vt 0.366797 0.429332
vt 0.377381 0.451253
vt 0.355522 0.456990
vt 0.391674 0.463386
vt 0.336027 0.410879
vt 0.412194 0.448818
vt 0.433725 0.454221
vt 0.422470 0.425747
vt 0.455417 0.423734
vt 0.458101 0.402557
vt 0.370028 0.409508
vt 0.356969 0.383193
vt 0.424234 0.404879
vt 0.436958 0.382790
vt 0.379383 0.387700
vt 0.396839 0.370864
vt 0.414598 0.385891
vn 0.962601 -0.270922 0.000056
vn 0.943962 0.007953 0.329958
vn 0.903420 -0.272801 0.330776
vn 0.999802 0.019899 0.000147
vn 0.006372 -0.999978 0.001873
vn 0.947125 -0.320864 -0.000256
vn 0.677088 -0.284527 0.678672
vn 0.875160 -0.332060 0.351897
vn 0.970546 -0.240913 0.001351
vn 0.958500 0.120726 0.258270
vn 0.739015 -0.023730 0.673271
vn 0.689339 -0.337697 0.640915
vn 0.334651 -0.295485 0.894817
vn 0.397624 -0.071325 0.914772
vn 0.701141 0.122481 0.702425
vn -0.007776 -0.304008 0.952638
vn 0.439876 -0.385386 0.811164
vn -0.017719 -0.117823 0.992877
vn -0.336567 -0.312553 0.888276
vn 0.672648 -0.321689 -0.666379
vn 0.944364 0.013064 -0.328641
vn 0.898374 -0.291343 -0.328698
vn 0.999802 0.019899 0.000147
vn 0.962601 -0.270922 0.000056
vn 0.006372 -0.999978 0.001873
vn 0.889558 -0.285107 -0.356932
vn 0.947125 -0.320864 -0.000256
vn 0.970546 -0.240913 0.001351
vn 0.957873 0.143410 -0.248822
vn 0.714885 -0.250527 -0.652821
vn 0.742636 -0.012771 -0.669574
vn 0.336750 -0.345766 -0.875811
vn 0.405145 -0.054851 -0.912605
vn 0.688473 0.212115 -0.693550
vn -0.004054 -0.358841 -0.933390
vn 0.462618 -0.277232 -0.842097
vn 0.342493 0.283449 -0.895743
vn -0.017090 -0.100423 -0.994798
vn 0.898136 0.080873 0.432218
vn 0.146798 -0.297848 0.943259
vn 0.374478 -0.840009 0.392622
vn 0.674864 -0.697233 0.241714
vn 0.396626 -0.913652 0.089043
vn 0.524681 0.786541 0.325673
vn -0.239280 0.559761 0.793355
vn 0.673584 -0.736463 -0.062499
vn 0.390447 -0.900376 -0.192028
vn -0.386644 0.891723 0.235239
vn 0.930687 -0.053171 -0.361933
vn 0.239280 -0.559785 -0.793338
vn -0.052670 0.996158 0.069960
vn -0.396214 0.909485 -0.125901
vn 0.569570 0.696272 -0.436801
vn -0.166299 0.317893 -0.933428
vn -0.070122 0.958448 -0.276516
vn -0.366066 0.802050 -0.471924
vn 0.365455 0.161148 0.916774
vn 0.184025 0.862217 0.471928
vn 0.070105 -0.473057 0.878238
vn -0.411378 -0.145385 0.899795
vn -0.151574 0.002436 0.988443
vn -0.339697 0.640183 0.689037
vn -0.594958 -0.111537 0.795980
vn -0.354959 -0.526892 0.772262
vn -0.653222 -0.320706 0.685893
vn -0.885312 -0.323372 0.334145
vn -0.947364 -0.320158 0.000010
vn -0.927669 -0.168681 0.333131
vn -0.985663 -0.168728 0.000351
vn -0.836281 -0.548301 -0.000480
vn -0.722020 -0.159147 0.673320
vn -0.773965 -0.537968 0.334019
vn -0.945564 -0.325435 -0.001078
vn -0.948842 0.004819 0.315715
vn -0.631436 -0.522028 0.573390
vn -0.799187 -0.095907 0.593382
vn -0.741612 0.486025 0.462375
vn -0.649517 0.706098 0.282054
vn -0.948842 0.004819 0.315715
vn -0.313078 0.523457 0.792449
vn 0.270187 0.803272 0.530805
vn -0.865103 0.067993 0.496965
vn 0.421399 0.906872 -0.002428
vn -0.866123 0.498628 -0.034652
vn -0.997877 -0.045263 -0.046818
vn -0.606310 0.795212 -0.005127
vn -0.862713 0.505693 0.000978
vn -0.945564 -0.325435 -0.001078
vn 0.314797 0.949141 0.005920
vn 0.446659 0.845161 0.293596
vn 0.435214 0.900253 0.011579
vn 0.958500 0.120726 0.258270
vn 0.843531 0.537045 0.006156
vn 0.970546 -0.240913 0.001351
vn -0.332594 -0.363533 -0.870187
vn 0.154223 0.905161 -0.396105
vn -0.648191 -0.358664 -0.671721
vn -0.160305 0.137019 -0.977511
vn -0.416521 -0.132871 -0.899364
vn 0.072793 -0.361197 -0.929644
vn -0.354636 0.726196 -0.588959
vn -0.580201 0.037613 -0.813605
vn -0.376895 -0.433654 -0.818471
vn -0.725038 -0.151589 -0.671819
vn -0.662357 -0.453361 -0.596446
vn -0.788397 0.013023 -0.615029
vn -0.705925 0.565197 -0.426875
vn -0.795322 -0.500515 -0.341976
vn -0.928827 -0.164769 -0.331861
vn -0.880477 -0.341436 -0.328910
vn -0.947364 -0.320158 0.000010
vn -0.985663 -0.168728 0.000351
vn -0.836281 -0.548301 -0.000480
vn -0.948578 0.037784 -0.314280
vn -0.945564 -0.325435 -0.001078
vn -0.565795 0.781463 -0.263042
vn -0.948578 0.037784 -0.314280
vn -0.862713 0.505693 0.000978
vn -0.945564 -0.325435 -0.001078
vn -0.606310 0.795212 -0.005127
vn -0.866123 0.498628 -0.034652
vn -0.874376 0.055536 -0.482061
vn -0.997877 -0.045263 -0.046818
vn -0.335398 0.571095 -0.749239
vn 0.327434 0.819339 -0.470606
vn 0.421399 0.906872 -0.002428
vn 0.314797 0.949141 0.005920
vn 0.375609 0.891569 -0.253028
vn 0.435214 0.900253 0.011579
vn 0.843531 0.537045 0.006156
vn 0.957873 0.143410 -0.248822
vn 0.970546 -0.240913 0.001351
vn 0.146798 -0.297848 0.943259
vn -0.586710 -0.682701 0.435536
vn 0.085940 -0.968884 0.232115
vn 0.374478 -0.840009 0.392622
vn 0.396626 -0.913652 0.089043
vn -0.239280 0.559761 0.793355
vn 0.103637 -0.993420 -0.048742
vn 0.390447 -0.900376 -0.192028
vn -0.524705 -0.786529 -0.325663
vn 0.239280 -0.559785 -0.793338
vn -0.166299 0.317893 -0.933428
vn -0.930683 0.053161 0.361944
vn -0.386644 0.891723 0.235239
vn -0.898611 -0.068115 -0.433427
vn -0.366066 0.802050 -0.471924
vn -0.711058 0.698000 0.084808
vn -0.396214 0.909485 -0.125901
vn -0.684912 0.669857 -0.286681
f 1/1/1 2/2/2 3/3/3
f 2/2/2 1/1/1 4/4/4
f 3/3/3 5/5/5 1/1/1
f 6/6/6 2/2/2 4/4/4
f 2/2/2 7/7/7 3/3/3
f 7/7/7 5/5/5 3/3/3
f 2/2/2 6/6/6 8/8/8
f 9/9/9 8/8/8 6/6/6
f 8/8/8 9/9/9 10/10/10
f 8/8/8 11/11/11 2/2/2
f 7/7/7 2/2/2 11/11/11
f 10/10/10 12/12/12 8/8/8
f 12/12/12 11/11/11 8/8/8
f 7/7/7 11/11/11 13/13/13
f 13/13/13 5/5/5 7/7/7
f 13/13/13 11/11/11 14/14/14
f 11/11/11 12/12/12 14/14/14
f 15/15/15 12/12/12 10/10/10
f 13/13/13 14/14/14 16/16/16
f 16/16/16 5/5/5 13/13/13
f 14/14/14 12/12/12 17/17/17
f 16/16/16 14/14/14 18/18/18
f 14/14/14 17/17/17 18/18/18
f 16/16/16 18/18/18 19/19/19
f 19/19/19 5/5/5 16/16/16
f 20/20/20 21/21/21 22/22/22
f 23/23/23 22/22/22 21/21/21
f 22/22/22 23/23/23 24/24/24
f 24/24/24 25/25/25 22/22/22
f 22/22/22 25/25/25 20/20/20
f 26/26/26 23/23/23 21/21/21
f 23/23/23 26/26/26 27/27/27
f 26/26/26 28/28/28 27/27/27
f 28/28/28 26/26/26 29/29/29
f 30/30/30 29/29/29 26/26/26
f 31/31/31 26/26/26 21/21/21
f 21/21/21 20/20/20 31/31/31
f 26/26/26 31/31/31 30/30/30
f 32/32/32 31/31/31 20/20/20
f 20/20/20 25/25/25 32/32/32
f 31/31/31 32/32/32 33/33/33
f 33/33/33 30/30/30 31/31/31
f 29/29/29 30/30/30 34/34/34
f 35/35/35 33/33/33 32/32/32
f 32/32/32 25/25/25 35/35/35
f 30/30/30 33/33/33 36/36/36
f 34/34/34 30/30/30 37/37/37
f 30/30/30 36/36/36 37/37/37
f 38/38/38 36/36/36 33/33/33
f 33/33/33 35/35/35 38/38/38
f 39/39/39 40/40/40 41/41/41
f 39/39/39 41/41/41 42/42/42
f 42/42/42 41/41/41 43/43/43
f 44/44/44 40/40/40 39/39/39
f 40/40/40 44/44/44 45/45/45
f 46/46/46 39/39/39 42/42/42
f 46/46/46 42/42/42 43/43/43
f 47/47/47 46/46/46 43/43/43
f 44/44/44 48/48/48 45/45/45
f 47/47/47 49/49/49 46/46/46
f 39/39/39 46/46/46 49/49/49
f 49/49/49 44/44/44 39/39/39
f 49/49/49 47/47/47 50/50/50
f 48/48/48 44/44/44 51/51/51
f 48/48/48 51/51/51 52/52/52
f 44/44/44 49/49/49 53/53/53
f 50/50/50 53/53/53 49/49/49
f 53/53/53 51/51/51 44/44/44
f 53/53/53 50/50/50 54/54/54
f 51/51/51 55/55/55 52/52/52
f 51/51/51 53/53/53 55/55/55
f 54/54/54 55/55/55 53/53/53
f 55/55/55 56/56/56 52/52/52
f 55/55/55 54/54/54 56/56/56
f 57/57/57 12/12/12 15/15/15
f 12/12/12 57/57/57 17/17/17
f 15/15/15 58/58/58 57/57/57
f 18/18/18 17/17/17 59/59/59
f 19/19/19 18/18/18 60/60/60
f 18/18/18 59/59/59 60/60/60
f 17/17/17 61/61/61 59/59/59
f 61/61/61 17/17/17 57/57/57
f 57/57/57 62/62/62 61/61/61
f 62/62/62 57/57/57 58/58/58
f 63/63/63 59/59/59 61/61/61
f 61/61/61 62/62/62 63/63/63
f 60/60/60 59/59/59 64/64/64
f 59/59/59 63/63/63 64/64/64
f 19/19/19 60/60/60 65/65/65
f 65/65/65 5/5/5 19/19/19
f 66/66/66 5/5/5 65/65/65
f 67/67/67 5/5/5 66/66/66
f 66/66/66 68/68/68 67/67/67
f 65/65/65 68/68/68 66/66/66
f 69/69/69 67/67/67 68/68/68
f 68/68/68 70/70/70 69/69/69
f 65/65/65 60/60/60 71/71/71
f 68/68/68 65/65/65 71/71/71
f 64/64/64 71/71/71 60/60/60
f 70/70/70 68/68/68 72/72/72
f 71/71/71 72/72/72 68/68/68
f 72/72/72 73/73/73 70/70/70
f 73/73/73 72/72/72 74/74/74
f 72/72/72 71/71/71 75/75/75
f 75/75/75 74/74/74 72/72/72
f 71/71/71 64/64/64 75/75/75
f 74/74/74 75/75/75 76/76/76
f 64/64/64 76/76/76 75/75/75
f 76/76/76 64/64/64 63/63/63
f 63/63/63 77/77/77 76/76/76
f 62/62/62 77/77/77 63/63/63
f 77/77/77 78/78/78 76/76/76
f 78/78/78 79/79/79 76/76/76
f 80/80/80 77/77/77 62/62/62
f 62/62/62 81/81/81 80/80/80
f 77/77/77 80/80/80 82/82/82
f 58/58/58 81/81/81 62/62/62
f 58/58/58 83/83/83 81/81/81
f 84/84/84 77/77/77 82/82/82
f 77/77/77 84/84/84 78/78/78
f 85/85/85 84/84/84 82/82/82
f 86/86/86 78/78/78 84/84/84
f 87/87/87 78/78/78 86/86/86
f 78/78/78 87/87/87 79/79/79
f 88/88/88 79/79/79 87/87/87
f 83/83/83 58/58/58 89/89/89
f 90/90/90 89/89/89 58/58/58
f 58/58/58 15/15/15 90/90/90
f 89/89/89 90/90/90 91/91/91
f 92/92/92 90/90/90 15/15/15
f 92/92/92 91/91/91 90/90/90
f 91/91/91 92/92/92 93/93/93
f 94/94/94 93/93/93 92/92/92
f 35/35/35 25/25/25 95/95/95
f 95/95/95 38/38/38 35/35/35
f 37/37/37 96/96/96 34/34/34
f 95/95/95 25/25/25 97/97/97
f 37/37/37 36/36/36 98/98/98
f 38/38/38 95/95/95 99/99/99
f 97/97/97 99/99/99 95/95/95
f 36/36/36 38/38/38 100/100/100
f 98/98/98 36/36/36 100/100/100
f 99/99/99 100/100/100 38/38/38
f 37/37/37 98/98/98 101/101/101
f 37/37/37 101/101/101 96/96/96
f 102/102/102 98/98/98 100/100/100
f 102/102/102 101/101/101 98/98/98
f 100/100/100 99/99/99 103/103/103
f 102/102/102 100/100/100 103/103/103
f 104/104/104 103/103/103 99/99/99
f 99/99/99 97/97/97 104/104/104
f 103/103/103 104/104/104 105/105/105
f 103/103/103 106/106/106 102/102/102
f 106/106/106 103/103/103 105/105/105
f 101/101/101 102/102/102 107/107/107
f 106/106/106 107/107/107 102/102/102
f 105/105/105 104/104/104 108/108/108
f 108/108/108 106/106/106 105/105/105
f 104/104/104 97/97/97 109/109/109
f 109/109/109 108/108/108 104/104/104
f 110/110/110 109/109/109 97/97/97
f 97/97/97 25/25/25 110/110/110
f 110/110/110 25/25/25 111/111/111
f 111/111/111 112/112/112 110/110/110
f 109/109/109 110/110/110 112/112/112
f 112/112/112 108/108/108 109/109/109
f 108/108/108 112/112/112 113/113/113
f 113/113/113 114/114/114 108/108/108
f 106/106/106 108/108/108 114/114/114
f 114/114/114 113/113/113 115/115/115
f 107/107/107 106/106/106 116/116/116
f 106/106/106 117/117/117 116/116/116
f 117/117/117 118/118/118 116/116/116
f 119/119/119 118/118/118 117/117/117
f 116/116/116 118/118/118 120/120/120
f 121/121/121 116/116/116 120/120/120
f 116/116/116 121/121/121 107/107/107
f 121/121/121 122/122/122 107/107/107
f 122/122/122 121/121/121 123/123/123
f 124/124/124 107/107/107 122/122/122
f 107/107/107 124/124/124 101/101/101
f 125/125/125 101/101/101 124/124/124
f 101/101/101 125/125/125 96/96/96
f 126/126/126 96/96/96 125/125/125
f 96/96/96 126/126/126 127/127/127
f 96/96/96 127/127/127 128/128/128
f 128/128/128 127/127/127 129/129/129
f 34/34/34 96/96/96 128/128/128
f 130/130/130 128/128/128 129/129/129
f 131/131/131 34/34/34 128/128/128
f 128/128/128 130/130/130 131/131/131
f 132/132/132 131/131/131 130/130/130
f 133/133/133 134/134/134 135/135/135
f 133/133/133 135/135/135 136/136/136
f 136/136/136 135/135/135 137/137/137
f 138/138/138 134/134/134 133/133/133
f 135/135/135 139/139/139 137/137/137
f 134/134/134 139/139/139 135/135/135
f 139/139/139 140/140/140 137/137/137
f 141/141/141 140/140/140 139/139/139
f 134/134/134 141/141/141 139/139/139
f 140/140/140 141/141/141 142/142/142
f 141/141/141 143/143/143 142/142/142
f 134/134/134 138/138/138 144/144/144
f 141/141/141 134/134/134 144/144/144
f 138/138/138 145/145/145 144/144/144
f 143/143/143 141/141/141 146/146/146
f 144/144/144 146/146/146 141/141/141
f 146/146/146 147/147/147 143/143/143
f 144/144/144 145/145/145 148/148/148
f 146/146/146 144/144/144 148/148/148
f 148/148/148 145/145/145 149/149/149
f 147/147/147 146/146/146 150/150/150
f 150/150/150 146/146/146 148/148/148
f 147/147/147 150/150/150 149/149/149
f 150/150/150 148/148/148 149/149/149
