# Generated from Roblox mesh JSON (v2.00)
# Hello from RBX_Toolbox ;)
o Cheese
v -18.509829 2.223201 -24.630133
v 18.509863 2.223201 -24.630173
v 18.360924 1.017407 -24.481230
v -18.360924 1.017407 -24.481230
v -24.630133 2.223200 -18.509829
v -24.481230 1.017399 18.360924
v -24.630173 2.223194 18.509863
v -24.481230 1.017406 -18.360924
v 24.630133 2.223194 18.509829
v 24.481230 1.017406 -18.360924
v 24.630173 2.223200 -18.509863
v 24.481230 1.017399 18.360924
v 18.509829 2.223193 24.630133
v -18.509863 2.223193 24.630173
v -18.360924 1.017398 24.481230
v 18.360924 1.017398 24.481230
v 25.000000 -1.243412 -25.000000
v 18.360924 1.017407 -24.481230
v 18.509863 2.223201 -24.630173
v 24.481230 -2.223200 -24.481232
v -18.360924 1.017407 -24.481230
v -24.481230 -2.222113 -24.481232
v -24.999889 -1.242213 -24.999889
v -18.509829 2.223201 -24.630133
v -24.481230 1.017399 18.360924
v -24.481230 -2.222993 24.481230
v -25.000000 -1.243169 25.000000
v -24.630173 2.223194 18.509863
v -24.999889 -1.242213 -24.999889
v -24.481230 1.017406 -18.360924
v -24.630133 2.223200 -18.509829
v -24.481230 -2.222113 -24.481232
v 24.999926 -1.242738 24.999926
v 24.481230 1.017399 18.360924
v 24.630133 2.223194 18.509829
v 24.481230 -2.222600 24.481230
v 24.481230 1.017406 -18.360924
v 24.481230 -2.223200 -24.481232
v 25.000000 -1.243412 -25.000000
v 24.630173 2.223200 -18.509863
v 18.360924 1.017398 24.481230
v 24.481230 -2.222600 24.481230
v 24.999926 -1.242738 24.999926
v 18.509829 2.223193 24.630133
v -25.000000 -1.243169 25.000000
v -18.360924 1.017398 24.481230
v -18.509863 2.223193 24.630173
v -24.481230 -2.222993 24.481230
v -18.509829 2.223201 -24.630133
v -24.999889 -1.242213 -24.999889
v -24.630133 2.223200 -18.509829
v 25.000000 -1.243412 -25.000000
v 18.509863 2.223201 -24.630173
v 24.630173 2.223200 -18.509863
v -18.509863 2.223193 24.630173
v -24.630173 2.223194 18.509863
v -25.000000 -1.243169 25.000000
v 24.630133 2.223194 18.509829
v 18.509829 2.223193 24.630133
v 24.999926 -1.242738 24.999926
v 18.509829 2.223193 24.630133
v -24.630173 2.223194 18.509863
v -18.509863 2.223193 24.630173
v -24.630133 2.223200 -18.509829
v -18.509829 2.223201 -24.630133
v 24.630133 2.223194 18.509829
v 18.509863 2.223201 -24.630173
v 24.630173 2.223200 -18.509863
v -24.481230 1.017406 -18.360924
v 18.360924 1.017407 -24.481230
v -24.481230 1.017399 18.360924
v -18.360924 1.017407 -24.481230
v 24.481230 1.017406 -18.360924
v 24.481230 1.017399 18.360924
v 18.360924 1.017398 24.481230
v -18.360924 1.017398 24.481230
v 24.481230 1.017399 18.360924
v 24.481230 -2.222600 24.481230
v 18.360924 1.017398 24.481230
v -18.360924 1.017398 24.481230
v -24.481230 -2.222993 24.481230
v -24.481230 1.017399 18.360924
v 24.481230 -2.223200 -24.481232
v 24.481230 1.017406 -18.360924
v 18.360924 1.017407 -24.481230
v -18.360924 1.017407 -24.481230
v -24.481230 1.017406 -18.360924
v -24.481230 -2.222113 -24.481232
vt 0.875000 0.000000
vt 0.125000 0.000000
vt 0.125000 0.000000
vt 0.875000 0.000000
vt 1.000000 0.125000
vt 1.000000 0.875000
vt 1.000000 0.875000
vt 1.000000 0.125000
vt 0.000000 0.875000
vt 0.000000 0.125000
vt 0.000000 0.125000
vt 0.000000 0.875000
vt 0.125000 1.000000
vt 0.875000 1.000000
vt 0.875000 1.000000
vt 0.125000 1.000000
vt 0.000000 0.000000
vt 0.125000 0.000000
vt 0.125000 0.000000
vt 0.000000 0.000000
vt 0.875000 0.000000
vt 1.000000 0.000000
vt 1.000000 0.000000
vt 0.875000 0.000000
vt 1.000000 0.875000
vt 1.000000 1.000000
vt 1.000000 1.000000
vt 1.000000 0.875000
vt 1.000000 0.000000
vt 1.000000 0.125000
vt 1.000000 0.125000
vt 1.000000 0.000000
vt 0.000000 1.000000
vt 0.000000 0.875000
vt 0.000000 0.875000
vt 0.000000 1.000000
vt 0.000000 0.125000
vt 0.000000 0.000000
vt 0.000000 0.000000
vt 0.000000 0.125000
vt 0.125000 1.000000
vt 0.000000 1.000000
vt 0.000000 1.000000
vt 0.125000 1.000000
vt 1.000000 1.000000
vt 0.875000 1.000000
vt 0.875000 1.000000
vt 1.000000 1.000000
vt 0.875000 0.000000
vt 1.000000 0.000000
vt 1.000000 0.125000
vt 0.000000 0.000000
vt 0.125000 0.000000
vt 0.000000 0.125000
vt 0.875000 1.000000
vt 1.000000 0.875000
vt 1.000000 1.000000
vt 0.000000 0.875000
vt 0.125000 1.000000
vt 0.000000 1.000000
vt 0.125000 1.000000
vt 1.000000 0.875000
vt 0.875000 1.000000
vt 1.000000 0.125000
vt 0.875000 0.000000
vt 0.000000 0.875000
vt 0.125000 0.000000
vt 0.000000 0.125000
vt 1.000000 0.125000
vt 0.125000 0.000000
vt 1.000000 0.875000
vt 0.875000 0.000000
vt 0.000000 0.125000
vt 0.000000 0.875000
vt 0.125000 1.000000
vt 0.875000 1.000000
vt 0.000000 0.875000
vt 0.000000 1.000000
vt 0.125000 1.000000
vt 0.875000 1.000000
vt 1.000000 1.000000
vt 1.000000 0.875000
vt 0.000000 0.000000
vt 0.000000 0.125000
vt 0.125000 0.000000
vt 0.875000 0.000000
vt 1.000000 0.125000
vt 1.000000 0.000000
vn -0.000001 -0.122570 -0.992460
vn -0.000001 -0.122570 -0.992460
vn -0.000001 -0.122570 -0.992460
vn -0.000001 -0.122570 -0.992460
vn -0.992459 -0.122573 -0.000001
vn -0.992459 -0.122573 -0.000001
vn -0.992459 -0.122573 -0.000001
vn -0.992459 -0.122573 -0.000001
vn 0.992459 -0.122573 0.000001
vn 0.992459 -0.122573 0.000001
vn 0.992459 -0.122573 0.000001
vn 0.992459 -0.122573 0.000001
vn 0.000001 -0.122570 0.992460
vn 0.000001 -0.122570 0.992460
vn 0.000001 -0.122570 0.992460
vn 0.000001 -0.122570 0.992460
vn -0.157882 -0.244079 -0.956817
vn -0.157882 -0.244079 -0.956817
vn -0.157882 -0.244079 -0.956817
vn -0.157882 -0.244079 -0.956817
vn 0.157812 -0.244041 -0.956838
vn 0.157812 -0.244041 -0.956838
vn 0.157812 -0.244041 -0.956838
vn 0.157812 -0.244041 -0.956838
vn -0.956818 -0.244080 -0.157873
vn -0.956818 -0.244080 -0.157873
vn -0.956818 -0.244080 -0.157873
vn -0.956818 -0.244080 -0.157873
vn -0.956838 -0.244041 0.157814
vn -0.956838 -0.244041 0.157814
vn -0.956838 -0.244041 0.157814
vn -0.956838 -0.244041 0.157814
vn 0.956832 -0.244048 -0.157838
vn 0.956832 -0.244048 -0.157838
vn 0.956832 -0.244048 -0.157838
vn 0.956832 -0.244048 -0.157838
vn 0.956817 -0.244080 0.157882
vn 0.956817 -0.244080 0.157882
vn 0.956817 -0.244080 0.157882
vn 0.956817 -0.244080 0.157882
vn -0.157838 -0.244048 0.956832
vn -0.157838 -0.244048 0.956832
vn -0.157838 -0.244048 0.956832
vn -0.157838 -0.244048 0.956832
vn 0.157872 -0.244079 0.956819
vn 0.157872 -0.244079 0.956819
vn 0.157872 -0.244079 0.956819
vn 0.157872 -0.244079 0.956819
vn -0.411051 0.813680 -0.411051
vn -0.411051 0.813680 -0.411051
vn -0.411051 0.813680 -0.411051
vn 0.411139 0.813590 -0.411139
vn 0.411139 0.813590 -0.411139
vn 0.411139 0.813590 -0.411139
vn -0.411120 0.813610 0.411120
vn -0.411120 0.813610 0.411120
vn -0.411120 0.813610 0.411120
vn 0.411089 0.813641 0.411089
vn 0.411089 0.813641 0.411089
vn 0.411089 0.813641 0.411089
vn -0.000000 1.000000 0.000000
vn -0.000000 1.000000 0.000000
vn -0.000000 1.000000 0.000000
vn -0.000000 1.000000 0.000000
vn -0.000000 1.000000 0.000000
vn -0.000000 1.000000 0.000000
vn -0.000000 1.000000 0.000000
vn -0.000000 1.000000 0.000000
vn -0.000000 -1.000000 -0.000000
vn -0.000000 -1.000000 -0.000000
vn -0.000000 -1.000000 -0.000000
vn -0.000000 -1.000000 -0.000000
vn -0.000000 -1.000000 -0.000000
vn -0.000000 -1.000000 -0.000000
vn -0.000000 -1.000000 -0.000000
vn -0.000000 -1.000000 -0.000000
vn -0.423780 -0.800513 -0.423780
vn -0.423780 -0.800513 -0.423780
vn -0.423780 -0.800513 -0.423780
vn 0.423813 -0.800478 -0.423813
vn 0.423813 -0.800478 -0.423813
vn 0.423813 -0.800478 -0.423813
vn -0.423831 -0.800459 0.423830
vn -0.423831 -0.800459 0.423830
vn -0.423831 -0.800459 0.423830
vn 0.423739 -0.800556 0.423740
vn 0.423739 -0.800556 0.423740
vn 0.423739 -0.800556 0.423740
f 1/1/1 2/2/2 3/3/3
f 1/1/1 3/3/3 4/4/4
f 5/5/5 6/6/6 7/7/7
f 6/6/6 5/5/5 8/8/8
f 9/9/9 10/10/10 11/11/11
f 10/10/10 9/9/9 12/12/12
f 13/13/13 14/14/14 15/15/15
f 13/13/13 15/15/15 16/16/16
f 17/17/17 18/18/18 19/19/19
f 18/18/18 17/17/17 20/20/20
f 21/21/21 22/22/22 23/23/23
f 23/23/23 24/24/24 21/21/21
f 25/25/25 26/26/26 27/27/27
f 27/27/27 28/28/28 25/25/25
f 29/29/29 30/30/30 31/31/31
f 30/30/30 29/29/29 32/32/32
f 33/33/33 34/34/34 35/35/35
f 34/34/34 33/33/33 36/36/36
f 37/37/37 38/38/38 39/39/39
f 39/39/39 40/40/40 37/37/37
f 41/41/41 42/42/42 43/43/43
f 43/43/43 44/44/44 41/41/41
f 45/45/45 46/46/46 47/47/47
f 46/46/46 45/45/45 48/48/48
f 49/49/49 50/50/50 51/51/51
f 52/52/52 53/53/53 54/54/54
f 55/55/55 56/56/56 57/57/57
f 58/58/58 59/59/59 60/60/60
f 61/61/61 62/62/62 63/63/63
f 62/62/62 61/61/61 64/64/64
f 64/64/64 61/61/61 65/65/65
f 66/66/66 65/65/65 61/61/61
f 65/65/65 66/66/66 67/67/67
f 67/67/67 66/66/66 68/68/68
f 69/69/69 70/70/70 71/71/71
f 70/70/70 69/69/69 72/72/72
f 71/71/71 70/70/70 73/73/73
f 71/71/71 73/73/73 74/74/74
f 71/71/71 74/74/74 75/75/75
f 71/71/71 75/75/75 76/76/76
f 77/77/77 78/78/78 79/79/79
f 80/80/80 81/81/81 82/82/82
f 83/83/83 84/84/84 85/85/85
f 86/86/86 87/87/87 88/88/88
