# Generated from Roblox mesh JSON (v2.00)
# Hello from RBX_Toolbox ;)
o I
v -0.037996 0.188355 -0.025000
v -0.037996 0.188355 0.025000
v -0.021324 0.195039 -0.025000
v -0.046649 0.180596 0.025000
v -0.021324 0.195039 0.025000
v -0.046649 0.180596 -0.025000
v 0.016798 0.196596 -0.025000
v -0.054609 0.162887 0.025000
v 0.016798 0.196596 0.025000
v 0.055553 0.191065 -0.025000
v 0.055553 0.191065 0.025000
v -0.054609 0.162887 -0.025000
v -0.055554 -0.191669 -0.025000
v -0.055554 -0.191669 0.025000
v -0.023681 -0.196596 -0.025000
v 0.014980 -0.196474 -0.025000
v 0.014980 -0.196474 0.025000
v -0.023681 -0.196596 0.025000
v -0.055554 -0.191669 -0.025000
v -0.055554 -0.191669 0.025000
v 0.034324 -0.190900 0.025000
v 0.034324 -0.190900 -0.025000
v 0.045667 -0.182409 0.025000
v 0.045667 -0.182409 -0.025000
v 0.052447 -0.169599 0.025000
v 0.052447 -0.169599 -0.025000
v 0.055323 -0.154379 0.025000
v 0.055323 -0.154379 -0.025000
v 0.055553 0.191065 0.025000
v 0.055553 0.191065 -0.025000
v 0.016798 0.196596 0.025000
v -0.021324 0.195039 0.025000
v -0.054609 0.162887 0.025000
v 0.055553 0.191065 0.025000
v -0.037996 0.188355 0.025000
v -0.046649 0.180596 0.025000
v 0.055323 -0.154379 0.025000
v -0.055554 -0.191669 0.025000
v -0.023681 -0.196596 0.025000
v 0.014980 -0.196474 0.025000
v 0.052447 -0.169599 0.025000
v 0.034324 -0.190900 0.025000
v 0.045667 -0.182409 0.025000
v 0.016798 0.196596 -0.025000
v -0.054609 0.162887 -0.025000
v -0.021324 0.195039 -0.025000
v 0.055553 0.191065 -0.025000
v -0.037996 0.188355 -0.025000
v -0.046649 0.180596 -0.025000
v 0.055323 -0.154379 -0.025000
v -0.055554 -0.191669 -0.025000
v -0.023681 -0.196596 -0.025000
v 0.014980 -0.196474 -0.025000
v 0.052447 -0.169599 -0.025000
v 0.034324 -0.190900 -0.025000
v 0.045667 -0.182409 -0.025000
vt 0.000000 0.000000
vt 0.000000 0.000000
vt 0.000000 0.000000
vt 0.000000 0.000000
vt 0.000000 0.000000
vt 0.000000 0.000000
vt 0.000000 0.000000
vt 0.000000 0.000000
vt 0.000000 0.000000
vt 0.000000 0.000000
vt 0.000000 0.000000
vt 0.000000 0.000000
vt 0.000000 0.000000
vt 0.000000 0.000000
vt 0.000000 0.000000
vt 0.000000 0.000000
vt 0.000000 0.000000
vt 0.000000 0.000000
vt 0.000000 0.000000
vt 0.000000 0.000000
vt 0.000000 0.000000
vt 0.000000 0.000000
vt 0.000000 0.000000
vt 0.000000 0.000000
vt 0.000000 0.000000
vt 0.000000 0.000000
vt 0.000000 0.000000
vt 0.000000 0.000000
vt 0.000000 0.000000
vt 0.000000 0.000000
vt 0.000000 0.000000
vt 0.000000 0.000000
vt 0.000000 0.000000
vt 0.000000 0.000000
vt 0.000000 0.000000
vt 0.000000 0.000000
vt 0.000000 0.000000
vt 0.000000 0.000000
vt 0.000000 0.000000
vt 0.000000 0.000000
vt 0.000000 0.000000
vt 0.000000 0.000000
vt 0.000000 0.000000
vt 0.000000 0.000000
vt 0.000000 0.000000
vt 0.000000 0.000000
vt 0.000000 0.000000
vt 0.000000 0.000000
vt 0.000000 0.000000
vt 0.000000 0.000000
vt 0.000000 0.000000
vt 0.000000 0.000000
vt 0.000000 0.000000
vt 0.000000 0.000000
vt 0.000000 0.000000
vt 0.000000 0.000000
vn -0.527923 0.849292 -0.000000
vn -0.527923 0.849292 -0.000000
vn -0.209485 0.977812 -0.000000
vn -0.807384 0.590027 -0.000000
vn -0.209485 0.977812 -0.000000
vn -0.807384 0.590027 -0.000000
vn 0.050448 0.998727 -0.000000
vn -0.977497 0.210948 -0.000000
vn 0.050448 0.998727 -0.000000
vn 0.141272 0.989971 -0.000000
vn 0.141272 0.989971 -0.000000
vn -0.977497 0.210948 -0.000000
vn -0.999996 0.002655 -0.000000
vn -0.999996 0.002655 -0.000000
vn -0.075016 -0.997182 0.000000
vn 0.141366 -0.989957 0.000000
vn 0.141366 -0.989957 0.000000
vn -0.075016 -0.997182 0.000000
vn -0.152777 -0.988261 0.000000
vn -0.152777 -0.988261 0.000000
vn 0.445333 -0.895365 0.000000
vn 0.445333 -0.895365 0.000000
vn 0.759989 -0.649936 0.000000
vn 0.759989 -0.649936 0.000000
vn 0.943821 -0.330456 0.000000
vn 0.943821 -0.330456 0.000000
vn 0.995613 -0.093570 0.000000
vn 0.995613 -0.093570 0.000000
vn 1.000000 -0.000641 0.000000
vn 1.000000 -0.000641 0.000000
vn 0.000000 0.000000 1.000000
vn 0.000000 0.000000 1.000000
vn 0.000000 0.000000 1.000000
vn 0.000000 0.000000 1.000000
vn 0.000000 0.000000 1.000000
vn 0.000000 0.000000 1.000000
vn 0.000000 0.000000 1.000000
vn 0.000000 0.000000 1.000000
vn 0.000000 0.000000 1.000000
vn 0.000000 0.000000 1.000000
vn 0.000000 0.000000 1.000000
vn 0.000000 0.000000 1.000000
vn 0.000000 0.000000 1.000000
vn -0.000000 -0.000000 -1.000000
vn -0.000000 -0.000000 -1.000000
vn -0.000000 -0.000000 -1.000000
vn -0.000000 -0.000000 -1.000000
vn -0.000000 -0.000000 -1.000000
vn -0.000000 -0.000000 -1.000000
vn -0.000000 -0.000000 -1.000000
vn -0.000000 -0.000000 -1.000000
vn -0.000000 -0.000000 -1.000000
vn -0.000000 -0.000000 -1.000000
vn -0.000000 -0.000000 -1.000000
vn -0.000000 -0.000000 -1.000000
vn -0.000000 -0.000000 -1.000000
f 1/1/1 2/2/2 3/3/3
f 1/1/1 4/4/4 2/2/2
f 3/3/3 2/2/2 5/5/5
f 6/6/6 4/4/4 1/1/1
f 7/7/7 3/3/3 5/5/5
f 6/6/6 8/8/8 4/4/4
f 7/7/7 5/5/5 9/9/9
f 10/10/10 7/7/7 9/9/9
f 10/10/10 9/9/9 11/11/11
f 12/12/12 8/8/8 6/6/6
f 13/13/13 8/8/8 12/12/12
f 8/8/8 13/13/13 14/14/14
f 15/15/15 16/16/16 17/17/17
f 15/15/15 17/17/17 18/18/18
f 19/19/19 15/15/15 18/18/18
f 19/19/19 18/18/18 20/20/20
f 16/16/16 21/21/21 17/17/17
f 22/22/22 21/21/21 16/16/16
f 22/22/22 23/23/23 21/21/21
f 24/24/24 23/23/23 22/22/22
f 24/24/24 25/25/25 23/23/23
f 26/26/26 25/25/25 24/24/24
f 26/26/26 27/27/27 25/25/25
f 28/28/28 27/27/27 26/26/26
f 28/28/28 29/29/29 27/27/27
f 28/28/28 30/30/30 29/29/29
f 31/31/31 32/32/32 33/33/33
f 34/34/34 31/31/31 33/33/33
f 35/35/35 33/33/33 32/32/32
f 36/36/36 33/33/33 35/35/35
f 34/34/34 33/33/33 37/37/37
f 37/37/37 33/33/33 38/38/38
f 38/38/38 39/39/39 37/37/37
f 39/39/39 40/40/40 37/37/37
f 37/37/37 40/40/40 41/41/41
f 41/41/41 40/40/40 42/42/42
f 43/43/43 41/41/41 42/42/42
f 44/44/44 45/45/45 46/46/46
f 47/47/47 45/45/45 44/44/44
f 48/48/48 46/46/46 45/45/45
f 49/49/49 48/48/48 45/45/45
f 47/47/47 50/50/50 45/45/45
f 50/50/50 51/51/51 45/45/45
f 51/51/51 50/50/50 52/52/52
f 52/52/52 50/50/50 53/53/53
f 50/50/50 54/54/54 53/53/53
f 54/54/54 55/55/55 53/53/53
f 56/56/56 55/55/55 54/54/54
