# Generated from Roblox mesh JSON (v2.00)
# Hello from RBX_Toolbox ;)
o M
v 0.221799 -0.166363 -0.025000
v 0.221799 -0.166363 0.025000
v 0.210894 -0.185523 -0.025000
v 0.210894 -0.185523 0.025000
v 0.203771 0.169691 0.025000
v 0.203771 0.169691 -0.025000
v 0.114997 -0.188887 -0.025000
v 0.145942 -0.195635 -0.025000
v 0.145942 -0.195635 0.025000
v 0.114997 -0.188887 0.025000
v 0.183661 -0.195178 0.025000
v 0.183661 -0.195178 -0.025000
v 0.210894 -0.185523 0.025000
v 0.210894 -0.185523 -0.025000
v -0.058863 0.184737 -0.025000
v -0.092576 0.195206 -0.025000
v -0.092576 0.195206 0.025000
v -0.058863 0.184737 0.025000
v -0.135321 0.195883 0.025000
v -0.135321 0.195883 -0.025000
v -0.167353 0.187930 0.025000
v -0.167353 0.187930 -0.025000
v -0.182526 0.177081 0.025000
v -0.182526 0.177081 -0.025000
v -0.189495 0.166079 0.025000
v -0.189495 0.166079 -0.025000
v -0.196618 0.119859 0.025000
v -0.196618 0.119859 -0.025000
v -0.217292 -0.112480 0.025000
v -0.217292 -0.112480 -0.025000
v -0.221799 -0.184290 -0.025000
v -0.221799 -0.184290 0.025000
v 0.016168 -0.111064 -0.025000
v 0.016168 -0.111064 0.025000
v -0.010672 -0.111494 -0.025000
v 0.039769 -0.105300 0.025000
v -0.010672 -0.111494 0.025000
v 0.039769 -0.105300 -0.025000
v -0.030732 -0.107835 -0.025000
v 0.053963 -0.093435 0.025000
v -0.030732 -0.107835 0.025000
v -0.051627 -0.097539 -0.025000
v -0.051627 -0.097539 0.025000
v 0.053963 -0.093435 -0.025000
v 0.092649 0.025556 0.025000
v 0.092649 0.025556 -0.025000
v 0.103683 0.064897 0.025000
v 0.103683 0.064897 -0.025000
v -0.100314 0.061475 -0.025000
v -0.051627 -0.097539 -0.025000
v -0.051627 -0.097539 0.025000
v -0.100314 0.061475 0.025000
v 0.056661 0.161992 -0.025000
v 0.056661 0.161992 0.025000
v 0.076855 0.184497 -0.025000
v 0.037363 0.108558 0.025000
v 0.076855 0.184497 0.025000
v 0.037363 0.108558 -0.025000
v 0.002473 -0.002427 0.025000
v 0.002473 -0.002427 -0.025000
v 0.108851 0.195204 -0.025000
v 0.108851 0.195204 0.025000
v 0.151718 0.195868 -0.025000
v 0.151718 0.195868 0.025000
v 0.175653 0.189975 -0.025000
v 0.175653 0.189975 0.025000
v 0.193871 0.179468 -0.025000
v 0.193871 0.179468 0.025000
v 0.203771 0.169691 -0.025000
v 0.203771 0.169691 0.025000
v -0.221799 -0.184290 0.025000
v -0.202954 -0.192604 0.025000
v -0.217292 -0.112480 0.025000
v -0.182544 -0.195883 0.025000
v -0.154678 -0.195732 0.025000
v -0.111089 -0.164343 0.025000
v -0.129035 -0.188737 0.025000
v -0.118000 -0.179713 0.025000
v -0.106503 -0.064718 0.025000
v -0.103348 0.061657 0.025000
v -0.196618 0.119859 0.025000
v -0.135321 0.195883 0.025000
v -0.189495 0.166079 0.025000
v -0.167353 0.187930 0.025000
v -0.182526 0.177081 0.025000
v -0.092576 0.195206 0.025000
v -0.100314 0.061475 0.025000
v -0.058863 0.184737 0.025000
v -0.030815 0.100202 0.025000
v -0.000587 -0.002436 0.025000
v -0.051627 -0.097539 0.025000
v -0.030732 -0.107835 0.025000
v -0.010672 -0.111494 0.025000
v 0.002473 -0.002427 0.025000
v 0.016168 -0.111064 0.025000
v 0.053963 -0.093435 0.025000
v 0.039769 -0.105300 0.025000
v 0.092649 0.025556 0.025000
v 0.037363 0.108558 0.025000
v 0.103683 0.064897 0.025000
v 0.056661 0.161992 0.025000
v 0.106766 0.064907 0.025000
v 0.108851 0.195204 0.025000
v 0.076855 0.184497 0.025000
v 0.151718 0.195868 0.025000
v 0.175653 0.189975 0.025000
v 0.203771 0.169691 0.025000
v 0.193871 0.179468 0.025000
v 0.110112 -0.015977 0.025000
v 0.221799 -0.166363 0.025000
v 0.111986 -0.120785 0.025000
v 0.183661 -0.195178 0.025000
v 0.210894 -0.185523 0.025000
v 0.145942 -0.195635 0.025000
v 0.114997 -0.188887 0.025000
v -0.221799 -0.184290 -0.025000
v -0.217292 -0.112480 -0.025000
v -0.202954 -0.192604 -0.025000
v -0.182544 -0.195883 -0.025000
v -0.154678 -0.195732 -0.025000
v -0.111089 -0.164343 -0.025000
v -0.129035 -0.188737 -0.025000
v -0.118000 -0.179713 -0.025000
v -0.106503 -0.064718 -0.025000
v -0.103348 0.061657 -0.025000
v -0.196618 0.119859 -0.025000
v -0.135321 0.195883 -0.025000
v -0.189495 0.166079 -0.025000
v -0.167353 0.187930 -0.025000
v -0.182526 0.177081 -0.025000
v -0.092576 0.195206 -0.025000
v -0.100314 0.061475 -0.025000
v -0.058863 0.184737 -0.025000
v -0.030815 0.100202 -0.025000
v -0.000587 -0.002436 -0.025000
v -0.051627 -0.097539 -0.025000
v -0.030732 -0.107835 -0.025000
v -0.010672 -0.111494 -0.025000
v 0.002473 -0.002427 -0.025000
v 0.016168 -0.111064 -0.025000
v 0.053963 -0.093435 -0.025000
v 0.039769 -0.105300 -0.025000
v 0.092649 0.025556 -0.025000
v 0.037363 0.108558 -0.025000
v 0.103683 0.064897 -0.025000
v 0.056661 0.161992 -0.025000
v 0.106766 0.064907 -0.025000
v 0.076855 0.184497 -0.025000
v 0.108851 0.195204 -0.025000
v 0.151718 0.195868 -0.025000
v 0.175653 0.189975 -0.025000
v 0.203771 0.169691 -0.025000
v 0.193871 0.179468 -0.025000
v 0.110112 -0.015977 -0.025000
v 0.221799 -0.166363 -0.025000
v 0.111986 -0.120785 -0.025000
v 0.183661 -0.195178 -0.025000
v 0.210894 -0.185523 -0.025000
v 0.145942 -0.195635 -0.025000
v 0.114997 -0.188887 -0.025000
v -0.000587 -0.002436 -0.025000
v -0.030815 0.100202 -0.025000
v -0.030815 0.100202 0.025000
v -0.000587 -0.002436 0.025000
v -0.058863 0.184737 0.025000
v -0.058863 0.184737 -0.025000
v -0.000587 -0.002436 -0.025000
v -0.000587 -0.002436 0.025000
v 0.002473 -0.002427 -0.025000
v 0.002473 -0.002427 0.025000
v -0.100314 0.061475 -0.025000
v -0.100314 0.061475 0.025000
v -0.103348 0.061657 -0.025000
v -0.103348 0.061657 0.025000
v -0.202954 -0.192604 -0.025000
v -0.202954 -0.192604 0.025000
v -0.221799 -0.184290 -0.025000
v -0.221799 -0.184290 0.025000
v -0.182544 -0.195883 0.025000
v -0.182544 -0.195883 -0.025000
v -0.154678 -0.195732 0.025000
v -0.154678 -0.195732 -0.025000
v -0.129035 -0.188737 0.025000
v -0.129035 -0.188737 -0.025000
v -0.118000 -0.179713 0.025000
v -0.118000 -0.179713 -0.025000
v -0.111089 -0.164343 0.025000
v -0.111089 -0.164343 -0.025000
v -0.106503 -0.064718 0.025000
v -0.106503 -0.064718 -0.025000
v -0.103348 0.061657 0.025000
v -0.103348 0.061657 -0.025000
v 0.106766 0.064907 -0.025000
v 0.106766 0.064907 0.025000
v 0.103683 0.064897 -0.025000
v 0.103683 0.064897 0.025000
v 0.114997 -0.188887 -0.025000
v 0.111986 -0.120785 0.025000
v 0.111986 -0.120785 -0.025000
v 0.114997 -0.188887 0.025000
v 0.110112 -0.015977 -0.025000
v 0.110112 -0.015977 0.025000
v 0.106766 0.064907 -0.025000
v 0.106766 0.064907 0.025000
vt 0.000000 0.000000
vt 0.000000 0.000000
vt 0.000000 0.000000
vt 0.000000 0.000000
vt 0.000000 0.000000
vt 0.000000 0.000000
vt 0.000000 0.000000
vt 0.000000 0.000000
vt 0.000000 0.000000
vt 0.000000 0.000000
vt 0.000000 0.000000
vt 0.000000 0.000000
vt 0.000000 0.000000
vt 0.000000 0.000000
vt 0.000000 0.000000
vt 0.000000 0.000000
vt 0.000000 0.000000
vt 0.000000 0.000000
vt 0.000000 0.000000
vt 0.000000 0.000000
vt 0.000000 0.000000
vt 0.000000 0.000000
vt 0.000000 0.000000
vt 0.000000 0.000000
vt 0.000000 0.000000
vt 0.000000 0.000000
vt 0.000000 0.000000
vt 0.000000 0.000000
vt 0.000000 0.000000
vt 0.000000 0.000000
vt 0.000000 0.000000
vt 0.000000 0.000000
vt 0.000000 0.000000
vt 0.000000 0.000000
vt 0.000000 0.000000
vt 0.000000 0.000000
vt 0.000000 0.000000
vt 0.000000 0.000000
vt 0.000000 0.000000
vt 0.000000 0.000000
vt 0.000000 0.000000
vt 0.000000 0.000000
vt 0.000000 0.000000
vt 0.000000 0.000000
vt 0.000000 0.000000
vt 0.000000 0.000000
vt 0.000000 0.000000
vt 0.000000 0.000000
vt 0.000000 0.000000
vt 0.000000 0.000000
vt 0.000000 0.000000
vt 0.000000 0.000000
vt 0.000000 0.000000
vt 0.000000 0.000000
vt 0.000000 0.000000
vt 0.000000 0.000000
vt 0.000000 0.000000
vt 0.000000 0.000000
vt 0.000000 0.000000
vt 0.000000 0.000000
vt 0.000000 0.000000
vt 0.000000 0.000000
vt 0.000000 0.000000
vt 0.000000 0.000000
vt 0.000000 0.000000
vt 0.000000 0.000000
vt 0.000000 0.000000
vt 0.000000 0.000000
vt 0.000000 0.000000
vt 0.000000 0.000000
vt 0.000000 0.000000
vt 0.000000 0.000000
vt 0.000000 0.000000
vt 0.000000 0.000000
vt 0.000000 0.000000
vt 0.000000 0.000000
vt 0.000000 0.000000
vt 0.000000 0.000000
vt 0.000000 0.000000
vt 0.000000 0.000000
vt 0.000000 0.000000
vt 0.000000 0.000000
vt 0.000000 0.000000
vt 0.000000 0.000000
vt 0.000000 0.000000
vt 0.000000 0.000000
vt 0.000000 0.000000
vt 0.000000 0.000000
vt 0.000000 0.000000
vt 0.000000 0.000000
vt 0.000000 0.000000
vt 0.000000 0.000000
vt 0.000000 0.000000
vt 0.000000 0.000000
vt 0.000000 0.000000
vt 0.000000 0.000000
vt 0.000000 0.000000
vt 0.000000 0.000000
vt 0.000000 0.000000
vt 0.000000 0.000000
vt 0.000000 0.000000
vt 0.000000 0.000000
vt 0.000000 0.000000
vt 0.000000 0.000000
vt 0.000000 0.000000
vt 0.000000 0.000000
vt 0.000000 0.000000
vt 0.000000 0.000000
vt 0.000000 0.000000
vt 0.000000 0.000000
vt 0.000000 0.000000
vt 0.000000 0.000000
vt 0.000000 0.000000
vt 0.000000 0.000000
vt 0.000000 0.000000
vt 0.000000 0.000000
vt 0.000000 0.000000
vt 0.000000 0.000000
vt 0.000000 0.000000
vt 0.000000 0.000000
vt 0.000000 0.000000
vt 0.000000 0.000000
vt 0.000000 0.000000
vt 0.000000 0.000000
vt 0.000000 0.000000
vt 0.000000 0.000000
vt 0.000000 0.000000
vt 0.000000 0.000000
vt 0.000000 0.000000
vt 0.000000 0.000000
vt 0.000000 0.000000
vt 0.000000 0.000000
vt 0.000000 0.000000
vt 0.000000 0.000000
vt 0.000000 0.000000
vt 0.000000 0.000000
vt 0.000000 0.000000
vt 0.000000 0.000000
vt 0.000000 0.000000
vt 0.000000 0.000000
vt 0.000000 0.000000
vt 0.000000 0.000000
vt 0.000000 0.000000
vt 0.000000 0.000000
vt 0.000000 0.000000
vt 0.000000 0.000000
vt 0.000000 0.000000
vt 0.000000 0.000000
vt 0.000000 0.000000
vt 0.000000 0.000000
vt 0.000000 0.000000
vt 0.000000 0.000000
vt 0.000000 0.000000
vt 0.000000 0.000000
vt 0.000000 0.000000
vt 0.000000 0.000000
vt 0.000000 0.000000
vt 0.000000 0.000000
vt 0.000000 0.000000
vt 0.000000 0.000000
vt 0.000000 0.000000
vt 0.000000 0.000000
vt 0.000000 0.000000
vt 0.000000 0.000000
vt 0.000000 0.000000
vt 0.000000 0.000000
vt 0.000000 0.000000
vt 0.000000 0.000000
vt 0.000000 0.000000
vt 0.000000 0.000000
vt 0.000000 0.000000
vt 0.000000 0.000000
vt 0.000000 0.000000
vt 0.000000 0.000000
vt 0.000000 0.000000
vt 0.000000 0.000000
vt 0.000000 0.000000
vt 0.000000 0.000000
vt 0.000000 0.000000
vt 0.000000 0.000000
vt 0.000000 0.000000
vt 0.000000 0.000000
vt 0.000000 0.000000
vt 0.000000 0.000000
vt 0.000000 0.000000
vt 0.000000 0.000000
vt 0.000000 0.000000
vt 0.000000 0.000000
vt 0.000000 0.000000
vt 0.000000 0.000000
vt 0.000000 0.000000
vt 0.000000 0.000000
vt 0.000000 0.000000
vt 0.000000 0.000000
vt 0.000000 0.000000
vt 0.000000 0.000000
vt 0.000000 0.000000
vt 0.000000 0.000000
vt 0.000000 0.000000
vt 0.000000 0.000000
vt 0.000000 0.000000
vt 0.000000 0.000000
vt 0.000000 0.000000
vt 0.000000 0.000000
vn 0.973235 -0.229812 0.000000
vn 0.973235 -0.229812 0.000000
vn 0.869111 -0.494616 0.000000
vn 0.869111 -0.494616 0.000000
vn 0.998565 0.053562 -0.000000
vn 0.998565 0.053562 -0.000000
vn -0.213054 -0.977040 0.000000
vn -0.101108 -0.994875 0.000000
vn -0.101108 -0.994875 0.000000
vn -0.213054 -0.977040 0.000000
vn 0.175484 -0.984482 0.000000
vn 0.175484 -0.984482 0.000000
vn 0.334126 -0.942529 0.000000
vn 0.334126 -0.942529 0.000000
vn 0.296558 0.955015 -0.000000
vn 0.157813 0.987469 -0.000000
vn 0.157813 0.987469 -0.000000
vn 0.296558 0.955015 -0.000000
vn -0.113499 0.993538 -0.000000
vn -0.113499 0.993538 -0.000000
vn -0.418754 0.908100 -0.000000
vn -0.418754 0.908100 -0.000000
vn -0.726651 0.687007 -0.000000
vn -0.726651 0.687007 -0.000000
vn -0.936319 0.351150 -0.000000
vn -0.936319 0.351150 -0.000000
vn -0.992711 0.120518 -0.000000
vn -0.992711 0.120518 -0.000000
vn -0.997136 0.075625 -0.000000
vn -0.997136 0.075625 -0.000000
vn -0.998037 0.062625 -0.000000
vn -0.998037 0.062625 -0.000000
vn 0.127418 -0.991849 0.000000
vn 0.127418 -0.991849 0.000000
vn -0.082096 -0.996624 0.000000
vn 0.450982 -0.892533 0.000000
vn -0.082096 -0.996624 0.000000
vn 0.450982 -0.892533 0.000000
vn -0.313736 -0.949510 0.000000
vn 0.828474 -0.560027 0.000000
vn -0.313736 -0.949510 0.000000
vn -0.442042 -0.896994 0.000000
vn -0.442042 -0.896994 0.000000
vn 0.828474 -0.560027 0.000000
vn 0.957131 -0.289654 0.000000
vn 0.957131 -0.289654 0.000000
vn 0.962851 -0.270034 0.000000
vn 0.962851 -0.270034 0.000000
vn -0.956184 -0.292767 0.000000
vn -0.956184 -0.292767 0.000000
vn -0.956184 -0.292767 0.000000
vn -0.956184 -0.292767 0.000000
vn -0.858249 0.513234 -0.000000
vn -0.858249 0.513234 -0.000000
vn -0.549039 0.835797 -0.000000
vn -0.947471 0.319842 -0.000000
vn -0.549039 0.835797 -0.000000
vn -0.947471 0.319842 -0.000000
vn -0.953976 0.299884 -0.000000
vn -0.953976 0.299884 -0.000000
vn -0.168372 0.985724 -0.000000
vn -0.168372 0.985724 -0.000000
vn 0.112706 0.993628 -0.000000
vn 0.112706 0.993628 -0.000000
vn 0.373000 0.927831 -0.000000
vn 0.373000 0.927831 -0.000000
vn 0.606072 0.795410 -0.000000
vn 0.606072 0.795410 -0.000000
vn 0.702652 0.711533 -0.000000
vn 0.702652 0.711533 -0.000000
vn 0.000000 0.000000 1.000000
vn 0.000000 0.000000 1.000000
vn 0.000000 0.000000 1.000000
vn 0.000000 0.000000 1.000000
vn 0.000000 0.000000 1.000000
vn 0.000000 0.000000 1.000000
vn 0.000000 0.000000 1.000000
vn 0.000000 0.000000 1.000000
vn 0.000000 0.000000 1.000000
vn 0.000000 0.000000 1.000000
vn 0.000000 0.000000 1.000000
vn 0.000000 0.000000 1.000000
vn 0.000000 0.000000 1.000000
vn 0.000000 0.000000 1.000000
vn 0.000000 0.000000 1.000000
vn 0.000000 0.000000 1.000000
vn 0.000000 0.000000 1.000000
vn 0.000000 0.000000 1.000000
vn 0.000000 0.000000 1.000000
vn 0.000000 0.000000 1.000000
vn 0.000000 0.000000 1.000000
vn 0.000000 0.000000 1.000000
vn 0.000000 0.000000 1.000000
vn 0.000000 0.000000 1.000000
vn 0.000000 0.000000 1.000000
vn 0.000000 0.000000 1.000000
vn 0.000000 0.000000 1.000000
vn 0.000000 0.000000 1.000000
vn 0.000000 0.000000 1.000000
vn 0.000000 0.000000 1.000000
vn 0.000000 0.000000 1.000000
vn 0.000000 0.000000 1.000000
vn 0.000000 0.000000 1.000000
vn 0.000000 0.000000 1.000000
vn 0.000000 0.000000 1.000000
vn 0.000000 0.000000 1.000000
vn 0.000000 0.000000 1.000000
vn 0.000000 0.000000 1.000000
vn 0.000000 0.000000 1.000000
vn 0.000000 0.000000 1.000000
vn 0.000000 0.000000 1.000000
vn 0.000000 0.000000 1.000000
vn 0.000000 0.000000 1.000000
vn 0.000000 0.000000 1.000000
vn 0.000000 0.000000 1.000000
vn -0.000000 -0.000000 -1.000000
vn -0.000000 -0.000000 -1.000000
vn -0.000000 -0.000000 -1.000000
vn -0.000000 -0.000000 -1.000000
vn -0.000000 -0.000000 -1.000000
vn -0.000000 -0.000000 -1.000000
vn -0.000000 -0.000000 -1.000000
vn -0.000000 -0.000000 -1.000000
vn -0.000000 -0.000000 -1.000000
vn -0.000000 -0.000000 -1.000000
vn -0.000000 -0.000000 -1.000000
vn -0.000000 -0.000000 -1.000000
vn -0.000000 -0.000000 -1.000000
vn -0.000000 -0.000000 -1.000000
vn -0.000000 -0.000000 -1.000000
vn -0.000000 -0.000000 -1.000000
vn -0.000000 -0.000000 -1.000000
vn -0.000000 -0.000000 -1.000000
vn -0.000000 -0.000000 -1.000000
vn -0.000000 -0.000000 -1.000000
vn -0.000000 -0.000000 -1.000000
vn -0.000000 -0.000000 -1.000000
vn -0.000000 -0.000000 -1.000000
vn -0.000000 -0.000000 -1.000000
vn -0.000000 -0.000000 -1.000000
vn -0.000000 -0.000000 -1.000000
vn -0.000000 -0.000000 -1.000000
vn -0.000000 -0.000000 -1.000000
vn -0.000000 -0.000000 -1.000000
vn -0.000000 -0.000000 -1.000000
vn -0.000000 -0.000000 -1.000000
vn -0.000000 -0.000000 -1.000000
vn -0.000000 -0.000000 -1.000000
vn -0.000000 -0.000000 -1.000000
vn -0.000000 -0.000000 -1.000000
vn -0.000000 -0.000000 -1.000000
vn -0.000000 -0.000000 -1.000000
vn -0.000000 -0.000000 -1.000000
vn -0.000000 -0.000000 -1.000000
vn -0.000000 -0.000000 -1.000000
vn -0.000000 -0.000000 -1.000000
vn -0.000000 -0.000000 -1.000000
vn -0.000000 -0.000000 -1.000000
vn -0.000000 -0.000000 -1.000000
vn -0.000000 -0.000000 -1.000000
vn 0.959264 0.282512 -0.000000
vn 0.954331 0.298751 -0.000000
vn 0.954331 0.298751 -0.000000
vn 0.959264 0.282512 -0.000000
vn 0.949125 0.314900 -0.000000
vn 0.949125 0.314900 -0.000000
vn -0.002930 0.999996 -0.000000
vn -0.002930 0.999996 -0.000000
vn -0.002930 0.999996 -0.000000
vn -0.002930 0.999996 -0.000000
vn -0.059939 -0.998202 0.000000
vn -0.059939 -0.998202 0.000000
vn -0.059939 -0.998202 0.000000
vn -0.059939 -0.998202 0.000000
vn -0.283465 -0.958983 0.000000
vn -0.283465 -0.958983 0.000000
vn -0.403639 -0.914918 0.000000
vn -0.403639 -0.914918 0.000000
vn -0.076876 -0.997041 0.000000
vn -0.076876 -0.997041 0.000000
vn 0.135441 -0.990785 0.000000
vn 0.135441 -0.990785 0.000000
vn 0.458131 -0.888885 0.000000
vn 0.458131 -0.888885 0.000000
vn 0.793705 -0.608303 0.000000
vn 0.793705 -0.608303 0.000000
vn 0.972685 -0.232131 0.000000
vn 0.972685 -0.232131 0.000000
vn 0.999371 -0.035463 0.000000
vn 0.999371 -0.035463 0.000000
vn 0.999689 -0.024934 0.000000
vn 0.999689 -0.024934 0.000000
vn 0.003296 -0.999995 0.000000
vn 0.003296 -0.999995 0.000000
vn 0.003296 -0.999995 0.000000
vn 0.003296 -0.999995 0.000000
vn -0.999024 -0.044160 0.000000
vn -0.999519 -0.031007 0.000000
vn -0.999519 -0.031007 0.000000
vn -0.999024 -0.044160 0.000000
vn -0.999562 -0.029604 0.000000
vn -0.999562 -0.029604 0.000000
vn -0.999146 -0.041323 0.000000
vn -0.999146 -0.041323 0.000000
f 1/1/1 2/2/2 3/3/3
f 3/3/3 2/2/2 4/4/4
f 1/1/1 5/5/5 2/2/2
f 1/1/1 6/6/6 5/5/5
f 7/7/7 8/8/8 9/9/9
f 7/7/7 9/9/9 10/10/10
f 8/8/8 11/11/11 9/9/9
f 8/8/8 12/12/12 11/11/11
f 12/12/12 13/13/13 11/11/11
f 14/14/14 13/13/13 12/12/12
f 15/15/15 16/16/16 17/17/17
f 15/15/15 17/17/17 18/18/18
f 16/16/16 19/19/19 17/17/17
f 16/16/16 20/20/20 19/19/19
f 20/20/20 21/21/21 19/19/19
f 20/20/20 22/22/22 21/21/21
f 22/22/22 23/23/23 21/21/21
f 24/24/24 23/23/23 22/22/22
f 24/24/24 25/25/25 23/23/23
f 26/26/26 25/25/25 24/24/24
f 26/26/26 27/27/27 25/25/25
f 26/26/26 28/28/28 27/27/27
f 28/28/28 29/29/29 27/27/27
f 28/28/28 30/30/30 29/29/29
f 31/31/31 29/29/29 30/30/30
f 29/29/29 31/31/31 32/32/32
f 33/33/33 34/34/34 35/35/35
f 33/33/33 36/36/36 34/34/34
f 35/35/35 34/34/34 37/37/37
f 38/38/38 36/36/36 33/33/33
f 35/35/35 37/37/37 39/39/39
f 38/38/38 40/40/40 36/36/36
f 39/39/39 37/37/37 41/41/41
f 39/39/39 41/41/41 42/42/42
f 42/42/42 41/41/41 43/43/43
f 44/44/44 40/40/40 38/38/38
f 44/44/44 45/45/45 40/40/40
f 44/44/44 46/46/46 45/45/45
f 46/46/46 47/47/47 45/45/45
f 46/46/46 48/48/48 47/47/47
f 49/49/49 50/50/50 51/51/51
f 49/49/49 51/51/51 52/52/52
f 53/53/53 54/54/54 55/55/55
f 53/53/53 56/56/56 54/54/54
f 55/55/55 54/54/54 57/57/57
f 53/53/53 58/58/58 56/56/56
f 58/58/58 59/59/59 56/56/56
f 58/58/58 60/60/60 59/59/59
f 61/61/61 55/55/55 57/57/57
f 61/61/61 57/57/57 62/62/62
f 63/63/63 61/61/61 62/62/62
f 63/63/63 62/62/62 64/64/64
f 63/63/63 64/64/64 65/65/65
f 65/65/65 64/64/64 66/66/66
f 65/65/65 66/66/66 67/67/67
f 67/67/67 66/66/66 68/68/68
f 67/67/67 68/68/68 69/69/69
f 69/69/69 68/68/68 70/70/70
f 71/71/71 72/72/72 73/73/73
f 73/73/73 72/72/72 74/74/74
f 73/73/73 74/74/74 75/75/75
f 76/76/76 73/73/73 75/75/75
f 77/77/77 76/76/76 75/75/75
f 77/77/77 78/78/78 76/76/76
f 76/76/76 79/79/79 73/73/73
f 80/80/80 73/73/73 79/79/79
f 80/80/80 81/81/81 73/73/73
f 81/81/81 80/80/80 82/82/82
f 81/81/81 82/82/82 83/83/83
f 83/83/83 82/82/82 84/84/84
f 83/83/83 84/84/84 85/85/85
f 80/80/80 86/86/86 82/82/82
f 80/80/80 87/87/87 86/86/86
f 86/86/86 87/87/87 88/88/88
f 89/89/89 88/88/88 87/87/87
f 89/89/89 87/87/87 90/90/90
f 87/87/87 91/91/91 90/90/90
f 92/92/92 90/90/90 91/91/91
f 93/93/93 90/90/90 92/92/92
f 90/90/90 93/93/93 94/94/94
f 94/94/94 93/93/93 95/95/95
f 95/95/95 96/96/96 94/94/94
f 97/97/97 96/96/96 95/95/95
f 94/94/94 96/96/96 98/98/98
f 98/98/98 99/99/99 94/94/94
f 100/100/100 99/99/99 98/98/98
f 100/100/100 101/101/101 99/99/99
f 102/102/102 101/101/101 100/100/100
f 101/101/101 103/103/103 104/104/104
f 103/103/103 101/101/101 102/102/102
f 102/102/102 105/105/105 103/103/103
f 102/102/102 106/106/106 105/105/105
f 102/102/102 107/107/107 106/106/106
f 106/106/106 107/107/107 108/108/108
f 102/102/102 109/109/109 107/107/107
f 107/107/107 109/109/109 110/110/110
f 110/110/110 109/109/109 111/111/111
f 112/112/112 110/110/110 111/111/111
f 110/110/110 112/112/112 113/113/113
f 111/111/111 114/114/114 112/112/112
f 115/115/115 114/114/114 111/111/111
f 116/116/116 117/117/117 118/118/118
f 117/117/117 119/119/119 118/118/118
f 117/117/117 120/120/120 119/119/119
f 121/121/121 120/120/120 117/117/117
f 122/122/122 120/120/120 121/121/121
f 122/122/122 121/121/121 123/123/123
f 121/121/121 117/117/117 124/124/124
f 125/125/125 124/124/124 117/117/117
f 125/125/125 117/117/117 126/126/126
f 126/126/126 127/127/127 125/125/125
f 126/126/126 128/128/128 127/127/127
f 128/128/128 129/129/129 127/127/127
f 128/128/128 130/130/130 129/129/129
f 125/125/125 127/127/127 131/131/131
f 125/125/125 131/131/131 132/132/132
f 131/131/131 133/133/133 132/132/132
f 134/134/134 132/132/132 133/133/133
f 134/134/134 135/135/135 132/132/132
f 132/132/132 135/135/135 136/136/136
f 137/137/137 136/136/136 135/135/135
f 138/138/138 137/137/137 135/135/135
f 135/135/135 139/139/139 138/138/138
f 139/139/139 140/140/140 138/138/138
f 140/140/140 139/139/139 141/141/141
f 142/142/142 140/140/140 141/141/141
f 139/139/139 143/143/143 141/141/141
f 143/143/143 139/139/139 144/144/144
f 145/145/145 143/143/143 144/144/144
f 145/145/145 144/144/144 146/146/146
f 147/147/147 145/145/145 146/146/146
f 146/146/146 148/148/148 149/149/149
f 149/149/149 147/147/147 146/146/146
f 147/147/147 149/149/149 150/150/150
f 147/147/147 150/150/150 151/151/151
f 147/147/147 151/151/151 152/152/152
f 151/151/151 153/153/153 152/152/152
f 147/147/147 152/152/152 154/154/154
f 152/152/152 155/155/155 154/154/154
f 155/155/155 156/156/156 154/154/154
f 157/157/157 156/156/156 155/155/155
f 155/155/155 158/158/158 157/157/157
f 156/156/156 157/157/157 159/159/159
f 160/160/160 156/156/156 159/159/159
f 161/161/161 162/162/162 163/163/163
f 161/161/161 163/163/163 164/164/164
f 162/162/162 165/165/165 163/163/163
f 162/162/162 166/166/166 165/165/165
f 167/167/167 168/168/168 169/169/169
f 169/169/169 168/168/168 170/170/170
f 171/171/171 172/172/172 173/173/173
f 173/173/173 172/172/172 174/174/174
f 175/175/175 176/176/176 177/177/177
f 177/177/177 176/176/176 178/178/178
f 175/175/175 179/179/179 176/176/176
f 180/180/180 179/179/179 175/175/175
f 180/180/180 181/181/181 179/179/179
f 182/182/182 181/181/181 180/180/180
f 182/182/182 183/183/183 181/181/181
f 184/184/184 183/183/183 182/182/182
f 184/184/184 185/185/185 183/183/183
f 186/186/186 185/185/185 184/184/184
f 186/186/186 187/187/187 185/185/185
f 188/188/188 187/187/187 186/186/186
f 188/188/188 189/189/189 187/187/187
f 188/188/188 190/190/190 189/189/189
f 190/190/190 191/191/191 189/189/189
f 190/190/190 192/192/192 191/191/191
f 193/193/193 194/194/194 195/195/195
f 195/195/195 194/194/194 196/196/196
f 197/197/197 198/198/198 199/199/199
f 198/198/198 197/197/197 200/200/200
f 201/201/201 199/199/199 198/198/198
f 201/201/201 198/198/198 202/202/202
f 203/203/203 201/201/201 202/202/202
f 203/203/203 202/202/202 204/204/204
