# Generated from Roblox mesh JSON (v2.00)
# Hello from RBX_Toolbox ;)
o P
v 0.149898 0.172753 -0.025000
v 0.149898 0.172753 0.025000
v 0.155813 0.160533 -0.025000
v 0.133074 0.183850 0.025000
v 0.155813 0.160533 0.025000
v 0.133074 0.183850 -0.025000
v 0.156030 -0.156555 -0.025000
v 0.095990 0.193802 0.025000
v 0.156030 -0.156555 0.025000
v 0.095990 0.193802 -0.025000
v 0.153154 -0.171775 -0.025000
v 0.048766 0.199242 0.025000
v 0.153154 -0.171775 0.025000
v 0.048766 0.199242 -0.025000
v 0.146373 -0.184584 -0.025000
v -0.011745 0.198240 0.025000
v 0.146373 -0.184584 0.025000
v -0.011745 0.198240 -0.025000
v 0.135030 -0.193076 -0.025000
v -0.059655 0.188772 0.025000
v 0.135030 -0.193076 0.025000
v -0.059655 0.188772 -0.025000
v 0.122333 -0.197253 -0.025000
v -0.098158 0.171166 0.025000
v 0.122333 -0.197253 0.025000
v -0.098158 0.171166 -0.025000
v 0.105154 -0.199242 -0.025000
v -0.127771 0.145437 0.025000
v 0.105154 -0.199242 0.025000
v -0.127771 0.145437 -0.025000
v 0.077025 -0.198772 -0.025000
v -0.144902 0.118164 0.025000
v 0.077025 -0.198772 0.025000
v 0.045153 -0.193845 -0.025000
v 0.045153 -0.193845 0.025000
v -0.144902 0.118164 -0.025000
v -0.154634 0.086671 0.025000
v -0.154634 0.086671 -0.025000
v -0.156030 0.045629 0.025000
v -0.156030 0.045629 -0.025000
v -0.149064 0.010208 0.025000
v -0.149064 0.010208 -0.025000
v -0.136721 -0.015561 0.025000
v -0.136721 -0.015561 -0.025000
v -0.118935 -0.037949 0.025000
v -0.118935 -0.037949 -0.025000
v -0.089727 -0.058493 0.025000
v -0.089727 -0.058493 -0.025000
v -0.058442 -0.070016 0.025000
v -0.058442 -0.070016 -0.025000
v -0.023277 -0.076161 0.025000
v -0.023277 -0.076161 -0.025000
v 0.045087 -0.076746 0.025000
v 0.045087 -0.076746 -0.025000
v -0.040178 0.080478 0.025000
v -0.144902 0.118164 0.025000
v -0.154634 0.086671 0.025000
v -0.127771 0.145437 0.025000
v -0.043098 0.066676 0.025000
v -0.033068 0.093144 0.025000
v -0.156030 0.045629 0.025000
v -0.098158 0.171166 0.025000
v -0.042696 0.050123 0.025000
v -0.059655 0.188772 0.025000
v -0.149064 0.010208 0.025000
v -0.020312 0.103447 0.025000
v -0.039101 0.036542 0.025000
v -0.011745 0.198240 0.025000
v -0.136721 -0.015561 0.025000
v 0.002647 0.110525 0.025000
v -0.118935 -0.037949 0.025000
v 0.034792 0.110295 0.025000
v -0.032429 0.025906 0.025000
v 0.048766 0.199242 0.025000
v -0.089727 -0.058493 0.025000
v -0.022620 0.017998 0.025000
v -0.058442 -0.070016 0.025000
v -0.023277 -0.076161 0.025000
v -0.003862 0.011076 0.025000
v 0.045721 0.108781 0.025000
v 0.095990 0.193802 0.025000
v 0.133074 0.183850 0.025000
v 0.045087 -0.076746 0.025000
v 0.155813 0.160533 0.025000
v 0.149898 0.172753 0.025000
v 0.045722 0.010294 0.025000
v 0.156030 -0.156555 0.025000
v 0.077025 -0.198772 0.025000
v 0.045153 -0.193845 0.025000
v 0.105154 -0.199242 0.025000
v 0.122333 -0.197253 0.025000
v 0.153154 -0.171775 0.025000
v 0.135030 -0.193076 0.025000
v 0.146373 -0.184584 0.025000
v -0.040178 0.080478 -0.025000
v -0.154634 0.086671 -0.025000
v -0.144902 0.118164 -0.025000
v -0.127771 0.145437 -0.025000
v -0.043098 0.066676 -0.025000
v -0.033068 0.093144 -0.025000
v -0.156030 0.045629 -0.025000
v -0.098158 0.171166 -0.025000
v -0.042696 0.050123 -0.025000
v -0.059655 0.188772 -0.025000
v -0.149064 0.010208 -0.025000
v -0.020312 0.103447 -0.025000
v -0.039101 0.036542 -0.025000
v -0.011745 0.198240 -0.025000
v -0.136721 -0.015561 -0.025000
v 0.002647 0.110525 -0.025000
v -0.118935 -0.037949 -0.025000
v 0.034792 0.110295 -0.025000
v -0.032429 0.025906 -0.025000
v 0.048766 0.199242 -0.025000
v -0.089727 -0.058493 -0.025000
v 0.045721 0.108781 -0.025000
v -0.022620 0.017998 -0.025000
v 0.095990 0.193802 -0.025000
v -0.058442 -0.070016 -0.025000
v 0.133074 0.183850 -0.025000
v -0.023277 -0.076161 -0.025000
v -0.003862 0.011076 -0.025000
v 0.155813 0.160533 -0.025000
v 0.149898 0.172753 -0.025000
v 0.045722 0.010294 -0.025000
v 0.045087 -0.076746 -0.025000
v 0.156030 -0.156555 -0.025000
v 0.077025 -0.198772 -0.025000
v 0.045153 -0.193845 -0.025000
v 0.105154 -0.199242 -0.025000
v 0.122333 -0.197253 -0.025000
v 0.153154 -0.171775 -0.025000
v 0.135030 -0.193076 -0.025000
v 0.146373 -0.184584 -0.025000
v -0.033068 0.093144 -0.025000
v -0.033068 0.093144 0.025000
v -0.040178 0.080478 -0.025000
v -0.020312 0.103447 0.025000
v -0.040178 0.080478 0.025000
v -0.020312 0.103447 -0.025000
v -0.043098 0.066676 -0.025000
v 0.002647 0.110525 0.025000
v -0.043098 0.066676 0.025000
v 0.002647 0.110525 -0.025000
v -0.042696 0.050123 -0.025000
v 0.034792 0.110295 0.025000
v -0.042696 0.050123 0.025000
v 0.034792 0.110295 -0.025000
v 0.045721 0.108781 0.025000
v 0.045721 0.108781 -0.025000
v -0.039101 0.036542 -0.025000
v -0.039101 0.036542 0.025000
v -0.032429 0.025906 -0.025000
v -0.032429 0.025906 0.025000
v -0.022620 0.017998 -0.025000
v -0.022620 0.017998 0.025000
v -0.003862 0.011076 -0.025000
v -0.003862 0.011076 0.025000
v 0.045722 0.010294 -0.025000
v 0.045722 0.010294 0.025000
v 0.045153 -0.193845 -0.025000
v 0.045087 -0.076746 0.025000
v 0.045087 -0.076746 -0.025000
v 0.045153 -0.193845 0.025000
v 0.045721 0.108781 -0.025000
v 0.045722 0.010294 -0.025000
v 0.045722 0.010294 0.025000
v 0.045721 0.108781 0.025000
vt 0.000000 0.000000
vt 0.000000 0.000000
vt 0.000000 0.000000
vt 0.000000 0.000000
vt 0.000000 0.000000
vt 0.000000 0.000000
vt 0.000000 0.000000
vt 0.000000 0.000000
vt 0.000000 0.000000
vt 0.000000 0.000000
vt 0.000000 0.000000
vt 0.000000 0.000000
vt 0.000000 0.000000
vt 0.000000 0.000000
vt 0.000000 0.000000
vt 0.000000 0.000000
vt 0.000000 0.000000
vt 0.000000 0.000000
vt 0.000000 0.000000
vt 0.000000 0.000000
vt 0.000000 0.000000
vt 0.000000 0.000000
vt 0.000000 0.000000
vt 0.000000 0.000000
vt 0.000000 0.000000
vt 0.000000 0.000000
vt 0.000000 0.000000
vt 0.000000 0.000000
vt 0.000000 0.000000
vt 0.000000 0.000000
vt 0.000000 0.000000
vt 0.000000 0.000000
vt 0.000000 0.000000
vt 0.000000 0.000000
vt 0.000000 0.000000
vt 0.000000 0.000000
vt 0.000000 0.000000
vt 0.000000 0.000000
vt 0.000000 0.000000
vt 0.000000 0.000000
vt 0.000000 0.000000
vt 0.000000 0.000000
vt 0.000000 0.000000
vt 0.000000 0.000000
vt 0.000000 0.000000
vt 0.000000 0.000000
vt 0.000000 0.000000
vt 0.000000 0.000000
vt 0.000000 0.000000
vt 0.000000 0.000000
vt 0.000000 0.000000
vt 0.000000 0.000000
vt 0.000000 0.000000
vt 0.000000 0.000000
vt 0.000000 0.000000
vt 0.000000 0.000000
vt 0.000000 0.000000
vt 0.000000 0.000000
vt 0.000000 0.000000
vt 0.000000 0.000000
vt 0.000000 0.000000
vt 0.000000 0.000000
vt 0.000000 0.000000
vt 0.000000 0.000000
vt 0.000000 0.000000
vt 0.000000 0.000000
vt 0.000000 0.000000
vt 0.000000 0.000000
vt 0.000000 0.000000
vt 0.000000 0.000000
vt 0.000000 0.000000
vt 0.000000 0.000000
vt 0.000000 0.000000
vt 0.000000 0.000000
vt 0.000000 0.000000
vt 0.000000 0.000000
vt 0.000000 0.000000
vt 0.000000 0.000000
vt 0.000000 0.000000
vt 0.000000 0.000000
vt 0.000000 0.000000
vt 0.000000 0.000000
vt 0.000000 0.000000
vt 0.000000 0.000000
vt 0.000000 0.000000
vt 0.000000 0.000000
vt 0.000000 0.000000
vt 0.000000 0.000000
vt 0.000000 0.000000
vt 0.000000 0.000000
vt 0.000000 0.000000
vt 0.000000 0.000000
vt 0.000000 0.000000
vt 0.000000 0.000000
vt 0.000000 0.000000
vt 0.000000 0.000000
vt 0.000000 0.000000
vt 0.000000 0.000000
vt 0.000000 0.000000
vt 0.000000 0.000000
vt 0.000000 0.000000
vt 0.000000 0.000000
vt 0.000000 0.000000
vt 0.000000 0.000000
vt 0.000000 0.000000
vt 0.000000 0.000000
vt 0.000000 0.000000
vt 0.000000 0.000000
vt 0.000000 0.000000
vt 0.000000 0.000000
vt 0.000000 0.000000
vt 0.000000 0.000000
vt 0.000000 0.000000
vt 0.000000 0.000000
vt 0.000000 0.000000
vt 0.000000 0.000000
vt 0.000000 0.000000
vt 0.000000 0.000000
vt 0.000000 0.000000
vt 0.000000 0.000000
vt 0.000000 0.000000
vt 0.000000 0.000000
vt 0.000000 0.000000
vt 0.000000 0.000000
vt 0.000000 0.000000
vt 0.000000 0.000000
vt 0.000000 0.000000
vt 0.000000 0.000000
vt 0.000000 0.000000
vt 0.000000 0.000000
vt 0.000000 0.000000
vt 0.000000 0.000000
vt 0.000000 0.000000
vt 0.000000 0.000000
vt 0.000000 0.000000
vt 0.000000 0.000000
vt 0.000000 0.000000
vt 0.000000 0.000000
vt 0.000000 0.000000
vt 0.000000 0.000000
vt 0.000000 0.000000
vt 0.000000 0.000000
vt 0.000000 0.000000
vt 0.000000 0.000000
vt 0.000000 0.000000
vt 0.000000 0.000000
vt 0.000000 0.000000
vt 0.000000 0.000000
vt 0.000000 0.000000
vt 0.000000 0.000000
vt 0.000000 0.000000
vt 0.000000 0.000000
vt 0.000000 0.000000
vt 0.000000 0.000000
vt 0.000000 0.000000
vt 0.000000 0.000000
vt 0.000000 0.000000
vt 0.000000 0.000000
vt 0.000000 0.000000
vt 0.000000 0.000000
vt 0.000000 0.000000
vt 0.000000 0.000000
vt 0.000000 0.000000
vt 0.000000 0.000000
vt 0.000000 0.000000
vt 0.000000 0.000000
vt 0.000000 0.000000
vt 0.000000 0.000000
vn 0.752301 0.658820 -0.000000
vn 0.752301 0.658820 -0.000000
vn 0.974635 0.223798 -0.000000
vn 0.410153 0.912017 -0.000000
vn 0.974635 0.223798 -0.000000
vn 0.410153 0.912017 -0.000000
vn 0.995676 -0.092899 0.000000
vn 0.187328 0.982297 -0.000000
vn 0.995676 -0.092899 0.000000
vn 0.187328 0.982297 -0.000000
vn 0.943821 -0.330456 0.000000
vn 0.049044 0.998797 -0.000000
vn 0.943821 -0.330456 0.000000
vn 0.049044 0.998797 -0.000000
vn 0.759989 -0.649936 0.000000
vn -0.105627 0.994406 -0.000000
vn 0.759989 -0.649936 0.000000
vn -0.105627 0.994406 -0.000000
vn 0.461972 -0.886894 0.000000
vn -0.306956 0.951724 -0.000000
vn 0.461972 -0.886894 0.000000
vn -0.306956 0.951724 -0.000000
vn 0.214855 -0.976646 0.000000
vn -0.541404 0.840763 -0.000000
vn 0.214855 -0.976646 0.000000
vn -0.541404 0.840763 -0.000000
vn 0.049257 -0.998786 0.000000
vn -0.759567 0.650429 -0.000000
vn 0.049257 -0.998786 0.000000
vn -0.759567 0.650429 -0.000000
vn -0.084935 -0.996387 0.000000
vn -0.908859 0.417104 -0.000000
vn -0.084935 -0.996387 0.000000
vn -0.152777 -0.988261 0.000000
vn -0.152777 -0.988261 0.000000
vn -0.908859 0.417104 -0.000000
vn -0.986116 0.166057 -0.000000
vn -0.986116 0.166057 -0.000000
vn -0.996796 -0.079991 0.000000
vn -0.996796 -0.079991 0.000000
vn -0.949098 -0.314982 0.000000
vn -0.949098 -0.314982 0.000000
vn -0.847777 -0.530353 0.000000
vn -0.847777 -0.530353 0.000000
vn -0.686174 -0.727437 0.000000
vn -0.686174 -0.727437 0.000000
vn -0.464380 -0.885636 0.000000
vn -0.464380 -0.885636 0.000000
vn -0.259932 -0.965627 0.000000
vn -0.259932 -0.965627 0.000000
vn -0.090640 -0.995884 0.000000
vn -0.090640 -0.995884 0.000000
vn -0.008545 -0.999963 0.000000
vn -0.008545 -0.999963 0.000000
vn 0.000000 0.000000 1.000000
vn 0.000000 0.000000 1.000000
vn 0.000000 0.000000 1.000000
vn 0.000000 0.000000 1.000000
vn 0.000000 0.000000 1.000000
vn 0.000000 0.000000 1.000000
vn 0.000000 0.000000 1.000000
vn 0.000000 0.000000 1.000000
vn 0.000000 0.000000 1.000000
vn 0.000000 0.000000 1.000000
vn 0.000000 0.000000 1.000000
vn 0.000000 0.000000 1.000000
vn 0.000000 0.000000 1.000000
vn 0.000000 0.000000 1.000000
vn 0.000000 0.000000 1.000000
vn 0.000000 0.000000 1.000000
vn 0.000000 0.000000 1.000000
vn 0.000000 0.000000 1.000000
vn 0.000000 0.000000 1.000000
vn 0.000000 0.000000 1.000000
vn 0.000000 0.000000 1.000000
vn 0.000000 0.000000 1.000000
vn 0.000000 0.000000 1.000000
vn 0.000000 0.000000 1.000000
vn 0.000000 0.000000 1.000000
vn 0.000000 0.000000 1.000000
vn 0.000000 0.000000 1.000000
vn 0.000000 0.000000 1.000000
vn 0.000000 0.000000 1.000000
vn 0.000000 0.000000 1.000000
vn 0.000000 0.000000 1.000000
vn 0.000000 0.000000 1.000000
vn 0.000000 0.000000 1.000000
vn 0.000000 0.000000 1.000000
vn 0.000000 0.000000 1.000000
vn 0.000000 0.000000 1.000000
vn 0.000000 0.000000 1.000000
vn 0.000000 0.000000 1.000000
vn 0.000000 0.000000 1.000000
vn 0.000000 0.000000 1.000000
vn -0.000000 -0.000000 -1.000000
vn -0.000000 -0.000000 -1.000000
vn -0.000000 -0.000000 -1.000000
vn -0.000000 -0.000000 -1.000000
vn -0.000000 -0.000000 -1.000000
vn -0.000000 -0.000000 -1.000000
vn -0.000000 -0.000000 -1.000000
vn -0.000000 -0.000000 -1.000000
vn -0.000000 -0.000000 -1.000000
vn -0.000000 -0.000000 -1.000000
vn -0.000000 -0.000000 -1.000000
vn -0.000000 -0.000000 -1.000000
vn -0.000000 -0.000000 -1.000000
vn -0.000000 -0.000000 -1.000000
vn -0.000000 -0.000000 -1.000000
vn -0.000000 -0.000000 -1.000000
vn -0.000000 -0.000000 -1.000000
vn -0.000000 -0.000000 -1.000000
vn -0.000000 -0.000000 -1.000000
vn -0.000000 -0.000000 -1.000000
vn -0.000000 -0.000000 -1.000000
vn -0.000000 -0.000000 -1.000000
vn -0.000000 -0.000000 -1.000000
vn -0.000000 -0.000000 -1.000000
vn -0.000000 -0.000000 -1.000000
vn -0.000000 -0.000000 -1.000000
vn -0.000000 -0.000000 -1.000000
vn -0.000000 -0.000000 -1.000000
vn -0.000000 -0.000000 -1.000000
vn -0.000000 -0.000000 -1.000000
vn -0.000000 -0.000000 -1.000000
vn -0.000000 -0.000000 -1.000000
vn -0.000000 -0.000000 -1.000000
vn -0.000000 -0.000000 -1.000000
vn -0.000000 -0.000000 -1.000000
vn -0.000000 -0.000000 -1.000000
vn -0.000000 -0.000000 -1.000000
vn -0.000000 -0.000000 -1.000000
vn -0.000000 -0.000000 -1.000000
vn -0.000000 -0.000000 -1.000000
vn 0.763901 -0.645333 0.000000
vn 0.763901 -0.645333 0.000000
vn 0.935894 -0.352280 0.000000
vn 0.469932 -0.882702 0.000000
vn 0.935894 -0.352280 0.000000
vn 0.469932 -0.882702 0.000000
vn 0.995763 -0.091953 0.000000
vn 0.145424 -0.989369 0.000000
vn 0.995763 -0.091953 0.000000
vn 0.145424 -0.989369 0.000000
vn 0.990001 0.141058 -0.000000
vn -0.072299 -0.997383 0.000000
vn 0.990001 0.141058 -0.000000
vn -0.072299 -0.997383 0.000000
vn -0.137152 -0.990550 0.000000
vn -0.137152 -0.990550 0.000000
vn 0.917318 0.398155 -0.000000
vn 0.917318 0.398155 -0.000000
vn 0.747667 0.664074 -0.000000
vn 0.747667 0.664074 -0.000000
vn 0.493405 0.869800 -0.000000
vn 0.493405 0.869800 -0.000000
vn 0.183570 0.983007 -0.000000
vn 0.183570 0.983007 -0.000000
vn 0.015779 0.999875 -0.000000
vn 0.015779 0.999875 -0.000000
vn -1.000000 -0.000549 0.000000
vn -1.000000 -0.000549 0.000000
vn -1.000000 -0.000549 0.000000
vn -1.000000 -0.000549 0.000000
vn -1.000000 0.000000 0.000000
vn -1.000000 0.000000 0.000000
vn -1.000000 0.000000 0.000000
vn -1.000000 0.000000 0.000000
f 1/1/1 2/2/2 3/3/3
f 1/1/1 4/4/4 2/2/2
f 3/3/3 2/2/2 5/5/5
f 6/6/6 4/4/4 1/1/1
f 7/7/7 3/3/3 5/5/5
f 6/6/6 8/8/8 4/4/4
f 7/7/7 5/5/5 9/9/9
f 6/6/6 10/10/10 8/8/8
f 7/7/7 9/9/9 11/11/11
f 10/10/10 12/12/12 8/8/8
f 11/11/11 9/9/9 13/13/13
f 10/10/10 14/14/14 12/12/12
f 11/11/11 13/13/13 15/15/15
f 14/14/14 16/16/16 12/12/12
f 15/15/15 13/13/13 17/17/17
f 14/14/14 18/18/18 16/16/16
f 15/15/15 17/17/17 19/19/19
f 18/18/18 20/20/20 16/16/16
f 19/19/19 17/17/17 21/21/21
f 18/18/18 22/22/22 20/20/20
f 19/19/19 21/21/21 23/23/23
f 22/22/22 24/24/24 20/20/20
f 23/23/23 21/21/21 25/25/25
f 22/22/22 26/26/26 24/24/24
f 23/23/23 25/25/25 27/27/27
f 26/26/26 28/28/28 24/24/24
f 27/27/27 25/25/25 29/29/29
f 26/26/26 30/30/30 28/28/28
f 27/27/27 29/29/29 31/31/31
f 30/30/30 32/32/32 28/28/28
f 31/31/31 29/29/29 33/33/33
f 34/34/34 31/31/31 33/33/33
f 34/34/34 33/33/33 35/35/35
f 36/36/36 32/32/32 30/30/30
f 36/36/36 37/37/37 32/32/32
f 36/36/36 38/38/38 37/37/37
f 38/38/38 39/39/39 37/37/37
f 38/38/38 40/40/40 39/39/39
f 40/40/40 41/41/41 39/39/39
f 40/40/40 42/42/42 41/41/41
f 42/42/42 43/43/43 41/41/41
f 44/44/44 43/43/43 42/42/42
f 44/44/44 45/45/45 43/43/43
f 46/46/46 45/45/45 44/44/44
f 46/46/46 47/47/47 45/45/45
f 46/46/46 48/48/48 47/47/47
f 48/48/48 49/49/49 47/47/47
f 48/48/48 50/50/50 49/49/49
f 50/50/50 51/51/51 49/49/49
f 50/50/50 52/52/52 51/51/51
f 52/52/52 53/53/53 51/51/51
f 52/52/52 54/54/54 53/53/53
f 55/55/55 56/56/56 57/57/57
f 55/55/55 58/58/58 56/56/56
f 55/55/55 57/57/57 59/59/59
f 60/60/60 58/58/58 55/55/55
f 59/59/59 57/57/57 61/61/61
f 60/60/60 62/62/62 58/58/58
f 63/63/63 59/59/59 61/61/61
f 60/60/60 64/64/64 62/62/62
f 61/61/61 65/65/65 63/63/63
f 66/66/66 64/64/64 60/60/60
f 63/63/63 65/65/65 67/67/67
f 64/64/64 66/66/66 68/68/68
f 65/65/65 69/69/69 67/67/67
f 68/68/68 66/66/66 70/70/70
f 69/69/69 71/71/71 67/67/67
f 72/72/72 68/68/68 70/70/70
f 67/67/67 71/71/71 73/73/73
f 74/74/74 68/68/68 72/72/72
f 71/71/71 75/75/75 73/73/73
f 73/73/73 75/75/75 76/76/76
f 75/75/75 77/77/77 76/76/76
f 77/77/77 78/78/78 76/76/76
f 76/76/76 78/78/78 79/79/79
f 74/74/74 72/72/72 80/80/80
f 81/81/81 74/74/74 80/80/80
f 82/82/82 81/81/81 80/80/80
f 83/83/83 79/79/79 78/78/78
f 84/84/84 82/82/82 80/80/80
f 85/85/85 82/82/82 84/84/84
f 86/86/86 84/84/84 80/80/80
f 83/83/83 86/86/86 79/79/79
f 87/87/87 84/84/84 86/86/86
f 87/87/87 86/86/86 83/83/83
f 87/87/87 83/83/83 88/88/88
f 88/88/88 83/83/83 89/89/89
f 88/88/88 90/90/90 87/87/87
f 87/87/87 90/90/90 91/91/91
f 87/87/87 91/91/91 92/92/92
f 92/92/92 91/91/91 93/93/93
f 94/94/94 92/92/92 93/93/93
f 95/95/95 96/96/96 97/97/97
f 95/95/95 97/97/97 98/98/98
f 95/95/95 99/99/99 96/96/96
f 100/100/100 95/95/95 98/98/98
f 99/99/99 101/101/101 96/96/96
f 100/100/100 98/98/98 102/102/102
f 103/103/103 101/101/101 99/99/99
f 100/100/100 102/102/102 104/104/104
f 101/101/101 103/103/103 105/105/105
f 106/106/106 100/100/100 104/104/104
f 103/103/103 107/107/107 105/105/105
f 104/104/104 108/108/108 106/106/106
f 105/105/105 107/107/107 109/109/109
f 108/108/108 110/110/110 106/106/106
f 109/109/109 107/107/107 111/111/111
f 112/112/112 110/110/110 108/108/108
f 107/107/107 113/113/113 111/111/111
f 114/114/114 112/112/112 108/108/108
f 111/111/111 113/113/113 115/115/115
f 114/114/114 116/116/116 112/112/112
f 113/113/113 117/117/117 115/115/115
f 118/118/118 116/116/116 114/114/114
f 115/115/115 117/117/117 119/119/119
f 120/120/120 116/116/116 118/118/118
f 119/119/119 117/117/117 121/121/121
f 117/117/117 122/122/122 121/121/121
f 123/123/123 116/116/116 120/120/120
f 124/124/124 123/123/123 120/120/120
f 125/125/125 116/116/116 123/123/123
f 126/126/126 121/121/121 122/122/122
f 126/126/126 122/122/122 125/125/125
f 127/127/127 125/125/125 123/123/123
f 127/127/127 126/126/126 125/125/125
f 127/127/127 128/128/128 126/126/126
f 128/128/128 129/129/129 126/126/126
f 128/128/128 127/127/127 130/130/130
f 127/127/127 131/131/131 130/130/130
f 127/127/127 132/132/132 131/131/131
f 132/132/132 133/133/133 131/131/131
f 134/134/134 133/133/133 132/132/132
f 135/135/135 136/136/136 137/137/137
f 135/135/135 138/138/138 136/136/136
f 137/137/137 136/136/136 139/139/139
f 140/140/140 138/138/138 135/135/135
f 137/137/137 139/139/139 141/141/141
f 140/140/140 142/142/142 138/138/138
f 141/141/141 139/139/139 143/143/143
f 144/144/144 142/142/142 140/140/140
f 141/141/141 143/143/143 145/145/145
f 144/144/144 146/146/146 142/142/142
f 145/145/145 143/143/143 147/147/147
f 144/144/144 148/148/148 146/146/146
f 148/148/148 149/149/149 146/146/146
f 150/150/150 149/149/149 148/148/148
f 145/145/145 147/147/147 151/151/151
f 151/151/151 147/147/147 152/152/152
f 151/151/151 152/152/152 153/153/153
f 153/153/153 152/152/152 154/154/154
f 153/153/153 154/154/154 155/155/155
f 155/155/155 154/154/154 156/156/156
f 155/155/155 156/156/156 157/157/157
f 157/157/157 156/156/156 158/158/158
f 159/159/159 157/157/157 158/158/158
f 159/159/159 158/158/158 160/160/160
f 161/161/161 162/162/162 163/163/163
f 162/162/162 161/161/161 164/164/164
f 165/165/165 166/166/166 167/167/167
f 165/165/165 167/167/167 168/168/168
