# Generated from Roblox mesh JSON (v4.01)
# Hello from RBX_Toolbox ;)
o RightUpperArm
v 0.119601 -0.347209 -0.157970
v 0.233234 -0.374271 -0.058044
v 0.157861 -0.398839 -0.086931
v 0.241222 -0.303191 -0.110513
v 0.309706 -0.295938 0.005475
v 0.092152 -0.428132 -0.056430
v 0.017305 -0.396605 -0.106510
v -0.009368 -0.427349 0.012562
v 0.197638 -0.436808 0.020613
v 0.070838 -0.447591 0.018136
v 0.100190 -0.448211 0.101344
v 0.032717 -0.429148 0.148492
v 0.157349 -0.383762 0.212945
v 0.177602 -0.422813 0.138616
v 0.251766 -0.389243 0.097293
v 0.276049 -0.325676 0.140895
v 0.274055 -0.370597 0.014498
v -0.309706 0.414040 -0.022561
v -0.261875 0.413929 0.109713
v -0.234728 0.434350 0.070896
v -0.141241 0.395664 0.144297
v -0.251064 0.448211 -0.027093
v -0.138183 0.421618 0.089818
v -0.250805 0.435746 -0.120052
v -0.278647 0.400646 -0.160807
v -0.134676 0.438826 -0.024054
v -0.049400 0.400359 0.071684
v -0.022556 0.381588 0.097145
v 0.038879 0.379569 -0.017764
v -0.143477 0.421227 -0.143079
v -0.140053 0.379243 -0.197230
v -0.050546 0.395189 -0.119680
v -0.019494 0.370338 -0.136883
v -0.018133 0.404815 -0.020285
v -0.278647 0.400646 -0.160807
v -0.306772 0.316496 -0.008701
v -0.309706 0.414040 -0.022561
v -0.261875 0.413929 0.109713
v -0.270110 0.304404 -0.160878
v -0.140053 0.379243 -0.197230
v -0.272085 0.333312 0.141431
v -0.141241 0.395664 0.144297
v -0.102752 0.311910 -0.212945
v -0.019494 0.370338 -0.136883
v -0.212117 0.067270 -0.001764
v -0.173500 0.078031 0.145509
v -0.112808 0.347532 0.180322
v -0.022556 0.381588 0.097145
v 0.018459 0.342703 0.124071
v -0.020603 0.103807 0.193827
v 0.102205 0.120791 0.131294
v 0.185950 -0.101120 0.138517
v 0.071601 -0.139918 0.207333
v 0.221913 -0.190752 0.139466
v -0.074915 -0.177251 0.149586
v 0.105828 -0.237249 0.209573
v 0.276049 -0.325676 0.140895
v 0.157349 -0.383762 0.212945
v -0.031954 -0.277796 0.149149
v 0.032717 -0.429148 0.148492
v -0.009368 -0.427349 0.012562
v -0.074317 -0.279904 0.008123
v 0.017305 -0.396605 -0.106510
v -0.117463 -0.181955 0.005174
v -0.044020 -0.257077 -0.119729
v 0.119601 -0.347209 -0.157970
v -0.084760 -0.164388 -0.128510
v 0.077044 -0.214680 -0.172153
v 0.241222 -0.303191 -0.110513
v -0.177435 0.070008 -0.144694
v 0.048772 -0.126640 -0.181575
v 0.194520 -0.176145 -0.119374
v 0.309706 -0.295938 0.005475
v -0.026990 0.092635 -0.197260
v 0.163495 -0.091747 -0.125260
v 0.094627 0.116264 -0.134421
v 0.025759 0.324275 -0.143582
v 0.232351 -0.080209 0.001111
v 0.263227 -0.166318 0.002853
v 0.221913 -0.190752 0.139466
v 0.276049 -0.325676 0.140895
v 0.185950 -0.101120 0.138517
v 0.102205 0.120791 0.131294
v 0.156674 0.131009 -0.002393
v 0.018459 0.342703 0.124071
v 0.080997 0.342227 -0.005897
v -0.022556 0.381588 0.097145
v 0.038879 0.379569 -0.017764
vt 0.326326 0.894769
vt 0.296840 0.867622
vt 0.326326 0.867645
vt 0.269341 0.894769
vt 0.269341 0.838190
vt 0.356447 0.867621
vt 0.384061 0.894769
vt 0.384061 0.838190
vt 0.326580 0.838244
vt 0.356469 0.838190
vt 0.356452 0.808956
vt 0.384061 0.781895
vt 0.326326 0.781895
vt 0.326326 0.808931
vt 0.296838 0.808961
vt 0.269341 0.781895
vt 0.296811 0.838190
vt 0.127256 0.992311
vt 0.010682 0.992311
vt 0.052307 0.953591
vt 0.010682 0.885509
vt 0.127256 0.953591
vt 0.052307 0.885509
vt 0.201684 0.953591
vt 0.248173 0.992311
vt 0.127256 0.885509
vt 0.052307 0.814764
vt 0.010682 0.776351
vt 0.127256 0.776351
vt 0.201684 0.885509
vt 0.248173 0.885509
vt 0.201684 0.814764
vt 0.248173 0.776351
vt 0.127256 0.814764
vt 0.492735 0.767580
vt 0.613619 0.740910
vt 0.613619 0.767580
vt 0.734945 0.767580
vt 0.492735 0.740910
vt 0.376579 0.767580
vt 0.734945 0.740910
vt 0.854824 0.767580
vt 0.376579 0.740910
vt 0.249772 0.767580
vt 0.613619 0.675420
vt 0.734945 0.675420
vt 0.854824 0.740910
vt 0.977785 0.767580
vt 0.977785 0.740910
vt 0.854824 0.675420
vt 0.977785 0.675420
vt 0.977785 0.609931
vt 0.854824 0.609931
vt 0.977785 0.583650
vt 0.734945 0.609931
vt 0.854824 0.583650
vt 0.977785 0.544089
vt 0.854824 0.544089
vt 0.734945 0.583650
vt 0.734945 0.544089
vt 0.613619 0.544089
vt 0.613619 0.583650
vt 0.492735 0.544089
vt 0.613619 0.609931
vt 0.492735 0.583650
vt 0.376579 0.544089
vt 0.492735 0.609931
vt 0.376579 0.583650
vt 0.249772 0.544089
vt 0.492735 0.675420
vt 0.376579 0.609931
vt 0.249772 0.583650
vt 0.130073 0.544089
vt 0.376579 0.675420
vt 0.249772 0.609931
vt 0.249772 0.675420
vt 0.249772 0.740910
vt 0.130073 0.609931
vt 0.130073 0.583650
vt 0.008529 0.583650
vt 0.008529 0.544089
vt 0.008529 0.609931
vt 0.008529 0.675420
vt 0.130073 0.675420
vt 0.008529 0.740910
vt 0.130073 0.740910
vt 0.008529 0.767580
vt 0.130073 0.767580
vn 0.104822 -0.424021 -0.899566
vn 0.593234 -0.630273 -0.500829
vn 0.280016 -0.776259 -0.564812
vn 0.661695 -0.145085 -0.735602
vn 0.990885 -0.013619 -0.134017
vn 0.008479 -0.920425 -0.390827
vn -0.390989 -0.702155 -0.595068
vn -0.566148 -0.820823 -0.075674
vn 0.351848 -0.928177 -0.121205
vn -0.091624 -0.989268 -0.113819
vn 0.008615 -0.982929 0.183783
vn -0.390102 -0.769529 0.505614
vn 0.161829 -0.458455 0.873860
vn 0.327162 -0.864386 0.381839
vn 0.684254 -0.682973 0.255628
vn 0.797494 -0.111065 0.593016
vn 0.792327 -0.591315 -0.150213
vn -0.831285 0.555572 0.017485
vn -0.460876 0.700300 0.545136
vn -0.140770 0.957129 0.253155
vn 0.064492 0.743567 0.665545
vn -0.199796 0.979836 -0.001496
vn 0.157304 0.940019 0.302688
vn -0.204917 0.930203 -0.304519
vn -0.555811 0.503372 -0.661582
vn 0.184244 0.982853 -0.007413
vn 0.316921 0.914452 0.251671
vn 0.402975 0.818711 0.409051
vn 0.558022 0.828675 -0.043687
vn 0.159153 0.901600 -0.402227
vn 0.072891 0.512213 -0.855760
vn 0.361172 0.868502 -0.339498
vn 0.482153 0.694245 -0.534372
vn 0.366257 0.930235 -0.022770
vn -0.555811 0.503372 -0.661582
vn -0.983282 -0.179177 0.032427
vn -0.831285 0.555572 0.017485
vn -0.460876 0.700300 0.545136
vn -0.697943 -0.175614 -0.694287
vn 0.072891 0.512213 -0.855760
vn -0.674805 0.050331 0.736278
vn 0.064492 0.743567 0.665545
vn 0.090844 0.115375 -0.989159
vn 0.482153 0.694245 -0.534372
vn -0.932125 -0.361704 0.017697
vn -0.662361 -0.230363 0.712889
vn 0.073414 0.372229 0.925233
vn 0.402975 0.818711 0.409051
vn 0.577564 0.532717 0.618573
vn 0.071071 0.065646 0.995309
vn 0.676024 0.277697 0.682551
vn 0.693146 0.279839 0.664258
vn 0.063478 0.048046 0.996826
vn 0.705798 0.278024 0.651576
vn -0.674203 -0.257146 0.692333
vn 0.045277 0.026941 0.998611
vn 0.797494 -0.111065 0.593016
vn 0.161829 -0.458455 0.873860
vn -0.683590 -0.280543 0.673796
vn -0.390102 -0.769529 0.505614
vn -0.566148 -0.820823 -0.075674
vn -0.913662 -0.406428 -0.006129
vn -0.390989 -0.702155 -0.595068
vn -0.922843 -0.385152 0.004295
vn -0.651174 -0.338165 -0.679424
vn 0.104822 -0.424021 -0.899566
vn -0.657825 -0.318965 -0.682296
vn 0.031247 -0.090334 -0.995421
vn 0.661695 -0.145085 -0.735602
vn -0.667153 -0.300666 -0.681547
vn 0.054748 -0.066267 -0.996299
vn 0.636765 0.171258 -0.751799
vn 0.990885 -0.013619 -0.134017
vn 0.071527 -0.045411 -0.996404
vn 0.653513 0.183644 -0.734299
vn 0.676962 0.196813 -0.709216
vn 0.642064 0.400624 -0.653647
vn 0.939485 0.336123 -0.066255
vn 0.936416 0.338985 -0.090637
vn 0.705798 0.278024 0.651576
vn 0.797494 -0.111065 0.593016
vn 0.693146 0.279839 0.664258
vn 0.676024 0.277697 0.682551
vn 0.942160 0.333876 -0.029356
vn 0.577564 0.532717 0.618573
vn 0.813378 0.581733 0.001315
vn 0.402975 0.818711 0.409051
vn 0.558022 0.828675 -0.043687
f 1/1/1 2/2/2 3/3/3
f 1/1/1 4/4/4 2/2/2
f 5/5/5 2/2/2 4/4/4
f 6/6/6 1/1/1 3/3/3
f 1/1/1 6/6/6 7/7/7
f 6/6/6 8/8/8 7/7/7
f 9/9/9 6/6/6 3/3/3
f 9/9/9 3/3/3 2/2/2
f 6/6/6 10/10/10 8/8/8
f 9/9/9 10/10/10 6/6/6
f 11/11/11 8/8/8 10/10/10
f 9/9/9 11/11/11 10/10/10
f 8/8/8 11/11/11 12/12/12
f 11/11/11 13/13/13 12/12/12
f 9/9/9 14/14/14 11/11/11
f 13/13/13 11/11/11 14/14/14
f 15/15/15 13/13/13 14/14/14
f 9/9/9 15/15/15 14/14/14
f 13/13/13 15/15/15 16/16/16
f 9/9/9 17/17/17 15/15/15
f 17/17/17 16/16/16 15/15/15
f 9/9/9 2/2/2 17/17/17
f 16/16/16 17/17/17 5/5/5
f 2/2/2 5/5/5 17/17/17
f 18/18/18 19/19/19 20/20/20
f 21/21/21 20/20/20 19/19/19
f 18/18/18 20/20/20 22/22/22
f 20/20/20 21/21/21 23/23/23
f 24/24/24 18/18/18 22/22/22
f 18/18/18 24/24/24 25/25/25
f 20/20/20 26/26/26 22/22/22
f 23/23/23 26/26/26 20/20/20
f 26/26/26 24/24/24 22/22/22
f 21/21/21 27/27/27 23/23/23
f 27/27/27 26/26/26 23/23/23
f 27/27/27 21/21/21 28/28/28
f 29/29/29 27/27/27 28/28/28
f 30/30/30 25/25/25 24/24/24
f 24/24/24 26/26/26 30/30/30
f 25/25/25 30/30/30 31/31/31
f 32/32/32 31/31/31 30/30/30
f 26/26/26 32/32/32 30/30/30
f 31/31/31 32/32/32 33/33/33
f 26/26/26 27/27/27 34/34/34
f 27/27/27 29/29/29 34/34/34
f 34/34/34 32/32/32 26/26/26
f 33/33/33 34/34/34 29/29/29
f 34/34/34 33/33/33 32/32/32
f 35/35/35 36/36/36 37/37/37
f 38/38/38 37/37/37 36/36/36
f 36/36/36 35/35/35 39/39/39
f 40/40/40 39/39/39 35/35/35
f 36/36/36 41/41/41 38/38/38
f 42/42/42 38/38/38 41/41/41
f 39/39/39 40/40/40 43/43/43
f 44/44/44 43/43/43 40/40/40
f 39/39/39 45/45/45 36/36/36
f 36/36/36 46/46/46 41/41/41
f 46/46/46 36/36/36 45/45/45
f 41/41/41 47/47/47 42/42/42
f 46/46/46 47/47/47 41/41/41
f 48/48/48 42/42/42 47/47/47
f 47/47/47 49/49/49 48/48/48
f 50/50/50 49/49/49 47/47/47
f 47/47/47 46/46/46 50/50/50
f 49/49/49 50/50/50 51/51/51
f 50/50/50 52/52/52 51/51/51
f 50/50/50 53/53/53 52/52/52
f 46/46/46 53/53/53 50/50/50
f 53/53/53 54/54/54 52/52/52
f 46/46/46 55/55/55 53/53/53
f 45/45/45 55/55/55 46/46/46
f 56/56/56 54/54/54 53/53/53
f 55/55/55 56/56/56 53/53/53
f 56/56/56 57/57/57 54/54/54
f 56/56/56 58/58/58 57/57/57
f 59/59/59 58/58/58 56/56/56
f 59/59/59 56/56/56 55/55/55
f 59/59/59 60/60/60 58/58/58
f 59/59/59 61/61/61 60/60/60
f 61/61/61 59/59/59 62/62/62
f 62/62/62 63/63/63 61/61/61
f 64/64/64 59/59/59 55/55/55
f 59/59/59 64/64/64 62/62/62
f 55/55/55 45/45/45 64/64/64
f 63/63/63 62/62/62 65/65/65
f 64/64/64 65/65/65 62/62/62
f 65/65/65 66/66/66 63/63/63
f 45/45/45 67/67/67 64/64/64
f 65/65/65 64/64/64 67/67/67
f 66/66/66 65/65/65 68/68/68
f 67/67/67 68/68/68 65/65/65
f 68/68/68 69/69/69 66/66/66
f 67/67/67 45/45/45 70/70/70
f 45/45/45 39/39/39 70/70/70
f 68/68/68 67/67/67 71/71/71
f 70/70/70 71/71/71 67/67/67
f 69/69/69 68/68/68 72/72/72
f 71/71/71 72/72/72 68/68/68
f 72/72/72 73/73/73 69/69/69
f 43/43/43 70/70/70 39/39/39
f 71/71/71 70/70/70 74/74/74
f 70/70/70 43/43/43 74/74/74
f 74/74/74 75/75/75 71/71/71
f 72/72/72 71/71/71 75/75/75
f 43/43/43 76/76/76 74/74/74
f 75/75/75 74/74/74 76/76/76
f 76/76/76 43/43/43 77/77/77
f 43/43/43 44/44/44 77/77/77
f 76/76/76 78/78/78 75/75/75
f 75/75/75 79/79/79 72/72/72
f 73/73/73 72/72/72 79/79/79
f 79/79/79 75/75/75 78/78/78
f 80/80/80 73/73/73 79/79/79
f 73/73/73 80/80/80 81/81/81
f 79/79/79 82/82/82 80/80/80
f 82/82/82 79/79/79 78/78/78
f 78/78/78 83/83/83 82/82/82
f 78/78/78 76/76/76 84/84/84
f 83/83/83 78/78/78 84/84/84
f 77/77/77 84/84/84 76/76/76
f 84/84/84 85/85/85 83/83/83
f 84/84/84 77/77/77 86/86/86
f 85/85/85 84/84/84 86/86/86
f 44/44/44 86/86/86 77/77/77
f 86/86/86 87/87/87 85/85/85
f 86/86/86 44/44/44 88/88/88
f 87/87/87 86/86/86 88/88/88
