# Generated from Roblox mesh JSON (v7.00)
# Hello from RBX_Toolbox ;)
o LeftLowerArm
v -0.071464 -0.106874 -0.021838
v -0.063486 -0.153064 -0.043570
v -0.091289 -0.152048 -0.021298
v -0.079150 -0.104171 0.005363
v -0.095093 -0.152299 0.010973
v -0.046802 -0.115322 -0.036835
v -0.049906 -0.048383 -0.023915
v -0.018806 -0.126644 -0.025814
v -0.033024 -0.172878 -0.027637
v -0.008614 -0.131230 0.004521
v -0.027327 -0.182667 0.013891
v 0.001612 -0.067283 -0.026298
v -0.067742 -0.107371 0.029579
v -0.080261 -0.147793 0.034657
v -0.057865 -0.150543 0.043570
v -0.044914 -0.115515 0.039978
v -0.023732 -0.058273 0.040629
v -0.020751 -0.125360 0.030869
v -0.037082 -0.165708 0.035777
v -0.037082 -0.165708 0.035777
v -0.020751 -0.125360 0.030869
v 0.001772 -0.067557 0.029363
v -0.048634 -0.049004 0.029589
v -0.024980 -0.057544 -0.036662
v -0.059539 -0.044877 0.003261
v -0.028164 0.013266 -0.025173
v -0.038374 0.016988 0.002602
v -0.002582 0.003968 -0.037505
v -0.002995 0.082294 -0.025349
v -0.013225 0.086446 0.002416
v -0.026972 0.012845 0.029686
v -0.001152 0.003456 0.040782
v -0.001761 0.082460 0.029661
v 0.012921 -0.071502 0.001716
v 0.023696 -0.005593 -0.026483
v 0.022640 0.072946 -0.037577
v 0.034977 -0.009691 0.001070
v 0.060193 0.059311 0.000950
v 0.048898 0.063426 -0.026548
v 0.024555 -0.005897 0.028876
v 0.001772 -0.067557 0.029363
v 0.024228 0.073016 0.040795
v 0.024555 -0.005897 0.028876
v 0.049809 0.063088 0.028775
v 0.049809 0.063088 0.028775
v 0.057590 0.168815 -0.037581
v 0.031922 0.178203 -0.025410
v 0.021765 0.182667 0.002365
v 0.095093 0.155193 0.000962
v 0.083847 0.159327 -0.026514
v 0.033281 0.178816 0.029659
v 0.084715 0.158982 0.028779
v 0.084715 0.158982 0.028779
v 0.059300 0.169358 0.040785
vt 0.449707 0.632324
vt 0.443848 0.618652
vt 0.449707 0.618652
vt 0.456299 0.632324
vt 0.456299 0.618652
vt 0.443848 0.632324
vt 0.449707 0.650879
vt 0.436035 0.632324
vt 0.436035 0.618652
vt 0.428711 0.632324
vt 0.428711 0.618652
vt 0.436035 0.650879
vt 0.464600 0.632324
vt 0.464600 0.618652
vt 0.471680 0.618652
vt 0.471680 0.632324
vt 0.471680 0.650879
vt 0.478271 0.632324
vt 0.421143 0.618652
vt 0.478271 0.618652
vt 0.421143 0.632324
vt 0.478271 0.650879
vt 0.464600 0.650879
vt 0.443848 0.650879
vt 0.456299 0.650879
vt 0.449707 0.669922
vt 0.456299 0.669922
vt 0.443848 0.669922
vt 0.449707 0.688477
vt 0.456299 0.688477
vt 0.464600 0.669922
vt 0.471680 0.669922
vt 0.464600 0.688477
vt 0.428711 0.650879
vt 0.436035 0.669922
vt 0.443848 0.688477
vt 0.428711 0.669922
vt 0.428711 0.688477
vt 0.436035 0.688477
vt 0.421143 0.669922
vt 0.421143 0.650879
vt 0.471680 0.688477
vt 0.478271 0.669922
vt 0.478271 0.688477
vt 0.421143 0.688477
vt 0.443848 0.707031
vt 0.449707 0.707031
vt 0.456299 0.707031
vt 0.428711 0.707031
vt 0.436035 0.707031
vt 0.464600 0.707031
vt 0.421143 0.707031
vt 0.478271 0.707031
vt 0.471680 0.707031
vn -0.748482 0.292353 -0.595325
vn -0.087108 0.141907 -0.986093
vn -0.800259 0.341198 -0.493725
vn -0.938005 0.335337 0.088519
vn -0.928236 0.349991 0.126618
vn -0.062685 0.073523 -0.994885
vn -0.705498 0.237645 -0.667617
vn 0.690520 -0.224438 -0.687155
vn 0.757927 -0.229322 -0.610956
vn 0.943542 -0.325061 0.063119
vn 0.942565 -0.307476 0.128572
vn 0.650466 -0.238115 -0.721348
vn -0.648837 0.256206 0.716678
vn -0.650791 0.293329 0.700070
vn 0.006676 0.101853 0.995100
vn -0.008955 0.053007 0.999007
vn -0.005047 -0.001700 0.999984
vn 0.640697 -0.188292 0.745008
vn 0.669028 -0.161915 0.725470
vn 0.669028 -0.161915 0.725470
vn 0.640697 -0.188292 0.745008
vn 0.657304 -0.235184 0.715701
vn -0.658606 0.225922 0.717655
vn -0.050962 0.008069 -0.998793
vn -0.945820 0.322637 0.037719
vn -0.686937 0.238622 -0.686178
vn -0.942889 0.333383 0.023065
vn -0.030447 0.004161 -0.999770
vn -0.679121 0.246437 -0.691063
vn -0.939959 0.341198 0.021111
vn -0.655675 0.233737 0.718632
vn 0.009607 -0.004631 0.999984
vn -0.652744 0.236668 0.719609
vn 0.940611 -0.338737 0.006457
vn 0.649489 -0.238115 -0.722324
vn -0.021654 0.007092 -0.999770
vn 0.939634 -0.340691 -0.013081
vn 0.939634 -0.342645 -0.016989
vn 0.652420 -0.238115 -0.719394
vn 0.672935 -0.243976 0.699093
vn 0.657304 -0.235184 0.715701
vn 0.013515 -0.004631 0.999984
vn 0.672935 -0.243976 0.699093
vn 0.675866 -0.245930 0.695186
vn 0.675866 -0.245930 0.695186
vn -0.020678 0.007092 -0.999770
vn -0.680098 0.247414 -0.690086
vn -0.939959 0.342175 0.025019
vn 0.939634 -0.341668 -0.016989
vn 0.652420 -0.238115 -0.719394
vn -0.651767 0.236668 0.720585
vn 0.672935 -0.244953 0.698116
vn 0.672935 -0.244953 0.698116
vn 0.009607 -0.003654 0.999984
f 1/1/1 2/2/2 3/3/3
f 3/3/3 4/4/4 1/1/1
f 4/4/4 3/3/3 5/5/5
f 2/2/2 1/1/1 6/6/6
f 4/4/4 7/7/7 1/1/1
f 6/6/6 1/1/1 7/7/7
f 5/5/5 13/13/13 4/4/4
f 13/13/13 5/5/5 14/14/14
f 15/15/15 13/13/13 14/14/14
f 8/8/8 2/2/2 6/6/6
f 9/9/9 2/2/2 8/8/8
f 20/20/20 18/18/18 15/15/15
f 16/16/16 15/15/15 18/18/18
f 13/13/13 15/15/15 16/16/16
f 18/18/18 22/22/22 16/16/16
f 17/17/17 13/13/13 16/16/16
f 17/17/17 16/16/16 22/22/22
f 13/13/13 17/17/17 23/23/23
f 23/23/23 4/4/4 13/13/13
f 22/22/22 32/32/32 17/17/17
f 17/17/17 32/32/32 23/23/23
f 32/32/32 22/22/22 43/43/43
f 43/43/43 44/44/44 32/32/32
f 42/42/42 32/32/32 44/44/44
f 44/44/44 53/53/53 42/42/42
f 54/54/54 42/42/42 53/53/53
f 51/51/51 42/42/42 54/54/54
f 42/42/42 31/31/31 32/32/32
f 31/31/31 23/23/23 32/32/32
f 42/42/42 51/51/51 33/33/33
f 31/31/31 42/42/42 33/33/33
f 51/51/51 30/30/30 33/33/33
f 30/30/30 51/51/51 48/48/48
f 47/47/47 30/30/30 48/48/48
f 27/27/27 33/33/33 30/30/30
f 33/33/33 27/27/27 31/31/31
f 47/47/47 29/29/29 30/30/30
f 29/29/29 27/27/27 30/30/30
f 46/46/46 29/29/29 47/47/47
f 23/23/23 31/31/31 25/25/25
f 27/27/27 25/25/25 31/31/31
f 4/4/4 23/23/23 25/25/25
f 7/7/7 4/4/4 25/25/25
f 26/26/26 25/25/25 27/27/27
f 25/25/25 26/26/26 7/7/7
f 29/29/29 26/26/26 27/27/27
f 28/28/28 7/7/7 26/26/26
f 28/28/28 26/26/26 29/29/29
f 7/7/7 28/28/28 24/24/24
f 24/24/24 6/6/6 7/7/7
f 36/36/36 28/28/28 29/29/29
f 46/46/46 36/36/36 29/29/29
f 35/35/35 24/24/24 28/28/28
f 36/36/36 35/35/35 28/28/28
f 12/12/12 6/6/6 24/24/24
f 35/35/35 12/12/12 24/24/24
f 12/12/12 8/8/8 6/6/6
f 36/36/36 46/46/46 39/39/39
f 35/35/35 36/36/36 39/39/39
f 50/50/50 39/39/39 46/46/46
f 39/39/39 50/50/50 49/49/49
f 35/35/35 39/39/39 38/38/38
f 39/39/39 49/49/49 38/38/38
f 49/49/49 45/45/45 38/38/38
f 45/45/45 49/49/49 52/52/52
f 40/40/40 38/38/38 45/45/45
f 35/35/35 38/38/38 37/37/37
f 38/38/38 40/40/40 37/37/37
f 12/12/12 35/35/35 37/37/37
f 41/41/41 37/37/37 40/40/40
f 12/12/12 37/37/37 34/34/34
f 37/37/37 41/41/41 34/34/34
f 8/8/8 12/12/12 34/34/34
f 21/21/21 34/34/34 41/41/41
f 8/8/8 34/34/34 10/10/10
f 34/34/34 21/21/21 10/10/10
f 9/9/9 8/8/8 10/10/10
f 19/19/19 10/10/10 21/21/21
f 10/10/10 11/11/11 9/9/9
f 11/11/11 10/10/10 19/19/19
