# Generated from Roblox mesh JSON (v7.00)
# Hello from RBX_Toolbox ;)
o LeftUpperArm
v -0.032092 -0.086600 -0.039206
v -0.072299 -0.197033 -0.039347
v -0.097967 -0.187644 -0.027176
v -0.057674 -0.077230 -0.027034
v -0.108124 -0.183181 0.000599
v -0.067752 -0.072664 0.000650
v -0.046042 -0.206521 -0.028280
v 0.005281 -0.100175 -0.000684
v -0.034796 -0.210654 -0.000804
v -0.005886 -0.096027 -0.028120
v -0.045174 -0.206866 0.027013
v -0.070589 -0.196490 0.039019
v -0.056221 -0.076449 0.027793
v -0.096608 -0.187032 0.027893
v -0.030384 -0.085852 0.038900
v -0.045174 -0.206866 0.027013
v -0.005146 -0.096347 0.026997
v -0.005146 -0.096347 0.026997
v 0.033944 0.011662 0.027416
v 0.006983 0.021397 -0.039318
v -0.018721 0.030836 -0.026888
v -0.028597 0.035243 0.000944
v 0.041264 0.119162 -0.039180
v 0.015802 0.128496 -0.025806
v 0.006745 0.132283 0.002007
v 0.008656 0.022057 0.039054
v -0.017028 0.031424 0.027988
v 0.018396 0.128317 0.028175
v 0.033578 0.011866 -0.028133
v 0.044679 0.007699 -0.000276
v 0.069072 0.109160 -0.027837
v 0.080004 0.105056 0.001266
v 0.033944 0.011662 0.027416
v 0.043118 0.119287 0.039074
v 0.068297 0.109384 0.028516
v 0.068297 0.109384 0.028516
v 0.108124 0.185108 0.007224
v 0.065499 0.200711 -0.038341
v 0.042786 0.208962 -0.023143
v 0.035514 0.210654 0.005866
v 0.097782 0.188956 -0.026162
v 0.067946 0.198419 0.039347
v 0.046855 0.206158 0.029316
v 0.094423 0.190151 0.030660
v 0.094423 0.190151 0.030660
vt 0.443848 0.725586
vt 0.443848 0.707031
vt 0.449707 0.707031
vt 0.449707 0.725586
vt 0.456299 0.707031
vt 0.456299 0.725586
vt 0.436035 0.707031
vt 0.428711 0.725586
vt 0.428711 0.707031
vt 0.436035 0.725586
vt 0.421143 0.707031
vt 0.471680 0.707031
vt 0.464600 0.725586
vt 0.464600 0.707031
vt 0.471680 0.725586
vt 0.478271 0.707031
vt 0.478271 0.725586
vt 0.421143 0.725586
vt 0.478271 0.743164
vt 0.443848 0.743164
vt 0.449707 0.743164
vt 0.456299 0.743164
vt 0.443848 0.760742
vt 0.449707 0.760742
vt 0.456299 0.760742
vt 0.471680 0.743164
vt 0.464600 0.743164
vt 0.464600 0.760742
vt 0.436035 0.743164
vt 0.428711 0.743164
vt 0.436035 0.760742
vt 0.428711 0.760742
vt 0.421143 0.743164
vt 0.471680 0.760742
vt 0.478271 0.760742
vt 0.421143 0.760742
vt 0.428711 0.780273
vt 0.443848 0.780273
vt 0.449707 0.780273
vt 0.456299 0.780273
vt 0.436035 0.780273
vt 0.471680 0.780273
vt 0.464600 0.780273
vt 0.478271 0.780273
vt 0.421143 0.780273
vn -0.020464 0.007919 -0.999782
vn -0.019488 0.008896 -0.999782
vn -0.675003 0.247265 -0.694982
vn -0.678911 0.247265 -0.691074
vn -0.938772 0.343003 0.015241
vn -0.939749 0.342026 0.021103
vn 0.653612 -0.236312 -0.718428
vn 0.939851 -0.341820 -0.013089
vn 0.939851 -0.340843 -0.015043
vn 0.654589 -0.238266 -0.717451
vn 0.679012 -0.246081 0.692249
vn 0.018612 -0.005758 0.999980
vn -0.652534 0.237496 0.719603
vn -0.652534 0.238472 0.718626
vn 0.011774 -0.004781 0.999980
vn 0.679012 -0.246081 0.692249
vn 0.673151 -0.245104 0.697134
vn 0.673151 -0.245104 0.697134
vn 0.664359 -0.243151 0.706903
vn -0.025349 0.009872 -0.999782
vn -0.685749 0.249219 -0.683259
vn -0.939749 0.340072 0.029895
vn -0.043911 0.024526 -0.998805
vn -0.711149 0.258011 -0.653951
vn -0.939749 0.338119 0.056272
vn 0.004936 -0.003804 0.999980
vn -0.651557 0.235542 0.720580
vn -0.651557 0.227726 0.723511
vn 0.656543 -0.237289 -0.715497
vn 0.939851 -0.341820 -0.001366
vn 0.666312 -0.226543 -0.710613
vn 0.941805 -0.334981 0.032826
vn 0.664359 -0.243151 0.706903
vn -0.014603 -0.000874 0.999980
vn 0.637005 -0.232404 0.735234
vn 0.637005 -0.232404 0.735234
vn 0.939851 -0.330097 0.089487
vn -0.083964 0.043088 -0.995874
vn -0.735572 0.265826 -0.622689
vn -0.937795 0.335188 0.087534
vn 0.676082 -0.218728 -0.703774
vn -0.039026 0.004988 0.999003
vn -0.651557 0.220888 0.726441
vn 0.607697 -0.222635 0.762587
vn 0.607697 -0.222635 0.762587
f 1/1/1 2/2/2 3/3/3
f 1/1/1 7/7/7 2/2/2
f 1/1/1 3/3/3 4/4/4
f 4/4/4 3/3/3 5/5/5
f 7/7/7 1/1/1 10/10/10
f 20/20/20 1/1/1 4/4/4
f 1/1/1 20/20/20 10/10/10
f 7/7/7 10/10/10 8/8/8
f 7/7/7 8/8/8 9/9/9
f 8/8/8 11/11/11 9/9/9
f 11/11/11 8/8/8 18/18/18
f 30/30/30 18/18/18 8/8/8
f 10/10/10 30/30/30 8/8/8
f 18/18/18 30/30/30 33/33/33
f 10/10/10 29/29/29 30/30/30
f 29/29/29 10/10/10 20/20/20
f 32/32/32 33/33/33 30/30/30
f 29/29/29 32/32/32 30/30/30
f 33/33/33 32/32/32 36/36/36
f 37/37/37 36/36/36 32/32/32
f 36/36/36 37/37/37 45/45/45
f 32/32/32 29/29/29 31/31/31
f 31/31/31 37/37/37 32/32/32
f 31/31/31 29/29/29 20/20/20
f 37/37/37 31/31/31 41/41/41
f 41/41/41 31/31/31 23/23/23
f 31/31/31 20/20/20 23/23/23
f 41/41/41 23/23/23 38/38/38
f 23/23/23 20/20/20 21/21/21
f 20/20/20 4/4/4 21/21/21
f 38/38/38 23/23/23 24/24/24
f 23/23/23 21/21/21 24/24/24
f 38/38/38 24/24/24 39/39/39
f 21/21/21 4/4/4 6/6/6
f 4/4/4 5/5/5 6/6/6
f 24/24/24 21/21/21 22/22/22
f 21/21/21 6/6/6 22/22/22
f 39/39/39 24/24/24 25/25/25
f 24/24/24 22/22/22 25/25/25
f 39/39/39 25/25/25 40/40/40
f 25/25/25 43/43/43 40/40/40
f 5/5/5 13/13/13 6/6/6
f 13/13/13 5/5/5 14/14/14
f 43/43/43 25/25/25 28/28/28
f 22/22/22 28/28/28 25/25/25
f 28/28/28 42/42/42 43/43/43
f 6/6/6 27/27/27 22/22/22
f 28/28/28 22/22/22 27/27/27
f 27/27/27 6/6/6 13/13/13
f 12/12/12 13/13/13 14/14/14
f 28/28/28 27/27/27 34/34/34
f 42/42/42 28/28/28 34/34/34
f 34/34/34 44/44/44 42/42/42
f 35/35/35 44/44/44 34/34/34
f 26/26/26 34/34/34 27/27/27
f 34/34/34 26/26/26 35/35/35
f 27/27/27 13/13/13 26/26/26
f 19/19/19 35/35/35 26/26/26
f 15/15/15 26/26/26 13/13/13
f 26/26/26 15/15/15 19/19/19
f 13/13/13 12/12/12 15/15/15
f 17/17/17 19/19/19 15/15/15
f 15/15/15 12/12/12 17/17/17
f 16/16/16 17/17/17 12/12/12
