# Generated from Roblox mesh JSON (v7.00)
# Hello from RBX_Toolbox ;)
o RightLowerLeg
v -0.043046 -0.001368 -0.024852
v -0.024852 -0.074479 -0.043045
v -0.043046 -0.074479 -0.024852
v -0.024852 -0.204991 -0.043045
v -0.043046 -0.204991 -0.024852
v -0.049703 -0.204991 -0.000000
v -0.049703 -0.074479 -0.000000
v -0.049703 -0.001368 -0.000000
v -0.043046 0.071905 -0.024852
v -0.024852 -0.001368 -0.043045
v -0.049703 0.071905 -0.000000
v -0.024852 0.071905 -0.043045
v -0.000000 -0.074479 -0.049704
v -0.000000 -0.204991 -0.049704
v -0.000000 0.071905 -0.049704
v -0.000000 -0.001368 -0.049704
v -0.043046 -0.001368 0.024852
v -0.049703 0.071905 -0.000000
v -0.049703 -0.001368 -0.000000
v -0.043046 -0.074479 0.024852
v -0.049703 -0.074479 -0.000000
v -0.043046 -0.204991 0.024852
v -0.049703 -0.204991 -0.000000
v -0.024852 -0.074479 0.043045
v -0.043046 0.071905 0.024852
v -0.024852 0.071905 0.043045
v -0.024852 -0.001368 0.043045
v -0.024852 -0.204991 0.043045
v -0.000000 -0.074479 0.049704
v -0.000000 -0.204991 0.049704
v -0.000000 -0.001368 0.049704
v -0.000000 0.071905 0.049704
v -0.024852 0.113061 -0.043045
v -0.043046 0.113061 -0.024852
v -0.049703 0.113061 -0.000000
v -0.038741 0.159493 -0.022366
v -0.033592 0.204991 -0.019394
v -0.038741 0.159493 -0.022366
v -0.044733 0.159493 -0.000000
v -0.044733 0.159493 -0.000000
v -0.038788 0.204991 -0.000000
v -0.022366 0.159493 -0.038741
v -0.022366 0.159493 -0.038741
v -0.000000 0.113061 -0.049704
v -0.000000 0.159493 -0.044733
v -0.000000 0.159493 -0.044733
v -0.019394 0.204991 -0.033592
v -0.000000 0.204991 -0.038788
v -0.033592 0.204991 0.019394
v -0.049703 0.113061 -0.000000
v -0.043046 0.113061 0.024852
v -0.038741 0.159493 0.022366
v -0.024852 0.113061 0.043045
v -0.044733 0.159493 -0.000000
v -0.038741 0.159493 0.022366
v -0.022366 0.159493 0.038740
v -0.022366 0.159493 0.038740
v -0.000000 0.113061 0.049704
v -0.000000 0.159493 0.044733
v -0.019394 0.204991 0.033592
v -0.000000 0.159493 0.044733
v -0.000000 0.204991 0.038788
v -0.000000 0.159493 0.044733
v 0.019394 0.204991 0.033592
v -0.000000 0.204991 0.038788
v 0.024852 -0.074479 -0.043045
v 0.024852 -0.204991 -0.043045
v 0.024852 -0.001368 -0.043045
v 0.043045 -0.074479 -0.024852
v 0.024852 0.071905 -0.043045
v 0.043045 -0.001368 -0.024852
v 0.043045 -0.204991 -0.024852
v 0.049703 -0.074479 -0.000000
v 0.049703 -0.204991 -0.000000
v 0.049703 -0.001368 -0.000000
v 0.043045 0.071905 -0.024852
v 0.049703 0.071905 -0.000000
v 0.024852 -0.074479 0.043045
v 0.024852 -0.001368 0.043045
v 0.024852 -0.204991 0.043045
v 0.043045 -0.001368 0.024852
v 0.024852 0.071905 0.043045
v 0.043045 0.071905 0.024852
v 0.043045 -0.074479 0.024852
v 0.043045 -0.204991 0.024852
v 0.024852 0.113061 -0.043045
v 0.022366 0.159493 -0.038741
v 0.043045 0.113061 -0.024852
v 0.019394 0.204991 -0.033592
v 0.022366 0.159493 -0.038741
v 0.038740 0.159493 -0.022366
v 0.033593 0.204991 -0.019394
v 0.049703 0.113061 -0.000000
v 0.038740 0.159493 -0.022366
v 0.044733 0.159493 -0.000000
v 0.044733 0.159493 -0.000000
v 0.038789 0.204991 -0.000000
v 0.024852 0.113061 0.043045
v 0.022366 0.159493 0.038740
v 0.043045 0.113061 0.024852
v 0.022366 0.159493 0.038740
v 0.033593 0.204991 0.019394
v 0.038740 0.159493 0.022366
v 0.038740 0.159493 0.022366
vt 0.120275 0.953214
vt 0.125373 0.944198
vt 0.120275 0.944198
vt 0.125373 0.935183
vt 0.120275 0.935183
vt 0.114908 0.935183
vt 0.114908 0.944198
vt 0.114908 0.953214
vt 0.120275 0.962229
vt 0.125373 0.953214
vt 0.114908 0.962229
vt 0.125373 0.962229
vt 0.130739 0.944198
vt 0.130739 0.935183
vt 0.130739 0.962229
vt 0.130739 0.953214
vt 0.173671 0.953214
vt 0.179037 0.962229
vt 0.179037 0.953214
vt 0.173671 0.944198
vt 0.179037 0.944198
vt 0.173671 0.935183
vt 0.179037 0.935183
vt 0.168304 0.944198
vt 0.173671 0.962229
vt 0.168304 0.962229
vt 0.168304 0.953214
vt 0.168304 0.935183
vt 0.162938 0.944198
vt 0.162938 0.935183
vt 0.162938 0.953214
vt 0.162938 0.962229
vt 0.125373 0.966737
vt 0.120275 0.966737
vt 0.114908 0.966737
vt 0.120275 0.971245
vt 0.158447 0.969573
vt 0.158447 0.968698
vt 0.164185 0.968698
vt 0.114908 0.971245
vt 0.164185 0.969573
vt 0.152710 0.968698
vt 0.125373 0.971245
vt 0.130739 0.966737
vt 0.130739 0.971245
vt 0.146973 0.968698
vt 0.152710 0.969573
vt 0.146973 0.969573
vt 0.169922 0.969573
vt 0.179037 0.966737
vt 0.173671 0.966737
vt 0.173671 0.971245
vt 0.168304 0.966737
vt 0.179037 0.971245
vt 0.169922 0.968698
vt 0.175659 0.968698
vt 0.168304 0.971245
vt 0.162938 0.966737
vt 0.162938 0.971245
vt 0.175659 0.969573
vt 0.182204 0.968698
vt 0.181396 0.969573
vt 0.111872 0.968698
vt 0.118347 0.969573
vt 0.112671 0.969573
vt 0.136106 0.944198
vt 0.136106 0.935183
vt 0.136106 0.953214
vt 0.141472 0.944198
vt 0.136106 0.962229
vt 0.141472 0.953214
vt 0.141472 0.935183
vt 0.146839 0.944198
vt 0.146839 0.935183
vt 0.146839 0.953214
vt 0.141472 0.962229
vt 0.146839 0.962229
vt 0.157571 0.944198
vt 0.157571 0.953214
vt 0.157571 0.935183
vt 0.152205 0.953214
vt 0.157571 0.962229
vt 0.152205 0.962229
vt 0.152205 0.944198
vt 0.152205 0.935183
vt 0.136106 0.966737
vt 0.136106 0.971245
vt 0.141472 0.966737
vt 0.141235 0.969573
vt 0.141235 0.968698
vt 0.135490 0.968698
vt 0.135498 0.969573
vt 0.146839 0.966737
vt 0.141472 0.971245
vt 0.129891 0.968698
vt 0.146839 0.971245
vt 0.129883 0.969573
vt 0.157571 0.966737
vt 0.157571 0.971245
vt 0.152205 0.966737
vt 0.118339 0.968698
vt 0.124146 0.969573
vt 0.124150 0.968698
vt 0.152205 0.971245
vn -0.866146 -0.000000 -0.499756
vn -0.499756 -0.000000 -0.866146
vn -0.866146 -0.000000 -0.499756
vn -0.499756 -0.000000 -0.866146
vn -0.866146 -0.000000 -0.499756
vn -1.000000 -0.000000 -0.000489
vn -1.000000 -0.000000 -0.000489
vn -1.000000 -0.000000 -0.000489
vn -0.866146 -0.000000 -0.499756
vn -0.499756 -0.000000 -0.866146
vn -1.000000 -0.000000 -0.000489
vn -0.499756 -0.000000 -0.866146
vn -0.000489 -0.000000 -1.000000
vn -0.000489 -0.000000 -1.000000
vn -0.000489 -0.000000 -1.000000
vn -0.000489 -0.000000 -1.000000
vn -0.866146 -0.000000 0.499756
vn -1.000000 -0.000000 -0.000489
vn -1.000000 -0.000000 -0.000489
vn -0.866146 -0.000000 0.499756
vn -1.000000 -0.000000 -0.000489
vn -0.866146 -0.000000 0.499756
vn -1.000000 -0.000000 -0.000489
vn -0.499756 -0.000000 0.866146
vn -0.866146 -0.000000 0.499756
vn -0.499756 -0.000000 0.866146
vn -0.499756 -0.000000 0.866146
vn -0.499756 -0.000000 0.866146
vn -0.000489 -0.000000 1.000000
vn -0.000489 -0.000000 1.000000
vn -0.000489 -0.000000 1.000000
vn -0.000489 -0.000000 1.000000
vn -0.499756 0.052760 -0.865169
vn -0.865169 0.052760 -0.499756
vn -0.999023 0.052760 -0.000489
vn -0.860283 0.118222 -0.496825
vn -0.858329 0.129946 -0.495848
vn -0.860283 0.118222 -0.496825
vn -0.993161 0.118222 -0.000489
vn -0.993161 0.118222 -0.000489
vn -0.991207 0.129946 -0.000489
vn -0.496825 0.118222 -0.860283
vn -0.496825 0.118222 -0.860283
vn -0.000489 0.052760 -0.999023
vn -0.000489 0.118222 -0.993161
vn -0.000489 0.118222 -0.993161
vn -0.495848 0.129946 -0.858329
vn -0.000489 0.129946 -0.991207
vn -0.858329 0.129946 0.495848
vn -0.999023 0.052760 -0.000489
vn -0.865169 0.052760 0.499756
vn -0.860283 0.118222 0.496825
vn -0.499756 0.052760 0.865169
vn -0.993161 0.118222 -0.000489
vn -0.860283 0.118222 0.496825
vn -0.496825 0.118222 0.860283
vn -0.496825 0.118222 0.860283
vn -0.000489 0.052760 0.999023
vn -0.000489 0.118222 0.993161
vn -0.495848 0.129946 0.858329
vn -0.000489 0.118222 0.993161
vn -0.000489 0.129946 0.991207
vn -0.000489 0.118222 0.993161
vn 0.495848 0.129946 0.858329
vn -0.000489 0.129946 0.991207
vn 0.499756 -0.000000 -0.866146
vn 0.499756 -0.000000 -0.866146
vn 0.499756 -0.000000 -0.866146
vn 0.866146 -0.000000 -0.499756
vn 0.499756 -0.000000 -0.866146
vn 0.866146 -0.000000 -0.499756
vn 0.866146 -0.000000 -0.499756
vn 1.000000 -0.000000 -0.000489
vn 1.000000 -0.000000 -0.000489
vn 1.000000 -0.000000 -0.000489
vn 0.866146 -0.000000 -0.499756
vn 1.000000 -0.000000 -0.000489
vn 0.499756 -0.000000 0.866146
vn 0.499756 -0.000000 0.866146
vn 0.499756 -0.000000 0.866146
vn 0.866146 -0.000000 0.499756
vn 0.499756 -0.000000 0.866146
vn 0.866146 -0.000000 0.499756
vn 0.866146 -0.000000 0.499756
vn 0.866146 -0.000000 0.499756
vn 0.499756 0.052760 -0.865169
vn 0.496825 0.118222 -0.860283
vn 0.865169 0.052760 -0.499756
vn 0.495848 0.129946 -0.858329
vn 0.496825 0.118222 -0.860283
vn 0.860283 0.118222 -0.496825
vn 0.858329 0.129946 -0.495848
vn 0.999023 0.052760 -0.000489
vn 0.860283 0.118222 -0.496825
vn 0.993161 0.118222 -0.000489
vn 0.993161 0.118222 -0.000489
vn 0.991207 0.129946 -0.000489
vn 0.499756 0.052760 0.865169
vn 0.496825 0.118222 0.860283
vn 0.865169 0.052760 0.499756
vn 0.496825 0.118222 0.860283
vn 0.858329 0.129946 0.495848
vn 0.860283 0.118222 0.496825
vn 0.860283 0.118222 0.496825
f 37/37/37 38/38/38 39/39/39
f 37/37/37 42/42/42 38/38/38
f 37/37/37 39/39/39 41/41/41
f 42/42/42 37/37/37 47/47/47
f 39/39/39 49/49/49 41/41/41
f 47/47/47 46/46/46 42/42/42
f 49/49/49 39/39/39 55/55/55
f 46/46/46 47/47/47 48/48/48
f 56/56/56 49/49/49 55/55/55
f 46/46/46 48/48/48 89/89/89
f 49/49/49 56/56/56 60/60/60
f 61/61/61 60/60/60 56/56/56
f 60/60/60 61/61/61 62/62/62
f 89/89/89 90/90/90 46/46/46
f 89/89/89 91/91/91 90/90/90
f 91/91/91 89/89/89 92/92/92
f 92/92/92 95/95/95 91/91/91
f 95/95/95 92/92/92 97/97/97
f 95/95/95 97/97/97 102/102/102
f 95/95/95 102/102/102 103/103/103
f 102/102/102 101/101/101 103/103/103
f 101/101/101 102/102/102 64/64/64
f 64/64/64 63/63/63 101/101/101
f 63/63/63 64/64/64 65/65/65
f 1/1/1 2/2/2 3/3/3
f 6/6/6 3/3/3 5/5/5
f 3/3/3 4/4/4 5/5/5
f 3/3/3 6/6/6 7/7/7
f 2/2/2 4/4/4 3/3/3
f 7/7/7 1/1/1 3/3/3
f 2/2/2 14/14/14 4/4/4
f 1/1/1 7/7/7 8/8/8
f 14/14/14 2/2/2 13/13/13
f 13/13/13 67/67/67 14/14/14
f 10/10/10 2/2/2 1/1/1
f 10/10/10 13/13/13 2/2/2
f 8/8/8 9/9/9 1/1/1
f 9/9/9 10/10/10 1/1/1
f 9/9/9 8/8/8 11/11/11
f 66/66/66 67/67/67 13/13/13
f 67/67/67 66/66/66 72/72/72
f 16/16/16 13/13/13 10/10/10
f 16/16/16 66/66/66 13/13/13
f 12/12/12 10/10/10 9/9/9
f 12/12/12 16/16/16 10/10/10
f 11/11/11 34/34/34 9/9/9
f 34/34/34 12/12/12 9/9/9
f 34/34/34 11/11/11 35/35/35
f 35/35/35 36/36/36 34/34/34
f 36/36/36 35/35/35 40/40/40
f 36/36/36 33/33/33 34/34/34
f 33/33/33 12/12/12 34/34/34
f 43/43/43 33/33/33 36/36/36
f 15/15/15 16/16/16 12/12/12
f 33/33/33 15/15/15 12/12/12
f 43/43/43 44/44/44 33/33/33
f 33/33/33 44/44/44 15/15/15
f 45/45/45 44/44/44 43/43/43
f 87/87/87 44/44/44 45/45/45
f 15/15/15 68/68/68 16/16/16
f 68/68/68 66/66/66 16/16/16
f 44/44/44 70/70/70 15/15/15
f 70/70/70 68/68/68 15/15/15
f 44/44/44 87/87/87 86/86/86
f 44/44/44 86/86/86 70/70/70
f 86/86/86 87/87/87 88/88/88
f 94/94/94 88/88/88 87/87/87
f 70/70/70 86/86/86 76/76/76
f 88/88/88 76/76/76 86/86/86
f 88/88/88 94/94/94 93/93/93
f 96/96/96 93/93/93 94/94/94
f 76/76/76 88/88/88 77/77/77
f 88/88/88 93/93/93 77/77/77
f 93/93/93 96/96/96 104/104/104
f 76/76/76 71/71/71 70/70/70
f 68/68/68 70/70/70 71/71/71
f 77/77/77 75/75/75 76/76/76
f 71/71/71 76/76/76 75/75/75
f 71/71/71 69/69/69 68/68/68
f 66/66/66 68/68/68 69/69/69
f 69/69/69 72/72/72 66/66/66
f 72/72/72 69/69/69 74/74/74
f 69/69/69 71/71/71 73/73/73
f 73/73/73 74/74/74 69/69/69
f 75/75/75 73/73/73 71/71/71
f 73/73/73 85/85/85 74/74/74
f 85/85/85 73/73/73 84/84/84
f 75/75/75 84/84/84 73/73/73
f 85/85/85 84/84/84 80/80/80
f 84/84/84 75/75/75 81/81/81
f 77/77/77 81/81/81 75/75/75
f 78/78/78 80/80/80 84/84/84
f 84/84/84 81/81/81 78/78/78
f 80/80/80 78/78/78 30/30/30
f 81/81/81 77/77/77 83/83/83
f 93/93/93 83/83/83 77/77/77
f 79/79/79 78/78/78 81/81/81
f 81/81/81 83/83/83 79/79/79
f 30/30/30 78/78/78 29/29/29
f 78/78/78 79/79/79 29/29/29
f 24/24/24 30/30/30 29/29/29
f 30/30/30 24/24/24 28/28/28
f 28/28/28 24/24/24 22/22/22
f 83/83/83 93/93/93 100/100/100
f 93/93/93 104/104/104 100/100/100
f 99/99/99 100/100/100 104/104/104
f 83/83/83 100/100/100 82/82/82
f 82/82/82 79/79/79 83/83/83
f 100/100/100 99/99/99 98/98/98
f 98/98/98 82/82/82 100/100/100
f 98/98/98 99/99/99 58/58/58
f 58/58/58 99/99/99 59/59/59
f 57/57/57 58/58/58 59/59/59
f 32/32/32 98/98/98 58/58/58
f 32/32/32 82/82/82 98/98/98
f 58/58/58 57/57/57 53/53/53
f 53/53/53 32/32/32 58/58/58
f 52/52/52 53/53/53 57/57/57
f 31/31/31 82/82/82 32/32/32
f 79/79/79 82/82/82 31/31/31
f 29/29/29 79/79/79 31/31/31
f 26/26/26 31/31/31 32/32/32
f 32/32/32 53/53/53 26/26/26
f 27/27/27 29/29/29 31/31/31
f 31/31/31 26/26/26 27/27/27
f 29/29/29 27/27/27 24/24/24
f 53/53/53 52/52/52 51/51/51
f 51/51/51 52/52/52 50/50/50
f 54/54/54 50/50/50 52/52/52
f 25/25/25 53/53/53 51/51/51
f 50/50/50 25/25/25 51/51/51
f 26/26/26 53/53/53 25/25/25
f 25/25/25 50/50/50 18/18/18
f 17/17/17 26/26/26 25/25/25
f 18/18/18 17/17/17 25/25/25
f 27/27/27 26/26/26 17/17/17
f 17/17/17 18/18/18 19/19/19
f 20/20/20 27/27/27 17/17/17
f 19/19/19 20/20/20 17/17/17
f 27/27/27 20/20/20 24/24/24
f 20/20/20 19/19/19 21/21/21
f 22/22/22 24/24/24 20/20/20
f 21/21/21 22/22/22 20/20/20
f 22/22/22 21/21/21 23/23/23
