# Generated from Roblox mesh JSON (v4.01)
# Hello from RBX_Toolbox ;)
o LeftUpperLeg
v -0.150428 -0.049465 -0.043945
v -0.104032 -0.123730 -0.099912
v -0.169299 -0.127256 -0.035207
v -0.120117 -0.191692 -0.090981
v -0.185358 -0.194492 -0.025416
v -0.120117 -0.191692 -0.090981
v -0.126691 -0.225183 -0.039293
v -0.185358 -0.194492 -0.025416
v -0.147073 -0.057091 0.042346
v -0.086585 -0.046758 -0.107027
v -0.031708 0.029071 -0.305592
v -0.173627 0.042080 -0.214263
v -0.177159 0.054908 -0.218848
v -0.029701 0.017767 -0.269812
v -0.156909 0.037872 -0.191685
v -0.130922 0.029169 -0.051779
v -0.071683 0.030830 -0.114237
v -0.127999 0.025155 0.033950
v -0.039725 -0.233882 -0.057280
v -0.126691 -0.225183 -0.039293
v -0.022358 -0.198636 -0.094500
v -0.010528 -0.130056 -0.102839
v -0.022358 -0.198636 -0.094500
v -0.039725 -0.233882 -0.057280
v -0.126691 -0.225183 -0.039293
v -0.073271 -0.225656 0.031435
v -0.039725 -0.233882 -0.057280
v 0.013908 -0.233508 0.006311
v -0.073271 -0.225656 0.031435
v -0.031930 0.018233 -0.300120
v 0.002243 -0.050363 -0.109706
v -0.165139 -0.139155 0.052632
v -0.138432 -0.214495 0.061966
v -0.181696 -0.206106 0.064461
v -0.126691 -0.225183 -0.039293
v -0.111506 -0.218988 0.125219
v -0.181696 -0.206106 0.064461
v -0.111506 -0.218988 0.125219
v -0.138432 -0.214495 0.061966
v -0.097387 -0.151705 0.112512
v -0.138432 -0.214495 0.061966
v -0.079942 -0.064922 0.100955
v -0.073271 -0.225656 0.031435
v -0.045017 -0.209811 0.092406
v -0.073271 -0.225656 0.031435
v 0.013908 -0.233508 0.006311
v -0.045017 -0.209811 0.092406
v -0.073271 -0.225656 0.031435
v -0.015674 -0.225716 0.121678
v -0.097387 -0.151705 0.112512
v -0.045017 -0.209811 0.092406
v -0.015674 -0.225716 0.121678
v -0.004846 -0.157840 0.109626
v -0.064571 0.021141 0.092261
v 0.008667 -0.068467 0.098047
v 0.022617 0.017767 0.268141
v -0.125979 0.042958 0.244637
v -0.114239 0.037476 0.219710
v -0.195641 0.051385 0.120825
v -0.223510 0.065412 -0.052173
v -0.219071 0.051908 -0.050394
v -0.197889 0.046138 -0.043289
v -0.114632 0.134604 -0.058206
v -0.150361 0.193508 -0.224859
v -0.196183 0.222642 -0.066057
v -0.150361 0.193508 -0.224859
v -0.196183 0.222642 -0.066057
v -0.096156 0.233882 -0.103008
v -0.111572 0.134604 0.028411
v -0.169873 0.227947 0.113774
v -0.098446 0.211433 0.125516
v -0.096156 0.233882 -0.103008
v -0.111572 0.134604 0.028411
v -0.054777 0.134604 -0.122395
v -0.005769 0.124696 -0.300634
v -0.054777 0.134604 -0.122395
v 0.014253 0.029169 -0.116992
v -0.114632 0.134604 -0.058206
v 0.061009 0.182449 -0.172093
v -0.005769 0.124696 -0.300634
v -0.096156 0.233882 -0.103008
v -0.176848 0.045209 0.109183
v -0.198884 0.065450 0.123523
v -0.127222 0.057301 0.250366
v -0.169873 0.227947 0.113774
v -0.099289 0.212969 0.243420
v -0.047383 0.134604 0.089363
v -0.047383 0.134604 0.089363
v 0.027459 0.036128 0.305592
v -0.098446 0.211433 0.125516
v 0.048896 0.175681 0.045610
v -0.099289 0.212969 0.243420
v 0.061255 0.143461 0.213623
v -0.098446 0.211433 0.125516
v 0.045312 0.170083 0.300960
v 0.021504 0.019479 0.089293
v 0.054923 -0.142339 -0.041887
v 0.066232 -0.058108 -0.050784
v 0.046184 -0.211036 -0.033587
v 0.046184 -0.211036 -0.033587
v 0.128639 -0.005229 -0.223230
v 0.077177 0.025155 -0.058723
v 0.057526 -0.153959 0.045675
v 0.046184 -0.211036 -0.033587
v 0.054923 -0.142339 -0.041887
v 0.115091 -0.002835 -0.201822
v 0.216208 -0.015023 -0.039522
v 0.194416 -0.012271 -0.036599
v 0.220517 -0.003599 -0.038510
v 0.069254 -0.065645 0.035200
v 0.066232 -0.058108 -0.050784
v 0.080271 0.021141 0.026737
v 0.192799 -0.010172 0.091361
v 0.194416 -0.012271 -0.036599
v 0.216208 -0.015023 -0.039522
v 0.131879 0.005034 -0.225373
v 0.077177 0.025155 -0.058723
v 0.220517 -0.003599 -0.038510
v 0.214337 -0.012385 0.102378
v 0.048943 -0.222374 0.055964
v -0.045017 -0.209811 0.092406
v 0.013908 -0.233508 0.006311
v 0.048943 -0.222374 0.055964
v 0.013908 -0.233508 0.006311
v 0.148049 -0.001938 0.199069
v 0.164787 -0.002556 0.221926
v 0.218690 -0.000736 0.105324
v 0.168585 0.009857 0.226831
v 0.025842 0.021138 0.298769
v 0.146480 0.069756 -0.205896
v 0.032934 0.134604 -0.125458
v 0.032934 0.134604 -0.125458
v 0.100240 0.134604 0.022111
v 0.146480 0.069756 -0.205896
v 0.061009 0.182449 -0.172093
v 0.097158 0.134604 -0.065603
v 0.061009 0.182449 -0.172093
v -0.096156 0.233882 -0.103008
v 0.048896 0.175681 0.045610
v 0.097158 0.134604 -0.065603
v 0.187272 0.112638 0.017332
v 0.061009 0.182449 -0.172093
v 0.048896 0.175681 0.045610
v 0.223510 0.059356 -0.024709
v 0.100240 0.134604 0.022111
v 0.223510 0.059356 -0.024709
v 0.187272 0.112638 0.017332
v 0.097158 0.134604 -0.065603
v 0.061009 0.182449 -0.172093
v 0.187272 0.112638 0.017332
v 0.223510 0.059356 -0.024709
v 0.194416 -0.012271 -0.036599
v 0.100240 0.134604 0.022111
v 0.097158 0.134604 -0.065603
v 0.040357 0.134604 0.086300
v 0.040357 0.134604 0.086300
v -0.098446 0.211433 0.125516
v 0.061255 0.143461 0.213623
v 0.048896 0.175681 0.045610
v 0.045312 0.170083 0.300960
v 0.174835 0.097891 0.224501
v 0.218690 -0.000736 0.105324
v 0.187272 0.112638 0.017332
v 0.170984 0.087591 0.170013
v 0.168585 0.009857 0.226831
v 0.174835 0.097891 0.224501
v 0.170984 0.087591 0.170013
v 0.100240 0.134604 0.022111
v 0.061255 0.143461 0.213623
v 0.170984 0.087591 0.170013
v 0.048896 0.175681 0.045610
v 0.170984 0.087591 0.170013
v 0.187272 0.112638 0.017332
v 0.048896 0.175681 0.045610
v 0.061255 0.143461 0.213623
vt 0.862001 0.310606
vt 0.846901 0.317706
vt 0.860601 0.324406
vt 0.845201 0.329506
vt 0.859201 0.336406
vt 0.845201 0.329506
vt 0.859201 0.336406
vt 0.859201 0.336406
vt 0.875801 0.316606
vt 0.848501 0.304306
vt 0.669801 0.596706
vt 0.678201 0.566206
vt 0.681601 0.567606
vt 0.662901 0.592306
vt 0.673801 0.563006
vt 0.863401 0.296906
vt 0.849901 0.290706
vt 0.877201 0.302306
vt 0.837701 0.327356
vt 0.845201 0.329506
vt 0.830201 0.325206
vt 0.832401 0.313806
vt 0.830201 0.325206
vt 0.837701 0.327356
vt 0.845201 0.329506
vt 0.845201 0.329506
vt 0.830201 0.325206
vt 0.822601 0.324706
vt 0.830201 0.325206
vt 0.667601 0.595206
vt 0.834201 0.300306
vt 0.874401 0.331006
vt 0.873201 0.343106
vt 0.873201 0.343106
vt 0.866201 0.339756
vt 0.888501 0.346606
vt 0.873201 0.343106
vt 0.888501 0.346606
vt 0.888501 0.346606
vt 0.889301 0.334706
vt 0.888901 0.340656
vt 0.890501 0.319506
vt 0.873201 0.343106
vt 0.889301 0.334706
vt 0.889301 0.334706
vt 0.918801 0.341706
vt 0.911451 0.343756
vt 0.918801 0.341706
vt 0.904101 0.345806
vt 0.889301 0.334706
vt 0.904101 0.345806
vt 0.904101 0.345806
vt 0.904501 0.334006
vt 0.891901 0.304606
vt 0.905401 0.318606
vt 0.707201 0.457706
vt 0.708701 0.482706
vt 0.703901 0.483206
vt 0.698301 0.505106
vt 0.690701 0.536206
vt 0.686801 0.534706
vt 0.682901 0.532006
vt 0.655601 0.542806
vt 0.705401 0.577606
vt 0.718601 0.546506
vt 0.705401 0.577606
vt 0.718601 0.546506
vt 0.705401 0.577606
vt 0.661701 0.514806
vt 0.731101 0.513706
vt 0.724851 0.530106
vt 0.718601 0.546506
vt 0.879201 0.283506
vt 0.645701 0.567106
vt 0.684901 0.607906
vt 0.852101 0.272606
vt 0.835701 0.286606
vt 0.865601 0.278606
vt 0.684901 0.607906
vt 0.684901 0.607906
vt 0.695151 0.592756
vt 0.693801 0.504206
vt 0.702401 0.506206
vt 0.712401 0.483206
vt 0.731101 0.513706
vt 0.738801 0.486806
vt 0.893601 0.285306
vt 0.662101 0.485406
vt 0.715901 0.456706
vt 0.731101 0.513706
vt 0.718601 0.546506
vt 0.738801 0.486806
vt 0.739251 0.471556
vt 0.738801 0.486806
vt 0.739701 0.456306
vt 0.906701 0.303506
vt 0.817501 0.313506
vt 0.819501 0.300006
vt 0.815001 0.324206
vt 0.815001 0.324206
vt 0.650001 0.622206
vt 0.820901 0.286006
vt 0.918901 0.330206
vt 0.932901 0.336906
vt 0.933101 0.325906
vt 0.646101 0.619206
vt 0.619601 0.643806
vt 0.618101 0.639606
vt 0.620501 0.645506
vt 0.919901 0.315206
vt 0.934401 0.312106
vt 0.921301 0.300406
vt 0.686401 0.420306
vt 0.666901 0.407706
vt 0.669901 0.402906
vt 0.651101 0.624006
vt 0.936101 0.298106
vt 0.671801 0.401606
vt 0.690901 0.417806
vt 0.918801 0.341706
vt 0.911451 0.343756
vt 0.918801 0.341706
vt 0.918801 0.341706
vt 0.932901 0.336906
vt 0.700001 0.434806
vt 0.705101 0.433206
vt 0.692801 0.416706
vt 0.707401 0.432506
vt 0.712601 0.456806
vt 0.658401 0.636506
vt 0.633901 0.586706
vt 0.837701 0.268306
vt 0.923201 0.280906
vt 0.658401 0.636506
vt 0.658401 0.636506
vt 0.822501 0.267206
vt 0.684901 0.607906
vt 0.695151 0.592756
vt 0.684901 0.607906
vt 0.938401 0.279206
vt 0.626501 0.657306
vt 0.642451 0.646906
vt 0.626501 0.657306
vt 0.626501 0.657306
vt 0.605101 0.607006
vt 0.685601 0.392006
vt 0.692801 0.416706
vt 0.620901 0.600106
vt 0.642451 0.646906
vt 0.626501 0.657306
vt 0.626501 0.657306
vt 0.666901 0.407706
vt 0.605101 0.607006
vt 0.620901 0.600106
vt 0.908401 0.283806
vt 0.659101 0.462206
vt 0.738801 0.486806
vt 0.739251 0.471556
vt 0.738801 0.486806
vt 0.739701 0.456306
vt 0.724401 0.427606
vt 0.692801 0.416706
vt 0.700101 0.424606
vt 0.707401 0.432506
vt 0.707401 0.432506
vt 0.724401 0.427606
vt 0.715901 0.430056
vt 0.649301 0.445806
vt 0.724401 0.427606
vt 0.715901 0.430056
vt 0.724401 0.427606
vt 0.707401 0.432506
vt 0.700101 0.424606
vt 0.707401 0.432506
vt 0.739701 0.456306
vn -0.916822 0.178299 -0.357277
vn -0.404262 -0.007786 -0.914610
vn -0.940591 0.186344 -0.283840
vn -0.402979 -0.015880 -0.915071
vn -0.939560 0.190377 -0.284577
vn -0.402979 -0.015880 -0.915071
vn -0.742209 0.096487 -0.663186
vn -0.939560 0.190377 -0.284577
vn -0.835488 0.244462 0.492136
vn -0.399415 0.000560 -0.916770
vn -0.072723 -0.181504 -0.980698
vn -0.625588 -0.708292 -0.327052
vn -0.798117 -0.107972 -0.592749
vn -0.126629 -0.916361 0.379800
vn 0.053484 -0.954736 0.292607
vn -0.895116 0.141420 -0.422809
vn -0.404580 -0.000077 -0.914503
vn -0.860366 0.197850 0.469708
vn 0.311015 -0.155460 -0.937604
vn -0.742209 0.096487 -0.663186
vn 0.311162 -0.155467 -0.937554
vn 0.330985 -0.150830 -0.931504
vn 0.311162 -0.155467 -0.937554
vn 0.311015 -0.155460 -0.937604
vn -0.742209 0.096487 -0.663186
vn -0.107350 -0.980167 0.166579
vn 0.311015 -0.155460 -0.937604
vn 0.989838 -0.131214 -0.054807
vn -0.107350 -0.980167 0.166579
vn -0.120674 -0.746892 -0.653904
vn 0.343844 -0.132991 -0.929562
vn -0.899542 0.267900 0.345043
vn -0.642471 0.286898 0.710577
vn -0.881763 0.281717 0.378325
vn -0.742209 0.096487 -0.663186
vn -0.295426 0.244057 0.923666
vn -0.881763 0.281717 0.378325
vn -0.295426 0.244057 0.923666
vn -0.642471 0.286898 0.710577
vn -0.309708 0.214624 0.926292
vn -0.642471 0.286898 0.710577
vn -0.327431 0.175070 0.928515
vn -0.107350 -0.980167 0.166579
vn 0.054675 0.170503 0.983839
vn -0.107350 -0.980167 0.166579
vn 0.989838 -0.131214 -0.054807
vn 0.054675 0.170503 0.983839
vn -0.107350 -0.980167 0.166579
vn 0.411503 0.102810 0.905591
vn -0.309708 0.214624 0.926292
vn 0.054675 0.170503 0.983839
vn 0.411503 0.102810 0.905591
vn 0.403450 0.079826 0.911513
vn -0.338054 0.123956 0.932928
vn 0.410184 0.045269 0.910879
vn -0.182055 -0.955559 -0.231870
vn -0.512249 -0.696320 0.502732
vn -0.075805 -0.977172 -0.198464
vn -0.699946 -0.677545 0.225849
vn -0.994439 -0.075333 -0.073591
vn -0.714059 -0.699982 -0.012051
vn 0.182169 -0.980796 0.069676
vn -0.129957 -0.963538 -0.233894
vn -0.778236 0.119593 -0.616479
vn -0.982540 0.167480 -0.081031
vn -0.778236 0.119593 -0.616479
vn -0.982540 0.167480 -0.081031
vn -0.919244 0.149899 -0.364033
vn -0.153800 -0.963804 0.217776
vn -0.931152 0.169633 0.322770
vn -0.824158 0.153049 0.545288
vn -0.919244 0.149899 -0.364033
vn -0.153800 -0.963804 0.217776
vn 0.076531 -0.963421 -0.256834
vn 0.061818 0.032417 -0.997561
vn 0.076531 -0.963421 -0.256834
vn 0.343665 -0.133034 -0.929622
vn -0.129957 -0.963538 -0.233894
vn 0.433048 0.007675 -0.901338
vn 0.061818 0.032417 -0.997561
vn -0.919244 0.149899 -0.364033
vn 0.125628 -0.987009 -0.100156
vn -0.932605 -0.043760 0.358237
vn -0.646241 -0.086973 0.758161
vn -0.931152 0.169633 0.322770
vn -0.666734 0.127003 0.734395
vn 0.000198 -0.947910 0.318539
vn 0.000198 -0.947910 0.318539
vn 0.050091 -0.194924 0.979539
vn -0.824158 0.153049 0.545288
vn 0.371155 0.919805 0.127292
vn -0.666734 0.127003 0.734395
vn 0.450268 -0.025411 0.892532
vn -0.824158 0.153049 0.545288
vn 0.083193 0.017021 0.996388
vn 0.428633 -0.009931 0.903424
vn 0.928618 -0.177541 -0.325802
vn 0.861579 -0.163853 -0.480451
vn 0.926951 -0.176200 -0.331233
vn 0.926951 -0.176200 -0.331233
vn 0.377441 -0.797326 -0.470966
vn 0.931820 -0.170716 -0.320262
vn 0.959924 -0.093865 0.264073
vn 0.926951 -0.176200 -0.331233
vn 0.928618 -0.177541 -0.325802
vn -0.354105 -0.902654 0.244593
vn 0.563073 -0.808150 -0.172752
vn -0.429912 -0.900010 0.071817
vn 0.959361 -0.162024 -0.231029
vn 0.957748 -0.103409 0.268375
vn 0.861579 -0.163853 -0.480451
vn 0.918922 -0.115436 0.377170
vn -0.433539 -0.891220 -0.133309
vn -0.429912 -0.900010 0.071817
vn 0.563073 -0.808150 -0.172752
vn 0.694187 -0.213229 -0.687487
vn 0.931820 -0.170716 -0.320262
vn 0.959361 -0.162024 -0.231029
vn 0.545261 -0.831187 0.108712
vn 0.971140 -0.075373 0.226287
vn 0.054675 0.170503 0.983839
vn 0.989838 -0.131214 -0.054807
vn 0.971140 -0.075373 0.226287
vn 0.989838 -0.131214 -0.054807
vn -0.287667 -0.936329 -0.201334
vn 0.400591 -0.806976 0.433955
vn 0.945938 -0.221838 0.236620
vn 0.668257 -0.243769 0.702858
vn -0.055817 -0.756981 0.651049
vn 0.740203 -0.018102 -0.672140
vn -0.055653 -0.988113 -0.143299
vn -0.055653 -0.988113 -0.143299
vn -0.024411 -0.989635 0.141513
vn 0.740203 -0.018102 -0.672140
vn 0.433048 0.007675 -0.901338
vn -0.063264 -0.997676 -0.025296
vn 0.433048 0.007675 -0.901338
vn -0.919244 0.149899 -0.364033
vn 0.371155 0.919805 0.127292
vn -0.063264 -0.997676 -0.025296
vn 0.991209 -0.128984 0.029459
vn 0.433048 0.007675 -0.901338
vn 0.371155 0.919805 0.127292
vn 0.983372 -0.029277 -0.179226
vn -0.024411 -0.989635 0.141513
vn 0.983372 -0.029277 -0.179226
vn 0.991209 -0.128984 0.029459
vn -0.063264 -0.997676 -0.025296
vn 0.433048 0.007675 -0.901338
vn 0.991209 -0.128984 0.029459
vn 0.983372 -0.029277 -0.179226
vn -0.429912 -0.900010 0.071817
vn -0.024411 -0.989635 0.141513
vn -0.063264 -0.997676 -0.025296
vn 0.009251 -0.974246 0.225298
vn 0.009251 -0.974246 0.225298
vn -0.824158 0.153049 0.545288
vn 0.450268 -0.025411 0.892532
vn 0.371155 0.919805 0.127292
vn 0.083193 0.017021 0.996388
vn 0.751257 -0.064073 0.656892
vn 0.945938 -0.221838 0.236620
vn 0.991209 -0.128984 0.029459
vn 0.668280 -0.243785 0.702830
vn 0.668257 -0.243769 0.702858
vn 0.751257 -0.064073 0.656892
vn 0.668280 -0.243785 0.702830
vn -0.024411 -0.989635 0.141513
vn 0.450268 -0.025411 0.892532
vn 0.668280 -0.243785 0.702830
vn 0.371155 0.919805 0.127292
vn 0.668280 -0.243785 0.702830
vn 0.991209 -0.128984 0.029459
vn 0.371155 0.919805 0.127292
vn 0.450268 -0.025411 0.892532
f 5/5/5 6/6/6 7/7/7
f 6/6/6 23/23/23 24/24/24
f 25/25/25 24/24/24 26/26/26
f 99/99/99 27/27/27 23/23/23
f 99/99/99 28/28/28 27/27/27
f 27/27/27 28/28/28 29/29/29
f 5/5/5 35/35/35 33/33/33
f 33/33/33 35/35/35 43/43/43
f 5/5/5 33/33/33 34/34/34
f 38/38/38 34/34/34 39/39/39
f 120/120/120 121/121/121 122/122/122
f 157/157/157 158/158/158 159/159/159
f 172/172/172 173/173/173 174/174/174
f 137/137/137 138/138/138 139/139/139
f 49/49/49 50/50/50 51/51/51
f 66/66/66 67/67/67 68/68/68
f 66/66/66 81/81/81 79/79/79
f 66/66/66 79/79/79 80/80/80
f 134/134/134 80/80/80 135/135/135
f 134/134/134 141/141/141 151/151/151
f 141/141/141 142/142/142 143/143/143
f 67/67/67 85/85/85 71/71/71
f 67/67/67 71/71/71 72/72/72
f 72/72/72 71/71/71 91/91/91
f 92/92/92 93/93/93 94/94/94
f 92/92/92 160/160/160 93/93/93
f 160/160/160 166/166/166 175/175/175
f 166/166/166 165/165/165 167/167/167
f 162/162/162 164/164/164 165/165/165
f 162/162/162 163/163/163 164/164/164
f 1/1/1 2/2/2 3/3/3
f 4/4/4 3/3/3 2/2/2
f 4/4/4 19/19/19 20/20/20
f 3/3/3 4/4/4 8/8/8
f 21/21/21 4/4/4 2/2/2
f 3/3/3 8/8/8 32/32/32
f 8/8/8 37/37/37 32/32/32
f 36/36/36 32/32/32 37/37/37
f 9/9/9 3/3/3 32/32/32
f 32/32/32 36/36/36 40/40/40
f 40/40/40 9/9/9 32/32/32
f 3/3/3 9/9/9 1/1/1
f 40/40/40 36/36/36 41/41/41
f 40/40/40 41/41/41 44/44/44
f 44/44/44 41/41/41 45/45/45
f 9/9/9 40/40/40 42/42/42
f 18/18/18 1/1/1 9/9/9
f 42/42/42 18/18/18 9/9/9
f 53/53/53 42/42/42 40/40/40
f 40/40/40 52/52/52 53/53/53
f 18/18/18 42/42/42 54/54/54
f 123/123/123 53/53/53 52/52/52
f 123/123/123 52/52/52 47/47/47
f 46/46/46 47/47/47 48/48/48
f 104/104/104 123/123/123 124/124/124
f 104/104/104 103/103/103 123/123/123
f 53/53/53 123/123/123 103/103/103
f 103/103/103 104/104/104 105/105/105
f 42/42/42 53/53/53 55/55/55
f 103/103/103 55/55/55 53/53/53
f 55/55/55 54/54/54 42/42/42
f 105/105/105 110/110/110 103/103/103
f 55/55/55 103/103/103 110/110/110
f 110/110/110 105/105/105 111/111/111
f 54/54/54 55/55/55 96/96/96
f 110/110/110 96/96/96 55/55/55
f 96/96/96 87/87/87 54/54/54
f 73/73/73 54/54/54 87/87/87
f 87/87/87 96/96/96 155/155/155
f 54/54/54 73/73/73 18/18/18
f 111/111/111 112/112/112 110/110/110
f 96/96/96 110/110/110 112/112/112
f 112/112/112 155/155/155 96/96/96
f 112/112/112 111/111/111 117/117/117
f 155/155/155 112/112/112 133/133/133
f 117/117/117 133/133/133 112/112/112
f 133/133/133 117/117/117 140/140/140
f 73/73/73 16/16/16 18/18/18
f 1/1/1 18/18/18 16/16/16
f 16/16/16 73/73/73 78/78/78
f 16/16/16 10/10/10 1/1/1
f 2/2/2 1/1/1 10/10/10
f 78/78/78 17/17/17 16/16/16
f 10/10/10 16/16/16 17/17/17
f 17/17/17 78/78/78 76/76/76
f 10/10/10 22/22/22 2/2/2
f 2/2/2 22/22/22 21/21/21
f 17/17/17 31/31/31 10/10/10
f 22/22/22 10/10/10 31/31/31
f 76/76/76 77/77/77 17/17/17
f 31/31/31 17/17/17 77/77/77
f 77/77/77 76/76/76 132/132/132
f 98/98/98 22/22/22 31/31/31
f 77/77/77 98/98/98 31/31/31
f 97/97/97 21/21/21 22/22/22
f 22/22/22 98/98/98 97/97/97
f 21/21/21 97/97/97 100/100/100
f 98/98/98 77/77/77 102/102/102
f 132/132/132 102/102/102 77/77/77
f 102/102/102 132/132/132 136/136/136
f 11/11/11 12/12/12 13/13/13
f 13/13/13 75/75/75 11/11/11
f 75/75/75 13/13/13 64/64/64
f 60/60/60 64/64/64 13/13/13
f 12/12/12 60/60/60 13/13/13
f 64/64/64 60/60/60 65/65/65
f 60/60/60 70/70/70 65/65/65
f 130/130/130 11/11/11 75/75/75
f 130/130/130 149/149/149 150/150/150
f 11/11/11 130/130/130 116/116/116
f 130/130/130 109/109/109 116/116/116
f 130/130/130 144/144/144 109/109/109
f 116/116/116 109/109/109 101/101/101
f 101/101/101 11/11/11 116/116/116
f 109/109/109 107/107/107 101/101/101
f 11/11/11 101/101/101 30/30/30
f 12/12/12 11/11/11 30/30/30
f 101/101/101 14/14/14 30/30/30
f 12/12/12 30/30/30 14/14/14
f 107/107/107 106/106/106 101/101/101
f 14/14/14 101/101/101 106/106/106
f 106/106/106 107/107/107 108/108/108
f 108/108/108 131/131/131 106/106/106
f 14/14/14 106/106/106 131/131/131
f 131/131/131 108/108/108 148/148/148
f 14/14/14 131/131/131 74/74/74
f 74/74/74 15/15/15 14/14/14
f 14/14/14 15/15/15 12/12/12
f 74/74/74 63/63/63 15/15/15
f 15/15/15 61/61/61 12/12/12
f 60/60/60 12/12/12 61/61/61
f 63/63/63 62/62/62 15/15/15
f 61/61/61 15/15/15 62/62/62
f 69/69/69 62/62/62 63/63/63
f 59/59/59 60/60/60 61/61/61
f 62/62/62 59/59/59 61/61/61
f 62/62/62 69/69/69 82/82/82
f 59/59/59 62/62/62 82/82/82
f 88/88/88 82/82/82 69/69/69
f 60/60/60 59/59/59 83/83/83
f 70/70/70 60/60/60 83/83/83
f 83/83/83 86/86/86 70/70/70
f 70/70/70 86/86/86 90/90/90
f 86/86/86 83/83/83 84/84/84
f 84/84/84 95/95/95 86/86/86
f 59/59/59 57/57/57 83/83/83
f 83/83/83 57/57/57 84/84/84
f 95/95/95 84/84/84 89/89/89
f 57/57/57 89/89/89 84/84/84
f 89/89/89 161/161/161 95/95/95
f 161/161/161 89/89/89 128/128/128
f 161/161/161 170/170/170 169/169/169
f 169/169/169 170/170/170 171/171/171
f 89/89/89 126/126/126 128/128/128
f 89/89/89 57/57/57 129/129/129
f 126/126/126 89/89/89 129/129/129
f 57/57/57 56/56/56 129/129/129
f 56/56/56 126/126/126 129/129/129
f 59/59/59 58/58/58 57/57/57
f 56/56/56 57/57/57 58/58/58
f 58/58/58 59/59/59 82/82/82
f 82/82/82 88/88/88 58/58/58
f 88/88/88 56/56/56 58/58/58
f 156/156/156 56/56/56 88/88/88
f 126/126/126 127/127/127 128/128/128
f 56/56/56 156/156/156 125/125/125
f 126/126/126 56/56/56 125/125/125
f 127/127/127 146/146/146 147/147/147
f 127/127/127 118/118/118 146/146/146
f 127/127/127 126/126/126 119/119/119
f 119/119/119 118/118/118 127/127/127
f 125/125/125 119/119/119 126/126/126
f 118/118/118 119/119/119 115/115/115
f 156/156/156 113/113/113 125/125/125
f 119/119/119 125/125/125 113/113/113
f 115/115/115 119/119/119 113/113/113
f 113/113/113 156/156/156 168/168/168
f 113/113/113 114/114/114 115/115/115
f 114/114/114 113/113/113 145/145/145
f 152/152/152 153/153/153 154/154/154
