# Generated from Roblox mesh JSON (v7.00)
# Hello from RBX_Toolbox ;)
o LeftHand
v 0.386688 -0.297698 -0.465870
v -0.500658 -0.013957 -0.465865
v -0.500656 -0.013953 0.465745
v -0.573218 0.136000 -0.466924
v -0.465601 0.100696 -0.580244
v 0.423640 -0.184755 -0.580242
v -0.427655 0.113086 -0.500068
v 0.381220 -0.213775 -0.435068
v -0.447450 0.051174 -0.435068
v 0.423640 -0.184755 -0.580242
v -0.391258 0.261373 -0.563925
v -0.465601 0.100696 -0.580244
v -0.365257 0.237668 -0.481574
v 0.401015 -0.151863 -0.500068
v -0.427655 0.113086 -0.500068
v -0.447450 0.051174 0.434933
v -0.573161 0.136168 0.466923
v -0.465454 0.101100 0.580239
v -0.489569 0.132882 0.434933
v 0.423763 -0.184332 0.580244
v 0.381220 -0.213775 0.434933
v -0.427655 0.113086 0.499932
v 0.423763 -0.184332 0.580244
v -0.465454 0.101100 0.580239
v -0.391006 0.262244 0.562013
v -0.427655 0.113086 0.499932
v 0.401015 -0.151863 0.499932
v -0.365257 0.237668 0.479839
v -0.489569 0.132882 -0.435068
v -0.497477 0.297362 -0.451968
v -0.573218 0.136000 -0.466924
v -0.497477 0.297362 -0.451968
v -0.497397 0.297698 0.449997
v -0.573218 0.136000 -0.466924
v -0.424782 0.256700 -0.419081
v -0.489569 0.132882 -0.435068
v -0.489569 0.132882 -0.435068
v -0.424782 0.256700 0.417348
v -0.424782 0.256700 -0.419081
v -0.489569 0.132882 0.434933
v -0.497397 0.297698 0.449997
v -0.573161 0.136168 0.466923
v -0.573161 0.136168 0.466923
v -0.424782 0.256700 0.417348
v -0.489569 0.132882 0.434933
v 0.386689 -0.297693 0.465749
v 0.462930 -0.171659 -0.435068
v 0.401015 -0.151863 -0.500068
v 0.531336 -0.219849 -0.467003
v 0.573072 -0.050524 -0.451786
v 0.531336 -0.219849 -0.467003
v 0.462930 -0.171659 -0.435068
v 0.490962 -0.036089 0.417349
v 0.462930 -0.171659 0.434933
v 0.462930 -0.171659 0.434933
v 0.531397 -0.219670 0.467008
v 0.401015 -0.151863 0.499932
v 0.573218 -0.050208 0.449823
v 0.531336 -0.219849 -0.467003
v 0.531397 -0.219670 0.467008
v 0.573218 -0.050208 0.449823
v 0.531397 -0.219670 0.467008
v 0.467062 -0.015188 -0.563715
v 0.431437 -0.017057 -0.481574
v 0.490962 -0.036089 -0.419081
v 0.462930 -0.171659 -0.435068
v 0.573072 -0.050524 -0.451786
v 0.490962 -0.036089 -0.419081
v 0.467370 -0.014336 0.561822
v 0.431437 -0.017057 0.479839
v 0.490962 -0.036089 0.417349
v 0.462930 -0.171659 0.434933
vt 0.823438 0.968332
vt 0.822188 0.968332
vt 0.822188 0.969494
vt 0.822055 0.968332
vt 0.822188 0.968208
vt 0.823438 0.968208
vt 0.968111 0.229559
vt 0.771962 0.210041
vt 0.968111 0.210041
vt 0.825333 0.967333
vt 0.826658 0.967114
vt 0.826658 0.967333
vt 0.266477 0.401317
vt 0.474388 0.366991
vt 0.266477 0.366991
vt 0.968111 0.027692
vt 0.822055 0.969494
vt 0.822188 0.969618
vt 0.989107 0.027692
vt 0.823438 0.969618
vt 0.771962 0.027692
vt 0.968111 0.008175
vt 0.822231 0.967342
vt 0.823569 0.967342
vt 0.823569 0.967150
vt 0.751359 0.365457
vt 0.961349 0.365457
vt 0.751359 0.395676
vt 0.989107 0.210041
vt 0.826757 0.967114
vt 0.826757 0.967333
vt 0.825214 0.967140
vt 0.823675 0.967140
vt 0.825214 0.967336
vt 0.250903 0.401317
vt 0.250903 0.366991
vt 0.493084 0.366516
vt 0.734744 0.397281
vt 0.493084 0.397281
vt 0.734744 0.366516
vt 0.823669 0.967150
vt 0.823669 0.967342
vt 0.823675 0.967336
vt 0.735669 0.395676
vt 0.735669 0.365457
vt 0.823438 0.969494
vt 0.750966 0.210041
vt 0.771962 0.229559
vt 0.823572 0.968332
vt 0.825234 0.967114
vt 0.825234 0.967333
vt 0.249222 0.367228
vt 0.008085 0.400333
vt 0.008085 0.367228
vt 0.750966 0.027692
vt 0.823572 0.969494
vt 0.771962 0.008175
vt 0.828304 0.967120
vt 0.826768 0.967331
vt 0.828304 0.967331
vt 0.822131 0.967150
vt 0.822131 0.967342
vt 0.825333 0.967114
vt 0.474388 0.401317
vt 0.489949 0.401317
vt 0.489949 0.366991
vt 0.826768 0.967120
vt 0.249222 0.400333
vt 0.822231 0.967150
vt 0.961349 0.395676
vt 0.977039 0.395676
vt 0.977039 0.365457
vn -0.244770 0.834930 0.493470
vn 0.691723 0.534018 0.486719
vn 0.425532 0.871580 -0.243379
vn 0.912585 -0.208618 0.351694
vn 0.368628 -0.026335 0.929407
vn -0.222587 0.539805 0.811743
vn -0.119390 -0.185471 -0.975406
vn -0.238983 -0.968615 -0.066882
vn -0.367257 -0.928107 -0.066882
vn -0.222587 0.539805 0.811743
vn 0.103401 -0.187400 0.976666
vn 0.368628 -0.026335 0.929407
vn -0.021979 0.157878 -0.986980
vn -0.011370 -0.223085 -0.974442
vn -0.119390 -0.185471 -0.975406
vn -0.367257 -0.928107 0.067178
vn 0.911621 -0.210547 -0.352363
vn 0.302080 0.014173 -0.953223
vn -0.991264 0.119299 0.057533
vn -0.225481 0.198385 -0.954188
vn -0.238983 -0.968615 0.067178
vn -0.117461 -0.177755 0.976666
vn -0.225481 0.198385 -0.954188
vn 0.302080 0.014173 -0.953223
vn 0.100508 -0.197045 -0.975406
vn -0.117461 -0.177755 0.976666
vn -0.008477 -0.216334 0.976666
vn -0.018121 0.168487 0.985346
vn -0.991264 0.118335 -0.058202
vn 0.877865 -0.451663 0.158802
vn 0.912585 -0.208618 0.351694
vn 0.877865 -0.451663 0.158802
vn 0.875936 -0.455521 -0.157542
vn 0.912585 -0.208618 0.351694
vn -0.880351 0.469399 -0.067847
vn -0.991264 0.118335 -0.058202
vn -0.991264 0.118335 -0.058202
vn -0.880351 0.470363 0.068142
vn -0.880351 0.469399 -0.067847
vn -0.991264 0.119299 0.057533
vn 0.875936 -0.455521 -0.157542
vn 0.911621 -0.210547 -0.352363
vn 0.911621 -0.210547 -0.352363
vn -0.880351 0.470363 0.068142
vn -0.991264 0.119299 0.057533
vn 0.160304 0.957417 -0.239521
vn 0.853753 -0.517246 -0.057238
vn -0.011370 -0.223085 -0.974442
vn -0.628626 0.680616 0.376770
vn -0.968117 0.196456 0.158802
vn -0.628626 0.680616 0.376770
vn 0.853753 -0.517246 -0.057238
vn 0.979133 -0.193187 0.069107
vn 0.854717 -0.516282 0.057533
vn 0.854717 -0.516282 0.057533
vn -0.866848 0.410567 -0.283886
vn -0.008477 -0.216334 0.976666
vn -0.969081 0.191634 -0.157542
vn -0.628626 0.680616 0.376770
vn -0.866848 0.410567 -0.283886
vn -0.969081 0.191634 -0.157542
vn -0.866848 0.410567 -0.283886
vn -0.188831 -0.063949 0.979559
vn 0.107259 0.111583 -0.987944
vn 0.978169 -0.194151 -0.068811
vn 0.853753 -0.517246 -0.057238
vn -0.968117 0.196456 0.158802
vn 0.978169 -0.194151 -0.068811
vn -0.191724 -0.072629 -0.978300
vn 0.111117 0.122193 0.986311
vn 0.979133 -0.193187 0.069107
vn 0.854717 -0.516282 0.057533
f 52/52/52 53/53/53 54/54/54
f 53/53/53 52/52/52 68/68/68
f 37/37/37 38/38/38 39/39/39
f 38/38/38 37/37/37 40/40/40
f 26/26/26 27/27/27 28/28/28
f 44/44/44 26/26/26 28/28/28
f 26/26/26 44/44/44 45/45/45
f 70/70/70 28/28/28 27/27/27
f 27/27/27 71/71/71 70/70/70
f 71/71/71 27/27/27 72/72/72
f 13/13/13 14/14/14 15/15/15
f 15/15/15 35/35/35 13/13/13
f 35/35/35 15/15/15 36/36/36
f 14/14/14 13/13/13 64/64/64
f 65/65/65 14/14/14 64/64/64
f 14/14/14 65/65/65 66/66/66
f 7/7/7 8/8/8 9/9/9
f 7/7/7 9/9/9 29/29/29
f 8/8/8 7/7/7 48/48/48
f 9/9/9 19/19/19 29/29/29
f 48/48/48 47/47/47 8/8/8
f 19/19/19 9/9/9 16/16/16
f 8/8/8 16/16/16 9/9/9
f 16/16/16 22/22/22 19/19/19
f 47/47/47 21/21/21 8/8/8
f 16/16/16 8/8/8 21/21/21
f 21/21/21 22/22/22 16/16/16
f 21/21/21 47/47/47 55/55/55
f 22/22/22 21/21/21 57/57/57
f 55/55/55 57/57/57 21/21/21
f 1/1/1 2/2/2 3/3/3
f 2/2/2 1/1/1 6/6/6
f 6/6/6 5/5/5 2/2/2
f 5/5/5 4/4/4 2/2/2
f 4/4/4 3/3/3 2/2/2
f 6/6/6 1/1/1 49/49/49
f 3/3/3 4/4/4 17/17/17
f 3/3/3 17/17/17 18/18/18
f 20/20/20 3/3/3 18/18/18
f 1/1/1 46/46/46 49/49/49
f 1/1/1 3/3/3 46/46/46
f 3/3/3 20/20/20 46/46/46
f 49/49/49 46/46/46 56/56/56
f 56/56/56 46/46/46 20/20/20
f 10/10/10 11/11/11 12/12/12
f 30/30/30 12/12/12 11/11/11
f 12/12/12 30/30/30 31/31/31
f 11/11/11 10/10/10 63/63/63
f 10/10/10 50/50/50 63/63/63
f 50/50/50 10/10/10 51/51/51
f 23/23/23 24/24/24 25/25/25
f 24/24/24 41/41/41 25/25/25
f 41/41/41 24/24/24 42/42/42
f 25/25/25 69/69/69 23/23/23
f 23/23/23 69/69/69 61/61/61
f 61/61/61 62/62/62 23/23/23
f 32/32/32 33/33/33 34/34/34
f 34/34/34 33/33/33 43/43/43
f 58/58/58 59/59/59 60/60/60
f 59/59/59 58/58/58 67/67/67
