# Generated from Roblox mesh JSON (v7.00)
# Hello from RBX_Toolbox ;)
o LeftFoot
v -0.689529 -0.066374 -0.279143
v -0.310736 -0.185133 0.580140
v -0.579766 -0.185137 -0.311581
v -0.613911 -0.067671 -0.420162
v -0.560208 -0.041831 -0.353304
v -0.541433 -0.106832 -0.291074
v -0.603665 -0.041831 -0.272298
v 0.279177 -0.069415 -0.689557
v -0.584805 0.182126 -0.415247
v -0.613911 -0.067671 -0.420162
v 0.311954 -0.185182 -0.580622
v 0.279177 -0.069415 -0.689557
v 0.272706 -0.041831 -0.604592
v -0.352375 -0.041831 0.560621
v -0.420103 -0.066272 0.613888
v -0.279104 -0.067416 0.689557
v -0.290143 -0.106831 0.541846
v -0.271369 -0.041831 0.604074
v 0.580990 -0.185179 0.311119
v 0.542771 -0.106832 0.290558
v 0.561545 -0.041831 0.352786
v -0.689529 -0.066374 -0.279143
v -0.603665 -0.041831 -0.272298
v -0.529841 0.172500 -0.345195
v -0.560208 -0.041831 -0.353304
v -0.660067 0.184967 -0.275606
v -0.571799 0.172500 -0.266984
v -0.603665 -0.041831 -0.272298
v -0.329178 0.172500 0.537202
v -0.571799 0.172500 -0.266984
v 0.272706 -0.041831 -0.604592
v 0.283580 0.178637 -0.676686
v 0.274340 0.172500 -0.587815
v -0.660067 0.184967 -0.275606
v -0.398010 0.185182 0.593080
v -0.689529 -0.066374 -0.279143
v -0.398010 0.185182 0.593080
v -0.279104 -0.067416 0.689557
v -0.420103 -0.066272 0.613888
v -0.420103 -0.066272 0.613888
v -0.352375 -0.041831 0.560621
v -0.271369 -0.041831 0.604074
v -0.329178 0.172500 0.537202
v -0.352375 -0.041831 0.560621
v -0.258061 0.182666 0.667854
v -0.250966 0.172500 0.579156
v 0.291481 -0.106832 -0.542362
v 0.353713 -0.041831 -0.561137
v 0.420068 -0.070619 -0.613958
v 0.605003 -0.041831 0.271782
v 0.684318 0.176363 0.266048
v 0.420068 -0.070619 -0.613958
v 0.689529 -0.070508 0.279172
v 0.689529 -0.070508 0.279172
v 0.613953 -0.069152 0.420082
v 0.420068 -0.070619 -0.613958
v 0.353713 -0.041831 -0.561137
v 0.422477 0.176153 -0.601701
v 0.352552 0.172500 -0.545859
v 0.352552 0.172500 -0.545859
v 0.605003 -0.041831 0.271782
v 0.353713 -0.041831 -0.561137
v 0.422477 0.176153 -0.601701
v 0.595173 0.172500 0.258327
v 0.553214 0.172500 0.336536
v 0.605003 -0.041831 0.271782
v 0.595173 0.172500 0.258327
v 0.689529 -0.070508 0.279172
v 0.610080 0.179173 0.405405
v 0.684318 0.176363 0.266048
v 0.613953 -0.069152 0.420082
v 0.561545 -0.041831 0.352786
vt 0.822052 0.968327
vt 0.822185 0.969497
vt 0.822185 0.968327
vt 0.822185 0.968202
vt 0.968633 0.230468
vt 0.968633 0.210845
vt 0.989551 0.210845
vt 0.826653 0.967333
vt 0.825329 0.967114
vt 0.825329 0.967333
vt 0.823432 0.968327
vt 0.823432 0.968202
vt 0.772939 0.230468
vt 0.989551 0.027267
vt 0.822052 0.969497
vt 0.822185 0.969622
vt 0.968633 0.027267
vt 0.968633 0.007644
vt 0.823432 0.969497
vt 0.772939 0.027267
vt 0.772939 0.007644
vt 0.825229 0.967333
vt 0.490725 0.366991
vt 0.475150 0.401317
vt 0.475150 0.366991
vt 0.825229 0.967114
vt 0.490725 0.401317
vt 0.493668 0.366516
vt 0.734197 0.398043
vt 0.493668 0.398043
vt 0.267239 0.366991
vt 0.826653 0.967114
vt 0.267239 0.401317
vt 0.825211 0.967135
vt 0.823678 0.967135
vt 0.825211 0.967336
vt 0.823665 0.967117
vt 0.823566 0.967338
vt 0.823665 0.967338
vt 0.823678 0.967336
vt 0.734197 0.366516
vt 0.751912 0.366151
vt 0.736251 0.400921
vt 0.736251 0.366151
vt 0.823566 0.967117
vt 0.751912 0.400921
vt 0.772939 0.210845
vt 0.752021 0.210845
vt 0.823565 0.968327
vt 0.752021 0.027267
vt 0.828304 0.967120
vt 0.826768 0.967331
vt 0.828304 0.967331
vt 0.823565 0.969497
vt 0.823432 0.969622
vt 0.826752 0.967333
vt 0.251678 0.366991
vt 0.826752 0.967114
vt 0.251678 0.401317
vt 0.249222 0.400333
vt 0.008085 0.367228
vt 0.249222 0.367228
vt 0.826768 0.967120
vt 0.008085 0.400333
vt 0.961520 0.400921
vt 0.977182 0.366151
vt 0.977182 0.400921
vt 0.822131 0.967338
vt 0.822230 0.967117
vt 0.822131 0.967117
vt 0.822230 0.967338
vt 0.961520 0.366151
vn 0.995849 0.089430 0.015911
vn 0.062299 0.960873 -0.268424
vn 0.612531 0.722148 0.321595
vn 0.573714 0.105928 0.812631
vn -0.342368 -0.160939 -0.925402
vn -0.083265 -0.995505 -0.045226
vn -0.966352 -0.120181 0.227464
vn -0.169632 0.468867 0.866974
vn 0.433972 -0.101743 0.895117
vn 0.573714 0.105928 0.812631
vn -0.322960 0.723118 0.609812
vn -0.169632 0.468867 0.866974
vn -0.225917 -0.166762 -0.959367
vn -0.930446 -0.120181 0.344885
vn 0.821172 0.088460 -0.563433
vn 0.024453 0.103987 -0.994302
vn -0.044448 -0.995505 0.083841
vn 0.226301 -0.156087 0.961106
vn -0.263764 0.962813 -0.061723
vn 0.083649 -0.995505 0.045024
vn 0.342752 -0.161910 0.925200
vn 0.995849 0.089430 0.015911
vn -0.966352 -0.120181 0.227464
vn -0.353043 0.085549 -0.931224
vn -0.342368 -0.160939 -0.925402
vn 0.984204 -0.124063 -0.129653
vn -0.965381 0.137952 0.219700
vn -0.966352 -0.120181 0.227464
vn -0.925594 0.138922 0.350708
vn -0.965381 0.137952 0.219700
vn -0.225917 -0.166762 -0.959367
vn 0.129259 -0.051281 0.990218
vn -0.221065 0.077785 -0.971982
vn 0.984204 -0.124063 -0.129653
vn 0.891043 -0.126974 -0.435337
vn 0.995849 0.089430 0.015911
vn 0.891043 -0.126974 -0.435337
vn 0.024453 0.103987 -0.994302
vn 0.821172 0.088460 -0.563433
vn 0.821172 0.088460 -0.563433
vn -0.930446 -0.120181 0.344885
vn 0.226301 -0.156087 0.961106
vn -0.925594 0.138922 0.350708
vn -0.930446 -0.120181 0.344885
vn -0.133727 -0.106596 -0.985568
vn 0.220479 0.092342 0.970810
vn 0.044832 -0.995505 -0.083072
vn 0.918215 -0.201697 -0.340235
vn -0.619910 0.489246 0.613693
vn 0.953150 -0.200727 -0.224754
vn -0.990613 -0.035754 0.132362
vn -0.619910 0.489246 0.613693
vn -0.981879 0.181621 0.051817
vn -0.981879 0.181621 0.051817
vn -0.484050 0.172887 -0.857472
vn -0.619910 0.489246 0.613693
vn 0.918215 -0.201697 -0.340235
vn -0.898422 -0.031873 0.438046
vn 0.934712 0.030235 -0.354791
vn 0.934712 0.030235 -0.354791
vn 0.953150 -0.200727 -0.224754
vn 0.918215 -0.201697 -0.340235
vn -0.898422 -0.031873 0.438046
vn 0.974499 0.031205 -0.221843
vn 0.353427 0.084578 0.931993
vn 0.953150 -0.200727 -0.224754
vn 0.974499 0.031205 -0.221843
vn -0.981879 0.181621 0.051817
vn -0.440381 -0.057104 -0.896289
vn -0.990613 -0.035754 0.132362
vn -0.484050 0.172887 -0.857472
vn 0.342752 -0.161910 0.925200
f 60/60/60 61/61/61 62/62/62
f 61/61/61 60/60/60 64/64/64
f 28/28/28 29/29/29 30/30/30
f 29/29/29 28/28/28 41/41/41
f 42/42/42 43/43/43 44/44/44
f 43/43/43 42/42/42 46/46/46
f 42/42/42 72/72/72 46/46/46
f 65/65/65 46/46/46 72/72/72
f 66/66/66 65/65/65 72/72/72
f 65/65/65 66/66/66 67/67/67
f 23/23/23 24/24/24 25/25/25
f 24/24/24 23/23/23 27/27/27
f 24/24/24 31/31/31 25/25/25
f 31/31/31 24/24/24 33/33/33
f 33/33/33 57/57/57 31/31/31
f 59/59/59 57/57/57 33/33/33
f 5/5/5 6/6/6 7/7/7
f 6/6/6 14/14/14 7/7/7
f 13/13/13 6/6/6 5/5/5
f 14/14/14 6/6/6 17/17/17
f 17/17/17 18/18/18 14/14/14
f 17/17/17 21/21/21 18/18/18
f 21/21/21 17/17/17 20/20/20
f 6/6/6 20/20/20 17/17/17
f 50/50/50 21/21/21 20/20/20
f 6/6/6 13/13/13 47/47/47
f 20/20/20 6/6/6 47/47/47
f 47/47/47 50/50/50 20/20/20
f 13/13/13 48/48/48 47/47/47
f 50/50/50 47/47/47 48/48/48
f 1/1/1 2/2/2 3/3/3
f 2/2/2 1/1/1 15/15/15
f 2/2/2 15/15/15 16/16/16
f 4/4/4 1/1/1 3/3/3
f 55/55/55 2/2/2 16/16/16
f 12/12/12 4/4/4 3/3/3
f 2/2/2 55/55/55 19/19/19
f 19/19/19 3/3/3 2/2/2
f 54/54/54 19/19/19 55/55/55
f 3/3/3 11/11/11 12/12/12
f 3/3/3 19/19/19 11/11/11
f 54/54/54 49/49/49 19/19/19
f 12/12/12 11/11/11 49/49/49
f 11/11/11 19/19/19 49/49/49
f 8/8/8 9/9/9 10/10/10
f 9/9/9 22/22/22 10/10/10
f 22/22/22 9/9/9 26/26/26
f 9/9/9 8/8/8 32/32/32
f 32/32/32 8/8/8 56/56/56
f 56/56/56 58/58/58 32/32/32
f 37/37/37 38/38/38 39/39/39
f 38/38/38 37/37/37 45/45/45
f 45/45/45 71/71/71 38/38/38
f 45/45/45 69/69/69 71/71/71
f 69/69/69 68/68/68 71/71/71
f 68/68/68 69/69/69 70/70/70
f 34/34/34 35/35/35 36/36/36
f 36/36/36 35/35/35 40/40/40
f 51/51/51 52/52/52 53/53/53
f 52/52/52 51/51/51 63/63/63
