# Generated from Roblox mesh JSON (v7.00)
# Hello from RBX_Toolbox ;)
o LeftUpperLeg
v -0.484584 -0.676404 -0.217634
v -0.274777 0.558677 -0.235810
v -0.449766 -0.676404 -0.282536
v -0.324561 0.594357 -0.301157
v -0.572675 -0.663008 -0.226707
v -0.507383 -0.665599 -0.350251
v -0.300956 0.558677 -0.187011
v 0.226195 -0.669424 -0.572746
v 0.217572 -0.676404 -0.483871
v 0.226985 0.558677 -0.387191
v 0.233743 0.592718 -0.469758
v -0.484584 -0.676404 -0.217634
v -0.149575 0.558677 0.314754
v -0.300956 0.558677 -0.187011
v -0.283248 -0.676404 0.449708
v -0.213786 0.595938 0.364855
v -0.228839 -0.665069 0.572746
v -0.351521 -0.662784 0.506057
v -0.572675 -0.663008 -0.226707
v -0.213786 0.595938 0.364855
v -0.351521 -0.662784 0.506057
v -0.218346 -0.676404 0.484523
v -0.149575 0.558677 0.314754
v -0.283248 -0.676404 0.449708
v -0.100775 0.558677 0.340931
v 0.448992 -0.676404 0.283189
v -0.106136 0.594627 0.422788
v -0.382202 0.595838 -0.193327
v -0.274777 0.558677 -0.235810
v -0.300956 0.558677 -0.187011
v -0.263466 0.597835 -0.198322
v -0.112085 0.597835 0.303443
v -0.324561 0.594357 -0.301157
v -0.301326 0.676401 -0.218710
v -0.382202 0.595838 -0.193327
v 0.258721 0.676349 -0.387650
v 0.226985 0.558677 -0.387191
v 0.238296 0.597835 -0.349702
v 0.233743 0.592718 -0.469758
v -0.382202 0.595838 -0.193327
v -0.149575 0.558677 0.314754
v -0.213786 0.595938 0.364855
v -0.132356 0.676404 0.341360
v -0.106136 0.594627 0.422788
v -0.100775 0.558677 0.340931
v 0.427680 0.676352 0.172372
v 0.505265 -0.668878 0.352461
v 0.282475 -0.676404 -0.449054
v 0.275785 0.558677 -0.361013
v 0.341803 0.591428 -0.411913
v 0.351018 -0.671841 -0.506524
v 0.275785 0.558677 -0.361013
v 0.483811 -0.676404 0.218288
v 0.282475 -0.676404 -0.449054
v 0.341803 0.591428 -0.411913
v 0.351018 -0.671841 -0.506524
v 0.572675 -0.671600 0.228383
v 0.510287 0.591527 0.146562
v 0.427167 0.558677 0.140752
v 0.400987 0.558677 0.189550
v 0.483811 -0.676404 0.218288
v 0.427167 0.558677 0.140752
v 0.452241 0.592986 0.254494
v 0.572675 -0.671600 0.228383
v 0.510287 0.591527 0.146562
v 0.400987 0.558677 0.189550
v 0.275785 0.558677 -0.361013
v 0.341803 0.591428 -0.411913
v 0.427167 0.558677 0.140752
v 0.510287 0.591527 0.146562
v 0.389677 0.597835 0.152063
v 0.452241 0.592986 0.254494
vt 0.490725 0.582614
vt 0.475150 0.767473
vt 0.475150 0.582614
vt 0.825329 0.964781
vt 0.825229 0.965959
vt 0.825329 0.965959
vt 0.490725 0.767473
vt 0.826653 0.965959
vt 0.267239 0.582614
vt 0.267239 0.767473
vt 0.826653 0.964781
vt 0.493668 0.582893
vt 0.734197 0.768217
vt 0.493668 0.768217
vt 0.734197 0.582893
vt 0.823665 0.964785
vt 0.823566 0.965952
vt 0.823665 0.965952
vt 0.825211 0.965957
vt 0.823678 0.964777
vt 0.823678 0.965957
vt 0.751912 0.583771
vt 0.736251 0.766877
vt 0.736251 0.583771
vt 0.751912 0.766877
vt 0.961520 0.583771
vt 0.823566 0.964785
vt 0.825229 0.964781
vt 0.247805 0.974110
vt 0.229129 0.991470
vt 0.229129 0.974110
vt 0.032928 0.974110
vt 0.826777 0.963465
vt 0.826896 0.963465
vt 0.826896 0.963354
vt 0.826896 0.964627
vt 0.247805 0.791738
vt 0.229129 0.791738
vt 0.826777 0.964627
vt 0.825211 0.964777
vt 0.032928 0.991470
vt 0.828146 0.963354
vt 0.828146 0.963465
vt 0.828265 0.963465
vt 0.014252 0.974110
vt 0.828146 0.964627
vt 0.822230 0.965952
vt 0.251678 0.582614
vt 0.251678 0.767473
vt 0.826752 0.964781
vt 0.826752 0.965959
vt 0.249222 0.765523
vt 0.008085 0.582501
vt 0.249222 0.582501
vt 0.826768 0.964794
vt 0.826768 0.965960
vt 0.828304 0.965960
vt 0.828304 0.964794
vt 0.008085 0.765523
vt 0.961520 0.766877
vt 0.977182 0.583771
vt 0.977182 0.766877
vt 0.822230 0.964785
vt 0.822131 0.965952
vt 0.822131 0.964785
vt 0.014252 0.791738
vt 0.229129 0.774378
vt 0.826896 0.964737
vt 0.032928 0.774378
vt 0.828146 0.964737
vt 0.032928 0.791738
vt 0.828265 0.964627
vn -0.965657 0.138046 0.219397
vn -0.351604 0.108209 -0.929787
vn -0.353528 0.085110 -0.931712
vn 0.654173 -0.541455 0.528348
vn 0.979487 -0.154544 -0.128053
vn 0.436656 -0.135295 0.889273
vn -0.962769 0.159220 0.219397
vn 0.129629 -0.078509 0.988407
vn -0.220708 0.077410 -0.972136
vn -0.221671 0.101472 -0.970211
vn -0.261132 -0.530868 0.806501
vn -0.965657 0.138046 0.219397
vn -0.923308 0.160182 0.349330
vn -0.962769 0.159220 0.219397
vn -0.926196 0.139008 0.351255
vn 0.867841 -0.311426 -0.386956
vn -0.127349 -0.141069 -0.981760
vn 0.887090 -0.157431 -0.435080
vn 0.979487 -0.154544 -0.128053
vn 0.867841 -0.311426 -0.386956
vn 0.887090 -0.157431 -0.435080
vn 0.221064 0.091847 0.971083
vn -0.923308 0.160182 0.349330
vn -0.926196 0.139008 0.351255
vn 0.221064 0.114946 0.968195
vn 0.352921 0.084148 0.931622
vn -0.183172 -0.306614 -0.933637
vn 0.786031 -0.569367 0.241534
vn -0.351604 0.108209 -0.929787
vn -0.962769 0.159220 0.219397
vn -0.083076 0.995603 -0.044319
vn -0.044577 0.995603 0.083689
vn 0.654173 -0.541455 0.528348
vn 0.602200 -0.732023 0.319493
vn 0.786031 -0.569367 0.241534
vn -0.323692 -0.730099 0.602458
vn -0.221671 0.101472 -0.970211
vn 0.044932 0.995603 -0.083780
vn -0.261132 -0.530868 0.806501
vn 0.786031 -0.569367 0.241534
vn -0.923308 0.160182 0.349330
vn 0.867841 -0.311426 -0.386956
vn 0.171015 -0.967828 -0.184839
vn -0.183172 -0.306614 -0.933637
vn 0.221064 0.114946 0.968195
vn -0.187984 -0.965903 -0.175214
vn -0.438225 -0.084284 -0.895138
vn 0.934251 0.030249 -0.354233
vn 0.934251 0.055274 -0.353270
vn -0.534472 -0.514506 0.670793
vn -0.895397 -0.059260 0.440764
vn 0.934251 0.055274 -0.353270
vn 0.974674 0.031212 -0.221412
vn 0.934251 0.030249 -0.354233
vn -0.534472 -0.514506 0.670793
vn -0.895397 -0.059260 0.440764
vn -0.989718 -0.063110 0.127963
vn -0.815512 -0.515469 -0.261836
vn 0.973712 0.055274 -0.222375
vn 0.351959 0.107247 0.929697
vn 0.974674 0.031212 -0.221412
vn 0.973712 0.055274 -0.222375
vn -0.493086 -0.175718 -0.851827
vn -0.989718 -0.063110 0.127963
vn -0.815512 -0.515469 -0.261836
vn 0.351959 0.107247 0.929697
vn 0.934251 0.055274 -0.353270
vn -0.534472 -0.514506 0.670793
vn 0.973712 0.055274 -0.222375
vn -0.815512 -0.515469 -0.261836
vn 0.083431 0.995603 0.045191
vn -0.493086 -0.175718 -0.851827
f 29/29/29 30/30/30 31/31/31
f 31/31/31 37/37/37 29/29/29
f 30/30/30 32/32/32 31/31/31
f 30/30/30 41/41/41 32/32/32
f 37/37/37 31/31/31 38/38/38
f 32/32/32 38/38/38 31/31/31
f 37/37/37 38/38/38 67/67/67
f 41/41/41 45/45/45 32/32/32
f 45/45/45 66/66/66 32/32/32
f 38/38/38 69/69/69 67/67/67
f 71/71/71 66/66/66 69/69/69
f 38/38/38 71/71/71 69/69/69
f 32/32/32 66/66/66 71/71/71
f 38/38/38 32/32/32 71/71/71
f 52/52/52 53/53/53 54/54/54
f 53/53/53 52/52/52 59/59/59
f 12/12/12 13/13/13 14/14/14
f 13/13/13 12/12/12 15/15/15
f 1/1/1 2/2/2 3/3/3
f 2/2/2 1/1/1 7/7/7
f 2/2/2 9/9/9 3/3/3
f 9/9/9 2/2/2 10/10/10
f 10/10/10 48/48/48 9/9/9
f 49/49/49 48/48/48 10/10/10
f 22/22/22 23/23/23 24/24/24
f 23/23/23 22/22/22 25/25/25
f 25/25/25 22/22/22 26/26/26
f 26/26/26 60/60/60 25/25/25
f 61/61/61 60/60/60 26/26/26
f 60/60/60 61/61/61 62/62/62
f 16/16/16 17/17/17 18/18/18
f 17/17/17 16/16/16 27/27/27
f 27/27/27 47/47/47 17/17/17
f 63/63/63 47/47/47 27/27/27
f 63/63/63 64/64/64 47/47/47
f 64/64/64 63/63/63 65/65/65
f 4/4/4 5/5/5 6/6/6
f 5/5/5 4/4/4 28/28/28
f 8/8/8 4/4/4 6/6/6
f 4/4/4 8/8/8 11/11/11
f 8/8/8 50/50/50 11/11/11
f 50/50/50 8/8/8 51/51/51
f 33/33/33 34/34/34 35/35/35
f 34/34/34 42/42/42 35/35/35
f 42/42/42 34/34/34 43/43/43
f 42/42/42 43/43/43 44/44/44
f 46/46/46 44/44/44 43/43/43
f 34/34/34 46/46/46 43/43/43
f 44/44/44 46/46/46 72/72/72
f 46/46/46 70/70/70 72/72/72
f 46/46/46 34/34/34 36/36/36
f 36/36/36 70/70/70 46/46/46
f 33/33/33 36/36/36 34/34/34
f 68/68/68 70/70/70 36/36/36
f 36/36/36 33/33/33 39/39/39
f 39/39/39 68/68/68 36/36/36
f 19/19/19 20/20/20 21/21/21
f 19/19/19 40/40/40 20/20/20
f 55/55/55 56/56/56 57/57/57
f 55/55/55 57/57/57 58/58/58
