# Generated from Roblox mesh JSON (v7.00)
# Hello from RBX_Toolbox ;)
o LeftLowerLeg
v -0.583873 -0.517146 -0.262332
v -0.397293 0.503603 -0.301926
v -0.541915 -0.517146 -0.340543
v -0.452175 0.514029 -0.371934
v -0.671971 -0.503814 -0.271431
v -0.599519 -0.506419 -0.408281
v 0.270909 -0.510259 -0.672043
v 0.262265 -0.517146 -0.583162
v -0.230776 0.503603 0.430319
v -0.583873 -0.517146 -0.262332
v -0.341252 -0.517146 0.541854
v -0.299568 0.517146 0.486050
v -0.273512 -0.505886 0.672043
v -0.409518 -0.503589 0.598226
v -0.263041 -0.517146 0.583808
v -0.230776 0.503603 0.430319
v -0.341252 -0.517146 0.541854
v 0.541140 -0.517146 0.341188
v -0.165873 0.503603 0.465134
v -0.671971 -0.503814 -0.271431
v -0.299568 0.517146 0.486050
v -0.409518 -0.503589 0.598226
v -0.520269 0.516929 -0.245542
v -0.432111 0.503603 -0.237024
v 0.279191 0.510483 -0.592091
v -0.432111 0.503603 -0.237024
v -0.520269 0.516929 -0.245542
v -0.172919 0.514578 0.553743
v 0.270045 0.503603 -0.503260
v 0.340477 -0.517146 -0.541207
v 0.404871 0.507951 -0.524245
v 0.409040 -0.512687 -0.598662
v 0.404871 0.507951 -0.524245
v 0.409040 -0.512687 -0.598662
v 0.671971 -0.512446 0.273048
v 0.334948 0.503603 -0.468444
v 0.583099 -0.517146 0.262979
v 0.340477 -0.517146 -0.541207
v 0.597435 -0.509710 0.410451
v 0.583099 -0.517146 0.262979
v 0.501465 0.503603 0.263799
v 0.558224 0.511029 0.332684
v 0.671971 -0.512446 0.273048
v 0.334948 0.503603 -0.468444
v 0.625401 0.508164 0.206590
v 0.536284 0.503603 0.198899
v 0.536284 0.503603 0.198899
v 0.625401 0.508164 0.206590
vt 0.490725 0.401317
vt 0.475150 0.582614
vt 0.475150 0.401317
vt 0.825329 0.965959
vt 0.825229 0.967114
vt 0.825329 0.967114
vt 0.826653 0.967114
vt 0.267239 0.401317
vt 0.734197 0.582893
vt 0.493668 0.398043
vt 0.734197 0.398043
vt 0.823665 0.965952
vt 0.823566 0.967117
vt 0.823665 0.967117
vt 0.751912 0.400921
vt 0.736251 0.583771
vt 0.736251 0.400921
vt 0.961520 0.400921
vt 0.751912 0.583771
vt 0.825211 0.967135
vt 0.823678 0.965957
vt 0.823678 0.967135
vt 0.825229 0.965959
vt 0.490725 0.582614
vt 0.826653 0.965959
vt 0.493668 0.582893
vt 0.825211 0.965957
vt 0.823566 0.965952
vt 0.267239 0.582614
vt 0.251678 0.401317
vt 0.826752 0.965959
vt 0.826752 0.967114
vt 0.826768 0.965960
vt 0.826768 0.967120
vt 0.828304 0.967120
vt 0.249222 0.582501
vt 0.008085 0.400333
vt 0.249222 0.400333
vt 0.822230 0.967117
vt 0.977182 0.400921
vt 0.961520 0.583771
vt 0.822230 0.965952
vt 0.822131 0.967117
vt 0.251678 0.582614
vt 0.828304 0.965960
vt 0.008085 0.582501
vt 0.977182 0.583771
vt 0.822131 0.965952
vn -0.965739 0.138579 0.219524
vn -0.353428 0.085628 -0.931928
vn -0.353428 0.085628 -0.931928
vn 0.430252 -0.127141 0.893451
vn 0.979984 -0.151210 -0.127067
vn 0.436029 -0.132917 0.889600
vn 0.128911 -0.075152 0.988764
vn -0.221531 0.077926 -0.972363
vn -0.926266 0.138579 0.351421
vn -0.965739 0.138579 0.219524
vn -0.926266 0.138579 0.351421
vn 0.889485 -0.155061 -0.430334
vn -0.128144 -0.138694 -0.981991
vn 0.886597 -0.155061 -0.436110
vn 0.220372 0.091404 0.971434
vn -0.926266 0.138579 0.351421
vn -0.926266 0.138579 0.351421
vn 0.353232 0.084665 0.931961
vn 0.220372 0.091404 0.971434
vn 0.979984 -0.151210 -0.127067
vn 0.889485 -0.155061 -0.430334
vn 0.886597 -0.155061 -0.436110
vn 0.979021 -0.152172 -0.133806
vn -0.965739 0.138579 0.219524
vn 0.131799 -0.075152 0.988764
vn -0.965739 0.138579 0.219524
vn 0.979021 -0.152172 -0.133806
vn -0.135846 -0.132917 -0.981991
vn -0.221531 0.077926 -0.972363
vn 0.934734 0.030751 -0.354276
vn -0.898346 -0.053972 0.436144
vn -0.896421 -0.056860 0.439995
vn -0.898346 -0.053972 0.436144
vn -0.896421 -0.056860 0.439995
vn -0.989808 -0.060711 0.129026
vn 0.934734 0.030751 -0.354276
vn 0.974207 0.030751 -0.221416
vn 0.934734 0.030751 -0.354276
vn -0.439113 -0.080929 -0.894380
vn 0.974207 0.030751 -0.221416
vn 0.353232 0.084665 0.931961
vn -0.436225 -0.081891 -0.896306
vn -0.989808 -0.060711 0.129026
vn 0.934734 0.030751 -0.354276
vn -0.989808 -0.057823 0.133839
vn 0.974207 0.030751 -0.221416
vn 0.974207 0.030751 -0.221416
vn -0.989808 -0.057823 0.133839
f 9/9/9 10/10/10 11/11/11
f 10/10/10 9/9/9 26/26/26
f 36/36/36 37/37/37 38/38/38
f 37/37/37 36/36/36 46/46/46
f 1/1/1 2/2/2 3/3/3
f 2/2/2 1/1/1 24/24/24
f 2/2/2 8/8/8 3/3/3
f 8/8/8 2/2/2 29/29/29
f 29/29/29 30/30/30 8/8/8
f 44/44/44 30/30/30 29/29/29
f 15/15/15 16/16/16 17/17/17
f 16/16/16 15/15/15 19/19/19
f 15/15/15 18/18/18 19/19/19
f 18/18/18 41/41/41 19/19/19
f 40/40/40 41/41/41 18/18/18
f 41/41/41 40/40/40 47/47/47
f 12/12/12 13/13/13 14/14/14
f 13/13/13 12/12/12 28/28/28
f 28/28/28 39/39/39 13/13/13
f 28/28/28 42/42/42 39/39/39
f 42/42/42 43/43/43 39/39/39
f 43/43/43 42/42/42 48/48/48
f 4/4/4 5/5/5 6/6/6
f 5/5/5 4/4/4 23/23/23
f 7/7/7 4/4/4 6/6/6
f 4/4/4 7/7/7 25/25/25
f 7/7/7 31/31/31 25/25/25
f 31/31/31 7/7/7 32/32/32
f 33/33/33 34/34/34 35/35/35
f 33/33/33 35/35/35 45/45/45
f 20/20/20 21/21/21 22/22/22
f 20/20/20 27/27/27 21/21/21
