# Generated from Roblox mesh JSON (v7.00)
# Hello from RBX_Toolbox ;)
o RightFoot
v -0.420068 -0.070619 -0.613958
v -0.580990 -0.185179 0.311119
v -0.311954 -0.185182 -0.580622
v -0.291481 -0.106832 -0.542362
v -0.605003 -0.041831 0.271782
v -0.353713 -0.041831 -0.561137
v -0.420068 -0.070619 -0.613958
v -0.684318 0.176363 0.266048
v -0.689529 -0.070508 0.279172
v -0.279177 -0.069415 -0.689557
v 0.579766 -0.185137 -0.311581
v 0.541433 -0.106832 -0.291074
v -0.272706 -0.041831 -0.604592
v -0.689529 -0.070508 0.279172
v -0.613953 -0.069152 0.420082
v -0.542771 -0.106832 0.290558
v -0.561545 -0.041831 0.352786
v 0.310736 -0.185133 0.580140
v 0.279104 -0.067416 0.689557
v 0.290143 -0.106831 0.541846
v -0.283580 0.178637 -0.676686
v -0.420068 -0.070619 -0.613958
v -0.279177 -0.069415 -0.689557
v -0.422477 0.176153 -0.601701
v -0.605003 -0.041831 0.271782
v -0.553214 0.172500 0.336536
v -0.595173 0.172500 0.258327
v -0.352552 0.172500 -0.545859
v -0.605003 -0.041831 0.271782
v -0.595173 0.172500 0.258327
v -0.353713 -0.041831 -0.561137
v -0.353713 -0.041831 -0.561137
v -0.274340 0.172500 -0.587815
v -0.272706 -0.041831 -0.604592
v -0.422477 0.176153 -0.601701
v -0.352552 0.172500 -0.545859
v -0.610080 0.179173 0.405405
v -0.689529 -0.070508 0.279172
v -0.684318 0.176363 0.266048
v -0.613953 -0.069152 0.420082
v -0.561545 -0.041831 0.352786
v 0.258061 0.182666 0.667854
v 0.250966 0.172500 0.579156
v 0.279104 -0.067416 0.689557
v 0.271369 -0.041831 0.604074
v 0.529841 0.172500 -0.345195
v 0.560208 -0.041831 -0.353304
v 0.613911 -0.067671 -0.420162
v 0.689529 -0.066374 -0.279143
v 0.603665 -0.041831 -0.272298
v 0.352375 -0.041831 0.560621
v 0.271369 -0.041831 0.604074
v 0.420103 -0.066272 0.613888
v 0.584805 0.182126 -0.415247
v 0.613911 -0.067671 -0.420162
v 0.560208 -0.041831 -0.353304
v 0.571799 0.172500 -0.266984
v 0.329178 0.172500 0.537202
v 0.603665 -0.041831 -0.272298
v 0.603665 -0.041831 -0.272298
v 0.689529 -0.066374 -0.279143
v 0.660067 0.184967 -0.275606
v 0.571799 0.172500 -0.266984
v 0.689529 -0.066374 -0.279143
v 0.398010 0.185182 0.593080
v 0.660067 0.184967 -0.275606
v 0.329178 0.172500 0.537202
v 0.352375 -0.041831 0.560621
v 0.398010 0.185182 0.593080
v 0.420103 -0.066272 0.613888
v 0.420103 -0.066272 0.613888
v 0.352375 -0.041831 0.560621
vt 0.822053 0.968323
vt 0.822186 0.969500
vt 0.822186 0.968323
vt 0.968503 0.211527
vt 0.989421 0.026710
vt 0.989421 0.211527
vt 0.825222 0.967333
vt 0.823694 0.967125
vt 0.823694 0.967333
vt 0.822186 0.968203
vt 0.823432 0.968323
vt 0.772810 0.211527
vt 0.968503 0.230332
vt 0.822053 0.969500
vt 0.822186 0.969620
vt 0.968503 0.026710
vt 0.968503 0.007906
vt 0.823432 0.969500
vt 0.823432 0.969620
vt 0.772810 0.026710
vt 0.825329 0.967114
vt 0.825229 0.967333
vt 0.825329 0.967333
vt 0.825222 0.967125
vt 0.736251 0.366151
vt 0.751912 0.400921
vt 0.736251 0.400921
vt 0.491855 0.399624
vt 0.731799 0.366971
vt 0.731799 0.399624
vt 0.491855 0.366971
vt 0.490725 0.366991
vt 0.475150 0.401317
vt 0.475150 0.366991
vt 0.825229 0.967114
vt 0.490725 0.401317
vt 0.823566 0.967117
vt 0.823665 0.967338
vt 0.823665 0.967117
vt 0.823566 0.967338
vt 0.751912 0.366151
vt 0.822230 0.967117
vt 0.961520 0.400921
vt 0.822230 0.967338
vt 0.961520 0.366151
vt 0.267239 0.401317
vt 0.772810 0.230332
vt 0.823432 0.968203
vt 0.823566 0.968323
vt 0.751892 0.211527
vt 0.751892 0.026710
vt 0.772810 0.007906
vt 0.823566 0.969500
vt 0.826653 0.967114
vt 0.826653 0.967333
vt 0.267239 0.366991
vt 0.249222 0.400333
vt 0.008085 0.400333
vt 0.249222 0.367228
vt 0.251678 0.366991
vt 0.826752 0.967333
vt 0.826752 0.967114
vt 0.251678 0.401317
vt 0.826768 0.967331
vt 0.828304 0.967120
vt 0.826768 0.967120
vt 0.977182 0.400921
vt 0.977182 0.366151
vt 0.822131 0.967117
vt 0.822131 0.967338
vt 0.828304 0.967331
vt 0.008085 0.367228
vn 0.620881 0.490211 0.611729
vn 0.262796 0.962807 -0.063685
vn 0.325873 0.723113 0.608818
vn -0.044828 -0.995505 -0.083093
vn -0.953144 -0.200729 -0.224775
vn -0.918209 -0.201700 -0.340255
vn 0.620881 0.490211 0.611729
vn 0.990612 -0.035758 0.132340
vn 0.982849 0.179676 0.049854
vn 0.168665 0.469832 0.866950
vn -0.609614 0.722142 0.328366
vn 0.083267 -0.995505 -0.044277
vn 0.225920 -0.166765 -0.959385
vn 0.982849 0.179676 0.049854
vn 0.483081 0.173854 -0.858461
vn -0.083645 -0.995505 0.045002
vn -0.342748 -0.161913 0.925175
vn -0.065207 0.961837 -0.265533
vn -0.027361 0.103013 -0.994320
vn 0.044451 -0.995505 0.083819
vn -0.129255 -0.051284 0.990194
vn 0.620881 0.490211 0.611729
vn 0.168665 0.469832 0.866950
vn 0.898422 -0.031876 0.438023
vn -0.953144 -0.200729 -0.224775
vn -0.353423 0.084575 0.931968
vn -0.974493 0.031202 -0.221864
vn -0.934706 0.030231 -0.354812
vn -0.953144 -0.200729 -0.224775
vn -0.974493 0.031202 -0.221864
vn -0.918209 -0.201700 -0.340255
vn -0.918209 -0.201700 -0.340255
vn 0.221067 0.077782 -0.972000
vn 0.225920 -0.166765 -0.959385
vn 0.898422 -0.031876 0.438023
vn -0.934706 0.030231 -0.354812
vn 0.440383 -0.057107 -0.896307
vn 0.982849 0.179676 0.049854
vn 0.990612 -0.035758 0.132340
vn 0.483081 0.173854 -0.858461
vn -0.342748 -0.161913 0.925175
vn 0.133729 -0.106598 -0.985586
vn -0.220475 0.092338 0.970785
vn -0.027361 0.103013 -0.994320
vn -0.226297 -0.156090 0.961081
vn 0.353045 0.085545 -0.931243
vn 0.342370 -0.160942 -0.925420
vn -0.570797 0.106894 0.813577
vn -0.995842 0.089427 0.014919
vn 0.966352 -0.121155 0.227442
vn 0.930446 -0.120184 0.344863
vn -0.226297 -0.156090 0.961081
vn -0.821166 0.088456 -0.563453
vn -0.433968 -0.101746 0.895092
vn -0.570797 0.106894 0.813577
vn 0.342370 -0.160942 -0.925420
vn 0.965381 0.137948 0.219678
vn 0.925594 0.138918 0.350685
vn 0.966352 -0.121155 0.227442
vn 0.966352 -0.121155 0.227442
vn -0.995842 0.089427 0.014919
vn -0.984197 -0.124066 -0.129674
vn 0.965381 0.137948 0.219678
vn -0.995842 0.089427 0.014919
vn -0.891037 -0.126977 -0.435357
vn -0.984197 -0.124066 -0.129674
vn 0.925594 0.138918 0.350685
vn 0.930446 -0.120184 0.344863
vn -0.891037 -0.126977 -0.435357
vn -0.821166 0.088456 -0.563453
vn -0.821166 0.088456 -0.563453
vn 0.930446 -0.120184 0.344863
f 28/28/28 29/29/29 30/30/30
f 31/31/31 29/29/29 28/28/28
f 57/57/57 58/58/58 59/59/59
f 59/59/59 58/58/58 72/72/72
f 25/25/25 26/26/26 27/27/27
f 26/26/26 25/25/25 41/41/41
f 41/41/41 43/43/43 26/26/26
f 41/41/41 45/45/45 43/43/43
f 45/45/45 67/67/67 43/43/43
f 67/67/67 45/45/45 68/68/68
f 32/32/32 33/33/33 34/34/34
f 33/33/33 32/32/32 36/36/36
f 46/46/46 34/34/34 33/33/33
f 34/34/34 46/46/46 56/56/56
f 46/46/46 60/60/60 56/56/56
f 60/60/60 46/46/46 63/63/63
f 4/4/4 5/5/5 6/6/6
f 13/13/13 4/4/4 6/6/6
f 5/5/5 4/4/4 16/16/16
f 5/5/5 16/16/16 17/17/17
f 12/12/12 4/4/4 13/13/13
f 13/13/13 47/47/47 12/12/12
f 47/47/47 50/50/50 12/12/12
f 50/50/50 51/51/51 12/12/12
f 20/20/20 17/17/17 16/16/16
f 20/20/20 16/16/16 4/4/4
f 12/12/12 20/20/20 4/4/4
f 20/20/20 12/12/12 51/51/51
f 17/17/17 20/20/20 52/52/52
f 20/20/20 51/51/51 52/52/52
f 1/1/1 2/2/2 3/3/3
f 10/10/10 1/1/1 3/3/3
f 2/2/2 1/1/1 14/14/14
f 14/14/14 15/15/15 2/2/2
f 11/11/11 10/10/10 3/3/3
f 2/2/2 11/11/11 3/3/3
f 10/10/10 11/11/11 48/48/48
f 48/48/48 11/11/11 49/49/49
f 11/11/11 2/2/2 18/18/18
f 15/15/15 18/18/18 2/2/2
f 18/18/18 49/49/49 11/11/11
f 18/18/18 15/15/15 19/19/19
f 49/49/49 18/18/18 53/53/53
f 18/18/18 19/19/19 53/53/53
f 21/21/21 22/22/22 23/23/23
f 22/22/22 21/21/21 35/35/35
f 23/23/23 54/54/54 21/21/21
f 54/54/54 23/23/23 55/55/55
f 61/61/61 54/54/54 55/55/55
f 54/54/54 61/61/61 62/62/62
f 37/37/37 38/38/38 39/39/39
f 38/38/38 37/37/37 40/40/40
f 42/42/42 40/40/40 37/37/37
f 40/40/40 42/42/42 44/44/44
f 69/69/69 44/44/44 42/42/42
f 44/44/44 69/69/69 70/70/70
f 64/64/64 65/65/65 66/66/66
f 65/65/65 64/64/64 71/71/71
f 7/7/7 8/8/8 9/9/9
f 8/8/8 7/7/7 24/24/24
