# Generated from Roblox mesh JSON (v7.00)
# Hello from RBX_Toolbox ;)
o RightHand
v -0.423640 -0.184755 -0.580242
v -0.531337 -0.219849 -0.467003
v -0.386689 -0.297698 -0.465870
v -0.423640 -0.184755 -0.580242
v -0.573072 -0.050524 -0.451786
v -0.531337 -0.219849 -0.467003
v -0.490962 -0.036089 0.417349
v -0.462930 -0.171659 -0.435068
v -0.462930 -0.171659 0.434933
v -0.386689 -0.297693 0.465749
v -0.381220 -0.213775 -0.435068
v -0.381220 -0.213775 0.434933
v -0.462930 -0.171659 -0.435068
v -0.401015 -0.151863 -0.500068
v 0.500658 -0.013958 -0.465865
v -0.462930 -0.171659 0.434933
v -0.531397 -0.219670 0.467008
v -0.531337 -0.219849 -0.467003
v -0.573218 -0.050208 0.449823
v -0.531397 -0.219670 0.467008
v -0.573218 -0.050208 0.449823
v -0.423763 -0.184332 0.580244
v -0.531397 -0.219670 0.467008
v -0.423763 -0.184332 0.580244
v 0.500656 -0.013953 0.465745
v -0.401015 -0.151863 0.499932
v 0.447450 0.051174 0.434933
v -0.490962 -0.036089 -0.419081
v -0.401015 -0.151863 -0.500068
v -0.462930 -0.171659 -0.435068
v -0.573072 -0.050524 -0.451786
v -0.467062 -0.015188 -0.563715
v -0.431437 -0.017057 -0.481574
v 0.427654 0.113086 -0.500068
v 0.391258 0.261373 -0.563925
v 0.365257 0.237668 -0.481574
v -0.490962 -0.036089 -0.419081
v -0.490962 -0.036089 0.417349
v -0.462930 -0.171659 0.434933
v -0.401015 -0.151863 0.499932
v -0.467370 -0.014336 0.561822
v -0.431437 -0.017057 0.479839
v 0.391006 0.262244 0.562013
v 0.427654 0.113086 0.499932
v 0.365257 0.237668 0.479839
v 0.427654 0.113086 0.499932
v 0.447450 0.051174 -0.435068
v 0.465601 0.100696 -0.580244
v 0.427654 0.113086 -0.500068
v 0.465601 0.100696 -0.580244
v 0.573218 0.136000 -0.466924
v 0.465454 0.101100 0.580239
v 0.465454 0.101100 0.580239
v 0.489569 0.132882 0.434933
v 0.573161 0.136168 0.466923
v 0.489569 0.132882 -0.435068
v 0.424782 0.256700 -0.419081
v 0.489569 0.132882 -0.435068
v 0.424782 0.256700 -0.419081
v 0.424782 0.256700 0.417348
v 0.489569 0.132882 -0.435068
v 0.497477 0.297362 -0.451968
v 0.573218 0.136000 -0.466924
v 0.573218 0.136000 -0.466924
v 0.497396 0.297698 0.449997
v 0.497477 0.297362 -0.451968
v 0.489569 0.132882 0.434933
v 0.424782 0.256700 0.417348
v 0.489569 0.132882 0.434933
v 0.497396 0.297698 0.449997
v 0.573161 0.136168 0.466923
v 0.573161 0.136168 0.466923
vt 0.822186 0.968208
vt 0.822052 0.968333
vt 0.822186 0.968333
vt 0.825329 0.967333
vt 0.825229 0.967114
vt 0.825229 0.967333
vt 0.731799 0.399624
vt 0.491855 0.367185
vt 0.731799 0.367185
vt 0.822186 0.969495
vt 0.968514 0.210011
vt 0.968514 0.027525
vt 0.989525 0.210011
vt 0.968514 0.229544
vt 0.823436 0.968333
vt 0.989525 0.027525
vt 0.822052 0.969495
vt 0.825222 0.967331
vt 0.823694 0.967125
vt 0.823694 0.967331
vt 0.823670 0.967148
vt 0.823570 0.967341
vt 0.823670 0.967341
vt 0.822186 0.969620
vt 0.823436 0.969495
vt 0.968514 0.007993
vt 0.772216 0.027525
vt 0.490725 0.401317
vt 0.475150 0.366991
vt 0.490725 0.366991
vt 0.825222 0.967125
vt 0.825329 0.967114
vt 0.475150 0.401317
vt 0.772216 0.229544
vt 0.826653 0.967114
vt 0.267239 0.401317
vt 0.491855 0.399624
vt 0.735584 0.395945
vt 0.735584 0.365726
vt 0.751273 0.365726
vt 0.823570 0.967148
vt 0.751273 0.395945
vt 0.822232 0.967148
vt 0.772216 0.007993
vt 0.961264 0.395945
vt 0.961264 0.365726
vt 0.772216 0.210011
vt 0.826653 0.967333
vt 0.267239 0.366991
vt 0.823436 0.968208
vt 0.823570 0.968333
vt 0.823436 0.969620
vt 0.822232 0.967341
vt 0.751205 0.027525
vt 0.823570 0.969495
vt 0.751205 0.210011
vt 0.251678 0.401317
vt 0.251678 0.366991
vt 0.249222 0.400333
vt 0.008085 0.400333
vt 0.249222 0.367228
vt 0.826752 0.967114
vt 0.826752 0.967333
vt 0.826768 0.967331
vt 0.828304 0.967120
vt 0.826768 0.967120
vt 0.008085 0.367228
vt 0.976954 0.395945
vt 0.976954 0.365726
vt 0.822132 0.967148
vt 0.822132 0.967341
vt 0.828304 0.967331
vn 0.223994 0.539811 0.810779
vn 0.629068 0.681587 0.373877
vn 0.249070 0.835901 0.488648
vn 0.223994 0.539811 0.810779
vn 0.967594 0.196463 0.158802
vn 0.629068 0.681587 0.373877
vn -0.978691 -0.193180 0.069107
vn -0.854275 -0.517239 -0.057238
vn -0.854275 -0.516275 0.057533
vn -0.161791 0.956459 -0.241450
vn 0.239425 -0.968608 -0.066882
vn 0.239425 -0.968608 0.067178
vn -0.854275 -0.517239 -0.057238
vn 0.010848 -0.223078 -0.974442
vn -0.684530 0.536918 0.493470
vn -0.854275 -0.516275 0.057533
vn 0.866326 0.407680 -0.287744
vn 0.629068 0.681587 0.373877
vn 0.968559 0.191640 -0.157542
vn 0.866326 0.407680 -0.287744
vn 0.968559 0.191640 -0.157542
vn 0.221100 0.199356 -0.954188
vn 0.866326 0.407680 -0.287744
vn 0.221100 0.199356 -0.954188
vn -0.427983 0.871587 -0.239521
vn 0.008919 -0.216327 0.976666
vn 0.366734 -0.928101 0.067178
vn -0.978691 -0.194145 -0.068811
vn 0.010848 -0.223078 -0.974442
vn -0.854275 -0.517239 -0.057238
vn 0.967594 0.196463 0.158802
vn 0.188309 -0.063942 0.979559
vn -0.107781 0.111590 -0.987944
vn 0.119832 -0.185464 -0.975406
vn -0.103924 -0.187393 0.976666
vn 0.021457 0.157884 -0.986980
vn -0.978691 -0.194145 -0.068811
vn -0.978691 -0.193180 0.069107
vn -0.854275 -0.516275 0.057533
vn 0.008919 -0.216327 0.976666
vn 0.191202 -0.072622 -0.978300
vn -0.110675 0.122199 0.986311
vn -0.101030 -0.197038 -0.975406
vn 0.116938 -0.177749 0.976666
vn 0.018563 0.168493 0.985346
vn 0.116938 -0.177749 0.976666
vn 0.366734 -0.928101 -0.066882
vn -0.366257 -0.025364 0.930372
vn 0.119832 -0.185464 -0.975406
vn -0.366257 -0.025364 0.930372
vn -0.912143 -0.208611 0.351694
vn -0.306461 0.010322 -0.952259
vn -0.306461 0.010322 -0.952259
vn 0.990741 0.119306 0.057533
vn -0.912143 -0.210540 -0.351399
vn 0.991706 0.118341 -0.058202
vn 0.880793 0.469406 -0.067847
vn 0.991706 0.118341 -0.058202
vn 0.880793 0.469406 -0.067847
vn 0.879828 0.470370 0.068142
vn 0.991706 0.118341 -0.058202
vn -0.878387 -0.451656 0.158802
vn -0.912143 -0.208611 0.351694
vn -0.912143 -0.208611 0.351694
vn -0.876458 -0.455514 -0.157542
vn -0.878387 -0.451656 0.158802
vn 0.990741 0.119306 0.057533
vn 0.879828 0.470370 0.068142
vn 0.990741 0.119306 0.057533
vn -0.876458 -0.455514 -0.157542
vn -0.912143 -0.210540 -0.351399
vn -0.912143 -0.210540 -0.351399
f 7/7/7 8/8/8 9/9/9
f 8/8/8 7/7/7 37/37/37
f 59/59/59 60/60/60 61/61/61
f 61/61/61 60/60/60 67/67/67
f 38/38/38 39/39/39 40/40/40
f 40/40/40 42/42/42 38/38/38
f 40/40/40 45/45/45 42/42/42
f 45/45/45 40/40/40 46/46/46
f 46/46/46 68/68/68 45/45/45
f 68/68/68 46/46/46 69/69/69
f 28/28/28 29/29/29 30/30/30
f 29/29/29 28/28/28 33/33/33
f 36/36/36 29/29/29 33/33/33
f 29/29/29 36/36/36 49/49/49
f 49/49/49 36/36/36 57/57/57
f 57/57/57 58/58/58 49/49/49
f 11/11/11 12/12/12 13/13/13
f 13/13/13 12/12/12 16/16/16
f 16/16/16 12/12/12 26/26/26
f 14/14/14 11/11/11 13/13/13
f 44/44/44 26/26/26 12/12/12
f 34/34/34 11/11/11 14/14/14
f 12/12/12 27/27/27 44/44/44
f 11/11/11 27/27/27 12/12/12
f 27/27/27 54/54/54 44/44/44
f 11/11/11 34/34/34 47/47/47
f 11/11/11 47/47/47 27/27/27
f 47/47/47 54/54/54 27/27/27
f 34/34/34 56/56/56 47/47/47
f 56/56/56 54/54/54 47/47/47
f 1/1/1 2/2/2 3/3/3
f 2/2/2 10/10/10 3/3/3
f 10/10/10 2/2/2 17/17/17
f 17/17/17 24/24/24 10/10/10
f 24/24/24 25/25/25 10/10/10
f 25/25/25 3/3/3 10/10/10
f 25/25/25 24/24/24 52/52/52
f 25/25/25 52/52/52 55/55/55
f 51/51/51 25/25/25 55/55/55
f 3/3/3 25/25/25 15/15/15
f 25/25/25 51/51/51 15/15/15
f 15/15/15 1/1/1 3/3/3
f 50/50/50 15/15/15 51/51/51
f 50/50/50 1/1/1 15/15/15
f 4/4/4 5/5/5 6/6/6
f 5/5/5 4/4/4 32/32/32
f 4/4/4 35/35/35 32/32/32
f 35/35/35 4/4/4 48/48/48
f 62/62/62 35/35/35 48/48/48
f 63/63/63 62/62/62 48/48/48
f 21/21/21 22/22/22 23/23/23
f 22/22/22 21/21/21 41/41/41
f 43/43/43 22/22/22 41/41/41
f 22/22/22 43/43/43 53/53/53
f 70/70/70 53/53/53 43/43/43
f 53/53/53 70/70/70 71/71/71
f 64/64/64 65/65/65 66/66/66
f 65/65/65 64/64/64 72/72/72
f 18/18/18 19/19/19 20/20/20
f 19/19/19 18/18/18 31/31/31
