# Generated from Roblox mesh JSON (v7.00)
# Hello from RBX_Toolbox ;)
o RightLowerArm
v -0.628633 0.318949 0.332909
v -0.439878 -0.588240 -0.453319
v -0.628493 0.318623 -0.343726
v -0.358486 -0.575551 -0.418159
v -0.546108 0.331825 0.300574
v -0.546108 0.331825 -0.311163
v -0.336037 -0.553710 -0.562134
v -0.628493 0.318623 -0.343726
v -0.439878 -0.588240 -0.453319
v -0.546108 0.331825 -0.311163
v -0.298961 -0.556519 -0.480652
v -0.358486 -0.575551 -0.418159
v -0.358486 -0.575551 0.418270
v -0.439876 -0.587804 0.453588
v -0.628633 0.318949 0.332909
v -0.336194 -0.552794 0.562134
v -0.439876 -0.587804 0.453588
v -0.546108 0.331825 0.300574
v -0.358486 -0.575551 0.418270
v -0.298961 -0.556519 0.480761
v -0.538423 0.348902 -0.438883
v -0.502573 0.345744 -0.356868
v 0.105531 0.556977 -0.439046
v 0.080102 0.532041 -0.356868
v -0.502573 0.345744 0.346277
v -0.538727 0.349782 0.428121
v 0.105260 0.557867 0.428265
v 0.080102 0.532042 0.346277
v 0.497733 -0.301794 0.480761
v 0.497733 -0.301794 -0.480652
v 0.526420 -0.275451 -0.561305
v 0.628633 -0.240972 -0.452525
v 0.195717 0.587899 -0.343833
v 0.123637 0.545961 -0.311163
v 0.557258 -0.282762 -0.418159
v 0.526009 -0.274639 0.561290
v 0.123637 0.545961 0.300574
v 0.557258 -0.282762 0.418270
v 0.557258 -0.282762 -0.418159
v 0.123637 0.545961 0.300574
v 0.557258 -0.282762 0.418270
v 0.195626 0.588240 0.333006
v 0.628371 -0.240645 0.452778
v 0.628633 -0.240972 -0.452525
v 0.195626 0.588240 0.333006
v 0.195717 0.587899 -0.343833
v 0.123637 0.545961 -0.311163
v 0.628371 -0.240645 0.452778
vt 0.823694 0.965952
vt 0.825222 0.967125
vt 0.825222 0.965952
vt 0.491855 0.399624
vt 0.731799 0.583777
vt 0.491855 0.583777
vt 0.825329 0.967114
vt 0.825229 0.965959
vt 0.825229 0.967114
vt 0.490725 0.582614
vt 0.475150 0.401317
vt 0.490725 0.401317
vt 0.731799 0.399624
vt 0.823694 0.967125
vt 0.823670 0.965952
vt 0.823570 0.967148
vt 0.823670 0.967148
vt 0.735584 0.583771
vt 0.735584 0.395945
vt 0.751273 0.395945
vt 0.825329 0.965959
vt 0.475150 0.582614
vt 0.826653 0.965959
vt 0.267239 0.582614
vt 0.751273 0.583771
vt 0.823570 0.965952
vt 0.822232 0.965952
vt 0.961264 0.583771
vt 0.961264 0.395945
vt 0.267239 0.401317
vt 0.826653 0.967114
vt 0.826752 0.967114
vt 0.826752 0.965959
vt 0.251678 0.582614
vt 0.251678 0.401317
vt 0.822232 0.967148
vt 0.976954 0.583771
vt 0.976954 0.395945
vt 0.249222 0.400333
vt 0.008085 0.582501
vt 0.008085 0.400333
vt 0.822132 0.965952
vt 0.822132 0.967148
vt 0.826768 0.967120
vt 0.828304 0.965960
vt 0.826768 0.965960
vt 0.249222 0.582501
vt 0.828304 0.967120
vn 0.976275 0.151955 -0.151755
vn 0.975310 0.151955 0.160731
vn 0.975310 0.156777 0.153015
vn -0.978691 -0.194287 -0.068811
vn -0.978691 -0.193322 0.069107
vn -0.978691 -0.194287 -0.068811
vn 0.202776 -0.104592 0.973773
vn 0.975310 0.156777 0.153015
vn 0.975310 0.151955 0.160731
vn -0.978691 -0.194287 -0.068811
vn -0.107781 0.111448 -0.987944
vn -0.978691 -0.194287 -0.068811
vn -0.978691 -0.193322 0.069107
vn 0.976275 0.146168 -0.160435
vn 0.976275 0.151955 -0.151755
vn 0.205669 -0.113272 -0.972513
vn 0.976275 0.146168 -0.160435
vn -0.978691 -0.193322 0.069107
vn -0.978691 -0.193322 0.069107
vn -0.110675 0.122057 0.986311
vn 0.195060 -0.105556 0.974737
vn -0.107781 0.111448 -0.987944
vn -0.084634 -0.226114 0.970879
vn 0.021457 0.157742 -0.986980
vn -0.110675 0.122057 0.986311
vn 0.197953 -0.115201 -0.973477
vn -0.080776 -0.234794 -0.968655
vn 0.018563 0.168351 0.985346
vn 0.018563 0.168351 0.985346
vn 0.021457 0.157742 -0.986980
vn -0.091385 -0.235759 0.967021
vn -0.855240 -0.493270 0.159766
vn -0.858133 -0.491341 0.150122
vn 0.880793 0.469263 -0.067847
vn 0.880793 0.469263 -0.067847
vn -0.087528 -0.245403 -0.965761
vn 0.879828 0.470228 0.068142
vn 0.879828 0.470228 0.068142
vn 0.880793 0.469263 -0.067847
vn 0.879828 0.470228 0.068142
vn 0.879828 0.470228 0.068142
vn -0.855240 -0.496164 -0.148862
vn -0.852346 -0.498093 -0.158506
vn -0.855240 -0.493270 0.159766
vn -0.855240 -0.496164 -0.148862
vn -0.858133 -0.491341 0.150122
vn 0.880793 0.469263 -0.067847
vn -0.852346 -0.498093 -0.158506
f 39/39/39 40/40/40 41/41/41
f 39/39/39 47/47/47 40/40/40
f 18/18/18 19/19/19 20/20/20
f 20/20/20 25/25/25 18/18/18
f 20/20/20 28/28/28 25/25/25
f 28/28/28 20/20/20 29/29/29
f 29/29/29 37/37/37 28/28/28
f 37/37/37 29/29/29 38/38/38
f 4/4/4 5/5/5 6/6/6
f 5/5/5 4/4/4 13/13/13
f 10/10/10 11/11/11 12/12/12
f 11/11/11 10/10/10 22/22/22
f 24/24/24 11/11/11 22/22/22
f 11/11/11 24/24/24 30/30/30
f 30/30/30 24/24/24 34/34/34
f 30/30/30 34/34/34 35/35/35
f 7/7/7 8/8/8 9/9/9
f 8/8/8 7/7/7 21/21/21
f 7/7/7 23/23/23 21/21/21
f 23/23/23 7/7/7 31/31/31
f 23/23/23 31/31/31 33/33/33
f 32/32/32 33/33/33 31/31/31
f 15/15/15 16/16/16 17/17/17
f 16/16/16 15/15/15 26/26/26
f 27/27/27 16/16/16 26/26/26
f 16/16/16 27/27/27 36/36/36
f 42/42/42 36/36/36 27/27/27
f 36/36/36 42/42/42 43/43/43
f 1/1/1 2/2/2 3/3/3
f 2/2/2 1/1/1 14/14/14
f 44/44/44 45/45/45 46/46/46
f 45/45/45 44/44/44 48/48/48
