# Generated from Roblox mesh JSON (v7.00)
# Hello from RBX_Toolbox ;)
o UpperTorso
v -0.551417 0.538584 -0.429161
v -0.711781 -0.606081 -0.393996
v -0.626429 -0.606156 -0.498775
v -0.711781 -0.606081 -0.393996
v -0.632185 0.535914 -0.335006
v -0.632175 0.535977 0.329478
v -0.632185 0.535914 -0.335006
v -0.627577 -0.613245 -0.364337
v -0.518430 0.499921 -0.355415
v -0.586782 -0.613245 -0.418780
v -0.554218 0.499921 -0.309566
v 0.511126 0.499921 -0.355415
v 0.544002 0.538694 -0.429152
v -0.627577 -0.613245 -0.364337
v -0.554218 0.499921 0.304097
v -0.554218 0.499921 -0.309566
v -0.711743 -0.605934 0.394076
v -0.711743 -0.605934 0.394076
v -0.551410 0.538773 0.423593
v -0.626372 -0.605768 0.498775
v -0.632175 0.535977 0.329478
v -0.627577 -0.613245 0.364346
v -0.586782 -0.613245 0.418787
v -0.518430 0.499921 0.349944
v -0.627577 -0.613245 0.364346
v -0.554218 0.499921 0.304097
v 0.511126 0.499921 0.349944
v 0.543996 0.538883 0.423584
v -0.518430 0.532555 0.304097
v -0.554218 0.499921 -0.309566
v -0.554218 0.499921 0.304097
v -0.548045 0.613239 -0.334756
v -0.632175 0.535977 0.329478
v -0.632185 0.535914 -0.335006
v -0.551417 0.538584 -0.429161
v -0.518430 0.499921 -0.355415
v -0.518430 0.532555 -0.309566
v 0.511126 0.532555 -0.309566
v 0.544002 0.538694 -0.429152
v 0.511126 0.532555 0.304097
v -0.518430 0.499921 0.349944
v -0.548046 0.613241 0.329278
v -0.551410 0.538773 0.423593
v 0.543996 0.538883 0.423584
v 0.511126 0.499921 0.349944
v 0.540731 0.613244 0.329279
v 0.511126 0.499921 -0.355415
v 0.586813 -0.613245 -0.418780
v 0.626571 -0.605893 -0.498696
v 0.546914 0.499921 -0.309566
v 0.627608 -0.613245 -0.364337
v 0.546914 0.499921 0.304097
v 0.627608 -0.613245 -0.364337
v 0.546914 0.499921 -0.309566
v 0.711781 -0.605532 -0.393946
v 0.711781 -0.605532 -0.393946
v 0.624749 0.536248 0.329464
v 0.624759 0.536186 -0.334993
v 0.627608 -0.613245 0.364346
v 0.586813 -0.613245 0.418787
v 0.626513 -0.605505 0.498695
v 0.627608 -0.613245 0.364346
v 0.546914 0.499921 0.304097
v 0.711743 -0.605386 0.394026
v 0.711743 -0.605386 0.394026
v 0.624759 0.536186 -0.334993
v 0.540730 0.613242 -0.334757
v 0.546914 0.499921 -0.309566
v 0.546914 0.499921 0.304097
v 0.624759 0.536186 -0.334993
v 0.624749 0.536248 0.329464
v 0.624749 0.536248 0.329464
vt 0.826343 0.965051
vt 0.826235 0.967727
vt 0.826343 0.967727
vt 0.826215 0.967733
vt 0.826215 0.965043
vt 0.825176 0.965043
vt 0.826235 0.965051
vt 0.332882 0.305116
vt 0.315851 0.725107
vt 0.315851 0.305116
vt 0.332882 0.725107
vt 0.023441 0.725107
vt 0.828206 0.965051
vt 0.336058 0.304087
vt 0.499131 0.726430
vt 0.336058 0.726430
vt 0.825176 0.967733
vt 0.825158 0.967739
vt 0.825049 0.965044
vt 0.825049 0.967739
vt 0.825158 0.965044
vt 0.499131 0.304087
vt 0.518995 0.303267
vt 0.518995 0.726176
vt 0.501945 0.303267
vt 0.501945 0.726176
vt 0.811761 0.726176
vt 0.823184 0.965044
vt 0.319397 0.943976
vt 0.332839 0.746171
vt 0.332839 0.943976
vt 0.826321 0.964917
vt 0.826235 0.963657
vt 0.826235 0.964917
vt 0.826321 0.965026
vt 0.319397 0.729098
vt 0.319397 0.746171
vt 0.020325 0.746171
vt 0.828226 0.965026
vt 0.020325 0.943976
vt 0.319397 0.961048
vt 0.826321 0.963657
vt 0.826321 0.963548
vt 0.828226 0.963548
vt 0.020325 0.961048
vt 0.828226 0.963657
vt 0.020325 0.729098
vt 0.023441 0.305116
vt 0.828206 0.967727
vt 0.006410 0.725107
vt 0.006410 0.305116
vt 0.830881 0.727241
vt 0.994511 0.305282
vt 0.994511 0.727241
vt 0.828315 0.967727
vt 0.822020 0.967726
vt 0.823062 0.965038
vt 0.822020 0.965038
vt 0.830881 0.305282
vt 0.811761 0.303267
vt 0.823184 0.967739
vt 0.828811 0.303267
vt 0.828811 0.726176
vt 0.823062 0.967726
vt 0.823076 0.967739
vt 0.828315 0.965051
vt 0.828226 0.964917
vt 0.006883 0.746171
vt 0.006883 0.943976
vt 0.828312 0.964917
vt 0.828312 0.963657
vt 0.823076 0.965044
vn 0.506964 -0.594459 0.623838
vn 0.986282 -0.086889 0.141598
vn 0.157218 -0.086889 0.983327
vn 0.986282 -0.086889 0.141598
vn 0.712525 -0.527238 0.463091
vn 0.948288 -0.312909 -0.060067
vn 0.712525 -0.527238 0.463091
vn -0.996262 0.068013 -0.053247
vn -0.043472 0.094317 -0.994347
vn -0.043472 0.059245 -0.997269
vn -0.994314 0.094317 -0.052273
vn 0.043234 0.094317 -0.994347
vn -0.528635 -0.574975 0.624812
vn -0.996262 0.068013 -0.053247
vn -0.994314 0.094317 0.051969
vn -0.994314 0.094317 -0.052273
vn 0.986282 -0.088837 -0.141901
vn 0.986282 -0.088837 -0.141901
vn 0.518655 -0.585691 -0.623168
vn 0.157218 -0.090786 -0.983630
vn 0.948288 -0.312909 -0.060067
vn -0.996262 0.068987 0.052943
vn -0.043472 0.064116 0.996966
vn -0.043472 0.099188 0.994043
vn -0.996262 0.068987 0.052943
vn -0.994314 0.094317 0.051969
vn 0.043234 0.099188 0.994043
vn -0.259749 -0.166775 -0.951481
vn -0.029833 0.998396 0.049046
vn -0.994314 0.094317 -0.052273
vn -0.994314 0.094317 0.051969
vn 0.452408 -0.759103 0.468937
vn 0.948288 -0.312909 -0.060067
vn 0.712525 -0.527238 0.463091
vn 0.506964 -0.594459 0.623838
vn -0.043472 0.094317 -0.994347
vn -0.029833 0.998396 -0.048376
vn 0.029595 0.998396 -0.048376
vn -0.528635 -0.574975 0.624812
vn 0.029595 0.998396 0.049046
vn -0.043472 0.099188 0.994043
vn 0.450459 -0.759103 -0.469240
vn 0.518655 -0.585691 -0.623168
vn -0.259749 -0.166775 -0.951481
vn 0.043234 0.099188 0.994043
vn -0.451671 -0.759103 -0.469240
vn 0.043234 0.094317 -0.994347
vn 0.044208 0.059245 -0.997269
vn -0.157456 -0.090786 0.983327
vn 0.994076 0.100162 -0.052273
vn 0.996024 0.074832 -0.053247
vn 0.993102 0.100162 0.051969
vn 0.996024 0.074832 -0.053247
vn 0.994076 0.100162 -0.052273
vn -0.985546 -0.092734 0.141598
vn -0.985546 -0.092734 0.141598
vn -0.966061 -0.207693 -0.152618
vn -0.712763 -0.522367 0.467963
vn 0.996024 0.074832 0.052943
vn 0.044208 0.064116 0.996966
vn -0.157456 -0.094683 -0.982656
vn 0.996024 0.074832 0.052943
vn 0.993102 0.100162 0.051969
vn -0.985546 -0.094683 -0.141901
vn -0.985546 -0.094683 -0.141901
vn -0.712763 -0.522367 0.467963
vn -0.458491 -0.758129 0.463091
vn 0.994076 0.100162 -0.052273
vn 0.993102 0.100162 0.051969
vn -0.712763 -0.522367 0.467963
vn -0.966061 -0.207693 -0.152618
vn -0.966061 -0.207693 -0.152618
f 52/52/52 53/53/53 54/54/54
f 53/53/53 52/52/52 59/59/59
f 14/14/14 15/15/15 16/16/16
f 15/15/15 14/14/14 22/22/22
f 23/23/23 24/24/24 25/25/25
f 25/25/25 24/24/24 26/26/26
f 23/23/23 27/27/27 24/24/24
f 27/27/27 23/23/23 60/60/60
f 62/62/62 27/27/27 60/60/60
f 27/27/27 62/62/62 63/63/63
f 8/8/8 9/9/9 10/10/10
f 9/9/9 8/8/8 11/11/11
f 12/12/12 10/10/10 9/9/9
f 10/10/10 12/12/12 48/48/48
f 12/12/12 51/51/51 48/48/48
f 50/50/50 51/51/51 12/12/12
f 29/29/29 30/30/30 31/31/31
f 31/31/31 41/41/41 29/29/29
f 45/45/45 29/29/29 41/41/41
f 30/30/30 29/29/29 37/37/37
f 36/36/36 30/30/30 37/37/37
f 29/29/29 45/45/45 40/40/40
f 40/40/40 37/37/37 29/29/29
f 40/40/40 45/45/45 69/69/69
f 38/38/38 36/36/36 37/37/37
f 37/37/37 40/40/40 38/38/38
f 69/69/69 38/38/38 40/40/40
f 36/36/36 38/38/38 47/47/47
f 38/38/38 69/69/69 68/68/68
f 47/47/47 38/38/38 68/68/68
f 32/32/32 33/33/33 34/34/34
f 35/35/35 32/32/32 34/34/34
f 39/39/39 32/32/32 35/35/35
f 33/33/33 32/32/32 42/42/42
f 33/33/33 42/42/42 43/43/43
f 42/42/42 44/44/44 43/43/43
f 42/42/42 46/46/46 44/44/44
f 32/32/32 46/46/46 42/42/42
f 46/46/46 71/71/71 44/44/44
f 32/32/32 39/39/39 67/67/67
f 32/32/32 67/67/67 46/46/46
f 67/67/67 71/71/71 46/46/46
f 39/39/39 70/70/70 67/67/67
f 70/70/70 71/71/71 67/67/67
f 1/1/1 2/2/2 3/3/3
f 2/2/2 1/1/1 7/7/7
f 3/3/3 13/13/13 1/1/1
f 13/13/13 3/3/3 49/49/49
f 13/13/13 49/49/49 55/55/55
f 13/13/13 55/55/55 66/66/66
f 18/18/18 19/19/19 20/20/20
f 18/18/18 21/21/21 19/19/19
f 28/28/28 20/20/20 19/19/19
f 20/20/20 28/28/28 61/61/61
f 28/28/28 65/65/65 61/61/61
f 65/65/65 28/28/28 72/72/72
f 4/4/4 5/5/5 6/6/6
f 4/4/4 6/6/6 17/17/17
f 56/56/56 57/57/57 58/58/58
f 57/57/57 56/56/56 64/64/64
