# Generated from Roblox mesh JSON (v2.00)
# Hello from RBX_Toolbox ;)
o LeftLowerLeg
v -0.061456 -0.281768 0.075917
v -0.075757 -0.400878 0.067940
v -0.024391 -0.400878 0.098609
v -0.018961 -0.281848 0.119702
v 0.046183 -0.400878 0.093004
v 0.043261 -0.281898 0.115510
v 0.046183 -0.400878 0.093004
v 0.083656 -0.281849 0.071800
v 0.043261 -0.281898 0.115510
v 0.089966 -0.400878 0.058440
v -0.028722 -0.281726 -0.092850
v -0.046015 -0.400878 -0.060211
v -0.078821 -0.281726 -0.052224
v -0.102954 -0.400878 -0.031446
v 0.017161 -0.400878 -0.060067
v 0.026000 -0.281726 -0.089680
v 0.074338 -0.400878 -0.035977
v 0.072997 -0.281727 -0.054324
v -0.019398 -0.171741 -0.110533
v -0.061393 -0.058115 -0.075716
v -0.022239 -0.058150 -0.129064
v -0.066052 -0.171708 -0.068898
v 0.027366 -0.057102 -0.124262
v 0.027474 -0.171749 -0.105390
v 0.065537 -0.056673 -0.079499
v 0.066412 -0.171615 -0.065951
v -0.022239 -0.058150 -0.129064
v -0.073147 0.051579 -0.084114
v -0.027983 0.052005 -0.145902
v -0.061393 -0.058115 -0.075716
v 0.027366 -0.057102 -0.124262
v 0.030552 0.054106 -0.143228
v 0.073043 0.055903 -0.092044
v 0.065537 -0.056673 -0.079499
v -0.019398 -0.171741 -0.110533
v -0.028722 -0.281726 -0.092850
v -0.066052 -0.171708 -0.068898
v -0.078821 -0.281726 -0.052224
v 0.026000 -0.281726 -0.089680
v 0.027474 -0.171749 -0.105390
v 0.066412 -0.171615 -0.065951
v 0.072997 -0.281727 -0.054324
v -0.063339 0.050627 0.072799
v -0.052556 -0.060096 0.066398
v -0.019511 -0.062559 0.124613
v -0.024276 0.046960 0.137434
v 0.042277 -0.061257 0.117482
v 0.045765 0.048965 0.132540
v 0.099695 0.165643 0.084507
v 0.045765 0.048965 0.132540
v 0.088505 0.052802 0.070741
v 0.045571 0.162319 0.146015
v -0.052556 -0.060096 0.066398
v -0.053398 -0.171404 0.068212
v -0.015887 -0.171719 0.117343
v -0.019511 -0.062559 0.124613
v 0.042277 -0.061257 0.117482
v 0.042305 -0.171468 0.113636
v 0.088505 0.052802 0.070741
v 0.042277 -0.061257 0.117482
v 0.083451 -0.059170 0.064661
v 0.045765 0.048965 0.132540
v -0.084235 0.161770 0.088514
v -0.063339 0.050627 0.072799
v -0.024276 0.046960 0.137434
v -0.030043 0.159313 0.155248
v 0.045765 0.048965 0.132540
v 0.045571 0.162319 0.146015
v 0.083186 -0.171083 0.066355
v 0.083451 -0.059170 0.064661
v 0.042277 -0.061257 0.117482
v 0.042305 -0.171468 0.113636
v 0.036209 0.164181 -0.165684
v 0.030552 0.054106 -0.143228
v -0.034674 0.159928 -0.171795
v 0.084589 0.167530 -0.104774
v 0.073043 0.055903 -0.092044
v -0.027983 0.052005 -0.145902
v -0.086698 0.162735 -0.093724
v -0.073147 0.051579 -0.084114
v 0.083656 -0.281849 0.071800
v 0.083186 -0.171083 0.066355
v 0.042305 -0.171468 0.113636
v 0.043261 -0.281898 0.115510
v -0.061456 -0.281768 0.075917
v -0.015887 -0.171719 0.117343
v -0.053398 -0.171404 0.068212
v -0.018961 -0.281848 0.119702
v 0.043261 -0.281898 0.115510
v 0.042305 -0.171468 0.113636
v 0.101096 -0.281759 0.008150
v 0.074338 -0.400878 -0.035977
v 0.072997 -0.281727 -0.054324
v 0.108324 -0.400878 0.012164
v 0.065537 -0.056673 -0.079499
v 0.093396 0.055992 -0.012622
v 0.085483 -0.057224 -0.009522
v 0.073043 0.055903 -0.092044
v -0.061393 -0.058115 -0.075716
v -0.089460 0.050761 -0.003240
v -0.073147 0.051579 -0.084114
v -0.072720 -0.059055 -0.002441
v 0.085483 -0.057224 -0.009522
v 0.088505 0.052802 0.070741
v 0.083451 -0.059170 0.064661
v 0.093396 0.055992 -0.012622
v -0.073147 0.051579 -0.084114
v -0.109419 0.162428 -0.001094
v -0.086698 0.162735 -0.093724
v -0.089460 0.050761 -0.003240
v 0.083656 -0.281849 0.071800
v 0.089966 -0.400878 0.058440
v 0.101096 -0.281759 0.008150
v 0.108324 -0.400878 0.012164
v 0.066412 -0.171615 -0.065951
v 0.085483 -0.057224 -0.009522
v 0.089248 -0.171295 -0.002912
v 0.065537 -0.056673 -0.079499
v 0.089248 -0.171295 -0.002912
v 0.083451 -0.059170 0.064661
v 0.083186 -0.171083 0.066355
v 0.085483 -0.057224 -0.009522
v 0.073043 0.055903 -0.092044
v 0.114164 0.168865 -0.013641
v 0.093396 0.055992 -0.012622
v 0.084589 0.167530 -0.104774
v 0.093396 0.055992 -0.012622
v 0.114164 0.168865 -0.013641
v 0.088505 0.052802 0.070741
v 0.099695 0.165643 0.084507
v -0.089460 0.050761 -0.003240
v -0.052556 -0.060096 0.066398
v -0.063339 0.050627 0.072799
v -0.072720 -0.059055 -0.002441
v 0.101096 -0.281759 0.008150
v 0.083186 -0.171083 0.066355
v 0.083656 -0.281849 0.071800
v 0.089248 -0.171295 -0.002912
v -0.109419 0.162428 -0.001094
v -0.063339 0.050627 0.072799
v -0.084235 0.161770 0.088514
v -0.089460 0.050761 -0.003240
v -0.066052 -0.171708 -0.068898
v -0.072720 -0.059055 -0.002441
v -0.061393 -0.058115 -0.075716
v -0.079754 -0.171600 0.002920
v 0.072997 -0.281727 -0.054324
v 0.089248 -0.171295 -0.002912
v 0.101096 -0.281759 0.008150
v 0.066412 -0.171615 -0.065951
v -0.079754 -0.171600 0.002920
v -0.052556 -0.060096 0.066398
v -0.072720 -0.059055 -0.002441
v -0.053398 -0.171404 0.068212
v -0.078821 -0.281726 -0.052224
v -0.079754 -0.171600 0.002920
v -0.066052 -0.171708 -0.068898
v -0.093251 -0.281727 0.010132
v -0.093251 -0.281727 0.010132
v -0.053398 -0.171404 0.068212
v -0.079754 -0.171600 0.002920
v -0.061456 -0.281768 0.075917
v -0.093251 -0.281727 0.010132
v -0.075757 -0.400878 0.067940
v -0.061456 -0.281768 0.075917
v -0.116948 -0.400878 0.017445
v -0.102954 -0.400878 -0.031446
v -0.093251 -0.281727 0.010132
v -0.078821 -0.281726 -0.052224
v -0.116948 -0.400878 0.017445
v 0.125062 0.271191 0.111016
v 0.045571 0.162319 0.146015
v 0.099695 0.165643 0.084507
v 0.056077 0.271486 0.181523
v 0.086287 0.399883 0.245007
v 0.202634 0.399883 0.156068
v -0.061994 0.399883 0.258901
v -0.109577 0.276800 0.110767
v -0.034052 0.272788 0.183350
v -0.178721 0.400360 0.159017
v 0.056077 0.271486 0.181523
v 0.086287 0.399883 0.245007
v 0.045571 0.162319 0.146015
v -0.030043 0.159313 0.155248
v -0.084235 0.161770 0.088514
v -0.034674 0.159928 -0.171795
v -0.117478 0.278600 -0.106978
v -0.044878 0.274978 -0.192688
v -0.086698 0.162735 -0.093724
v -0.195197 0.400857 -0.136536
v -0.077500 0.399193 -0.258901
v 0.036209 0.164181 -0.165684
v 0.071223 0.400878 -0.245527
v 0.045752 0.273870 -0.192468
v 0.107176 0.273620 -0.121248
v 0.084589 0.167530 -0.104774
v 0.186583 0.399883 -0.142820
v 0.084589 0.167530 -0.104774
v 0.146336 0.271018 -0.010134
v 0.114164 0.168865 -0.013641
v 0.107176 0.273620 -0.121248
v 0.251879 0.399883 0.012151
v 0.186583 0.399883 -0.142820
v -0.117478 0.278600 -0.106978
v -0.086698 0.162735 -0.093724
v -0.146696 0.278802 0.003727
v -0.109419 0.162428 -0.001094
v -0.251879 0.399922 0.012841
v -0.195197 0.400857 -0.136536
v -0.146696 0.278802 0.003727
v -0.084235 0.161770 0.088514
v -0.109577 0.276800 0.110767
v -0.109419 0.162428 -0.001094
v -0.251879 0.399922 0.012841
v -0.178721 0.400360 0.159017
v 0.146336 0.271018 -0.010134
v 0.099695 0.165643 0.084507
v 0.114164 0.168865 -0.013641
v 0.125062 0.271191 0.111016
v 0.251879 0.399883 0.012151
v 0.202634 0.399883 0.156068
vt 4.652220 1.266038
vt 4.652220 1.207547
vt 4.684226 1.207547
vt 4.684226 1.266038
vt 4.716233 1.207547
vt 4.716233 1.266038
vt 4.716233 1.207547
vt 4.780245 1.266038
vt 4.716233 1.266038
vt 4.780245 1.207547
vt 4.337398 1.266038
vt 4.337398 1.207547
vt 4.380875 1.266038
vt 4.380875 1.207547
vt 4.250442 1.207547
vt 4.250442 1.266038
vt 4.206964 1.207547
vt 4.206964 1.266038
vt 4.337398 1.353774
vt 4.380875 1.436396
vt 4.337398 1.437218
vt 4.380875 1.353774
vt 4.250442 1.438862
vt 4.250442 1.353774
vt 4.206964 1.439684
vt 4.206964 1.353774
vt 4.337398 1.437218
vt 4.380875 1.536557
vt 4.337398 1.536557
vt 4.380875 1.436396
vt 4.250442 1.438862
vt 4.250442 1.536557
vt 4.206964 1.536557
vt 4.206964 1.439684
vt 4.337398 1.353774
vt 4.337398 1.266038
vt 4.380875 1.353774
vt 4.380875 1.266038
vt 4.250442 1.266038
vt 4.250442 1.353774
vt 4.206964 1.353774
vt 4.206964 1.266038
vt 4.652220 1.536557
vt 4.652220 1.432810
vt 4.684226 1.433763
vt 4.684226 1.536557
vt 4.716233 1.434716
vt 4.716233 1.536557
vt 4.780245 1.605312
vt 4.716233 1.536557
vt 4.780245 1.536557
vt 4.716233 1.605312
vt 4.652220 1.432810
vt 4.652220 1.353774
vt 4.684226 1.353774
vt 4.684226 1.433763
vt 4.716233 1.434716
vt 4.716233 1.353774
vt 4.780245 1.536557
vt 4.716233 1.434716
vt 4.780245 1.436622
vt 4.716233 1.536557
vt 4.652220 1.605312
vt 4.652220 1.536557
vt 4.684226 1.536557
vt 4.684226 1.605312
vt 4.716233 1.536557
vt 4.716233 1.605312
vt 4.780245 1.353774
vt 4.780245 1.436622
vt 4.716233 1.434716
vt 4.716233 1.353774
vt 4.250442 1.605312
vt 4.250442 1.536557
vt 4.337398 1.605312
vt 4.206964 1.605312
vt 4.206964 1.536557
vt 4.337398 1.536557
vt 4.380875 1.605312
vt 4.380875 1.536557
vt 4.780245 1.266038
vt 4.780245 1.353774
vt 4.716233 1.353774
vt 4.716233 1.266038
vt 4.652220 1.266038
vt 4.684226 1.353774
vt 4.652220 1.353774
vt 4.684226 1.266038
vt 4.716233 1.266038
vt 4.716233 1.353774
vt 4.091176 1.266038
vt 4.206964 1.207547
vt 4.206964 1.266038
vt 4.091176 1.207547
vt 4.206964 1.439684
vt 4.091176 1.536557
vt 4.091176 1.441824
vt 4.206964 1.536557
vt 4.380875 1.436396
vt 4.542550 1.536557
vt 4.380875 1.536557
vt 4.542550 1.433402
vt 4.908824 1.441824
vt 4.780245 1.536557
vt 4.780245 1.436622
vt 4.908824 1.536557
vt 4.380875 1.536557
vt 4.542550 1.605312
vt 4.380875 1.605312
vt 4.542550 1.536557
vt 4.780245 1.266038
vt 4.780245 1.207547
vt 4.908824 1.266038
vt 4.908824 1.207547
vt 4.206964 1.353774
vt 4.091176 1.441824
vt 4.091176 1.353774
vt 4.206964 1.439684
vt 4.908824 1.353774
vt 4.780245 1.436622
vt 4.780245 1.353774
vt 4.908824 1.441824
vt 4.206964 1.536557
vt 4.091176 1.605312
vt 4.091176 1.536557
vt 4.206964 1.605312
vt 4.908824 1.536557
vt 4.908824 1.605312
vt 4.780245 1.536557
vt 4.780245 1.605312
vt 4.542550 1.536557
vt 4.652220 1.432810
vt 4.652220 1.536557
vt 4.542550 1.433402
vt 4.908824 1.266038
vt 4.780245 1.353774
vt 4.780245 1.266038
vt 4.908824 1.353774
vt 4.542550 1.605312
vt 4.652220 1.536557
vt 4.652220 1.605312
vt 4.542550 1.536557
vt 4.380875 1.353774
vt 4.542550 1.433402
vt 4.380875 1.436396
vt 4.542550 1.353774
vt 4.206964 1.266038
vt 4.091176 1.353774
vt 4.091176 1.266038
vt 4.206964 1.353774
vt 4.542550 1.353774
vt 4.652220 1.432810
vt 4.542550 1.433402
vt 4.652220 1.353774
vt 4.380875 1.266038
vt 4.542550 1.353774
vt 4.380875 1.353774
vt 4.542550 1.266038
vt 4.542550 1.266038
vt 4.652220 1.353774
vt 4.542550 1.353774
vt 4.652220 1.266038
vt 4.542550 1.266038
vt 4.652220 1.207547
vt 4.652220 1.266038
vt 4.542550 1.207547
vt 4.380875 1.207547
vt 4.542550 1.266038
vt 4.380875 1.266038
vt 4.542550 1.207547
vt 4.780245 1.698511
vt 4.716233 1.605312
vt 4.780245 1.605312
vt 4.716233 1.698511
vt 4.716233 1.792453
vt 4.780245 1.792453
vt 4.684226 1.792453
vt 4.652220 1.698511
vt 4.684226 1.698511
vt 4.652220 1.792453
vt 4.716233 1.698511
vt 4.716233 1.792453
vt 4.716233 1.605312
vt 4.684226 1.605312
vt 4.652220 1.605312
vt 4.337398 1.605312
vt 4.380875 1.698511
vt 4.337398 1.698511
vt 4.380875 1.605312
vt 4.380875 1.792453
vt 4.337398 1.792453
vt 4.250442 1.605312
vt 4.250442 1.792453
vt 4.250442 1.698511
vt 4.206964 1.698511
vt 4.206964 1.605312
vt 4.206964 1.792453
vt 4.206964 1.605312
vt 4.091176 1.698511
vt 4.091176 1.605312
vt 4.206964 1.698511
vt 4.091176 1.792453
vt 4.206964 1.792453
vt 4.380875 1.698511
vt 4.380875 1.605312
vt 4.542550 1.698511
vt 4.542550 1.605312
vt 4.542550 1.792453
vt 4.380875 1.792453
vt 4.542550 1.698511
vt 4.652220 1.605312
vt 4.652220 1.698511
vt 4.542550 1.605312
vt 4.542550 1.792453
vt 4.652220 1.792453
vt 4.908824 1.698511
vt 4.780245 1.605312
vt 4.908824 1.605312
vt 4.780245 1.698511
vt 4.908824 1.792453
vt 4.780245 1.792453
vn -0.632042 0.018617 0.774710
vn -0.632042 0.018617 0.774710
vn -0.284099 -0.008368 0.958758
vn -0.281212 -0.008573 0.959607
vn 0.039969 -0.029899 0.998753
vn 0.039969 -0.029899 0.998753
vn 0.633764 -0.000095 0.773527
vn 0.633764 -0.000095 0.773527
vn 0.633764 -0.000095 0.773527
vn 0.633764 -0.000095 0.773527
vn -0.242434 0.000337 -0.970168
vn -0.270165 0.003585 -0.962807
vn -0.522884 0.034378 -0.851711
vn -0.522884 0.034378 -0.851711
vn 0.282097 -0.024081 -0.959084
vn 0.285019 -0.023964 -0.958222
vn 0.503100 -0.014258 -0.864110
vn 0.503100 -0.014258 -0.864110
vn -0.414504 -0.168140 -0.894380
vn -0.748064 -0.156903 -0.644812
vn -0.381719 -0.167736 -0.908931
vn -0.748064 -0.156903 -0.644812
vn 0.520079 -0.135181 -0.843353
vn 0.527883 -0.135067 -0.838509
vn 0.738412 -0.126440 -0.662390
vn 0.738412 -0.126440 -0.662390
vn -0.344977 -0.215340 -0.913575
vn -0.695666 -0.275563 -0.663411
vn -0.388637 -0.224349 -0.893660
vn -0.695666 -0.275563 -0.663411
vn 0.475607 -0.018861 -0.879456
vn 0.443776 -0.026622 -0.895742
vn 0.681453 0.036519 -0.730950
vn 0.681453 0.036519 -0.730950
vn -0.302174 -0.222583 -0.926902
vn -0.366304 -0.216321 -0.905001
vn -0.702056 -0.159943 -0.693927
vn -0.702056 -0.159943 -0.693927
vn 0.532801 -0.200290 -0.822196
vn 0.524746 -0.201561 -0.827052
vn 0.760121 -0.151197 -0.631946
vn 0.760121 -0.151197 -0.631946
vn -0.727571 -0.170868 0.664413
vn -0.727571 -0.170868 0.664413
vn -0.365443 -0.039632 0.929990
vn -0.441661 -0.065651 0.894777
vn 0.050862 0.092577 0.994406
vn 0.050862 0.092577 0.994406
vn 0.584752 -0.593329 0.553197
vn 0.584752 -0.593329 0.553197
vn 0.584752 -0.593329 0.553197
vn 0.584752 -0.593329 0.553197
vn -0.838170 0.085212 0.538711
vn -0.838170 0.085212 0.538711
vn -0.433536 0.263927 0.861620
vn -0.535362 0.231039 0.812409
vn 0.105675 0.363870 0.925436
vn 0.105675 0.363870 0.925436
vn 0.719535 0.117021 0.684526
vn 0.719535 0.117021 0.684526
vn 0.719535 0.117021 0.684526
vn 0.719535 0.117021 0.684526
vn -0.570818 -0.351955 0.741819
vn -0.570818 -0.351955 0.741819
vn -0.323863 -0.418582 0.848470
vn -0.194393 -0.439477 0.876967
vn 0.059650 -0.457178 0.887373
vn 0.059650 -0.457178 0.887373
vn 0.680248 0.311461 0.663517
vn 0.680248 0.311461 0.663517
vn 0.680248 0.311461 0.663517
vn 0.680248 0.311461 0.663517
vn 0.424576 -0.600754 -0.677370
vn 0.367629 -0.593805 -0.715713
vn -0.154082 -0.539045 -0.828063
vn 0.573439 -0.604887 -0.552521
vn 0.573439 -0.604887 -0.552521
vn -0.297847 -0.517330 -0.802282
vn -0.574004 -0.436304 -0.692935
vn -0.574004 -0.436304 -0.692935
vn 0.635746 -0.455955 0.622842
vn 0.635746 -0.455955 0.622842
vn 0.635746 -0.455955 0.622842
vn 0.635746 -0.455955 0.622842
vn -0.793404 -0.309791 0.523965
vn -0.257184 -0.530362 0.807819
vn -0.793404 -0.309791 0.523965
vn -0.464532 -0.477318 0.745907
vn 0.115563 -0.559444 0.820773
vn 0.115563 -0.559444 0.820773
vn 0.858964 0.036654 -0.510723
vn 0.858964 0.036654 -0.510723
vn 0.858964 0.036654 -0.510723
vn 0.858964 0.036654 -0.510723
vn 0.916561 0.049789 -0.396783
vn 0.916561 0.049789 -0.396783
vn 0.916561 0.049789 -0.396783
vn 0.916561 0.049789 -0.396783
vn -0.881266 -0.334872 -0.333513
vn -0.881266 -0.334872 -0.333513
vn -0.881266 -0.334872 -0.333513
vn -0.881266 -0.334872 -0.333513
vn 0.988804 0.081358 0.125092
vn 0.988804 0.081358 0.125092
vn 0.988804 0.081358 0.125092
vn 0.988804 0.081358 0.125092
vn -0.813280 -0.435504 -0.385892
vn -0.813280 -0.435504 -0.385892
vn -0.813280 -0.435504 -0.385892
vn -0.813280 -0.435504 -0.385892
vn 0.938886 0.047253 0.340969
vn 0.938886 0.047253 0.340969
vn 0.938886 0.047253 0.340969
vn 0.938886 0.047253 0.340969
vn 0.938426 -0.092380 -0.332900
vn 0.938426 -0.092380 -0.332900
vn 0.938426 -0.092380 -0.332900
vn 0.938426 -0.092380 -0.332900
vn 0.998582 0.053017 0.004707
vn 0.998582 0.053017 0.004707
vn 0.998582 0.053017 0.004707
vn 0.998582 0.053017 0.004707
vn 0.679435 -0.639545 -0.359654
vn 0.679435 -0.639545 -0.359654
vn 0.679435 -0.639545 -0.359654
vn 0.679435 -0.639545 -0.359654
vn 0.744177 -0.649802 0.154783
vn 0.744177 -0.649802 0.154783
vn 0.744177 -0.649802 0.154783
vn 0.744177 -0.649802 0.154783
vn -0.899817 -0.301688 0.315141
vn -0.899817 -0.301688 0.315141
vn -0.899817 -0.301688 0.315141
vn -0.899817 -0.301688 0.315141
vn 0.970106 -0.234394 0.062881
vn 0.970106 -0.234394 0.062881
vn 0.970106 -0.234394 0.062881
vn 0.970106 -0.234394 0.062881
vn -0.851440 -0.398491 0.340962
vn -0.851440 -0.398491 0.340962
vn -0.851440 -0.398491 0.340962
vn -0.851440 -0.398491 0.340962
vn -0.947806 -0.192432 -0.254232
vn -0.947806 -0.192431 -0.254232
vn -0.947806 -0.192432 -0.254232
vn -0.947806 -0.192432 -0.254232
vn 0.922737 -0.115481 -0.367722
vn 0.922737 -0.115481 -0.367722
vn 0.922737 -0.115481 -0.367722
vn 0.922737 -0.115481 -0.367722
vn -0.943927 -0.045963 0.326940
vn -0.943927 -0.045963 0.326940
vn -0.943927 -0.045963 0.326940
vn -0.943927 -0.045963 0.326940
vn -0.969864 -0.059759 -0.236206
vn -0.969864 -0.059759 -0.236206
vn -0.969864 -0.059759 -0.236206
vn -0.969864 -0.059759 -0.236206
vn -0.928172 -0.189127 0.320510
vn -0.928172 -0.189127 0.320510
vn -0.928172 -0.189127 0.320510
vn -0.928172 -0.189127 0.320510
vn -0.845728 0.089446 0.526064
vn -0.845728 0.089446 0.526064
vn -0.845728 0.089446 0.526064
vn -0.845728 0.089446 0.526064
vn -0.945510 0.118160 -0.303397
vn -0.945510 0.118160 -0.303397
vn -0.945510 0.118160 -0.303397
vn -0.945510 0.118160 -0.303397
vn 0.604509 -0.353395 0.713919
vn 0.633826 -0.150159 0.758760
vn 0.633826 -0.150159 0.758760
vn 0.595798 -0.390761 0.701663
vn 0.543691 -0.553181 0.631182
vn 0.543691 -0.553181 0.631182
vn -0.118330 -0.649994 0.750670
vn -0.522612 -0.473563 0.708954
vn -0.232985 -0.522452 0.820221
vn -0.470458 -0.598906 0.648059
vn 0.106966 -0.476426 0.872684
vn 0.137204 -0.633196 0.761733
vn 0.069100 -0.283518 0.956474
vn -0.267746 -0.350523 0.897467
vn -0.553579 -0.374745 0.743718
vn -0.295235 -0.203253 -0.933555
vn -0.646236 -0.232392 -0.726893
vn -0.319056 -0.211991 -0.923722
vn -0.621929 -0.239149 -0.745662
vn -0.664623 -0.227000 -0.711862
vn -0.346917 -0.219396 -0.911874
vn 0.406766 -0.095582 -0.908518
vn 0.443059 -0.165033 -0.881171
vn 0.396928 -0.131346 -0.908403
vn 0.659386 -0.108217 -0.743975
vn 0.651192 -0.054061 -0.756985
vn 0.664368 -0.150623 -0.732071
vn 0.857191 -0.055921 -0.511954
vn 0.881990 -0.075927 -0.465112
vn 0.857191 -0.055921 -0.511954
vn 0.874364 -0.069553 -0.480260
vn 0.896205 -0.088447 -0.434733
vn 0.896205 -0.088447 -0.434733
vn -0.869727 -0.280018 -0.406405
vn -0.859906 -0.289266 -0.420579
vn -0.874333 -0.275531 -0.399530
vn -0.859906 -0.289266 -0.420579
vn -0.884531 -0.265223 -0.383746
vn -0.884531 -0.265223 -0.383746
vn -0.809667 -0.430940 0.398410
vn -0.839696 -0.375958 0.391875
vn -0.798586 -0.449472 0.400294
vn -0.839696 -0.375958 0.391875
vn -0.765096 -0.500913 0.404617
vn -0.765096 -0.500913 0.404617
vn 0.928775 -0.238610 0.283625
vn 0.948774 -0.147454 0.279438
vn 0.948774 -0.147454 0.279438
vn 0.917238 -0.278610 0.284694
vn 0.882027 -0.375070 0.285221
vn 0.882027 -0.375070 0.285221
f 1/1/1 2/2/2 3/3/3
f 3/3/3 4/4/4 1/1/1
f 4/4/4 3/3/3 5/5/5
f 5/5/5 6/6/6 4/4/4
f 7/7/7 8/8/8 9/9/9
f 8/8/8 7/7/7 10/10/10
f 11/11/11 12/12/12 13/13/13
f 13/13/13 12/12/12 14/14/14
f 11/11/11 15/15/15 12/12/12
f 15/15/15 11/11/11 16/16/16
f 16/16/16 17/17/17 15/15/15
f 17/17/17 16/16/16 18/18/18
f 19/19/19 20/20/20 21/21/21
f 20/20/20 19/19/19 22/22/22
f 23/23/23 19/19/19 21/21/21
f 19/19/19 23/23/23 24/24/24
f 24/24/24 23/23/23 25/25/25
f 24/24/24 25/25/25 26/26/26
f 27/27/27 28/28/28 29/29/29
f 28/28/28 27/27/27 30/30/30
f 29/29/29 31/31/31 27/27/27
f 31/31/31 29/29/29 32/32/32
f 31/31/31 32/32/32 33/33/33
f 31/31/31 33/33/33 34/34/34
f 35/35/35 36/36/36 37/37/37
f 37/37/37 36/36/36 38/38/38
f 35/35/35 39/39/39 36/36/36
f 40/40/40 39/39/39 35/35/35
f 41/41/41 39/39/39 40/40/40
f 39/39/39 41/41/41 42/42/42
f 43/43/43 44/44/44 45/45/45
f 43/43/43 45/45/45 46/46/46
f 45/45/45 47/47/47 46/46/46
f 47/47/47 48/48/48 46/46/46
f 49/49/49 50/50/50 51/51/51
f 50/50/50 49/49/49 52/52/52
f 53/53/53 54/54/54 55/55/55
f 53/53/53 55/55/55 56/56/56
f 55/55/55 57/57/57 56/56/56
f 57/57/57 55/55/55 58/58/58
f 59/59/59 60/60/60 61/61/61
f 60/60/60 59/59/59 62/62/62
f 63/63/63 64/64/64 65/65/65
f 63/63/63 65/65/65 66/66/66
f 65/65/65 67/67/67 66/66/66
f 67/67/67 68/68/68 66/66/66
f 69/69/69 70/70/70 71/71/71
f 69/69/69 71/71/71 72/72/72
f 73/73/73 74/74/74 75/75/75
f 74/74/74 73/73/73 76/76/76
f 74/74/74 76/76/76 77/77/77
f 75/75/75 74/74/74 78/78/78
f 78/78/78 79/79/79 75/75/75
f 79/79/79 78/78/78 80/80/80
f 81/81/81 82/82/82 83/83/83
f 81/81/81 83/83/83 84/84/84
f 85/85/85 86/86/86 87/87/87
f 86/86/86 85/85/85 88/88/88
f 86/86/86 88/88/88 89/89/89
f 89/89/89 90/90/90 86/86/86
f 91/91/91 92/92/92 93/93/93
f 92/92/92 91/91/91 94/94/94
f 95/95/95 96/96/96 97/97/97
f 96/96/96 95/95/95 98/98/98
f 99/99/99 100/100/100 101/101/101
f 100/100/100 99/99/99 102/102/102
f 103/103/103 104/104/104 105/105/105
f 104/104/104 103/103/103 106/106/106
f 107/107/107 108/108/108 109/109/109
f 108/108/108 107/107/107 110/110/110
f 111/111/111 112/112/112 113/113/113
f 114/114/114 113/113/113 112/112/112
f 115/115/115 116/116/116 117/117/117
f 116/116/116 115/115/115 118/118/118
f 119/119/119 120/120/120 121/121/121
f 120/120/120 119/119/119 122/122/122
f 123/123/123 124/124/124 125/125/125
f 124/124/124 123/123/123 126/126/126
f 127/127/127 128/128/128 129/129/129
f 128/128/128 130/130/130 129/129/129
f 131/131/131 132/132/132 133/133/133
f 132/132/132 131/131/131 134/134/134
f 135/135/135 136/136/136 137/137/137
f 136/136/136 135/135/135 138/138/138
f 139/139/139 140/140/140 141/141/141
f 140/140/140 139/139/139 142/142/142
f 143/143/143 144/144/144 145/145/145
f 144/144/144 143/143/143 146/146/146
f 147/147/147 148/148/148 149/149/149
f 148/148/148 147/147/147 150/150/150
f 151/151/151 152/152/152 153/153/153
f 152/152/152 151/151/151 154/154/154
f 155/155/155 156/156/156 157/157/157
f 156/156/156 155/155/155 158/158/158
f 159/159/159 160/160/160 161/161/161
f 160/160/160 159/159/159 162/162/162
f 163/163/163 164/164/164 165/165/165
f 164/164/164 163/163/163 166/166/166
f 167/167/167 168/168/168 169/169/169
f 168/168/168 167/167/167 170/170/170
f 171/171/171 172/172/172 173/173/173
f 172/172/172 171/171/171 174/174/174
f 171/171/171 175/175/175 174/174/174
f 175/175/175 171/171/171 176/176/176
f 177/177/177 178/178/178 179/179/179
f 178/178/178 177/177/177 180/180/180
f 181/181/181 177/177/177 179/179/179
f 177/177/177 181/181/181 182/182/182
f 183/183/183 181/181/181 179/179/179
f 184/184/184 183/183/183 179/179/179
f 178/178/178 184/184/184 179/179/179
f 178/178/178 185/185/185 184/184/184
f 186/186/186 187/187/187 188/188/188
f 187/187/187 186/186/186 189/189/189
f 190/190/190 188/188/188 187/187/187
f 188/188/188 190/190/190 191/191/191
f 188/188/188 192/192/192 186/186/186
f 193/193/193 188/188/188 191/191/191
f 192/192/192 188/188/188 194/194/194
f 188/188/188 193/193/193 194/194/194
f 192/192/192 194/194/194 195/195/195
f 193/193/193 195/195/195 194/194/194
f 192/192/192 195/195/195 196/196/196
f 195/195/195 193/193/193 197/197/197
f 198/198/198 199/199/199 200/200/200
f 199/199/199 198/198/198 201/201/201
f 201/201/201 202/202/202 199/199/199
f 201/201/201 203/203/203 202/202/202
f 204/204/204 205/205/205 206/206/206
f 205/205/205 207/207/207 206/206/206
f 204/204/204 206/206/206 208/208/208
f 209/209/209 204/204/204 208/208/208
f 210/210/210 211/211/211 212/212/212
f 211/211/211 210/210/210 213/213/213
f 212/212/212 214/214/214 210/210/210
f 214/214/214 212/212/212 215/215/215
f 216/216/216 217/217/217 218/218/218
f 217/217/217 216/216/216 219/219/219
f 220/220/220 219/219/219 216/216/216
f 219/219/219 220/220/220 221/221/221
