# Generated from Roblox mesh JSON (v4.01)
# Hello from RBX_Toolbox ;)
o LeftLowerLeg_inner_cage
v -0.061847 0.565387 0.207042
v -0.112949 0.705450 0.122507
v -0.134930 0.565226 0.150531
v -0.055954 0.705994 0.179029
v -0.075015 0.465842 0.224932
v -0.157023 0.459322 0.160669
v 0.109045 0.464854 0.224035
v 0.103121 0.565784 0.200571
v 0.102810 0.706158 0.170469
v 0.175317 0.457732 0.153037
v 0.165494 0.565530 0.133085
v 0.103121 0.565784 0.200571
v 0.109045 0.464854 0.224035
v 0.102810 0.706158 0.170469
v 0.171344 0.706068 0.109453
v -0.172212 0.565203 0.000284
v -0.157023 0.459322 0.160669
v -0.134930 0.565226 0.150531
v -0.195140 0.440975 -0.010371
v -0.112949 0.705450 0.122507
v -0.132854 0.691619 -0.009708
v -0.132558 0.565143 -0.142447
v -0.195140 0.440975 -0.010371
v -0.172212 0.565203 0.000284
v -0.137642 0.426375 -0.147717
v -0.113521 0.667302 -0.138029
v -0.132854 0.691619 -0.009708
v 0.175317 0.457732 0.153037
v 0.109214 0.329892 0.222051
v 0.174842 0.320118 0.154056
v 0.109045 0.464854 0.224035
v -0.165140 0.323542 0.157310
v -0.076284 0.332143 0.223681
v -0.157023 0.459322 0.160669
v -0.075015 0.465842 0.224932
v 0.109045 0.464854 0.224035
v 0.109214 0.329892 0.222051
v -0.195140 0.440975 -0.010371
v -0.165140 0.323542 0.157310
v -0.157023 0.459322 0.160669
v -0.202105 0.302956 -0.002813
v -0.165140 0.323542 0.157310
v -0.163511 0.139389 0.130094
v -0.087800 0.166983 0.209454
v -0.076284 0.332143 0.223681
v 0.095433 0.158612 0.202503
v 0.109214 0.329892 0.222051
v -0.137642 0.426375 -0.147717
v -0.202105 0.302956 -0.002813
v -0.195140 0.440975 -0.010371
v -0.156605 0.280009 -0.153208
v 0.174842 0.320118 0.154056
v 0.095433 0.158612 0.202503
v 0.162142 0.135840 0.129533
v 0.109214 0.329892 0.222051
v 0.090953 -0.170644 0.112049
v 0.162142 0.135840 0.129533
v 0.095433 0.158612 0.202503
v 0.153930 -0.171026 0.069607
v -0.088037 -0.479467 -0.144499
v -0.160523 -0.173486 -0.029322
v -0.129738 -0.178525 -0.151535
v -0.115291 -0.490934 -0.041864
v 0.202105 0.440797 -0.013293
v 0.165494 0.565530 0.133085
v 0.175317 0.457732 0.153037
v 0.193224 0.565204 -0.005880
v 0.171344 0.706068 0.109453
v 0.199006 0.691558 -0.010681
v -0.160523 -0.173486 -0.029322
v -0.099867 -0.496162 0.048270
v -0.137869 -0.170711 0.085039
v -0.115291 -0.490934 -0.041864
v -0.163511 0.139389 0.130094
v -0.137869 -0.170711 0.085039
v -0.079930 -0.170575 0.124693
v -0.087800 0.166983 0.209454
v 0.095433 0.158612 0.202503
v 0.090953 -0.170644 0.112049
v -0.202105 0.302956 -0.002813
v -0.163511 0.139389 0.130094
v -0.165140 0.323542 0.157310
v -0.193342 0.109515 -0.003991
v -0.137869 -0.170711 0.085039
v -0.193342 0.109515 -0.003991
v -0.160523 -0.173486 -0.029322
v -0.163511 0.139389 0.130094
v -0.157676 0.091860 -0.162053
v -0.160523 -0.173486 -0.029322
v -0.193342 0.109515 -0.003991
v -0.129738 -0.178525 -0.151535
v -0.156605 0.280009 -0.153208
v -0.193342 0.109515 -0.003991
v -0.202105 0.302956 -0.002813
v -0.157676 0.091860 -0.162053
v 0.080293 0.419469 -0.213032
v 0.092012 0.272690 -0.216448
v -0.048823 0.419801 -0.209918
v 0.145380 0.282476 -0.148927
v 0.159112 0.426446 -0.147703
v -0.076243 0.271903 -0.217380
v -0.137642 0.426375 -0.147717
v -0.156605 0.280009 -0.153208
v 0.122909 -0.489383 0.034940
v 0.090953 -0.170644 0.112049
v 0.077645 -0.490634 0.076514
v 0.153930 -0.171026 0.069607
v -0.088412 0.092185 -0.216057
v -0.129738 -0.178525 -0.151535
v -0.157676 0.091860 -0.162053
v -0.053581 -0.180585 -0.190196
v 0.055231 -0.178281 -0.179139
v 0.090713 0.095804 -0.210116
v 0.131310 0.095678 -0.149236
v 0.116002 -0.178558 -0.127492
v -0.095790 -0.702345 -0.037106
v -0.099867 -0.496162 0.048270
v -0.115291 -0.490934 -0.041864
v -0.073403 -0.702756 0.044310
v 0.194884 0.303519 -0.014652
v 0.202105 0.440797 -0.013293
v 0.174842 0.320118 0.154056
v 0.175317 0.457732 0.153037
v -0.076243 0.271903 -0.217380
v -0.157676 0.091860 -0.162053
v -0.156605 0.280009 -0.153208
v -0.088412 0.092185 -0.216057
v 0.090713 0.095804 -0.210116
v 0.092012 0.272690 -0.216448
v 0.131310 0.095678 -0.149236
v 0.145380 0.282476 -0.148927
v -0.099867 -0.496162 0.048270
v -0.079930 -0.170575 0.124693
v -0.137869 -0.170711 0.085039
v -0.045184 -0.493544 0.082345
v 0.090953 -0.170644 0.112049
v 0.077645 -0.490634 0.076514
v 0.180364 0.111196 -0.014461
v 0.194884 0.303519 -0.014652
v 0.162142 0.135840 0.129533
v 0.174842 0.320118 0.154056
v 0.153930 -0.171026 0.069607
v 0.131007 -0.469380 -0.043817
v 0.151504 -0.177486 -0.034022
v 0.122909 -0.489383 0.034940
v 0.152564 0.564979 -0.141345
v 0.202105 0.440797 -0.013293
v 0.159112 0.426446 -0.147703
v 0.193224 0.565204 -0.005880
v 0.199006 0.691558 -0.010681
v 0.170107 0.668106 -0.159673
v -0.132558 0.565143 -0.142447
v -0.056279 0.564912 -0.224932
v -0.137642 0.426375 -0.147717
v -0.048823 0.419801 -0.209918
v -0.051536 0.652781 -0.218994
v -0.113521 0.667302 -0.138029
v 0.062715 0.564731 -0.224608
v 0.080293 0.419469 -0.213032
v 0.068394 0.654827 -0.222439
v 0.152564 0.564979 -0.141345
v 0.159112 0.426446 -0.147703
v 0.170107 0.668106 -0.159673
v 0.162142 0.135840 0.129533
v 0.153930 -0.171026 0.069607
v 0.180364 0.111196 -0.014461
v 0.151504 -0.177486 -0.034022
v -0.029446 -0.460087 -0.180643
v -0.129738 -0.178525 -0.151535
v -0.053581 -0.180585 -0.190196
v -0.088037 -0.479467 -0.144499
v 0.053384 -0.448345 -0.174698
v 0.055231 -0.178281 -0.179139
v 0.116002 -0.178558 -0.127492
v 0.107417 -0.451843 -0.129602
v 0.145380 0.282476 -0.148927
v 0.159112 0.426446 -0.147703
v 0.194884 0.303519 -0.014652
v 0.202105 0.440797 -0.013293
v 0.180364 0.111196 -0.014461
v 0.151504 -0.177486 -0.034022
v 0.131310 0.095678 -0.149236
v 0.116002 -0.178558 -0.127492
v 0.131310 0.095678 -0.149236
v 0.145380 0.282476 -0.148927
v 0.180364 0.111196 -0.014461
v 0.194884 0.303519 -0.014652
v -0.078837 -0.700765 -0.165135
v -0.115291 -0.490934 -0.041864
v -0.088037 -0.479467 -0.144499
v -0.095790 -0.702345 -0.037106
v 0.151504 -0.177486 -0.034022
v 0.107417 -0.451843 -0.129602
v 0.116002 -0.178558 -0.127492
v 0.131007 -0.469380 -0.043817
v 0.112584 -0.704556 0.033212
v 0.077645 -0.490634 0.076514
v 0.067105 -0.706158 0.072668
v 0.122909 -0.489383 0.034940
v 0.122909 -0.489383 0.034940
v 0.126911 -0.701172 -0.040782
v 0.131007 -0.469380 -0.043817
v 0.112584 -0.704556 0.033212
v -0.073403 -0.702756 0.044310
v -0.045184 -0.493544 0.082345
v -0.099867 -0.496162 0.048270
v -0.019979 -0.702822 0.078111
v 0.077645 -0.490634 0.076514
v 0.067105 -0.706158 0.072668
v 0.131007 -0.469380 -0.043817
v 0.115617 -0.693858 -0.158299
v 0.107417 -0.451843 -0.129602
v 0.126911 -0.701172 -0.040782
v -0.029446 -0.460087 -0.180643
v -0.025666 -0.696709 -0.202534
v -0.088037 -0.479467 -0.144499
v -0.078837 -0.700765 -0.165135
v 0.068651 -0.688109 -0.200140
v 0.053384 -0.448345 -0.174698
v 0.107417 -0.451843 -0.129602
v 0.115617 -0.693858 -0.158299
vt 4.684226 1.698511
vt 4.652220 1.792453
vt 4.652220 1.698511
vt 4.684226 1.792453
vt 4.684226 1.605312
vt 4.652220 1.605312
vt 4.716233 1.605312
vt 4.716233 1.698511
vt 4.716233 1.792453
vt 4.780245 1.605312
vt 4.780245 1.698511
vt 4.716233 1.698511
vt 4.716233 1.605312
vt 4.716233 1.792453
vt 4.780245 1.792453
vt 4.542550 1.698511
vt 4.652220 1.605312
vt 4.652220 1.698511
vt 4.542550 1.605312
vt 4.652220 1.792453
vt 4.542550 1.792453
vt 4.380875 1.698511
vt 4.542550 1.605312
vt 4.542550 1.698511
vt 4.380875 1.605312
vt 4.380875 1.792453
vt 4.542550 1.792453
vt 4.780245 1.605312
vt 4.716233 1.536557
vt 4.780245 1.536557
vt 4.716233 1.605312
vt 4.652220 1.536557
vt 4.684226 1.536557
vt 4.652220 1.605312
vt 4.684226 1.605312
vt 4.716233 1.605312
vt 4.716233 1.536557
vt 4.542550 1.605312
vt 4.652220 1.536557
vt 4.652220 1.605312
vt 4.542550 1.536557
vt 4.652220 1.536557
vt 4.652220 1.432810
vt 4.684226 1.433763
vt 4.684226 1.536557
vt 4.716233 1.434716
vt 4.716233 1.536557
vt 4.380875 1.605312
vt 4.542550 1.536557
vt 4.542550 1.605312
vt 4.380875 1.536557
vt 4.780245 1.536557
vt 4.716233 1.434716
vt 4.780245 1.436622
vt 4.716233 1.536557
vt 4.716233 1.353774
vt 4.780245 1.436622
vt 4.716233 1.434716
vt 4.780245 1.353774
vt 4.380875 1.266038
vt 4.542550 1.353774
vt 4.380875 1.353774
vt 4.542550 1.266038
vt 4.908824 1.605312
vt 4.780245 1.698511
vt 4.780245 1.605312
vt 4.908824 1.698511
vt 4.780245 1.792453
vt 4.908824 1.792453
vt 4.542550 1.353774
vt 4.652220 1.266038
vt 4.652220 1.353774
vt 4.542550 1.266038
vt 4.652220 1.432810
vt 4.652220 1.353774
vt 4.684226 1.353774
vt 4.684226 1.433763
vt 4.716233 1.434716
vt 4.716233 1.353774
vt 4.542550 1.536557
vt 4.652220 1.432810
vt 4.652220 1.536557
vt 4.542550 1.433402
vt 4.652220 1.353774
vt 4.542550 1.433402
vt 4.542550 1.353774
vt 4.652220 1.432810
vt 4.380875 1.436396
vt 4.542550 1.353774
vt 4.542550 1.433402
vt 4.380875 1.353774
vt 4.380875 1.536557
vt 4.542550 1.433402
vt 4.542550 1.536557
vt 4.380875 1.436396
vt 4.250442 1.605312
vt 4.250442 1.536557
vt 4.337398 1.605312
vt 4.206964 1.536557
vt 4.206964 1.605312
vt 4.337398 1.536557
vt 4.380875 1.605312
vt 4.380875 1.536557
vt 4.780245 1.266038
vt 4.716233 1.353774
vt 4.716233 1.266038
vt 4.780245 1.353774
vt 4.337398 1.437218
vt 4.380875 1.353774
vt 4.380875 1.436396
vt 4.337398 1.353774
vt 4.250442 1.353774
vt 4.250442 1.438862
vt 4.206964 1.439684
vt 4.206964 1.353774
vt 4.542550 1.207547
vt 4.652220 1.266038
vt 4.542550 1.266038
vt 4.652220 1.207547
vt 4.908824 1.536557
vt 4.908824 1.605312
vt 4.780245 1.536557
vt 4.780245 1.605312
vt 4.337398 1.536557
vt 4.380875 1.436396
vt 4.380875 1.536557
vt 4.337398 1.437218
vt 4.250442 1.438862
vt 4.250442 1.536557
vt 4.206964 1.439684
vt 4.206964 1.536557
vt 4.652220 1.266038
vt 4.684226 1.353774
vt 4.652220 1.353774
vt 4.684226 1.266038
vt 4.716233 1.353774
vt 4.716233 1.266038
vt 4.908824 1.441824
vt 4.908824 1.536557
vt 4.780245 1.436622
vt 4.780245 1.536557
vt 4.780245 1.353774
vt 4.908824 1.266038
vt 4.908824 1.353774
vt 4.780245 1.266038
vt 4.206964 1.698511
vt 4.091176 1.605312
vt 4.206964 1.605312
vt 4.091176 1.698511
vt 4.091176 1.792453
vt 4.206964 1.792453
vt 4.380875 1.698511
vt 4.337398 1.698511
vt 4.380875 1.605312
vt 4.337398 1.605312
vt 4.337398 1.792453
vt 4.380875 1.792453
vt 4.250442 1.698511
vt 4.250442 1.605312
vt 4.250442 1.792453
vt 4.206964 1.698511
vt 4.206964 1.605312
vt 4.206964 1.792453
vt 4.780245 1.436622
vt 4.780245 1.353774
vt 4.908824 1.441824
vt 4.908824 1.353774
vt 4.337398 1.266038
vt 4.380875 1.353774
vt 4.337398 1.353774
vt 4.380875 1.266038
vt 4.250442 1.266038
vt 4.250442 1.353774
vt 4.206964 1.353774
vt 4.206964 1.266038
vt 4.206964 1.536557
vt 4.206964 1.605312
vt 4.091176 1.536557
vt 4.091176 1.605312
vt 4.091176 1.441824
vt 4.091176 1.353774
vt 4.206964 1.439684
vt 4.206964 1.353774
vt 4.206964 1.439684
vt 4.206964 1.536557
vt 4.091176 1.441824
vt 4.091176 1.536557
vt 4.380875 1.207547
vt 4.542550 1.266038
vt 4.380875 1.266038
vt 4.542550 1.207547
vt 4.091176 1.353774
vt 4.206964 1.266038
vt 4.206964 1.353774
vt 4.091176 1.266038
vt 4.780245 1.207547
vt 4.716233 1.266038
vt 4.716233 1.207547
vt 4.780245 1.266038
vt 4.780245 1.266038
vt 4.908824 1.207547
vt 4.908824 1.266038
vt 4.780245 1.207547
vt 4.652220 1.207547
vt 4.684226 1.266038
vt 4.652220 1.266038
vt 4.684226 1.207547
vt 4.716233 1.266038
vt 4.716233 1.207547
vt 4.091176 1.266038
vt 4.206964 1.207547
vt 4.206964 1.266038
vt 4.091176 1.207547
vt 4.337398 1.266038
vt 4.337398 1.207547
vt 4.380875 1.266038
vt 4.380875 1.207547
vt 4.250442 1.207547
vt 4.250442 1.266038
vt 4.206964 1.266038
vt 4.206964 1.207547
vn -0.204777 0.216566 0.954550
vn -0.641825 0.210829 0.737301
vn -0.625333 0.209907 0.751597
vn -0.211575 0.218468 0.952632
vn -0.238675 0.215812 0.946815
vn -0.606455 0.208752 0.767225
vn 0.021014 0.201251 0.979314
vn 0.034484 0.201394 0.978903
vn 0.045078 0.201480 0.978455
vn 0.724056 0.192396 0.662364
vn 0.707708 0.150463 0.690297
vn 0.709933 0.155906 0.686796
vn 0.724056 0.192396 0.662364
vn 0.695476 0.121750 0.708160
vn 0.695476 0.121750 0.708160
vn -0.956217 0.215475 0.198038
vn -0.958690 0.187070 0.214285
vn -0.956296 0.214727 0.198470
vn -0.958690 0.187070 0.214285
vn -0.952533 0.244909 0.180833
vn -0.952533 0.244909 0.180833
vn -0.942912 0.172847 -0.284675
vn -0.936022 0.119738 -0.330947
vn -0.942740 0.170878 -0.286430
vn -0.936022 0.119738 -0.330947
vn -0.944935 0.235876 -0.226850
vn -0.944935 0.235876 -0.226850
vn 0.725170 -0.003254 0.688562
vn 0.725170 -0.003254 0.688562
vn 0.725170 -0.003254 0.688562
vn 0.725170 -0.003254 0.688562
vn -0.607780 0.007583 0.794069
vn -0.239366 -0.004833 0.970917
vn -0.607780 0.007583 0.794069
vn -0.223012 -0.005337 0.974801
vn 0.006733 -0.012067 0.999905
vn 0.006733 -0.012067 0.999905
vn -0.975087 0.057001 0.214373
vn -0.975087 0.057001 0.214373
vn -0.975087 0.057001 0.214373
vn -0.975087 0.057001 0.214373
vn -0.652485 -0.071043 0.754464
vn -0.652485 -0.071043 0.754464
vn -0.287363 -0.094457 0.953153
vn -0.221903 -0.096771 0.970255
vn 0.020228 -0.101373 0.994643
vn 0.020228 -0.101373 0.994643
vn -0.934800 0.082717 -0.345409
vn -0.934800 0.082717 -0.345409
vn -0.934800 0.082717 -0.345409
vn -0.934800 0.082717 -0.345409
vn 0.705846 -0.138669 0.694660
vn 0.705846 -0.138669 0.694660
vn 0.705846 -0.138669 0.694660
vn 0.705846 -0.138669 0.694660
vn 0.633552 -0.189948 0.750021
vn 0.633552 -0.189948 0.750021
vn 0.633552 -0.189948 0.750021
vn 0.633552 -0.189948 0.750021
vn -0.958796 -0.132549 -0.251278
vn -0.958796 -0.132549 -0.251278
vn -0.958796 -0.132549 -0.251278
vn -0.958796 -0.132549 -0.251278
vn 0.981438 0.088254 0.170268
vn 0.981297 0.040238 0.188247
vn 0.981438 0.088254 0.170268
vn 0.981128 0.035068 0.190151
vn 0.977465 -0.020215 0.210127
vn 0.977465 -0.020215 0.210127
vn -0.973743 -0.139846 0.179635
vn -0.973743 -0.139846 0.179635
vn -0.973743 -0.139846 0.179635
vn -0.973743 -0.139846 0.179635
vn -0.632206 -0.183590 0.752735
vn -0.632206 -0.183590 0.752735
vn -0.190038 -0.244644 0.950807
vn -0.144181 -0.247511 0.958097
vn 0.047419 -0.253626 0.966139
vn 0.047419 -0.253626 0.966139
vn -0.972587 -0.043941 0.228350
vn -0.972587 -0.043941 0.228350
vn -0.972587 -0.043941 0.228350
vn -0.972587 -0.043941 0.228350
vn -0.967801 -0.121552 0.220422
vn -0.967801 -0.121552 0.220422
vn -0.967801 -0.121552 0.220422
vn -0.967801 -0.121552 0.220422
vn -0.969892 -0.100549 -0.221811
vn -0.969892 -0.100549 -0.221811
vn -0.969892 -0.100549 -0.221811
vn -0.969892 -0.100549 -0.221811
vn -0.967415 -0.012859 -0.252869
vn -0.967415 -0.012859 -0.252869
vn -0.967415 -0.012859 -0.252869
vn -0.967415 -0.012859 -0.252869
vn 0.280809 0.027736 -0.959363
vn 0.287025 0.027494 -0.957528
vn -0.240281 0.075381 -0.967772
vn 0.708457 0.006358 -0.705726
vn 0.708457 0.006358 -0.705726
vn -0.284730 0.082411 -0.955059
vn -0.586416 0.127640 -0.799891
vn -0.586415 0.127640 -0.799891
vn 0.608728 -0.128374 0.782924
vn 0.608728 -0.128374 0.782924
vn 0.608728 -0.128374 0.782924
vn 0.608728 -0.128374 0.782924
vn -0.183261 -0.114326 -0.976394
vn -0.534644 -0.117833 -0.836822
vn -0.534644 -0.117833 -0.836822
vn -0.149696 -0.113188 -0.982232
vn 0.298677 -0.120266 -0.946746
vn 0.329072 -0.121999 -0.936391
vn 0.736247 -0.132013 -0.663711
vn 0.736247 -0.132013 -0.663712
vn -0.971743 -0.106454 0.210674
vn -0.971743 -0.106454 0.210674
vn -0.971743 -0.106454 0.210674
vn -0.971743 -0.106454 0.210674
vn 0.989601 -0.027884 0.141112
vn 0.989601 -0.027884 0.141112
vn 0.989601 -0.027884 0.141112
vn 0.989601 -0.027884 0.141112
vn -0.217939 -0.000798 -0.975962
vn -0.618124 0.038304 -0.785147
vn -0.618124 0.038304 -0.785147
vn -0.238403 0.001100 -0.971166
vn 0.297785 -0.031988 -0.954097
vn 0.310344 -0.032388 -0.950072
vn 0.807783 -0.043872 -0.587845
vn 0.807783 -0.043872 -0.587845
vn -0.537788 -0.161303 0.827506
vn -0.144781 -0.138653 0.979701
vn -0.537788 -0.161303 0.827506
vn -0.126936 -0.137093 0.982391
vn 0.063481 -0.117924 0.990991
vn 0.063481 -0.117924 0.990991
vn 0.988097 -0.079909 0.131447
vn 0.988097 -0.079909 0.131447
vn 0.988097 -0.079909 0.131447
vn 0.988097 -0.079909 0.131447
vn 0.996002 -0.085876 0.024599
vn 0.996002 -0.085876 0.024599
vn 0.996002 -0.085876 0.024599
vn 0.996002 -0.085876 0.024599
vn 0.964074 -0.023149 -0.264622
vn 0.951623 0.071495 -0.298835
vn 0.951623 0.071495 -0.298835
vn 0.963916 -0.021175 -0.265365
vn 0.966514 -0.121047 -0.226269
vn 0.966514 -0.121047 -0.226268
vn -0.698459 0.030524 -0.714999
vn -0.366913 -0.005980 -0.930236
vn -0.659488 -0.031291 -0.751063
vn -0.321712 -0.069145 -0.944309
vn -0.423684 0.096772 -0.900626
vn -0.751284 0.129289 -0.647191
vn 0.304502 -0.042162 -0.951578
vn 0.348532 -0.026633 -0.936919
vn 0.356982 -0.061386 -0.932092
vn 0.639901 -0.034382 -0.767688
vn 0.659427 0.042259 -0.750580
vn 0.606574 -0.138374 -0.782893
vn 0.994799 -0.071595 0.072452
vn 0.994799 -0.071595 0.072452
vn 0.994799 -0.071595 0.072452
vn 0.994799 -0.071595 0.072452
vn -0.202681 -0.052734 -0.977824
vn -0.476067 -0.079030 -0.875851
vn -0.192816 -0.051734 -0.979870
vn -0.476067 -0.079030 -0.875851
vn 0.338657 -0.020056 -0.940696
vn 0.348148 -0.019963 -0.937227
vn 0.644013 -0.015647 -0.764854
vn 0.644013 -0.015647 -0.764855
vn 0.946083 -0.067576 -0.316796
vn 0.946083 -0.067576 -0.316796
vn 0.946083 -0.067576 -0.316796
vn 0.946083 -0.067576 -0.316796
vn 0.936851 -0.074833 -0.341629
vn 0.936851 -0.074833 -0.341629
vn 0.936851 -0.074833 -0.341629
vn 0.936851 -0.074833 -0.341629
vn 0.939696 -0.070759 -0.334612
vn 0.939696 -0.070759 -0.334612
vn 0.939696 -0.070759 -0.334612
vn 0.939696 -0.070759 -0.334612
vn -0.979862 -0.057983 -0.191069
vn -0.979862 -0.057983 -0.191069
vn -0.979862 -0.057983 -0.191069
vn -0.979862 -0.057983 -0.191069
vn 0.947727 -0.042105 -0.316292
vn 0.947727 -0.042105 -0.316292
vn 0.947727 -0.042105 -0.316292
vn 0.947727 -0.042105 -0.316292
vn 0.666204 -0.041911 0.744591
vn 0.666204 -0.041911 0.744591
vn 0.666204 -0.041911 0.744591
vn 0.666204 -0.041911 0.744591
vn 0.989586 -0.031518 0.140451
vn 0.989586 -0.031518 0.140451
vn 0.989586 -0.031518 0.140451
vn 0.989586 -0.031518 0.140451
vn -0.528538 -0.082316 0.844909
vn -0.185633 -0.045013 0.981588
vn -0.528538 -0.082316 0.844909
vn -0.149551 -0.040898 0.987908
vn 0.053594 -0.017142 0.998416
vn 0.053594 -0.017142 0.998416
vn 0.985800 0.017584 -0.166998
vn 0.985800 0.017584 -0.166998
vn 0.985800 0.017584 -0.166998
vn 0.985800 0.017584 -0.166998
vn -0.191636 0.089878 -0.977342
vn -0.232829 0.087438 -0.968579
vn -0.557577 0.061080 -0.827875
vn -0.557577 0.061080 -0.827875
vn 0.324279 0.113436 -0.939135
vn 0.326280 0.113496 -0.938435
vn 0.654051 0.115862 -0.747524
vn 0.654051 0.115862 -0.747524
f 1/1/1 2/2/2 3/3/3
f 2/2/2 1/1/1 4/4/4
f 5/5/5 1/1/1 3/3/3
f 6/6/6 5/5/5 3/3/3
f 5/5/5 7/7/7 1/1/1
f 7/7/7 8/8/8 1/1/1
f 8/8/8 4/4/4 1/1/1
f 4/4/4 8/8/8 9/9/9
f 10/10/10 11/11/11 12/12/12
f 10/10/10 12/12/12 13/13/13
f 11/11/11 14/14/14 12/12/12
f 14/14/14 11/11/11 15/15/15
f 16/16/16 17/17/17 18/18/18
f 17/17/17 16/16/16 19/19/19
f 16/16/16 18/18/18 20/20/20
f 21/21/21 16/16/16 20/20/20
f 22/22/22 23/23/23 24/24/24
f 23/23/23 22/22/22 25/25/25
f 24/24/24 26/26/26 22/22/22
f 26/26/26 24/24/24 27/27/27
f 28/28/28 29/29/29 30/30/30
f 29/29/29 28/28/28 31/31/31
f 32/32/32 33/33/33 34/34/34
f 33/33/33 35/35/35 34/34/34
f 33/33/33 36/36/36 35/35/35
f 36/36/36 33/33/33 37/37/37
f 38/38/38 39/39/39 40/40/40
f 39/39/39 38/38/38 41/41/41
f 42/42/42 43/43/43 44/44/44
f 44/44/44 45/45/45 42/42/42
f 44/44/44 46/46/46 45/45/45
f 46/46/46 47/47/47 45/45/45
f 48/48/48 49/49/49 50/50/50
f 49/49/49 48/48/48 51/51/51
f 52/52/52 53/53/53 54/54/54
f 53/53/53 52/52/52 55/55/55
f 56/56/56 57/57/57 58/58/58
f 57/57/57 56/56/56 59/59/59
f 60/60/60 61/61/61 62/62/62
f 61/61/61 60/60/60 63/63/63
f 64/64/64 65/65/65 66/66/66
f 65/65/65 64/64/64 67/67/67
f 67/67/67 68/68/68 65/65/65
f 68/68/68 67/67/67 69/69/69
f 70/70/70 71/71/71 72/72/72
f 71/71/71 70/70/70 73/73/73
f 74/74/74 75/75/75 76/76/76
f 76/76/76 77/77/77 74/74/74
f 76/76/76 78/78/78 77/77/77
f 78/78/78 76/76/76 79/79/79
f 80/80/80 81/81/81 82/82/82
f 81/81/81 80/80/80 83/83/83
f 84/84/84 85/85/85 86/86/86
f 85/85/85 84/84/84 87/87/87
f 88/88/88 89/89/89 90/90/90
f 89/89/89 88/88/88 91/91/91
f 92/92/92 93/93/93 94/94/94
f 93/93/93 92/92/92 95/95/95
f 96/96/96 97/97/97 98/98/98
f 96/96/96 99/99/99 97/97/97
f 99/99/99 96/96/96 100/100/100
f 98/98/98 97/97/97 101/101/101
f 101/101/101 102/102/102 98/98/98
f 102/102/102 101/101/101 103/103/103
f 104/104/104 105/105/105 106/106/106
f 105/105/105 104/104/104 107/107/107
f 108/108/108 109/109/109 110/110/110
f 109/109/109 108/108/108 111/111/111
f 108/108/108 112/112/112 111/111/111
f 112/112/112 108/108/108 113/113/113
f 112/112/112 113/113/113 114/114/114
f 112/112/112 114/114/114 115/115/115
f 116/116/116 117/117/117 118/118/118
f 117/117/117 116/116/116 119/119/119
f 120/120/120 121/121/121 122/122/122
f 121/121/121 123/123/123 122/122/122
f 124/124/124 125/125/125 126/126/126
f 125/125/125 124/124/124 127/127/127
f 124/124/124 128/128/128 127/127/127
f 128/128/128 124/124/124 129/129/129
f 129/129/129 130/130/130 128/128/128
f 130/130/130 129/129/129 131/131/131
f 132/132/132 133/133/133 134/134/134
f 133/133/133 132/132/132 135/135/135
f 135/135/135 136/136/136 133/133/133
f 136/136/136 135/135/135 137/137/137
f 138/138/138 139/139/139 140/140/140
f 139/139/139 141/141/141 140/140/140
f 142/142/142 143/143/143 144/144/144
f 143/143/143 142/142/142 145/145/145
f 146/146/146 147/147/147 148/148/148
f 147/147/147 146/146/146 149/149/149
f 146/146/146 150/150/150 149/149/149
f 150/150/150 146/146/146 151/151/151
f 152/152/152 153/153/153 154/154/154
f 153/153/153 155/155/155 154/154/154
f 153/153/153 152/152/152 156/156/156
f 156/156/156 152/152/152 157/157/157
f 158/158/158 155/155/155 153/153/153
f 156/156/156 158/158/158 153/153/153
f 155/155/155 158/158/158 159/159/159
f 158/158/158 156/156/156 160/160/160
f 161/161/161 159/159/159 158/158/158
f 160/160/160 161/161/161 158/158/158
f 159/159/159 161/161/161 162/162/162
f 161/161/161 160/160/160 163/163/163
f 164/164/164 165/165/165 166/166/166
f 167/167/167 166/166/166 165/165/165
f 168/168/168 169/169/169 170/170/170
f 171/171/171 169/169/169 168/168/168
f 170/170/170 172/172/172 168/168/168
f 173/173/173 172/172/172 170/170/170
f 174/174/174 172/172/172 173/173/173
f 172/172/172 174/174/174 175/175/175
f 176/176/176 177/177/177 178/178/178
f 177/177/177 179/179/179 178/178/178
f 180/180/180 181/181/181 182/182/182
f 183/183/183 182/182/182 181/181/181
f 184/184/184 185/185/185 186/186/186
f 185/185/185 187/187/187 186/186/186
f 188/188/188 189/189/189 190/190/190
f 189/189/189 188/188/188 191/191/191
f 192/192/192 193/193/193 194/194/194
f 193/193/193 192/192/192 195/195/195
f 196/196/196 197/197/197 198/198/198
f 197/197/197 196/196/196 199/199/199
f 200/200/200 201/201/201 202/202/202
f 201/201/201 200/200/200 203/203/203
f 204/204/204 205/205/205 206/206/206
f 205/205/205 204/204/204 207/207/207
f 207/207/207 208/208/208 205/205/205
f 208/208/208 207/207/207 209/209/209
f 210/210/210 211/211/211 212/212/212
f 211/211/211 210/210/210 213/213/213
f 214/214/214 215/215/215 216/216/216
f 216/216/216 215/215/215 217/217/217
f 214/214/214 218/218/218 215/215/215
f 218/218/218 214/214/214 219/219/219
f 220/220/220 218/218/218 219/219/219
f 218/218/218 220/220/220 221/221/221
