# Generated from Roblox mesh JSON (v4.01)
# Hello from RBX_Toolbox ;)
o LeftUpperArm_inner_cage
v 0.042558 0.453176 0.023801
v 0.128340 0.510694 0.124579
v 0.122430 0.508735 -0.030035
v 0.028900 0.378753 0.126022
v 0.043237 0.361314 -0.155960
v 0.042558 0.453176 0.023801
v 0.122430 0.508735 -0.030035
v 0.121632 0.432136 -0.176127
v 0.050274 0.295137 -0.188592
v 0.043237 0.361314 -0.155960
v 0.127226 0.358998 -0.205199
v 0.121632 0.432136 -0.176127
v 0.128340 0.510694 0.124579
v 0.028900 0.378753 0.126022
v 0.163675 0.392046 0.225005
v 0.094004 0.270783 0.213678
v 0.163675 0.392046 0.225005
v 0.094004 0.270783 0.213678
v 0.191623 0.246779 0.234736
v 0.129479 0.158815 0.233800
v -0.144127 -0.363170 -0.017338
v -0.088128 -0.258675 -0.082812
v -0.093081 -0.378658 -0.072228
v -0.142867 -0.240557 -0.020386
v -0.116606 -0.477655 -0.061272
v -0.025030 -0.399042 -0.071931
v -0.047916 -0.493950 -0.052840
v -0.093081 -0.378658 -0.072228
v -0.142867 -0.240557 -0.020386
v -0.158061 -0.356759 0.066920
v -0.141107 -0.228728 0.066534
v -0.144127 -0.363170 -0.017338
v 0.002186 -0.254848 0.171309
v -0.090707 -0.359310 0.150789
v -0.047068 -0.373276 0.151123
v -0.062279 -0.232236 0.170730
v -0.047068 -0.373276 0.151123
v 0.046752 -0.277568 0.132572
v 0.002186 -0.254848 0.171309
v -0.006425 -0.390823 0.123985
v 0.071589 -0.296554 -0.008400
v -0.025030 -0.399042 -0.071931
v 0.022656 -0.282591 -0.083372
v 0.012000 -0.410680 -0.010857
v -0.090707 -0.359310 0.150789
v -0.062279 -0.232236 0.170730
v -0.130162 -0.352368 0.122529
v -0.110037 -0.222256 0.133098
v 0.022656 -0.282591 -0.083372
v -0.093081 -0.378658 -0.072228
v -0.088128 -0.258675 -0.082812
v -0.025030 -0.399042 -0.071931
v -0.130162 -0.352368 0.122529
v -0.141107 -0.228728 0.066534
v -0.158061 -0.356759 0.066920
v -0.110037 -0.222256 0.133098
v 0.043237 0.361314 -0.155960
v -0.061948 0.105355 -0.040659
v -0.048889 0.133365 0.055598
v 0.042558 0.453176 0.023801
v 0.012000 -0.410680 -0.010857
v 0.071589 -0.296554 -0.008400
v 0.023102 -0.410215 0.064197
v 0.068219 -0.292839 0.066085
v -0.045034 -0.113462 -0.078132
v 0.093396 -0.008228 -0.124232
v 0.051217 -0.139227 -0.088039
v -0.017765 0.073657 -0.100123
v 0.012000 -0.410680 -0.010857
v -0.047916 -0.493950 -0.052840
v -0.025030 -0.399042 -0.071931
v -0.015730 -0.505648 0.018137
v 0.023102 -0.410215 0.064197
v 0.068219 -0.292839 0.066085
v -0.006425 -0.390823 0.123985
v 0.046752 -0.277568 0.132572
v 0.022656 -0.282591 -0.083372
v -0.045034 -0.113462 -0.078132
v 0.051217 -0.139227 -0.088039
v -0.088128 -0.258675 -0.082812
v 0.035918 0.081030 0.192404
v -0.012238 -0.087448 0.171783
v 0.073658 0.019905 0.194801
v 0.034836 -0.119982 0.168709
v -0.062279 -0.232236 0.170730
v 0.034836 -0.119982 0.168709
v -0.012238 -0.087448 0.171783
v 0.002186 -0.254848 0.171309
v -0.017765 0.073657 -0.100123
v -0.045034 -0.113462 -0.078132
v -0.096102 -0.097348 -0.020042
v -0.061948 0.105355 -0.040659
v 0.050274 0.295137 -0.188592
v -0.017765 0.073657 -0.100123
v -0.061948 0.105355 -0.040659
v 0.043237 0.361314 -0.155960
v 0.169242 0.057461 -0.063708
v 0.093396 -0.008228 -0.124232
v 0.122005 0.146786 -0.164352
v 0.143419 -0.039824 -0.025598
v -0.045034 -0.113462 -0.078132
v -0.088128 -0.258675 -0.082812
v -0.142867 -0.240557 -0.020386
v -0.096102 -0.097348 -0.020042
v 0.094004 0.270783 0.213678
v 0.035918 0.081030 0.192404
v 0.129479 0.158815 0.233800
v 0.073658 0.019905 0.194801
v 0.034836 -0.119982 0.168709
v 0.124578 -0.031137 0.142158
v 0.073658 0.019905 0.194801
v 0.085576 -0.150688 0.130564
v -0.053954 -0.070517 0.137527
v -0.062279 -0.232236 0.170730
v -0.012238 -0.087448 0.171783
v -0.110037 -0.222256 0.133098
v 0.002186 -0.254848 0.171309
v 0.085576 -0.150688 0.130564
v 0.034836 -0.119982 0.168709
v 0.046752 -0.277568 0.132572
v -0.053954 -0.070517 0.137527
v 0.035918 0.081030 0.192404
v -0.005240 0.124088 0.143866
v -0.012238 -0.087448 0.171783
v -0.005240 0.124088 0.143866
v 0.094004 0.270783 0.213678
v 0.028900 0.378753 0.126022
v 0.035918 0.081030 0.192404
v 0.143419 -0.039824 -0.025598
v 0.051217 -0.139227 -0.088039
v 0.093396 -0.008228 -0.124232
v 0.097545 -0.163262 -0.007711
v 0.143419 -0.039824 -0.025598
v 0.174355 0.036275 0.055498
v 0.152808 -0.039659 0.062937
v 0.169242 0.057461 -0.063708
v 0.202973 0.139990 0.161516
v 0.191623 0.246779 0.234736
v 0.129479 0.158815 0.233800
v 0.173796 0.069151 0.158053
v -0.116606 -0.477655 -0.061272
v -0.144127 -0.363170 -0.017338
v -0.093081 -0.378658 -0.072228
v -0.184857 -0.461042 -0.013636
v 0.152808 -0.039659 0.062937
v 0.085576 -0.150688 0.130564
v 0.102548 -0.167240 0.066548
v 0.124578 -0.031137 0.142158
v -0.048889 0.133365 0.055598
v 0.028900 0.378753 0.126022
v 0.042558 0.453176 0.023801
v -0.005240 0.124088 0.143866
v 0.097545 -0.163262 -0.007711
v 0.022656 -0.282591 -0.083372
v 0.051217 -0.139227 -0.088039
v 0.071589 -0.296554 -0.008400
v 0.200922 0.127451 0.015279
v 0.173796 0.069151 0.158053
v 0.174355 0.036275 0.055498
v 0.202973 0.139990 0.161516
v 0.050274 0.295137 -0.188592
v 0.142568 0.225322 -0.234736
v 0.122005 0.146786 -0.164352
v 0.127226 0.358998 -0.205199
v 0.102548 -0.167240 0.066548
v 0.046752 -0.277568 0.132572
v 0.068219 -0.292839 0.066085
v 0.085576 -0.150688 0.130564
v -0.048889 0.133365 0.055598
v -0.087968 -0.081105 0.064939
v -0.053954 -0.070517 0.137527
v -0.005240 0.124088 0.143866
v 0.143419 -0.039824 -0.025598
v 0.152808 -0.039659 0.062937
v 0.097545 -0.163262 -0.007711
v 0.102548 -0.167240 0.066548
v 0.122005 0.146786 -0.164352
v 0.093396 -0.008228 -0.124232
v -0.017765 0.073657 -0.100123
v 0.050274 0.295137 -0.188592
v -0.087968 -0.081105 0.064939
v -0.061948 0.105355 -0.040659
v -0.096102 -0.097348 -0.020042
v -0.048889 0.133365 0.055598
v -0.015730 -0.505648 0.018137
v 0.023102 -0.410215 0.064197
v -0.008225 -0.510694 0.087301
v 0.012000 -0.410680 -0.010857
v -0.096102 -0.097348 -0.020042
v -0.141107 -0.228728 0.066534
v -0.087968 -0.081105 0.064939
v -0.142867 -0.240557 -0.020386
v -0.087968 -0.081105 0.064939
v -0.141107 -0.228728 0.066534
v -0.110037 -0.222256 0.133098
v -0.053954 -0.070517 0.137527
v 0.200922 0.127451 0.015279
v 0.169242 0.057461 -0.063708
v 0.198081 0.146022 -0.136321
v 0.174355 0.036275 0.055498
v 0.129479 0.158815 0.233800
v 0.073658 0.019905 0.194801
v 0.173796 0.069151 0.158053
v 0.124578 -0.031137 0.142158
v 0.174355 0.036275 0.055498
v 0.124578 -0.031137 0.142158
v 0.152808 -0.039659 0.062937
v 0.173796 0.069151 0.158053
v 0.102548 -0.167240 0.066548
v 0.068219 -0.292839 0.066085
v 0.097545 -0.163262 -0.007711
v 0.071589 -0.296554 -0.008400
v -0.080667 -0.488824 0.161384
v -0.090707 -0.359310 0.150789
v -0.128318 -0.475228 0.157241
v -0.047068 -0.373276 0.151123
v -0.128318 -0.475228 0.157241
v -0.130162 -0.352368 0.122529
v -0.168523 -0.463594 0.127697
v -0.090707 -0.359310 0.150789
v -0.080667 -0.488824 0.161384
v -0.006425 -0.390823 0.123985
v -0.047068 -0.373276 0.151123
v -0.035152 -0.502092 0.140033
v -0.008225 -0.510694 0.087301
v 0.023102 -0.410215 0.064197
v -0.035152 -0.502092 0.140033
v -0.006425 -0.390823 0.123985
v -0.202973 -0.453949 0.076510
v -0.130162 -0.352368 0.122529
v -0.158061 -0.356759 0.066920
v -0.168523 -0.463594 0.127697
v -0.144127 -0.363170 -0.017338
v -0.202973 -0.453949 0.076510
v -0.158061 -0.356759 0.066920
v -0.184857 -0.461042 -0.013636
v 0.122005 0.146786 -0.164352
v 0.198081 0.146022 -0.136321
v 0.169242 0.057461 -0.063708
v 0.142568 0.225322 -0.234736
vt 4.317513 3.462179
vt 4.249259 3.511224
vt 4.249259 3.462179
vt 4.317513 3.511224
vt 4.317513 3.414271
vt 4.317513 3.462179
vt 4.249259 3.462179
vt 4.249259 3.401921
vt 4.317513 3.344108
vt 4.317513 3.414271
vt 4.249259 3.343375
vt 4.249259 3.401921
vt 4.249259 3.511224
vt 4.317513 3.511224
vt 4.249259 3.579725
vt 4.317513 3.579725
vt 4.249259 3.579725
vt 4.317513 3.579725
vt 4.249260 3.651093
vt 4.317513 3.651093
vt 4.674968 3.414270
vt 4.573396 3.344108
vt 4.674969 3.344108
vt 4.573396 3.414270
vt 4.750741 3.344108
vt 4.674968 3.273265
vt 4.750740 3.273265
vt 4.674969 3.344108
vt 4.573396 3.414270
vt 4.674968 3.462179
vt 4.573396 3.462179
vt 4.674968 3.414270
vt 4.573396 3.651094
vt 4.674969 3.579725
vt 4.674969 3.651093
vt 4.573396 3.579725
vt 4.674969 3.651093
vt 4.573396 3.682632
vt 4.573396 3.651094
vt 4.674968 3.682632
vt 4.573396 3.241194
vt 4.674968 3.273265
vt 4.573396 3.273265
vt 4.674968 3.241194
vt 4.674969 3.579725
vt 4.573396 3.579725
vt 4.674968 3.511224
vt 4.573396 3.511224
vt 4.573396 3.273265
vt 4.674969 3.344108
vt 4.573396 3.344108
vt 4.674968 3.273265
vt 4.674968 3.511224
vt 4.573396 3.462179
vt 4.674968 3.462179
vt 4.573396 3.511224
vt 4.317513 3.414271
vt 4.383102 3.414270
vt 4.383102 3.462179
vt 4.317513 3.462179
vt 4.674968 3.241194
vt 4.573396 3.241194
vt 4.674968 3.209337
vt 4.573396 3.209337
vt 4.464461 3.344108
vt 4.383102 3.273265
vt 4.464461 3.273264
vt 4.383102 3.344108
vt 4.674968 3.241194
vt 4.750740 3.273265
vt 4.674968 3.273265
vt 4.750740 3.241194
vt 4.674969 3.714510
vt 4.573396 3.714510
vt 4.674968 3.682632
vt 4.573396 3.682632
vt 4.573396 3.273265
vt 4.464461 3.344108
vt 4.464461 3.273264
vt 4.573396 3.344108
vt 4.383102 3.579725
vt 4.464461 3.579725
vt 4.383102 3.651093
vt 4.464461 3.651093
vt 4.573396 3.579725
vt 4.464461 3.651093
vt 4.464461 3.579725
vt 4.573396 3.651094
vt 4.383102 3.344108
vt 4.464461 3.344108
vt 4.464461 3.414271
vt 4.383102 3.414270
vt 4.317513 3.344108
vt 4.383102 3.344108
vt 4.383102 3.414270
vt 4.317513 3.414271
vt 4.317513 3.241285
vt 4.383102 3.273265
vt 4.317513 3.273265
vt 4.383102 3.241270
vt 4.464461 3.344108
vt 4.573396 3.344108
vt 4.573396 3.414270
vt 4.464461 3.414271
vt 4.317513 3.579725
vt 4.383102 3.579725
vt 4.317513 3.651093
vt 4.383102 3.651093
vt 4.464461 3.651093
vt 4.383102 3.682749
vt 4.383102 3.651093
vt 4.464461 3.682632
vt 4.464461 3.511224
vt 4.573396 3.579725
vt 4.464461 3.579725
vt 4.573396 3.511224
vt 4.573396 3.651094
vt 4.464461 3.682632
vt 4.464461 3.651093
vt 4.573396 3.682632
vt 4.464461 3.511224
vt 4.383102 3.579725
vt 4.383102 3.511224
vt 4.464461 3.579725
vt 4.383102 3.511224
vt 4.317513 3.579725
vt 4.317513 3.511224
vt 4.383102 3.579725
vt 4.383102 3.241270
vt 4.464461 3.273264
vt 4.383102 3.273265
vt 4.464461 3.241194
vt 4.383102 3.241270
vt 4.317512 3.209337
vt 4.383102 3.209337
vt 4.317513 3.241285
vt 4.249259 3.682803
vt 4.249260 3.651093
vt 4.317513 3.651093
vt 4.317513 3.682776
vt 4.750741 3.344108
vt 4.674968 3.414270
vt 4.674969 3.344108
vt 4.750740 3.414270
vt 4.383102 3.714510
vt 4.464461 3.682632
vt 4.464461 3.714510
vt 4.383102 3.682749
vt 4.383102 3.462179
vt 4.317513 3.511224
vt 4.317513 3.462179
vt 4.383102 3.511224
vt 4.464461 3.241194
vt 4.573396 3.273265
vt 4.464461 3.273264
vt 4.573396 3.241194
vt 4.249260 3.714511
vt 4.317513 3.682776
vt 4.317512 3.714511
vt 4.249259 3.682803
vt 4.317513 3.344108
vt 4.249260 3.273265
vt 4.317513 3.273265
vt 4.249259 3.343375
vt 4.464461 3.714510
vt 4.573396 3.682632
vt 4.573396 3.714510
vt 4.464461 3.682632
vt 4.383102 3.462179
vt 4.464461 3.462179
vt 4.464461 3.511224
vt 4.383102 3.511224
vt 4.383102 3.241270
vt 4.383102 3.209337
vt 4.464461 3.241194
vt 4.464461 3.209337
vt 4.317513 3.273265
vt 4.383102 3.273265
vt 4.383102 3.344108
vt 4.317513 3.344108
vt 4.464461 3.462179
vt 4.383102 3.414270
vt 4.464461 3.414271
vt 4.383102 3.462179
vt 4.750740 3.241194
vt 4.674968 3.209337
vt 4.750740 3.209337
vt 4.674968 3.241194
vt 4.464461 3.414271
vt 4.573396 3.462179
vt 4.464461 3.462179
vt 4.573396 3.414270
vt 4.464461 3.462179
vt 4.573396 3.462179
vt 4.573396 3.511224
vt 4.464461 3.511224
vt 4.249260 3.209337
vt 4.317513 3.241285
vt 4.249259 3.241301
vt 4.317512 3.209337
vt 4.317513 3.651093
vt 4.383102 3.651093
vt 4.317513 3.682776
vt 4.383102 3.682749
vt 4.317512 3.714511
vt 4.383102 3.682749
vt 4.383102 3.714510
vt 4.317513 3.682776
vt 4.464461 3.209337
vt 4.573396 3.209337
vt 4.464461 3.241194
vt 4.573396 3.241194
vt 4.750741 3.651093
vt 4.674969 3.579725
vt 4.750740 3.579725
vt 4.674969 3.651093
vt 4.750740 3.579725
vt 4.674968 3.511224
vt 4.750740 3.511224
vt 4.674969 3.579725
vt 4.750741 3.651093
vt 4.674968 3.682632
vt 4.674969 3.651093
vt 4.750740 3.682632
vt 4.750741 3.714510
vt 4.674969 3.714510
vt 4.750740 3.682632
vt 4.674968 3.682632
vt 4.750740 3.462179
vt 4.674968 3.511224
vt 4.674968 3.462179
vt 4.750740 3.511224
vt 4.674968 3.414270
vt 4.750740 3.462179
vt 4.674968 3.462179
vt 4.750740 3.414270
vt 4.317513 3.273265
vt 4.249259 3.241301
vt 4.317513 3.241285
vt 4.249260 3.273265
vn -0.684189 0.707037 0.178844
vn -0.684189 0.707037 0.178843
vn -0.684189 0.707037 0.178844
vn -0.684189 0.707037 0.178844
vn -0.678669 0.652517 -0.337091
vn -0.678669 0.652517 -0.337091
vn -0.678669 0.652517 -0.337091
vn -0.678669 0.652517 -0.337091
vn -0.472422 0.320761 -0.820933
vn -0.472422 0.320761 -0.820933
vn -0.472422 0.320761 -0.820933
vn -0.472422 0.320761 -0.820933
vn -0.575748 0.355796 0.736155
vn -0.575748 0.355796 0.736155
vn -0.575748 0.355796 0.736155
vn -0.575748 0.355796 0.736155
vn -0.194997 0.065492 0.978615
vn -0.194997 0.065492 0.978615
vn -0.194997 0.065492 0.978615
vn -0.194997 0.065493 0.978615
vn -0.745149 -0.018374 -0.666645
vn -0.745149 -0.018374 -0.666645
vn -0.745149 -0.018374 -0.666645
vn -0.745149 -0.018374 -0.666645
vn 0.020662 -0.157926 -0.987235
vn 0.020662 -0.157926 -0.987235
vn 0.020662 -0.157926 -0.987235
vn 0.020662 -0.157926 -0.987235
vn -0.994385 0.071188 -0.078301
vn -0.994385 0.071188 -0.078301
vn -0.994385 0.071188 -0.078301
vn -0.994385 0.071188 -0.078301
vn -0.056898 -0.143488 0.988015
vn -0.056898 -0.143488 0.988015
vn -0.056898 -0.143488 0.988015
vn -0.056898 -0.143488 0.988015
vn 0.482855 -0.314955 0.817101
vn 0.482855 -0.314955 0.817101
vn 0.482855 -0.314955 0.817101
vn 0.482855 -0.314955 0.817101
vn 0.751906 -0.371060 -0.544933
vn 0.751906 -0.371060 -0.544932
vn 0.751906 -0.371060 -0.544932
vn 0.751906 -0.371060 -0.544933
vn -0.600428 0.018507 0.799464
vn -0.600428 0.018507 0.799464
vn -0.600428 0.018507 0.799464
vn -0.600428 0.018507 0.799464
vn -0.023165 -0.087613 -0.995885
vn -0.023165 -0.087613 -0.995885
vn -0.023165 -0.087613 -0.995885
vn -0.023165 -0.087613 -0.995885
vn -0.898756 0.112377 0.423803
vn -0.898756 0.112377 0.423803
vn -0.898756 0.112377 0.423803
vn -0.898756 0.112377 0.423803
vn -0.949321 0.301617 -0.088409
vn -0.949321 0.301617 -0.088409
vn -0.949321 0.301617 -0.088409
vn -0.949321 0.301617 -0.088409
vn 0.910811 -0.411286 -0.035598
vn 0.910811 -0.411286 -0.035598
vn 0.910811 -0.411286 -0.035598
vn 0.910811 -0.411286 -0.035598
vn -0.224676 -0.127636 -0.966038
vn -0.224676 -0.127636 -0.966038
vn -0.224676 -0.127636 -0.966038
vn -0.224676 -0.127636 -0.966038
vn 0.807824 -0.337683 -0.483106
vn 0.807824 -0.337683 -0.483106
vn 0.807824 -0.337683 -0.483106
vn 0.807824 -0.337683 -0.483106
vn 0.821777 -0.369927 0.433400
vn 0.821777 -0.369927 0.433400
vn 0.821777 -0.369927 0.433400
vn 0.821777 -0.369927 0.433400
vn -0.047645 0.011872 -0.998794
vn -0.047645 0.011872 -0.998794
vn -0.047645 0.011872 -0.998794
vn -0.047645 0.011872 -0.998794
vn -0.119779 -0.115586 0.986049
vn -0.119779 -0.115586 0.986049
vn -0.119779 -0.115586 0.986049
vn -0.119779 -0.115586 0.986049
vn 0.021898 -0.000946 0.999760
vn 0.021898 -0.000946 0.999760
vn 0.021898 -0.000946 0.999760
vn 0.021898 -0.000946 0.999760
vn -0.765803 0.050593 -0.641082
vn -0.765803 0.050593 -0.641082
vn -0.765803 0.050593 -0.641082
vn -0.765803 0.050593 -0.641082
vn -0.837063 0.072242 -0.542316
vn -0.837063 0.072242 -0.542316
vn -0.837063 0.072242 -0.542316
vn -0.837063 0.072242 -0.542316
vn 0.748330 -0.338354 -0.570542
vn 0.748330 -0.338354 -0.570542
vn 0.748330 -0.338354 -0.570542
vn 0.748330 -0.338354 -0.570542
vn -0.698224 0.229348 -0.678146
vn -0.698224 0.229348 -0.678146
vn -0.698224 0.229348 -0.678146
vn -0.698224 0.229348 -0.678146
vn -0.376974 -0.039056 0.925400
vn -0.376974 -0.039056 0.925400
vn -0.376974 -0.039056 0.925400
vn -0.376974 -0.039056 0.925400
vn 0.510306 -0.271608 0.815976
vn 0.510306 -0.271608 0.815976
vn 0.510306 -0.271608 0.815976
vn 0.510306 -0.271608 0.815976
vn -0.578788 0.192495 0.792433
vn -0.578788 0.192495 0.792433
vn -0.578788 0.192495 0.792433
vn -0.578788 0.192495 0.792433
vn 0.572061 -0.141990 0.807827
vn 0.572061 -0.141990 0.807827
vn 0.572061 -0.141990 0.807827
vn 0.572061 -0.141990 0.807827
vn -0.656853 0.119974 0.744413
vn -0.656853 0.119974 0.744413
vn -0.656853 0.119974 0.744413
vn -0.656853 0.119974 0.744413
vn -0.699545 0.139761 0.700788
vn -0.699545 0.139761 0.700788
vn -0.699545 0.139761 0.700788
vn -0.699545 0.139761 0.700788
vn 0.762151 -0.375808 -0.527156
vn 0.762151 -0.375808 -0.527156
vn 0.762151 -0.375808 -0.527156
vn 0.762151 -0.375808 -0.527156
vn 0.953504 -0.285855 -0.095486
vn 0.953504 -0.285855 -0.095486
vn 0.953504 -0.285855 -0.095486
vn 0.953504 -0.285855 -0.095486
vn 0.603052 -0.366411 0.708570
vn 0.603052 -0.366411 0.708570
vn 0.603052 -0.366411 0.708570
vn 0.603052 -0.366411 0.708570
vn -0.621984 0.145723 -0.769351
vn -0.621984 0.145723 -0.769351
vn -0.621984 0.145723 -0.769351
vn -0.621984 0.145723 -0.769351
vn 0.882290 -0.329534 0.336113
vn 0.882290 -0.329534 0.336113
vn 0.882290 -0.329534 0.336113
vn 0.882290 -0.329534 0.336113
vn -0.941680 0.227305 0.248137
vn -0.941680 0.227305 0.248137
vn -0.941680 0.227305 0.248137
vn -0.941680 0.227305 0.248137
vn 0.821021 -0.169624 -0.545117
vn 0.821021 -0.169624 -0.545117
vn 0.821021 -0.169624 -0.545117
vn 0.821021 -0.169624 -0.545117
vn 0.947881 -0.314402 0.051704
vn 0.947881 -0.314402 0.051704
vn 0.947881 -0.314402 0.051704
vn 0.947881 -0.314402 0.051704
vn -0.529438 -0.147768 -0.835380
vn -0.529438 -0.147768 -0.835380
vn -0.529438 -0.147768 -0.835380
vn -0.529438 -0.147768 -0.835380
vn 0.906982 -0.260763 0.330735
vn 0.906982 -0.260763 0.330735
vn 0.906982 -0.260763 0.330735
vn 0.906982 -0.260763 0.330735
vn -0.884238 0.192888 0.425345
vn -0.884238 0.192889 0.425345
vn -0.884238 0.192888 0.425345
vn -0.884238 0.192888 0.425345
vn 0.927413 -0.362929 -0.090490
vn 0.927413 -0.362929 -0.090490
vn 0.927413 -0.362928 -0.090490
vn 0.927413 -0.362929 -0.090490
vn -0.299666 -0.238571 -0.923734
vn -0.299666 -0.238571 -0.923734
vn -0.299666 -0.238571 -0.923734
vn -0.299666 -0.238571 -0.923734
vn -0.981536 0.177433 0.071450
vn -0.981536 0.177433 0.071450
vn -0.981536 0.177433 0.071450
vn -0.981536 0.177433 0.071450
vn 0.938748 -0.318637 -0.131238
vn 0.938748 -0.318637 -0.131238
vn 0.938748 -0.318637 -0.131238
vn 0.938748 -0.318637 -0.131238
vn -0.945753 0.324885 0.001382
vn -0.945753 0.324885 0.001382
vn -0.945753 0.324885 0.001382
vn -0.945753 0.324885 0.001382
vn -0.873859 0.315326 0.370054
vn -0.873859 0.315326 0.370054
vn -0.873859 0.315326 0.370054
vn -0.873859 0.315326 0.370054
vn 0.938125 -0.337602 -0.077116
vn 0.938125 -0.337602 -0.077116
vn 0.938125 -0.337602 -0.077116
vn 0.938125 -0.337602 -0.077116
vn 0.480418 -0.391114 0.785002
vn 0.480418 -0.391114 0.785002
vn 0.480418 -0.391114 0.785002
vn 0.480418 -0.391114 0.785002
vn 0.899867 -0.372260 0.227290
vn 0.899867 -0.372260 0.227290
vn 0.899867 -0.372260 0.227290
vn 0.899867 -0.372260 0.227290
vn 0.973895 -0.226729 -0.011098
vn 0.973895 -0.226729 -0.011098
vn 0.973895 -0.226729 -0.011098
vn 0.973895 -0.226729 -0.011098
vn -0.024853 0.079600 0.996517
vn -0.024853 0.079600 0.996517
vn -0.024853 0.079600 0.996517
vn -0.024853 0.079600 0.996517
vn -0.538310 0.221639 0.813080
vn -0.538310 0.221639 0.813080
vn -0.538310 0.221639 0.813080
vn -0.538310 0.221639 0.813080
vn 0.481829 -0.030822 0.875723
vn 0.481829 -0.030822 0.875723
vn 0.481829 -0.030822 0.875723
vn 0.481829 -0.030822 0.875723
vn 0.866260 -0.158048 0.473935
vn 0.866260 -0.158048 0.473935
vn 0.866260 -0.158048 0.473935
vn 0.866260 -0.158048 0.473935
vn -0.800005 0.353947 0.484473
vn -0.800005 0.353947 0.484473
vn -0.800005 0.353947 0.484473
vn -0.800005 0.353947 0.484473
vn -0.902791 0.383046 -0.195564
vn -0.902791 0.383045 -0.195564
vn -0.902791 0.383046 -0.195564
vn -0.902791 0.383046 -0.195564
vn 0.250361 -0.671147 -0.697769
vn 0.250361 -0.671147 -0.697769
vn 0.250361 -0.671147 -0.697769
vn 0.250361 -0.671147 -0.697769
f 1/1/1 2/2/2 3/3/3
f 2/2/2 1/1/1 4/4/4
f 5/5/5 6/6/6 7/7/7
f 5/5/5 7/7/7 8/8/8
f 9/9/9 10/10/10 11/11/11
f 10/10/10 12/12/12 11/11/11
f 13/13/13 14/14/14 15/15/15
f 15/15/15 14/14/14 16/16/16
f 17/17/17 18/18/18 19/19/19
f 19/19/19 18/18/18 20/20/20
f 21/21/21 22/22/22 23/23/23
f 22/22/22 21/21/21 24/24/24
f 25/25/25 26/26/26 27/27/27
f 26/26/26 25/25/25 28/28/28
f 29/29/29 30/30/30 31/31/31
f 30/30/30 29/29/29 32/32/32
f 33/33/33 34/34/34 35/35/35
f 34/34/34 33/33/33 36/36/36
f 37/37/37 38/38/38 39/39/39
f 38/38/38 37/37/37 40/40/40
f 41/41/41 42/42/42 43/43/43
f 42/42/42 41/41/41 44/44/44
f 45/45/45 46/46/46 47/47/47
f 47/47/47 46/46/46 48/48/48
f 49/49/49 50/50/50 51/51/51
f 50/50/50 49/49/49 52/52/52
f 53/53/53 54/54/54 55/55/55
f 54/54/54 53/53/53 56/56/56
f 57/57/57 58/58/58 59/59/59
f 59/59/59 60/60/60 57/57/57
f 61/61/61 62/62/62 63/63/63
f 62/62/62 64/64/64 63/63/63
f 65/65/65 66/66/66 67/67/67
f 66/66/66 65/65/65 68/68/68
f 69/69/69 70/70/70 71/71/71
f 70/70/70 69/69/69 72/72/72
f 73/73/73 74/74/74 75/75/75
f 74/74/74 76/76/76 75/75/75
f 77/77/77 78/78/78 79/79/79
f 78/78/78 77/77/77 80/80/80
f 81/81/81 82/82/82 83/83/83
f 83/83/83 82/82/82 84/84/84
f 85/85/85 86/86/86 87/87/87
f 86/86/86 85/85/85 88/88/88
f 89/89/89 90/90/90 91/91/91
f 91/91/91 92/92/92 89/89/89
f 93/93/93 94/94/94 95/95/95
f 95/95/95 96/96/96 93/93/93
f 97/97/97 98/98/98 99/99/99
f 98/98/98 97/97/97 100/100/100
f 101/101/101 102/102/102 103/103/103
f 103/103/103 104/104/104 101/101/101
f 105/105/105 106/106/106 107/107/107
f 107/107/107 106/106/106 108/108/108
f 109/109/109 110/110/110 111/111/111
f 110/110/110 109/109/109 112/112/112
f 113/113/113 114/114/114 115/115/115
f 114/114/114 113/113/113 116/116/116
f 117/117/117 118/118/118 119/119/119
f 118/118/118 117/117/117 120/120/120
f 121/121/121 122/122/122 123/123/123
f 122/122/122 121/121/121 124/124/124
f 125/125/125 126/126/126 127/127/127
f 126/126/126 125/125/125 128/128/128
f 129/129/129 130/130/130 131/131/131
f 130/130/130 129/129/129 132/132/132
f 133/133/133 134/134/134 135/135/135
f 134/134/134 133/133/133 136/136/136
f 137/137/137 138/138/138 139/139/139
f 139/139/139 140/140/140 137/137/137
f 141/141/141 142/142/142 143/143/143
f 142/142/142 141/141/141 144/144/144
f 145/145/145 146/146/146 147/147/147
f 146/146/146 145/145/145 148/148/148
f 149/149/149 150/150/150 151/151/151
f 150/150/150 149/149/149 152/152/152
f 153/153/153 154/154/154 155/155/155
f 154/154/154 153/153/153 156/156/156
f 157/157/157 158/158/158 159/159/159
f 158/158/158 157/157/157 160/160/160
f 161/161/161 162/162/162 163/163/163
f 162/162/162 161/161/161 164/164/164
f 165/165/165 166/166/166 167/167/167
f 166/166/166 165/165/165 168/168/168
f 169/169/169 170/170/170 171/171/171
f 169/169/169 171/171/171 172/172/172
f 173/173/173 174/174/174 175/175/175
f 175/175/175 174/174/174 176/176/176
f 177/177/177 178/178/178 179/179/179
f 179/179/179 180/180/180 177/177/177
f 181/181/181 182/182/182 183/183/183
f 182/182/182 181/181/181 184/184/184
f 185/185/185 186/186/186 187/187/187
f 186/186/186 185/185/185 188/188/188
f 189/189/189 190/190/190 191/191/191
f 190/190/190 189/189/189 192/192/192
f 193/193/193 194/194/194 195/195/195
f 193/193/193 195/195/195 196/196/196
f 197/197/197 198/198/198 199/199/199
f 198/198/198 197/197/197 200/200/200
f 201/201/201 202/202/202 203/203/203
f 202/202/202 204/204/204 203/203/203
f 205/205/205 206/206/206 207/207/207
f 206/206/206 205/205/205 208/208/208
f 209/209/209 210/210/210 211/211/211
f 212/212/212 211/211/211 210/210/210
f 213/213/213 214/214/214 215/215/215
f 214/214/214 213/213/213 216/216/216
f 217/217/217 218/218/218 219/219/219
f 218/218/218 217/217/217 220/220/220
f 221/221/221 222/222/222 223/223/223
f 222/222/222 221/221/221 224/224/224
f 225/225/225 226/226/226 227/227/227
f 226/226/226 228/228/228 227/227/227
f 229/229/229 230/230/230 231/231/231
f 230/230/230 229/229/229 232/232/232
f 233/233/233 234/234/234 235/235/235
f 234/234/234 233/233/233 236/236/236
f 237/237/237 238/238/238 239/239/239
f 238/238/238 237/237/237 240/240/240
