# Generated from Roblox mesh JSON (v2.00)
# Hello from RBX_Toolbox ;)
o LeftHandWrapTarget
v 0.160372 0.268925 -0.056860
v 0.084457 0.157703 -0.181607
v 0.033458 0.218963 -0.108754
v -0.077257 0.158015 -0.121793
v 0.216821 0.197590 -0.174404
v 0.042271 0.024692 -0.133065
v 0.076953 0.092914 -0.292009
v 0.065150 0.000141 -0.221295
v 0.082379 -0.041297 -0.314056
v 0.093713 -0.002767 -0.368932
v 0.141768 0.021013 -0.402050
v 0.184026 0.117495 -0.338572
v 0.306066 0.062851 -0.147681
v 0.251580 0.026779 -0.300052
v 0.191351 -0.042395 -0.374108
v 0.093713 -0.002767 -0.368932
v 0.082379 -0.041297 -0.314056
v 0.187744 -0.070774 -0.317710
v 0.191807 -0.055974 -0.165538
v 0.294812 -0.008712 -0.015768
v 0.082379 -0.041297 -0.314056
v 0.168264 -0.032144 -0.040699
v 0.065150 0.000141 -0.221295
v 0.042271 0.024692 -0.133065
v -0.060256 0.034426 0.392327
v 0.156007 -0.065236 0.375988
v 0.061407 0.095139 0.402050
v 0.198264 0.149765 0.376140
v 0.260578 -0.004459 0.362500
v 0.374030 0.075892 0.312060
v 0.325728 0.186550 0.316411
v 0.036162 -0.121179 0.364684
v 0.004639 0.199452 0.270030
v 0.139767 0.251123 0.266754
v 0.295229 0.265829 0.246608
v 0.278098 0.304673 0.138432
v 0.129612 0.299117 0.104718
v 0.310069 0.277888 0.040560
v 0.160372 0.268925 -0.056860
v 0.350158 0.202927 -0.022485
v 0.216821 0.197590 -0.174404
v 0.392756 0.094269 -0.005768
v 0.306066 0.062851 -0.147681
v 0.294812 -0.008712 -0.015768
v 0.398450 0.033335 0.062980
v -0.011864 0.249145 0.081361
v 0.033458 0.218963 -0.108754
v -0.131120 0.121506 0.246443
v -0.129366 0.173169 0.059520
v -0.077257 0.158015 -0.121793
v -0.189019 -0.099106 0.359941
v -0.089473 -0.222446 0.323014
v -0.264215 -0.016410 0.210099
v -0.303677 -0.229239 0.282615
v -0.205547 -0.304673 0.271966
v -0.260801 0.048160 0.037735
v -0.382972 -0.205267 0.161250
v -0.265094 -0.284605 0.133639
v -0.205547 -0.304673 0.271966
v -0.300334 -0.234527 -0.023718
v -0.398450 -0.153943 -0.009054
v -0.359749 -0.084009 -0.136495
v -0.266299 -0.162834 -0.163155
v -0.234923 0.037910 -0.130829
v -0.266299 -0.162834 -0.163155
v -0.124388 -0.063108 -0.144802
v 0.042271 0.024692 -0.133065
v -0.110743 -0.125352 0.015012
v -0.300334 -0.234527 -0.023718
v -0.265094 -0.284605 0.133639
v 0.026426 -0.055634 0.015613
v -0.093569 -0.193767 0.167064
v -0.205547 -0.304673 0.271966
v 0.168264 -0.032144 -0.040699
v -0.089473 -0.222446 0.323014
v 0.046918 -0.119288 0.211962
v 0.036162 -0.121179 0.364684
v 0.160310 -0.059152 0.082719
v 0.168108 -0.097075 0.235069
v 0.156007 -0.065236 0.375988
v 0.276793 -0.050146 0.120952
v 0.391950 -0.000918 0.143343
v 0.281426 -0.056858 0.238964
v 0.260578 -0.004459 0.362500
v 0.392443 0.015458 0.235934
v 0.374030 0.075892 0.312060
vt 6.552293 3.950107
vt 6.573895 3.887921
vt 6.573895 3.909998
vt 6.595818 3.948965
vt 6.536948 3.909998
vt 6.610842 3.909998
vt 6.573895 3.848419
vt 6.610842 3.848419
vt 6.610842 3.799157
vt 6.573895 3.799157
vt 6.536948 3.799157
vt 6.536947 3.848419
vt 6.500000 3.909998
vt 6.500000 3.848419
vt 6.500000 3.799157
vt 6.536947 3.762209
vt 6.500000 3.749893
vt 6.463053 3.799157
vt 6.463053 3.848419
vt 6.463053 3.909998
vt 6.389158 3.799156
vt 6.425591 3.910355
vt 6.389158 3.848419
vt 6.389158 3.909998
vt 6.500000 3.610332
vt 6.456269 3.699005
vt 6.456269 3.610332
vt 6.412539 3.610332
vt 6.412539 3.699005
vt 6.333029 3.699005
vt 6.333029 3.599324
vt 6.500000 3.699005
vt 6.455314 3.576329
vt 6.412539 3.580288
vt 6.333029 3.572104
vt 6.333029 3.530821
vt 6.412539 3.547842
vt 6.333029 3.482428
vt 6.412539 3.505410
vt 6.333029 3.414663
vt 6.412539 3.419507
vt 6.333029 3.352427
vt 6.398891 3.352426
vt 6.412539 3.320622
vt 6.333029 3.320637
vt 6.454282 3.539610
vt 6.492049 3.452422
vt 6.498089 3.572372
vt 6.496024 3.531377
vt 6.514695 3.452105
vt 6.571560 3.610332
vt 6.571560 3.699005
vt 6.571560 3.570577
vt 6.619266 3.610332
vt 6.619266 3.699005
vt 6.571560 3.530821
vt 6.619266 3.570577
vt 6.666971 3.570577
vt 6.666971 3.610332
vt 6.666971 3.530821
vt 6.619266 3.530821
vt 6.619266 3.451311
vt 6.666971 3.451311
vt 6.571560 3.451311
vt 6.619266 3.352426
vt 6.571560 3.352426
vt 6.505776 3.352882
vt 6.571560 3.280882
vt 6.619266 3.280882
vt 6.619266 3.245110
vt 6.502889 3.281110
vt 6.571560 3.245110
vt 6.619266 3.209338
vt 6.472491 3.322502
vt 6.571560 3.209337
vt 6.501444 3.245224
vt 6.500000 3.209337
vt 6.483845 3.275795
vt 6.470057 3.242566
vt 6.456269 3.209337
vt 6.412539 3.288847
vt 6.333029 3.288847
vt 6.412539 3.266474
vt 6.412539 3.209338
vt 6.333029 3.265375
vt 6.333029 3.209337
vn -0.003244 0.923074 -0.384608
vn -0.463053 0.621635 -0.631785
vn -0.271977 0.828398 -0.489679
vn -0.420203 0.581242 -0.696841
vn 0.337259 0.776747 -0.531903
vn -0.392016 -0.665419 -0.635249
vn -0.786291 0.459569 -0.412969
vn -0.857673 -0.514107 -0.009536
vn -0.730505 -0.653763 -0.197376
vn -0.718596 -0.212663 -0.662114
vn -0.068858 0.115525 -0.990915
vn 0.247717 0.680935 -0.689176
vn 0.895264 -0.145124 -0.421238
vn 0.912813 -0.090109 -0.398313
vn 0.406642 -0.541710 -0.735658
vn -0.718596 -0.212663 -0.662114
vn -0.730505 -0.653763 -0.197376
vn 0.311128 -0.935250 -0.168840
vn 0.168961 -0.984590 0.045099
vn 0.495141 -0.835606 -0.237903
vn -0.730505 -0.653763 -0.197376
vn 0.002468 -0.995020 -0.099645
vn -0.857673 -0.514107 -0.009536
vn -0.392016 -0.665419 -0.635249
vn -0.335345 0.254237 0.907142
vn 0.291415 -0.571576 0.767058
vn -0.100821 0.332473 0.937708
vn 0.118007 0.417737 0.900872
vn 0.437123 -0.396588 0.807243
vn 0.538709 -0.222512 0.812577
vn 0.236414 0.457889 0.856998
vn 0.246506 -0.661488 0.708285
vn -0.387236 0.783625 0.485778
vn -0.163100 0.836753 0.522727
vn -0.004169 0.822748 0.568391
vn -0.030490 0.998143 0.052732
vn -0.187395 0.981907 0.027221
vn 0.190757 0.890611 -0.412824
vn -0.003244 0.923074 -0.384608
vn 0.593166 0.509188 -0.623604
vn 0.337259 0.776747 -0.531903
vn 0.782584 -0.276218 -0.557912
vn 0.895264 -0.145124 -0.421238
vn 0.495141 -0.835606 -0.237903
vn 0.543623 -0.748197 -0.380363
vn -0.438431 0.898738 0.006941
vn -0.271977 0.828398 -0.489679
vn -0.621352 0.665753 0.413152
vn -0.618172 0.785866 -0.016686
vn -0.420203 0.581242 -0.696841
vn -0.456113 0.048474 0.888601
vn 0.316367 -0.769530 0.554740
vn -0.770442 0.505107 0.388954
vn -0.674091 -0.339311 0.656101
vn 0.037990 -0.929536 0.366768
vn -0.741450 0.669213 0.049050
vn -0.936277 -0.255369 0.241187
vn -0.071184 -0.979595 -0.187956
vn 0.037990 -0.929536 0.366768
vn -0.134321 -0.910840 -0.390292
vn -0.979426 -0.135996 -0.149098
vn -0.769135 0.146495 -0.622069
vn -0.013089 -0.565879 -0.824385
vn -0.431186 0.567679 -0.701298
vn -0.013089 -0.565879 -0.824385
vn 0.319190 -0.403741 -0.857386
vn -0.392016 -0.665419 -0.635249
vn 0.475961 -0.796045 -0.373864
vn -0.134321 -0.910840 -0.390292
vn -0.071184 -0.979595 -0.187956
vn 0.266824 -0.888105 -0.374266
vn 0.510563 -0.806971 -0.296855
vn 0.037990 -0.929536 0.366768
vn 0.002468 -0.995020 -0.099645
vn 0.316367 -0.769530 0.554740
vn 0.372813 -0.912747 -0.167040
vn 0.246506 -0.661488 0.708285
vn 0.153509 -0.955680 -0.251219
vn 0.273338 -0.961896 -0.006485
vn 0.291415 -0.571576 0.767058
vn 0.314544 -0.930017 -0.190078
vn 0.464240 -0.876035 -0.130554
vn 0.437273 -0.882454 0.173401
vn 0.437123 -0.396588 0.807243
vn 0.573200 -0.744480 0.342332
vn 0.538709 -0.222512 0.812577
f 1/1/1 2/2/2 3/3/3
f 2/2/2 4/4/4 3/3/3
f 2/2/2 1/1/1 5/5/5
f 4/4/4 2/2/2 6/6/6
f 7/7/7 6/6/6 2/2/2
f 6/6/6 7/7/7 8/8/8
f 9/9/9 8/8/8 7/7/7
f 7/7/7 10/10/10 9/9/9
f 7/7/7 11/11/11 10/10/10
f 12/12/12 2/2/2 5/5/5
f 2/2/2 12/12/12 7/7/7
f 11/11/11 7/7/7 12/12/12
f 12/12/12 5/5/5 13/13/13
f 11/11/11 12/12/12 14/14/14
f 13/13/13 14/14/14 12/12/12
f 14/14/14 15/15/15 11/11/11
f 11/11/11 15/15/15 16/16/16
f 17/17/17 16/16/16 15/15/15
f 18/18/18 17/17/17 15/15/15
f 14/14/14 18/18/18 15/15/15
f 13/13/13 19/19/19 14/14/14
f 19/19/19 18/18/18 14/14/14
f 19/19/19 13/13/13 20/20/20
f 19/19/19 21/21/21 18/18/18
f 19/19/19 20/20/20 22/22/22
f 21/21/21 19/19/19 23/23/23
f 19/19/19 22/22/22 24/24/24
f 19/19/19 24/24/24 23/23/23
f 25/25/25 26/26/26 27/27/27
f 26/26/26 28/28/28 27/27/27
f 28/28/28 26/26/26 29/29/29
f 30/30/30 28/28/28 29/29/29
f 28/28/28 30/30/30 31/31/31
f 26/26/26 25/25/25 32/32/32
f 28/28/28 33/33/33 27/27/27
f 33/33/33 25/25/25 27/27/27
f 31/31/31 34/34/34 28/28/28
f 33/33/33 28/28/28 34/34/34
f 35/35/35 34/34/34 31/31/31
f 36/36/36 34/34/34 35/35/35
f 36/36/36 37/37/37 34/34/34
f 37/37/37 33/33/33 34/34/34
f 38/38/38 37/37/37 36/36/36
f 38/38/38 39/39/39 37/37/37
f 39/39/39 38/38/38 40/40/40
f 40/40/40 41/41/41 39/39/39
f 42/42/42 41/41/41 40/40/40
f 41/41/41 42/42/42 43/43/43
f 42/42/42 44/44/44 43/43/43
f 44/44/44 42/42/42 45/45/45
f 39/39/39 46/46/46 37/37/37
f 46/46/46 33/33/33 37/37/37
f 39/39/39 47/47/47 46/46/46
f 46/46/46 48/48/48 33/33/33
f 25/25/25 33/33/33 48/48/48
f 47/47/47 49/49/49 46/46/46
f 46/46/46 49/49/49 48/48/48
f 50/50/50 49/49/49 47/47/47
f 48/48/48 51/51/51 25/25/25
f 51/51/51 32/32/32 25/25/25
f 32/32/32 51/51/51 52/52/52
f 48/48/48 53/53/53 51/51/51
f 49/49/49 53/53/53 48/48/48
f 54/54/54 52/52/52 51/51/51
f 53/53/53 54/54/54 51/51/51
f 52/52/52 54/54/54 55/55/55
f 49/49/49 56/56/56 53/53/53
f 50/50/50 56/56/56 49/49/49
f 57/57/57 54/54/54 53/53/53
f 56/56/56 57/57/57 53/53/53
f 58/58/58 54/54/54 57/57/57
f 54/54/54 58/58/58 59/59/59
f 57/57/57 60/60/60 58/58/58
f 61/61/61 57/57/57 56/56/56
f 60/60/60 57/57/57 61/61/61
f 60/60/60 61/61/61 62/62/62
f 56/56/56 62/62/62 61/61/61
f 63/63/63 60/60/60 62/62/62
f 62/62/62 56/56/56 64/64/64
f 50/50/50 64/64/64 56/56/56
f 64/64/64 65/65/65 62/62/62
f 50/50/50 66/66/66 64/64/64
f 65/65/65 64/64/64 66/66/66
f 66/66/66 50/50/50 67/67/67
f 66/66/66 68/68/68 65/65/65
f 67/67/67 68/68/68 66/66/66
f 68/68/68 69/69/69 65/65/65
f 68/68/68 70/70/70 69/69/69
f 68/68/68 67/67/67 71/71/71
f 70/70/70 68/68/68 72/72/72
f 71/71/71 72/72/72 68/68/68
f 72/72/72 73/73/73 70/70/70
f 74/74/74 71/71/71 67/67/67
f 73/73/73 72/72/72 75/75/75
f 76/76/76 75/75/75 72/72/72
f 72/72/72 71/71/71 76/76/76
f 75/75/75 76/76/76 77/77/77
f 71/71/71 74/74/74 78/78/78
f 78/78/78 76/76/76 71/71/71
f 44/44/44 78/78/78 74/74/74
f 79/79/79 77/77/77 76/76/76
f 76/76/76 78/78/78 79/79/79
f 77/77/77 79/79/79 80/80/80
f 78/78/78 44/44/44 81/81/81
f 81/81/81 79/79/79 78/78/78
f 45/45/45 81/81/81 44/44/44
f 81/81/81 45/45/45 82/82/82
f 79/79/79 81/81/81 83/83/83
f 83/83/83 80/80/80 79/79/79
f 82/82/82 83/83/83 81/81/81
f 80/80/80 83/83/83 84/84/84
f 83/83/83 82/82/82 85/85/85
f 85/85/85 84/84/84 83/83/83
f 84/84/84 85/85/85 86/86/86
