# Generated from Roblox mesh JSON (v2.00)
# Hello from RBX_Toolbox ;)
o LeftFootWrapTarget
v 0.135427 0.051866 0.514023
v 0.032928 0.152095 0.407056
v -0.005086 0.055588 0.441207
v 0.133816 0.135758 0.462819
v 0.119204 -0.070734 0.548939
v -0.055878 -0.078540 0.472671
v 0.101991 -0.215530 0.524662
v -0.070952 -0.246171 0.442403
v 0.299272 -0.210370 0.481533
v 0.313928 -0.081509 0.496043
v 0.284014 0.041927 0.458892
v 0.260039 0.125117 0.428346
v 0.332191 0.115804 0.328377
v 0.370528 0.029877 0.330957
v 0.397201 -0.101160 0.340601
v 0.362110 -0.244015 0.342931
v 0.363700 -0.262555 0.156716
v -0.171474 -0.259408 0.307235
v 0.330988 -0.264498 -0.003964
v -0.255081 -0.248285 0.142545
v -0.335977 -0.223837 -0.021856
v 0.284797 -0.241925 -0.173218
v -0.380369 -0.193520 -0.178223
v 0.213487 -0.202844 -0.340486
v -0.369054 -0.138984 -0.344763
v 0.090435 -0.127841 -0.507540
v -0.286519 -0.078087 -0.482641
v -0.075788 -0.084459 -0.544925
v -0.035139 0.187737 0.179627
v -0.121066 0.083324 0.309096
v -0.024633 0.164846 0.297497
v 0.032928 0.152095 0.407056
v -0.005086 0.055588 0.441207
v -0.055878 -0.078540 0.472671
v -0.166936 0.151204 0.155190
v 0.046321 0.208106 0.087682
v -0.173850 -0.075601 0.337940
v -0.171474 -0.259408 0.307235
v -0.070952 -0.246171 0.442403
v -0.262521 -0.050234 0.195230
v -0.255081 -0.248285 0.142545
v -0.361437 -0.032542 0.041653
v -0.335977 -0.223837 -0.021856
v -0.407920 0.007486 -0.153891
v -0.380369 -0.193520 -0.178223
v -0.277521 0.169708 -0.008515
v -0.392996 0.033856 -0.336814
v -0.369054 -0.138984 -0.344763
v -0.333425 0.183633 -0.194354
v -0.010863 0.230434 0.030117
v -0.104873 0.255936 -0.095806
v -0.353703 0.159472 -0.320892
v -0.181451 0.264498 -0.252172
v 0.161646 0.206141 -0.019405
v 0.178371 0.194161 0.055714
v 0.126273 0.238717 -0.143169
v 0.058576 0.264383 -0.310167
v -0.237953 0.219057 -0.420414
v 0.335223 0.097399 -0.001960
v 0.289791 0.147857 0.086349
v 0.291799 0.128942 -0.170409
v 0.221858 0.163843 -0.346036
v 0.379673 0.043988 0.163663
v 0.346599 0.114478 0.197559
v 0.370528 0.029877 0.330957
v 0.332191 0.115804 0.328377
v 0.397201 -0.101160 0.340601
v 0.407920 -0.100120 0.156316
v 0.362110 -0.244015 0.342931
v 0.363700 -0.262555 0.156716
v 0.380313 -0.085418 -0.005283
v 0.330988 -0.264498 -0.003964
v 0.335006 -0.071859 -0.179000
v 0.284797 -0.241925 -0.173218
v 0.249781 -0.015648 -0.369187
v 0.213487 -0.202844 -0.340486
v 0.124594 0.159396 -0.473864
v 0.131530 0.006134 -0.505652
v 0.090435 -0.127841 -0.507540
v -0.017393 0.226729 -0.471237
v -0.079415 0.072485 -0.548939
v -0.280655 0.068328 -0.496419
v -0.075788 -0.084459 -0.544925
v 0.090435 -0.127841 -0.507540
v -0.286519 -0.078087 -0.482641
v -0.369054 -0.138984 -0.344763
vt 4.238916 0.717542
vt 4.194766 0.734033
vt 4.194766 0.717542
vt 4.239410 0.734033
vt 4.238421 0.701050
vt 4.194766 0.701050
vt 4.239748 0.685211
vt 4.194766 0.668763
vt 4.271337 0.685211
vt 4.268683 0.701050
vt 4.269673 0.717542
vt 4.270662 0.734033
vt 4.318013 0.734033
vt 4.318013 0.717542
vt 4.318014 0.701050
vt 4.318014 0.668763
vt 4.348825 0.538116
vt 4.163954 0.538116
vt 4.348825 0.494111
vt 4.163954 0.462950
vt 4.163954 0.380830
vt 4.348826 0.380830
vt 4.179359 0.323398
vt 4.333420 0.323398
vt 4.189588 0.285271
vt 4.323192 0.285270
vt 4.194766 0.265967
vt 4.318013 0.265967
vt 4.682165 0.537171
vt 4.715122 0.584724
vt 4.682165 0.599918
vt 4.682165 0.655552
vt 4.715122 0.655552
vt 4.748080 0.655552
vt 4.704069 0.501414
vt 4.638152 0.537171
vt 4.748080 0.569530
vt 4.836046 0.578310
vt 4.836046 0.655553
vt 4.725915 0.472138
vt 4.836046 0.537171
vt 4.709523 0.418805
vt 4.792063 0.379687
vt 4.693130 0.365472
vt 4.770072 0.337042
vt 4.695858 0.454766
vt 4.682165 0.322827
vt 4.748080 0.294397
vt 4.687648 0.408117
vt 4.638152 0.468094
vt 4.638152 0.438105
vt 4.684693 0.357269
vt 4.638152 0.408117
vt 4.550125 0.476610
vt 4.550125 0.537171
vt 4.550125 0.442364
vt 4.550125 0.408117
vt 4.638481 0.354811
vt 4.483266 0.510566
vt 4.506112 0.537171
vt 4.491948 0.459342
vt 4.500629 0.408117
vt 4.473155 0.594565
vt 4.506112 0.599918
vt 4.473155 0.655553
vt 4.506112 0.655553
vt 4.440198 0.655553
vt 4.440198 0.589211
vt 4.352232 0.655553
vt 4.352232 0.537170
vt 4.459850 0.479509
vt 4.370994 0.469989
vt 4.477498 0.422491
vt 4.396214 0.379687
vt 4.495147 0.365472
vt 4.418206 0.337042
vt 4.503837 0.357023
vt 4.506112 0.322827
vt 4.440197 0.294397
vt 4.550454 0.354811
vt 4.551442 0.322827
vt 4.639468 0.322827
vt 4.553146 0.265967
vt 4.506112 0.265967
vt 4.641173 0.265968
vt 4.682165 0.265968
vn -0.034946 0.403540 0.914294
vn -0.512249 0.526637 0.678421
vn -0.522227 0.409487 0.748063
vn -0.061062 0.503193 0.862014
vn -0.082610 0.079622 0.993396
vn -0.585949 0.127216 0.800300
vn -0.057519 -0.620052 0.782450
vn -0.442866 -0.666596 0.599600
vn 0.466802 -0.588002 0.660568
vn 0.624043 0.078606 0.777426
vn 0.578289 0.394567 0.714072
vn 0.526986 0.422618 0.737347
vn 0.856254 0.401506 0.324997
vn 0.908213 0.310161 0.280979
vn 0.964731 -0.011584 0.262982
vn 0.638471 -0.728958 0.246932
vn 0.625755 -0.779674 -0.023230
vn -0.567118 -0.733757 0.374137
vn 0.566366 -0.803455 -0.183548
vn -0.595015 -0.769930 0.230575
vn -0.648777 -0.753478 0.106582
vn 0.530304 -0.782767 -0.325658
vn -0.709097 -0.699203 -0.091086
vn 0.470351 -0.735637 -0.487450
vn -0.682592 -0.608951 -0.404037
vn 0.283261 -0.579436 -0.764210
vn -0.494217 -0.453242 -0.741837
vn -0.082988 -0.495736 -0.864499
vn -0.355777 0.920917 0.159166
vn -0.690624 0.535805 0.485748
vn -0.595648 0.746716 0.296005
vn -0.512249 0.526637 0.678421
vn -0.522227 0.409487 0.748063
vn -0.585949 0.127216 0.800300
vn -0.508951 0.745062 0.431106
vn 0.030814 0.971255 0.236041
vn -0.796911 0.128234 0.590330
vn -0.567118 -0.733757 0.374137
vn -0.442866 -0.666596 0.599600
vn -0.827814 0.164016 0.536492
vn -0.595015 -0.769930 0.230575
vn -0.907586 0.111708 0.404733
vn -0.648777 -0.753478 0.106582
vn -0.983441 0.132316 0.123840
vn -0.709097 -0.699203 -0.091086
vn -0.609341 0.707727 0.357526
vn -0.938388 0.125276 -0.322077
vn -0.682592 -0.608951 -0.404037
vn -0.697993 0.704487 0.128465
vn -0.020317 0.958813 0.283309
vn -0.137709 0.969443 0.203017
vn -0.784546 0.560089 -0.266059
vn -0.246476 0.969097 -0.010053
vn 0.368901 0.923747 0.102973
vn 0.355680 0.934394 0.019964
vn 0.348616 0.934972 0.065540
vn 0.238096 0.960049 -0.147025
vn -0.413517 0.761815 -0.498640
vn 0.818976 0.561394 -0.118811
vn 0.625336 0.761109 -0.172244
vn 0.808410 0.567885 -0.154853
vn 0.735511 0.574094 -0.359778
vn 0.937796 0.340564 -0.067493
vn 0.887778 0.454971 -0.069649
vn 0.908213 0.310161 0.280979
vn 0.856254 0.401506 0.324997
vn 0.964731 -0.011584 0.262982
vn 0.997299 -0.031909 -0.066154
vn 0.638471 -0.728958 0.246932
vn 0.625755 -0.779674 -0.023230
vn 0.978066 -0.012460 -0.207921
vn 0.566366 -0.803455 -0.183548
vn 0.939691 -0.044581 -0.339105
vn 0.530304 -0.782767 -0.325658
vn 0.844667 -0.019809 -0.534926
vn 0.470351 -0.735637 -0.487450
vn 0.458389 0.484857 -0.744844
vn 0.525358 0.032809 -0.850248
vn 0.283261 -0.579436 -0.764210
vn 0.078279 0.759587 -0.645678
vn -0.026861 0.233628 -0.971955
vn -0.562059 0.235995 -0.792714
vn -0.082988 -0.495736 -0.864499
vn 0.283261 -0.579436 -0.764210
vn -0.494217 -0.453242 -0.741837
vn -0.682592 -0.608951 -0.404037
f 1/1/1 2/2/2 3/3/3
f 2/2/2 1/1/1 4/4/4
f 5/5/5 1/1/1 3/3/3
f 6/6/6 5/5/5 3/3/3
f 6/6/6 7/7/7 5/5/5
f 7/7/7 6/6/6 8/8/8
f 9/9/9 5/5/5 7/7/7
f 8/8/8 9/9/9 7/7/7
f 10/10/10 1/1/1 5/5/5
f 5/5/5 9/9/9 10/10/10
f 11/11/11 4/4/4 1/1/1
f 1/1/1 10/10/10 11/11/11
f 4/4/4 11/11/11 12/12/12
f 11/11/11 13/13/13 12/12/12
f 13/13/13 11/11/11 14/14/14
f 10/10/10 14/14/14 11/11/11
f 14/14/14 10/10/10 15/15/15
f 9/9/9 15/15/15 10/10/10
f 15/15/15 9/9/9 16/16/16
f 8/8/8 16/16/16 9/9/9
f 17/17/17 16/16/16 8/8/8
f 18/18/18 17/17/17 8/8/8
f 18/18/18 19/19/19 17/17/17
f 19/19/19 18/18/18 20/20/20
f 21/21/21 19/19/19 20/20/20
f 21/21/21 22/22/22 19/19/19
f 23/23/23 22/22/22 21/21/21
f 23/23/23 24/24/24 22/22/22
f 25/25/25 24/24/24 23/23/23
f 25/25/25 26/26/26 24/24/24
f 27/27/27 26/26/26 25/25/25
f 26/26/26 27/27/27 28/28/28
f 29/29/29 30/30/30 31/31/31
f 31/31/31 30/30/30 32/32/32
f 30/30/30 33/33/33 32/32/32
f 30/30/30 34/34/34 33/33/33
f 30/30/30 29/29/29 35/35/35
f 36/36/36 35/35/35 29/29/29
f 34/34/34 30/30/30 37/37/37
f 35/35/35 37/37/37 30/30/30
f 37/37/37 38/38/38 34/34/34
f 38/38/38 39/39/39 34/34/34
f 40/40/40 38/38/38 37/37/37
f 37/37/37 35/35/35 40/40/40
f 38/38/38 40/40/40 41/41/41
f 42/42/42 41/41/41 40/40/40
f 35/35/35 42/42/42 40/40/40
f 41/41/41 42/42/42 43/43/43
f 44/44/44 43/43/43 42/42/42
f 45/45/45 43/43/43 44/44/44
f 42/42/42 35/35/35 46/46/46
f 46/46/46 44/44/44 42/42/42
f 47/47/47 45/45/45 44/44/44
f 48/48/48 45/45/45 47/47/47
f 44/44/44 46/46/46 49/49/49
f 46/46/46 35/35/35 50/50/50
f 36/36/36 50/50/50 35/35/35
f 51/51/51 49/49/49 46/46/46
f 46/46/46 50/50/50 51/51/51
f 44/44/44 49/49/49 52/52/52
f 47/47/47 44/44/44 52/52/52
f 49/49/49 51/51/51 53/53/53
f 52/52/52 49/49/49 53/53/53
f 36/36/36 54/54/54 50/50/50
f 54/54/54 36/36/36 55/55/55
f 50/50/50 56/56/56 51/51/51
f 56/56/56 50/50/50 54/54/54
f 51/51/51 57/57/57 53/53/53
f 57/57/57 51/51/51 56/56/56
f 52/52/52 53/53/53 58/58/58
f 58/58/58 53/53/53 57/57/57
f 58/58/58 47/47/47 52/52/52
f 59/59/59 54/54/54 55/55/55
f 59/59/59 55/55/55 60/60/60
f 56/56/56 54/54/54 61/61/61
f 59/59/59 61/61/61 54/54/54
f 61/61/61 62/62/62 56/56/56
f 57/57/57 56/56/56 62/62/62
f 60/60/60 63/63/63 59/59/59
f 63/63/63 60/60/60 64/64/64
f 63/63/63 64/64/64 65/65/65
f 64/64/64 66/66/66 65/65/65
f 63/63/63 65/65/65 67/67/67
f 68/68/68 63/63/63 67/67/67
f 59/59/59 63/63/63 68/68/68
f 69/69/69 68/68/68 67/67/67
f 68/68/68 69/69/69 70/70/70
f 71/71/71 59/59/59 68/68/68
f 70/70/70 71/71/71 68/68/68
f 71/71/71 61/61/61 59/59/59
f 71/71/71 70/70/70 72/72/72
f 61/61/61 71/71/71 73/73/73
f 72/72/72 73/73/73 71/71/71
f 73/73/73 62/62/62 61/61/61
f 73/73/73 72/72/72 74/74/74
f 74/74/74 75/75/75 73/73/73
f 62/62/62 73/73/73 75/75/75
f 75/75/75 74/74/74 76/76/76
f 75/75/75 77/77/77 62/62/62
f 77/77/77 57/57/57 62/62/62
f 76/76/76 78/78/78 75/75/75
f 77/77/77 75/75/75 78/78/78
f 78/78/78 76/76/76 79/79/79
f 57/57/57 77/77/77 80/80/80
f 78/78/78 80/80/80 77/77/77
f 58/58/58 57/57/57 80/80/80
f 80/80/80 78/78/78 81/81/81
f 80/80/80 82/82/82 58/58/58
f 82/82/82 80/80/80 81/81/81
f 47/47/47 58/58/58 82/82/82
f 81/81/81 78/78/78 83/83/83
f 83/83/83 82/82/82 81/81/81
f 78/78/78 84/84/84 83/83/83
f 82/82/82 83/83/83 85/85/85
f 85/85/85 47/47/47 82/82/82
f 47/47/47 85/85/85 86/86/86
