# Generated from Roblox mesh JSON (v2.00)
# Hello from RBX_Toolbox ;)
o RightFoot
v -0.012849 -0.036522 -0.192989
v 0.036110 -0.036522 -0.184198
v -0.011457 -0.069177 -0.203816
v -0.053811 -0.036522 -0.175549
v -0.057328 -0.069177 -0.184550
v 0.041932 -0.069177 -0.195697
v 0.080086 -0.038181 -0.156628
v 0.087019 -0.069177 -0.164173
v 0.028096 -0.031077 0.173008
v -0.002112 -0.069177 0.203333
v 0.026464 -0.069177 0.173632
v -0.002972 -0.029838 0.203410
v -0.048943 -0.069177 0.195986
v -0.049165 -0.029716 0.196988
v -0.002972 -0.029838 0.203410
v 0.028687 0.013060 0.173974
v -0.003856 0.015180 0.203816
v 0.028096 -0.031077 0.173008
v -0.049165 -0.029716 0.196988
v -0.049362 0.015090 0.197388
v -0.003856 0.015180 0.203816
v 0.028687 0.013060 0.173974
v 0.028210 0.069178 0.171634
v -0.004729 0.068210 0.202927
v -0.049362 0.015090 0.197388
v -0.049520 0.068323 0.197265
v -0.077597 0.067898 0.162378
v -0.075687 0.014517 0.162727
v -0.049362 0.015090 0.197388
v -0.049520 0.068323 0.197265
v -0.075687 0.014517 0.162727
v -0.073382 -0.031682 0.161935
v -0.049165 -0.029716 0.196988
v -0.049362 0.015090 0.197388
v -0.073382 -0.031682 0.161935
v -0.048943 -0.069177 0.195986
v -0.049165 -0.029716 0.196988
v -0.071032 -0.069177 0.161551
v 0.036110 -0.036522 -0.184198
v -0.012849 -0.036522 -0.192989
v -0.014144 -0.010390 -0.158885
v -0.053811 -0.036522 -0.175549
v -0.047464 -0.015982 -0.144908
v 0.034912 -0.010314 -0.151694
v 0.080086 -0.038181 -0.156628
v 0.069096 -0.018267 -0.130547
v 0.028210 0.069178 0.171634
v 0.052768 0.013253 0.121466
v 0.053752 0.068996 0.122425
v 0.028687 0.013060 0.173974
v 0.052768 0.013253 0.121466
v 0.028096 -0.031077 0.173008
v 0.053342 -0.031077 0.119589
v 0.028687 0.013060 0.173974
v 0.028096 -0.031077 0.173008
v 0.049682 -0.069177 0.119253
v 0.053342 -0.031077 0.119589
v 0.026464 -0.069177 0.173632
v -0.083089 0.013122 0.115297
v -0.075687 0.014517 0.162727
v -0.089262 0.067745 0.117131
v -0.077597 0.067898 0.162378
v -0.075370 -0.034036 0.113151
v -0.073382 -0.031682 0.161935
v -0.083089 0.013122 0.115297
v -0.075687 0.014517 0.162727
v 0.049682 -0.069177 0.119253
v 0.063454 -0.069177 0.056226
v 0.065700 -0.032766 0.055646
v 0.053342 -0.031077 0.119589
v 0.080086 -0.038181 -0.156628
v 0.089262 -0.069177 -0.081600
v 0.087019 -0.069177 -0.164173
v 0.083776 -0.037340 -0.080944
v 0.078135 -0.069177 -0.012687
v 0.074739 -0.035063 -0.012649
v 0.063454 -0.069177 0.056226
v 0.065700 -0.032766 0.055646
v -0.022593 0.015589 -0.102880
v 0.034912 -0.010314 -0.151694
v -0.014144 -0.010390 -0.158885
v -0.047464 -0.015982 -0.144908
v -0.054123 -0.002331 -0.091101
v 0.032242 0.015316 -0.099516
v 0.069096 -0.018267 -0.130547
v 0.071057 -0.001863 -0.084341
v -0.075370 -0.034036 0.113151
v -0.069466 -0.069177 0.110635
v -0.071032 -0.069177 0.161551
v -0.073382 -0.031682 0.161935
v 0.083776 -0.037340 -0.080944
v 0.080086 -0.038181 -0.156628
v 0.069096 -0.018267 -0.130547
v 0.071057 -0.001863 -0.084341
v 0.066362 0.010247 -0.021480
v 0.074739 -0.035063 -0.012649
v 0.055510 0.014918 0.054247
v 0.065700 -0.032766 0.055646
v -0.067000 -0.069177 0.039441
v -0.069466 -0.069177 0.110635
v -0.073364 -0.034338 0.040427
v -0.075370 -0.034036 0.113151
v 0.055510 0.014918 0.054247
v 0.053342 -0.031077 0.119589
v 0.065700 -0.032766 0.055646
v 0.052768 0.013253 0.121466
v -0.057328 -0.069177 -0.184550
v -0.072329 -0.069177 -0.111684
v -0.053811 -0.036522 -0.175549
v -0.069767 -0.038621 -0.107412
v -0.069003 -0.069177 -0.036122
v -0.070368 -0.036490 -0.033492
v -0.067000 -0.069177 0.039441
v -0.073364 -0.034338 0.040427
v -0.069767 -0.038621 -0.107412
v -0.070368 -0.036490 -0.033492
v -0.054123 -0.002331 -0.091101
v -0.047464 -0.015982 -0.144908
v -0.053811 -0.036522 -0.175549
v -0.061073 0.004350 -0.035518
v -0.073364 -0.034338 0.040427
v -0.071160 0.014037 0.045152
v -0.073364 -0.034338 0.040427
v -0.075370 -0.034036 0.113151
v -0.071160 0.014037 0.045152
v -0.083089 0.013122 0.115297
v 0.045259 0.068551 0.072770
v 0.052768 0.013253 0.121466
v 0.055510 0.014918 0.054247
v 0.053752 0.068996 0.122425
v -0.057328 -0.069177 -0.184550
v 0.041932 -0.069177 -0.195697
v 0.087019 -0.069177 -0.164173
v -0.011457 -0.069177 -0.203816
v -0.072329 -0.069177 -0.111684
v 0.089262 -0.069177 -0.081600
v -0.069003 -0.069177 -0.036122
v 0.078135 -0.069177 -0.012687
v -0.067000 -0.069177 0.039441
v 0.063454 -0.069177 0.056226
v -0.069466 -0.069177 0.110635
v 0.049682 -0.069177 0.119253
v 0.026464 -0.069177 0.173632
v -0.067000 -0.069177 0.039441
v 0.063454 -0.069177 0.056226
v -0.071032 -0.069177 0.161551
v -0.048943 -0.069177 0.195986
v -0.002112 -0.069177 0.203333
v -0.067676 0.067655 0.068223
v -0.083089 0.013122 0.115297
v -0.089262 0.067745 0.117131
v -0.071160 0.014037 0.045152
v -0.022593 0.015589 -0.102880
v 0.026285 0.032909 -0.043514
v 0.032242 0.015316 -0.099516
v 0.071057 -0.001863 -0.084341
v 0.066362 0.010247 -0.021480
v 0.022157 0.046828 0.008328
v 0.055510 0.014918 0.054247
v -0.029195 0.029145 -0.049072
v -0.054123 -0.002331 -0.091101
v -0.034429 0.043293 0.005175
v -0.061073 0.004350 -0.035518
v -0.071160 0.014037 0.045152
v -0.034429 0.043293 0.005175
v 0.009223 0.068214 0.043472
v 0.022157 0.046828 0.008328
v 0.055510 0.014918 0.054247
v 0.045259 0.068551 0.072770
v -0.031202 0.068063 0.043591
v -0.071160 0.014037 0.045152
v -0.067676 0.067655 0.068223
vt 2.636835 0.322827
vt 2.548809 0.322827
vt 2.635131 0.265967
vt 2.682165 0.322827
vt 2.682166 0.265967
vt 2.547104 0.265967
vt 2.506112 0.322827
vt 2.506112 0.265967
vt 2.318014 0.701051
vt 2.273032 0.685211
vt 2.318014 0.668764
vt 2.274359 0.701051
vt 2.241443 0.685211
vt 2.244096 0.701051
vt 2.274359 0.701051
vt 2.318014 0.717543
vt 2.273864 0.717543
vt 2.318014 0.701051
vt 2.244096 0.701051
vt 2.243107 0.717543
vt 2.273864 0.717543
vt 2.318014 0.717543
vt 2.318014 0.734033
vt 2.273369 0.734033
vt 2.243107 0.717543
vt 2.242117 0.734033
vt 2.194766 0.734033
vt 2.194766 0.717543
vt 2.243107 0.717543
vt 2.242117 0.734033
vt 2.194766 0.717543
vt 2.194765 0.701051
vt 2.244096 0.701051
vt 2.243107 0.717543
vt 2.194765 0.701051
vt 2.241443 0.685211
vt 2.244096 0.701051
vt 2.194765 0.668764
vt 2.548809 0.322827
vt 2.636835 0.322827
vt 2.637823 0.354811
vt 2.682165 0.322827
vt 2.684440 0.357022
vt 2.549796 0.354811
vt 2.506112 0.322827
vt 2.503584 0.357269
vt 2.506112 0.655551
vt 2.473155 0.584724
vt 2.506112 0.599917
vt 2.473155 0.655551
vt 2.473155 0.584724
vt 2.440198 0.655551
vt 2.440198 0.569529
vt 2.473155 0.655551
vt 2.440198 0.655551
vt 2.352232 0.578309
vt 2.440198 0.569529
vt 2.352232 0.655552
vt 2.715122 0.594564
vt 2.715122 0.655552
vt 2.682165 0.599917
vt 2.682166 0.655552
vt 2.748079 0.589210
vt 2.748079 0.655552
vt 2.715122 0.594564
vt 2.715122 0.655552
vt 2.352232 0.578309
vt 2.352232 0.537170
vt 2.462362 0.472137
vt 2.440198 0.569529
vt 2.506112 0.322827
vt 2.418206 0.337042
vt 2.440198 0.294397
vt 2.495147 0.365472
vt 2.396215 0.379686
vt 2.478755 0.418804
vt 2.352232 0.537170
vt 2.462362 0.472137
vt 2.638152 0.408117
vt 2.549796 0.354811
vt 2.637823 0.354811
vt 2.684440 0.357022
vt 2.687648 0.408117
vt 2.550125 0.408117
vt 2.503584 0.357269
vt 2.500629 0.408117
vt 2.748079 0.589210
vt 2.836045 0.537169
vt 2.836045 0.655552
vt 2.748079 0.655552
vt 2.495147 0.365472
vt 2.506112 0.322827
vt 2.503584 0.357269
vt 2.500629 0.408117
vt 2.492419 0.454765
vt 2.478755 0.418804
vt 2.484208 0.501413
vt 2.462362 0.472137
vt 2.817283 0.469988
vt 2.836045 0.537169
vt 2.728428 0.479508
vt 2.748079 0.589210
vt 2.484208 0.501413
vt 2.440198 0.569529
vt 2.462362 0.472137
vt 2.473155 0.584724
vt 2.748080 0.294397
vt 2.770071 0.337042
vt 2.682165 0.322827
vt 2.693130 0.365472
vt 2.792062 0.379686
vt 2.710779 0.422490
vt 2.817283 0.469988
vt 2.728428 0.479508
vt 2.693130 0.365472
vt 2.710779 0.422490
vt 2.687648 0.408117
vt 2.684440 0.357022
vt 2.682165 0.322827
vt 2.696330 0.459341
vt 2.728428 0.479508
vt 2.705011 0.510565
vt 2.728428 0.479508
vt 2.748079 0.589210
vt 2.705011 0.510565
vt 2.715122 0.594564
vt 2.506112 0.537170
vt 2.473155 0.584724
vt 2.484208 0.501413
vt 2.506112 0.599917
vt 2.189588 0.285270
vt 2.318014 0.265967
vt 2.323192 0.285271
vt 2.194766 0.265967
vt 2.179360 0.323398
vt 2.333420 0.323398
vt 2.163954 0.380830
vt 2.348826 0.380830
vt 2.163955 0.494111
vt 2.348826 0.462950
vt 2.163955 0.538116
vt 2.348826 0.538116
vt 2.318014 0.668764
vt 2.163955 0.494111
vt 2.348826 0.462950
vt 2.194765 0.668764
vt 2.241443 0.685211
vt 2.273032 0.685211
vt 2.682166 0.537170
vt 2.715122 0.594564
vt 2.682165 0.599917
vt 2.705011 0.510565
vt 2.638152 0.408117
vt 2.550125 0.438105
vt 2.550125 0.408117
vt 2.500629 0.408117
vt 2.492419 0.454765
vt 2.550125 0.468093
vt 2.484208 0.501413
vt 2.638152 0.442363
vt 2.687648 0.408117
vt 2.638152 0.476610
vt 2.696330 0.459341
vt 2.705011 0.510565
vt 2.638152 0.476610
vt 2.550125 0.537170
vt 2.550125 0.468093
vt 2.484208 0.501413
vt 2.506112 0.537170
vt 2.638152 0.537170
vt 2.705011 0.510565
vt 2.682166 0.537170
vn -0.110548 0.319541 -0.941102
vn 0.340666 0.343646 -0.875131
vn -0.084617 0.322061 -0.942930
vn -0.373720 0.280570 -0.884089
vn -0.373720 0.280570 -0.884089
vn 0.350614 0.343755 -0.871150
vn 0.524551 0.338789 -0.781069
vn 0.524551 0.338789 -0.781069
vn 0.709793 -0.002090 0.704407
vn 0.292043 -0.010247 0.956350
vn 0.709793 -0.002090 0.704407
vn 0.275492 -0.010498 0.961246
vn -0.146413 -0.015545 0.989101
vn -0.146413 -0.015545 0.989101
vn 0.299643 -0.011520 0.953982
vn 0.687276 -0.009777 0.726330
vn 0.276829 -0.011548 0.960850
vn 0.687276 -0.009777 0.726330
vn -0.139111 -0.010972 0.990216
vn -0.139111 -0.010972 0.990216
vn 0.313198 0.016179 0.949550
vn 0.682710 0.026170 0.730220
vn 0.682710 0.026170 0.730220
vn 0.300759 0.015820 0.953569
vn -0.133052 0.002597 0.991106
vn -0.133052 0.002597 0.991106
vn -0.789240 -0.016663 0.613859
vn -0.789240 -0.016663 0.613859
vn -0.789240 -0.016663 0.613859
vn -0.789240 -0.016663 0.613859
vn -0.808749 -0.029947 0.587391
vn -0.808749 -0.029947 0.587391
vn -0.808749 -0.029947 0.587391
vn -0.808749 -0.029947 0.587391
vn -0.831074 -0.037779 0.554877
vn -0.831074 -0.037779 0.554877
vn -0.831074 -0.037779 0.554877
vn -0.831074 -0.037779 0.554877
vn 0.216333 0.783777 -0.582146
vn -0.052403 0.800234 -0.597393
vn -0.077895 0.801087 -0.593458
vn -0.289638 0.787011 -0.544723
vn -0.289638 0.787011 -0.544723
vn 0.258997 0.780701 -0.568706
vn 0.410684 0.755991 -0.509722
vn 0.410684 0.755991 -0.509722
vn 0.896599 -0.005057 0.442815
vn 0.896599 -0.005057 0.442815
vn 0.896599 -0.005057 0.442815
vn 0.896599 -0.005057 0.442815
vn 0.906369 -0.014684 0.422232
vn 0.906369 -0.014684 0.422232
vn 0.906369 -0.014684 0.422232
vn 0.906369 -0.014684 0.422232
vn 0.910327 -0.061666 0.409271
vn 0.910327 -0.061666 0.409271
vn 0.910327 -0.061666 0.409271
vn 0.910327 -0.061666 0.409271
vn -0.976136 -0.078223 0.202582
vn -0.976136 -0.078223 0.202582
vn -0.976136 -0.078223 0.202582
vn -0.976136 -0.078223 0.202582
vn -0.988883 -0.109346 0.100770
vn -0.988883 -0.109346 0.100770
vn -0.988883 -0.109346 0.100770
vn -0.988883 -0.109346 0.100770
vn 0.976384 -0.076736 0.201955
vn 0.976384 -0.076736 0.201955
vn 0.976384 -0.076736 0.201955
vn 0.976384 -0.076736 0.201955
vn 0.979373 0.198499 -0.037775
vn 0.984761 0.167651 0.046242
vn 0.979373 0.198499 -0.037775
vn 0.984828 0.165926 0.050826
vn 0.984962 0.073043 0.156573
vn 0.985042 0.070648 0.157164
vn 0.985285 0.017372 0.170033
vn 0.985285 0.017372 0.170033
vn -0.171803 0.896176 -0.409086
vn 0.188665 0.893398 -0.407732
vn -0.115083 0.902254 -0.415564
vn -0.440591 0.823343 -0.357751
vn -0.440591 0.823343 -0.357751
vn 0.225069 0.887758 -0.401534
vn 0.455036 0.820044 -0.347089
vn 0.455036 0.820044 -0.347089
vn -0.993552 -0.113170 0.006886
vn -0.993552 -0.113170 0.006886
vn -0.993552 -0.113170 0.006886
vn -0.993552 -0.113170 0.006886
vn 0.945549 0.325392 0.007586
vn 0.898728 0.426477 -0.102007
vn 0.898728 0.426477 -0.102007
vn 0.947411 0.319736 0.013469
vn 0.967358 0.232826 0.100057
vn 0.967787 0.229753 0.102962
vn 0.970380 0.207355 0.123965
vn 0.970380 0.207355 0.123965
vn -0.984786 -0.171120 -0.030247
vn -0.984786 -0.171120 -0.030247
vn -0.984786 -0.171120 -0.030247
vn -0.984786 -0.171120 -0.030247
vn 0.986952 0.114397 0.113310
vn 0.986952 0.114397 0.113310
vn 0.986952 0.114397 0.113310
vn 0.986952 0.114397 0.113310
vn -0.967915 0.137286 -0.210461
vn -0.991023 0.082193 -0.105436
vn -0.967915 0.137286 -0.210461
vn -0.993596 0.072366 -0.086779
vn -0.998851 -0.047446 0.006683
vn -0.998457 -0.055281 0.005304
vn -0.993531 -0.113456 -0.004965
vn -0.993531 -0.113456 -0.004965
vn -0.897448 0.416385 -0.145638
vn -0.973679 0.210713 -0.086890
vn -0.923006 0.368371 -0.111191
vn -0.844704 0.495021 -0.203544
vn -0.844704 0.495021 -0.203544
vn -0.973864 0.209825 -0.086967
vn -0.987089 0.130052 -0.093500
vn -0.987089 0.130052 -0.093500
vn -0.993992 -0.050393 -0.097164
vn -0.993992 -0.050393 -0.097164
vn -0.993992 -0.050393 -0.097164
vn -0.993992 -0.050393 -0.097164
vn 0.994808 0.087639 -0.051737
vn 0.994808 0.087639 -0.051737
vn 0.994808 0.087639 -0.051737
vn 0.994808 0.087639 -0.051737
vn -0.000000 -1.000000 0.000001
vn -0.000000 -1.000000 -0.000000
vn -0.000000 -1.000000 0.000001
vn -0.000000 -1.000000 -0.000000
vn -0.000000 -1.000000 -0.000001
vn -0.000000 -1.000000 -0.000001
vn -0.000000 -1.000000 -0.000001
vn -0.000000 -1.000000 -0.000001
vn -0.000000 -1.000000 0.000002
vn -0.000000 -1.000000 0.000002
vn -0.000000 -1.000000 0.000001
vn -0.000000 -1.000000 0.000001
vn -0.000000 -1.000000 -0.000000
vn -0.000000 -1.000000 0.000002
vn -0.000000 -1.000000 0.000002
vn -0.000000 -1.000000 -0.000000
vn -0.000000 -1.000000 -0.000003
vn -0.000000 -1.000000 -0.000003
vn -0.961763 0.037574 -0.271292
vn -0.961763 0.037574 -0.271292
vn -0.961763 0.037574 -0.271292
vn -0.961763 0.037574 -0.271292
vn -0.225551 0.937174 -0.266143
vn 0.274524 0.940624 -0.199659
vn 0.238709 0.942867 -0.232423
vn 0.505856 0.846458 -0.166189
vn 0.579981 0.809788 -0.088681
vn 0.371868 0.917603 -0.140425
vn 0.620941 0.782755 -0.041561
vn -0.327009 0.909836 -0.255467
vn -0.603500 0.767344 -0.216726
vn -0.452443 0.858681 -0.240753
vn -0.669893 0.713305 -0.206009
vn -0.698068 0.687329 -0.200701
vn -0.391903 0.716888 -0.576614
vn 0.415373 0.748982 -0.516227
vn 0.424107 0.744943 -0.514969
vn 0.717738 0.544998 -0.433393
vn 0.717738 0.544998 -0.433393
vn -0.438964 0.688761 -0.576991
vn -0.677618 0.492222 -0.546399
vn -0.677618 0.492222 -0.546399
f 1/1/1 2/2/2 3/3/3
f 1/1/1 3/3/3 4/4/4
f 4/4/4 3/3/3 5/5/5
f 2/2/2 6/6/6 3/3/3
f 7/7/7 6/6/6 2/2/2
f 6/6/6 7/7/7 8/8/8
f 9/9/9 10/10/10 11/11/11
f 10/10/10 9/9/9 12/12/12
f 12/12/12 13/13/13 10/10/10
f 13/13/13 12/12/12 14/14/14
f 15/15/15 16/16/16 17/17/17
f 16/16/16 15/15/15 18/18/18
f 17/17/17 19/19/19 15/15/15
f 19/19/19 17/17/17 20/20/20
f 21/21/21 22/22/22 23/23/23
f 21/21/21 23/23/23 24/24/24
f 24/24/24 25/25/25 21/21/21
f 25/25/25 24/24/24 26/26/26
f 27/27/27 28/28/28 29/29/29
f 27/27/27 29/29/29 30/30/30
f 31/31/31 32/32/32 33/33/33
f 31/31/31 33/33/33 34/34/34
f 35/35/35 36/36/36 37/37/37
f 36/36/36 35/35/35 38/38/38
f 39/39/39 40/40/40 41/41/41
f 42/42/42 41/41/41 40/40/40
f 42/42/42 43/43/43 41/41/41
f 39/39/39 41/41/41 44/44/44
f 44/44/44 45/45/45 39/39/39
f 45/45/45 44/44/44 46/46/46
f 47/47/47 48/48/48 49/49/49
f 48/48/48 47/47/47 50/50/50
f 51/51/51 52/52/52 53/53/53
f 52/52/52 51/51/51 54/54/54
f 55/55/55 56/56/56 57/57/57
f 56/56/56 55/55/55 58/58/58
f 59/59/59 60/60/60 61/61/61
f 61/61/61 60/60/60 62/62/62
f 63/63/63 64/64/64 65/65/65
f 65/65/65 64/64/64 66/66/66
f 67/67/67 68/68/68 69/69/69
f 69/69/69 70/70/70 67/67/67
f 71/71/71 72/72/72 73/73/73
f 72/72/72 71/71/71 74/74/74
f 74/74/74 75/75/75 72/72/72
f 75/75/75 74/74/74 76/76/76
f 76/76/76 77/77/77 75/75/75
f 77/77/77 76/76/76 78/78/78
f 79/79/79 80/80/80 81/81/81
f 82/82/82 79/79/79 81/81/81
f 79/79/79 82/82/82 83/83/83
f 80/80/80 79/79/79 84/84/84
f 84/84/84 85/85/85 80/80/80
f 85/85/85 84/84/84 86/86/86
f 87/87/87 88/88/88 89/89/89
f 87/87/87 89/89/89 90/90/90
f 91/91/91 92/92/92 93/93/93
f 91/91/91 93/93/93 94/94/94
f 95/95/95 91/91/91 94/94/94
f 91/91/91 95/95/95 96/96/96
f 97/97/97 96/96/96 95/95/95
f 96/96/96 97/97/97 98/98/98
f 99/99/99 100/100/100 101/101/101
f 101/101/101 100/100/100 102/102/102
f 103/103/103 104/104/104 105/105/105
f 104/104/104 103/103/103 106/106/106
f 107/107/107 108/108/108 109/109/109
f 109/109/109 108/108/108 110/110/110
f 108/108/108 111/111/111 110/110/110
f 110/110/110 111/111/111 112/112/112
f 111/111/111 113/113/113 112/112/112
f 112/112/112 113/113/113 114/114/114
f 115/115/115 116/116/116 117/117/117
f 115/115/115 117/117/117 118/118/118
f 119/119/119 115/115/115 118/118/118
f 116/116/116 120/120/120 117/117/117
f 116/116/116 121/121/121 120/120/120
f 121/121/121 122/122/122 120/120/120
f 123/123/123 124/124/124 125/125/125
f 125/125/125 124/124/124 126/126/126
f 127/127/127 128/128/128 129/129/129
f 128/128/128 127/127/127 130/130/130
f 131/131/131 132/132/132 133/133/133
f 132/132/132 131/131/131 134/134/134
f 133/133/133 135/135/135 131/131/131
f 135/135/135 133/133/133 136/136/136
f 136/136/136 137/137/137 135/135/135
f 137/137/137 136/136/136 138/138/138
f 138/138/138 139/139/139 137/137/137
f 139/139/139 138/138/138 140/140/140
f 141/141/141 142/142/142 143/143/143
f 144/144/144 142/142/142 141/141/141
f 142/142/142 144/144/144 145/145/145
f 141/141/141 143/143/143 146/146/146
f 146/146/146 143/143/143 147/147/147
f 147/147/147 143/143/143 148/148/148
f 149/149/149 150/150/150 151/151/151
f 150/150/150 149/149/149 152/152/152
f 153/153/153 154/154/154 155/155/155
f 154/154/154 156/156/156 155/155/155
f 156/156/156 154/154/154 157/157/157
f 154/154/154 158/158/158 157/157/157
f 159/159/159 157/157/157 158/158/158
f 154/154/154 153/153/153 160/160/160
f 160/160/160 158/158/158 154/154/154
f 153/153/153 161/161/161 160/160/160
f 158/158/158 160/160/160 162/162/162
f 161/161/161 163/163/163 160/160/160
f 163/163/163 162/162/162 160/160/160
f 162/162/162 163/163/163 164/164/164
f 165/165/165 166/166/166 167/167/167
f 166/166/166 168/168/168 167/167/167
f 168/168/168 166/166/166 169/169/169
f 166/166/166 165/165/165 170/170/170
f 171/171/171 170/170/170 165/165/165
f 170/170/170 171/171/171 172/172/172
