# Generated from Roblox mesh JSON (v2.00)
# Hello from RBX_Toolbox ;)
o RightUpperLeg_inner_cage
v -0.132332 -0.482122 0.101815
v -0.038884 -0.475483 0.183033
v -0.111341 -0.348587 0.126848
v -0.042163 -0.341468 0.170263
v -0.118533 0.273932 0.079612
v -0.117630 0.193524 0.082215
v -0.081929 0.193524 0.118234
v -0.067261 0.294218 0.131298
v 0.113287 -0.191661 0.039375
v 0.087709 -0.062874 0.027416
v 0.070359 -0.061885 0.113491
v 0.076359 -0.189389 0.119841
v -0.106802 0.060417 0.085515
v -0.081929 0.193524 0.118234
v -0.117630 0.193524 0.082215
v -0.075830 0.060411 0.122871
v 0.003097 -0.190078 0.148810
v 0.070359 -0.061885 0.113491
v -0.007641 -0.067013 0.139668
v 0.076359 -0.189389 0.119841
v -0.060576 -0.193714 0.137886
v -0.067187 -0.068675 0.112257
v 0.018945 0.060631 0.093901
v -0.007641 -0.067013 0.139668
v 0.070359 -0.061885 0.113491
v -0.024628 0.060419 0.128295
v -0.067187 -0.068675 0.112257
v -0.075830 0.060411 0.122871
v 0.113287 -0.191661 0.039375
v 0.109275 -0.342523 0.114838
v 0.143659 -0.336672 0.030625
v 0.076359 -0.189389 0.119841
v -0.113554 0.193524 -0.041653
v -0.105362 0.060516 -0.053038
v -0.132586 0.060452 0.009210
v -0.134073 0.193523 0.017092
v -0.106802 0.060417 0.085515
v -0.105332 -0.068460 0.073387
v -0.067187 -0.068675 0.112257
v -0.075830 0.060411 0.122871
v 0.008584 0.193525 0.095395
v -0.024628 0.060419 0.128295
v 0.018945 0.060631 0.093901
v -0.035393 0.193524 0.125313
v -0.075830 0.060411 0.122871
v -0.081929 0.193524 0.118234
v -0.128368 -0.341991 0.012911
v -0.110871 -0.198337 0.094699
v -0.131377 -0.200251 0.016991
v -0.111341 -0.348587 0.126848
v -0.102397 -0.068371 -0.047406
v -0.132586 0.060452 0.009210
v -0.105362 0.060516 -0.053038
v -0.122331 -0.068493 0.014169
v -0.105362 0.060516 -0.053038
v -0.113554 0.193524 -0.041653
v -0.070096 0.193524 -0.070104
v -0.067189 0.060551 -0.086166
v -0.018055 0.193525 -0.066770
v -0.010714 0.060453 -0.082187
v 0.033164 0.060434 -0.033753
v 0.024731 0.193525 -0.024248
v -0.105332 -0.068460 0.073387
v -0.132586 0.060452 0.009210
v -0.122331 -0.068493 0.014169
v -0.106802 0.060417 0.085515
v -0.134073 0.193523 0.017092
v -0.132586 0.060452 0.009210
v -0.106802 0.060417 0.085515
v -0.117630 0.193524 0.082215
v -0.113554 0.193524 -0.041653
v -0.134073 0.193523 0.017092
v -0.119670 0.279691 -0.038355
v -0.142719 0.267264 0.032395
v -0.102397 -0.068371 -0.047406
v -0.100735 -0.198969 -0.058683
v -0.131377 -0.200251 0.016991
v -0.122331 -0.068493 0.014169
v 0.076359 -0.189389 0.119841
v 0.044570 -0.342699 0.170498
v 0.109275 -0.342523 0.114838
v 0.003097 -0.190078 0.148810
v -0.042163 -0.341468 0.170263
v -0.060576 -0.193714 0.137886
v 0.087816 -0.194472 -0.043302
v 0.057902 -0.064958 -0.041070
v 0.087709 -0.062874 0.027416
v 0.113287 -0.191661 0.039375
v -0.134073 0.193523 0.017092
v -0.117630 0.193524 0.082215
v -0.142719 0.267264 0.032395
v -0.118533 0.273932 0.079612
v 0.087709 -0.062874 0.027416
v 0.049051 0.060423 0.023285
v 0.018945 0.060631 0.093901
v 0.070359 -0.061885 0.113491
v -0.010714 0.060453 -0.082187
v -0.055291 -0.068097 -0.079957
v -0.067189 0.060551 -0.086166
v -0.102397 -0.068371 -0.047406
v -0.105362 0.060516 -0.053038
v 0.002153 -0.068056 -0.080997
v 0.033164 0.060434 -0.033753
v 0.057902 -0.064958 -0.041070
v -0.100735 -0.198969 -0.058683
v -0.106700 -0.333947 -0.093156
v -0.128368 -0.341991 0.012911
v -0.131377 -0.200251 0.016991
v -0.131377 -0.200251 0.016991
v -0.105332 -0.068460 0.073387
v -0.122331 -0.068493 0.014169
v -0.110871 -0.198337 0.094699
v 0.033164 0.060434 -0.033753
v 0.087709 -0.062874 0.027416
v 0.057902 -0.064958 -0.041070
v 0.049051 0.060423 0.023285
v -0.110871 -0.198337 0.094699
v -0.111341 -0.348587 0.126848
v -0.042163 -0.341468 0.170263
v -0.060576 -0.193714 0.137886
v -0.105332 -0.068460 0.073387
v -0.110871 -0.198337 0.094699
v -0.060576 -0.193714 0.137886
v -0.067187 -0.068675 0.112257
v 0.008584 0.193525 0.095395
v -0.043400 0.320813 0.129074
v -0.035393 0.193524 0.125313
v 0.020823 0.345066 0.099153
v -0.067261 0.294218 0.131298
v -0.081929 0.193524 0.118234
v 0.087816 -0.194472 -0.043302
v 0.143659 -0.336672 0.030625
v 0.122037 -0.332070 -0.068437
v 0.113287 -0.191661 0.039375
v 0.024731 0.193525 -0.024248
v 0.049051 0.060423 0.023285
v 0.033164 0.060434 -0.033753
v 0.036599 0.193524 0.032617
v 0.109275 -0.342523 0.114838
v 0.080747 -0.476251 0.189276
v 0.163592 -0.471668 0.116430
v 0.044570 -0.342699 0.170498
v -0.038884 -0.475483 0.183033
v -0.042163 -0.341468 0.170263
v 0.036599 0.193524 0.032617
v 0.018945 0.060631 0.093901
v 0.049051 0.060423 0.023285
v 0.008584 0.193525 0.095395
v 0.002153 -0.068056 -0.080997
v -0.044703 -0.196691 -0.103010
v -0.055291 -0.068097 -0.079957
v -0.100735 -0.198969 -0.058683
v -0.102397 -0.068371 -0.047406
v 0.023402 -0.197421 -0.095651
v 0.057902 -0.064958 -0.041070
v 0.087816 -0.194472 -0.043302
v -0.119670 0.279691 -0.038355
v -0.070096 0.193524 -0.070104
v -0.113554 0.193524 -0.041653
v -0.073951 0.304342 -0.070508
v -0.018055 0.193525 -0.066770
v -0.021927 0.332391 -0.065656
v 0.024731 0.193525 -0.024248
v 0.022370 0.356275 -0.020441
v 0.022370 0.356275 -0.020441
v 0.036599 0.193524 0.032617
v 0.024731 0.193525 -0.024248
v 0.030095 0.360441 0.050676
v -0.151277 -0.481745 -0.011893
v -0.132332 -0.482122 0.101815
v -0.128368 -0.341991 0.012911
v -0.111341 -0.348587 0.126848
v -0.106700 -0.333947 -0.093156
v -0.111906 -0.478659 -0.124688
v -0.151277 -0.481745 -0.011893
v -0.128368 -0.341991 0.012911
v 0.036599 0.193524 0.032617
v 0.030095 0.360441 0.050676
v 0.020823 0.345066 0.099153
v 0.008584 0.193525 0.095395
v 0.143659 -0.336672 0.030625
v 0.163592 -0.471668 0.116430
v 0.194352 -0.471700 0.005255
v 0.109275 -0.342523 0.114838
v 0.122037 -0.332070 -0.068437
v 0.194352 -0.471700 0.005255
v 0.171798 -0.466775 -0.114073
v 0.143659 -0.336672 0.030625
v -0.035257 -0.330881 -0.148824
v -0.044703 -0.196691 -0.103010
v 0.023402 -0.197421 -0.095651
v -0.100735 -0.198969 -0.058683
v -0.106700 -0.333947 -0.093156
v 0.057268 -0.331467 -0.145658
v 0.087816 -0.194472 -0.043302
v 0.122037 -0.332070 -0.068437
v -0.106700 -0.333947 -0.093156
v -0.020957 -0.475850 -0.190769
v -0.111906 -0.478659 -0.124688
v -0.035257 -0.330881 -0.148824
v 0.057268 -0.331467 -0.145658
v 0.087303 -0.467787 -0.203182
v 0.171798 -0.466775 -0.114073
v 0.122037 -0.332070 -0.068437
v -0.168005 0.289646 0.117443
v -0.194352 0.296090 -0.039212
v -0.142719 0.267264 0.032395
v -0.118533 0.273932 0.079612
v 0.007144 0.350595 0.254811
v -0.168005 0.289646 0.117443
v -0.067261 0.294218 0.131298
v -0.118533 0.273932 0.079612
v 0.159002 0.482122 0.038871
v 0.020823 0.345066 0.099153
v 0.030095 0.360441 0.050676
v 0.133480 0.467874 -0.105302
v -0.033187 0.439754 -0.254811
v -0.073951 0.304342 -0.070508
v -0.151587 0.368995 -0.207514
v -0.193119 0.325332 -0.118721
v -0.021927 0.332391 -0.065656
v 0.047501 0.477687 -0.177340
v 0.022370 0.356275 -0.020441
v -0.119670 0.279691 -0.038355
v -0.194352 0.296090 -0.039212
v -0.142719 0.267264 0.032395
v 0.020823 0.345066 0.099153
v 0.159002 0.482122 0.038871
v 0.112998 0.435676 0.193826
v -0.043400 0.320813 0.129074
v 0.007144 0.350595 0.254811
v -0.067261 0.294218 0.131298
v 0.133480 0.467874 -0.105302
v 0.030095 0.360441 0.050676
v 0.022370 0.356275 -0.020441
v 0.047501 0.477687 -0.177340
vt 2.190971 2.108962
vt 2.263822 2.108962
vt 2.190971 2.179393
vt 2.263822 2.179393
vt 2.190971 2.848132
vt 2.190971 2.706690
vt 2.263822 2.690134
vt 2.263822 2.817218
vt 2.452581 2.293279
vt 2.452581 2.394775
vt 2.329405 2.394775
vt 2.329405 2.293279
vt 2.190971 2.529449
vt 2.263822 2.690134
vt 2.190971 2.706690
vt 2.263822 2.529449
vt 2.296614 2.293279
vt 2.329405 2.394775
vt 2.296614 2.394775
vt 2.329405 2.293279
vt 2.263822 2.293279
vt 2.263822 2.394775
vt 2.329405 2.529449
vt 2.296614 2.394775
vt 2.329405 2.394775
vt 2.296614 2.529449
vt 2.263822 2.394775
vt 2.263822 2.529449
vt 2.452581 2.293279
vt 2.329405 2.179393
vt 2.452581 2.179393
vt 2.329405 2.293279
vt 2.821005 2.694002
vt 2.821005 2.529449
vt 2.947463 2.529449
vt 2.947463 2.696367
vt 2.190971 2.529449
vt 2.190971 2.394775
vt 2.263822 2.394775
vt 2.263822 2.529449
vt 2.329405 2.684821
vt 2.296614 2.529449
vt 2.329405 2.529449
vt 2.296614 2.687478
vt 2.263822 2.529449
vt 2.263822 2.690134
vt 2.052537 2.179393
vt 2.190971 2.293279
vt 2.052537 2.293279
vt 2.190971 2.179393
vt 2.821005 2.394775
vt 2.947463 2.529449
vt 2.821005 2.529449
vt 2.947463 2.394775
vt 2.821005 2.529449
vt 2.821005 2.694002
vt 2.757988 2.688721
vt 2.773426 2.529449
vt 2.662830 2.683484
vt 2.678268 2.529449
vt 2.630689 2.529449
vt 2.630689 2.683527
vt 2.190971 2.394775
vt 2.052537 2.529449
vt 2.052537 2.394775
vt 2.190971 2.529449
vt 2.052537 2.707134
vt 2.052537 2.529449
vt 2.190971 2.529449
vt 2.190971 2.706690
vt 2.821005 2.694002
vt 2.947463 2.696367
vt 2.821005 2.824441
vt 2.947463 2.795165
vt 2.821005 2.394775
vt 2.821005 2.293279
vt 2.947463 2.293279
vt 2.947463 2.394775
vt 2.329405 2.293279
vt 2.296614 2.179393
vt 2.329405 2.179393
vt 2.296614 2.293279
vt 2.263822 2.179393
vt 2.263822 2.293279
vt 2.630689 2.293279
vt 2.630689 2.394775
vt 2.452581 2.394775
vt 2.452581 2.293279
vt 2.052537 2.707134
vt 2.190971 2.706690
vt 2.052537 2.848960
vt 2.190971 2.848132
vt 2.452581 2.394775
vt 2.452581 2.529449
vt 2.329405 2.529449
vt 2.329405 2.394775
vt 2.678268 2.529449
vt 2.773426 2.394775
vt 2.773426 2.529449
vt 2.821005 2.394775
vt 2.821005 2.529449
vt 2.678268 2.394775
vt 2.630689 2.529449
vt 2.630689 2.394775
vt 2.821005 2.293279
vt 2.821005 2.179393
vt 2.947463 2.179393
vt 2.947463 2.293279
vt 2.052537 2.293279
vt 2.190971 2.394775
vt 2.052537 2.394775
vt 2.190971 2.293279
vt 2.630689 2.529449
vt 2.452581 2.394775
vt 2.630689 2.394775
vt 2.452581 2.529449
vt 2.190971 2.293279
vt 2.190971 2.179393
vt 2.263822 2.179393
vt 2.263822 2.293279
vt 2.190971 2.394775
vt 2.190971 2.293279
vt 2.263822 2.293279
vt 2.263822 2.394775
vt 2.329405 2.684821
vt 2.296614 2.812258
vt 2.296614 2.687478
vt 2.329405 2.807297
vt 2.263822 2.817218
vt 2.263822 2.690134
vt 2.630689 2.293279
vt 2.452581 2.179393
vt 2.630689 2.179393
vt 2.452581 2.293279
vt 2.630689 2.683527
vt 2.452581 2.529449
vt 2.630689 2.529449
vt 2.452581 2.683746
vt 2.329405 2.179393
vt 2.296614 2.108962
vt 2.329405 2.108962
vt 2.296614 2.179393
vt 2.263822 2.108962
vt 2.263822 2.179393
vt 2.452581 2.683746
vt 2.329405 2.529449
vt 2.452581 2.529449
vt 2.329405 2.684821
vt 2.678268 2.394775
vt 2.773426 2.293279
vt 2.773426 2.394775
vt 2.821005 2.293279
vt 2.821005 2.394775
vt 2.678268 2.293279
vt 2.630689 2.394775
vt 2.630689 2.293279
vt 2.821005 2.824441
vt 2.757988 2.688721
vt 2.821005 2.694002
vt 2.763903 2.814581
vt 2.662830 2.683484
vt 2.668745 2.804801
vt 2.630689 2.683527
vt 2.630689 2.804883
vt 2.630689 2.804883
vt 2.452581 2.683746
vt 2.630689 2.683527
vt 2.452581 2.805290
vt 2.052537 2.108962
vt 2.190971 2.108962
vt 2.052537 2.179393
vt 2.190971 2.179393
vt 2.821005 2.179393
vt 2.821005 2.108962
vt 2.947463 2.108962
vt 2.947463 2.179393
vt 2.452581 2.683746
vt 2.452581 2.805290
vt 2.329405 2.807297
vt 2.329405 2.684821
vt 2.452581 2.179393
vt 2.329405 2.108962
vt 2.452581 2.108962
vt 2.329405 2.179393
vt 2.630689 2.179393
vt 2.452581 2.108962
vt 2.630689 2.108962
vt 2.452581 2.179393
vt 2.773426 2.179393
vt 2.773426 2.293279
vt 2.678268 2.293279
vt 2.821005 2.293279
vt 2.821005 2.179393
vt 2.678268 2.179393
vt 2.630689 2.293279
vt 2.630689 2.179393
vt 2.821005 2.179393
vt 2.773426 2.108962
vt 2.821005 2.108962
vt 2.773426 2.179393
vt 2.678268 2.179393
vt 2.678268 2.108962
vt 2.630689 2.108962
vt 2.630689 2.179393
vt 2.190971 2.893425
vt 2.052537 2.893425
vt 2.052537 2.848960
vt 2.190971 2.848132
vt 2.263822 2.893425
vt 2.190971 2.893425
vt 2.263822 2.817218
vt 2.190971 2.848132
vt 2.329405 2.893425
vt 2.329405 2.807297
vt 2.452581 2.805290
vt 2.452581 2.893425
vt 2.674081 2.893425
vt 2.763903 2.814581
vt 2.821005 2.893425
vt 2.884234 2.861380
vt 2.668745 2.804801
vt 2.630689 2.893425
vt 2.630689 2.804883
vt 2.821005 2.824441
vt 2.947463 2.829336
vt 2.947463 2.795165
vt 2.329405 2.807297
vt 2.329405 2.893425
vt 2.296910 2.893425
vt 2.296614 2.812258
vt 2.263822 2.893425
vt 2.263822 2.817218
vt 2.452581 2.893425
vt 2.452581 2.805290
vt 2.630689 2.804883
vt 2.630689 2.893425
vn -0.585100 -0.310264 0.749263
vn -0.585100 -0.310264 0.749263
vn -0.585100 -0.310264 0.749263
vn -0.585100 -0.310264 0.749262
vn -0.701519 -0.060872 0.710046
vn -0.701519 -0.060872 0.710046
vn -0.701519 -0.060872 0.710046
vn -0.701519 -0.060872 0.710046
vn 0.855317 0.094834 0.509351
vn 0.855317 0.094834 0.509351
vn 0.855317 0.094834 0.509351
vn 0.855317 0.094834 0.509351
vn -0.689564 0.164605 0.705270
vn -0.689564 0.164605 0.705270
vn -0.689564 0.164605 0.705270
vn -0.689564 0.164605 0.705270
vn 0.352238 0.011830 0.935836
vn 0.647936 0.070309 0.758443
vn 0.265798 -0.004072 0.964020
vn 0.647936 0.070309 0.758443
vn -0.103647 -0.067389 0.992329
vn -0.103647 -0.067389 0.992329
vn 0.610585 -0.305423 0.730686
vn 0.316890 -0.392956 0.863230
vn 0.610585 -0.305423 0.730686
vn 0.228868 -0.409574 0.883102
vn -0.096804 -0.440102 0.892715
vn -0.096804 -0.440102 0.892715
vn 0.865871 -0.093659 0.491422
vn 0.865871 -0.093659 0.491422
vn 0.865871 -0.093659 0.491422
vn 0.865871 -0.093659 0.491422
vn -0.922372 0.240445 -0.302350
vn -0.922372 0.240445 -0.302350
vn -0.922372 0.240445 -0.302350
vn -0.922372 0.240445 -0.302350
vn -0.626231 -0.432332 0.648786
vn -0.626231 -0.432332 0.648786
vn -0.626231 -0.432332 0.648786
vn -0.626231 -0.432332 0.648786
vn 0.601978 0.059948 0.796259
vn 0.270604 0.098432 0.957645
vn 0.601978 0.059948 0.796259
vn 0.277273 0.097825 0.955798
vn -0.123870 0.124540 0.984452
vn -0.123870 0.124540 0.984452
vn -0.951498 0.005480 0.307606
vn -0.951498 0.005480 0.307606
vn -0.951498 0.005480 0.307606
vn -0.951498 0.005480 0.307606
vn -0.899169 -0.332044 -0.285031
vn -0.899169 -0.332044 -0.285031
vn -0.899169 -0.332044 -0.285031
vn -0.899169 -0.332044 -0.285031
vn -0.534656 0.304535 -0.788290
vn -0.534656 0.304535 -0.788290
vn -0.240065 0.312127 -0.919209
vn -0.256314 0.312540 -0.914670
vn 0.463503 0.234572 -0.854483
vn 0.404244 0.246216 -0.880888
vn 0.716283 0.165293 -0.677950
vn 0.716283 0.165293 -0.677950
vn -0.919602 -0.303085 0.249944
vn -0.919602 -0.303086 0.249944
vn -0.919602 -0.303086 0.249944
vn -0.919602 -0.303086 0.249944
vn -0.957364 0.170110 0.233489
vn -0.957364 0.170110 0.233489
vn -0.957364 0.170110 0.233489
vn -0.957364 0.170110 0.233489
vn -0.924253 -0.192664 -0.329602
vn -0.924253 -0.192664 -0.329602
vn -0.924253 -0.192664 -0.329602
vn -0.924253 -0.192664 -0.329602
vn -0.907869 -0.284768 -0.307704
vn -0.907869 -0.284768 -0.307704
vn -0.907869 -0.284768 -0.307704
vn -0.907869 -0.284768 -0.307704
vn 0.650882 -0.097982 0.752829
vn 0.310690 -0.099462 0.945293
vn 0.650882 -0.097982 0.752829
vn 0.318417 -0.099589 0.942705
vn -0.088376 -0.085136 0.992442
vn -0.088376 -0.085136 0.992442
vn 0.955998 0.069126 -0.285112
vn 0.955998 0.069126 -0.285112
vn 0.955998 0.069126 -0.285112
vn 0.955998 0.069126 -0.285112
vn -0.898189 -0.273302 0.344329
vn -0.898189 -0.273302 0.344329
vn -0.898189 -0.273302 0.344329
vn -0.898189 -0.273302 0.344329
vn 0.882991 -0.130217 0.450966
vn 0.882991 -0.130217 0.450966
vn 0.882991 -0.130217 0.450966
vn 0.882991 -0.130217 0.450966
vn 0.416699 -0.250978 -0.873712
vn -0.269032 -0.340178 -0.901055
vn -0.289525 -0.342775 -0.893689
vn -0.555701 -0.361382 -0.748732
vn -0.555701 -0.361382 -0.748732
vn 0.476879 -0.241138 -0.845245
vn 0.742438 -0.175899 -0.646409
vn 0.742438 -0.175899 -0.646409
vn -0.971980 0.061728 -0.226814
vn -0.971980 0.061728 -0.226814
vn -0.971980 0.061728 -0.226814
vn -0.971980 0.061728 -0.226814
vn -0.923719 -0.240659 0.298038
vn -0.923719 -0.240659 0.298038
vn -0.923719 -0.240659 0.298038
vn -0.923719 -0.240659 0.298038
vn 0.955745 -0.128246 -0.264773
vn 0.955745 -0.128246 -0.264773
vn 0.955745 -0.128246 -0.264773
vn 0.955745 -0.128246 -0.264773
vn -0.651947 -0.038255 0.757299
vn -0.651947 -0.038255 0.757299
vn -0.651947 -0.038255 0.757299
vn -0.651947 -0.038255 0.757299
vn -0.678915 -0.176604 0.712661
vn -0.678915 -0.176604 0.712661
vn -0.678915 -0.176604 0.712661
vn -0.678915 -0.176604 0.712661
vn 0.495504 -0.086162 0.864322
vn 0.423016 -0.101972 0.900366
vn 0.372078 -0.112327 0.921380
vn 0.495504 -0.086162 0.864322
vn 0.001868 -0.172023 0.985091
vn 0.001868 -0.172023 0.985091
vn 0.942401 -0.059199 -0.329205
vn 0.942401 -0.059199 -0.329205
vn 0.942401 -0.059199 -0.329205
vn 0.942401 -0.059199 -0.329205
vn 0.967558 0.093118 -0.234863
vn 0.967558 0.093118 -0.234863
vn 0.967558 0.093118 -0.234863
vn 0.967558 0.093118 -0.234863
vn 0.630812 -0.217504 0.744828
vn 0.327417 -0.292705 0.898400
vn 0.630812 -0.217504 0.744828
vn 0.254116 -0.304698 0.917924
vn -0.083117 -0.335497 0.938367
vn -0.083117 -0.335497 0.938367
vn 0.912241 0.026127 0.408819
vn 0.912241 0.026127 0.408819
vn 0.912241 0.026127 0.408819
vn 0.912241 0.026127 0.408819
vn 0.411422 -0.085298 -0.907445
vn -0.310093 -0.221473 -0.924550
vn -0.363756 -0.230517 -0.902521
vn -0.611310 -0.263444 -0.746256
vn -0.611310 -0.263444 -0.746256
vn 0.502836 -0.064387 -0.861980
vn 0.766348 0.010183 -0.642345
vn 0.766348 0.010183 -0.642345
vn -0.539711 -0.101539 -0.835705
vn -0.173196 -0.072279 -0.982232
vn -0.539711 -0.101539 -0.835705
vn -0.101362 -0.065530 -0.992689
vn 0.500471 -0.020591 -0.865508
vn 0.566216 -0.015470 -0.824112
vn 0.710247 -0.002765 -0.703947
vn 0.710247 -0.002765 -0.703947
vn 0.988441 0.016698 -0.150685
vn 0.988441 0.016698 -0.150685
vn 0.988441 0.016698 -0.150685
vn 0.988441 0.016698 -0.150685
vn -0.928067 -0.200225 0.314008
vn -0.928067 -0.200225 0.314008
vn -0.928067 -0.200225 0.314008
vn -0.928067 -0.200225 0.314008
vn -0.968789 -0.076535 -0.235776
vn -0.968789 -0.076535 -0.235776
vn -0.968789 -0.076535 -0.235776
vn -0.968789 -0.076535 -0.235776
vn 0.949268 -0.082257 0.303520
vn 0.949268 -0.082257 0.303520
vn 0.949268 -0.082257 0.303520
vn 0.949268 -0.082257 0.303520
vn 0.875766 -0.114147 0.469046
vn 0.875766 -0.114147 0.469046
vn 0.875766 -0.114147 0.469046
vn 0.875766 -0.114147 0.469046
vn 0.923011 0.152086 -0.353441
vn 0.923011 0.152086 -0.353441
vn 0.923011 0.152086 -0.353441
vn 0.923011 0.152086 -0.353441
vn -0.081403 0.210657 -0.974165
vn -0.081296 0.210644 -0.974177
vn 0.651279 0.024765 -0.758434
vn -0.640731 0.241624 -0.728753
vn -0.640731 0.241624 -0.728753
vn 0.641945 0.030121 -0.766159
vn 0.759058 -0.043116 -0.649594
vn 0.759058 -0.043116 -0.649594
vn -0.669246 -0.112630 -0.734455
vn -0.026803 0.016801 -0.999500
vn -0.669246 -0.112630 -0.734455
vn -0.079996 0.006507 -0.996774
vn 0.638238 0.181434 -0.748153
vn 0.627097 0.175182 -0.758986
vn 0.715819 0.226548 -0.660514
vn 0.715819 0.226548 -0.660514
vn -0.430721 -0.896031 0.107742
vn -0.430721 -0.896031 0.107742
vn -0.430721 -0.896031 0.107742
vn -0.430721 -0.896031 0.107742
vn -0.014967 -0.912043 0.409822
vn -0.014967 -0.912043 0.409822
vn -0.014967 -0.912043 0.409822
vn -0.014967 -0.912043 0.409822
vn 0.682122 -0.728622 -0.061798
vn 0.682122 -0.728622 -0.061798
vn 0.682122 -0.728622 -0.061798
vn 0.682122 -0.728622 -0.061798
vn 0.519406 -0.722705 -0.455977
vn 0.230336 -0.833848 -0.501641
vn 0.267031 -0.820743 -0.505050
vn -0.002749 -0.895278 -0.445500
vn 0.532696 -0.716050 -0.451118
vn 0.683500 -0.621223 -0.383289
vn 0.683500 -0.621223 -0.383289
vn -0.069830 -0.915143 -0.397035
vn -0.201941 -0.934890 -0.291893
vn -0.201941 -0.934890 -0.291893
vn 0.646116 -0.757221 0.095659
vn 0.646116 -0.757221 0.095659
vn 0.644106 -0.762888 0.055934
vn 0.637176 -0.770406 -0.021959
vn 0.630848 -0.772691 -0.070572
vn 0.630848 -0.772691 -0.070572
vn 0.507554 -0.781398 -0.363050
vn 0.507555 -0.781398 -0.363050
vn 0.507555 -0.781398 -0.363050
vn 0.507555 -0.781398 -0.363050
f 1/1/1 2/2/2 3/3/3
f 2/2/2 4/4/4 3/3/3
f 5/5/5 6/6/6 7/7/7
f 7/7/7 8/8/8 5/5/5
f 9/9/9 10/10/10 11/11/11
f 9/9/9 11/11/11 12/12/12
f 13/13/13 14/14/14 15/15/15
f 14/14/14 13/13/13 16/16/16
f 17/17/17 18/18/18 19/19/19
f 18/18/18 17/17/17 20/20/20
f 19/19/19 21/21/21 17/17/17
f 21/21/21 19/19/19 22/22/22
f 23/23/23 24/24/24 25/25/25
f 24/24/24 23/23/23 26/26/26
f 26/26/26 27/27/27 24/24/24
f 27/27/27 26/26/26 28/28/28
f 29/29/29 30/30/30 31/31/31
f 30/30/30 29/29/29 32/32/32
f 33/33/33 34/34/34 35/35/35
f 33/33/33 35/35/35 36/36/36
f 37/37/37 38/38/38 39/39/39
f 37/37/37 39/39/39 40/40/40
f 41/41/41 42/42/42 43/43/43
f 42/42/42 41/41/41 44/44/44
f 42/42/42 44/44/44 45/45/45
f 45/45/45 44/44/44 46/46/46
f 47/47/47 48/48/48 49/49/49
f 48/48/48 47/47/47 50/50/50
f 51/51/51 52/52/52 53/53/53
f 52/52/52 51/51/51 54/54/54
f 55/55/55 56/56/56 57/57/57
f 57/57/57 58/58/58 55/55/55
f 59/59/59 58/58/58 57/57/57
f 58/58/58 59/59/59 60/60/60
f 59/59/59 61/61/61 60/60/60
f 61/61/61 59/59/59 62/62/62
f 63/63/63 64/64/64 65/65/65
f 64/64/64 63/63/63 66/66/66
f 67/67/67 68/68/68 69/69/69
f 67/67/67 69/69/69 70/70/70
f 71/71/71 72/72/72 73/73/73
f 73/73/73 72/72/72 74/74/74
f 75/75/75 76/76/76 77/77/77
f 75/75/75 77/77/77 78/78/78
f 79/79/79 80/80/80 81/81/81
f 80/80/80 79/79/79 82/82/82
f 82/82/82 83/83/83 80/80/80
f 83/83/83 82/82/82 84/84/84
f 85/85/85 86/86/86 87/87/87
f 85/85/85 87/87/87 88/88/88
f 89/89/89 90/90/90 91/91/91
f 91/91/91 90/90/90 92/92/92
f 93/93/93 94/94/94 95/95/95
f 93/93/93 95/95/95 96/96/96
f 97/97/97 98/98/98 99/99/99
f 99/99/99 98/98/98 100/100/100
f 100/100/100 101/101/101 99/99/99
f 98/98/98 97/97/97 102/102/102
f 102/102/102 97/97/97 103/103/103
f 103/103/103 104/104/104 102/102/102
f 105/105/105 106/106/106 107/107/107
f 105/105/105 107/107/107 108/108/108
f 109/109/109 110/110/110 111/111/111
f 110/110/110 109/109/109 112/112/112
f 113/113/113 114/114/114 115/115/115
f 114/114/114 113/113/113 116/116/116
f 117/117/117 118/118/118 119/119/119
f 119/119/119 120/120/120 117/117/117
f 121/121/121 122/122/122 123/123/123
f 123/123/123 124/124/124 121/121/121
f 125/125/125 126/126/126 127/127/127
f 125/125/125 128/128/128 126/126/126
f 127/127/127 126/126/126 129/129/129
f 127/127/127 129/129/129 130/130/130
f 131/131/131 132/132/132 133/133/133
f 132/132/132 131/131/131 134/134/134
f 135/135/135 136/136/136 137/137/137
f 136/136/136 135/135/135 138/138/138
f 139/139/139 140/140/140 141/141/141
f 140/140/140 139/139/139 142/142/142
f 140/140/140 142/142/142 143/143/143
f 143/143/143 142/142/142 144/144/144
f 145/145/145 146/146/146 147/147/147
f 146/146/146 145/145/145 148/148/148
f 149/149/149 150/150/150 151/151/151
f 151/151/151 150/150/150 152/152/152
f 152/152/152 153/153/153 151/151/151
f 150/150/150 149/149/149 154/154/154
f 154/154/154 149/149/149 155/155/155
f 155/155/155 156/156/156 154/154/154
f 157/157/157 158/158/158 159/159/159
f 158/158/158 157/157/157 160/160/160
f 160/160/160 161/161/161 158/158/158
f 162/162/162 161/161/161 160/160/160
f 162/162/162 163/163/163 161/161/161
f 163/163/163 162/162/162 164/164/164
f 165/165/165 166/166/166 167/167/167
f 166/166/166 165/165/165 168/168/168
f 169/169/169 170/170/170 171/171/171
f 171/171/171 170/170/170 172/172/172
f 173/173/173 174/174/174 175/175/175
f 173/173/173 175/175/175 176/176/176
f 177/177/177 178/178/178 179/179/179
f 177/177/177 179/179/179 180/180/180
f 181/181/181 182/182/182 183/183/183
f 182/182/182 181/181/181 184/184/184
f 185/185/185 186/186/186 187/187/187
f 186/186/186 185/185/185 188/188/188
f 189/189/189 190/190/190 191/191/191
f 189/189/189 192/192/192 190/190/190
f 192/192/192 189/189/189 193/193/193
f 191/191/191 194/194/194 189/189/189
f 194/194/194 191/191/191 195/195/195
f 195/195/195 196/196/196 194/194/194
f 197/197/197 198/198/198 199/199/199
f 198/198/198 197/197/197 200/200/200
f 201/201/201 198/198/198 200/200/200
f 198/198/198 201/201/201 202/202/202
f 201/201/201 203/203/203 202/202/202
f 203/203/203 201/201/201 204/204/204
f 205/205/205 206/206/206 207/207/207
f 205/205/205 207/207/207 208/208/208
f 209/209/209 210/210/210 211/211/211
f 211/211/211 210/210/210 212/212/212
f 213/213/213 214/214/214 215/215/215
f 213/213/213 215/215/215 216/216/216
f 217/217/217 218/218/218 219/219/219
f 218/218/218 220/220/220 219/219/219
f 218/218/218 217/217/217 221/221/221
f 222/222/222 221/221/221 217/217/217
f 221/221/221 222/222/222 223/223/223
f 220/220/220 218/218/218 224/224/224
f 224/224/224 225/225/225 220/220/220
f 225/225/225 224/224/224 226/226/226
f 227/227/227 228/228/228 229/229/229
f 229/229/229 230/230/230 227/227/227
f 229/229/229 231/231/231 230/230/230
f 231/231/231 232/232/232 230/230/230
f 233/233/233 234/234/234 235/235/235
f 233/233/233 235/235/235 236/236/236
