# Generated from Roblox mesh JSON (v2.00)
# Hello from RBX_Toolbox ;)
o RightHand
v -0.174522 -0.478304 -0.291690
v -0.050640 -0.591779 -0.025032
v -0.151341 -0.541196 -0.003750
v 0.017631 -0.480745 -0.246738
v -0.050640 -0.591779 -0.025032
v -0.138698 -0.446982 0.217581
v -0.151341 -0.541196 -0.003750
v -0.001585 -0.501876 0.224088
v -0.337172 0.409787 -0.450793
v -0.315991 0.586338 -0.268704
v -0.164552 0.586187 -0.418028
v -0.413424 0.397392 -0.219544
v -0.001585 -0.501876 0.224088
v -0.083754 -0.362576 0.363317
v -0.138698 -0.446982 0.217581
v 0.039310 -0.370308 0.371178
v -0.108469 0.591779 0.403402
v -0.352760 0.434936 0.400290
v -0.035739 0.451570 0.441606
v -0.341939 0.577602 0.326575
v -0.035739 0.451570 0.441606
v 0.252146 0.447896 0.481175
v 0.211101 0.590557 0.409908
v -0.108469 0.591779 0.403402
v 0.323495 -0.250727 0.394905
v 0.039310 -0.370308 0.371178
v 0.320359 -0.333606 0.211342
v -0.001585 -0.501876 0.224088
v 0.408864 0.558420 0.268118
v 0.252146 0.447896 0.481175
v 0.415643 0.432481 0.234003
v 0.211101 0.590557 0.409908
v -0.050640 -0.591779 -0.025032
v 0.320359 -0.333606 0.211342
v -0.001585 -0.501876 0.224088
v 0.368150 -0.360570 -0.011132
v 0.368150 -0.360570 -0.011132
v 0.017631 -0.480745 -0.246738
v 0.332332 -0.330490 -0.306579
v -0.050640 -0.591779 -0.025032
v 0.473142 0.273276 0.163477
v 0.415643 0.432481 0.234003
v 0.346821 0.293884 0.427117
v 0.252146 0.447896 0.481175
v -0.322864 0.269869 -0.490103
v -0.449393 -0.206055 -0.412839
v -0.501441 0.294235 -0.444540
v -0.323265 -0.250011 -0.441153
v 0.041119 0.295756 0.490103
v 0.346821 0.293884 0.427117
v 0.252146 0.447896 0.481175
v -0.035739 0.451570 0.441606
v 0.473142 0.273276 0.163477
v 0.408245 0.114528 0.379218
v 0.501441 0.073123 0.154219
v 0.346821 0.293884 0.427117
v -0.501441 0.294235 -0.444540
v -0.413424 0.397392 -0.219544
v -0.337172 0.409787 -0.450793
v -0.399019 0.245341 -0.179774
v -0.322864 0.269869 -0.490103
v -0.501441 0.294235 -0.444540
v -0.337172 0.409787 -0.450793
v 0.090474 0.357441 -0.444619
v 0.039310 -0.370308 0.371178
v 0.102783 -0.183656 0.414223
v -0.083754 -0.362576 0.363317
v 0.323495 -0.250727 0.394905
v 0.346821 0.293884 0.427117
v 0.119288 0.110787 0.461817
v 0.408245 0.114528 0.379218
v 0.041119 0.295756 0.490103
v 0.323495 -0.250727 0.394905
v 0.119288 0.110787 0.461817
v 0.102783 -0.183656 0.414223
v 0.408245 0.114528 0.379218
v 0.143960 0.577360 -0.373705
v 0.380397 0.546546 -0.265545
v 0.344246 0.384967 -0.359685
v 0.090474 0.357441 -0.444619
v -0.323265 -0.250011 -0.441153
v -0.275502 -0.274219 -0.385331
v -0.449393 -0.206055 -0.412839
v 0.031855 -0.230068 -0.394725
v 0.332332 -0.330490 -0.306579
v 0.017631 -0.480745 -0.246738
v -0.174522 -0.478304 -0.291690
v 0.501441 0.073123 0.154219
v 0.323495 -0.250727 0.394905
v 0.320359 -0.333606 0.211342
v 0.408245 0.114528 0.379218
v -0.315991 0.586338 -0.268704
v -0.413424 0.397392 -0.219544
v -0.417484 0.547321 0.043805
v -0.361252 0.409978 0.122669
v -0.164552 0.586187 -0.418028
v 0.143960 0.577360 -0.373705
v 0.090474 0.357441 -0.444619
v -0.337172 0.409787 -0.450793
v 0.453244 0.227671 -0.089705
v 0.426391 0.403262 -0.057695
v 0.473142 0.273276 0.163477
v 0.415643 0.432481 0.234003
v 0.416039 0.232711 -0.344482
v 0.344246 0.384967 -0.359685
v 0.453244 0.227671 -0.089705
v 0.426391 0.403262 -0.057695
v 0.368150 -0.360570 -0.011132
v 0.501441 0.073123 0.154219
v 0.320359 -0.333606 0.211342
v 0.453303 0.045279 -0.076059
v 0.453244 0.227671 -0.089705
v 0.501441 0.073123 0.154219
v 0.453303 0.045279 -0.076059
v 0.473142 0.273276 0.163477
v 0.416783 0.038769 -0.369314
v 0.416039 0.232711 -0.344482
v 0.453303 0.045279 -0.076059
v 0.453244 0.227671 -0.089705
v 0.332332 -0.330490 -0.306579
v 0.453303 0.045279 -0.076059
v 0.368150 -0.360570 -0.011132
v 0.416783 0.038769 -0.369314
v 0.344246 0.384967 -0.359685
v 0.167096 0.218256 -0.418286
v 0.090474 0.357441 -0.444619
v 0.416039 0.232711 -0.344482
v -0.361252 0.409978 0.122669
v -0.352760 0.434936 0.400290
v -0.341939 0.577602 0.326575
v -0.417484 0.547321 0.043805
v -0.402283 -0.201539 -0.242256
v -0.449393 -0.206055 -0.412839
v -0.281962 -0.260988 -0.325544
v 0.416039 0.232711 -0.344482
v 0.416783 0.038769 -0.369314
v 0.167096 0.218256 -0.418286
v 0.112994 0.054937 -0.405981
v 0.428222 0.499357 -0.055500
v 0.415643 0.432481 0.234003
v 0.426391 0.403262 -0.057695
v 0.408864 0.558420 0.268118
v -0.281962 -0.260988 -0.325544
v -0.449393 -0.206055 -0.412839
v -0.275502 -0.274219 -0.385331
v 0.332332 -0.330490 -0.306579
v 0.112994 0.054937 -0.405981
v 0.416783 0.038769 -0.369314
v 0.031855 -0.230068 -0.394725
v 0.380397 0.546546 -0.265545
v 0.426391 0.403262 -0.057695
v 0.344246 0.384967 -0.359685
v 0.428222 0.499357 -0.055500
v -0.035739 0.451570 0.441606
v -0.180681 0.279254 0.333677
v 0.041119 0.295756 0.490103
v -0.352760 0.434936 0.400290
v -0.449393 -0.206055 -0.412839
v -0.399019 0.245341 -0.179774
v -0.501441 0.294235 -0.444540
v -0.402283 -0.201539 -0.242256
v -0.256630 0.240857 -0.435812
v 0.167096 0.218256 -0.418286
v 0.112994 0.054937 -0.405981
v -0.250279 0.119729 -0.361191
v 0.167096 0.218256 -0.418286
v -0.256630 0.240857 -0.435812
v 0.090474 0.357441 -0.444619
v -0.322864 0.269869 -0.490103
v 0.041119 0.295756 0.490103
v 0.093409 0.074493 0.229022
v 0.119288 0.110787 0.461817
v -0.180681 0.279254 0.333677
v -0.256630 0.240857 -0.435812
v -0.323265 -0.250011 -0.441153
v -0.322864 0.269869 -0.490103
v -0.275502 -0.274219 -0.385331
v 0.093409 0.074493 0.229022
v 0.064538 -0.164651 0.208050
v 0.102783 -0.183656 0.414223
v 0.119288 0.110787 0.461817
v -0.077181 0.230101 -0.167728
v 0.134698 0.052759 -0.034230
v -0.002967 0.259444 -0.015107
v 0.112994 0.054937 -0.405981
v -0.002967 0.259444 -0.015107
v 0.093409 0.074493 0.229022
v -0.180681 0.279254 0.333677
v 0.134698 0.052759 -0.034230
v -0.399019 0.245341 -0.179774
v -0.077181 0.230101 -0.167728
v -0.413424 0.397392 -0.219544
v -0.180681 0.279254 0.333677
v -0.361252 0.409978 0.122669
v -0.002967 0.259444 -0.015107
v -0.352760 0.434936 0.400290
v 0.134698 0.052759 -0.034230
v 0.064538 -0.164651 0.208050
v 0.093409 0.074493 0.229022
v 0.097991 -0.192921 -0.014807
v 0.031855 -0.230068 -0.394725
v 0.134698 0.052759 -0.034230
v 0.112994 0.054937 -0.405981
v 0.097991 -0.192921 -0.014807
v -0.077181 0.230101 -0.167728
v -0.361252 0.409978 0.122669
v -0.413424 0.397392 -0.219544
v -0.002967 0.259444 -0.015107
v 0.064538 -0.164651 0.208050
v -0.083754 -0.362576 0.363317
v 0.102783 -0.183656 0.414223
v -0.138698 -0.446982 0.217581
v -0.399019 0.245341 -0.179774
v -0.250279 0.119729 -0.361191
v 0.112994 0.054937 -0.405981
v -0.399019 0.245341 -0.179774
v 0.112994 0.054937 -0.405981
v -0.077181 0.230101 -0.167728
v 0.097991 -0.192921 -0.014807
v -0.138698 -0.446982 0.217581
v 0.064538 -0.164651 0.208050
v -0.151341 -0.541196 -0.003750
v -0.174522 -0.478304 -0.291690
v 0.097991 -0.192921 -0.014807
v 0.031855 -0.230068 -0.394725
v -0.151341 -0.541196 -0.003750
v -0.275502 -0.274219 -0.385331
v -0.256630 0.240857 -0.435812
v -0.250279 0.119729 -0.361191
v -0.281962 -0.260988 -0.325544
v -0.402283 -0.201539 -0.242256
v -0.250279 0.119729 -0.361191
v -0.399019 0.245341 -0.179774
v -0.281962 -0.260988 -0.325544
vt 0.333028 3.451313
vt 0.380733 3.530823
vt 0.333028 3.530823
vt 0.380733 3.451313
vt 0.380733 3.530823
vt 0.333028 3.570579
vt 0.333028 3.530823
vt 0.380733 3.570579
vt 0.601109 3.352427
vt 0.666973 3.320638
vt 0.666973 3.352427
vt 0.587461 3.320623
vt 0.380733 3.570579
vt 0.333028 3.610334
vt 0.333028 3.570579
vt 0.380733 3.610334
vt 0.666973 3.209337
vt 0.587461 3.266475
vt 0.587461 3.209338
vt 0.666973 3.265375
vt 0.587461 3.699008
vt 0.587461 3.610334
vt 0.666973 3.599326
vt 0.666972 3.699008
vt 0.428439 3.610334
vt 0.380733 3.610334
vt 0.428439 3.570579
vt 0.380733 3.570579
vt 0.666972 3.572106
vt 0.587461 3.610334
vt 0.587461 3.580290
vt 0.666973 3.599326
vt 0.380733 3.530823
vt 0.428439 3.570579
vt 0.380733 3.570579
vt 0.428439 3.530823
vt 0.428439 3.530823
vt 0.380733 3.451313
vt 0.428439 3.451313
vt 0.380733 3.530823
vt 0.544687 3.576332
vt 0.587461 3.580290
vt 0.543731 3.610334
vt 0.587461 3.610334
vt 0.463053 3.848420
vt 0.500000 3.799157
vt 0.500000 3.848420
vt 0.463052 3.799157
vt 0.543731 3.699008
vt 0.543731 3.610334
vt 0.587461 3.610334
vt 0.587461 3.699008
vt 0.544687 3.576332
vt 0.500000 3.610334
vt 0.501911 3.572374
vt 0.543731 3.610334
vt 0.500000 3.848420
vt 0.536947 3.909998
vt 0.500000 3.909998
vt 0.536947 3.848420
vt 0.463053 3.848420
vt 0.500000 3.848420
vt 0.500000 3.909998
vt 0.463052 3.909998
vt 0.380733 3.610334
vt 0.428439 3.699008
vt 0.380733 3.699008
vt 0.428439 3.610334
vt 0.543731 3.610334
vt 0.500000 3.699008
vt 0.500000 3.610334
vt 0.543731 3.699008
vt 0.428439 3.610334
vt 0.500000 3.699008
vt 0.428439 3.699008
vt 0.500000 3.610334
vt 0.666972 3.414665
vt 0.666972 3.482430
vt 0.587461 3.505412
vt 0.587461 3.419508
vt 0.463052 3.799157
vt 0.463053 3.762209
vt 0.500000 3.799157
vt 0.428439 3.352427
vt 0.428439 3.451313
vt 0.380733 3.451313
vt 0.380733 3.352427
vt 0.501911 3.572374
vt 0.428439 3.610334
vt 0.428439 3.570579
vt 0.500000 3.610334
vt 0.666973 3.320638
vt 0.587461 3.320623
vt 0.666973 3.288848
vt 0.587461 3.288848
vt 0.666973 3.352427
vt 0.666972 3.414665
vt 0.587461 3.419508
vt 0.601109 3.352427
vt 0.545718 3.539611
vt 0.587461 3.547844
vt 0.544687 3.576332
vt 0.587461 3.580290
vt 0.507951 3.452423
vt 0.587461 3.505412
vt 0.545718 3.539611
vt 0.587461 3.547844
vt 0.428439 3.530823
vt 0.501911 3.572374
vt 0.428439 3.570579
vt 0.503976 3.531378
vt 0.545718 3.539611
vt 0.501911 3.572374
vt 0.503976 3.531378
vt 0.544687 3.576332
vt 0.485305 3.452107
vt 0.507951 3.452423
vt 0.503976 3.531378
vt 0.545718 3.539611
vt 0.428439 3.451313
vt 0.503976 3.531378
vt 0.428439 3.530823
vt 0.485305 3.452107
vt 0.447707 3.950107
vt 0.426105 3.887921
vt 0.463052 3.909998
vt 0.426105 3.909998
vt 0.587461 3.288848
vt 0.587461 3.266475
vt 0.666973 3.265375
vt 0.666973 3.288848
vt 0.536947 3.799157
vt 0.500000 3.799157
vt 0.500000 3.749893
vt 0.426105 3.909998
vt 0.404183 3.948965
vt 0.426105 3.887921
vt 0.389158 3.909998
vt 0.666972 3.530823
vt 0.587461 3.580290
vt 0.587461 3.547844
vt 0.666972 3.572106
vt 0.500000 3.749893
vt 0.500000 3.799157
vt 0.463053 3.762209
vt 0.428439 3.451313
vt 0.494224 3.352882
vt 0.485305 3.452107
vt 0.428439 3.352427
vt 0.666972 3.482430
vt 0.587461 3.547844
vt 0.587461 3.505412
vt 0.666972 3.530823
vt 0.587461 3.209338
vt 0.529943 3.242566
vt 0.543731 3.209337
vt 0.587461 3.266475
vt 0.500000 3.799157
vt 0.536947 3.848420
vt 0.500000 3.848420
vt 0.536947 3.799157
vt 0.426105 3.848420
vt 0.426105 3.887921
vt 0.389158 3.909998
vt 0.389158 3.848420
vt 0.426105 3.887921
vt 0.426105 3.848420
vt 0.463052 3.909998
vt 0.463053 3.848420
vt 0.543731 3.209337
vt 0.498556 3.245224
vt 0.500000 3.209337
vt 0.529943 3.242566
vt 0.426105 3.848420
vt 0.463052 3.799157
vt 0.463053 3.848420
vt 0.426105 3.799157
vt 0.498556 3.245224
vt 0.428439 3.245110
vt 0.428439 3.209337
vt 0.500000 3.209337
vt 0.527509 3.322503
vt 0.497112 3.281110
vt 0.516156 3.275795
vt 0.494224 3.352882
vt 0.516156 3.275795
vt 0.498556 3.245224
vt 0.529943 3.242566
vt 0.497112 3.281110
vt 0.536947 3.848420
vt 0.574410 3.910355
vt 0.536947 3.909998
vt 0.529943 3.242566
vt 0.587461 3.288848
vt 0.516156 3.275795
vt 0.587461 3.266475
vt 0.497112 3.281110
vt 0.428439 3.245110
vt 0.498556 3.245224
vt 0.428439 3.280882
vt 0.428439 3.352427
vt 0.497112 3.281110
vt 0.494224 3.352882
vt 0.428439 3.280882
vt 0.527509 3.322503
vt 0.587461 3.288848
vt 0.587461 3.320623
vt 0.516156 3.275795
vt 0.428439 3.245110
vt 0.380733 3.209338
vt 0.428439 3.209337
vt 0.380733 3.245110
vt 0.536947 3.848420
vt 0.610842 3.848420
vt 0.610842 3.909998
vt 0.536947 3.848420
vt 0.610842 3.909998
vt 0.574410 3.910355
vt 0.428439 3.280882
vt 0.380733 3.245110
vt 0.428439 3.245110
vt 0.380733 3.280882
vt 0.380733 3.352427
vt 0.428439 3.280882
vt 0.428439 3.352427
vt 0.380733 3.280882
vt 0.426105 3.799157
vt 0.426105 3.848420
vt 0.389158 3.848420
vt 0.389158 3.799157
vt 0.536947 3.799157
vt 0.610842 3.848420
vt 0.536947 3.848420
vt 0.610842 3.799156
vn -0.142159 -0.932882 -0.330940
vn -0.142159 -0.932882 -0.330940
vn -0.142159 -0.932882 -0.330940
vn -0.142159 -0.932882 -0.330940
vn -0.355038 -0.853817 0.380715
vn -0.355038 -0.853817 0.380715
vn -0.355038 -0.853817 0.380715
vn -0.355038 -0.853817 0.380715
vn -0.737235 0.525906 -0.424155
vn -0.737235 0.525906 -0.424155
vn -0.737235 0.525906 -0.424155
vn -0.737235 0.525906 -0.424155
vn -0.215232 -0.750945 0.624305
vn -0.215232 -0.750945 0.624305
vn -0.215232 -0.750945 0.624305
vn -0.215232 -0.750945 0.624305
vn -0.215926 0.317997 0.923176
vn -0.215926 0.317997 0.923176
vn -0.215926 0.317997 0.923176
vn -0.215926 0.317997 0.923176
vn -0.068542 0.335968 0.939376
vn -0.068542 0.335968 0.939376
vn -0.068542 0.335968 0.939376
vn -0.068542 0.335968 0.939376
vn 0.371737 -0.800692 0.469792
vn 0.371737 -0.800692 0.469792
vn 0.371737 -0.800692 0.469792
vn 0.371737 -0.800692 0.469792
vn 0.728087 0.219460 0.649405
vn 0.728087 0.219460 0.649405
vn 0.728087 0.219460 0.649405
vn 0.728087 0.219460 0.649404
vn 0.463633 -0.860303 0.211952
vn 0.463633 -0.860303 0.211952
vn 0.463633 -0.860303 0.211952
vn 0.463633 -0.860303 0.211952
vn 0.440657 -0.872655 -0.210465
vn 0.440657 -0.872655 -0.210465
vn 0.440657 -0.872655 -0.210465
vn 0.440657 -0.872655 -0.210465
vn 0.853581 0.228484 0.468182
vn 0.853581 0.228484 0.468182
vn 0.853581 0.228484 0.468182
vn 0.853581 0.228484 0.468182
vn -0.253490 -0.088983 -0.963237
vn -0.253490 -0.088983 -0.963237
vn -0.253490 -0.088983 -0.963237
vn -0.253490 -0.088983 -0.963237
vn 0.039456 0.003907 0.999214
vn 0.039456 0.003907 0.999214
vn 0.039456 0.003907 0.999214
vn 0.039456 0.003907 0.999214
vn 0.908237 0.156259 0.388185
vn 0.908237 0.156259 0.388185
vn 0.908237 0.156259 0.388185
vn 0.908237 0.156259 0.388185
vn -0.859511 0.499771 0.107102
vn -0.859511 0.499771 0.107102
vn -0.859511 0.499771 0.107102
vn -0.859511 0.499771 0.107102
vn -0.028707 0.267644 -0.963090
vn -0.028707 0.267644 -0.963090
vn -0.028707 0.267644 -0.963090
vn -0.028707 0.267644 -0.963090
vn -0.015308 -0.219746 0.975437
vn -0.015308 -0.219746 0.975437
vn -0.015308 -0.219746 0.975437
vn -0.015308 -0.219746 0.975437
vn 0.236653 -0.111161 0.965214
vn 0.236653 -0.111161 0.965214
vn 0.236653 -0.111161 0.965214
vn 0.236653 -0.111161 0.965214
vn 0.186429 -0.075990 0.979525
vn 0.186429 -0.075990 0.979525
vn 0.186429 -0.075990 0.979525
vn 0.186429 -0.075990 0.979525
vn 0.351237 0.301045 -0.886569
vn 0.351237 0.301045 -0.886569
vn 0.351237 0.301045 -0.886569
vn 0.351237 0.301045 -0.886569
vn -0.348345 -0.931371 -0.105850
vn -0.348345 -0.931371 -0.105850
vn -0.348345 -0.931371 -0.105850
vn 0.123622 -0.509665 -0.851445
vn 0.123622 -0.509665 -0.851445
vn 0.123622 -0.509665 -0.851445
vn 0.123622 -0.509665 -0.851445
vn 0.913305 -0.287267 0.288707
vn 0.913305 -0.287267 0.288707
vn 0.913305 -0.287267 0.288707
vn 0.913305 -0.287267 0.288707
vn -0.992706 0.097553 -0.070844
vn -0.992706 0.097553 -0.070844
vn -0.992706 0.097553 -0.070844
vn -0.992706 0.097553 -0.070844
vn 0.084065 0.207030 -0.974716
vn 0.084065 0.207030 -0.974716
vn 0.084065 0.207030 -0.974716
vn 0.084065 0.207030 -0.974716
vn 0.964528 0.258858 -0.051744
vn 0.964528 0.258858 -0.051744
vn 0.964528 0.258858 -0.051744
vn 0.964528 0.258858 -0.051744
vn 0.933846 0.291602 -0.207123
vn 0.933846 0.291602 -0.207123
vn 0.933846 0.291602 -0.207123
vn 0.933846 0.291602 -0.207123
vn 0.951268 -0.306217 0.036339
vn 0.951268 -0.306217 0.036339
vn 0.951268 -0.306217 0.036339
vn 0.951268 -0.306217 0.036339
vn 0.986162 0.071388 -0.149627
vn 0.986162 0.071388 -0.149627
vn 0.986162 0.071388 -0.149627
vn 0.986162 0.071388 -0.149627
vn 0.991052 0.006078 -0.133337
vn 0.991052 0.006078 -0.133337
vn 0.991052 0.006078 -0.133337
vn 0.991052 0.006078 -0.133337
vn 0.964277 -0.232041 -0.127778
vn 0.964277 -0.232041 -0.127778
vn 0.964277 -0.232041 -0.127778
vn 0.964277 -0.232041 -0.127778
vn 0.299793 0.016726 -0.953858
vn 0.299793 0.016726 -0.953857
vn 0.299793 0.016726 -0.953858
vn 0.299793 0.016726 -0.953857
vn -0.985027 -0.075215 0.155129
vn -0.985027 -0.075215 0.155129
vn -0.985027 -0.075215 0.155129
vn -0.985027 -0.075215 0.155129
vn -0.367957 -0.921265 0.126007
vn -0.367957 -0.921265 0.126007
vn -0.367957 -0.921265 0.126007
vn 0.196001 0.005110 -0.980590
vn 0.196001 0.005110 -0.980590
vn 0.196001 0.005110 -0.980590
vn 0.196001 0.005110 -0.980590
vn 0.998799 0.014611 0.046773
vn 0.998799 0.014611 0.046773
vn 0.998799 0.014611 0.046773
vn 0.998799 0.014611 0.046773
vn -0.382099 -0.910142 0.160134
vn -0.382099 -0.910142 0.160134
vn -0.382099 -0.910142 0.160134
vn 0.171408 -0.153439 -0.973178
vn 0.171408 -0.153439 -0.973178
vn 0.171408 -0.153439 -0.973178
vn 0.171408 -0.153439 -0.973178
vn 0.967390 -0.049743 -0.248359
vn 0.967390 -0.049743 -0.248359
vn 0.967390 -0.049743 -0.248359
vn 0.967390 -0.049743 -0.248359
vn -0.312049 -0.301772 0.900866
vn -0.312049 -0.301772 0.900866
vn -0.312049 -0.301772 0.900866
vn -0.312049 -0.301772 0.900866
vn -0.945949 -0.059085 0.318887
vn -0.945949 -0.059085 0.318887
vn -0.945949 -0.059085 0.318887
vn -0.945949 -0.059085 0.318887
vn -0.064452 -0.281735 -0.957325
vn -0.064452 -0.281735 -0.957325
vn -0.064452 -0.281735 -0.957325
vn -0.064452 -0.281735 -0.957325
vn 0.097848 -0.361374 -0.927273
vn 0.097848 -0.361374 -0.927273
vn 0.097848 -0.361374 -0.927273
vn 0.097848 -0.361374 -0.927273
vn -0.575952 -0.676917 0.458326
vn -0.575952 -0.676917 0.458326
vn -0.575952 -0.676917 0.458326
vn -0.575952 -0.676917 0.458326
vn 0.671965 -0.083212 -0.735893
vn 0.671965 -0.083212 -0.735893
vn 0.671965 -0.083212 -0.735893
vn 0.671965 -0.083212 -0.735893
vn -0.987722 0.065788 0.141694
vn -0.987722 0.065788 0.141694
vn -0.987722 0.065788 0.141694
vn -0.987722 0.065788 0.141694
vn -0.691619 -0.703638 0.162962
vn -0.691619 -0.703638 0.162961
vn -0.691619 -0.703638 0.162962
vn -0.691619 -0.703638 0.162961
vn -0.721910 -0.658181 -0.213642
vn -0.721910 -0.658181 -0.213642
vn -0.721910 -0.658181 -0.213642
vn -0.721910 -0.658181 -0.213642
vn -0.024344 0.250811 0.967730
vn -0.024344 0.250811 0.967730
vn -0.024344 0.250811 0.967730
vn -0.521387 -0.849549 -0.080137
vn -0.521386 -0.849549 -0.080137
vn -0.521387 -0.849549 -0.080137
vn -0.521387 -0.849549 -0.080137
vn -0.977497 0.132743 -0.163950
vn -0.977497 0.132743 -0.163950
vn -0.977497 0.132743 -0.163950
vn -0.977497 0.132743 -0.163950
vn -0.969747 0.221305 0.103030
vn -0.969747 0.221305 0.103030
vn -0.969747 0.221305 0.103030
vn -0.969747 0.221305 0.103030
vn -0.391435 -0.903120 0.176501
vn -0.391435 -0.903120 0.176501
vn -0.391435 -0.903120 0.176501
vn -0.391435 -0.903120 0.176501
vn -0.764813 0.638776 0.083817
vn -0.764813 0.638776 0.083817
vn -0.764813 0.638776 0.083817
vn -0.764813 0.638776 0.083817
vn -0.088061 -0.851300 0.517237
vn -0.088061 -0.851300 0.517237
vn -0.088061 -0.851300 0.517237
vn -0.060086 -0.826517 0.559696
vn -0.060086 -0.826517 0.559696
vn -0.060086 -0.826517 0.559696
vn -0.799978 0.567786 -0.194045
vn -0.799978 0.567786 -0.194045
vn -0.799978 0.567786 -0.194045
vn -0.799978 0.567786 -0.194045
vn -0.776224 0.617407 0.127610
vn -0.776224 0.617407 0.127610
vn -0.776224 0.617407 0.127610
vn -0.776224 0.617407 0.127610
vn 0.996987 -0.060887 -0.048070
vn 0.996987 -0.060887 -0.048070
vn 0.996987 -0.060887 -0.048070
vn 0.996987 -0.060887 -0.048070
vn 0.681783 -0.052449 0.729672
vn 0.681783 -0.052449 0.729672
vn 0.681783 -0.052449 0.729672
vn 0.681783 -0.052449 0.729672
f 1/1/1 2/2/2 3/3/3
f 2/2/2 1/1/1 4/4/4
f 5/5/5 6/6/6 7/7/7
f 6/6/6 5/5/5 8/8/8
f 9/9/9 10/10/10 11/11/11
f 10/10/10 9/9/9 12/12/12
f 13/13/13 14/14/14 15/15/15
f 14/14/14 13/13/13 16/16/16
f 17/17/17 18/18/18 19/19/19
f 18/18/18 17/17/17 20/20/20
f 21/21/21 22/22/22 23/23/23
f 23/23/23 24/24/24 21/21/21
f 25/25/25 26/26/26 27/27/27
f 28/28/28 27/27/27 26/26/26
f 29/29/29 30/30/30 31/31/31
f 30/30/30 29/29/29 32/32/32
f 33/33/33 34/34/34 35/35/35
f 34/34/34 33/33/33 36/36/36
f 37/37/37 38/38/38 39/39/39
f 38/38/38 37/37/37 40/40/40
f 41/41/41 42/42/42 43/43/43
f 42/42/42 44/44/44 43/43/43
f 45/45/45 46/46/46 47/47/47
f 46/46/46 45/45/45 48/48/48
f 49/49/49 50/50/50 51/51/51
f 51/51/51 52/52/52 49/49/49
f 53/53/53 54/54/54 55/55/55
f 54/54/54 53/53/53 56/56/56
f 57/57/57 58/58/58 59/59/59
f 58/58/58 57/57/57 60/60/60
f 61/61/61 62/62/62 63/63/63
f 63/63/63 64/64/64 61/61/61
f 65/65/65 66/66/66 67/67/67
f 66/66/66 65/65/65 68/68/68
f 69/69/69 70/70/70 71/71/71
f 70/70/70 69/69/69 72/72/72
f 73/73/73 74/74/74 75/75/75
f 74/74/74 73/73/73 76/76/76
f 77/77/77 78/78/78 79/79/79
f 79/79/79 80/80/80 77/77/77
f 81/81/81 82/82/82 83/83/83
f 84/84/84 85/85/85 86/86/86
f 84/84/84 86/86/86 87/87/87
f 88/88/88 89/89/89 90/90/90
f 89/89/89 88/88/88 91/91/91
f 92/92/92 93/93/93 94/94/94
f 93/93/93 95/95/95 94/94/94
f 96/96/96 97/97/97 98/98/98
f 98/98/98 99/99/99 96/96/96
f 100/100/100 101/101/101 102/102/102
f 101/101/101 103/103/103 102/102/102
f 104/104/104 105/105/105 106/106/106
f 105/105/105 107/107/107 106/106/106
f 108/108/108 109/109/109 110/110/110
f 109/109/109 108/108/108 111/111/111
f 112/112/112 113/113/113 114/114/114
f 113/113/113 112/112/112 115/115/115
f 116/116/116 117/117/117 118/118/118
f 117/117/117 119/119/119 118/118/118
f 120/120/120 121/121/121 122/122/122
f 121/121/121 120/120/120 123/123/123
f 124/124/124 125/125/125 126/126/126
f 125/125/125 124/124/124 127/127/127
f 128/128/128 129/129/129 130/130/130
f 128/128/128 130/130/130 131/131/131
f 132/132/132 133/133/133 134/134/134
f 135/135/135 136/136/136 137/137/137
f 137/137/137 136/136/136 138/138/138
f 139/139/139 140/140/140 141/141/141
f 140/140/140 139/139/139 142/142/142
f 143/143/143 144/144/144 145/145/145
f 146/146/146 147/147/147 148/148/148
f 147/147/147 146/146/146 149/149/149
f 150/150/150 151/151/151 152/152/152
f 151/151/151 150/150/150 153/153/153
f 154/154/154 155/155/155 156/156/156
f 155/155/155 154/154/154 157/157/157
f 158/158/158 159/159/159 160/160/160
f 159/159/159 158/158/158 161/161/161
f 162/162/162 163/163/163 164/164/164
f 162/162/162 164/164/164 165/165/165
f 166/166/166 167/167/167 168/168/168
f 169/169/169 168/168/168 167/167/167
f 170/170/170 171/171/171 172/172/172
f 171/171/171 170/170/170 173/173/173
f 174/174/174 175/175/175 176/176/176
f 175/175/175 174/174/174 177/177/177
f 178/178/178 179/179/179 180/180/180
f 178/178/178 180/180/180 181/181/181
f 182/182/182 183/183/183 184/184/184
f 183/183/183 182/182/182 185/185/185
f 186/186/186 187/187/187 188/188/188
f 187/187/187 186/186/186 189/189/189
f 190/190/190 191/191/191 192/192/192
f 193/193/193 194/194/194 195/195/195
f 194/194/194 193/193/193 196/196/196
f 197/197/197 198/198/198 199/199/199
f 198/198/198 197/197/197 200/200/200
f 201/201/201 202/202/202 203/203/203
f 202/202/202 201/201/201 204/204/204
f 205/205/205 206/206/206 207/207/207
f 206/206/206 205/205/205 208/208/208
f 209/209/209 210/210/210 211/211/211
f 210/210/210 209/209/209 212/212/212
f 213/213/213 214/214/214 215/215/215
f 216/216/216 217/217/217 218/218/218
f 219/219/219 220/220/220 221/221/221
f 220/220/220 219/219/219 222/222/222
f 223/223/223 224/224/224 225/225/225
f 224/224/224 223/223/223 226/226/226
f 227/227/227 228/228/228 229/229/229
f 227/227/227 229/229/229 230/230/230
f 231/231/231 232/232/232 233/233/233
f 232/232/232 231/231/231 234/234/234
