# Generated from Roblox mesh JSON (v4.01)
# Hello from RBX_Toolbox ;)
o RightHand_inner_cage
v -0.051848 -0.270932 -0.174343
v 0.059377 -0.331860 -0.084428
v -0.051848 -0.270932 -0.068289
v 0.059377 -0.331860 -0.173760
v -0.051848 -0.270932 -0.068289
v 0.059377 -0.331860 0.078335
v -0.051848 -0.270932 0.075806
v 0.059377 -0.331860 -0.084428
v 0.059377 -0.331860 0.078335
v -0.051848 -0.270932 0.208749
v -0.051848 -0.270932 0.075806
v 0.059377 -0.331860 0.211928
v -0.051848 -0.270932 0.208749
v 0.142547 -0.178886 0.230016
v 0.005520 -0.119609 0.243145
v 0.059377 -0.331860 0.211928
v 0.005520 -0.119609 0.243145
v 0.142547 -0.178886 0.230016
v 0.140321 -0.009954 0.244910
v -0.015285 0.039524 0.259203
v -0.015285 0.039524 0.259203
v 0.116556 0.076824 0.233640
v -0.011565 0.072465 0.250354
v 0.140321 -0.009954 0.244910
v -0.069290 0.076394 -0.259203
v -0.085437 -0.140567 -0.254117
v -0.111025 0.076394 -0.247539
v -0.142547 -0.140567 -0.216320
v -0.070329 0.249699 -0.131459
v -0.023674 0.311963 -0.069777
v -0.007926 0.249426 -0.142255
v -0.073889 0.300805 -0.058285
v 0.116556 0.076824 0.233640
v -0.043991 0.248407 0.211068
v -0.011565 0.072465 0.250354
v 0.052689 0.308878 0.212670
v 0.022740 0.323180 -0.041179
v 0.037720 0.277760 -0.086848
v -0.023674 0.311963 -0.069777
v -0.007926 0.249426 -0.142255
v -0.007926 0.249426 -0.142255
v -0.069290 0.076394 -0.259203
v -0.070329 0.249699 -0.131459
v -0.111025 0.076394 -0.247539
v 0.059377 -0.331860 -0.173760
v 0.142547 -0.178886 -0.102210
v 0.059377 -0.331860 -0.084428
v 0.142547 -0.178886 -0.184892
v 0.059377 -0.331860 -0.084428
v 0.142547 -0.178886 0.084930
v 0.059377 -0.331860 0.078335
v 0.142547 -0.178886 -0.102210
v 0.059377 -0.331860 0.078335
v 0.142547 -0.178886 0.084930
v 0.059377 -0.331860 0.211928
v 0.142547 -0.178886 0.230016
v 0.052689 0.308878 0.212670
v -0.056333 0.298807 0.211313
v -0.043991 0.248407 0.211068
v 0.036969 0.330296 0.213601
v -0.043991 0.248407 0.211068
v -0.115453 0.276086 0.167820
v -0.100328 0.234153 0.172487
v -0.056333 0.298807 0.211313
v 0.142547 -0.178886 -0.184892
v -0.051848 -0.270932 -0.174343
v 0.005520 -0.119609 -0.172008
v 0.059377 -0.331860 -0.173760
v -0.138403 -0.140567 -0.176786
v -0.142547 -0.140567 -0.216320
v -0.064737 -0.140567 -0.194884
v -0.064737 -0.140567 -0.194884
v -0.142547 -0.140567 -0.216320
v -0.061363 -0.140567 -0.228440
v -0.085437 -0.140567 -0.254117
v -0.061363 -0.140567 -0.228440
v -0.142547 -0.140567 -0.216320
v -0.100328 0.234153 0.172487
v -0.087146 0.060602 0.125245
v -0.011565 0.072465 0.250354
v -0.043991 0.248407 0.211068
v 0.037720 0.277760 -0.086848
v 0.053263 0.076358 -0.152329
v -0.007926 0.249426 -0.142255
v 0.115570 0.076394 -0.131361
v -0.027688 0.042742 -0.234042
v -0.085437 -0.140567 -0.254117
v -0.069290 0.076394 -0.259203
v -0.061363 -0.140567 -0.228440
v 0.022740 0.323180 -0.041179
v 0.050701 0.328705 0.016798
v 0.056653 0.279735 -0.011285
v 0.037720 0.277760 -0.086848
v 0.065142 0.331860 0.101792
v 0.052689 0.308878 0.212670
v 0.064814 0.299347 0.100263
v 0.036969 0.330296 0.213601
v -0.099799 0.219713 -0.035152
v -0.070329 0.249699 -0.131459
v -0.121361 0.073554 -0.125957
v -0.111025 0.076394 -0.247539
v -0.069290 0.076394 -0.259203
v 0.053263 0.076358 -0.152329
v -0.027688 0.042742 -0.234042
v -0.007926 0.249426 -0.142255
v -0.107858 0.286977 0.001309
v -0.073889 0.300805 -0.058285
v -0.099799 0.219713 -0.035152
v -0.070329 0.249699 -0.131459
v 0.115570 0.076394 -0.131361
v 0.140321 -0.009954 -0.150862
v 0.053263 0.076358 -0.152329
v -0.006207 0.041730 -0.148230
v 0.140321 -0.009954 0.097179
v 0.142547 -0.178886 0.230016
v 0.142547 -0.178886 0.084930
v 0.140321 -0.009954 0.244910
v 0.140321 -0.009954 -0.150862
v 0.142547 -0.178886 -0.102210
v 0.142547 -0.178886 -0.184892
v 0.140321 -0.009954 -0.075176
v 0.140321 -0.009954 -0.075176
v 0.142547 -0.178886 0.084930
v 0.142547 -0.178886 -0.102210
v 0.140321 -0.009954 0.097179
v 0.140321 -0.009954 -0.150862
v 0.005520 -0.119609 -0.172008
v -0.006207 0.041730 -0.148230
v 0.142547 -0.178886 -0.184892
v -0.138403 -0.140567 -0.176786
v -0.111025 0.076394 -0.247539
v -0.142547 -0.140567 -0.216320
v -0.121361 0.073554 -0.125957
v 0.056653 0.279735 -0.011285
v 0.115570 0.076394 -0.047036
v 0.037720 0.277760 -0.086848
v 0.115570 0.076394 -0.131361
v 0.115570 0.076394 0.105697
v 0.052689 0.308878 0.212670
v 0.116556 0.076824 0.233640
v 0.064814 0.299347 0.100263
v 0.140321 -0.009954 -0.150862
v 0.115570 0.076394 -0.131361
v 0.140321 -0.009954 -0.075176
v 0.115570 0.076394 -0.047036
v 0.115570 0.076394 -0.047036
v 0.140321 -0.009954 0.097179
v 0.140321 -0.009954 -0.075176
v 0.115570 0.076394 0.105697
v 0.140321 -0.009954 0.097179
v 0.115570 0.076394 0.105697
v 0.116556 0.076824 0.233640
v 0.140321 -0.009954 0.244910
v 0.115570 0.076394 -0.047036
v 0.056653 0.279735 -0.011285
v 0.115570 0.076394 0.105697
v 0.064814 0.299347 0.100263
v -0.097369 0.058381 0.029874
v -0.099799 0.219713 -0.035152
v -0.098759 0.063945 -0.052519
v -0.099780 0.242173 0.062402
v -0.099780 0.242173 0.062402
v -0.087146 0.060602 0.125245
v -0.100328 0.234153 0.172487
v -0.097369 0.058381 0.029874
v -0.121361 0.073554 -0.125957
v -0.098759 0.063945 -0.052519
v -0.099799 0.219713 -0.035152
v 0.050701 0.328705 0.016798
v 0.064814 0.299347 0.100263
v 0.056653 0.279735 -0.011285
v 0.065142 0.331860 0.101792
v -0.107858 0.286977 0.001309
v -0.099780 0.242173 0.062402
v -0.123632 0.274664 0.075771
v -0.099799 0.219713 -0.035152
v -0.023258 0.032984 0.102271
v 0.005520 -0.119609 0.085072
v 0.005520 -0.119609 0.243145
v -0.015285 0.039524 0.259203
v -0.020196 0.032341 -0.005504
v 0.005520 -0.119609 0.085072
v -0.023258 0.032984 0.102271
v 0.005520 -0.119609 -0.037260
v -0.006207 0.041730 -0.148230
v 0.005520 -0.119609 -0.037260
v -0.020196 0.032341 -0.005504
v 0.005520 -0.119609 -0.172008
v -0.023258 0.032984 0.102271
v -0.015285 0.039524 0.259203
v -0.087146 0.060602 0.125245
v -0.097369 0.058381 0.029874
v -0.023258 0.032984 0.102271
v -0.087146 0.060602 0.125245
v -0.020196 0.032341 -0.005504
v -0.098759 0.063945 -0.052519
v -0.020196 0.032341 -0.005504
v -0.097369 0.058381 0.029874
v -0.006207 0.041730 -0.148230
v -0.123632 0.274664 0.075771
v -0.100328 0.234153 0.172487
v -0.115453 0.276086 0.167820
v -0.099780 0.242173 0.062402
v -0.027688 0.042742 -0.234042
v -0.006207 0.041730 -0.148230
v -0.030504 0.041244 -0.154072
v 0.053263 0.076358 -0.152329
v -0.121361 0.073554 -0.125957
v -0.006207 0.041730 -0.148230
v -0.098759 0.063945 -0.052519
v -0.030504 0.041244 -0.154072
v -0.064737 -0.140567 -0.194884
v -0.027688 0.042742 -0.234042
v -0.061363 -0.140567 -0.228440
v 0.005520 -0.119609 -0.172008
v -0.051848 -0.270932 -0.068289
v 0.005520 -0.119609 -0.037260
v -0.051848 -0.270932 -0.174343
v 0.005520 -0.119609 -0.037260
v -0.051848 -0.270932 0.075806
v 0.005520 -0.119609 0.085072
v -0.051848 -0.270932 -0.068289
v 0.005520 -0.119609 0.085072
v -0.051848 -0.270932 0.208749
v 0.005520 -0.119609 0.243145
v -0.051848 -0.270932 0.075806
v -0.121361 0.073554 -0.125957
v -0.030504 0.041244 -0.154072
v -0.006207 0.041730 -0.148230
v -0.138403 -0.140567 -0.176786
v -0.030504 0.041244 -0.154072
v -0.121361 0.073554 -0.125957
v -0.064737 -0.140567 -0.194884
vt 0.333028 3.451313
vt 0.380733 3.530823
vt 0.333028 3.530823
vt 0.380733 3.451313
vt 0.333028 3.530823
vt 0.380733 3.570579
vt 0.333028 3.570579
vt 0.380733 3.530823
vt 0.380733 3.570579
vt 0.333028 3.610334
vt 0.333028 3.570579
vt 0.380733 3.610334
vt 0.380733 3.699008
vt 0.428439 3.610334
vt 0.428439 3.699008
vt 0.380733 3.610334
vt 0.428439 3.699008
vt 0.428439 3.610334
vt 0.500000 3.610334
vt 0.500000 3.699008
vt 0.500000 3.699008
vt 0.543731 3.610334
vt 0.543731 3.699008
vt 0.500000 3.610334
vt 0.463053 3.848420
vt 0.463052 3.799157
vt 0.500000 3.848420
vt 0.500000 3.799157
vt 0.601109 3.352427
vt 0.666972 3.414665
vt 0.587461 3.419508
vt 0.666973 3.352427
vt 0.543731 3.610334
vt 0.587461 3.699008
vt 0.543731 3.699008
vt 0.587461 3.610334
vt 0.666972 3.482430
vt 0.587461 3.505412
vt 0.666972 3.414665
vt 0.587461 3.419508
vt 0.463052 3.909998
vt 0.463053 3.848420
vt 0.500000 3.909998
vt 0.500000 3.848420
vt 0.380733 3.451313
vt 0.428439 3.530823
vt 0.380733 3.530823
vt 0.428439 3.451313
vt 0.380733 3.530823
vt 0.428439 3.570579
vt 0.380733 3.570579
vt 0.428439 3.530823
vt 0.380733 3.570579
vt 0.428439 3.570579
vt 0.380733 3.610334
vt 0.428439 3.610334
vt 0.587461 3.610334
vt 0.666972 3.699008
vt 0.587461 3.699008
vt 0.666973 3.599326
vt 0.587461 3.209338
vt 0.666973 3.265375
vt 0.587461 3.266475
vt 0.666973 3.209337
vt 0.428439 3.451313
vt 0.380733 3.352427
vt 0.428439 3.352427
vt 0.380733 3.451313
vt 0.536947 3.799157
vt 0.500000 3.799157
vt 0.500000 3.749893
vt 0.500000 3.749893
vt 0.500000 3.799157
vt 0.463053 3.762209
vt 0.463052 3.799157
vt 0.463053 3.762209
vt 0.500000 3.799157
vt 0.587461 3.266475
vt 0.529943 3.242566
vt 0.543731 3.209337
vt 0.587461 3.209338
vt 0.447707 3.950107
vt 0.426105 3.887921
vt 0.463052 3.909998
vt 0.426105 3.909998
vt 0.426105 3.848420
vt 0.463052 3.799157
vt 0.463053 3.848420
vt 0.426105 3.799157
vt 0.666972 3.482430
vt 0.666972 3.530823
vt 0.587461 3.547844
vt 0.587461 3.505412
vt 0.666972 3.572106
vt 0.587461 3.610334
vt 0.587461 3.580290
vt 0.666973 3.599326
vt 0.536947 3.909998
vt 0.500000 3.909998
vt 0.536947 3.848420
vt 0.500000 3.848420
vt 0.463053 3.848420
vt 0.426105 3.887921
vt 0.426105 3.848420
vt 0.463052 3.909998
vt 0.666973 3.320638
vt 0.666973 3.352427
vt 0.587461 3.320623
vt 0.601109 3.352427
vt 0.426105 3.909998
vt 0.404183 3.948965
vt 0.426105 3.887921
vt 0.389158 3.909998
vt 0.501911 3.572374
vt 0.428439 3.610334
vt 0.428439 3.570579
vt 0.500000 3.610334
vt 0.485305 3.452107
vt 0.428439 3.530823
vt 0.428439 3.451313
vt 0.503976 3.531378
vt 0.503976 3.531378
vt 0.428439 3.570579
vt 0.428439 3.530823
vt 0.501911 3.572374
vt 0.485305 3.452107
vt 0.428439 3.352427
vt 0.494224 3.352882
vt 0.428439 3.451313
vt 0.536947 3.799157
vt 0.500000 3.848420
vt 0.500000 3.799157
vt 0.536947 3.848420
vt 0.587461 3.547844
vt 0.545718 3.539611
vt 0.587461 3.505412
vt 0.507951 3.452423
vt 0.544687 3.576332
vt 0.587461 3.610334
vt 0.543731 3.610334
vt 0.587461 3.580290
vt 0.485305 3.452107
vt 0.507951 3.452423
vt 0.503976 3.531378
vt 0.545718 3.539611
vt 0.545718 3.539611
vt 0.501911 3.572374
vt 0.503976 3.531378
vt 0.544687 3.576332
vt 0.501911 3.572374
vt 0.544687 3.576332
vt 0.543731 3.610334
vt 0.500000 3.610334
vt 0.545718 3.539611
vt 0.587461 3.547844
vt 0.544687 3.576332
vt 0.587461 3.580290
vt 0.516156 3.275795
vt 0.587461 3.320623
vt 0.527509 3.322503
vt 0.587461 3.288848
vt 0.587461 3.288848
vt 0.529943 3.242566
vt 0.587461 3.266475
vt 0.516156 3.275795
vt 0.536947 3.848420
vt 0.574410 3.910355
vt 0.536947 3.909998
vt 0.666972 3.530823
vt 0.587461 3.580290
vt 0.587461 3.547844
vt 0.666972 3.572106
vt 0.666973 3.320638
vt 0.587461 3.288848
vt 0.666973 3.288848
vt 0.587461 3.320623
vt 0.498556 3.245224
vt 0.428439 3.245110
vt 0.428439 3.209337
vt 0.500000 3.209337
vt 0.497112 3.281110
vt 0.428439 3.245110
vt 0.498556 3.245224
vt 0.428439 3.280882
vt 0.494224 3.352882
vt 0.428439 3.280882
vt 0.497112 3.281110
vt 0.428439 3.352427
vt 0.498556 3.245224
vt 0.500000 3.209337
vt 0.529943 3.242566
vt 0.516156 3.275795
vt 0.498556 3.245224
vt 0.529943 3.242566
vt 0.497112 3.281110
vt 0.527509 3.322503
vt 0.497112 3.281110
vt 0.516156 3.275795
vt 0.494224 3.352882
vt 0.666973 3.288848
vt 0.587461 3.266475
vt 0.666973 3.265375
vt 0.587461 3.288848
vt 0.426105 3.848420
vt 0.389158 3.909998
vt 0.389158 3.848420
vt 0.426105 3.887921
vt 0.536947 3.848420
vt 0.610842 3.909998
vt 0.574410 3.910355
vt 0.389158 3.848420
vt 0.389158 3.799157
vt 0.426105 3.848420
vt 0.426105 3.799157
vt 0.428439 3.352427
vt 0.380733 3.280882
vt 0.428439 3.280882
vt 0.380733 3.352427
vt 0.428439 3.280882
vt 0.380733 3.245110
vt 0.428439 3.245110
vt 0.380733 3.280882
vt 0.428439 3.245110
vt 0.380733 3.209338
vt 0.428439 3.209337
vt 0.380733 3.245110
vt 0.536947 3.848420
vt 0.610842 3.848420
vt 0.610842 3.909998
vt 0.536947 3.799157
vt 0.610842 3.848420
vt 0.536947 3.848420
vt 0.610842 3.799156
vn -0.480429 -0.877034 -0.000001
vn -0.480429 -0.877034 -0.000001
vn -0.480429 -0.877034 -0.000001
vn -0.480429 -0.877034 -0.000001
vn -0.480430 -0.877033 -0.000000
vn -0.480430 -0.877033 -0.000000
vn -0.480430 -0.877033 -0.000000
vn -0.480430 -0.877033 -0.000000
vn -0.480429 -0.877034 -0.000000
vn -0.480429 -0.877034 -0.000000
vn -0.480429 -0.877034 -0.000000
vn -0.480429 -0.877034 -0.000000
vn -0.035045 -0.154124 0.987430
vn -0.035045 -0.154124 0.987430
vn -0.035045 -0.154124 0.987430
vn -0.035045 -0.154124 0.987430
vn 0.059868 -0.089593 0.994178
vn 0.059868 -0.089593 0.994178
vn 0.059868 -0.089593 0.994178
vn 0.059868 -0.089593 0.994178
vn 0.135960 0.186284 0.973043
vn 0.135960 0.186284 0.973043
vn 0.135960 0.186284 0.973043
vn 0.135960 0.186284 0.973043
vn -0.447338 -0.025656 -0.893997
vn -0.447338 -0.025656 -0.893997
vn -0.447338 -0.025656 -0.893997
vn -0.447338 -0.025656 -0.893997
vn -0.196044 0.760339 -0.619235
vn -0.196044 0.760338 -0.619235
vn -0.196044 0.760338 -0.619235
vn -0.196044 0.760339 -0.619235
vn 0.022788 0.151328 0.988221
vn 0.022788 0.151328 0.988221
vn 0.022788 0.151328 0.988221
vn 0.022788 0.151328 0.988221
vn 0.243909 0.746686 -0.618844
vn 0.243909 0.746686 -0.618844
vn 0.243909 0.746686 -0.618844
vn 0.243909 0.746686 -0.618844
vn -0.169666 0.584075 -0.793769
vn -0.169666 0.584075 -0.793769
vn -0.169666 0.584075 -0.793769
vn -0.169666 0.584075 -0.793769
vn 0.878549 -0.477653 -0.000000
vn 0.878549 -0.477653 -0.000000
vn 0.878549 -0.477653 -0.000000
vn 0.878549 -0.477653 -0.000000
vn 0.878549 -0.477653 -0.000000
vn 0.878549 -0.477653 -0.000000
vn 0.878549 -0.477653 -0.000000
vn 0.878549 -0.477653 -0.000000
vn 0.878548 -0.477653 -0.000000
vn 0.878548 -0.477653 -0.000000
vn 0.878548 -0.477653 -0.000000
vn 0.878548 -0.477653 -0.000000
vn -0.010551 -0.020500 0.999734
vn -0.010551 -0.020500 0.999734
vn -0.010551 -0.020500 0.999734
vn -0.010551 -0.020500 0.999734
vn -0.548371 -0.123515 0.827063
vn -0.548371 -0.123515 0.827063
vn -0.548371 -0.123515 0.827063
vn -0.548371 -0.123515 0.827063
vn -0.051867 -0.004917 -0.998642
vn -0.051867 -0.004917 -0.998642
vn -0.051867 -0.004917 -0.998642
vn -0.051867 -0.004917 -0.998642
vn -0.000002 -1.000000 -0.000005
vn -0.000002 -1.000000 -0.000005
vn -0.000002 -1.000000 -0.000005
vn -0.000002 -1.000000 0.000001
vn -0.000002 -1.000000 0.000001
vn -0.000002 -1.000000 0.000001
vn -0.000003 -1.000000 -0.000003
vn -0.000003 -1.000000 -0.000003
vn -0.000003 -1.000000 -0.000003
vn -0.764545 -0.114210 0.634371
vn -0.764545 -0.114210 0.634371
vn -0.764545 -0.114210 0.634371
vn -0.764545 -0.114210 0.634371
vn 0.496113 0.302849 -0.813729
vn 0.496113 0.302849 -0.813729
vn 0.496113 0.302849 -0.813729
vn 0.496113 0.302849 -0.813729
vn 0.578959 -0.093689 -0.809956
vn 0.578959 -0.093689 -0.809956
vn 0.578959 -0.093689 -0.809956
vn 0.578959 -0.093689 -0.809956
vn 0.840987 0.436407 -0.319828
vn 0.840987 0.436407 -0.319829
vn 0.840987 0.436407 -0.319828
vn 0.840987 0.436407 -0.319828
vn 0.950899 0.264011 0.161521
vn 0.950899 0.264011 0.161521
vn 0.950899 0.264011 0.161521
vn 0.950899 0.264011 0.161521
vn -0.953056 0.271954 -0.133139
vn -0.953056 0.271954 -0.133139
vn -0.953056 0.271954 -0.133139
vn -0.953056 0.271954 -0.133139
vn 0.634278 0.262314 -0.727243
vn 0.634278 0.262314 -0.727243
vn 0.634278 0.262314 -0.727243
vn 0.634278 0.262314 -0.727243
vn -0.925382 0.204655 -0.319036
vn -0.925382 0.204655 -0.319036
vn -0.925382 0.204655 -0.319036
vn -0.925382 0.204655 -0.319036
vn 0.110201 0.094343 -0.989422
vn 0.110201 0.094343 -0.989422
vn 0.110201 0.094343 -0.989422
vn 0.110201 0.094343 -0.989422
vn 0.999913 0.013174 0.000000
vn 0.999913 0.013174 0.000000
vn 0.999913 0.013174 0.000000
vn 0.999913 0.013174 0.000000
vn 0.999913 0.013172 -0.000001
vn 0.999913 0.013172 -0.000001
vn 0.999913 0.013172 -0.000001
vn 0.999913 0.013172 -0.000001
vn 0.999913 0.013173 0.000000
vn 0.999913 0.013173 0.000000
vn 0.999913 0.013173 0.000000
vn 0.999913 0.013173 0.000000
vn 0.013790 0.172961 -0.984832
vn 0.013790 0.172961 -0.984832
vn 0.013790 0.172961 -0.984832
vn 0.013790 0.172961 -0.984832
vn -0.992880 0.113499 -0.036159
vn -0.992880 0.113499 -0.036159
vn -0.992880 0.113499 -0.036159
vn -0.992880 0.113499 -0.036159
vn 0.933979 0.338393 -0.114776
vn 0.933979 0.338393 -0.114776
vn 0.933979 0.338393 -0.114776
vn 0.933979 0.338393 -0.114776
vn 0.968641 0.246028 0.034697
vn 0.968641 0.246029 0.034697
vn 0.968641 0.246029 0.034697
vn 0.968641 0.246029 0.034697
vn 0.961289 0.275543 -0.000002
vn 0.961289 0.275542 -0.000002
vn 0.961289 0.275543 -0.000002
vn 0.961289 0.275542 -0.000002
vn 0.961290 0.275540 -0.000000
vn 0.961290 0.275540 -0.000000
vn 0.961290 0.275540 -0.000000
vn 0.961290 0.275540 -0.000000
vn 0.962914 0.269779 -0.003862
vn 0.962914 0.269779 -0.003862
vn 0.962914 0.269779 -0.003862
vn 0.962914 0.269779 -0.003862
vn 0.966482 0.252102 -0.048553
vn 0.966482 0.252102 -0.048553
vn 0.966482 0.252102 -0.048553
vn 0.966482 0.252102 -0.048553
vn -0.999895 -0.011468 0.008903
vn -0.999895 -0.011468 0.008903
vn -0.999895 -0.011468 0.008903
vn -0.999895 -0.011468 0.008903
vn -0.997523 -0.053674 0.045459
vn -0.997523 -0.053674 0.045459
vn -0.997523 -0.053674 0.045459
vn -0.997523 -0.053674 0.045459
vn -0.956456 -0.038639 0.289307
vn -0.956456 -0.038639 0.289307
vn -0.956456 -0.038639 0.289307
vn 0.985391 0.113995 -0.126526
vn 0.985391 0.113995 -0.126526
vn 0.985391 0.113995 -0.126526
vn 0.985391 0.113995 -0.126526
vn -0.959853 -0.271127 -0.071921
vn -0.959853 -0.271127 -0.071921
vn -0.959853 -0.271127 -0.071921
vn -0.959853 -0.271127 -0.071921
vn -0.986717 -0.159965 0.028295
vn -0.986717 -0.159965 0.028295
vn -0.986717 -0.159965 0.028295
vn -0.986717 -0.159965 0.028295
vn -0.984637 -0.174159 -0.012614
vn -0.984637 -0.174159 -0.012614
vn -0.984637 -0.174159 -0.012614
vn -0.984637 -0.174159 -0.012614
vn -0.992577 -0.109105 -0.053734
vn -0.992577 -0.109105 -0.053734
vn -0.992577 -0.109105 -0.053734
vn -0.992577 -0.109105 -0.053734
vn -0.659547 -0.711701 0.241828
vn -0.659547 -0.711701 0.241828
vn -0.659547 -0.711700 0.241828
vn -0.346213 -0.937811 0.025426
vn -0.346213 -0.937811 0.025426
vn -0.346213 -0.937811 0.025426
vn -0.346213 -0.937811 0.025426
vn -0.329918 -0.940533 -0.080938
vn -0.329918 -0.940533 -0.080938
vn -0.329918 -0.940533 -0.080938
vn -0.329918 -0.940533 -0.080938
vn -0.884845 -0.465530 0.018208
vn -0.884845 -0.465530 0.018208
vn -0.884845 -0.465530 0.018208
vn -0.884845 -0.465530 0.018208
vn 0.386255 -0.916107 -0.107491
vn 0.386255 -0.916107 -0.107491
vn 0.386255 -0.916107 -0.107491
vn 0.386255 -0.916107 -0.107491
vn -0.273597 -0.960948 -0.041525
vn -0.273597 -0.960948 -0.041525
vn -0.273597 -0.960948 -0.041525
vn 0.980964 -0.187368 0.051027
vn 0.980964 -0.187368 0.051027
vn 0.980964 -0.187368 0.051027
vn 0.980964 -0.187368 0.051027
vn -0.935059 0.354493 -0.000001
vn -0.935059 0.354493 -0.000001
vn -0.935059 0.354493 -0.000001
vn -0.935059 0.354493 -0.000001
vn -0.935059 0.354493 0.000000
vn -0.935059 0.354493 0.000000
vn -0.935059 0.354493 0.000000
vn -0.935059 0.354493 0.000000
vn -0.935059 0.354493 0.000002
vn -0.935059 0.354493 0.000002
vn -0.935059 0.354493 0.000002
vn -0.935059 0.354493 0.000002
vn -0.118284 -0.819970 0.560052
vn -0.118284 -0.819970 0.560052
vn -0.118284 -0.819970 0.560053
vn 0.216864 -0.246698 0.944516
vn 0.216864 -0.246698 0.944516
vn 0.216864 -0.246698 0.944516
vn 0.216864 -0.246698 0.944516
f 1/1/1 2/2/2 3/3/3
f 2/2/2 1/1/1 4/4/4
f 5/5/5 6/6/6 7/7/7
f 6/6/6 5/5/5 8/8/8
f 9/9/9 10/10/10 11/11/11
f 10/10/10 9/9/9 12/12/12
f 13/13/13 14/14/14 15/15/15
f 14/14/14 13/13/13 16/16/16
f 17/17/17 18/18/18 19/19/19
f 19/19/19 20/20/20 17/17/17
f 21/21/21 22/22/22 23/23/23
f 22/22/22 21/21/21 24/24/24
f 25/25/25 26/26/26 27/27/27
f 27/27/27 26/26/26 28/28/28
f 29/29/29 30/30/30 31/31/31
f 30/30/30 29/29/29 32/32/32
f 33/33/33 34/34/34 35/35/35
f 34/34/34 33/33/33 36/36/36
f 37/37/37 38/38/38 39/39/39
f 38/38/38 40/40/40 39/39/39
f 41/41/41 42/42/42 43/43/43
f 43/43/43 42/42/42 44/44/44
f 45/45/45 46/46/46 47/47/47
f 46/46/46 45/45/45 48/48/48
f 49/49/49 50/50/50 51/51/51
f 50/50/50 49/49/49 52/52/52
f 53/53/53 54/54/54 55/55/55
f 54/54/54 56/56/56 55/55/55
f 57/57/57 58/58/58 59/59/59
f 58/58/58 57/57/57 60/60/60
f 61/61/61 62/62/62 63/63/63
f 62/62/62 61/61/61 64/64/64
f 65/65/65 66/66/66 67/67/67
f 66/66/66 65/65/65 68/68/68
f 69/69/69 70/70/70 71/71/71
f 72/72/72 73/73/73 74/74/74
f 75/75/75 76/76/76 77/77/77
f 78/78/78 79/79/79 80/80/80
f 80/80/80 81/81/81 78/78/78
f 82/82/82 83/83/83 84/84/84
f 83/83/83 82/82/82 85/85/85
f 86/86/86 87/87/87 88/88/88
f 87/87/87 86/86/86 89/89/89
f 90/90/90 91/91/91 92/92/92
f 92/92/92 93/93/93 90/90/90
f 94/94/94 95/95/95 96/96/96
f 95/95/95 94/94/94 97/97/97
f 98/98/98 99/99/99 100/100/100
f 99/99/99 101/101/101 100/100/100
f 102/102/102 103/103/103 104/104/104
f 103/103/103 102/102/102 105/105/105
f 106/106/106 107/107/107 108/108/108
f 107/107/107 109/109/109 108/108/108
f 110/110/110 111/111/111 112/112/112
f 111/111/111 113/113/113 112/112/112
f 114/114/114 115/115/115 116/116/116
f 115/115/115 114/114/114 117/117/117
f 118/118/118 119/119/119 120/120/120
f 119/119/119 118/118/118 121/121/121
f 122/122/122 123/123/123 124/124/124
f 123/123/123 122/122/122 125/125/125
f 126/126/126 127/127/127 128/128/128
f 127/127/127 126/126/126 129/129/129
f 130/130/130 131/131/131 132/132/132
f 131/131/131 130/130/130 133/133/133
f 134/134/134 135/135/135 136/136/136
f 137/137/137 136/136/136 135/135/135
f 138/138/138 139/139/139 140/140/140
f 139/139/139 138/138/138 141/141/141
f 142/142/142 143/143/143 144/144/144
f 143/143/143 145/145/145 144/144/144
f 146/146/146 147/147/147 148/148/148
f 147/147/147 146/146/146 149/149/149
f 150/150/150 151/151/151 152/152/152
f 150/150/150 152/152/152 153/153/153
f 154/154/154 155/155/155 156/156/156
f 155/155/155 157/157/157 156/156/156
f 158/158/158 159/159/159 160/160/160
f 159/159/159 158/158/158 161/161/161
f 162/162/162 163/163/163 164/164/164
f 163/163/163 162/162/162 165/165/165
f 166/166/166 167/167/167 168/168/168
f 169/169/169 170/170/170 171/171/171
f 170/170/170 169/169/169 172/172/172
f 173/173/173 174/174/174 175/175/175
f 174/174/174 173/173/173 176/176/176
f 177/177/177 178/178/178 179/179/179
f 177/177/177 179/179/179 180/180/180
f 181/181/181 182/182/182 183/183/183
f 182/182/182 181/181/181 184/184/184
f 185/185/185 186/186/186 187/187/187
f 186/186/186 185/185/185 188/188/188
f 189/189/189 190/190/190 191/191/191
f 192/192/192 193/193/193 194/194/194
f 193/193/193 192/192/192 195/195/195
f 196/196/196 197/197/197 198/198/198
f 197/197/197 196/196/196 199/199/199
f 200/200/200 201/201/201 202/202/202
f 201/201/201 200/200/200 203/203/203
f 204/204/204 205/205/205 206/206/206
f 205/205/205 204/204/204 207/207/207
f 208/208/208 209/209/209 210/210/210
f 211/211/211 212/212/212 213/213/213
f 214/214/214 213/213/213 212/212/212
f 215/215/215 216/216/216 217/217/217
f 216/216/216 215/215/215 218/218/218
f 219/219/219 220/220/220 221/221/221
f 220/220/220 219/219/219 222/222/222
f 223/223/223 224/224/224 225/225/225
f 224/224/224 223/223/223 226/226/226
f 227/227/227 228/228/228 229/229/229
f 230/230/230 231/231/231 232/232/232
f 231/231/231 230/230/230 233/233/233
