# Generated from Roblox mesh JSON (v2.00)
# Hello from RBX_Toolbox ;)
o RightLowerArmWrapTarget
v -0.294322 -0.015854 0.012596
v -0.208669 -0.047720 0.016317
v -0.202651 -0.032147 0.085628
v -0.289712 -0.002664 0.081589
v -0.262188 0.060460 0.138500
v -0.174294 0.024137 0.139863
v -0.279778 0.001968 -0.054228
v -0.177311 0.039223 -0.099205
v -0.196205 -0.025133 -0.056333
v -0.294322 -0.015854 0.012596
v -0.208669 -0.047720 0.016317
v -0.266771 0.064767 -0.095480
v -0.156452 0.105259 -0.100417
v -0.242884 0.135441 -0.098203
v -0.141282 0.165357 -0.051813
v -0.225088 0.192899 -0.050891
v 0.215565 0.073202 -0.009754
v 0.288385 0.049134 0.096796
v 0.294322 0.085439 -0.014890
v 0.204982 0.059779 -0.084938
v 0.268607 0.065071 -0.107377
v 0.231550 -0.007293 -0.174859
v 0.168230 -0.008884 -0.134264
v 0.192824 -0.101603 -0.170622
v 0.117497 0.067325 -0.058612
v 0.216456 0.048375 0.067220
v 0.147201 -0.077318 -0.132782
v 0.131554 -0.142528 -0.088845
v 0.180609 -0.169933 -0.108941
v 0.178203 -0.213715 -0.014289
v 0.115576 -0.167194 -0.018530
v 0.057582 -0.101482 -0.073302
v 0.049867 -0.124463 -0.006331
v 0.074543 -0.048042 -0.106246
v -0.021280 -0.072480 -0.049870
v -0.025651 -0.095418 0.007522
v 0.097214 0.017040 -0.105325
v -0.004708 -0.013395 -0.093008
v -0.111938 -0.046356 -0.057132
v -0.118924 -0.071356 0.010599
v -0.196205 -0.025133 -0.056333
v -0.208669 -0.047720 0.016317
v -0.095039 0.012501 -0.094719
v -0.177311 0.039223 -0.099205
v 0.023654 0.046927 -0.093236
v -0.072024 0.078254 -0.091903
v -0.156452 0.105259 -0.100417
v -0.141282 0.165357 -0.051813
v 0.047237 0.095393 -0.049375
v -0.050937 0.128834 -0.048461
v 0.128164 0.079317 0.001307
v 0.056615 0.105832 0.007985
v 0.129558 0.058464 0.068677
v -0.037374 0.145520 0.018345
v 0.055755 0.086354 0.076976
v 0.111496 0.003731 0.107903
v -0.131193 0.182576 0.020601
v -0.225088 0.192899 -0.050891
v -0.218553 0.213715 0.020060
v -0.223407 0.186673 0.093182
v -0.135351 0.160412 0.094779
v -0.240610 0.128370 0.139551
v -0.043537 0.123248 0.089348
v -0.150646 0.101886 0.141956
v -0.262188 0.060460 0.138500
v -0.174294 0.024137 0.139863
v -0.060387 0.064795 0.134044
v -0.090042 -0.005136 0.130193
v 0.033640 0.036517 0.115174
v 0.004985 -0.031761 0.116305
v 0.078905 -0.062535 0.107125
v -0.109717 -0.061038 0.080336
v -0.202651 -0.032147 0.085628
v -0.208669 -0.047720 0.016317
v -0.118924 -0.071356 0.010599
v -0.020834 -0.083393 0.068344
v -0.025651 -0.095418 0.007522
v 0.057814 -0.116053 0.061781
v 0.049867 -0.124463 -0.006331
v 0.124685 -0.156483 0.059976
v 0.115576 -0.167194 -0.018530
v 0.188224 -0.207249 0.080594
v 0.178203 -0.213715 -0.014289
v 0.148301 -0.105311 0.115714
v 0.213308 -0.156808 0.153406
v 0.187253 -0.020757 0.121177
v 0.271052 -0.046691 0.174859
vt 1.687792 3.790663
vt 1.655045 3.790663
vt 1.655045 3.754214
vt 1.687792 3.754225
vt 1.687792 3.717675
vt 1.655045 3.717675
vt 1.687792 3.248766
vt 1.655044 3.285752
vt 1.655044 3.248539
vt 1.687792 3.209337
vt 1.655045 3.209337
vt 1.687792 3.285752
vt 1.655044 3.367380
vt 1.687792 3.367380
vt 1.655044 3.447445
vt 1.687792 3.447445
vt 1.361917 3.501844
vt 1.312208 3.557655
vt 1.312208 3.501844
vt 1.361917 3.447445
vt 1.312208 3.447445
vt 1.312208 3.385719
vt 1.361917 3.367380
vt 1.312208 3.285752
vt 1.411627 3.447445
vt 1.361917 3.557655
vt 1.361917 3.285752
vt 1.361917 3.247544
vt 1.312208 3.247544
vt 1.312208 3.209337
vt 1.361917 3.209337
vt 1.411627 3.247544
vt 1.411627 3.209337
vt 1.411627 3.285752
vt 1.511046 3.247544
vt 1.511046 3.209337
vt 1.411627 3.367380
vt 1.511046 3.285752
vt 1.585709 3.248313
vt 1.585709 3.209337
vt 1.655044 3.248539
vt 1.655045 3.209337
vt 1.585709 3.285752
vt 1.655044 3.285752
vt 1.511046 3.367380
vt 1.585709 3.367380
vt 1.655044 3.367380
vt 1.655044 3.447445
vt 1.511046 3.447445
vt 1.585709 3.447445
vt 1.411627 3.501844
vt 1.511046 3.501845
vt 1.411627 3.557655
vt 1.585709 3.501845
vt 1.511046 3.557655
vt 1.411627 3.635815
vt 1.655044 3.501845
vt 1.687792 3.447445
vt 1.687792 3.501846
vt 1.687792 3.557655
vt 1.655044 3.557655
vt 1.687792 3.635815
vt 1.585709 3.557655
vt 1.655044 3.635815
vt 1.687792 3.717675
vt 1.655045 3.717675
vt 1.585709 3.635815
vt 1.585710 3.717675
vt 1.511046 3.635815
vt 1.511046 3.717675
vt 1.411627 3.717675
vt 1.585710 3.754204
vt 1.655045 3.754214
vt 1.655045 3.790663
vt 1.585710 3.790663
vt 1.511046 3.754169
vt 1.511046 3.790663
vt 1.411627 3.754169
vt 1.411627 3.790663
vt 1.361917 3.754169
vt 1.361917 3.790663
vt 1.312208 3.769115
vt 1.312208 3.790663
vt 1.361917 3.717675
vt 1.312208 3.717675
vt 1.361917 3.635815
vt 1.312208 3.614785
vn -0.332784 -0.941612 -0.051214
vn -0.309970 -0.949617 -0.046322
vn -0.268841 -0.808208 0.523950
vn -0.298433 -0.812680 0.500488
vn -0.142832 -0.316563 0.937756
vn -0.087146 -0.351058 0.932290
vn -0.258087 -0.754398 -0.603551
vn -0.070442 -0.270218 -0.960219
vn -0.230799 -0.749972 -0.619898
vn -0.332784 -0.941612 -0.051214
vn -0.309970 -0.949617 -0.046322
vn -0.114336 -0.276492 -0.954190
vn 0.128927 0.285314 -0.949723
vn 0.082048 0.305088 -0.948783
vn 0.287917 0.781364 -0.553691
vn 0.262041 0.788433 -0.556514
vn -0.044741 0.996825 0.065872
vn -0.222961 0.802916 0.552825
vn -0.143599 0.986609 0.077349
vn -0.177649 0.872913 -0.454383
vn -0.216858 0.888019 -0.405456
vn -0.456319 0.489210 -0.743267
vn -0.383128 0.404642 -0.830348
vn -0.622972 -0.091151 -0.776916
vn 0.103377 0.850477 -0.515754
vn -0.079638 0.842106 0.533400
vn -0.536923 -0.115052 -0.835750
vn -0.543565 -0.620146 -0.565647
vn -0.568650 -0.630222 -0.528638
vn -0.593205 -0.798849 -0.099738
vn -0.570293 -0.811276 -0.128831
vn -0.467662 -0.621016 -0.628993
vn -0.469029 -0.878112 -0.094508
vn -0.337596 -0.168855 -0.926022
vn -0.291239 -0.740134 -0.606120
vn -0.316785 -0.945203 -0.078980
vn -0.102258 0.411425 -0.905689
vn -0.147713 -0.253315 -0.956040
vn -0.188332 -0.743400 -0.641785
vn -0.247919 -0.964436 -0.091648
vn -0.230799 -0.749972 -0.619898
vn -0.309970 -0.949617 -0.046322
vn -0.050925 -0.258898 -0.964561
vn -0.070442 -0.270218 -0.960219
vn 0.055942 0.359560 -0.931443
vn 0.139858 0.319859 -0.937086
vn 0.128927 0.285314 -0.949723
vn 0.287917 0.781364 -0.553691
vn 0.260759 0.816080 -0.515769
vn 0.302902 0.771991 -0.558820
vn 0.216943 0.975440 0.038111
vn 0.363261 0.931615 0.011566
vn 0.219240 0.773910 0.594135
vn 0.378715 0.925458 0.010130
vn 0.355258 0.739000 0.572425
vn 0.070270 0.280196 0.957367
vn 0.340329 0.940104 0.019498
vn 0.262041 0.788433 -0.556514
vn 0.335543 0.941765 0.022133
vn 0.238657 0.779856 0.578677
vn 0.278203 0.775150 0.567227
vn 0.068023 0.308148 0.948903
vn 0.343473 0.736118 0.583229
vn 0.131076 0.288934 0.948333
vn -0.142832 -0.316563 0.937756
vn -0.087146 -0.351058 0.932290
vn 0.204544 0.220405 0.953721
vn -0.005842 -0.388397 0.921474
vn 0.229899 0.243905 0.942155
vn 0.008288 -0.356351 0.934315
vn -0.137894 -0.303585 0.942773
vn -0.179530 -0.845805 0.502377
vn -0.268841 -0.808208 0.523950
vn -0.309970 -0.949617 -0.046322
vn -0.247919 -0.964436 -0.091648
vn -0.222253 -0.830551 0.510675
vn -0.316785 -0.945203 -0.078980
vn -0.357881 -0.780906 0.511964
vn -0.469029 -0.878112 -0.094508
vn -0.566971 -0.691176 0.448129
vn -0.570293 -0.811276 -0.128831
vn -0.659943 -0.620496 0.423627
vn -0.593205 -0.798849 -0.099738
vn -0.450895 -0.234365 0.861259
vn -0.612588 -0.170849 0.771717
vn -0.241827 0.379997 0.892817
vn -0.417907 0.368517 0.830391
f 1/1/1 2/2/2 3/3/3
f 3/3/3 4/4/4 1/1/1
f 3/3/3 5/5/5 4/4/4
f 5/5/5 3/3/3 6/6/6
f 7/7/7 8/8/8 9/9/9
f 9/9/9 10/10/10 7/7/7
f 10/10/10 9/9/9 11/11/11
f 8/8/8 7/7/7 12/12/12
f 12/12/12 13/13/13 8/8/8
f 13/13/13 12/12/12 14/14/14
f 14/14/14 15/15/15 13/13/13
f 15/15/15 14/14/14 16/16/16
f 17/17/17 18/18/18 19/19/19
f 19/19/19 20/20/20 17/17/17
f 20/20/20 19/19/19 21/21/21
f 22/22/22 20/20/20 21/21/21
f 20/20/20 22/22/22 23/23/23
f 24/24/24 23/23/23 22/22/22
f 25/25/25 17/17/17 20/20/20
f 23/23/23 25/25/25 20/20/20
f 18/18/18 17/17/17 26/26/26
f 23/23/23 24/24/24 27/27/27
f 24/24/24 28/28/28 27/27/27
f 28/28/28 24/24/24 29/29/29
f 30/30/30 28/28/28 29/29/29
f 28/28/28 30/30/30 31/31/31
f 31/31/31 32/32/32 28/28/28
f 32/32/32 27/27/27 28/28/28
f 32/32/32 31/31/31 33/33/33
f 34/34/34 23/23/23 27/27/27
f 27/27/27 32/32/32 34/34/34
f 33/33/33 35/35/35 32/32/32
f 32/32/32 35/35/35 34/34/34
f 35/35/35 33/33/33 36/36/36
f 23/23/23 34/34/34 37/37/37
f 25/25/25 23/23/23 37/37/37
f 38/38/38 34/34/34 35/35/35
f 38/38/38 37/37/37 34/34/34
f 39/39/39 35/35/35 36/36/36
f 39/39/39 38/38/38 35/35/35
f 39/39/39 36/36/36 40/40/40
f 41/41/41 39/39/39 40/40/40
f 41/41/41 40/40/40 42/42/42
f 41/41/41 43/43/43 39/39/39
f 38/38/38 39/39/39 43/43/43
f 43/43/43 41/41/41 44/44/44
f 37/37/37 38/38/38 45/45/45
f 43/43/43 45/45/45 38/38/38
f 45/45/45 25/25/25 37/37/37
f 44/44/44 46/46/46 43/43/43
f 45/45/45 43/43/43 46/46/46
f 46/46/46 44/44/44 47/47/47
f 48/48/48 46/46/46 47/47/47
f 46/46/46 49/49/49 45/45/45
f 25/25/25 45/45/45 49/49/49
f 46/46/46 48/48/48 50/50/50
f 49/49/49 46/46/46 50/50/50
f 49/49/49 51/51/51 25/25/25
f 17/17/17 25/25/25 51/51/51
f 51/51/51 26/26/26 17/17/17
f 51/51/51 49/49/49 52/52/52
f 50/50/50 52/52/52 49/49/49
f 26/26/26 51/51/51 53/53/53
f 52/52/52 53/53/53 51/51/51
f 52/52/52 50/50/50 54/54/54
f 50/50/50 48/48/48 54/54/54
f 53/53/53 52/52/52 55/55/55
f 54/54/54 55/55/55 52/52/52
f 26/26/26 53/53/53 56/56/56
f 57/57/57 54/54/54 48/48/48
f 58/58/58 57/57/57 48/48/48
f 57/57/57 58/58/58 59/59/59
f 60/60/60 57/57/57 59/59/59
f 57/57/57 60/60/60 61/61/61
f 61/61/61 54/54/54 57/57/57
f 62/62/62 61/61/61 60/60/60
f 54/54/54 61/61/61 63/63/63
f 55/55/55 54/54/54 63/63/63
f 61/61/61 62/62/62 64/64/64
f 64/64/64 63/63/63 61/61/61
f 65/65/65 64/64/64 62/62/62
f 64/64/64 65/65/65 66/66/66
f 63/63/63 64/64/64 67/67/67
f 55/55/55 63/63/63 67/67/67
f 66/66/66 68/68/68 64/64/64
f 67/67/67 64/64/64 68/68/68
f 67/67/67 69/69/69 55/55/55
f 53/53/53 55/55/55 69/69/69
f 69/69/69 56/56/56 53/53/53
f 67/67/67 70/70/70 69/69/69
f 70/70/70 67/67/67 68/68/68
f 69/69/69 71/71/71 56/56/56
f 71/71/71 69/69/69 70/70/70
f 68/68/68 66/66/66 72/72/72
f 73/73/73 72/72/72 66/66/66
f 72/72/72 73/73/73 74/74/74
f 74/74/74 75/75/75 72/72/72
f 76/76/76 68/68/68 72/72/72
f 75/75/75 76/76/76 72/72/72
f 68/68/68 76/76/76 70/70/70
f 76/76/76 75/75/75 77/77/77
f 78/78/78 70/70/70 76/76/76
f 77/77/77 78/78/78 76/76/76
f 70/70/70 78/78/78 71/71/71
f 77/77/77 79/79/79 78/78/78
f 79/79/79 80/80/80 78/78/78
f 80/80/80 71/71/71 78/78/78
f 79/79/79 81/81/81 80/80/80
f 81/81/81 82/82/82 80/80/80
f 81/81/81 83/83/83 82/82/82
f 71/71/71 80/80/80 84/84/84
f 82/82/82 84/84/84 80/80/80
f 84/84/84 56/56/56 71/71/71
f 85/85/85 84/84/84 82/82/82
f 56/56/56 84/84/84 86/86/86
f 85/85/85 86/86/86 84/84/84
f 56/56/56 86/86/86 26/26/26
f 86/86/86 85/85/85 87/87/87
f 18/18/18 26/26/26 86/86/86
f 86/86/86 87/87/87 18/18/18
