# Generated from Roblox mesh JSON (v2.00)
# Hello from RBX_Toolbox ;)
o RightLowerArm_inner_cage
v 0.205731 -0.297184 0.413968
v 0.375669 -0.154447 0.285479
v 0.220742 -0.158673 0.392013
v 0.403495 -0.329321 0.272178
v 0.422114 -0.160499 -0.001721
v 0.403495 -0.329321 0.272178
v 0.422853 -0.388384 -0.051440
v 0.375669 -0.154447 0.285479
v 0.024487 0.318531 0.276616
v 0.126791 0.359691 0.161642
v 0.072490 0.388384 0.150372
v -0.003703 0.351505 0.231082
v -0.127518 -0.214638 -0.382089
v -0.257348 -0.105253 -0.282312
v -0.087954 -0.099255 -0.334966
v -0.288613 -0.220629 -0.263367
v -0.003703 0.351505 0.231082
v -0.117693 0.308202 0.233919
v -0.125140 0.256303 0.283194
v 0.024487 0.318531 0.276616
v 0.062222 0.380851 0.028956
v 0.126791 0.359691 0.161642
v 0.125152 0.353769 0.000902
v 0.072490 0.388384 0.150372
v 0.305554 -0.163539 -0.200511
v 0.422853 -0.388384 -0.051440
v 0.375028 -0.341195 -0.261485
v 0.422114 -0.160499 -0.001721
v 0.205731 -0.297184 0.413968
v -0.115019 -0.196405 0.396828
v -0.113839 -0.295962 0.407462
v 0.220742 -0.158673 0.392013
v -0.117693 0.308202 0.233919
v -0.211685 0.281807 0.183091
v -0.125140 0.256303 0.283194
v -0.242233 0.217233 0.165372
v -0.050886 0.332595 -0.087122
v 0.013520 0.362287 -0.043605
v 0.043364 0.322730 -0.078661
v -0.026090 0.295034 -0.163094
v 0.062222 0.380851 0.028956
v 0.043364 0.322730 -0.078661
v 0.013520 0.362287 -0.043605
v 0.125152 0.353769 0.000902
v 0.186305 0.249869 0.180200
v 0.126791 0.359691 0.161642
v 0.072147 0.216081 0.296481
v 0.024487 0.318531 0.276616
v 0.220742 -0.158673 0.392013
v -0.076907 -0.047138 0.368421
v -0.115019 -0.196405 0.396828
v 0.129021 -0.000359 0.344652
v -0.026090 0.295034 -0.163094
v -0.127213 0.258634 -0.129878
v -0.050886 0.332595 -0.087122
v -0.124285 0.305794 -0.084635
v -0.115851 0.163436 0.309224
v 0.094997 0.104172 0.318971
v 0.072147 0.216081 0.296481
v -0.083663 0.058176 0.338012
v 0.072147 0.216081 0.296481
v -0.125140 0.256303 0.283194
v -0.115851 0.163436 0.309224
v 0.024487 0.318531 0.276616
v 0.129021 -0.000359 0.344652
v -0.083663 0.058176 0.338012
v -0.076907 -0.047138 0.368421
v 0.094997 0.104172 0.318971
v -0.127518 -0.214638 -0.382089
v 0.160412 -0.188446 -0.320074
v 0.138590 -0.310381 -0.369645
v -0.169921 -0.301554 -0.413968
v 0.072147 0.216081 0.296481
v 0.222953 0.149709 0.187416
v 0.186305 0.249869 0.180200
v 0.094997 0.104172 0.318971
v 0.222953 0.149709 0.187416
v 0.129021 -0.000359 0.344652
v 0.289489 0.032012 0.207659
v 0.094997 0.104172 0.318971
v -0.204485 0.276511 0.070415
v -0.247397 0.215374 0.069274
v -0.242233 0.217233 0.165372
v -0.211685 0.281807 0.183091
v -0.184257 0.283897 -0.017574
v -0.210402 0.224762 -0.052646
v -0.247397 0.215374 0.069274
v -0.204485 0.276511 0.070415
v -0.184257 0.283897 -0.017574
v -0.124285 0.305794 -0.084635
v -0.210402 0.224762 -0.052646
v -0.127213 0.258634 -0.129878
v 0.422114 -0.160499 -0.001721
v 0.289489 0.032012 0.207659
v 0.375669 -0.154447 0.285479
v 0.307921 0.035104 -0.028125
v 0.305554 -0.163539 -0.200511
v 0.138590 -0.310381 -0.369645
v 0.160412 -0.188446 -0.320074
v 0.375028 -0.341195 -0.261485
v 0.230768 -0.000124 -0.163992
v 0.422114 -0.160499 -0.001721
v 0.305554 -0.163539 -0.200511
v 0.307921 0.035104 -0.028125
v -0.115851 0.163436 0.309224
v -0.242233 0.217233 0.165372
v -0.225175 0.133240 0.181814
v -0.125140 0.256303 0.283194
v 0.176585 0.249657 -0.003483
v 0.126791 0.359691 0.161642
v 0.186305 0.249869 0.180200
v 0.125152 0.353769 0.000902
v -0.169921 -0.301554 -0.413968
v -0.288613 -0.220629 -0.263367
v -0.127518 -0.214638 -0.382089
v -0.321360 -0.301403 -0.264644
v 0.289489 0.032012 0.207659
v 0.220742 -0.158673 0.392013
v 0.375669 -0.154447 0.285479
v 0.129021 -0.000359 0.344652
v -0.113839 -0.295962 0.407462
v -0.283530 -0.207077 0.295017
v -0.347308 -0.310139 0.330635
v -0.115019 -0.196405 0.396828
v 0.176585 0.249657 -0.003483
v 0.222953 0.149709 0.187416
v 0.226423 0.133540 -0.011153
v 0.186305 0.249869 0.180200
v -0.083663 0.058176 0.338012
v -0.225175 0.133240 0.181814
v -0.198015 0.020919 0.203264
v -0.115851 0.163436 0.309224
v 0.125152 0.353769 0.000902
v 0.108709 0.233061 -0.108301
v 0.043364 0.322730 -0.078661
v 0.176585 0.249657 -0.003483
v 0.226423 0.133540 -0.011153
v 0.289489 0.032012 0.207659
v 0.307921 0.035104 -0.028125
v 0.222953 0.149709 0.187416
v 0.043364 0.322730 -0.078661
v 0.012885 0.196952 -0.186345
v -0.026090 0.295034 -0.163094
v 0.108709 0.233061 -0.108301
v 0.108709 0.233061 -0.108301
v 0.226423 0.133540 -0.011153
v 0.167477 0.126258 -0.124203
v 0.176585 0.249657 -0.003483
v 0.108709 0.233061 -0.108301
v 0.062847 0.092234 -0.200984
v 0.012885 0.196952 -0.186345
v 0.167477 0.126258 -0.124203
v 0.062847 0.092234 -0.200984
v 0.230768 -0.000124 -0.163992
v 0.112206 -0.062172 -0.240084
v 0.167477 0.126258 -0.124203
v 0.167477 0.126258 -0.124203
v 0.307921 0.035104 -0.028125
v 0.230768 -0.000124 -0.163992
v 0.226423 0.133540 -0.011153
v -0.115019 -0.196405 0.396828
v -0.224930 -0.113037 0.271726
v -0.283530 -0.207077 0.295017
v -0.076907 -0.047138 0.368421
v 0.062847 0.092234 -0.200984
v -0.092541 0.161106 -0.147360
v 0.012885 0.196952 -0.186345
v -0.092571 0.052203 -0.225379
v -0.076907 -0.047138 0.368421
v -0.198015 0.020919 0.203264
v -0.224930 -0.113037 0.271726
v -0.083663 0.058176 0.338012
v 0.160412 -0.188446 -0.320074
v -0.127518 -0.214638 -0.382089
v -0.087954 -0.099255 -0.334966
v 0.112206 -0.062172 -0.240084
v 0.230768 -0.000124 -0.163992
v 0.160412 -0.188446 -0.320074
v 0.112206 -0.062172 -0.240084
v 0.305554 -0.163539 -0.200511
v 0.112206 -0.062172 -0.240084
v -0.092571 0.052203 -0.225379
v 0.062847 0.092234 -0.200984
v -0.087954 -0.099255 -0.334966
v -0.171353 0.136479 -0.067094
v -0.092541 0.161106 -0.147360
v -0.186544 0.027997 -0.141279
v -0.092571 0.052203 -0.225379
v -0.026090 0.295034 -0.163094
v -0.092541 0.161106 -0.147360
v -0.127213 0.258634 -0.129878
v 0.012885 0.196952 -0.186345
v -0.206282 0.129653 0.047464
v -0.223435 0.015490 0.040396
v -0.225175 0.133240 0.181814
v -0.198015 0.020919 0.203264
v -0.171353 0.136479 -0.067094
v -0.186544 0.027997 -0.141279
v -0.223435 0.015490 0.040396
v -0.206282 0.129653 0.047464
v -0.274099 -0.122958 0.019036
v -0.198015 0.020919 0.203264
v -0.223435 0.015490 0.040396
v -0.224930 -0.113037 0.271726
v -0.257348 -0.105253 -0.282312
v -0.092571 0.052203 -0.225379
v -0.087954 -0.099255 -0.334966
v -0.186544 0.027997 -0.141279
v -0.274099 -0.122958 0.019036
v -0.257348 -0.105253 -0.282312
v -0.288613 -0.220629 -0.263367
v -0.345377 -0.225749 0.031164
v -0.171353 0.136479 -0.067094
v -0.210402 0.224762 -0.052646
v -0.127213 0.258634 -0.129878
v -0.092541 0.161106 -0.147360
v -0.247397 0.215374 0.069274
v -0.206282 0.129653 0.047464
v -0.225175 0.133240 0.181814
v -0.242233 0.217233 0.165372
v -0.274099 -0.122958 0.019036
v -0.186544 0.027997 -0.141279
v -0.257348 -0.105253 -0.282312
v -0.223435 0.015490 0.040396
v -0.345377 -0.225749 0.031164
v -0.288613 -0.220629 -0.263367
v -0.321360 -0.301403 -0.264644
v -0.422853 -0.340420 0.047865
v -0.210402 0.224762 -0.052646
v -0.171353 0.136479 -0.067094
v -0.206282 0.129653 0.047464
v -0.247397 0.215374 0.069274
v -0.422853 -0.340420 0.047865
v -0.283530 -0.207077 0.295017
v -0.345377 -0.225749 0.031164
v -0.347308 -0.310139 0.330635
v -0.345377 -0.225749 0.031164
v -0.224930 -0.113037 0.271726
v -0.274099 -0.122958 0.019036
v -0.283530 -0.207077 0.295017
vt 1.312208 3.614785
vt 1.361917 3.557655
vt 1.361917 3.635815
vt 1.312208 3.557655
vt 1.361917 3.501844
vt 1.312208 3.557655
vt 1.312208 3.501844
vt 1.361917 3.557655
vt 1.655044 3.635815
vt 1.655044 3.557655
vt 1.687792 3.557655
vt 1.687792 3.635815
vt 1.361917 3.285752
vt 1.411627 3.247544
vt 1.411627 3.285752
vt 1.361917 3.247544
vt 1.687792 3.635815
vt 1.687792 3.717675
vt 1.655045 3.717675
vt 1.655044 3.635815
vt 1.687792 3.501846
vt 1.655044 3.557655
vt 1.655044 3.501845
vt 1.687792 3.557655
vt 1.361917 3.447445
vt 1.312208 3.501844
vt 1.312208 3.447445
vt 1.361917 3.501844
vt 1.312208 3.614785
vt 1.361917 3.717675
vt 1.312208 3.717675
vt 1.361917 3.635815
vt 1.687792 3.717675
vt 1.687792 3.754225
vt 1.655045 3.717675
vt 1.655045 3.754214
vt 1.687792 3.367380
vt 1.687792 3.447445
vt 1.655044 3.447445
vt 1.655044 3.367380
vt 1.687792 3.501846
vt 1.655044 3.447445
vt 1.687792 3.447445
vt 1.655044 3.501845
vt 1.585709 3.557655
vt 1.655044 3.557655
vt 1.585709 3.635815
vt 1.655044 3.635815
vt 1.361917 3.635815
vt 1.411627 3.717675
vt 1.361917 3.717675
vt 1.411627 3.635815
vt 1.655044 3.367380
vt 1.655044 3.285752
vt 1.687792 3.367380
vt 1.687792 3.285752
vt 1.585710 3.717675
vt 1.511046 3.635815
vt 1.585709 3.635815
vt 1.511046 3.717675
vt 1.585709 3.635815
vt 1.655045 3.717675
vt 1.585710 3.717675
vt 1.655044 3.635815
vt 1.411627 3.635815
vt 1.511046 3.717675
vt 1.411627 3.717675
vt 1.511046 3.635815
vt 1.361917 3.285752
vt 1.361917 3.367380
vt 1.312208 3.385719
vt 1.312208 3.285752
vt 1.585709 3.635815
vt 1.511046 3.557655
vt 1.585709 3.557655
vt 1.511046 3.635815
vt 1.511046 3.557655
vt 1.411627 3.635815
vt 1.411627 3.557655
vt 1.511046 3.635815
vt 1.687792 3.790663
vt 1.655045 3.790663
vt 1.655045 3.754214
vt 1.687792 3.754225
vt 1.687792 3.248766
vt 1.655044 3.248539
vt 1.655045 3.209337
vt 1.687792 3.209337
vt 1.687792 3.248766
vt 1.687792 3.285752
vt 1.655044 3.248539
vt 1.655044 3.285752
vt 1.361917 3.501844
vt 1.411627 3.557655
vt 1.361917 3.557655
vt 1.411627 3.501844
vt 1.361917 3.447445
vt 1.312208 3.385719
vt 1.361917 3.367380
vt 1.312208 3.447445
vt 1.411627 3.447445
vt 1.361917 3.501844
vt 1.361917 3.447445
vt 1.411627 3.501844
vt 1.585710 3.717675
vt 1.655045 3.754214
vt 1.585710 3.754204
vt 1.655045 3.717675
vt 1.585709 3.501845
vt 1.655044 3.557655
vt 1.585709 3.557655
vt 1.655044 3.501845
vt 1.312208 3.285752
vt 1.361917 3.247544
vt 1.361917 3.285752
vt 1.312208 3.247544
vt 1.411627 3.557655
vt 1.361917 3.635815
vt 1.361917 3.557655
vt 1.411627 3.635815
vt 1.312208 3.717675
vt 1.361917 3.754169
vt 1.312208 3.769115
vt 1.361917 3.717675
vt 1.585709 3.501845
vt 1.511046 3.557655
vt 1.511046 3.501845
vt 1.585709 3.557655
vt 1.511046 3.717675
vt 1.585710 3.754204
vt 1.511046 3.754169
vt 1.585710 3.717675
vt 1.655044 3.501845
vt 1.585709 3.447445
vt 1.655044 3.447445
vt 1.585709 3.501845
vt 1.511046 3.501845
vt 1.411627 3.557655
vt 1.411627 3.501844
vt 1.511046 3.557655
vt 1.655044 3.447445
vt 1.585709 3.367380
vt 1.655044 3.367380
vt 1.585709 3.447445
vt 1.585709 3.447445
vt 1.511046 3.501845
vt 1.511046 3.447445
vt 1.585709 3.501845
vt 1.585709 3.447445
vt 1.511046 3.367380
vt 1.585709 3.367380
vt 1.511046 3.447445
vt 1.511046 3.367380
vt 1.411627 3.447445
vt 1.411627 3.367380
vt 1.511046 3.447445
vt 1.511046 3.447445
vt 1.411627 3.501844
vt 1.411627 3.447445
vt 1.511046 3.501845
vt 1.361917 3.717675
vt 1.411627 3.754169
vt 1.361917 3.754169
vt 1.411627 3.717675
vt 1.511046 3.367380
vt 1.585709 3.285752
vt 1.585709 3.367380
vt 1.511046 3.285752
vt 1.411627 3.717675
vt 1.511046 3.754169
vt 1.411627 3.754169
vt 1.511046 3.717675
vt 1.361917 3.367380
vt 1.361917 3.285752
vt 1.411627 3.285752
vt 1.411627 3.367380
vt 1.411627 3.447445
vt 1.361917 3.367380
vt 1.411627 3.367380
vt 1.361917 3.447445
vt 1.411627 3.367380
vt 1.511046 3.285752
vt 1.511046 3.367380
vt 1.411627 3.285752
vt 1.585709 3.248313
vt 1.585709 3.285752
vt 1.511046 3.247544
vt 1.511046 3.285752
vt 1.655044 3.367380
vt 1.585709 3.285752
vt 1.655044 3.285752
vt 1.585709 3.367380
vt 1.585710 3.790663
vt 1.511046 3.790663
vt 1.585710 3.754204
vt 1.511046 3.754169
vt 1.585709 3.248313
vt 1.511046 3.247544
vt 1.511046 3.209337
vt 1.585709 3.209337
vt 1.411627 3.790663
vt 1.511046 3.754169
vt 1.511046 3.790663
vt 1.411627 3.754169
vt 1.411627 3.247544
vt 1.511046 3.285752
vt 1.411627 3.285752
vt 1.511046 3.247544
vt 1.411627 3.209337
vt 1.411627 3.247544
vt 1.361917 3.247544
vt 1.361917 3.209337
vt 1.585709 3.248313
vt 1.655044 3.248539
vt 1.655044 3.285752
vt 1.585709 3.285752
vt 1.655045 3.790663
vt 1.585710 3.790663
vt 1.585710 3.754204
vt 1.655045 3.754214
vt 1.411627 3.209337
vt 1.511046 3.247544
vt 1.411627 3.247544
vt 1.511046 3.209337
vt 1.361917 3.209337
vt 1.361917 3.247544
vt 1.312208 3.247544
vt 1.312208 3.209337
vt 1.655044 3.248539
vt 1.585709 3.248313
vt 1.585709 3.209337
vt 1.655045 3.209337
vt 1.312208 3.790663
vt 1.361917 3.754169
vt 1.361917 3.790663
vt 1.312208 3.769115
vt 1.361917 3.790663
vt 1.411627 3.754169
vt 1.411627 3.790663
vt 1.361917 3.754169
vn 0.577528 0.046123 0.815067
vn 0.577528 0.046123 0.815067
vn 0.577528 0.046123 0.815067
vn 0.577528 0.046123 0.815067
vn 0.993366 0.054618 0.101192
vn 0.993366 0.054618 0.101192
vn 0.993366 0.054618 0.101192
vn 0.993366 0.054618 0.101192
vn 0.235229 0.809782 0.537513
vn 0.235229 0.809782 0.537513
vn 0.235229 0.809782 0.537513
vn 0.235229 0.809782 0.537513
vn -0.453399 0.243850 -0.857302
vn -0.453400 0.243850 -0.857302
vn -0.453399 0.243850 -0.857302
vn -0.453400 0.243850 -0.857302
vn -0.253148 0.692620 0.675422
vn -0.253148 0.692620 0.675422
vn -0.253148 0.692620 0.675422
vn -0.253148 0.692620 0.675422
vn 0.421690 0.904690 -0.060937
vn 0.421690 0.904690 -0.060937
vn 0.421690 0.904690 -0.060937
vn 0.421690 0.904690 -0.060937
vn 0.907520 0.249371 -0.337968
vn 0.907520 0.249371 -0.337968
vn 0.907520 0.249371 -0.337968
vn 0.907520 0.249371 -0.337968
vn -0.010143 0.136196 0.990630
vn -0.010143 0.136196 0.990630
vn -0.010143 0.136196 0.990630
vn -0.010143 0.136196 0.990630
vn -0.645685 0.388708 0.657264
vn -0.645685 0.388708 0.657264
vn -0.645685 0.388708 0.657265
vn -0.645685 0.388708 0.657264
vn 0.134958 0.843684 -0.519599
vn 0.134958 0.843684 -0.519599
vn 0.134958 0.843684 -0.519599
vn 0.134958 0.843684 -0.519599
vn 0.260162 0.829783 -0.493737
vn 0.260162 0.829783 -0.493737
vn 0.260162 0.829783 -0.493737
vn 0.260162 0.829783 -0.493737
vn 0.589477 0.422270 0.688626
vn 0.589477 0.422270 0.688626
vn 0.589477 0.422270 0.688626
vn 0.589477 0.422270 0.688626
vn 0.013542 0.241390 0.970334
vn 0.013542 0.241390 0.970334
vn 0.013542 0.241390 0.970334
vn 0.013542 0.241390 0.970334
vn -0.380013 0.724563 -0.574977
vn -0.380013 0.724563 -0.574977
vn -0.380013 0.724563 -0.574977
vn -0.380013 0.724563 -0.574977
vn 0.021072 0.234807 0.971814
vn 0.021072 0.234807 0.971814
vn 0.021072 0.234807 0.971814
vn 0.021072 0.234807 0.971814
vn -0.020145 0.223128 0.974581
vn -0.020145 0.223128 0.974581
vn -0.020145 0.223128 0.974581
vn -0.020145 0.223128 0.974581
vn 0.043083 0.265791 0.963067
vn 0.043083 0.265791 0.963067
vn 0.043083 0.265791 0.963067
vn 0.043083 0.265791 0.963067
vn 0.157570 0.316370 -0.935458
vn 0.157570 0.316370 -0.935458
vn 0.157570 0.316370 -0.935458
vn 0.157570 0.316370 -0.935458
vn 0.640427 0.279860 0.715215
vn 0.640427 0.279860 0.715215
vn 0.640427 0.279860 0.715215
vn 0.640427 0.279860 0.715215
vn 0.562662 0.403692 0.721418
vn 0.562662 0.403692 0.721418
vn 0.562662 0.403692 0.721418
vn 0.562662 0.403692 0.721418
vn -0.861416 0.507245 -0.025782
vn -0.861416 0.507245 -0.025782
vn -0.861416 0.507245 -0.025782
vn -0.861416 0.507245 -0.025782
vn -0.827693 0.530418 -0.183254
vn -0.827693 0.530418 -0.183254
vn -0.827693 0.530418 -0.183254
vn -0.827693 0.530418 -0.183254
vn -0.690424 0.546753 -0.473684
vn -0.690424 0.546753 -0.473684
vn -0.690424 0.546753 -0.473684
vn -0.690424 0.546753 -0.473684
vn 0.868630 0.484204 0.105014
vn 0.868630 0.484204 0.105014
vn 0.868630 0.484204 0.105014
vn 0.868630 0.484204 0.105014
vn 0.480342 0.369853 -0.795286
vn 0.480342 0.369853 -0.795286
vn 0.480342 0.369853 -0.795286
vn 0.480342 0.369853 -0.795286
vn 0.765295 0.416661 -0.490629
vn 0.765295 0.416661 -0.490629
vn 0.765295 0.416661 -0.490629
vn 0.765295 0.416661 -0.490629
vn -0.740858 0.050474 0.669763
vn -0.740858 0.050474 0.669763
vn -0.740858 0.050474 0.669763
vn -0.740858 0.050474 0.669763
vn 0.888113 0.458097 -0.037448
vn 0.888113 0.458097 -0.037448
vn 0.888113 0.458097 -0.037448
vn 0.888113 0.458097 -0.037448
vn -0.599539 0.405156 -0.690219
vn -0.599539 0.405156 -0.690219
vn -0.599539 0.405156 -0.690219
vn -0.599539 0.405156 -0.690219
vn 0.488177 0.509241 0.708772
vn 0.488177 0.509241 0.708772
vn 0.488177 0.509241 0.708772
vn 0.488177 0.509241 0.708772
vn -0.401208 0.319875 0.858320
vn -0.401208 0.319875 0.858320
vn -0.401208 0.319875 0.858320
vn -0.401208 0.319875 0.858320
vn 0.928044 0.371171 -0.031080
vn 0.928044 0.371171 -0.031080
vn 0.928044 0.371171 -0.031080
vn 0.928044 0.371171 -0.031080
vn -0.752747 -0.053833 0.656106
vn -0.752747 -0.053833 0.656106
vn -0.752747 -0.053833 0.656106
vn -0.752747 -0.053833 0.656106
vn 0.615899 0.480748 -0.624139
vn 0.615899 0.480748 -0.624139
vn 0.615899 0.480748 -0.624139
vn 0.615899 0.480748 -0.624139
vn 0.824611 0.565167 0.024565
vn 0.824611 0.565167 0.024565
vn 0.824611 0.565167 0.024565
vn 0.824611 0.565167 0.024565
vn 0.511221 0.484103 -0.710139
vn 0.511221 0.484103 -0.710139
vn 0.511221 0.484103 -0.710139
vn 0.511221 0.484103 -0.710139
vn 0.762135 0.423127 -0.490014
vn 0.762135 0.423127 -0.490014
vn 0.762135 0.423127 -0.490014
vn 0.762135 0.423127 -0.490014
vn 0.485983 0.364507 -0.794327
vn 0.485983 0.364507 -0.794327
vn 0.485983 0.364507 -0.794327
vn 0.485983 0.364507 -0.794327
vn 0.398597 0.392762 -0.828769
vn 0.398597 0.392762 -0.828769
vn 0.398597 0.392762 -0.828769
vn 0.398597 0.392762 -0.828769
vn 0.683738 0.558822 -0.469277
vn 0.683738 0.558822 -0.469277
vn 0.683738 0.558822 -0.469277
vn 0.683738 0.558822 -0.469277
vn -0.555764 0.378219 0.740322
vn -0.555764 0.378219 0.740322
vn -0.555763 0.378219 0.740322
vn -0.555764 0.378219 0.740322
vn -0.156691 0.361958 -0.918931
vn -0.156691 0.361958 -0.918931
vn -0.156691 0.361958 -0.918931
vn -0.156691 0.361958 -0.918931
vn -0.694273 0.324043 0.642636
vn -0.694273 0.324043 0.642636
vn -0.694273 0.324043 0.642636
vn -0.694273 0.324043 0.642636
vn 0.216982 0.460503 -0.860729
vn 0.216982 0.460504 -0.860729
vn 0.216982 0.460504 -0.860729
vn 0.216982 0.460503 -0.860729
vn 0.412197 0.485161 -0.771176
vn 0.412197 0.485161 -0.771176
vn 0.412197 0.485161 -0.771176
vn 0.412197 0.485161 -0.771176
vn 0.192465 0.456293 -0.868766
vn 0.192465 0.456293 -0.868766
vn 0.192465 0.456293 -0.868766
vn 0.192465 0.456293 -0.868766
vn -0.678403 0.452662 -0.578676
vn -0.678403 0.452662 -0.578676
vn -0.678403 0.452662 -0.578676
vn -0.678403 0.452662 -0.578676
vn -0.348978 0.063308 -0.934990
vn -0.348978 0.063308 -0.934990
vn -0.348978 0.063308 -0.934990
vn -0.348978 0.063308 -0.934990
vn -0.998820 -0.042655 0.023227
vn -0.998820 -0.042655 0.023227
vn -0.998820 -0.042655 0.023227
vn -0.998820 -0.042655 0.023227
vn -0.951777 0.217302 -0.216567
vn -0.951777 0.217302 -0.216567
vn -0.951777 0.217302 -0.216567
vn -0.951777 0.217302 -0.216567
vn -0.942108 0.295656 0.158178
vn -0.942108 0.295656 0.158178
vn -0.942108 0.295656 0.158178
vn -0.942108 0.295656 0.158178
vn -0.405956 0.655204 -0.637109
vn -0.405956 0.655204 -0.637109
vn -0.405956 0.655204 -0.637109
vn -0.405956 0.655204 -0.637109
vn -0.906029 0.412185 -0.095989
vn -0.906029 0.412185 -0.095989
vn -0.906029 0.412185 -0.095989
vn -0.906029 0.412185 -0.095989
vn -0.664503 -0.137415 -0.734543
vn -0.664503 -0.137415 -0.734543
vn -0.664503 -0.137415 -0.734543
vn -0.664503 -0.137415 -0.734543
vn -0.945320 -0.322488 -0.048699
vn -0.945320 -0.322488 -0.048699
vn -0.945320 -0.322488 -0.048699
vn -0.945320 -0.322488 -0.048699
vn -0.893934 0.442443 -0.071601
vn -0.893934 0.442443 -0.071601
vn -0.893934 0.442443 -0.071601
vn -0.893934 0.442443 -0.071601
vn -0.861457 0.470805 -0.190353
vn -0.861457 0.470805 -0.190353
vn -0.861457 0.470805 -0.190353
vn -0.861457 0.470805 -0.190353
vn -0.889808 -0.348564 -0.294525
vn -0.889808 -0.348564 -0.294525
vn -0.889808 -0.348564 -0.294525
vn -0.889808 -0.348564 -0.294525
vn -0.811721 0.563497 0.153559
vn -0.811721 0.563497 0.153559
vn -0.811721 0.563497 0.153559
vn -0.811721 0.563497 0.153559
vn -0.813907 0.562928 0.143763
vn -0.813907 0.562928 0.143763
vn -0.813907 0.562928 0.143763
vn -0.813907 0.562928 0.143763
f 1/1/1 2/2/2 3/3/3
f 2/2/2 1/1/1 4/4/4
f 5/5/5 6/6/6 7/7/7
f 6/6/6 5/5/5 8/8/8
f 9/9/9 10/10/10 11/11/11
f 9/9/9 11/11/11 12/12/12
f 13/13/13 14/14/14 15/15/15
f 14/14/14 13/13/13 16/16/16
f 17/17/17 18/18/18 19/19/19
f 19/19/19 20/20/20 17/17/17
f 21/21/21 22/22/22 23/23/23
f 22/22/22 21/21/21 24/24/24
f 25/25/25 26/26/26 27/27/27
f 26/26/26 25/25/25 28/28/28
f 29/29/29 30/30/30 31/31/31
f 30/30/30 29/29/29 32/32/32
f 33/33/33 34/34/34 35/35/35
f 36/36/36 35/35/35 34/34/34
f 37/37/37 38/38/38 39/39/39
f 39/39/39 40/40/40 37/37/37
f 41/41/41 42/42/42 43/43/43
f 42/42/42 41/41/41 44/44/44
f 45/45/45 46/46/46 47/47/47
f 46/46/46 48/48/48 47/47/47
f 49/49/49 50/50/50 51/51/51
f 50/50/50 49/49/49 52/52/52
f 53/53/53 54/54/54 55/55/55
f 54/54/54 56/56/56 55/55/55
f 57/57/57 58/58/58 59/59/59
f 58/58/58 57/57/57 60/60/60
f 61/61/61 62/62/62 63/63/63
f 62/62/62 61/61/61 64/64/64
f 65/65/65 66/66/66 67/67/67
f 66/66/66 65/65/65 68/68/68
f 69/69/69 70/70/70 71/71/71
f 71/71/71 72/72/72 69/69/69
f 73/73/73 74/74/74 75/75/75
f 74/74/74 73/73/73 76/76/76
f 77/77/77 78/78/78 79/79/79
f 78/78/78 77/77/77 80/80/80
f 81/81/81 82/82/82 83/83/83
f 81/81/81 83/83/83 84/84/84
f 85/85/85 86/86/86 87/87/87
f 85/85/85 87/87/87 88/88/88
f 89/89/89 90/90/90 91/91/91
f 90/90/90 92/92/92 91/91/91
f 93/93/93 94/94/94 95/95/95
f 94/94/94 93/93/93 96/96/96
f 97/97/97 98/98/98 99/99/99
f 98/98/98 97/97/97 100/100/100
f 101/101/101 102/102/102 103/103/103
f 102/102/102 101/101/101 104/104/104
f 105/105/105 106/106/106 107/107/107
f 106/106/106 105/105/105 108/108/108
f 109/109/109 110/110/110 111/111/111
f 110/110/110 109/109/109 112/112/112
f 113/113/113 114/114/114 115/115/115
f 114/114/114 113/113/113 116/116/116
f 117/117/117 118/118/118 119/119/119
f 118/118/118 117/117/117 120/120/120
f 121/121/121 122/122/122 123/123/123
f 122/122/122 121/121/121 124/124/124
f 125/125/125 126/126/126 127/127/127
f 126/126/126 125/125/125 128/128/128
f 129/129/129 130/130/130 131/131/131
f 130/130/130 129/129/129 132/132/132
f 133/133/133 134/134/134 135/135/135
f 134/134/134 133/133/133 136/136/136
f 137/137/137 138/138/138 139/139/139
f 138/138/138 137/137/137 140/140/140
f 141/141/141 142/142/142 143/143/143
f 142/142/142 141/141/141 144/144/144
f 145/145/145 146/146/146 147/147/147
f 146/146/146 145/145/145 148/148/148
f 149/149/149 150/150/150 151/151/151
f 150/150/150 149/149/149 152/152/152
f 153/153/153 154/154/154 155/155/155
f 154/154/154 153/153/153 156/156/156
f 157/157/157 158/158/158 159/159/159
f 158/158/158 157/157/157 160/160/160
f 161/161/161 162/162/162 163/163/163
f 162/162/162 161/161/161 164/164/164
f 165/165/165 166/166/166 167/167/167
f 166/166/166 165/165/165 168/168/168
f 169/169/169 170/170/170 171/171/171
f 170/170/170 169/169/169 172/172/172
f 173/173/173 174/174/174 175/175/175
f 173/173/173 175/175/175 176/176/176
f 177/177/177 178/178/178 179/179/179
f 178/178/178 177/177/177 180/180/180
f 181/181/181 182/182/182 183/183/183
f 182/182/182 181/181/181 184/184/184
f 185/185/185 186/186/186 187/187/187
f 186/186/186 188/188/188 187/187/187
f 189/189/189 190/190/190 191/191/191
f 190/190/190 189/189/189 192/192/192
f 193/193/193 194/194/194 195/195/195
f 194/194/194 196/196/196 195/195/195
f 197/197/197 198/198/198 199/199/199
f 197/197/197 199/199/199 200/200/200
f 201/201/201 202/202/202 203/203/203
f 202/202/202 201/201/201 204/204/204
f 205/205/205 206/206/206 207/207/207
f 206/206/206 205/205/205 208/208/208
f 209/209/209 210/210/210 211/211/211
f 211/211/211 212/212/212 209/209/209
f 213/213/213 214/214/214 215/215/215
f 215/215/215 216/216/216 213/213/213
f 217/217/217 218/218/218 219/219/219
f 217/217/217 219/219/219 220/220/220
f 221/221/221 222/222/222 223/223/223
f 222/222/222 221/221/221 224/224/224
f 225/225/225 226/226/226 227/227/227
f 227/227/227 228/228/228 225/225/225
f 229/229/229 230/230/230 231/231/231
f 229/229/229 231/231/231 232/232/232
f 233/233/233 234/234/234 235/235/235
f 234/234/234 233/233/233 236/236/236
f 237/237/237 238/238/238 239/239/239
f 238/238/238 237/237/237 240/240/240
