# Generated from Roblox mesh JSON (v2.00)
# Hello from RBX_Toolbox ;)
o RightHandWrapTarget
v -0.168923 0.282596 -0.030188
v -0.052593 0.164261 -0.166509
v -0.209341 0.216300 -0.134233
v -0.008188 0.221051 -0.097930
v 0.111280 0.153334 -0.131520
v -0.034569 0.013611 -0.162861
v -0.064983 0.100630 -0.252707
v -0.053431 0.011088 -0.200650
v -0.077443 -0.040255 -0.302823
v -0.099768 0.015335 -0.376204
v -0.145211 0.042303 -0.403401
v -0.171833 0.132225 -0.291038
v -0.304111 0.101328 -0.138653
v -0.257446 0.039502 -0.286394
v -0.201148 -0.017936 -0.376050
v -0.099768 0.015335 -0.376204
v -0.077443 -0.040255 -0.302823
v -0.169750 -0.069575 -0.305631
v -0.205200 -0.043644 -0.159005
v -0.291867 0.001850 -0.014509
v -0.077443 -0.040255 -0.302823
v -0.162522 -0.031821 -0.043886
v -0.053431 0.011088 -0.200650
v -0.034569 0.013611 -0.162861
v 0.086108 0.003596 0.398569
v -0.046558 0.093076 0.403401
v -0.118278 -0.075691 0.379972
v -0.190959 0.149337 0.383807
v -0.237942 0.000978 0.379211
v -0.361538 0.064669 0.311047
v -0.303795 0.174787 0.332499
v 0.010901 -0.138014 0.349541
v 0.013452 0.202036 0.269987
v -0.154463 0.258076 0.276767
v -0.286461 0.270611 0.254436
v -0.280524 0.306916 0.142750
v -0.150577 0.297341 0.121853
v -0.306239 0.286548 0.050264
v -0.168923 0.282596 -0.030188
v -0.343296 0.214185 -0.017219
v -0.209341 0.216300 -0.134233
v -0.382023 0.119875 -0.012982
v -0.304111 0.101328 -0.138653
v -0.291867 0.001850 -0.014509
v -0.394237 0.051544 0.048699
v 0.009350 0.248306 0.094414
v -0.008188 0.221051 -0.097930
v 0.149985 0.108565 0.255495
v 0.161454 0.149251 0.061035
v 0.111280 0.153334 -0.131520
v 0.216341 -0.123685 0.360558
v 0.115580 -0.240095 0.311918
v 0.276540 -0.021548 0.213641
v 0.300754 -0.234130 0.279809
v 0.221671 -0.306916 0.247063
v 0.293373 0.024320 0.039025
v 0.388283 -0.208919 0.153107
v 0.285054 -0.293576 0.129655
v 0.221671 -0.306916 0.247063
v 0.302691 -0.242450 -0.008492
v 0.396643 -0.163397 -0.003647
v 0.359645 -0.087901 -0.136524
v 0.275124 -0.171171 -0.142564
v 0.245107 0.035657 -0.138814
v 0.275124 -0.171171 -0.142564
v 0.113928 -0.050553 -0.155129
v -0.034569 0.013611 -0.162861
v 0.127431 -0.125735 0.012068
v 0.302691 -0.242450 -0.008492
v 0.285054 -0.293576 0.129655
v -0.015555 -0.066392 0.029677
v 0.126078 -0.215086 0.163193
v 0.221671 -0.306916 0.247063
v -0.162522 -0.031821 -0.043886
v 0.115580 -0.240095 0.311918
v -0.014593 -0.113484 0.182654
v 0.010901 -0.138014 0.349541
v -0.156629 -0.059496 0.069940
v -0.148651 -0.095014 0.217344
v -0.118278 -0.075691 0.379972
v -0.287429 -0.039487 0.100243
v -0.396643 0.007763 0.143351
v -0.280115 -0.058400 0.242161
v -0.237942 0.000978 0.379211
v -0.386622 0.014229 0.238235
v -0.361538 0.064669 0.311047
vt 0.447707 3.950107
vt 0.426105 3.887921
vt 0.463052 3.909998
vt 0.426105 3.909998
vt 0.404183 3.948965
vt 0.389158 3.909998
vt 0.426105 3.848420
vt 0.389158 3.848420
vt 0.389158 3.799157
vt 0.426105 3.799157
vt 0.463052 3.799157
vt 0.463053 3.848420
vt 0.500000 3.909998
vt 0.500000 3.848420
vt 0.500000 3.799157
vt 0.463053 3.762209
vt 0.500000 3.749893
vt 0.536947 3.799157
vt 0.536947 3.848420
vt 0.536947 3.909998
vt 0.610842 3.799156
vt 0.574410 3.910355
vt 0.610842 3.848420
vt 0.610842 3.909998
vt 0.500000 3.610334
vt 0.543731 3.610334
vt 0.543731 3.699008
vt 0.587461 3.610334
vt 0.587461 3.699008
vt 0.666972 3.699008
vt 0.666973 3.599326
vt 0.500000 3.699008
vt 0.544687 3.576332
vt 0.587461 3.580290
vt 0.666972 3.572106
vt 0.666972 3.530823
vt 0.587461 3.547844
vt 0.666972 3.482430
vt 0.587461 3.505412
vt 0.666972 3.414665
vt 0.587461 3.419508
vt 0.666973 3.352427
vt 0.601109 3.352427
vt 0.587461 3.320623
vt 0.666973 3.320638
vt 0.545718 3.539611
vt 0.507951 3.452423
vt 0.501911 3.572374
vt 0.503976 3.531378
vt 0.485305 3.452107
vt 0.428439 3.610334
vt 0.428439 3.699008
vt 0.428439 3.570579
vt 0.380733 3.610334
vt 0.380733 3.699008
vt 0.428439 3.530823
vt 0.380733 3.570579
vt 0.333028 3.570579
vt 0.333028 3.610334
vt 0.333028 3.530823
vt 0.380733 3.530823
vt 0.380733 3.451313
vt 0.333028 3.451313
vt 0.428439 3.451313
vt 0.380733 3.352427
vt 0.428439 3.352427
vt 0.494224 3.352882
vt 0.428439 3.280882
vt 0.380733 3.280882
vt 0.380733 3.245110
vt 0.497112 3.281110
vt 0.428439 3.245110
vt 0.380733 3.209338
vt 0.527509 3.322503
vt 0.428439 3.209337
vt 0.498556 3.245224
vt 0.500000 3.209337
vt 0.516156 3.275795
vt 0.529943 3.242566
vt 0.543731 3.209337
vt 0.587461 3.288848
vt 0.666973 3.288848
vt 0.587461 3.266475
vt 0.587461 3.209338
vt 0.666973 3.265375
vt 0.666973 3.209337
vn 0.006026 0.937267 -0.348560
vn 0.352739 0.609471 -0.710014
vn -0.282331 0.789018 -0.545655
vn 0.269672 0.858465 -0.436251
vn 0.423169 0.620198 -0.660517
vn 0.349938 -0.667477 -0.657281
vn 0.795087 0.405797 -0.450738
vn 0.797096 -0.581476 -0.162862
vn 0.715292 -0.663225 -0.220205
vn 0.669908 -0.157361 -0.725576
vn 0.034679 0.272568 -0.961511
vn -0.165119 0.791266 -0.588756
vn -0.888432 0.064355 -0.454475
vn -0.921172 -0.016466 -0.388807
vn -0.513836 -0.444655 -0.733658
vn 0.669908 -0.157361 -0.725576
vn 0.715292 -0.663225 -0.220205
vn -0.175316 -0.961743 -0.210511
vn -0.319959 -0.947395 0.008276
vn -0.548800 -0.780506 -0.299381
vn 0.715292 -0.663225 -0.220205
vn -0.080541 -0.988280 -0.129675
vn 0.797096 -0.581476 -0.162862
vn 0.349938 -0.667477 -0.657281
vn 0.318260 0.172141 0.932243
vn 0.126142 0.338049 0.932637
vn -0.250948 -0.613832 0.748489
vn -0.114162 0.398559 0.910010
vn -0.391637 -0.345859 0.852644
vn -0.561586 -0.290933 0.774583
vn -0.279924 0.385370 0.879280
vn -0.286854 -0.721126 0.630628
vn 0.414905 0.783148 0.463177
vn 0.143679 0.838766 0.525193
vn -0.013445 0.835906 0.548707
vn 0.059491 0.997689 0.032815
vn 0.180913 0.981991 0.054450
vn -0.156317 0.913236 -0.376252
vn 0.006026 0.937267 -0.348560
vn -0.530789 0.522148 -0.667551
vn -0.282331 0.789018 -0.545655
vn -0.760842 -0.170186 -0.626224
vn -0.888432 0.064355 -0.454475
vn -0.548800 -0.780506 -0.299381
vn -0.576479 -0.667661 -0.471063
vn 0.428578 0.902916 0.032616
vn 0.269672 0.858465 -0.436251
vn 0.627592 0.650993 0.427009
vn 0.625728 0.779624 0.025532
vn 0.423169 0.620198 -0.660517
vn 0.473430 -0.023686 0.880513
vn -0.351316 -0.784662 0.510766
vn 0.781706 0.480799 0.397200
vn 0.652450 -0.369123 0.661859
vn -0.033927 -0.964332 0.262513
vn 0.776992 0.626564 0.060838
vn 0.941616 -0.246012 0.229863
vn 0.140605 -0.973630 -0.179650
vn -0.033927 -0.964332 0.262513
vn 0.102387 -0.908362 -0.405458
vn 0.965737 -0.184822 -0.182188
vn 0.742483 0.096578 -0.662866
vn 0.020578 -0.640668 -0.767543
vn 0.482164 0.501860 -0.718090
vn 0.020578 -0.640668 -0.767543
vn -0.205780 -0.445391 -0.871368
vn 0.349938 -0.667477 -0.657281
vn -0.461303 -0.801509 -0.380504
vn 0.102387 -0.908362 -0.405458
vn 0.140605 -0.973630 -0.179650
vn -0.279349 -0.902412 -0.328049
vn -0.529439 -0.789258 -0.311072
vn -0.033927 -0.964332 0.262513
vn -0.080541 -0.988280 -0.129675
vn -0.351316 -0.784662 0.510766
vn -0.399232 -0.897984 -0.185037
vn -0.286854 -0.721126 0.630628
vn -0.183955 -0.951858 -0.245209
vn -0.240179 -0.969438 -0.050042
vn -0.250948 -0.613832 0.748489
vn -0.358530 -0.903791 -0.233704
vn -0.502050 -0.849289 -0.163264
vn -0.425530 -0.886725 0.180671
vn -0.391637 -0.345859 0.852644
vn -0.574818 -0.749237 0.328981
vn -0.561586 -0.290933 0.774583
f 1/1/1 2/2/2 3/3/3
f 2/2/2 1/1/1 4/4/4
f 4/4/4 5/5/5 2/2/2
f 2/2/2 5/5/5 6/6/6
f 6/6/6 7/7/7 2/2/2
f 7/7/7 6/6/6 8/8/8
f 9/9/9 7/7/7 8/8/8
f 10/10/10 7/7/7 9/9/9
f 11/11/11 7/7/7 10/10/10
f 2/2/2 12/12/12 3/3/3
f 12/12/12 2/2/2 7/7/7
f 7/7/7 11/11/11 12/12/12
f 3/3/3 12/12/12 13/13/13
f 12/12/12 11/11/11 14/14/14
f 13/13/13 12/12/12 14/14/14
f 14/14/14 11/11/11 15/15/15
f 11/11/11 16/16/16 15/15/15
f 17/17/17 15/15/15 16/16/16
f 18/18/18 15/15/15 17/17/17
f 14/14/14 15/15/15 18/18/18
f 13/13/13 14/14/14 19/19/19
f 18/18/18 19/19/19 14/14/14
f 19/19/19 20/20/20 13/13/13
f 18/18/18 21/21/21 19/19/19
f 19/19/19 22/22/22 20/20/20
f 21/21/21 23/23/23 19/19/19
f 19/19/19 24/24/24 22/22/22
f 19/19/19 23/23/23 24/24/24
f 25/25/25 26/26/26 27/27/27
f 26/26/26 28/28/28 27/27/27
f 28/28/28 29/29/29 27/27/27
f 28/28/28 30/30/30 29/29/29
f 30/30/30 28/28/28 31/31/31
f 25/25/25 27/27/27 32/32/32
f 33/33/33 28/28/28 26/26/26
f 25/25/25 33/33/33 26/26/26
f 34/34/34 31/31/31 28/28/28
f 28/28/28 33/33/33 34/34/34
f 31/31/31 34/34/34 35/35/35
f 34/34/34 36/36/36 35/35/35
f 36/36/36 34/34/34 37/37/37
f 37/37/37 34/34/34 33/33/33
f 37/37/37 38/38/38 36/36/36
f 38/38/38 37/37/37 39/39/39
f 38/38/38 39/39/39 40/40/40
f 39/39/39 41/41/41 40/40/40
f 41/41/41 42/42/42 40/40/40
f 42/42/42 41/41/41 43/43/43
f 42/42/42 43/43/43 44/44/44
f 44/44/44 45/45/45 42/42/42
f 37/37/37 46/46/46 39/39/39
f 37/37/37 33/33/33 46/46/46
f 47/47/47 39/39/39 46/46/46
f 48/48/48 46/46/46 33/33/33
f 47/47/47 46/46/46 49/49/49
f 46/46/46 48/48/48 49/49/49
f 33/33/33 25/25/25 48/48/48
f 47/47/47 49/49/49 50/50/50
f 51/51/51 48/48/48 25/25/25
f 32/32/32 51/51/51 25/25/25
f 51/51/51 32/32/32 52/52/52
f 48/48/48 51/51/51 53/53/53
f 53/53/53 49/49/49 48/48/48
f 52/52/52 54/54/54 51/51/51
f 53/53/53 51/51/51 54/54/54
f 54/54/54 52/52/52 55/55/55
f 49/49/49 53/53/53 56/56/56
f 56/56/56 50/50/50 49/49/49
f 57/57/57 53/53/53 54/54/54
f 56/56/56 53/53/53 57/57/57
f 57/57/57 54/54/54 58/58/58
f 54/54/54 59/59/59 58/58/58
f 60/60/60 57/57/57 58/58/58
f 61/61/61 56/56/56 57/57/57
f 57/57/57 60/60/60 61/61/61
f 60/60/60 62/62/62 61/61/61
f 62/62/62 56/56/56 61/61/61
f 62/62/62 60/60/60 63/63/63
f 56/56/56 62/62/62 64/64/64
f 50/50/50 56/56/56 64/64/64
f 65/65/65 64/64/64 62/62/62
f 66/66/66 50/50/50 64/64/64
f 64/64/64 65/65/65 66/66/66
f 50/50/50 66/66/66 67/67/67
f 65/65/65 68/68/68 66/66/66
f 68/68/68 67/67/67 66/66/66
f 68/68/68 65/65/65 69/69/69
f 70/70/70 68/68/68 69/69/69
f 67/67/67 68/68/68 71/71/71
f 68/68/68 70/70/70 72/72/72
f 72/72/72 71/71/71 68/68/68
f 73/73/73 72/72/72 70/70/70
f 71/71/71 74/74/74 67/67/67
f 72/72/72 73/73/73 75/75/75
f 76/76/76 72/72/72 75/75/75
f 71/71/71 72/72/72 76/76/76
f 76/76/76 75/75/75 77/77/77
f 74/74/74 71/71/71 78/78/78
f 76/76/76 78/78/78 71/71/71
f 78/78/78 44/44/44 74/74/74
f 79/79/79 76/76/76 77/77/77
f 78/78/78 76/76/76 79/79/79
f 79/79/79 77/77/77 80/80/80
f 44/44/44 78/78/78 81/81/81
f 79/79/79 81/81/81 78/78/78
f 81/81/81 45/45/45 44/44/44
f 45/45/45 81/81/81 82/82/82
f 81/81/81 79/79/79 83/83/83
f 83/83/83 79/79/79 80/80/80
f 83/83/83 82/82/82 81/81/81
f 83/83/83 80/80/80 84/84/84
f 82/82/82 83/83/83 85/85/85
f 84/84/84 85/85/85 83/83/83
f 85/85/85 84/84/84 86/86/86
