# Generated from Roblox mesh JSON (v4.01)
# Hello from RBX_Toolbox ;)
o RightUpperArm_inner_cage
v -0.016625 0.372365 -0.147083
v -0.121498 0.453425 -0.143299
v -0.110312 0.512670 -0.028727
v -0.008879 0.437367 -0.027738
v -0.071393 0.281764 -0.187569
v -0.132488 0.350617 -0.233281
v -0.016625 0.372365 -0.147083
v -0.121498 0.453425 -0.143299
v -0.111539 0.489887 0.139573
v -0.008879 0.437367 -0.027738
v -0.110312 0.512670 -0.028727
v -0.044301 0.365560 0.125319
v -0.044301 0.365560 0.125319
v -0.111539 0.489887 0.139573
v -0.159324 0.383740 0.231794
v -0.088943 0.266033 0.212134
v -0.159324 0.383740 0.231794
v -0.186530 0.242403 0.233281
v -0.088943 0.266033 0.212134
v -0.124864 0.152998 0.232052
v 0.099226 -0.261086 -0.076818
v 0.148648 -0.367544 -0.020110
v 0.097662 -0.381039 -0.067459
v 0.143550 -0.247846 -0.020947
v 0.035315 -0.398784 -0.059631
v -0.063095 -0.300411 -0.007353
v -0.006896 -0.281924 -0.073980
v -0.001433 -0.410857 -0.003897
v 0.143550 -0.247846 -0.020947
v 0.165448 -0.362692 0.062409
v 0.148648 -0.367544 -0.020110
v 0.143683 -0.237943 0.064050
v -0.006390 -0.408139 0.068813
v -0.063095 -0.300411 -0.007353
v -0.001433 -0.410857 -0.003897
v -0.056082 -0.295924 0.068245
v -0.006896 -0.281924 -0.073980
v 0.099226 -0.261086 -0.076818
v 0.097662 -0.381039 -0.067459
v 0.035315 -0.398784 -0.059631
v -0.166329 0.037756 -0.056987
v -0.197114 0.128919 0.008666
v -0.170801 0.145058 -0.140461
v -0.169320 0.021800 0.057352
v 0.052839 -0.118503 -0.081796
v -0.075754 -0.002011 -0.111038
v 0.020005 0.069634 -0.100236
v -0.037827 -0.140432 -0.089952
v 0.056064 -0.378903 0.148344
v 0.006928 -0.259839 0.158334
v -0.031410 -0.281131 0.127775
v 0.018264 -0.394177 0.120883
v 0.052839 -0.118503 -0.081796
v -0.006896 -0.281924 -0.073980
v -0.037827 -0.140432 -0.089952
v 0.099226 -0.261086 -0.076818
v 0.071110 -0.238797 0.156533
v 0.018337 -0.092479 0.171679
v -0.021974 -0.125114 0.169756
v 0.006928 -0.259839 0.158334
v 0.018337 -0.092479 0.171679
v -0.030003 0.076623 0.192313
v -0.068525 0.014337 0.194761
v -0.021974 -0.125114 0.169756
v 0.020005 0.069634 -0.100236
v 0.102461 -0.103122 -0.023974
v 0.052839 -0.118503 -0.081796
v 0.064766 0.100594 -0.046659
v 0.111452 -0.230338 0.124627
v 0.098290 -0.365450 0.148033
v 0.137367 -0.358538 0.119347
v 0.071110 -0.238797 0.156533
v 0.006928 -0.259839 0.158334
v 0.098290 -0.365450 0.148033
v 0.071110 -0.238797 0.156533
v 0.056064 -0.378903 0.148344
v -0.056082 -0.295924 0.068245
v -0.006390 -0.408139 0.068813
v 0.018264 -0.394177 0.120883
v -0.031410 -0.281131 0.127775
v 0.052839 -0.118503 -0.081796
v 0.143550 -0.247846 -0.020947
v 0.099226 -0.261086 -0.076818
v 0.102461 -0.103122 -0.023974
v 0.143683 -0.237943 0.064050
v 0.137367 -0.358538 0.119347
v 0.165448 -0.362692 0.062409
v 0.111452 -0.230338 0.124627
v -0.030003 0.076623 0.192313
v -0.088943 0.266033 0.212134
v -0.124864 0.152998 0.232052
v -0.068525 0.014337 0.194761
v -0.088943 0.266033 0.212134
v 0.011248 0.120744 0.142700
v -0.044301 0.365560 0.125319
v -0.030003 0.076623 0.192313
v 0.059889 -0.075404 0.136072
v 0.071110 -0.238797 0.156533
v 0.111452 -0.230338 0.124627
v 0.018337 -0.092479 0.171679
v -0.037827 -0.140432 -0.089952
v -0.120925 -0.074746 -0.025163
v -0.075754 -0.002011 -0.111038
v -0.093761 -0.163961 -0.005541
v 0.059889 -0.075404 0.136072
v 0.011248 0.120744 0.142700
v -0.030003 0.076623 0.192313
v 0.018337 -0.092479 0.171679
v -0.186530 0.242403 0.233281
v -0.197349 0.140825 0.160749
v -0.124864 0.152998 0.232052
v -0.162205 0.061249 0.159511
v -0.169320 0.021800 0.057352
v -0.162205 0.061249 0.159511
v -0.197114 0.128919 0.008666
v -0.197349 0.140825 0.160749
v -0.071393 0.281764 -0.187569
v 0.064766 0.100594 -0.046659
v 0.020005 0.069634 -0.100236
v -0.016625 0.372365 -0.147083
v -0.006896 -0.281924 -0.073980
v -0.093761 -0.163961 -0.005541
v -0.037827 -0.140432 -0.089952
v -0.063095 -0.300411 -0.007353
v 0.006928 -0.259839 0.158334
v -0.021974 -0.125114 0.169756
v -0.056097 -0.156876 0.133189
v -0.031410 -0.281131 0.127775
v -0.096570 -0.039005 0.142972
v -0.021974 -0.125114 0.169756
v -0.068525 0.014337 0.194761
v -0.056097 -0.156876 0.133189
v 0.121548 -0.480869 -0.067093
v 0.035315 -0.398784 -0.059631
v 0.097662 -0.381039 -0.067459
v 0.053467 -0.497090 -0.055910
v 0.102461 -0.103122 -0.023974
v 0.143683 -0.237943 0.064050
v 0.143550 -0.247846 -0.020947
v 0.093531 -0.086503 0.061733
v -0.166329 0.037756 -0.056987
v -0.075754 -0.002011 -0.111038
v -0.120925 -0.074746 -0.025163
v -0.117302 0.140742 -0.167095
v -0.016625 0.372365 -0.147083
v 0.041682 0.125247 0.050657
v 0.064766 0.100594 -0.046659
v -0.008879 0.437367 -0.027738
v 0.064766 0.100594 -0.046659
v 0.093531 -0.086503 0.061733
v 0.102461 -0.103122 -0.023974
v 0.041682 0.125247 0.050657
v 0.093531 -0.086503 0.061733
v 0.111452 -0.230338 0.124627
v 0.143683 -0.237943 0.064050
v 0.059889 -0.075404 0.136072
v 0.041682 0.125247 0.050657
v 0.059889 -0.075404 0.136072
v 0.093531 -0.086503 0.061733
v 0.011248 0.120744 0.142700
v 0.041682 0.125247 0.050657
v -0.044301 0.365560 0.125319
v 0.011248 0.120744 0.142700
v -0.008879 0.437367 -0.027738
v -0.120925 -0.074746 -0.025163
v -0.093761 -0.163961 -0.005541
v -0.114379 -0.070337 0.066819
v -0.080677 -0.174561 0.071306
v -0.117302 0.140742 -0.167095
v 0.020005 0.069634 -0.100236
v -0.075754 -0.002011 -0.111038
v -0.071393 0.281764 -0.187569
v -0.114379 -0.070337 0.066819
v -0.080677 -0.174561 0.071306
v -0.056097 -0.156876 0.133189
v -0.096570 -0.039005 0.142972
v -0.124864 0.152998 0.232052
v -0.162205 0.061249 0.159511
v -0.068525 0.014337 0.194761
v -0.096570 -0.039005 0.142972
v -0.031410 -0.281131 0.127775
v -0.080677 -0.174561 0.071306
v -0.056082 -0.295924 0.068245
v -0.056097 -0.156876 0.133189
v 0.053467 -0.497090 -0.055910
v -0.001433 -0.410857 -0.003897
v 0.035315 -0.398784 -0.059631
v 0.024495 -0.508734 0.015448
v -0.063095 -0.300411 -0.007353
v -0.080677 -0.174561 0.071306
v -0.093761 -0.163961 -0.005541
v -0.056082 -0.295924 0.068245
v 0.148648 -0.367544 -0.020110
v 0.121548 -0.480869 -0.067093
v 0.097662 -0.381039 -0.067459
v 0.193062 -0.464284 -0.018662
v -0.120925 -0.074746 -0.025163
v -0.169320 0.021800 0.057352
v -0.166329 0.037756 -0.056987
v -0.114379 -0.070337 0.066819
v 0.135712 -0.480938 0.154981
v 0.098290 -0.365450 0.148033
v 0.088985 -0.494300 0.157455
v 0.056064 -0.378903 0.148344
v 0.175482 -0.468833 0.125438
v 0.137367 -0.358538 0.119347
v 0.135712 -0.480938 0.154981
v 0.098290 -0.365450 0.148033
v 0.024495 -0.508734 0.015448
v -0.006390 -0.408139 0.068813
v -0.001433 -0.410857 -0.003897
v 0.021788 -0.512670 0.080668
v -0.159661 0.235712 -0.224362
v -0.071393 0.281764 -0.187569
v -0.117302 0.140742 -0.167095
v -0.132488 0.350617 -0.233281
v -0.169320 0.021800 0.057352
v -0.114379 -0.070337 0.066819
v -0.096570 -0.039005 0.142972
v -0.162205 0.061249 0.159511
v 0.088985 -0.494300 0.157455
v 0.018264 -0.394177 0.120883
v 0.046143 -0.506429 0.132554
v 0.056064 -0.378903 0.148344
v 0.137367 -0.358538 0.119347
v 0.197349 -0.457313 0.074173
v 0.165448 -0.362692 0.062409
v 0.175482 -0.468833 0.125438
v 0.046143 -0.506429 0.132554
v -0.006390 -0.408139 0.068813
v 0.021788 -0.512670 0.080668
v 0.018264 -0.394177 0.120883
v 0.193062 -0.464284 -0.018662
v 0.165448 -0.362692 0.062409
v 0.197349 -0.457313 0.074173
v 0.148648 -0.367544 -0.020110
v -0.117302 0.140742 -0.167095
v -0.166329 0.037756 -0.056987
v -0.170801 0.145058 -0.140461
v -0.159661 0.235712 -0.224362
vt 2.682487 3.414271
vt 2.750740 3.401921
vt 2.750740 3.462179
vt 2.682487 3.462179
vt 2.682487 3.344108
vt 2.750740 3.343375
vt 2.682487 3.414271
vt 2.750740 3.401921
vt 2.750740 3.511224
vt 2.682487 3.462179
vt 2.750740 3.462179
vt 2.682487 3.511224
vt 2.682487 3.511224
vt 2.750740 3.511224
vt 2.750740 3.579725
vt 2.682487 3.579725
vt 2.750740 3.579725
vt 2.750740 3.651093
vt 2.682487 3.579725
vt 2.682487 3.651093
vt 2.426604 3.344108
vt 2.325032 3.414270
vt 2.325031 3.344108
vt 2.426604 3.414270
vt 2.325032 3.273265
vt 2.426604 3.241194
vt 2.426604 3.273265
vt 2.325032 3.241194
vt 2.426604 3.414270
vt 2.325032 3.462179
vt 2.325032 3.414270
vt 2.426604 3.462179
vt 2.325032 3.209337
vt 2.426604 3.241194
vt 2.325032 3.241194
vt 2.426604 3.209337
vt 2.426604 3.273265
vt 2.426604 3.344108
vt 2.325031 3.344108
vt 2.325032 3.273265
vt 2.682487 3.241285
vt 2.750740 3.209337
vt 2.750740 3.241301
vt 2.682487 3.209337
vt 2.535539 3.344108
vt 2.616898 3.273265
vt 2.616898 3.344108
vt 2.535539 3.273264
vt 2.325031 3.651093
vt 2.426604 3.651094
vt 2.426604 3.682632
vt 2.325032 3.682632
vt 2.535539 3.344108
vt 2.426604 3.273265
vt 2.535539 3.273264
vt 2.426604 3.344108
vt 2.426604 3.579725
vt 2.535539 3.579725
vt 2.535539 3.651093
vt 2.426604 3.651094
vt 2.535539 3.579725
vt 2.616898 3.579725
vt 2.616898 3.651093
vt 2.535539 3.651093
vt 2.616898 3.344108
vt 2.535539 3.414271
vt 2.535539 3.344108
vt 2.616898 3.414270
vt 2.426604 3.511224
vt 2.325032 3.579725
vt 2.325032 3.511224
vt 2.426604 3.579725
vt 2.426604 3.651094
vt 2.325032 3.579725
vt 2.426604 3.579725
vt 2.325031 3.651093
vt 2.426604 3.714510
vt 2.325031 3.714510
vt 2.325032 3.682632
vt 2.426604 3.682632
vt 2.535539 3.344108
vt 2.426604 3.414270
vt 2.426604 3.344108
vt 2.535539 3.414271
vt 2.426604 3.462179
vt 2.325032 3.511224
vt 2.325032 3.462179
vt 2.426604 3.511224
vt 2.616898 3.579725
vt 2.682487 3.579725
vt 2.682487 3.651093
vt 2.616898 3.651093
vt 2.682487 3.579725
vt 2.616898 3.511224
vt 2.682487 3.511224
vt 2.616898 3.579725
vt 2.535539 3.511224
vt 2.426604 3.579725
vt 2.426604 3.511224
vt 2.535539 3.579725
vt 2.535539 3.273264
vt 2.616898 3.241270
vt 2.616898 3.273265
vt 2.535539 3.241194
vt 2.535539 3.511224
vt 2.616898 3.511224
vt 2.616898 3.579725
vt 2.535539 3.579725
vt 2.750740 3.651093
vt 2.750740 3.682803
vt 2.682487 3.651093
vt 2.682487 3.682776
vt 2.682487 3.714511
vt 2.682487 3.682776
vt 2.750740 3.714511
vt 2.750740 3.682803
vt 2.682487 3.344108
vt 2.616898 3.414270
vt 2.616898 3.344108
vt 2.682487 3.414271
vt 2.426604 3.273265
vt 2.535539 3.241194
vt 2.535539 3.273264
vt 2.426604 3.241194
vt 2.426604 3.651094
vt 2.535539 3.651093
vt 2.535539 3.682632
vt 2.426604 3.682632
vt 2.616898 3.682749
vt 2.535539 3.651093
vt 2.616898 3.651093
vt 2.535539 3.682632
vt 2.249260 3.344108
vt 2.325032 3.273265
vt 2.325031 3.344108
vt 2.249260 3.273265
vt 2.535539 3.414271
vt 2.426604 3.462179
vt 2.426604 3.414270
vt 2.535539 3.462179
vt 2.682487 3.241285
vt 2.616898 3.273265
vt 2.616898 3.241270
vt 2.682487 3.273265
vt 2.682487 3.414271
vt 2.616898 3.462179
vt 2.616898 3.414270
vt 2.682487 3.462179
vt 2.616898 3.414270
vt 2.535539 3.462179
vt 2.535539 3.414271
vt 2.616898 3.462179
vt 2.535539 3.462179
vt 2.426604 3.511224
vt 2.426604 3.462179
vt 2.535539 3.511224
vt 2.616898 3.462179
vt 2.535539 3.511224
vt 2.535539 3.462179
vt 2.616898 3.511224
vt 2.616898 3.462179
vt 2.682487 3.511224
vt 2.616898 3.511224
vt 2.682487 3.462179
vt 2.616898 3.241270
vt 2.535539 3.241194
vt 2.616898 3.209337
vt 2.535539 3.209337
vt 2.682487 3.273265
vt 2.616898 3.344108
vt 2.616898 3.273265
vt 2.682487 3.344108
vt 2.616898 3.714510
vt 2.535539 3.714510
vt 2.535539 3.682632
vt 2.616898 3.682749
vt 2.682487 3.651093
vt 2.682487 3.682776
vt 2.616898 3.651093
vt 2.616898 3.682749
vt 2.426604 3.682632
vt 2.535539 3.714510
vt 2.426604 3.714510
vt 2.535539 3.682632
vt 2.249260 3.273265
vt 2.325032 3.241194
vt 2.325032 3.273265
vt 2.249260 3.241194
vt 2.426604 3.241194
vt 2.535539 3.209337
vt 2.535539 3.241194
vt 2.426604 3.209337
vt 2.325032 3.414270
vt 2.249260 3.344108
vt 2.325031 3.344108
vt 2.249260 3.414270
vt 2.616898 3.241270
vt 2.682487 3.209337
vt 2.682487 3.241285
vt 2.616898 3.209337
vt 2.249260 3.579725
vt 2.325032 3.579725
vt 2.249260 3.651093
vt 2.325031 3.651093
vt 2.249260 3.511224
vt 2.325032 3.511224
vt 2.249260 3.579725
vt 2.325032 3.579725
vt 2.249260 3.241194
vt 2.325032 3.209337
vt 2.325032 3.241194
vt 2.249260 3.209337
vt 2.750740 3.273265
vt 2.682487 3.344108
vt 2.682487 3.273265
vt 2.750740 3.343375
vt 2.682487 3.714511
vt 2.616898 3.714510
vt 2.616898 3.682749
vt 2.682487 3.682776
vt 2.249260 3.651093
vt 2.325032 3.682632
vt 2.249260 3.682632
vt 2.325031 3.651093
vt 2.325032 3.511224
vt 2.249260 3.462179
vt 2.325032 3.462179
vt 2.249260 3.511224
vt 2.249260 3.682632
vt 2.325031 3.714510
vt 2.249260 3.714510
vt 2.325032 3.682632
vt 2.249260 3.414270
vt 2.325032 3.462179
vt 2.249260 3.462179
vt 2.325032 3.414270
vt 2.682487 3.273265
vt 2.682487 3.241285
vt 2.750740 3.241301
vt 2.750740 3.273265
vn 0.542232 0.723078 -0.427952
vn 0.542232 0.723078 -0.427952
vn 0.542232 0.723078 -0.427952
vn 0.542232 0.723078 -0.427952
vn 0.515290 0.351928 -0.781424
vn 0.515290 0.351928 -0.781424
vn 0.515290 0.351928 -0.781424
vn 0.515290 0.351928 -0.781424
vn 0.745133 0.611960 0.265107
vn 0.745133 0.611960 0.265107
vn 0.745133 0.611960 0.265107
vn 0.745133 0.611961 0.265107
vn 0.674604 0.288361 0.679528
vn 0.674604 0.288361 0.679528
vn 0.674604 0.288361 0.679528
vn 0.674604 0.288361 0.679528
vn 0.204354 0.031613 0.978386
vn 0.204354 0.031613 0.978386
vn 0.204354 0.031613 0.978386
vn 0.204354 0.031613 0.978386
vn 0.736880 -0.017883 -0.675786
vn 0.736880 -0.017883 -0.675786
vn 0.736880 -0.017883 -0.675787
vn 0.736880 -0.017883 -0.675787
vn -0.694759 -0.365990 -0.619161
vn -0.694759 -0.365990 -0.619161
vn -0.694759 -0.365990 -0.619161
vn -0.694759 -0.365990 -0.619161
vn 0.988003 0.108935 -0.109470
vn 0.988003 0.108935 -0.109470
vn 0.988003 0.108935 -0.109470
vn 0.988003 0.108935 -0.109470
vn -0.894115 -0.446538 0.034088
vn -0.894115 -0.446538 0.034088
vn -0.894115 -0.446538 0.034088
vn -0.894115 -0.446538 0.034088
vn -0.038608 -0.106100 -0.993606
vn -0.038608 -0.106100 -0.993606
vn -0.038608 -0.106100 -0.993606
vn -0.038608 -0.106100 -0.993606
vn -0.964171 -0.228331 -0.135055
vn -0.964171 -0.228331 -0.135055
vn -0.964171 -0.228331 -0.135055
vn -0.964171 -0.228331 -0.135055
vn 0.144403 -0.088006 -0.985598
vn 0.144403 -0.088006 -0.985598
vn 0.144403 -0.088006 -0.985598
vn 0.144403 -0.088006 -0.985598
vn -0.497374 -0.271655 0.823907
vn -0.497374 -0.271655 0.823907
vn -0.497374 -0.271655 0.823907
vn -0.497374 -0.271655 0.823907
vn 0.040537 -0.062507 -0.997221
vn 0.040537 -0.062507 -0.997221
vn 0.040537 -0.062507 -0.997221
vn 0.040537 -0.062507 -0.997221
vn 0.041059 -0.082202 0.995770
vn 0.041059 -0.082202 0.995770
vn 0.041059 -0.082202 0.995770
vn 0.041059 -0.082202 0.995770
vn 0.132880 -0.104914 0.985564
vn 0.132880 -0.104914 0.985564
vn 0.132880 -0.104914 0.985564
vn 0.132880 -0.104914 0.985564
vn 0.747792 0.065251 -0.660719
vn 0.747792 0.065251 -0.660719
vn 0.747792 0.065251 -0.660719
vn 0.747792 0.065251 -0.660719
vn 0.594676 0.080644 0.799911
vn 0.594676 0.080644 0.799911
vn 0.594676 0.080644 0.799911
vn 0.594676 0.080644 0.799911
vn 0.040079 -0.062592 0.997234
vn 0.040079 -0.062592 0.997234
vn 0.040079 -0.062592 0.997234
vn 0.040079 -0.062592 0.997234
vn -0.810588 -0.370298 0.453682
vn -0.810588 -0.370298 0.453682
vn -0.810588 -0.370298 0.453682
vn -0.810588 -0.370298 0.453682
vn 0.728908 0.203719 -0.653599
vn 0.728908 0.203719 -0.653599
vn 0.728908 0.203719 -0.653599
vn 0.728908 0.203719 -0.653599
vn 0.885147 0.154843 0.438791
vn 0.885147 0.154843 0.438791
vn 0.885147 0.154843 0.438791
vn 0.885147 0.154843 0.438791
vn 0.362095 -0.034921 0.931487
vn 0.362095 -0.034921 0.931487
vn 0.362095 -0.034921 0.931487
vn 0.362095 -0.034921 0.931487
vn 0.729279 0.188590 0.657713
vn 0.729279 0.188590 0.657712
vn 0.729279 0.188590 0.657713
vn 0.729279 0.188590 0.657713
vn 0.603557 0.139746 0.784977
vn 0.603557 0.139746 0.784977
vn 0.603557 0.139746 0.784977
vn 0.603557 0.139746 0.784977
vn -0.726155 -0.316766 -0.610212
vn -0.726155 -0.316766 -0.610212
vn -0.726155 -0.316766 -0.610212
vn -0.726155 -0.316766 -0.610212
vn 0.666584 0.122102 0.735362
vn 0.666584 0.122102 0.735362
vn 0.666584 0.122102 0.735362
vn 0.666584 0.122102 0.735362
vn -0.620741 -0.365750 0.693475
vn -0.620741 -0.365750 0.693475
vn -0.620741 -0.365750 0.693475
vn -0.620741 -0.365750 0.693475
vn -0.950503 -0.298568 0.086033
vn -0.950503 -0.298568 0.086033
vn -0.950503 -0.298568 0.086033
vn -0.950503 -0.298568 0.086033
vn 0.702626 -0.025030 -0.711119
vn 0.702626 -0.025030 -0.711119
vn 0.702626 -0.025030 -0.711119
vn 0.702626 -0.025030 -0.711119
vn -0.759300 -0.199821 -0.619302
vn -0.759300 -0.199821 -0.619302
vn -0.759300 -0.199821 -0.619302
vn -0.759300 -0.199821 -0.619302
vn -0.597367 -0.174497 0.782754
vn -0.597367 -0.174497 0.782754
vn -0.597367 -0.174497 0.782754
vn -0.597367 -0.174497 0.782754
vn -0.614442 -0.306106 0.727159
vn -0.614442 -0.306106 0.727159
vn -0.614442 -0.306106 0.727159
vn -0.614442 -0.306106 0.727159
vn -0.131731 -0.048370 -0.990105
vn -0.131731 -0.048370 -0.990105
vn -0.131731 -0.048370 -0.990105
vn -0.131731 -0.048370 -0.990105
vn 0.955652 0.294477 0.003495
vn 0.955652 0.294477 0.003495
vn 0.955652 0.294477 0.003495
vn 0.955652 0.294477 0.003495
vn -0.594546 -0.435286 -0.676048
vn -0.594546 -0.435286 -0.676048
vn -0.594546 -0.435286 -0.676048
vn -0.594546 -0.435286 -0.676048
vn 0.976494 0.214645 -0.019691
vn 0.976494 0.214645 -0.019691
vn 0.976494 0.214645 -0.019691
vn 0.976494 0.214645 -0.019691
vn 0.968419 0.218481 0.120127
vn 0.968419 0.218481 0.120127
vn 0.968419 0.218481 0.120127
vn 0.968419 0.218481 0.120127
vn 0.877463 0.279705 0.389647
vn 0.877463 0.279705 0.389647
vn 0.877463 0.279705 0.389647
vn 0.877463 0.279705 0.389647
vn 0.911547 0.228298 0.341996
vn 0.911547 0.228298 0.341996
vn 0.911547 0.228298 0.341996
vn 0.911547 0.228298 0.341996
vn 0.919535 0.229998 0.318678
vn 0.919535 0.229998 0.318678
vn 0.919535 0.229998 0.318678
vn 0.919535 0.229998 0.318678
vn -0.952600 -0.287243 0.100221
vn -0.952600 -0.287243 0.100221
vn -0.952600 -0.287243 0.100221
vn -0.952600 -0.287243 0.100221
vn 0.315257 -0.251621 -0.915041
vn 0.315257 -0.251621 -0.915041
vn 0.315257 -0.251621 -0.915041
vn 0.315257 -0.251621 -0.915041
vn -0.876114 -0.301570 0.376138
vn -0.876114 -0.301570 0.376138
vn -0.876114 -0.301570 0.376138
vn -0.876114 -0.301570 0.376138
vn -0.497257 -0.424366 0.756735
vn -0.497257 -0.424366 0.756735
vn -0.497257 -0.424366 0.756735
vn -0.497257 -0.424366 0.756735
vn -0.890207 -0.192858 0.412720
vn -0.890207 -0.192858 0.412720
vn -0.890207 -0.192858 0.412720
vn -0.890207 -0.192858 0.412720
vn -0.841581 -0.245650 -0.481037
vn -0.841581 -0.245650 -0.481037
vn -0.841581 -0.245650 -0.481037
vn -0.841581 -0.245650 -0.481037
vn -0.970321 -0.210243 0.119481
vn -0.970321 -0.210243 0.119481
vn -0.970321 -0.210243 0.119481
vn -0.970321 -0.210243 0.119481
vn 0.574700 0.192346 -0.795439
vn 0.574700 0.192346 -0.795439
vn 0.574700 0.192346 -0.795439
vn 0.574700 0.192346 -0.795439
vn -0.897086 -0.441760 -0.009268
vn -0.897086 -0.441760 -0.009268
vn -0.897086 -0.441760 -0.009268
vn -0.897086 -0.441760 -0.009268
vn 0.009442 0.072244 0.997342
vn 0.009442 0.072244 0.997342
vn 0.009442 0.072244 0.997342
vn 0.009442 0.072244 0.997342
vn 0.542206 0.228098 0.808693
vn 0.542206 0.228098 0.808693
vn 0.542206 0.228098 0.808693
vn 0.542206 0.228098 0.808693
vn -0.962394 -0.265863 -0.055815
vn -0.962394 -0.265863 -0.055815
vn -0.962394 -0.265863 -0.055815
vn -0.962394 -0.265863 -0.055815
vn 0.475275 -0.233153 -0.848383
vn 0.475275 -0.233153 -0.848383
vn 0.475275 -0.233153 -0.848383
vn 0.475275 -0.233153 -0.848383
vn -0.798941 -0.512296 0.315033
vn -0.798941 -0.512296 0.315033
vn -0.798941 -0.512296 0.315033
vn -0.798941 -0.512296 0.315033
vn -0.528139 -0.063756 0.846761
vn -0.528139 -0.063756 0.846761
vn -0.528139 -0.063756 0.846761
vn -0.528139 -0.063756 0.846761
vn 0.849564 0.326382 0.414386
vn 0.849564 0.326382 0.414386
vn 0.849564 0.326382 0.414386
vn 0.849564 0.326382 0.414386
vn -0.876284 -0.178014 0.447703
vn -0.876284 -0.178014 0.447703
vn -0.876284 -0.178014 0.447703
vn -0.876284 -0.178014 0.447703
vn 0.923503 0.358955 -0.135255
vn 0.923503 0.358955 -0.135255
vn 0.923503 0.358955 -0.135255
vn 0.923503 0.358955 -0.135255
vn -0.398996 -0.584162 -0.706793
vn -0.398996 -0.584162 -0.706793
vn -0.398995 -0.584162 -0.706793
vn -0.398996 -0.584162 -0.706793
f 1/1/1 2/2/2 3/3/3
f 1/1/1 3/3/3 4/4/4
f 5/5/5 6/6/6 7/7/7
f 8/8/8 7/7/7 6/6/6
f 9/9/9 10/10/10 11/11/11
f 10/10/10 9/9/9 12/12/12
f 13/13/13 14/14/14 15/15/15
f 15/15/15 16/16/16 13/13/13
f 17/17/17 18/18/18 19/19/19
f 18/18/18 20/20/20 19/19/19
f 21/21/21 22/22/22 23/23/23
f 22/22/22 21/21/21 24/24/24
f 25/25/25 26/26/26 27/27/27
f 26/26/26 25/25/25 28/28/28
f 29/29/29 30/30/30 31/31/31
f 30/30/30 29/29/29 32/32/32
f 33/33/33 34/34/34 35/35/35
f 34/34/34 33/33/33 36/36/36
f 37/37/37 38/38/38 39/39/39
f 37/37/37 39/39/39 40/40/40
f 41/41/41 42/42/42 43/43/43
f 42/42/42 41/41/41 44/44/44
f 45/45/45 46/46/46 47/47/47
f 46/46/46 45/45/45 48/48/48
f 49/49/49 50/50/50 51/51/51
f 49/49/49 51/51/51 52/52/52
f 53/53/53 54/54/54 55/55/55
f 54/54/54 53/53/53 56/56/56
f 57/57/57 58/58/58 59/59/59
f 57/57/57 59/59/59 60/60/60
f 61/61/61 62/62/62 63/63/63
f 61/61/61 63/63/63 64/64/64
f 65/65/65 66/66/66 67/67/67
f 66/66/66 65/65/65 68/68/68
f 69/69/69 70/70/70 71/71/71
f 70/70/70 69/69/69 72/72/72
f 73/73/73 74/74/74 75/75/75
f 74/74/74 73/73/73 76/76/76
f 77/77/77 78/78/78 79/79/79
f 77/77/77 79/79/79 80/80/80
f 81/81/81 82/82/82 83/83/83
f 82/82/82 81/81/81 84/84/84
f 85/85/85 86/86/86 87/87/87
f 86/86/86 85/85/85 88/88/88
f 89/89/89 90/90/90 91/91/91
f 91/91/91 92/92/92 89/89/89
f 93/93/93 94/94/94 95/95/95
f 94/94/94 93/93/93 96/96/96
f 97/97/97 98/98/98 99/99/99
f 98/98/98 97/97/97 100/100/100
f 101/101/101 102/102/102 103/103/103
f 102/102/102 101/101/101 104/104/104
f 105/105/105 106/106/106 107/107/107
f 105/105/105 107/107/107 108/108/108
f 109/109/109 110/110/110 111/111/111
f 111/111/111 110/110/110 112/112/112
f 113/113/113 114/114/114 115/115/115
f 115/115/115 114/114/114 116/116/116
f 117/117/117 118/118/118 119/119/119
f 118/118/118 117/117/117 120/120/120
f 121/121/121 122/122/122 123/123/123
f 122/122/122 121/121/121 124/124/124
f 125/125/125 126/126/126 127/127/127
f 125/125/125 127/127/127 128/128/128
f 129/129/129 130/130/130 131/131/131
f 130/130/130 129/129/129 132/132/132
f 133/133/133 134/134/134 135/135/135
f 134/134/134 133/133/133 136/136/136
f 137/137/137 138/138/138 139/139/139
f 138/138/138 137/137/137 140/140/140
f 141/141/141 142/142/142 143/143/143
f 142/142/142 141/141/141 144/144/144
f 145/145/145 146/146/146 147/147/147
f 146/146/146 145/145/145 148/148/148
f 149/149/149 150/150/150 151/151/151
f 150/150/150 149/149/149 152/152/152
f 153/153/153 154/154/154 155/155/155
f 154/154/154 153/153/153 156/156/156
f 157/157/157 158/158/158 159/159/159
f 158/158/158 157/157/157 160/160/160
f 161/161/161 162/162/162 163/163/163
f 162/162/162 161/161/161 164/164/164
f 165/165/165 166/166/166 167/167/167
f 166/166/166 168/168/168 167/167/167
f 169/169/169 170/170/170 171/171/171
f 170/170/170 169/169/169 172/172/172
f 173/173/173 174/174/174 175/175/175
f 175/175/175 176/176/176 173/173/173
f 177/177/177 178/178/178 179/179/179
f 179/179/179 178/178/178 180/180/180
f 181/181/181 182/182/182 183/183/183
f 182/182/182 181/181/181 184/184/184
f 185/185/185 186/186/186 187/187/187
f 186/186/186 185/185/185 188/188/188
f 189/189/189 190/190/190 191/191/191
f 190/190/190 189/189/189 192/192/192
f 193/193/193 194/194/194 195/195/195
f 194/194/194 193/193/193 196/196/196
f 197/197/197 198/198/198 199/199/199
f 198/198/198 197/197/197 200/200/200
f 201/201/201 202/202/202 203/203/203
f 202/202/202 204/204/204 203/203/203
f 205/205/205 206/206/206 207/207/207
f 206/206/206 208/208/208 207/207/207
f 209/209/209 210/210/210 211/211/211
f 210/210/210 209/209/209 212/212/212
f 213/213/213 214/214/214 215/215/215
f 214/214/214 213/213/213 216/216/216
f 217/217/217 218/218/218 219/219/219
f 219/219/219 220/220/220 217/217/217
f 221/221/221 222/222/222 223/223/223
f 222/222/222 221/221/221 224/224/224
f 225/225/225 226/226/226 227/227/227
f 226/226/226 225/225/225 228/228/228
f 229/229/229 230/230/230 231/231/231
f 230/230/230 229/229/229 232/232/232
f 233/233/233 234/234/234 235/235/235
f 234/234/234 233/233/233 236/236/236
f 237/237/237 238/238/238 239/239/239
f 239/239/239 240/240/240 237/237/237
