# Generated from Roblox mesh JSON (v2.00)
# Hello from RBX_Toolbox ;)
o RightUpperArm
v -0.084847 0.294488 -0.108822
v -0.260822 0.353285 -0.126021
v -0.256757 0.375589 0.005208
v -0.084563 0.314917 0.008360
v -0.260822 0.353285 -0.126021
v -0.133582 0.220463 -0.199763
v -0.273738 0.282415 -0.223484
v -0.084847 0.294488 -0.108822
v -0.084563 0.314917 0.008360
v -0.256757 0.375589 0.005208
v -0.147030 0.269748 0.101107
v -0.266880 0.320047 0.115385
v -0.273738 0.282415 -0.223484
v -0.133582 0.220463 -0.199763
v -0.182244 0.143233 -0.196971
v -0.293247 0.175369 -0.251789
v -0.276975 0.264660 0.212183
v -0.194006 0.203036 0.140430
v -0.147030 0.269748 0.101107
v -0.266880 0.320047 0.115385
v 0.130786 -0.063641 0.066950
v 0.167142 -0.213511 0.132562
v 0.223539 -0.200993 0.073326
v 0.082379 -0.088559 0.120087
v 0.046716 0.066334 0.005327
v -0.053262 0.164574 0.076858
v 0.040014 0.058061 0.071988
v -0.035501 0.181482 0.008541
v 0.070900 -0.104141 -0.108518
v -0.057861 -0.011073 -0.141652
v -0.004051 0.037822 -0.101022
v 0.009698 -0.124852 -0.115252
v -0.163952 0.009157 -0.115659
v -0.057861 -0.011073 -0.141652
v -0.106787 -0.054751 -0.093426
v -0.110374 0.070535 -0.154695
v -0.057861 -0.011073 -0.141652
v -0.040305 -0.146574 -0.078081
v -0.106787 -0.054751 -0.093426
v 0.009698 -0.124852 -0.115252
v 0.040014 0.058061 0.071988
v 0.082379 -0.088559 0.120087
v 0.130786 -0.063641 0.066950
v -0.007745 0.020826 0.088565
v 0.046716 0.066334 0.005327
v 0.130786 -0.063641 0.066950
v 0.133031 -0.064647 -0.006080
v 0.040014 0.058061 0.071988
v 0.133031 -0.064647 -0.006080
v 0.223539 -0.200993 0.073326
v 0.235892 -0.212209 -0.017528
v 0.130786 -0.063641 0.066950
v -0.039365 0.168160 -0.066949
v 0.046716 0.066334 0.005327
v 0.032251 0.061145 -0.051220
v -0.035501 0.181482 0.008541
v 0.032251 0.061145 -0.051220
v 0.133031 -0.064647 -0.006080
v 0.115727 -0.086283 -0.072009
v 0.046716 0.066334 0.005327
v 0.040014 0.058061 0.071988
v -0.053262 0.164574 0.076858
v -0.090514 0.122959 0.113000
v -0.007745 0.020826 0.088565
v -0.110374 0.070535 -0.154695
v -0.004051 0.037822 -0.101022
v -0.057861 -0.011073 -0.141652
v -0.062104 0.138317 -0.126365
v 0.070900 -0.104141 -0.108518
v 0.032251 0.061145 -0.051220
v 0.115727 -0.086283 -0.072009
v -0.004051 0.037822 -0.101022
v -0.194006 0.203036 0.140430
v -0.053262 0.164574 0.076858
v -0.147030 0.269748 0.101107
v -0.090514 0.122959 0.113000
v 0.115727 -0.086283 -0.072009
v 0.145993 -0.246553 -0.120243
v 0.070900 -0.104141 -0.108518
v 0.205309 -0.226242 -0.080408
v 0.115727 -0.086283 -0.072009
v 0.235892 -0.212209 -0.017528
v 0.205309 -0.226242 -0.080408
v 0.133031 -0.064647 -0.006080
v -0.062104 0.138317 -0.126365
v 0.032251 0.061145 -0.051220
v -0.004051 0.037822 -0.101022
v -0.039365 0.168160 -0.066949
v 0.093627 -0.269801 -0.123134
v 0.070900 -0.104141 -0.108518
v 0.145993 -0.246553 -0.120243
v 0.009698 -0.124852 -0.115252
v 0.021159 -0.121032 0.111466
v -0.050391 -0.011158 0.099557
v -0.094272 -0.038226 0.084592
v -0.029107 -0.152459 0.062239
v 0.167142 -0.213511 0.132562
v 0.082379 -0.088559 0.120087
v 0.021159 -0.121032 0.111466
v 0.093354 -0.262606 0.148467
v -0.050391 -0.011158 0.099557
v -0.156406 0.036515 0.095912
v -0.094272 -0.038226 0.084592
v -0.126193 0.083713 0.101709
v -0.007745 0.020826 0.088565
v 0.021159 -0.121032 0.111466
v 0.082379 -0.088559 0.120087
v -0.050391 -0.011158 0.099557
v 0.032660 -0.286321 -0.079600
v -0.040305 -0.146574 -0.078081
v 0.009698 -0.124852 -0.115252
v 0.093627 -0.269801 -0.123134
v -0.007745 0.020826 0.088565
v -0.090514 0.122959 0.113000
v -0.126193 0.083713 0.101709
v -0.050391 -0.011158 0.099557
v -0.147030 0.269748 0.101107
v -0.035501 0.181482 0.008541
v -0.084563 0.314917 0.008360
v -0.053262 0.164574 0.076858
v -0.040305 -0.146574 -0.078081
v -0.112212 -0.062666 -0.011410
v -0.106787 -0.054751 -0.093426
v -0.061304 -0.159704 -0.013653
v 0.032660 -0.286321 -0.079600
v -0.061304 -0.159704 -0.013653
v -0.040305 -0.146574 -0.078081
v 0.017919 -0.292081 0.012198
v -0.225269 0.064579 -0.136542
v -0.110374 0.070535 -0.154695
v -0.163952 0.009157 -0.115659
v -0.182244 0.143233 -0.196971
v -0.106787 -0.054751 -0.093426
v -0.112212 -0.062666 -0.011410
v -0.181912 -0.009858 -0.009082
v -0.163952 0.009157 -0.115659
v -0.029107 -0.152459 0.062239
v -0.112212 -0.062666 -0.011410
v -0.061304 -0.159704 -0.013653
v -0.094272 -0.038226 0.084592
v -0.163952 0.009157 -0.115659
v -0.236554 0.032205 -0.008305
v -0.225269 0.064579 -0.136542
v -0.181912 -0.009858 -0.009082
v -0.112212 -0.062666 -0.011410
v -0.156406 0.036515 0.095912
v -0.181912 -0.009858 -0.009082
v -0.094272 -0.038226 0.084592
v 0.093627 -0.269801 -0.123134
v 0.064882 -0.368203 -0.068431
v 0.032660 -0.286321 -0.079600
v 0.124854 -0.346306 -0.135493
v 0.017919 -0.292081 0.012198
v -0.029107 -0.152459 0.062239
v -0.061304 -0.159704 -0.013653
v 0.032221 -0.282150 0.094833
v 0.145993 -0.246553 -0.120243
v 0.124854 -0.346306 -0.135493
v 0.093627 -0.269801 -0.123134
v 0.198253 -0.319505 -0.137980
v -0.090514 0.122959 0.113000
v -0.194006 0.203036 0.140430
v -0.218566 0.147582 0.136141
v -0.126193 0.083713 0.101709
v -0.181912 -0.009858 -0.009082
v -0.218459 0.091310 0.113318
v -0.236554 0.032205 -0.008305
v -0.156406 0.036515 0.095912
v -0.182244 0.143233 -0.196971
v -0.062104 0.138317 -0.126365
v -0.110374 0.070535 -0.154695
v -0.133582 0.220463 -0.199763
v -0.133582 0.220463 -0.199763
v -0.039365 0.168160 -0.066949
v -0.062104 0.138317 -0.126365
v -0.084847 0.294488 -0.108822
v 0.021159 -0.121032 0.111466
v 0.032221 -0.282150 0.094833
v 0.093354 -0.262606 0.148467
v -0.029107 -0.152459 0.062239
v -0.084847 0.294488 -0.108822
v -0.035501 0.181482 0.008541
v -0.039365 0.168160 -0.066949
v -0.084563 0.314917 0.008360
v -0.218459 0.091310 0.113318
v -0.126193 0.083713 0.101709
v -0.218566 0.147582 0.136141
v -0.156406 0.036515 0.095912
v 0.198253 -0.319505 -0.137980
v 0.205309 -0.226242 -0.080408
v 0.262658 -0.289813 -0.094463
v 0.145993 -0.246553 -0.120243
v 0.064882 -0.368203 -0.068431
v 0.017919 -0.292081 0.012198
v 0.032660 -0.286321 -0.079600
v 0.044654 -0.375589 0.019557
v 0.245436 -0.300595 0.180224
v 0.167142 -0.213511 0.132562
v 0.131446 -0.343898 0.183062
v 0.093354 -0.262606 0.148467
v 0.235892 -0.212209 -0.017528
v 0.262658 -0.289813 -0.094463
v 0.205309 -0.226242 -0.080408
v 0.311361 -0.271249 -0.021902
v 0.245436 -0.300595 0.180224
v 0.321629 -0.263716 0.099515
v 0.223539 -0.200993 0.073326
v 0.167142 -0.213511 0.132562
v 0.311361 -0.271249 -0.021902
v 0.223539 -0.200993 0.073326
v 0.321629 -0.263716 0.099515
v 0.235892 -0.212209 -0.017528
v 0.131446 -0.343898 0.183062
v 0.032221 -0.282150 0.094833
v 0.037454 -0.370293 0.132233
v 0.093354 -0.262606 0.148467
v 0.044654 -0.375589 0.019557
v 0.032221 -0.282150 0.094833
v 0.017919 -0.292081 0.012198
v 0.037454 -0.370293 0.132233
v -0.293247 0.175369 -0.251789
v -0.182244 0.143233 -0.196971
v -0.225269 0.064579 -0.136542
v -0.318243 0.038218 -0.196597
v -0.194006 0.203036 0.140430
v -0.296332 0.158449 0.251789
v -0.218566 0.147582 0.136141
v -0.276975 0.264660 0.212183
v -0.296332 0.158449 0.251789
v -0.318548 0.036551 0.204460
v -0.218566 0.147582 0.136141
v -0.218459 0.091310 0.113318
v -0.225269 0.064579 -0.136542
v -0.321629 -0.001075 -0.008862
v -0.318243 0.038218 -0.196597
v -0.236554 0.032205 -0.008305
v -0.321629 -0.001075 -0.008862
v -0.218459 0.091310 0.113318
v -0.318548 0.036551 0.204460
v -0.236554 0.032205 -0.008305
vt 2.682487 3.414271
vt 2.750740 3.401921
vt 2.750740 3.462179
vt 2.682487 3.462179
vt 2.750740 3.401921
vt 2.682487 3.344108
vt 2.750740 3.343375
vt 2.682487 3.414271
vt 2.682487 3.462179
vt 2.750740 3.462179
vt 2.682487 3.511224
vt 2.750740 3.511224
vt 2.750740 3.343375
vt 2.682487 3.344108
vt 2.682487 3.273265
vt 2.750740 3.273265
vt 2.750740 3.579725
vt 2.682487 3.579725
vt 2.682487 3.511224
vt 2.750740 3.511224
vt 2.426604 3.511224
vt 2.325032 3.579725
vt 2.325032 3.511224
vt 2.426604 3.579725
vt 2.535539 3.462179
vt 2.616898 3.511224
vt 2.535539 3.511224
vt 2.616898 3.462179
vt 2.426604 3.344108
vt 2.535539 3.273264
vt 2.535539 3.344108
vt 2.426604 3.273265
vt 2.616898 3.241270
vt 2.535539 3.273264
vt 2.535539 3.241194
vt 2.616898 3.273265
vt 2.535539 3.273264
vt 2.426604 3.241194
vt 2.535539 3.241194
vt 2.426604 3.273265
vt 2.535539 3.511224
vt 2.426604 3.579725
vt 2.426604 3.511224
vt 2.535539 3.579725
vt 2.535539 3.462179
vt 2.426604 3.511224
vt 2.426604 3.462179
vt 2.535539 3.511224
vt 2.426604 3.462179
vt 2.325032 3.511224
vt 2.325032 3.462179
vt 2.426604 3.511224
vt 2.616898 3.414270
vt 2.535539 3.462179
vt 2.535539 3.414271
vt 2.616898 3.462179
vt 2.535539 3.414271
vt 2.426604 3.462179
vt 2.426604 3.414270
vt 2.535539 3.462179
vt 2.535539 3.511224
vt 2.616898 3.511224
vt 2.616898 3.579725
vt 2.535539 3.579725
vt 2.616898 3.273265
vt 2.535539 3.344108
vt 2.535539 3.273264
vt 2.616898 3.344108
vt 2.426604 3.344108
vt 2.535539 3.414271
vt 2.426604 3.414270
vt 2.535539 3.344108
vt 2.682487 3.579725
vt 2.616898 3.511224
vt 2.682487 3.511224
vt 2.616898 3.579725
vt 2.426604 3.414270
vt 2.325031 3.344108
vt 2.426604 3.344108
vt 2.325032 3.414270
vt 2.426604 3.414270
vt 2.325032 3.462179
vt 2.325032 3.414270
vt 2.426604 3.462179
vt 2.616898 3.344108
vt 2.535539 3.414271
vt 2.535539 3.344108
vt 2.616898 3.414270
vt 2.325032 3.273265
vt 2.426604 3.344108
vt 2.325031 3.344108
vt 2.426604 3.273265
vt 2.426604 3.651094
vt 2.535539 3.651093
vt 2.535539 3.682632
vt 2.426604 3.682632
vt 2.325032 3.579725
vt 2.426604 3.579725
vt 2.426604 3.651094
vt 2.325031 3.651093
vt 2.535539 3.651093
vt 2.616898 3.682749
vt 2.535539 3.682632
vt 2.616898 3.651093
vt 2.535539 3.579725
vt 2.426604 3.651094
vt 2.426604 3.579725
vt 2.535539 3.651093
vt 2.325032 3.241194
vt 2.426604 3.241194
vt 2.426604 3.273265
vt 2.325032 3.273265
vt 2.535539 3.579725
vt 2.616898 3.579725
vt 2.616898 3.651093
vt 2.535539 3.651093
vt 2.682487 3.511224
vt 2.616898 3.462179
vt 2.682487 3.462179
vt 2.616898 3.511224
vt 2.426604 3.241194
vt 2.535539 3.209337
vt 2.535539 3.241194
vt 2.426604 3.209337
vt 2.325032 3.241194
vt 2.426604 3.209337
vt 2.426604 3.241194
vt 2.325032 3.209337
vt 2.682487 3.241285
vt 2.616898 3.273265
vt 2.616898 3.241270
vt 2.682487 3.273265
vt 2.535539 3.241194
vt 2.535539 3.209337
vt 2.616898 3.209337
vt 2.616898 3.241270
vt 2.426604 3.682632
vt 2.535539 3.714510
vt 2.426604 3.714510
vt 2.535539 3.682632
vt 2.616898 3.241270
vt 2.682487 3.209337
vt 2.682487 3.241285
vt 2.616898 3.209337
vt 2.535539 3.714510
vt 2.616898 3.682749
vt 2.616898 3.714510
vt 2.535539 3.682632
vt 2.325032 3.273265
vt 2.249260 3.241194
vt 2.325032 3.241194
vt 2.249260 3.273265
vt 2.325031 3.714510
vt 2.426604 3.682632
vt 2.426604 3.714510
vt 2.325032 3.682632
vt 2.325031 3.344108
vt 2.249260 3.273265
vt 2.325032 3.273265
vt 2.249260 3.344108
vt 2.616898 3.579725
vt 2.682487 3.579725
vt 2.682487 3.651093
vt 2.616898 3.651093
vt 2.616898 3.714510
vt 2.682487 3.682776
vt 2.682487 3.714511
vt 2.616898 3.682749
vt 2.682487 3.273265
vt 2.616898 3.344108
vt 2.616898 3.273265
vt 2.682487 3.344108
vt 2.682487 3.344108
vt 2.616898 3.414270
vt 2.616898 3.344108
vt 2.682487 3.414271
vt 2.426604 3.651094
vt 2.325032 3.682632
vt 2.325031 3.651093
vt 2.426604 3.682632
vt 2.682487 3.414271
vt 2.616898 3.462179
vt 2.616898 3.414270
vt 2.682487 3.462179
vt 2.682487 3.682776
vt 2.616898 3.651093
vt 2.682487 3.651093
vt 2.616898 3.682749
vt 2.249260 3.344108
vt 2.325032 3.414270
vt 2.249260 3.414270
vt 2.325031 3.344108
vt 2.249260 3.241194
vt 2.325032 3.209337
vt 2.325032 3.241194
vt 2.249260 3.209337
vt 2.249260 3.579725
vt 2.325032 3.579725
vt 2.249260 3.651093
vt 2.325031 3.651093
vt 2.325032 3.462179
vt 2.249260 3.414270
vt 2.325032 3.414270
vt 2.249260 3.462179
vt 2.249260 3.579725
vt 2.249260 3.511224
vt 2.325032 3.511224
vt 2.325032 3.579725
vt 2.249260 3.462179
vt 2.325032 3.511224
vt 2.249260 3.511224
vt 2.325032 3.462179
vt 2.249260 3.651093
vt 2.325032 3.682632
vt 2.249260 3.682632
vt 2.325031 3.651093
vt 2.249260 3.714510
vt 2.325032 3.682632
vt 2.325031 3.714510
vt 2.249260 3.682632
vt 2.750740 3.273265
vt 2.682487 3.273265
vt 2.682487 3.241285
vt 2.750740 3.241301
vt 2.682487 3.579725
vt 2.750740 3.651093
vt 2.682487 3.651093
vt 2.750740 3.579725
vt 2.750740 3.651093
vt 2.750740 3.682803
vt 2.682487 3.651093
vt 2.682487 3.682776
vt 2.682487 3.241285
vt 2.750740 3.209337
vt 2.750740 3.241301
vt 2.682487 3.209337
vt 2.750740 3.714511
vt 2.682487 3.682776
vt 2.750740 3.682803
vt 2.682487 3.714511
vn 0.328725 0.929776 -0.165700
vn 0.328725 0.929776 -0.165700
vn 0.328725 0.929776 -0.165700
vn 0.328725 0.929776 -0.165700
vn 0.344969 0.686086 -0.640532
vn 0.344969 0.686086 -0.640533
vn 0.344969 0.686086 -0.640533
vn 0.344969 0.686086 -0.640533
vn 0.322298 0.796978 0.510833
vn 0.322298 0.796978 0.510833
vn 0.322298 0.796978 0.510833
vn 0.322298 0.796978 0.510833
vn 0.304890 0.019041 -0.952197
vn 0.304890 0.019041 -0.952197
vn 0.304890 0.019041 -0.952197
vn 0.304890 0.019041 -0.952197
vn 0.555350 0.489731 0.672124
vn 0.555350 0.489731 0.672124
vn 0.555350 0.489731 0.672124
vn 0.555350 0.489731 0.672124
vn 0.578464 0.440807 0.686345
vn 0.578464 0.440807 0.686345
vn 0.578464 0.440807 0.686345
vn 0.578464 0.440807 0.686345
vn 0.763642 0.595490 0.249485
vn 0.763642 0.595490 0.249485
vn 0.763642 0.595490 0.249485
vn 0.763642 0.595490 0.249485
vn 0.321162 0.109431 -0.940680
vn 0.321162 0.109431 -0.940681
vn 0.321162 0.109431 -0.940680
vn 0.321162 0.109431 -0.940681
vn -0.291176 -0.426990 -0.856094
vn -0.291176 -0.426990 -0.856094
vn -0.291176 -0.426990 -0.856094
vn -0.291176 -0.426990 -0.856094
vn -0.409723 -0.430419 -0.804280
vn -0.409723 -0.430419 -0.804280
vn -0.409723 -0.430419 -0.804280
vn -0.409723 -0.430419 -0.804280
vn 0.366330 0.383903 0.847597
vn 0.366331 0.383902 0.847597
vn 0.366331 0.383902 0.847597
vn 0.366331 0.383902 0.847597
vn 0.818657 0.568399 0.081997
vn 0.818657 0.568399 0.081997
vn 0.818657 0.568399 0.081997
vn 0.818657 0.568399 0.081997
vn 0.824254 0.565356 0.031262
vn 0.824254 0.565356 0.031262
vn 0.824254 0.565356 0.031262
vn 0.824254 0.565356 0.031262
vn 0.812138 0.551638 -0.190071
vn 0.812138 0.551638 -0.190071
vn 0.812138 0.551638 -0.190071
vn 0.812138 0.551638 -0.190071
vn 0.792174 0.520054 -0.319382
vn 0.792174 0.520054 -0.319382
vn 0.792174 0.520054 -0.319382
vn 0.792174 0.520054 -0.319382
vn 0.380605 0.194149 0.904127
vn 0.380605 0.194149 0.904127
vn 0.380605 0.194149 0.904127
vn 0.380605 0.194149 0.904127
vn 0.473314 0.102971 -0.874855
vn 0.473314 0.102971 -0.874855
vn 0.473314 0.102971 -0.874855
vn 0.473314 0.102971 -0.874855
vn 0.573817 0.384799 -0.722955
vn 0.573817 0.384799 -0.722955
vn 0.573817 0.384799 -0.722955
vn 0.573817 0.384799 -0.722955
vn 0.453818 0.244163 0.856991
vn 0.453818 0.244163 0.856991
vn 0.453818 0.244163 0.856991
vn 0.453818 0.244163 0.856991
vn 0.474290 0.334633 -0.814291
vn 0.474290 0.334633 -0.814291
vn 0.474290 0.334633 -0.814291
vn 0.474290 0.334633 -0.814291
vn 0.740315 0.524532 -0.420477
vn 0.740315 0.524532 -0.420477
vn 0.740315 0.524532 -0.420477
vn 0.740315 0.524531 -0.420477
vn 0.741896 0.350448 -0.571644
vn 0.741896 0.350448 -0.571644
vn 0.741896 0.350448 -0.571644
vn 0.741896 0.350448 -0.571644
vn 0.047778 0.094288 -0.994398
vn 0.047778 0.094288 -0.994398
vn 0.047778 0.094288 -0.994398
vn 0.047778 0.094288 -0.994398
vn -0.409498 -0.290118 0.864952
vn -0.409498 -0.290118 0.864952
vn -0.409498 -0.290118 0.864952
vn -0.409498 -0.290118 0.864952
vn -0.042349 0.158186 0.986501
vn -0.042349 0.158186 0.986501
vn -0.042349 0.158186 0.986501
vn -0.042349 0.158186 0.986501
vn -0.108328 -0.165950 0.980166
vn -0.108328 -0.165950 0.980166
vn -0.108328 -0.165950 0.980166
vn -0.108328 -0.165950 0.980166
vn -0.067783 0.145534 0.987028
vn -0.067783 0.145534 0.987028
vn -0.067783 0.145534 0.987028
vn -0.067783 0.145534 0.987028
vn -0.510112 -0.253983 -0.821753
vn -0.510112 -0.253983 -0.821753
vn -0.510112 -0.253983 -0.821753
vn -0.510112 -0.253983 -0.821753
vn 0.068279 -0.079260 0.994513
vn 0.068279 -0.079260 0.994513
vn 0.068279 -0.079260 0.994513
vn 0.068279 -0.079260 0.994513
vn 0.751483 0.396653 0.527200
vn 0.751483 0.396653 0.527200
vn 0.751483 0.396653 0.527200
vn 0.751483 0.396653 0.527200
vn -0.820764 -0.525674 -0.223637
vn -0.820764 -0.525674 -0.223637
vn -0.820764 -0.525674 -0.223637
vn -0.820764 -0.525674 -0.223637
vn -0.835297 -0.489529 -0.250280
vn -0.835297 -0.489529 -0.250280
vn -0.835297 -0.489529 -0.250280
vn -0.835297 -0.489529 -0.250280
vn -0.106031 -0.526169 -0.843744
vn -0.106031 -0.526169 -0.843744
vn -0.106031 -0.526169 -0.843744
vn -0.106031 -0.526169 -0.843744
vn -0.649320 -0.737465 -0.185818
vn -0.649320 -0.737465 -0.185818
vn -0.649320 -0.737465 -0.185818
vn -0.649320 -0.737465 -0.185818
vn -0.812003 -0.484073 0.326074
vn -0.812003 -0.484073 0.326074
vn -0.812003 -0.484073 0.326074
vn -0.812003 -0.484073 0.326074
vn -0.599539 -0.762992 -0.241652
vn -0.599539 -0.762992 -0.241652
vn -0.599539 -0.762992 -0.241652
vn -0.599539 -0.762992 -0.241652
vn -0.623842 -0.685053 0.376196
vn -0.623842 -0.685053 0.376196
vn -0.623842 -0.685053 0.376196
vn -0.623842 -0.685053 0.376196
vn -0.612591 -0.239745 -0.753163
vn -0.612592 -0.239745 -0.753163
vn -0.612591 -0.239745 -0.753163
vn -0.612591 -0.239745 -0.753163
vn -0.867387 -0.398821 0.297627
vn -0.867387 -0.398821 0.297627
vn -0.867387 -0.398821 0.297627
vn -0.867387 -0.398821 0.297627
vn -0.061957 0.163647 -0.984571
vn -0.061957 0.163647 -0.984571
vn -0.061957 0.163647 -0.984571
vn -0.061957 0.163647 -0.984571
vn 0.127836 -0.239658 0.962404
vn 0.127836 -0.239658 0.962404
vn 0.127836 -0.239658 0.962404
vn 0.127836 -0.239658 0.962404
vn -0.532250 -0.723716 0.439255
vn -0.532250 -0.723716 0.439255
vn -0.532250 -0.723716 0.439255
vn -0.532250 -0.723716 0.439255
vn 0.492967 -0.179596 -0.851310
vn 0.492967 -0.179596 -0.851310
vn 0.492967 -0.179596 -0.851310
vn 0.492967 -0.179596 -0.851310
vn 0.834359 0.180031 -0.520993
vn 0.834359 0.180031 -0.520993
vn 0.834359 0.180031 -0.520993
vn 0.834359 0.180031 -0.520993
vn -0.642546 -0.122204 0.756440
vn -0.642546 -0.122204 0.756440
vn -0.642546 -0.122204 0.756440
vn -0.642546 -0.122204 0.756440
vn 0.940824 0.329792 -0.078025
vn 0.940824 0.329792 -0.078025
vn 0.940824 0.329792 -0.078025
vn 0.940824 0.329792 -0.078025
vn 0.095788 -0.291166 0.951865
vn 0.095788 -0.291166 0.951865
vn 0.095788 -0.291166 0.951865
vn 0.095788 -0.291166 0.951865
vn 0.353457 0.471864 -0.807720
vn 0.353457 0.471864 -0.807720
vn 0.353457 0.471864 -0.807720
vn 0.353457 0.471864 -0.807720
vn -0.914814 -0.348893 -0.203444
vn -0.914814 -0.348893 -0.203444
vn -0.914814 -0.348893 -0.203444
vn -0.914814 -0.348893 -0.203444
vn -0.096403 0.382318 0.918988
vn -0.096403 0.382318 0.918988
vn -0.096403 0.382318 0.918988
vn -0.096403 0.382318 0.918988
vn 0.554933 0.674343 -0.487146
vn 0.554933 0.674343 -0.487146
vn 0.554933 0.674343 -0.487146
vn 0.554933 0.674343 -0.487146
vn 0.360689 0.718089 0.595191
vn 0.360689 0.718089 0.595191
vn 0.360689 0.718089 0.595191
vn 0.360689 0.718089 0.595191
vn 0.578626 0.812909 -0.066115
vn 0.578626 0.812909 -0.066115
vn 0.578626 0.812909 -0.066115
vn 0.578626 0.812909 -0.066115
vn -0.586057 0.185308 0.788795
vn -0.586057 0.185308 0.788795
vn -0.586057 0.185308 0.788795
vn -0.586057 0.185308 0.788795
vn -0.984137 -0.170485 0.049075
vn -0.984137 -0.170485 0.049075
vn -0.984137 -0.170485 0.049075
vn -0.984137 -0.170485 0.049075
vn 0.405424 -0.527703 -0.746432
vn 0.405424 -0.527703 -0.746432
vn 0.405424 -0.527703 -0.746432
vn 0.405424 -0.527703 -0.746432
vn 0.746565 -0.058015 0.662778
vn 0.746565 -0.058015 0.662778
vn 0.746565 -0.058015 0.662778
vn 0.746565 -0.058015 0.662778
vn 0.750717 -0.320589 0.577621
vn 0.750717 -0.320589 0.577621
vn 0.750717 -0.320589 0.577621
vn 0.750717 -0.320589 0.577621
vn 0.369202 -0.909880 -0.189233
vn 0.369202 -0.909880 -0.189233
vn 0.369202 -0.909880 -0.189233
vn 0.369202 -0.909880 -0.189233
vn 0.501884 -0.838917 0.210547
vn 0.501885 -0.838917 0.210547
vn 0.501884 -0.838917 0.210547
vn 0.501884 -0.838917 0.210547
f 1/1/1 2/2/2 3/3/3
f 1/1/1 3/3/3 4/4/4
f 5/5/5 6/6/6 7/7/7
f 6/6/6 5/5/5 8/8/8
f 9/9/9 10/10/10 11/11/11
f 11/11/11 10/10/10 12/12/12
f 13/13/13 14/14/14 15/15/15
f 15/15/15 16/16/16 13/13/13
f 17/17/17 18/18/18 19/19/19
f 17/17/17 19/19/19 20/20/20
f 21/21/21 22/22/22 23/23/23
f 22/22/22 21/21/21 24/24/24
f 25/25/25 26/26/26 27/27/27
f 26/26/26 25/25/25 28/28/28
f 29/29/29 30/30/30 31/31/31
f 30/30/30 29/29/29 32/32/32
f 33/33/33 34/34/34 35/35/35
f 34/34/34 33/33/33 36/36/36
f 37/37/37 38/38/38 39/39/39
f 38/38/38 37/37/37 40/40/40
f 41/41/41 42/42/42 43/43/43
f 42/42/42 41/41/41 44/44/44
f 45/45/45 46/46/46 47/47/47
f 46/46/46 45/45/45 48/48/48
f 49/49/49 50/50/50 51/51/51
f 50/50/50 49/49/49 52/52/52
f 53/53/53 54/54/54 55/55/55
f 54/54/54 53/53/53 56/56/56
f 57/57/57 58/58/58 59/59/59
f 58/58/58 57/57/57 60/60/60
f 61/61/61 62/62/62 63/63/63
f 61/61/61 63/63/63 64/64/64
f 65/65/65 66/66/66 67/67/67
f 66/66/66 65/65/65 68/68/68
f 69/69/69 70/70/70 71/71/71
f 70/70/70 69/69/69 72/72/72
f 73/73/73 74/74/74 75/75/75
f 74/74/74 73/73/73 76/76/76
f 77/77/77 78/78/78 79/79/79
f 78/78/78 77/77/77 80/80/80
f 81/81/81 82/82/82 83/83/83
f 82/82/82 81/81/81 84/84/84
f 85/85/85 86/86/86 87/87/87
f 86/86/86 85/85/85 88/88/88
f 89/89/89 90/90/90 91/91/91
f 90/90/90 89/89/89 92/92/92
f 93/93/93 94/94/94 95/95/95
f 93/93/93 95/95/95 96/96/96
f 97/97/97 98/98/98 99/99/99
f 97/97/97 99/99/99 100/100/100
f 101/101/101 102/102/102 103/103/103
f 102/102/102 101/101/101 104/104/104
f 105/105/105 106/106/106 107/107/107
f 106/106/106 105/105/105 108/108/108
f 109/109/109 110/110/110 111/111/111
f 111/111/111 112/112/112 109/109/109
f 113/113/113 114/114/114 115/115/115
f 113/113/113 115/115/115 116/116/116
f 117/117/117 118/118/118 119/119/119
f 118/118/118 117/117/117 120/120/120
f 121/121/121 122/122/122 123/123/123
f 122/122/122 121/121/121 124/124/124
f 125/125/125 126/126/126 127/127/127
f 126/126/126 125/125/125 128/128/128
f 129/129/129 130/130/130 131/131/131
f 130/130/130 129/129/129 132/132/132
f 133/133/133 134/134/134 135/135/135
f 133/133/133 135/135/135 136/136/136
f 137/137/137 138/138/138 139/139/139
f 138/138/138 137/137/137 140/140/140
f 141/141/141 142/142/142 143/143/143
f 142/142/142 141/141/141 144/144/144
f 145/145/145 146/146/146 147/147/147
f 146/146/146 145/145/145 148/148/148
f 149/149/149 150/150/150 151/151/151
f 150/150/150 149/149/149 152/152/152
f 153/153/153 154/154/154 155/155/155
f 154/154/154 153/153/153 156/156/156
f 157/157/157 158/158/158 159/159/159
f 158/158/158 157/157/157 160/160/160
f 161/161/161 162/162/162 163/163/163
f 163/163/163 164/164/164 161/161/161
f 165/165/165 166/166/166 167/167/167
f 166/166/166 165/165/165 168/168/168
f 169/169/169 170/170/170 171/171/171
f 170/170/170 169/169/169 172/172/172
f 173/173/173 174/174/174 175/175/175
f 174/174/174 173/173/173 176/176/176
f 177/177/177 178/178/178 179/179/179
f 178/178/178 177/177/177 180/180/180
f 181/181/181 182/182/182 183/183/183
f 182/182/182 181/181/181 184/184/184
f 185/185/185 186/186/186 187/187/187
f 186/186/186 185/185/185 188/188/188
f 189/189/189 190/190/190 191/191/191
f 190/190/190 189/189/189 192/192/192
f 193/193/193 194/194/194 195/195/195
f 194/194/194 193/193/193 196/196/196
f 197/197/197 198/198/198 199/199/199
f 198/198/198 200/200/200 199/199/199
f 201/201/201 202/202/202 203/203/203
f 202/202/202 201/201/201 204/204/204
f 205/205/205 206/206/206 207/207/207
f 205/205/205 207/207/207 208/208/208
f 209/209/209 210/210/210 211/211/211
f 210/210/210 209/209/209 212/212/212
f 213/213/213 214/214/214 215/215/215
f 214/214/214 213/213/213 216/216/216
f 217/217/217 218/218/218 219/219/219
f 217/217/217 220/220/220 218/218/218
f 221/221/221 222/222/222 223/223/223
f 223/223/223 224/224/224 221/221/221
f 225/225/225 226/226/226 227/227/227
f 226/226/226 225/225/225 228/228/228
f 229/229/229 230/230/230 231/231/231
f 231/231/231 230/230/230 232/232/232
f 233/233/233 234/234/234 235/235/235
f 234/234/234 233/233/233 236/236/236
f 237/237/237 238/238/238 239/239/239
f 238/238/238 237/237/237 240/240/240
