# Generated from Roblox mesh JSON (v2.00)
# Hello from RBX_Toolbox ;)
o LeftFoot_inner_cage
v 0.122153 0.071001 0.161381
v 0.088969 0.014715 0.193451
v 0.132938 0.012941 0.160443
v 0.078370 0.071001 0.195945
v 0.127689 -0.034773 0.159689
v 0.088969 0.014715 0.193451
v 0.087284 -0.031952 0.193069
v 0.132938 0.012941 0.160443
v 0.122579 -0.071002 0.159323
v 0.087284 -0.031952 0.193069
v 0.085669 -0.071002 0.192116
v 0.127689 -0.034773 0.159689
v -0.066177 -0.071002 -0.193818
v -0.128944 -0.032445 -0.156614
v -0.055412 -0.033272 -0.182868
v -0.141515 -0.071002 -0.163799
v 0.023032 -0.071002 -0.201550
v 0.026395 -0.035717 -0.191240
v 0.094840 -0.037771 -0.174632
v 0.099681 -0.071002 -0.183204
v -0.041856 -0.029214 0.170234
v 0.010093 -0.029761 0.199185
v -0.041536 0.016930 0.171193
v 0.012911 0.017062 0.199606
v 0.087284 -0.031952 0.193069
v 0.088969 0.014715 0.193451
v 0.007417 -0.071002 0.199112
v -0.041856 -0.029214 0.170234
v -0.040332 -0.071002 0.170827
v 0.010093 -0.029761 0.199185
v 0.085669 -0.071002 0.192116
v 0.087284 -0.031952 0.193069
v -0.041536 0.016930 0.171193
v 0.007796 0.071001 0.201550
v -0.043570 0.071001 0.170881
v 0.012911 0.017062 0.199606
v 0.078370 0.071001 0.195945
v 0.088969 0.014715 0.193451
v 0.145263 0.011426 0.113514
v 0.140512 0.071001 0.115106
v 0.132938 0.012941 0.160443
v 0.122153 0.071001 0.161381
v -0.081810 0.018297 0.119421
v -0.041856 -0.029214 0.170234
v -0.041536 0.016930 0.171193
v -0.084041 -0.027947 0.117601
v -0.084041 -0.027947 0.117601
v -0.079128 -0.071002 0.117282
v -0.041856 -0.029214 0.170234
v -0.040332 -0.071002 0.170827
v -0.084760 0.071001 0.120386
v -0.081810 0.018297 0.119421
v -0.043570 0.071001 0.170881
v -0.041536 0.016930 0.171193
v 0.130940 -0.036807 0.111471
v 0.145263 0.011426 0.113514
v 0.127689 -0.034773 0.159689
v 0.132938 0.012941 0.160443
v -0.079128 -0.071002 0.117282
v -0.104743 -0.028729 0.056711
v -0.102139 -0.071002 0.057264
v -0.084041 -0.027947 0.117601
v -0.109977 -0.006694 -0.137825
v -0.052618 -0.001881 -0.151916
v -0.055412 -0.033272 -0.182868
v -0.128944 -0.032445 -0.156614
v 0.029350 -0.004394 -0.158764
v 0.026395 -0.035717 -0.191240
v 0.094840 -0.037771 -0.174632
v 0.084858 -0.010635 -0.145454
v -0.119914 -0.030149 -0.014673
v -0.102139 -0.071002 0.057264
v -0.104743 -0.028729 0.056711
v -0.126669 -0.071002 -0.014708
v -0.135084 -0.031568 -0.079405
v -0.145263 -0.071002 -0.080029
v -0.128944 -0.032445 -0.156614
v -0.141515 -0.071002 -0.163799
v 0.130940 -0.036807 0.111471
v 0.122579 -0.071002 0.159323
v 0.119964 -0.071002 0.109075
v 0.127689 -0.034773 0.159689
v 0.127579 -0.036964 0.042219
v 0.119964 -0.071002 0.109075
v 0.115842 -0.071002 0.041279
v 0.130940 -0.036807 0.111471
v 0.122508 -0.038568 -0.034521
v 0.115842 -0.071002 0.041279
v 0.119189 -0.071002 -0.037024
v 0.127579 -0.036964 0.042219
v 0.121439 -0.040291 -0.104609
v 0.124747 -0.071002 -0.108677
v 0.094840 -0.037771 -0.174632
v 0.099681 -0.071002 -0.183204
v -0.086278 0.019815 0.055382
v -0.084041 -0.027947 0.117601
v -0.081810 0.018297 0.119421
v -0.104743 -0.028729 0.056711
v -0.119914 -0.030149 -0.014673
v -0.086278 0.019815 0.055382
v -0.104548 0.016525 -0.023082
v -0.104743 -0.028729 0.056711
v -0.135084 -0.031568 -0.079405
v -0.112758 0.006846 -0.082639
v -0.109977 -0.006694 -0.137825
v -0.128944 -0.032445 -0.156614
v 0.127579 -0.036964 0.042219
v 0.125359 0.012775 0.046718
v 0.130940 -0.036807 0.111471
v 0.145263 0.011426 0.113514
v 0.121439 -0.040291 -0.104609
v 0.084858 -0.010635 -0.145454
v 0.096396 0.000207 -0.089076
v 0.094840 -0.037771 -0.174632
v 0.122508 -0.038568 -0.034521
v 0.108211 0.005335 -0.036450
v 0.127579 -0.036964 0.042219
v 0.125359 0.012775 0.046718
v -0.070766 0.071001 0.071495
v -0.081810 0.018297 0.119421
v -0.084760 0.071001 0.120386
v -0.086278 0.019815 0.055382
v 0.106526 0.071001 0.066964
v 0.145263 0.011426 0.113514
v 0.125359 0.012775 0.046718
v 0.140512 0.071001 0.115106
v -0.109977 -0.006694 -0.137825
v -0.047383 0.018979 -0.097091
v -0.052618 -0.001881 -0.151916
v -0.112758 0.006846 -0.082639
v 0.029350 -0.004394 -0.158764
v 0.044253 0.016471 -0.100294
v 0.084858 -0.010635 -0.145454
v 0.096396 0.000207 -0.089076
v -0.066177 -0.071002 -0.193818
v 0.099681 -0.071002 -0.183204
v -0.141515 -0.071002 -0.163799
v 0.023032 -0.071002 -0.201550
v -0.145263 -0.071002 -0.080029
v 0.124747 -0.071002 -0.108677
v -0.126669 -0.071002 -0.014708
v 0.119189 -0.071002 -0.037024
v -0.102139 -0.071002 0.057264
v 0.115842 -0.071002 0.041279
v 0.115842 -0.071002 0.041279
v -0.079128 -0.071002 0.117282
v -0.102139 -0.071002 0.057264
v 0.119964 -0.071002 0.109075
v -0.040332 -0.071002 0.170827
v 0.122579 -0.071002 0.159323
v 0.007417 -0.071002 0.199112
v 0.085669 -0.071002 0.192116
v -0.104548 0.016525 -0.023082
v -0.029645 0.052262 0.011620
v -0.036897 0.033097 -0.044064
v -0.086278 0.019815 0.055382
v -0.112758 0.006846 -0.082639
v -0.047383 0.018979 -0.097091
v 0.044253 0.016471 -0.100294
v 0.055694 0.027248 -0.055403
v 0.096396 0.000207 -0.089076
v 0.064867 0.046498 0.008649
v 0.108211 0.005335 -0.036450
v 0.125359 0.012775 0.046718
v -0.070766 0.071001 0.071495
v -0.029645 0.052262 0.011620
v -0.086278 0.019815 0.055382
v -0.013828 0.071001 0.042730
v 0.064867 0.046498 0.008649
v 0.049348 0.071001 0.042874
v 0.106526 0.071001 0.066964
v 0.125359 0.012775 0.046718
vt 4.318013 0.734033
vt 4.269673 0.717542
vt 4.318013 0.717542
vt 4.270662 0.734033
vt 4.318014 0.701050
vt 4.269673 0.717542
vt 4.268683 0.701050
vt 4.318013 0.717542
vt 4.318014 0.668763
vt 4.268683 0.701050
vt 4.271337 0.685211
vt 4.318014 0.701050
vt 4.641173 0.265968
vt 4.682165 0.322827
vt 4.639468 0.322827
vt 4.682165 0.265968
vt 4.553146 0.265967
vt 4.551442 0.322827
vt 4.506112 0.322827
vt 4.506112 0.265967
vt 4.194766 0.701050
vt 4.238421 0.701050
vt 4.194766 0.717542
vt 4.238916 0.717542
vt 4.268683 0.701050
vt 4.269673 0.717542
vt 4.239748 0.685211
vt 4.194766 0.701050
vt 4.194766 0.668763
vt 4.238421 0.701050
vt 4.271337 0.685211
vt 4.268683 0.701050
vt 4.194766 0.717542
vt 4.239410 0.734033
vt 4.194766 0.734033
vt 4.238916 0.717542
vt 4.270662 0.734033
vt 4.269673 0.717542
vt 4.473155 0.594565
vt 4.506112 0.599918
vt 4.473155 0.655553
vt 4.506112 0.655553
vt 4.715122 0.584724
vt 4.748080 0.655552
vt 4.715122 0.655552
vt 4.748080 0.569530
vt 4.748080 0.569530
vt 4.836046 0.578310
vt 4.748080 0.655552
vt 4.836046 0.655553
vt 4.682165 0.599918
vt 4.715122 0.584724
vt 4.682165 0.655552
vt 4.715122 0.655552
vt 4.440198 0.589211
vt 4.473155 0.594565
vt 4.440198 0.655553
vt 4.473155 0.655553
vt 4.836046 0.578310
vt 4.725915 0.472138
vt 4.836046 0.537171
vt 4.748080 0.569530
vt 4.684693 0.357269
vt 4.638481 0.354811
vt 4.639468 0.322827
vt 4.682165 0.322827
vt 4.550454 0.354811
vt 4.551442 0.322827
vt 4.506112 0.322827
vt 4.503837 0.357023
vt 4.709523 0.418805
vt 4.836046 0.537171
vt 4.725915 0.472138
vt 4.792063 0.379687
vt 4.693130 0.365472
vt 4.770072 0.337042
vt 4.682165 0.322827
vt 4.748080 0.294397
vt 4.440198 0.589211
vt 4.352232 0.655553
vt 4.352232 0.537170
vt 4.440198 0.655553
vt 4.459850 0.479509
vt 4.352232 0.537170
vt 4.370994 0.469989
vt 4.440198 0.589211
vt 4.477498 0.422491
vt 4.370994 0.469989
vt 4.396214 0.379687
vt 4.459850 0.479509
vt 4.495147 0.365472
vt 4.418206 0.337042
vt 4.506112 0.322827
vt 4.440197 0.294397
vt 4.704069 0.501414
vt 4.748080 0.569530
vt 4.715122 0.584724
vt 4.725915 0.472138
vt 4.709523 0.418805
vt 4.704069 0.501414
vt 4.695858 0.454766
vt 4.725915 0.472138
vt 4.693130 0.365472
vt 4.687648 0.408117
vt 4.684693 0.357269
vt 4.682165 0.322827
vt 4.459850 0.479509
vt 4.483266 0.510566
vt 4.440198 0.589211
vt 4.473155 0.594565
vt 4.495147 0.365472
vt 4.503837 0.357023
vt 4.500629 0.408117
vt 4.506112 0.322827
vt 4.477498 0.422491
vt 4.491948 0.459342
vt 4.459850 0.479509
vt 4.483266 0.510566
vt 4.682165 0.537171
vt 4.715122 0.584724
vt 4.682165 0.599918
vt 4.704069 0.501414
vt 4.506112 0.537171
vt 4.473155 0.594565
vt 4.483266 0.510566
vt 4.506112 0.599918
vt 4.684693 0.357269
vt 4.638152 0.408117
vt 4.638481 0.354811
vt 4.687648 0.408117
vt 4.550454 0.354811
vt 4.550125 0.408117
vt 4.503837 0.357023
vt 4.500629 0.408117
vt 4.194766 0.265967
vt 4.323192 0.285270
vt 4.189588 0.285271
vt 4.318013 0.265967
vt 4.179359 0.323398
vt 4.333420 0.323398
vt 4.163954 0.380830
vt 4.348826 0.380830
vt 4.163954 0.462950
vt 4.348825 0.494111
vt 4.348825 0.494111
vt 4.163954 0.538116
vt 4.163954 0.462950
vt 4.348825 0.538116
vt 4.194766 0.668763
vt 4.318014 0.668763
vt 4.239748 0.685211
vt 4.271337 0.685211
vt 4.695858 0.454766
vt 4.638152 0.468094
vt 4.638152 0.438105
vt 4.704069 0.501414
vt 4.687648 0.408117
vt 4.638152 0.408117
vt 4.550125 0.408117
vt 4.550125 0.442364
vt 4.500629 0.408117
vt 4.550125 0.476610
vt 4.491948 0.459342
vt 4.483266 0.510566
vt 4.682165 0.537171
vt 4.638152 0.468094
vt 4.704069 0.501414
vt 4.638152 0.537171
vt 4.550125 0.476610
vt 4.550125 0.537171
vt 4.506112 0.537171
vt 4.483266 0.510566
vn 0.589583 -0.042471 0.806591
vn 0.589583 -0.042471 0.806591
vn 0.589583 -0.042471 0.806590
vn 0.589583 -0.042471 0.806591
vn 0.614823 -0.062351 0.786197
vn 0.614823 -0.062351 0.786197
vn 0.614823 -0.062351 0.786197
vn 0.614823 -0.062351 0.786197
vn 0.648217 -0.050673 0.759768
vn 0.648217 -0.050673 0.759768
vn 0.648217 -0.050673 0.759768
vn 0.648217 -0.050673 0.759768
vn -0.226959 0.223397 -0.947936
vn -0.342923 0.229323 -0.910942
vn -0.204949 0.221924 -0.953281
vn -0.342923 0.229323 -0.910942
vn 0.049034 0.204113 -0.977718
vn 0.061894 0.203139 -0.977192
vn 0.232858 0.186828 -0.954396
vn 0.232858 0.186828 -0.954396
vn -0.474556 0.003375 0.880219
vn -0.178376 -0.006500 0.983941
vn -0.474556 0.003375 0.880219
vn -0.160795 -0.007049 0.986963
vn 0.079339 -0.014172 0.996747
vn 0.079339 -0.014172 0.996747
vn -0.182913 -0.003052 0.983124
vn -0.497816 0.008955 0.867236
vn -0.497816 0.008955 0.867236
vn -0.169974 -0.003522 0.985442
vn 0.083852 -0.012414 0.996401
vn 0.083852 -0.012414 0.996401
vn -0.468423 0.048613 0.882166
vn -0.173580 0.022689 0.984558
vn -0.468423 0.048613 0.882166
vn -0.185100 0.023715 0.982433
vn 0.076295 0.000191 0.997085
vn 0.076295 0.000191 0.997085
vn 0.925676 -0.167691 0.339123
vn 0.925676 -0.167691 0.339123
vn 0.925676 -0.167691 0.339123
vn 0.925676 -0.167691 0.339123
vn -0.774211 0.002675 0.632922
vn -0.774211 0.002675 0.632922
vn -0.774211 0.002675 0.632922
vn -0.774211 0.002675 0.632922
vn -0.784692 -0.041922 0.618466
vn -0.784692 -0.041922 0.618466
vn -0.784692 -0.041922 0.618466
vn -0.784692 -0.041922 0.618466
vn -0.755351 0.017254 0.655093
vn -0.755351 0.017254 0.655093
vn -0.755351 0.017254 0.655093
vn -0.755351 0.017254 0.655093
vn 0.958260 -0.227831 0.172717
vn 0.958260 -0.227831 0.172717
vn 0.958260 -0.227831 0.172717
vn 0.958260 -0.227831 0.172717
vn -0.938615 -0.059633 0.339774
vn -0.938615 -0.059633 0.339774
vn -0.938615 -0.059633 0.339774
vn -0.938615 -0.059633 0.339774
vn -0.214284 0.823035 -0.526019
vn -0.114485 0.815337 -0.567555
vn -0.102786 0.813820 -0.571955
vn -0.214284 0.823035 -0.526019
vn 0.071071 0.813279 -0.577517
vn 0.057315 0.812124 -0.580663
vn 0.192154 0.816370 -0.544625
vn 0.192154 0.816370 -0.544625
vn -0.958982 0.087700 0.269558
vn -0.956307 0.035978 0.290141
vn -0.956307 0.035978 0.290141
vn -0.959047 0.090764 0.268310
vn -0.979838 0.179554 0.087620
vn -0.980191 0.181064 0.080263
vn -0.975795 0.208685 -0.065379
vn -0.975795 0.208685 -0.065379
vn 0.987312 -0.158453 0.010378
vn 0.987312 -0.158453 0.010378
vn 0.987312 -0.158453 0.010378
vn 0.987312 -0.158453 0.010378
vn 0.973200 -0.223804 -0.052853
vn 0.973200 -0.223804 -0.052853
vn 0.973200 -0.223804 -0.052853
vn 0.973200 -0.223804 -0.052853
vn 0.996369 -0.084644 0.009172
vn 0.987935 -0.154545 -0.010032
vn 0.996870 -0.078308 0.010904
vn 0.987935 -0.154545 -0.010032
vn 0.985145 0.063010 -0.159746
vn 0.981703 0.069046 -0.177459
vn 0.926402 0.128949 -0.353769
vn 0.926402 0.128949 -0.353769
vn -0.952339 0.235885 0.193415
vn -0.952339 0.235885 0.193415
vn -0.952339 0.235885 0.193415
vn -0.952339 0.235885 0.193415
vn -0.889672 0.424764 0.167507
vn -0.898946 0.387449 0.204400
vn -0.888883 0.427486 0.164750
vn -0.898946 0.387449 0.204400
vn -0.826021 0.563558 0.009554
vn -0.830947 0.556024 0.019116
vn -0.723822 0.673789 -0.148627
vn -0.723822 0.673789 -0.148627
vn 0.977905 -0.123821 -0.168435
vn 0.977905 -0.123821 -0.168435
vn 0.977905 -0.123821 -0.168435
vn 0.977905 -0.123821 -0.168435
vn 0.771711 0.601618 -0.206197
vn 0.677493 0.681472 -0.276766
vn 0.805513 0.565728 -0.176356
vn 0.677493 0.681472 -0.276766
vn 0.931721 0.333294 -0.144259
vn 0.929652 0.339353 -0.143477
vn 0.966712 0.200019 -0.159566
vn 0.966712 0.200019 -0.159566
vn -0.977382 0.191482 -0.089767
vn -0.977382 0.191482 -0.089767
vn -0.977382 0.191482 -0.089767
vn -0.977382 0.191482 -0.089767
vn 0.895919 0.034411 -0.442883
vn 0.895919 0.034411 -0.442883
vn 0.895919 0.034411 -0.442883
vn 0.895919 0.034411 -0.442883
vn -0.240053 0.901016 -0.361311
vn -0.090502 0.914283 -0.394838
vn -0.085157 0.914356 -0.395855
vn -0.240053 0.901016 -0.361311
vn 0.088229 0.910956 -0.402959
vn 0.135232 0.907819 -0.396960
vn 0.289425 0.882578 -0.370526
vn 0.289425 0.882578 -0.370526
vn -0.000000 -1.000000 -0.000000
vn -0.000000 -1.000000 0.000000
vn -0.000000 -1.000000 0.000000
vn -0.000000 -1.000000 -0.000000
vn -0.000000 -1.000000 0.000001
vn -0.000000 -1.000000 0.000001
vn -0.000000 -1.000000 0.000001
vn -0.000000 -1.000000 0.000001
vn -0.000000 -1.000000 -0.000000
vn -0.000000 -1.000000 -0.000000
vn -0.000000 -1.000000 0.000001
vn -0.000000 -1.000000 -0.000001
vn -0.000000 -1.000000 0.000001
vn -0.000000 -1.000000 -0.000002
vn -0.000000 -1.000000 -0.000005
vn -0.000000 -1.000000 -0.000004
vn -0.000000 -1.000000 0.000003
vn -0.000000 -1.000000 0.000003
vn -0.324770 0.939861 -0.105763
vn -0.166244 0.974800 -0.148753
vn -0.123987 0.973139 -0.193976
vn -0.365727 0.929553 -0.046639
vn -0.273543 0.945671 -0.175728
vn -0.114088 0.967932 -0.223811
vn 0.149478 0.953868 -0.260370
vn 0.218017 0.942199 -0.254420
vn 0.411752 0.878845 -0.241022
vn 0.302910 0.919816 -0.249368
vn 0.471374 0.849002 -0.238751
vn 0.498193 0.833949 -0.237344
vn -0.472723 0.707179 -0.525767
vn -0.273032 0.799118 -0.535596
vn -0.472723 0.707179 -0.525767
vn -0.170928 0.829944 -0.531014
vn 0.266171 0.756588 -0.597267
vn 0.268233 0.755328 -0.597939
vn 0.477224 0.594113 -0.647523
vn 0.477224 0.594113 -0.647523
f 1/1/1 2/2/2 3/3/3
f 2/2/2 1/1/1 4/4/4
f 5/5/5 6/6/6 7/7/7
f 6/6/6 5/5/5 8/8/8
f 9/9/9 10/10/10 11/11/11
f 10/10/10 9/9/9 12/12/12
f 13/13/13 14/14/14 15/15/15
f 14/14/14 13/13/13 16/16/16
f 15/15/15 17/17/17 13/13/13
f 17/17/17 15/15/15 18/18/18
f 18/18/18 19/19/19 17/17/17
f 20/20/20 17/17/17 19/19/19
f 21/21/21 22/22/22 23/23/23
f 22/22/22 24/24/24 23/23/23
f 25/25/25 24/24/24 22/22/22
f 24/24/24 25/25/25 26/26/26
f 27/27/27 28/28/28 29/29/29
f 28/28/28 27/27/27 30/30/30
f 31/31/31 30/30/30 27/27/27
f 30/30/30 31/31/31 32/32/32
f 33/33/33 34/34/34 35/35/35
f 34/34/34 33/33/33 36/36/36
f 36/36/36 37/37/37 34/34/34
f 37/37/37 36/36/36 38/38/38
f 39/39/39 40/40/40 41/41/41
f 40/40/40 42/42/42 41/41/41
f 43/43/43 44/44/44 45/45/45
f 44/44/44 43/43/43 46/46/46
f 47/47/47 48/48/48 49/49/49
f 48/48/48 50/50/50 49/49/49
f 51/51/51 52/52/52 53/53/53
f 52/52/52 54/54/54 53/53/53
f 55/55/55 56/56/56 57/57/57
f 56/56/56 58/58/58 57/57/57
f 59/59/59 60/60/60 61/61/61
f 60/60/60 59/59/59 62/62/62
f 63/63/63 64/64/64 65/65/65
f 63/63/63 65/65/65 66/66/66
f 67/67/67 65/65/65 64/64/64
f 65/65/65 67/67/67 68/68/68
f 67/67/67 69/69/69 68/68/68
f 69/69/69 67/67/67 70/70/70
f 71/71/71 72/72/72 73/73/73
f 72/72/72 71/71/71 74/74/74
f 75/75/75 74/74/74 71/71/71
f 75/75/75 76/76/76 74/74/74
f 77/77/77 76/76/76 75/75/75
f 78/78/78 76/76/76 77/77/77
f 79/79/79 80/80/80 81/81/81
f 80/80/80 79/79/79 82/82/82
f 83/83/83 84/84/84 85/85/85
f 84/84/84 83/83/83 86/86/86
f 87/87/87 88/88/88 89/89/89
f 88/88/88 87/87/87 90/90/90
f 89/89/89 91/91/91 87/87/87
f 91/91/91 89/89/89 92/92/92
f 92/92/92 93/93/93 91/91/91
f 93/93/93 92/92/92 94/94/94
f 95/95/95 96/96/96 97/97/97
f 96/96/96 95/95/95 98/98/98
f 99/99/99 100/100/100 101/101/101
f 100/100/100 99/99/99 102/102/102
f 101/101/101 103/103/103 99/99/99
f 103/103/103 101/101/101 104/104/104
f 103/103/103 104/104/104 105/105/105
f 106/106/106 103/103/103 105/105/105
f 107/107/107 108/108/108 109/109/109
f 108/108/108 110/110/110 109/109/109
f 111/111/111 112/112/112 113/113/113
f 112/112/112 111/111/111 114/114/114
f 113/113/113 115/115/115 111/111/111
f 115/115/115 113/113/113 116/116/116
f 116/116/116 117/117/117 115/115/115
f 117/117/117 116/116/116 118/118/118
f 119/119/119 120/120/120 121/121/121
f 120/120/120 119/119/119 122/122/122
f 123/123/123 124/124/124 125/125/125
f 124/124/124 123/123/123 126/126/126
f 127/127/127 128/128/128 129/129/129
f 128/128/128 127/127/127 130/130/130
f 128/128/128 131/131/131 129/129/129
f 131/131/131 128/128/128 132/132/132
f 132/132/132 133/133/133 131/131/131
f 133/133/133 132/132/132 134/134/134
f 135/135/135 136/136/136 137/137/137
f 136/136/136 135/135/135 138/138/138
f 136/136/136 139/139/139 137/137/137
f 139/139/139 136/136/136 140/140/140
f 140/140/140 141/141/141 139/139/139
f 141/141/141 140/140/140 142/142/142
f 142/142/142 143/143/143 141/141/141
f 143/143/143 142/142/142 144/144/144
f 145/145/145 146/146/146 147/147/147
f 146/146/146 145/145/145 148/148/148
f 146/146/146 148/148/148 149/149/149
f 150/150/150 149/149/149 148/148/148
f 150/150/150 151/151/151 149/149/149
f 151/151/151 150/150/150 152/152/152
f 153/153/153 154/154/154 155/155/155
f 153/153/153 156/156/156 154/154/154
f 155/155/155 157/157/157 153/153/153
f 157/157/157 155/155/155 158/158/158
f 155/155/155 159/159/159 158/158/158
f 154/154/154 160/160/160 155/155/155
f 159/159/159 155/155/155 160/160/160
f 159/159/159 160/160/160 161/161/161
f 160/160/160 154/154/154 162/162/162
f 161/161/161 160/160/160 163/163/163
f 160/160/160 162/162/162 163/163/163
f 164/164/164 163/163/163 162/162/162
f 165/165/165 166/166/166 167/167/167
f 166/166/166 165/165/165 168/168/168
f 168/168/168 169/169/169 166/166/166
f 169/169/169 168/168/168 170/170/170
f 171/171/171 169/169/169 170/170/170
f 169/169/169 171/171/171 172/172/172
