# Generated from Roblox mesh JSON (v2.00)
# Hello from RBX_Toolbox ;)
o LeftLowerArm
v -0.503040 0.440590 -0.061549
v -0.446820 0.485960 0.000000
v -0.436520 0.484690 -0.082816
v -0.514040 0.441490 0.000000
v -0.446750 0.378050 0.139650
v -0.375600 0.419370 0.160917
v -0.514040 0.441490 0.000000
v -0.421630 0.274530 0.000000
v -0.446750 0.378050 0.139650
v -0.503040 0.440590 -0.061549
v -0.404710 0.261970 0.166203
v -0.404710 0.269940 -0.175397
v -0.389310 0.084970 0.000000
v -0.367730 0.089490 0.181637
v -0.367730 0.089490 -0.181637
v -0.373080 -0.216690 0.142339
v -0.373080 -0.216690 -0.142339
v -0.392880 -0.223130 0.000000
v -0.388310 -0.460120 0.129661
v -0.388310 -0.460120 -0.129661
v -0.397370 -0.485960 0.000000
v 0.049980 -0.381000 0.000000
v -0.187450 -0.399240 0.447496
v -0.388310 -0.460120 0.129661
v 0.051830 -0.367230 0.519815
v -0.397370 -0.485960 0.000000
v 0.292020 -0.380970 0.447475
v -0.388310 -0.460120 -0.129661
v 0.463090 -0.408570 0.244902
v 0.514040 -0.439480 0.000000
v -0.187450 -0.399240 -0.447496
v 0.463090 -0.408570 -0.244902
v 0.051830 -0.367230 -0.519815
v 0.292020 -0.380970 -0.447475
v 0.399390 -0.106350 -0.231750
v 0.405800 0.102920 -0.211691
v 0.442130 -0.114270 0.000000
v 0.439350 0.091200 0.000000
v 0.426590 -0.278140 -0.241715
v 0.474280 -0.297560 0.000000
v 0.463090 -0.408570 -0.244902
v 0.514040 -0.439480 0.000000
v 0.292020 -0.380970 -0.447475
v 0.265410 -0.249450 -0.434316
v 0.051830 -0.367230 -0.519815
v 0.253850 -0.076550 -0.409192
v 0.288220 0.142170 -0.358101
v 0.044710 -0.221860 -0.506224
v 0.060280 -0.035110 -0.478637
v 0.119080 0.198890 -0.418406
v -0.045830 0.254780 -0.358104
v -0.178540 -0.217190 -0.434324
v -0.187450 -0.399240 -0.447496
v -0.139070 0.006230 -0.409187
v -0.339080 -0.231570 -0.184570
v -0.388310 -0.460120 -0.129661
v -0.281230 0.038360 -0.231742
v -0.178500 0.298340 -0.211691
v 0.442130 -0.114270 0.000000
v 0.439350 0.091200 0.000000
v 0.405800 0.102920 0.211691
v 0.399390 -0.106350 0.231750
v 0.253850 -0.076550 0.409192
v 0.288220 0.142170 0.358101
v 0.426590 -0.278140 0.241715
v 0.474280 -0.297560 0.000000
v 0.463090 -0.408570 0.244902
v 0.514040 -0.439480 0.000000
v 0.292020 -0.380970 0.447475
v 0.265410 -0.249450 0.434316
v 0.051830 -0.367230 0.519815
v 0.044710 -0.221860 0.506224
v 0.060280 -0.035110 0.478637
v 0.119080 0.198890 0.418406
v -0.045830 0.254780 0.358104
v -0.139070 0.006230 0.409187
v -0.178540 -0.217190 0.434324
v -0.187450 -0.399240 0.447496
v -0.339080 -0.231570 0.184570
v -0.388310 -0.460120 0.129661
v -0.281230 0.038360 0.231742
v -0.178500 0.298340 0.211691
v -0.404710 0.269940 -0.175397
v -0.503040 0.440590 -0.061549
v -0.436520 0.484690 -0.082816
v -0.178500 0.298340 -0.211691
v -0.367730 0.089490 -0.181637
v -0.281230 0.038360 -0.231742
v -0.373080 -0.216690 -0.142339
v -0.339080 -0.231570 -0.184570
v -0.388310 -0.460120 -0.129661
v -0.375600 0.419370 0.160917
v -0.404710 0.261970 0.166203
v -0.178500 0.298340 0.211691
v -0.446750 0.378050 0.139650
v -0.367730 0.089490 0.181637
v -0.281230 0.038360 0.231742
v -0.373080 -0.216690 0.142339
v -0.339080 -0.231570 0.184570
v -0.388310 -0.460120 0.129661
v 0.439350 0.091200 0.000000
v -0.015010 0.035600 0.000000
v 0.405800 0.102920 0.211691
v 0.288220 0.142170 0.358101
v 0.405800 0.102920 -0.211691
v 0.119080 0.198890 0.418406
v 0.288220 0.142170 -0.358101
v -0.045830 0.254780 0.358104
v 0.119080 0.198890 -0.418406
v -0.178500 0.298340 0.211691
v -0.045830 0.254780 -0.358104
v -0.221820 0.312080 0.000000
v -0.178500 0.298340 -0.211691
v -0.375600 0.419370 0.160917
v -0.221820 0.312080 0.000000
v -0.446820 0.485960 0.000000
v -0.178500 0.298340 0.211691
v -0.436520 0.484690 -0.082816
v -0.178500 0.298340 -0.211691
vt 0.488765 0.513961
vt 0.507238 0.530613
vt 0.486000 0.535347
vt 0.503461 0.511915
vt 0.539462 0.500625
vt 0.552022 0.518298
vt 0.503461 0.511915
vt 0.506463 0.467949
vt 0.539462 0.500625
vt 0.488765 0.513961
vt 0.549781 0.467672
vt 0.462610 0.462878
vt 0.511120 0.418583
vt 0.558205 0.422240
vt 0.464428 0.415574
vt 0.553109 0.342592
vt 0.480026 0.337435
vt 0.516914 0.338328
vt 0.554293 0.278723
vt 0.487321 0.274359
vt 0.521592 0.269797
vt 0.168534 0.352930
vt 0.092166 0.313602
vt 0.145347 0.277878
vt 0.080442 0.354399
vt 0.167562 0.275154
vt 0.093225 0.394773
vt 0.189822 0.277330
vt 0.127721 0.423474
vt 0.169267 0.432117
vt 0.243876 0.311905
vt 0.210752 0.422616
vt 0.256575 0.352493
vt 0.244689 0.393162
vt 0.736737 0.449574
vt 0.752908 0.501750
vt 0.680994 0.471774
vt 0.701368 0.520403
vt 0.719686 0.407717
vt 0.660253 0.429168
vt 0.704096 0.376404
vt 0.642363 0.395497
vt 0.770321 0.360626
vt 0.782487 0.392825
vt 0.833268 0.348129
vt 0.794637 0.436302
vt 0.801125 0.494179
vt 0.841513 0.384391
vt 0.848024 0.432039
vt 0.849518 0.494632
vt 0.897404 0.500564
vt 0.901312 0.375694
vt 0.895766 0.329879
vt 0.903227 0.433267
vt 0.976583 0.368786
vt 0.990882 0.309714
vt 0.961017 0.438956
vt 0.948060 0.509299
vt 0.681649 0.471975
vt 0.701920 0.520721
vt 0.753544 0.501808
vt 0.737685 0.449462
vt 0.795147 0.436468
vt 0.801689 0.494113
vt 0.720314 0.407725
vt 0.660854 0.429207
vt 0.704620 0.376431
vt 0.642689 0.395491
vt 0.770817 0.360736
vt 0.782974 0.392885
vt 0.833502 0.348187
vt 0.841606 0.384490
vt 0.848067 0.432060
vt 0.849964 0.494578
vt 0.897646 0.500614
vt 0.903066 0.433476
vt 0.900995 0.375754
vt 0.895778 0.329861
vt 0.976912 0.368755
vt 0.991415 0.309586
vt 0.961271 0.439059
vt 0.948682 0.509375
vt 0.428629 0.510611
vt 0.488765 0.513961
vt 0.486000 0.535347
vt 0.401224 0.562315
vt 0.386394 0.491236
vt 0.360193 0.503493
vt 0.326837 0.436369
vt 0.315142 0.445162
vt 0.279494 0.393646
vt 0.552022 0.518298
vt 0.562400 0.479508
vt 0.611024 0.515133
vt 0.539462 0.500625
vt 0.589117 0.445721
vt 0.617876 0.444655
vt 0.615233 0.375027
vt 0.629178 0.377031
vt 0.636022 0.318036
vt 0.124370 0.552813
vt 0.112189 0.483992
vt 0.160214 0.539172
vt 0.180380 0.511934
vt 0.086620 0.552813
vt 0.183434 0.478385
vt 0.058592 0.536606
vt 0.167726 0.450533
vt 0.043515 0.506869
vt 0.136640 0.432927
vt 0.047348 0.475539
vt 0.098215 0.432884
vt 0.066103 0.448002
vt 0.421916 0.341359
vt 0.378369 0.387054
vt 0.382046 0.314500
vt 0.431892 0.401020
vt 0.360757 0.315703
vt 0.323661 0.395199
vn -0.560084 0.822971 -0.095000
vn -0.561974 0.794948 0.228567
vn -0.560084 0.822971 -0.095000
vn -0.561974 0.794948 0.228567
vn -0.504584 0.683071 0.528024
vn -0.504584 0.683071 0.528024
vn -0.896168 -0.442946 0.026118
vn -0.948716 -0.315869 0.012813
vn -0.898947 -0.413451 0.144748
vn -0.879990 -0.465818 -0.092903
vn -0.945550 -0.300382 0.125323
vn -0.939579 -0.327314 -0.100288
vn -0.996044 -0.088866 -0.000357
vn -0.989317 -0.088608 0.115762
vn -0.989296 -0.087921 -0.116462
vn -0.993269 0.021256 0.113861
vn -0.993269 0.021255 -0.113860
vn -0.999771 0.021395 0.000000
vn -0.994208 0.036205 0.101188
vn -0.994208 0.036203 -0.101188
vn -0.999338 0.036391 0.000000
vn 0.046348 -0.998925 -0.000000
vn 0.160357 -0.986038 0.044889
vn 0.210577 -0.970214 0.119760
vn 0.038046 -0.998929 0.026333
vn 0.228410 -0.973565 -0.000002
vn -0.073411 -0.996508 0.039786
vn 0.210577 -0.970214 -0.119762
vn -0.111086 -0.990911 0.075858
vn -0.125027 -0.992153 -0.000000
vn 0.160357 -0.986038 -0.044889
vn -0.111086 -0.990911 -0.075858
vn 0.038046 -0.998929 -0.026333
vn -0.073410 -0.996508 -0.039786
vn 0.907262 0.089572 -0.410916
vn 0.911420 0.015237 -0.411195
vn 0.996389 0.084911 0.000000
vn 1.000000 -0.000423 -0.000000
vn 0.890849 0.207903 -0.403936
vn 0.975287 0.220943 0.000000
vn 0.881752 0.252148 -0.398666
vn 0.962447 0.271469 0.000000
vn 0.557504 0.182633 -0.809836
vn 0.567564 0.164569 -0.806715
vn 0.002987 0.109090 -0.994027
vn 0.585894 0.119765 -0.801489
vn 0.593982 0.092971 -0.799088
vn 0.012691 0.131960 -0.991174
vn 0.042338 0.194079 -0.980072
vn 0.062148 0.232900 -0.970513
vn -0.476920 0.331826 -0.813903
vn -0.596186 0.116410 -0.794362
vn -0.610606 0.077326 -0.788150
vn -0.531236 0.245471 -0.810883
vn -0.826688 0.099671 -0.553762
vn -0.845619 0.065884 -0.529705
vn -0.745740 0.243930 -0.619975
vn -0.672196 0.350277 -0.652272
vn 0.996389 0.084911 0.000000
vn 1.000000 -0.000423 -0.000000
vn 0.911420 0.015238 0.411195
vn 0.907262 0.089573 0.410916
vn 0.585894 0.119765 0.801489
vn 0.593982 0.092971 0.799088
vn 0.890849 0.207903 0.403936
vn 0.975287 0.220943 0.000000
vn 0.881752 0.252148 0.398666
vn 0.962447 0.271469 0.000000
vn 0.557504 0.182633 0.809836
vn 0.567564 0.164569 0.806715
vn 0.002987 0.109091 0.994027
vn 0.012691 0.131960 0.991174
vn 0.042338 0.194079 0.980072
vn 0.062149 0.232900 0.970513
vn -0.476920 0.331826 0.813904
vn -0.531236 0.245471 0.810884
vn -0.596186 0.116410 0.794362
vn -0.610606 0.077326 0.788150
vn -0.826688 0.099671 0.553762
vn -0.845619 0.065884 0.529705
vn -0.745740 0.243931 0.619975
vn -0.672196 0.350277 0.652272
vn -0.263154 0.224289 -0.938320
vn -0.263246 0.348785 -0.899472
vn -0.263246 0.348785 -0.899472
vn -0.263154 0.224289 -0.938320
vn -0.452088 0.024282 -0.891643
vn -0.452088 0.024282 -0.891643
vn -0.704539 -0.016517 -0.709473
vn -0.704539 -0.016517 -0.709473
vn -0.776168 0.015737 -0.630329
vn -0.237356 0.076430 0.968411
vn -0.261291 0.098940 0.960176
vn -0.261291 0.098940 0.960176
vn -0.237356 0.076430 0.968411
vn -0.464710 0.037199 0.884681
vn -0.464710 0.037199 0.884681
vn -0.704539 -0.016517 0.709473
vn -0.704539 -0.016517 0.709473
vn -0.776169 0.015738 0.630329
vn -0.121462 0.992596 0.000000
vn 0.355750 0.934581 0.000000
vn -0.069622 0.982282 -0.173995
vn 0.071210 0.937934 -0.339425
vn -0.069622 0.982282 0.173995
vn 0.297180 0.853380 -0.428284
vn 0.071210 0.937934 0.339425
vn 0.532751 0.741443 -0.407968
vn 0.297180 0.853379 0.428285
vn 0.720295 0.647875 -0.247857
vn 0.532751 0.741443 0.407969
vn 0.800765 0.598979 0.000000
vn 0.720295 0.647875 0.247858
vn 0.572667 0.819788 0.000683
vn 0.591034 0.805860 0.035626
vn 0.591034 0.805860 0.035626
vn 0.572667 0.819788 0.000683
vn 0.608365 0.790519 0.070507
vn 0.608365 0.790519 0.070507
f 1/1/1 2/2/2 3/3/3
f 2/2/2 1/1/1 4/4/4
f 5/5/5 2/2/2 4/4/4
f 2/2/2 5/5/5 6/6/6
f 7/7/7 8/8/8 9/9/9
f 10/10/10 8/8/8 7/7/7
f 8/8/8 11/11/11 9/9/9
f 10/10/10 12/12/12 8/8/8
f 8/8/8 13/13/13 11/11/11
f 12/12/12 13/13/13 8/8/8
f 13/13/13 14/14/14 11/11/11
f 12/12/12 15/15/15 13/13/13
f 13/13/13 16/16/16 14/14/14
f 15/15/15 17/17/17 13/13/13
f 16/16/16 13/13/13 18/18/18
f 18/18/18 13/13/13 17/17/17
f 18/18/18 19/19/19 16/16/16
f 20/20/20 18/18/18 17/17/17
f 19/19/19 18/18/18 21/21/21
f 18/18/18 20/20/20 21/21/21
f 22/22/22 23/23/23 24/24/24
f 22/22/22 25/25/25 23/23/23
f 22/22/22 24/24/24 26/26/26
f 22/22/22 27/27/27 25/25/25
f 22/22/22 26/26/26 28/28/28
f 29/29/29 27/27/27 22/22/22
f 29/29/29 22/22/22 30/30/30
f 22/22/22 28/28/28 31/31/31
f 22/22/22 32/32/32 30/30/30
f 22/22/22 31/31/31 33/33/33
f 22/22/22 34/34/34 32/32/32
f 22/22/22 33/33/33 34/34/34
f 35/35/35 36/36/36 37/37/37
f 36/36/36 38/38/38 37/37/37
f 37/37/37 39/39/39 35/35/35
f 39/39/39 37/37/37 40/40/40
f 40/40/40 41/41/41 39/39/39
f 41/41/41 40/40/40 42/42/42
f 43/43/43 39/39/39 41/41/41
f 39/39/39 43/43/43 44/44/44
f 44/44/44 35/35/35 39/39/39
f 45/45/45 44/44/44 43/43/43
f 46/46/46 36/36/36 35/35/35
f 35/35/35 44/44/44 46/46/46
f 36/36/36 46/46/46 47/47/47
f 44/44/44 45/45/45 48/48/48
f 48/48/48 46/46/46 44/44/44
f 49/49/49 47/47/47 46/46/46
f 46/46/46 48/48/48 49/49/49
f 47/47/47 49/49/49 50/50/50
f 49/49/49 51/51/51 50/50/50
f 45/45/45 52/52/52 48/48/48
f 52/52/52 45/45/45 53/53/53
f 48/48/48 54/54/54 49/49/49
f 54/54/54 48/48/48 52/52/52
f 51/51/51 49/49/49 54/54/54
f 53/53/53 55/55/55 52/52/52
f 55/55/55 54/54/54 52/52/52
f 55/55/55 53/53/53 56/56/56
f 54/54/54 55/55/55 57/57/57
f 57/57/57 51/51/51 54/54/54
f 51/51/51 57/57/57 58/58/58
f 59/59/59 60/60/60 61/61/61
f 59/59/59 61/61/61 62/62/62
f 61/61/61 63/63/63 62/62/62
f 63/63/63 61/61/61 64/64/64
f 65/65/65 59/59/59 62/62/62
f 59/59/59 65/65/65 66/66/66
f 67/67/67 66/66/66 65/65/65
f 66/66/66 67/67/67 68/68/68
f 65/65/65 69/69/69 67/67/67
f 62/62/62 70/70/70 65/65/65
f 69/69/69 65/65/65 70/70/70
f 70/70/70 62/62/62 63/63/63
f 70/70/70 71/71/71 69/69/69
f 63/63/63 72/72/72 70/70/70
f 71/71/71 70/70/70 72/72/72
f 64/64/64 73/73/73 63/63/63
f 72/72/72 63/63/63 73/73/73
f 73/73/73 64/64/64 74/74/74
f 75/75/75 73/73/73 74/74/74
f 76/76/76 72/72/72 73/73/73
f 73/73/73 75/75/75 76/76/76
f 77/77/77 71/71/71 72/72/72
f 72/72/72 76/76/76 77/77/77
f 71/71/71 77/77/77 78/78/78
f 79/79/79 78/78/78 77/77/77
f 79/79/79 77/77/77 76/76/76
f 78/78/78 79/79/79 80/80/80
f 81/81/81 79/79/79 76/76/76
f 75/75/75 81/81/81 76/76/76
f 81/81/81 75/75/75 82/82/82
f 83/83/83 84/84/84 85/85/85
f 85/85/85 86/86/86 83/83/83
f 86/86/86 87/87/87 83/83/83
f 87/87/87 86/86/86 88/88/88
f 89/89/89 87/87/87 88/88/88
f 88/88/88 90/90/90 89/89/89
f 90/90/90 91/91/91 89/89/89
f 92/92/92 93/93/93 94/94/94
f 93/93/93 92/92/92 95/95/95
f 96/96/96 94/94/94 93/93/93
f 94/94/94 96/96/96 97/97/97
f 98/98/98 97/97/97 96/96/96
f 97/97/97 98/98/98 99/99/99
f 100/100/100 99/99/99 98/98/98
f 101/101/101 102/102/102 103/103/103
f 103/103/103 102/102/102 104/104/104
f 101/101/101 105/105/105 102/102/102
f 104/104/104 102/102/102 106/106/106
f 105/105/105 107/107/107 102/102/102
f 106/106/106 102/102/102 108/108/108
f 107/107/107 109/109/109 102/102/102
f 108/108/108 102/102/102 110/110/110
f 109/109/109 111/111/111 102/102/102
f 110/110/110 102/102/102 112/112/112
f 111/111/111 113/113/113 102/102/102
f 113/113/113 112/112/112 102/102/102
f 114/114/114 115/115/115 116/116/116
f 115/115/115 114/114/114 117/117/117
f 115/115/115 118/118/118 116/116/116
f 118/118/118 115/115/115 119/119/119
