# Generated from Roblox mesh JSON (v2.00)
# Hello from RBX_Toolbox ;)
o LowerTorso
v 0.175344 0.214100 -0.188853
v 0.101235 0.203290 -0.241772
v 0.157244 0.231570 -0.183470
v 0.090785 0.222200 -0.230790
v -0.000000 0.203290 -0.241772
v -0.000000 0.222200 -0.230790
v 0.157244 0.257200 -0.054181
v 0.175344 0.243660 -0.044268
v 0.101235 0.254470 0.008651
v 0.090785 0.266580 -0.006860
v 0.000000 0.254470 0.008651
v 0.000000 0.266580 -0.006860
v -0.101235 0.203290 -0.241772
v -0.157244 0.231570 -0.183470
v -0.090785 0.222200 -0.230790
v -0.000000 0.203290 -0.241772
v -0.000000 0.222200 -0.230790
v -0.175344 0.214100 -0.188853
v -0.157244 0.257200 -0.054181
v -0.175344 0.243660 -0.044268
v -0.101235 0.254470 0.008651
v -0.090785 0.266580 -0.006860
v 0.000000 0.254470 0.008651
v 0.000000 0.266580 -0.006860
v 0.090785 0.266580 -0.006860
v 0.000000 0.254550 -0.119929
v 0.000000 0.266580 -0.006860
v 0.157244 0.257200 -0.054181
v 0.157244 0.231570 -0.183470
v 0.090785 0.222200 -0.230790
v -0.000000 0.222200 -0.230790
v -0.090785 0.266580 -0.006860
v 0.000000 0.266580 -0.006860
v 0.000000 0.254550 -0.119929
v -0.157244 0.257200 -0.054181
v -0.157244 0.231570 -0.183470
v -0.090785 0.222200 -0.230790
v -0.000000 0.222200 -0.230790
v 0.024828 -0.138180 0.109508
v 0.066873 -0.031340 0.019785
v 0.038608 -0.017750 0.043985
v -0.000000 -0.017750 0.043985
v -0.000000 -0.138180 0.109508
v -0.000000 0.162220 -0.004140
v -0.000000 -0.233870 0.211065
v 0.066520 0.162220 -0.004140
v 0.000000 0.254470 0.008651
v 0.101235 0.254470 0.008651
v 0.115217 0.149550 -0.041277
v 0.175344 0.243660 -0.044268
v 0.175344 0.214100 -0.188853
v 0.115218 0.114910 -0.142745
v 0.101235 0.203290 -0.241772
v 0.043005 -0.152960 0.098161
v 0.066874 -0.068480 -0.046338
v 0.019133 -0.240780 0.207150
v -0.000000 -0.264630 0.241772
v 0.019134 -0.259670 0.196456
v -0.000000 -0.266580 0.192541
v 0.043006 -0.193360 0.067169
v 0.024830 -0.208140 0.055824
v -0.000000 -0.208140 0.055824
v -0.000000 -0.082060 -0.070538
v 0.038611 -0.082060 -0.070538
v -0.000000 0.102240 -0.179881
v 0.066522 0.102240 -0.179881
v -0.000000 0.203290 -0.241772
v -0.024828 -0.138180 0.109508
v -0.066873 -0.031340 0.019785
v -0.043005 -0.152960 0.098161
v -0.000000 -0.233870 0.211065
v -0.000000 -0.138180 0.109508
v -0.000000 -0.017750 0.043985
v -0.019133 -0.240780 0.207150
v -0.000000 -0.264630 0.241772
v -0.019134 -0.259670 0.196456
v -0.000000 -0.266580 0.192541
v -0.038608 -0.017750 0.043985
v -0.000000 0.162220 -0.004140
v -0.043006 -0.193360 0.067169
v -0.066874 -0.068480 -0.046338
v -0.024830 -0.208140 0.055824
v -0.000000 -0.208140 0.055824
v -0.000000 -0.082060 -0.070538
v -0.038611 -0.082060 -0.070538
v -0.000000 0.102240 -0.179881
v -0.115218 0.114910 -0.142745
v -0.066522 0.102240 -0.179881
v -0.000000 0.203290 -0.241772
v -0.101235 0.203290 -0.241772
v -0.175344 0.214100 -0.188853
v -0.115217 0.149550 -0.041277
v -0.175344 0.243660 -0.044268
v -0.101235 0.254470 0.008651
v -0.066520 0.162220 -0.004140
v 0.000000 0.254470 0.008651
vt 0.127518 0.290210
vt 0.114811 0.289233
vt 0.127231 0.294530
vt 0.113623 0.293001
vt 0.100121 0.287604
vt 0.099864 0.291281
vt 0.146150 0.294133
vt 0.145633 0.290678
vt 0.156651 0.289799
vt 0.157969 0.293002
vt 0.170756 0.288657
vt 0.170952 0.291778
vt 0.114811 0.289233
vt 0.127231 0.294530
vt 0.113623 0.293001
vt 0.100121 0.287604
vt 0.099864 0.291281
vt 0.127518 0.290210
vt 0.146150 0.294133
vt 0.145633 0.290678
vt 0.156651 0.289799
vt 0.157969 0.293002
vt 0.170756 0.288657
vt 0.170952 0.291778
vt 0.101205 0.658041
vt 0.085599 0.670569
vt 0.101236 0.670529
vt 0.094554 0.648908
vt 0.076428 0.648908
vt 0.069778 0.658033
vt 0.069724 0.670504
vt 0.101205 0.658041
vt 0.101236 0.670529
vt 0.085599 0.670569
vt 0.094554 0.648908
vt 0.076428 0.648908
vt 0.069778 0.658033
vt 0.069724 0.670504
vt 0.154644 0.216974
vt 0.147174 0.240596
vt 0.153554 0.240935
vt 0.159917 0.240589
vt 0.158698 0.217273
vt 0.167471 0.271640
vt 0.159768 0.192905
vt 0.156890 0.272533
vt 0.170756 0.288657
vt 0.156651 0.289799
vt 0.146213 0.271487
vt 0.145633 0.290678
vt 0.127518 0.290210
vt 0.127830 0.270424
vt 0.114811 0.289233
vt 0.150483 0.215739
vt 0.134439 0.238892
vt 0.156955 0.192627
vt 0.159580 0.184914
vt 0.153773 0.191109
vt 0.151636 0.189180
vt 0.142795 0.212368
vt 0.139139 0.210352
vt 0.135691 0.208101
vt 0.121672 0.234633
vt 0.127945 0.237052
vt 0.106375 0.267797
vt 0.117193 0.269603
vt 0.100121 0.287604
vt 0.154644 0.216974
vt 0.147174 0.240596
vt 0.150483 0.215739
vt 0.159768 0.192905
vt 0.158698 0.217273
vt 0.159917 0.240589
vt 0.156955 0.192627
vt 0.159580 0.184914
vt 0.153773 0.191109
vt 0.151636 0.189180
vt 0.153554 0.240935
vt 0.167471 0.271640
vt 0.142795 0.212368
vt 0.134439 0.238892
vt 0.139139 0.210352
vt 0.135691 0.208101
vt 0.121672 0.234633
vt 0.127945 0.237052
vt 0.106375 0.267797
vt 0.127830 0.270424
vt 0.117193 0.269603
vt 0.100121 0.287604
vt 0.114811 0.289233
vt 0.127518 0.290210
vt 0.146213 0.271487
vt 0.145633 0.290678
vt 0.156651 0.289799
vt 0.156890 0.272533
vt 0.170756 0.288657
vn 0.550771 0.712375 -0.434941
vn 0.203431 0.574394 -0.792898
vn 0.310249 0.887177 -0.341558
vn 0.117789 0.820911 -0.558777
vn 0.000000 0.502168 -0.864770
vn 0.000000 0.787345 -0.616512
vn 0.310716 0.950188 -0.024457
vn 0.551700 0.824387 0.126548
vn 0.204371 0.831340 0.516824
vn 0.118393 0.971473 0.205485
vn 0.000000 0.788237 0.615372
vn 0.000000 0.961488 0.274847
vn -0.203431 0.574394 -0.792898
vn -0.310249 0.887177 -0.341558
vn -0.117789 0.820911 -0.558777
vn 0.000000 0.502168 -0.864770
vn 0.000000 0.787345 -0.616512
vn -0.550771 0.712375 -0.434941
vn -0.310716 0.950188 -0.024457
vn -0.551700 0.824387 0.126548
vn -0.204371 0.831340 0.516824
vn -0.118393 0.971473 0.205485
vn 0.000000 0.788237 0.615372
vn 0.000000 0.961488 0.274847
vn 0.118393 0.971473 0.205485
vn 0.000000 0.980997 -0.194025
vn 0.000000 0.961488 0.274847
vn 0.310716 0.950188 -0.024457
vn 0.310249 0.887177 -0.341558
vn 0.117789 0.820911 -0.558777
vn 0.000000 0.787345 -0.616512
vn -0.118393 0.971473 0.205485
vn 0.000000 0.961488 0.274847
vn 0.000000 0.980997 -0.194025
vn -0.310716 0.950188 -0.024457
vn -0.310249 0.887177 -0.341558
vn -0.117789 0.820911 -0.558777
vn 0.000000 0.787345 -0.616512
vn 0.337806 0.549772 0.763962
vn 0.897301 0.013423 0.441216
vn 0.358116 0.302516 0.883310
vn 0.000000 0.370723 0.928744
vn 0.000000 0.610512 0.792007
vn 0.000000 0.061715 0.998094
vn 0.000000 0.703419 0.710776
vn 0.314329 -0.024808 0.948990
vn -0.000000 -0.137352 0.990522
vn 0.273727 -0.232961 0.933168
vn 0.830240 -0.258110 0.494046
vn 0.747067 -0.437364 0.500603
vn 0.766245 -0.589876 -0.254785
vn 0.830725 -0.487271 -0.269188
vn 0.288715 -0.580223 -0.761567
vn 0.892569 0.172850 0.416465
vn 0.897525 -0.369552 -0.240582
vn 0.819411 0.261618 0.510021
vn -0.000000 -0.421596 0.906784
vn 0.806912 -0.585465 0.078255
vn -0.000000 -0.973621 -0.228171
vn 0.893321 -0.427582 -0.138392
vn 0.339478 -0.800082 -0.494595
vn -0.000000 -0.828646 -0.559773
vn -0.000000 -0.613902 -0.789382
vn 0.360060 -0.603863 -0.711131
vn -0.000000 -0.516282 -0.856418
vn 0.315596 -0.552361 -0.771555
vn -0.000000 -0.522294 -0.852766
vn -0.337806 0.549772 0.763962
vn -0.897301 0.013423 0.441216
vn -0.892569 0.172851 0.416465
vn 0.000000 0.703419 0.710776
vn 0.000000 0.610512 0.792007
vn 0.000000 0.370723 0.928744
vn -0.819411 0.261618 0.510021
vn -0.000000 -0.421596 0.906784
vn -0.806912 -0.585465 0.078255
vn -0.000000 -0.973621 -0.228171
vn -0.358116 0.302516 0.883310
vn 0.000000 0.061715 0.998094
vn -0.893320 -0.427582 -0.138392
vn -0.897525 -0.369552 -0.240582
vn -0.339478 -0.800081 -0.494596
vn -0.000000 -0.828646 -0.559773
vn -0.000000 -0.613902 -0.789382
vn -0.360060 -0.603863 -0.711131
vn -0.000000 -0.516282 -0.856418
vn -0.830726 -0.487271 -0.269188
vn -0.315596 -0.552361 -0.771555
vn -0.000000 -0.522294 -0.852766
vn -0.288715 -0.580223 -0.761567
vn -0.766245 -0.589876 -0.254784
vn -0.830240 -0.258110 0.494046
vn -0.747067 -0.437364 0.500603
vn -0.273727 -0.232961 0.933168
vn -0.314329 -0.024808 0.948990
vn -0.000000 -0.137352 0.990522
f 1/1/1 2/2/2 3/3/3
f 4/4/4 3/3/3 2/2/2
f 5/5/5 4/4/4 2/2/2
f 4/4/4 5/5/5 6/6/6
f 7/7/7 1/1/1 3/3/3
f 8/8/8 1/1/1 7/7/7
f 7/7/7 9/9/9 8/8/8
f 9/9/9 7/7/7 10/10/10
f 10/10/10 11/11/11 9/9/9
f 11/11/11 10/10/10 12/12/12
f 13/13/13 14/14/14 15/15/15
f 15/15/15 16/16/16 13/13/13
f 16/16/16 15/15/15 17/17/17
f 14/14/14 13/13/13 18/18/18
f 19/19/19 14/14/14 18/18/18
f 18/18/18 20/20/20 19/19/19
f 21/21/21 19/19/19 20/20/20
f 19/19/19 21/21/21 22/22/22
f 23/23/23 22/22/22 21/21/21
f 22/22/22 23/23/23 24/24/24
f 25/25/25 26/26/26 27/27/27
f 26/26/26 25/25/25 28/28/28
f 29/29/29 26/26/26 28/28/28
f 26/26/26 29/29/29 30/30/30
f 26/26/26 30/30/30 31/31/31
f 32/32/32 33/33/33 34/34/34
f 34/34/34 35/35/35 32/32/32
f 36/36/36 35/35/35 34/34/34
f 34/34/34 37/37/37 36/36/36
f 34/34/34 38/38/38 37/37/37
f 39/39/39 40/40/40 41/41/41
f 39/39/39 41/41/41 42/42/42
f 42/42/42 43/43/43 39/39/39
f 44/44/44 42/42/42 41/41/41
f 45/45/45 39/39/39 43/43/43
f 41/41/41 46/46/46 44/44/44
f 44/44/44 46/46/46 47/47/47
f 46/46/46 48/48/48 47/47/47
f 41/41/41 49/49/49 46/46/46
f 49/49/49 48/48/48 46/46/46
f 49/49/49 41/41/41 40/40/40
f 48/48/48 49/49/49 50/50/50
f 49/49/49 51/51/51 50/50/50
f 51/51/51 49/49/49 52/52/52
f 40/40/40 52/52/52 49/49/49
f 52/52/52 53/53/53 51/51/51
f 40/40/40 39/39/39 54/54/54
f 45/45/45 54/54/54 39/39/39
f 52/52/52 40/40/40 55/55/55
f 54/54/54 55/55/55 40/40/40
f 54/54/54 45/45/45 56/56/56
f 45/45/45 57/57/57 56/56/56
f 57/57/57 58/58/58 56/56/56
f 54/54/54 56/56/56 58/58/58
f 58/58/58 57/57/57 59/59/59
f 54/54/54 58/58/58 60/60/60
f 60/60/60 58/58/58 59/59/59
f 55/55/55 54/54/54 60/60/60
f 59/59/59 61/61/61 60/60/60
f 61/61/61 55/55/55 60/60/60
f 59/59/59 62/62/62 61/61/61
f 63/63/63 61/61/61 62/62/62
f 55/55/55 61/61/61 64/64/64
f 61/61/61 63/63/63 64/64/64
f 64/64/64 52/52/52 55/55/55
f 65/65/65 64/64/64 63/63/63
f 52/52/52 64/64/64 66/66/66
f 64/64/64 65/65/65 66/66/66
f 53/53/53 52/52/52 66/66/66
f 67/67/67 66/66/66 65/65/65
f 66/66/66 67/67/67 53/53/53
f 68/68/68 69/69/69 70/70/70
f 70/70/70 71/71/71 68/68/68
f 71/71/71 72/72/72 68/68/68
f 72/72/72 73/73/73 68/68/68
f 71/71/71 70/70/70 74/74/74
f 71/71/71 74/74/74 75/75/75
f 75/75/75 74/74/74 76/76/76
f 70/70/70 76/76/76 74/74/74
f 76/76/76 77/77/77 75/75/75
f 68/68/68 73/73/73 78/78/78
f 69/69/69 68/68/68 78/78/78
f 73/73/73 79/79/79 78/78/78
f 76/76/76 70/70/70 80/80/80
f 80/80/80 77/77/77 76/76/76
f 81/81/81 70/70/70 69/69/69
f 70/70/70 81/81/81 80/80/80
f 82/82/82 77/77/77 80/80/80
f 80/80/80 81/81/81 82/82/82
f 77/77/77 82/82/82 83/83/83
f 84/84/84 83/83/83 82/82/82
f 82/82/82 85/85/85 84/84/84
f 85/85/85 82/82/82 81/81/81
f 86/86/86 84/84/84 85/85/85
f 69/69/69 87/87/87 81/81/81
f 81/81/81 87/87/87 85/85/85
f 85/85/85 88/88/88 86/86/86
f 85/85/85 87/87/87 88/88/88
f 89/89/89 86/86/86 88/88/88
f 90/90/90 89/89/89 88/88/88
f 87/87/87 90/90/90 88/88/88
f 90/90/90 87/87/87 91/91/91
f 87/87/87 69/69/69 92/92/92
f 87/87/87 92/92/92 91/91/91
f 92/92/92 93/93/93 91/91/91
f 78/78/78 92/92/92 69/69/69
f 94/94/94 93/93/93 92/92/92
f 92/92/92 78/78/78 95/95/95
f 95/95/95 94/94/94 92/92/92
f 78/78/78 79/79/79 95/95/95
f 95/95/95 96/96/96 94/94/94
f 79/79/79 96/96/96 95/95/95
