# Generated from Roblox mesh JSON (v2.00)
# Hello from RBX_Toolbox ;)
o LeftFoot_inner_cage
v 0.432686 0.105648 0.727391
v 0.023747 0.144613 0.727391
v 0.023746 0.105648 0.727391
v 0.432686 0.144613 0.727391
v 0.432685 -0.144613 0.727390
v 0.023746 -0.059758 0.727391
v 0.023746 -0.144613 0.727391
v 0.432685 -0.059758 0.727391
v 0.023746 -0.059758 0.727391
v 0.432686 0.105648 0.727391
v 0.023746 0.105648 0.727391
v 0.432685 -0.059758 0.727391
v -0.432686 0.105648 0.544196
v -0.432686 0.105648 0.727391
v -0.432686 0.144613 0.544197
v -0.432686 0.144613 0.727391
v 0.023746 0.105648 0.727391
v 0.023747 0.144613 0.727391
v -0.432686 -0.059758 0.544196
v -0.432686 -0.144613 0.727391
v -0.432686 -0.059758 0.727391
v -0.432686 -0.144613 0.544196
v 0.023746 -0.144613 0.727391
v 0.023746 -0.059758 0.727391
v -0.432686 0.105648 0.544196
v -0.432686 -0.059758 0.544196
v -0.432686 -0.059758 0.727391
v -0.432686 0.105648 0.727391
v 0.023746 0.105648 0.727391
v 0.023746 -0.059758 0.727391
v -0.432686 -0.144613 -0.727391
v -0.432686 -0.144613 -0.607791
v -0.432686 -0.059758 -0.727391
v -0.432686 -0.059758 -0.607792
v 0.023746 -0.059758 -0.727391
v 0.023746 -0.144613 -0.727391
v 0.432684 -0.059758 -0.727390
v 0.432685 -0.144613 -0.727391
v 0.432686 0.105648 0.107407
v 0.432686 0.144613 -0.480029
v 0.432686 0.144613 0.107407
v 0.432685 0.105648 -0.569004
v 0.432686 -0.059758 0.107407
v 0.432685 -0.144613 0.727390
v 0.432685 -0.144613 0.107407
v 0.432685 -0.059758 0.727391
v 0.432685 -0.144613 -0.603963
v 0.432686 -0.059758 -0.569004
v 0.432685 -0.144613 -0.569004
v 0.432685 -0.059758 -0.603964
v 0.432685 -0.144613 -0.664632
v 0.432685 -0.059757 -0.664632
v 0.432684 -0.059758 -0.727390
v 0.432685 -0.144613 -0.727391
v 0.432686 0.105648 0.727391
v 0.432686 0.105648 0.107407
v 0.432686 0.144613 0.107407
v 0.432686 0.144613 0.727391
v 0.432685 -0.144613 -0.569004
v 0.432686 -0.059758 0.107407
v 0.432685 -0.144613 0.107407
v 0.432686 -0.059758 -0.569004
v 0.432686 -0.059758 0.107407
v 0.432686 0.105648 0.727391
v 0.432685 -0.059758 0.727391
v 0.432686 0.105648 0.107407
v 0.432686 -0.059758 0.107407
v 0.432686 -0.059758 -0.569004
v 0.432685 0.105648 -0.569004
v 0.432686 0.105648 0.107407
v 0.432684 0.007942 -0.700843
v 0.432685 -0.059757 -0.664632
v 0.432684 -0.059758 -0.727390
v 0.432684 0.053525 -0.664633
v 0.432685 -0.059758 -0.603964
v 0.432685 0.086081 -0.603964
v 0.432686 -0.059758 -0.569004
v 0.432685 0.105648 -0.569004
v -0.432686 0.007942 -0.700843
v -0.432686 -0.059758 -0.607792
v -0.432686 0.007942 -0.607796
v -0.432686 -0.059758 -0.727391
v 0.023746 -0.059758 -0.727391
v 0.023746 0.007943 -0.700843
v 0.432684 0.007942 -0.700843
v 0.432684 -0.059758 -0.727390
v -0.432686 0.007942 -0.700843
v -0.432686 0.007942 -0.607796
v -0.432686 0.053525 -0.664633
v -0.432686 0.053525 -0.534215
v 0.023746 0.007943 -0.700843
v 0.023746 0.053525 -0.664633
v 0.432684 0.007942 -0.700843
v 0.432684 0.053525 -0.664633
v -0.432686 0.144613 -0.275809
v -0.432686 0.105648 0.107407
v -0.432686 0.144613 0.107407
v -0.432686 0.105648 -0.275809
v -0.432686 -0.144613 -0.275809
v -0.432686 -0.059758 0.107407
v -0.432686 -0.059758 -0.275809
v -0.432686 -0.144613 0.107407
v -0.432686 -0.144613 -0.480029
v -0.432686 -0.059758 -0.275809
v -0.432686 -0.059758 -0.480029
v -0.432686 -0.144613 -0.275809
v -0.432686 -0.144613 -0.534214
v -0.432686 -0.059758 -0.534214
v -0.432686 -0.144613 -0.607791
v -0.432686 -0.059758 -0.607792
v -0.432686 0.144613 0.107407
v -0.432686 0.105648 0.544196
v -0.432686 0.144613 0.544197
v -0.432686 0.105648 0.107407
v -0.432686 -0.059758 0.107407
v -0.432686 -0.144613 0.544196
v -0.432686 -0.059758 0.544196
v -0.432686 -0.144613 0.107407
v -0.432686 0.105648 -0.275809
v -0.432686 -0.059758 0.107407
v -0.432686 0.105648 0.107407
v -0.432686 -0.059758 -0.275809
v -0.432686 0.105648 0.544196
v -0.432686 0.105648 0.107407
v -0.432686 -0.059758 0.107407
v -0.432686 -0.059758 0.544196
v -0.432686 -0.059758 -0.480029
v -0.432686 -0.059758 -0.275809
v -0.432686 0.086081 -0.480029
v -0.432686 0.105648 -0.275809
v -0.432686 0.053525 -0.534215
v -0.432686 -0.059758 -0.534214
v -0.432686 0.007942 -0.607796
v -0.432686 -0.059758 -0.607792
v -0.432686 0.086081 -0.603965
v -0.432686 0.086081 -0.480029
v -0.432686 0.105648 -0.569004
v -0.432686 0.105648 -0.275809
v -0.432686 0.053525 -0.534215
v -0.432686 0.053525 -0.664633
v 0.023746 0.105648 -0.569004
v 0.023746 0.053525 -0.664633
v 0.023746 0.086081 -0.603965
v 0.432684 0.053525 -0.664633
v 0.432685 0.086081 -0.603964
v 0.432685 0.105648 -0.569004
v -0.432686 0.105648 -0.569004
v -0.432686 0.105648 -0.275809
v -0.432686 0.144613 -0.480029
v -0.432686 0.144613 -0.275809
v 0.023746 0.105648 -0.569004
v 0.023747 0.144613 -0.480029
v 0.432685 0.105648 -0.569004
v 0.432686 0.144613 -0.480029
v 0.023746 -0.144613 -0.727391
v -0.432686 -0.144613 -0.607791
v -0.432686 -0.144613 -0.727391
v 0.432685 -0.144613 -0.727391
v 0.432685 -0.144613 -0.664632
v -0.432686 -0.144613 -0.534214
v 0.432685 -0.144613 -0.603963
v -0.432686 -0.144613 -0.480029
v 0.432685 -0.144613 -0.569004
v -0.432686 -0.144613 -0.275809
v -0.432686 -0.144613 -0.275809
v 0.432685 -0.144613 -0.569004
v 0.432685 -0.144613 0.107407
v -0.432686 -0.144613 0.107407
v -0.432686 -0.144613 0.544196
v 0.432685 -0.144613 0.727390
v 0.023746 -0.144613 0.727391
v -0.432686 -0.144613 0.727391
vt 4.318013 0.717542
vt 4.270662 0.734033
vt 4.269673 0.717542
vt 4.318013 0.734033
vt 4.318014 0.668763
vt 4.268683 0.701050
vt 4.271337 0.685211
vt 4.318014 0.701050
vt 4.268683 0.701050
vt 4.318013 0.717542
vt 4.269673 0.717542
vt 4.318014 0.701050
vt 4.194766 0.717542
vt 4.238916 0.717542
vt 4.194766 0.734033
vt 4.239410 0.734033
vt 4.269673 0.717542
vt 4.270662 0.734033
vt 4.194766 0.701050
vt 4.239748 0.685211
vt 4.238421 0.701050
vt 4.194766 0.668763
vt 4.271337 0.685211
vt 4.268683 0.701050
vt 4.194766 0.717542
vt 4.194766 0.701050
vt 4.238421 0.701050
vt 4.238916 0.717542
vt 4.269673 0.717542
vt 4.268683 0.701050
vt 4.641173 0.265968
vt 4.682165 0.265968
vt 4.639468 0.322827
vt 4.682165 0.322827
vt 4.551442 0.322827
vt 4.553146 0.265967
vt 4.506112 0.322827
vt 4.506112 0.265967
vt 4.473155 0.594565
vt 4.506112 0.537171
vt 4.506112 0.599918
vt 4.483266 0.510566
vt 4.440198 0.589211
vt 4.352232 0.655553
vt 4.352232 0.537170
vt 4.440198 0.655553
vt 4.396214 0.379687
vt 4.459850 0.479509
vt 4.370994 0.469989
vt 4.477498 0.422491
vt 4.418206 0.337042
vt 4.495147 0.365472
vt 4.506112 0.322827
vt 4.440197 0.294397
vt 4.473155 0.655553
vt 4.473155 0.594565
vt 4.506112 0.599918
vt 4.506112 0.655553
vt 4.370994 0.469989
vt 4.440198 0.589211
vt 4.352232 0.537170
vt 4.459850 0.479509
vt 4.440198 0.589211
vt 4.473155 0.655553
vt 4.440198 0.655553
vt 4.473155 0.594565
vt 4.440198 0.589211
vt 4.459850 0.479509
vt 4.483266 0.510566
vt 4.473155 0.594565
vt 4.503837 0.357023
vt 4.495147 0.365472
vt 4.506112 0.322827
vt 4.500629 0.408117
vt 4.477498 0.422491
vt 4.491948 0.459342
vt 4.459850 0.479509
vt 4.483266 0.510566
vt 4.638481 0.354811
vt 4.682165 0.322827
vt 4.684693 0.357269
vt 4.639468 0.322827
vt 4.551442 0.322827
vt 4.550454 0.354811
vt 4.503837 0.357023
vt 4.506112 0.322827
vt 4.638481 0.354811
vt 4.684693 0.357269
vt 4.638152 0.408117
vt 4.687648 0.408117
vt 4.550454 0.354811
vt 4.550125 0.408117
vt 4.503837 0.357023
vt 4.500629 0.408117
vt 4.682165 0.537171
vt 4.715122 0.584724
vt 4.682165 0.599918
vt 4.704069 0.501414
vt 4.836046 0.537171
vt 4.748080 0.569530
vt 4.725915 0.472138
vt 4.836046 0.578310
vt 4.792063 0.379687
vt 4.725915 0.472138
vt 4.709523 0.418805
vt 4.836046 0.537171
vt 4.770072 0.337042
vt 4.693130 0.365472
vt 4.748080 0.294397
vt 4.682165 0.322827
vt 4.682165 0.599918
vt 4.715122 0.655552
vt 4.682165 0.655552
vt 4.715122 0.584724
vt 4.748080 0.569530
vt 4.836046 0.655553
vt 4.748080 0.655552
vt 4.836046 0.578310
vt 4.704069 0.501414
vt 4.748080 0.569530
vt 4.715122 0.584724
vt 4.725915 0.472138
vt 4.715122 0.655552
vt 4.715122 0.584724
vt 4.748080 0.569530
vt 4.748080 0.655552
vt 4.709523 0.418805
vt 4.725915 0.472138
vt 4.695858 0.454766
vt 4.704069 0.501414
vt 4.687648 0.408117
vt 4.693130 0.365472
vt 4.684693 0.357269
vt 4.682165 0.322827
vt 4.638152 0.438105
vt 4.695858 0.454766
vt 4.638152 0.468094
vt 4.704069 0.501414
vt 4.687648 0.408117
vt 4.638152 0.408117
vt 4.550125 0.476610
vt 4.550125 0.408117
vt 4.550125 0.442364
vt 4.500629 0.408117
vt 4.491948 0.459342
vt 4.483266 0.510566
vt 4.638152 0.468094
vt 4.704069 0.501414
vt 4.638152 0.537171
vt 4.682165 0.537171
vt 4.550125 0.476610
vt 4.550125 0.537171
vt 4.483266 0.510566
vt 4.506112 0.537171
vt 4.318013 0.265967
vt 4.189588 0.285271
vt 4.194766 0.265967
vt 4.323192 0.285270
vt 4.333420 0.323398
vt 4.179359 0.323398
vt 4.348826 0.380830
vt 4.163954 0.380830
vt 4.348825 0.494111
vt 4.163954 0.462950
vt 4.163954 0.462950
vt 4.348825 0.494111
vt 4.348825 0.538116
vt 4.163954 0.538116
vt 4.194766 0.668763
vt 4.318014 0.668763
vt 4.271337 0.685211
vt 4.239748 0.685211
vn 0.000001 -0.000005 1.000000
vn 0.000001 -0.000005 1.000000
vn 0.000001 -0.000005 1.000000
vn 0.000001 -0.000005 1.000000
vn 0.000001 -0.000002 1.000000
vn 0.000001 -0.000002 1.000000
vn 0.000001 -0.000002 1.000000
vn 0.000001 -0.000002 1.000000
vn 0.000000 -0.000000 1.000000
vn 0.000000 -0.000000 1.000000
vn 0.000000 -0.000000 1.000000
vn 0.000000 -0.000000 1.000000
vn -1.000000 0.000004 0.000000
vn -0.372483 -0.000006 0.928039
vn -1.000000 0.000004 0.000000
vn -0.372476 -0.000006 0.928042
vn 0.000000 -0.000008 1.000000
vn 0.000000 -0.000008 1.000000
vn -1.000000 0.000003 0.000001
vn -0.372480 -0.000000 0.928040
vn -0.372478 -0.000000 0.928041
vn -1.000000 0.000003 0.000001
vn -0.000000 -0.000001 1.000000
vn -0.000000 -0.000001 1.000000
vn -1.000000 0.000000 0.000000
vn -1.000000 0.000000 0.000000
vn -0.372481 -0.000000 0.928040
vn -0.372480 -0.000000 0.928040
vn -0.000000 -0.000001 1.000000
vn -0.000000 -0.000001 1.000000
vn -0.253474 0.000003 -0.967342
vn -1.000000 0.000002 -0.000002
vn -0.253475 0.000003 -0.967342
vn -1.000000 0.000002 -0.000002
vn 0.000001 0.000007 -1.000000
vn 0.000001 0.000007 -1.000000
vn 0.000002 0.000011 -1.000000
vn 0.000002 0.000011 -1.000000
vn 1.000000 -0.000014 -0.000001
vn 1.000000 -0.000014 -0.000001
vn 1.000000 -0.000014 -0.000001
vn 1.000000 -0.000014 -0.000001
vn 1.000000 -0.000008 0.000001
vn 1.000000 -0.000008 0.000001
vn 1.000000 -0.000008 0.000001
vn 1.000000 -0.000008 0.000001
vn 1.000000 -0.000007 -0.000000
vn 1.000000 -0.000008 -0.000002
vn 1.000000 -0.000008 -0.000002
vn 1.000000 -0.000007 -0.000000
vn 1.000000 -0.000004 -0.000006
vn 1.000000 -0.000004 -0.000006
vn 1.000000 -0.000002 -0.000011
vn 1.000000 -0.000002 -0.000011
vn 1.000000 -0.000012 0.000000
vn 1.000000 -0.000012 0.000000
vn 1.000000 -0.000012 0.000000
vn 1.000000 -0.000012 0.000000
vn 1.000000 -0.000009 -0.000001
vn 1.000000 -0.000009 -0.000001
vn 1.000000 -0.000009 -0.000001
vn 1.000000 -0.000009 -0.000001
vn 1.000000 -0.000000 0.000001
vn 1.000000 -0.000000 0.000001
vn 1.000000 -0.000000 0.000001
vn 1.000000 -0.000000 0.000001
vn 1.000000 0.000002 -0.000001
vn 1.000000 0.000002 -0.000001
vn 1.000000 0.000002 -0.000001
vn 1.000000 0.000002 -0.000001
vn 1.000000 0.000010 -0.000019
vn 1.000000 0.000008 -0.000009
vn 1.000000 0.000010 -0.000019
vn 1.000000 0.000008 -0.000006
vn 1.000000 0.000006 -0.000006
vn 1.000000 0.000006 -0.000006
vn 1.000000 0.000004 -0.000008
vn 1.000000 0.000004 -0.000008
vn -0.259281 0.352589 -0.899141
vn -1.000000 0.000001 -0.000001
vn -1.000000 0.000001 -0.000001
vn -0.163059 0.360188 -0.918519
vn 0.000000 0.365070 -0.930980
vn 0.000000 0.365070 -0.930980
vn 0.000002 0.365065 -0.930982
vn 0.000002 0.365065 -0.930982
vn -0.109107 0.618296 -0.778335
vn -1.000000 0.000000 -0.000001
vn -0.263895 0.599960 -0.755253
vn -1.000000 0.000000 -0.000001
vn 0.000000 0.622011 -0.783009
vn 0.000000 0.622011 -0.783009
vn 0.000000 0.622012 -0.783008
vn 0.000000 0.622012 -0.783008
vn -1.000000 0.000007 -0.000000
vn -1.000000 0.000007 -0.000000
vn -1.000000 0.000007 -0.000000
vn -1.000000 0.000007 -0.000000
vn -1.000000 0.000004 0.000000
vn -1.000000 0.000004 0.000000
vn -1.000000 0.000004 0.000000
vn -1.000000 0.000004 0.000000
vn -1.000000 0.000003 -0.000000
vn -1.000000 0.000003 -0.000000
vn -1.000000 0.000003 -0.000000
vn -1.000000 0.000003 -0.000000
vn -1.000000 0.000003 -0.000000
vn -1.000000 0.000003 -0.000000
vn -1.000000 0.000004 -0.000000
vn -1.000000 0.000004 -0.000000
vn -1.000000 0.000003 0.000000
vn -1.000000 0.000003 0.000000
vn -1.000000 0.000003 0.000000
vn -1.000000 0.000003 0.000000
vn -1.000000 0.000003 -0.000000
vn -1.000000 0.000003 -0.000000
vn -1.000000 0.000003 -0.000000
vn -1.000000 0.000003 -0.000000
vn -1.000000 -0.000001 -0.000000
vn -1.000000 -0.000001 -0.000000
vn -1.000000 -0.000001 -0.000000
vn -1.000000 -0.000001 -0.000000
vn -1.000000 0.000000 0.000000
vn -1.000000 0.000000 0.000000
vn -1.000000 0.000000 0.000000
vn -1.000000 0.000000 0.000000
vn -1.000000 0.000000 -0.000000
vn -1.000000 0.000000 -0.000000
vn -1.000000 0.000000 -0.000000
vn -1.000000 0.000000 -0.000000
vn -1.000000 0.000000 -0.000000
vn -1.000000 0.000000 -0.000000
vn -1.000000 0.000000 -0.000001
vn -1.000000 0.000000 -0.000001
vn -0.164845 0.866031 -0.472034
vn -1.000000 0.000001 -0.000000
vn -0.350176 0.817374 -0.457467
vn -1.000000 0.000000 -0.000000
vn -1.000000 0.000004 -0.000000
vn -0.041275 0.880394 -0.472444
vn 0.000000 0.872624 -0.488393
vn 0.000000 0.881145 -0.472846
vn 0.000000 0.878043 -0.478582
vn 0.000001 0.881145 -0.472846
vn 0.000001 0.878042 -0.478583
vn 0.000001 0.872622 -0.488396
vn -0.057346 0.914504 -0.400493
vn -1.000000 0.000003 -0.000000
vn -0.354998 0.856349 -0.375024
vn -1.000000 0.000003 -0.000000
vn 0.000000 0.916011 -0.401153
vn 0.000000 0.916011 -0.401153
vn 0.000000 0.916011 -0.401153
vn 0.000000 0.916011 -0.401153
vn 0.000000 -1.000000 -0.000002
vn 0.000000 -1.000000 -0.000001
vn 0.000000 -1.000000 -0.000002
vn -0.000000 -1.000000 -0.000000
vn -0.000000 -1.000000 -0.000000
vn -0.000000 -1.000000 -0.000000
vn -0.000000 -1.000000 0.000000
vn -0.000000 -1.000000 0.000000
vn -0.000000 -1.000000 0.000000
vn -0.000000 -1.000000 0.000000
vn -0.000000 -1.000000 -0.000000
vn -0.000000 -1.000000 -0.000000
vn -0.000000 -1.000000 -0.000000
vn -0.000000 -1.000000 -0.000000
vn -0.000000 -1.000000 -0.000000
vn -0.000000 -1.000000 -0.000000
vn -0.000000 -1.000000 0.000001
vn -0.000000 -1.000000 0.000001
f 1/1/1 2/2/2 3/3/3
f 2/2/2 1/1/1 4/4/4
f 5/5/5 6/6/6 7/7/7
f 6/6/6 5/5/5 8/8/8
f 9/9/9 10/10/10 11/11/11
f 10/10/10 9/9/9 12/12/12
f 13/13/13 14/14/14 15/15/15
f 15/15/15 14/14/14 16/16/16
f 17/17/17 16/16/16 14/14/14
f 16/16/16 17/17/17 18/18/18
f 19/19/19 20/20/20 21/21/21
f 20/20/20 19/19/19 22/22/22
f 23/23/23 21/21/21 20/20/20
f 21/21/21 23/23/23 24/24/24
f 25/25/25 26/26/26 27/27/27
f 25/25/25 27/27/27 28/28/28
f 27/27/27 29/29/29 28/28/28
f 27/27/27 30/30/30 29/29/29
f 31/31/31 32/32/32 33/33/33
f 33/33/33 32/32/32 34/34/34
f 35/35/35 31/31/31 33/33/33
f 31/31/31 35/35/35 36/36/36
f 35/35/35 37/37/37 36/36/36
f 38/38/38 36/36/36 37/37/37
f 39/39/39 40/40/40 41/41/41
f 40/40/40 39/39/39 42/42/42
f 43/43/43 44/44/44 45/45/45
f 44/44/44 43/43/43 46/46/46
f 47/47/47 48/48/48 49/49/49
f 48/48/48 47/47/47 50/50/50
f 51/51/51 50/50/50 47/47/47
f 51/51/51 52/52/52 50/50/50
f 51/51/51 53/53/53 52/52/52
f 53/53/53 51/51/51 54/54/54
f 55/55/55 56/56/56 57/57/57
f 57/57/57 58/58/58 55/55/55
f 59/59/59 60/60/60 61/61/61
f 60/60/60 59/59/59 62/62/62
f 63/63/63 64/64/64 65/65/65
f 64/64/64 63/63/63 66/66/66
f 67/67/67 68/68/68 69/69/69
f 69/69/69 70/70/70 67/67/67
f 71/71/71 72/72/72 73/73/73
f 72/72/72 71/71/71 74/74/74
f 74/74/74 75/75/75 72/72/72
f 75/75/75 74/74/74 76/76/76
f 76/76/76 77/77/77 75/75/75
f 77/77/77 76/76/76 78/78/78
f 79/79/79 80/80/80 81/81/81
f 80/80/80 79/79/79 82/82/82
f 79/79/79 83/83/83 82/82/82
f 79/79/79 84/84/84 83/83/83
f 85/85/85 83/83/83 84/84/84
f 83/83/83 85/85/85 86/86/86
f 87/87/87 88/88/88 89/89/89
f 90/90/90 89/89/89 88/88/88
f 89/89/89 91/91/91 87/87/87
f 91/91/91 89/89/89 92/92/92
f 92/92/92 93/93/93 91/91/91
f 93/93/93 92/92/92 94/94/94
f 95/95/95 96/96/96 97/97/97
f 96/96/96 95/95/95 98/98/98
f 99/99/99 100/100/100 101/101/101
f 100/100/100 99/99/99 102/102/102
f 103/103/103 104/104/104 105/105/105
f 104/104/104 103/103/103 106/106/106
f 105/105/105 107/107/107 103/103/103
f 107/107/107 105/105/105 108/108/108
f 108/108/108 109/109/109 107/107/107
f 109/109/109 108/108/108 110/110/110
f 111/111/111 112/112/112 113/113/113
f 112/112/112 111/111/111 114/114/114
f 115/115/115 116/116/116 117/117/117
f 116/116/116 115/115/115 118/118/118
f 119/119/119 120/120/120 121/121/121
f 120/120/120 119/119/119 122/122/122
f 123/123/123 124/124/124 125/125/125
f 125/125/125 126/126/126 123/123/123
f 127/127/127 128/128/128 129/129/129
f 129/129/129 128/128/128 130/130/130
f 131/131/131 127/127/127 129/129/129
f 131/131/131 132/132/132 127/127/127
f 132/132/132 131/131/131 133/133/133
f 133/133/133 134/134/134 132/132/132
f 135/135/135 136/136/136 137/137/137
f 138/138/138 137/137/137 136/136/136
f 135/135/135 139/139/139 136/136/136
f 139/139/139 135/135/135 140/140/140
f 141/141/141 135/135/135 137/137/137
f 135/135/135 142/142/142 140/140/140
f 142/142/142 135/135/135 143/143/143
f 135/135/135 141/141/141 143/143/143
f 143/143/143 144/144/144 142/142/142
f 144/144/144 143/143/143 145/145/145
f 145/145/145 143/143/143 141/141/141
f 145/145/145 141/141/141 146/146/146
f 147/147/147 148/148/148 149/149/149
f 149/149/149 148/148/148 150/150/150
f 149/149/149 151/151/151 147/147/147
f 151/151/151 149/149/149 152/152/152
f 153/153/153 151/151/151 152/152/152
f 153/153/153 152/152/152 154/154/154
f 155/155/155 156/156/156 157/157/157
f 158/158/158 156/156/156 155/155/155
f 156/156/156 158/158/158 159/159/159
f 159/159/159 160/160/160 156/156/156
f 160/160/160 159/159/159 161/161/161
f 161/161/161 162/162/162 160/160/160
f 162/162/162 161/161/161 163/163/163
f 163/163/163 164/164/164 162/162/162
f 165/165/165 166/166/166 167/167/167
f 165/165/165 167/167/167 168/168/168
f 168/168/168 167/167/167 169/169/169
f 170/170/170 169/169/169 167/167/167
f 169/169/169 170/170/170 171/171/171
f 169/169/169 171/171/171 172/172/172
