# Generated from Roblox mesh JSON (v2.00)
# Hello from RBX_Toolbox ;)
o LeftLowerLeg_inner_cage
v -0.432689 0.363018 0.422208
v -0.432689 0.363018 0.605402
v -0.432687 0.464964 0.422212
v -0.432674 0.464964 0.605403
v -0.432689 0.245362 0.605402
v -0.432689 0.245362 0.422208
v 0.023744 0.363018 0.605402
v 0.023755 0.464964 0.605404
v 0.023744 0.245362 0.605402
v -0.432689 0.121768 0.422208
v -0.432689 -0.033197 0.422208
v -0.432689 -0.033197 0.605402
v -0.432689 0.121768 0.605402
v 0.023744 -0.033197 0.605402
v 0.023744 0.121768 0.605402
v -0.432689 -0.169057 0.422208
v -0.432689 -0.033197 0.605402
v -0.432689 -0.033197 0.422208
v -0.432689 -0.169057 0.605402
v 0.023744 -0.033197 0.605402
v 0.023744 -0.169057 0.605402
v -0.432689 -0.319325 0.422208
v -0.432689 -0.169057 0.605402
v -0.432689 -0.169057 0.422208
v -0.432689 -0.319325 0.605402
v 0.023744 -0.169057 0.605402
v 0.023744 -0.319326 0.605402
v -0.432689 -0.319325 0.422208
v -0.432689 -0.464964 0.422208
v -0.432689 -0.464964 0.605402
v -0.432689 -0.319325 0.605402
v 0.023744 -0.464964 0.605402
v 0.023744 -0.319326 0.605402
v -0.432689 0.121768 0.422208
v -0.432689 0.245362 0.605402
v -0.432689 0.245362 0.422208
v -0.432689 0.121768 0.605402
v 0.023744 0.245362 0.605402
v 0.023744 0.121768 0.605402
v 0.023744 0.245362 0.605402
v 0.432683 0.363018 0.605402
v 0.023744 0.363018 0.605402
v 0.432683 0.245362 0.605402
v 0.023755 0.464964 0.605404
v 0.432689 0.464964 0.605399
v 0.432683 -0.033197 0.605402
v 0.023744 0.121768 0.605402
v 0.023744 -0.033197 0.605402
v 0.432683 0.121768 0.605402
v 0.432683 -0.464964 0.605402
v 0.023744 -0.319326 0.605402
v 0.023744 -0.464964 0.605402
v 0.432683 -0.319325 0.605402
v 0.023744 -0.169057 0.605402
v 0.432683 -0.033197 0.605402
v 0.023744 -0.033197 0.605402
v 0.432683 -0.169057 0.605402
v 0.432683 -0.319325 0.605402
v 0.023744 -0.169057 0.605402
v 0.023744 -0.319326 0.605402
v 0.432683 -0.169057 0.605402
v 0.023744 0.121768 0.605402
v 0.432683 0.245362 0.605402
v 0.023744 0.245362 0.605402
v 0.432683 0.121768 0.605402
v -0.432689 -0.033197 -0.602018
v -0.432689 0.121768 -0.397798
v -0.432689 0.121768 -0.602019
v -0.432689 -0.033196 -0.397798
v 0.023744 0.121768 -0.602018
v 0.023744 -0.033197 -0.602018
v 0.432683 0.121768 -0.602018
v 0.432683 -0.033197 -0.602018
v -0.432689 -0.319325 -0.602018
v -0.432689 -0.464964 -0.397798
v -0.432689 -0.319325 -0.397798
v -0.432689 -0.464964 -0.602018
v 0.023744 -0.319326 -0.602018
v 0.023744 -0.464964 -0.602018
v 0.432683 -0.464964 -0.602018
v 0.432683 -0.319124 -0.602018
v -0.432689 -0.169057 -0.602018
v -0.432689 -0.033196 -0.397798
v -0.432689 -0.033197 -0.602018
v -0.432689 -0.169057 -0.397798
v 0.023744 -0.033197 -0.602018
v 0.023744 -0.169057 -0.602018
v 0.432683 -0.169030 -0.602018
v 0.432683 -0.033197 -0.602018
v -0.432689 -0.169057 -0.602018
v -0.432689 -0.319325 -0.397798
v -0.432689 -0.169057 -0.397798
v -0.432689 -0.319325 -0.602018
v 0.023744 -0.319326 -0.602018
v 0.023744 -0.169057 -0.602018
v 0.432683 -0.319124 -0.602018
v 0.432683 -0.169030 -0.602018
v 0.023744 0.121768 -0.602018
v -0.432689 0.245362 -0.602018
v 0.023744 0.245362 -0.602019
v 0.432683 0.121768 -0.602018
v 0.432683 0.245362 -0.602018
v -0.432689 0.121768 -0.602019
v -0.432689 0.121768 -0.397798
v -0.432689 0.245362 -0.397798
v -0.432689 0.245362 -0.602018
v -0.432689 0.363018 -0.397798
v -0.432689 0.363018 -0.603634
v -0.432689 0.245362 -0.397798
v -0.432687 0.464964 -0.401186
v -0.432674 0.464964 -0.605402
v 0.023744 0.363018 -0.603634
v 0.023744 0.245362 -0.602019
v 0.023754 0.464964 -0.605404
v 0.432683 0.363018 -0.603634
v 0.432683 0.245362 -0.602018
v 0.432688 0.464964 -0.605398
v 0.432683 0.245362 -0.602018
v 0.432683 0.363018 -0.014582
v 0.432683 0.245362 -0.014581
v 0.432683 0.363018 -0.603634
v 0.432686 0.464964 -0.014582
v 0.432688 0.464964 -0.605398
v 0.432683 0.245362 -0.014581
v 0.432683 0.363018 0.605402
v 0.432683 0.245362 0.605402
v 0.432683 0.363018 -0.014582
v 0.432689 0.464964 0.605399
v 0.432686 0.464964 -0.014582
v 0.432683 -0.033197 -0.014582
v 0.432683 -0.033197 -0.602018
v 0.432683 0.121768 -0.602018
v 0.432683 0.121768 -0.014582
v 0.432683 -0.033197 0.605402
v 0.432683 -0.033197 -0.014582
v 0.432683 0.121768 -0.014582
v 0.432683 0.121768 0.605402
v 0.432683 -0.464964 -0.602018
v 0.432683 -0.319325 -0.014582
v 0.432683 -0.464964 -0.014582
v 0.432683 -0.319124 -0.602018
v 0.432683 -0.464964 0.605402
v 0.432683 -0.464964 -0.014582
v 0.432683 -0.319325 -0.014582
v 0.432683 -0.319325 0.605402
v 0.432683 -0.169030 -0.602018
v 0.432683 -0.033197 -0.014582
v 0.432683 -0.169057 -0.014582
v 0.432683 -0.033197 -0.602018
v 0.432683 -0.169057 0.605402
v 0.432683 -0.169057 -0.014582
v 0.432683 -0.033197 -0.014582
v 0.432683 -0.033197 0.605402
v 0.432683 -0.319124 -0.602018
v 0.432683 -0.169057 -0.014582
v 0.432683 -0.319325 -0.014582
v 0.432683 -0.169030 -0.602018
v 0.432683 -0.319325 0.605402
v 0.432683 -0.319325 -0.014582
v 0.432683 -0.169057 -0.014582
v 0.432683 -0.169057 0.605402
v 0.432683 0.121768 0.605402
v 0.432683 0.121768 -0.014582
v 0.432683 0.245362 -0.014581
v 0.432683 0.245362 0.605402
v 0.432683 0.121768 -0.014582
v 0.432683 0.121768 -0.602018
v 0.432683 0.245362 -0.602018
v 0.432683 0.245362 -0.014581
v -0.432689 0.363018 0.422208
v -0.432689 0.363018 -0.014582
v -0.432689 0.245362 -0.014581
v -0.432689 0.245362 0.422208
v -0.432686 0.464964 -0.014580
v -0.432687 0.464964 0.422212
v -0.432689 0.363018 -0.014582
v -0.432689 0.363018 -0.397798
v -0.432689 0.245362 -0.397798
v -0.432689 0.245362 -0.014581
v -0.432686 0.464964 -0.014580
v -0.432687 0.464964 -0.401186
v -0.432689 -0.319325 -0.397798
v -0.432689 -0.464964 -0.014582
v -0.432689 -0.319325 -0.014582
v -0.432689 -0.464964 -0.397798
v -0.432689 -0.033196 -0.014581
v -0.432689 0.121768 0.422208
v -0.432689 0.121768 -0.014582
v -0.432689 -0.033197 0.422208
v -0.432689 -0.033196 -0.397798
v -0.432689 0.121768 -0.014582
v -0.432689 0.121768 -0.397798
v -0.432689 -0.033196 -0.014581
v -0.432689 -0.319325 -0.014582
v -0.432689 -0.464964 0.422208
v -0.432689 -0.319325 0.422208
v -0.432689 -0.464964 -0.014582
v -0.432689 -0.033196 -0.014581
v -0.432689 -0.169057 0.422208
v -0.432689 -0.033197 0.422208
v -0.432689 -0.169057 -0.014582
v -0.432689 -0.033196 -0.397798
v -0.432689 -0.169057 -0.014582
v -0.432689 -0.033196 -0.014581
v -0.432689 -0.169057 -0.397798
v -0.432689 -0.319325 -0.014582
v -0.432689 -0.169057 0.422208
v -0.432689 -0.169057 -0.014582
v -0.432689 -0.319325 0.422208
v -0.432689 -0.169057 -0.397798
v -0.432689 -0.319325 -0.014582
v -0.432689 -0.169057 -0.014582
v -0.432689 -0.319325 -0.397798
v -0.432689 0.245362 -0.397798
v -0.432689 0.121768 -0.014582
v -0.432689 0.245362 -0.014581
v -0.432689 0.121768 -0.397798
v -0.432689 0.121768 -0.014582
v -0.432689 0.245362 0.422208
v -0.432689 0.245362 -0.014581
v -0.432689 0.121768 0.422208
vt 4.652220 1.698511
vt 4.684226 1.698511
vt 4.652220 1.792453
vt 4.684226 1.792453
vt 4.684226 1.605312
vt 4.652220 1.605312
vt 4.716233 1.698511
vt 4.716233 1.792453
vt 4.716233 1.605312
vt 4.652220 1.536557
vt 4.652220 1.432810
vt 4.684226 1.433763
vt 4.684226 1.536557
vt 4.716233 1.434716
vt 4.716233 1.536557
vt 4.652220 1.353774
vt 4.684226 1.433763
vt 4.652220 1.432810
vt 4.684226 1.353774
vt 4.716233 1.434716
vt 4.716233 1.353774
vt 4.652220 1.266038
vt 4.684226 1.353774
vt 4.652220 1.353774
vt 4.684226 1.266038
vt 4.716233 1.353774
vt 4.716233 1.266038
vt 4.652220 1.266038
vt 4.652220 1.207547
vt 4.684226 1.207547
vt 4.684226 1.266038
vt 4.716233 1.207547
vt 4.716233 1.266038
vt 4.652220 1.536557
vt 4.684226 1.605312
vt 4.652220 1.605312
vt 4.684226 1.536557
vt 4.716233 1.605312
vt 4.716233 1.536557
vt 4.716233 1.605312
vt 4.780245 1.698511
vt 4.716233 1.698511
vt 4.780245 1.605312
vt 4.716233 1.792453
vt 4.780245 1.792453
vt 4.780245 1.436622
vt 4.716233 1.536557
vt 4.716233 1.434716
vt 4.780245 1.536557
vt 4.780245 1.207547
vt 4.716233 1.266038
vt 4.716233 1.207547
vt 4.780245 1.266038
vt 4.716233 1.353774
vt 4.780245 1.436622
vt 4.716233 1.434716
vt 4.780245 1.353774
vt 4.780245 1.266038
vt 4.716233 1.353774
vt 4.716233 1.266038
vt 4.780245 1.353774
vt 4.716233 1.536557
vt 4.780245 1.605312
vt 4.716233 1.605312
vt 4.780245 1.536557
vt 4.337398 1.437218
vt 4.380875 1.536557
vt 4.337398 1.536557
vt 4.380875 1.436396
vt 4.250442 1.536557
vt 4.250442 1.438862
vt 4.206964 1.536557
vt 4.206964 1.439684
vt 4.337398 1.266038
vt 4.380875 1.207547
vt 4.380875 1.266038
vt 4.337398 1.207547
vt 4.250442 1.266038
vt 4.250442 1.207547
vt 4.206964 1.207547
vt 4.206964 1.266038
vt 4.337398 1.353774
vt 4.380875 1.436396
vt 4.337398 1.437218
vt 4.380875 1.353774
vt 4.250442 1.438862
vt 4.250442 1.353774
vt 4.206964 1.353774
vt 4.206964 1.439684
vt 4.337398 1.353774
vt 4.380875 1.266038
vt 4.380875 1.353774
vt 4.337398 1.266038
vt 4.250442 1.266038
vt 4.250442 1.353774
vt 4.206964 1.266038
vt 4.206964 1.353774
vt 4.250442 1.536557
vt 4.337398 1.605312
vt 4.250442 1.605312
vt 4.206964 1.536557
vt 4.206964 1.605312
vt 4.337398 1.536557
vt 4.380875 1.536557
vt 4.380875 1.605312
vt 4.337398 1.605312
vt 4.380875 1.698511
vt 4.337398 1.698511
vt 4.380875 1.605312
vt 4.380875 1.792453
vt 4.337398 1.792453
vt 4.250442 1.698511
vt 4.250442 1.605312
vt 4.250442 1.792453
vt 4.206964 1.698511
vt 4.206964 1.605312
vt 4.206964 1.792453
vt 4.206964 1.605312
vt 4.091176 1.698511
vt 4.091176 1.605312
vt 4.206964 1.698511
vt 4.091176 1.792453
vt 4.206964 1.792453
vt 4.908824 1.605312
vt 4.780245 1.698511
vt 4.780245 1.605312
vt 4.908824 1.698511
vt 4.780245 1.792453
vt 4.908824 1.792453
vt 4.091176 1.441824
vt 4.206964 1.439684
vt 4.206964 1.536557
vt 4.091176 1.536557
vt 4.780245 1.436622
vt 4.908824 1.441824
vt 4.908824 1.536557
vt 4.780245 1.536557
vt 4.206964 1.207547
vt 4.091176 1.266038
vt 4.091176 1.207547
vt 4.206964 1.266038
vt 4.780245 1.207547
vt 4.908824 1.207547
vt 4.908824 1.266038
vt 4.780245 1.266038
vt 4.206964 1.353774
vt 4.091176 1.441824
vt 4.091176 1.353774
vt 4.206964 1.439684
vt 4.780245 1.353774
vt 4.908824 1.353774
vt 4.908824 1.441824
vt 4.780245 1.436622
vt 4.206964 1.266038
vt 4.091176 1.353774
vt 4.091176 1.266038
vt 4.206964 1.353774
vt 4.780245 1.266038
vt 4.908824 1.266038
vt 4.908824 1.353774
vt 4.780245 1.353774
vt 4.780245 1.536557
vt 4.908824 1.536557
vt 4.908824 1.605312
vt 4.780245 1.605312
vt 4.091176 1.536557
vt 4.206964 1.536557
vt 4.206964 1.605312
vt 4.091176 1.605312
vt 4.652220 1.698511
vt 4.542550 1.698511
vt 4.542550 1.605312
vt 4.652220 1.605312
vt 4.542550 1.792453
vt 4.652220 1.792453
vt 4.542550 1.698511
vt 4.380875 1.698511
vt 4.380875 1.605312
vt 4.542550 1.605312
vt 4.542550 1.792453
vt 4.380875 1.792453
vt 4.380875 1.266038
vt 4.542550 1.207547
vt 4.542550 1.266038
vt 4.380875 1.207547
vt 4.542550 1.433402
vt 4.652220 1.536557
vt 4.542550 1.536557
vt 4.652220 1.432810
vt 4.380875 1.436396
vt 4.542550 1.536557
vt 4.380875 1.536557
vt 4.542550 1.433402
vt 4.542550 1.266038
vt 4.652220 1.207547
vt 4.652220 1.266038
vt 4.542550 1.207547
vt 4.542550 1.433402
vt 4.652220 1.353774
vt 4.652220 1.432810
vt 4.542550 1.353774
vt 4.380875 1.436396
vt 4.542550 1.353774
vt 4.542550 1.433402
vt 4.380875 1.353774
vt 4.542550 1.266038
vt 4.652220 1.353774
vt 4.542550 1.353774
vt 4.652220 1.266038
vt 4.380875 1.353774
vt 4.542550 1.266038
vt 4.542550 1.353774
vt 4.380875 1.266038
vt 4.380875 1.605312
vt 4.542550 1.536557
vt 4.542550 1.605312
vt 4.380875 1.536557
vt 4.542550 1.536557
vt 4.652220 1.605312
vt 4.542550 1.605312
vt 4.652220 1.536557
vn -1.000000 0.000037 0.000016
vn -0.372491 0.000009 0.928036
vn -1.000000 0.000080 0.000035
vn -0.372446 0.000020 0.928054
vn -0.372480 -0.000000 0.928040
vn -1.000000 0.000000 -0.000000
vn -0.000001 -0.000005 1.000000
vn -0.000002 -0.000010 1.000000
vn -0.000000 -0.000000 1.000000
vn -1.000000 0.000000 -0.000000
vn -1.000000 0.000000 -0.000000
vn -0.372480 -0.000000 0.928040
vn -0.372479 -0.000000 0.928041
vn -0.000000 -0.000000 1.000000
vn -0.000000 -0.000000 1.000000
vn -1.000000 0.000000 -0.000000
vn -0.372480 0.000000 0.928040
vn -1.000000 0.000000 -0.000000
vn -0.372479 0.000000 0.928041
vn -0.000000 0.000000 1.000000
vn -0.000000 0.000000 1.000000
vn -1.000000 0.000000 0.000000
vn -0.372478 -0.000000 0.928041
vn -1.000000 0.000000 0.000000
vn -0.372478 -0.000000 0.928041
vn 0.000000 -0.000000 1.000000
vn 0.000000 -0.000000 1.000000
vn -1.000000 0.000001 0.000000
vn -1.000000 0.000001 0.000000
vn -0.372480 -0.000000 0.928040
vn -0.372481 -0.000000 0.928040
vn 0.000000 -0.000001 1.000000
vn 0.000000 -0.000001 1.000000
vn -1.000000 0.000000 0.000000
vn -0.372480 0.000000 0.928040
vn -1.000000 0.000000 0.000000
vn -0.372480 0.000000 0.928040
vn 0.000000 0.000000 1.000000
vn 0.000000 0.000000 1.000000
vn 0.000000 0.000000 1.000000
vn 0.000003 0.000002 1.000000
vn 0.000003 0.000002 1.000000
vn 0.000000 0.000000 1.000000
vn 0.000006 0.000005 1.000000
vn 0.000006 0.000005 1.000000
vn -0.000000 0.000000 1.000000
vn -0.000000 0.000000 1.000000
vn -0.000000 0.000000 1.000000
vn -0.000000 0.000000 1.000000
vn 0.000000 -0.000002 1.000000
vn 0.000000 -0.000002 1.000000
vn 0.000000 -0.000002 1.000000
vn 0.000000 -0.000002 1.000000
vn -0.000000 -0.000000 1.000000
vn -0.000000 -0.000000 1.000000
vn -0.000000 -0.000000 1.000000
vn -0.000000 -0.000000 1.000000
vn 0.000000 0.000000 1.000000
vn 0.000000 0.000000 1.000000
vn 0.000000 0.000000 1.000000
vn 0.000000 0.000000 1.000000
vn 0.000000 0.000000 1.000000
vn 0.000000 0.000000 1.000000
vn 0.000000 0.000000 1.000000
vn 0.000000 0.000000 1.000000
vn -0.408411 -0.000001 -0.912798
vn -1.000000 0.000000 0.000000
vn -0.408411 -0.000001 -0.912798
vn -1.000000 0.000000 0.000000
vn 0.000000 -0.000001 -1.000000
vn 0.000000 -0.000001 -1.000000
vn 0.000000 -0.000000 -1.000000
vn 0.000000 -0.000000 -1.000000
vn -0.408412 0.000000 -0.912798
vn -1.000000 0.000000 0.000000
vn -1.000000 0.000000 0.000000
vn -0.408411 0.000000 -0.912798
vn 0.000000 0.000000 -1.000000
vn 0.000000 0.000000 -1.000000
vn 0.000000 0.000000 -1.000000
vn 0.000000 0.000000 -1.000000
vn -0.408411 -0.000000 -0.912798
vn -1.000000 0.000000 -0.000000
vn -0.408411 -0.000000 -0.912798
vn -1.000000 0.000000 -0.000000
vn -0.000000 -0.000000 -1.000000
vn -0.000000 -0.000000 -1.000000
vn -0.000000 -0.000000 -1.000000
vn -0.000000 -0.000000 -1.000000
vn -0.408409 -0.000000 -0.912799
vn -1.000000 -0.000000 0.000000
vn -1.000000 -0.000000 0.000000
vn -0.408409 -0.000000 -0.912799
vn -0.000000 0.000000 -1.000000
vn -0.000000 0.000000 -1.000000
vn -0.000000 0.000000 -1.000000
vn -0.000000 0.000000 -1.000000
vn 0.000000 -0.000001 -1.000000
vn -0.408411 -0.000000 -0.912798
vn 0.000000 -0.000001 -1.000000
vn 0.000001 -0.000001 -1.000000
vn 0.000001 -0.000001 -1.000000
vn -0.408410 -0.000000 -0.912799
vn -1.000000 0.000000 0.000000
vn -1.000000 0.000000 0.000000
vn -0.412695 -0.012502 -0.910784
vn -1.000000 0.000037 -0.000014
vn -0.409878 -0.014041 -0.912032
vn -1.000000 -0.000001 0.000000
vn -1.000000 0.000081 -0.000031
vn -0.405892 -0.015829 -0.913784
vn 0.000001 -0.015407 -0.999881
vn -0.000000 -0.013726 -0.999906
vn 0.000002 -0.017346 -0.999850
vn 0.000003 -0.015402 -0.999881
vn 0.000000 -0.013728 -0.999906
vn 0.000007 -0.017335 -0.999850
vn 1.000000 -0.000000 -0.000000
vn 1.000000 -0.000018 0.000001
vn 1.000000 -0.000000 -0.000000
vn 1.000000 -0.000018 0.000001
vn 1.000000 -0.000038 0.000002
vn 1.000000 -0.000038 0.000002
vn 1.000000 0.000000 0.000000
vn 1.000000 -0.000020 -0.000001
vn 1.000000 0.000000 0.000000
vn 1.000000 -0.000020 -0.000001
vn 1.000000 -0.000043 -0.000003
vn 1.000000 -0.000043 -0.000003
vn 1.000000 0.000001 -0.000000
vn 1.000000 0.000001 -0.000000
vn 1.000000 0.000001 -0.000000
vn 1.000000 0.000001 -0.000000
vn 1.000000 0.000001 0.000000
vn 1.000000 0.000001 0.000000
vn 1.000000 0.000001 0.000000
vn 1.000000 0.000001 0.000000
vn 1.000000 -0.000001 0.000000
vn 1.000000 -0.000001 0.000000
vn 1.000000 -0.000001 0.000000
vn 1.000000 -0.000001 0.000000
vn 1.000000 0.000001 -0.000000
vn 1.000000 0.000001 -0.000000
vn 1.000000 0.000001 -0.000000
vn 1.000000 0.000001 -0.000000
vn 1.000000 -0.000001 -0.000000
vn 1.000000 -0.000001 -0.000000
vn 1.000000 -0.000001 -0.000000
vn 1.000000 -0.000001 -0.000000
vn 1.000000 -0.000001 0.000000
vn 1.000000 -0.000001 0.000000
vn 1.000000 -0.000001 0.000000
vn 1.000000 -0.000001 0.000000
vn 1.000000 0.000001 0.000000
vn 1.000000 0.000001 0.000000
vn 1.000000 0.000001 0.000000
vn 1.000000 0.000001 0.000000
vn 1.000000 0.000000 0.000000
vn 1.000000 0.000000 0.000000
vn 1.000000 0.000000 0.000000
vn 1.000000 0.000000 0.000000
vn 1.000000 -0.000000 0.000000
vn 1.000000 -0.000000 0.000000
vn 1.000000 -0.000000 0.000000
vn 1.000000 -0.000000 0.000000
vn 1.000000 -0.000000 -0.000000
vn 1.000000 -0.000000 -0.000000
vn 1.000000 -0.000000 -0.000000
vn 1.000000 -0.000000 -0.000000
vn -1.000000 0.000010 -0.000000
vn -1.000000 0.000010 -0.000000
vn -1.000000 0.000000 -0.000000
vn -1.000000 0.000000 -0.000000
vn -1.000000 0.000021 -0.000001
vn -1.000000 0.000021 -0.000001
vn -1.000000 0.000010 0.000000
vn -1.000000 0.000011 0.000000
vn -1.000000 0.000000 0.000000
vn -1.000000 0.000000 0.000000
vn -1.000000 0.000022 0.000001
vn -1.000000 0.000022 0.000001
vn -1.000000 0.000000 -0.000000
vn -1.000000 0.000000 -0.000000
vn -1.000000 0.000000 -0.000000
vn -1.000000 0.000000 -0.000000
vn -1.000000 0.000000 0.000000
vn -1.000000 0.000000 0.000000
vn -1.000000 0.000000 0.000000
vn -1.000000 0.000000 0.000000
vn -1.000000 0.000000 -0.000000
vn -1.000000 0.000000 -0.000000
vn -1.000000 0.000000 -0.000000
vn -1.000000 0.000000 -0.000000
vn -1.000000 0.000000 0.000000
vn -1.000000 0.000000 0.000000
vn -1.000000 0.000000 0.000000
vn -1.000000 0.000000 0.000000
vn -1.000000 0.000001 0.000000
vn -1.000000 0.000001 0.000000
vn -1.000000 0.000001 0.000000
vn -1.000000 0.000001 0.000000
vn -1.000000 0.000000 0.000000
vn -1.000000 0.000000 0.000000
vn -1.000000 0.000000 0.000000
vn -1.000000 0.000000 0.000000
vn -1.000000 0.000000 0.000000
vn -1.000000 0.000000 0.000000
vn -1.000000 0.000000 0.000000
vn -1.000000 0.000000 0.000000
vn -1.000000 -0.000000 -0.000000
vn -1.000000 -0.000000 -0.000000
vn -1.000000 -0.000000 -0.000000
vn -1.000000 -0.000000 -0.000000
vn -1.000000 -0.000000 -0.000000
vn -1.000000 -0.000000 -0.000000
vn -1.000000 -0.000000 -0.000000
vn -1.000000 -0.000000 -0.000000
vn -1.000000 -0.000000 0.000000
vn -1.000000 -0.000000 0.000000
vn -1.000000 -0.000000 0.000000
vn -1.000000 -0.000000 0.000000
f 1/1/1 2/2/2 3/3/3
f 3/3/3 2/2/2 4/4/4
f 1/1/1 5/5/5 2/2/2
f 1/1/1 6/6/6 5/5/5
f 7/7/7 4/4/4 2/2/2
f 5/5/5 7/7/7 2/2/2
f 4/4/4 7/7/7 8/8/8
f 7/7/7 5/5/5 9/9/9
f 10/10/10 11/11/11 12/12/12
f 10/10/10 12/12/12 13/13/13
f 12/12/12 14/14/14 13/13/13
f 15/15/15 13/13/13 14/14/14
f 16/16/16 17/17/17 18/18/18
f 17/17/17 16/16/16 19/19/19
f 19/19/19 20/20/20 17/17/17
f 20/20/20 19/19/19 21/21/21
f 22/22/22 23/23/23 24/24/24
f 23/23/23 22/22/22 25/25/25
f 25/25/25 26/26/26 23/23/23
f 26/26/26 25/25/25 27/27/27
f 28/28/28 29/29/29 30/30/30
f 28/28/28 30/30/30 31/31/31
f 30/30/30 32/32/32 31/31/31
f 33/33/33 31/31/31 32/32/32
f 34/34/34 35/35/35 36/36/36
f 35/35/35 34/34/34 37/37/37
f 37/37/37 38/38/38 35/35/35
f 38/38/38 37/37/37 39/39/39
f 40/40/40 41/41/41 42/42/42
f 41/41/41 40/40/40 43/43/43
f 41/41/41 44/44/44 42/42/42
f 44/44/44 41/41/41 45/45/45
f 46/46/46 47/47/47 48/48/48
f 47/47/47 46/46/46 49/49/49
f 50/50/50 51/51/51 52/52/52
f 51/51/51 50/50/50 53/53/53
f 54/54/54 55/55/55 56/56/56
f 55/55/55 54/54/54 57/57/57
f 58/58/58 59/59/59 60/60/60
f 59/59/59 58/58/58 61/61/61
f 62/62/62 63/63/63 64/64/64
f 63/63/63 62/62/62 65/65/65
f 66/66/66 67/67/67 68/68/68
f 67/67/67 66/66/66 69/69/69
f 70/70/70 66/66/66 68/68/68
f 66/66/66 70/70/70 71/71/71
f 72/72/72 71/71/71 70/70/70
f 71/71/71 72/72/72 73/73/73
f 74/74/74 75/75/75 76/76/76
f 75/75/75 74/74/74 77/77/77
f 78/78/78 77/77/77 74/74/74
f 77/77/77 78/78/78 79/79/79
f 78/78/78 80/80/80 79/79/79
f 80/80/80 78/78/78 81/81/81
f 82/82/82 83/83/83 84/84/84
f 83/83/83 82/82/82 85/85/85
f 86/86/86 82/82/82 84/84/84
f 82/82/82 86/86/86 87/87/87
f 86/86/86 88/88/88 87/87/87
f 88/88/88 86/86/86 89/89/89
f 90/90/90 91/91/91 92/92/92
f 91/91/91 90/90/90 93/93/93
f 90/90/90 94/94/94 93/93/93
f 90/90/90 95/95/95 94/94/94
f 95/95/95 96/96/96 94/94/94
f 96/96/96 95/95/95 97/97/97
f 98/98/98 99/99/99 100/100/100
f 100/100/100 101/101/101 98/98/98
f 101/101/101 100/100/100 102/102/102
f 99/99/99 98/98/98 103/103/103
f 104/104/104 99/99/99 103/103/103
f 99/99/99 104/104/104 105/105/105
f 106/106/106 107/107/107 108/108/108
f 107/107/107 106/106/106 109/109/109
f 110/110/110 108/108/108 107/107/107
f 108/108/108 110/110/110 111/111/111
f 112/112/112 106/106/106 108/108/108
f 111/111/111 112/112/112 108/108/108
f 106/106/106 112/112/112 113/113/113
f 112/112/112 111/111/111 114/114/114
f 115/115/115 113/113/113 112/112/112
f 114/114/114 115/115/115 112/112/112
f 113/113/113 115/115/115 116/116/116
f 115/115/115 114/114/114 117/117/117
f 118/118/118 119/119/119 120/120/120
f 119/119/119 118/118/118 121/121/121
f 121/121/121 122/122/122 119/119/119
f 123/123/123 122/122/122 121/121/121
f 124/124/124 125/125/125 126/126/126
f 125/125/125 124/124/124 127/127/127
f 127/127/127 128/128/128 125/125/125
f 128/128/128 127/127/127 129/129/129
f 130/130/130 131/131/131 132/132/132
f 132/132/132 133/133/133 130/130/130
f 134/134/134 135/135/135 136/136/136
f 136/136/136 137/137/137 134/134/134
f 138/138/138 139/139/139 140/140/140
f 139/139/139 138/138/138 141/141/141
f 142/142/142 143/143/143 144/144/144
f 144/144/144 145/145/145 142/142/142
f 146/146/146 147/147/147 148/148/148
f 147/147/147 146/146/146 149/149/149
f 150/150/150 151/151/151 152/152/152
f 152/152/152 153/153/153 150/150/150
f 154/154/154 155/155/155 156/156/156
f 155/155/155 154/154/154 157/157/157
f 158/158/158 159/159/159 160/160/160
f 160/160/160 161/161/161 158/158/158
f 162/162/162 163/163/163 164/164/164
f 164/164/164 165/165/165 162/162/162
f 166/166/166 167/167/167 168/168/168
f 168/168/168 169/169/169 166/166/166
f 170/170/170 171/171/171 172/172/172
f 172/172/172 173/173/173 170/170/170
f 170/170/170 174/174/174 171/171/171
f 174/174/174 170/170/170 175/175/175
f 176/176/176 177/177/177 178/178/178
f 178/178/178 179/179/179 176/176/176
f 177/177/177 176/176/176 180/180/180
f 180/180/180 181/181/181 177/177/177
f 182/182/182 183/183/183 184/184/184
f 183/183/183 182/182/182 185/185/185
f 186/186/186 187/187/187 188/188/188
f 187/187/187 186/186/186 189/189/189
f 190/190/190 191/191/191 192/192/192
f 191/191/191 190/190/190 193/193/193
f 194/194/194 195/195/195 196/196/196
f 195/195/195 194/194/194 197/197/197
f 198/198/198 199/199/199 200/200/200
f 199/199/199 198/198/198 201/201/201
f 202/202/202 203/203/203 204/204/204
f 203/203/203 202/202/202 205/205/205
f 206/206/206 207/207/207 208/208/208
f 207/207/207 206/206/206 209/209/209
f 210/210/210 211/211/211 212/212/212
f 211/211/211 210/210/210 213/213/213
f 214/214/214 215/215/215 216/216/216
f 215/215/215 214/214/214 217/217/217
f 218/218/218 219/219/219 220/220/220
f 219/219/219 218/218/218 221/221/221
