# Generated from Roblox mesh JSON (v2.00)
# Hello from RBX_Toolbox ;)
o LeftUpperLeg_inner_cage
v -0.416485 0.193022 0.474389
v -0.417439 0.055795 0.458186
v -0.417427 0.055795 0.632200
v -0.417846 0.193022 0.632200
v 0.039001 0.193022 0.632202
v 0.039001 0.055795 0.632202
v -0.417439 0.055795 0.458186
v -0.417439 -0.059585 0.451319
v -0.417426 -0.059585 0.632200
v -0.417427 0.055795 0.632200
v 0.039001 0.055795 0.632202
v 0.039001 -0.059585 0.632202
v 0.447934 -0.059585 0.632193
v 0.039001 0.055795 0.632202
v 0.039001 -0.059585 0.632202
v 0.447936 0.055795 0.632196
v 0.039004 -0.293857 0.632202
v 0.447936 -0.183352 0.632196
v 0.039002 -0.183352 0.632202
v 0.447936 -0.293857 0.632195
v 0.039001 0.055795 0.632202
v 0.447936 0.193022 0.632196
v 0.039001 0.193022 0.632202
v 0.447936 0.055795 0.632196
v -0.417439 -0.293857 0.449010
v -0.417424 -0.183352 0.632200
v -0.417439 -0.183352 0.449010
v -0.417424 -0.293857 0.632200
v 0.039002 -0.183352 0.632202
v 0.039004 -0.293857 0.632202
v -0.417439 -0.413883 0.449010
v -0.417424 -0.293857 0.632200
v -0.417439 -0.293857 0.449010
v -0.417422 -0.413883 0.632200
v 0.039004 -0.293857 0.632202
v 0.039006 -0.413883 0.632202
v 0.039006 -0.413883 0.632202
v 0.447936 -0.293857 0.632195
v 0.039004 -0.293857 0.632202
v 0.447937 -0.413883 0.632194
v 0.039002 -0.183352 0.632202
v 0.447934 -0.059585 0.632193
v 0.039001 -0.059585 0.632202
v 0.447936 -0.183352 0.632196
v -0.417439 -0.059585 0.451319
v -0.417439 -0.183352 0.449010
v -0.417424 -0.183352 0.632200
v -0.417426 -0.059585 0.632200
v 0.039001 -0.059585 0.632202
v 0.039002 -0.183352 0.632202
v -0.436629 0.314981 -0.741311
v -0.449242 0.413883 -0.463617
v -0.449234 0.412836 -0.741311
v -0.436950 0.314983 -0.446904
v 0.038996 0.393250 -0.741312
v 0.039001 0.314981 -0.741314
v 0.449241 0.382526 -0.741312
v 0.447934 0.314982 -0.741306
v 0.449241 0.382445 0.012214
v 0.447934 0.314981 0.012216
v 0.039001 0.193022 0.632202
v 0.447936 0.314981 0.657694
v 0.039000 0.314981 0.657698
v 0.447936 0.193022 0.632196
v -0.417425 -0.183352 -0.578605
v -0.417439 -0.059585 -0.381881
v -0.417427 -0.059585 -0.583637
v -0.417439 -0.183352 -0.374389
v 0.039002 -0.059586 -0.583639
v 0.039003 -0.183352 -0.578607
v 0.447935 -0.059585 -0.583632
v 0.447936 -0.183352 -0.578601
v -0.417427 -0.059585 -0.583637
v -0.417439 0.055794 -0.394182
v -0.417428 0.055795 -0.609217
v -0.417439 -0.059585 -0.381881
v 0.039002 0.055794 -0.609219
v 0.039002 -0.059586 -0.583639
v 0.447935 -0.059585 -0.583632
v 0.447936 0.055795 -0.609213
v -0.436950 0.314983 0.484963
v -0.416485 0.193022 0.474389
v -0.417846 0.193022 0.632200
v -0.438008 0.314982 0.657696
v 0.039000 0.314981 0.657698
v 0.039001 0.193022 0.632202
v -0.417425 -0.183352 -0.578605
v -0.417439 -0.293857 -0.374389
v -0.417439 -0.183352 -0.374389
v -0.417424 -0.293857 -0.578605
v 0.039003 -0.183352 -0.578607
v 0.039003 -0.293857 -0.578607
v 0.447934 -0.293857 -0.578598
v 0.447936 -0.183352 -0.578601
v 0.039003 -0.293857 -0.578607
v -0.417422 -0.413883 -0.578605
v -0.417424 -0.293857 -0.578605
v -0.417439 -0.413883 -0.374390
v -0.417439 -0.293857 -0.374389
v 0.039004 -0.413883 -0.578607
v 0.447934 -0.293857 -0.578598
v 0.447934 -0.413883 -0.578596
v 0.039002 0.055794 -0.609219
v -0.417428 0.055795 -0.609217
v 0.039002 0.193021 -0.660957
v 0.447934 0.193022 -0.660949
v 0.447936 0.055795 -0.609213
v -0.417429 0.193022 -0.660955
v -0.416485 0.193022 -0.419508
v -0.417439 0.055794 -0.394182
v 0.447934 0.193022 -0.660949
v 0.447934 0.314981 0.012216
v 0.447934 0.193022 0.012214
v 0.447934 0.314982 -0.741306
v 0.447935 -0.059585 -0.583632
v 0.447934 0.055795 0.012213
v 0.447934 -0.059585 0.012214
v 0.447936 0.055795 -0.609213
v 0.447936 0.193022 0.632196
v 0.447934 0.193022 0.012214
v 0.447934 0.314981 0.012216
v 0.447936 0.314981 0.657694
v 0.447934 -0.293857 -0.578598
v 0.447934 -0.183352 0.012214
v 0.447934 -0.293857 0.012219
v 0.447936 -0.183352 -0.578601
v 0.447934 -0.059585 0.632193
v 0.447934 -0.059585 0.012214
v 0.447934 0.055795 0.012213
v 0.447936 0.055795 0.632196
v 0.447934 -0.293857 0.012219
v 0.447936 -0.183352 0.632196
v 0.447936 -0.293857 0.632195
v 0.447934 -0.183352 0.012214
v 0.447936 0.055795 -0.609213
v 0.447934 0.193022 0.012214
v 0.447934 0.055795 0.012213
v 0.447934 0.193022 -0.660949
v 0.447936 0.055795 0.632196
v 0.447934 0.055795 0.012213
v 0.447934 0.193022 0.012214
v 0.447936 0.193022 0.632196
v 0.447937 -0.413883 0.632194
v 0.447934 -0.413883 0.012219
v 0.447934 -0.293857 0.012219
v 0.447936 -0.293857 0.632195
v 0.447934 -0.413883 -0.578596
v 0.447934 -0.293857 0.012219
v 0.447934 -0.413883 0.012219
v 0.447934 -0.293857 -0.578598
v 0.447936 -0.183352 -0.578601
v 0.447934 -0.059585 0.012214
v 0.447934 -0.183352 0.012214
v 0.447935 -0.059585 -0.583632
v 0.447934 -0.183352 0.012214
v 0.447934 -0.059585 0.632193
v 0.447936 -0.183352 0.632196
v 0.447934 -0.059585 0.012214
v 0.447936 0.314981 0.657694
v 0.447934 0.314981 0.012216
v 0.449241 0.382445 0.012214
v 0.449242 0.376875 0.741312
v 0.039002 0.193021 -0.660957
v -0.417429 0.193022 -0.660955
v 0.039001 0.314981 -0.741314
v 0.447934 0.193022 -0.660949
v 0.447934 0.314982 -0.741306
v -0.436629 0.314981 -0.741311
v -0.436950 0.314983 -0.446904
v -0.416485 0.193022 -0.419508
v -0.417438 0.055794 0.011797
v -0.417439 -0.059585 0.451319
v -0.417439 0.055795 0.458186
v -0.417438 -0.059585 0.012222
v -0.417439 -0.059585 -0.381881
v -0.417438 0.055794 0.011797
v -0.417439 0.055794 -0.394182
v -0.417438 -0.059585 0.012222
v -0.417438 -0.183352 0.012223
v -0.417439 -0.293857 0.449010
v -0.417439 -0.183352 0.449010
v -0.417438 -0.293857 0.012220
v -0.417439 -0.183352 -0.374389
v -0.417438 -0.293857 0.012220
v -0.417438 -0.183352 0.012223
v -0.417439 -0.293857 -0.374389
v -0.417439 0.055794 -0.394182
v -0.416485 0.193022 0.007644
v -0.416485 0.193022 -0.419508
v -0.417438 0.055794 0.011797
v -0.416485 0.193022 0.007644
v -0.417439 0.055795 0.458186
v -0.416485 0.193022 0.474389
v -0.417438 0.055794 0.011797
v -0.417439 -0.293857 -0.374389
v -0.417438 -0.413883 0.012220
v -0.417438 -0.293857 0.012220
v -0.417439 -0.413883 -0.374390
v -0.417438 -0.293857 0.012220
v -0.417439 -0.413883 0.449010
v -0.417439 -0.293857 0.449010
v -0.417438 -0.413883 0.012220
v -0.417439 -0.183352 -0.374389
v -0.417438 -0.059585 0.012222
v -0.417439 -0.059585 -0.381881
v -0.417438 -0.183352 0.012223
v -0.417438 -0.059585 0.012222
v -0.417439 -0.183352 0.449010
v -0.417439 -0.059585 0.451319
v -0.417438 -0.183352 0.012223
v -0.449241 0.413883 0.008390
v -0.436950 0.314983 0.484963
v -0.449242 0.413883 0.500130
v -0.436949 0.314983 0.006695
v -0.436950 0.314983 -0.446904
v -0.449241 0.413883 0.008390
v -0.449242 0.413883 -0.463617
v -0.436949 0.314983 0.006695
v -0.416485 0.193022 -0.419508
v -0.436949 0.314983 0.006695
v -0.436950 0.314983 -0.446904
v -0.416485 0.193022 0.007644
v -0.436949 0.314983 0.006695
v -0.416485 0.193022 0.474389
v -0.436950 0.314983 0.484963
v -0.416485 0.193022 0.007644
v -0.449242 0.413883 0.500130
v -0.438008 0.314982 0.657696
v -0.449233 0.413166 0.741313
v -0.436950 0.314983 0.484963
v 0.038994 0.393248 0.741314
v 0.039000 0.314981 0.657698
v 0.447936 0.314981 0.657694
v 0.038994 0.393248 0.741314
v 0.039000 0.314981 0.657698
v 0.449242 0.376875 0.741312
vt 4.670595 2.684215
vt 4.670595 2.527062
vt 4.703386 2.527062
vt 4.703386 2.686872
vt 4.736178 2.689528
vt 4.736178 2.527062
vt 4.670595 2.527062
vt 4.670595 2.392389
vt 4.703386 2.392389
vt 4.703386 2.527062
vt 4.736178 2.527062
vt 4.736178 2.392389
vt 4.809030 2.392389
vt 4.736178 2.527062
vt 4.736178 2.392389
vt 4.809030 2.527062
vt 4.736178 2.177007
vt 4.809030 2.290893
vt 4.736178 2.290893
vt 4.809030 2.177007
vt 4.736178 2.527062
vt 4.809030 2.706084
vt 4.736178 2.689528
vt 4.809030 2.527062
vt 4.670595 2.177007
vt 4.703386 2.290893
vt 4.670595 2.290893
vt 4.703386 2.177007
vt 4.736178 2.290893
vt 4.736178 2.177007
vt 4.670595 2.106575
vt 4.703386 2.177007
vt 4.670595 2.177007
vt 4.703386 2.106575
vt 4.736178 2.177007
vt 4.736178 2.106575
vt 4.736178 2.106575
vt 4.809030 2.177007
vt 4.736178 2.177007
vt 4.809030 2.106575
vt 4.736178 2.290893
vt 4.809030 2.392389
vt 4.736178 2.392389
vt 4.809030 2.290893
vt 4.670595 2.392389
vt 4.670595 2.290893
vt 4.703386 2.290893
vt 4.703386 2.392389
vt 4.736178 2.392389
vt 4.736178 2.290893
vt 4.331255 2.802415
vt 4.369310 2.891038
vt 4.325919 2.891038
vt 4.369310 2.802496
vt 4.178995 2.891038
vt 4.236097 2.812195
vt 4.115766 2.858994
vt 4.178995 2.822055
vt 4.052537 2.826950
vt 4.052537 2.792779
vt 4.736178 2.689528
vt 4.809030 2.845746
vt 4.736178 2.814832
vt 4.809030 2.706084
vt 4.321732 2.290893
vt 4.369310 2.392389
vt 4.321732 2.392389
vt 4.369310 2.290893
vt 4.226574 2.392389
vt 4.226574 2.290893
vt 4.178995 2.392389
vt 4.178995 2.290893
vt 4.321732 2.392389
vt 4.369310 2.527062
vt 4.321732 2.527062
vt 4.369310 2.392389
vt 4.226574 2.527062
vt 4.226574 2.392389
vt 4.178995 2.392389
vt 4.178995 2.527062
vt 4.670595 2.804911
vt 4.670595 2.684215
vt 4.703386 2.686872
vt 4.703386 2.809872
vt 4.736178 2.814832
vt 4.736178 2.689528
vt 4.321732 2.290893
vt 4.369310 2.177007
vt 4.369310 2.290893
vt 4.321732 2.177007
vt 4.226574 2.290893
vt 4.226574 2.177007
vt 4.178995 2.177007
vt 4.178995 2.290893
vt 4.226574 2.177007
vt 4.321732 2.106575
vt 4.321732 2.177007
vt 4.369310 2.106575
vt 4.369310 2.177007
vt 4.226574 2.106575
vt 4.178995 2.177007
vt 4.178995 2.106575
vt 4.226574 2.527062
vt 4.321732 2.527062
vt 4.242012 2.688115
vt 4.178995 2.693396
vt 4.178995 2.527062
vt 4.337170 2.682878
vt 4.369310 2.682921
vt 4.369310 2.527062
vt 4.178995 2.693396
vt 4.052537 2.792779
vt 4.052537 2.695761
vt 4.178995 2.822055
vt 4.178995 2.392389
vt 4.052537 2.527062
vt 4.052537 2.392389
vt 4.178995 2.527062
vt 4.809030 2.706084
vt 4.947463 2.706528
vt 4.947463 2.846574
vt 4.809030 2.845746
vt 4.178995 2.177007
vt 4.052537 2.290893
vt 4.052537 2.177007
vt 4.178995 2.290893
vt 4.809030 2.392389
vt 4.947463 2.392389
vt 4.947463 2.527062
vt 4.809030 2.527062
vt 4.947463 2.177007
vt 4.809030 2.290893
vt 4.809030 2.177007
vt 4.947463 2.290893
vt 4.178995 2.527062
vt 4.052537 2.695761
vt 4.052537 2.527062
vt 4.178995 2.693396
vt 4.809030 2.527062
vt 4.947463 2.527062
vt 4.947463 2.706528
vt 4.809030 2.706084
vt 4.809030 2.106575
vt 4.947463 2.106575
vt 4.947463 2.177007
vt 4.809030 2.177007
vt 4.178995 2.106575
vt 4.052537 2.177007
vt 4.052537 2.106575
vt 4.178995 2.177007
vt 4.178995 2.290893
vt 4.052537 2.392389
vt 4.052537 2.290893
vt 4.178995 2.392389
vt 4.947463 2.290893
vt 4.809030 2.392389
vt 4.809030 2.290893
vt 4.947463 2.392389
vt 4.809030 2.845746
vt 4.947463 2.846574
vt 4.947463 2.891038
vt 4.809030 2.891038
vt 4.242012 2.688115
vt 4.337170 2.682878
vt 4.236097 2.812195
vt 4.178995 2.693396
vt 4.178995 2.822055
vt 4.331255 2.802415
vt 4.369310 2.802496
vt 4.369310 2.682921
vt 4.547419 2.527062
vt 4.670595 2.392389
vt 4.670595 2.527062
vt 4.547419 2.392389
vt 4.369310 2.392389
vt 4.547419 2.527062
vt 4.369310 2.527062
vt 4.547419 2.392389
vt 4.547419 2.290893
vt 4.670595 2.177007
vt 4.670595 2.290893
vt 4.547419 2.177007
vt 4.369310 2.290893
vt 4.547419 2.177007
vt 4.547419 2.290893
vt 4.369310 2.177007
vt 4.369310 2.527062
vt 4.547419 2.683140
vt 4.369310 2.682921
vt 4.547419 2.527062
vt 4.547419 2.683140
vt 4.670595 2.527062
vt 4.670595 2.684215
vt 4.547419 2.527062
vt 4.369310 2.177007
vt 4.547419 2.106575
vt 4.547419 2.177007
vt 4.369310 2.106575
vt 4.547419 2.177007
vt 4.670595 2.106575
vt 4.670595 2.177007
vt 4.547419 2.106575
vt 4.369310 2.290893
vt 4.547419 2.392389
vt 4.369310 2.392389
vt 4.547419 2.290893
vt 4.547419 2.392389
vt 4.670595 2.290893
vt 4.670595 2.392389
vt 4.547419 2.290893
vt 4.547419 2.891038
vt 4.670595 2.804911
vt 4.670595 2.891038
vt 4.547419 2.802904
vt 4.369310 2.802496
vt 4.547419 2.891038
vt 4.369310 2.891038
vt 4.547419 2.802904
vt 4.369310 2.682921
vt 4.547419 2.802904
vt 4.369310 2.802496
vt 4.547419 2.683140
vt 4.547419 2.802904
vt 4.670595 2.684215
vt 4.670595 2.804911
vt 4.547419 2.683140
vt 4.670595 2.891038
vt 4.703386 2.809872
vt 4.703322 2.891038
vt 4.670595 2.804911
vt 4.736178 2.891038
vt 4.736178 2.814832
vt 4.809030 2.845746
vt 4.736178 2.891038
vt 4.736178 2.814832
vt 4.809030 2.891038
vn -0.999989 0.002189 -0.004062
vn -0.999989 0.002189 -0.004062
vn -0.341358 0.000746 0.939933
vn -0.342527 0.000749 0.939508
vn -0.000004 -0.000001 1.000000
vn -0.000004 -0.000001 1.000000
vn -1.000000 -0.000007 0.000072
vn -1.000000 -0.000007 0.000072
vn -0.362346 -0.000002 0.932044
vn -0.362350 -0.000002 0.932042
vn -0.000004 0.000001 1.000000
vn -0.000004 0.000001 1.000000
vn 0.000018 -0.000010 1.000000
vn 0.000018 -0.000010 1.000000
vn 0.000018 -0.000010 1.000000
vn 0.000018 -0.000010 1.000000
vn 0.000016 -0.000003 1.000000
vn 0.000016 -0.000003 1.000000
vn 0.000016 -0.000003 1.000000
vn 0.000016 -0.000003 1.000000
vn 0.000015 -0.000003 1.000000
vn 0.000015 -0.000003 1.000000
vn 0.000015 -0.000003 1.000000
vn 0.000015 -0.000003 1.000000
vn -1.000000 -0.000004 0.000082
vn -0.372470 -0.000003 0.928044
vn -1.000000 -0.000004 0.000082
vn -0.372467 -0.000003 0.928046
vn -0.000004 -0.000001 1.000000
vn -0.000004 -0.000001 1.000000
vn -1.000000 -0.000006 0.000089
vn -0.372470 -0.000002 0.928044
vn -1.000000 -0.000006 0.000089
vn -0.372463 -0.000002 0.928047
vn -0.000004 0.000001 1.000000
vn -0.000004 0.000001 1.000000
vn 0.000017 -0.000003 1.000000
vn 0.000017 -0.000003 1.000000
vn 0.000017 -0.000003 1.000000
vn 0.000017 -0.000003 1.000000
vn 0.000018 0.000009 1.000000
vn 0.000018 0.000009 1.000000
vn 0.000018 0.000009 1.000000
vn 0.000018 0.000009 1.000000
vn -1.000000 -0.000006 0.000077
vn -1.000000 -0.000006 0.000077
vn -0.370443 -0.000002 0.928855
vn -0.370447 -0.000002 0.928854
vn -0.000004 -0.000000 1.000000
vn -0.000004 -0.000000 1.000000
vn -0.522026 -0.066062 -0.850367
vn -0.992084 -0.125573 -0.000340
vn -0.595931 -0.075417 -0.799486
vn -0.992084 -0.125573 -0.000340
vn 0.000002 -0.000001 -1.000000
vn 0.000002 -0.000001 -1.000000
vn 0.861246 -0.016685 -0.507913
vn 0.859516 -0.016651 -0.510838
vn 0.999813 -0.019355 -0.000001
vn 0.999813 -0.019355 -0.000001
vn 0.000012 -0.204636 0.978838
vn 0.000012 -0.204636 0.978838
vn 0.000012 -0.204636 0.978838
vn 0.000012 -0.204636 0.978838
vn -0.414782 -0.036967 -0.909170
vn -1.000000 -0.000010 -0.000063
vn -0.397244 -0.037283 -0.916955
vn -1.000000 -0.000010 -0.000063
vn 0.000005 -0.040623 -0.999175
vn 0.000005 -0.040623 -0.999175
vn 0.000016 -0.040622 -0.999175
vn 0.000016 -0.040622 -0.999175
vn -0.452664 -0.193004 -0.870543
vn -1.000000 -0.000016 -0.000054
vn -0.358349 -0.202074 -0.911456
vn -1.000000 -0.000016 -0.000054
vn 0.000005 -0.216449 -0.976294
vn 0.000005 -0.216449 -0.976294
vn 0.000016 -0.216450 -0.976294
vn 0.000016 -0.216450 -0.976294
vn -0.986558 -0.163249 -0.007217
vn -0.986558 -0.163249 -0.007217
vn -0.331554 -0.245787 0.910857
vn -0.315261 -0.244351 0.917008
vn -0.000005 -0.204629 0.978840
vn -0.000005 -0.204629 0.978840
vn -0.408405 -0.000002 -0.912801
vn -1.000000 -0.000006 -0.000070
vn -1.000000 -0.000006 -0.000070
vn -0.408398 -0.000002 -0.912804
vn 0.000007 -0.000006 -1.000000
vn 0.000007 -0.000006 -1.000000
vn 0.000020 -0.000013 -1.000000
vn 0.000020 -0.000013 -1.000000
vn 0.000010 -0.000002 -1.000000
vn -0.408396 -0.000002 -0.912805
vn -0.408403 -0.000002 -0.912802
vn -1.000000 -0.000007 -0.000078
vn -1.000000 -0.000007 -0.000078
vn 0.000010 -0.000002 -1.000000
vn 0.000026 -0.000005 -1.000000
vn 0.000026 -0.000005 -1.000000
vn 0.000005 -0.352779 -0.935707
vn -0.499393 -0.304210 -0.811211
vn 0.000005 -0.352779 -0.935707
vn 0.000018 -0.352776 -0.935708
vn 0.000018 -0.352776 -0.935708
vn -0.339511 -0.330854 -0.880493
vn -0.999990 0.004045 0.002043
vn -0.999990 0.004045 0.002043
vn 1.000000 0.000000 0.000000
vn 1.000000 0.000000 0.000000
vn 1.000000 0.000000 0.000000
vn 1.000000 0.000000 0.000000
vn 1.000000 -0.000002 0.000002
vn 1.000000 -0.000002 0.000002
vn 1.000000 -0.000002 0.000002
vn 1.000000 -0.000002 0.000002
vn 1.000000 0.000001 -0.000002
vn 1.000000 0.000001 -0.000002
vn 1.000000 0.000001 -0.000002
vn 1.000000 0.000001 -0.000002
vn 1.000000 -0.000008 0.000001
vn 1.000000 -0.000008 0.000001
vn 1.000000 -0.000008 0.000001
vn 1.000000 -0.000008 0.000001
vn 1.000000 -0.000008 -0.000001
vn 1.000000 -0.000008 -0.000001
vn 1.000000 -0.000008 -0.000001
vn 1.000000 -0.000008 -0.000001
vn 1.000000 0.000002 -0.000004
vn 1.000000 0.000002 -0.000004
vn 1.000000 0.000002 -0.000004
vn 1.000000 0.000002 -0.000004
vn 1.000000 0.000006 0.000001
vn 1.000000 0.000006 0.000001
vn 1.000000 0.000006 0.000001
vn 1.000000 0.000006 0.000001
vn 1.000000 0.000000 -0.000002
vn 1.000000 0.000000 -0.000002
vn 1.000000 0.000000 -0.000002
vn 1.000000 0.000000 -0.000002
vn 1.000000 0.000003 -0.000004
vn 1.000000 0.000003 -0.000004
vn 1.000000 0.000003 -0.000004
vn 1.000000 0.000003 -0.000004
vn 1.000000 0.000001 -0.000000
vn 1.000000 0.000001 -0.000000
vn 1.000000 0.000001 -0.000000
vn 1.000000 0.000001 -0.000000
vn 1.000000 -0.000001 0.000002
vn 1.000000 -0.000001 0.000002
vn 1.000000 -0.000001 0.000002
vn 1.000000 -0.000001 0.000002
vn 1.000000 0.000007 -0.000001
vn 1.000000 0.000007 -0.000001
vn 1.000000 0.000007 -0.000001
vn 1.000000 0.000007 -0.000001
vn 0.999797 -0.020146 -0.000083
vn 0.999797 -0.020146 -0.000083
vn 0.999797 -0.020146 -0.000083
vn 0.999797 -0.020146 -0.000083
vn 0.000005 -0.550191 -0.835039
vn -0.497588 -0.532296 -0.684885
vn 0.000005 -0.550191 -0.835039
vn 0.000017 -0.550192 -0.835038
vn 0.000017 -0.550192 -0.835038
vn -0.306198 -0.558035 -0.771258
vn -0.987115 -0.160010 0.001147
vn -0.987115 -0.160010 0.001147
vn -1.000000 0.000000 -0.000002
vn -1.000000 0.000000 -0.000002
vn -1.000000 0.000000 -0.000002
vn -1.000000 0.000000 -0.000002
vn -1.000000 -0.000001 0.000001
vn -1.000000 -0.000001 0.000001
vn -1.000000 -0.000001 0.000001
vn -1.000000 -0.000001 0.000001
vn -1.000000 -0.000002 -0.000002
vn -1.000000 -0.000002 -0.000002
vn -1.000000 -0.000002 -0.000002
vn -1.000000 -0.000002 -0.000002
vn -1.000000 -0.000000 0.000001
vn -1.000000 -0.000000 0.000001
vn -1.000000 -0.000000 0.000001
vn -1.000000 -0.000000 0.000001
vn -0.999976 0.006949 0.000001
vn -0.999976 0.006949 0.000001
vn -0.999976 0.006949 0.000001
vn -0.999976 0.006949 0.000001
vn -0.999976 0.006949 -0.000002
vn -0.999976 0.006949 -0.000002
vn -0.999976 0.006949 -0.000002
vn -0.999976 0.006949 -0.000002
vn -1.000000 -0.000001 0.000002
vn -1.000000 -0.000001 0.000002
vn -1.000000 -0.000001 0.000002
vn -1.000000 -0.000001 0.000002
vn -1.000000 -0.000001 -0.000002
vn -1.000000 -0.000001 -0.000002
vn -1.000000 -0.000001 -0.000002
vn -1.000000 -0.000001 -0.000002
vn -1.000000 0.000000 0.000001
vn -1.000000 0.000000 0.000001
vn -1.000000 0.000000 0.000001
vn -1.000000 0.000000 0.000001
vn -1.000000 0.000000 -0.000002
vn -1.000000 0.000000 -0.000002
vn -1.000000 0.000000 -0.000002
vn -1.000000 0.000000 -0.000002
vn -0.992364 -0.123344 -0.000002
vn -0.992364 -0.123344 -0.000002
vn -0.992364 -0.123344 -0.000002
vn -0.992364 -0.123344 -0.000002
vn -0.992364 -0.123344 0.000002
vn -0.992364 -0.123344 0.000002
vn -0.992364 -0.123344 0.000002
vn -0.992364 -0.123344 0.000002
vn -0.986213 -0.165481 0.000002
vn -0.986213 -0.165481 0.000002
vn -0.986213 -0.165481 0.000002
vn -0.986213 -0.165481 0.000002
vn -0.986213 -0.165480 -0.000002
vn -0.986213 -0.165480 -0.000002
vn -0.986213 -0.165480 -0.000002
vn -0.986213 -0.165480 -0.000002
vn -0.993111 -0.117145 -0.002719
vn -0.427944 -0.648010 0.630038
vn -0.214292 -0.684997 0.696317
vn -0.993111 -0.117145 -0.002719
vn -0.014207 -0.688300 0.725287
vn -0.014207 -0.688300 0.725287
vn -0.015311 -0.766269 0.642338
vn -0.015311 -0.766269 0.642338
vn -0.015311 -0.766269 0.642338
vn -0.015311 -0.766269 0.642338
f 1/1/1 2/2/2 3/3/3
f 1/1/1 3/3/3 4/4/4
f 3/3/3 5/5/5 4/4/4
f 5/5/5 3/3/3 6/6/6
f 7/7/7 8/8/8 9/9/9
f 7/7/7 9/9/9 10/10/10
f 9/9/9 11/11/11 10/10/10
f 11/11/11 9/9/9 12/12/12
f 13/13/13 14/14/14 15/15/15
f 14/14/14 13/13/13 16/16/16
f 17/17/17 18/18/18 19/19/19
f 18/18/18 17/17/17 20/20/20
f 21/21/21 22/22/22 23/23/23
f 22/22/22 21/21/21 24/24/24
f 25/25/25 26/26/26 27/27/27
f 26/26/26 25/25/25 28/28/28
f 28/28/28 29/29/29 26/26/26
f 28/28/28 30/30/30 29/29/29
f 31/31/31 32/32/32 33/33/33
f 32/32/32 31/31/31 34/34/34
f 34/34/34 35/35/35 32/32/32
f 35/35/35 34/34/34 36/36/36
f 37/37/37 38/38/38 39/39/39
f 38/38/38 37/37/37 40/40/40
f 41/41/41 42/42/42 43/43/43
f 42/42/42 41/41/41 44/44/44
f 45/45/45 46/46/46 47/47/47
f 45/45/45 47/47/47 48/48/48
f 47/47/47 49/49/49 48/48/48
f 47/47/47 50/50/50 49/49/49
f 51/51/51 52/52/52 53/53/53
f 52/52/52 51/51/51 54/54/54
f 55/55/55 51/51/51 53/53/53
f 51/51/51 55/55/55 56/56/56
f 57/57/57 56/56/56 55/55/55
f 56/56/56 57/57/57 58/58/58
f 57/57/57 59/59/59 58/58/58
f 58/58/58 59/59/59 60/60/60
f 61/61/61 62/62/62 63/63/63
f 62/62/62 61/61/61 64/64/64
f 65/65/65 66/66/66 67/67/67
f 66/66/66 65/65/65 68/68/68
f 69/69/69 65/65/65 67/67/67
f 65/65/65 69/69/69 70/70/70
f 71/71/71 70/70/70 69/69/69
f 70/70/70 71/71/71 72/72/72
f 73/73/73 74/74/74 75/75/75
f 74/74/74 73/73/73 76/76/76
f 77/77/77 73/73/73 75/75/75
f 73/73/73 77/77/77 78/78/78
f 77/77/77 79/79/79 78/78/78
f 79/79/79 77/77/77 80/80/80
f 81/81/81 82/82/82 83/83/83
f 81/81/81 83/83/83 84/84/84
f 83/83/83 85/85/85 84/84/84
f 83/83/83 86/86/86 85/85/85
f 87/87/87 88/88/88 89/89/89
f 88/88/88 87/87/87 90/90/90
f 91/91/91 90/90/90 87/87/87
f 90/90/90 91/91/91 92/92/92
f 91/91/91 93/93/93 92/92/92
f 93/93/93 91/91/91 94/94/94
f 95/95/95 96/96/96 97/97/97
f 98/98/98 97/97/97 96/96/96
f 97/97/97 98/98/98 99/99/99
f 96/96/96 95/95/95 100/100/100
f 101/101/101 100/100/100 95/95/95
f 100/100/100 101/101/101 102/102/102
f 103/103/103 104/104/104 105/105/105
f 106/106/106 103/103/103 105/105/105
f 103/103/103 106/106/106 107/107/107
f 108/108/108 105/105/105 104/104/104
f 104/104/104 109/109/109 108/108/108
f 109/109/109 104/104/104 110/110/110
f 111/111/111 112/112/112 113/113/113
f 112/112/112 111/111/111 114/114/114
f 115/115/115 116/116/116 117/117/117
f 116/116/116 115/115/115 118/118/118
f 119/119/119 120/120/120 121/121/121
f 121/121/121 122/122/122 119/119/119
f 123/123/123 124/124/124 125/125/125
f 124/124/124 123/123/123 126/126/126
f 127/127/127 128/128/128 129/129/129
f 129/129/129 130/130/130 127/127/127
f 131/131/131 132/132/132 133/133/133
f 132/132/132 131/131/131 134/134/134
f 135/135/135 136/136/136 137/137/137
f 136/136/136 135/135/135 138/138/138
f 139/139/139 140/140/140 141/141/141
f 141/141/141 142/142/142 139/139/139
f 143/143/143 144/144/144 145/145/145
f 145/145/145 146/146/146 143/143/143
f 147/147/147 148/148/148 149/149/149
f 148/148/148 147/147/147 150/150/150
f 151/151/151 152/152/152 153/153/153
f 152/152/152 151/151/151 154/154/154
f 155/155/155 156/156/156 157/157/157
f 156/156/156 155/155/155 158/158/158
f 159/159/159 160/160/160 161/161/161
f 161/161/161 162/162/162 159/159/159
f 163/163/163 164/164/164 165/165/165
f 165/165/165 166/166/166 163/163/163
f 166/166/166 165/165/165 167/167/167
f 168/168/168 165/165/165 164/164/164
f 164/164/164 169/169/169 168/168/168
f 169/169/169 164/164/164 170/170/170
f 171/171/171 172/172/172 173/173/173
f 172/172/172 171/171/171 174/174/174
f 175/175/175 176/176/176 177/177/177
f 176/176/176 175/175/175 178/178/178
f 179/179/179 180/180/180 181/181/181
f 180/180/180 179/179/179 182/182/182
f 183/183/183 184/184/184 185/185/185
f 184/184/184 183/183/183 186/186/186
f 187/187/187 188/188/188 189/189/189
f 188/188/188 187/187/187 190/190/190
f 191/191/191 192/192/192 193/193/193
f 192/192/192 191/191/191 194/194/194
f 195/195/195 196/196/196 197/197/197
f 196/196/196 195/195/195 198/198/198
f 199/199/199 200/200/200 201/201/201
f 200/200/200 199/199/199 202/202/202
f 203/203/203 204/204/204 205/205/205
f 204/204/204 203/203/203 206/206/206
f 207/207/207 208/208/208 209/209/209
f 208/208/208 207/207/207 210/210/210
f 211/211/211 212/212/212 213/213/213
f 212/212/212 211/211/211 214/214/214
f 215/215/215 216/216/216 217/217/217
f 216/216/216 215/215/215 218/218/218
f 219/219/219 220/220/220 221/221/221
f 220/220/220 219/219/219 222/222/222
f 223/223/223 224/224/224 225/225/225
f 224/224/224 223/223/223 226/226/226
f 227/227/227 228/228/228 229/229/229
f 227/227/227 230/230/230 228/228/228
f 228/228/228 231/231/231 229/229/229
f 228/228/228 232/232/232 231/231/231
f 233/233/233 234/234/234 235/235/235
f 234/234/234 233/233/233 236/236/236
