# Generated from Roblox mesh JSON (v2.00)
# Hello from RBX_Toolbox ;)
o LeftLowerArm_inner_cage
v 0.187150 -0.494231 0.540291
v -0.184580 -0.382689 0.540291
v -0.185440 -0.494231 0.540291
v -0.506946 -0.494231 0.540291
v -0.509471 -0.382689 0.540291
v 0.190796 -0.382688 0.540291
v 0.527000 -0.494231 0.540291
v 0.525970 -0.382689 0.540291
v 0.190796 -0.271146 0.540291
v -0.184580 -0.271146 0.540291
v -0.513269 -0.271146 0.540291
v -0.184580 -0.042043 0.540291
v -0.518608 -0.042043 0.540291
v 0.190796 -0.042044 0.540291
v -0.184580 0.188141 0.540291
v 0.190796 0.188142 0.540291
v 0.190796 -0.042044 0.540291
v 0.514660 0.188141 0.540291
v 0.190796 0.188142 0.540291
v 0.520347 -0.042043 0.540291
v 0.190796 -0.271146 0.540291
v 0.520347 -0.042043 0.540291
v 0.190796 -0.042044 0.540291
v 0.526049 -0.271146 0.540291
v 0.526049 -0.271146 0.540291
v 0.190796 -0.271146 0.540291
v 0.525970 -0.382689 0.540291
v 0.190796 -0.382688 0.540291
v 0.511286 0.334245 0.540291
v 0.190796 0.188142 0.540291
v 0.514660 0.188141 0.540291
v 0.190796 0.334246 0.540291
v -0.518608 -0.042043 0.540291
v -0.184580 -0.042043 0.540291
v -0.184580 0.188141 0.540291
v -0.522380 0.188141 0.540291
v -0.524901 0.334245 0.540291
v -0.184580 0.492847 0.540291
v -0.527000 0.493388 0.540291
v -0.184580 0.334245 0.540291
v -0.184580 -0.271146 0.540291
v 0.190796 -0.271146 0.540291
v 0.190796 -0.042044 0.540291
v -0.184580 -0.042043 0.540291
v -0.184580 0.334245 0.540291
v 0.190796 0.488207 0.540290
v -0.184580 0.492847 0.540291
v 0.190796 0.334246 0.540291
v 0.190796 0.334246 0.540291
v 0.511286 0.334245 0.540291
v 0.506347 0.494231 0.540291
v 0.190796 0.488207 0.540290
v -0.522380 0.188141 0.540291
v -0.184580 0.334245 0.540291
v -0.524901 0.334245 0.540291
v -0.184580 0.188141 0.540291
v 0.190796 0.188142 0.540291
v -0.184580 0.334245 0.540291
v -0.184580 0.188141 0.540291
v 0.190796 0.334246 0.540291
v -0.184580 0.188141 -0.540291
v 0.190796 -0.042043 -0.540291
v -0.184580 -0.042043 -0.540291
v 0.190796 0.188142 -0.540291
v 0.514660 0.188141 -0.540291
v 0.190796 -0.042043 -0.540291
v 0.190796 0.188142 -0.540291
v 0.520347 -0.042043 -0.540291
v -0.184580 -0.382689 -0.540291
v 0.187150 -0.494231 -0.540291
v -0.185441 -0.494231 -0.540291
v 0.190796 -0.382689 -0.540291
v 0.190796 -0.382689 -0.540291
v 0.527000 -0.494231 -0.540291
v 0.187150 -0.494231 -0.540291
v 0.525970 -0.382689 -0.540291
v -0.184580 -0.382689 -0.540291
v -0.506947 -0.494231 -0.540291
v -0.509423 -0.382689 -0.540291
v -0.185441 -0.494231 -0.540291
v -0.184580 0.188141 -0.540291
v -0.518511 -0.042043 -0.540291
v -0.522380 0.188141 -0.540291
v -0.184580 -0.042043 -0.540291
v -0.513174 -0.271146 -0.540291
v -0.184580 -0.271146 -0.540291
v -0.184580 0.334245 -0.540291
v 0.190796 0.188142 -0.540291
v 0.190796 0.334246 -0.540291
v -0.184580 -0.042043 -0.540291
v 0.190796 -0.271147 -0.540291
v -0.184580 -0.271146 -0.540291
v 0.190796 -0.042043 -0.540291
v 0.520347 -0.042043 -0.540291
v 0.190796 -0.271147 -0.540291
v 0.190796 -0.042043 -0.540291
v 0.526049 -0.271146 -0.540291
v -0.184580 -0.271146 -0.540291
v -0.509423 -0.382689 -0.540291
v -0.513174 -0.271146 -0.540291
v -0.184580 -0.382689 -0.540291
v 0.190796 -0.271147 -0.540291
v -0.184580 -0.382689 -0.540291
v -0.184580 -0.271146 -0.540291
v 0.190796 -0.382689 -0.540291
v 0.190796 -0.271147 -0.540291
v 0.525970 -0.382689 -0.540291
v 0.190796 -0.382689 -0.540291
v 0.526049 -0.271146 -0.540291
v -0.184580 0.334245 -0.540291
v -0.522380 0.188141 -0.540291
v -0.524901 0.334245 -0.540291
v -0.184580 0.188141 -0.540291
v 0.506347 0.494231 -0.540290
v 0.190796 0.334246 -0.540291
v 0.190796 0.488207 -0.540291
v 0.511286 0.334245 -0.540290
v -0.184580 0.492847 -0.540291
v -0.524901 0.334245 -0.540291
v -0.527000 0.493388 -0.540291
v -0.184580 0.334245 -0.540291
v 0.190796 0.488207 -0.540291
v -0.184580 0.334245 -0.540291
v -0.184580 0.492847 -0.540291
v 0.190796 0.334246 -0.540291
v 0.511286 0.334245 -0.540290
v 0.190796 0.188142 -0.540291
v 0.190796 0.334246 -0.540291
v 0.514660 0.188141 -0.540291
v 0.525970 -0.382689 -0.035331
v 0.526049 -0.271146 0.540291
v 0.525970 -0.382689 0.540291
v 0.526049 -0.271146 -0.035331
v 0.526049 -0.271146 -0.035331
v 0.525970 -0.382689 -0.540291
v 0.526049 -0.271146 -0.540291
v 0.525970 -0.382689 -0.035331
v -0.509479 -0.382689 -0.035329
v -0.509471 -0.382689 0.540291
v -0.513285 -0.271146 -0.035329
v -0.513269 -0.271146 0.540291
v -0.509423 -0.382689 -0.540291
v -0.513285 -0.271146 -0.035329
v -0.513174 -0.271146 -0.540291
v -0.509479 -0.382689 -0.035329
v -0.524901 0.334245 -0.540291
v -0.524901 0.334245 -0.035328
v -0.527000 0.493388 -0.540291
v -0.527001 0.493388 -0.035328
v -0.524901 0.334245 -0.035328
v -0.524901 0.334245 0.540291
v -0.527001 0.493388 -0.035328
v -0.527000 0.493388 0.540291
v 0.527000 -0.494231 0.540291
v 0.527001 -0.494231 -0.056971
v 0.525970 -0.382689 -0.035331
v 0.525970 -0.382689 0.540291
v 0.525970 -0.382689 -0.540291
v 0.527001 -0.494231 -0.056971
v 0.527000 -0.494231 -0.540291
v 0.525970 -0.382689 -0.035331
v 0.511286 0.334245 -0.540290
v 0.506347 0.494231 -0.035330
v 0.511286 0.334245 -0.035330
v 0.506347 0.494231 -0.540290
v 0.511286 0.334245 0.540291
v 0.511286 0.334245 -0.035330
v 0.506347 0.494231 -0.035330
v 0.506347 0.494231 0.540291
v -0.518648 -0.042043 -0.035329
v -0.522380 0.188141 0.540291
v -0.522380 0.188141 -0.035329
v -0.518608 -0.042043 0.540291
v -0.513285 -0.271146 -0.035329
v -0.518608 -0.042043 0.540291
v -0.518648 -0.042043 -0.035329
v -0.513269 -0.271146 0.540291
v -0.522380 0.188141 -0.035329
v -0.522380 0.188141 0.540291
v -0.524901 0.334245 -0.035328
v -0.524901 0.334245 0.540291
v -0.513174 -0.271146 -0.540291
v -0.518648 -0.042043 -0.035329
v -0.518511 -0.042043 -0.540291
v -0.513285 -0.271146 -0.035329
v -0.518511 -0.042043 -0.540291
v -0.522380 0.188141 -0.035329
v -0.522380 0.188141 -0.540291
v -0.518648 -0.042043 -0.035329
v -0.522380 0.188141 -0.540291
v -0.522380 0.188141 -0.035329
v -0.524901 0.334245 -0.540291
v -0.524901 0.334245 -0.035328
v -0.506947 -0.494231 -0.035433
v -0.506946 -0.494231 0.540291
v -0.509479 -0.382689 -0.035329
v -0.509471 -0.382689 0.540291
v -0.509423 -0.382689 -0.540291
v -0.506947 -0.494231 -0.035433
v -0.509479 -0.382689 -0.035329
v -0.506947 -0.494231 -0.540291
v 0.514660 0.188141 -0.035331
v 0.520347 -0.042043 0.540291
v 0.520347 -0.042043 -0.035331
v 0.514660 0.188141 0.540291
v 0.526049 -0.271146 0.540291
v 0.526049 -0.271146 -0.035331
v 0.520347 -0.042043 -0.035331
v 0.520347 -0.042043 0.540291
v 0.514660 0.188141 -0.540291
v 0.520347 -0.042043 -0.035331
v 0.520347 -0.042043 -0.540291
v 0.514660 0.188141 -0.035331
v 0.520347 -0.042043 -0.540291
v 0.526049 -0.271146 -0.035331
v 0.526049 -0.271146 -0.540291
v 0.520347 -0.042043 -0.035331
v 0.511286 0.334245 -0.540290
v 0.514660 0.188141 -0.035331
v 0.514660 0.188141 -0.540291
v 0.511286 0.334245 -0.035330
v 0.511286 0.334245 -0.035330
v 0.514660 0.188141 0.540291
v 0.514660 0.188141 -0.035331
v 0.511286 0.334245 0.540291
vt 5.687792 3.717676
vt 5.638083 3.635815
vt 5.687792 3.614785
vt 5.687792 3.557655
vt 5.638083 3.557655
vt 5.638083 3.717676
vt 5.687792 3.769116
vt 5.638083 3.754169
vt 5.588373 3.717676
vt 5.588373 3.635815
vt 5.588373 3.557655
vt 5.488954 3.635815
vt 5.488954 3.557655
vt 5.488954 3.717676
vt 5.414290 3.635815
vt 5.414290 3.717676
vt 5.488954 3.717676
vt 5.414290 3.754205
vt 5.414290 3.717676
vt 5.488954 3.754169
vt 5.588373 3.717676
vt 5.488954 3.754169
vt 5.488954 3.717676
vt 5.588373 3.754169
vt 5.588373 3.754169
vt 5.588373 3.717676
vt 5.638083 3.754169
vt 5.638083 3.717676
vt 5.344955 3.754214
vt 5.414290 3.717676
vt 5.414290 3.754205
vt 5.344955 3.717676
vt 5.488954 3.557655
vt 5.488954 3.635815
vt 5.414290 3.635815
vt 5.414290 3.557655
vt 5.344956 3.557655
vt 5.312208 3.635815
vt 5.312208 3.557655
vt 5.344955 3.635815
vt 5.588373 3.635815
vt 5.588373 3.717676
vt 5.488954 3.717676
vt 5.488954 3.635815
vt 5.344955 3.635815
vt 5.312208 3.717676
vt 5.312208 3.635815
vt 5.344955 3.717676
vt 5.344955 3.717676
vt 5.344955 3.754214
vt 5.312208 3.754225
vt 5.312208 3.717676
vt 5.414290 3.557655
vt 5.344955 3.635815
vt 5.344956 3.557655
vt 5.414290 3.635815
vt 5.414290 3.717676
vt 5.344955 3.635815
vt 5.414290 3.635815
vt 5.344955 3.717676
vt 5.414290 3.367380
vt 5.488954 3.285752
vt 5.488954 3.367380
vt 5.414290 3.285752
vt 5.414290 3.248313
vt 5.488954 3.285752
vt 5.414290 3.285752
vt 5.488954 3.247544
vt 5.638083 3.367380
vt 5.687792 3.285752
vt 5.687792 3.385719
vt 5.638083 3.285752
vt 5.638083 3.285752
vt 5.687792 3.247544
vt 5.687792 3.285752
vt 5.638083 3.247544
vt 5.638083 3.367380
vt 5.687792 3.447445
vt 5.638083 3.447445
vt 5.687792 3.385719
vt 5.414290 3.367380
vt 5.488954 3.447445
vt 5.414290 3.447445
vt 5.488954 3.367380
vt 5.588373 3.447445
vt 5.588373 3.367380
vt 5.344955 3.367380
vt 5.414290 3.285752
vt 5.344956 3.285752
vt 5.488954 3.367380
vt 5.588373 3.285752
vt 5.588373 3.367380
vt 5.488954 3.285752
vt 5.488954 3.247544
vt 5.588373 3.285752
vt 5.488954 3.285752
vt 5.588373 3.247544
vt 5.588373 3.367380
vt 5.638083 3.447445
vt 5.588373 3.447445
vt 5.638083 3.367380
vt 5.588373 3.285752
vt 5.638083 3.367380
vt 5.588373 3.367380
vt 5.638083 3.285752
vt 5.588373 3.285752
vt 5.638083 3.247544
vt 5.638083 3.285752
vt 5.588373 3.247544
vt 5.344955 3.367380
vt 5.414290 3.447445
vt 5.344956 3.447445
vt 5.414290 3.367380
vt 5.312208 3.248766
vt 5.344956 3.285752
vt 5.312208 3.285752
vt 5.344956 3.248539
vt 5.312208 3.367380
vt 5.344956 3.447445
vt 5.312208 3.447445
vt 5.344955 3.367380
vt 5.312208 3.285752
vt 5.344955 3.367380
vt 5.312208 3.367380
vt 5.344956 3.285752
vt 5.344956 3.248539
vt 5.414290 3.285752
vt 5.344956 3.285752
vt 5.414290 3.248313
vt 5.638083 3.790663
vt 5.588373 3.754169
vt 5.638083 3.754169
vt 5.588373 3.790663
vt 5.588373 3.209337
vt 5.638083 3.247544
vt 5.588373 3.247544
vt 5.638083 3.209337
vt 5.638083 3.501845
vt 5.638083 3.557655
vt 5.588373 3.501845
vt 5.588373 3.557655
vt 5.638083 3.447445
vt 5.588373 3.501845
vt 5.588373 3.447445
vt 5.638083 3.501845
vt 5.344956 3.447445
vt 5.344956 3.501845
vt 5.312208 3.447445
vt 5.312208 3.501846
vt 5.344956 3.501845
vt 5.344956 3.557655
vt 5.312208 3.501846
vt 5.312208 3.557655
vt 5.687792 3.769116
vt 5.687792 3.790663
vt 5.638083 3.790663
vt 5.638083 3.754169
vt 5.638083 3.247544
vt 5.687792 3.209337
vt 5.687792 3.247544
vt 5.638083 3.209337
vt 5.344956 3.248539
vt 5.312208 3.209337
vt 5.344955 3.209337
vt 5.312208 3.248766
vt 5.344955 3.754214
vt 5.344955 3.790663
vt 5.312208 3.790663
vt 5.312208 3.754225
vt 5.488954 3.501845
vt 5.414290 3.557655
vt 5.414290 3.501845
vt 5.488954 3.557655
vt 5.588373 3.501845
vt 5.488954 3.557655
vt 5.488954 3.501845
vt 5.588373 3.557655
vt 5.414290 3.501845
vt 5.414290 3.557655
vt 5.344956 3.501845
vt 5.344956 3.557655
vt 5.588373 3.447445
vt 5.488954 3.501845
vt 5.488954 3.447445
vt 5.588373 3.501845
vt 5.488954 3.447445
vt 5.414290 3.501845
vt 5.414290 3.447445
vt 5.488954 3.501845
vt 5.414290 3.447445
vt 5.414290 3.501845
vt 5.344956 3.447445
vt 5.344956 3.501845
vt 5.687792 3.501845
vt 5.687792 3.557655
vt 5.638083 3.501845
vt 5.638083 3.557655
vt 5.638083 3.447445
vt 5.687792 3.501845
vt 5.638083 3.501845
vt 5.687792 3.447445
vt 5.414290 3.790663
vt 5.488954 3.754169
vt 5.488954 3.790663
vt 5.414290 3.754205
vt 5.588373 3.754169
vt 5.588373 3.790663
vt 5.488954 3.790663
vt 5.488954 3.754169
vt 5.414290 3.248313
vt 5.488954 3.209337
vt 5.488954 3.247544
vt 5.414290 3.209337
vt 5.488954 3.247544
vt 5.588373 3.209337
vt 5.588373 3.247544
vt 5.488954 3.209337
vt 5.344956 3.248539
vt 5.414290 3.209337
vt 5.414290 3.248313
vt 5.344955 3.209337
vt 5.344955 3.790663
vt 5.414290 3.754205
vt 5.414290 3.790663
vt 5.344955 3.754214
vn -0.000000 -0.000000 1.000000
vn -0.000000 -0.000000 1.000000
vn -0.000000 -0.000000 1.000000
vn -0.000000 -0.000000 1.000000
vn -0.000000 -0.000000 1.000000
vn -0.000000 -0.000000 1.000000
vn -0.000000 -0.000000 1.000000
vn -0.000000 -0.000000 1.000000
vn -0.000000 -0.000000 1.000000
vn -0.000000 -0.000000 1.000000
vn -0.000000 -0.000000 1.000000
vn -0.000000 -0.000000 1.000000
vn -0.000000 -0.000000 1.000000
vn -0.000000 -0.000000 1.000000
vn -0.000000 -0.000000 1.000000
vn -0.000000 -0.000000 1.000000
vn 0.000000 0.000000 1.000000
vn 0.000000 0.000000 1.000000
vn 0.000000 0.000000 1.000000
vn 0.000000 0.000000 1.000000
vn 0.000000 -0.000000 1.000000
vn 0.000000 -0.000000 1.000000
vn 0.000000 -0.000000 1.000000
vn 0.000000 -0.000000 1.000000
vn 0.000000 -0.000000 1.000000
vn 0.000000 -0.000000 1.000000
vn 0.000000 -0.000000 1.000000
vn 0.000000 -0.000000 1.000000
vn 0.000000 0.000001 1.000000
vn 0.000000 0.000001 1.000000
vn 0.000000 0.000001 1.000000
vn 0.000000 0.000001 1.000000
vn 0.000000 -0.000000 1.000000
vn 0.000000 -0.000000 1.000000
vn 0.000000 -0.000000 1.000000
vn 0.000000 -0.000000 1.000000
vn 0.000000 0.000000 1.000000
vn 0.000000 0.000000 1.000000
vn 0.000000 0.000000 1.000000
vn 0.000000 0.000000 1.000000
vn -0.000000 -0.000000 1.000000
vn -0.000000 -0.000000 1.000000
vn -0.000000 -0.000000 1.000000
vn -0.000000 -0.000000 1.000000
vn 0.000000 0.000000 1.000000
vn 0.000000 0.000000 1.000000
vn 0.000000 0.000000 1.000000
vn 0.000000 0.000000 1.000000
vn -0.000000 -0.000000 1.000000
vn -0.000000 -0.000000 1.000000
vn -0.000000 -0.000000 1.000000
vn -0.000000 -0.000000 1.000000
vn 0.000000 0.000000 1.000000
vn 0.000000 0.000000 1.000000
vn 0.000000 0.000000 1.000000
vn 0.000000 0.000000 1.000000
vn 0.000000 0.000001 1.000000
vn 0.000000 0.000001 1.000000
vn 0.000000 0.000001 1.000000
vn 0.000000 0.000001 1.000000
vn 0.000000 0.000000 -1.000000
vn 0.000000 0.000000 -1.000000
vn 0.000000 0.000000 -1.000000
vn 0.000000 0.000000 -1.000000
vn 0.000001 0.000000 -1.000000
vn 0.000001 0.000000 -1.000000
vn 0.000001 0.000000 -1.000000
vn 0.000001 0.000000 -1.000000
vn -0.000000 0.000000 -1.000000
vn -0.000000 0.000000 -1.000000
vn -0.000000 0.000000 -1.000000
vn -0.000000 0.000000 -1.000000
vn 0.000000 0.000001 -1.000000
vn 0.000000 0.000001 -1.000000
vn 0.000000 0.000001 -1.000000
vn 0.000000 0.000001 -1.000000
vn -0.000000 -0.000001 -1.000000
vn -0.000000 -0.000001 -1.000000
vn -0.000000 -0.000001 -1.000000
vn -0.000000 -0.000001 -1.000000
vn 0.000000 0.000000 -1.000000
vn 0.000000 0.000000 -1.000000
vn 0.000000 0.000000 -1.000000
vn 0.000000 0.000000 -1.000000
vn 0.000000 0.000000 -1.000000
vn 0.000000 0.000000 -1.000000
vn 0.000000 0.000000 -1.000000
vn 0.000000 0.000000 -1.000000
vn 0.000000 0.000000 -1.000000
vn -0.000000 0.000000 -1.000000
vn -0.000000 0.000000 -1.000000
vn -0.000000 0.000000 -1.000000
vn -0.000000 0.000000 -1.000000
vn 0.000000 0.000000 -1.000000
vn 0.000000 0.000000 -1.000000
vn 0.000000 0.000000 -1.000000
vn 0.000000 0.000000 -1.000000
vn -0.000000 -0.000001 -1.000000
vn -0.000000 -0.000001 -1.000000
vn -0.000000 -0.000001 -1.000000
vn -0.000000 -0.000001 -1.000000
vn -0.000000 -0.000001 -1.000000
vn -0.000000 -0.000001 -1.000000
vn -0.000000 -0.000001 -1.000000
vn -0.000000 -0.000001 -1.000000
vn 0.000001 -0.000000 -1.000000
vn 0.000001 -0.000000 -1.000000
vn 0.000001 -0.000000 -1.000000
vn 0.000001 -0.000000 -1.000000
vn 0.000000 0.000000 -1.000000
vn 0.000000 0.000000 -1.000000
vn 0.000000 0.000000 -1.000000
vn 0.000000 0.000000 -1.000000
vn 0.000001 0.000000 -1.000000
vn 0.000001 0.000000 -1.000000
vn 0.000001 0.000000 -1.000000
vn 0.000001 0.000000 -1.000000
vn 0.000000 0.000000 -1.000000
vn 0.000000 0.000000 -1.000000
vn 0.000000 0.000000 -1.000000
vn 0.000000 0.000000 -1.000000
vn 0.000000 0.000000 -1.000000
vn 0.000000 0.000000 -1.000000
vn 0.000000 0.000000 -1.000000
vn 0.000000 0.000000 -1.000000
vn 0.000001 0.000000 -1.000000
vn 0.000001 0.000000 -1.000000
vn 0.000001 0.000000 -1.000000
vn 0.000001 0.000000 -1.000000
vn 1.000000 -0.000707 0.000000
vn 1.000000 -0.000707 0.000000
vn 1.000000 -0.000707 0.000000
vn 1.000000 -0.000707 0.000000
vn 1.000000 -0.000706 -0.000000
vn 1.000000 -0.000706 -0.000000
vn 1.000000 -0.000706 -0.000000
vn 1.000000 -0.000706 -0.000000
vn -0.999420 -0.034067 0.000021
vn -0.999420 -0.034067 0.000021
vn -0.999420 -0.034067 0.000021
vn -0.999420 -0.034067 0.000021
vn -0.999427 -0.033859 -0.000165
vn -0.999427 -0.033859 -0.000165
vn -0.999427 -0.033859 -0.000165
vn -0.999427 -0.033859 -0.000165
vn -0.999913 -0.013193 -0.000001
vn -0.999913 -0.013193 -0.000001
vn -0.999913 -0.013193 -0.000001
vn -0.999913 -0.013193 -0.000001
vn -0.999913 -0.013194 0.000000
vn -0.999913 -0.013194 0.000000
vn -0.999913 -0.013194 0.000000
vn -0.999913 -0.013194 0.000000
vn 0.999957 0.009238 0.000000
vn 0.999957 0.009238 0.000000
vn 0.999957 0.009238 0.000000
vn 0.999957 0.009238 0.000000
vn 0.999957 0.009236 -0.000000
vn 0.999957 0.009236 -0.000000
vn 0.999957 0.009236 -0.000000
vn 0.999957 0.009236 -0.000000
vn 0.999524 0.030860 -0.000001
vn 0.999524 0.030860 -0.000001
vn 0.999524 0.030860 -0.000001
vn 0.999524 0.030860 -0.000001
vn 0.999524 0.030859 0.000001
vn 0.999524 0.030859 0.000001
vn 0.999524 0.030859 0.000001
vn 0.999524 0.030859 0.000001
vn -0.999867 -0.016298 0.000034
vn -0.999867 -0.016298 0.000034
vn -0.999867 -0.016298 0.000034
vn -0.999867 -0.016298 0.000034
vn -0.999727 -0.023351 0.000049
vn -0.999727 -0.023351 0.000049
vn -0.999727 -0.023351 0.000049
vn -0.999727 -0.023351 0.000049
vn -0.999851 -0.017248 0.000000
vn -0.999851 -0.017248 0.000000
vn -0.999851 -0.017248 0.000000
vn -0.999851 -0.017248 0.000000
vn -0.999727 -0.023344 -0.000246
vn -0.999727 -0.023344 -0.000246
vn -0.999727 -0.023344 -0.000246
vn -0.999727 -0.023344 -0.000246
vn -0.999864 -0.016511 -0.000136
vn -0.999864 -0.016511 -0.000136
vn -0.999864 -0.016511 -0.000136
vn -0.999864 -0.016511 -0.000136
vn -0.999851 -0.017247 -0.000000
vn -0.999851 -0.017247 -0.000000
vn -0.999851 -0.017247 -0.000000
vn -0.999851 -0.017247 -0.000000
vn -0.999743 -0.022664 0.000007
vn -0.999743 -0.022664 0.000007
vn -0.999743 -0.022664 0.000007
vn -0.999743 -0.022664 0.000007
vn -0.999748 -0.022440 -0.000055
vn -0.999748 -0.022440 -0.000055
vn -0.999748 -0.022440 -0.000055
vn -0.999748 -0.022440 -0.000055
vn 0.999695 0.024696 0.000001
vn 0.999695 0.024696 0.000001
vn 0.999695 0.024696 0.000001
vn 0.999695 0.024696 0.000001
vn 0.999690 0.024882 0.000000
vn 0.999690 0.024882 0.000000
vn 0.999690 0.024882 0.000000
vn 0.999690 0.024882 0.000000
vn 0.999695 0.024696 -0.000000
vn 0.999695 0.024696 -0.000000
vn 0.999695 0.024696 -0.000000
vn 0.999695 0.024696 -0.000000
vn 0.999690 0.024881 -0.000000
vn 0.999690 0.024881 -0.000000
vn 0.999690 0.024881 -0.000000
vn 0.999690 0.024881 -0.000000
vn 0.999733 0.023087 -0.000000
vn 0.999733 0.023087 -0.000000
vn 0.999733 0.023087 -0.000000
vn 0.999733 0.023087 -0.000000
vn 0.999733 0.023087 0.000001
vn 0.999733 0.023087 0.000001
vn 0.999733 0.023087 0.000001
vn 0.999733 0.023087 0.000001
f 1/1/1 2/2/2 3/3/3
f 4/4/4 3/3/3 2/2/2
f 4/4/4 2/2/2 5/5/5
f 2/2/2 1/1/1 6/6/6
f 1/1/1 7/7/7 6/6/6
f 8/8/8 6/6/6 7/7/7
f 2/2/2 6/6/6 9/9/9
f 2/2/2 9/9/9 10/10/10
f 5/5/5 2/2/2 10/10/10
f 5/5/5 10/10/10 11/11/11
f 11/11/11 10/10/10 12/12/12
f 11/11/11 12/12/12 13/13/13
f 14/14/14 15/15/15 12/12/12
f 15/15/15 14/14/14 16/16/16
f 17/17/17 18/18/18 19/19/19
f 18/18/18 17/17/17 20/20/20
f 21/21/21 22/22/22 23/23/23
f 22/22/22 21/21/21 24/24/24
f 25/25/25 26/26/26 27/27/27
f 28/28/28 27/27/27 26/26/26
f 29/29/29 30/30/30 31/31/31
f 30/30/30 29/29/29 32/32/32
f 33/33/33 34/34/34 35/35/35
f 33/33/33 35/35/35 36/36/36
f 37/37/37 38/38/38 39/39/39
f 38/38/38 37/37/37 40/40/40
f 41/41/41 42/42/42 43/43/43
f 41/41/41 43/43/43 44/44/44
f 45/45/45 46/46/46 47/47/47
f 46/46/46 45/45/45 48/48/48
f 49/49/49 50/50/50 51/51/51
f 49/49/49 51/51/51 52/52/52
f 53/53/53 54/54/54 55/55/55
f 54/54/54 53/53/53 56/56/56
f 57/57/57 58/58/58 59/59/59
f 58/58/58 57/57/57 60/60/60
f 61/61/61 62/62/62 63/63/63
f 62/62/62 61/61/61 64/64/64
f 65/65/65 66/66/66 67/67/67
f 66/66/66 65/65/65 68/68/68
f 69/69/69 70/70/70 71/71/71
f 70/70/70 69/69/69 72/72/72
f 73/73/73 74/74/74 75/75/75
f 74/74/74 73/73/73 76/76/76
f 77/77/77 78/78/78 79/79/79
f 78/78/78 77/77/77 80/80/80
f 81/81/81 82/82/82 83/83/83
f 82/82/82 81/81/81 84/84/84
f 84/84/84 85/85/85 82/82/82
f 85/85/85 84/84/84 86/86/86
f 87/87/87 88/88/88 81/81/81
f 87/87/87 89/89/89 88/88/88
f 90/90/90 91/91/91 92/92/92
f 91/91/91 90/90/90 93/93/93
f 94/94/94 95/95/95 96/96/96
f 95/95/95 94/94/94 97/97/97
f 98/98/98 99/99/99 100/100/100
f 99/99/99 98/98/98 101/101/101
f 102/102/102 103/103/103 104/104/104
f 103/103/103 102/102/102 105/105/105
f 106/106/106 107/107/107 108/108/108
f 107/107/107 106/106/106 109/109/109
f 110/110/110 111/111/111 112/112/112
f 111/111/111 110/110/110 113/113/113
f 114/114/114 115/115/115 116/116/116
f 115/115/115 114/114/114 117/117/117
f 118/118/118 119/119/119 120/120/120
f 119/119/119 118/118/118 121/121/121
f 122/122/122 123/123/123 124/124/124
f 123/123/123 122/122/122 125/125/125
f 126/126/126 127/127/127 128/128/128
f 127/127/127 126/126/126 129/129/129
f 130/130/130 131/131/131 132/132/132
f 131/131/131 130/130/130 133/133/133
f 134/134/134 135/135/135 136/136/136
f 135/135/135 134/134/134 137/137/137
f 138/138/138 139/139/139 140/140/140
f 140/140/140 139/139/139 141/141/141
f 142/142/142 143/143/143 144/144/144
f 143/143/143 142/142/142 145/145/145
f 146/146/146 147/147/147 148/148/148
f 148/148/148 147/147/147 149/149/149
f 150/150/150 151/151/151 152/152/152
f 152/152/152 151/151/151 153/153/153
f 154/154/154 155/155/155 156/156/156
f 156/156/156 157/157/157 154/154/154
f 158/158/158 159/159/159 160/160/160
f 159/159/159 158/158/158 161/161/161
f 162/162/162 163/163/163 164/164/164
f 163/163/163 162/162/162 165/165/165
f 166/166/166 167/167/167 168/168/168
f 168/168/168 169/169/169 166/166/166
f 170/170/170 171/171/171 172/172/172
f 171/171/171 170/170/170 173/173/173
f 174/174/174 175/175/175 176/176/176
f 175/175/175 174/174/174 177/177/177
f 178/178/178 179/179/179 180/180/180
f 180/180/180 179/179/179 181/181/181
f 182/182/182 183/183/183 184/184/184
f 183/183/183 182/182/182 185/185/185
f 186/186/186 187/187/187 188/188/188
f 187/187/187 186/186/186 189/189/189
f 190/190/190 191/191/191 192/192/192
f 192/192/192 191/191/191 193/193/193
f 194/194/194 195/195/195 196/196/196
f 196/196/196 195/195/195 197/197/197
f 198/198/198 199/199/199 200/200/200
f 199/199/199 198/198/198 201/201/201
f 202/202/202 203/203/203 204/204/204
f 203/203/203 202/202/202 205/205/205
f 206/206/206 207/207/207 208/208/208
f 208/208/208 209/209/209 206/206/206
f 210/210/210 211/211/211 212/212/212
f 211/211/211 210/210/210 213/213/213
f 214/214/214 215/215/215 216/216/216
f 215/215/215 214/214/214 217/217/217
f 218/218/218 219/219/219 220/220/220
f 219/219/219 218/218/218 221/221/221
f 222/222/222 223/223/223 224/224/224
f 223/223/223 222/222/222 225/225/225
