# Generated from Roblox mesh JSON (v2.00)
# Hello from RBX_Toolbox ;)
o LeftUpperArm
v -0.422235 0.213039 0.525518
v -0.006195 0.213221 0.525518
v -0.009902 0.425876 0.525518
v -0.424853 0.426078 0.525518
v -0.010695 0.471362 0.510564
v 0.404024 0.471078 0.510564
v -0.425413 0.471646 0.510564
v -0.458131 0.459852 0.498933
v -0.469231 0.426100 0.510564
v -0.466730 0.213020 0.510564
v -0.464228 -0.000060 0.510564
v 0.405049 0.425674 0.525518
v 0.437152 0.459287 0.498933
v 0.449427 0.425652 0.510564
v -0.419618 0.000000 0.525518
v -0.461727 -0.213140 0.510564
v 0.409845 0.213402 0.525518
v 0.454339 0.213421 0.510564
v -0.002488 0.000565 0.525518
v -0.417000 -0.213039 0.525518
v -0.459226 -0.426221 0.510564
v 0.414641 0.001130 0.525518
v 0.459251 0.001191 0.510564
v 0.001218 -0.212091 0.525518
v -0.414382 -0.426078 0.525518
v -0.447195 -0.459941 0.498933
v -0.413822 -0.471646 0.510564
v 0.419436 -0.211142 0.525518
v 0.464164 -0.211041 0.510564
v 0.004925 -0.424746 0.525518
v 0.005718 -0.470232 0.510564
v 0.424232 -0.423414 0.525518
v 0.469076 -0.423272 0.510564
v 0.425258 -0.468818 0.510564
v 0.458219 -0.456938 0.498933
v -0.006195 0.213221 -0.525518
v -0.422236 0.213039 -0.525518
v -0.009902 0.425876 -0.525518
v -0.424853 0.426078 -0.525518
v -0.010695 0.471362 -0.510564
v 0.404023 0.471078 -0.510564
v -0.425413 0.471647 -0.510564
v -0.458131 0.459852 -0.498933
v -0.469231 0.426100 -0.510564
v -0.466730 0.213020 -0.510564
v -0.464229 -0.000060 -0.510564
v 0.405049 0.425674 -0.525518
v 0.437152 0.459287 -0.498933
v 0.449427 0.425653 -0.510564
v -0.419618 0.000000 -0.525518
v -0.461728 -0.213141 -0.510564
v 0.409845 0.213402 -0.525518
v 0.454339 0.213422 -0.510564
v -0.002489 0.000565 -0.525518
v -0.417001 -0.213039 -0.525518
v -0.459227 -0.426221 -0.510564
v 0.414641 0.001130 -0.525518
v 0.459251 0.001191 -0.510564
v 0.001218 -0.212091 -0.525518
v -0.414383 -0.426078 -0.525518
v -0.447196 -0.459942 -0.498933
v -0.413823 -0.471646 -0.510564
v 0.419436 -0.211142 -0.525518
v 0.464164 -0.211040 -0.510564
v 0.004924 -0.424746 -0.525518
v 0.005717 -0.470232 -0.510564
v 0.424232 -0.423414 -0.525518
v 0.469076 -0.423272 -0.510564
v 0.425258 -0.468818 -0.510564
v 0.458219 -0.456937 -0.498933
v -0.425600 0.486836 0.465701
v -0.010959 0.486524 0.000000
v -0.425600 0.486836 0.000000
v -0.469769 0.471676 0.465701
v -0.458131 0.459852 0.498933
v -0.469769 0.471676 0.000000
v -0.425413 0.471646 0.510564
v -0.010959 0.486524 0.465701
v -0.010695 0.471362 0.510564
v -0.425600 0.486836 -0.465701
v -0.469769 0.471676 -0.465701
v -0.458131 0.459852 -0.498933
v -0.425413 0.471647 -0.510564
v -0.010959 0.486524 -0.465701
v -0.010695 0.471362 -0.510564
v 0.403682 0.486213 -0.465701
v 0.404023 0.471078 -0.510564
v 0.437152 0.459287 -0.498933
v 0.448379 0.471049 -0.465701
v 0.403682 0.486213 0.000000
v 0.403682 0.486212 0.465701
v 0.448379 0.471048 0.000000
v 0.404024 0.471078 0.510564
v 0.437152 0.459287 0.498933
v 0.448379 0.471048 0.465701
v 0.470124 -0.468667 0.000000
v 0.425600 -0.483952 0.465701
v 0.425600 -0.483952 -0.000000
v 0.470124 -0.468668 0.465701
v 0.458219 -0.456938 0.498933
v 0.470124 -0.468667 -0.465701
v 0.425258 -0.468818 0.510564
v 0.005982 -0.485394 0.465701
v 0.005718 -0.470232 0.510564
v 0.425600 -0.483952 -0.465701
v 0.458219 -0.456937 -0.498933
v 0.425258 -0.468818 -0.510564
v 0.005982 -0.485394 -0.000000
v 0.005982 -0.485394 -0.465701
v 0.005717 -0.470232 -0.510564
v -0.413636 -0.486835 0.465701
v -0.413822 -0.471646 0.510564
v -0.447195 -0.459941 0.498933
v -0.458688 -0.471796 0.465701
v -0.413636 -0.486835 -0.000000
v -0.458688 -0.471796 -0.000000
v -0.413637 -0.486836 -0.465701
v -0.458689 -0.471797 -0.465701
v -0.413823 -0.471646 -0.510564
v -0.447196 -0.459942 -0.498933
v -0.481561 0.213013 0.000000
v -0.481561 0.213013 0.465701
v -0.484024 0.426107 0.000000
v -0.464228 -0.000060 0.510564
v -0.466730 0.213020 0.510564
v -0.469231 0.426100 0.510564
v -0.479099 -0.000080 0.465701
v -0.461727 -0.213140 0.510564
v -0.484024 0.426107 0.465701
v -0.458131 0.459852 0.498933
v -0.469769 0.471676 0.465701
v -0.469769 0.471676 0.000000
v -0.476636 -0.213174 0.465701
v -0.459226 -0.426221 0.510564
v -0.479099 -0.000080 -0.000000
v -0.474174 -0.426268 0.465701
v -0.447195 -0.459941 0.498933
v -0.458688 -0.471796 0.465701
v -0.458688 -0.471796 -0.000000
v -0.474174 -0.426268 -0.000000
v -0.476637 -0.213174 -0.000000
v -0.474175 -0.426268 -0.465701
v -0.458689 -0.471797 -0.465701
v -0.447196 -0.459942 -0.498933
v -0.459227 -0.426221 -0.510564
v -0.476637 -0.213174 -0.465701
v -0.461728 -0.213141 -0.510564
v -0.479099 -0.000080 -0.465701
v -0.464229 -0.000060 -0.510564
v -0.481562 0.213014 -0.465701
v -0.466730 0.213020 -0.510564
v -0.469231 0.426100 -0.510564
v -0.484024 0.426108 -0.465701
v -0.458131 0.459852 -0.498933
v -0.469769 0.471676 -0.465701
v 0.437152 0.459287 0.498933
v 0.464220 0.425645 0.465701
v 0.449427 0.425652 0.510564
v 0.448379 0.471048 0.000000
v 0.454339 0.213421 0.510564
v 0.464220 0.425645 0.000000
v 0.469171 0.213428 0.465701
v 0.464220 0.425646 -0.465701
v 0.437152 0.459287 -0.498933
v 0.449427 0.425653 -0.510564
v 0.454339 0.213422 -0.510564
v 0.474122 0.001211 0.465701
v 0.459251 0.001191 0.510564
v 0.469171 0.213428 0.000000
v 0.469171 0.213428 -0.465701
v 0.474122 0.001211 -0.465701
v 0.459251 0.001191 -0.510564
v 0.474122 0.001211 0.000000
v 0.479073 -0.211007 -0.465701
v 0.464164 -0.211040 -0.510564
v 0.479073 -0.211007 -0.000000
v 0.484024 -0.423224 -0.465701
v 0.469076 -0.423272 -0.510564
v 0.458219 -0.456937 -0.498933
v 0.470124 -0.468667 -0.465701
v 0.484024 -0.423224 -0.000000
v 0.470124 -0.468667 0.000000
v 0.479073 -0.211007 0.465701
v 0.464164 -0.211041 0.510564
v 0.484024 -0.423224 0.465701
v 0.470124 -0.468668 0.465701
v 0.469076 -0.423272 0.510564
v 0.458219 -0.456938 0.498933
vt 0.749404 0.703965
vt 0.856043 0.703965
vt 0.856043 0.752961
vt 0.749404 0.752961
vt 0.856043 0.767603
vt 0.962682 0.767603
vt 0.749404 0.767603
vt 0.734827 0.767603
vt 0.734827 0.752961
vt 0.734827 0.703965
vt 0.734827 0.654968
vt 0.962682 0.752961
vt 0.977260 0.767603
vt 0.977260 0.752961
vt 0.749404 0.654968
vt 0.734827 0.605971
vt 0.962682 0.703965
vt 0.977260 0.703965
vt 0.856043 0.654968
vt 0.749404 0.605971
vt 0.734827 0.556974
vt 0.962682 0.654968
vt 0.977260 0.654968
vt 0.856043 0.605971
vt 0.749404 0.556974
vt 0.734827 0.542326
vt 0.749404 0.542326
vt 0.962682 0.605971
vt 0.977260 0.605971
vt 0.856043 0.556974
vt 0.856043 0.542326
vt 0.962682 0.556974
vt 0.977260 0.556974
vt 0.962682 0.542326
vt 0.977260 0.542326
vt 0.371223 0.703965
vt 0.476823 0.703965
vt 0.371223 0.752961
vt 0.476823 0.752961
vt 0.371223 0.767603
vt 0.265623 0.767603
vt 0.476823 0.767603
vt 0.492421 0.767603
vt 0.492421 0.752961
vt 0.492421 0.703965
vt 0.492421 0.654968
vt 0.265623 0.752961
vt 0.250005 0.767603
vt 0.250005 0.752961
vt 0.476823 0.654968
vt 0.492421 0.605971
vt 0.265623 0.703965
vt 0.250005 0.703965
vt 0.371223 0.654968
vt 0.476823 0.605971
vt 0.492421 0.556974
vt 0.265623 0.654968
vt 0.250005 0.654968
vt 0.371223 0.605971
vt 0.476823 0.556974
vt 0.492421 0.542326
vt 0.476823 0.542326
vt 0.265623 0.605971
vt 0.250005 0.605971
vt 0.371223 0.556974
vt 0.371223 0.542326
vt 0.265623 0.556974
vt 0.250005 0.556974
vt 0.265623 0.542326
vt 0.250005 0.542326
vt 0.021962 0.979080
vt 0.128677 0.880604
vt 0.128677 0.979080
vt 0.021962 0.992880
vt 0.007669 0.992880
vt 0.128677 0.992880
vt 0.007669 0.979080
vt 0.021962 0.880604
vt 0.007669 0.880604
vt 0.235392 0.979080
vt 0.235392 0.992880
vt 0.250005 0.992880
vt 0.250005 0.979080
vt 0.235392 0.880604
vt 0.250005 0.880604
vt 0.235392 0.782128
vt 0.250005 0.782128
vt 0.250005 0.767603
vt 0.235392 0.767603
vt 0.128677 0.782128
vt 0.021962 0.782128
vt 0.128677 0.767603
vt 0.007669 0.782128
vt 0.007669 0.767603
vt 0.021962 0.767603
vt 0.265413 0.838010
vt 0.270858 0.786457
vt 0.270858 0.838010
vt 0.265413 0.786457
vt 0.265413 0.781822
vt 0.265413 0.889564
vt 0.270858 0.781822
vt 0.325777 0.786457
vt 0.325777 0.781822
vt 0.270858 0.889564
vt 0.265413 0.894199
vt 0.270858 0.894199
vt 0.325777 0.838010
vt 0.325777 0.889564
vt 0.325777 0.894199
vt 0.380695 0.786457
vt 0.380695 0.781822
vt 0.386189 0.781822
vt 0.386189 0.786457
vt 0.380695 0.838010
vt 0.386189 0.838010
vt 0.380695 0.889564
vt 0.386189 0.889564
vt 0.380695 0.894199
vt 0.386189 0.894199
vt 0.613624 0.703965
vt 0.720603 0.703965
vt 0.613624 0.752961
vt 0.734827 0.654968
vt 0.734827 0.703965
vt 0.734827 0.752961
vt 0.720603 0.654968
vt 0.734827 0.605971
vt 0.720603 0.752961
vt 0.734827 0.767603
vt 0.720603 0.767603
vt 0.613624 0.767603
vt 0.720603 0.605971
vt 0.734827 0.556974
vt 0.613624 0.654968
vt 0.720603 0.556974
vt 0.734827 0.542326
vt 0.720603 0.542326
vt 0.613624 0.542326
vt 0.613624 0.556974
vt 0.613624 0.605971
vt 0.506645 0.556974
vt 0.506645 0.542326
vt 0.492421 0.542326
vt 0.492421 0.556974
vt 0.506645 0.605971
vt 0.492421 0.605971
vt 0.506645 0.654968
vt 0.492421 0.654968
vt 0.506645 0.703965
vt 0.492421 0.703965
vt 0.492421 0.752961
vt 0.506645 0.752961
vt 0.492421 0.767603
vt 0.506645 0.767603
vt 0.007669 0.767603
vt 0.021895 0.752961
vt 0.007669 0.752961
vt 0.128677 0.767603
vt 0.007669 0.703965
vt 0.128643 0.752961
vt 0.021912 0.703965
vt 0.235392 0.752961
vt 0.250005 0.767603
vt 0.250005 0.752961
vt 0.250005 0.703965
vt 0.021929 0.654968
vt 0.007669 0.654968
vt 0.128652 0.703965
vt 0.235392 0.703965
vt 0.235392 0.654968
vt 0.250005 0.654968
vt 0.128660 0.654968
vt 0.235392 0.605971
vt 0.250005 0.605971
vt 0.128668 0.605971
vt 0.235392 0.556974
vt 0.250005 0.556974
vt 0.250005 0.542326
vt 0.235392 0.542326
vt 0.128677 0.556974
vt 0.128677 0.542326
vt 0.021945 0.605971
vt 0.007669 0.605971
vt 0.021962 0.556974
vt 0.021962 0.542326
vt 0.007669 0.556974
vt 0.007669 0.542326
vn -0.032484 -0.000390 0.999472
vn -0.000000 -0.000000 1.000000
vn 0.000034 0.057757 0.998331
vn -0.031963 0.057269 0.997847
vn 0.000183 0.312319 0.949977
vn 0.027993 0.699690 0.713898
vn -0.027474 0.703082 0.710578
vn -0.587747 0.564204 0.579851
vn -0.711133 0.042027 0.701801
vn -0.318580 -0.003827 0.947888
vn -0.317831 -0.003818 0.948140
vn 0.031116 0.056758 0.997903
vn 0.579463 0.578118 0.574458
vn 0.706352 0.066248 0.704754
vn -0.032399 -0.000389 0.999475
vn -0.317085 -0.003809 0.948390
vn 0.032424 0.000741 0.999474
vn 0.318567 0.007285 0.947872
vn 0.000000 -0.000000 1.000000
vn -0.032314 -0.000388 0.999478
vn -0.705444 -0.058618 0.706338
vn 0.032339 0.000739 0.999477
vn 0.317814 0.007268 0.948125
vn 0.000000 -0.000000 1.000000
vn -0.031025 -0.057126 0.997885
vn -0.576820 -0.575816 0.579409
vn -0.025093 -0.700826 0.712891
vn 0.032255 0.000737 0.999479
vn 0.317063 0.007251 0.948377
vn 0.000190 -0.057906 0.998322
vn 0.001022 -0.312309 0.949980
vn 0.032022 -0.057514 0.997831
vn 0.709420 -0.034611 0.703936
vn 0.030038 -0.704436 0.709131
vn 0.586147 -0.563365 0.582281
vn 0.000000 -0.000000 -1.000000
vn -0.032484 -0.000390 -0.999472
vn 0.000034 0.057757 -0.998331
vn -0.031963 0.057269 -0.997847
vn 0.000183 0.312320 -0.949977
vn 0.027992 0.699690 -0.713898
vn -0.027474 0.703082 -0.710578
vn -0.587746 0.564205 -0.579851
vn -0.711134 0.042027 -0.701799
vn -0.318579 -0.003827 -0.947888
vn -0.317828 -0.003818 -0.948141
vn 0.031116 0.056758 -0.997903
vn 0.579460 0.578122 -0.574458
vn 0.706352 0.066249 -0.704753
vn -0.032399 -0.000389 -0.999475
vn -0.317081 -0.003809 -0.948391
vn 0.032424 0.000741 -0.999474
vn 0.318565 0.007285 -0.947873
vn -0.000000 -0.000000 -1.000000
vn -0.032314 -0.000388 -0.999478
vn -0.705440 -0.058617 -0.706342
vn 0.032339 0.000739 -0.999477
vn 0.317812 0.007268 -0.948126
vn -0.000000 0.000000 -1.000000
vn -0.031025 -0.057125 -0.997885
vn -0.576818 -0.575816 -0.579411
vn -0.025093 -0.700825 -0.712892
vn 0.032255 0.000738 -0.999479
vn 0.317063 0.007251 -0.948377
vn 0.000190 -0.057906 -0.998322
vn 0.001023 -0.312307 -0.949981
vn 0.032022 -0.057514 -0.997831
vn 0.709419 -0.034610 -0.703937
vn 0.030039 -0.704437 -0.709131
vn 0.586147 -0.563365 -0.582281
vn -0.031938 0.999062 0.029240
vn 0.000751 1.000000 0.000000
vn -0.032346 0.999477 0.000000
vn -0.720306 0.693208 0.024946
vn -0.587747 0.564204 0.579851
vn -0.324633 0.945840 0.000000
vn -0.027474 0.703082 0.710578
vn 0.000748 0.999559 0.029686
vn 0.000681 0.947361 0.320166
vn -0.031938 0.999062 -0.029239
vn -0.720305 0.693209 -0.024946
vn -0.587746 0.564205 -0.579851
vn -0.027474 0.703082 -0.710578
vn 0.000748 0.999559 -0.029685
vn 0.000681 0.947362 -0.320164
vn 0.033228 0.999018 -0.029316
vn 0.027992 0.699690 -0.713898
vn 0.579460 0.578122 -0.574458
vn 0.706960 0.706825 -0.024606
vn 0.033672 0.999433 0.000000
vn 0.033228 0.999018 0.029316
vn 0.321273 0.946987 0.000000
vn 0.027993 0.699690 0.713898
vn 0.579463 0.578118 0.574458
vn 0.706961 0.706825 0.024607
vn 0.324696 -0.945818 -0.000000
vn 0.035614 -0.998940 0.029161
vn 0.036014 -0.999351 -0.000000
vn 0.720367 -0.693139 0.025087
vn 0.586147 -0.563365 0.582281
vn 0.720368 -0.693138 -0.025088
vn 0.030038 -0.704436 0.709131
vn 0.003431 -0.999554 0.029682
vn 0.003224 -0.947348 0.320188
vn 0.035615 -0.998940 -0.029162
vn 0.586147 -0.563365 -0.582281
vn 0.030039 -0.704437 -0.709131
vn 0.003435 -0.999994 0.000000
vn 0.003431 -0.999554 -0.029682
vn 0.003224 -0.947349 -0.320188
vn -0.028831 -0.999154 0.029320
vn -0.025093 -0.700826 0.712891
vn -0.576820 -0.575816 0.579409
vn -0.706991 -0.706785 0.024896
vn -0.029250 -0.999572 0.000000
vn -0.316639 -0.948546 0.000001
vn -0.028831 -0.999154 -0.029319
vn -0.706989 -0.706786 -0.024894
vn -0.025093 -0.700825 -0.712892
vn -0.576818 -0.575816 -0.579411
vn -0.999933 -0.011554 0.000000
vn -0.999512 -0.011558 0.029034
vn -0.998962 0.045543 0.000000
vn -0.949155 -0.011055 0.314614
vn -0.949401 -0.011058 0.313871
vn -0.711133 0.042027 0.701801
vn -0.999509 -0.011558 0.029111
vn -0.948909 -0.011053 0.315356
vn -0.998590 0.044971 0.028207
vn -0.587747 0.564204 0.579851
vn -0.720306 0.693208 0.024946
vn -0.954393 0.298554 0.000000
vn -0.999507 -0.011558 0.029188
vn -0.705444 -0.058618 0.706338
vn -0.999933 -0.011555 0.000001
vn -0.997236 -0.068627 0.028479
vn -0.576820 -0.575816 0.579409
vn -0.706991 -0.706785 0.024896
vn -0.946733 -0.322021 0.000001
vn -0.997601 -0.069233 0.000001
vn -0.999933 -0.011554 0.000001
vn -0.997236 -0.068625 -0.028477
vn -0.706989 -0.706786 -0.024894
vn -0.576818 -0.575816 -0.579411
vn -0.705440 -0.058617 -0.706342
vn -0.999507 -0.011557 -0.029186
vn -0.948909 -0.011051 -0.315356
vn -0.999509 -0.011557 -0.029110
vn -0.949155 -0.011054 -0.314614
vn -0.999512 -0.011557 -0.029034
vn -0.949401 -0.011057 -0.313871
vn -0.711134 0.042027 -0.701799
vn -0.998590 0.044972 -0.028206
vn -0.587746 0.564205 -0.579851
vn -0.720305 0.693209 -0.024946
vn 0.579463 0.578118 0.574458
vn 0.996409 0.079807 0.028274
vn 0.706352 0.066248 0.704754
vn 0.944185 0.329414 0.000000
vn 0.949228 0.022058 0.313814
vn 0.996759 0.080445 -0.000000
vn 0.999307 0.023305 0.029030
vn 0.996409 0.079807 -0.028274
vn 0.579460 0.578122 -0.574458
vn 0.706352 0.066249 -0.704753
vn 0.949229 0.022058 -0.313813
vn 0.999305 0.023305 0.029107
vn 0.948982 0.022052 0.314559
vn 0.999728 0.023323 -0.000000
vn 0.999307 0.023306 -0.029030
vn 0.999305 0.023306 -0.029107
vn 0.948982 0.022052 -0.314559
vn 0.999728 0.023323 0.000000
vn 0.999302 0.023305 -0.029183
vn 0.948734 0.022046 -0.315305
vn 0.999728 0.023324 0.000000
vn 0.999013 -0.034154 -0.028414
vn 0.709419 -0.034610 -0.703937
vn 0.586147 -0.563365 -0.582281
vn 0.720368 -0.693138 -0.025088
vn 0.999397 -0.034710 0.000000
vn 0.956267 -0.292497 0.000000
vn 0.999302 0.023305 0.029183
vn 0.948735 0.022046 0.315304
vn 0.999013 -0.034155 0.028414
vn 0.720367 -0.693139 0.025087
vn 0.709420 -0.034611 0.703936
vn 0.586147 -0.563365 0.582281
f 1/1/1 2/2/2 3/3/3
f 1/1/1 3/3/3 4/4/4
f 5/5/5 4/4/4 3/3/3
f 3/3/3 6/6/6 5/5/5
f 4/4/4 5/5/5 7/7/7
f 8/8/8 4/4/4 7/7/7
f 4/4/4 8/8/8 9/9/9
f 10/10/10 4/4/4 9/9/9
f 1/1/1 4/4/4 10/10/10
f 11/11/11 1/1/1 10/10/10
f 6/6/6 3/3/3 12/12/12
f 2/2/2 12/12/12 3/3/3
f 12/12/12 13/13/13 6/6/6
f 13/13/13 12/12/12 14/14/14
f 15/15/15 1/1/1 11/11/11
f 15/15/15 2/2/2 1/1/1
f 16/16/16 15/15/15 11/11/11
f 17/17/17 14/14/14 12/12/12
f 2/2/2 17/17/17 12/12/12
f 18/18/18 14/14/14 17/17/17
f 15/15/15 19/19/19 2/2/2
f 19/19/19 17/17/17 2/2/2
f 20/20/20 15/15/15 16/16/16
f 20/20/20 19/19/19 15/15/15
f 21/21/21 20/20/20 16/16/16
f 22/22/22 18/18/18 17/17/17
f 19/19/19 22/22/22 17/17/17
f 23/23/23 18/18/18 22/22/22
f 19/19/19 20/20/20 24/24/24
f 24/24/24 22/22/22 19/19/19
f 25/25/25 20/20/20 21/21/21
f 25/25/25 24/24/24 20/20/20
f 26/26/26 25/25/25 21/21/21
f 25/25/25 26/26/26 27/27/27
f 28/28/28 23/23/23 22/22/22
f 22/22/22 24/24/24 28/28/28
f 29/29/29 23/23/23 28/28/28
f 24/24/24 25/25/25 30/30/30
f 27/27/27 30/30/30 25/25/25
f 30/30/30 28/28/28 24/24/24
f 30/30/30 27/27/27 31/31/31
f 32/32/32 29/29/29 28/28/28
f 28/28/28 30/30/30 32/32/32
f 31/31/31 32/32/32 30/30/30
f 33/33/33 29/29/29 32/32/32
f 32/32/32 31/31/31 34/34/34
f 35/35/35 33/33/33 32/32/32
f 34/34/34 35/35/35 32/32/32
f 36/36/36 37/37/37 38/38/38
f 39/39/39 38/38/38 37/37/37
f 39/39/39 40/40/40 38/38/38
f 41/41/41 38/38/38 40/40/40
f 40/40/40 39/39/39 42/42/42
f 39/39/39 43/43/43 42/42/42
f 43/43/43 39/39/39 44/44/44
f 39/39/39 45/45/45 44/44/44
f 45/45/45 39/39/39 37/37/37
f 37/37/37 46/46/46 45/45/45
f 38/38/38 41/41/41 47/47/47
f 41/41/41 48/48/48 47/47/47
f 38/38/38 47/47/47 36/36/36
f 48/48/48 49/49/49 47/47/47
f 46/46/46 37/37/37 50/50/50
f 36/36/36 50/50/50 37/37/37
f 50/50/50 51/51/51 46/46/46
f 49/49/49 52/52/52 47/47/47
f 52/52/52 36/36/36 47/47/47
f 52/52/52 49/49/49 53/53/53
f 50/50/50 36/36/36 54/54/54
f 52/52/52 54/54/54 36/36/36
f 51/51/51 50/50/50 55/55/55
f 54/54/54 55/55/55 50/50/50
f 55/55/55 56/56/56 51/51/51
f 53/53/53 57/57/57 52/52/52
f 54/54/54 52/52/52 57/57/57
f 57/57/57 53/53/53 58/58/58
f 55/55/55 54/54/54 59/59/59
f 57/57/57 59/59/59 54/54/54
f 56/56/56 55/55/55 60/60/60
f 59/59/59 60/60/60 55/55/55
f 60/60/60 61/61/61 56/56/56
f 61/61/61 60/60/60 62/62/62
f 58/58/58 63/63/63 57/57/57
f 59/59/59 57/57/57 63/63/63
f 63/63/63 58/58/58 64/64/64
f 60/60/60 59/59/59 65/65/65
f 60/60/60 65/65/65 62/62/62
f 63/63/63 65/65/65 59/59/59
f 66/66/66 62/62/62 65/65/65
f 64/64/64 67/67/67 63/63/63
f 65/65/65 63/63/63 67/67/67
f 65/65/65 67/67/67 66/66/66
f 67/67/67 64/64/64 68/68/68
f 69/69/69 66/66/66 67/67/67
f 70/70/70 67/67/67 68/68/68
f 67/67/67 70/70/70 69/69/69
f 71/71/71 72/72/72 73/73/73
f 73/73/73 74/74/74 71/71/71
f 75/75/75 71/71/71 74/74/74
f 76/76/76 74/74/74 73/73/73
f 71/71/71 75/75/75 77/77/77
f 77/77/77 78/78/78 71/71/71
f 72/72/72 71/71/71 78/78/78
f 78/78/78 77/77/77 79/79/79
f 80/80/80 76/76/76 73/73/73
f 81/81/81 76/76/76 80/80/80
f 82/82/82 81/81/81 80/80/80
f 83/83/83 82/82/82 80/80/80
f 73/73/73 84/84/84 80/80/80
f 84/84/84 83/83/83 80/80/80
f 84/84/84 73/73/73 72/72/72
f 83/83/83 84/84/84 85/85/85
f 86/86/86 85/85/85 84/84/84
f 72/72/72 86/86/86 84/84/84
f 85/85/85 86/86/86 87/87/87
f 86/86/86 88/88/88 87/87/87
f 88/88/88 86/86/86 89/89/89
f 86/86/86 72/72/72 90/90/90
f 72/72/72 78/78/78 90/90/90
f 86/86/86 90/90/90 89/89/89
f 90/90/90 78/78/78 91/91/91
f 79/79/79 91/91/91 78/78/78
f 89/89/89 90/90/90 92/92/92
f 91/91/91 92/92/92 90/90/90
f 91/91/91 79/79/79 93/93/93
f 94/94/94 91/91/91 93/93/93
f 92/92/92 91/91/91 95/95/95
f 91/91/91 94/94/94 95/95/95
f 96/96/96 97/97/97 98/98/98
f 97/97/97 96/96/96 99/99/99
f 100/100/100 97/97/97 99/99/99
f 98/98/98 101/101/101 96/96/96
f 97/97/97 100/100/100 102/102/102
f 102/102/102 103/103/103 97/97/97
f 98/98/98 97/97/97 103/103/103
f 103/103/103 102/102/102 104/104/104
f 101/101/101 98/98/98 105/105/105
f 106/106/106 101/101/101 105/105/105
f 107/107/107 106/106/106 105/105/105
f 105/105/105 98/98/98 108/108/108
f 108/108/108 98/98/98 103/103/103
f 109/109/109 107/107/107 105/105/105
f 109/109/109 105/105/105 108/108/108
f 107/107/107 109/109/109 110/110/110
f 104/104/104 111/111/111 103/103/103
f 108/108/108 103/103/103 111/111/111
f 111/111/111 104/104/104 112/112/112
f 113/113/113 111/111/111 112/112/112
f 111/111/111 113/113/113 114/114/114
f 115/115/115 108/108/108 111/111/111
f 114/114/114 115/115/115 111/111/111
f 115/115/115 109/109/109 108/108/108
f 115/115/115 114/114/114 116/116/116
f 109/109/109 115/115/115 117/117/117
f 116/116/116 117/117/117 115/115/115
f 117/117/117 110/110/110 109/109/109
f 117/117/117 116/116/116 118/118/118
f 110/110/110 117/117/117 119/119/119
f 120/120/120 117/117/117 118/118/118
f 117/117/117 120/120/120 119/119/119
f 121/121/121 122/122/122 123/123/123
f 122/122/122 124/124/124 125/125/125
f 125/125/125 126/126/126 122/122/122
f 124/124/124 122/122/122 127/127/127
f 127/127/127 128/128/128 124/124/124
f 121/121/121 127/127/127 122/122/122
f 129/129/129 122/122/122 126/126/126
f 123/123/123 122/122/122 129/129/129
f 130/130/130 129/129/129 126/126/126
f 129/129/129 130/130/130 131/131/131
f 131/131/131 123/123/123 129/129/129
f 123/123/123 131/131/131 132/132/132
f 128/128/128 127/127/127 133/133/133
f 133/133/133 134/134/134 128/128/128
f 135/135/135 133/133/133 127/127/127
f 127/127/127 121/121/121 135/135/135
f 134/134/134 133/133/133 136/136/136
f 136/136/136 137/137/137 134/134/134
f 137/137/137 136/136/136 138/138/138
f 136/136/136 139/139/139 138/138/138
f 139/139/139 136/136/136 140/140/140
f 141/141/141 136/136/136 133/133/133
f 136/136/136 141/141/141 140/140/140
f 133/133/133 135/135/135 141/141/141
f 142/142/142 139/139/139 140/140/140
f 142/142/142 140/140/140 141/141/141
f 143/143/143 139/139/139 142/142/142
f 144/144/144 143/143/143 142/142/142
f 145/145/145 144/144/144 142/142/142
f 141/141/141 146/146/146 142/142/142
f 146/146/146 145/145/145 142/142/142
f 146/146/146 141/141/141 135/135/135
f 145/145/145 146/146/146 147/147/147
f 135/135/135 148/148/148 146/146/146
f 148/148/148 147/147/147 146/146/146
f 148/148/148 135/135/135 121/121/121
f 147/147/147 148/148/148 149/149/149
f 121/121/121 150/150/150 148/148/148
f 150/150/150 149/149/149 148/148/148
f 149/149/149 150/150/150 151/151/151
f 150/150/150 121/121/121 123/123/123
f 150/150/150 152/152/152 151/151/151
f 123/123/123 153/153/153 150/150/150
f 152/152/152 150/150/150 153/153/153
f 132/132/132 153/153/153 123/123/123
f 153/153/153 154/154/154 152/152/152
f 153/153/153 132/132/132 155/155/155
f 154/154/154 153/153/153 155/155/155
f 156/156/156 157/157/157 95/95/95
f 157/157/157 156/156/156 158/158/158
f 157/157/157 159/159/159 95/95/95
f 158/158/158 160/160/160 157/157/157
f 159/159/159 157/157/157 161/161/161
f 161/161/161 89/89/89 159/159/159
f 162/162/162 157/157/157 160/160/160
f 89/89/89 161/161/161 163/163/163
f 164/164/164 89/89/89 163/163/163
f 165/165/165 164/164/164 163/163/163
f 163/163/163 166/166/166 165/165/165
f 160/160/160 167/167/167 162/162/162
f 167/167/167 160/160/160 168/168/168
f 169/169/169 157/157/157 162/162/162
f 157/157/157 169/169/169 161/161/161
f 161/161/161 170/170/170 163/163/163
f 166/166/166 163/163/163 170/170/170
f 170/170/170 161/161/161 169/169/169
f 171/171/171 166/166/166 170/170/170
f 169/169/169 171/171/171 170/170/170
f 166/166/166 171/171/171 172/172/172
f 162/162/162 173/173/173 169/169/169
f 171/171/171 169/169/169 173/173/173
f 173/173/173 162/162/162 167/167/167
f 174/174/174 172/172/172 171/171/171
f 173/173/173 174/174/174 171/171/171
f 172/172/172 174/174/174 175/175/175
f 167/167/167 176/176/176 173/173/173
f 174/174/174 173/173/173 176/176/176
f 177/177/177 175/175/175 174/174/174
f 176/176/176 177/177/177 174/174/174
f 175/175/175 177/177/177 178/178/178
f 177/177/177 179/179/179 178/178/178
f 179/179/179 177/177/177 180/180/180
f 177/177/177 181/181/181 180/180/180
f 177/177/177 176/176/176 181/181/181
f 180/180/180 181/181/181 182/182/182
f 176/176/176 167/167/167 183/183/183
f 183/183/183 181/181/181 176/176/176
f 168/168/168 183/183/183 167/167/167
f 183/183/183 168/168/168 184/184/184
f 181/181/181 183/183/183 185/185/185
f 181/181/181 185/185/185 182/182/182
f 184/184/184 185/185/185 183/183/183
f 182/182/182 185/185/185 186/186/186
f 185/185/185 184/184/184 187/187/187
f 185/185/185 188/188/188 186/186/186
f 188/188/188 185/185/185 187/187/187
