# Generated from Roblox mesh JSON (v2.00)
# Hello from RBX_Toolbox ;)
o LeftHand_inner_cage
v 0.044599 0.035642 0.472920
v -0.164059 0.080804 0.472920
v -0.106388 -0.040834 0.472920
v 0.035687 0.132992 0.472920
v 0.053864 -0.090121 0.472920
v 0.044599 0.035642 0.472920
v -0.106388 -0.040834 0.472920
v -0.012199 -0.131624 0.472920
v 0.053864 -0.090121 0.472920
v 0.061889 -0.161215 0.472920
v 0.093215 -0.114485 0.472920
v -0.012199 -0.131624 0.472920
v -0.106388 -0.040834 0.472920
v -0.075168 -0.183507 0.472920
v -0.012199 -0.131624 0.472920
v -0.207149 -0.091332 0.472920
v 0.035687 0.132992 0.472920
v 0.044599 0.035642 0.472920
v 0.116193 0.069241 0.472920
v 0.295138 0.042475 0.472920
v 0.044599 0.035642 0.472920
v 0.053864 -0.090121 0.472920
v 0.084996 -0.053676 0.472920
v 0.116193 0.069241 0.472920
v 0.084996 -0.053676 0.472920
v 0.093215 -0.114485 0.472920
v 0.144417 -0.111782 0.472920
v 0.053864 -0.090121 0.472920
v 0.089580 -0.238919 0.472920
v 0.144417 -0.111782 0.472920
v 0.061889 -0.161215 0.472920
v 0.093215 -0.114485 0.472920
v -0.075168 -0.183507 0.472920
v 0.089580 -0.238919 0.472920
v 0.061889 -0.161215 0.472920
v -0.012199 -0.131624 0.472920
v -0.106388 -0.040834 0.472920
v -0.164059 0.080804 0.472920
v -0.207149 -0.091332 0.472920
v -0.313079 0.044415 0.472920
v -0.174863 0.183672 0.498047
v -0.313079 0.044415 0.472920
v -0.164059 0.080804 0.472920
v -0.462018 0.183672 0.498047
v 0.035024 0.183672 0.498047
v 0.295138 0.042475 0.472920
v 0.409426 0.095223 0.472920
v 0.035687 0.132992 0.472920
v 0.035687 0.132992 0.472920
v -0.174863 0.183672 0.498047
v -0.164059 0.080804 0.472920
v 0.035024 0.183672 0.498047
v -0.462018 0.183672 -0.462655
v -0.171070 0.189200 -0.462655
v -0.313079 0.044414 -0.462655
v -0.031034 0.103492 -0.462655
v -0.313079 0.044414 -0.462655
v -0.031034 0.103492 -0.462655
v -0.207149 -0.091333 -0.462655
v 0.116193 0.069240 -0.462655
v 0.084996 -0.053676 -0.462655
v 0.089581 -0.238919 -0.462655
v -0.075167 -0.183507 -0.462655
v 0.144417 -0.111782 -0.462655
v 0.188807 0.141538 -0.462655
v 0.154595 0.134191 -0.462655
v 0.192045 0.158651 -0.462655
v 0.154595 0.134191 -0.462655
v 0.134219 0.140811 -0.462655
v 0.192045 0.158651 -0.462655
v 0.122262 0.162950 -0.462655
v 0.192045 0.158651 -0.462655
v 0.134219 0.140811 -0.462655
v 0.242133 0.108134 -0.462655
v 0.409427 0.095223 -0.462655
v 0.295138 0.042475 -0.462655
v 0.204566 0.195988 -0.462655
v 0.242133 0.108134 -0.462655
v 0.205836 0.168744 -0.462655
v 0.409427 0.095223 -0.462655
v 0.205836 0.168744 -0.462655
v 0.086783 0.173250 -0.462655
v 0.204566 0.195988 -0.462655
v -0.171070 0.189200 -0.462655
v 0.122262 0.162950 -0.462655
v 0.097209 0.132355 -0.462655
v 0.086783 0.173250 -0.462655
v 0.134219 0.140811 -0.462655
v 0.128192 0.110359 -0.462655
v 0.134219 0.140811 -0.462655
v 0.154595 0.134191 -0.462655
v 0.097209 0.132355 -0.462655
v 0.242133 0.108134 -0.462655
v 0.154595 0.134191 -0.462655
v 0.188807 0.141538 -0.462655
v 0.128192 0.110359 -0.462655
v 0.205836 0.168744 -0.462655
v 0.242133 0.108134 -0.462655
v 0.188807 0.141538 -0.462655
v 0.192045 0.158651 -0.462655
v 0.122262 0.162950 -0.462655
v 0.205836 0.168744 -0.462655
v 0.192045 0.158651 -0.462655
v 0.086783 0.173250 -0.462655
v 0.242133 0.108134 -0.462655
v 0.116193 0.069240 -0.462655
v 0.128192 0.110359 -0.462655
v 0.242133 0.108134 -0.462655
v 0.295138 0.042475 -0.462655
v 0.116193 0.069240 -0.462655
v -0.207149 -0.091333 -0.462655
v 0.084996 -0.053676 -0.462655
v -0.075167 -0.183507 -0.462655
v 0.116193 0.069240 -0.462655
v 0.086783 0.173250 -0.462655
v -0.031034 0.103492 -0.462655
v -0.171070 0.189200 -0.462655
v 0.097209 0.132355 -0.462655
v 0.116193 0.069240 -0.462655
v 0.097209 0.132355 -0.462655
v 0.128192 0.110359 -0.462655
v -0.031034 0.103492 -0.462655
v 0.035024 0.183672 0.498047
v 0.409426 0.095223 0.472920
v 0.177123 0.238919 0.540291
v 0.516974 0.238919 0.540291
v -0.462018 0.183672 0.498047
v -0.174863 0.183672 0.498047
v -0.195467 0.238919 0.540291
v -0.516973 0.238919 0.540291
v 0.177123 0.238919 0.540291
v -0.195467 0.238919 0.540291
v 0.035024 0.183672 0.498047
v -0.174863 0.183672 0.498047
v 0.516974 0.238919 -0.056971
v 0.409426 0.095223 0.472920
v 0.409426 0.095223 -0.035330
v 0.516974 0.238919 0.540291
v 0.516974 0.238919 -0.540291
v 0.516974 0.238919 -0.056971
v 0.409427 0.095223 -0.462655
v 0.409426 0.095223 -0.035330
v -0.207149 -0.091333 -0.462655
v -0.207149 -0.091332 -0.035328
v -0.313079 0.044414 -0.462655
v -0.313079 0.044415 -0.035328
v -0.207149 -0.091332 -0.035328
v -0.207149 -0.091332 0.472920
v -0.313079 0.044415 -0.035328
v -0.313079 0.044415 0.472920
v 0.089581 -0.238919 -0.462655
v 0.089581 -0.238919 -0.035329
v -0.075167 -0.183507 -0.462655
v -0.075168 -0.183507 -0.035329
v 0.089581 -0.238919 -0.035329
v 0.089580 -0.238919 0.472920
v -0.075168 -0.183507 -0.035329
v -0.075168 -0.183507 0.472920
v -0.462018 0.183672 -0.035328
v -0.462018 0.183672 0.498047
v -0.516973 0.238919 -0.035433
v -0.516973 0.238919 0.540291
v -0.516973 0.238919 -0.035433
v -0.462018 0.183672 -0.462655
v -0.462018 0.183672 -0.035328
v -0.516974 0.238919 -0.540291
v -0.075167 -0.183507 -0.462655
v -0.075168 -0.183507 -0.035329
v -0.207149 -0.091333 -0.462655
v -0.207149 -0.091332 -0.035328
v -0.075168 -0.183507 -0.035329
v -0.075168 -0.183507 0.472920
v -0.207149 -0.091332 -0.035328
v -0.207149 -0.091332 0.472920
v 0.177123 0.238919 -0.540291
v 0.516974 0.238919 -0.540291
v 0.204566 0.195988 -0.462655
v 0.409427 0.095223 -0.462655
v -0.313079 0.044415 -0.035328
v -0.313079 0.044415 0.472920
v -0.462018 0.183672 -0.035328
v -0.462018 0.183672 0.498047
v -0.313079 0.044415 -0.035328
v -0.462018 0.183672 -0.462655
v -0.313079 0.044414 -0.462655
v -0.462018 0.183672 -0.035328
v 0.144417 -0.111782 -0.462655
v 0.089581 -0.238919 -0.035329
v 0.089581 -0.238919 -0.462655
v 0.144417 -0.111782 -0.035329
v 0.144417 -0.111782 -0.035329
v 0.089580 -0.238919 0.472920
v 0.089581 -0.238919 -0.035329
v 0.144417 -0.111782 0.472920
v -0.171070 0.189200 -0.462655
v -0.462018 0.183672 -0.462655
v -0.195467 0.238919 -0.540291
v -0.516974 0.238919 -0.540291
v 0.409427 0.095223 -0.462655
v 0.409426 0.095223 -0.035330
v 0.295138 0.042475 -0.462655
v 0.295138 0.042475 -0.035328
v 0.409426 0.095223 -0.035330
v 0.409426 0.095223 0.472920
v 0.295138 0.042475 -0.035328
v 0.295138 0.042475 0.472920
v 0.177123 0.238919 -0.540291
v -0.171070 0.189200 -0.462655
v -0.195467 0.238919 -0.540291
v 0.204566 0.195988 -0.462655
v 0.116193 0.069240 -0.462655
v 0.084996 -0.053676 -0.035329
v 0.084996 -0.053676 -0.462655
v 0.116193 0.069241 -0.035328
v 0.116193 0.069241 -0.035328
v 0.084996 -0.053676 0.472920
v 0.084996 -0.053676 -0.035329
v 0.116193 0.069241 0.472920
v 0.084996 -0.053676 -0.462655
v 0.084996 -0.053676 -0.035329
v 0.144417 -0.111782 -0.462655
v 0.144417 -0.111782 -0.035329
v 0.084996 -0.053676 -0.035329
v 0.084996 -0.053676 0.472920
v 0.144417 -0.111782 -0.035329
v 0.144417 -0.111782 0.472920
v 0.295138 0.042475 -0.462655
v 0.116193 0.069241 -0.035328
v 0.116193 0.069240 -0.462655
v 0.295138 0.042475 -0.035328
v 0.295138 0.042475 -0.035328
v 0.116193 0.069241 0.472920
v 0.116193 0.069241 -0.035328
v 0.295138 0.042475 0.472920
vt 6.500000 3.699005
vt 6.456269 3.610332
vt 6.500000 3.610332
vt 6.456269 3.699005
vt 6.571560 3.699005
vt 6.500000 3.699005
vt 6.500000 3.610332
vt 6.571560 3.610332
vt 6.571560 3.699005
vt 6.619266 3.610332
vt 6.619266 3.699005
vt 6.571560 3.610332
vt 6.500000 3.610332
vt 6.571560 3.570577
vt 6.571560 3.610332
vt 6.498089 3.572372
vt 6.456269 3.209337
vt 6.500000 3.209337
vt 6.501444 3.245224
vt 6.470057 3.242566
vt 6.500000 3.209337
vt 6.571560 3.209337
vt 6.571560 3.245110
vt 6.501444 3.245224
vt 6.571560 3.245110
vt 6.619266 3.209338
vt 6.619266 3.245110
vt 6.571560 3.209337
vt 6.619266 3.570577
vt 6.666971 3.570577
vt 6.619266 3.610332
vt 6.666971 3.610332
vt 6.571560 3.570577
vt 6.619266 3.570577
vt 6.619266 3.610332
vt 6.571560 3.610332
vt 6.500000 3.610332
vt 6.456269 3.610332
vt 6.498089 3.572372
vt 6.455314 3.576329
vt 6.412539 3.610332
vt 6.455314 3.576329
vt 6.456269 3.610332
vt 6.412539 3.580288
vt 6.412539 3.209338
vt 6.470057 3.242566
vt 6.412539 3.266474
vt 6.456269 3.209337
vt 6.456269 3.699005
vt 6.412539 3.610332
vt 6.456269 3.610332
vt 6.412539 3.699005
vt 6.552293 3.950107
vt 6.536948 3.909998
vt 6.573895 3.909998
vt 6.573895 3.887921
vt 6.573895 3.909998
vt 6.573895 3.887921
vt 6.595818 3.948965
vt 6.610842 3.909998
vt 6.571560 3.352426
vt 6.619266 3.451311
vt 6.571560 3.451311
vt 6.619266 3.352426
vt 6.463053 3.799157
vt 6.500000 3.749893
vt 6.500000 3.799157
vt 6.500000 3.749893
vt 6.536947 3.762209
vt 6.500000 3.799157
vt 6.536948 3.799157
vt 6.500000 3.799157
vt 6.536947 3.762209
vt 6.463053 3.848419
vt 6.463053 3.909998
vt 6.425591 3.910355
vt 6.500000 3.909998
vt 6.463053 3.848419
vt 6.500000 3.848419
vt 6.463053 3.909998
vt 6.500000 3.848419
vt 6.536947 3.848419
vt 6.500000 3.909998
vt 6.536948 3.909998
vt 6.536948 3.799157
vt 6.573895 3.848419
vt 6.536947 3.848419
vt 6.573895 3.799157
vt 6.610842 3.848419
vt 6.573895 3.799157
vt 6.610842 3.799157
vt 6.573895 3.848419
vt 6.463053 3.848419
vt 6.389158 3.799156
vt 6.463053 3.799157
vt 6.389158 3.848419
vt 6.500000 3.848419
vt 6.463053 3.848419
vt 6.463053 3.799157
vt 6.500000 3.799157
vt 6.536948 3.799157
vt 6.500000 3.848419
vt 6.500000 3.799157
vt 6.536947 3.848419
vt 6.463053 3.848419
vt 6.389158 3.909998
vt 6.389158 3.848419
vt 6.463053 3.848419
vt 6.425591 3.910355
vt 6.389158 3.909998
vt 6.514695 3.452105
vt 6.571560 3.352426
vt 6.571560 3.451311
vt 6.505776 3.352882
vt 6.536947 3.848419
vt 6.573895 3.887921
vt 6.536948 3.909998
vt 6.573895 3.848419
vt 6.610842 3.909998
vt 6.573895 3.848419
vt 6.610842 3.848419
vt 6.573895 3.887921
vt 6.412539 3.209338
vt 6.412539 3.266474
vt 6.333029 3.209337
vt 6.333029 3.265375
vt 6.412539 3.580288
vt 6.412539 3.610332
vt 6.333029 3.599324
vt 6.333029 3.572104
vt 6.333029 3.699005
vt 6.333029 3.599324
vt 6.412539 3.699005
vt 6.412539 3.610332
vt 6.333029 3.288847
vt 6.412539 3.266474
vt 6.412539 3.288847
vt 6.333029 3.265375
vt 6.333029 3.320637
vt 6.333029 3.288847
vt 6.412539 3.320622
vt 6.412539 3.288847
vt 6.514695 3.452105
vt 6.496024 3.531377
vt 6.492049 3.452422
vt 6.454282 3.539610
vt 6.496024 3.531377
vt 6.498089 3.572372
vt 6.454282 3.539610
vt 6.455314 3.576329
vt 6.619266 3.451311
vt 6.619266 3.530821
vt 6.571560 3.451311
vt 6.571560 3.530821
vt 6.619266 3.530821
vt 6.619266 3.570577
vt 6.571560 3.530821
vt 6.571560 3.570577
vt 6.412539 3.547842
vt 6.412539 3.580288
vt 6.333029 3.530821
vt 6.333029 3.572104
vt 6.333029 3.530821
vt 6.412539 3.505410
vt 6.412539 3.547842
vt 6.333029 3.482428
vt 6.571560 3.451311
vt 6.571560 3.530821
vt 6.514695 3.452105
vt 6.496024 3.531377
vt 6.571560 3.530821
vt 6.571560 3.570577
vt 6.496024 3.531377
vt 6.498089 3.572372
vt 6.333029 3.352427
vt 6.333029 3.320637
vt 6.398891 3.352426
vt 6.412539 3.320622
vt 6.454282 3.539610
vt 6.455314 3.576329
vt 6.412539 3.547842
vt 6.412539 3.580288
vt 6.454282 3.539610
vt 6.412539 3.505410
vt 6.492049 3.452422
vt 6.412539 3.547842
vt 6.666971 3.451311
vt 6.619266 3.530821
vt 6.619266 3.451311
vt 6.666971 3.530821
vt 6.666971 3.530821
vt 6.619266 3.570577
vt 6.619266 3.530821
vt 6.666971 3.570577
vt 6.412539 3.419507
vt 6.412539 3.505410
vt 6.333029 3.414663
vt 6.333029 3.482428
vt 6.412539 3.320622
vt 6.412539 3.288847
vt 6.472491 3.322502
vt 6.483845 3.275795
vt 6.412539 3.288847
vt 6.412539 3.266474
vt 6.483845 3.275795
vt 6.470057 3.242566
vt 6.333029 3.352427
vt 6.412539 3.419507
vt 6.333029 3.414663
vt 6.398891 3.352426
vt 6.505776 3.352882
vt 6.571560 3.280882
vt 6.571560 3.352426
vt 6.502889 3.281110
vt 6.502889 3.281110
vt 6.571560 3.245110
vt 6.571560 3.280882
vt 6.501444 3.245224
vt 6.571560 3.352426
vt 6.571560 3.280882
vt 6.619266 3.352426
vt 6.619266 3.280882
vt 6.571560 3.280882
vt 6.571560 3.245110
vt 6.619266 3.280882
vt 6.619266 3.245110
vt 6.472491 3.322502
vt 6.502889 3.281110
vt 6.505776 3.352882
vt 6.483845 3.275795
vt 6.483845 3.275795
vt 6.501444 3.245224
vt 6.502889 3.281110
vt 6.470057 3.242566
vn 0.000000 0.000000 1.000000
vn 0.000000 0.000000 1.000000
vn 0.000000 0.000000 1.000000
vn 0.000000 0.000000 1.000000
vn 0.000001 -0.000000 1.000000
vn 0.000001 -0.000000 1.000000
vn 0.000001 -0.000000 1.000000
vn 0.000001 -0.000000 1.000000
vn -0.000000 0.000000 1.000000
vn -0.000000 0.000000 1.000000
vn -0.000000 0.000000 1.000000
vn -0.000000 0.000000 1.000000
vn -0.000000 -0.000000 1.000000
vn -0.000000 -0.000000 1.000000
vn -0.000000 -0.000000 1.000000
vn -0.000000 -0.000000 1.000000
vn -0.000000 -0.000000 1.000000
vn -0.000000 -0.000000 1.000000
vn -0.000000 -0.000000 1.000000
vn -0.000000 -0.000000 1.000000
vn 0.000001 -0.000000 1.000000
vn 0.000001 -0.000000 1.000000
vn 0.000001 -0.000000 1.000000
vn 0.000001 -0.000000 1.000000
vn -0.000000 -0.000000 1.000000
vn -0.000000 -0.000000 1.000000
vn -0.000000 -0.000000 1.000000
vn -0.000000 -0.000000 1.000000
vn 0.000001 0.000000 1.000000
vn 0.000001 0.000000 1.000000
vn 0.000001 0.000000 1.000000
vn 0.000001 0.000000 1.000000
vn -0.000000 -0.000000 1.000000
vn -0.000000 -0.000000 1.000000
vn -0.000000 -0.000000 1.000000
vn -0.000000 -0.000000 1.000000
vn 0.000000 -0.000000 1.000000
vn 0.000000 -0.000000 1.000000
vn 0.000000 -0.000000 1.000000
vn 0.000000 -0.000000 1.000000
vn 0.016101 -0.192996 0.981067
vn 0.016101 -0.192996 0.981067
vn 0.016101 -0.192996 0.981067
vn 0.016101 -0.192996 0.981067
vn -0.021582 -0.213564 0.976691
vn -0.021582 -0.213564 0.976691
vn -0.021582 -0.213564 0.976691
vn -0.021582 -0.213564 0.976691
vn 0.039259 -0.308154 0.950526
vn 0.039259 -0.308154 0.950526
vn 0.039259 -0.308154 0.950526
vn 0.039259 -0.308154 0.950526
vn -0.000000 -0.000000 -1.000000
vn -0.000000 -0.000000 -1.000000
vn -0.000000 -0.000000 -1.000000
vn -0.000000 -0.000000 -1.000000
vn -0.000000 0.000000 -1.000000
vn -0.000000 0.000000 -1.000000
vn -0.000000 0.000000 -1.000000
vn -0.000000 0.000000 -1.000000
vn 0.000000 -0.000000 -1.000000
vn 0.000000 -0.000000 -1.000000
vn 0.000000 -0.000000 -1.000000
vn 0.000000 -0.000000 -1.000000
vn 0.000000 0.000004 -1.000000
vn 0.000000 0.000004 -1.000000
vn 0.000000 0.000004 -1.000000
vn -0.000002 0.000005 -1.000000
vn -0.000002 0.000005 -1.000000
vn -0.000002 0.000005 -1.000000
vn -0.000001 0.000001 -1.000000
vn -0.000001 0.000001 -1.000000
vn -0.000001 0.000001 -1.000000
vn -0.000001 -0.000002 -1.000000
vn -0.000001 -0.000002 -1.000000
vn -0.000001 -0.000002 -1.000000
vn -0.000000 0.000001 -1.000000
vn -0.000000 0.000001 -1.000000
vn -0.000000 0.000001 -1.000000
vn -0.000000 0.000001 -1.000000
vn 0.000000 0.000003 -1.000000
vn 0.000000 0.000003 -1.000000
vn 0.000000 0.000003 -1.000000
vn 0.000000 0.000003 -1.000000
vn 0.000002 0.000001 -1.000000
vn 0.000002 0.000001 -1.000000
vn 0.000002 0.000001 -1.000000
vn 0.000002 0.000001 -1.000000
vn 0.000000 0.000002 -1.000000
vn 0.000000 0.000002 -1.000000
vn 0.000000 0.000002 -1.000000
vn 0.000000 0.000002 -1.000000
vn -0.000000 0.000000 -1.000000
vn -0.000000 0.000000 -1.000000
vn -0.000000 0.000000 -1.000000
vn -0.000000 0.000000 -1.000000
vn -0.000001 0.000000 -1.000000
vn -0.000001 0.000000 -1.000000
vn -0.000001 0.000000 -1.000000
vn -0.000001 0.000000 -1.000000
vn -0.000000 -0.000008 -1.000000
vn -0.000000 -0.000008 -1.000000
vn -0.000000 -0.000008 -1.000000
vn -0.000000 -0.000008 -1.000000
vn 0.000000 -0.000001 -1.000000
vn 0.000000 -0.000001 -1.000000
vn 0.000000 -0.000001 -1.000000
vn -0.000000 -0.000001 -1.000000
vn -0.000000 -0.000001 -1.000000
vn -0.000000 -0.000001 -1.000000
vn 0.000000 0.000000 -1.000000
vn 0.000000 0.000000 -1.000000
vn 0.000000 0.000000 -1.000000
vn 0.000000 0.000000 -1.000000
vn -0.000000 -0.000000 -1.000000
vn -0.000000 -0.000000 -1.000000
vn -0.000000 -0.000000 -1.000000
vn -0.000000 -0.000000 -1.000000
vn -0.000000 -0.000000 -1.000000
vn -0.000000 -0.000000 -1.000000
vn -0.000000 -0.000000 -1.000000
vn -0.000000 -0.000000 -1.000000
vn -0.025423 -0.457763 0.888710
vn -0.025423 -0.457763 0.888710
vn -0.025423 -0.457763 0.888710
vn -0.025423 -0.457763 0.888710
vn -0.000000 -0.607419 0.794382
vn -0.000000 -0.607419 0.794382
vn -0.000000 -0.607419 0.794382
vn -0.000000 -0.607419 0.794382
vn 0.000000 -0.607419 0.794382
vn 0.000000 -0.607419 0.794382
vn 0.000000 -0.607419 0.794382
vn 0.000000 -0.607419 0.794382
vn 0.800598 -0.599202 0.000000
vn 0.800598 -0.599202 0.000000
vn 0.800598 -0.599202 0.000000
vn 0.800598 -0.599202 0.000000
vn 0.800599 -0.599200 0.000000
vn 0.800599 -0.599200 0.000000
vn 0.800599 -0.599200 0.000000
vn 0.800599 -0.599200 0.000000
vn -0.788370 -0.615202 0.000000
vn -0.788370 -0.615202 0.000000
vn -0.788370 -0.615202 0.000000
vn -0.788370 -0.615202 0.000000
vn -0.788370 -0.615201 0.000000
vn -0.788370 -0.615201 0.000000
vn -0.788370 -0.615201 0.000000
vn -0.788370 -0.615201 0.000000
vn -0.318795 -0.947824 -0.000000
vn -0.318795 -0.947824 -0.000000
vn -0.318795 -0.947824 -0.000000
vn -0.318795 -0.947824 -0.000000
vn -0.318794 -0.947824 0.000000
vn -0.318794 -0.947824 0.000000
vn -0.318794 -0.947824 0.000000
vn -0.318794 -0.947824 0.000000
vn -0.708973 -0.705236 0.000000
vn -0.708973 -0.705236 0.000000
vn -0.708973 -0.705236 0.000000
vn -0.708973 -0.705236 0.000000
vn -0.708968 -0.705241 0.000000
vn -0.708968 -0.705241 0.000000
vn -0.708968 -0.705241 0.000000
vn -0.708968 -0.705241 0.000000
vn -0.572573 -0.819854 -0.000000
vn -0.572573 -0.819854 -0.000000
vn -0.572573 -0.819854 -0.000000
vn -0.572573 -0.819854 -0.000000
vn -0.572576 -0.819852 0.000000
vn -0.572576 -0.819852 0.000000
vn -0.572576 -0.819852 0.000000
vn -0.572576 -0.819852 0.000000
vn -0.112218 -0.606629 -0.787025
vn -0.112218 -0.606629 -0.787025
vn -0.112218 -0.606629 -0.787025
vn -0.112218 -0.606629 -0.787025
vn -0.682968 -0.730448 0.000000
vn -0.682968 -0.730448 0.000000
vn -0.682968 -0.730448 0.000000
vn -0.682968 -0.730448 0.000000
vn -0.682969 -0.730447 0.000000
vn -0.682969 -0.730447 0.000000
vn -0.682969 -0.730447 0.000000
vn -0.682969 -0.730447 0.000000
vn 0.918231 -0.396045 0.000000
vn 0.918231 -0.396045 0.000000
vn 0.918231 -0.396045 0.000000
vn 0.918231 -0.396045 0.000000
vn 0.918230 -0.396047 0.000000
vn 0.918230 -0.396046 0.000000
vn 0.918230 -0.396047 0.000000
vn 0.918230 -0.396047 0.000000
vn 0.007461 -0.826662 -0.562649
vn 0.007461 -0.826662 -0.562649
vn 0.007461 -0.826662 -0.562649
vn 0.007461 -0.826662 -0.562649
vn 0.419055 -0.907961 0.000000
vn 0.419055 -0.907961 0.000000
vn 0.419055 -0.907961 0.000000
vn 0.419055 -0.907961 0.000000
vn 0.419055 -0.907961 0.000000
vn 0.419055 -0.907961 0.000000
vn 0.419055 -0.907961 0.000000
vn 0.419055 -0.907961 0.000000
vn 0.007780 -0.857570 -0.514308
vn 0.007780 -0.857570 -0.514308
vn 0.007780 -0.857570 -0.514308
vn 0.007780 -0.857570 -0.514308
vn 0.969269 -0.246002 -0.000001
vn 0.969269 -0.246002 -0.000001
vn 0.969269 -0.246002 -0.000001
vn 0.969269 -0.246002 -0.000001
vn 0.969269 -0.246003 0.000000
vn 0.969269 -0.246003 0.000000
vn 0.969269 -0.246003 0.000000
vn 0.969269 -0.246003 0.000000
vn 0.699158 0.714967 -0.000000
vn 0.699158 0.714967 -0.000000
vn 0.699158 0.714967 -0.000000
vn 0.699158 0.714967 -0.000000
vn 0.699158 0.714968 -0.000000
vn 0.699158 0.714968 -0.000000
vn 0.699158 0.714968 -0.000000
vn 0.699158 0.714968 -0.000000
vn -0.147927 -0.988998 0.000000
vn -0.147927 -0.988998 0.000000
vn -0.147927 -0.988998 0.000000
vn -0.147927 -0.988998 0.000000
vn -0.147927 -0.988998 -0.000000
vn -0.147927 -0.988998 -0.000000
vn -0.147927 -0.988998 -0.000000
vn -0.147927 -0.988998 -0.000000
f 1/1/1 2/2/2 3/3/3
f 2/2/2 1/1/1 4/4/4
f 5/5/5 6/6/6 7/7/7
f 5/5/5 7/7/7 8/8/8
f 9/9/9 10/10/10 11/11/11
f 10/10/10 9/9/9 12/12/12
f 13/13/13 14/14/14 15/15/15
f 14/14/14 13/13/13 16/16/16
f 17/17/17 18/18/18 19/19/19
f 20/20/20 17/17/17 19/19/19
f 21/21/21 22/22/22 23/23/23
f 23/23/23 24/24/24 21/21/21
f 25/25/25 26/26/26 27/27/27
f 26/26/26 25/25/25 28/28/28
f 29/29/29 30/30/30 31/31/31
f 31/31/31 30/30/30 32/32/32
f 33/33/33 34/34/34 35/35/35
f 33/33/33 35/35/35 36/36/36
f 37/37/37 38/38/38 39/39/39
f 38/38/38 40/40/40 39/39/39
f 41/41/41 42/42/42 43/43/43
f 42/42/42 41/41/41 44/44/44
f 45/45/45 46/46/46 47/47/47
f 46/46/46 45/45/45 48/48/48
f 49/49/49 50/50/50 51/51/51
f 50/50/50 49/49/49 52/52/52
f 53/53/53 54/54/54 55/55/55
f 54/54/54 56/56/56 55/55/55
f 57/57/57 58/58/58 59/59/59
f 60/60/60 59/59/59 58/58/58
f 61/61/61 62/62/62 63/63/63
f 62/62/62 61/61/61 64/64/64
f 65/65/65 66/66/66 67/67/67
f 68/68/68 69/69/69 70/70/70
f 71/71/71 72/72/72 73/73/73
f 74/74/74 75/75/75 76/76/76
f 77/77/77 78/78/78 79/79/79
f 78/78/78 77/77/77 80/80/80
f 81/81/81 82/82/82 83/83/83
f 84/84/84 83/83/83 82/82/82
f 85/85/85 86/86/86 87/87/87
f 86/86/86 85/85/85 88/88/88
f 89/89/89 90/90/90 91/91/91
f 90/90/90 89/89/89 92/92/92
f 93/93/93 94/94/94 95/95/95
f 94/94/94 93/93/93 96/96/96
f 97/97/97 98/98/98 99/99/99
f 97/97/97 99/99/99 100/100/100
f 101/101/101 102/102/102 103/103/103
f 104/104/104 102/102/102 101/101/101
f 105/105/105 106/106/106 107/107/107
f 108/108/108 109/109/109 110/110/110
f 111/111/111 112/112/112 113/113/113
f 112/112/112 111/111/111 114/114/114
f 115/115/115 116/116/116 117/117/117
f 116/116/116 115/115/115 118/118/118
f 119/119/119 120/120/120 121/121/121
f 119/119/119 122/122/122 120/120/120
f 123/123/123 124/124/124 125/125/125
f 124/124/124 126/126/126 125/125/125
f 127/127/127 128/128/128 129/129/129
f 129/129/129 130/130/130 127/127/127
f 131/131/131 132/132/132 133/133/133
f 133/133/133 132/132/132 134/134/134
f 135/135/135 136/136/136 137/137/137
f 136/136/136 135/135/135 138/138/138
f 139/139/139 140/140/140 141/141/141
f 141/141/141 140/140/140 142/142/142
f 143/143/143 144/144/144 145/145/145
f 145/145/145 144/144/144 146/146/146
f 147/147/147 148/148/148 149/149/149
f 149/149/149 148/148/148 150/150/150
f 151/151/151 152/152/152 153/153/153
f 153/153/153 152/152/152 154/154/154
f 155/155/155 156/156/156 157/157/157
f 157/157/157 156/156/156 158/158/158
f 159/159/159 160/160/160 161/161/161
f 161/161/161 160/160/160 162/162/162
f 163/163/163 164/164/164 165/165/165
f 164/164/164 163/163/163 166/166/166
f 167/167/167 168/168/168 169/169/169
f 169/169/169 168/168/168 170/170/170
f 171/171/171 172/172/172 173/173/173
f 173/173/173 172/172/172 174/174/174
f 175/175/175 176/176/176 177/177/177
f 177/177/177 176/176/176 178/178/178
f 179/179/179 180/180/180 181/181/181
f 181/181/181 180/180/180 182/182/182
f 183/183/183 184/184/184 185/185/185
f 184/184/184 183/183/183 186/186/186
f 187/187/187 188/188/188 189/189/189
f 188/188/188 187/187/187 190/190/190
f 191/191/191 192/192/192 193/193/193
f 192/192/192 191/191/191 194/194/194
f 195/195/195 196/196/196 197/197/197
f 198/198/198 197/197/197 196/196/196
f 199/199/199 200/200/200 201/201/201
f 201/201/201 200/200/200 202/202/202
f 203/203/203 204/204/204 205/205/205
f 205/205/205 204/204/204 206/206/206
f 207/207/207 208/208/208 209/209/209
f 208/208/208 207/207/207 210/210/210
f 211/211/211 212/212/212 213/213/213
f 212/212/212 211/211/211 214/214/214
f 215/215/215 216/216/216 217/217/217
f 216/216/216 215/215/215 218/218/218
f 219/219/219 220/220/220 221/221/221
f 221/221/221 220/220/220 222/222/222
f 223/223/223 224/224/224 225/225/225
f 225/225/225 224/224/224 226/226/226
f 227/227/227 228/228/228 229/229/229
f 228/228/228 227/227/227 230/230/230
f 231/231/231 232/232/232 233/233/233
f 232/232/232 231/231/231 234/234/234
