# Generated from Roblox mesh JSON (v2.00)
# Hello from RBX_Toolbox ;)
o LeftLowerArm
v -0.422236 0.213040 0.525518
v -0.006195 0.213221 0.525518
v -0.009902 0.425877 0.525518
v -0.424854 0.426079 0.525518
v -0.010695 0.471363 0.510564
v 0.404024 0.471078 0.510564
v -0.425413 0.471647 0.510563
v -0.458131 0.459852 0.498932
v -0.469231 0.426101 0.510563
v -0.466730 0.213021 0.510564
v -0.464229 -0.000060 0.510564
v 0.405049 0.425675 0.525518
v 0.437152 0.459287 0.498933
v 0.449427 0.425653 0.510564
v -0.419618 0.000001 0.525518
v -0.461727 -0.213140 0.510564
v 0.409845 0.213403 0.525518
v 0.454339 0.213422 0.510564
v -0.002489 0.000566 0.525518
v -0.417000 -0.213038 0.525518
v -0.459226 -0.426220 0.510564
v 0.414641 0.001131 0.525519
v 0.459251 0.001191 0.510564
v 0.001218 -0.212090 0.525519
v -0.414382 -0.426077 0.525519
v -0.447195 -0.459940 0.498933
v -0.413823 -0.471645 0.510564
v 0.419436 -0.211141 0.525519
v 0.464163 -0.211040 0.510564
v 0.004925 -0.424745 0.525519
v 0.005718 -0.470231 0.510564
v 0.424232 -0.423413 0.525519
v 0.469076 -0.423271 0.510565
v 0.425258 -0.468817 0.510565
v 0.458219 -0.456937 0.498934
v -0.006195 0.213220 -0.525519
v -0.422236 0.213039 -0.525519
v -0.009902 0.425876 -0.525519
v -0.424853 0.426078 -0.525519
v -0.010695 0.471362 -0.510565
v 0.404024 0.471078 -0.510565
v -0.425413 0.471646 -0.510565
v -0.458130 0.459852 -0.498934
v -0.469231 0.426100 -0.510565
v -0.466730 0.213019 -0.510565
v -0.464229 -0.000061 -0.510564
v 0.405049 0.425674 -0.525519
v 0.437152 0.459287 -0.498933
v 0.449427 0.425652 -0.510564
v -0.419618 -0.000000 -0.525518
v -0.461727 -0.213141 -0.510564
v 0.409845 0.213402 -0.525518
v 0.454339 0.213421 -0.510564
v -0.002489 0.000565 -0.525518
v -0.417001 -0.213040 -0.525518
v -0.459226 -0.426221 -0.510564
v 0.414641 0.001130 -0.525518
v 0.459251 0.001190 -0.510564
v 0.001218 -0.212091 -0.525518
v -0.414383 -0.426079 -0.525518
v -0.447196 -0.459942 -0.498932
v -0.413823 -0.471647 -0.510563
v 0.419437 -0.211142 -0.525518
v 0.464164 -0.211041 -0.510564
v 0.004925 -0.424747 -0.525518
v 0.005718 -0.470232 -0.510563
v 0.424232 -0.423415 -0.525518
v 0.469076 -0.423272 -0.510563
v 0.425258 -0.468818 -0.510563
v 0.458219 -0.456938 -0.498932
v 0.005982 -0.485394 0.000000
v -0.413636 -0.486834 0.465701
v -0.413636 -0.486835 0.000000
v -0.458688 -0.471796 0.000000
v -0.458688 -0.471795 0.465701
v -0.447195 -0.459940 0.498933
v -0.413823 -0.471645 0.510564
v 0.005718 -0.470231 0.510564
v 0.005982 -0.485393 0.465702
v 0.425258 -0.468817 0.510565
v -0.413637 -0.486836 -0.465701
v -0.458689 -0.471797 -0.465701
v -0.447196 -0.459942 -0.498932
v -0.413823 -0.471647 -0.510563
v 0.005718 -0.470232 -0.510563
v 0.005982 -0.485394 -0.465701
v 0.425258 -0.468818 -0.510563
v 0.425600 -0.483952 0.465702
v 0.458219 -0.456937 0.498934
v 0.470123 -0.468667 0.465702
v 0.425600 -0.483952 0.000001
v 0.470124 -0.468668 0.000001
v 0.470124 -0.468668 -0.465700
v 0.425600 -0.483953 -0.465701
v 0.458219 -0.456938 -0.498932
v -0.469769 0.471676 -0.000001
v -0.469769 0.471676 0.465701
v -0.425600 0.486836 -0.000001
v -0.469769 0.471675 -0.465702
v -0.425600 0.486836 0.465701
v -0.458131 0.459852 0.498932
v -0.425413 0.471647 0.510563
v -0.425600 0.486835 -0.465702
v -0.458130 0.459852 -0.498934
v -0.425413 0.471646 -0.510565
v -0.010959 0.486524 -0.465702
v -0.010695 0.471362 -0.510565
v -0.010959 0.486524 -0.000001
v 0.403682 0.486212 -0.465702
v 0.404024 0.471078 -0.510565
v 0.437152 0.459287 -0.498933
v 0.448379 0.471048 -0.465702
v 0.403682 0.486213 -0.000000
v 0.448379 0.471049 -0.000000
v 0.448379 0.471049 0.465701
v -0.010959 0.486525 0.465701
v -0.010695 0.471363 0.510564
v 0.403682 0.486213 0.465701
v 0.437152 0.459287 0.498933
v 0.404024 0.471078 0.510564
v -0.481562 0.213014 -0.000000
v -0.484024 0.426108 0.465701
v -0.484024 0.426107 -0.000001
v -0.469769 0.471676 0.465701
v -0.458131 0.459852 0.498932
v -0.469769 0.471676 -0.000001
v -0.469231 0.426101 0.510563
v -0.481561 0.213014 0.465701
v -0.466730 0.213021 0.510564
v -0.464229 -0.000060 0.510564
v -0.479099 -0.000080 0.465701
v -0.461727 -0.213140 0.510564
v -0.481562 0.213013 -0.465702
v -0.476636 -0.213174 0.465701
v -0.459226 -0.426220 0.510564
v -0.479099 -0.000080 -0.000000
v -0.474174 -0.426267 0.465701
v -0.447195 -0.459940 0.498933
v -0.458688 -0.471795 0.465701
v -0.476637 -0.213174 0.000000
v -0.474174 -0.426268 0.000000
v -0.458688 -0.471796 0.000000
v -0.479099 -0.000081 -0.465701
v -0.476637 -0.213175 -0.465701
v -0.474175 -0.426269 -0.465701
v -0.458689 -0.471797 -0.465701
v -0.447196 -0.459942 -0.498932
v -0.459226 -0.426221 -0.510564
v -0.461727 -0.213141 -0.510564
v -0.464229 -0.000061 -0.510564
v -0.466730 0.213019 -0.510565
v -0.469231 0.426100 -0.510565
v -0.484024 0.426107 -0.465702
v -0.458130 0.459852 -0.498934
v -0.469769 0.471675 -0.465702
v 0.469171 0.213428 -0.000000
v 0.464219 0.425646 0.465701
v 0.469170 0.213429 0.465701
v 0.454339 0.213422 0.510564
v 0.449427 0.425653 0.510564
v 0.437152 0.459287 0.498933
v 0.448379 0.471049 0.465701
v 0.448379 0.471049 -0.000000
v 0.464219 0.425646 -0.000000
v 0.448379 0.471048 -0.465702
v 0.474121 0.001211 0.465701
v 0.459251 0.001191 0.510564
v 0.474122 0.001211 0.000000
v 0.464220 0.425645 -0.465702
v 0.437152 0.459287 -0.498933
v 0.449427 0.425652 -0.510564
v 0.454339 0.213421 -0.510564
v 0.469171 0.213428 -0.465701
v 0.474122 0.001210 -0.465701
v 0.459251 0.001190 -0.510564
v 0.479073 -0.211007 -0.465701
v 0.464164 -0.211041 -0.510564
v 0.479073 -0.211007 0.000000
v 0.484024 -0.423224 -0.465700
v 0.469076 -0.423272 -0.510563
v 0.458219 -0.456938 -0.498932
v 0.470124 -0.468668 -0.465700
v 0.470124 -0.468668 0.000001
v 0.479072 -0.211006 0.465701
v 0.484024 -0.423224 0.000001
v 0.464163 -0.211040 0.510564
v 0.484023 -0.423223 0.465702
v 0.470123 -0.468667 0.465702
v 0.469076 -0.423271 0.510565
v 0.458219 -0.456937 0.498934
vt 0.749404 0.492741
vt 0.856043 0.492741
vt 0.856043 0.527677
vt 0.749404 0.527677
vt 0.856043 0.542326
vt 0.962682 0.542326
vt 0.749404 0.542326
vt 0.734827 0.542326
vt 0.734827 0.527677
vt 0.734827 0.492741
vt 0.734827 0.457805
vt 0.962682 0.527677
vt 0.977260 0.542326
vt 0.977260 0.527677
vt 0.749404 0.457805
vt 0.734827 0.422869
vt 0.962682 0.492741
vt 0.977260 0.492741
vt 0.856043 0.457805
vt 0.749404 0.422869
vt 0.734827 0.387933
vt 0.962682 0.457805
vt 0.977260 0.457805
vt 0.856043 0.422869
vt 0.749404 0.387933
vt 0.734827 0.373284
vt 0.749404 0.373284
vt 0.962682 0.422869
vt 0.977260 0.422869
vt 0.856043 0.387933
vt 0.856043 0.373284
vt 0.962682 0.387933
vt 0.977260 0.387933
vt 0.962682 0.373284
vt 0.977260 0.373284
vt 0.371223 0.492741
vt 0.476823 0.492741
vt 0.371223 0.527677
vt 0.476823 0.527677
vt 0.371223 0.542326
vt 0.265623 0.542326
vt 0.476823 0.542326
vt 0.492421 0.542326
vt 0.492421 0.527677
vt 0.492421 0.492741
vt 0.492421 0.457805
vt 0.265623 0.527677
vt 0.250005 0.542326
vt 0.250005 0.527677
vt 0.476823 0.457805
vt 0.492421 0.422869
vt 0.265623 0.492741
vt 0.250005 0.492741
vt 0.371223 0.457805
vt 0.476823 0.422869
vt 0.492421 0.387933
vt 0.265623 0.457805
vt 0.250005 0.457805
vt 0.371223 0.422869
vt 0.476823 0.387933
vt 0.492421 0.373284
vt 0.476823 0.373284
vt 0.265623 0.422869
vt 0.250005 0.422869
vt 0.371223 0.387933
vt 0.371223 0.373284
vt 0.265623 0.387933
vt 0.250005 0.387933
vt 0.265623 0.373284
vt 0.250005 0.373284
vt 0.204651 0.302812
vt 0.257456 0.253037
vt 0.257456 0.302812
vt 0.264986 0.302812
vt 0.264986 0.253037
vt 0.264986 0.246643
vt 0.257456 0.246643
vt 0.204651 0.246643
vt 0.204651 0.253037
vt 0.151846 0.246643
vt 0.257456 0.352588
vt 0.264986 0.352588
vt 0.264986 0.358981
vt 0.257456 0.358981
vt 0.204651 0.358981
vt 0.204651 0.352588
vt 0.151846 0.358981
vt 0.151846 0.253037
vt 0.144100 0.246643
vt 0.144100 0.253037
vt 0.151846 0.302812
vt 0.144100 0.302812
vt 0.144100 0.352588
vt 0.151846 0.352588
vt 0.144100 0.358981
vt 0.128720 0.302806
vt 0.128720 0.354434
vt 0.123244 0.302806
vt 0.128720 0.251179
vt 0.123244 0.354434
vt 0.128720 0.359072
vt 0.123244 0.359072
vt 0.123244 0.251179
vt 0.128720 0.246541
vt 0.123244 0.246541
vt 0.068241 0.251179
vt 0.068241 0.246541
vt 0.068241 0.302806
vt 0.013239 0.251179
vt 0.013239 0.246541
vt 0.007706 0.246541
vt 0.007706 0.251179
vt 0.013239 0.302806
vt 0.007706 0.302806
vt 0.007706 0.354434
vt 0.068241 0.354434
vt 0.068241 0.359072
vt 0.013239 0.354434
vt 0.007706 0.359072
vt 0.013239 0.359072
vt 0.613624 0.492741
vt 0.720603 0.527677
vt 0.613624 0.527677
vt 0.720603 0.542326
vt 0.734827 0.542326
vt 0.613624 0.542326
vt 0.734827 0.527677
vt 0.720603 0.492741
vt 0.734827 0.492741
vt 0.734827 0.457805
vt 0.720603 0.457805
vt 0.734827 0.422869
vt 0.506645 0.492741
vt 0.720603 0.422869
vt 0.734827 0.387933
vt 0.613624 0.457805
vt 0.720603 0.387933
vt 0.734827 0.373284
vt 0.720603 0.373284
vt 0.613624 0.422869
vt 0.613624 0.387933
vt 0.613624 0.373284
vt 0.506645 0.457805
vt 0.506645 0.422869
vt 0.506645 0.387933
vt 0.506645 0.373284
vt 0.492421 0.373284
vt 0.492421 0.387933
vt 0.492421 0.422869
vt 0.492421 0.457805
vt 0.492421 0.492741
vt 0.492421 0.527677
vt 0.506645 0.527677
vt 0.492421 0.542326
vt 0.506645 0.542326
vt 0.128677 0.492741
vt 0.021962 0.527677
vt 0.021962 0.492741
vt 0.007669 0.492741
vt 0.007669 0.527677
vt 0.007669 0.542326
vt 0.021962 0.542326
vt 0.128677 0.542326
vt 0.128677 0.527677
vt 0.235392 0.542326
vt 0.021962 0.457805
vt 0.007669 0.457805
vt 0.128677 0.457805
vt 0.235392 0.527677
vt 0.250005 0.542326
vt 0.250005 0.527677
vt 0.250005 0.492741
vt 0.235392 0.492741
vt 0.235392 0.457805
vt 0.250005 0.457805
vt 0.235392 0.422869
vt 0.250005 0.422869
vt 0.128677 0.422869
vt 0.235392 0.387933
vt 0.250005 0.387933
vt 0.250005 0.373284
vt 0.235392 0.373284
vt 0.128677 0.373284
vt 0.021962 0.422869
vt 0.128677 0.387933
vt 0.007669 0.422869
vt 0.021962 0.387933
vt 0.021962 0.373284
vt 0.007669 0.387933
vt 0.007669 0.373284
vn -0.032484 -0.000389 0.999472
vn -0.000000 0.000001 1.000000
vn 0.000033 0.057759 0.998331
vn -0.031963 0.057270 0.997847
vn 0.000183 0.312323 0.949976
vn 0.027992 0.699690 0.713898
vn -0.027474 0.703081 0.710579
vn -0.587745 0.564208 0.579849
vn -0.711135 0.042028 0.701798
vn -0.318583 -0.003826 0.947887
vn -0.317831 -0.003817 0.948140
vn 0.031116 0.056760 0.997903
vn 0.579463 0.578119 0.574458
vn 0.706354 0.066249 0.704752
vn -0.032399 -0.000388 0.999475
vn -0.317083 -0.003808 0.948390
vn 0.032425 0.000743 0.999474
vn 0.318570 0.007286 0.947871
vn -0.000000 0.000001 1.000000
vn -0.032314 -0.000387 0.999478
vn -0.705442 -0.058617 0.706339
vn 0.032339 0.000741 0.999477
vn 0.317815 0.007269 0.948125
vn -0.000001 0.000001 1.000000
vn -0.031025 -0.057125 0.997885
vn -0.576818 -0.575817 0.579409
vn -0.025093 -0.700826 0.712891
vn 0.032254 0.000739 0.999479
vn 0.317065 0.007252 0.948376
vn 0.000189 -0.057905 0.998322
vn 0.001022 -0.312308 0.949980
vn 0.032022 -0.057513 0.997831
vn 0.709421 -0.034610 0.703935
vn 0.030038 -0.704435 0.709132
vn 0.586148 -0.563363 0.582283
vn 0.000000 -0.000001 -1.000000
vn -0.032483 -0.000391 -0.999472
vn 0.000034 0.057757 -0.998331
vn -0.031962 0.057268 -0.997847
vn 0.000183 0.312321 -0.949977
vn 0.027993 0.699690 -0.713898
vn -0.027474 0.703079 -0.710581
vn -0.587744 0.564206 -0.579852
vn -0.711133 0.042026 -0.701800
vn -0.318581 -0.003828 -0.947888
vn -0.317832 -0.003819 -0.948139
vn 0.031116 0.056757 -0.997903
vn 0.579461 0.578121 -0.574456
vn 0.706353 0.066248 -0.704753
vn -0.032398 -0.000390 -0.999475
vn -0.317084 -0.003810 -0.948390
vn 0.032425 0.000740 -0.999474
vn 0.318568 0.007284 -0.947872
vn 0.000000 -0.000001 -1.000000
vn -0.032314 -0.000389 -0.999478
vn -0.705440 -0.058618 -0.706342
vn 0.032340 0.000738 -0.999477
vn 0.317815 0.007267 -0.948125
vn 0.000000 -0.000001 -1.000000
vn -0.031025 -0.057127 -0.997885
vn -0.576819 -0.575816 -0.579410
vn -0.025093 -0.700826 -0.712891
vn 0.032255 0.000736 -0.999479
vn 0.317066 0.007250 -0.948376
vn 0.000190 -0.057908 -0.998322
vn 0.001023 -0.312311 -0.949979
vn 0.032023 -0.057515 -0.997831
vn 0.709421 -0.034611 -0.703935
vn 0.030039 -0.704437 -0.709131
vn 0.586150 -0.563362 -0.582282
vn 0.003435 -0.999994 0.000001
vn -0.028831 -0.999154 0.029321
vn -0.029250 -0.999572 0.000002
vn -0.316640 -0.948546 0.000002
vn -0.706990 -0.706786 0.024896
vn -0.576818 -0.575817 0.579409
vn -0.025093 -0.700826 0.712891
vn 0.003224 -0.947348 0.320190
vn 0.003431 -0.999553 0.029684
vn 0.030038 -0.704435 0.709132
vn -0.028831 -0.999154 -0.029318
vn -0.706988 -0.706787 -0.024893
vn -0.576819 -0.575816 -0.579410
vn -0.025093 -0.700826 -0.712891
vn 0.003224 -0.947348 -0.320190
vn 0.003431 -0.999554 -0.029681
vn 0.030039 -0.704437 -0.709131
vn 0.035614 -0.998940 0.029163
vn 0.586148 -0.563363 0.582283
vn 0.720369 -0.693138 0.025089
vn 0.036014 -0.999351 0.000001
vn 0.324694 -0.945819 0.000001
vn 0.720369 -0.693137 -0.025087
vn 0.035615 -0.998940 -0.029161
vn 0.586150 -0.563362 -0.582282
vn -0.324633 0.945840 -0.000001
vn -0.720305 0.693208 0.024945
vn -0.032346 0.999477 -0.000001
vn -0.720305 0.693209 -0.024947
vn -0.031938 0.999062 0.029240
vn -0.587745 0.564208 0.579849
vn -0.027474 0.703081 0.710579
vn -0.031938 0.999062 -0.029241
vn -0.587744 0.564206 -0.579852
vn -0.027474 0.703079 -0.710581
vn 0.000748 0.999559 -0.029687
vn 0.000681 0.947360 -0.320168
vn 0.000751 1.000000 -0.000001
vn 0.033228 0.999018 -0.029317
vn 0.027993 0.699690 -0.713898
vn 0.579461 0.578121 -0.574456
vn 0.706961 0.706824 -0.024607
vn 0.033672 0.999433 -0.000001
vn 0.321273 0.946987 -0.000001
vn 0.706962 0.706824 0.024606
vn 0.000748 0.999559 0.029685
vn 0.000680 0.947360 0.320168
vn 0.033228 0.999018 0.029315
vn 0.579463 0.578119 0.574458
vn 0.027992 0.699690 0.713898
vn -0.999933 -0.011554 0.000000
vn -0.998590 0.044971 0.028207
vn -0.998962 0.045543 -0.000000
vn -0.720305 0.693208 0.024945
vn -0.587745 0.564208 0.579849
vn -0.954393 0.298553 -0.000001
vn -0.711135 0.042028 0.701798
vn -0.999512 -0.011558 0.029035
vn -0.949400 -0.011058 0.313874
vn -0.949155 -0.011055 0.314616
vn -0.999509 -0.011558 0.029111
vn -0.948909 -0.011052 0.315357
vn -0.999512 -0.011557 -0.029035
vn -0.999507 -0.011558 0.029187
vn -0.705442 -0.058617 0.706339
vn -0.999933 -0.011554 0.000000
vn -0.997236 -0.068627 0.028479
vn -0.576818 -0.575817 0.579409
vn -0.706990 -0.706786 0.024896
vn -0.999933 -0.011555 0.000001
vn -0.997600 -0.069234 0.000001
vn -0.946732 -0.322022 0.000001
vn -0.999509 -0.011557 -0.029111
vn -0.999507 -0.011557 -0.029187
vn -0.997236 -0.068627 -0.028478
vn -0.706988 -0.706787 -0.024893
vn -0.576819 -0.575816 -0.579410
vn -0.705440 -0.058618 -0.706342
vn -0.948906 -0.011052 -0.315364
vn -0.949153 -0.011055 -0.314622
vn -0.949400 -0.011057 -0.313876
vn -0.711133 0.042026 -0.701800
vn -0.998590 0.044972 -0.028207
vn -0.587744 0.564206 -0.579852
vn -0.720305 0.693209 -0.024947
vn 0.999728 0.023324 0.000000
vn 0.996409 0.079807 0.028274
vn 0.999307 0.023306 0.029030
vn 0.949229 0.022058 0.313811
vn 0.706354 0.066249 0.704752
vn 0.579463 0.578119 0.574458
vn 0.706962 0.706824 0.024606
vn 0.944187 0.329410 -0.000000
vn 0.996759 0.080444 0.000000
vn 0.706961 0.706824 -0.024607
vn 0.999305 0.023306 0.029107
vn 0.948982 0.022052 0.314557
vn 0.999728 0.023324 0.000000
vn 0.996409 0.079807 -0.028274
vn 0.579461 0.578121 -0.574456
vn 0.706353 0.066248 -0.704753
vn 0.949229 0.022058 -0.313813
vn 0.999307 0.023306 -0.029030
vn 0.999305 0.023306 -0.029107
vn 0.948981 0.022052 -0.314560
vn 0.999302 0.023306 -0.029183
vn 0.948734 0.022046 -0.315306
vn 0.999728 0.023324 0.000000
vn 0.999013 -0.034155 -0.028414
vn 0.709421 -0.034611 -0.703935
vn 0.586150 -0.563362 -0.582282
vn 0.720369 -0.693137 -0.025087
vn 0.956267 -0.292495 0.000001
vn 0.999302 0.023305 0.029184
vn 0.999397 -0.034710 0.000000
vn 0.948735 0.022046 0.315302
vn 0.999013 -0.034155 0.028415
vn 0.720369 -0.693138 0.025089
vn 0.709421 -0.034610 0.703935
vn 0.586148 -0.563363 0.582283
f 1/1/1 2/2/2 3/3/3
f 1/1/1 3/3/3 4/4/4
f 5/5/5 4/4/4 3/3/3
f 3/3/3 6/6/6 5/5/5
f 4/4/4 5/5/5 7/7/7
f 8/8/8 4/4/4 7/7/7
f 4/4/4 8/8/8 9/9/9
f 10/10/10 4/4/4 9/9/9
f 1/1/1 4/4/4 10/10/10
f 11/11/11 1/1/1 10/10/10
f 6/6/6 3/3/3 12/12/12
f 2/2/2 12/12/12 3/3/3
f 12/12/12 13/13/13 6/6/6
f 13/13/13 12/12/12 14/14/14
f 15/15/15 1/1/1 11/11/11
f 15/15/15 2/2/2 1/1/1
f 16/16/16 15/15/15 11/11/11
f 17/17/17 14/14/14 12/12/12
f 2/2/2 17/17/17 12/12/12
f 18/18/18 14/14/14 17/17/17
f 15/15/15 19/19/19 2/2/2
f 19/19/19 17/17/17 2/2/2
f 20/20/20 15/15/15 16/16/16
f 20/20/20 19/19/19 15/15/15
f 21/21/21 20/20/20 16/16/16
f 22/22/22 18/18/18 17/17/17
f 19/19/19 22/22/22 17/17/17
f 23/23/23 18/18/18 22/22/22
f 19/19/19 20/20/20 24/24/24
f 24/24/24 22/22/22 19/19/19
f 25/25/25 20/20/20 21/21/21
f 25/25/25 24/24/24 20/20/20
f 26/26/26 25/25/25 21/21/21
f 25/25/25 26/26/26 27/27/27
f 28/28/28 23/23/23 22/22/22
f 22/22/22 24/24/24 28/28/28
f 29/29/29 23/23/23 28/28/28
f 24/24/24 25/25/25 30/30/30
f 27/27/27 30/30/30 25/25/25
f 30/30/30 28/28/28 24/24/24
f 30/30/30 27/27/27 31/31/31
f 32/32/32 29/29/29 28/28/28
f 28/28/28 30/30/30 32/32/32
f 31/31/31 32/32/32 30/30/30
f 33/33/33 29/29/29 32/32/32
f 32/32/32 31/31/31 34/34/34
f 35/35/35 33/33/33 32/32/32
f 34/34/34 35/35/35 32/32/32
f 36/36/36 37/37/37 38/38/38
f 39/39/39 38/38/38 37/37/37
f 39/39/39 40/40/40 38/38/38
f 41/41/41 38/38/38 40/40/40
f 40/40/40 39/39/39 42/42/42
f 39/39/39 43/43/43 42/42/42
f 43/43/43 39/39/39 44/44/44
f 39/39/39 45/45/45 44/44/44
f 45/45/45 39/39/39 37/37/37
f 37/37/37 46/46/46 45/45/45
f 38/38/38 41/41/41 47/47/47
f 41/41/41 48/48/48 47/47/47
f 38/38/38 47/47/47 36/36/36
f 48/48/48 49/49/49 47/47/47
f 46/46/46 37/37/37 50/50/50
f 36/36/36 50/50/50 37/37/37
f 50/50/50 51/51/51 46/46/46
f 49/49/49 52/52/52 47/47/47
f 52/52/52 36/36/36 47/47/47
f 52/52/52 49/49/49 53/53/53
f 50/50/50 36/36/36 54/54/54
f 52/52/52 54/54/54 36/36/36
f 51/51/51 50/50/50 55/55/55
f 54/54/54 55/55/55 50/50/50
f 55/55/55 56/56/56 51/51/51
f 53/53/53 57/57/57 52/52/52
f 54/54/54 52/52/52 57/57/57
f 57/57/57 53/53/53 58/58/58
f 55/55/55 54/54/54 59/59/59
f 57/57/57 59/59/59 54/54/54
f 56/56/56 55/55/55 60/60/60
f 59/59/59 60/60/60 55/55/55
f 60/60/60 61/61/61 56/56/56
f 61/61/61 60/60/60 62/62/62
f 58/58/58 63/63/63 57/57/57
f 59/59/59 57/57/57 63/63/63
f 63/63/63 58/58/58 64/64/64
f 60/60/60 59/59/59 65/65/65
f 60/60/60 65/65/65 62/62/62
f 63/63/63 65/65/65 59/59/59
f 66/66/66 62/62/62 65/65/65
f 64/64/64 67/67/67 63/63/63
f 65/65/65 63/63/63 67/67/67
f 65/65/65 67/67/67 66/66/66
f 67/67/67 64/64/64 68/68/68
f 69/69/69 66/66/66 67/67/67
f 70/70/70 67/67/67 68/68/68
f 67/67/67 70/70/70 69/69/69
f 71/71/71 72/72/72 73/73/73
f 73/73/73 72/72/72 74/74/74
f 74/74/74 72/72/72 75/75/75
f 72/72/72 76/76/76 75/75/75
f 76/76/76 72/72/72 77/77/77
f 72/72/72 78/78/78 77/77/77
f 78/78/78 72/72/72 79/79/79
f 72/72/72 71/71/71 79/79/79
f 79/79/79 80/80/80 78/78/78
f 74/74/74 81/81/81 73/73/73
f 81/81/81 74/74/74 82/82/82
f 83/83/83 81/81/81 82/82/82
f 81/81/81 83/83/83 84/84/84
f 85/85/85 81/81/81 84/84/84
f 81/81/81 86/86/86 73/73/73
f 81/81/81 85/85/85 86/86/86
f 86/86/86 71/71/71 73/73/73
f 87/87/87 86/86/86 85/85/85
f 71/71/71 88/88/88 79/79/79
f 80/80/80 79/79/79 88/88/88
f 88/88/88 89/89/89 80/80/80
f 89/89/89 88/88/88 90/90/90
f 88/88/88 71/71/71 91/91/91
f 91/91/91 90/90/90 88/88/88
f 86/86/86 91/91/91 71/71/71
f 92/92/92 90/90/90 91/91/91
f 91/91/91 93/93/93 92/92/92
f 91/91/91 86/86/86 94/94/94
f 93/93/93 91/91/91 94/94/94
f 86/86/86 87/87/87 94/94/94
f 95/95/95 93/93/93 94/94/94
f 87/87/87 95/95/95 94/94/94
f 96/96/96 97/97/97 98/98/98
f 98/98/98 99/99/99 96/96/96
f 98/98/98 97/97/97 100/100/100
f 101/101/101 100/100/100 97/97/97
f 100/100/100 101/101/101 102/102/102
f 99/99/99 98/98/98 103/103/103
f 104/104/104 99/99/99 103/103/103
f 105/105/105 104/104/104 103/103/103
f 106/106/106 105/105/105 103/103/103
f 98/98/98 106/106/106 103/103/103
f 105/105/105 106/106/106 107/107/107
f 100/100/100 108/108/108 98/98/98
f 106/106/106 98/98/98 108/108/108
f 109/109/109 107/107/107 106/106/106
f 109/109/109 106/106/106 108/108/108
f 107/107/107 109/109/109 110/110/110
f 109/109/109 111/111/111 110/110/110
f 111/111/111 109/109/109 112/112/112
f 113/113/113 112/112/112 109/109/109
f 109/109/109 108/108/108 113/113/113
f 112/112/112 113/113/113 114/114/114
f 113/113/113 115/115/115 114/114/114
f 108/108/108 100/100/100 116/116/116
f 113/113/113 108/108/108 116/116/116
f 102/102/102 116/116/116 100/100/100
f 116/116/116 102/102/102 117/117/117
f 113/113/113 116/116/116 118/118/118
f 115/115/115 113/113/113 118/118/118
f 117/117/117 118/118/118 116/116/116
f 118/118/118 119/119/119 115/115/115
f 118/118/118 117/117/117 120/120/120
f 119/119/119 118/118/118 120/120/120
f 121/121/121 122/122/122 123/123/123
f 124/124/124 123/123/123 122/122/122
f 122/122/122 125/125/125 124/124/124
f 123/123/123 124/124/124 126/126/126
f 125/125/125 122/122/122 127/127/127
f 122/122/122 128/128/128 127/127/127
f 122/122/122 121/121/121 128/128/128
f 129/129/129 127/127/127 128/128/128
f 128/128/128 130/130/130 129/129/129
f 130/130/130 128/128/128 131/131/131
f 121/121/121 131/131/131 128/128/128
f 131/131/131 132/132/132 130/130/130
f 133/133/133 121/121/121 123/123/123
f 132/132/132 131/131/131 134/134/134
f 134/134/134 135/135/135 132/132/132
f 131/131/131 121/121/121 136/136/136
f 136/136/136 134/134/134 131/131/131
f 133/133/133 136/136/136 121/121/121
f 135/135/135 134/134/134 137/137/137
f 137/137/137 138/138/138 135/135/135
f 138/138/138 137/137/137 139/139/139
f 140/140/140 137/137/137 134/134/134
f 134/134/134 136/136/136 140/140/140
f 141/141/141 139/139/139 137/137/137
f 137/137/137 140/140/140 141/141/141
f 142/142/142 139/139/139 141/141/141
f 143/143/143 140/140/140 136/136/136
f 136/136/136 133/133/133 143/143/143
f 144/144/144 141/141/141 140/140/140
f 140/140/140 143/143/143 144/144/144
f 145/145/145 142/142/142 141/141/141
f 141/141/141 144/144/144 145/145/145
f 146/146/146 142/142/142 145/145/145
f 147/147/147 146/146/146 145/145/145
f 148/148/148 147/147/147 145/145/145
f 144/144/144 148/148/148 145/145/145
f 148/148/148 144/144/144 149/149/149
f 143/143/143 149/149/149 144/144/144
f 149/149/149 143/143/143 150/150/150
f 133/133/133 150/150/150 143/143/143
f 150/150/150 133/133/133 151/151/151
f 133/133/133 152/152/152 151/151/151
f 152/152/152 133/133/133 153/153/153
f 123/123/123 153/153/153 133/133/133
f 153/153/153 154/154/154 152/152/152
f 126/126/126 153/153/153 123/123/123
f 154/154/154 153/153/153 155/155/155
f 153/153/153 126/126/126 155/155/155
f 156/156/156 157/157/157 158/158/158
f 158/158/158 157/157/157 159/159/159
f 160/160/160 159/159/159 157/157/157
f 157/157/157 161/161/161 160/160/160
f 161/161/161 157/157/157 162/162/162
f 157/157/157 163/163/163 162/162/162
f 163/163/163 157/157/157 164/164/164
f 157/157/157 156/156/156 164/164/164
f 164/164/164 165/165/165 163/163/163
f 159/159/159 166/166/166 158/158/158
f 166/166/166 159/159/159 167/167/167
f 156/156/156 158/158/158 168/168/168
f 168/168/168 158/158/158 166/166/166
f 165/165/165 164/164/164 169/169/169
f 170/170/170 165/165/165 169/169/169
f 171/171/171 170/170/170 169/169/169
f 169/169/169 172/172/172 171/171/171
f 164/164/164 173/173/173 169/169/169
f 172/172/172 169/169/169 173/173/173
f 173/173/173 164/164/164 156/156/156
f 174/174/174 172/172/172 173/173/173
f 156/156/156 174/174/174 173/173/173
f 174/174/174 156/156/156 168/168/168
f 172/172/172 174/174/174 175/175/175
f 176/176/176 175/175/175 174/174/174
f 168/168/168 176/176/176 174/174/174
f 175/175/175 176/176/176 177/177/177
f 176/176/176 168/168/168 178/178/178
f 166/166/166 178/178/178 168/168/168
f 179/179/179 177/177/177 176/176/176
f 178/178/178 179/179/179 176/176/176
f 177/177/177 179/179/179 180/180/180
f 179/179/179 181/181/181 180/180/180
f 181/181/181 179/179/179 182/182/182
f 179/179/179 183/183/183 182/182/182
f 178/178/178 166/166/166 184/184/184
f 167/167/167 184/184/184 166/166/166
f 179/179/179 178/178/178 185/185/185
f 183/183/183 179/179/179 185/185/185
f 178/178/178 184/184/184 185/185/185
f 184/184/184 167/167/167 186/186/186
f 185/185/185 187/187/187 183/183/183
f 185/185/185 184/184/184 187/187/187
f 186/186/186 187/187/187 184/184/184
f 183/183/183 187/187/187 188/188/188
f 187/187/187 186/186/186 189/189/189
f 187/187/187 190/190/190 188/188/188
f 190/190/190 187/187/187 189/189/189
