# Generated from Roblox mesh JSON (v2.00)
# Hello from RBX_Toolbox ;)
o RightLowerLeg_inner_cage
v 0.432687 0.464964 0.422212
v 0.432689 0.363018 0.605402
v 0.432689 0.363018 0.422208
v 0.432674 0.464964 0.605403
v 0.432689 0.245362 0.605402
v 0.432689 0.245362 0.422208
v -0.023744 0.363018 0.605402
v -0.023755 0.464964 0.605404
v -0.023744 0.245362 0.605402
v 0.432689 0.121768 0.422208
v 0.432689 -0.033197 0.605402
v 0.432689 -0.033196 0.422208
v 0.432689 0.121768 0.605402
v -0.023744 -0.033197 0.605402
v -0.023744 0.121768 0.605402
v 0.432689 -0.169057 0.605402
v 0.432689 -0.033197 0.605402
v -0.023744 -0.169057 0.605402
v 0.432689 -0.169057 0.422208
v 0.432689 -0.033196 0.422208
v 0.432689 -0.319325 0.605402
v -0.023744 -0.319326 0.605402
v 0.432689 -0.169057 0.605402
v 0.432689 -0.319325 0.422208
v 0.432689 -0.169057 0.422208
v 0.432689 -0.319325 0.422208
v 0.432689 -0.464964 0.605402
v 0.432689 -0.464964 0.422208
v 0.432689 -0.319325 0.605402
v -0.023744 -0.464964 0.605402
v -0.023744 -0.319326 0.605402
v 0.432689 0.121768 0.422208
v 0.432689 0.245362 0.422208
v 0.432689 0.245362 0.605402
v 0.432689 0.121768 0.605402
v -0.023744 0.245362 0.605402
v -0.023744 0.121768 0.605402
v -0.023744 0.363018 0.605402
v -0.432683 0.363018 0.605402
v -0.023744 0.245362 0.605402
v -0.432683 0.245362 0.605402
v -0.023755 0.464964 0.605404
v -0.432689 0.464964 0.605399
v -0.023744 0.121768 0.605402
v -0.432683 -0.033197 0.605402
v -0.023744 -0.033197 0.605402
v -0.432683 0.121768 0.605402
v -0.023744 -0.319326 0.605402
v -0.432683 -0.464964 0.605402
v -0.023744 -0.464964 0.605402
v -0.432683 -0.319325 0.605402
v -0.023744 -0.033197 0.605402
v -0.432683 -0.033197 0.605402
v -0.023744 -0.169057 0.605402
v -0.432683 -0.169057 0.605402
v -0.023744 -0.169057 0.605402
v -0.432683 -0.319325 0.605402
v -0.023744 -0.319326 0.605402
v -0.432683 -0.169057 0.605402
v -0.023744 0.245362 0.605402
v -0.432683 0.245362 0.605402
v -0.023744 0.121768 0.605402
v -0.432683 0.121768 0.605402
v 0.432689 -0.033197 -0.602018
v -0.023744 0.121768 -0.602018
v 0.432689 0.121768 -0.602019
v 0.432689 0.121768 -0.397798
v 0.432689 -0.033197 -0.397798
v -0.023744 -0.033197 -0.602018
v -0.432683 0.121768 -0.602018
v -0.432683 -0.033197 -0.602018
v 0.432689 -0.464964 -0.602018
v -0.023744 -0.319326 -0.602018
v 0.432689 -0.319326 -0.602018
v 0.432689 -0.464964 -0.397798
v 0.432689 -0.319325 -0.397798
v -0.023744 -0.464964 -0.602018
v -0.432683 -0.464964 -0.602018
v -0.432683 -0.319121 -0.602018
v 0.432689 -0.169057 -0.602018
v -0.023744 -0.319326 -0.602018
v -0.023744 -0.169057 -0.602018
v -0.432683 -0.319121 -0.602018
v -0.432683 -0.169030 -0.602018
v 0.432689 -0.319326 -0.602018
v 0.432689 -0.319325 -0.397798
v 0.432689 -0.169057 -0.397798
v -0.023744 0.121768 -0.602018
v -0.432683 0.121768 -0.602018
v -0.023744 0.245362 -0.602019
v -0.432683 0.245362 -0.602018
v 0.432689 0.245362 -0.602018
v 0.432689 0.121768 -0.602019
v 0.432689 0.121768 -0.397798
v 0.432689 0.245362 -0.397798
v -0.023744 0.363018 -0.603634
v 0.432689 0.363018 -0.603634
v 0.432689 0.245362 -0.602018
v 0.432689 0.363018 -0.397798
v 0.432689 0.245362 -0.397798
v 0.432687 0.464964 -0.401186
v 0.432674 0.464964 -0.605402
v -0.023744 0.245362 -0.602019
v -0.023754 0.464964 -0.605404
v -0.432683 0.363018 -0.603634
v -0.432683 0.245362 -0.602018
v -0.432688 0.464964 -0.605398
v -0.432683 0.363018 -0.014582
v -0.432683 0.363018 -0.603634
v -0.432683 0.245362 -0.602018
v -0.432683 0.245362 -0.014581
v -0.432686 0.464964 -0.014582
v -0.432688 0.464964 -0.605398
v -0.432683 0.363018 0.605402
v -0.432683 0.363018 -0.014582
v -0.432683 0.245362 -0.014581
v -0.432683 0.245362 0.605402
v -0.432689 0.464964 0.605399
v -0.432686 0.464964 -0.014582
v -0.432683 -0.033197 -0.602018
v -0.432683 -0.033197 -0.014582
v -0.432683 0.121768 -0.602018
v -0.432683 0.121768 -0.014582
v -0.432683 -0.033197 -0.014582
v -0.432683 -0.033197 0.605402
v -0.432683 0.121768 -0.014582
v -0.432683 0.121768 0.605402
v -0.432683 -0.464964 -0.602018
v -0.432683 -0.319325 -0.014582
v -0.432683 -0.319121 -0.602018
v -0.432683 -0.464964 -0.014582
v -0.432683 -0.464964 0.605402
v -0.432683 -0.319325 -0.014582
v -0.432683 -0.464964 -0.014582
v -0.432683 -0.319325 0.605402
v -0.432683 -0.169030 -0.602018
v -0.432683 -0.033197 -0.014582
v -0.432683 -0.033197 -0.602018
v -0.432683 -0.169057 -0.014582
v -0.432683 -0.169057 0.605402
v -0.432683 -0.033197 -0.014582
v -0.432683 -0.169057 -0.014582
v -0.432683 -0.033197 0.605402
v -0.432683 -0.319121 -0.602018
v -0.432683 -0.169057 -0.014582
v -0.432683 -0.169030 -0.602018
v -0.432683 -0.319325 -0.014582
v -0.432683 -0.319325 -0.014582
v -0.432683 -0.319325 0.605402
v -0.432683 -0.169057 -0.014582
v -0.432683 -0.169057 0.605402
v -0.432683 0.121768 -0.014582
v -0.432683 0.121768 0.605402
v -0.432683 0.245362 -0.014581
v -0.432683 0.245362 0.605402
v -0.432683 0.121768 -0.602018
v -0.432683 0.121768 -0.014582
v -0.432683 0.245362 -0.602018
v -0.432683 0.245362 -0.014581
v 0.432689 0.121768 -0.397798
v 0.432689 0.121768 -0.014582
v 0.432689 -0.033197 -0.397798
v 0.432689 -0.033196 -0.014581
v 0.432689 -0.169057 -0.602018
v 0.432689 -0.169057 -0.397798
v 0.432689 -0.033197 -0.602018
v -0.023744 -0.033197 -0.602018
v -0.023744 -0.169057 -0.602018
v -0.432683 -0.169030 -0.602018
v -0.432683 -0.033197 -0.602018
v 0.432689 0.245362 -0.014581
v 0.432689 0.363018 0.422208
v 0.432689 0.245362 0.422208
v 0.432689 0.363018 -0.014582
v 0.432686 0.464964 -0.014580
v 0.432687 0.464964 0.422212
v 0.432689 0.245362 -0.397798
v 0.432689 0.363018 -0.014582
v 0.432689 0.245362 -0.014581
v 0.432689 0.363018 -0.397798
v 0.432686 0.464964 -0.014580
v 0.432687 0.464964 -0.401186
v 0.432689 -0.319325 -0.397798
v 0.432689 -0.319325 -0.014582
v 0.432689 -0.464964 -0.397798
v 0.432689 -0.464964 -0.014582
v 0.432689 0.121768 -0.014582
v 0.432689 0.121768 0.422208
v 0.432689 -0.033196 -0.014581
v 0.432689 -0.033196 0.422208
v 0.432689 -0.319325 -0.014582
v 0.432689 -0.464964 0.422208
v 0.432689 -0.464964 -0.014582
v 0.432689 -0.319325 0.422208
v 0.432689 -0.033196 -0.014581
v 0.432689 -0.169057 0.422208
v 0.432689 -0.169057 -0.014582
v 0.432689 -0.033196 0.422208
v 0.432689 -0.033197 -0.397798
v 0.432689 -0.169057 -0.014582
v 0.432689 -0.169057 -0.397798
v 0.432689 -0.033196 -0.014581
v 0.432689 -0.169057 -0.014582
v 0.432689 -0.169057 0.422208
v 0.432689 -0.319325 -0.014582
v 0.432689 -0.319325 0.422208
v 0.432689 -0.169057 -0.397798
v 0.432689 -0.319325 -0.014582
v 0.432689 -0.319325 -0.397798
v 0.432689 -0.169057 -0.014582
v 0.432689 0.245362 -0.397798
v 0.432689 0.121768 -0.014582
v 0.432689 0.121768 -0.397798
v 0.432689 0.245362 -0.014581
v 0.432689 0.245362 -0.014581
v 0.432689 0.245362 0.422208
v 0.432689 0.121768 -0.014582
v 0.432689 0.121768 0.422208
vt 2.347780 1.792453
vt 2.315774 1.698511
vt 2.347780 1.698511
vt 2.315774 1.792453
vt 2.315774 1.605312
vt 2.347780 1.605312
vt 2.283767 1.698511
vt 2.283767 1.792453
vt 2.283767 1.605312
vt 2.347780 1.536557
vt 2.315774 1.433763
vt 2.347780 1.432810
vt 2.315774 1.536557
vt 2.283767 1.434716
vt 2.283767 1.536557
vt 2.315774 1.353774
vt 2.315774 1.433763
vt 2.283767 1.353774
vt 2.347780 1.353774
vt 2.347780 1.432810
vt 2.315774 1.266038
vt 2.283767 1.266038
vt 2.315774 1.353774
vt 2.347780 1.266038
vt 2.347780 1.353774
vt 2.347780 1.266038
vt 2.315774 1.207547
vt 2.347780 1.207547
vt 2.315774 1.266038
vt 2.283767 1.207547
vt 2.283767 1.266038
vt 2.347780 1.536557
vt 2.347780 1.605312
vt 2.315774 1.605312
vt 2.315774 1.536557
vt 2.283767 1.605312
vt 2.283767 1.536557
vt 2.283767 1.698511
vt 2.219756 1.698511
vt 2.283767 1.605312
vt 2.219756 1.605312
vt 2.283767 1.792453
vt 2.219756 1.792453
vt 2.283767 1.536557
vt 2.219756 1.436622
vt 2.283767 1.434716
vt 2.219756 1.536557
vt 2.283767 1.266038
vt 2.219756 1.207547
vt 2.283767 1.207547
vt 2.219756 1.266038
vt 2.283767 1.434716
vt 2.219756 1.436622
vt 2.283767 1.353774
vt 2.219756 1.353774
vt 2.283767 1.353774
vt 2.219756 1.266038
vt 2.283767 1.266038
vt 2.219756 1.353774
vt 2.283767 1.605312
vt 2.219756 1.605312
vt 2.283767 1.536557
vt 2.219756 1.536557
vt 2.662603 1.437218
vt 2.749558 1.536557
vt 2.662603 1.536557
vt 2.619125 1.536557
vt 2.619125 1.436396
vt 2.749558 1.438862
vt 2.793036 1.536557
vt 2.793036 1.439684
vt 2.662603 1.207547
vt 2.749558 1.266038
vt 2.662603 1.266038
vt 2.619125 1.207547
vt 2.619125 1.266038
vt 2.749558 1.207547
vt 2.793036 1.207547
vt 2.793036 1.266038
vt 2.662603 1.353774
vt 2.749558 1.266038
vt 2.749558 1.353774
vt 2.793036 1.266038
vt 2.793036 1.353774
vt 2.662603 1.266038
vt 2.619125 1.266038
vt 2.619125 1.353774
vt 2.749558 1.536557
vt 2.793036 1.536557
vt 2.749558 1.605312
vt 2.793036 1.605312
vt 2.662603 1.605312
vt 2.662603 1.536557
vt 2.619125 1.536557
vt 2.619125 1.605312
vt 2.749558 1.698511
vt 2.662603 1.698511
vt 2.662603 1.605312
vt 2.619125 1.698511
vt 2.619125 1.605312
vt 2.619125 1.792453
vt 2.662603 1.792453
vt 2.749558 1.605312
vt 2.749558 1.792453
vt 2.793036 1.698511
vt 2.793036 1.605312
vt 2.793036 1.792453
vt 2.908824 1.698511
vt 2.793036 1.698511
vt 2.793036 1.605312
vt 2.908824 1.605312
vt 2.908824 1.792453
vt 2.793036 1.792453
vt 2.219756 1.698511
vt 2.091176 1.698511
vt 2.091176 1.605312
vt 2.219756 1.605312
vt 2.219756 1.792453
vt 2.091176 1.792453
vt 2.793036 1.439684
vt 2.908824 1.441824
vt 2.793036 1.536557
vt 2.908824 1.536557
vt 2.091176 1.441824
vt 2.219756 1.436622
vt 2.091176 1.536557
vt 2.219756 1.536557
vt 2.793036 1.207547
vt 2.908824 1.266038
vt 2.793036 1.266038
vt 2.908824 1.207547
vt 2.219756 1.207547
vt 2.091176 1.266038
vt 2.091176 1.207547
vt 2.219756 1.266038
vt 2.793036 1.353774
vt 2.908824 1.441824
vt 2.793036 1.439684
vt 2.908824 1.353774
vt 2.219756 1.353774
vt 2.091176 1.441824
vt 2.091176 1.353774
vt 2.219756 1.436622
vt 2.793036 1.266038
vt 2.908824 1.353774
vt 2.793036 1.353774
vt 2.908824 1.266038
vt 2.091176 1.266038
vt 2.219756 1.266038
vt 2.091176 1.353774
vt 2.219756 1.353774
vt 2.091176 1.536557
vt 2.219756 1.536557
vt 2.091176 1.605312
vt 2.219756 1.605312
vt 2.793036 1.536557
vt 2.908824 1.536557
vt 2.793036 1.605312
vt 2.908824 1.605312
vt 2.619125 1.536557
vt 2.457450 1.536557
vt 2.619125 1.436396
vt 2.457450 1.433402
vt 2.662603 1.353774
vt 2.619125 1.353774
vt 2.662603 1.437218
vt 2.749558 1.438862
vt 2.749558 1.353774
vt 2.793036 1.353774
vt 2.793036 1.439684
vt 2.457450 1.605312
vt 2.347780 1.698511
vt 2.347780 1.605312
vt 2.457450 1.698511
vt 2.457450 1.792453
vt 2.347780 1.792453
vt 2.619125 1.605312
vt 2.457450 1.698511
vt 2.457450 1.605312
vt 2.619125 1.698511
vt 2.457450 1.792453
vt 2.619125 1.792453
vt 2.619125 1.266038
vt 2.457450 1.266038
vt 2.619125 1.207547
vt 2.457450 1.207547
vt 2.457450 1.536557
vt 2.347780 1.536557
vt 2.457450 1.433402
vt 2.347780 1.432810
vt 2.457450 1.266038
vt 2.347780 1.207547
vt 2.457450 1.207547
vt 2.347780 1.266038
vt 2.457450 1.433402
vt 2.347780 1.353774
vt 2.457450 1.353774
vt 2.347780 1.432810
vt 2.619125 1.436396
vt 2.457450 1.353774
vt 2.619125 1.353774
vt 2.457450 1.433402
vt 2.457450 1.353774
vt 2.347780 1.353774
vt 2.457450 1.266038
vt 2.347780 1.266038
vt 2.619125 1.353774
vt 2.457450 1.266038
vt 2.619125 1.266038
vt 2.457450 1.353774
vt 2.619125 1.605312
vt 2.457450 1.536557
vt 2.619125 1.536557
vt 2.457450 1.605312
vt 2.457450 1.605312
vt 2.347780 1.605312
vt 2.457450 1.536557
vt 2.347780 1.536557
vn 1.000000 0.000080 0.000035
vn 0.372491 0.000009 0.928036
vn 1.000000 0.000037 0.000016
vn 0.372446 0.000020 0.928054
vn 0.372480 -0.000000 0.928040
vn 1.000000 -0.000000 -0.000000
vn 0.000001 -0.000005 1.000000
vn 0.000002 -0.000010 1.000000
vn 0.000000 -0.000000 1.000000
vn 1.000000 -0.000000 0.000000
vn 0.372479 -0.000000 0.928041
vn 1.000000 -0.000000 0.000000
vn 0.372479 -0.000000 0.928041
vn -0.000000 -0.000000 1.000000
vn -0.000000 -0.000000 1.000000
vn 0.372480 -0.000000 0.928040
vn 0.372480 -0.000000 0.928040
vn -0.000000 -0.000000 1.000000
vn 1.000000 -0.000000 0.000000
vn 1.000000 -0.000000 0.000000
vn 0.372478 -0.000000 0.928041
vn -0.000000 -0.000000 1.000000
vn 0.372478 -0.000000 0.928041
vn 1.000000 -0.000000 0.000000
vn 1.000000 -0.000000 0.000000
vn 1.000000 0.000001 0.000000
vn 0.372480 -0.000000 0.928040
vn 1.000000 0.000001 0.000000
vn 0.372481 -0.000000 0.928040
vn -0.000000 -0.000001 1.000000
vn -0.000000 -0.000001 1.000000
vn 1.000000 -0.000000 0.000000
vn 1.000000 -0.000000 0.000000
vn 0.372480 0.000000 0.928040
vn 0.372480 0.000000 0.928040
vn 0.000000 0.000000 1.000000
vn 0.000000 0.000000 1.000000
vn -0.000003 0.000002 1.000000
vn -0.000003 0.000002 1.000000
vn -0.000000 0.000000 1.000000
vn -0.000000 0.000000 1.000000
vn -0.000006 0.000005 1.000000
vn -0.000006 0.000005 1.000000
vn 0.000000 0.000000 1.000000
vn 0.000000 0.000000 1.000000
vn 0.000000 0.000000 1.000000
vn 0.000000 0.000000 1.000000
vn -0.000000 -0.000002 1.000000
vn -0.000000 -0.000002 1.000000
vn -0.000000 -0.000002 1.000000
vn -0.000000 -0.000002 1.000000
vn -0.000000 -0.000000 1.000000
vn -0.000000 -0.000000 1.000000
vn -0.000000 -0.000000 1.000000
vn -0.000000 -0.000000 1.000000
vn -0.000000 0.000000 1.000000
vn -0.000000 0.000000 1.000000
vn -0.000000 0.000000 1.000000
vn -0.000000 0.000000 1.000000
vn -0.000000 0.000000 1.000000
vn -0.000000 0.000000 1.000000
vn -0.000000 0.000000 1.000000
vn -0.000000 0.000000 1.000000
vn 0.408411 -0.000001 -0.912798
vn -0.000000 -0.000001 -1.000000
vn 0.408411 -0.000001 -0.912798
vn 1.000000 -0.000000 0.000000
vn 1.000000 -0.000000 0.000000
vn -0.000000 -0.000001 -1.000000
vn -0.000000 -0.000000 -1.000000
vn -0.000000 -0.000000 -1.000000
vn 0.408411 0.000000 -0.912798
vn 0.000000 0.000000 -1.000000
vn 0.408413 0.000000 -0.912797
vn 1.000000 -0.000000 0.000000
vn 1.000000 -0.000000 0.000000
vn 0.000000 0.000000 -1.000000
vn 0.000000 0.000000 -1.000000
vn 0.000000 0.000000 -1.000000
vn 0.408409 0.000000 -0.912799
vn 0.000000 0.000000 -1.000000
vn 0.000000 0.000000 -1.000000
vn -0.000000 0.000000 -1.000000
vn -0.000000 0.000000 -1.000000
vn 0.408408 0.000000 -0.912800
vn 1.000000 -0.000000 0.000000
vn 1.000000 -0.000000 0.000000
vn -0.000000 -0.000001 -1.000000
vn -0.000001 -0.000001 -1.000000
vn -0.000000 -0.000001 -1.000000
vn -0.000001 -0.000001 -1.000000
vn 0.408411 -0.000000 -0.912798
vn 0.408410 -0.000000 -0.912799
vn 1.000000 0.000001 0.000000
vn 1.000000 0.000001 0.000000
vn -0.000001 -0.015407 -0.999881
vn 0.409878 -0.014041 -0.912032
vn 0.412695 -0.012502 -0.910784
vn 1.000000 0.000037 -0.000014
vn 1.000000 -0.000001 0.000000
vn 1.000000 0.000081 -0.000031
vn 0.405892 -0.015829 -0.913784
vn 0.000000 -0.013726 -0.999906
vn -0.000002 -0.017346 -0.999850
vn -0.000003 -0.015402 -0.999881
vn -0.000000 -0.013728 -0.999906
vn -0.000007 -0.017335 -0.999850
vn -1.000000 -0.000018 0.000001
vn -1.000000 -0.000018 0.000001
vn -1.000000 -0.000000 -0.000000
vn -1.000000 -0.000000 -0.000000
vn -1.000000 -0.000038 0.000002
vn -1.000000 -0.000038 0.000002
vn -1.000000 -0.000020 -0.000001
vn -1.000000 -0.000020 -0.000001
vn -1.000000 0.000000 0.000000
vn -1.000000 0.000000 0.000000
vn -1.000000 -0.000043 -0.000003
vn -1.000000 -0.000043 -0.000003
vn -1.000000 0.000001 -0.000000
vn -1.000000 0.000001 -0.000000
vn -1.000000 0.000001 -0.000000
vn -1.000000 0.000001 -0.000000
vn -1.000000 0.000001 0.000000
vn -1.000000 0.000001 0.000000
vn -1.000000 0.000001 0.000000
vn -1.000000 0.000001 0.000000
vn -1.000000 -0.000001 0.000000
vn -1.000000 -0.000001 0.000000
vn -1.000000 -0.000001 0.000000
vn -1.000000 -0.000001 0.000000
vn -1.000000 0.000001 -0.000000
vn -1.000000 0.000001 -0.000000
vn -1.000000 0.000001 -0.000000
vn -1.000000 0.000001 -0.000000
vn -1.000000 -0.000001 -0.000000
vn -1.000000 -0.000001 -0.000000
vn -1.000000 -0.000001 -0.000000
vn -1.000000 -0.000001 -0.000000
vn -1.000000 -0.000001 0.000000
vn -1.000000 -0.000001 0.000000
vn -1.000000 -0.000001 0.000000
vn -1.000000 -0.000001 0.000000
vn -1.000000 0.000001 0.000000
vn -1.000000 0.000001 0.000000
vn -1.000000 0.000001 0.000000
vn -1.000000 0.000001 0.000000
vn -1.000000 0.000000 0.000000
vn -1.000000 0.000000 0.000000
vn -1.000000 0.000000 0.000000
vn -1.000000 0.000000 0.000000
vn -1.000000 -0.000000 0.000000
vn -1.000000 -0.000000 0.000000
vn -1.000000 -0.000000 0.000000
vn -1.000000 -0.000000 0.000000
vn -1.000000 -0.000000 -0.000000
vn -1.000000 -0.000000 -0.000000
vn -1.000000 -0.000000 -0.000000
vn -1.000000 -0.000000 -0.000000
vn 1.000000 -0.000000 0.000000
vn 1.000000 -0.000000 0.000000
vn 1.000000 -0.000000 0.000000
vn 1.000000 -0.000000 0.000000
vn 0.408411 -0.000000 -0.912798
vn 1.000000 -0.000000 0.000000
vn 0.408410 -0.000000 -0.912798
vn 0.000000 -0.000000 -1.000000
vn 0.000000 -0.000000 -1.000000
vn -0.000000 -0.000000 -1.000000
vn -0.000000 -0.000000 -1.000000
vn 1.000000 -0.000000 -0.000000
vn 1.000000 0.000010 -0.000000
vn 1.000000 -0.000000 -0.000000
vn 1.000000 0.000010 -0.000000
vn 1.000000 0.000021 -0.000001
vn 1.000000 0.000021 -0.000001
vn 1.000000 0.000001 0.000000
vn 1.000000 0.000011 0.000000
vn 1.000000 0.000001 0.000000
vn 1.000000 0.000011 0.000000
vn 1.000000 0.000022 0.000001
vn 1.000000 0.000022 0.000001
vn 1.000000 -0.000000 -0.000000
vn 1.000000 -0.000000 -0.000000
vn 1.000000 -0.000000 -0.000000
vn 1.000000 -0.000000 -0.000000
vn 1.000000 0.000000 -0.000000
vn 1.000000 0.000000 -0.000000
vn 1.000000 0.000000 -0.000000
vn 1.000000 0.000000 -0.000000
vn 1.000000 -0.000000 -0.000000
vn 1.000000 -0.000000 -0.000000
vn 1.000000 -0.000000 -0.000000
vn 1.000000 -0.000000 -0.000000
vn 1.000000 0.000001 0.000000
vn 1.000000 0.000001 0.000000
vn 1.000000 0.000001 0.000000
vn 1.000000 0.000001 0.000000
vn 1.000000 -0.000000 -0.000000
vn 1.000000 -0.000000 -0.000000
vn 1.000000 -0.000000 -0.000000
vn 1.000000 -0.000000 -0.000000
vn 1.000000 -0.000000 0.000000
vn 1.000000 -0.000000 0.000000
vn 1.000000 -0.000000 0.000000
vn 1.000000 -0.000000 0.000000
vn 1.000000 -0.000000 -0.000000
vn 1.000000 -0.000000 -0.000000
vn 1.000000 -0.000000 -0.000000
vn 1.000000 -0.000000 -0.000000
vn 1.000000 -0.000001 -0.000000
vn 1.000000 -0.000001 -0.000000
vn 1.000000 -0.000001 -0.000000
vn 1.000000 -0.000001 -0.000000
vn 1.000000 -0.000000 -0.000000
vn 1.000000 -0.000000 -0.000000
vn 1.000000 -0.000000 -0.000000
vn 1.000000 -0.000000 -0.000000
f 1/1/1 2/2/2 3/3/3
f 2/2/2 1/1/1 4/4/4
f 5/5/5 3/3/3 2/2/2
f 3/3/3 5/5/5 6/6/6
f 4/4/4 7/7/7 2/2/2
f 2/2/2 7/7/7 5/5/5
f 7/7/7 4/4/4 8/8/8
f 9/9/9 5/5/5 7/7/7
f 10/10/10 11/11/11 12/12/12
f 11/11/11 10/10/10 13/13/13
f 14/14/14 11/11/11 13/13/13
f 14/14/14 13/13/13 15/15/15
f 14/14/14 16/16/16 17/17/17
f 16/16/16 14/14/14 18/18/18
f 19/19/19 17/17/17 16/16/16
f 19/19/19 20/20/20 17/17/17
f 21/21/21 18/18/18 22/22/22
f 18/18/18 21/21/21 23/23/23
f 24/24/24 23/23/23 21/21/21
f 24/24/24 25/25/25 23/23/23
f 26/26/26 27/27/27 28/28/28
f 27/27/27 26/26/26 29/29/29
f 30/30/30 27/27/27 29/29/29
f 30/30/30 29/29/29 31/31/31
f 32/32/32 33/33/33 34/34/34
f 32/32/32 34/34/34 35/35/35
f 36/36/36 35/35/35 34/34/34
f 35/35/35 36/36/36 37/37/37
f 38/38/38 39/39/39 40/40/40
f 41/41/41 40/40/40 39/39/39
f 42/42/42 39/39/39 38/38/38
f 39/39/39 42/42/42 43/43/43
f 44/44/44 45/45/45 46/46/46
f 45/45/45 44/44/44 47/47/47
f 48/48/48 49/49/49 50/50/50
f 49/49/49 48/48/48 51/51/51
f 52/52/52 53/53/53 54/54/54
f 55/55/55 54/54/54 53/53/53
f 56/56/56 57/57/57 58/58/58
f 57/57/57 56/56/56 59/59/59
f 60/60/60 61/61/61 62/62/62
f 63/63/63 62/62/62 61/61/61
f 64/64/64 65/65/65 66/66/66
f 64/64/64 66/66/66 67/67/67
f 64/64/64 67/67/67 68/68/68
f 65/65/65 64/64/64 69/69/69
f 69/69/69 70/70/70 65/65/65
f 70/70/70 69/69/69 71/71/71
f 72/72/72 73/73/73 74/74/74
f 74/74/74 75/75/75 72/72/72
f 75/75/75 74/74/74 76/76/76
f 73/73/73 72/72/72 77/77/77
f 77/77/77 78/78/78 73/73/73
f 79/79/79 73/73/73 78/78/78
f 80/80/80 81/81/81 82/82/82
f 81/81/81 83/83/83 82/82/82
f 84/84/84 82/82/82 83/83/83
f 81/81/81 80/80/80 85/85/85
f 80/80/80 86/86/86 85/85/85
f 86/86/86 80/80/80 87/87/87
f 88/88/88 89/89/89 90/90/90
f 91/91/91 90/90/90 89/89/89
f 92/92/92 88/88/88 90/90/90
f 88/88/88 92/92/92 93/93/93
f 92/92/92 94/94/94 93/93/93
f 94/94/94 92/92/92 95/95/95
f 96/96/96 97/97/97 98/98/98
f 99/99/99 98/98/98 97/97/97
f 98/98/98 99/99/99 100/100/100
f 97/97/97 101/101/101 99/99/99
f 102/102/102 101/101/101 97/97/97
f 97/97/97 96/96/96 102/102/102
f 96/96/96 98/98/98 103/103/103
f 104/104/104 102/102/102 96/96/96
f 103/103/103 105/105/105 96/96/96
f 96/96/96 105/105/105 104/104/104
f 105/105/105 103/103/103 106/106/106
f 107/107/107 104/104/104 105/105/105
f 108/108/108 109/109/109 110/110/110
f 110/110/110 111/111/111 108/108/108
f 109/109/109 108/108/108 112/112/112
f 112/112/112 113/113/113 109/109/109
f 114/114/114 115/115/115 116/116/116
f 116/116/116 117/117/117 114/114/114
f 115/115/115 114/114/114 118/118/118
f 118/118/118 119/119/119 115/115/115
f 120/120/120 121/121/121 122/122/122
f 122/122/122 121/121/121 123/123/123
f 124/124/124 125/125/125 126/126/126
f 126/126/126 125/125/125 127/127/127
f 128/128/128 129/129/129 130/130/130
f 129/129/129 128/128/128 131/131/131
f 132/132/132 133/133/133 134/134/134
f 133/133/133 132/132/132 135/135/135
f 136/136/136 137/137/137 138/138/138
f 137/137/137 136/136/136 139/139/139
f 140/140/140 141/141/141 142/142/142
f 141/141/141 140/140/140 143/143/143
f 144/144/144 145/145/145 146/146/146
f 145/145/145 144/144/144 147/147/147
f 148/148/148 149/149/149 150/150/150
f 150/150/150 149/149/149 151/151/151
f 152/152/152 153/153/153 154/154/154
f 154/154/154 153/153/153 155/155/155
f 156/156/156 157/157/157 158/158/158
f 158/158/158 157/157/157 159/159/159
f 160/160/160 161/161/161 162/162/162
f 162/162/162 161/161/161 163/163/163
f 164/164/164 162/162/162 165/165/165
f 164/164/164 166/166/166 162/162/162
f 167/167/167 166/166/166 164/164/164
f 167/167/167 164/164/164 168/168/168
f 168/168/168 169/169/169 167/167/167
f 170/170/170 167/167/167 169/169/169
f 171/171/171 172/172/172 173/173/173
f 172/172/172 171/171/171 174/174/174
f 175/175/175 172/172/172 174/174/174
f 172/172/172 175/175/175 176/176/176
f 177/177/177 178/178/178 179/179/179
f 178/178/178 177/177/177 180/180/180
f 180/180/180 181/181/181 178/178/178
f 182/182/182 181/181/181 180/180/180
f 183/183/183 184/184/184 185/185/185
f 185/185/185 184/184/184 186/186/186
f 187/187/187 188/188/188 189/189/189
f 189/189/189 188/188/188 190/190/190
f 191/191/191 192/192/192 193/193/193
f 192/192/192 191/191/191 194/194/194
f 195/195/195 196/196/196 197/197/197
f 196/196/196 195/195/195 198/198/198
f 199/199/199 200/200/200 201/201/201
f 200/200/200 199/199/199 202/202/202
f 203/203/203 204/204/204 205/205/205
f 205/205/205 204/204/204 206/206/206
f 207/207/207 208/208/208 209/209/209
f 208/208/208 207/207/207 210/210/210
f 211/211/211 212/212/212 213/213/213
f 212/212/212 211/211/211 214/214/214
f 215/215/215 216/216/216 217/217/217
f 217/217/217 216/216/216 218/218/218
