# Generated from Roblox mesh JSON (v2.00)
# Hello from RBX_Toolbox ;)
o RightUpperArm
v 0.419618 0.000000 0.525518
v 0.006195 0.213221 0.525518
v 0.002489 0.000565 0.525518
v 0.461727 -0.213140 0.510564
v 0.464229 -0.000060 0.510564
v 0.417000 -0.213039 0.525518
v 0.459226 -0.426220 0.510564
v 0.422235 0.213039 0.525518
v 0.466730 0.213020 0.510564
v 0.414382 -0.426078 0.525518
v 0.447195 -0.459941 0.498933
v 0.413822 -0.471646 0.510564
v -0.001218 -0.212090 0.525518
v -0.004925 -0.424746 0.525518
v -0.005718 -0.470232 0.510564
v -0.424232 -0.423414 0.525518
v -0.425258 -0.468818 0.510564
v -0.458219 -0.456937 0.498933
v -0.469076 -0.423272 0.510564
v -0.464164 -0.211040 0.510564
v -0.419436 -0.211142 0.525518
v -0.459251 0.001190 0.510564
v -0.414641 0.001130 0.525518
v -0.454339 0.213422 0.510564
v -0.409845 0.213402 0.525518
v -0.449427 0.425653 0.510564
v -0.405049 0.425674 0.525518
v -0.437152 0.459287 0.498933
v -0.404024 0.471078 0.510564
v 0.009902 0.425876 0.525518
v 0.010695 0.471362 0.510564
v 0.424853 0.426079 0.525518
v 0.425413 0.471647 0.510564
v 0.469231 0.426100 0.510564
v 0.458131 0.459852 0.498933
v 0.006195 0.213221 -0.525518
v 0.422236 0.213039 -0.525518
v 0.419618 0.000000 -0.525518
v 0.464229 -0.000060 -0.510564
v 0.461728 -0.213140 -0.510564
v 0.466730 0.213020 -0.510564
v 0.424853 0.426079 -0.525518
v 0.469231 0.426100 -0.510564
v 0.458131 0.459852 -0.498933
v 0.425413 0.471647 -0.510564
v 0.010695 0.471363 -0.510564
v 0.009902 0.425877 -0.525518
v -0.404024 0.471078 -0.510564
v -0.405049 0.425674 -0.525518
v -0.437152 0.459288 -0.498933
v -0.449427 0.425653 -0.510564
v -0.409845 0.213402 -0.525518
v -0.454339 0.213422 -0.510564
v 0.002489 0.000565 -0.525518
v -0.414641 0.001130 -0.525518
v -0.459251 0.001191 -0.510564
v 0.417001 -0.213039 -0.525518
v 0.459227 -0.426221 -0.510564
v -0.001218 -0.212090 -0.525518
v 0.414383 -0.426078 -0.525518
v 0.447196 -0.459941 -0.498933
v 0.413823 -0.471646 -0.510564
v -0.004924 -0.424746 -0.525518
v -0.005717 -0.470232 -0.510564
v -0.419436 -0.211142 -0.525518
v -0.464164 -0.211040 -0.510564
v -0.424232 -0.423414 -0.525518
v -0.425258 -0.468817 -0.510564
v -0.469076 -0.423271 -0.510564
v -0.458219 -0.456937 -0.498933
v 0.010959 0.486524 0.465701
v 0.425600 0.486835 -0.000000
v 0.010959 0.486524 -0.000000
v 0.010959 0.486524 -0.465701
v -0.403681 0.486213 -0.465701
v -0.403682 0.486213 -0.000000
v 0.010695 0.471363 -0.510564
v -0.404024 0.471078 -0.510564
v -0.437152 0.459288 -0.498933
v 0.425413 0.471647 -0.510564
v -0.448379 0.471049 -0.465701
v -0.448379 0.471049 -0.000000
v -0.403682 0.486213 0.465701
v -0.448379 0.471049 0.465701
v -0.437152 0.459287 0.498933
v -0.404024 0.471078 0.510564
v 0.010695 0.471362 0.510564
v 0.425413 0.471647 0.510564
v 0.425600 0.486835 0.465701
v 0.458131 0.459852 0.498933
v 0.469769 0.471676 0.465701
v 0.469769 0.471676 -0.000000
v 0.425600 0.486836 -0.465701
v 0.469769 0.471676 -0.465701
v 0.458131 0.459852 -0.498933
v -0.470124 -0.468668 -0.000000
v -0.425600 -0.483952 0.465701
v -0.470124 -0.468668 0.465701
v -0.458219 -0.456937 0.498933
v -0.425258 -0.468818 0.510564
v -0.005982 -0.485394 0.465701
v -0.005718 -0.470232 0.510564
v -0.425600 -0.483952 -0.000000
v -0.425600 -0.483952 -0.465701
v -0.470124 -0.468667 -0.465701
v -0.458219 -0.456937 -0.498933
v -0.425258 -0.468817 -0.510564
v 0.413636 -0.486835 0.465701
v 0.413822 -0.471646 0.510564
v 0.447195 -0.459941 0.498933
v 0.458688 -0.471796 0.465701
v -0.005982 -0.485394 -0.465701
v -0.005717 -0.470232 -0.510564
v -0.005982 -0.485394 -0.000000
v 0.413637 -0.486835 -0.000000
v 0.458689 -0.471796 -0.000000
v 0.413637 -0.486836 -0.465701
v 0.413823 -0.471646 -0.510564
v 0.458689 -0.471797 -0.465701
v 0.447196 -0.459941 -0.498933
v 0.481561 0.213013 -0.000000
v 0.479099 -0.000080 0.465701
v 0.479099 -0.000080 -0.000000
v 0.481561 0.213013 0.465701
v 0.464229 -0.000060 0.510564
v 0.461727 -0.213140 0.510564
v 0.466730 0.213020 0.510564
v 0.469231 0.426100 0.510564
v 0.476636 -0.213174 0.465701
v 0.459226 -0.426220 0.510564
v 0.484024 0.426107 0.465701
v 0.458131 0.459852 0.498933
v 0.484024 0.426107 -0.000000
v 0.469769 0.471676 -0.000000
v 0.484024 0.426107 -0.465701
v 0.481562 0.213013 -0.465701
v 0.458131 0.459852 -0.498933
v 0.469231 0.426100 -0.510564
v 0.466730 0.213020 -0.510564
v 0.464229 -0.000060 -0.510564
v 0.479099 -0.000081 -0.465701
v 0.461728 -0.213140 -0.510564
v 0.476637 -0.213174 -0.000000
v 0.476637 -0.213174 -0.465701
v 0.459227 -0.426221 -0.510564
v 0.474175 -0.426268 -0.465701
v 0.447196 -0.459941 -0.498933
v 0.458689 -0.471797 -0.465701
v 0.458689 -0.471796 -0.000000
v 0.474174 -0.426268 -0.000000
v 0.458688 -0.471796 0.465701
v 0.474174 -0.426268 0.465701
v 0.447195 -0.459941 0.498933
v -0.474122 0.001211 -0.000000
v -0.469171 0.213428 0.465701
v -0.469171 0.213428 -0.000000
v -0.464220 0.425645 0.465701
v -0.454339 0.213422 0.510564
v -0.474122 0.001211 0.465701
v -0.449427 0.425653 0.510564
v -0.459251 0.001190 0.510564
v -0.437152 0.459287 0.498933
v -0.448379 0.471049 0.465701
v -0.448379 0.471049 -0.000000
v -0.479073 -0.211007 0.465701
v -0.464164 -0.211040 0.510564
v -0.464220 0.425646 -0.000000
v -0.464220 0.425646 -0.465701
v -0.448379 0.471049 -0.465701
v -0.437152 0.459288 -0.498933
v -0.449427 0.425653 -0.510564
v -0.454339 0.213422 -0.510564
v -0.469171 0.213428 -0.465701
v -0.474122 0.001211 -0.465701
v -0.459251 0.001191 -0.510564
v -0.479073 -0.211006 -0.465701
v -0.464164 -0.211040 -0.510564
v -0.479073 -0.211006 -0.000000
v -0.484024 -0.423224 -0.465701
v -0.469076 -0.423271 -0.510564
v -0.458219 -0.456937 -0.498933
v -0.470124 -0.468667 -0.465701
v -0.470124 -0.468668 -0.000000
v -0.484024 -0.423224 0.000000
v -0.470124 -0.468668 0.465701
v -0.484024 -0.423224 0.465701
v -0.458219 -0.456937 0.498933
v -0.469076 -0.423272 0.510564
vt 0.962616 0.654954
vt 0.856020 0.703956
vt 0.856020 0.654954
vt 0.977194 0.605952
vt 0.977194 0.654954
vt 0.962616 0.605952
vt 0.977194 0.556949
vt 0.962616 0.703956
vt 0.977194 0.703956
vt 0.962616 0.556949
vt 0.977194 0.542300
vt 0.962616 0.542300
vt 0.856020 0.605952
vt 0.856020 0.556949
vt 0.856020 0.542300
vt 0.749425 0.556949
vt 0.749425 0.542300
vt 0.734847 0.542300
vt 0.734847 0.556949
vt 0.734847 0.605952
vt 0.749425 0.605952
vt 0.734847 0.654954
vt 0.749425 0.654954
vt 0.734847 0.703956
vt 0.749425 0.703956
vt 0.734847 0.752959
vt 0.749425 0.752959
vt 0.734847 0.767603
vt 0.749425 0.767603
vt 0.856020 0.752959
vt 0.856020 0.767603
vt 0.962616 0.752959
vt 0.962616 0.767603
vt 0.977194 0.752959
vt 0.977194 0.767603
vt 0.371152 0.703956
vt 0.265579 0.703956
vt 0.265579 0.654954
vt 0.249966 0.654954
vt 0.249966 0.605952
vt 0.249966 0.703956
vt 0.265579 0.752959
vt 0.249966 0.752959
vt 0.249966 0.767603
vt 0.265579 0.767603
vt 0.371152 0.767603
vt 0.371152 0.752959
vt 0.476724 0.767603
vt 0.476724 0.752959
vt 0.492433 0.767603
vt 0.492433 0.752959
vt 0.476724 0.703956
vt 0.492433 0.703956
vt 0.371152 0.654954
vt 0.476724 0.654954
vt 0.492433 0.654954
vt 0.265579 0.605952
vt 0.249966 0.556949
vt 0.371152 0.605952
vt 0.265579 0.556949
vt 0.249966 0.542300
vt 0.265579 0.542300
vt 0.371152 0.556949
vt 0.371152 0.542300
vt 0.476724 0.605952
vt 0.492433 0.605952
vt 0.476724 0.556949
vt 0.476724 0.542300
vt 0.492433 0.556949
vt 0.492433 0.542300
vt 0.022563 0.880417
vt 0.128927 0.782629
vt 0.128927 0.880417
vt 0.235290 0.880417
vt 0.235290 0.978204
vt 0.128927 0.978204
vt 0.249966 0.880417
vt 0.249966 0.978204
vt 0.249966 0.992970
vt 0.249966 0.782629
vt 0.235290 0.992970
vt 0.128927 0.992970
vt 0.022563 0.978204
vt 0.022563 0.992970
vt 0.007690 0.992970
vt 0.007690 0.978204
vt 0.007690 0.880417
vt 0.007690 0.782629
vt 0.022563 0.782629
vt 0.007690 0.767603
vt 0.022563 0.767603
vt 0.128927 0.767603
vt 0.235290 0.782629
vt 0.235290 0.767603
vt 0.249966 0.767603
vt 0.386320 0.838049
vt 0.380859 0.786438
vt 0.386320 0.786438
vt 0.386320 0.781794
vt 0.380859 0.781794
vt 0.325815 0.786438
vt 0.325815 0.781794
vt 0.380859 0.838049
vt 0.380859 0.889660
vt 0.386320 0.889660
vt 0.386320 0.894304
vt 0.380859 0.894304
vt 0.270771 0.786438
vt 0.270771 0.781794
vt 0.265261 0.781794
vt 0.265261 0.786438
vt 0.325815 0.889660
vt 0.325815 0.894304
vt 0.325815 0.838049
vt 0.270771 0.838049
vt 0.265261 0.838049
vt 0.270771 0.889660
vt 0.270771 0.894304
vt 0.265261 0.889660
vt 0.265261 0.894304
vt 0.128927 0.703956
vt 0.022563 0.654954
vt 0.128927 0.654954
vt 0.022563 0.703956
vt 0.007690 0.654954
vt 0.007690 0.605952
vt 0.007690 0.703956
vt 0.007690 0.752959
vt 0.022563 0.605952
vt 0.007690 0.556949
vt 0.022563 0.752959
vt 0.007690 0.767603
vt 0.128927 0.752959
vt 0.128927 0.767603
vt 0.235290 0.752959
vt 0.235290 0.703956
vt 0.249966 0.767603
vt 0.249966 0.752959
vt 0.249966 0.703956
vt 0.249966 0.654954
vt 0.235290 0.654954
vt 0.249966 0.605952
vt 0.128927 0.605952
vt 0.235290 0.605952
vt 0.249966 0.556949
vt 0.235290 0.556949
vt 0.249966 0.542300
vt 0.235290 0.542300
vt 0.128927 0.542300
vt 0.128927 0.556949
vt 0.022563 0.542300
vt 0.022563 0.556949
vt 0.007690 0.542300
vt 0.613790 0.654954
vt 0.720644 0.703956
vt 0.613790 0.703956
vt 0.720644 0.752959
vt 0.734847 0.703956
vt 0.720644 0.654954
vt 0.734847 0.752959
vt 0.734847 0.654954
vt 0.734847 0.767603
vt 0.720644 0.767603
vt 0.613790 0.767603
vt 0.720644 0.605952
vt 0.734847 0.605952
vt 0.613790 0.752959
vt 0.506936 0.752959
vt 0.506936 0.767603
vt 0.492433 0.767603
vt 0.492433 0.752959
vt 0.492433 0.703956
vt 0.506936 0.703956
vt 0.506936 0.654954
vt 0.492433 0.654954
vt 0.506936 0.605952
vt 0.492433 0.605952
vt 0.613790 0.605952
vt 0.506936 0.556949
vt 0.492433 0.556949
vt 0.492433 0.542300
vt 0.506936 0.542300
vt 0.613790 0.542300
vt 0.613790 0.556949
vt 0.720644 0.542300
vt 0.720644 0.556949
vt 0.734847 0.542300
vt 0.734847 0.556949
vn 0.032399 -0.000389 0.999475
vn 0.000000 -0.000000 1.000000
vn 0.000000 -0.000000 1.000000
vn 0.317084 -0.003809 0.948390
vn 0.317832 -0.003818 0.948139
vn 0.032314 -0.000388 0.999478
vn 0.705442 -0.058617 0.706339
vn 0.032484 -0.000390 0.999472
vn 0.318582 -0.003827 0.947887
vn 0.031025 -0.057126 0.997885
vn 0.576819 -0.575816 0.579409
vn 0.025093 -0.700826 0.712890
vn 0.000000 -0.000000 1.000000
vn -0.000190 -0.057906 0.998322
vn -0.001022 -0.312308 0.949980
vn -0.032022 -0.057514 0.997831
vn -0.030038 -0.704437 0.709131
vn -0.586148 -0.563363 0.582282
vn -0.709420 -0.034611 0.703936
vn -0.317062 0.007250 0.948377
vn -0.032255 0.000737 0.999479
vn -0.317813 0.007268 0.948126
vn -0.032339 0.000739 0.999477
vn -0.318566 0.007285 0.947873
vn -0.032424 0.000741 0.999474
vn -0.706352 0.066248 0.704754
vn -0.031116 0.056759 0.997903
vn -0.579461 0.578118 0.574460
vn -0.027993 0.699690 0.713898
vn -0.000034 0.057758 0.998331
vn -0.000183 0.312321 0.949977
vn 0.031963 0.057269 0.997847
vn 0.027474 0.703082 0.710578
vn 0.711134 0.042027 0.701799
vn 0.587747 0.564204 0.579850
vn -0.000000 -0.000000 -1.000000
vn 0.032484 -0.000390 -0.999472
vn 0.032399 -0.000389 -0.999475
vn 0.317831 -0.003818 -0.948140
vn 0.317083 -0.003809 -0.948390
vn 0.318583 -0.003827 -0.947887
vn 0.031963 0.057269 -0.997847
vn 0.711134 0.042028 -0.701799
vn 0.587746 0.564203 -0.579852
vn 0.027474 0.703082 -0.710578
vn -0.000183 0.312321 -0.949977
vn -0.000034 0.057758 -0.998331
vn -0.027993 0.699690 -0.713898
vn -0.031116 0.056758 -0.997903
vn -0.579461 0.578121 -0.574457
vn -0.706352 0.066248 -0.704754
vn -0.032424 0.000741 -0.999474
vn -0.318566 0.007285 -0.947873
vn -0.000000 -0.000000 -1.000000
vn -0.032339 0.000739 -0.999477
vn -0.317813 0.007268 -0.948125
vn 0.032314 -0.000388 -0.999478
vn 0.705441 -0.058616 -0.706341
vn 0.000000 -0.000000 -1.000000
vn 0.031025 -0.057126 -0.997885
vn 0.576818 -0.575815 -0.579412
vn 0.025093 -0.700824 -0.712893
vn -0.000190 -0.057906 -0.998322
vn -0.001022 -0.312308 -0.949980
vn -0.032255 0.000737 -0.999479
vn -0.317063 0.007251 -0.948377
vn -0.032022 -0.057514 -0.997831
vn -0.030038 -0.704435 -0.709133
vn -0.709420 -0.034610 -0.703936
vn -0.586147 -0.563363 -0.582283
vn -0.000748 0.999559 0.029686
vn 0.032346 0.999477 0.000000
vn -0.000751 1.000000 0.000000
vn -0.000748 0.999559 -0.029685
vn -0.033228 0.999018 -0.029316
vn -0.033672 0.999433 0.000000
vn -0.000680 0.947362 -0.320163
vn -0.027993 0.699690 -0.713898
vn -0.579461 0.578121 -0.574457
vn 0.027474 0.703082 -0.710578
vn -0.706962 0.706823 -0.024606
vn -0.321275 0.946986 -0.000000
vn -0.033228 0.999018 0.029316
vn -0.706962 0.706823 0.024607
vn -0.579461 0.578118 0.574460
vn -0.027993 0.699690 0.713898
vn -0.000680 0.947361 0.320165
vn 0.027474 0.703082 0.710578
vn 0.031938 0.999062 0.029240
vn 0.587747 0.564204 0.579850
vn 0.720305 0.693208 0.024946
vn 0.324629 0.945841 0.000000
vn 0.031938 0.999062 -0.029239
vn 0.720305 0.693208 -0.024946
vn 0.587746 0.564203 -0.579852
vn -0.324695 -0.945819 -0.000000
vn -0.035614 -0.998940 0.029162
vn -0.720369 -0.693137 0.025088
vn -0.586148 -0.563363 0.582282
vn -0.030038 -0.704437 0.709131
vn -0.003431 -0.999554 0.029682
vn -0.003224 -0.947349 0.320188
vn -0.036014 -0.999351 0.000000
vn -0.035615 -0.998940 -0.029162
vn -0.720368 -0.693138 -0.025088
vn -0.586147 -0.563363 -0.582283
vn -0.030038 -0.704435 -0.709133
vn 0.028831 -0.999154 0.029319
vn 0.025093 -0.700826 0.712890
vn 0.576819 -0.575816 0.579409
vn 0.706991 -0.706785 0.024896
vn -0.003431 -0.999554 -0.029683
vn -0.003224 -0.947347 -0.320193
vn -0.003435 -0.999994 0.000000
vn 0.029250 -0.999572 0.000000
vn 0.316638 -0.948547 0.000001
vn 0.028831 -0.999154 -0.029319
vn 0.025093 -0.700824 -0.712893
vn 0.706989 -0.706787 -0.024894
vn 0.576818 -0.575815 -0.579412
vn 0.999933 -0.011554 0.000000
vn 0.999509 -0.011558 0.029111
vn 0.999933 -0.011554 0.000001
vn 0.999512 -0.011558 0.029034
vn 0.949156 -0.011055 0.314612
vn 0.948910 -0.011052 0.315354
vn 0.949402 -0.011057 0.313870
vn 0.711134 0.042027 0.701799
vn 0.999507 -0.011558 0.029187
vn 0.705442 -0.058617 0.706339
vn 0.998590 0.044971 0.028207
vn 0.587747 0.564204 0.579850
vn 0.998962 0.045542 0.000000
vn 0.954394 0.298550 0.000000
vn 0.998590 0.044972 -0.028206
vn 0.999512 -0.011557 -0.029034
vn 0.587746 0.564203 -0.579852
vn 0.711134 0.042028 -0.701799
vn 0.949401 -0.011057 -0.313873
vn 0.949154 -0.011054 -0.314618
vn 0.999509 -0.011557 -0.029110
vn 0.948907 -0.011051 -0.315361
vn 0.999933 -0.011554 0.000001
vn 0.999507 -0.011557 -0.029186
vn 0.705441 -0.058616 -0.706341
vn 0.997236 -0.068625 -0.028478
vn 0.576818 -0.575815 -0.579412
vn 0.706989 -0.706787 -0.024894
vn 0.946734 -0.322017 0.000001
vn 0.997601 -0.069232 0.000001
vn 0.706991 -0.706785 0.024896
vn 0.997236 -0.068625 0.028479
vn 0.576819 -0.575816 0.579409
vn -0.999728 0.023324 0.000000
vn -0.999307 0.023306 0.029030
vn -0.999728 0.023324 -0.000000
vn -0.996409 0.079806 0.028274
vn -0.949230 0.022058 0.313809
vn -0.999305 0.023306 0.029107
vn -0.706352 0.066248 0.704754
vn -0.948983 0.022052 0.314555
vn -0.579461 0.578118 0.574460
vn -0.706962 0.706823 0.024607
vn -0.944187 0.329411 -0.000000
vn -0.999302 0.023305 0.029183
vn -0.948736 0.022046 0.315301
vn -0.996759 0.080444 -0.000000
vn -0.996409 0.079807 -0.028274
vn -0.706962 0.706823 -0.024606
vn -0.579461 0.578121 -0.574457
vn -0.706352 0.066248 -0.704754
vn -0.949229 0.022058 -0.313812
vn -0.999307 0.023306 -0.029030
vn -0.999305 0.023306 -0.029107
vn -0.948982 0.022052 -0.314559
vn -0.999302 0.023306 -0.029183
vn -0.948734 0.022047 -0.315304
vn -0.999728 0.023324 0.000000
vn -0.999013 -0.034154 -0.028414
vn -0.709420 -0.034610 -0.703936
vn -0.586147 -0.563363 -0.582283
vn -0.720368 -0.693138 -0.025088
vn -0.956267 -0.292495 0.000000
vn -0.999397 -0.034710 0.000000
vn -0.720369 -0.693137 0.025088
vn -0.999013 -0.034155 0.028414
vn -0.586148 -0.563363 0.582282
vn -0.709420 -0.034611 0.703936
f 1/1/1 2/2/2 3/3/3
f 1/1/1 4/4/4 5/5/5
f 4/4/4 1/1/1 6/6/6
f 7/7/7 4/4/4 6/6/6
f 3/3/3 6/6/6 1/1/1
f 5/5/5 8/8/8 1/1/1
f 2/2/2 1/1/1 8/8/8
f 8/8/8 5/5/5 9/9/9
f 6/6/6 10/10/10 7/7/7
f 10/10/10 11/11/11 7/7/7
f 11/11/11 10/10/10 12/12/12
f 13/13/13 10/10/10 6/6/6
f 6/6/6 3/3/3 13/13/13
f 14/14/14 12/12/12 10/10/10
f 10/10/10 13/13/13 14/14/14
f 12/12/12 14/14/14 15/15/15
f 14/14/14 16/16/16 15/15/15
f 17/17/17 15/15/15 16/16/16
f 17/17/17 16/16/16 18/18/18
f 18/18/18 16/16/16 19/19/19
f 16/16/16 20/20/20 19/19/19
f 14/14/14 21/21/21 16/16/16
f 20/20/20 16/16/16 21/21/21
f 21/21/21 14/14/14 13/13/13
f 21/21/21 22/22/22 20/20/20
f 13/13/13 23/23/23 21/21/21
f 22/22/22 21/21/21 23/23/23
f 23/23/23 13/13/13 3/3/3
f 23/23/23 24/24/24 22/22/22
f 3/3/3 25/25/25 23/23/23
f 24/24/24 23/23/23 25/25/25
f 25/25/25 3/3/3 2/2/2
f 25/25/25 26/26/26 24/24/24
f 26/26/26 25/25/25 27/27/27
f 2/2/2 27/27/27 25/25/25
f 27/27/27 28/28/28 26/26/26
f 28/28/28 27/27/27 29/29/29
f 27/27/27 2/2/2 30/30/30
f 30/30/30 29/29/29 27/27/27
f 8/8/8 30/30/30 2/2/2
f 29/29/29 30/30/30 31/31/31
f 30/30/30 8/8/8 32/32/32
f 32/32/32 31/31/31 30/30/30
f 9/9/9 32/32/32 8/8/8
f 31/31/31 32/32/32 33/33/33
f 32/32/32 9/9/9 34/34/34
f 32/32/32 35/35/35 33/33/33
f 32/32/32 34/34/34 35/35/35
f 36/36/36 37/37/37 38/38/38
f 37/37/37 39/39/39 38/38/38
f 39/39/39 40/40/40 38/38/38
f 41/41/41 39/39/39 37/37/37
f 42/42/42 41/41/41 37/37/37
f 41/41/41 42/42/42 43/43/43
f 42/42/42 44/44/44 43/43/43
f 44/44/44 42/42/42 45/45/45
f 46/46/46 45/45/45 42/42/42
f 47/47/47 42/42/42 37/37/37
f 46/46/46 42/42/42 47/47/47
f 47/47/47 37/37/37 36/36/36
f 47/47/47 48/48/48 46/46/46
f 48/48/48 47/47/47 49/49/49
f 49/49/49 47/47/47 36/36/36
f 48/48/48 49/49/49 50/50/50
f 50/50/50 49/49/49 51/51/51
f 49/49/49 52/52/52 51/51/51
f 49/49/49 36/36/36 52/52/52
f 51/51/51 52/52/52 53/53/53
f 52/52/52 36/36/36 54/54/54
f 36/36/36 38/38/38 54/54/54
f 52/52/52 55/55/55 53/53/53
f 52/52/52 54/54/54 55/55/55
f 53/53/53 55/55/55 56/56/56
f 54/54/54 38/38/38 57/57/57
f 38/38/38 40/40/40 57/57/57
f 40/40/40 58/58/58 57/57/57
f 54/54/54 57/57/57 59/59/59
f 55/55/55 54/54/54 59/59/59
f 57/57/57 58/58/58 60/60/60
f 60/60/60 59/59/59 57/57/57
f 60/60/60 58/58/58 61/61/61
f 60/60/60 61/61/61 62/62/62
f 62/62/62 63/63/63 60/60/60
f 59/59/59 60/60/60 63/63/63
f 63/63/63 62/62/62 64/64/64
f 55/55/55 59/59/59 65/65/65
f 65/65/65 59/59/59 63/63/63
f 55/55/55 65/65/65 56/56/56
f 56/56/56 65/65/65 66/66/66
f 65/65/65 63/63/63 67/67/67
f 64/64/64 67/67/67 63/63/63
f 67/67/67 66/66/66 65/65/65
f 67/67/67 64/64/64 68/68/68
f 66/66/66 67/67/67 69/69/69
f 70/70/70 67/67/67 68/68/68
f 67/67/67 70/70/70 69/69/69
f 71/71/71 72/72/72 73/73/73
f 72/72/72 74/74/74 73/73/73
f 75/75/75 73/73/73 74/74/74
f 76/76/76 71/71/71 73/73/73
f 73/73/73 75/75/75 76/76/76
f 77/77/77 75/75/75 74/74/74
f 77/77/77 78/78/78 75/75/75
f 79/79/79 75/75/75 78/78/78
f 74/74/74 80/80/80 77/77/77
f 75/75/75 79/79/79 81/81/81
f 76/76/76 75/75/75 81/81/81
f 81/81/81 82/82/82 76/76/76
f 82/82/82 83/83/83 76/76/76
f 83/83/83 82/82/82 84/84/84
f 71/71/71 76/76/76 83/83/83
f 83/83/83 84/84/84 85/85/85
f 83/83/83 85/85/85 86/86/86
f 87/87/87 83/83/83 86/86/86
f 83/83/83 87/87/87 71/71/71
f 88/88/88 71/71/71 87/87/87
f 71/71/71 88/88/88 89/89/89
f 90/90/90 89/89/89 88/88/88
f 89/89/89 90/90/90 91/91/91
f 72/72/72 71/71/71 89/89/89
f 91/91/91 72/72/72 89/89/89
f 72/72/72 91/91/91 92/92/92
f 92/92/92 93/93/93 72/72/72
f 74/74/74 72/72/72 93/93/93
f 93/93/93 92/92/92 94/94/94
f 80/80/80 74/74/74 93/93/93
f 95/95/95 93/93/93 94/94/94
f 80/80/80 93/93/93 95/95/95
f 96/96/96 97/97/97 98/98/98
f 97/97/97 99/99/99 98/98/98
f 99/99/99 97/97/97 100/100/100
f 101/101/101 100/100/100 97/97/97
f 100/100/100 101/101/101 102/102/102
f 97/97/97 96/96/96 103/103/103
f 103/103/103 101/101/101 97/97/97
f 96/96/96 104/104/104 103/103/103
f 104/104/104 96/96/96 105/105/105
f 106/106/106 104/104/104 105/105/105
f 107/107/107 104/104/104 106/106/106
f 108/108/108 102/102/102 101/101/101
f 102/102/102 108/108/108 109/109/109
f 108/108/108 110/110/110 109/109/109
f 108/108/108 111/111/111 110/110/110
f 107/107/107 112/112/112 104/104/104
f 112/112/112 107/107/107 113/113/113
f 104/104/104 114/114/114 103/103/103
f 103/103/103 114/114/114 101/101/101
f 114/114/114 104/104/104 112/112/112
f 114/114/114 108/108/108 101/101/101
f 115/115/115 111/111/111 108/108/108
f 108/108/108 114/114/114 115/115/115
f 112/112/112 115/115/115 114/114/114
f 116/116/116 111/111/111 115/115/115
f 113/113/113 117/117/117 112/112/112
f 117/117/117 115/115/115 112/112/112
f 117/117/117 116/116/116 115/115/115
f 113/113/113 118/118/118 117/117/117
f 116/116/116 117/117/117 119/119/119
f 120/120/120 117/117/117 118/118/118
f 117/117/117 120/120/120 119/119/119
f 121/121/121 122/122/122 123/123/123
f 122/122/122 121/121/121 124/124/124
f 124/124/124 125/125/125 122/122/122
f 126/126/126 122/122/122 125/125/125
f 125/125/125 124/124/124 127/127/127
f 124/124/124 128/128/128 127/127/127
f 122/122/122 126/126/126 129/129/129
f 129/129/129 123/123/123 122/122/122
f 130/130/130 129/129/129 126/126/126
f 128/128/128 124/124/124 131/131/131
f 131/131/131 132/132/132 128/128/128
f 131/131/131 91/91/91 132/132/132
f 124/124/124 133/133/133 131/131/131
f 133/133/133 124/124/124 121/121/121
f 131/131/131 134/134/134 91/91/91
f 134/134/134 131/131/131 133/133/133
f 135/135/135 134/134/134 133/133/133
f 136/136/136 133/133/133 121/121/121
f 135/135/135 133/133/133 136/136/136
f 136/136/136 121/121/121 123/123/123
f 134/134/134 135/135/135 94/94/94
f 135/135/135 137/137/137 94/94/94
f 137/137/137 135/135/135 138/138/138
f 136/136/136 138/138/138 135/135/135
f 138/138/138 136/136/136 139/139/139
f 136/136/136 140/140/140 139/139/139
f 140/140/140 136/136/136 141/141/141
f 123/123/123 141/141/141 136/136/136
f 141/141/141 142/142/142 140/140/140
f 143/143/143 141/141/141 123/123/123
f 142/142/142 141/141/141 144/144/144
f 141/141/141 143/143/143 144/144/144
f 144/144/144 145/145/145 142/142/142
f 123/123/123 129/129/129 143/143/143
f 145/145/145 144/144/144 146/146/146
f 145/145/145 146/146/146 147/147/147
f 147/147/147 146/146/146 148/148/148
f 146/146/146 149/149/149 148/148/148
f 144/144/144 150/150/150 146/146/146
f 149/149/149 146/146/146 150/150/150
f 150/150/150 144/144/144 143/143/143
f 150/150/150 151/151/151 149/149/149
f 152/152/152 143/143/143 129/129/129
f 143/143/143 152/152/152 150/150/150
f 151/151/151 150/150/150 152/152/152
f 129/129/129 130/130/130 152/152/152
f 152/152/152 153/153/153 151/151/151
f 153/153/153 152/152/152 130/130/130
f 154/154/154 155/155/155 156/156/156
f 157/157/157 156/156/156 155/155/155
f 157/157/157 155/155/155 158/158/158
f 159/159/159 158/158/158 155/155/155
f 155/155/155 154/154/154 159/159/159
f 157/157/157 158/158/158 160/160/160
f 158/158/158 159/159/159 161/161/161
f 162/162/162 157/157/157 160/160/160
f 157/157/157 162/162/162 163/163/163
f 164/164/164 157/157/157 163/163/163
f 165/165/165 161/161/161 159/159/159
f 161/161/161 165/165/165 166/166/166
f 157/157/157 164/164/164 167/167/167
f 156/156/156 157/157/157 167/167/167
f 164/164/164 168/168/168 167/167/167
f 168/168/168 164/164/164 169/169/169
f 170/170/170 168/168/168 169/169/169
f 171/171/171 168/168/168 170/170/170
f 171/171/171 172/172/172 168/168/168
f 173/173/173 167/167/167 168/168/168
f 167/167/167 173/173/173 156/156/156
f 173/173/173 168/168/168 172/172/172
f 174/174/174 156/156/156 173/173/173
f 172/172/172 174/174/174 173/173/173
f 156/156/156 174/174/174 154/154/154
f 174/174/174 172/172/172 175/175/175
f 175/175/175 176/176/176 174/174/174
f 154/154/154 174/174/174 176/176/176
f 176/176/176 175/175/175 177/177/177
f 176/176/176 178/178/178 154/154/154
f 178/178/178 159/159/159 154/154/154
f 159/159/159 178/178/178 165/165/165
f 177/177/177 179/179/179 176/176/176
f 179/179/179 178/178/178 176/176/176
f 177/177/177 180/180/180 179/179/179
f 181/181/181 179/179/179 180/180/180
f 179/179/179 181/181/181 182/182/182
f 183/183/183 179/179/179 182/182/182
f 178/178/178 179/179/179 184/184/184
f 179/179/179 183/183/183 184/184/184
f 184/184/184 165/165/165 178/178/178
f 183/183/183 185/185/185 184/184/184
f 165/165/165 184/184/184 186/186/186
f 184/184/184 185/185/185 186/186/186
f 186/186/186 166/166/166 165/165/165
f 186/186/186 185/185/185 187/187/187
f 166/166/166 186/186/186 188/188/188
f 186/186/186 187/187/187 188/188/188
