# Generated from Roblox mesh JSON (v2.00)
# Hello from RBX_Toolbox ;)
o RightUpperArm_inner_cage
v 0.520143 0.132998 -0.035328
v 0.522047 0.512908 0.540291
v 0.520142 0.132998 0.540291
v 0.522047 0.512908 -0.035328
v 0.520142 0.132998 -0.540291
v 0.522047 0.512908 -0.540291
v 0.522047 0.512908 -0.035328
v 0.520143 0.132998 -0.035328
v 0.515963 -0.184781 -0.035328
v 0.520142 0.132998 0.540291
v 0.515962 -0.184781 0.540291
v 0.520143 0.132998 -0.035328
v 0.520142 0.132998 -0.540291
v 0.515963 -0.184781 -0.035328
v 0.515962 -0.184782 -0.540291
v 0.520143 0.132998 -0.035328
v 0.511300 -0.507727 -0.035328
v 0.515962 -0.184781 0.540291
v 0.511300 -0.507727 0.540291
v 0.515963 -0.184781 -0.035328
v 0.511300 -0.507727 -0.540291
v 0.515962 -0.184782 -0.540291
v 0.511300 -0.507727 -0.035328
v 0.515963 -0.184781 -0.035328
v -0.206496 -0.313580 0.540291
v -0.517946 -0.318778 0.540291
v -0.520184 -0.415569 0.540291
v -0.206496 -0.133659 0.540291
v -0.206496 0.084419 0.540291
v -0.509088 -0.175493 0.540291
v -0.515935 -0.252178 0.540291
v -0.276101 0.084419 0.540291
v -0.507764 -0.145493 0.540291
v -0.386058 0.084419 0.540291
v -0.458728 0.083189 0.540291
v -0.507764 -0.145493 0.540291
v -0.276101 0.084419 0.540291
v -0.386058 0.084419 0.540291
v -0.509088 -0.175493 0.540291
v -0.206496 -0.133659 0.540291
v -0.515935 -0.252178 0.540291
v -0.517946 -0.318778 0.540291
v -0.206496 0.084419 0.540291
v 0.515962 -0.184781 0.540291
v 0.168880 0.010618 0.540291
v 0.168880 -0.235546 0.540291
v 0.520142 0.132998 0.540291
v 0.520142 0.132998 0.540291
v 0.168880 0.284304 0.540291
v 0.168880 0.010618 0.540291
v 0.522047 0.512908 0.540291
v 0.168880 0.284304 0.540291
v 0.172919 0.512908 0.540291
v -0.067767 0.284305 0.540291
v 0.522047 0.512908 0.540291
v -0.134513 0.512908 0.540291
v -0.271250 0.284305 0.540291
v -0.067767 0.284305 0.540291
v 0.172919 0.512908 0.540291
v -0.271250 0.284305 0.540291
v -0.445992 0.512908 0.540291
v -0.453537 0.286445 0.540291
v -0.134513 0.512908 0.540291
v 0.168880 -0.235546 0.540291
v -0.206496 -0.133659 0.540291
v -0.206496 -0.313580 0.540291
v 0.168880 0.010618 0.540291
v 0.168880 0.010618 0.540291
v -0.206496 0.084419 0.540291
v -0.206496 -0.133659 0.540291
v 0.168880 0.284304 0.540291
v -0.067767 0.284305 0.540291
v -0.206496 0.084419 0.540291
v 0.168880 0.284304 0.540291
v -0.276101 0.084419 0.540291
v -0.276101 0.084419 0.540291
v -0.271250 0.284305 0.540291
v -0.386058 0.084419 0.540291
v -0.067767 0.284305 0.540291
v -0.386058 0.084419 0.540291
v -0.453537 0.286445 0.540291
v -0.458728 0.083189 0.540291
v -0.271250 0.284305 0.540291
v -0.206496 -0.512908 0.540291
v -0.520184 -0.415569 0.540291
v -0.522047 -0.506884 0.540291
v -0.206496 -0.313580 0.540291
v 0.168880 -0.508268 0.540291
v -0.206496 -0.313580 0.540291
v -0.206496 -0.512908 0.540291
v 0.168880 -0.235546 0.540291
v 0.511300 -0.507727 0.540291
v 0.168880 -0.235546 0.540291
v 0.168880 -0.508268 0.540291
v 0.515962 -0.184781 0.540291
v -0.271250 0.284304 -0.540290
v -0.445992 0.512908 -0.540290
v -0.134513 0.512908 -0.540290
v -0.453537 0.286442 -0.540290
v -0.067768 0.284304 -0.540291
v -0.134513 0.512908 -0.540290
v 0.172919 0.512908 -0.540291
v -0.271250 0.284304 -0.540290
v -0.067768 0.284304 -0.540291
v -0.206496 0.084419 -0.540290
v -0.276102 0.084419 -0.540290
v 0.168880 0.284304 -0.540291
v 0.168880 0.284304 -0.540291
v 0.172919 0.512908 -0.540291
v 0.522047 0.512908 -0.540291
v -0.067768 0.284304 -0.540291
v 0.168880 0.010618 -0.540291
v 0.520142 0.132998 -0.540291
v 0.515962 -0.184782 -0.540291
v 0.168880 -0.235546 -0.540291
v -0.206496 -0.133659 -0.540291
v 0.168880 0.010618 -0.540291
v 0.168880 -0.235546 -0.540291
v -0.206496 -0.313580 -0.540291
v -0.271250 0.284304 -0.540290
v -0.386058 0.084419 -0.540290
v -0.453537 0.286442 -0.540290
v -0.458728 0.083189 -0.540290
v -0.517946 -0.318778 -0.540290
v -0.206496 -0.313580 -0.540291
v -0.520493 -0.415569 -0.540290
v -0.206496 -0.133659 -0.540291
v -0.509088 -0.175493 -0.540290
v -0.206496 0.084419 -0.540290
v -0.515935 -0.252178 -0.540290
v -0.276102 0.084419 -0.540290
v -0.386058 0.084419 -0.540290
v -0.507764 -0.145492 -0.540290
v -0.458728 0.083189 -0.540290
v -0.507764 -0.145492 -0.540290
v -0.276102 0.084419 -0.540290
v -0.509088 -0.175493 -0.540290
v -0.386058 0.084419 -0.540290
v -0.276102 0.084419 -0.540290
v -0.271250 0.284304 -0.540290
v -0.067768 0.284304 -0.540291
v -0.386058 0.084419 -0.540290
v -0.206496 0.084419 -0.540290
v 0.168880 0.284304 -0.540291
v 0.168880 0.010618 -0.540291
v -0.206496 -0.133659 -0.540291
v -0.515935 -0.252178 -0.540290
v -0.206496 -0.133659 -0.540291
v -0.517946 -0.318778 -0.540290
v -0.206496 0.084419 -0.540290
v 0.168880 0.284304 -0.540291
v 0.522047 0.512908 -0.540291
v 0.520142 0.132998 -0.540291
v 0.168880 0.010618 -0.540291
v -0.206496 -0.313580 -0.540291
v 0.168880 -0.235546 -0.540291
v 0.168880 -0.508268 -0.540291
v -0.206496 -0.512908 -0.540291
v -0.520493 -0.415569 -0.540290
v -0.206496 -0.313580 -0.540291
v -0.206496 -0.512908 -0.540291
v -0.522047 -0.506884 -0.540290
v 0.168880 -0.235546 -0.540291
v 0.515962 -0.184782 -0.540291
v 0.511300 -0.507727 -0.540291
v 0.168880 -0.508268 -0.540291
v 0.172919 0.512908 -0.035329
v -0.134513 0.512908 0.540291
v 0.172919 0.512908 0.540291
v -0.134513 0.512908 -0.068655
v -0.134513 0.512908 -0.068655
v -0.445992 0.512908 0.540291
v -0.134513 0.512908 0.540291
v -0.445992 0.512908 -0.086173
v 0.522047 0.512908 -0.035328
v 0.172919 0.512908 0.540291
v 0.522047 0.512908 0.540291
v 0.172919 0.512908 -0.035329
v 0.522047 0.512908 -0.540291
v 0.172919 0.512908 -0.540291
v 0.172919 0.512908 -0.540291
v -0.134513 0.512908 -0.068655
v 0.172919 0.512908 -0.035329
v -0.134513 0.512908 -0.540290
v -0.134513 0.512908 -0.540290
v -0.445992 0.512908 -0.540290
v -0.445992 0.512908 -0.086173
v -0.134513 0.512908 -0.068655
v -0.520493 -0.415569 -0.540290
v -0.522047 -0.506884 -0.035330
v -0.520494 -0.415569 -0.035330
v -0.522047 -0.506884 -0.540290
v -0.520494 -0.415569 -0.035330
v -0.522047 -0.506884 0.540291
v -0.520184 -0.415569 0.540291
v -0.522047 -0.506884 -0.035330
v -0.520494 -0.415569 -0.035330
v -0.520184 -0.415569 0.540291
v -0.517946 -0.318779 -0.035330
v -0.517946 -0.318778 0.540291
v -0.520493 -0.415569 -0.540290
v -0.517946 -0.318779 -0.035330
v -0.517946 -0.318778 -0.540290
v -0.520494 -0.415569 -0.035330
v -0.517946 -0.318778 -0.540290
v -0.515935 -0.252179 -0.035330
v -0.515935 -0.252178 -0.540290
v -0.517946 -0.318779 -0.035330
v -0.515935 -0.252179 -0.035330
v -0.517946 -0.318778 0.540291
v -0.515935 -0.252178 0.540291
v -0.517946 -0.318779 -0.035330
v -0.509088 -0.175494 -0.035330
v -0.509088 -0.175493 0.540291
v -0.507764 -0.145494 -0.035330
v -0.507764 -0.145493 0.540291
v -0.509088 -0.175493 -0.540290
v -0.507764 -0.145494 -0.035330
v -0.507764 -0.145492 -0.540290
v -0.509088 -0.175494 -0.035330
v -0.509088 -0.175494 -0.035330
v -0.509088 -0.175493 -0.540290
v -0.515935 -0.252178 -0.540290
v -0.515935 -0.252179 -0.035330
v -0.515935 -0.252179 -0.035330
v -0.515935 -0.252178 0.540291
v -0.509088 -0.175494 -0.035330
v -0.509088 -0.175493 0.540291
v -0.507764 -0.145492 -0.540290
v -0.483915 -0.121210 -0.035330
v -0.484205 -0.121210 -0.540290
v -0.507764 -0.145494 -0.035330
v -0.507764 -0.145494 -0.035330
v -0.483915 -0.121210 0.540291
v -0.483915 -0.121210 -0.035330
v -0.507764 -0.145493 0.540291
vt 2.426604 3.462179
vt 2.535539 3.511224
vt 2.426604 3.511224
vt 2.535539 3.462179
vt 2.426604 3.414270
vt 2.535539 3.414271
vt 2.535539 3.462179
vt 2.426604 3.462179
vt 2.325032 3.462179
vt 2.426604 3.511224
vt 2.325032 3.511224
vt 2.426604 3.462179
vt 2.426604 3.414270
vt 2.325032 3.462179
vt 2.325032 3.414270
vt 2.426604 3.462179
vt 2.249260 3.462179
vt 2.325032 3.511224
vt 2.249260 3.511224
vt 2.325032 3.462179
vt 2.249260 3.414270
vt 2.325032 3.414270
vt 2.249260 3.462179
vt 2.325032 3.462179
vt 2.325031 3.651093
vt 2.426604 3.682632
vt 2.325032 3.682632
vt 2.426604 3.651094
vt 2.535539 3.651093
vt 2.616898 3.682749
vt 2.535539 3.682632
vt 2.616898 3.651093
vt 2.682487 3.682776
vt 2.682487 3.651093
vt 2.750740 3.651093
vt 2.682487 3.682776
vt 2.616898 3.651093
vt 2.682487 3.651093
vt 2.616898 3.682749
vt 2.426604 3.651094
vt 2.535539 3.682632
vt 2.426604 3.682632
vt 2.535539 3.651093
vt 2.325032 3.511224
vt 2.426604 3.579725
vt 2.325032 3.579725
vt 2.426604 3.511224
vt 2.426604 3.511224
vt 2.535539 3.579725
vt 2.426604 3.579725
vt 2.535539 3.511224
vt 2.535539 3.579725
vt 2.616898 3.511224
vt 2.616898 3.579725
vt 2.535539 3.511224
vt 2.682487 3.511224
vt 2.682487 3.579725
vt 2.616898 3.579725
vt 2.616898 3.511224
vt 2.682487 3.579725
vt 2.750740 3.511224
vt 2.750740 3.579725
vt 2.682487 3.511224
vt 2.325032 3.579725
vt 2.426604 3.651094
vt 2.325031 3.651093
vt 2.426604 3.579725
vt 2.426604 3.579725
vt 2.535539 3.651093
vt 2.426604 3.651094
vt 2.535539 3.579725
vt 2.616898 3.579725
vt 2.535539 3.651093
vt 2.535539 3.579725
vt 2.616898 3.651093
vt 2.616898 3.651093
vt 2.682487 3.579725
vt 2.682487 3.651093
vt 2.616898 3.579725
vt 2.682487 3.651093
vt 2.750740 3.579725
vt 2.750740 3.651093
vt 2.682487 3.579725
vt 2.249260 3.651093
vt 2.325032 3.682632
vt 2.249260 3.682632
vt 2.325031 3.651093
vt 2.249260 3.579725
vt 2.325031 3.651093
vt 2.249260 3.651093
vt 2.325032 3.579725
vt 2.249260 3.511224
vt 2.325032 3.579725
vt 2.249260 3.579725
vt 2.325032 3.511224
vt 2.682487 3.344108
vt 2.750740 3.401921
vt 2.682487 3.414271
vt 2.750740 3.343375
vt 2.616898 3.344108
vt 2.682487 3.414271
vt 2.616898 3.414270
vt 2.682487 3.344108
vt 2.616898 3.344108
vt 2.535539 3.273264
vt 2.616898 3.273265
vt 2.535539 3.344108
vt 2.535539 3.344108
vt 2.616898 3.414270
vt 2.535539 3.414271
vt 2.616898 3.344108
vt 2.426604 3.344108
vt 2.426604 3.414270
vt 2.325032 3.414270
vt 2.325031 3.344108
vt 2.426604 3.273265
vt 2.426604 3.344108
vt 2.325031 3.344108
vt 2.325032 3.273265
vt 2.682487 3.344108
vt 2.682487 3.273265
vt 2.750740 3.343375
vt 2.750740 3.273265
vt 2.426604 3.241194
vt 2.325032 3.273265
vt 2.325032 3.241194
vt 2.426604 3.273265
vt 2.616898 3.241270
vt 2.535539 3.273264
vt 2.535539 3.241194
vt 2.616898 3.273265
vt 2.682487 3.273265
vt 2.682487 3.241285
vt 2.750740 3.273265
vt 2.682487 3.241285
vt 2.616898 3.273265
vt 2.616898 3.241270
vt 2.682487 3.273265
vt 2.616898 3.273265
vt 2.682487 3.344108
vt 2.616898 3.344108
vt 2.682487 3.273265
vt 2.535539 3.273264
vt 2.535539 3.344108
vt 2.426604 3.344108
vt 2.426604 3.273265
vt 2.535539 3.241194
vt 2.426604 3.273265
vt 2.426604 3.241194
vt 2.535539 3.273264
vt 2.535539 3.344108
vt 2.535539 3.414271
vt 2.426604 3.414270
vt 2.426604 3.344108
vt 2.325032 3.273265
vt 2.325031 3.344108
vt 2.249260 3.344108
vt 2.249260 3.273265
vt 2.325032 3.241194
vt 2.325032 3.273265
vt 2.249260 3.273265
vt 2.249260 3.241194
vt 2.325031 3.344108
vt 2.325032 3.414270
vt 2.249260 3.414270
vt 2.249260 3.344108
vt 2.616898 3.462179
vt 2.682487 3.511224
vt 2.616898 3.511224
vt 2.682487 3.462179
vt 2.682487 3.462179
vt 2.750740 3.511224
vt 2.682487 3.511224
vt 2.750740 3.462179
vt 2.535539 3.462179
vt 2.616898 3.511224
vt 2.535539 3.511224
vt 2.616898 3.462179
vt 2.535539 3.414271
vt 2.616898 3.414270
vt 2.616898 3.414270
vt 2.682487 3.462179
vt 2.616898 3.462179
vt 2.682487 3.414271
vt 2.682487 3.414271
vt 2.750740 3.401921
vt 2.750740 3.462179
vt 2.682487 3.462179
vt 2.325032 3.241194
vt 2.249260 3.209337
vt 2.325032 3.209337
vt 2.249260 3.241194
vt 2.325031 3.714510
vt 2.249260 3.682632
vt 2.325032 3.682632
vt 2.249260 3.714510
vt 2.325031 3.714510
vt 2.325032 3.682632
vt 2.426604 3.714510
vt 2.426604 3.682632
vt 2.325032 3.241194
vt 2.426604 3.209337
vt 2.426604 3.241194
vt 2.325032 3.209337
vt 2.426604 3.241194
vt 2.535539 3.209337
vt 2.535539 3.241194
vt 2.426604 3.209337
vt 2.535539 3.714510
vt 2.426604 3.682632
vt 2.535539 3.682632
vt 2.426604 3.714510
vt 2.616898 3.714510
vt 2.616898 3.682749
vt 2.682487 3.714511
vt 2.682487 3.682776
vt 2.616898 3.241270
vt 2.682487 3.209337
vt 2.682487 3.241285
vt 2.616898 3.209337
vt 2.616898 3.209337
vt 2.616898 3.241270
vt 2.535539 3.241194
vt 2.535539 3.209337
vt 2.535539 3.714510
vt 2.535539 3.682632
vt 2.616898 3.714510
vt 2.616898 3.682749
vt 2.682487 3.241285
vt 2.750740 3.209337
vt 2.750740 3.241301
vt 2.682487 3.209337
vt 2.682487 3.714511
vt 2.750740 3.682803
vt 2.750740 3.714511
vt 2.682487 3.682776
vn 0.999987 -0.005012 0.000001
vn 0.999987 -0.005012 0.000001
vn 0.999987 -0.005012 0.000001
vn 0.999987 -0.005012 0.000001
vn 0.999987 -0.005014 -0.000001
vn 0.999987 -0.005014 -0.000001
vn 0.999987 -0.005014 -0.000001
vn 0.999987 -0.005014 -0.000001
vn 0.999913 -0.013154 0.000001
vn 0.999913 -0.013154 0.000001
vn 0.999913 -0.013154 0.000001
vn 0.999913 -0.013154 0.000001
vn 0.999914 -0.013152 -0.000002
vn 0.999914 -0.013152 -0.000002
vn 0.999914 -0.013152 -0.000002
vn 0.999914 -0.013152 -0.000002
vn 0.999896 -0.014436 0.000001
vn 0.999896 -0.014436 0.000001
vn 0.999896 -0.014436 0.000001
vn 0.999896 -0.014436 0.000001
vn 0.999896 -0.014435 -0.000001
vn 0.999896 -0.014435 -0.000001
vn 0.999896 -0.014435 -0.000001
vn 0.999896 -0.014435 -0.000001
vn -0.000000 -0.000000 1.000000
vn -0.000000 -0.000000 1.000000
vn -0.000000 -0.000000 1.000000
vn -0.000000 -0.000000 1.000000
vn 0.000001 -0.000000 1.000000
vn 0.000001 -0.000000 1.000000
vn 0.000001 -0.000000 1.000000
vn 0.000001 -0.000000 1.000000
vn -0.000002 0.000000 1.000000
vn -0.000002 0.000000 1.000000
vn -0.000002 0.000000 1.000000
vn -0.000001 -0.000000 1.000000
vn -0.000001 -0.000000 1.000000
vn -0.000001 -0.000000 1.000000
vn -0.000001 -0.000000 1.000000
vn -0.000000 0.000001 1.000000
vn -0.000000 0.000001 1.000000
vn -0.000000 0.000001 1.000000
vn -0.000000 0.000001 1.000000
vn 0.000000 -0.000000 1.000000
vn 0.000000 -0.000000 1.000000
vn 0.000000 -0.000000 1.000000
vn 0.000000 -0.000000 1.000000
vn -0.000000 -0.000000 1.000000
vn -0.000000 -0.000000 1.000000
vn -0.000000 -0.000000 1.000000
vn -0.000000 -0.000000 1.000000
vn -0.000000 0.000001 1.000000
vn -0.000000 0.000001 1.000000
vn -0.000000 0.000001 1.000000
vn -0.000000 0.000001 1.000000
vn 0.000000 0.000001 1.000000
vn 0.000000 0.000001 1.000000
vn 0.000000 0.000001 1.000000
vn 0.000000 0.000001 1.000000
vn -0.000000 0.000000 1.000000
vn -0.000000 0.000000 1.000000
vn -0.000000 0.000000 1.000000
vn -0.000000 0.000000 1.000000
vn -0.000000 0.000000 1.000000
vn -0.000000 0.000000 1.000000
vn -0.000000 0.000000 1.000000
vn -0.000000 0.000000 1.000000
vn -0.000000 0.000000 1.000000
vn -0.000000 0.000000 1.000000
vn -0.000000 0.000000 1.000000
vn -0.000000 0.000000 1.000000
vn 0.000000 -0.000001 1.000000
vn 0.000000 -0.000001 1.000000
vn 0.000000 -0.000001 1.000000
vn 0.000000 -0.000001 1.000000
vn -0.000000 0.000000 1.000000
vn -0.000000 0.000000 1.000000
vn -0.000000 0.000000 1.000000
vn -0.000000 0.000000 1.000000
vn -0.000000 -0.000000 1.000000
vn -0.000000 -0.000000 1.000000
vn -0.000000 -0.000000 1.000000
vn -0.000000 -0.000000 1.000000
vn 0.000000 -0.000000 1.000000
vn 0.000000 -0.000000 1.000000
vn 0.000000 -0.000000 1.000000
vn 0.000000 -0.000000 1.000000
vn -0.000001 -0.000000 1.000000
vn -0.000001 -0.000000 1.000000
vn -0.000001 -0.000000 1.000000
vn -0.000001 -0.000000 1.000000
vn 0.000000 -0.000000 1.000000
vn 0.000000 -0.000000 1.000000
vn 0.000000 -0.000000 1.000000
vn 0.000000 -0.000000 1.000000
vn -0.000000 0.000000 -1.000000
vn -0.000000 0.000000 -1.000000
vn -0.000000 0.000000 -1.000000
vn -0.000000 0.000000 -1.000000
vn -0.000001 0.000001 -1.000000
vn -0.000001 0.000001 -1.000000
vn -0.000001 0.000001 -1.000000
vn -0.000001 0.000001 -1.000000
vn -0.000000 -0.000000 -1.000000
vn -0.000000 -0.000000 -1.000000
vn -0.000000 -0.000000 -1.000000
vn -0.000000 -0.000000 -1.000000
vn 0.000000 0.000000 -1.000000
vn 0.000000 0.000000 -1.000000
vn 0.000000 0.000000 -1.000000
vn 0.000000 0.000000 -1.000000
vn 0.000000 0.000000 -1.000000
vn 0.000000 0.000000 -1.000000
vn 0.000000 0.000000 -1.000000
vn 0.000000 0.000000 -1.000000
vn -0.000001 0.000001 -1.000000
vn -0.000001 0.000001 -1.000000
vn -0.000001 0.000001 -1.000000
vn -0.000001 0.000001 -1.000000
vn -0.000001 0.000000 -1.000000
vn -0.000001 0.000000 -1.000000
vn -0.000001 0.000000 -1.000000
vn -0.000001 0.000000 -1.000000
vn -0.000001 0.000001 -1.000000
vn -0.000001 0.000001 -1.000000
vn -0.000001 0.000001 -1.000000
vn -0.000001 0.000001 -1.000000
vn -0.000000 -0.000000 -1.000000
vn -0.000000 -0.000000 -1.000000
vn -0.000000 -0.000000 -1.000000
vn -0.000000 -0.000000 -1.000000
vn 0.000000 0.000000 -1.000000
vn 0.000000 0.000000 -1.000000
vn 0.000000 0.000000 -1.000000
vn 0.000000 0.000000 -1.000000
vn 0.000000 0.000000 -1.000000
vn 0.000000 0.000000 -1.000000
vn 0.000000 0.000000 -1.000000
vn -0.000001 0.000000 -1.000000
vn -0.000001 0.000000 -1.000000
vn -0.000001 0.000000 -1.000000
vn -0.000001 0.000000 -1.000000
vn -0.000000 -0.000000 -1.000000
vn -0.000000 -0.000000 -1.000000
vn -0.000000 -0.000000 -1.000000
vn -0.000000 -0.000000 -1.000000
vn -0.000001 0.000000 -1.000000
vn -0.000001 0.000000 -1.000000
vn -0.000001 0.000000 -1.000000
vn -0.000001 0.000000 -1.000000
vn -0.000000 -0.000000 -1.000000
vn -0.000000 -0.000000 -1.000000
vn -0.000000 -0.000000 -1.000000
vn -0.000000 -0.000000 -1.000000
vn -0.000000 -0.000000 -1.000000
vn -0.000000 -0.000000 -1.000000
vn -0.000000 -0.000000 -1.000000
vn -0.000000 -0.000000 -1.000000
vn -0.000001 0.000000 -1.000000
vn -0.000001 0.000000 -1.000000
vn -0.000001 0.000000 -1.000000
vn -0.000001 0.000000 -1.000000
vn 0.000000 -0.000000 -1.000000
vn 0.000000 -0.000000 -1.000000
vn 0.000000 -0.000000 -1.000000
vn 0.000000 -0.000000 -1.000000
vn -0.000000 1.000000 0.000000
vn -0.000000 1.000000 0.000000
vn -0.000000 1.000000 0.000000
vn -0.000000 1.000000 0.000000
vn 0.000000 1.000000 0.000000
vn 0.000000 1.000000 0.000000
vn 0.000000 1.000000 0.000000
vn 0.000000 1.000000 0.000000
vn 0.000000 1.000000 0.000000
vn 0.000000 1.000000 0.000000
vn 0.000000 1.000000 0.000000
vn 0.000000 1.000000 0.000000
vn 0.000000 1.000000 0.000000
vn 0.000000 1.000000 0.000000
vn -0.000000 1.000000 0.000000
vn -0.000000 1.000000 0.000000
vn -0.000000 1.000000 0.000000
vn -0.000000 1.000000 0.000000
vn 0.000000 1.000000 -0.000000
vn 0.000000 1.000000 -0.000000
vn 0.000000 1.000000 -0.000000
vn 0.000000 1.000000 -0.000000
vn -0.999855 0.017007 -0.000001
vn -0.999855 0.017007 -0.000001
vn -0.999855 0.017007 -0.000001
vn -0.999855 0.017007 -0.000001
vn -0.999825 0.018703 0.000270
vn -0.999825 0.018703 0.000270
vn -0.999825 0.018703 0.000270
vn -0.999825 0.018703 0.000270
vn -0.999695 0.024714 0.000270
vn -0.999695 0.024714 0.000270
vn -0.999695 0.024714 0.000270
vn -0.999695 0.024714 0.000270
vn -0.999654 0.026311 -0.000001
vn -0.999654 0.026311 -0.000001
vn -0.999654 0.026311 -0.000001
vn -0.999654 0.026311 -0.000001
vn -0.999544 0.030184 -0.000000
vn -0.999544 0.030184 -0.000000
vn -0.999544 0.030184 -0.000000
vn -0.999544 0.030184 -0.000000
vn -0.999544 0.030184 0.000000
vn -0.999544 0.030184 0.000000
vn -0.999544 0.030184 0.000000
vn -0.999544 0.030184 0.000000
vn -0.999027 0.044103 0.000000
vn -0.999027 0.044103 0.000000
vn -0.999027 0.044103 0.000000
vn -0.999027 0.044103 0.000000
vn -0.999027 0.044103 -0.000000
vn -0.999027 0.044103 -0.000000
vn -0.999027 0.044103 -0.000000
vn -0.999027 0.044103 -0.000000
vn -0.996038 0.088932 -0.000000
vn -0.996038 0.088932 -0.000000
vn -0.996038 0.088932 -0.000000
vn -0.996038 0.088932 -0.000000
vn -0.996038 0.088931 0.000000
vn -0.996038 0.088931 0.000000
vn -0.996038 0.088931 0.000000
vn -0.996038 0.088931 0.000000
vn -0.715602 0.698508 0.000206
vn -0.715602 0.698508 0.000206
vn -0.715602 0.698508 0.000206
vn -0.715602 0.698508 0.000206
vn -0.713474 0.700681 -0.000001
vn -0.713474 0.700681 -0.000001
vn -0.713474 0.700681 -0.000001
vn -0.713474 0.700681 -0.000001
f 1/1/1 2/2/2 3/3/3
f 2/2/2 1/1/1 4/4/4
f 5/5/5 6/6/6 7/7/7
f 5/5/5 7/7/7 8/8/8
f 9/9/9 10/10/10 11/11/11
f 10/10/10 9/9/9 12/12/12
f 13/13/13 14/14/14 15/15/15
f 14/14/14 13/13/13 16/16/16
f 17/17/17 18/18/18 19/19/19
f 18/18/18 17/17/17 20/20/20
f 21/21/21 22/22/22 23/23/23
f 22/22/22 24/24/24 23/23/23
f 25/25/25 26/26/26 27/27/27
f 28/28/28 26/26/26 25/25/25
f 29/29/29 30/30/30 31/31/31
f 30/30/30 29/29/29 32/32/32
f 33/33/33 34/34/34 35/35/35
f 36/36/36 37/37/37 38/38/38
f 39/39/39 37/37/37 36/36/36
f 40/40/40 41/41/41 42/42/42
f 43/43/43 41/41/41 40/40/40
f 44/44/44 45/45/45 46/46/46
f 45/45/45 44/44/44 47/47/47
f 48/48/48 49/49/49 50/50/50
f 48/48/48 51/51/51 49/49/49
f 52/52/52 53/53/53 54/54/54
f 53/53/53 52/52/52 55/55/55
f 56/56/56 57/57/57 58/58/58
f 58/58/58 59/59/59 56/56/56
f 60/60/60 61/61/61 62/62/62
f 61/61/61 60/60/60 63/63/63
f 64/64/64 65/65/65 66/66/66
f 65/65/65 64/64/64 67/67/67
f 68/68/68 69/69/69 70/70/70
f 68/68/68 71/71/71 69/69/69
f 72/72/72 73/73/73 74/74/74
f 73/73/73 72/72/72 75/75/75
f 76/76/76 77/77/77 78/78/78
f 77/77/77 76/76/76 79/79/79
f 80/80/80 81/81/81 82/82/82
f 81/81/81 80/80/80 83/83/83
f 84/84/84 85/85/85 86/86/86
f 85/85/85 84/84/84 87/87/87
f 88/88/88 89/89/89 90/90/90
f 89/89/89 88/88/88 91/91/91
f 92/92/92 93/93/93 94/94/94
f 93/93/93 92/92/92 95/95/95
f 96/96/96 97/97/97 98/98/98
f 97/97/97 96/96/96 99/99/99
f 100/100/100 101/101/101 102/102/102
f 101/101/101 100/100/100 103/103/103
f 104/104/104 105/105/105 106/106/106
f 105/105/105 104/104/104 107/107/107
f 108/108/108 109/109/109 110/110/110
f 109/109/109 108/108/108 111/111/111
f 112/112/112 113/113/113 114/114/114
f 112/112/112 114/114/114 115/115/115
f 116/116/116 117/117/117 118/118/118
f 116/116/116 118/118/118 119/119/119
f 120/120/120 121/121/121 122/122/122
f 122/122/122 121/121/121 123/123/123
f 124/124/124 125/125/125 126/126/126
f 125/125/125 124/124/124 127/127/127
f 128/128/128 129/129/129 130/130/130
f 129/129/129 128/128/128 131/131/131
f 132/132/132 133/133/133 134/134/134
f 135/135/135 136/136/136 137/137/137
f 136/136/136 135/135/135 138/138/138
f 139/139/139 140/140/140 141/141/141
f 140/140/140 139/139/139 142/142/142
f 143/143/143 144/144/144 145/145/145
f 143/143/143 145/145/145 146/146/146
f 147/147/147 148/148/148 149/149/149
f 148/148/148 147/147/147 150/150/150
f 151/151/151 152/152/152 153/153/153
f 151/151/151 153/153/153 154/154/154
f 155/155/155 156/156/156 157/157/157
f 155/155/155 157/157/157 158/158/158
f 159/159/159 160/160/160 161/161/161
f 159/159/159 161/161/161 162/162/162
f 163/163/163 164/164/164 165/165/165
f 163/163/163 165/165/165 166/166/166
f 167/167/167 168/168/168 169/169/169
f 168/168/168 167/167/167 170/170/170
f 171/171/171 172/172/172 173/173/173
f 172/172/172 171/171/171 174/174/174
f 175/175/175 176/176/176 177/177/177
f 176/176/176 175/175/175 178/178/178
f 179/179/179 178/178/178 175/175/175
f 179/179/179 180/180/180 178/178/178
f 181/181/181 182/182/182 183/183/183
f 182/182/182 181/181/181 184/184/184
f 185/185/185 186/186/186 187/187/187
f 185/185/185 187/187/187 188/188/188
f 189/189/189 190/190/190 191/191/191
f 190/190/190 189/189/189 192/192/192
f 193/193/193 194/194/194 195/195/195
f 194/194/194 193/193/193 196/196/196
f 197/197/197 198/198/198 199/199/199
f 199/199/199 198/198/198 200/200/200
f 201/201/201 202/202/202 203/203/203
f 202/202/202 201/201/201 204/204/204
f 205/205/205 206/206/206 207/207/207
f 206/206/206 205/205/205 208/208/208
f 209/209/209 210/210/210 211/211/211
f 210/210/210 209/209/209 212/212/212
f 213/213/213 214/214/214 215/215/215
f 215/215/215 214/214/214 216/216/216
f 217/217/217 218/218/218 219/219/219
f 218/218/218 217/217/217 220/220/220
f 221/221/221 222/222/222 223/223/223
f 223/223/223 224/224/224 221/221/221
f 225/225/225 226/226/226 227/227/227
f 227/227/227 226/226/226 228/228/228
f 229/229/229 230/230/230 231/231/231
f 230/230/230 229/229/229 232/232/232
f 233/233/233 234/234/234 235/235/235
f 234/234/234 233/233/233 236/236/236
