# Generated from Roblox mesh JSON (v2.00)
# Hello from RBX_Toolbox ;)
o RightHand_inner_cage
v -0.044602 0.035643 0.472920
v 0.164059 0.080804 0.472920
v -0.035690 0.132992 0.472920
v 0.106388 -0.040834 0.472920
v -0.053881 -0.090096 0.472920
v 0.106388 -0.040834 0.472920
v -0.044602 0.035643 0.472920
v 0.012199 -0.131624 0.472920
v -0.053881 -0.090096 0.472920
v -0.061856 -0.161207 0.472920
v 0.012199 -0.131624 0.472920
v -0.093221 -0.114486 0.472920
v 0.106388 -0.040834 0.472920
v 0.075168 -0.183507 0.472920
v 0.207149 -0.091332 0.472920
v 0.012199 -0.131624 0.472920
v -0.035690 0.132992 0.472920
v -0.295138 0.042475 0.472920
v -0.116193 0.069241 0.472920
v -0.044602 0.035643 0.472920
v -0.084996 -0.053676 0.472920
v -0.044602 0.035643 0.472920
v -0.116193 0.069241 0.472920
v -0.053881 -0.090096 0.472920
v -0.084996 -0.053676 0.472920
v -0.093221 -0.114486 0.472920
v -0.053881 -0.090096 0.472920
v -0.144417 -0.111782 0.472920
v -0.061856 -0.161207 0.472920
v -0.093221 -0.114486 0.472920
v -0.144417 -0.111782 0.472920
v -0.089580 -0.238919 0.472920
v -0.061856 -0.161207 0.472920
v 0.075168 -0.183507 0.472920
v 0.012199 -0.131624 0.472920
v -0.089580 -0.238919 0.472920
v 0.207149 -0.091332 0.472920
v 0.164059 0.080804 0.472920
v 0.106388 -0.040834 0.472920
v 0.313079 0.044415 0.472920
v 0.313079 0.044415 0.472920
v 0.174863 0.183672 0.498047
v 0.164059 0.080804 0.472920
v 0.462018 0.183672 0.498047
v -0.035027 0.183672 0.498047
v -0.295138 0.042475 0.472920
v -0.035690 0.132992 0.472920
v -0.409426 0.095223 0.472920
v -0.035690 0.132992 0.472920
v 0.164059 0.080804 0.472920
v 0.174863 0.183672 0.498047
v -0.035027 0.183672 0.498047
v 0.462018 0.183672 -0.462655
v 0.313079 0.044414 -0.462655
v 0.171068 0.189200 -0.462655
v 0.031032 0.103492 -0.462655
v 0.207149 -0.091333 -0.462655
v 0.031032 0.103492 -0.462655
v 0.313079 0.044414 -0.462655
v -0.116193 0.069240 -0.462655
v -0.084996 -0.053676 -0.462655
v 0.075167 -0.183506 -0.462655
v -0.089581 -0.238919 -0.462655
v -0.144417 -0.111782 -0.462655
v -0.188810 0.141533 -0.462655
v -0.192048 0.158646 -0.462655
v -0.154598 0.134187 -0.462655
v -0.154598 0.134187 -0.462655
v -0.192048 0.158646 -0.462655
v -0.134222 0.140807 -0.462655
v -0.122265 0.162945 -0.462655
v -0.134222 0.140807 -0.462655
v -0.192048 0.158646 -0.462655
v -0.242136 0.108130 -0.462655
v -0.295138 0.042475 -0.462655
v -0.409427 0.095223 -0.462655
v -0.242136 0.108130 -0.462655
v -0.409427 0.095223 -0.462655
v -0.204571 0.195985 -0.462655
v -0.205822 0.168764 -0.462655
v -0.204571 0.195985 -0.462655
v 0.171068 0.189200 -0.462655
v -0.086790 0.173240 -0.462655
v -0.205822 0.168764 -0.462655
v -0.097217 0.132344 -0.462655
v -0.122265 0.162945 -0.462655
v -0.086790 0.173240 -0.462655
v -0.134222 0.140807 -0.462655
v -0.128194 0.110356 -0.462655
v -0.134222 0.140807 -0.462655
v -0.097217 0.132344 -0.462655
v -0.154598 0.134187 -0.462655
v -0.128194 0.110356 -0.462655
v -0.242136 0.108130 -0.462655
v -0.154598 0.134187 -0.462655
v -0.188810 0.141533 -0.462655
v -0.188810 0.141533 -0.462655
v -0.205822 0.168764 -0.462655
v -0.192048 0.158646 -0.462655
v -0.242136 0.108130 -0.462655
v -0.205822 0.168764 -0.462655
v -0.086790 0.173240 -0.462655
v -0.122265 0.162945 -0.462655
v -0.192048 0.158646 -0.462655
v -0.242136 0.108130 -0.462655
v -0.128194 0.110356 -0.462655
v -0.116193 0.069240 -0.462655
v -0.242136 0.108130 -0.462655
v -0.116193 0.069240 -0.462655
v -0.295138 0.042475 -0.462655
v 0.207149 -0.091333 -0.462655
v -0.084996 -0.053676 -0.462655
v -0.116193 0.069240 -0.462655
v 0.075167 -0.183506 -0.462655
v 0.031032 0.103492 -0.462655
v -0.086790 0.173240 -0.462655
v 0.171068 0.189200 -0.462655
v -0.097217 0.132344 -0.462655
v -0.097217 0.132344 -0.462655
v -0.116193 0.069240 -0.462655
v -0.128194 0.110356 -0.462655
v 0.031032 0.103492 -0.462655
v -0.409426 0.095223 0.472920
v -0.035027 0.183672 0.498047
v -0.177123 0.238919 0.540291
v -0.516974 0.238919 0.540291
v 0.516973 0.238919 0.540291
v 0.195467 0.238919 0.540291
v 0.462018 0.183672 0.498047
v 0.174863 0.183672 0.498047
v 0.195467 0.238919 0.540291
v -0.177123 0.238919 0.540291
v -0.035027 0.183672 0.498047
v 0.174863 0.183672 0.498047
v -0.516974 0.238919 -0.056971
v -0.409426 0.095223 0.472920
v -0.516974 0.238919 0.540291
v -0.409426 0.095223 -0.035330
v -0.516974 0.238919 -0.056971
v -0.516974 0.238919 -0.540291
v -0.409427 0.095223 -0.462655
v -0.409426 0.095223 -0.035330
v 0.207149 -0.091333 -0.035328
v 0.207149 -0.091333 -0.462655
v 0.313079 0.044414 -0.462655
v 0.313079 0.044415 -0.035328
v 0.313079 0.044415 -0.035328
v 0.207149 -0.091332 0.472920
v 0.207149 -0.091333 -0.035328
v 0.313079 0.044415 0.472920
v -0.089581 -0.238919 -0.035329
v -0.089581 -0.238919 -0.462655
v 0.075167 -0.183506 -0.462655
v 0.075168 -0.183507 -0.035329
v -0.089580 -0.238919 0.472920
v -0.089581 -0.238919 -0.035329
v 0.075168 -0.183507 -0.035329
v 0.075168 -0.183507 0.472920
v 0.516973 0.238919 -0.035433
v 0.462018 0.183672 0.498047
v 0.462018 0.183672 -0.035328
v 0.516973 0.238919 0.540291
v 0.462018 0.183672 -0.462655
v 0.516973 0.238919 -0.035433
v 0.462018 0.183672 -0.035328
v 0.516974 0.238919 -0.540291
v 0.207149 -0.091333 -0.462655
v 0.075168 -0.183507 -0.035329
v 0.075167 -0.183506 -0.462655
v 0.207149 -0.091333 -0.035328
v 0.207149 -0.091333 -0.035328
v 0.075168 -0.183507 0.472920
v 0.075168 -0.183507 -0.035329
v 0.207149 -0.091332 0.472920
v -0.204571 0.195985 -0.462655
v -0.516974 0.238919 -0.540291
v -0.177123 0.238919 -0.540291
v -0.409427 0.095223 -0.462655
v 0.313079 0.044415 0.472920
v 0.313079 0.044415 -0.035328
v 0.462018 0.183672 -0.035328
v 0.462018 0.183672 0.498047
v 0.313079 0.044415 -0.035328
v 0.313079 0.044414 -0.462655
v 0.462018 0.183672 -0.462655
v 0.462018 0.183672 -0.035328
v -0.144417 -0.111782 -0.462655
v -0.089581 -0.238919 -0.035329
v -0.144417 -0.111782 -0.035329
v -0.089581 -0.238919 -0.462655
v -0.144417 -0.111782 -0.035329
v -0.089580 -0.238919 0.472920
v -0.144417 -0.111782 0.472920
v -0.089581 -0.238919 -0.035329
v 0.195467 0.238919 -0.540291
v 0.516974 0.238919 -0.540291
v 0.462018 0.183672 -0.462655
v 0.171068 0.189200 -0.462655
v -0.295138 0.042475 -0.462655
v -0.409426 0.095223 -0.035330
v -0.409427 0.095223 -0.462655
v -0.295138 0.042475 -0.035328
v -0.409426 0.095223 0.472920
v -0.409426 0.095223 -0.035330
v -0.295138 0.042475 -0.035328
v -0.295138 0.042475 0.472920
v -0.177123 0.238919 -0.540291
v 0.195467 0.238919 -0.540291
v 0.171068 0.189200 -0.462655
v -0.204571 0.195985 -0.462655
v -0.116193 0.069240 -0.462655
v -0.084996 -0.053676 -0.035329
v -0.116193 0.069241 -0.035328
v -0.084996 -0.053676 -0.462655
v -0.116193 0.069241 -0.035328
v -0.084996 -0.053676 0.472920
v -0.116193 0.069241 0.472920
v -0.084996 -0.053676 -0.035329
v -0.144417 -0.111782 -0.462655
v -0.084996 -0.053676 -0.035329
v -0.084996 -0.053676 -0.462655
v -0.144417 -0.111782 -0.035329
v -0.144417 -0.111782 -0.035329
v -0.084996 -0.053676 0.472920
v -0.084996 -0.053676 -0.035329
v -0.144417 -0.111782 0.472920
v -0.295138 0.042475 -0.462655
v -0.116193 0.069241 -0.035328
v -0.295138 0.042475 -0.035328
v -0.116193 0.069240 -0.462655
v -0.295138 0.042475 -0.035328
v -0.116193 0.069241 0.472920
v -0.295138 0.042475 0.472920
v -0.116193 0.069241 -0.035328
vt 0.500000 3.699008
vt 0.543731 3.610334
vt 0.543731 3.699008
vt 0.500000 3.610334
vt 0.428439 3.699008
vt 0.500000 3.610334
vt 0.500000 3.699008
vt 0.428439 3.610334
vt 0.428439 3.699008
vt 0.380733 3.610334
vt 0.428439 3.610334
vt 0.380733 3.699008
vt 0.500000 3.610334
vt 0.428439 3.570579
vt 0.501911 3.572374
vt 0.428439 3.610334
vt 0.543731 3.209337
vt 0.529943 3.242566
vt 0.498556 3.245224
vt 0.500000 3.209337
vt 0.428439 3.245110
vt 0.500000 3.209337
vt 0.498556 3.245224
vt 0.428439 3.209337
vt 0.428439 3.245110
vt 0.380733 3.209338
vt 0.428439 3.209337
vt 0.380733 3.245110
vt 0.380733 3.610334
vt 0.333028 3.610334
vt 0.333028 3.570579
vt 0.380733 3.570579
vt 0.380733 3.610334
vt 0.428439 3.570579
vt 0.428439 3.610334
vt 0.380733 3.570579
vt 0.501911 3.572374
vt 0.543731 3.610334
vt 0.500000 3.610334
vt 0.544687 3.576332
vt 0.544687 3.576332
vt 0.587461 3.610334
vt 0.543731 3.610334
vt 0.587461 3.580290
vt 0.587461 3.209338
vt 0.529943 3.242566
vt 0.543731 3.209337
vt 0.587461 3.266475
vt 0.543731 3.699008
vt 0.543731 3.610334
vt 0.587461 3.610334
vt 0.587461 3.699008
vt 0.447707 3.950107
vt 0.426105 3.909998
vt 0.463052 3.909998
vt 0.426105 3.887921
vt 0.404183 3.948965
vt 0.426105 3.887921
vt 0.426105 3.909998
vt 0.389158 3.909998
vt 0.428439 3.352427
vt 0.428439 3.451313
vt 0.380733 3.451313
vt 0.380733 3.352427
vt 0.536947 3.799157
vt 0.500000 3.799157
vt 0.500000 3.749893
vt 0.500000 3.749893
vt 0.500000 3.799157
vt 0.463053 3.762209
vt 0.463052 3.799157
vt 0.463053 3.762209
vt 0.500000 3.799157
vt 0.536947 3.848420
vt 0.574410 3.910355
vt 0.536947 3.909998
vt 0.536947 3.848420
vt 0.536947 3.909998
vt 0.500000 3.909998
vt 0.500000 3.848420
vt 0.500000 3.909998
vt 0.463052 3.909998
vt 0.463053 3.848420
vt 0.500000 3.848420
vt 0.426105 3.848420
vt 0.463052 3.799157
vt 0.463053 3.848420
vt 0.426105 3.799157
vt 0.389158 3.848420
vt 0.426105 3.799157
vt 0.426105 3.848420
vt 0.389158 3.799157
vt 0.610842 3.848420
vt 0.536947 3.848420
vt 0.610842 3.799156
vt 0.536947 3.799157
vt 0.536947 3.799157
vt 0.500000 3.848420
vt 0.500000 3.799157
vt 0.536947 3.848420
vt 0.500000 3.848420
vt 0.463053 3.848420
vt 0.463052 3.799157
vt 0.500000 3.799157
vt 0.536947 3.848420
vt 0.610842 3.848420
vt 0.610842 3.909998
vt 0.536947 3.848420
vt 0.610842 3.909998
vt 0.574410 3.910355
vt 0.485305 3.452107
vt 0.428439 3.352427
vt 0.494224 3.352882
vt 0.428439 3.451313
vt 0.426105 3.887921
vt 0.463053 3.848420
vt 0.463052 3.909998
vt 0.426105 3.848420
vt 0.426105 3.848420
vt 0.389158 3.909998
vt 0.389158 3.848420
vt 0.426105 3.887921
vt 0.587461 3.266475
vt 0.587461 3.209338
vt 0.666973 3.209337
vt 0.666973 3.265375
vt 0.666972 3.572106
vt 0.666973 3.599326
vt 0.587461 3.580290
vt 0.587461 3.610334
vt 0.666973 3.599326
vt 0.666972 3.699008
vt 0.587461 3.699008
vt 0.587461 3.610334
vt 0.666973 3.288848
vt 0.587461 3.266475
vt 0.666973 3.265375
vt 0.587461 3.288848
vt 0.666973 3.288848
vt 0.666973 3.320638
vt 0.587461 3.320623
vt 0.587461 3.288848
vt 0.503976 3.531378
vt 0.485305 3.452107
vt 0.507951 3.452423
vt 0.545718 3.539611
vt 0.545718 3.539611
vt 0.501911 3.572374
vt 0.503976 3.531378
vt 0.544687 3.576332
vt 0.380733 3.530823
vt 0.380733 3.451313
vt 0.428439 3.451313
vt 0.428439 3.530823
vt 0.380733 3.570579
vt 0.380733 3.530823
vt 0.428439 3.530823
vt 0.428439 3.570579
vt 0.666972 3.530823
vt 0.587461 3.580290
vt 0.587461 3.547844
vt 0.666972 3.572106
vt 0.587461 3.505412
vt 0.666972 3.530823
vt 0.587461 3.547844
vt 0.666972 3.482430
vt 0.485305 3.452107
vt 0.428439 3.530823
vt 0.428439 3.451313
vt 0.503976 3.531378
vt 0.503976 3.531378
vt 0.428439 3.570579
vt 0.428439 3.530823
vt 0.501911 3.572374
vt 0.601109 3.352427
vt 0.666973 3.320638
vt 0.666973 3.352427
vt 0.587461 3.320623
vt 0.544687 3.576332
vt 0.545718 3.539611
vt 0.587461 3.547844
vt 0.587461 3.580290
vt 0.545718 3.539611
vt 0.507951 3.452423
vt 0.587461 3.505412
vt 0.587461 3.547844
vt 0.333028 3.451313
vt 0.380733 3.530823
vt 0.333028 3.530823
vt 0.380733 3.451313
vt 0.333028 3.530823
vt 0.380733 3.570579
vt 0.333028 3.570579
vt 0.380733 3.530823
vt 0.666972 3.414665
vt 0.666972 3.482430
vt 0.587461 3.505412
vt 0.587461 3.419508
vt 0.527509 3.322503
vt 0.587461 3.288848
vt 0.587461 3.320623
vt 0.516156 3.275795
vt 0.587461 3.266475
vt 0.587461 3.288848
vt 0.516156 3.275795
vt 0.529943 3.242566
vt 0.666973 3.352427
vt 0.666972 3.414665
vt 0.587461 3.419508
vt 0.601109 3.352427
vt 0.494224 3.352882
vt 0.428439 3.280882
vt 0.497112 3.281110
vt 0.428439 3.352427
vt 0.497112 3.281110
vt 0.428439 3.245110
vt 0.498556 3.245224
vt 0.428439 3.280882
vt 0.380733 3.352427
vt 0.428439 3.280882
vt 0.428439 3.352427
vt 0.380733 3.280882
vt 0.380733 3.280882
vt 0.428439 3.245110
vt 0.428439 3.280882
vt 0.380733 3.245110
vt 0.527509 3.322503
vt 0.497112 3.281110
vt 0.516156 3.275795
vt 0.494224 3.352882
vt 0.516156 3.275795
vt 0.498556 3.245224
vt 0.529943 3.242566
vt 0.497112 3.281110
vn -0.000000 0.000000 1.000000
vn -0.000000 0.000000 1.000000
vn -0.000000 0.000000 1.000000
vn -0.000000 0.000000 1.000000
vn -0.000001 -0.000000 1.000000
vn -0.000001 -0.000000 1.000000
vn -0.000001 -0.000000 1.000000
vn -0.000001 -0.000000 1.000000
vn -0.000000 0.000000 1.000000
vn -0.000000 0.000000 1.000000
vn -0.000000 0.000000 1.000000
vn -0.000000 0.000000 1.000000
vn 0.000000 -0.000000 1.000000
vn 0.000000 -0.000000 1.000000
vn 0.000000 -0.000000 1.000000
vn 0.000000 -0.000000 1.000000
vn -0.000000 -0.000000 1.000000
vn -0.000000 -0.000000 1.000000
vn -0.000000 -0.000000 1.000000
vn -0.000000 -0.000000 1.000000
vn 0.000001 -0.000000 1.000000
vn 0.000001 -0.000000 1.000000
vn 0.000001 -0.000000 1.000000
vn 0.000001 -0.000000 1.000000
vn -0.000000 -0.000000 1.000000
vn -0.000000 -0.000000 1.000000
vn -0.000000 -0.000000 1.000000
vn -0.000000 -0.000000 1.000000
vn -0.000001 0.000000 1.000000
vn -0.000001 0.000000 1.000000
vn -0.000001 0.000000 1.000000
vn -0.000001 0.000000 1.000000
vn -0.000000 -0.000000 1.000000
vn -0.000000 -0.000000 1.000000
vn -0.000000 -0.000000 1.000000
vn -0.000000 -0.000000 1.000000
vn -0.000000 -0.000000 1.000000
vn -0.000000 -0.000000 1.000000
vn -0.000000 -0.000000 1.000000
vn -0.000000 -0.000000 1.000000
vn -0.016101 -0.192996 0.981067
vn -0.016101 -0.192996 0.981067
vn -0.016101 -0.192996 0.981067
vn -0.016101 -0.192996 0.981067
vn 0.021582 -0.213564 0.976691
vn 0.021582 -0.213564 0.976691
vn 0.021582 -0.213564 0.976691
vn 0.021582 -0.213564 0.976691
vn -0.039259 -0.308154 0.950526
vn -0.039259 -0.308154 0.950526
vn -0.039259 -0.308154 0.950526
vn -0.039259 -0.308154 0.950526
vn -0.000000 -0.000000 -1.000000
vn -0.000000 -0.000000 -1.000000
vn -0.000000 -0.000000 -1.000000
vn -0.000000 -0.000000 -1.000000
vn -0.000000 0.000000 -1.000000
vn -0.000000 0.000000 -1.000000
vn -0.000000 0.000000 -1.000000
vn -0.000000 0.000000 -1.000000
vn 0.000000 0.000000 -1.000000
vn 0.000000 0.000000 -1.000000
vn 0.000000 0.000000 -1.000000
vn 0.000000 0.000000 -1.000000
vn 0.000001 0.000002 -1.000000
vn 0.000001 0.000002 -1.000000
vn 0.000001 0.000002 -1.000000
vn 0.000000 0.000005 -1.000000
vn 0.000000 0.000005 -1.000000
vn 0.000000 0.000005 -1.000000
vn 0.000000 0.000001 -1.000000
vn 0.000000 0.000001 -1.000000
vn 0.000000 0.000001 -1.000000
vn 0.000001 -0.000002 -1.000000
vn 0.000001 -0.000002 -1.000000
vn 0.000001 -0.000002 -1.000000
vn 0.000000 0.000000 -1.000000
vn 0.000000 0.000000 -1.000000
vn 0.000000 0.000000 -1.000000
vn 0.000000 0.000000 -1.000000
vn 0.000000 0.000001 -1.000000
vn 0.000000 0.000001 -1.000000
vn 0.000000 0.000001 -1.000000
vn 0.000000 0.000001 -1.000000
vn -0.000001 0.000002 -1.000000
vn -0.000001 0.000002 -1.000000
vn -0.000001 0.000002 -1.000000
vn -0.000001 0.000002 -1.000000
vn 0.000000 0.000002 -1.000000
vn 0.000000 0.000002 -1.000000
vn 0.000000 0.000002 -1.000000
vn 0.000000 0.000002 -1.000000
vn -0.000000 0.000000 -1.000000
vn -0.000000 0.000000 -1.000000
vn -0.000000 0.000000 -1.000000
vn -0.000000 0.000000 -1.000000
vn -0.000000 -0.000000 -1.000000
vn -0.000000 -0.000000 -1.000000
vn -0.000000 -0.000000 -1.000000
vn -0.000000 -0.000000 -1.000000
vn 0.000001 -0.000006 -1.000000
vn 0.000001 -0.000006 -1.000000
vn 0.000001 -0.000006 -1.000000
vn 0.000001 -0.000006 -1.000000
vn -0.000000 -0.000001 -1.000000
vn -0.000000 -0.000001 -1.000000
vn -0.000000 -0.000001 -1.000000
vn -0.000000 -0.000001 -1.000000
vn -0.000000 -0.000001 -1.000000
vn -0.000000 -0.000001 -1.000000
vn 0.000000 0.000000 -1.000000
vn 0.000000 0.000000 -1.000000
vn 0.000000 0.000000 -1.000000
vn 0.000000 0.000000 -1.000000
vn 0.000000 0.000000 -1.000000
vn 0.000000 0.000000 -1.000000
vn 0.000000 0.000000 -1.000000
vn 0.000000 0.000000 -1.000000
vn 0.000000 -0.000001 -1.000000
vn 0.000000 -0.000001 -1.000000
vn 0.000000 -0.000001 -1.000000
vn 0.000000 -0.000001 -1.000000
vn 0.025423 -0.457764 0.888710
vn 0.025423 -0.457764 0.888710
vn 0.025423 -0.457764 0.888710
vn 0.025423 -0.457764 0.888710
vn 0.000000 -0.607419 0.794382
vn 0.000000 -0.607419 0.794382
vn 0.000000 -0.607419 0.794382
vn 0.000000 -0.607419 0.794382
vn -0.000000 -0.607419 0.794382
vn -0.000000 -0.607419 0.794382
vn -0.000000 -0.607419 0.794382
vn -0.000000 -0.607419 0.794382
vn -0.800598 -0.599202 0.000000
vn -0.800598 -0.599202 0.000000
vn -0.800598 -0.599202 0.000000
vn -0.800598 -0.599202 0.000000
vn -0.800599 -0.599201 0.000000
vn -0.800599 -0.599201 0.000000
vn -0.800599 -0.599201 0.000000
vn -0.800599 -0.599201 0.000000
vn 0.788370 -0.615201 0.000000
vn 0.788370 -0.615201 0.000000
vn 0.788370 -0.615201 0.000000
vn 0.788370 -0.615201 0.000000
vn 0.788370 -0.615202 0.000000
vn 0.788370 -0.615202 0.000000
vn 0.788370 -0.615202 0.000000
vn 0.788370 -0.615202 0.000000
vn 0.318796 -0.947823 -0.000000
vn 0.318796 -0.947823 -0.000000
vn 0.318796 -0.947823 -0.000000
vn 0.318796 -0.947823 -0.000000
vn 0.318795 -0.947824 -0.000000
vn 0.318795 -0.947824 -0.000000
vn 0.318795 -0.947824 -0.000000
vn 0.318795 -0.947824 -0.000000
vn 0.708973 -0.705236 0.000000
vn 0.708973 -0.705236 0.000000
vn 0.708973 -0.705236 0.000000
vn 0.708973 -0.705236 0.000000
vn 0.708966 -0.705243 0.000000
vn 0.708966 -0.705243 0.000000
vn 0.708966 -0.705243 0.000000
vn 0.708966 -0.705243 0.000000
vn 0.572573 -0.819854 -0.000000
vn 0.572573 -0.819854 -0.000000
vn 0.572573 -0.819854 -0.000000
vn 0.572573 -0.819854 -0.000000
vn 0.572576 -0.819852 0.000000
vn 0.572576 -0.819852 0.000000
vn 0.572576 -0.819852 0.000000
vn 0.572576 -0.819852 0.000000
vn 0.112216 -0.606626 -0.787028
vn 0.112216 -0.606626 -0.787028
vn 0.112216 -0.606626 -0.787028
vn 0.112216 -0.606626 -0.787028
vn 0.682968 -0.730448 0.000000
vn 0.682968 -0.730448 0.000000
vn 0.682968 -0.730448 0.000000
vn 0.682968 -0.730448 0.000000
vn 0.682970 -0.730447 -0.000000
vn 0.682970 -0.730447 -0.000000
vn 0.682970 -0.730447 -0.000000
vn 0.682970 -0.730447 -0.000000
vn -0.918231 -0.396046 -0.000000
vn -0.918231 -0.396046 -0.000000
vn -0.918231 -0.396046 -0.000000
vn -0.918231 -0.396046 -0.000000
vn -0.918230 -0.396047 0.000001
vn -0.918230 -0.396047 0.000001
vn -0.918230 -0.396047 0.000001
vn -0.918230 -0.396047 0.000001
vn -0.007461 -0.826663 -0.562649
vn -0.007461 -0.826663 -0.562649
vn -0.007461 -0.826663 -0.562649
vn -0.007461 -0.826663 -0.562649
vn -0.419055 -0.907961 0.000000
vn -0.419055 -0.907961 0.000000
vn -0.419055 -0.907961 0.000000
vn -0.419055 -0.907961 0.000000
vn -0.419055 -0.907961 0.000000
vn -0.419055 -0.907961 0.000000
vn -0.419055 -0.907961 0.000000
vn -0.419055 -0.907961 0.000000
vn -0.007776 -0.857564 -0.514319
vn -0.007776 -0.857564 -0.514319
vn -0.007776 -0.857564 -0.514319
vn -0.007776 -0.857564 -0.514319
vn -0.969269 -0.246002 -0.000000
vn -0.969269 -0.246002 -0.000000
vn -0.969269 -0.246002 -0.000000
vn -0.969269 -0.246002 -0.000000
vn -0.969269 -0.246002 -0.000000
vn -0.969269 -0.246002 -0.000000
vn -0.969269 -0.246002 -0.000000
vn -0.969269 -0.246002 -0.000000
vn -0.699157 0.714968 -0.000000
vn -0.699157 0.714968 -0.000000
vn -0.699157 0.714968 -0.000000
vn -0.699157 0.714968 -0.000000
vn -0.699157 0.714968 0.000000
vn -0.699157 0.714968 0.000000
vn -0.699157 0.714968 0.000000
vn -0.699157 0.714968 0.000000
vn 0.147926 -0.988998 0.000000
vn 0.147926 -0.988998 0.000000
vn 0.147926 -0.988998 0.000000
vn 0.147926 -0.988998 0.000000
vn 0.147927 -0.988998 -0.000000
vn 0.147927 -0.988998 -0.000000
vn 0.147927 -0.988998 -0.000000
vn 0.147927 -0.988998 -0.000000
f 1/1/1 2/2/2 3/3/3
f 2/2/2 1/1/1 4/4/4
f 5/5/5 6/6/6 7/7/7
f 6/6/6 5/5/5 8/8/8
f 9/9/9 10/10/10 11/11/11
f 10/10/10 9/9/9 12/12/12
f 13/13/13 14/14/14 15/15/15
f 14/14/14 13/13/13 16/16/16
f 17/17/17 18/18/18 19/19/19
f 20/20/20 17/17/17 19/19/19
f 21/21/21 22/22/22 23/23/23
f 22/22/22 21/21/21 24/24/24
f 25/25/25 26/26/26 27/27/27
f 26/26/26 25/25/25 28/28/28
f 29/29/29 30/30/30 31/31/31
f 29/29/29 31/31/31 32/32/32
f 33/33/33 34/34/34 35/35/35
f 36/36/36 34/34/34 33/33/33
f 37/37/37 38/38/38 39/39/39
f 38/38/38 37/37/37 40/40/40
f 41/41/41 42/42/42 43/43/43
f 42/42/42 41/41/41 44/44/44
f 45/45/45 46/46/46 47/47/47
f 46/46/46 45/45/45 48/48/48
f 49/49/49 50/50/50 51/51/51
f 49/49/49 51/51/51 52/52/52
f 53/53/53 54/54/54 55/55/55
f 54/54/54 56/56/56 55/55/55
f 57/57/57 58/58/58 59/59/59
f 57/57/57 60/60/60 58/58/58
f 61/61/61 62/62/62 63/63/63
f 61/61/61 63/63/63 64/64/64
f 65/65/65 66/66/66 67/67/67
f 68/68/68 69/69/69 70/70/70
f 71/71/71 72/72/72 73/73/73
f 74/74/74 75/75/75 76/76/76
f 77/77/77 78/78/78 79/79/79
f 77/77/77 79/79/79 80/80/80
f 81/81/81 82/82/82 83/83/83
f 81/81/81 83/83/83 84/84/84
f 85/85/85 86/86/86 87/87/87
f 86/86/86 85/85/85 88/88/88
f 89/89/89 90/90/90 91/91/91
f 90/90/90 89/89/89 92/92/92
f 93/93/93 94/94/94 95/95/95
f 95/95/95 94/94/94 96/96/96
f 97/97/97 98/98/98 99/99/99
f 100/100/100 98/98/98 97/97/97
f 101/101/101 102/102/102 103/103/103
f 101/101/101 103/103/103 104/104/104
f 105/105/105 106/106/106 107/107/107
f 108/108/108 109/109/109 110/110/110
f 111/111/111 112/112/112 113/113/113
f 112/112/112 111/111/111 114/114/114
f 115/115/115 116/116/116 117/117/117
f 116/116/116 115/115/115 118/118/118
f 119/119/119 120/120/120 121/121/121
f 122/122/122 120/120/120 119/119/119
f 123/123/123 124/124/124 125/125/125
f 123/123/123 125/125/125 126/126/126
f 127/127/127 128/128/128 129/129/129
f 130/130/130 129/129/129 128/128/128
f 131/131/131 132/132/132 133/133/133
f 131/131/131 133/133/133 134/134/134
f 135/135/135 136/136/136 137/137/137
f 136/136/136 135/135/135 138/138/138
f 139/139/139 140/140/140 141/141/141
f 141/141/141 142/142/142 139/139/139
f 143/143/143 144/144/144 145/145/145
f 145/145/145 146/146/146 143/143/143
f 147/147/147 148/148/148 149/149/149
f 148/148/148 147/147/147 150/150/150
f 151/151/151 152/152/152 153/153/153
f 153/153/153 154/154/154 151/151/151
f 155/155/155 156/156/156 157/157/157
f 157/157/157 158/158/158 155/155/155
f 159/159/159 160/160/160 161/161/161
f 159/159/159 162/162/162 160/160/160
f 163/163/163 164/164/164 165/165/165
f 164/164/164 163/163/163 166/166/166
f 167/167/167 168/168/168 169/169/169
f 168/168/168 167/167/167 170/170/170
f 171/171/171 172/172/172 173/173/173
f 172/172/172 171/171/171 174/174/174
f 175/175/175 176/176/176 177/177/177
f 176/176/176 175/175/175 178/178/178
f 179/179/179 180/180/180 181/181/181
f 181/181/181 182/182/182 179/179/179
f 183/183/183 184/184/184 185/185/185
f 185/185/185 186/186/186 183/183/183
f 187/187/187 188/188/188 189/189/189
f 188/188/188 187/187/187 190/190/190
f 191/191/191 192/192/192 193/193/193
f 192/192/192 191/191/191 194/194/194
f 195/195/195 196/196/196 197/197/197
f 197/197/197 198/198/198 195/195/195
f 199/199/199 200/200/200 201/201/201
f 200/200/200 199/199/199 202/202/202
f 203/203/203 204/204/204 205/205/205
f 205/205/205 206/206/206 203/203/203
f 207/207/207 208/208/208 209/209/209
f 209/209/209 210/210/210 207/207/207
f 211/211/211 212/212/212 213/213/213
f 212/212/212 211/211/211 214/214/214
f 215/215/215 216/216/216 217/217/217
f 216/216/216 215/215/215 218/218/218
f 219/219/219 220/220/220 221/221/221
f 220/220/220 219/219/219 222/222/222
f 223/223/223 224/224/224 225/225/225
f 224/224/224 223/223/223 226/226/226
f 227/227/227 228/228/228 229/229/229
f 228/228/228 227/227/227 230/230/230
f 231/231/231 232/232/232 233/233/233
f 232/232/232 231/231/231 234/234/234
