# Generated from Roblox mesh JSON (v2.00)
# Hello from RBX_Toolbox ;)
o LeftUpperLegWrapTarget
v -0.239990 -0.386075 -0.443857
v 0.001409 -0.474906 -0.429975
v -0.241101 -0.474903 -0.426290
v -0.472839 -0.265153 -0.265838
v -0.222477 -0.143454 -0.490471
v -0.231050 -0.273212 -0.465605
v -0.482139 -0.384053 -0.256307
v -0.488019 -0.474906 -0.251371
v -0.511519 -0.474906 0.019174
v -0.461467 -0.137056 -0.274943
v -0.214772 -0.012176 -0.515580
v -0.452690 -0.000611 -0.294940
v -0.480545 0.000975 0.013579
v -0.508623 -0.381939 0.021435
v -0.456396 -0.474906 0.312916
v -0.500541 -0.266594 0.018633
v -0.492035 -0.138990 0.016431
v -0.451630 -0.380570 0.319117
v -0.252122 -0.474906 0.495164
v -0.440233 -0.264821 0.321113
v -0.238374 -0.384190 0.504106
v 0.015949 -0.474906 0.516887
v -0.428841 -0.137486 0.328288
v -0.414270 0.001210 0.333371
v -0.395756 0.153050 0.337385
v -0.168362 0.127115 0.568844
v 0.033703 -0.380586 0.519341
v 0.249261 -0.475153 0.349934
v -0.226035 -0.267155 0.514100
v -0.212013 -0.141199 0.534028
v -0.192159 -0.010783 0.547530
v 0.125766 0.091977 0.590800
v 0.149949 0.219208 0.619315
v 0.092490 -0.031324 0.569340
v 0.054558 -0.269728 0.533796
v 0.070872 -0.153527 0.551166
v 0.266647 -0.384365 0.350539
v 0.316011 -0.474906 0.013117
v 0.336733 -0.378723 0.012396
v 0.291282 -0.269894 0.360041
v 0.365084 -0.266926 0.014013
v 0.396818 -0.154112 0.025023
v 0.317009 -0.160699 0.366737
v 0.427258 -0.044555 0.029889
v 0.345045 -0.046680 0.381152
v 0.460937 0.063613 0.033271
v 0.375915 0.066635 0.388584
v 0.492566 0.159144 0.035032
v 0.407642 0.177470 0.405143
v 0.511519 0.222686 0.039512
v 0.442131 0.241868 0.414487
v -0.149155 0.271432 0.597184
v -0.387316 0.314736 0.348411
v -0.142365 0.423214 0.629663
v -0.375100 0.468211 0.335822
v 0.160064 0.344864 0.643614
v -0.475099 0.325582 0.017564
v -0.469002 0.475153 0.019380
v -0.442879 0.466164 -0.325668
v -0.476516 0.159167 0.015813
v -0.446847 0.308028 -0.318188
v -0.216547 0.429801 -0.584447
v -0.205211 0.272977 -0.565158
v 0.152375 0.351248 -0.643614
v -0.444244 0.154949 -0.309993
v 0.122166 0.227785 -0.580135
v 0.415889 0.252731 -0.334281
v -0.212025 0.127656 -0.542132
v 0.375220 0.180565 -0.324114
v 0.511519 0.222686 0.039512
v 0.492566 0.159144 0.035032
v 0.098962 0.095261 -0.537741
v 0.336775 0.070808 -0.315131
v 0.460937 0.063613 0.033271
v 0.073623 -0.029516 -0.514796
v 0.303659 -0.042323 -0.298541
v 0.427258 -0.044555 0.029889
v 0.276697 -0.156352 -0.280473
v 0.396818 -0.154112 0.025023
v 0.365084 -0.266926 0.014013
v 0.048567 -0.152509 -0.485889
v 0.252063 -0.271553 -0.268520
v 0.336733 -0.378723 0.012396
v 0.034752 -0.274259 -0.460809
v 0.231151 -0.384398 -0.259642
v 0.217013 -0.474906 -0.249466
v 0.316011 -0.474906 0.013117
v 0.014228 -0.386265 -0.440085
vt 4.321732 2.177007
vt 4.226574 2.106575
vt 4.321732 2.106575
vt 4.369310 2.290893
vt 4.321732 2.392389
vt 4.321732 2.290893
vt 4.369310 2.177007
vt 4.369310 2.106575
vt 4.547419 2.106575
vt 4.369310 2.392389
vt 4.321732 2.527062
vt 4.369310 2.527062
vt 4.547419 2.527062
vt 4.547419 2.177007
vt 4.670595 2.106575
vt 4.547419 2.290893
vt 4.547419 2.392389
vt 4.670595 2.177007
vt 4.703386 2.106575
vt 4.670595 2.290893
vt 4.703386 2.177007
vt 4.736178 2.106575
vt 4.670595 2.392389
vt 4.670595 2.527062
vt 4.670595 2.684215
vt 4.703386 2.686872
vt 4.736178 2.177007
vt 4.809030 2.106575
vt 4.703386 2.290893
vt 4.703386 2.392389
vt 4.703386 2.527062
vt 4.736178 2.689528
vt 4.736178 2.814832
vt 4.736178 2.527062
vt 4.736178 2.290893
vt 4.736178 2.392389
vt 4.809030 2.177007
vt 4.947463 2.106575
vt 4.947463 2.177007
vt 4.809030 2.290893
vt 4.947463 2.290893
vt 4.947463 2.392389
vt 4.809030 2.392389
vt 4.947463 2.527062
vt 4.809030 2.527062
vt 4.947463 2.706528
vt 4.809030 2.706084
vt 4.947463 2.846574
vt 4.809030 2.845746
vt 4.947463 2.891038
vt 4.809030 2.891038
vt 4.703386 2.809872
vt 4.670595 2.804911
vt 4.703322 2.891038
vt 4.670595 2.891038
vt 4.736178 2.891038
vt 4.547419 2.802904
vt 4.547419 2.891038
vt 4.369310 2.891038
vt 4.547419 2.683140
vt 4.369310 2.802496
vt 4.325919 2.891038
vt 4.331255 2.802415
vt 4.178995 2.891038
vt 4.369310 2.682921
vt 4.236097 2.812195
vt 4.115766 2.858994
vt 4.337170 2.682878
vt 4.178995 2.822055
vt 4.052537 2.826950
vt 4.052537 2.792779
vt 4.242012 2.688115
vt 4.178995 2.693396
vt 4.052537 2.695761
vt 4.226574 2.527062
vt 4.178995 2.527062
vt 4.052537 2.527062
vt 4.178995 2.392389
vt 4.052537 2.392389
vt 4.052537 2.290893
vt 4.226574 2.392389
vt 4.178995 2.290893
vt 4.052537 2.177007
vt 4.226574 2.290893
vt 4.178995 2.177007
vt 4.178995 2.106575
vt 4.052537 2.106575
vt 4.226574 2.177007
vn -0.355973 -0.119471 -0.926828
vn 0.346683 -0.178062 -0.920926
vn -0.350288 -0.116795 -0.929332
vn -0.874756 0.006999 -0.484513
vn -0.384159 -0.137656 -0.912947
vn -0.365868 -0.123556 -0.922428
vn -0.868866 -0.005831 -0.495012
vn -0.867951 -0.018233 -0.496315
vn -0.997749 0.039006 0.054543
vn -0.886365 -0.000630 -0.462987
vn -0.400220 -0.141261 -0.905466
vn -0.897240 -0.016342 -0.441240
vn -0.996008 0.064116 0.062108
vn -0.996683 0.060199 0.054757
vn -0.879930 0.020228 0.474673
vn -0.995742 0.075069 0.053508
vn -0.995516 0.076019 0.056295
vn -0.873728 0.042699 0.484537
vn -0.405993 -0.021878 0.913614
vn -0.875257 0.046697 0.481398
vn -0.389866 -0.028851 0.920420
vn 0.264129 -0.091124 0.960173
vn -0.878635 0.052254 0.474627
vn -0.879217 0.061715 0.472408
vn -0.877649 0.024390 0.478684
vn -0.459073 -0.077627 0.885001
vn 0.282088 -0.130758 0.950436
vn 0.840271 -0.173798 0.513555
vn -0.402447 -0.057316 0.913647
vn -0.419412 -0.055124 0.906121
vn -0.439890 -0.040343 0.897145
vn 0.265566 -0.232443 0.935652
vn 0.236916 -0.247353 0.939514
vn 0.264187 -0.196627 0.944215
vn 0.279650 -0.170559 0.944831
vn 0.271408 -0.180862 0.945318
vn 0.841356 -0.207690 0.498983
vn 0.977907 -0.201465 -0.055776
vn 0.974018 -0.219045 -0.057518
vn 0.830713 -0.238391 0.503076
vn 0.967738 -0.243505 -0.064712
vn 0.962997 -0.262599 -0.060646
vn 0.821139 -0.254187 0.510998
vn 0.956794 -0.284817 -0.058525
vn 0.808789 -0.273311 0.520731
vn 0.949139 -0.310471 -0.052383
vn 0.802794 -0.296069 0.517557
vn 0.933199 -0.355931 -0.049528
vn 0.770364 -0.324611 0.548787
vn 0.911668 -0.408219 -0.047100
vn 0.727248 -0.335161 0.598980
vn -0.482430 -0.098989 0.870323
vn -0.874901 0.016981 0.484003
vn -0.569502 -0.067677 0.819199
vn -0.885638 0.038922 0.462742
vn 0.104323 -0.228714 0.967888
vn -0.995562 0.029254 0.089451
vn -0.994155 0.050029 0.095666
vn -0.924694 -0.019692 -0.380203
vn -0.996672 0.028322 0.076442
vn -0.913043 -0.030610 -0.406714
vn -0.542432 -0.158500 -0.825012
vn -0.448080 -0.170428 -0.877598
vn 0.098360 -0.360578 -0.927528
vn -0.905956 -0.028241 -0.422430
vn 0.255173 -0.346245 -0.902774
vn 0.706356 -0.451663 -0.545033
vn -0.418108 -0.143836 -0.896937
vn 0.756518 -0.378936 -0.532999
vn 0.911668 -0.408219 -0.047100
vn 0.933199 -0.355931 -0.049528
vn 0.329762 -0.268513 -0.905074
vn 0.787429 -0.307169 -0.534418
vn 0.949139 -0.310471 -0.052383
vn 0.344534 -0.254112 -0.903727
vn 0.794231 -0.283233 -0.537565
vn 0.956794 -0.284817 -0.058525
vn 0.798016 -0.252252 -0.547302
vn 0.962997 -0.262599 -0.060646
vn 0.967738 -0.243505 -0.064712
vn 0.352594 -0.242473 -0.903817
vn 0.799507 -0.223899 -0.557366
vn 0.974018 -0.219045 -0.057518
vn 0.365226 -0.217856 -0.905068
vn 0.799757 -0.207527 -0.563313
vn 0.802186 -0.192157 -0.565308
vn 0.977907 -0.201465 -0.055776
vn 0.358221 -0.198766 -0.912233
f 1/1/1 2/2/2 3/3/3
f 4/4/4 5/5/5 6/6/6
f 1/1/1 4/4/4 6/6/6
f 3/3/3 7/7/7 1/1/1
f 4/4/4 1/1/1 7/7/7
f 7/7/7 3/3/3 8/8/8
f 9/9/9 7/7/7 8/8/8
f 5/5/5 4/4/4 10/10/10
f 10/10/10 11/11/11 5/5/5
f 11/11/11 10/10/10 12/12/12
f 10/10/10 13/13/13 12/12/12
f 7/7/7 9/9/9 14/14/14
f 15/15/15 14/14/14 9/9/9
f 7/7/7 16/16/16 4/4/4
f 16/16/16 7/7/7 14/14/14
f 4/4/4 17/17/17 10/10/10
f 17/17/17 4/4/4 16/16/16
f 13/13/13 10/10/10 17/17/17
f 14/14/14 15/15/15 18/18/18
f 18/18/18 16/16/16 14/14/14
f 15/15/15 19/19/19 18/18/18
f 20/20/20 17/17/17 16/16/16
f 16/16/16 18/18/18 20/20/20
f 19/19/19 21/21/21 18/18/18
f 18/18/18 21/21/21 20/20/20
f 19/19/19 22/22/22 21/21/21
f 23/23/23 13/13/13 17/17/17
f 17/17/17 20/20/20 23/23/23
f 13/13/13 23/23/23 24/24/24
f 25/25/25 13/13/13 24/24/24
f 24/24/24 26/26/26 25/25/25
f 22/22/22 27/27/27 21/21/21
f 28/28/28 27/27/27 22/22/22
f 21/21/21 29/29/29 20/20/20
f 20/20/20 29/29/29 23/23/23
f 27/27/27 29/29/29 21/21/21
f 23/23/23 30/30/30 24/24/24
f 29/29/29 30/30/30 23/23/23
f 26/26/26 24/24/24 31/31/31
f 30/30/30 31/31/31 24/24/24
f 31/31/31 32/32/32 26/26/26
f 26/26/26 32/32/32 33/33/33
f 30/30/30 34/34/34 31/31/31
f 32/32/32 31/31/31 34/34/34
f 35/35/35 30/30/30 29/29/29
f 29/29/29 27/27/27 35/35/35
f 30/30/30 35/35/35 36/36/36
f 34/34/34 30/30/30 36/36/36
f 37/37/37 35/35/35 27/27/27
f 27/27/27 28/28/28 37/37/37
f 38/38/38 37/37/37 28/28/28
f 37/37/37 38/38/38 39/39/39
f 35/35/35 37/37/37 40/40/40
f 39/39/39 40/40/40 37/37/37
f 40/40/40 36/36/36 35/35/35
f 40/40/40 39/39/39 41/41/41
f 41/41/41 42/42/42 40/40/40
f 36/36/36 40/40/40 43/43/43
f 42/42/42 43/43/43 40/40/40
f 43/43/43 34/34/34 36/36/36
f 42/42/42 44/44/44 43/43/43
f 44/44/44 45/45/45 43/43/43
f 34/34/34 43/43/43 45/45/45
f 44/44/44 46/46/46 45/45/45
f 47/47/47 34/34/34 45/45/45
f 46/46/46 47/47/47 45/45/45
f 34/34/34 47/47/47 32/32/32
f 46/46/46 48/48/48 47/47/47
f 49/49/49 32/32/32 47/47/47
f 48/48/48 49/49/49 47/47/47
f 32/32/32 49/49/49 33/33/33
f 49/49/49 48/48/48 50/50/50
f 51/51/51 33/33/33 49/49/49
f 50/50/50 51/51/51 49/49/49
f 25/25/25 52/52/52 53/53/53
f 54/54/54 53/53/53 52/52/52
f 53/53/53 54/54/54 55/55/55
f 52/52/52 56/56/56 54/54/54
f 55/55/55 57/57/57 53/53/53
f 57/57/57 55/55/55 58/58/58
f 59/59/59 57/57/57 58/58/58
f 60/60/60 53/53/53 57/57/57
f 53/53/53 60/60/60 25/25/25
f 57/57/57 59/59/59 61/61/61
f 61/61/61 60/60/60 57/57/57
f 62/62/62 61/61/61 59/59/59
f 52/52/52 33/33/33 56/56/56
f 33/33/33 51/51/51 56/56/56
f 52/52/52 25/25/25 26/26/26
f 26/26/26 33/33/33 52/52/52
f 61/61/61 62/62/62 63/63/63
f 64/64/64 63/63/63 62/62/62
f 63/63/63 65/65/65 61/61/61
f 60/60/60 61/61/61 65/65/65
f 63/63/63 64/64/64 66/66/66
f 67/67/67 66/66/66 64/64/64
f 65/65/65 63/63/63 68/68/68
f 63/63/63 66/66/66 68/68/68
f 65/65/65 13/13/13 60/60/60
f 13/13/13 25/25/25 60/60/60
f 65/65/65 68/68/68 12/12/12
f 13/13/13 65/65/65 12/12/12
f 66/66/66 67/67/67 69/69/69
f 67/67/67 70/70/70 69/69/69
f 69/69/69 70/70/70 71/71/71
f 69/69/69 72/72/72 66/66/66
f 66/66/66 72/72/72 68/68/68
f 71/71/71 73/73/73 69/69/69
f 72/72/72 69/69/69 73/73/73
f 73/73/73 71/71/71 74/74/74
f 68/68/68 72/72/72 11/11/11
f 68/68/68 11/11/11 12/12/12
f 73/73/73 75/75/75 72/72/72
f 72/72/72 75/75/75 11/11/11
f 74/74/74 76/76/76 73/73/73
f 75/75/75 73/73/73 76/76/76
f 76/76/76 74/74/74 77/77/77
f 77/77/77 78/78/78 76/76/76
f 78/78/78 75/75/75 76/76/76
f 78/78/78 77/77/77 79/79/79
f 78/78/78 79/79/79 80/80/80
f 75/75/75 5/5/5 11/11/11
f 75/75/75 78/78/78 81/81/81
f 5/5/5 75/75/75 81/81/81
f 82/82/82 78/78/78 80/80/80
f 82/82/82 81/81/81 78/78/78
f 82/82/82 80/80/80 83/83/83
f 81/81/81 82/82/82 84/84/84
f 5/5/5 81/81/81 84/84/84
f 85/85/85 82/82/82 83/83/83
f 85/85/85 84/84/84 82/82/82
f 83/83/83 86/86/86 85/85/85
f 86/86/86 83/83/83 87/87/87
f 86/86/86 88/88/88 85/85/85
f 84/84/84 85/85/85 88/88/88
f 88/88/88 86/86/86 2/2/2
f 5/5/5 84/84/84 6/6/6
f 88/88/88 6/6/6 84/84/84
f 2/2/2 1/1/1 88/88/88
f 6/6/6 88/88/88 1/1/1
