# Generated from Roblox mesh JSON (v4.01)
# Hello from RBX_Toolbox ;)
o LeftUpperArm
v -0.030765 -0.159345 -0.217510
v 0.042236 -0.244938 -0.180976
v -0.091454 -0.269572 -0.192479
v -0.157442 -0.190193 -0.163048
v -0.101187 -0.073719 -0.186388
v -0.148869 -0.014019 -0.104525
v -0.201010 -0.132210 -0.087951
v -0.021121 -0.347374 -0.158312
v 0.095802 -0.171410 -0.230703
v 0.101654 -0.307923 -0.091673
v 0.068440 -0.014273 -0.268251
v 0.032399 -0.400067 -0.075772
v -0.015269 -0.133050 0.281447
v -0.142199 -0.163604 0.239839
v -0.074259 -0.237491 0.270961
v 0.054944 -0.219028 0.249311
v -0.087948 -0.051980 0.248297
v -0.213736 -0.111760 -0.011162
v -0.162943 0.005592 -0.022665
v -0.144095 0.001333 0.167786
v -0.194306 -0.114308 0.164740
v -0.006996 -0.318329 0.240177
v 0.098789 -0.280894 0.174891
v 0.032926 -0.374531 0.167110
v 0.095288 -0.161842 0.262842
v 0.065544 -0.015324 0.293288
v -0.167564 0.014422 0.072730
v -0.001946 0.216869 -0.137002
v -0.013520 0.242193 -0.044650
v -0.020721 0.251641 0.058184
v 0.033857 0.133114 -0.232735
v 0.179711 0.406644 0.048375
v -0.210873 -0.109082 0.075775
v 0.026828 0.123956 0.262504
v -0.008492 0.218794 0.172184
v 0.189621 0.372186 0.172860
v 0.186316 0.392860 -0.059537
v 0.114827 -0.318185 -0.015560
v 0.043901 -0.406644 -0.003043
v 0.114827 -0.318185 -0.015560
v 0.114458 -0.313015 0.080849
v 0.043901 -0.406644 -0.003043
v 0.111319 -0.288117 -0.124147
v 0.113407 -0.311112 -0.027739
v 0.137753 -0.247629 -0.037886
v 0.110535 -0.316088 0.072730
v 0.113407 -0.311112 -0.027739
v 0.127843 -0.250847 0.074423
v 0.137753 -0.247629 -0.037886
v 0.147663 -0.218226 -0.151209
v 0.044207 -0.401055 0.085923
v 0.105502 -0.269565 0.189436
v 0.114458 -0.313015 0.080849
v 0.114827 -0.318185 -0.015560
v 0.110535 -0.316088 0.072730
v 0.144032 -0.216845 0.201615
v 0.183342 -0.101981 -0.280092
v 0.204486 0.080887 -0.315274
v 0.192925 0.357022 -0.169814
v 0.213736 0.252723 -0.274680
v 0.182352 -0.091871 0.287873
v 0.206470 0.085019 0.315274
v 0.209111 0.260537 0.278740
vt 8.915311 -7.227303
vt 8.927275 -7.241219
vt 8.903104 -7.240974
vt 8.890652 -7.229987
vt 8.901639 -7.215583
vt 8.885525 -7.205573
vt 8.876492 -7.220222
vt 8.914334 -7.253670
vt 8.949247 -7.220954
vt 8.939238 -7.258064
vt 8.936552 -7.202398
vt 8.925810 -7.268319
vt 8.802515 -7.180426
vt 8.817896 -7.198980
vt 8.801538 -7.197271
vt 8.784448 -7.180914
vt 8.820581 -7.182135
vt 8.864040 -7.213874
vt 8.871853 -7.198980
vt 8.839137 -7.186285
vt 8.834743 -7.202642
vt 8.784692 -7.198004
vt 8.767358 -7.183599
vt 8.768823 -7.200445
vt 8.783959 -7.156743
vt 8.805689 -7.155034
vt 8.855983 -7.192389
vt 8.900174 -7.180670
vt 8.884304 -7.175055
vt 8.866970 -7.168462
vt 8.920194 -7.188482
vt 8.874294 -7.154303
vt 8.849879 -7.208014
vt 8.826441 -7.156499
vt 8.847194 -7.161626
vt 8.853541 -7.146001
vt 8.891873 -7.160648
vt 8.945829 -7.270028
vt 8.932890 -7.279551
vt 8.734642 -7.192877
vt 8.750755 -7.188482
vt 8.740013 -7.208503
vt 8.958770 -7.243416
vt 8.964385 -7.259773
vt 8.973907 -7.255379
vt 8.744164 -7.167728
vt 8.727317 -7.172857
vt 8.740746 -7.157721
vt 8.721702 -7.163579
vt 8.969268 -7.235603
vt 8.754906 -7.204597
vt 8.764915 -7.161383
vt 8.750755 -7.188482
vt 8.734642 -7.192877
vt 8.744164 -7.167728
vt 8.761986 -7.149176
vt 8.963164 -7.208747
vt 8.949003 -7.188482
vt 8.910428 -7.166753
vt 8.931669 -7.173101
vt 8.783715 -7.141118
vt 8.807398 -7.137211
vt 8.831325 -7.137943
vn -0.233809 -0.170441 -0.957227
vn 0.178166 -0.508263 -0.842571
vn -0.079304 -0.180202 -0.980427
vn -0.562986 0.109960 -0.819119
vn -0.599425 0.162716 -0.783718
vn -0.810684 0.375098 -0.449547
vn -0.834570 0.304654 -0.458998
vn 0.385151 -0.430275 -0.816408
vn 0.038868 -0.530710 -0.846662
vn 0.644497 -0.657940 -0.389537
vn -0.343970 -0.048311 -0.937737
vn 0.681328 -0.596801 -0.423816
vn -0.099753 -0.053278 0.993585
vn -0.497937 0.177909 0.848768
vn -0.019231 -0.090121 0.995745
vn 0.317770 -0.368712 0.873541
vn -0.511085 0.223064 0.830081
vn -0.922234 0.362312 -0.134960
vn -0.877934 0.447396 -0.170496
vn -0.780824 0.399007 0.480737
vn -0.820490 0.324349 0.470739
vn 0.440448 -0.363647 0.820833
vn 0.571393 -0.660569 0.486989
vn 0.698897 -0.540262 0.468679
vn 0.181450 -0.392815 0.901539
vn -0.169493 -0.008254 0.985497
vn -0.888768 0.448461 0.094731
vn -0.684216 0.569874 -0.455074
vn -0.729652 0.656531 -0.191247
vn -0.733801 0.675224 0.074895
vn -0.549971 0.323010 -0.770192
vn -0.606160 0.793416 0.055337
vn -0.937463 0.331365 0.106587
vn -0.440783 0.327789 0.835622
vn -0.643394 0.585346 0.493370
vn -0.547710 0.697421 0.462188
vn -0.598668 0.773370 -0.208556
vn 0.970202 -0.237791 -0.046507
vn 0.773935 -0.629845 -0.065721
vn 0.970202 -0.237791 -0.046507
vn 0.909909 0.394583 -0.127942
vn 0.773935 -0.629845 -0.065721
vn 0.493251 -0.743087 -0.452246
vn 0.971559 -0.219601 -0.088592
vn 0.921845 -0.387007 -0.020671
vn 0.565538 0.824126 -0.031345
vn 0.971559 -0.219601 -0.088592
vn 0.941567 -0.326423 0.083057
vn 0.921845 -0.387007 -0.020671
vn 0.606757 -0.599871 -0.521536
vn 0.775817 -0.609702 0.162392
vn 0.470859 -0.714963 0.516836
vn 0.909909 0.394583 -0.127942
vn 0.970202 -0.237791 -0.046507
vn 0.565538 0.824126 -0.031345
vn 0.539066 -0.587703 0.603335
vn -0.166847 -0.352036 -0.920995
vn -0.340616 0.092532 -0.935638
vn -0.569006 0.676399 -0.467671
vn -0.472119 0.442671 -0.762329
vn -0.003385 -0.283714 0.958903
vn -0.191944 0.091304 0.977149
vn -0.408756 0.451230 0.793291
f 1/1/1 2/2/2 3/3/3
f 3/3/3 2/2/2 8/8/8
f 4/4/4 1/1/1 3/3/3
f 2/2/2 10/10/10 8/8/8
f 8/8/8 10/10/10 12/12/12
f 10/10/10 38/38/38 12/12/12
f 12/12/12 38/38/38 39/39/39
f 44/44/44 38/38/38 10/10/10
f 44/44/44 10/10/10 43/43/43
f 10/10/10 2/2/2 43/43/43
f 45/45/45 44/44/44 43/43/43
f 45/45/45 43/43/43 50/50/50
f 43/43/43 2/2/2 9/9/9
f 50/50/50 43/43/43 9/9/9
f 2/2/2 1/1/1 9/9/9
f 50/50/50 9/9/9 57/57/57
f 57/57/57 9/9/9 11/11/11
f 9/9/9 1/1/1 11/11/11
f 57/57/57 11/11/11 58/58/58
f 1/1/1 5/5/5 11/11/11
f 5/5/5 1/1/1 4/4/4
f 58/58/58 11/11/11 31/31/31
f 11/11/11 5/5/5 31/31/31
f 58/58/58 31/31/31 60/60/60
f 60/60/60 31/31/31 59/59/59
f 59/59/59 31/31/31 28/28/28
f 5/5/5 28/28/28 31/31/31
f 59/59/59 28/28/28 37/37/37
f 6/6/6 5/5/5 4/4/4
f 5/5/5 6/6/6 28/28/28
f 6/6/6 4/4/4 7/7/7
f 37/37/37 28/28/28 29/29/29
f 6/6/6 29/29/29 28/28/28
f 37/37/37 29/29/29 32/32/32
f 7/7/7 19/19/19 6/6/6
f 19/19/19 29/29/29 6/6/6
f 18/18/18 19/19/19 7/7/7
f 32/32/32 29/29/29 30/30/30
f 19/19/19 30/30/30 29/29/29
f 32/32/32 30/30/30 36/36/36
f 27/27/27 19/19/19 18/18/18
f 27/27/27 30/30/30 19/19/19
f 27/27/27 18/18/18 33/33/33
f 21/21/21 27/27/27 33/33/33
f 27/27/27 35/35/35 30/30/30
f 36/36/36 30/30/30 35/35/35
f 20/20/20 27/27/27 21/21/21
f 27/27/27 20/20/20 35/35/35
f 14/14/14 20/20/20 21/21/21
f 36/36/36 35/35/35 34/34/34
f 20/20/20 34/34/34 35/35/35
f 36/36/36 34/34/34 63/63/63
f 63/63/63 34/34/34 62/62/62
f 20/20/20 17/17/17 34/34/34
f 17/17/17 20/20/20 14/14/14
f 62/62/62 34/34/34 26/26/26
f 17/17/17 26/26/26 34/34/34
f 62/62/62 26/26/26 61/61/61
f 13/13/13 17/17/17 14/14/14
f 13/13/13 26/26/26 17/17/17
f 13/13/13 14/14/14 15/15/15
f 61/61/61 26/26/26 25/25/25
f 13/13/13 25/25/25 26/26/26
f 61/61/61 25/25/25 56/56/56
f 16/16/16 13/13/13 15/15/15
f 13/13/13 16/16/16 25/25/25
f 16/16/16 15/15/15 22/22/22
f 56/56/56 25/25/25 52/52/52
f 16/16/16 52/52/52 25/25/25
f 56/56/56 52/52/52 48/48/48
f 23/23/23 16/16/16 22/22/22
f 16/16/16 23/23/23 52/52/52
f 23/23/23 22/22/22 24/24/24
f 48/48/48 52/52/52 46/46/46
f 23/23/23 46/46/46 52/52/52
f 48/48/48 46/46/46 47/47/47
f 48/48/48 47/47/47 49/49/49
f 46/46/46 40/40/40 47/47/47
f 23/23/23 41/41/41 46/46/46
f 41/41/41 23/23/23 24/24/24
f 40/40/40 41/41/41 42/42/42
f 41/41/41 24/24/24 51/51/51
f 42/42/42 41/41/41 51/51/51
f 53/53/53 54/54/54 55/55/55
