# Generated from Roblox mesh JSON (v2.00)
# Hello from RBX_Toolbox ;)
o LeftHandWrapTarget
v -0.422258 0.077527 -0.286551
v -0.257983 -0.042635 -0.478280
v -0.427904 -0.067297 -0.361032
v -0.321670 -0.178179 -0.414037
v -0.128087 0.103030 -0.475048
v 0.034654 -0.083836 -0.408686
v -0.129493 -0.012616 -0.464538
v 0.074130 -0.044219 -0.395823
v 0.073454 -0.022820 -0.399263
v 0.067333 0.012613 -0.413882
v 0.041845 0.073883 -0.446497
v 0.189430 0.115399 -0.427317
v 0.093487 0.053200 -0.435816
v 0.170693 0.077840 -0.410574
v 0.251395 0.018154 -0.361239
v 0.533029 0.017538 -0.329149
v 0.478575 -0.055161 -0.324382
v 0.034654 -0.083836 -0.408686
v 0.074130 -0.044219 -0.395823
v 0.161718 0.056113 -0.421634
v 0.067333 0.012613 -0.413882
v 0.073454 -0.022820 -0.399263
v 0.191927 0.016712 -0.396057
v 0.073454 -0.022820 -0.399263
v 0.037325 -0.122774 0.369961
v -0.101551 -0.039963 0.425887
v -0.091723 -0.142331 0.409011
v 0.078047 -0.037392 0.393594
v 0.030835 -0.181441 0.362720
v -0.109976 0.084947 0.478280
v 0.162988 0.078966 0.441824
v 0.131090 0.273322 0.463094
v -0.079937 0.273983 0.457311
v -0.303937 0.094804 0.408879
v -0.253324 0.293719 0.322806
v -0.347876 -0.067860 0.415347
v -0.072259 -0.209208 0.373057
v 0.021616 -0.255822 0.326428
v -0.042805 -0.261441 0.349929
v -0.282121 -0.184172 0.392209
v -0.095322 -0.275600 0.329420
v 0.021616 -0.255822 0.326428
v 0.104204 -0.257302 0.187162
v -0.533029 -0.053961 0.046171
v -0.209653 -0.245216 0.377074
v -0.396114 -0.202365 0.034186
v -0.243545 -0.269436 0.032064
v -0.050071 -0.293719 0.018761
v 0.132762 -0.260672 -0.047637
v -0.427904 -0.067297 -0.361032
v -0.321670 -0.178179 -0.414037
v -0.422258 0.077527 -0.286551
v -0.024462 -0.293454 -0.326609
v 0.134032 -0.251724 -0.359706
v -0.165050 -0.240337 -0.392472
v 0.034654 -0.083836 -0.408686
v 0.070352 -0.177847 -0.395937
v 0.134032 -0.251724 -0.359706
v 0.106413 -0.101223 -0.072686
v 0.478575 -0.055161 -0.324382
v 0.099930 -0.181716 -0.071568
v 0.132762 -0.260672 -0.047637
v 0.080453 -0.173831 0.160903
v 0.104204 -0.257302 0.187162
v 0.021616 -0.255822 0.326428
v 0.030835 -0.181441 0.362720
v 0.037325 -0.122774 0.369961
v 0.085444 -0.102137 0.149564
v 0.078047 -0.037392 0.393594
v 0.478338 -0.061901 0.041746
v 0.533029 0.017538 -0.329149
v 0.348800 -0.042528 0.292785
v 0.162988 0.078966 0.441824
v 0.532066 0.018881 0.061854
v 0.354347 0.232123 0.062030
v 0.362758 0.036334 0.341734
v 0.307023 0.261685 -0.221040
v 0.189430 0.115399 -0.427317
v 0.288046 0.261668 0.335980
v 0.131090 0.273322 0.463094
v 0.134087 0.278805 -0.343308
v -0.128087 0.103030 -0.475048
v -0.054890 0.292111 -0.368402
v -0.251161 0.287471 -0.185331
v -0.492890 0.093349 0.047267
v -0.338271 0.286524 0.073973
vt 6.552293 3.950107
vt 6.573895 3.887921
vt 6.573895 3.909998
vt 6.595818 3.948965
vt 6.536948 3.909998
vt 6.610842 3.909998
vt 6.573895 3.848419
vt 6.610842 3.848419
vt 6.610842 3.799157
vt 6.573895 3.799157
vt 6.536947 3.848419
vt 6.500000 3.909998
vt 6.536948 3.799157
vt 6.500000 3.848419
vt 6.463053 3.848419
vt 6.463053 3.909998
vt 6.425591 3.910355
vt 6.389158 3.909998
vt 6.389158 3.848419
vt 6.500000 3.799157
vt 6.536947 3.762209
vt 6.500000 3.749893
vt 6.463053 3.799157
vt 6.389158 3.799156
vt 6.500000 3.699005
vt 6.456269 3.610332
vt 6.500000 3.610332
vt 6.456269 3.699005
vt 6.571560 3.699005
vt 6.412539 3.610332
vt 6.412539 3.699005
vt 6.333029 3.699005
vt 6.333029 3.599324
vt 6.412539 3.580288
vt 6.333029 3.572104
vt 6.455314 3.576329
vt 6.571560 3.610332
vt 6.619266 3.699005
vt 6.619266 3.610332
vt 6.498089 3.572372
vt 6.619266 3.570577
vt 6.666971 3.610332
vt 6.666971 3.570577
vt 6.454282 3.539610
vt 6.571560 3.570577
vt 6.496024 3.531377
vt 6.571560 3.530821
vt 6.619266 3.530821
vt 6.666971 3.530821
vt 6.492049 3.452422
vt 6.514695 3.452105
vt 6.412539 3.505410
vt 6.619266 3.451311
vt 6.666971 3.451311
vt 6.571560 3.451311
vt 6.505776 3.352882
vt 6.571560 3.352426
vt 6.619266 3.352426
vt 6.502889 3.281110
vt 6.472491 3.322502
vt 6.571560 3.280882
vt 6.619266 3.280882
vt 6.571560 3.245110
vt 6.619266 3.245110
vt 6.619266 3.209338
vt 6.571560 3.209337
vt 6.500000 3.209337
vt 6.501444 3.245224
vt 6.456269 3.209337
vt 6.483845 3.275795
vt 6.412539 3.320622
vt 6.470057 3.242566
vt 6.412539 3.209338
vt 6.412539 3.288847
vt 6.333029 3.288847
vt 6.412539 3.266474
vt 6.333029 3.320637
vt 6.398891 3.352426
vt 6.333029 3.265375
vt 6.333029 3.209337
vt 6.333029 3.352427
vt 6.412539 3.419507
vt 6.333029 3.414663
vt 6.333029 3.482428
vt 6.412539 3.547842
vt 6.333029 3.530821
vn -0.740541 0.513000 -0.434086
vn -0.321290 0.051530 -0.945578
vn -0.827657 -0.268262 -0.492970
vn -0.476556 -0.763223 -0.436331
vn -0.308967 0.513931 -0.800259
vn 0.278547 -0.817672 -0.503810
vn 0.183593 -0.152411 -0.971115
vn 0.238955 -0.192878 -0.951682
vn 0.276825 -0.366222 -0.888397
vn 0.225712 -0.351273 -0.908659
vn 0.185672 -0.211290 -0.959626
vn 0.318687 0.460814 -0.828305
vn 0.233426 -0.277798 -0.931848
vn 0.155585 -0.395662 -0.905122
vn 0.164612 -0.239100 -0.956940
vn 0.861399 0.427136 -0.274859
vn 0.258075 -0.957032 -0.132238
vn 0.278547 -0.817672 -0.503810
vn 0.238955 -0.192878 -0.951682
vn 0.370288 -0.078776 -0.925571
vn 0.225712 -0.351273 -0.908659
vn 0.276825 -0.366222 -0.888397
vn 0.344767 -0.402971 -0.847791
vn 0.276825 -0.366222 -0.888397
vn 0.500416 -0.647767 0.574441
vn 0.007445 -0.250682 0.968041
vn 0.075376 -0.242677 0.967174
vn 0.259730 -0.668202 0.697170
vn 0.802556 -0.133303 0.581493
vn -0.126840 -0.019701 0.991728
vn 0.313197 -0.139387 0.939403
vn 0.281151 0.047956 0.958464
vn -0.192627 0.166098 0.967112
vn -0.708907 0.304436 0.636215
vn -0.715374 0.444195 0.539380
vn -0.733358 -0.228253 0.640381
vn 0.132110 -0.383269 0.914140
vn 0.669600 -0.566623 0.480182
vn 0.183924 -0.818002 0.545017
vn -0.553806 -0.684489 0.474103
vn -0.045263 -0.990194 0.132163
vn 0.669600 -0.566623 0.480182
vn 0.558969 -0.815824 0.148274
vn -0.967591 -0.229046 0.106329
vn -0.300442 -0.916251 0.264989
vn -0.623144 -0.781760 0.023327
vn -0.314808 -0.949050 -0.014114
vn -0.015569 -0.999861 0.005888
vn 0.602701 -0.797397 0.030150
vn -0.827657 -0.268262 -0.492970
vn -0.476556 -0.763223 -0.436331
vn -0.740541 0.513000 -0.434086
vn -0.006164 -0.984034 -0.177873
vn 0.641428 -0.699895 -0.314195
vn -0.237042 -0.880840 -0.409795
vn 0.278547 -0.817672 -0.503810
vn 0.677756 -0.003447 -0.735279
vn 0.641428 -0.699895 -0.314195
vn 0.280305 -0.959734 -0.018445
vn 0.258075 -0.957032 -0.132238
vn 0.958141 0.285656 -0.019125
vn 0.602701 -0.797397 0.030150
vn 0.980408 0.089158 0.175643
vn 0.558969 -0.815824 0.148274
vn 0.669600 -0.566623 0.480182
vn 0.802556 -0.133303 0.581493
vn 0.500416 -0.647767 0.574441
vn 0.357393 -0.922486 0.145910
vn 0.259730 -0.668202 0.697170
vn 0.297776 -0.953185 0.052607
vn 0.861399 0.427136 -0.274859
vn 0.319832 -0.890528 0.323525
vn 0.313197 -0.139387 0.939403
vn 0.927535 0.342768 0.148962
vn 0.793311 0.597193 0.118396
vn 0.777198 0.077379 0.624480
vn 0.638881 0.685081 -0.349994
vn 0.318687 0.460814 -0.828305
vn 0.744209 0.331900 0.579651
vn 0.281151 0.047956 0.958464
vn 0.277654 0.546909 -0.789809
vn -0.308967 0.513931 -0.800259
vn -0.252841 0.592527 -0.764842
vn -0.625261 0.654097 -0.425683
vn -0.888264 0.450406 0.090116
vn -0.802688 0.591570 0.075744
f 1/1/1 2/2/2 3/3/3
f 3/3/3 2/2/2 4/4/4
f 2/2/2 1/1/1 5/5/5
f 6/6/6 4/4/4 2/2/2
f 6/6/6 2/2/2 7/7/7
f 5/5/5 7/7/7 2/2/2
f 6/6/6 7/7/7 8/8/8
f 8/8/8 7/7/7 9/9/9
f 7/7/7 10/10/10 9/9/9
f 7/7/7 5/5/5 11/11/11
f 11/11/11 10/10/10 7/7/7
f 5/5/5 12/12/12 11/11/11
f 10/10/10 11/11/11 13/13/13
f 12/12/12 14/14/14 11/11/11
f 11/11/11 14/14/14 13/13/13
f 12/12/12 15/15/15 14/14/14
f 15/15/15 12/12/12 16/16/16
f 15/15/15 16/16/16 17/17/17
f 15/15/15 17/17/17 18/18/18
f 15/15/15 18/18/18 19/19/19
f 14/14/14 20/20/20 13/13/13
f 15/15/15 20/20/20 14/14/14
f 13/13/13 20/20/20 21/21/21
f 22/22/22 21/21/21 20/20/20
f 23/23/23 22/22/22 20/20/20
f 20/20/20 15/15/15 23/23/23
f 19/19/19 23/23/23 15/15/15
f 23/23/23 19/19/19 24/24/24
f 25/25/25 26/26/26 27/27/27
f 26/26/26 25/25/25 28/28/28
f 27/27/27 29/29/29 25/25/25
f 28/28/28 30/30/30 26/26/26
f 30/30/30 28/28/28 31/31/31
f 32/32/32 30/30/30 31/31/31
f 30/30/30 32/32/32 33/33/33
f 34/34/34 30/30/30 33/33/33
f 34/34/34 26/26/26 30/30/30
f 34/34/34 33/33/33 35/35/35
f 36/36/36 27/27/27 26/26/26
f 26/26/26 34/34/34 36/36/36
f 29/29/29 27/27/27 37/37/37
f 38/38/38 29/29/29 37/37/37
f 38/38/38 37/37/37 39/39/39
f 27/27/27 40/40/40 37/37/37
f 27/27/27 36/36/36 40/40/40
f 37/37/37 41/41/41 39/39/39
f 41/41/41 42/42/42 39/39/39
f 42/42/42 41/41/41 43/43/43
f 44/44/44 40/40/40 36/36/36
f 34/34/34 44/44/44 36/36/36
f 37/37/37 40/40/40 45/45/45
f 41/41/41 37/37/37 45/45/45
f 45/45/45 40/40/40 46/46/46
f 44/44/44 46/46/46 40/40/40
f 47/47/47 41/41/41 45/45/45
f 47/47/47 45/45/45 46/46/46
f 43/43/43 41/41/41 48/48/48
f 48/48/48 41/41/41 47/47/47
f 48/48/48 49/49/49 43/43/43
f 50/50/50 46/46/46 44/44/44
f 51/51/51 46/46/46 50/50/50
f 47/47/47 46/46/46 51/51/51
f 50/50/50 44/44/44 52/52/52
f 53/53/53 49/49/49 48/48/48
f 47/47/47 53/53/53 48/48/48
f 53/53/53 54/54/54 49/49/49
f 55/55/55 47/47/47 51/51/51
f 53/53/53 47/47/47 55/55/55
f 51/51/51 56/56/56 55/55/55
f 53/53/53 55/55/55 57/57/57
f 55/55/55 56/56/56 57/57/57
f 53/53/53 57/57/57 58/58/58
f 56/56/56 59/59/59 57/57/57
f 60/60/60 59/59/59 56/56/56
f 57/57/57 61/61/61 58/58/58
f 57/57/57 59/59/59 61/61/61
f 58/58/58 61/61/61 62/62/62
f 62/62/62 61/61/61 63/63/63
f 62/62/62 63/63/63 64/64/64
f 63/63/63 65/65/65 64/64/64
f 65/65/65 63/63/63 66/66/66
f 63/63/63 67/67/67 66/66/66
f 61/61/61 68/68/68 63/63/63
f 67/67/67 63/63/63 68/68/68
f 61/61/61 59/59/59 68/68/68
f 68/68/68 69/69/69 67/67/67
f 59/59/59 60/60/60 70/70/70
f 70/70/70 68/68/68 59/59/59
f 71/71/71 70/70/70 60/60/60
f 69/69/69 68/68/68 72/72/72
f 68/68/68 70/70/70 72/72/72
f 72/72/72 73/73/73 69/69/69
f 70/70/70 71/71/71 74/74/74
f 74/74/74 72/72/72 70/70/70
f 71/71/71 75/75/75 74/74/74
f 72/72/72 74/74/74 76/76/76
f 75/75/75 76/76/76 74/74/74
f 73/73/73 72/72/72 76/76/76
f 75/75/75 71/71/71 77/77/77
f 77/77/77 71/71/71 78/78/78
f 76/76/76 75/75/75 79/79/79
f 79/79/79 73/73/73 76/76/76
f 73/73/73 79/79/79 80/80/80
f 77/77/77 78/78/78 81/81/81
f 82/82/82 81/81/81 78/78/78
f 81/81/81 82/82/82 83/83/83
f 82/82/82 84/84/84 83/83/83
f 84/84/84 82/82/82 52/52/52
f 52/52/52 85/85/85 84/84/84
f 84/84/84 85/85/85 86/86/86
f 52/52/52 44/44/44 85/85/85
f 85/85/85 35/35/35 86/86/86
f 44/44/44 34/34/34 85/85/85
f 35/35/35 85/85/85 34/34/34
