# Generated from Roblox mesh JSON (v2.00)
# Hello from RBX_Toolbox ;)
o LeftFootWrapTarget
v -0.122402 0.053700 0.845470
v -0.282959 0.178347 0.649420
v -0.287002 0.044641 0.649137
v -0.119730 0.178347 0.830065
v -0.131562 -0.057537 0.864382
v -0.293661 -0.056335 0.645457
v 0.155725 0.052705 0.876106
v 0.161367 0.178347 0.854225
v 0.326030 0.047748 0.628187
v 0.334538 0.178347 0.625512
v 0.151303 -0.055520 0.873464
v 0.323189 -0.065771 0.621913
v -0.104675 -0.151092 0.754825
v -0.203378 -0.164642 0.553252
v 0.139222 -0.151455 0.750821
v 0.257642 -0.164984 0.520446
v -0.240705 -0.170496 0.298070
v 0.290286 -0.169271 0.283836
v 0.321690 -0.176892 -0.020430
v -0.295819 -0.175496 -0.008160
v -0.313666 -0.175975 -0.311649
v 0.338179 -0.175975 -0.311650
v -0.313667 -0.177786 -0.555687
v 0.346538 -0.178347 -0.570481
v 0.287057 -0.176697 -0.781383
v -0.305819 -0.176894 -0.661493
v 0.158554 -0.174824 -0.841108
v -0.101744 -0.176651 -0.829937
v -0.328011 0.178347 0.014592
v -0.366766 0.056495 0.326325
v -0.347746 0.178347 0.327640
v -0.282959 0.178347 0.649420
v -0.287002 0.044641 0.649137
v -0.293661 -0.056335 0.645457
v -0.361494 -0.058436 0.309331
v -0.203378 -0.164642 0.553252
v -0.240705 -0.170496 0.298070
v -0.394728 -0.061141 -0.020799
v -0.295819 -0.175496 -0.008160
v -0.357932 0.083066 -0.068280
v -0.089076 0.115367 -0.318374
v -0.072113 0.178347 -0.166304
v -0.340793 0.029997 -0.372197
v 0.156625 0.178347 -0.203423
v -0.394612 -0.073319 -0.314053
v -0.313666 -0.175975 -0.311649
v -0.365980 -0.095606 -0.571334
v -0.313667 -0.177786 -0.555687
v -0.305819 -0.176894 -0.661493
v -0.318934 -0.106616 -0.693330
v 0.148071 0.115367 -0.341301
v 0.344034 0.178347 -0.000220
v -0.102779 0.075719 -0.494304
v -0.332025 -0.014285 -0.558116
v -0.324198 -0.045587 -0.709166
v -0.108220 0.028737 -0.664807
v 0.144194 0.075719 -0.506140
v -0.102084 -0.102590 -0.839404
v -0.305819 -0.176894 -0.661493
v -0.101744 -0.176651 -0.829937
v 0.158554 -0.174824 -0.841108
v -0.107955 -0.033040 -0.813299
v 0.146198 0.028737 -0.677683
v 0.159130 -0.026298 -0.844495
v 0.175429 -0.103289 -0.876106
v 0.287057 -0.176697 -0.781383
v 0.301513 -0.102849 -0.836487
v 0.313552 -0.030426 -0.816569
v 0.333080 0.015625 -0.708230
v 0.394728 -0.102985 -0.610879
v 0.287057 -0.176697 -0.781383
v 0.346538 -0.178347 -0.570481
v 0.348892 0.052007 -0.431974
v 0.394728 -0.101919 -0.341954
v 0.338179 -0.175975 -0.311650
v 0.367313 0.096646 -0.136140
v 0.394728 -0.091773 -0.052440
v 0.321690 -0.176892 -0.020430
v 0.369826 0.046703 0.268153
v 0.383011 0.178347 0.301966
v 0.370066 -0.082062 0.275889
v 0.290286 -0.169271 0.283836
v 0.257642 -0.164984 0.520446
v 0.323189 -0.065771 0.621913
v 0.326030 0.047748 0.628187
v 0.334538 0.178347 0.625512
vt 4.238916 0.717542
vt 4.194766 0.734033
vt 4.194766 0.717542
vt 4.239410 0.734033
vt 4.238421 0.701050
vt 4.194766 0.701050
vt 4.269673 0.717542
vt 4.270662 0.734033
vt 4.318013 0.717542
vt 4.318013 0.734033
vt 4.268683 0.701050
vt 4.318014 0.701050
vt 4.239748 0.685211
vt 4.194766 0.668763
vt 4.271337 0.685211
vt 4.318014 0.668763
vt 4.163954 0.538116
vt 4.348825 0.538116
vt 4.348825 0.494111
vt 4.163954 0.462950
vt 4.163954 0.380830
vt 4.348826 0.380830
vt 4.179359 0.323398
vt 4.333420 0.323398
vt 4.323192 0.285270
vt 4.189588 0.285271
vt 4.318013 0.265967
vt 4.194766 0.265967
vt 4.682165 0.537171
vt 4.715122 0.584724
vt 4.682165 0.599918
vt 4.682165 0.655552
vt 4.715122 0.655552
vt 4.748080 0.655552
vt 4.748080 0.569530
vt 4.836046 0.655553
vt 4.836046 0.578310
vt 4.725915 0.472138
vt 4.836046 0.537171
vt 4.704069 0.501414
vt 4.638152 0.468094
vt 4.638152 0.537171
vt 4.695858 0.454766
vt 4.550125 0.537171
vt 4.709523 0.418805
vt 4.792063 0.379687
vt 4.693130 0.365472
vt 4.770072 0.337042
vt 4.748080 0.294397
vt 4.682165 0.322827
vt 4.550125 0.476610
vt 4.506112 0.537171
vt 4.638152 0.438105
vt 4.687648 0.408117
vt 4.684693 0.357269
vt 4.638152 0.408117
vt 4.550125 0.442364
vt 4.639468 0.322827
vt 4.682165 0.265968
vt 4.641173 0.265968
vt 4.553146 0.265967
vt 4.638481 0.354811
vt 4.550125 0.408117
vt 4.550454 0.354811
vt 4.551442 0.322827
vt 4.506112 0.265967
vt 4.506112 0.322827
vt 4.503837 0.357023
vt 4.500629 0.408117
vt 4.495147 0.365472
vt 4.440197 0.294397
vt 4.418206 0.337042
vt 4.491948 0.459342
vt 4.477498 0.422491
vt 4.396214 0.379687
vt 4.483266 0.510566
vt 4.459850 0.479509
vt 4.370994 0.469989
vt 4.473155 0.594565
vt 4.506112 0.599918
vt 4.440198 0.589211
vt 4.352232 0.537170
vt 4.352232 0.655553
vt 4.440198 0.655553
vt 4.473155 0.655553
vt 4.506112 0.655553
vn -0.442073 0.106252 0.890664
vn -0.903707 0.076202 0.421316
vn -0.909309 0.057729 0.412098
vn -0.443262 0.113802 0.889139
vn -0.405364 -0.441133 0.800676
vn -0.842582 -0.410521 0.348607
vn 0.435794 0.055425 0.898338
vn 0.442864 0.088348 0.892226
vn 0.939044 -0.039502 0.341520
vn 0.937139 -0.050501 0.345282
vn 0.400483 -0.441069 0.803163
vn 0.875876 -0.354638 0.327220
vn -0.150237 -0.945439 0.289091
vn -0.220897 -0.970241 0.099184
vn 0.164824 -0.943125 0.288700
vn 0.213685 -0.972134 0.096409
vn -0.176654 -0.983158 0.046835
vn 0.156394 -0.986908 0.039424
vn 0.124645 -0.992034 0.018234
vn -0.166254 -0.985776 0.024580
vn -0.144112 -0.989545 0.005783
vn 0.113345 -0.993531 0.007028
vn -0.115265 -0.993316 -0.006091
vn 0.139071 -0.990163 -0.015400
vn 0.152159 -0.981865 -0.113091
vn -0.147531 -0.980973 -0.126203
vn 0.017777 -0.947826 -0.318293
vn -0.139050 -0.916267 -0.375658
vn -0.793168 0.553075 -0.254934
vn -0.987863 0.108735 0.110919
vn -0.982405 0.157822 0.099867
vn -0.903707 0.076202 0.421316
vn -0.909309 0.057729 0.412098
vn -0.842582 -0.410521 0.348607
vn -0.917272 -0.377369 0.127300
vn -0.220897 -0.970241 0.099184
vn -0.176654 -0.983158 0.046835
vn -0.966336 -0.254410 0.038335
vn -0.166254 -0.985776 0.024580
vn -0.800125 0.574804 -0.171465
vn -0.211770 0.933814 -0.288348
vn -0.272892 0.858217 -0.434733
vn -0.572488 0.800469 -0.177502
vn 0.231761 0.881658 -0.411055
vn -0.985543 -0.164805 -0.039310
vn -0.144112 -0.989545 0.005783
vn -0.974813 -0.189829 -0.117069
vn -0.115265 -0.993316 -0.006091
vn -0.147531 -0.980973 -0.126203
vn -0.739447 -0.153448 -0.655494
vn 0.140040 0.949635 -0.280326
vn 0.905057 0.378168 -0.194579
vn -0.167818 0.959185 -0.227600
vn -0.532820 0.809762 -0.245741
vn -0.516266 0.696423 -0.498462
vn -0.146284 0.946078 -0.289029
vn 0.076508 0.973337 -0.216243
vn -0.319044 -0.038702 -0.946949
vn -0.147531 -0.980973 -0.126203
vn -0.139050 -0.916267 -0.375658
vn 0.017777 -0.947826 -0.318293
vn -0.205557 0.782495 -0.587747
vn 0.025477 0.960828 -0.275974
vn -0.010244 0.804906 -0.593314
vn 0.043483 -0.024891 -0.998744
vn 0.152159 -0.981865 -0.113091
vn 0.739674 -0.200007 -0.642557
vn 0.560106 0.623296 -0.545695
vn 0.559108 0.795978 -0.231984
vn 0.990090 -0.047036 -0.132323
vn 0.152159 -0.981865 -0.113091
vn 0.139071 -0.990163 -0.015400
vn 0.682047 0.718015 -0.138803
vn 0.997116 -0.071897 -0.024314
vn 0.113345 -0.993531 0.007028
vn 0.872805 0.465251 -0.147490
vn 0.986766 -0.160591 0.022450
vn 0.124645 -0.992034 0.018234
vn 0.997708 0.027913 0.061638
vn 0.998423 -0.017070 0.053482
vn 0.961301 -0.259327 0.093008
vn 0.156394 -0.986908 0.039424
vn 0.213685 -0.972134 0.096409
vn 0.875876 -0.354638 0.327220
vn 0.939044 -0.039502 0.341520
vn 0.937139 -0.050501 0.345282
f 1/1/1 2/2/2 3/3/3
f 2/2/2 1/1/1 4/4/4
f 3/3/3 5/5/5 1/1/1
f 3/3/3 6/6/6 5/5/5
f 7/7/7 4/4/4 1/1/1
f 4/4/4 7/7/7 8/8/8
f 9/9/9 8/8/8 7/7/7
f 9/9/9 10/10/10 8/8/8
f 1/1/1 11/11/11 7/7/7
f 11/11/11 9/9/9 7/7/7
f 11/11/11 1/1/1 5/5/5
f 9/9/9 11/11/11 12/12/12
f 6/6/6 13/13/13 5/5/5
f 13/13/13 11/11/11 5/5/5
f 13/13/13 6/6/6 14/14/14
f 15/15/15 12/12/12 11/11/11
f 11/11/11 13/13/13 15/15/15
f 14/14/14 15/15/15 13/13/13
f 12/12/12 15/15/15 16/16/16
f 14/14/14 16/16/16 15/15/15
f 17/17/17 16/16/16 14/14/14
f 16/16/16 17/17/17 18/18/18
f 17/17/17 19/19/19 18/18/18
f 19/19/19 17/17/17 20/20/20
f 21/21/21 19/19/19 20/20/20
f 21/21/21 22/22/22 19/19/19
f 23/23/23 22/22/22 21/21/21
f 23/23/23 24/24/24 22/22/22
f 23/23/23 25/25/25 24/24/24
f 25/25/25 23/23/23 26/26/26
f 25/25/25 26/26/26 27/27/27
f 27/27/27 26/26/26 28/28/28
f 29/29/29 30/30/30 31/31/31
f 31/31/31 30/30/30 32/32/32
f 30/30/30 33/33/33 32/32/32
f 30/30/30 34/34/34 33/33/33
f 34/34/34 30/30/30 35/35/35
f 35/35/35 36/36/36 34/34/34
f 36/36/36 35/35/35 37/37/37
f 38/38/38 37/37/37 35/35/35
f 30/30/30 38/38/38 35/35/35
f 37/37/37 38/38/38 39/39/39
f 30/30/30 29/29/29 40/40/40
f 38/38/38 30/30/30 40/40/40
f 29/29/29 41/41/41 40/40/40
f 41/41/41 29/29/29 42/42/42
f 43/43/43 38/38/38 40/40/40
f 43/43/43 40/40/40 41/41/41
f 44/44/44 41/41/41 42/42/42
f 38/38/38 43/43/43 45/45/45
f 45/45/45 39/39/39 38/38/38
f 39/39/39 45/45/45 46/46/46
f 46/46/46 45/45/45 47/47/47
f 47/47/47 48/48/48 46/46/46
f 47/47/47 49/49/49 48/48/48
f 49/49/49 47/47/47 50/50/50
f 41/41/41 44/44/44 51/51/51
f 52/52/52 51/51/51 44/44/44
f 43/43/43 41/41/41 53/53/53
f 51/51/51 53/53/53 41/41/41
f 54/54/54 45/45/45 43/43/43
f 47/47/47 45/45/45 54/54/54
f 53/53/53 54/54/54 43/43/43
f 47/47/47 54/54/54 55/55/55
f 55/55/55 50/50/50 47/47/47
f 54/54/54 53/53/53 56/56/56
f 56/56/56 55/55/55 54/54/54
f 53/53/53 51/51/51 57/57/57
f 53/53/53 57/57/57 56/56/56
f 55/55/55 58/58/58 50/50/50
f 50/50/50 58/58/58 59/59/59
f 58/58/58 60/60/60 59/59/59
f 58/58/58 61/61/61 60/60/60
f 55/55/55 56/56/56 62/62/62
f 55/55/55 62/62/62 58/58/58
f 56/56/56 63/63/63 62/62/62
f 63/63/63 56/56/56 57/57/57
f 64/64/64 58/58/58 62/62/62
f 64/64/64 62/62/62 63/63/63
f 61/61/61 58/58/58 65/65/65
f 58/58/58 64/64/64 65/65/65
f 65/65/65 66/66/66 61/61/61
f 66/66/66 65/65/65 67/67/67
f 68/68/68 65/65/65 64/64/64
f 63/63/63 68/68/68 64/64/64
f 65/65/65 68/68/68 67/67/67
f 68/68/68 63/63/63 69/69/69
f 57/57/57 69/69/69 63/63/63
f 68/68/68 70/70/70 67/67/67
f 70/70/70 68/68/68 69/69/69
f 71/71/71 67/67/67 70/70/70
f 71/71/71 70/70/70 72/72/72
f 69/69/69 57/57/57 73/73/73
f 73/73/73 70/70/70 69/69/69
f 73/73/73 57/57/57 51/51/51
f 72/72/72 70/70/70 74/74/74
f 70/70/70 73/73/73 74/74/74
f 72/72/72 74/74/74 75/75/75
f 76/76/76 73/73/73 51/51/51
f 76/76/76 74/74/74 73/73/73
f 51/51/51 52/52/52 76/76/76
f 77/77/77 75/75/75 74/74/74
f 74/74/74 76/76/76 77/77/77
f 75/75/75 77/77/77 78/78/78
f 52/52/52 79/79/79 76/76/76
f 79/79/79 77/77/77 76/76/76
f 79/79/79 52/52/52 80/80/80
f 81/81/81 78/78/78 77/77/77
f 77/77/77 79/79/79 81/81/81
f 78/78/78 81/81/81 82/82/82
f 81/81/81 83/83/83 82/82/82
f 81/81/81 84/84/84 83/83/83
f 81/81/81 79/79/79 84/84/84
f 79/79/79 85/85/85 84/84/84
f 79/79/79 80/80/80 85/85/85
f 80/80/80 86/86/86 85/85/85
