# Generated from Roblox mesh JSON (v2.00)
# Hello from RBX_Toolbox ;)
o LeftUpperArmWrapTarget
v 0.017614 0.488084 -0.305574
v 0.108523 0.316757 -0.648825
v -0.167235 0.310714 -0.285942
v -0.018457 0.217375 -0.554124
v 0.208993 0.145872 -0.588175
v 0.187670 0.091500 -0.538517
v 0.256785 0.008290 -0.487552
v -0.090355 0.067211 -0.506021
v 0.124353 -0.011383 -0.498916
v 0.314853 -0.022604 -0.420467
v 0.354908 -0.017006 0.009589
v 0.305182 -0.091661 -0.365662
v 0.421521 -0.067975 -0.023780
v 0.412004 -0.124192 -0.027103
v 0.354908 -0.017006 0.009589
v 0.342967 -0.041934 0.407879
v 0.421521 -0.067975 -0.023780
v 0.336254 0.004129 0.476029
v -0.018457 0.217375 -0.554124
v -0.090355 0.067211 -0.506021
v -0.223164 0.123132 -0.255101
v -0.167235 0.310714 -0.285942
v -0.276297 -0.039115 -0.244211
v -0.247172 0.139551 0.051895
v -0.133644 -0.076132 -0.484426
v 0.124353 -0.011383 -0.498916
v -0.293967 -0.023602 0.038124
v 0.083089 -0.132925 -0.465628
v 0.305182 -0.091661 -0.365662
v -0.191731 0.320524 0.078489
v 0.017614 0.488084 -0.305574
v -0.009761 0.482161 0.093122
v 0.049858 0.435483 0.450144
v -0.108835 0.285387 0.357898
v 0.175018 0.276129 0.648825
v -0.172501 0.114350 0.299774
v 0.064218 0.197341 0.568230
v 0.249201 0.136607 0.579795
v 0.230225 0.080476 0.528612
v 0.336254 0.004129 0.476029
v 0.342967 -0.041934 0.407879
v -0.010245 0.056339 0.471596
v 0.186185 -0.020246 0.477059
v 0.345284 -0.090253 0.322536
v 0.421521 -0.067975 -0.023780
v 0.412004 -0.124192 -0.027103
v -0.220666 -0.037742 0.266003
v -0.070732 -0.083109 0.429240
v 0.129665 -0.135011 0.440683
v 0.316010 -0.182658 0.273531
v 0.389076 -0.205085 -0.029946
v -0.339915 -0.168843 0.033065
v -0.268662 -0.179253 0.253973
v -0.320140 -0.179508 -0.232167
v -0.385794 -0.304403 0.016880
v -0.110115 -0.197523 0.405035
v -0.316604 -0.313959 0.236740
v -0.169933 -0.208984 -0.457619
v -0.358005 -0.308242 -0.240543
v -0.421521 -0.416684 0.000270
v -0.348629 -0.423458 0.215379
v -0.386993 -0.420146 -0.242450
v -0.209895 -0.436688 0.363655
v -0.207050 -0.329364 -0.435681
v -0.245859 -0.433811 -0.421544
v -0.158197 -0.328500 0.376446
v -0.014027 -0.455089 0.394433
v 0.078314 -0.249652 0.420942
v 0.032089 -0.361403 0.405300
v 0.183699 -0.474662 0.226662
v 0.274637 -0.279989 0.260506
v 0.360830 -0.297016 -0.033456
v 0.227978 -0.387982 0.238520
v 0.317616 -0.399988 -0.034221
v 0.277732 -0.488084 -0.046074
v 0.037556 -0.244065 -0.445361
v 0.003907 -0.355954 -0.436705
v -0.029695 -0.451648 -0.435393
v 0.281913 -0.177850 -0.335360
v 0.412004 -0.124192 -0.027103
v 0.389076 -0.205085 -0.029946
v 0.242476 -0.278975 -0.317113
v 0.360830 -0.297016 -0.033456
v 0.204917 -0.386198 -0.312881
v 0.174087 -0.475543 -0.309202
v 0.317616 -0.399988 -0.034221
v 0.277732 -0.488084 -0.046074
v 0.314853 -0.022604 -0.420467
v 0.187670 0.091500 -0.538517
v 0.256785 0.008290 -0.487552
vt 4.249259 3.401921
vt 4.249259 3.343375
vt 4.317513 3.414271
vt 4.317513 3.344108
vt 4.249260 3.273265
vt 4.317513 3.273265
vt 4.249259 3.241301
vt 4.383102 3.344108
vt 4.383102 3.273265
vt 4.317513 3.241285
vt 4.249260 3.209337
vt 4.383102 3.241270
vt 4.317512 3.209337
vt 4.383102 3.209337
vt 4.249260 3.714511
vt 4.317513 3.682776
vt 4.317512 3.714511
vt 4.249259 3.682803
vt 4.317513 3.344108
vt 4.383102 3.344108
vt 4.383102 3.414270
vt 4.317513 3.414271
vt 4.464461 3.414271
vt 4.383102 3.462179
vt 4.464461 3.344108
vt 4.383102 3.273265
vt 4.464461 3.462179
vt 4.464461 3.273264
vt 4.383102 3.241270
vt 4.317513 3.462179
vt 4.249259 3.401921
vt 4.249259 3.462179
vt 4.249259 3.511224
vt 4.317513 3.511224
vt 4.249259 3.579725
vt 4.383102 3.511224
vt 4.317513 3.579725
vt 4.249260 3.651093
vt 4.317513 3.651093
vt 4.249259 3.682803
vt 4.317513 3.682776
vt 4.383102 3.579725
vt 4.383102 3.651093
vt 4.383102 3.682749
vt 4.317512 3.714511
vt 4.383102 3.714510
vt 4.464461 3.511224
vt 4.464461 3.579725
vt 4.464461 3.651093
vt 4.464461 3.682632
vt 4.464461 3.714510
vt 4.573396 3.462179
vt 4.573396 3.511224
vt 4.573396 3.414270
vt 4.674968 3.462179
vt 4.573396 3.579725
vt 4.674968 3.511224
vt 4.573396 3.344108
vt 4.674968 3.414270
vt 4.750740 3.462179
vt 4.750740 3.511224
vt 4.750740 3.414270
vt 4.750740 3.579725
vt 4.674969 3.344108
vt 4.750741 3.344108
vt 4.674969 3.579725
vt 4.750741 3.651093
vt 4.573396 3.651094
vt 4.674969 3.651093
vt 4.750740 3.682632
vt 4.573396 3.682632
vt 4.573396 3.714510
vt 4.674968 3.682632
vt 4.674969 3.714510
vt 4.750741 3.714510
vt 4.573396 3.273265
vt 4.674968 3.273265
vt 4.750740 3.273265
vt 4.464461 3.241194
vt 4.383102 3.209337
vt 4.464461 3.209337
vt 4.573396 3.241194
vt 4.573396 3.209337
vt 4.674968 3.241194
vt 4.750740 3.241194
vt 4.674968 3.209337
vt 4.750740 3.209337
vt 4.317513 3.241285
vt 4.317513 3.273265
vt 4.249259 3.241301
vn -0.694480 0.686290 -0.216110
vn -0.672143 0.426340 -0.605358
vn -0.802753 0.531635 -0.270095
vn -0.690485 0.192248 -0.697331
vn -0.288417 -0.506568 -0.812530
vn -0.123983 -0.423262 -0.897484
vn 0.445787 0.817134 -0.365466
vn -0.613984 0.028933 -0.788788
vn 0.117515 -0.345367 -0.931081
vn 0.797136 0.276624 -0.536706
vn 0.704356 0.709842 -0.002513
vn 0.723347 -0.373895 -0.580493
vn 0.960312 0.273310 -0.055708
vn 0.950297 -0.305888 -0.058031
vn 0.704356 0.709842 -0.002513
vn 0.862290 -0.082429 0.499661
vn 0.960312 0.273310 -0.055708
vn 0.569232 -0.269865 0.776626
vn -0.690485 0.192248 -0.697331
vn -0.613984 0.028933 -0.788788
vn -0.922389 0.255299 -0.289864
vn -0.802753 0.531635 -0.270095
vn -0.918862 0.251491 -0.304046
vn -0.958242 0.271282 0.090429
vn -0.556049 0.028697 -0.830654
vn 0.117515 -0.345367 -0.931081
vn -0.954767 0.281533 0.095703
vn 0.231208 -0.287407 -0.929484
vn 0.723347 -0.373895 -0.580493
vn -0.820287 0.565559 0.085279
vn -0.694480 0.686290 -0.216110
vn -0.692838 0.717442 0.072472
vn -0.717181 0.568857 0.402558
vn -0.800364 0.394699 0.451253
vn -0.649316 0.163599 0.742714
vn -0.858855 0.144338 0.491462
vn -0.622167 -0.044729 0.781606
vn -0.230890 -0.570081 0.788478
vn -0.147185 -0.554519 0.819051
vn 0.569232 -0.269865 0.776626
vn 0.862290 -0.082429 0.499661
vn -0.532082 -0.140881 0.834890
vn 0.068014 -0.466985 0.881646
vn 0.766952 -0.428514 0.477661
vn 0.960312 0.273310 -0.055708
vn 0.950297 -0.305888 -0.058031
vn -0.843333 0.190319 0.502561
vn -0.470753 -0.034227 0.881601
vn 0.231459 -0.343601 0.910146
vn 0.773333 -0.398586 0.493038
vn 0.935528 -0.349257 -0.052984
vn -0.949430 0.297139 0.101450
vn -0.828536 0.213761 0.517528
vn -0.911657 0.253236 -0.323655
vn -0.954291 0.284736 0.090854
vn -0.448799 0.004897 0.893619
vn -0.828125 0.203576 0.522270
vn -0.518459 0.036443 -0.854326
vn -0.896828 0.261799 -0.356595
vn -0.961140 0.265743 0.074768
vn -0.837439 0.198583 0.509177
vn -0.891781 0.254882 -0.373847
vn -0.469351 0.068232 0.880372
vn -0.488469 0.076250 -0.869243
vn -0.492344 0.096335 -0.865053
vn -0.447255 0.027714 0.893977
vn 0.256570 -0.243318 0.935398
vn 0.267546 -0.279073 0.922246
vn 0.273847 -0.266707 0.924054
vn 0.737781 -0.428146 0.521890
vn 0.759731 -0.386030 0.523249
vn 0.924543 -0.377675 -0.050818
vn 0.748612 -0.412467 0.519087
vn 0.914745 -0.402743 -0.032251
vn 0.910640 -0.411025 -0.042359
vn 0.255770 -0.228875 -0.939254
vn 0.259655 -0.159361 -0.952462
vn 0.243576 -0.135972 -0.960303
vn 0.725445 -0.352265 -0.591303
vn 0.950297 -0.305888 -0.058031
vn 0.935528 -0.349257 -0.052984
vn 0.726781 -0.320167 -0.607686
vn 0.924543 -0.377675 -0.050818
vn 0.734777 -0.289409 -0.613470
vn 0.741313 -0.284617 -0.607823
vn 0.914745 -0.402743 -0.032251
vn 0.910640 -0.411025 -0.042359
vn 0.797136 0.276624 -0.536706
vn -0.123983 -0.423262 -0.897484
vn 0.445787 0.817134 -0.365466
f 1/1/1 2/2/2 3/3/3
f 4/4/4 3/3/3 2/2/2
f 5/5/5 4/4/4 2/2/2
f 4/4/4 5/5/5 6/6/6
f 5/5/5 7/7/7 6/6/6
f 8/8/8 4/4/4 6/6/6
f 6/6/6 9/9/9 8/8/8
f 10/10/10 9/9/9 6/6/6
f 11/11/11 10/10/10 7/7/7
f 9/9/9 10/10/10 12/12/12
f 10/10/10 11/11/11 13/13/13
f 13/13/13 12/12/12 10/10/10
f 12/12/12 13/13/13 14/14/14
f 15/15/15 16/16/16 17/17/17
f 15/15/15 18/18/18 16/16/16
f 19/19/19 20/20/20 21/21/21
f 21/21/21 22/22/22 19/19/19
f 23/23/23 21/21/21 20/20/20
f 22/22/22 21/21/21 24/24/24
f 20/20/20 25/25/25 23/23/23
f 26/26/26 25/25/25 20/20/20
f 27/27/27 21/21/21 23/23/23
f 21/21/21 27/27/27 24/24/24
f 26/26/26 28/28/28 25/25/25
f 29/29/29 28/28/28 26/26/26
f 22/22/22 24/24/24 30/30/30
f 30/30/30 31/31/31 22/22/22
f 31/31/31 30/30/30 32/32/32
f 30/30/30 33/33/33 32/32/32
f 33/33/33 30/30/30 34/34/34
f 24/24/24 34/34/34 30/30/30
f 33/33/33 34/34/34 35/35/35
f 34/34/34 24/24/24 36/36/36
f 27/27/27 36/36/36 24/24/24
f 35/35/35 34/34/34 37/37/37
f 36/36/36 37/37/37 34/34/34
f 38/38/38 35/35/35 37/37/37
f 38/38/38 37/37/37 39/39/39
f 40/40/40 38/38/38 39/39/39
f 39/39/39 41/41/41 40/40/40
f 42/42/42 39/39/39 37/37/37
f 37/37/37 36/36/36 42/42/42
f 41/41/41 39/39/39 43/43/43
f 39/39/39 42/42/42 43/43/43
f 43/43/43 44/44/44 41/41/41
f 45/45/45 41/41/41 44/44/44
f 45/45/45 44/44/44 46/46/46
f 47/47/47 42/42/42 36/36/36
f 36/36/36 27/27/27 47/47/47
f 48/48/48 43/43/43 42/42/42
f 42/42/42 47/47/47 48/48/48
f 49/49/49 44/44/44 43/43/43
f 43/43/43 48/48/48 49/49/49
f 50/50/50 46/46/46 44/44/44
f 44/44/44 49/49/49 50/50/50
f 46/46/46 50/50/50 51/51/51
f 52/52/52 47/47/47 27/27/27
f 23/23/23 52/52/52 27/27/27
f 53/53/53 48/48/48 47/47/47
f 47/47/47 52/52/52 53/53/53
f 52/52/52 23/23/23 54/54/54
f 54/54/54 23/23/23 25/25/25
f 52/52/52 55/55/55 53/53/53
f 54/54/54 55/55/55 52/52/52
f 48/48/48 53/53/53 56/56/56
f 56/56/56 49/49/49 48/48/48
f 55/55/55 57/57/57 53/53/53
f 57/57/57 56/56/56 53/53/53
f 25/25/25 58/58/58 54/54/54
f 28/28/28 58/58/58 25/25/25
f 55/55/55 54/54/54 59/59/59
f 58/58/58 59/59/59 54/54/54
f 59/59/59 60/60/60 55/55/55
f 60/60/60 57/57/57 55/55/55
f 57/57/57 60/60/60 61/61/61
f 60/60/60 59/59/59 62/62/62
f 63/63/63 57/57/57 61/61/61
f 62/62/62 59/59/59 64/64/64
f 59/59/59 58/58/58 64/64/64
f 64/64/64 65/65/65 62/62/62
f 57/57/57 63/63/63 66/66/66
f 56/56/56 57/57/57 66/66/66
f 67/67/67 66/66/66 63/63/63
f 66/66/66 68/68/68 56/56/56
f 49/49/49 56/56/56 68/68/68
f 68/68/68 50/50/50 49/49/49
f 66/66/66 67/67/67 69/69/69
f 68/68/68 66/66/66 69/69/69
f 70/70/70 69/69/69 67/67/67
f 50/50/50 68/68/68 71/71/71
f 69/69/69 71/71/71 68/68/68
f 71/71/71 51/51/51 50/50/50
f 51/51/51 71/71/71 72/72/72
f 71/71/71 69/69/69 73/73/73
f 72/72/72 71/71/71 73/73/73
f 69/69/69 70/70/70 73/73/73
f 74/74/74 72/72/72 73/73/73
f 74/74/74 73/73/73 70/70/70
f 75/75/75 74/74/74 70/70/70
f 76/76/76 64/64/64 58/58/58
f 58/58/58 28/28/28 76/76/76
f 64/64/64 76/76/76 77/77/77
f 77/77/77 65/65/65 64/64/64
f 65/65/65 77/77/77 78/78/78
f 79/79/79 76/76/76 28/28/28
f 28/28/28 29/29/29 79/79/79
f 29/29/29 80/80/80 79/79/79
f 79/79/79 80/80/80 81/81/81
f 76/76/76 79/79/79 82/82/82
f 81/81/81 82/82/82 79/79/79
f 82/82/82 77/77/77 76/76/76
f 82/82/82 81/81/81 83/83/83
f 84/84/84 78/78/78 77/77/77
f 77/77/77 82/82/82 84/84/84
f 83/83/83 84/84/84 82/82/82
f 78/78/78 84/84/84 85/85/85
f 84/84/84 83/83/83 86/86/86
f 86/86/86 85/85/85 84/84/84
f 85/85/85 86/86/86 87/87/87
f 88/88/88 89/89/89 90/90/90
