# Generated from Roblox mesh JSON (v2.00)
# Hello from RBX_Toolbox ;)
o RightLowerLegWrapTarget
v -0.320286 0.293681 -0.238572
v -0.390002 0.158934 0.016615
v -0.418313 0.295206 0.013507
v -0.445963 0.428791 0.009845
v -0.346965 0.428789 -0.252739
v -0.131361 0.428791 -0.433247
v -0.119656 0.293678 -0.411775
v 0.111148 0.428790 -0.429561
v -0.295530 0.157084 -0.234296
v -0.272326 0.037547 -0.228983
v -0.359841 0.037547 0.020350
v -0.111790 0.156919 -0.397761
v -0.337320 -0.080477 0.016946
v 0.115667 0.294194 -0.409512
v 0.358067 0.428789 -0.254641
v 0.364045 0.296670 -0.255013
v 0.381567 0.428791 0.015901
v 0.118610 0.158301 -0.398926
v -0.102193 0.037547 -0.386267
v -0.257889 -0.080476 -0.242612
v -0.315599 -0.193532 0.010140
v 0.386967 0.297931 0.023049
v 0.326443 0.428790 0.309645
v 0.369559 0.159233 -0.247083
v -0.243980 -0.193532 -0.256629
v -0.296842 -0.313665 -0.000169
v -0.085590 -0.080477 -0.392689
v -0.234030 -0.313531 -0.275130
v -0.284790 -0.428791 -0.023441
v -0.245803 -0.428790 -0.325638
v -0.058397 -0.428788 -0.528819
v 0.120419 0.037547 -0.389870
v -0.075840 -0.193532 -0.396482
v 0.126589 -0.080477 -0.389174
v 0.370928 0.037547 -0.237300
v -0.060044 -0.313569 -0.441691
v 0.129414 -0.193532 -0.384454
v 0.143298 -0.313447 -0.402118
v 0.170323 -0.428788 -0.491702
v 0.373207 -0.080476 -0.236432
v 0.378886 -0.193532 -0.240103
v 0.382225 -0.313338 -0.255067
v 0.426197 -0.428790 -0.310836
v 0.445963 -0.428788 0.002203
v 0.421763 -0.313335 0.016299
v 0.405688 -0.193532 0.022709
v 0.368322 -0.313464 0.309080
v 0.381180 -0.428790 0.324014
v 0.217952 -0.428791 0.504658
v 0.399124 -0.080476 0.025278
v 0.356301 -0.193532 0.310309
v 0.204739 -0.313464 0.487519
v -0.063146 -0.428791 0.528819
v 0.343903 -0.080477 0.306420
v 0.188519 -0.193532 0.475788
v -0.062455 -0.313565 0.510318
v -0.236317 -0.428791 0.300106
v 0.393257 0.037547 0.027962
v 0.177660 -0.080476 0.477625
v -0.078353 -0.193532 0.503411
v -0.242811 -0.313804 0.301579
v -0.296842 -0.313665 -0.000169
v -0.284790 -0.428791 -0.023441
v -0.315599 -0.193532 0.010140
v -0.254458 -0.193532 0.296126
v -0.337320 -0.080477 0.016946
v -0.090676 -0.080476 0.504907
v -0.275596 -0.080477 0.298688
v -0.359841 0.037547 0.020350
v -0.302375 0.037547 0.307914
v -0.390002 0.158934 0.016615
v -0.101402 0.037547 0.500582
v 0.165413 0.037547 0.473014
v 0.342705 0.037547 0.305639
v 0.343301 0.160034 0.312437
v 0.153596 0.160935 0.475175
v 0.392081 0.160015 0.020426
v 0.330955 0.296957 0.310191
v 0.136064 0.297150 0.486275
v 0.122170 0.428791 0.491892
v -0.112527 0.158153 0.499965
v -0.129270 0.294028 0.511900
v -0.145901 0.428790 0.513614
v -0.326731 0.156188 0.319834
v -0.353116 0.292066 0.324470
v -0.379214 0.428544 0.346662
v -0.418313 0.295206 0.013507
v -0.445963 0.428791 0.009845
vt 2.793036 1.698511
vt 2.908824 1.605312
vt 2.908824 1.698511
vt 2.908824 1.792453
vt 2.793036 1.792453
vt 2.749558 1.792453
vt 2.749558 1.698511
vt 2.662603 1.792453
vt 2.793036 1.605312
vt 2.793036 1.536557
vt 2.908824 1.536557
vt 2.749558 1.605312
vt 2.908824 1.441824
vt 2.662603 1.698511
vt 2.619125 1.792453
vt 2.619125 1.698511
vt 2.457450 1.792453
vt 2.662603 1.605312
vt 2.749558 1.536557
vt 2.793036 1.439684
vt 2.908824 1.353774
vt 2.457450 1.698511
vt 2.347780 1.792453
vt 2.619125 1.605312
vt 2.793036 1.353774
vt 2.908824 1.266038
vt 2.749558 1.438862
vt 2.793036 1.266038
vt 2.908824 1.207547
vt 2.793036 1.207547
vt 2.749558 1.207547
vt 2.662603 1.536557
vt 2.749558 1.353774
vt 2.662603 1.437218
vt 2.619125 1.536557
vt 2.749558 1.266038
vt 2.662603 1.353774
vt 2.662603 1.266038
vt 2.662603 1.207547
vt 2.619125 1.436396
vt 2.619125 1.353774
vt 2.619125 1.266038
vt 2.619125 1.207547
vt 2.457450 1.207547
vt 2.457450 1.266038
vt 2.457450 1.353774
vt 2.347780 1.266038
vt 2.347780 1.207547
vt 2.315774 1.207547
vt 2.457450 1.433402
vt 2.347780 1.353774
vt 2.315774 1.266038
vt 2.283767 1.207547
vt 2.347780 1.432810
vt 2.315774 1.353774
vt 2.283767 1.266038
vt 2.219756 1.207547
vt 2.457450 1.536557
vt 2.315774 1.433763
vt 2.283767 1.353774
vt 2.219756 1.266038
vt 2.091176 1.266038
vt 2.091176 1.207547
vt 2.091176 1.353774
vt 2.219756 1.353774
vt 2.091176 1.441824
vt 2.283767 1.434716
vt 2.219756 1.436622
vt 2.091176 1.536557
vt 2.219756 1.536557
vt 2.091176 1.605312
vt 2.283767 1.536557
vt 2.315774 1.536557
vt 2.347780 1.536557
vt 2.347780 1.605312
vt 2.315774 1.605312
vt 2.457450 1.605312
vt 2.347780 1.698511
vt 2.315774 1.698511
vt 2.315774 1.792453
vt 2.283767 1.605312
vt 2.283767 1.698511
vt 2.283767 1.792453
vt 2.219756 1.605312
vt 2.219756 1.698511
vt 2.219756 1.792453
vt 2.091176 1.698511
vt 2.091176 1.792453
vn -0.806981 -0.185194 -0.560790
vn -0.975663 -0.211938 -0.056246
vn -0.976814 -0.206831 -0.055274
vn -0.975310 -0.213978 -0.054620
vn -0.802014 -0.204834 -0.561085
vn -0.361437 -0.183044 -0.914253
vn -0.360077 -0.151212 -0.920587
vn 0.317017 -0.095191 -0.943631
vn -0.817674 -0.174570 -0.548575
vn -0.836753 -0.136981 -0.530170
vn -0.977917 -0.203453 -0.047809
vn -0.368295 -0.120285 -0.921895
vn -0.984830 -0.170184 -0.033881
vn 0.314575 -0.079342 -0.945911
vn 0.847559 -0.001614 -0.530699
vn 0.844776 -0.002900 -0.535112
vn 0.997594 0.042141 0.055055
vn 0.302354 -0.069114 -0.950687
vn -0.375098 -0.064616 -0.924730
vn -0.850155 -0.079134 -0.520552
vn -0.990456 -0.136319 -0.020328
vn 0.997347 0.046381 0.056096
vn 0.877029 0.039721 0.478792
vn 0.841299 -0.017154 -0.540298
vn -0.864529 -0.032762 -0.501513
vn -0.997571 -0.069384 -0.006130
vn -0.351023 -0.002508 -0.936364
vn -0.880935 0.128110 -0.455567
vn -0.999755 -0.020230 -0.008975
vn -0.855413 0.259684 -0.448144
vn -0.258750 0.567744 -0.781483
vn 0.304953 -0.028704 -0.951935
vn -0.338103 0.106218 -0.935096
vn 0.318339 0.013493 -0.947881
vn 0.839406 -0.003314 -0.543495
vn -0.303717 0.419057 -0.855656
vn 0.337426 0.111717 -0.934699
vn 0.342925 0.435067 -0.832538
vn 0.321121 0.597252 -0.734963
vn 0.834028 0.032634 -0.550756
vn 0.830508 0.089711 -0.549735
vn 0.794190 0.339949 -0.503684
vn 0.731408 0.497846 -0.466039
vn 0.970454 0.237606 0.041984
vn 0.984596 0.169732 0.041974
vn 0.995372 0.087176 0.040436
vn 0.899751 0.143929 0.411985
vn 0.894790 0.170545 0.412633
vn 0.420475 0.177045 0.889863
vn 0.997427 0.051240 0.050138
vn 0.897352 0.101515 0.429481
vn 0.415296 0.142903 0.898392
vn -0.388130 0.104738 0.915633
vn 0.894562 0.063701 0.442382
vn 0.411158 0.074418 0.908521
vn -0.380417 0.063026 0.922665
vn -0.917729 -0.039679 0.395220
vn 0.998456 0.017296 0.052789
vn 0.408829 0.045488 0.911476
vn -0.379366 -0.026055 0.924880
vn -0.908951 -0.067487 0.411404
vn -0.997571 -0.069384 -0.006130
vn -0.999755 -0.020230 -0.008975
vn -0.990456 -0.136319 -0.020328
vn -0.893883 -0.128376 0.429527
vn -0.984830 -0.170184 -0.033881
vn -0.359996 -0.058491 0.931119
vn -0.878770 -0.170294 0.445829
vn -0.977917 -0.203453 -0.047809
vn -0.865710 -0.184013 0.465494
vn -0.975663 -0.211938 -0.056246
vn -0.332779 -0.060113 0.941087
vn 0.400586 0.028450 0.915818
vn 0.891511 0.022560 0.452437
vn 0.884800 0.032901 0.464808
vn 0.394999 -0.004504 0.918671
vn 0.998354 0.028622 0.049700
vn 0.879075 0.049399 0.474118
vn 0.392991 -0.003926 0.919534
vn 0.386113 0.006869 0.922426
vn -0.310107 -0.098289 0.945607
vn -0.301594 -0.110330 0.947031
vn -0.311136 -0.104617 0.944590
vn -0.853589 -0.185419 0.486832
vn -0.850705 -0.190018 0.490096
vn -0.844974 -0.197374 0.497055
vn -0.976814 -0.206831 -0.055274
vn -0.975310 -0.213978 -0.054620
f 1/1/1 2/2/2 3/3/3
f 1/1/1 3/3/3 4/4/4
f 5/5/5 1/1/1 4/4/4
f 5/5/5 6/6/6 1/1/1
f 6/6/6 7/7/7 1/1/1
f 6/6/6 8/8/8 7/7/7
f 2/2/2 1/1/1 9/9/9
f 7/7/7 9/9/9 1/1/1
f 10/10/10 2/2/2 9/9/9
f 2/2/2 10/10/10 11/11/11
f 9/9/9 7/7/7 12/12/12
f 9/9/9 12/12/12 10/10/10
f 10/10/10 13/13/13 11/11/11
f 8/8/8 14/14/14 7/7/7
f 14/14/14 12/12/12 7/7/7
f 8/8/8 15/15/15 14/14/14
f 15/15/15 16/16/16 14/14/14
f 16/16/16 15/15/15 17/17/17
f 12/12/12 14/14/14 18/18/18
f 16/16/16 18/18/18 14/14/14
f 12/12/12 19/19/19 10/10/10
f 18/18/18 19/19/19 12/12/12
f 20/20/20 13/13/13 10/10/10
f 10/10/10 19/19/19 20/20/20
f 20/20/20 21/21/21 13/13/13
f 16/16/16 17/17/17 22/22/22
f 23/23/23 22/22/22 17/17/17
f 18/18/18 16/16/16 24/24/24
f 22/22/22 24/24/24 16/16/16
f 25/25/25 21/21/21 20/20/20
f 25/25/25 26/26/26 21/21/21
f 20/20/20 27/27/27 25/25/25
f 19/19/19 27/27/27 20/20/20
f 28/28/28 26/26/26 25/25/25
f 28/28/28 29/29/29 26/26/26
f 30/30/30 29/29/29 28/28/28
f 28/28/28 31/31/31 30/30/30
f 19/19/19 18/18/18 32/32/32
f 19/19/19 32/32/32 27/27/27
f 18/18/18 24/24/24 32/32/32
f 27/27/27 33/33/33 25/25/25
f 25/25/25 33/33/33 28/28/28
f 32/32/32 34/34/34 27/27/27
f 34/34/34 33/33/33 27/27/27
f 24/24/24 35/35/35 32/32/32
f 32/32/32 35/35/35 34/34/34
f 33/33/33 36/36/36 28/28/28
f 31/31/31 28/28/28 36/36/36
f 33/33/33 34/34/34 37/37/37
f 37/37/37 36/36/36 33/33/33
f 36/36/36 38/38/38 31/31/31
f 36/36/36 37/37/37 38/38/38
f 38/38/38 39/39/39 31/31/31
f 34/34/34 40/40/40 37/37/37
f 35/35/35 40/40/40 34/34/34
f 37/37/37 41/41/41 38/38/38
f 40/40/40 41/41/41 37/37/37
f 38/38/38 42/42/42 39/39/39
f 41/41/41 42/42/42 38/38/38
f 42/42/42 43/43/43 39/39/39
f 42/42/42 44/44/44 43/43/43
f 41/41/41 45/45/45 42/42/42
f 44/44/44 42/42/42 45/45/45
f 40/40/40 46/46/46 41/41/41
f 45/45/45 41/41/41 46/46/46
f 44/44/44 45/45/45 47/47/47
f 46/46/46 47/47/47 45/45/45
f 44/44/44 47/47/47 48/48/48
f 47/47/47 49/49/49 48/48/48
f 46/46/46 40/40/40 50/50/50
f 35/35/35 50/50/50 40/40/40
f 47/47/47 46/46/46 51/51/51
f 49/49/49 47/47/47 52/52/52
f 51/51/51 52/52/52 47/47/47
f 52/52/52 53/53/53 49/49/49
f 46/46/46 54/54/54 51/51/51
f 46/46/46 50/50/50 54/54/54
f 52/52/52 51/51/51 55/55/55
f 54/54/54 55/55/55 51/51/51
f 53/53/53 52/52/52 56/56/56
f 52/52/52 55/55/55 56/56/56
f 56/56/56 57/57/57 53/53/53
f 58/58/58 54/54/54 50/50/50
f 50/50/50 35/35/35 58/58/58
f 55/55/55 54/54/54 59/59/59
f 56/56/56 55/55/55 60/60/60
f 55/55/55 59/59/59 60/60/60
f 57/57/57 56/56/56 61/61/61
f 60/60/60 61/61/61 56/56/56
f 62/62/62 57/57/57 61/61/61
f 63/63/63 57/57/57 62/62/62
f 62/62/62 61/61/61 64/64/64
f 64/64/64 61/61/61 65/65/65
f 61/61/61 60/60/60 65/65/65
f 64/64/64 65/65/65 66/66/66
f 67/67/67 65/65/65 60/60/60
f 60/60/60 59/59/59 67/67/67
f 66/66/66 65/65/65 68/68/68
f 65/65/65 67/67/67 68/68/68
f 66/66/66 68/68/68 69/69/69
f 69/69/69 68/68/68 70/70/70
f 70/70/70 71/71/71 69/69/69
f 72/72/72 68/68/68 67/67/67
f 68/68/68 72/72/72 70/70/70
f 59/59/59 73/73/73 67/67/67
f 67/67/67 73/73/73 72/72/72
f 59/59/59 74/74/74 73/73/73
f 74/74/74 59/59/59 54/54/54
f 54/54/54 58/58/58 74/74/74
f 75/75/75 73/73/73 74/74/74
f 58/58/58 75/75/75 74/74/74
f 73/73/73 76/76/76 72/72/72
f 73/73/73 75/75/75 76/76/76
f 58/58/58 77/77/77 75/75/75
f 35/35/35 77/77/77 58/58/58
f 35/35/35 24/24/24 77/77/77
f 24/24/24 22/22/22 77/77/77
f 77/77/77 78/78/78 75/75/75
f 78/78/78 77/77/77 22/22/22
f 78/78/78 76/76/76 75/75/75
f 22/22/22 23/23/23 78/78/78
f 23/23/23 79/79/79 78/78/78
f 76/76/76 78/78/78 79/79/79
f 79/79/79 23/23/23 80/80/80
f 72/72/72 76/76/76 81/81/81
f 79/79/79 81/81/81 76/76/76
f 81/81/81 70/70/70 72/72/72
f 80/80/80 82/82/82 79/79/79
f 81/81/81 79/79/79 82/82/82
f 82/82/82 80/80/80 83/83/83
f 70/70/70 81/81/81 84/84/84
f 82/82/82 84/84/84 81/81/81
f 71/71/71 70/70/70 84/84/84
f 83/83/83 85/85/85 82/82/82
f 84/84/84 82/82/82 85/85/85
f 71/71/71 84/84/84 85/85/85
f 85/85/85 83/83/83 86/86/86
f 87/87/87 71/71/71 85/85/85
f 88/88/88 85/85/85 86/86/86
f 85/85/85 88/88/88 87/87/87
