# Generated from Roblox mesh JSON (v2.00)
# Hello from RBX_Toolbox ;)
o RightFootWrapTarget
v 0.122402 0.053700 0.845470
v 0.287002 0.044641 0.649137
v 0.282952 0.178344 0.649427
v 0.119731 0.178347 0.830065
v 0.131562 -0.057537 0.864382
v 0.293661 -0.056335 0.645457
v -0.155725 0.052705 0.876106
v -0.161368 0.178347 0.854225
v -0.326030 0.047748 0.628187
v -0.334538 0.178347 0.625512
v -0.151303 -0.055520 0.873464
v -0.323189 -0.065771 0.621913
v 0.104675 -0.151092 0.754825
v 0.203378 -0.164642 0.553252
v -0.139222 -0.151455 0.750821
v -0.257642 -0.164984 0.520446
v 0.240705 -0.170496 0.298070
v -0.290286 -0.169271 0.283836
v -0.321690 -0.176892 -0.020430
v 0.295819 -0.175496 -0.008160
v 0.313666 -0.175975 -0.311649
v -0.338179 -0.175975 -0.311650
v 0.313666 -0.177786 -0.555687
v -0.346538 -0.178347 -0.570481
v -0.287057 -0.176697 -0.781383
v 0.305819 -0.176894 -0.661493
v -0.158554 -0.174824 -0.841108
v 0.101744 -0.176651 -0.829937
v 0.328011 0.178347 0.014592
v 0.366766 0.056495 0.326325
v 0.357932 0.083066 -0.068280
v 0.347746 0.178347 0.327640
v 0.282952 0.178344 0.649427
v 0.287002 0.044641 0.649137
v 0.293661 -0.056335 0.645457
v 0.089076 0.115367 -0.318374
v 0.072113 0.178347 -0.166304
v -0.156625 0.178347 -0.203423
v -0.148071 0.115367 -0.341301
v -0.344034 0.178347 -0.000220
v 0.361494 -0.058436 0.309331
v 0.203378 -0.164642 0.553252
v 0.240705 -0.170496 0.298070
v 0.394728 -0.061141 -0.020799
v 0.295819 -0.175496 -0.008160
v 0.340793 0.029997 -0.372197
v 0.394612 -0.073319 -0.314053
v 0.313666 -0.175975 -0.311649
v 0.102779 0.075719 -0.494304
v 0.332025 -0.014285 -0.558116
v 0.365980 -0.095606 -0.571334
v 0.313666 -0.177786 -0.555687
v 0.305819 -0.176894 -0.661493
v 0.318934 -0.106616 -0.693330
v 0.324198 -0.045587 -0.709166
v 0.108220 0.028737 -0.664807
v -0.144194 0.075719 -0.506140
v 0.107955 -0.033040 -0.813299
v 0.102084 -0.102590 -0.839404
v 0.305819 -0.176894 -0.661493
v 0.101744 -0.176651 -0.829937
v -0.158554 -0.174824 -0.841108
v -0.146198 0.028737 -0.677683
v -0.159130 -0.026298 -0.844495
v -0.175429 -0.103289 -0.876106
v -0.287057 -0.176697 -0.781383
v -0.301513 -0.102849 -0.836487
v -0.313552 -0.030426 -0.816569
v -0.333080 0.015625 -0.708230
v -0.394728 -0.102985 -0.610879
v -0.287057 -0.176697 -0.781383
v -0.346538 -0.178347 -0.570481
v -0.348892 0.052007 -0.431974
v -0.394728 -0.101919 -0.341954
v -0.338179 -0.175975 -0.311650
v -0.367313 0.096646 -0.136140
v -0.394728 -0.091773 -0.052440
v -0.321690 -0.176892 -0.020430
v -0.369826 0.046703 0.268153
v -0.383011 0.178347 0.301966
v -0.370066 -0.082062 0.275889
v -0.290286 -0.169271 0.283836
v -0.257642 -0.164984 0.520446
v -0.323189 -0.065771 0.621913
v -0.326030 0.047748 0.628187
v -0.334538 0.178347 0.625512
vt 2.273864 0.717543
vt 2.318014 0.717543
vt 2.318014 0.734033
vt 2.273369 0.734033
vt 2.274359 0.701051
vt 2.318014 0.701051
vt 2.243107 0.717543
vt 2.242117 0.734033
vt 2.194766 0.717543
vt 2.194766 0.734033
vt 2.244096 0.701051
vt 2.194765 0.701051
vt 2.273032 0.685211
vt 2.318014 0.668764
vt 2.241443 0.685211
vt 2.194765 0.668764
vt 2.348826 0.538116
vt 2.163955 0.538116
vt 2.163955 0.494111
vt 2.348826 0.462950
vt 2.348826 0.380830
vt 2.163954 0.380830
vt 2.333420 0.323398
vt 2.179360 0.323398
vt 2.189588 0.285270
vt 2.323192 0.285271
vt 2.194766 0.265967
vt 2.318014 0.265967
vt 2.506112 0.537170
vt 2.473155 0.584724
vt 2.484208 0.501413
vt 2.506112 0.599917
vt 2.506112 0.655551
vt 2.473155 0.655551
vt 2.440198 0.655551
vt 2.550125 0.468093
vt 2.550125 0.537170
vt 2.638152 0.537170
vt 2.638152 0.476610
vt 2.682166 0.537170
vt 2.440198 0.569529
vt 2.352232 0.655552
vt 2.352232 0.578309
vt 2.462362 0.472137
vt 2.352232 0.537170
vt 2.492419 0.454765
vt 2.478755 0.418804
vt 2.396215 0.379686
vt 2.550125 0.438105
vt 2.500629 0.408117
vt 2.495147 0.365472
vt 2.418206 0.337042
vt 2.440198 0.294397
vt 2.506112 0.322827
vt 2.503584 0.357269
vt 2.550125 0.408117
vt 2.638152 0.442363
vt 2.549796 0.354811
vt 2.548809 0.322827
vt 2.506112 0.265967
vt 2.547104 0.265967
vt 2.635131 0.265967
vt 2.638152 0.408117
vt 2.637823 0.354811
vt 2.636835 0.322827
vt 2.682166 0.265967
vt 2.682165 0.322827
vt 2.684440 0.357022
vt 2.687648 0.408117
vt 2.693130 0.365472
vt 2.748080 0.294397
vt 2.770071 0.337042
vt 2.696330 0.459341
vt 2.710779 0.422490
vt 2.792062 0.379686
vt 2.705011 0.510565
vt 2.728428 0.479508
vt 2.817283 0.469988
vt 2.715122 0.594564
vt 2.682165 0.599917
vt 2.748079 0.589210
vt 2.836045 0.537169
vt 2.836045 0.655552
vt 2.748079 0.655552
vt 2.715122 0.655552
vt 2.682166 0.655552
vn 0.442073 0.106258 0.890663
vn 0.909309 0.057739 0.412097
vn 0.903702 0.076211 0.421324
vn 0.443261 0.113803 0.889140
vn 0.405362 -0.441138 0.800674
vn 0.842582 -0.410523 0.348607
vn -0.435794 0.055423 0.898338
vn -0.442864 0.088349 0.892225
vn -0.939044 -0.039502 0.341520
vn -0.937139 -0.050501 0.345282
vn -0.400482 -0.441070 0.803163
vn -0.875876 -0.354637 0.327220
vn 0.150234 -0.945439 0.289094
vn 0.220895 -0.970241 0.099186
vn -0.164825 -0.943125 0.288699
vn -0.213684 -0.972134 0.096412
vn 0.176655 -0.983158 0.046829
vn -0.156395 -0.986908 0.039420
vn -0.124645 -0.992034 0.018236
vn 0.166256 -0.985777 0.024568
vn 0.144112 -0.989544 0.005789
vn -0.113345 -0.993531 0.007036
vn 0.115268 -0.993316 -0.006080
vn -0.139072 -0.990163 -0.015391
vn -0.152185 -0.981863 -0.113072
vn 0.147531 -0.980973 -0.126204
vn -0.017797 -0.947816 -0.318321
vn 0.139049 -0.916268 -0.375659
vn 0.793168 0.553076 -0.254934
vn 0.987862 0.108740 0.110921
vn 0.800126 0.574802 -0.171466
vn 0.982402 0.157808 0.099912
vn 0.903702 0.076211 0.421324
vn 0.909309 0.057739 0.412097
vn 0.842582 -0.410523 0.348607
vn 0.211769 0.933816 -0.288343
vn 0.272892 0.858217 -0.434733
vn -0.231761 0.881658 -0.411055
vn -0.140040 0.949635 -0.280326
vn -0.905057 0.378168 -0.194579
vn 0.917272 -0.377369 0.127300
vn 0.220895 -0.970241 0.099186
vn 0.176655 -0.983158 0.046829
vn 0.966337 -0.254410 0.038334
vn 0.166256 -0.985777 0.024568
vn 0.572488 0.800469 -0.177500
vn 0.985543 -0.164805 -0.039310
vn 0.144112 -0.989544 0.005789
vn 0.167818 0.959185 -0.227601
vn 0.532820 0.809763 -0.245737
vn 0.974813 -0.189829 -0.117070
vn 0.115268 -0.993316 -0.006080
vn 0.147531 -0.980973 -0.126204
vn 0.739451 -0.153415 -0.655497
vn 0.516266 0.696423 -0.498462
vn 0.146284 0.946078 -0.289029
vn -0.076508 0.973337 -0.216243
vn 0.205560 0.782497 -0.587745
vn 0.319044 -0.038702 -0.946949
vn 0.147531 -0.980973 -0.126204
vn 0.139049 -0.916268 -0.375659
vn -0.017797 -0.947816 -0.318321
vn -0.025477 0.960828 -0.275973
vn 0.010244 0.804906 -0.593314
vn -0.043485 -0.024875 -0.998744
vn -0.152185 -0.981863 -0.113072
vn -0.739673 -0.200015 -0.642556
vn -0.560111 0.623287 -0.545700
vn -0.559117 0.795969 -0.231994
vn -0.990090 -0.047044 -0.132318
vn -0.152185 -0.981863 -0.113072
vn -0.139072 -0.990163 -0.015391
vn -0.682047 0.718015 -0.138803
vn -0.997116 -0.071893 -0.024303
vn -0.113345 -0.993531 0.007036
vn -0.872802 0.465257 -0.147486
vn -0.986766 -0.160590 0.022449
vn -0.124645 -0.992034 0.018236
vn -0.997702 0.028094 0.061651
vn -0.998426 -0.017031 0.053442
vn -0.961301 -0.259326 0.093010
vn -0.156395 -0.986908 0.039420
vn -0.213684 -0.972134 0.096412
vn -0.875876 -0.354637 0.327220
vn -0.939044 -0.039502 0.341520
vn -0.937139 -0.050501 0.345282
f 1/1/1 2/2/2 3/3/3
f 1/1/1 3/3/3 4/4/4
f 5/5/5 2/2/2 1/1/1
f 2/2/2 5/5/5 6/6/6
f 4/4/4 7/7/7 1/1/1
f 7/7/7 4/4/4 8/8/8
f 8/8/8 9/9/9 7/7/7
f 9/9/9 8/8/8 10/10/10
f 11/11/11 1/1/1 7/7/7
f 9/9/9 11/11/11 7/7/7
f 1/1/1 11/11/11 5/5/5
f 9/9/9 12/12/12 11/11/11
f 13/13/13 6/6/6 5/5/5
f 13/13/13 5/5/5 11/11/11
f 6/6/6 13/13/13 14/14/14
f 12/12/12 15/15/15 11/11/11
f 15/15/15 13/13/13 11/11/11
f 15/15/15 14/14/14 13/13/13
f 15/15/15 12/12/12 16/16/16
f 16/16/16 14/14/14 15/15/15
f 16/16/16 17/17/17 14/14/14
f 17/17/17 16/16/16 18/18/18
f 19/19/19 17/17/17 18/18/18
f 17/17/17 19/19/19 20/20/20
f 19/19/19 21/21/21 20/20/20
f 21/21/21 19/19/19 22/22/22
f 22/22/22 23/23/23 21/21/21
f 23/23/23 22/22/22 24/24/24
f 25/25/25 23/23/23 24/24/24
f 23/23/23 25/25/25 26/26/26
f 27/27/27 26/26/26 25/25/25
f 26/26/26 27/27/27 28/28/28
f 29/29/29 30/30/30 31/31/31
f 30/30/30 29/29/29 32/32/32
f 32/32/32 33/33/33 30/30/30
f 30/30/30 33/33/33 34/34/34
f 35/35/35 30/30/30 34/34/34
f 36/36/36 29/29/29 31/31/31
f 29/29/29 36/36/36 37/37/37
f 36/36/36 38/38/38 37/37/37
f 36/36/36 39/39/39 38/38/38
f 39/39/39 40/40/40 38/38/38
f 30/30/30 35/35/35 41/41/41
f 42/42/42 41/41/41 35/35/35
f 41/41/41 42/42/42 43/43/43
f 44/44/44 30/30/30 41/41/41
f 44/44/44 41/41/41 43/43/43
f 44/44/44 31/31/31 30/30/30
f 45/45/45 44/44/44 43/43/43
f 44/44/44 46/46/46 31/31/31
f 31/31/31 46/46/46 36/36/36
f 45/45/45 47/47/47 44/44/44
f 46/46/46 44/44/44 47/47/47
f 47/47/47 45/45/45 48/48/48
f 46/46/46 49/49/49 36/36/36
f 49/49/49 39/39/39 36/36/36
f 47/47/47 50/50/50 46/46/46
f 50/50/50 49/49/49 46/46/46
f 48/48/48 51/51/51 47/47/47
f 50/50/50 47/47/47 51/51/51
f 51/51/51 48/48/48 52/52/52
f 53/53/53 51/51/51 52/52/52
f 51/51/51 53/53/53 54/54/54
f 51/51/51 55/55/55 50/50/50
f 55/55/55 51/51/51 54/54/54
f 49/49/49 50/50/50 56/56/56
f 55/55/55 56/56/56 50/50/50
f 56/56/56 57/57/57 49/49/49
f 39/39/39 49/49/49 57/57/57
f 56/56/56 55/55/55 58/58/58
f 59/59/59 55/55/55 54/54/54
f 55/55/55 59/59/59 58/58/58
f 60/60/60 59/59/59 54/54/54
f 59/59/59 60/60/60 61/61/61
f 61/61/61 62/62/62 59/59/59
f 58/58/58 63/63/63 56/56/56
f 56/56/56 63/63/63 57/57/57
f 59/59/59 64/64/64 58/58/58
f 58/58/58 64/64/64 63/63/63
f 65/65/65 59/59/59 62/62/62
f 64/64/64 59/59/59 65/65/65
f 66/66/66 65/65/65 62/62/62
f 65/65/65 66/66/66 67/67/67
f 65/65/65 68/68/68 64/64/64
f 68/68/68 63/63/63 64/64/64
f 68/68/68 65/65/65 67/67/67
f 63/63/63 68/68/68 69/69/69
f 63/63/63 69/69/69 57/57/57
f 68/68/68 67/67/67 70/70/70
f 70/70/70 69/69/69 68/68/68
f 71/71/71 70/70/70 67/67/67
f 70/70/70 71/71/71 72/72/72
f 69/69/69 73/73/73 57/57/57
f 70/70/70 73/73/73 69/69/69
f 73/73/73 39/39/39 57/57/57
f 72/72/72 74/74/74 70/70/70
f 73/73/73 70/70/70 74/74/74
f 74/74/74 72/72/72 75/75/75
f 39/39/39 73/73/73 76/76/76
f 74/74/74 76/76/76 73/73/73
f 40/40/40 39/39/39 76/76/76
f 75/75/75 77/77/77 74/74/74
f 76/76/76 74/74/74 77/77/77
f 77/77/77 75/75/75 78/78/78
f 79/79/79 40/40/40 76/76/76
f 77/77/77 79/79/79 76/76/76
f 40/40/40 79/79/79 80/80/80
f 78/78/78 81/81/81 77/77/77
f 79/79/79 77/77/77 81/81/81
f 81/81/81 78/78/78 82/82/82
f 81/81/81 82/82/82 83/83/83
f 81/81/81 83/83/83 84/84/84
f 84/84/84 79/79/79 81/81/81
f 79/79/79 84/84/84 85/85/85
f 79/79/79 85/85/85 80/80/80
f 80/80/80 85/85/85 86/86/86
