# Generated from Roblox mesh JSON (v2.00)
# Hello from RBX_Toolbox ;)
o RightUpperLegWrapTarget
v -0.001409 -0.474903 -0.429976
v 0.239990 -0.386073 -0.443858
v 0.241105 -0.474905 -0.426295
v 0.222477 -0.143453 -0.490472
v 0.472839 -0.265151 -0.265839
v 0.231050 -0.273210 -0.465606
v 0.482139 -0.384051 -0.256308
v 0.488019 -0.474905 -0.251372
v 0.511519 -0.474904 0.019173
v 0.461467 -0.137054 -0.274944
v 0.214772 -0.012175 -0.515582
v 0.452690 -0.000609 -0.294941
v 0.480545 0.000976 0.013578
v 0.508623 -0.381938 0.021433
v 0.456396 -0.474904 0.312915
v 0.500541 -0.266592 0.018631
v 0.492035 -0.138988 0.016430
v 0.451630 -0.380568 0.319115
v 0.252123 -0.474904 0.495164
v 0.440233 -0.264820 0.321111
v 0.238374 -0.384189 0.504104
v -0.015949 -0.474905 0.516885
v 0.428841 -0.137485 0.328287
v 0.226035 -0.267153 0.514099
v -0.033703 -0.380584 0.519339
v -0.249261 -0.475151 0.349933
v 0.212013 -0.141197 0.534027
v 0.414270 0.001212 0.333370
v 0.395756 0.153052 0.337384
v 0.168362 0.127116 0.568843
v -0.266647 -0.384363 0.350537
v -0.316011 -0.474905 0.013116
v -0.336733 -0.378722 0.012395
v -0.054558 -0.269726 0.533794
v -0.291282 -0.269893 0.360039
v -0.365084 -0.266924 0.014012
v -0.396818 -0.154110 0.025022
v -0.070872 -0.153526 0.551164
v -0.317009 -0.160698 0.366736
v -0.427258 -0.044553 0.029888
v -0.092490 -0.031322 0.569338
v -0.345045 -0.046678 0.381151
v -0.460937 0.063614 0.033270
v -0.375915 0.066637 0.388583
v -0.492566 0.159145 0.035031
v 0.192159 -0.010781 0.547528
v -0.125765 0.091979 0.590799
v -0.149948 0.219209 0.619313
v -0.407637 0.177472 0.405140
v -0.511519 0.222688 0.039511
v -0.442120 0.241874 0.414499
v 0.149163 0.271434 0.597180
v 0.142365 0.423215 0.629662
v -0.160055 0.344869 0.643611
v 0.387326 0.314737 0.348412
v 0.375115 0.468210 0.335817
v 0.475110 0.325581 0.017564
v 0.469023 0.475151 0.019381
v 0.442898 0.466165 -0.325662
v 0.476516 0.159169 0.015811
v 0.446857 0.308029 -0.318189
v 0.216559 0.429802 -0.584434
v 0.205216 0.272979 -0.565158
v -0.152370 0.351238 -0.643611
v 0.444244 0.154950 -0.309994
v -0.122161 0.227788 -0.580136
v -0.415923 0.252738 -0.334244
v 0.212025 0.127658 -0.542133
v -0.098962 0.095262 -0.537743
v -0.375218 0.180567 -0.324115
v -0.511519 0.222688 0.039511
v -0.492566 0.159145 0.035031
v -0.336775 0.070809 -0.315133
v -0.460937 0.063614 0.033270
v -0.073623 -0.029515 -0.514798
v -0.303659 -0.042322 -0.298543
v -0.427258 -0.044553 0.029888
v -0.276697 -0.156351 -0.280474
v -0.396818 -0.154110 0.025022
v -0.365084 -0.266924 0.014012
v -0.252062 -0.271551 -0.268521
v -0.336733 -0.378722 0.012395
v -0.048567 -0.152508 -0.485890
v -0.034752 -0.274258 -0.460811
v -0.231151 -0.384397 -0.259643
v -0.217013 -0.474905 -0.249468
v -0.316011 -0.474905 0.013116
v -0.014228 -0.386263 -0.440086
vt 2.773426 2.108962
vt 2.678268 2.179393
vt 2.678268 2.108962
vt 2.678268 2.394775
vt 2.630689 2.293279
vt 2.678268 2.293279
vt 2.630689 2.179393
vt 2.630689 2.108962
vt 2.452581 2.108962
vt 2.630689 2.394775
vt 2.678268 2.529449
vt 2.630689 2.529449
vt 2.452581 2.529449
vt 2.452581 2.179393
vt 2.329405 2.108962
vt 2.452581 2.293279
vt 2.452581 2.394775
vt 2.329405 2.179393
vt 2.296614 2.108962
vt 2.329405 2.293279
vt 2.296614 2.179393
vt 2.263822 2.108962
vt 2.329405 2.394775
vt 2.296614 2.293279
vt 2.263822 2.179393
vt 2.190971 2.108962
vt 2.296614 2.394775
vt 2.329405 2.529449
vt 2.329405 2.684821
vt 2.296614 2.687478
vt 2.190971 2.179393
vt 2.052537 2.108962
vt 2.052537 2.179393
vt 2.263822 2.293279
vt 2.190971 2.293279
vt 2.052537 2.293279
vt 2.052537 2.394775
vt 2.263822 2.394775
vt 2.190971 2.394775
vt 2.052537 2.529449
vt 2.263822 2.529449
vt 2.190971 2.529449
vt 2.052537 2.707134
vt 2.190971 2.706690
vt 2.052537 2.848960
vt 2.296614 2.529449
vt 2.263822 2.690134
vt 2.263822 2.817218
vt 2.190971 2.848132
vt 2.052537 2.893425
vt 2.190971 2.893425
vt 2.296614 2.812258
vt 2.296910 2.893425
vt 2.263822 2.893425
vt 2.329405 2.807297
vt 2.329405 2.893425
vt 2.452581 2.805290
vt 2.452581 2.893425
vt 2.630689 2.893425
vt 2.452581 2.683746
vt 2.630689 2.804883
vt 2.674081 2.893425
vt 2.668745 2.804801
vt 2.821005 2.893425
vt 2.630689 2.683527
vt 2.763903 2.814581
vt 2.884234 2.861380
vt 2.662830 2.683484
vt 2.757988 2.688721
vt 2.821005 2.824441
vt 2.947463 2.829336
vt 2.947463 2.795165
vt 2.821005 2.694002
vt 2.947463 2.696367
vt 2.773426 2.529449
vt 2.821005 2.529449
vt 2.947463 2.529449
vt 2.821005 2.394775
vt 2.947463 2.394775
vt 2.947463 2.293279
vt 2.821005 2.293279
vt 2.947463 2.179393
vt 2.773426 2.394775
vt 2.773426 2.293279
vt 2.821005 2.179393
vt 2.821005 2.108962
vt 2.947463 2.108962
vt 2.773426 2.179393
vn -0.346690 -0.177974 -0.920940
vn 0.355972 -0.119451 -0.926831
vn 0.350295 -0.116767 -0.929332
vn 0.384159 -0.137661 -0.912947
vn 0.874756 0.007002 -0.484513
vn 0.365868 -0.123556 -0.922428
vn 0.868868 -0.005838 -0.495010
vn 0.867951 -0.018221 -0.496315
vn 0.997749 0.039005 0.054544
vn 0.886365 -0.000630 -0.462987
vn 0.400220 -0.141261 -0.905466
vn 0.897241 -0.016342 -0.441240
vn 0.996008 0.064116 0.062108
vn 0.996683 0.060199 0.054757
vn 0.879906 0.020228 0.474718
vn 0.995740 0.075067 0.053551
vn 0.995505 0.076166 0.056293
vn 0.873752 0.042668 0.484496
vn 0.405994 -0.021874 0.913614
vn 0.875257 0.046698 0.481398
vn 0.389812 -0.028872 0.920442
vn -0.264129 -0.091122 0.960173
vn 0.878705 0.052153 0.474507
vn 0.402555 -0.057699 0.913576
vn -0.282180 -0.130608 0.950429
vn -0.840271 -0.173799 0.513555
vn 0.419412 -0.055124 0.906121
vn 0.879146 0.061761 0.472533
vn 0.877682 0.024486 0.478618
vn 0.459069 -0.077635 0.885002
vn -0.841357 -0.207686 0.498984
vn -0.977909 -0.201465 -0.055731
vn -0.974019 -0.219040 -0.057518
vn -0.279650 -0.170558 0.944831
vn -0.830712 -0.238394 0.503075
vn -0.967737 -0.243509 -0.064712
vn -0.962998 -0.262597 -0.060646
vn -0.271408 -0.180864 0.945318
vn -0.821092 -0.254078 0.511128
vn -0.956793 -0.284810 -0.058569
vn -0.264188 -0.196625 0.944216
vn -0.808790 -0.273309 0.520731
vn -0.949141 -0.310463 -0.052382
vn -0.802797 -0.296058 0.517558
vn -0.933194 -0.355945 -0.049518
vn 0.439890 -0.040341 0.897145
vn -0.265568 -0.232434 0.935654
vn -0.236918 -0.247354 0.939514
vn -0.770370 -0.324598 0.548786
vn -0.911649 -0.408268 -0.047044
vn -0.727233 -0.335136 0.599012
vn 0.482431 -0.099004 0.870321
vn 0.569483 -0.067676 0.819213
vn -0.104311 -0.228713 0.967889
vn 0.874897 0.016947 0.484012
vn 0.885611 0.038896 0.462796
vn 0.995566 0.029209 0.089410
vn 0.994147 0.050019 0.095755
vn 0.924691 -0.019726 -0.380207
vn 0.996673 0.028287 0.076442
vn 0.913038 -0.030648 -0.406721
vn 0.542585 -0.158425 -0.824926
vn 0.448126 -0.170438 -0.877573
vn -0.098380 -0.360557 -0.927535
vn 0.905954 -0.028269 -0.422431
vn -0.255173 -0.346230 -0.902780
vn -0.706344 -0.451701 -0.545017
vn 0.418105 -0.143843 -0.896938
vn -0.329764 -0.268505 -0.905075
vn -0.756504 -0.378944 -0.533014
vn -0.911649 -0.408268 -0.047044
vn -0.933194 -0.355945 -0.049518
vn -0.787458 -0.307161 -0.534380
vn -0.949141 -0.310463 -0.052382
vn -0.344580 -0.253785 -0.903802
vn -0.794231 -0.283233 -0.537565
vn -0.956793 -0.284810 -0.058569
vn -0.798016 -0.252252 -0.547302
vn -0.962998 -0.262597 -0.060646
vn -0.967737 -0.243509 -0.064712
vn -0.799507 -0.223900 -0.557366
vn -0.974019 -0.219040 -0.057518
vn -0.352539 -0.242474 -0.903838
vn -0.365226 -0.217856 -0.905068
vn -0.799757 -0.207528 -0.563313
vn -0.802245 -0.192158 -0.565224
vn -0.977909 -0.201465 -0.055731
vn -0.358223 -0.198764 -0.912233
f 1/1/1 2/2/2 3/3/3
f 4/4/4 5/5/5 6/6/6
f 6/6/6 5/5/5 2/2/2
f 2/2/2 7/7/7 3/3/3
f 5/5/5 7/7/7 2/2/2
f 7/7/7 8/8/8 3/3/3
f 7/7/7 9/9/9 8/8/8
f 5/5/5 4/4/4 10/10/10
f 11/11/11 10/10/10 4/4/4
f 10/10/10 11/11/11 12/12/12
f 10/10/10 12/12/12 13/13/13
f 9/9/9 7/7/7 14/14/14
f 14/14/14 15/15/15 9/9/9
f 7/7/7 5/5/5 16/16/16
f 7/7/7 16/16/16 14/14/14
f 5/5/5 10/10/10 17/17/17
f 10/10/10 13/13/13 17/17/17
f 5/5/5 17/17/17 16/16/16
f 15/15/15 14/14/14 18/18/18
f 16/16/16 18/18/18 14/14/14
f 18/18/18 19/19/19 15/15/15
f 17/17/17 20/20/20 16/16/16
f 18/18/18 16/16/16 20/20/20
f 19/19/19 18/18/18 21/21/21
f 20/20/20 21/21/21 18/18/18
f 19/19/19 21/21/21 22/22/22
f 20/20/20 17/17/17 23/23/23
f 13/13/13 23/23/23 17/17/17
f 21/21/21 20/20/20 24/24/24
f 23/23/23 24/24/24 20/20/20
f 22/22/22 21/21/21 25/25/25
f 24/24/24 25/25/25 21/21/21
f 25/25/25 26/26/26 22/22/22
f 24/24/24 23/23/23 27/27/27
f 23/23/23 13/13/13 28/28/28
f 28/28/28 27/27/27 23/23/23
f 13/13/13 29/29/29 28/28/28
f 30/30/30 28/28/28 29/29/29
f 26/26/26 25/25/25 31/31/31
f 31/31/31 32/32/32 26/26/26
f 32/32/32 31/31/31 33/33/33
f 34/34/34 31/31/31 25/25/25
f 25/25/25 24/24/24 34/34/34
f 27/27/27 34/34/34 24/24/24
f 35/35/35 33/33/33 31/31/31
f 31/31/31 34/34/34 35/35/35
f 33/33/33 35/35/35 36/36/36
f 36/36/36 35/35/35 37/37/37
f 38/38/38 35/35/35 34/34/34
f 34/34/34 27/27/27 38/38/38
f 37/37/37 35/35/35 39/39/39
f 35/35/35 38/38/38 39/39/39
f 37/37/37 39/39/39 40/40/40
f 27/27/27 41/41/41 38/38/38
f 41/41/41 39/39/39 38/38/38
f 40/40/40 39/39/39 42/42/42
f 39/39/39 41/41/41 42/42/42
f 40/40/40 42/42/42 43/43/43
f 43/43/43 42/42/42 44/44/44
f 42/42/42 41/41/41 44/44/44
f 43/43/43 44/44/44 45/45/45
f 41/41/41 27/27/27 46/46/46
f 27/27/27 28/28/28 46/46/46
f 28/28/28 30/30/30 46/46/46
f 46/46/46 47/47/47 41/41/41
f 47/47/47 46/46/46 30/30/30
f 41/41/41 47/47/47 44/44/44
f 30/30/30 48/48/48 47/47/47
f 45/45/45 44/44/44 49/49/49
f 44/44/44 47/47/47 49/49/49
f 48/48/48 49/49/49 47/47/47
f 45/45/45 49/49/49 50/50/50
f 48/48/48 51/51/51 49/49/49
f 50/50/50 49/49/49 51/51/51
f 29/29/29 52/52/52 30/30/30
f 52/52/52 53/53/53 54/54/54
f 55/55/55 53/53/53 52/52/52
f 52/52/52 29/29/29 55/55/55
f 53/53/53 55/55/55 56/56/56
f 52/52/52 54/54/54 48/48/48
f 48/48/48 30/30/30 52/52/52
f 54/54/54 51/51/51 48/48/48
f 57/57/57 56/56/56 55/55/55
f 57/57/57 58/58/58 56/56/56
f 57/57/57 59/59/59 58/58/58
f 60/60/60 57/57/57 55/55/55
f 60/60/60 55/55/55 29/29/29
f 59/59/59 57/57/57 61/61/61
f 60/60/60 61/61/61 57/57/57
f 61/61/61 62/62/62 59/59/59
f 62/62/62 61/61/61 63/63/63
f 64/64/64 62/62/62 63/63/63
f 61/61/61 60/60/60 65/65/65
f 65/65/65 63/63/63 61/61/61
f 13/13/13 60/60/60 29/29/29
f 13/13/13 65/65/65 60/60/60
f 64/64/64 63/63/63 66/66/66
f 66/66/66 67/67/67 64/64/64
f 63/63/63 65/65/65 68/68/68
f 66/66/66 63/63/63 68/68/68
f 12/12/12 68/68/68 65/65/65
f 65/65/65 13/13/13 12/12/12
f 66/66/66 68/68/68 69/69/69
f 67/67/67 66/66/66 70/70/70
f 69/69/69 70/70/70 66/66/66
f 70/70/70 71/71/71 67/67/67
f 71/71/71 70/70/70 72/72/72
f 73/73/73 72/72/72 70/70/70
f 70/70/70 69/69/69 73/73/73
f 72/72/72 73/73/73 74/74/74
f 11/11/11 69/69/69 68/68/68
f 68/68/68 12/12/12 11/11/11
f 75/75/75 73/73/73 69/69/69
f 69/69/69 11/11/11 75/75/75
f 76/76/76 74/74/74 73/73/73
f 73/73/73 75/75/75 76/76/76
f 74/74/74 76/76/76 77/77/77
f 78/78/78 77/77/77 76/76/76
f 76/76/76 75/75/75 78/78/78
f 77/77/77 78/78/78 79/79/79
f 78/78/78 80/80/80 79/79/79
f 80/80/80 78/78/78 81/81/81
f 81/81/81 82/82/82 80/80/80
f 75/75/75 83/83/83 78/78/78
f 78/78/78 83/83/83 81/81/81
f 75/75/75 4/4/4 83/83/83
f 11/11/11 4/4/4 75/75/75
f 83/83/83 84/84/84 81/81/81
f 4/4/4 84/84/84 83/83/83
f 82/82/82 81/81/81 85/85/85
f 81/81/81 84/84/84 85/85/85
f 86/86/86 82/82/82 85/85/85
f 82/82/82 86/86/86 87/87/87
f 85/85/85 88/88/88 86/86/86
f 84/84/84 88/88/88 85/85/85
f 88/88/88 1/1/1 86/86/86
f 84/84/84 4/4/4 6/6/6
f 84/84/84 6/6/6 88/88/88
f 2/2/2 1/1/1 88/88/88
f 6/6/6 2/2/2 88/88/88
