# Generated from Roblox mesh JSON (v2.00)
# Hello from RBX_Toolbox ;)
o RightLowerArmWrapTarget
v -0.479527 0.272669 0.021074
v -0.434784 0.178581 0.012881
v -0.345965 0.190441 0.274989
v -0.385497 0.286093 0.293804
v -0.187770 0.305670 0.461581
v -0.150963 0.209930 0.445482
v -0.375890 0.285214 -0.242047
v -0.142313 0.205729 -0.361002
v -0.334344 0.188389 -0.235377
v -0.479527 0.272669 0.021074
v -0.434784 0.178581 0.012881
v -0.172102 0.309111 -0.368246
v 0.067069 0.224759 -0.348755
v 0.044050 0.326940 -0.354389
v 0.215078 0.238396 -0.178807
v 0.185334 0.340626 -0.174346
v 0.129197 0.010188 -0.365632
v 0.246042 0.134253 -0.190042
v 0.282435 0.021052 -0.204396
v 0.067069 0.224759 -0.348755
v 0.215078 0.238396 -0.178807
v 0.327062 0.024593 0.030597
v 0.362681 -0.083373 0.018687
v 0.283610 0.138005 0.042737
v 0.257890 0.019434 0.235525
v 0.301348 -0.087936 0.221927
v 0.219534 0.132124 0.250181
v 0.249674 0.241803 0.056945
v 0.185334 0.340626 -0.174346
v 0.219724 0.344075 0.067417
v 0.147102 0.337326 0.281730
v 0.176655 0.235272 0.264152
v 0.008094 0.324071 0.430815
v 0.126692 0.009909 0.373027
v 0.163940 -0.098682 0.363839
v 0.198548 -0.215529 0.360925
v 0.084719 0.119839 0.390552
v 0.043750 0.223238 0.410520
v -0.150963 0.209930 0.445482
v -0.187770 0.305670 0.461581
v -0.110119 0.103954 0.429831
v -0.071980 0.000674 0.419022
v -0.038497 -0.107488 0.400835
v -0.000685 -0.222643 0.386271
v 0.010007 -0.302913 0.369624
v -0.146789 -0.314533 0.242720
v -0.178452 -0.233877 0.242352
v -0.239469 -0.247849 -0.004956
v -0.213111 -0.344075 -0.031035
v -0.297677 -0.131318 -0.014527
v -0.214464 -0.121265 0.244141
v -0.345721 -0.024244 -0.002061
v -0.259176 -0.013160 0.254618
v -0.392942 0.075840 0.002694
v -0.307198 0.088335 0.265489
v -0.434784 0.178581 0.012881
v -0.345965 0.190441 0.274989
v 0.406772 -0.203391 0.004403
v 0.394580 -0.282474 0.229543
v 0.479527 -0.289676 -0.019287
v 0.355110 -0.202602 0.214842
v 0.221196 -0.302217 0.364049
v 0.343895 -0.205927 -0.256590
v 0.392418 -0.288728 -0.278587
v 0.196012 -0.284094 -0.461581
v 0.311267 -0.087522 -0.221923
v 0.192021 -0.214643 -0.411090
v -0.008993 -0.224715 -0.427772
v 0.007170 -0.297396 -0.436568
v 0.158725 -0.097582 -0.385531
v -0.183847 -0.245586 -0.282420
v -0.165768 -0.314497 -0.314284
v -0.213111 -0.344075 -0.031035
v -0.239469 -0.247849 -0.004956
v -0.207621 -0.125110 -0.249568
v -0.297677 -0.131318 -0.014527
v -0.040143 -0.112474 -0.407037
v -0.345721 -0.024244 -0.002061
v -0.072901 -0.005065 -0.377290
v -0.247068 -0.017419 -0.238074
v -0.392942 0.075840 0.002694
v -0.289622 0.085052 -0.231681
v -0.434784 0.178581 0.012881
v -0.334344 0.188389 -0.235377
v -0.142313 0.205729 -0.361002
v -0.108036 0.101558 -0.368407
v 0.099377 0.120610 -0.351750
vt 1.687792 3.790663
vt 1.655045 3.790663
vt 1.655045 3.754214
vt 1.687792 3.754225
vt 1.687792 3.717675
vt 1.655045 3.717675
vt 1.687792 3.248766
vt 1.655044 3.285752
vt 1.655044 3.248539
vt 1.687792 3.209337
vt 1.655045 3.209337
vt 1.687792 3.285752
vt 1.655044 3.367380
vt 1.687792 3.367380
vt 1.655044 3.447445
vt 1.687792 3.447445
vt 1.511046 3.367380
vt 1.585709 3.447445
vt 1.511046 3.447445
vt 1.655044 3.367380
vt 1.655044 3.447445
vt 1.511046 3.501845
vt 1.411627 3.501844
vt 1.585709 3.501845
vt 1.511046 3.557655
vt 1.411627 3.557655
vt 1.585709 3.557655
vt 1.655044 3.501845
vt 1.687792 3.447445
vt 1.687792 3.501846
vt 1.687792 3.557655
vt 1.655044 3.557655
vt 1.687792 3.635815
vt 1.511046 3.635815
vt 1.411627 3.635815
vt 1.361917 3.635815
vt 1.585709 3.635815
vt 1.655044 3.635815
vt 1.655045 3.717675
vt 1.687792 3.717675
vt 1.585710 3.717675
vt 1.511046 3.717675
vt 1.411627 3.717675
vt 1.361917 3.717675
vt 1.312208 3.717675
vt 1.312208 3.769115
vt 1.361917 3.754169
vt 1.361917 3.790663
vt 1.312208 3.790663
vt 1.411627 3.790663
vt 1.411627 3.754169
vt 1.511046 3.790663
vt 1.511046 3.754169
vt 1.585710 3.790663
vt 1.585710 3.754204
vt 1.655045 3.790663
vt 1.655045 3.754214
vt 1.361917 3.501844
vt 1.312208 3.557655
vt 1.312208 3.501844
vt 1.361917 3.557655
vt 1.312208 3.614785
vt 1.361917 3.447445
vt 1.312208 3.447445
vt 1.312208 3.385719
vt 1.411627 3.447445
vt 1.361917 3.367380
vt 1.361917 3.285752
vt 1.312208 3.285752
vt 1.411627 3.367380
vt 1.361917 3.247544
vt 1.312208 3.247544
vt 1.312208 3.209337
vt 1.361917 3.209337
vt 1.411627 3.247544
vt 1.411627 3.209337
vt 1.411627 3.285752
vt 1.511046 3.209337
vt 1.511046 3.285752
vt 1.511046 3.247544
vt 1.585709 3.209337
vt 1.585709 3.248313
vt 1.655045 3.209337
vt 1.655044 3.248539
vt 1.655044 3.285752
vt 1.585709 3.285752
vt 1.585709 3.367380
vn -0.903794 -0.427873 -0.008959
vn -0.913631 -0.405962 -0.021762
vn -0.758457 -0.383556 0.526903
vn -0.742487 -0.406776 0.532209
vn -0.287566 -0.285200 0.914312
vn -0.287772 -0.264628 0.920413
vn -0.722597 -0.329707 -0.607574
vn -0.264350 -0.115378 -0.957500
vn -0.736047 -0.310480 -0.601529
vn -0.903794 -0.427873 -0.008959
vn -0.913631 -0.405962 -0.021762
vn -0.238180 -0.151355 -0.959355
vn 0.441573 0.131967 -0.887467
vn 0.464075 0.085236 -0.881685
vn 0.875014 0.274156 -0.398985
vn 0.886928 0.250354 -0.388176
vn 0.420234 0.257930 -0.869986
vn 0.853991 0.315533 -0.413689
vn 0.845961 0.321599 -0.425352
vn 0.441573 0.131967 -0.887467
vn 0.875014 0.274156 -0.398985
vn 0.946038 0.320641 0.046921
vn 0.942200 0.334665 0.016060
vn 0.945151 0.320484 0.063086
vn 0.833965 0.244378 0.494754
vn 0.825362 0.279314 0.490674
vn 0.836227 0.240351 0.492906
vn 0.954409 0.287899 0.078854
vn 0.886928 0.250354 -0.388176
vn 0.960586 0.262958 0.090155
vn 0.844506 0.170502 0.507681
vn 0.840499 0.208208 0.500211
vn 0.475102 -0.006388 0.879907
vn 0.480272 0.062292 0.874905
vn 0.458004 0.090200 0.884362
vn 0.415993 0.122226 0.901116
vn 0.481438 0.051520 0.874964
vn 0.478367 0.019719 0.877939
vn -0.287772 -0.264628 0.920413
vn -0.287566 -0.285200 0.914312
vn -0.277197 -0.237380 0.931028
vn -0.267856 -0.225483 0.936702
vn -0.282849 -0.194793 0.939176
vn -0.273240 -0.159355 0.948655
vn -0.294125 -0.164724 0.941465
vn -0.822512 -0.308641 0.477718
vn -0.807021 -0.317075 0.498177
vn -0.949793 -0.311934 0.024307
vn -0.963785 -0.266171 0.016472
vn -0.933048 -0.359449 -0.014751
vn -0.784468 -0.349883 0.512047
vn -0.915364 -0.402309 -0.015992
vn -0.763085 -0.384373 0.519575
vn -0.915273 -0.401876 -0.027757
vn -0.763001 -0.375453 0.526179
vn -0.913631 -0.405962 -0.021762
vn -0.758457 -0.383556 0.526903
vn 0.881001 0.473048 -0.007870
vn 0.752660 0.454011 0.476840
vn 0.803586 0.593851 -0.039875
vn 0.794750 0.372358 0.479293
vn 0.380458 0.140945 0.913995
vn 0.774959 0.464547 -0.428525
vn 0.715722 0.580436 -0.388376
vn 0.334588 0.479689 -0.811141
vn 0.837820 0.337009 -0.429514
vn 0.407819 0.389645 -0.825748
vn -0.345957 0.166122 -0.923427
vn -0.360453 0.235065 -0.902673
vn 0.417360 0.300774 -0.857523
vn -0.866351 -0.133360 -0.481301
vn -0.882268 -0.089794 -0.462105
vn -0.963785 -0.266171 0.016472
vn -0.949793 -0.311934 0.024307
vn -0.825571 -0.186158 -0.532708
vn -0.933048 -0.359449 -0.014751
vn -0.339675 0.105136 -0.934648
vn -0.915364 -0.402309 -0.015992
vn -0.322093 0.028221 -0.946287
vn -0.780170 -0.244631 -0.575752
vn -0.915273 -0.401876 -0.027757
vn -0.753662 -0.284190 -0.592647
vn -0.913631 -0.405962 -0.021762
vn -0.736047 -0.310480 -0.601529
vn -0.264350 -0.115378 -0.957500
vn -0.288637 -0.050741 -0.956093
vn 0.430296 0.205476 -0.878991
f 1/1/1 2/2/2 3/3/3
f 1/1/1 3/3/3 4/4/4
f 3/3/3 5/5/5 4/4/4
f 5/5/5 3/3/3 6/6/6
f 7/7/7 8/8/8 9/9/9
f 9/9/9 10/10/10 7/7/7
f 10/10/10 9/9/9 11/11/11
f 8/8/8 7/7/7 12/12/12
f 12/12/12 13/13/13 8/8/8
f 13/13/13 12/12/12 14/14/14
f 14/14/14 15/15/15 13/13/13
f 15/15/15 14/14/14 16/16/16
f 17/17/17 18/18/18 19/19/19
f 18/18/18 20/20/20 21/21/21
f 18/18/18 22/22/22 19/19/19
f 23/23/23 19/19/19 22/22/22
f 18/18/18 21/21/21 24/24/24
f 22/22/22 18/18/18 24/24/24
f 25/25/25 23/23/23 22/22/22
f 23/23/23 25/25/25 26/26/26
f 27/27/27 22/22/22 24/24/24
f 22/22/22 27/27/27 25/25/25
f 21/21/21 28/28/28 24/24/24
f 29/29/29 28/28/28 21/21/21
f 28/28/28 29/29/29 30/30/30
f 31/31/31 28/28/28 30/30/30
f 32/32/32 24/24/24 28/28/28
f 28/28/28 31/31/31 32/32/32
f 24/24/24 32/32/32 27/27/27
f 33/33/33 32/32/32 31/31/31
f 27/27/27 34/34/34 25/25/25
f 25/25/25 35/35/35 26/26/26
f 35/35/35 25/25/25 34/34/34
f 36/36/36 26/26/26 35/35/35
f 34/34/34 27/27/27 37/37/37
f 27/27/27 32/32/32 37/37/37
f 32/32/32 33/33/33 38/38/38
f 32/32/32 38/38/38 37/37/37
f 33/33/33 39/39/39 38/38/38
f 39/39/39 33/33/33 40/40/40
f 41/41/41 37/37/37 38/38/38
f 38/38/38 39/39/39 41/41/41
f 37/37/37 42/42/42 34/34/34
f 42/42/42 37/37/37 41/41/41
f 43/43/43 34/34/34 42/42/42
f 34/34/34 43/43/43 35/35/35
f 35/35/35 44/44/44 36/36/36
f 44/44/44 35/35/35 43/43/43
f 45/45/45 36/36/36 44/44/44
f 44/44/44 46/46/46 45/45/45
f 43/43/43 47/47/47 44/44/44
f 46/46/46 44/44/44 47/47/47
f 48/48/48 46/46/46 47/47/47
f 49/49/49 46/46/46 48/48/48
f 47/47/47 50/50/50 48/48/48
f 47/47/47 43/43/43 51/51/51
f 50/50/50 47/47/47 51/51/51
f 42/42/42 51/51/51 43/43/43
f 50/50/50 51/51/51 52/52/52
f 51/51/51 42/42/42 53/53/53
f 52/52/52 51/51/51 53/53/53
f 41/41/41 53/53/53 42/42/42
f 53/53/53 54/54/54 52/52/52
f 53/53/53 41/41/41 55/55/55
f 54/54/54 53/53/53 55/55/55
f 55/55/55 41/41/41 39/39/39
f 56/56/56 54/54/54 55/55/55
f 39/39/39 57/57/57 55/55/55
f 56/56/56 55/55/55 57/57/57
f 58/58/58 59/59/59 60/60/60
f 59/59/59 58/58/58 61/61/61
f 61/61/61 62/62/62 59/59/59
f 60/60/60 63/63/63 58/58/58
f 63/63/63 60/60/60 64/64/64
f 65/65/65 63/63/63 64/64/64
f 62/62/62 61/61/61 36/36/36
f 36/36/36 45/45/45 62/62/62
f 23/23/23 61/61/61 58/58/58
f 26/26/26 36/36/36 61/61/61
f 61/61/61 23/23/23 26/26/26
f 66/66/66 58/58/58 63/63/63
f 58/58/58 66/66/66 23/23/23
f 63/63/63 65/65/65 67/67/67
f 67/67/67 66/66/66 63/63/63
f 68/68/68 67/67/67 65/65/65
f 68/68/68 65/65/65 69/69/69
f 66/66/66 67/67/67 70/70/70
f 68/68/68 70/70/70 67/67/67
f 19/19/19 23/23/23 66/66/66
f 70/70/70 19/19/19 66/66/66
f 69/69/69 71/71/71 68/68/68
f 71/71/71 69/69/69 72/72/72
f 73/73/73 71/71/71 72/72/72
f 71/71/71 73/73/73 74/74/74
f 74/74/74 75/75/75 71/71/71
f 75/75/75 68/68/68 71/71/71
f 75/75/75 74/74/74 76/76/76
f 70/70/70 68/68/68 77/77/77
f 68/68/68 75/75/75 77/77/77
f 75/75/75 76/76/76 78/78/78
f 77/77/77 17/17/17 70/70/70
f 19/19/19 70/70/70 17/17/17
f 75/75/75 79/79/79 77/77/77
f 17/17/17 77/77/77 79/79/79
f 80/80/80 75/75/75 78/78/78
f 79/79/79 75/75/75 80/80/80
f 81/81/81 80/80/80 78/78/78
f 80/80/80 81/81/81 82/82/82
f 83/83/83 82/82/82 81/81/81
f 82/82/82 83/83/83 84/84/84
f 84/84/84 85/85/85 82/82/82
f 82/82/82 86/86/86 80/80/80
f 86/86/86 79/79/79 80/80/80
f 85/85/85 86/86/86 82/82/82
f 87/87/87 79/79/79 86/86/86
f 85/85/85 87/87/87 86/86/86
f 79/79/79 87/87/87 17/17/17
f 87/87/87 85/85/85 20/20/20
f 18/18/18 17/17/17 87/87/87
f 20/20/20 18/18/18 87/87/87
