# Generated from Roblox mesh JSON (v4.01)
# Hello from RBX_Toolbox ;)
o RightUpperArm
v -0.113407 -0.311112 -0.027739
v -0.101654 -0.307923 -0.091673
v -0.114827 -0.318185 -0.015560
v -0.110535 -0.316088 0.072730
v -0.113407 -0.311112 -0.027739
v -0.114827 -0.318185 -0.015560
v -0.137753 -0.247629 -0.037886
v -0.111319 -0.288117 -0.124147
v -0.147664 -0.218226 -0.151209
v -0.127843 -0.250847 0.074423
v -0.137753 -0.247629 -0.037886
v -0.032398 -0.400067 -0.075772
v -0.043901 -0.406644 -0.003043
v -0.042236 -0.244938 -0.180976
v -0.095802 -0.171410 -0.230703
v -0.043901 -0.406644 -0.003043
v -0.114459 -0.313015 0.080849
v -0.114459 -0.313015 0.080849
v -0.110535 -0.316088 0.072730
v -0.114827 -0.318185 -0.015560
v -0.098789 -0.280894 0.174891
v -0.105502 -0.269565 0.189436
v -0.144032 -0.216845 0.201615
v -0.044207 -0.401055 0.085923
v -0.032926 -0.374531 0.167110
v -0.054944 -0.219028 0.249311
v -0.183342 -0.101981 -0.280092
v -0.204486 0.080887 -0.315274
v -0.068439 -0.014273 -0.268251
v -0.213736 0.252723 -0.274680
v -0.033857 0.133114 -0.232735
v -0.192925 0.357022 -0.169814
v -0.186316 0.392860 -0.059537
v 0.001946 0.216869 -0.137002
v -0.179711 0.406644 0.048375
v 0.013520 0.242193 -0.044650
v -0.189621 0.372186 0.172860
v 0.020721 0.251641 0.058184
v -0.182352 -0.091871 0.287873
v -0.095288 -0.161842 0.262842
v -0.206470 0.085019 0.315274
v -0.065544 -0.015324 0.293288
v -0.209111 0.260537 0.278740
v -0.026828 0.123956 0.262504
v 0.008492 0.218794 0.172184
v 0.091454 -0.269572 -0.192479
v 0.021121 -0.347374 -0.158312
v 0.030765 -0.159345 -0.217510
v 0.101187 -0.073719 -0.186388
v 0.157442 -0.190193 -0.163048
v 0.148869 -0.014019 -0.104525
v 0.201010 -0.132210 -0.087951
v 0.006996 -0.318329 0.240177
v 0.015269 -0.133050 0.281447
v 0.074259 -0.237491 0.270961
v 0.142199 -0.163604 0.239839
v 0.087948 -0.051980 0.248297
v 0.194305 -0.114308 0.164740
v 0.144095 0.001333 0.167786
v 0.213736 -0.111760 -0.011162
v 0.162943 0.005592 -0.022665
v 0.167564 0.014422 0.072730
v 0.210873 -0.109082 0.075775
vt 8.964385 -7.259773
vt 8.939238 -7.258064
vt 8.945829 -7.270028
vt 8.744164 -7.167728
vt 8.727317 -7.172857
vt 8.734642 -7.192877
vt 8.973907 -7.255379
vt 8.958770 -7.243416
vt 8.969268 -7.235603
vt 8.740746 -7.157721
vt 8.721702 -7.163579
vt 8.925810 -7.268319
vt 8.932890 -7.279551
vt 8.927275 -7.241219
vt 8.949247 -7.220954
vt 8.740013 -7.208503
vt 8.750755 -7.188482
vt 8.750755 -7.188482
vt 8.744164 -7.167728
vt 8.734642 -7.192877
vt 8.767358 -7.183599
vt 8.764915 -7.161383
vt 8.761986 -7.149176
vt 8.754906 -7.204597
vt 8.768823 -7.200445
vt 8.784448 -7.180914
vt 8.963164 -7.208747
vt 8.949003 -7.188482
vt 8.936552 -7.202398
vt 8.931669 -7.173101
vt 8.920194 -7.188482
vt 8.910428 -7.166753
vt 8.891873 -7.160648
vt 8.900174 -7.180670
vt 8.874294 -7.154303
vt 8.884304 -7.175055
vt 8.853541 -7.146001
vt 8.866970 -7.168462
vt 8.783715 -7.141118
vt 8.783959 -7.156743
vt 8.807398 -7.137211
vt 8.805689 -7.155034
vt 8.831325 -7.137943
vt 8.826441 -7.156499
vt 8.847194 -7.161626
vt 8.903104 -7.240974
vt 8.914334 -7.253670
vt 8.915311 -7.227303
vt 8.901639 -7.215583
vt 8.890652 -7.229987
vt 8.885525 -7.205573
vt 8.876492 -7.220222
vt 8.784692 -7.198004
vt 8.802515 -7.180426
vt 8.801538 -7.197271
vt 8.817896 -7.198980
vt 8.820581 -7.182135
vt 8.834743 -7.202642
vt 8.839137 -7.186285
vt 8.864040 -7.213874
vt 8.871853 -7.198980
vt 8.855983 -7.192389
vt 8.849879 -7.208014
vn -0.971551 -0.219635 -0.088591
vn -0.644495 -0.657941 -0.389537
vn -0.970199 -0.237803 -0.046508
vn -0.565543 0.824123 -0.031339
vn -0.971551 -0.219635 -0.088591
vn -0.970199 -0.237803 -0.046508
vn -0.921845 -0.387006 -0.020671
vn -0.493250 -0.743085 -0.452249
vn -0.606756 -0.599872 -0.521537
vn -0.941567 -0.326424 0.083057
vn -0.921845 -0.387006 -0.020671
vn -0.681328 -0.596801 -0.423817
vn -0.773934 -0.629846 -0.065721
vn -0.178166 -0.508263 -0.842571
vn -0.038868 -0.530710 -0.846662
vn -0.773934 -0.629846 -0.065721
vn -0.909909 0.394582 -0.127944
vn -0.909909 0.394582 -0.127944
vn -0.565543 0.824123 -0.031339
vn -0.970199 -0.237803 -0.046508
vn -0.571394 -0.660565 0.486993
vn -0.470860 -0.714959 0.516840
vn -0.539066 -0.587701 0.603337
vn -0.775816 -0.609703 0.162394
vn -0.698896 -0.540263 0.468679
vn -0.317770 -0.368712 0.873541
vn 0.166847 -0.352036 -0.920995
vn 0.340616 0.092532 -0.935638
vn 0.343970 -0.048311 -0.937737
vn 0.472119 0.442672 -0.762329
vn 0.549971 0.323010 -0.770192
vn 0.569006 0.676399 -0.467671
vn 0.598668 0.773370 -0.208556
vn 0.684216 0.569874 -0.455074
vn 0.606160 0.793416 0.055338
vn 0.729652 0.656530 -0.191248
vn 0.547710 0.697421 0.462188
vn 0.733801 0.675224 0.074894
vn 0.003385 -0.283714 0.958903
vn -0.181450 -0.392815 0.901539
vn 0.191944 0.091304 0.977149
vn 0.169493 -0.008254 0.985497
vn 0.408757 0.451231 0.793290
vn 0.440783 0.327789 0.835622
vn 0.643394 0.585346 0.493370
vn 0.079304 -0.180202 -0.980427
vn -0.385151 -0.430275 -0.816408
vn 0.233809 -0.170441 -0.957227
vn 0.599425 0.162716 -0.783717
vn 0.562986 0.109960 -0.819119
vn 0.810684 0.375098 -0.449547
vn 0.834570 0.304654 -0.458998
vn -0.440448 -0.363646 0.820833
vn 0.099753 -0.053278 0.993585
vn 0.019231 -0.090121 0.995745
vn 0.497937 0.177910 0.848768
vn 0.511086 0.223064 0.830081
vn 0.820490 0.324349 0.470738
vn 0.780824 0.399006 0.480737
vn 0.922234 0.362312 -0.134959
vn 0.877934 0.447396 -0.170496
vn 0.888768 0.448461 0.094732
vn 0.937463 0.331364 0.106588
f 1/1/1 2/2/2 3/3/3
f 12/12/12 13/13/13 3/3/3
f 2/2/2 12/12/12 3/3/3
f 47/47/47 12/12/12 2/2/2
f 1/1/1 8/8/8 2/2/2
f 7/7/7 8/8/8 1/1/1
f 7/7/7 9/9/9 8/8/8
f 14/14/14 47/47/47 2/2/2
f 2/2/2 8/8/8 14/14/14
f 46/46/46 47/47/47 14/14/14
f 9/9/9 15/15/15 8/8/8
f 8/8/8 15/15/15 14/14/14
f 9/9/9 27/27/27 15/15/15
f 48/48/48 46/46/46 14/14/14
f 14/14/14 15/15/15 48/48/48
f 50/50/50 46/46/46 48/48/48
f 27/27/27 29/29/29 15/15/15
f 15/15/15 29/29/29 48/48/48
f 27/27/27 28/28/28 29/29/29
f 49/49/49 50/50/50 48/48/48
f 48/48/48 29/29/29 49/49/49
f 28/28/28 31/31/31 29/29/29
f 29/29/29 31/31/31 49/49/49
f 28/28/28 30/30/30 31/31/31
f 30/30/30 32/32/32 31/31/31
f 32/32/32 34/34/34 31/31/31
f 49/49/49 31/31/31 34/34/34
f 32/32/32 33/33/33 34/34/34
f 51/51/51 50/50/50 49/49/49
f 49/49/49 34/34/34 51/51/51
f 51/51/51 52/52/52 50/50/50
f 33/33/33 36/36/36 34/34/34
f 51/51/51 34/34/34 36/36/36
f 33/33/33 35/35/35 36/36/36
f 52/52/52 51/51/51 61/61/61
f 61/61/61 51/51/51 36/36/36
f 60/60/60 52/52/52 61/61/61
f 35/35/35 38/38/38 36/36/36
f 61/61/61 36/36/36 38/38/38
f 35/35/35 37/37/37 38/38/38
f 62/62/62 60/60/60 61/61/61
f 62/62/62 61/61/61 38/38/38
f 62/62/62 63/63/63 60/60/60
f 58/58/58 63/63/63 62/62/62
f 62/62/62 38/38/38 45/45/45
f 37/37/37 45/45/45 38/38/38
f 59/59/59 58/58/58 62/62/62
f 62/62/62 45/45/45 59/59/59
f 56/56/56 58/58/58 59/59/59
f 37/37/37 44/44/44 45/45/45
f 59/59/59 45/45/45 44/44/44
f 37/37/37 43/43/43 44/44/44
f 43/43/43 41/41/41 44/44/44
f 59/59/59 44/44/44 57/57/57
f 57/57/57 56/56/56 59/59/59
f 41/41/41 42/42/42 44/44/44
f 57/57/57 44/44/44 42/42/42
f 41/41/41 39/39/39 42/42/42
f 54/54/54 56/56/56 57/57/57
f 54/54/54 57/57/57 42/42/42
f 54/54/54 55/55/55 56/56/56
f 39/39/39 40/40/40 42/42/42
f 54/54/54 42/42/42 40/40/40
f 39/39/39 23/23/23 40/40/40
f 26/26/26 55/55/55 54/54/54
f 54/54/54 40/40/40 26/26/26
f 26/26/26 53/53/53 55/55/55
f 23/23/23 22/22/22 40/40/40
f 26/26/26 40/40/40 22/22/22
f 23/23/23 10/10/10 22/22/22
f 21/21/21 53/53/53 26/26/26
f 26/26/26 22/22/22 21/21/21
f 21/21/21 25/25/25 53/53/53
f 10/10/10 4/4/4 22/22/22
f 21/21/21 22/22/22 4/4/4
f 10/10/10 5/5/5 4/4/4
f 10/10/10 11/11/11 5/5/5
f 4/4/4 5/5/5 6/6/6
f 21/21/21 4/4/4 17/17/17
f 17/17/17 25/25/25 21/21/21
f 6/6/6 16/16/16 17/17/17
f 17/17/17 24/24/24 25/25/25
f 16/16/16 24/24/24 17/17/17
f 18/18/18 19/19/19 20/20/20
