# Generated from Roblox mesh JSON (v2.00)
# Hello from RBX_Toolbox ;)
o LeftFootWrapTarget
v -0.300945 -0.071141 0.541274
v -0.048660 -0.087421 0.716298
v -0.266704 0.059807 0.551236
v -0.015934 0.030902 0.705622
v 0.271462 -0.086807 0.642396
v 0.288115 0.028109 0.645587
v -0.082152 -0.222086 0.679266
v -0.300945 -0.071141 0.541274
v -0.287517 -0.235611 0.495824
v -0.048660 -0.087421 0.716298
v 0.211417 -0.229111 0.613881
v 0.271462 -0.086807 0.642396
v -0.015934 0.030902 0.705622
v -0.211922 0.209403 0.501563
v -0.266704 0.059807 0.551236
v 0.015189 0.171550 0.633951
v 0.258181 0.158497 0.597773
v 0.288115 0.028109 0.645587
v -0.317178 -0.099323 -0.604576
v -0.146051 -0.213471 -0.670322
v -0.303407 -0.225244 -0.568315
v -0.136123 -0.098960 -0.686316
v 0.041710 -0.212608 -0.698143
v 0.048748 -0.098613 -0.716298
v 0.209592 -0.224313 -0.634114
v 0.231800 -0.096168 -0.674423
v 0.389824 0.028473 0.397958
v 0.376508 0.152187 0.402308
v 0.258181 0.158497 0.597773
v 0.288115 0.028109 0.645587
v 0.389824 0.028473 0.397958
v 0.271462 -0.086807 0.642396
v 0.389051 -0.085807 0.376063
v 0.288115 0.028109 0.645587
v -0.211922 0.209403 0.501563
v -0.345824 0.240693 0.233388
v -0.399469 0.093450 0.238161
v -0.266704 0.059807 0.551236
v -0.266704 0.059807 0.551236
v -0.399469 0.093450 0.238161
v -0.428007 -0.060469 0.234443
v -0.300945 -0.071141 0.541274
v -0.428007 -0.060469 0.234443
v -0.287517 -0.235611 0.495824
v -0.300945 -0.071141 0.541274
v -0.382482 -0.240210 0.197328
v 0.389051 -0.085807 0.376063
v 0.211417 -0.229111 0.613881
v 0.313470 -0.240693 0.364816
v 0.271462 -0.086807 0.642396
v 0.376508 0.152187 0.402308
v 0.425019 0.077251 0.137036
v 0.405761 0.201055 0.142939
v 0.389824 0.028473 0.397958
v 0.425019 0.077251 0.137036
v 0.389824 0.028473 0.397958
v 0.389051 -0.085807 0.376063
v 0.430139 -0.056764 0.121536
v -0.288283 -0.027349 -0.555712
v -0.139866 0.012858 -0.615885
v -0.136123 -0.098960 -0.686316
v -0.317178 -0.099323 -0.604576
v 0.048748 -0.098613 -0.716298
v 0.057644 0.013936 -0.641062
v 0.213576 -0.019833 -0.605004
v 0.231800 -0.096168 -0.674423
v 0.430139 -0.056764 0.121536
v 0.313470 -0.240693 0.364816
v 0.372091 -0.232419 0.107067
v 0.389051 -0.085807 0.376063
v -0.423629 -0.075246 -0.239232
v -0.364105 -0.233097 -0.061397
v -0.430139 -0.066988 -0.034859
v -0.365189 -0.226361 -0.261843
v -0.395751 -0.092151 -0.426922
v -0.358760 -0.220580 -0.429616
v -0.303407 -0.225244 -0.568315
v -0.317178 -0.099323 -0.604576
v 0.424797 -0.089753 -0.336509
v 0.374083 -0.232969 -0.133094
v 0.349449 -0.228778 -0.350545
v 0.429798 -0.066668 -0.119965
v 0.359870 -0.099612 -0.522790
v 0.308487 -0.224177 -0.523334
v 0.209592 -0.224313 -0.634114
v 0.231800 -0.096168 -0.674423
v -0.364105 -0.233097 -0.061397
v -0.382482 -0.240210 0.197328
v -0.430139 -0.066988 -0.034859
v -0.428007 -0.060469 0.234443
v -0.430139 -0.066988 -0.034859
v -0.399469 0.093450 0.238161
v -0.380967 0.115769 -0.067491
v -0.428007 -0.060469 0.234443
v -0.316265 0.236058 -0.056094
v -0.399469 0.093450 0.238161
v -0.345824 0.240693 0.233388
v -0.380967 0.115769 -0.067491
v 0.429798 -0.066668 -0.119965
v 0.425019 0.077251 0.137036
v 0.430139 -0.056764 0.121536
v 0.394228 0.094440 -0.135419
v 0.429798 -0.066668 -0.119965
v 0.372091 -0.232419 0.107067
v 0.374083 -0.232969 -0.133094
v 0.430139 -0.056764 0.121536
v -0.423629 -0.075246 -0.239232
v -0.380967 0.115769 -0.067491
v -0.370334 0.077702 -0.271143
v -0.430139 -0.066988 -0.034859
v -0.329826 0.011958 -0.444264
v -0.395751 -0.092151 -0.426922
v -0.288283 -0.027349 -0.555712
v -0.317178 -0.099323 -0.604576
v 0.357312 0.202488 -0.115020
v 0.425019 0.077251 0.137036
v 0.394228 0.094440 -0.135419
v 0.405761 0.201055 0.142939
v 0.213576 -0.019833 -0.605004
v 0.359870 -0.099612 -0.522790
v 0.231800 -0.096168 -0.674423
v 0.299307 0.013497 -0.486461
v 0.424797 -0.089753 -0.336509
v 0.378648 0.023167 -0.340057
v 0.429798 -0.066668 -0.119965
v 0.394228 0.094440 -0.135419
v -0.288283 -0.027349 -0.555712
v -0.130376 0.081509 -0.490809
v -0.139866 0.012858 -0.615885
v -0.329826 0.011958 -0.444264
v 0.057644 0.013936 -0.641062
v 0.101785 0.083977 -0.511231
v 0.213576 -0.019833 -0.605004
v 0.299307 0.013497 -0.486461
v -0.370334 0.077702 -0.271143
v -0.114617 0.183970 -0.305247
v -0.121525 0.135137 -0.383085
v -0.380967 0.115769 -0.067491
v -0.329826 0.011958 -0.444264
v -0.130376 0.081509 -0.490809
v 0.101785 0.083977 -0.511231
v 0.141544 0.129624 -0.407441
v 0.299307 0.013497 -0.486461
v 0.162583 0.170161 -0.331114
v 0.378648 0.023167 -0.340057
v 0.394228 0.094440 -0.135419
v -0.114617 0.183970 -0.305247
v -0.380967 0.115769 -0.067491
v -0.093747 0.234022 -0.268632
v -0.316265 0.236058 -0.056094
v 0.162583 0.170161 -0.331114
v 0.159245 0.216137 -0.289078
v 0.394228 0.094440 -0.135419
v 0.357312 0.202488 -0.115020
v -0.146051 -0.213471 -0.670322
v 0.209592 -0.224313 -0.634114
v -0.303407 -0.225244 -0.568315
v 0.041710 -0.212608 -0.698143
v -0.358760 -0.220580 -0.429616
v 0.308487 -0.224177 -0.523334
v 0.349449 -0.228778 -0.350545
v -0.365189 -0.226361 -0.261843
v 0.374083 -0.232969 -0.133094
v -0.364105 -0.233097 -0.061397
v 0.372091 -0.232419 0.107067
v -0.382482 -0.240210 0.197328
v 0.313470 -0.240693 0.364816
v -0.287517 -0.235611 0.495824
v 0.211417 -0.229111 0.613881
v -0.082152 -0.222086 0.679266
vt 4.194766 0.701050
vt 4.238421 0.701050
vt 4.194766 0.717542
vt 4.238916 0.717542
vt 4.268683 0.701050
vt 4.269673 0.717542
vt 4.239748 0.685211
vt 4.194766 0.701050
vt 4.194766 0.668763
vt 4.238421 0.701050
vt 4.271337 0.685211
vt 4.268683 0.701050
vt 4.238916 0.717542
vt 4.194766 0.734033
vt 4.194766 0.717542
vt 4.239410 0.734033
vt 4.270662 0.734033
vt 4.269673 0.717542
vt 4.682165 0.322827
vt 4.641173 0.265968
vt 4.682165 0.265968
vt 4.639468 0.322827
vt 4.553146 0.265967
vt 4.551442 0.322827
vt 4.506112 0.265967
vt 4.506112 0.322827
vt 4.318013 0.717542
vt 4.318013 0.734033
vt 4.270662 0.734033
vt 4.269673 0.717542
vt 4.318013 0.717542
vt 4.268683 0.701050
vt 4.318014 0.701050
vt 4.269673 0.717542
vt 4.682165 0.655552
vt 4.682165 0.599918
vt 4.715122 0.584724
vt 4.715122 0.655552
vt 4.715122 0.655552
vt 4.715122 0.584724
vt 4.748080 0.569530
vt 4.748080 0.655552
vt 4.748080 0.569530
vt 4.836046 0.655553
vt 4.748080 0.655552
vt 4.836046 0.578310
vt 4.318014 0.701050
vt 4.271337 0.685211
vt 4.318014 0.668763
vt 4.268683 0.701050
vt 4.506112 0.655553
vt 4.473155 0.594565
vt 4.506112 0.599918
vt 4.473155 0.655553
vt 4.473155 0.594565
vt 4.473155 0.655553
vt 4.440198 0.655553
vt 4.440198 0.589211
vt 4.684693 0.357269
vt 4.638481 0.354811
vt 4.639468 0.322827
vt 4.682165 0.322827
vt 4.551442 0.322827
vt 4.550454 0.354811
vt 4.503837 0.357023
vt 4.506112 0.322827
vt 4.440198 0.589211
vt 4.352232 0.655553
vt 4.352232 0.537170
vt 4.440198 0.655553
vt 4.709523 0.418805
vt 4.836046 0.537171
vt 4.725915 0.472138
vt 4.792063 0.379687
vt 4.693130 0.365472
vt 4.770072 0.337042
vt 4.748080 0.294397
vt 4.682165 0.322827
vt 4.477498 0.422491
vt 4.370994 0.469989
vt 4.396214 0.379687
vt 4.459850 0.479509
vt 4.495147 0.365472
vt 4.418206 0.337042
vt 4.440197 0.294397
vt 4.506112 0.322827
vt 4.836046 0.537171
vt 4.836046 0.578310
vt 4.725915 0.472138
vt 4.748080 0.569530
vt 4.725915 0.472138
vt 4.715122 0.584724
vt 4.704069 0.501414
vt 4.748080 0.569530
vt 4.682165 0.537171
vt 4.715122 0.584724
vt 4.682165 0.599918
vt 4.704069 0.501414
vt 4.459850 0.479509
vt 4.473155 0.594565
vt 4.440198 0.589211
vt 4.483266 0.510566
vt 4.459850 0.479509
vt 4.352232 0.537170
vt 4.370994 0.469989
vt 4.440198 0.589211
vt 4.709523 0.418805
vt 4.704069 0.501414
vt 4.695858 0.454766
vt 4.725915 0.472138
vt 4.687648 0.408117
vt 4.693130 0.365472
vt 4.684693 0.357269
vt 4.682165 0.322827
vt 4.506112 0.537171
vt 4.473155 0.594565
vt 4.483266 0.510566
vt 4.506112 0.599918
vt 4.503837 0.357023
vt 4.495147 0.365472
vt 4.506112 0.322827
vt 4.500629 0.408117
vt 4.477498 0.422491
vt 4.491948 0.459342
vt 4.459850 0.479509
vt 4.483266 0.510566
vt 4.684693 0.357269
vt 4.638152 0.408117
vt 4.638481 0.354811
vt 4.687648 0.408117
vt 4.550454 0.354811
vt 4.550125 0.408117
vt 4.503837 0.357023
vt 4.500629 0.408117
vt 4.695858 0.454766
vt 4.638152 0.468094
vt 4.638152 0.438105
vt 4.704069 0.501414
vt 4.687648 0.408117
vt 4.638152 0.408117
vt 4.550125 0.408117
vt 4.550125 0.442364
vt 4.500629 0.408117
vt 4.550125 0.476610
vt 4.491948 0.459342
vt 4.483266 0.510566
vt 4.638152 0.468094
vt 4.704069 0.501414
vt 4.638152 0.537171
vt 4.682165 0.537171
vt 4.550125 0.476610
vt 4.550125 0.537171
vt 4.483266 0.510566
vt 4.506112 0.537171
vt 4.194766 0.265967
vt 4.323192 0.285270
vt 4.189588 0.285271
vt 4.318013 0.265967
vt 4.179359 0.323398
vt 4.333420 0.323398
vt 4.348826 0.380830
vt 4.163954 0.380830
vt 4.348825 0.494111
vt 4.163954 0.462950
vt 4.348825 0.538116
vt 4.163954 0.538116
vt 4.318014 0.668763
vt 4.194766 0.668763
vt 4.271337 0.685211
vt 4.239748 0.685211
vn -0.532804 0.145530 0.833631
vn -0.202064 0.081121 0.976007
vn -0.532804 0.145530 0.833631
vn -0.120914 0.063328 0.990641
vn 0.209746 -0.013030 0.977669
vn 0.209746 -0.013030 0.977669
vn -0.251121 -0.251831 0.934623
vn -0.607994 -0.172889 0.774889
vn -0.607994 -0.172889 0.774889
vn -0.122050 -0.268799 0.955432
vn 0.208831 -0.291452 0.933512
vn 0.208831 -0.291452 0.933512
vn -0.130594 0.445232 0.885840
vn -0.411521 0.452545 0.791109
vn -0.411521 0.452545 0.791109
vn -0.126917 0.444924 0.886530
vn 0.170132 0.396881 0.901965
vn 0.170132 0.396881 0.901965
vn -0.462554 -0.195349 -0.864802
vn -0.325540 -0.170343 -0.930058
vn -0.462554 -0.195349 -0.864802
vn -0.298317 -0.164979 -0.940100
vn 0.047543 -0.201186 -0.978399
vn 0.056250 -0.203667 -0.977423
vn 0.273000 -0.256819 -0.927100
vn 0.273000 -0.256819 -0.927100
vn 0.874364 0.222580 0.431213
vn 0.874364 0.222580 0.431213
vn 0.874364 0.222580 0.431213
vn 0.874364 0.222580 0.431213
vn 0.914078 -0.112152 0.389723
vn 0.914078 -0.112152 0.389723
vn 0.914078 -0.112152 0.389723
vn 0.914078 -0.112152 0.389723
vn -0.824601 0.378346 0.420579
vn -0.824601 0.378346 0.420579
vn -0.824601 0.378346 0.420579
vn -0.824601 0.378346 0.420579
vn -0.902527 0.180114 0.391158
vn -0.902527 0.180114 0.391158
vn -0.902527 0.180114 0.391158
vn -0.902527 0.180114 0.391158
vn -0.913051 -0.236142 0.332527
vn -0.913051 -0.236142 0.332527
vn -0.913051 -0.236142 0.332527
vn -0.913051 -0.236142 0.332527
vn 0.828814 -0.426669 0.361969
vn 0.828814 -0.426669 0.361969
vn 0.828814 -0.426669 0.361969
vn 0.828814 -0.426669 0.361969
vn 0.981770 0.123205 0.144733
vn 0.981770 0.123205 0.144733
vn 0.981770 0.123205 0.144733
vn 0.981770 0.123205 0.144733
vn 0.989316 -0.004622 0.145713
vn 0.989316 -0.004622 0.145713
vn 0.989316 -0.004622 0.145713
vn 0.989316 -0.004622 0.145713
vn -0.388392 0.538510 -0.747769
vn -0.246268 0.545852 -0.800873
vn -0.225119 0.545836 -0.807084
vn -0.388392 0.538510 -0.747769
vn 0.019246 0.575157 -0.817816
vn 0.028196 0.576901 -0.816327
vn 0.231607 0.598670 -0.766781
vn 0.231607 0.598670 -0.766781
vn 0.912524 -0.380570 0.149890
vn 0.912524 -0.380570 0.149890
vn 0.912524 -0.380570 0.149890
vn 0.912524 -0.380570 0.149890
vn -0.937678 -0.345142 -0.040458
vn -0.931428 -0.363756 -0.011116
vn -0.931428 -0.363756 -0.011116
vn -0.939260 -0.339781 -0.048361
vn -0.934740 -0.277861 -0.221482
vn -0.931688 -0.272016 -0.240758
vn -0.899524 -0.228655 -0.372255
vn -0.899524 -0.228655 -0.372255
vn 0.905496 -0.402273 -0.135106
vn 0.919424 -0.390594 -0.045779
vn 0.900636 -0.404144 -0.159760
vn 0.919424 -0.390594 -0.045779
vn 0.823988 -0.371432 -0.427881
vn 0.807964 -0.361503 -0.465306
vn 0.717817 -0.307338 -0.624725
vn 0.717817 -0.307338 -0.624725
vn -0.952877 -0.301905 -0.029654
vn -0.952877 -0.301905 -0.029654
vn -0.952877 -0.301905 -0.029654
vn -0.952877 -0.301905 -0.029654
vn -0.974559 0.223086 -0.021616
vn -0.974559 0.223086 -0.021616
vn -0.974559 0.223086 -0.021616
vn -0.974559 0.223086 -0.021616
vn -0.912213 0.405054 -0.061631
vn -0.912213 0.405054 -0.061631
vn -0.912213 0.405054 -0.061631
vn -0.912213 0.405054 -0.061631
vn 0.988961 0.136366 -0.057971
vn 0.988961 0.136366 -0.057971
vn 0.988961 0.136366 -0.057971
vn 0.988961 0.136366 -0.057971
vn 0.948575 -0.316391 0.010118
vn 0.948575 -0.316391 0.010118
vn 0.948575 -0.316391 0.010118
vn 0.948575 -0.316391 0.010118
vn -0.936036 0.317345 -0.152084
vn -0.957740 0.278515 -0.071858
vn -0.933518 0.321251 -0.159194
vn -0.957740 0.278515 -0.071858
vn -0.855356 0.414853 -0.310264
vn -0.863281 0.405540 -0.300471
vn -0.774882 0.488985 -0.400563
vn -0.774882 0.488985 -0.400563
vn 0.959430 0.247723 -0.134635
vn 0.959430 0.247723 -0.134635
vn 0.959430 0.247723 -0.134635
vn 0.959430 0.247723 -0.134635
vn 0.616395 0.563420 -0.550105
vn 0.729966 0.497975 -0.468157
vn 0.616395 0.563420 -0.550105
vn 0.743153 0.488843 -0.456898
vn 0.902786 0.349931 -0.250049
vn 0.904962 0.347353 -0.245742
vn 0.954653 0.277151 -0.108739
vn 0.954653 0.277151 -0.108739
vn -0.388449 0.817260 -0.425669
vn -0.190750 0.866735 -0.460852
vn -0.178397 0.869406 -0.460769
vn -0.388449 0.817260 -0.425669
vn 0.053883 0.866627 -0.496039
vn 0.108357 0.858514 -0.501210
vn 0.323013 0.801884 -0.502638
vn 0.323013 0.801884 -0.502638
vn -0.398078 0.861788 -0.314413
vn -0.253933 0.890536 -0.377444
vn -0.211712 0.887761 -0.408728
vn -0.400000 0.874229 -0.275178
vn -0.377560 0.836114 -0.397947
vn -0.195962 0.887287 -0.417517
vn 0.107810 0.903386 -0.415055
vn 0.204494 0.877676 -0.433436
vn 0.416767 0.825371 -0.380878
vn 0.312711 0.841226 -0.441080
vn 0.487073 0.787875 -0.376845
vn 0.510909 0.773767 -0.374508
vn -0.393459 0.577752 -0.715118
vn -0.626649 0.486412 -0.608863
vn -0.386449 0.579159 -0.717796
vn -0.626649 0.486412 -0.608863
vn 0.345483 0.558428 -0.754188
vn 0.378367 0.545233 -0.748037
vn 0.639289 0.426457 -0.639877
vn 0.639289 0.426457 -0.639877
vn -0.016035 -0.990162 -0.139002
vn -0.003052 -0.999904 -0.013501
vn -0.002807 -0.999934 -0.011134
vn -0.016035 -0.990162 -0.139002
vn -0.005011 -0.999925 -0.011165
vn -0.004891 -0.999933 -0.010484
vn -0.006323 -0.999596 -0.027728
vn -0.006159 -0.999601 -0.027566
vn -0.000434 -0.999806 -0.019689
vn 0.000087 -0.999822 -0.018882
vn 0.002642 -0.999943 -0.010340
vn 0.002376 -0.999949 -0.009774
vn 0.000366 -0.999894 0.014584
vn 0.000266 -0.999829 0.018492
vn -0.000750 -0.998309 0.058132
vn -0.000750 -0.998309 0.058132
f 1/1/1 2/2/2 3/3/3
f 2/2/2 4/4/4 3/3/3
f 5/5/5 4/4/4 2/2/2
f 4/4/4 5/5/5 6/6/6
f 7/7/7 8/8/8 9/9/9
f 8/8/8 7/7/7 10/10/10
f 11/11/11 10/10/10 7/7/7
f 10/10/10 11/11/11 12/12/12
f 13/13/13 14/14/14 15/15/15
f 14/14/14 13/13/13 16/16/16
f 13/13/13 17/17/17 16/16/16
f 17/17/17 13/13/13 18/18/18
f 19/19/19 20/20/20 21/21/21
f 20/20/20 19/19/19 22/22/22
f 22/22/22 23/23/23 20/20/20
f 23/23/23 22/22/22 24/24/24
f 24/24/24 25/25/25 23/23/23
f 25/25/25 24/24/24 26/26/26
f 27/27/27 28/28/28 29/29/29
f 27/27/27 29/29/29 30/30/30
f 31/31/31 32/32/32 33/33/33
f 32/32/32 31/31/31 34/34/34
f 35/35/35 36/36/36 37/37/37
f 37/37/37 38/38/38 35/35/35
f 39/39/39 40/40/40 41/41/41
f 41/41/41 42/42/42 39/39/39
f 43/43/43 44/44/44 45/45/45
f 44/44/44 43/43/43 46/46/46
f 47/47/47 48/48/48 49/49/49
f 48/48/48 47/47/47 50/50/50
f 51/51/51 52/52/52 53/53/53
f 52/52/52 51/51/51 54/54/54
f 55/55/55 56/56/56 57/57/57
f 55/55/55 57/57/57 58/58/58
f 59/59/59 60/60/60 61/61/61
f 59/59/59 61/61/61 62/62/62
f 60/60/60 63/63/63 61/61/61
f 60/60/60 64/64/64 63/63/63
f 65/65/65 63/63/63 64/64/64
f 63/63/63 65/65/65 66/66/66
f 67/67/67 68/68/68 69/69/69
f 68/68/68 67/67/67 70/70/70
f 71/71/71 72/72/72 73/73/73
f 72/72/72 71/71/71 74/74/74
f 75/75/75 74/74/74 71/71/71
f 75/75/75 76/76/76 74/74/74
f 75/75/75 77/77/77 76/76/76
f 77/77/77 75/75/75 78/78/78
f 79/79/79 80/80/80 81/81/81
f 80/80/80 79/79/79 82/82/82
f 81/81/81 83/83/83 79/79/79
f 83/83/83 81/81/81 84/84/84
f 85/85/85 83/83/83 84/84/84
f 85/85/85 86/86/86 83/83/83
f 87/87/87 88/88/88 89/89/89
f 89/89/89 88/88/88 90/90/90
f 91/91/91 92/92/92 93/93/93
f 92/92/92 91/91/91 94/94/94
f 95/95/95 96/96/96 97/97/97
f 96/96/96 95/95/95 98/98/98
f 99/99/99 100/100/100 101/101/101
f 100/100/100 99/99/99 102/102/102
f 103/103/103 104/104/104 105/105/105
f 104/104/104 103/103/103 106/106/106
f 107/107/107 108/108/108 109/109/109
f 108/108/108 107/107/107 110/110/110
f 111/111/111 107/107/107 109/109/109
f 107/107/107 111/111/111 112/112/112
f 112/112/112 111/111/111 113/113/113
f 114/114/114 112/112/112 113/113/113
f 115/115/115 116/116/116 117/117/117
f 116/116/116 115/115/115 118/118/118
f 119/119/119 120/120/120 121/121/121
f 120/120/120 119/119/119 122/122/122
f 122/122/122 123/123/123 120/120/120
f 123/123/123 122/122/122 124/124/124
f 124/124/124 125/125/125 123/123/123
f 125/125/125 124/124/124 126/126/126
f 127/127/127 128/128/128 129/129/129
f 128/128/128 127/127/127 130/130/130
f 128/128/128 131/131/131 129/129/129
f 131/131/131 128/128/128 132/132/132
f 132/132/132 133/133/133 131/131/131
f 133/133/133 132/132/132 134/134/134
f 135/135/135 136/136/136 137/137/137
f 138/138/138 136/136/136 135/135/135
f 137/137/137 139/139/139 135/135/135
f 139/139/139 137/137/137 140/140/140
f 137/137/137 141/141/141 140/140/140
f 136/136/136 142/142/142 137/137/137
f 141/141/141 137/137/137 142/142/142
f 143/143/143 141/141/141 142/142/142
f 142/142/142 136/136/136 144/144/144
f 143/143/143 142/142/142 145/145/145
f 145/145/145 142/142/142 144/144/144
f 146/146/146 145/145/145 144/144/144
f 147/147/147 148/148/148 149/149/149
f 149/149/149 148/148/148 150/150/150
f 151/151/151 147/147/147 149/149/149
f 149/149/149 152/152/152 151/151/151
f 153/153/153 151/151/151 152/152/152
f 153/153/153 152/152/152 154/154/154
f 155/155/155 156/156/156 157/157/157
f 156/156/156 155/155/155 158/158/158
f 156/156/156 159/159/159 157/157/157
f 159/159/159 156/156/156 160/160/160
f 159/159/159 160/160/160 161/161/161
f 159/159/159 161/161/161 162/162/162
f 162/162/162 161/161/161 163/163/163
f 162/162/162 163/163/163 164/164/164
f 164/164/164 163/163/163 165/165/165
f 164/164/164 165/165/165 166/166/166
f 167/167/167 166/166/166 165/165/165
f 166/166/166 167/167/167 168/168/168
f 168/168/168 167/167/167 169/169/169
f 168/168/168 169/169/169 170/170/170
