# Generated from Roblox mesh JSON (v7.00)
# Hello from RBX_Toolbox ;)
o LeftLowerLeg
v -0.043045 -0.001368 -0.024852
v -0.043045 -0.074479 -0.024852
v -0.049703 -0.074479 -0.000000
v -0.024852 -0.074479 -0.043045
v -0.043045 -0.204991 -0.024852
v -0.049703 -0.204991 -0.000000
v -0.024852 -0.001368 -0.043045
v -0.043045 0.071905 -0.024852
v -0.049703 -0.001368 -0.000000
v -0.024852 0.071905 -0.043045
v -0.049703 0.071905 -0.000000
v 0.000000 -0.074479 -0.049704
v -0.024852 -0.204991 -0.043045
v 0.000000 -0.204991 -0.049704
v 0.000000 -0.001368 -0.049704
v 0.000000 0.071905 -0.049704
v -0.043045 -0.001368 0.024852
v -0.043045 -0.074479 0.024852
v -0.043045 -0.204991 0.024852
v -0.024852 -0.204991 0.043045
v -0.024852 -0.074479 0.043045
v -0.043045 0.071905 0.024852
v -0.024852 -0.001368 0.043045
v -0.024852 0.071905 0.043045
v 0.000000 -0.074479 0.049704
v 0.000000 -0.204991 0.049704
v 0.000000 -0.001368 0.049704
v 0.000000 0.071905 0.049704
v 0.000000 0.113061 -0.049704
v -0.043045 0.113061 -0.024852
v -0.024852 0.113061 -0.043045
v -0.038740 0.159493 -0.022366
v -0.049703 0.113061 -0.000000
v -0.022366 0.159493 -0.038741
v -0.044733 0.159493 -0.000000
v -0.033593 0.204991 -0.019394
v -0.038740 0.159493 -0.022366
v -0.044733 0.159493 -0.000000
v -0.038789 0.204991 -0.000000
v 0.000000 0.159493 -0.044733
v -0.019394 0.204991 -0.033592
v -0.022366 0.159493 -0.038741
v 0.000000 0.204991 -0.038788
v 0.000000 0.159493 -0.044733
v -0.033593 0.204991 0.019394
v -0.043045 0.113061 0.024852
v -0.038740 0.159493 0.022366
v -0.038740 0.159493 0.022366
v -0.022366 0.159493 0.038740
v -0.022366 0.159493 0.038740
v -0.024852 0.113061 0.043045
v 0.000000 0.113061 0.049704
v 0.000000 0.159493 0.044733
v -0.019394 0.204991 0.033592
v 0.000000 0.159493 0.044733
v 0.000000 0.204991 0.038788
v 0.019394 0.204991 -0.033592
v 0.024852 -0.074479 -0.043045
v 0.024852 -0.001368 -0.043045
v 0.024852 -0.204991 -0.043045
v 0.043046 -0.074479 -0.024852
v 0.024852 0.071905 -0.043045
v 0.043046 0.071905 -0.024852
v 0.043046 -0.001368 -0.024852
v 0.043046 -0.204991 -0.024852
v 0.049703 -0.204991 -0.000000
v 0.049703 -0.074479 -0.000000
v 0.049703 -0.001368 -0.000000
v 0.049703 0.071905 -0.000000
v 0.043046 -0.001368 0.024852
v 0.049703 -0.001368 -0.000000
v 0.024852 -0.074479 0.043045
v 0.024852 -0.001368 0.043045
v 0.043046 -0.074479 0.024852
v 0.024852 -0.204991 0.043045
v 0.024852 0.071905 0.043045
v 0.043046 -0.204991 0.024852
v 0.049703 -0.074479 -0.000000
v 0.049703 -0.204991 -0.000000
v 0.043046 0.071905 0.024852
v 0.049703 0.071905 -0.000000
v 0.024852 0.113061 -0.043045
v 0.022366 0.159493 -0.038741
v 0.043046 0.113061 -0.024852
v 0.022366 0.159493 -0.038741
v 0.038741 0.159493 -0.022366
v 0.033592 0.204991 -0.019394
v 0.038741 0.159493 -0.022366
v 0.049703 0.113061 -0.000000
v 0.044733 0.159493 -0.000000
v 0.044733 0.159493 -0.000000
v 0.038788 0.204991 -0.000000
v 0.033592 0.204991 0.019394
v 0.022366 0.159493 0.038740
v 0.024852 0.113061 0.043045
v 0.038741 0.159493 0.022366
v 0.022366 0.159493 0.038740
v 0.019394 0.204991 0.033592
v 0.000000 0.159493 0.044733
v 0.000000 0.204991 0.038788
v 0.049703 0.113061 -0.000000
v 0.043046 0.113061 0.024852
v 0.044733 0.159493 -0.000000
v 0.044733 0.159493 -0.000000
v 0.033592 0.204991 0.019394
v 0.022366 0.159493 0.038740
vt 0.140835 0.953745
vt 0.140835 0.944885
vt 0.146108 0.944885
vt 0.135562 0.944885
vt 0.140835 0.936026
vt 0.146108 0.936026
vt 0.135562 0.953745
vt 0.140835 0.962604
vt 0.146108 0.953745
vt 0.135562 0.962604
vt 0.146108 0.962604
vt 0.130288 0.944885
vt 0.135562 0.936026
vt 0.130288 0.936026
vt 0.130288 0.953745
vt 0.130288 0.962604
vt 0.151382 0.953745
vt 0.151382 0.944885
vt 0.151382 0.936026
vt 0.156655 0.936026
vt 0.156655 0.944885
vt 0.151382 0.962604
vt 0.156655 0.953745
vt 0.156655 0.962604
vt 0.161929 0.944885
vt 0.161929 0.936026
vt 0.161929 0.953745
vt 0.161929 0.962604
vt 0.130288 0.967034
vt 0.140835 0.967034
vt 0.135562 0.967034
vt 0.140835 0.971464
vt 0.146108 0.967034
vt 0.135562 0.971464
vt 0.129891 0.968698
vt 0.135498 0.969573
vt 0.135490 0.968698
vt 0.146108 0.971464
vt 0.129883 0.969573
vt 0.130288 0.971464
vt 0.141235 0.969573
vt 0.141235 0.968698
vt 0.146973 0.969573
vt 0.146973 0.968698
vt 0.124146 0.969573
vt 0.151382 0.967034
vt 0.151382 0.971464
vt 0.124150 0.968698
vt 0.118339 0.968698
vt 0.156655 0.971464
vt 0.156655 0.967034
vt 0.161929 0.967034
vt 0.161929 0.971464
vt 0.118347 0.969573
vt 0.111872 0.968698
vt 0.112671 0.969573
vt 0.152710 0.969573
vt 0.125015 0.944885
vt 0.125015 0.953745
vt 0.125015 0.936026
vt 0.120005 0.944885
vt 0.125015 0.962604
vt 0.120005 0.962604
vt 0.120005 0.953745
vt 0.120005 0.936026
vt 0.114731 0.936026
vt 0.114731 0.944885
vt 0.114731 0.953745
vt 0.177749 0.962604
vt 0.172476 0.953745
vt 0.177749 0.953745
vt 0.167202 0.944885
vt 0.167202 0.953745
vt 0.172476 0.944885
vt 0.167202 0.936026
vt 0.167202 0.962604
vt 0.172476 0.936026
vt 0.177749 0.944885
vt 0.177749 0.936026
vt 0.172476 0.962604
vt 0.114731 0.962604
vt 0.125015 0.967034
vt 0.125015 0.971464
vt 0.120005 0.967034
vt 0.152710 0.968698
vt 0.120005 0.971464
vt 0.158447 0.969573
vt 0.158447 0.968698
vt 0.114731 0.967034
vt 0.164185 0.968698
vt 0.114731 0.971464
vt 0.164185 0.969573
vt 0.169922 0.969573
vt 0.167202 0.971464
vt 0.167202 0.967034
vt 0.172476 0.971464
vt 0.175659 0.968698
vt 0.175659 0.969573
vt 0.182204 0.968698
vt 0.181396 0.969573
vt 0.177749 0.967034
vt 0.172476 0.967034
vt 0.177749 0.971464
vt 0.164185 0.968698
vt 0.169922 0.969573
vt 0.175659 0.968698
vn -0.866146 -0.000000 -0.499756
vn -0.866146 -0.000000 -0.499756
vn -1.000000 -0.000000 -0.000489
vn -0.499756 -0.000000 -0.866146
vn -0.866146 -0.000000 -0.499756
vn -1.000000 -0.000000 -0.000489
vn -0.499756 -0.000000 -0.866146
vn -0.866146 -0.000000 -0.499756
vn -1.000000 -0.000000 -0.000489
vn -0.499756 -0.000000 -0.866146
vn -1.000000 -0.000000 -0.000489
vn 0.000489 -0.000000 -1.000000
vn -0.499756 -0.000000 -0.866146
vn 0.000489 -0.000000 -1.000000
vn 0.000489 -0.000000 -1.000000
vn 0.000489 -0.000000 -1.000000
vn -0.866146 -0.000000 0.499756
vn -0.866146 -0.000000 0.499756
vn -0.866146 -0.000000 0.499756
vn -0.499756 -0.000000 0.866146
vn -0.499756 -0.000000 0.866146
vn -0.866146 -0.000000 0.499756
vn -0.499756 -0.000000 0.866146
vn -0.499756 -0.000000 0.866146
vn 0.000489 -0.000000 1.000000
vn 0.000489 -0.000000 1.000000
vn 0.000489 -0.000000 1.000000
vn 0.000489 -0.000000 1.000000
vn 0.000489 0.052760 -0.999023
vn -0.865169 0.052760 -0.499756
vn -0.499756 0.052760 -0.865169
vn -0.860283 0.118222 -0.496825
vn -0.999023 0.052760 -0.000489
vn -0.496825 0.118222 -0.860283
vn -0.993161 0.118222 -0.000489
vn -0.858329 0.129946 -0.495848
vn -0.860283 0.118222 -0.496825
vn -0.993161 0.118222 -0.000489
vn -0.991207 0.129946 -0.000489
vn 0.000489 0.118222 -0.993161
vn -0.495848 0.129946 -0.858329
vn -0.496825 0.118222 -0.860283
vn 0.000489 0.129946 -0.991207
vn 0.000489 0.118222 -0.993161
vn -0.858329 0.129946 0.495848
vn -0.865169 0.052760 0.499756
vn -0.860283 0.118222 0.496825
vn -0.860283 0.118222 0.496825
vn -0.496825 0.118222 0.860283
vn -0.496825 0.118222 0.860283
vn -0.499756 0.052760 0.865169
vn 0.000489 0.052760 0.999023
vn 0.000489 0.118222 0.993161
vn -0.495848 0.129946 0.858329
vn 0.000489 0.118222 0.993161
vn 0.000489 0.129946 0.991207
vn 0.495848 0.129946 -0.858329
vn 0.499756 -0.000000 -0.866146
vn 0.499756 -0.000000 -0.866146
vn 0.499756 -0.000000 -0.866146
vn 0.866146 -0.000000 -0.499756
vn 0.499756 -0.000000 -0.866146
vn 0.866146 -0.000000 -0.499756
vn 0.866146 -0.000000 -0.499756
vn 0.866146 -0.000000 -0.499756
vn 1.000000 -0.000000 -0.000489
vn 1.000000 -0.000000 -0.000489
vn 1.000000 -0.000000 -0.000489
vn 1.000000 -0.000000 -0.000489
vn 0.866146 -0.000000 0.499756
vn 1.000000 -0.000000 -0.000489
vn 0.499756 -0.000000 0.866146
vn 0.499756 -0.000000 0.866146
vn 0.866146 -0.000000 0.499756
vn 0.499756 -0.000000 0.866146
vn 0.499756 -0.000000 0.866146
vn 0.866146 -0.000000 0.499756
vn 1.000000 -0.000000 -0.000489
vn 1.000000 -0.000000 -0.000489
vn 0.866146 -0.000000 0.499756
vn 1.000000 -0.000000 -0.000489
vn 0.499756 0.052760 -0.865169
vn 0.496825 0.118222 -0.860283
vn 0.865169 0.052760 -0.499756
vn 0.496825 0.118222 -0.860283
vn 0.860283 0.118222 -0.496825
vn 0.858329 0.129946 -0.495848
vn 0.860283 0.118222 -0.496825
vn 0.999023 0.052760 -0.000489
vn 0.993161 0.118222 -0.000489
vn 0.993161 0.118222 -0.000489
vn 0.991207 0.129946 -0.000489
vn 0.858329 0.129946 0.495848
vn 0.496825 0.118222 0.860283
vn 0.499756 0.052760 0.865169
vn 0.860283 0.118222 0.496825
vn 0.496825 0.118222 0.860283
vn 0.495848 0.129946 0.858329
vn 0.000489 0.118222 0.993161
vn 0.000489 0.129946 0.991207
vn 0.999023 0.052760 -0.000489
vn 0.865169 0.052760 0.499756
vn 0.993161 0.118222 -0.000489
vn 0.993161 0.118222 -0.000489
vn 0.858329 0.129946 0.495848
vn 0.496825 0.118222 0.860283
f 35/35/35 36/36/36 37/37/37
f 36/36/36 35/35/35 39/39/39
f 41/41/41 37/37/37 36/36/36
f 39/39/39 35/35/35 45/45/45
f 37/37/37 41/41/41 42/42/42
f 48/48/48 45/45/45 35/35/35
f 41/41/41 44/44/44 42/42/42
f 49/49/49 45/45/45 48/48/48
f 43/43/43 44/44/44 41/41/41
f 45/45/45 49/49/49 54/54/54
f 55/55/55 54/54/54 49/49/49
f 54/54/54 55/55/55 56/56/56
f 57/57/57 44/44/44 43/43/43
f 44/44/44 57/57/57 85/85/85
f 87/87/87 85/85/85 57/57/57
f 85/85/85 87/87/87 88/88/88
f 87/87/87 90/90/90 88/88/88
f 90/90/90 87/87/87 92/92/92
f 93/93/93 90/90/90 92/92/92
f 97/97/97 93/93/93 98/98/98
f 97/97/97 98/98/98 99/99/99
f 99/99/99 98/98/98 100/100/100
f 1/1/1 2/2/2 3/3/3
f 2/2/2 6/6/6 3/3/3
f 19/19/19 3/3/3 6/6/6
f 2/2/2 5/5/5 6/6/6
f 3/3/3 19/19/19 18/18/18
f 18/18/18 19/19/19 20/20/20
f 18/18/18 9/9/9 3/3/3
f 1/1/1 3/3/3 9/9/9
f 18/18/18 20/20/20 21/21/21
f 21/21/21 20/20/20 26/26/26
f 9/9/9 18/18/18 17/17/17
f 17/17/17 18/18/18 21/21/21
f 8/8/8 1/1/1 9/9/9
f 17/17/17 11/11/11 9/9/9
f 8/8/8 9/9/9 11/11/11
f 17/17/17 21/21/21 23/23/23
f 26/26/26 25/25/25 21/21/21
f 23/23/23 21/21/21 25/25/25
f 26/26/26 72/72/72 25/25/25
f 72/72/72 26/26/26 75/75/75
f 77/77/77 72/72/72 75/75/75
f 11/11/11 17/17/17 22/22/22
f 22/22/22 17/17/17 23/23/23
f 22/22/22 33/33/33 11/11/11
f 78/78/78 77/77/77 79/79/79
f 77/77/77 78/78/78 74/74/74
f 72/72/72 77/77/77 74/74/74
f 71/71/71 74/74/74 78/78/78
f 74/74/74 73/73/73 72/72/72
f 72/72/72 73/73/73 25/25/25
f 74/74/74 71/71/71 70/70/70
f 73/73/73 74/74/74 70/70/70
f 69/69/69 70/70/70 71/71/71
f 25/25/25 73/73/73 27/27/27
f 25/25/25 27/27/27 23/23/23
f 70/70/70 76/76/76 73/73/73
f 76/76/76 27/27/27 73/73/73
f 70/70/70 69/69/69 80/80/80
f 76/76/76 70/70/70 80/80/80
f 101/101/101 80/80/80 69/69/69
f 80/80/80 101/101/101 102/102/102
f 80/80/80 95/95/95 76/76/76
f 95/95/95 80/80/80 102/102/102
f 101/101/101 96/96/96 102/102/102
f 96/96/96 95/95/95 102/102/102
f 101/101/101 103/103/103 96/96/96
f 95/95/95 96/96/96 94/94/94
f 96/96/96 105/105/105 106/106/106
f 104/104/104 105/105/105 96/96/96
f 94/94/94 52/52/52 95/95/95
f 52/52/52 94/94/94 53/53/53
f 52/52/52 53/53/53 50/50/50
f 28/28/28 95/95/95 52/52/52
f 76/76/76 95/95/95 28/28/28
f 27/27/27 76/76/76 28/28/28
f 28/28/28 52/52/52 51/51/51
f 50/50/50 51/51/51 52/52/52
f 27/27/27 28/28/28 24/24/24
f 24/24/24 28/28/28 51/51/51
f 24/24/24 23/23/23 27/27/27
f 22/22/22 23/23/23 24/24/24
f 46/46/46 24/24/24 51/51/51
f 46/46/46 22/22/22 24/24/24
f 50/50/50 46/46/46 51/51/51
f 46/46/46 50/50/50 47/47/47
f 33/33/33 22/22/22 46/46/46
f 46/46/46 47/47/47 33/33/33
f 38/38/38 33/33/33 47/47/47
f 32/32/32 33/33/33 38/38/38
f 32/32/32 30/30/30 33/33/33
f 30/30/30 11/11/11 33/33/33
f 34/34/34 30/30/30 32/32/32
f 30/30/30 8/8/8 11/11/11
f 34/34/34 31/31/31 30/30/30
f 31/31/31 8/8/8 30/30/30
f 34/34/34 29/29/29 31/31/31
f 29/29/29 34/34/34 40/40/40
f 31/31/31 10/10/10 8/8/8
f 31/31/31 29/29/29 10/10/10
f 10/10/10 1/1/1 8/8/8
f 83/83/83 29/29/29 40/40/40
f 10/10/10 7/7/7 1/1/1
f 7/7/7 2/2/2 1/1/1
f 29/29/29 16/16/16 10/10/10
f 16/16/16 7/7/7 10/10/10
f 29/29/29 83/83/83 82/82/82
f 29/29/29 82/82/82 16/16/16
f 86/86/86 82/82/82 83/83/83
f 7/7/7 4/4/4 2/2/2
f 4/4/4 5/5/5 2/2/2
f 4/4/4 13/13/13 5/5/5
f 15/15/15 4/4/4 7/7/7
f 7/7/7 16/16/16 15/15/15
f 12/12/12 13/13/13 4/4/4
f 4/4/4 15/15/15 12/12/12
f 13/13/13 12/12/12 14/14/14
f 15/15/15 16/16/16 62/62/62
f 82/82/82 62/62/62 16/16/16
f 59/59/59 12/12/12 15/15/15
f 62/62/62 59/59/59 15/15/15
f 58/58/58 14/14/14 12/12/12
f 12/12/12 59/59/59 58/58/58
f 14/14/14 58/58/58 60/60/60
f 62/62/62 82/82/82 84/84/84
f 82/82/82 86/86/86 84/84/84
f 86/86/86 89/89/89 84/84/84
f 89/89/89 86/86/86 91/91/91
f 81/81/81 84/84/84 89/89/89
f 84/84/84 63/63/63 62/62/62
f 84/84/84 81/81/81 63/63/63
f 59/59/59 62/62/62 63/63/63
f 68/68/68 63/63/63 81/81/81
f 63/63/63 64/64/64 59/59/59
f 63/63/63 68/68/68 64/64/64
f 58/58/58 59/59/59 64/64/64
f 67/67/67 64/64/64 68/68/68
f 64/64/64 61/61/61 58/58/58
f 64/64/64 67/67/67 61/61/61
f 61/61/61 60/60/60 58/58/58
f 66/66/66 61/61/61 67/67/67
f 60/60/60 61/61/61 65/65/65
f 61/61/61 66/66/66 65/65/65
