# Generated from Roblox mesh JSON (v7.00)
# Hello from RBX_Toolbox ;)
o LeftUpperLeg
v 0.008958 -0.309301 -0.039477
v 0.008958 -0.348063 -0.039477
v 0.003762 -0.348063 -0.020083
v 0.008958 -0.229926 -0.039477
v 0.003762 -0.309301 -0.020083
v 0.008958 -0.151975 -0.039477
v 0.003762 -0.229926 -0.020083
v 0.003762 -0.151975 -0.020083
v 0.008958 -0.080116 -0.039477
v -0.081738 -0.021693 -0.352998
v -0.312526 -0.019587 0.056556
v -0.322970 -0.016076 -0.325470
v -0.081738 -0.021693 -0.352998
v -0.322970 -0.016076 -0.325470
v -0.295589 -0.014258 -0.353179
v 0.231959 -0.030461 -0.346624
v 0.003762 -0.019018 -0.020083
v 0.023156 -0.019018 -0.053674
v 0.008958 -0.019018 -0.039477
v 0.003762 -0.080116 -0.020083
v 0.023156 -0.309301 -0.053674
v 0.023156 -0.229926 -0.053674
v 0.023156 -0.348063 -0.053674
v 0.042551 -0.309301 -0.058871
v 0.023156 -0.151975 -0.053674
v 0.023156 -0.080116 -0.053674
v 0.042551 -0.019018 -0.058871
v 0.008958 -0.151975 -0.000688
v 0.008958 -0.229926 -0.000688
v 0.008958 -0.348063 -0.000688
v 0.008958 -0.309301 -0.000688
v 0.008958 -0.080116 -0.000688
v 0.008958 -0.019018 -0.000688
v 0.023156 -0.019018 0.013510
v -0.032231 -0.018699 0.375728
v 0.023156 -0.151975 0.013510
v 0.023156 -0.309301 0.013510
v 0.023156 -0.229926 0.013510
v 0.023156 -0.348063 0.013510
v 0.042551 -0.229926 0.018705
v 0.042551 -0.348063 0.018705
v 0.023156 -0.080116 0.013510
v 0.042551 -0.019018 0.018705
v 0.042551 -0.151975 0.018705
v 0.042551 -0.080116 0.018705
v -0.312526 -0.019587 0.056556
v -0.032231 -0.018699 0.375728
v -0.156923 -0.009987 0.366584
v -0.355649 0.005680 -0.322611
v -0.369128 0.047335 -0.325059
v -0.351877 0.023499 -0.364803
v -0.322970 -0.016076 -0.325470
v -0.351877 0.023499 -0.364803
v -0.327840 0.032638 -0.383029
v -0.322918 0.001962 -0.374552
v -0.381100 0.031036 -0.154000
v -0.362705 -0.003043 0.172010
v -0.381043 0.348029 -0.373840
v -0.403770 0.348018 -0.350127
v -0.403642 0.348015 -0.153164
v -0.403770 0.348018 -0.350127
v -0.390587 0.059939 0.022454
v -0.400381 0.348033 0.117603
v -0.312526 -0.019587 0.056556
v -0.121421 -0.009267 -0.375413
v -0.295589 -0.014258 -0.353179
v 0.225298 -0.006095 -0.389797
v -0.081738 -0.021693 -0.352998
v -0.322918 0.001962 -0.374552
v -0.295589 -0.014258 -0.353179
v 0.029004 0.089845 -0.394941
v -0.167588 0.348022 -0.394155
v -0.288570 0.144900 -0.388001
v -0.281557 0.347435 -0.388378
v -0.283089 0.348030 -0.390943
v -0.374256 0.013695 0.282324
v -0.348622 0.001038 0.372905
v -0.300449 -0.012865 0.363747
v -0.369851 0.029841 0.365154
v -0.383813 0.067878 0.292983
v -0.354701 0.027797 0.380518
v -0.384129 0.348030 0.296675
v -0.362800 0.348063 0.357454
v -0.334738 0.348039 0.376370
v -0.348622 0.001038 0.372905
v -0.300449 -0.012865 0.363747
v -0.219895 0.017011 0.390689
v -0.300449 -0.012865 0.363747
v -0.156923 -0.009987 0.366584
v -0.032231 -0.018699 0.375728
v -0.354701 0.027797 0.380518
v 0.044419 0.015160 0.402046
v -0.268843 0.102747 0.390455
v -0.245053 0.348034 0.390209
v -0.334738 0.348039 0.376370
v 0.201159 0.105056 0.414979
v 0.042551 -0.229926 -0.058871
v 0.042551 -0.348063 -0.058871
v 0.061945 -0.309301 -0.053674
v 0.061945 -0.229926 -0.053674
v 0.061945 -0.348063 -0.053674
v 0.042551 -0.151975 -0.058871
v 0.042551 -0.080116 -0.058871
v 0.061945 -0.080116 -0.053674
v 0.061945 -0.151975 -0.053674
v 0.076143 -0.348063 -0.039477
v 0.076143 -0.229926 -0.039477
v 0.076143 -0.309301 -0.039477
v 0.081338 -0.348063 -0.020083
v 0.081338 -0.309301 -0.020083
v 0.081338 -0.229926 -0.020083
v 0.076143 -0.151975 -0.039477
v 0.076143 -0.080116 -0.039477
v 0.081338 -0.151975 -0.020083
v 0.081338 -0.080116 -0.020083
v 0.042551 -0.309301 0.018705
v 0.061945 -0.309301 0.013510
v 0.061945 -0.229926 0.013510
v 0.042551 -0.309301 0.018705
v 0.061945 -0.348063 0.013510
v 0.042551 -0.348063 0.018705
v 0.042551 -0.229926 0.018705
v 0.061945 -0.151975 0.013510
v 0.061945 -0.080116 0.013510
v 0.042551 -0.151975 0.018705
v 0.076143 -0.229926 -0.000688
v 0.076143 -0.309301 -0.000688
v 0.076143 -0.348063 -0.000688
v 0.076143 -0.151975 -0.000688
v 0.076143 -0.080116 -0.000688
v 0.076143 -0.019018 -0.039477
v 0.081338 -0.019018 -0.020083
v 0.061945 -0.019018 -0.053674
v 0.403487 -0.026576 -0.383515
v 0.231959 -0.030461 -0.346624
v 0.403760 0.006441 -0.400920
v 0.403740 -0.044834 -0.349182
v 0.270220 -0.027055 0.340043
v 0.231959 -0.030461 -0.346624
v 0.403740 -0.044834 -0.349182
v 0.231959 -0.030461 -0.346624
v 0.403487 -0.026576 -0.383515
v 0.247379 0.173051 -0.408929
v 0.403363 0.348024 -0.420700
v 0.403753 0.113995 0.418686
v 0.076143 -0.019018 -0.000688
v 0.061945 -0.019018 0.013510
v 0.042551 -0.080116 0.018705
v 0.042551 -0.019018 0.018705
v 0.270220 -0.027055 0.340043
v 0.150835 -0.014527 0.381495
v 0.150835 -0.014527 0.381495
v 0.403343 0.348037 0.420700
v 0.258773 0.012950 0.407190
v 0.267670 -0.011656 0.381431
v 0.403766 -0.029104 0.378256
v 0.403766 -0.029104 0.378256
v 0.267670 -0.011656 0.381431
v 0.403770 0.001210 0.410497
v 0.403766 -0.029104 0.378256
v 0.403753 0.113995 0.418686
vt 0.135498 0.964886
vt 0.135498 0.969573
vt 0.129883 0.969573
vt 0.135498 0.955511
vt 0.129883 0.964886
vt 0.135498 0.946136
vt 0.129883 0.955511
vt 0.129883 0.946136
vt 0.135498 0.937054
vt 0.224349 0.422063
vt 0.778674 0.826372
vt 0.216309 0.407715
vt 0.224349 0.422063
vt 0.216309 0.407715
vt 0.221310 0.403655
vt 0.223724 0.450588
vt 0.129883 0.927679
vt 0.141235 0.927679
vt 0.135498 0.927679
vt 0.129883 0.937054
vt 0.141235 0.964886
vt 0.141235 0.955511
vt 0.141235 0.969573
vt 0.146973 0.964886
vt 0.141235 0.946136
vt 0.141235 0.937054
vt 0.146973 0.927679
vt 0.124146 0.946136
vt 0.124146 0.955511
vt 0.124146 0.969573
vt 0.124146 0.964886
vt 0.124146 0.937054
vt 0.124146 0.927679
vt 0.118347 0.927679
vt 0.406136 0.663982
vt 0.118347 0.946136
vt 0.118347 0.964886
vt 0.118347 0.955511
vt 0.118347 0.969573
vt 0.112671 0.955511
vt 0.112671 0.969573
vt 0.118347 0.937054
vt 0.112671 0.927679
vt 0.112671 0.946136
vt 0.112671 0.937054
vt 0.778674 0.826372
vt 0.406136 0.663982
vt 0.769531 0.802246
vt 0.855392 0.165142
vt 0.855964 0.162487
vt 0.859383 0.164750
vt 0.854638 0.167843
vt 0.766361 0.013369
vt 0.764158 0.013972
vt 0.763910 0.011546
vt 0.839090 0.161190
vt 0.809548 0.162647
vt 0.768589 0.027412
vt 0.859321 0.150592
vt 0.840760 0.148627
vt 0.771178 0.027035
vt 0.823736 0.158163
vt 0.814185 0.145863
vt 0.819259 0.168121
vt 0.746436 0.009109
vt 0.762078 0.009634
vt 0.716136 0.008437
vt 0.744302 0.006457
vt 0.858887 0.167603
vt 0.858186 0.170820
vt 0.735490 0.013791
vt 0.748996 0.025032
vt 0.760272 0.018838
vt 0.760084 0.026132
vt 0.760254 0.026198
vt 0.799308 0.159726
vt 0.791527 0.161096
vt 0.790895 0.165966
vt 0.792480 0.158726
vt 0.798921 0.156272
vt 0.790492 0.159182
vt 0.798779 0.145375
vt 0.792222 0.145428
vt 0.789282 0.145441
vt 0.010063 0.793945
vt 0.008476 0.790527
vt 0.010956 0.785174
vt 0.778320 0.797705
vt 0.008759 0.782227
vt 0.008249 0.772091
vt 0.011555 0.794519
vt 0.011055 0.766661
vt 0.015067 0.788742
vt 0.022411 0.787512
vt 0.022727 0.794171
vt 0.015243 0.755096
vt 0.146973 0.955511
vt 0.146973 0.969573
vt 0.152710 0.964886
vt 0.152710 0.955511
vt 0.152710 0.969573
vt 0.146973 0.946136
vt 0.146973 0.937054
vt 0.152710 0.937054
vt 0.152710 0.946136
vt 0.158447 0.969573
vt 0.158447 0.955511
vt 0.158447 0.964886
vt 0.164185 0.969573
vt 0.164185 0.964886
vt 0.164185 0.955511
vt 0.158447 0.946136
vt 0.158447 0.937054
vt 0.164185 0.946136
vt 0.164185 0.937054
vt 0.112671 0.964886
vt 0.175659 0.964886
vt 0.175659 0.955511
vt 0.181396 0.964886
vt 0.175659 0.969573
vt 0.181396 0.969573
vt 0.181396 0.955511
vt 0.175659 0.946136
vt 0.175659 0.937054
vt 0.181396 0.946136
vt 0.169922 0.955511
vt 0.169922 0.964886
vt 0.169922 0.969573
vt 0.169922 0.946136
vt 0.169922 0.937054
vt 0.158447 0.927679
vt 0.164185 0.927679
vt 0.152710 0.927679
vt 0.697771 0.004938
vt 0.713457 0.003758
vt 0.697750 0.008250
vt 0.507048 0.188709
vt 0.408704 0.691729
vt 0.223724 0.450588
vt 0.507048 0.188709
vt 0.713457 0.003758
vt 0.697771 0.004938
vt 0.712443 0.017544
vt 0.697300 0.020702
vt 0.015571 0.739277
vt 0.169922 0.927679
vt 0.175659 0.927679
vt 0.181396 0.937054
vt 0.181396 0.927679
vt 0.408704 0.691729
vt 0.405303 0.680413
vt 0.008057 0.758855
vt 0.022200 0.739286
vt 0.011033 0.750492
vt 0.405029 0.691310
vt 0.405749 0.704102
vt 0.405749 0.704102
vt 0.008177 0.750088
vt 0.010216 0.739258
vt 0.007427 0.739258
vt 0.015571 0.739277
vn -0.866146 -0.000199 -0.499756
vn -0.866146 -0.000199 -0.499756
vn -1.000000 -0.000199 -0.000489
vn -0.866146 -0.000199 -0.499756
vn -1.000000 -0.000199 -0.000489
vn -0.866146 -0.000199 -0.499756
vn -1.000000 -0.000199 -0.000489
vn -1.000000 -0.000199 -0.000489
vn -0.866146 -0.000199 -0.499756
vn 0.122618 -0.944019 -0.306302
vn -0.166585 -0.986032 0.008305
vn -0.337567 -0.932295 -0.129458
vn 0.122618 -0.944019 -0.306302
vn -0.337567 -0.932295 -0.129458
vn -0.241817 -0.945973 -0.216414
vn 0.077675 -0.947928 -0.307279
vn -0.756717 0.653440 -0.000489
vn -0.378603 0.653440 -0.656082
vn -0.656082 0.653440 -0.378603
vn -1.000000 -0.000199 -0.000489
vn -0.499756 -0.000199 -0.866146
vn -0.499756 -0.000199 -0.866146
vn -0.499756 -0.000199 -0.866146
vn 0.000489 -0.000199 -1.000000
vn -0.499756 -0.000199 -0.866146
vn -0.499756 -0.000199 -0.866146
vn 0.000489 0.653440 -0.756717
vn -0.866146 -0.000199 0.499756
vn -0.866146 -0.000199 0.499756
vn -0.866146 -0.000199 0.499756
vn -0.866146 -0.000199 0.499756
vn -0.866146 -0.000199 0.499756
vn -0.656082 0.653440 0.378603
vn -0.378603 0.653440 0.656082
vn -0.013190 -0.882466 0.470445
vn -0.499756 -0.000199 0.866146
vn -0.499756 -0.000199 0.866146
vn -0.499756 -0.000199 0.866146
vn -0.499756 -0.000199 0.866146
vn 0.000489 -0.000199 1.000000
vn 0.000489 -0.000199 1.000000
vn -0.499756 -0.000199 0.866146
vn 0.000489 0.653440 0.756717
vn 0.000489 -0.000199 1.000000
vn 0.000489 -0.000199 1.000000
vn -0.166585 -0.986032 0.008305
vn -0.013190 -0.882466 0.470445
vn -0.031754 -0.938157 0.345383
vn -0.764533 -0.618665 -0.180264
vn -0.964827 -0.193653 -0.179287
vn -0.745970 -0.593262 -0.302394
vn -0.337567 -0.932295 -0.129458
vn -0.745970 -0.593262 -0.302394
vn -0.297509 -0.159457 -0.941378
vn -0.251588 -0.690966 -0.677577
vn -0.930630 -0.362681 -0.043478
vn -0.588666 -0.808211 0.012213
vn -0.481192 -0.055890 -0.874939
vn -0.878847 -0.119398 -0.462628
vn -0.997069 -0.074454 -0.016121
vn -0.878847 -0.119398 -0.462628
vn -0.984367 -0.178020 0.000489
vn -0.999023 -0.027556 0.041524
vn -0.166585 -0.986032 0.008305
vn -0.021983 -0.605964 -0.794822
vn -0.241817 -0.945973 -0.216414
vn -0.046409 -0.547341 -0.835857
vn 0.122618 -0.944019 -0.306302
vn -0.251588 -0.690966 -0.677577
vn -0.241817 -0.945973 -0.216414
vn -0.035662 -0.084225 -0.996092
vn -0.039570 -0.017786 -0.999023
vn -0.041524 -0.027556 -0.999023
vn -0.097215 -0.321645 -0.942355
vn -0.035662 -0.978216 -0.205667
vn -0.852467 -0.519007 0.063019
vn -0.443087 -0.698782 0.562286
vn -0.090376 -0.908846 0.407914
vn -0.880801 -0.225895 0.415730
vn -0.991207 -0.077385 0.108940
vn -0.445042 -0.155548 0.881778
vn -0.976551 -0.004107 0.213483
vn -0.798730 0.017388 0.601368
vn -0.361016 0.028135 0.931607
vn -0.443087 -0.698782 0.562286
vn -0.090376 -0.908846 0.407914
vn -0.040547 -0.364635 0.930630
vn -0.090376 -0.908846 0.407914
vn -0.031754 -0.938157 0.345383
vn -0.013190 -0.882466 0.470445
vn -0.445042 -0.155548 0.881778
vn -0.033708 -0.339232 0.940401
vn -0.084514 -0.008015 0.996092
vn -0.096238 0.014456 0.995115
vn -0.361016 0.028135 0.931607
vn -0.032731 -0.042212 0.999023
vn 0.000489 -0.000199 -1.000000
vn 0.000489 -0.000199 -1.000000
vn 0.499756 -0.000199 -0.866146
vn 0.499756 -0.000199 -0.866146
vn 0.499756 -0.000199 -0.866146
vn 0.000489 -0.000199 -1.000000
vn 0.000489 -0.000199 -1.000000
vn 0.499756 -0.000199 -0.866146
vn 0.499756 -0.000199 -0.866146
vn 0.866146 -0.000199 -0.499756
vn 0.866146 -0.000199 -0.499756
vn 0.866146 -0.000199 -0.499756
vn 1.000000 -0.000199 -0.000489
vn 1.000000 -0.000199 -0.000489
vn 1.000000 -0.000199 -0.000489
vn 0.866146 -0.000199 -0.499756
vn 0.866146 -0.000199 -0.499756
vn 1.000000 -0.000199 -0.000489
vn 1.000000 -0.000199 -0.000489
vn 0.000489 -0.000199 1.000000
vn 0.499756 -0.000199 0.866146
vn 0.499756 -0.000199 0.866146
vn 0.000489 -0.000199 1.000000
vn 0.499756 -0.000199 0.866146
vn 0.000489 -0.000199 1.000000
vn 0.000489 -0.000199 1.000000
vn 0.499756 -0.000199 0.866146
vn 0.499756 -0.000199 0.866146
vn 0.000489 -0.000199 1.000000
vn 0.866146 -0.000199 0.499756
vn 0.866146 -0.000199 0.499756
vn 0.866146 -0.000199 0.499756
vn 0.866146 -0.000199 0.499756
vn 0.866146 -0.000199 0.499756
vn 0.656082 0.653440 -0.378603
vn 0.756717 0.653440 -0.000489
vn 0.378603 0.653440 -0.656082
vn 0.389350 -0.632344 -0.669761
vn 0.077675 -0.947928 -0.307279
vn 0.652174 -0.202446 -0.730337
vn 0.195896 -0.947928 -0.251588
vn -0.191011 -0.953790 0.230093
vn 0.077675 -0.947928 -0.307279
vn 0.195896 -0.947928 -0.251588
vn 0.077675 -0.947928 -0.307279
vn 0.389350 -0.632344 -0.669761
vn -0.039570 -0.053936 -0.998046
vn 0.682462 -0.029510 -0.730337
vn 0.384465 -0.363658 0.848559
vn 0.656082 0.653440 0.378603
vn 0.378603 0.653440 0.656082
vn 0.000489 -0.000199 1.000000
vn 0.000489 0.653440 0.756717
vn -0.191011 -0.953790 0.230093
vn -0.003420 -0.820912 0.571080
vn -0.003420 -0.820912 0.571080
vn 0.480215 0.208887 0.851490
vn -0.023937 -0.424234 0.905227
vn -0.039570 -0.846315 0.531021
vn 0.492916 -0.006061 0.870054
vn 0.492916 -0.006061 0.870054
vn -0.039570 -0.846315 0.531021
vn -0.171470 -0.596193 0.785051
vn 0.492916 -0.006061 0.870054
vn 0.384465 -0.363658 0.848559
f 49/49/49 50/50/50 51/51/51
f 51/51/51 50/50/50 59/59/59
f 59/59/59 50/50/50 60/60/60
f 51/51/51 52/52/52 49/49/49
f 51/51/51 69/69/69 52/52/52
f 70/70/70 52/52/52 69/69/69
f 52/52/52 57/57/57 49/49/49
f 52/52/52 64/64/64 57/57/57
f 78/78/78 57/57/57 64/64/64
f 78/78/78 77/77/77 57/57/57
f 49/49/49 56/56/56 50/50/50
f 57/57/57 56/56/56 49/49/49
f 50/50/50 56/56/56 60/60/60
f 77/77/77 76/76/76 57/57/57
f 57/57/57 76/76/76 56/56/56
f 62/62/62 60/60/60 56/56/56
f 56/56/56 76/76/76 62/62/62
f 60/60/60 62/62/62 63/63/63
f 63/63/63 62/62/62 80/80/80
f 76/76/76 80/80/80 62/62/62
f 82/82/82 63/63/63 80/80/80
f 80/80/80 83/83/83 82/82/82
f 76/76/76 79/79/79 80/80/80
f 83/83/83 80/80/80 79/79/79
f 77/77/77 79/79/79 76/76/76
f 83/83/83 79/79/79 84/84/84
f 81/81/81 79/79/79 77/77/77
f 84/84/84 79/79/79 81/81/81
f 1/1/1 2/2/2 3/3/3
f 1/1/1 3/3/3 5/5/5
f 5/5/5 3/3/3 30/30/30
f 2/2/2 1/1/1 21/21/21
f 21/21/21 23/23/23 2/2/2
f 23/23/23 21/21/21 24/24/24
f 24/24/24 98/98/98 23/23/23
f 22/22/22 21/21/21 1/1/1
f 22/22/22 24/24/24 21/21/21
f 98/98/98 24/24/24 99/99/99
f 99/99/99 101/101/101 98/98/98
f 99/99/99 106/106/106 101/101/101
f 100/100/100 99/99/99 24/24/24
f 106/106/106 99/99/99 108/108/108
f 108/108/108 109/109/109 106/106/106
f 107/107/107 108/108/108 99/99/99
f 99/99/99 100/100/100 107/107/107
f 109/109/109 108/108/108 110/110/110
f 108/108/108 107/107/107 110/110/110
f 110/110/110 128/128/128 109/109/109
f 97/97/97 24/24/24 22/22/22
f 24/24/24 97/97/97 100/100/100
f 25/25/25 97/97/97 22/22/22
f 102/102/102 100/100/100 97/97/97
f 102/102/102 97/97/97 25/25/25
f 105/105/105 100/100/100 102/102/102
f 100/100/100 105/105/105 112/112/112
f 112/112/112 107/107/107 100/100/100
f 104/104/104 105/105/105 102/102/102
f 104/104/104 112/112/112 105/105/105
f 112/112/112 111/111/111 107/107/107
f 111/111/111 110/110/110 107/107/107
f 110/110/110 111/111/111 127/127/127
f 128/128/128 110/110/110 127/127/127
f 111/111/111 112/112/112 114/114/114
f 117/117/117 128/128/128 127/127/127
f 128/128/128 117/117/117 120/120/120
f 120/120/120 117/117/117 121/121/121
f 121/121/121 117/117/117 119/119/119
f 117/117/117 118/118/118 119/119/119
f 127/127/127 118/118/118 117/117/117
f 119/119/119 118/118/118 122/122/122
f 126/126/126 127/127/127 111/111/111
f 118/118/118 127/127/127 126/126/126
f 111/111/111 114/114/114 126/126/126
f 118/118/118 123/123/123 122/122/122
f 126/126/126 123/123/123 118/118/118
f 122/122/122 123/123/123 125/125/125
f 129/129/129 126/126/126 114/114/114
f 123/123/123 126/126/126 129/129/129
f 123/123/123 124/124/124 125/125/125
f 129/129/129 124/124/124 123/123/123
f 125/125/125 124/124/124 148/148/148
f 124/124/124 147/147/147 148/148/148
f 148/148/148 147/147/147 149/149/149
f 124/124/124 129/129/129 130/130/130
f 130/130/130 147/147/147 124/124/124
f 114/114/114 115/115/115 129/129/129
f 130/130/130 129/129/129 115/115/115
f 147/147/147 130/130/130 146/146/146
f 130/130/130 132/132/132 146/146/146
f 132/132/132 147/147/147 146/146/146
f 132/132/132 130/130/130 115/115/115
f 147/147/147 132/132/132 43/43/43
f 115/115/115 114/114/114 113/113/113
f 112/112/112 113/113/113 114/114/114
f 113/113/113 112/112/112 104/104/104
f 113/113/113 131/131/131 115/115/115
f 132/132/132 115/115/115 131/131/131
f 131/131/131 113/113/113 104/104/104
f 133/133/133 132/132/132 131/131/131
f 104/104/104 133/133/133 131/131/131
f 27/27/27 132/132/132 133/133/133
f 133/133/133 104/104/104 27/27/27
f 27/27/27 43/43/43 132/132/132
f 46/46/46 47/47/47 48/48/48
f 48/48/48 88/88/88 46/46/46
f 47/47/47 138/138/138 151/151/151
f 151/151/151 138/138/138 155/155/155
f 138/138/138 156/156/156 155/155/155
f 137/137/137 138/138/138 139/139/139
f 156/156/156 145/145/145 159/159/159
f 159/159/159 158/158/158 160/160/160
f 159/159/159 154/154/154 158/158/158
f 145/145/145 154/154/154 159/159/159
f 158/158/158 154/154/154 152/152/152
f 152/152/152 154/154/154 92/92/92
f 92/92/92 90/90/90 152/152/152
f 145/145/145 96/96/96 154/154/154
f 96/96/96 92/92/92 154/154/154
f 153/153/153 96/96/96 145/145/145
f 96/96/96 153/153/153 94/94/94
f 145/145/145 144/144/144 153/153/153
f 137/137/137 144/144/144 145/145/145
f 87/87/87 90/90/90 92/92/92
f 87/87/87 89/89/89 90/90/90
f 93/93/93 92/92/92 96/96/96
f 93/93/93 96/96/96 94/94/94
f 93/93/93 87/87/87 92/92/92
f 87/87/87 86/86/86 89/89/89
f 85/85/85 86/86/86 87/87/87
f 87/87/87 91/91/91 85/85/85
f 91/91/91 87/87/87 93/93/93
f 93/93/93 94/94/94 91/91/91
f 91/91/91 94/94/94 95/95/95
f 144/144/144 137/137/137 136/136/136
f 136/136/136 137/137/137 134/134/134
f 136/136/136 143/143/143 144/144/144
f 67/67/67 136/136/136 134/134/134
f 136/136/136 67/67/67 143/143/143
f 67/67/67 134/134/134 135/135/135
f 135/135/135 68/68/68 67/67/67
f 143/143/143 71/71/71 144/144/144
f 67/67/67 71/71/71 143/143/143
f 71/71/71 72/72/72 144/144/144
f 65/65/65 67/67/67 68/68/68
f 67/67/67 65/65/65 71/71/71
f 66/66/66 65/65/65 68/68/68
f 66/66/66 55/55/55 65/65/65
f 54/54/54 71/71/71 65/65/65
f 54/54/54 65/65/65 55/55/55
f 72/72/72 71/71/71 54/54/54
f 53/53/53 54/54/54 55/55/55
f 72/72/72 54/54/54 73/73/73
f 74/74/74 72/72/72 73/73/73
f 58/58/58 54/54/54 53/53/53
f 58/58/58 73/73/73 54/54/54
f 58/58/58 74/74/74 73/73/73
f 61/61/61 58/58/58 53/53/53
f 74/74/74 58/58/58 75/75/75
f 13/13/13 14/14/14 15/15/15
f 27/27/27 104/104/104 103/103/103
f 102/102/102 103/103/103 104/104/104
f 103/103/103 102/102/102 25/25/25
f 27/27/27 103/103/103 26/26/26
f 25/25/25 26/26/26 103/103/103
f 43/43/43 27/27/27 17/17/17
f 26/26/26 18/18/18 27/27/27
f 17/17/17 27/27/27 18/18/18
f 18/18/18 26/26/26 9/9/9
f 17/17/17 18/18/18 19/19/19
f 9/9/9 19/19/19 18/18/18
f 26/26/26 25/25/25 6/6/6
f 6/6/6 9/9/9 26/26/26
f 4/4/4 6/6/6 25/25/25
f 25/25/25 22/22/22 4/4/4
f 1/1/1 4/4/4 22/22/22
f 4/4/4 1/1/1 5/5/5
f 19/19/19 9/9/9 20/20/20
f 19/19/19 20/20/20 17/17/17
f 9/9/9 6/6/6 8/8/8
f 9/9/9 8/8/8 20/20/20
f 6/6/6 4/4/4 7/7/7
f 4/4/4 5/5/5 7/7/7
f 6/6/6 7/7/7 8/8/8
f 17/17/17 20/20/20 32/32/32
f 8/8/8 32/32/32 20/20/20
f 7/7/7 28/28/28 8/8/8
f 32/32/32 8/8/8 28/28/28
f 5/5/5 29/29/29 7/7/7
f 28/28/28 7/7/7 29/29/29
f 29/29/29 5/5/5 31/31/31
f 5/5/5 30/30/30 31/31/31
f 39/39/39 31/31/31 30/30/30
f 31/31/31 39/39/39 37/37/37
f 37/37/37 29/29/29 31/31/31
f 41/41/41 37/37/37 39/39/39
f 37/37/37 41/41/41 116/116/116
f 29/29/29 37/37/37 38/38/38
f 116/116/116 38/38/38 37/37/37
f 38/38/38 28/28/28 29/29/29
f 38/38/38 116/116/116 40/40/40
f 28/28/28 38/38/38 36/36/36
f 40/40/40 36/36/36 38/38/38
f 36/36/36 32/32/32 28/28/28
f 36/36/36 40/40/40 44/44/44
f 44/44/44 42/42/42 36/36/36
f 32/32/32 36/36/36 42/42/42
f 42/42/42 44/44/44 45/45/45
f 45/45/45 34/34/34 42/42/42
f 42/42/42 34/34/34 32/32/32
f 34/34/34 45/45/45 43/43/43
f 43/43/43 17/17/17 34/34/34
f 17/17/17 32/32/32 33/33/33
f 32/32/32 34/34/34 33/33/33
f 34/34/34 17/17/17 33/33/33
f 10/10/10 11/11/11 12/12/12
f 16/16/16 11/11/11 10/10/10
f 11/11/11 16/16/16 35/35/35
f 35/35/35 16/16/16 150/150/150
f 150/150/150 140/140/140 157/157/157
f 140/140/140 161/161/161 157/157/157
f 140/140/140 141/141/141 142/142/142
