# Generated from Roblox mesh JSON (v2.00)
# Hello from RBX_Toolbox ;)
o LeftUpperArm
v 0.101404 -0.197747 -0.176612
v 0.038914 -0.398797 -0.172433
v -0.153236 -0.299817 -0.268950
v -0.030526 -0.053247 -0.263625
v 0.118504 -0.439797 0.060575
v 0.038914 -0.398797 -0.172433
v 0.101404 -0.197747 -0.176612
v 0.156054 -0.257607 0.033453
v 0.038914 -0.398807 0.293586
v 0.118504 -0.439797 0.060575
v 0.156054 -0.257607 0.033453
v 0.101404 -0.197747 0.243520
v 0.038914 -0.398807 0.293586
v 0.101404 -0.197747 0.243520
v -0.030526 -0.053247 0.330533
v -0.153236 -0.299817 0.390101
v -0.345386 -0.200837 0.293586
v -0.153236 -0.299817 0.390101
v -0.030526 -0.053247 0.330533
v -0.162446 0.091253 0.243520
v -0.424966 -0.159837 0.060575
v -0.345386 -0.200837 0.293586
v -0.162446 0.091253 0.243520
v -0.217096 0.151103 0.033453
v -0.162446 0.091253 -0.176613
v -0.345386 -0.200837 -0.172434
v -0.424966 -0.159837 0.060575
v -0.217096 0.151103 0.033453
v -0.153236 -0.299817 -0.268950
v -0.345386 -0.200837 -0.172434
v -0.162446 0.091253 -0.176613
v -0.030526 -0.053247 -0.263625
v 0.200174 0.245743 -0.390101
v 0.200314 0.025133 -0.293097
v 0.101404 -0.197747 -0.176612
v -0.030526 -0.053247 -0.263625
v 0.156054 -0.257607 0.033453
v 0.101404 -0.197747 -0.176612
v 0.200314 0.025133 -0.293097
v 0.200364 -0.066237 -0.058908
v 0.101404 -0.197747 0.243520
v 0.156054 -0.257607 0.033453
v 0.200364 -0.066237 -0.058908
v 0.200314 0.025133 0.175280
v 0.101404 -0.197747 0.243520
v 0.200314 0.025133 0.175280
v 0.200174 0.245743 0.272285
v -0.030526 -0.053247 0.330533
v -0.162446 0.091253 0.243520
v -0.030526 -0.053247 0.330533
v 0.200174 0.245743 0.272285
v 0.200044 0.466333 0.175280
v -0.217096 0.151103 0.033453
v -0.162446 0.091253 0.243520
v 0.200044 0.466333 0.175280
v 0.199984 0.557713 -0.058908
v -0.162446 0.091253 -0.176613
v -0.217096 0.151103 0.033453
v 0.199984 0.557713 -0.058908
v 0.200044 0.466333 -0.293097
v -0.030526 -0.053247 -0.263625
v -0.162446 0.091253 -0.176613
v 0.200044 0.466333 -0.293097
v 0.200174 0.245743 -0.390101
v 0.200314 0.025133 -0.293097
v 0.200174 0.245743 -0.390101
v 0.293898 0.245773 -0.361751
v 0.293898 0.043940 -0.273164
v 0.200364 -0.066237 -0.058908
v 0.200314 0.025133 -0.293097
v 0.293898 0.043940 -0.273164
v 0.293898 -0.039708 -0.058908
v 0.200314 0.025133 0.175280
v 0.200364 -0.066237 -0.058908
v 0.293898 -0.039708 -0.058908
v 0.293898 0.043940 0.155347
v 0.200174 0.245743 0.272285
v 0.200314 0.025133 0.175280
v 0.293898 0.043940 0.155347
v 0.293898 0.245773 0.243934
v 0.200044 0.466333 0.175280
v 0.200174 0.245743 0.272285
v 0.293898 0.245773 0.243934
v 0.293898 0.447381 0.155126
v 0.199984 0.557713 -0.058908
v 0.200044 0.466333 0.175280
v 0.293898 0.447381 0.155126
v 0.293898 0.530832 -0.058908
v 0.200044 0.466333 -0.293097
v 0.199984 0.557713 -0.058908
v 0.293898 0.530832 -0.058908
v 0.293898 0.447381 -0.272944
v 0.200174 0.245743 -0.390101
v 0.200044 0.466333 -0.293097
v 0.293898 0.447381 -0.272944
v 0.293898 0.245773 -0.361751
v -0.153236 -0.299817 -0.268950
v 0.038914 -0.398797 -0.172433
v -0.004237 -0.478424 -0.168798
v -0.193651 -0.389405 -0.263808
v 0.038914 -0.398797 -0.172433
v 0.118504 -0.439797 0.060575
v 0.074220 -0.515298 0.060575
v -0.004237 -0.478424 -0.168798
v 0.118504 -0.439797 0.060575
v 0.038914 -0.398807 0.293586
v -0.004237 -0.478433 0.289950
v 0.074220 -0.515298 0.060575
v 0.038914 -0.398807 0.293586
v -0.153236 -0.299817 0.390101
v -0.193651 -0.389405 0.384961
v -0.004237 -0.478433 0.289950
v -0.153236 -0.299817 0.390101
v -0.345386 -0.200837 0.293586
v -0.383065 -0.300385 0.289950
v -0.193651 -0.389405 0.384961
v -0.345386 -0.200837 0.293586
v -0.424966 -0.159837 0.060575
v -0.461512 -0.263511 0.060575
v -0.383065 -0.300385 0.289950
v -0.424966 -0.159837 0.060575
v -0.345386 -0.200837 -0.172434
v -0.383065 -0.300385 -0.168799
v -0.461512 -0.263511 0.060575
v -0.345386 -0.200837 -0.172434
v -0.153236 -0.299817 -0.268950
v -0.193651 -0.389405 -0.263808
v -0.383065 -0.300385 -0.168799
v -0.004237 -0.478424 -0.168798
v -0.089234 -0.532814 -0.107322
v -0.230157 -0.472703 -0.176867
v -0.193651 -0.389405 -0.263808
v 0.074220 -0.515298 0.060575
v -0.030863 -0.557713 0.060576
v -0.089234 -0.532814 -0.107322
v -0.004237 -0.478424 -0.168798
v -0.004237 -0.478433 0.289950
v -0.089234 -0.532820 0.228474
v -0.030863 -0.557713 0.060576
v 0.074220 -0.515298 0.060575
v -0.193651 -0.389405 0.384961
v -0.230156 -0.472703 0.298019
v -0.089234 -0.532820 0.228474
v -0.004237 -0.478433 0.289950
v -0.383065 -0.300385 0.289950
v -0.371078 -0.412592 0.228474
v -0.230156 -0.472703 0.298019
v -0.193651 -0.389405 0.384961
v -0.461512 -0.263511 0.060575
v -0.429442 -0.387692 0.060576
v -0.371078 -0.412592 0.228474
v -0.383065 -0.300385 0.289950
v -0.383065 -0.300385 -0.168799
v -0.371078 -0.412592 -0.107322
v -0.429442 -0.387692 0.060576
v -0.461512 -0.263511 0.060575
v -0.193651 -0.389405 -0.263808
v -0.230157 -0.472703 -0.176867
v -0.371078 -0.412592 -0.107322
v -0.383065 -0.300385 -0.168799
v -0.089234 -0.532814 -0.107322
v -0.242033 -0.547376 0.060576
v -0.230157 -0.472703 -0.176867
v -0.030863 -0.557713 0.060576
v -0.242033 -0.547376 0.060576
v -0.089234 -0.532814 -0.107322
v -0.089234 -0.532820 0.228474
v -0.242033 -0.547376 0.060576
v -0.030863 -0.557713 0.060576
v -0.230156 -0.472703 0.298019
v -0.242033 -0.547376 0.060576
v -0.089234 -0.532820 0.228474
v -0.371078 -0.412592 0.228474
v -0.242033 -0.547376 0.060576
v -0.230156 -0.472703 0.298019
v -0.429442 -0.387692 0.060576
v -0.242033 -0.547376 0.060576
v -0.371078 -0.412592 0.228474
v -0.371078 -0.412592 -0.107322
v -0.242033 -0.547376 0.060576
v -0.429442 -0.387692 0.060576
v -0.230157 -0.472703 -0.176867
v -0.242033 -0.547376 0.060576
v -0.371078 -0.412592 -0.107322
v 0.293898 0.245773 -0.361751
v 0.381239 0.245523 -0.302174
v 0.381788 0.084056 -0.230313
v 0.293898 0.043940 -0.273164
v 0.293898 0.043940 -0.273164
v 0.381788 0.084056 -0.230313
v 0.382014 0.017524 -0.058908
v 0.293898 -0.039708 -0.058908
v 0.293898 -0.039708 -0.058908
v 0.382014 0.017524 -0.058908
v 0.381788 0.084056 0.112496
v 0.293898 0.043940 0.155347
v 0.293898 0.043940 0.155347
v 0.381788 0.084056 0.112496
v 0.381239 0.245523 0.184357
v 0.293898 0.245773 0.243934
v 0.293898 0.245773 0.243934
v 0.381239 0.245523 0.184357
v 0.380685 0.408134 0.113726
v 0.293898 0.447381 0.155126
v 0.293898 0.447381 0.155126
v 0.380685 0.408134 0.113726
v 0.380455 0.475835 -0.058908
v 0.293898 0.530832 -0.058908
v 0.293898 0.530832 -0.058908
v 0.380455 0.475835 -0.058908
v 0.380685 0.408134 -0.231544
v 0.293898 0.447381 -0.272944
v 0.293898 0.447381 -0.272944
v 0.380685 0.408134 -0.231544
v 0.381239 0.245523 -0.302174
v 0.293898 0.245773 -0.361751
v 0.381239 0.245523 -0.302174
v 0.461512 0.245738 -0.058908
v 0.381788 0.084056 -0.230313
v 0.381788 0.084056 -0.230313
v 0.461512 0.245738 -0.058908
v 0.382014 0.017524 -0.058908
v 0.382014 0.017524 -0.058908
v 0.461512 0.245738 -0.058908
v 0.381788 0.084056 0.112496
v 0.381788 0.084056 0.112496
v 0.461512 0.245738 -0.058908
v 0.381239 0.245523 0.184357
v 0.381239 0.245523 0.184357
v 0.461512 0.245738 -0.058908
v 0.380685 0.408134 0.113726
v 0.380685 0.408134 0.113726
v 0.461512 0.245738 -0.058908
v 0.380455 0.475835 -0.058908
v 0.380455 0.475835 -0.058908
v 0.461512 0.245738 -0.058908
v 0.380685 0.408134 -0.231544
v 0.380685 0.408134 -0.231544
v 0.461512 0.245738 -0.058908
v 0.381239 0.245523 -0.302174
vt 0.250488 0.650411
vt 0.250488 0.543824
vt 0.391698 0.543824
vt 0.390187 0.669385
vt 0.116942 0.543823
vt 0.250488 0.543824
vt 0.250488 0.650411
vt 0.120416 0.643722
vt 0.009147 0.543824
vt 0.116942 0.543823
vt 0.120416 0.643722
vt 0.009147 0.651039
vt 0.976771 0.543824
vt 0.976771 0.653303
vt 0.838242 0.666060
vt 0.837900 0.543824
vt 0.735081 0.543824
vt 0.837900 0.543824
vt 0.838242 0.666060
vt 0.735081 0.684416
vt 0.621078 0.543824
vt 0.735081 0.543824
vt 0.735081 0.684416
vt 0.616215 0.685857
vt 0.493035 0.684739
vt 0.493035 0.543824
vt 0.621078 0.543824
vt 0.616215 0.685857
vt 0.391698 0.543824
vt 0.493035 0.543824
vt 0.493035 0.684739
vt 0.390187 0.669385
vt 0.367520 0.766139
vt 0.250488 0.766139
vt 0.250488 0.650411
vt 0.390187 0.669385
vt 0.120416 0.643722
vt 0.250488 0.650411
vt 0.250488 0.766139
vt 0.140868 0.766139
vt 0.009147 0.651039
vt 0.120416 0.643722
vt 0.140868 0.766139
vt 0.009147 0.766139
vt 0.976771 0.653303
vt 0.976771 0.766139
vt 0.855258 0.766139
vt 0.838242 0.666060
vt 0.735081 0.684416
vt 0.838242 0.666060
vt 0.855258 0.766139
vt 0.735081 0.766139
vt 0.616215 0.685857
vt 0.735081 0.684416
vt 0.735081 0.766139
vt 0.595681 0.766139
vt 0.493035 0.684739
vt 0.616215 0.685857
vt 0.595681 0.766139
vt 0.493035 0.766139
vt 0.390187 0.669385
vt 0.493035 0.684739
vt 0.493035 0.766139
vt 0.367520 0.766139
vt 0.250292 0.769545
vt 0.250292 0.880307
vt 0.206835 0.880307
vt 0.206876 0.809230
vt 0.129114 0.769545
vt 0.250292 0.769545
vt 0.206876 0.809230
vt 0.129114 0.809216
vt 0.009621 0.769545
vt 0.129114 0.769545
vt 0.129114 0.809216
vt 0.052435 0.809230
vt 0.009621 0.880311
vt 0.009621 0.769545
vt 0.052435 0.809230
vt 0.052476 0.880309
vt 0.009621 0.991069
vt 0.009621 0.880311
vt 0.052476 0.880309
vt 0.052514 0.951311
vt 0.129118 0.991069
vt 0.009621 0.991069
vt 0.052514 0.951311
vt 0.129117 0.951295
vt 0.250292 0.991069
vt 0.129118 0.991069
vt 0.129117 0.951295
vt 0.206796 0.951311
vt 0.250292 0.880307
vt 0.250292 0.991069
vt 0.206796 0.951311
vt 0.206835 0.880307
vt 0.325498 0.894026
vt 0.266026 0.894025
vt 0.292378 0.869483
vt 0.325867 0.882870
vt 0.266026 0.894025
vt 0.266024 0.837572
vt 0.278809 0.837729
vt 0.292378 0.869483
vt 0.266024 0.837572
vt 0.266026 0.782298
vt 0.293108 0.806209
vt 0.278809 0.837729
vt 0.266026 0.782298
vt 0.326785 0.782297
vt 0.326902 0.793387
vt 0.293108 0.806209
vt 0.326785 0.782297
vt 0.385651 0.782299
vt 0.360391 0.806773
vt 0.326902 0.793387
vt 0.385651 0.782299
vt 0.385652 0.838564
vt 0.373959 0.838527
vt 0.360391 0.806773
vt 0.385652 0.838564
vt 0.385651 0.894025
vt 0.359660 0.870047
vt 0.373959 0.838527
vt 0.385651 0.894025
vt 0.325498 0.894026
vt 0.325867 0.882870
vt 0.359660 0.870047
vt 0.292378 0.869483
vt 0.301547 0.861130
vt 0.326074 0.870932
vt 0.325867 0.882870
vt 0.278809 0.837729
vt 0.291610 0.837886
vt 0.301547 0.861130
vt 0.292378 0.869483
vt 0.293108 0.806209
vt 0.302082 0.814815
vt 0.291610 0.837886
vt 0.278809 0.837729
vt 0.326902 0.793387
vt 0.326831 0.805432
vt 0.302082 0.814815
vt 0.293108 0.806209
vt 0.360391 0.806773
vt 0.351358 0.815235
vt 0.326831 0.805432
vt 0.326902 0.793387
vt 0.373959 0.838527
vt 0.361295 0.838479
vt 0.351358 0.815235
vt 0.360391 0.806773
vt 0.359660 0.870047
vt 0.350823 0.861550
vt 0.361295 0.838479
vt 0.373959 0.838527
vt 0.325867 0.882870
vt 0.326074 0.870932
vt 0.350823 0.861550
vt 0.359660 0.870047
vt 0.301547 0.861130
vt 0.325208 0.838200
vt 0.326074 0.870932
vt 0.291610 0.837886
vt 0.325208 0.838200
vt 0.301547 0.861130
vt 0.302082 0.814815
vt 0.325208 0.838200
vt 0.291610 0.837886
vt 0.326831 0.805432
vt 0.325208 0.838200
vt 0.302082 0.814815
vt 0.351358 0.815235
vt 0.325208 0.838200
vt 0.326831 0.805432
vt 0.361295 0.838479
vt 0.325208 0.838200
vt 0.351358 0.815235
vt 0.350823 0.861550
vt 0.325208 0.838200
vt 0.361295 0.838479
vt 0.326074 0.870932
vt 0.325208 0.838200
vt 0.350823 0.861550
vt 0.206835 0.880307
vt 0.166337 0.880307
vt 0.166205 0.846405
vt 0.206876 0.809230
vt 0.206876 0.809230
vt 0.166205 0.846405
vt 0.129115 0.846456
vt 0.129114 0.809216
vt 0.129114 0.809216
vt 0.129115 0.846456
vt 0.092541 0.846405
vt 0.052435 0.809230
vt 0.052435 0.809230
vt 0.092541 0.846405
vt 0.092411 0.880308
vt 0.052476 0.880309
vt 0.052476 0.880309
vt 0.092411 0.880308
vt 0.092278 0.914452
vt 0.052514 0.951311
vt 0.052514 0.951311
vt 0.092278 0.914452
vt 0.129116 0.914502
vt 0.129117 0.951295
vt 0.129117 0.951295
vt 0.129116 0.914502
vt 0.166471 0.914452
vt 0.206796 0.951311
vt 0.206796 0.951311
vt 0.166471 0.914452
vt 0.166337 0.880307
vt 0.206835 0.880307
vt 0.166337 0.880307
vt 0.129116 0.880307
vt 0.166205 0.846405
vt 0.166205 0.846405
vt 0.129116 0.880307
vt 0.129115 0.846456
vt 0.129115 0.846456
vt 0.129116 0.880307
vt 0.092541 0.846405
vt 0.092541 0.846405
vt 0.129116 0.880307
vt 0.092411 0.880308
vt 0.092411 0.880308
vt 0.129116 0.880307
vt 0.092278 0.914452
vt 0.092278 0.914452
vt 0.129116 0.880307
vt 0.129116 0.914502
vt 0.129116 0.914502
vt 0.129116 0.880307
vt 0.166471 0.914452
vt 0.166471 0.914452
vt 0.129116 0.880307
vt 0.166337 0.880307
vn 0.646737 -0.347140 -0.679135
vn 0.708029 -0.230618 -0.667465
vn -0.033407 0.050327 -0.998174
vn -0.253214 0.008763 -0.967371
vn 0.972974 -0.228695 0.031936
vn 0.708029 -0.230618 -0.667465
vn 0.646737 -0.347140 -0.679135
vn 0.962344 -0.271301 0.017041
vn 0.740605 -0.081454 0.666985
vn 0.972974 -0.228695 0.031936
vn 0.962344 -0.271301 0.017041
vn 0.775483 -0.148958 0.613545
vn 0.740605 -0.081454 0.666985
vn 0.775483 -0.148958 0.613545
vn 0.088057 0.186388 0.978522
vn 0.084909 0.205397 0.974988
vn -0.576724 0.481834 0.659716
vn 0.084909 0.205397 0.974988
vn 0.088057 0.186388 0.978522
vn -0.554487 0.561405 0.614304
vn -0.831733 0.554924 0.016717
vn -0.576724 0.481834 0.659716
vn -0.554487 0.561405 0.614304
vn -0.759695 0.650162 0.012384
vn -0.686370 0.463611 -0.560322
vn -0.657365 0.402190 -0.637271
vn -0.831733 0.554924 0.016717
vn -0.759695 0.650162 0.012384
vn -0.033407 0.050327 -0.998174
vn -0.657365 0.402190 -0.637271
vn -0.686370 0.463611 -0.560322
vn -0.253214 0.008763 -0.967371
vn -0.501690 0.120429 -0.856624
vn 0.215215 -0.480970 -0.849912
vn 0.646737 -0.347140 -0.679135
vn -0.253214 0.008763 -0.967371
vn 0.962344 -0.271301 0.017041
vn 0.646737 -0.347140 -0.679135
vn 0.215215 -0.480970 -0.849912
vn 0.931479 -0.359807 -0.053715
vn 0.775483 -0.148958 0.613545
vn 0.962344 -0.271301 0.017041
vn 0.931479 -0.359807 -0.053715
vn 0.765787 -0.219671 0.604413
vn 0.775483 -0.148958 0.613545
vn 0.765787 -0.219671 0.604413
vn -0.072894 0.284467 0.955910
vn 0.088057 0.186388 0.978522
vn -0.554487 0.561405 0.614304
vn 0.088057 0.186388 0.978522
vn -0.072894 0.284467 0.955910
vn -0.581986 0.666498 0.465910
vn -0.759695 0.650162 0.012384
vn -0.554487 0.561405 0.614304
vn -0.581986 0.666498 0.465910
vn -0.716950 0.696117 -0.037456
vn -0.686370 0.463611 -0.560322
vn -0.759695 0.650162 0.012384
vn -0.716950 0.696117 -0.037456
vn -0.702092 0.527652 -0.478173
vn -0.253214 0.008763 -0.967371
vn -0.686370 0.463611 -0.560322
vn -0.702092 0.527652 -0.478173
vn -0.501690 0.120429 -0.856624
vn 0.280839 -0.695809 -0.661044
vn 0.289514 0.000703 -0.957173
vn 0.410651 -0.000021 -0.911793
vn 0.402580 -0.665544 -0.628474
vn 0.273077 -0.961992 -0.000000
vn 0.280839 -0.695809 -0.661044
vn 0.402580 -0.665544 -0.628474
vn 0.394394 -0.918942 -0.000000
vn 0.280839 -0.695809 0.661044
vn 0.273077 -0.961992 -0.000000
vn 0.394394 -0.918942 -0.000000
vn 0.402579 -0.665545 0.628474
vn 0.289514 0.000705 0.957174
vn 0.280839 -0.695809 0.661044
vn 0.402579 -0.665545 0.628474
vn 0.410650 -0.000019 0.911793
vn 0.282162 0.696159 0.660111
vn 0.289514 0.000705 0.957174
vn 0.410650 -0.000019 0.911793
vn 0.400250 0.666327 0.629133
vn 0.274939 0.961462 -0.000000
vn 0.282162 0.696159 0.660111
vn 0.400250 0.666327 0.629133
vn 0.391070 0.920361 -0.000000
vn 0.282163 0.696159 -0.660111
vn 0.274939 0.961462 -0.000000
vn 0.391070 0.920361 -0.000000
vn 0.400251 0.666327 -0.629133
vn 0.289514 0.000703 -0.957173
vn 0.282163 0.696159 -0.660111
vn 0.400251 0.666327 -0.629133
vn 0.410651 -0.000021 -0.911793
vn -0.054918 -0.040544 -0.997667
vn 0.625130 -0.369297 -0.687628
vn 0.442732 -0.631834 -0.636219
vn -0.170788 -0.337118 -0.925842
vn 0.625130 -0.369297 -0.687628
vn 0.867316 -0.497758 -0.000015
vn 0.671485 -0.741018 -0.000014
vn 0.442732 -0.631834 -0.636219
vn 0.867316 -0.497758 -0.000015
vn 0.625131 -0.369298 0.687626
vn 0.442723 -0.631843 0.636215
vn 0.671485 -0.741018 -0.000014
vn 0.625131 -0.369298 0.687626
vn -0.054926 -0.040540 0.997667
vn -0.170793 -0.337112 0.925843
vn 0.442723 -0.631843 0.636215
vn -0.054926 -0.040540 0.997667
vn -0.713589 0.245432 0.656166
vn -0.776199 -0.041691 0.629108
vn -0.170793 -0.337112 0.925843
vn -0.713589 0.245432 0.656166
vn -0.941472 0.337090 0.000000
vn -0.997653 0.068470 -0.000000
vn -0.776199 -0.041691 0.629108
vn -0.941472 0.337090 0.000000
vn -0.713588 0.245432 -0.656167
vn -0.776198 -0.041691 -0.629109
vn -0.997653 0.068470 -0.000000
vn -0.713588 0.245432 -0.656167
vn -0.054918 -0.040544 -0.997667
vn -0.170788 -0.337118 -0.925842
vn -0.776198 -0.041691 -0.629109
vn 0.442732 -0.631834 -0.636219
vn 0.078069 -0.909969 -0.407262
vn -0.335473 -0.732128 -0.592829
vn -0.170788 -0.337118 -0.925842
vn 0.671485 -0.741018 -0.000014
vn 0.237987 -0.971268 -0.000019
vn 0.078069 -0.909969 -0.407262
vn 0.442732 -0.631834 -0.636219
vn 0.442723 -0.631843 0.636215
vn 0.078051 -0.909976 0.407249
vn 0.237987 -0.971268 -0.000019
vn 0.671485 -0.741018 -0.000014
vn -0.170793 -0.337112 0.925843
vn -0.335487 -0.732122 0.592829
vn 0.078051 -0.909976 0.407249
vn 0.442723 -0.631843 0.636215
vn -0.776199 -0.041691 0.629108
vn -0.740102 -0.535158 0.407252
vn -0.335487 -0.732122 0.592829
vn -0.170793 -0.337112 0.925843
vn -0.997653 0.068470 -0.000000
vn -0.889519 -0.456898 0.000000
vn -0.740102 -0.535158 0.407252
vn -0.776199 -0.041691 0.629108
vn -0.776198 -0.041691 -0.629109
vn -0.740102 -0.535159 -0.407252
vn -0.889519 -0.456898 0.000000
vn -0.997653 0.068470 -0.000000
vn -0.170788 -0.337118 -0.925842
vn -0.335473 -0.732128 -0.592829
vn -0.740102 -0.535159 -0.407252
vn -0.776198 -0.041691 -0.629109
vn 0.078069 -0.909969 -0.407262
vn -0.380420 -0.924814 -0.000005
vn -0.335473 -0.732128 -0.592829
vn 0.237987 -0.971268 -0.000019
vn -0.380420 -0.924814 -0.000005
vn 0.078069 -0.909969 -0.407262
vn 0.078051 -0.909976 0.407249
vn -0.380420 -0.924814 -0.000005
vn 0.237987 -0.971268 -0.000019
vn -0.335487 -0.732122 0.592829
vn -0.380420 -0.924814 -0.000005
vn 0.078051 -0.909976 0.407249
vn -0.740102 -0.535158 0.407252
vn -0.380420 -0.924814 -0.000005
vn -0.335487 -0.732122 0.592829
vn -0.889519 -0.456898 0.000000
vn -0.380420 -0.924814 -0.000005
vn -0.740102 -0.535158 0.407252
vn -0.740102 -0.535159 -0.407252
vn -0.380420 -0.924814 -0.000005
vn -0.889519 -0.456898 0.000000
vn -0.335473 -0.732128 -0.592829
vn -0.380420 -0.924814 -0.000005
vn -0.740102 -0.535159 -0.407252
vn 0.410651 -0.000021 -0.911793
vn 0.762533 -0.000753 -0.646949
vn 0.755808 -0.477568 -0.447977
vn 0.402580 -0.665544 -0.628474
vn 0.402580 -0.665544 -0.628474
vn 0.755808 -0.477568 -0.447977
vn 0.749157 -0.662392 0.000000
vn 0.394394 -0.918942 -0.000000
vn 0.394394 -0.918942 -0.000000
vn 0.749157 -0.662392 0.000000
vn 0.755808 -0.477568 0.447977
vn 0.402579 -0.665545 0.628474
vn 0.402579 -0.665545 0.628474
vn 0.755808 -0.477568 0.447977
vn 0.762532 -0.000751 0.646950
vn 0.410650 -0.000019 0.911793
vn 0.410650 -0.000019 0.911793
vn 0.762532 -0.000751 0.646950
vn 0.755297 0.477265 0.449159
vn 0.400250 0.666327 0.629133
vn 0.400250 0.666327 0.629133
vn 0.755297 0.477265 0.449159
vn 0.748520 0.663112 -0.000000
vn 0.391070 0.920361 -0.000000
vn 0.391070 0.920361 -0.000000
vn 0.748520 0.663112 -0.000000
vn 0.755298 0.477264 -0.449159
vn 0.400251 0.666327 -0.629133
vn 0.400251 0.666327 -0.629133
vn 0.755298 0.477264 -0.449159
vn 0.762533 -0.000753 -0.646949
vn 0.410651 -0.000021 -0.911793
vn 0.762533 -0.000753 -0.646949
vn 0.999994 0.003508 0.000000
vn 0.755808 -0.477568 -0.447977
vn 0.755808 -0.477568 -0.447977
vn 0.999994 0.003508 0.000000
vn 0.749157 -0.662392 0.000000
vn 0.749157 -0.662392 0.000000
vn 0.999994 0.003508 0.000000
vn 0.755808 -0.477568 0.447977
vn 0.755808 -0.477568 0.447977
vn 0.999994 0.003508 0.000000
vn 0.762532 -0.000751 0.646950
vn 0.762532 -0.000751 0.646950
vn 0.999994 0.003508 0.000000
vn 0.755297 0.477265 0.449159
vn 0.755297 0.477265 0.449159
vn 0.999994 0.003508 0.000000
vn 0.748520 0.663112 -0.000000
vn 0.748520 0.663112 -0.000000
vn 0.999994 0.003508 0.000000
vn 0.755298 0.477264 -0.449159
vn 0.755298 0.477264 -0.449159
vn 0.999994 0.003508 0.000000
vn 0.762533 -0.000753 -0.646949
f 1/1/1 2/2/2 3/3/3
f 1/1/1 3/3/3 4/4/4
f 5/5/5 6/6/6 7/7/7
f 5/5/5 7/7/7 8/8/8
f 9/9/9 10/10/10 11/11/11
f 9/9/9 11/11/11 12/12/12
f 13/13/13 14/14/14 15/15/15
f 13/13/13 15/15/15 16/16/16
f 17/17/17 18/18/18 19/19/19
f 17/17/17 19/19/19 20/20/20
f 21/21/21 22/22/22 23/23/23
f 21/21/21 23/23/23 24/24/24
f 25/25/25 26/26/26 27/27/27
f 25/25/25 27/27/27 28/28/28
f 29/29/29 30/30/30 31/31/31
f 29/29/29 31/31/31 32/32/32
f 33/33/33 34/34/34 35/35/35
f 33/33/33 35/35/35 36/36/36
f 37/37/37 38/38/38 39/39/39
f 37/37/37 39/39/39 40/40/40
f 41/41/41 42/42/42 43/43/43
f 41/41/41 43/43/43 44/44/44
f 45/45/45 46/46/46 47/47/47
f 45/45/45 47/47/47 48/48/48
f 49/49/49 50/50/50 51/51/51
f 49/49/49 51/51/51 52/52/52
f 53/53/53 54/54/54 55/55/55
f 53/53/53 55/55/55 56/56/56
f 57/57/57 58/58/58 59/59/59
f 57/57/57 59/59/59 60/60/60
f 61/61/61 62/62/62 63/63/63
f 61/61/61 63/63/63 64/64/64
f 65/65/65 66/66/66 67/67/67
f 65/65/65 67/67/67 68/68/68
f 69/69/69 70/70/70 71/71/71
f 69/69/69 71/71/71 72/72/72
f 73/73/73 74/74/74 75/75/75
f 73/73/73 75/75/75 76/76/76
f 77/77/77 78/78/78 79/79/79
f 77/77/77 79/79/79 80/80/80
f 81/81/81 82/82/82 83/83/83
f 81/81/81 83/83/83 84/84/84
f 85/85/85 86/86/86 87/87/87
f 85/85/85 87/87/87 88/88/88
f 89/89/89 90/90/90 91/91/91
f 89/89/89 91/91/91 92/92/92
f 93/93/93 94/94/94 95/95/95
f 93/93/93 95/95/95 96/96/96
f 97/97/97 98/98/98 99/99/99
f 97/97/97 99/99/99 100/100/100
f 101/101/101 102/102/102 103/103/103
f 101/101/101 103/103/103 104/104/104
f 105/105/105 106/106/106 107/107/107
f 105/105/105 107/107/107 108/108/108
f 109/109/109 110/110/110 111/111/111
f 109/109/109 111/111/111 112/112/112
f 113/113/113 114/114/114 115/115/115
f 113/113/113 115/115/115 116/116/116
f 117/117/117 118/118/118 119/119/119
f 117/117/117 119/119/119 120/120/120
f 121/121/121 122/122/122 123/123/123
f 121/121/121 123/123/123 124/124/124
f 125/125/125 126/126/126 127/127/127
f 125/125/125 127/127/127 128/128/128
f 129/129/129 130/130/130 131/131/131
f 129/129/129 131/131/131 132/132/132
f 133/133/133 134/134/134 135/135/135
f 133/133/133 135/135/135 136/136/136
f 137/137/137 138/138/138 139/139/139
f 137/137/137 139/139/139 140/140/140
f 141/141/141 142/142/142 143/143/143
f 141/141/141 143/143/143 144/144/144
f 145/145/145 146/146/146 147/147/147
f 145/145/145 147/147/147 148/148/148
f 149/149/149 150/150/150 151/151/151
f 149/149/149 151/151/151 152/152/152
f 153/153/153 154/154/154 155/155/155
f 153/153/153 155/155/155 156/156/156
f 157/157/157 158/158/158 159/159/159
f 157/157/157 159/159/159 160/160/160
f 161/161/161 162/162/162 163/163/163
f 164/164/164 165/165/165 166/166/166
f 167/167/167 168/168/168 169/169/169
f 170/170/170 171/171/171 172/172/172
f 173/173/173 174/174/174 175/175/175
f 176/176/176 177/177/177 178/178/178
f 179/179/179 180/180/180 181/181/181
f 182/182/182 183/183/183 184/184/184
f 185/185/185 186/186/186 187/187/187
f 185/185/185 187/187/187 188/188/188
f 189/189/189 190/190/190 191/191/191
f 189/189/189 191/191/191 192/192/192
f 193/193/193 194/194/194 195/195/195
f 193/193/193 195/195/195 196/196/196
f 197/197/197 198/198/198 199/199/199
f 197/197/197 199/199/199 200/200/200
f 201/201/201 202/202/202 203/203/203
f 201/201/201 203/203/203 204/204/204
f 205/205/205 206/206/206 207/207/207
f 205/205/205 207/207/207 208/208/208
f 209/209/209 210/210/210 211/211/211
f 209/209/209 211/211/211 212/212/212
f 213/213/213 214/214/214 215/215/215
f 213/213/213 215/215/215 216/216/216
f 217/217/217 218/218/218 219/219/219
f 220/220/220 221/221/221 222/222/222
f 223/223/223 224/224/224 225/225/225
f 226/226/226 227/227/227 228/228/228
f 229/229/229 230/230/230 231/231/231
f 232/232/232 233/233/233 234/234/234
f 235/235/235 236/236/236 237/237/237
f 238/238/238 239/239/239 240/240/240
