# Generated from Roblox mesh JSON (v2.00)
# Hello from RBX_Toolbox ;)
o LeftLowerArm
v 0.373276 0.186349 -0.242634
v 0.332249 -0.149949 -0.303322
v 0.061547 -0.094311 -0.428964
v 0.181126 0.285329 -0.339151
v 0.444379 -0.172997 0.000001
v 0.332249 -0.149949 -0.303322
v 0.373276 0.186349 -0.242634
v 0.452866 0.145349 -0.009626
v 0.332249 -0.149949 0.303322
v 0.444379 -0.172997 0.000001
v 0.452866 0.145349 -0.009626
v 0.373276 0.186339 0.223384
v 0.332249 -0.149949 0.303322
v 0.373276 0.186339 0.223384
v 0.181126 0.285329 0.319900
v 0.061547 -0.094311 0.428963
v -0.209167 -0.038670 0.303322
v 0.061547 -0.094311 0.428963
v 0.181126 0.285329 0.319900
v -0.011024 0.384309 0.223384
v -0.321297 -0.015635 -0.000001
v -0.209167 -0.038670 0.303322
v -0.011024 0.384309 0.223384
v -0.090604 0.425310 -0.009626
v -0.209167 -0.038670 -0.303322
v -0.321297 -0.015635 -0.000001
v -0.090604 0.425310 -0.009626
v -0.011024 0.384309 -0.242635
v 0.061547 -0.094311 -0.428964
v -0.209167 -0.038670 -0.303322
v -0.011024 0.384309 -0.242635
v 0.181126 0.285329 -0.339151
v 0.061547 -0.094311 0.428963
v -0.209167 -0.038670 0.303322
v -0.366273 -0.274191 0.422257
v 0.010591 -0.351644 0.597160
v 0.010591 -0.351644 0.597160
v 0.387434 -0.429106 0.422257
v 0.332249 -0.149949 0.303322
v 0.061547 -0.094311 0.428963
v 0.444379 -0.172997 0.000001
v 0.332249 -0.149949 0.303322
v 0.387434 -0.429106 0.422257
v 0.543528 -0.461188 0.000001
v 0.332249 -0.149949 -0.303322
v 0.444379 -0.172997 0.000001
v 0.543528 -0.461188 0.000001
v 0.387434 -0.429106 -0.422257
v -0.209167 -0.038670 -0.303322
v 0.061547 -0.094311 -0.428964
v 0.010591 -0.351644 -0.597161
v -0.366273 -0.274191 -0.422257
v -0.321297 -0.015635 -0.000001
v -0.209167 -0.038670 -0.303322
v -0.366273 -0.274191 -0.422257
v -0.522367 -0.242121 -0.000001
v -0.209167 -0.038670 0.303322
v -0.321297 -0.015635 -0.000001
v -0.522367 -0.242121 -0.000001
v -0.366273 -0.274191 0.422257
v 0.387434 -0.429106 -0.422257
v 0.010591 -0.351644 -0.597161
v 0.061547 -0.094311 -0.428964
v 0.332249 -0.149949 -0.303322
v -0.000953 -0.409940 0.607936
v -0.384619 -0.331090 0.429876
v 0.004766 -0.381301 -0.000001
v 0.382691 -0.488801 0.429876
v -0.000953 -0.409940 0.607936
v 0.004766 -0.381301 -0.000001
v 0.541600 -0.521461 0.000001
v 0.382691 -0.488801 0.429876
v 0.004766 -0.381301 -0.000001
v 0.382691 -0.488801 -0.429877
v 0.541600 -0.521461 0.000001
v 0.004766 -0.381301 -0.000001
v -0.384619 -0.331090 -0.429877
v -0.000953 -0.409940 -0.607936
v 0.004766 -0.381301 -0.000001
v -0.543528 -0.298441 -0.000001
v -0.384619 -0.331090 -0.429877
v 0.004766 -0.381301 -0.000001
v -0.384619 -0.331090 0.429876
v -0.543528 -0.298441 -0.000001
v 0.004766 -0.381301 -0.000001
v -0.000953 -0.409940 -0.607936
v 0.382691 -0.488801 -0.429877
v 0.004766 -0.381301 -0.000001
v -0.366273 -0.274191 -0.422257
v 0.010591 -0.351644 -0.597161
v -0.000953 -0.409940 -0.607936
v -0.384619 -0.331090 -0.429877
v -0.522367 -0.242121 -0.000001
v -0.366273 -0.274191 -0.422257
v -0.384619 -0.331090 -0.429877
v -0.543528 -0.298441 -0.000001
v -0.366273 -0.274191 0.422257
v -0.522367 -0.242121 -0.000001
v -0.543528 -0.298441 -0.000001
v -0.384619 -0.331090 0.429876
v 0.010591 -0.351644 0.597160
v -0.366273 -0.274191 0.422257
v -0.384619 -0.331090 0.429876
v -0.000953 -0.409940 0.607936
v -0.000953 -0.409940 0.607936
v 0.382691 -0.488801 0.429876
v 0.387434 -0.429106 0.422257
v 0.010591 -0.351644 0.597160
v 0.543528 -0.461188 0.000001
v 0.387434 -0.429106 0.422257
v 0.382691 -0.488801 0.429876
v 0.541600 -0.521461 0.000001
v 0.387434 -0.429106 -0.422257
v 0.543528 -0.461188 0.000001
v 0.541600 -0.521461 0.000001
v 0.382691 -0.488801 -0.429877
v 0.382691 -0.488801 -0.429877
v -0.000953 -0.409940 -0.607936
v 0.010591 -0.351644 -0.597161
v 0.387434 -0.429106 -0.422257
v 0.373276 0.186349 -0.242634
v 0.181126 0.285329 -0.339151
v 0.215696 0.355238 -0.305548
v 0.388252 0.266351 -0.218874
v 0.452866 0.145349 -0.009626
v 0.373276 0.186349 -0.242634
v 0.388252 0.266351 -0.218874
v 0.459726 0.229532 -0.009626
v 0.373276 0.186339 0.223384
v 0.452866 0.145349 -0.009626
v 0.459726 0.229532 -0.009626
v 0.388252 0.266342 0.199624
v 0.181126 0.285329 0.319900
v 0.373276 0.186339 0.223384
v 0.388252 0.266342 0.199624
v 0.215696 0.355238 0.286298
v -0.011024 0.384309 0.223384
v 0.181126 0.285329 0.319900
v 0.215696 0.355238 0.286298
v 0.043140 0.444124 0.199624
v -0.090604 0.425310 -0.009626
v -0.011024 0.384309 0.223384
v 0.043140 0.444124 0.199624
v -0.028325 0.480943 -0.009626
v -0.011024 0.384309 -0.242635
v -0.090604 0.425310 -0.009626
v -0.028325 0.480943 -0.009626
v 0.043140 0.444124 -0.218875
v 0.181126 0.285329 -0.339151
v -0.011024 0.384309 -0.242635
v 0.043140 0.444124 -0.218875
v 0.215696 0.355238 -0.305548
v 0.215696 0.355238 -0.305548
v 0.246730 0.417997 -0.253189
v 0.388755 0.344838 -0.181851
v 0.388252 0.266351 -0.218874
v 0.388252 0.266351 -0.218874
v 0.388755 0.344838 -0.181851
v 0.447583 0.314533 -0.009626
v 0.459726 0.229532 -0.009626
v 0.459726 0.229532 -0.009626
v 0.447583 0.314533 -0.009626
v 0.388755 0.344829 0.162601
v 0.388252 0.266342 0.199624
v 0.388252 0.266342 0.199624
v 0.388755 0.344829 0.162601
v 0.246730 0.417997 0.233939
v 0.215696 0.355238 0.286298
v 0.215696 0.355238 0.286298
v 0.246730 0.417997 0.233939
v 0.104705 0.491157 0.162601
v 0.043140 0.444124 0.199624
v 0.043140 0.444124 0.199624
v 0.104705 0.491157 0.162601
v 0.045885 0.521461 -0.009625
v -0.028325 0.480943 -0.009626
v -0.028325 0.480943 -0.009626
v 0.045885 0.521461 -0.009625
v 0.104705 0.491157 -0.181852
v 0.043140 0.444124 -0.218875
v 0.043140 0.444124 -0.218875
v 0.104705 0.491157 -0.181852
v 0.246730 0.417997 -0.253189
v 0.215696 0.355238 -0.305548
v 0.246730 0.417997 -0.253189
v 0.276309 0.477807 -0.009625
v 0.388755 0.344838 -0.181851
v 0.388755 0.344838 -0.181851
v 0.276309 0.477807 -0.009625
v 0.447583 0.314533 -0.009626
v 0.447583 0.314533 -0.009626
v 0.276309 0.477807 -0.009625
v 0.388755 0.344829 0.162601
v 0.388755 0.344829 0.162601
v 0.276309 0.477807 -0.009625
v 0.246730 0.417997 0.233939
v 0.246730 0.417997 0.233939
v 0.276309 0.477807 -0.009625
v 0.104705 0.491157 0.162601
v 0.104705 0.491157 0.162601
v 0.276309 0.477807 -0.009625
v 0.045885 0.521461 -0.009625
v 0.045885 0.521461 -0.009625
v 0.276309 0.477807 -0.009625
v 0.104705 0.491157 -0.181852
v 0.104705 0.491157 -0.181852
v 0.276309 0.477807 -0.009625
v 0.246730 0.417997 -0.253189
vt 0.250488 0.543824
vt 0.250488 0.479531
vt 0.377844 0.454740
vt 0.391698 0.543824
vt 0.120030 0.473269
vt 0.250488 0.479531
vt 0.250488 0.543824
vt 0.116942 0.543823
vt 0.009147 0.476839
vt 0.120030 0.473269
vt 0.116942 0.543823
vt 0.009147 0.543824
vt 0.976771 0.479242
vt 0.976771 0.543824
vt 0.837900 0.543824
vt 0.852509 0.452278
vt 0.735081 0.443648
vt 0.852509 0.452278
vt 0.837900 0.543824
vt 0.735081 0.543824
vt 0.619389 0.432449
vt 0.735081 0.443648
vt 0.735081 0.543824
vt 0.621078 0.543824
vt 0.493035 0.444813
vt 0.619389 0.432449
vt 0.621078 0.543824
vt 0.493035 0.543824
vt 0.377844 0.454740
vt 0.493035 0.444813
vt 0.493035 0.543824
vt 0.391698 0.543824
vt 0.852509 0.452278
vt 0.735081 0.443648
vt 0.735081 0.390730
vt 0.871661 0.390730
vt 0.871661 0.390730
vt 0.976771 0.390731
vt 0.976771 0.479242
vt 0.852509 0.452278
vt 0.120030 0.473269
vt 0.009147 0.476839
vt 0.009147 0.390731
vt 0.124131 0.390731
vt 0.250488 0.479531
vt 0.120030 0.473269
vt 0.124131 0.390731
vt 0.250488 0.390731
vt 0.493035 0.444813
vt 0.377844 0.454740
vt 0.359160 0.390730
vt 0.493035 0.390730
vt 0.619389 0.432449
vt 0.493035 0.444813
vt 0.493035 0.390730
vt 0.617228 0.390730
vt 0.735081 0.443648
vt 0.619389 0.432449
vt 0.617228 0.390730
vt 0.735081 0.390730
vt 0.250488 0.390731
vt 0.359160 0.390730
vt 0.377844 0.454740
vt 0.250488 0.479531
vt 0.871746 0.008610
vt 0.991335 0.008610
vt 0.871839 0.119897
vt 0.752273 0.008610
vt 0.871746 0.008610
vt 0.871839 0.119897
vt 0.752273 0.119977
vt 0.752273 0.008610
vt 0.871839 0.119897
vt 0.752273 0.231184
vt 0.752273 0.119977
vt 0.871839 0.119897
vt 0.991335 0.231184
vt 0.871874 0.231184
vt 0.871839 0.119897
vt 0.991335 0.119863
vt 0.991335 0.231184
vt 0.871839 0.119897
vt 0.991335 0.008610
vt 0.991335 0.119863
vt 0.871839 0.119897
vt 0.871874 0.231184
vt 0.752273 0.231184
vt 0.871839 0.119897
vt 0.493035 0.390730
vt 0.359160 0.390730
vt 0.354927 0.375947
vt 0.493034 0.375947
vt 0.617228 0.390730
vt 0.493035 0.390730
vt 0.493034 0.375947
vt 0.616739 0.375947
vt 0.735081 0.390730
vt 0.617228 0.390730
vt 0.616739 0.375947
vt 0.735081 0.375947
vt 0.871661 0.390730
vt 0.735081 0.390730
vt 0.735081 0.375947
vt 0.875998 0.375946
vt 0.875998 0.375946
vt 0.976771 0.375946
vt 0.976771 0.390731
vt 0.871661 0.390730
vt 0.124131 0.390731
vt 0.009147 0.390731
vt 0.009147 0.375947
vt 0.125060 0.375947
vt 0.250488 0.390731
vt 0.124131 0.390731
vt 0.125060 0.375947
vt 0.250488 0.375947
vt 0.250488 0.375947
vt 0.354927 0.375947
vt 0.359160 0.390730
vt 0.250488 0.390731
vt 0.008962 0.247012
vt 0.068534 0.247010
vt 0.068457 0.251331
vt 0.029859 0.266407
vt 0.008960 0.302803
vt 0.008962 0.247012
vt 0.029859 0.266407
vt 0.013872 0.302803
vt 0.008962 0.358319
vt 0.008960 0.302803
vt 0.013872 0.302803
vt 0.029858 0.339199
vt 0.068534 0.358321
vt 0.008962 0.358319
vt 0.029858 0.339199
vt 0.068456 0.354275
vt 0.128696 0.358319
vt 0.068534 0.358321
vt 0.068456 0.354275
vt 0.107054 0.339199
vt 0.128698 0.302803
vt 0.128696 0.358319
vt 0.107054 0.339199
vt 0.123040 0.302803
vt 0.128696 0.247012
vt 0.128698 0.302803
vt 0.123040 0.302803
vt 0.107054 0.266407
vt 0.068534 0.247010
vt 0.128696 0.247012
vt 0.107054 0.266407
vt 0.068457 0.251331
vt 0.068457 0.251331
vt 0.068948 0.263216
vt 0.036553 0.274810
vt 0.029859 0.266407
vt 0.029859 0.266407
vt 0.036553 0.274810
vt 0.023135 0.302803
vt 0.013872 0.302803
vt 0.013872 0.302803
vt 0.023135 0.302803
vt 0.036552 0.330795
vt 0.029858 0.339199
vt 0.029858 0.339199
vt 0.036552 0.330795
vt 0.068948 0.342390
vt 0.068456 0.354275
vt 0.068456 0.354275
vt 0.068948 0.342390
vt 0.101343 0.330795
vt 0.107054 0.339199
vt 0.107054 0.339199
vt 0.101343 0.330795
vt 0.114760 0.302803
vt 0.123040 0.302803
vt 0.123040 0.302803
vt 0.114760 0.302803
vt 0.101343 0.274810
vt 0.107054 0.266407
vt 0.107054 0.266407
vt 0.101343 0.274810
vt 0.068948 0.263216
vt 0.068457 0.251331
vt 0.068948 0.263216
vt 0.066179 0.302803
vt 0.036553 0.274810
vt 0.036553 0.274810
vt 0.066179 0.302803
vt 0.023135 0.302803
vt 0.023135 0.302803
vt 0.066179 0.302803
vt 0.036552 0.330795
vt 0.036552 0.330795
vt 0.066179 0.302803
vt 0.068948 0.342390
vt 0.068948 0.342390
vt 0.066179 0.302803
vt 0.101343 0.330795
vt 0.101343 0.330795
vt 0.066179 0.302803
vt 0.114760 0.302803
vt 0.114760 0.302803
vt 0.066179 0.302803
vt 0.101343 0.274810
vt 0.101343 0.274810
vt 0.066179 0.302803
vt 0.068948 0.263216
vn 0.726188 0.027823 -0.686933
vn 0.740825 0.240048 -0.627339
vn 0.064217 0.399951 -0.914284
vn -0.004538 0.228794 -0.973464
vn 0.983642 0.180113 0.002824
vn 0.740825 0.240048 -0.627339
vn 0.726188 0.027823 -0.686933
vn 0.999300 -0.036918 -0.005987
vn 0.737496 0.254746 0.625463
vn 0.983642 0.180113 0.002824
vn 0.999300 -0.036918 -0.005987
vn 0.736597 0.060930 0.673581
vn 0.737496 0.254746 0.625463
vn 0.736597 0.060930 0.673581
vn 0.010926 0.269931 0.962818
vn 0.070544 0.417249 0.906050
vn -0.583846 0.539026 0.607104
vn 0.070544 0.417249 0.906050
vn 0.010926 0.269931 0.962818
vn -0.658457 0.429406 0.618097
vn -0.821235 0.570585 0.002305
vn -0.583846 0.539026 0.607104
vn -0.658457 0.429406 0.618097
vn -0.883374 0.468649 -0.004266
vn -0.593228 0.528693 -0.607095
vn -0.821235 0.570585 0.002305
vn -0.883374 0.468649 -0.004266
vn -0.666197 0.405147 -0.626129
vn 0.064217 0.399951 -0.914284
vn -0.593228 0.528693 -0.607095
vn -0.666197 0.405147 -0.626129
vn -0.004538 0.228794 -0.973464
vn 0.070544 0.417249 0.906050
vn -0.583846 0.539026 0.607104
vn -0.552189 0.570353 0.608100
vn 0.094923 0.457404 0.884178
vn 0.094923 0.457404 0.884178
vn 0.731976 0.313803 0.604764
vn 0.737496 0.254746 0.625463
vn 0.070544 0.417249 0.906050
vn 0.983642 0.180113 0.002824
vn 0.737496 0.254746 0.625463
vn 0.731976 0.313803 0.604764
vn 0.967839 0.251569 -0.000000
vn 0.740825 0.240048 -0.627339
vn 0.983642 0.180113 0.002824
vn 0.967839 0.251569 -0.000000
vn 0.731977 0.313802 -0.604763
vn -0.593228 0.528693 -0.607095
vn 0.064217 0.399951 -0.914284
vn 0.094923 0.457403 -0.884179
vn -0.552188 0.570352 -0.608101
vn -0.821235 0.570585 0.002305
vn -0.593228 0.528693 -0.607095
vn -0.552188 0.570352 -0.608101
vn -0.797068 0.603889 0.000000
vn -0.583846 0.539026 0.607104
vn -0.821235 0.570585 0.002305
vn -0.797068 0.603889 0.000000
vn -0.552189 0.570353 0.608100
vn 0.731977 0.313802 -0.604763
vn 0.094923 0.457403 -0.884179
vn 0.064217 0.399951 -0.914284
vn 0.740825 0.240048 -0.627339
vn -0.196325 -0.957691 0.210438
vn -0.351769 -0.924937 0.144047
vn -0.201315 -0.979527 0.000000
vn -0.041199 -0.988795 0.143479
vn -0.196325 -0.957691 0.210438
vn -0.201315 -0.979527 0.000000
vn 0.016543 -0.999863 -0.000000
vn -0.041199 -0.988795 0.143479
vn -0.201315 -0.979527 0.000000
vn -0.041199 -0.988795 -0.143479
vn 0.016543 -0.999863 -0.000000
vn -0.201315 -0.979527 0.000000
vn -0.351769 -0.924937 -0.144047
vn -0.196325 -0.957691 -0.210438
vn -0.201315 -0.979527 0.000000
vn -0.409680 -0.912229 0.000000
vn -0.351769 -0.924937 -0.144047
vn -0.201315 -0.979527 0.000000
vn -0.351769 -0.924937 0.144047
vn -0.409680 -0.912229 0.000000
vn -0.201315 -0.979527 0.000000
vn -0.196325 -0.957691 -0.210438
vn -0.041199 -0.988795 -0.143479
vn -0.201315 -0.979527 0.000000
vn -0.552188 0.570352 -0.608101
vn 0.094923 0.457403 -0.884179
vn -0.196325 -0.957691 -0.210438
vn -0.351769 -0.924937 -0.144047
vn -0.797068 0.603889 0.000000
vn -0.552188 0.570352 -0.608101
vn -0.351769 -0.924937 -0.144047
vn -0.409680 -0.912229 0.000000
vn -0.552189 0.570353 0.608100
vn -0.797068 0.603889 0.000000
vn -0.409680 -0.912229 0.000000
vn -0.351769 -0.924937 0.144047
vn 0.094923 0.457404 0.884178
vn -0.552189 0.570353 0.608100
vn -0.351769 -0.924937 0.144047
vn -0.196325 -0.957691 0.210438
vn -0.196325 -0.957691 0.210438
vn -0.041199 -0.988795 0.143479
vn 0.731976 0.313803 0.604764
vn 0.094923 0.457404 0.884178
vn 0.967839 0.251569 -0.000000
vn 0.731976 0.313803 0.604764
vn -0.041199 -0.988795 0.143479
vn 0.016543 -0.999863 -0.000000
vn 0.731977 0.313802 -0.604763
vn 0.967839 0.251569 -0.000000
vn 0.016543 -0.999863 -0.000000
vn -0.041199 -0.988795 -0.143479
vn -0.041199 -0.988795 -0.143479
vn -0.196325 -0.957691 -0.210438
vn 0.094923 0.457403 -0.884179
vn 0.731977 0.313802 -0.604763
vn 0.777032 0.041099 -0.628118
vn 0.184862 0.349996 -0.918329
vn 0.219754 0.427959 -0.876675
vn 0.790568 0.128300 -0.598784
vn 0.996697 -0.081215 0.000003
vn 0.777032 0.041099 -0.628118
vn 0.790568 0.128300 -0.598784
vn 0.999946 0.010413 -0.000001
vn 0.777033 0.041099 0.628117
vn 0.996697 -0.081215 0.000003
vn 0.999946 0.010413 -0.000001
vn 0.790568 0.128295 0.598784
vn 0.184874 0.349992 0.918329
vn 0.777033 0.041099 0.628117
vn 0.790568 0.128295 0.598784
vn 0.219761 0.427957 0.876674
vn -0.428103 0.640802 0.637260
vn 0.184874 0.349992 0.918329
vn 0.219761 0.427957 0.876674
vn -0.368063 0.706854 0.604059
vn -0.666200 0.745773 0.000000
vn -0.428103 0.640802 0.637260
vn -0.368063 0.706854 0.604059
vn -0.592778 0.805366 -0.000000
vn -0.428103 0.640801 -0.637261
vn -0.666200 0.745773 0.000000
vn -0.592778 0.805366 -0.000000
vn -0.368061 0.706853 -0.604061
vn 0.184862 0.349996 -0.918329
vn -0.428103 0.640801 -0.637261
vn -0.368061 0.706853 -0.604061
vn 0.219754 0.427959 -0.876675
vn 0.219754 0.427959 -0.876675
vn 0.369393 0.719703 -0.587858
vn 0.755862 0.514991 -0.404298
vn 0.790568 0.128300 -0.598784
vn 0.790568 0.128300 -0.598784
vn 0.755862 0.514991 -0.404298
vn 0.901320 0.433153 0.000008
vn 0.999946 0.010413 -0.000001
vn 0.999946 0.010413 -0.000001
vn 0.901320 0.433153 0.000008
vn 0.755867 0.514975 0.404308
vn 0.790568 0.128295 0.598784
vn 0.790568 0.128295 0.598784
vn 0.755867 0.514975 0.404308
vn 0.369406 0.719698 0.587855
vn 0.219761 0.427957 0.876674
vn 0.219761 0.427957 0.876674
vn 0.369406 0.719698 0.587855
vn -0.027060 0.912761 0.407597
vn -0.368063 0.706854 0.604059
vn -0.368063 0.706854 0.604059
vn -0.027060 0.912761 0.407597
vn -0.181868 0.983323 0.000000
vn -0.592778 0.805366 -0.000000
vn -0.592778 0.805366 -0.000000
vn -0.181868 0.983323 0.000000
vn -0.027059 0.912761 -0.407597
vn -0.368061 0.706853 -0.604061
vn -0.368061 0.706853 -0.604061
vn -0.027059 0.912761 -0.407597
vn 0.369393 0.719703 -0.587858
vn 0.219754 0.427959 -0.876675
vn 0.369393 0.719703 -0.587858
vn 0.457351 0.889286 0.000006
vn 0.755862 0.514991 -0.404298
vn 0.755862 0.514991 -0.404298
vn 0.457351 0.889286 0.000006
vn 0.901320 0.433153 0.000008
vn 0.901320 0.433153 0.000008
vn 0.457351 0.889286 0.000006
vn 0.755867 0.514975 0.404308
vn 0.755867 0.514975 0.404308
vn 0.457351 0.889286 0.000006
vn 0.369406 0.719698 0.587855
vn 0.369406 0.719698 0.587855
vn 0.457351 0.889286 0.000006
vn -0.027060 0.912761 0.407597
vn -0.027060 0.912761 0.407597
vn 0.457351 0.889286 0.000006
vn -0.181868 0.983323 0.000000
vn -0.181868 0.983323 0.000000
vn 0.457351 0.889286 0.000006
vn -0.027059 0.912761 -0.407597
vn -0.027059 0.912761 -0.407597
vn 0.457351 0.889286 0.000006
vn 0.369393 0.719703 -0.587858
f 1/1/1 2/2/2 3/3/3
f 1/1/1 3/3/3 4/4/4
f 5/5/5 6/6/6 7/7/7
f 5/5/5 7/7/7 8/8/8
f 9/9/9 10/10/10 11/11/11
f 9/9/9 11/11/11 12/12/12
f 13/13/13 14/14/14 15/15/15
f 13/13/13 15/15/15 16/16/16
f 17/17/17 18/18/18 19/19/19
f 17/17/17 19/19/19 20/20/20
f 21/21/21 22/22/22 23/23/23
f 21/21/21 23/23/23 24/24/24
f 25/25/25 26/26/26 27/27/27
f 25/25/25 27/27/27 28/28/28
f 29/29/29 30/30/30 31/31/31
f 29/29/29 31/31/31 32/32/32
f 33/33/33 34/34/34 35/35/35
f 33/33/33 35/35/35 36/36/36
f 37/37/37 38/38/38 39/39/39
f 37/37/37 39/39/39 40/40/40
f 41/41/41 42/42/42 43/43/43
f 41/41/41 43/43/43 44/44/44
f 45/45/45 46/46/46 47/47/47
f 45/45/45 47/47/47 48/48/48
f 49/49/49 50/50/50 51/51/51
f 49/49/49 51/51/51 52/52/52
f 53/53/53 54/54/54 55/55/55
f 53/53/53 55/55/55 56/56/56
f 57/57/57 58/58/58 59/59/59
f 57/57/57 59/59/59 60/60/60
f 61/61/61 62/62/62 63/63/63
f 61/61/61 63/63/63 64/64/64
f 65/65/65 66/66/66 67/67/67
f 68/68/68 69/69/69 70/70/70
f 71/71/71 72/72/72 73/73/73
f 74/74/74 75/75/75 76/76/76
f 77/77/77 78/78/78 79/79/79
f 80/80/80 81/81/81 82/82/82
f 83/83/83 84/84/84 85/85/85
f 86/86/86 87/87/87 88/88/88
f 89/89/89 90/90/90 91/91/91
f 89/89/89 91/91/91 92/92/92
f 93/93/93 94/94/94 95/95/95
f 93/93/93 95/95/95 96/96/96
f 97/97/97 98/98/98 99/99/99
f 97/97/97 99/99/99 100/100/100
f 101/101/101 102/102/102 103/103/103
f 101/101/101 103/103/103 104/104/104
f 105/105/105 106/106/106 107/107/107
f 105/105/105 107/107/107 108/108/108
f 109/109/109 110/110/110 111/111/111
f 109/109/109 111/111/111 112/112/112
f 113/113/113 114/114/114 115/115/115
f 113/113/113 115/115/115 116/116/116
f 117/117/117 118/118/118 119/119/119
f 117/117/117 119/119/119 120/120/120
f 121/121/121 122/122/122 123/123/123
f 121/121/121 123/123/123 124/124/124
f 125/125/125 126/126/126 127/127/127
f 125/125/125 127/127/127 128/128/128
f 129/129/129 130/130/130 131/131/131
f 129/129/129 131/131/131 132/132/132
f 133/133/133 134/134/134 135/135/135
f 133/133/133 135/135/135 136/136/136
f 137/137/137 138/138/138 139/139/139
f 137/137/137 139/139/139 140/140/140
f 141/141/141 142/142/142 143/143/143
f 141/141/141 143/143/143 144/144/144
f 145/145/145 146/146/146 147/147/147
f 145/145/145 147/147/147 148/148/148
f 149/149/149 150/150/150 151/151/151
f 149/149/149 151/151/151 152/152/152
f 153/153/153 154/154/154 155/155/155
f 153/153/153 155/155/155 156/156/156
f 157/157/157 158/158/158 159/159/159
f 157/157/157 159/159/159 160/160/160
f 161/161/161 162/162/162 163/163/163
f 161/161/161 163/163/163 164/164/164
f 165/165/165 166/166/166 167/167/167
f 165/165/165 167/167/167 168/168/168
f 169/169/169 170/170/170 171/171/171
f 169/169/169 171/171/171 172/172/172
f 173/173/173 174/174/174 175/175/175
f 173/173/173 175/175/175 176/176/176
f 177/177/177 178/178/178 179/179/179
f 177/177/177 179/179/179 180/180/180
f 181/181/181 182/182/182 183/183/183
f 181/181/181 183/183/183 184/184/184
f 185/185/185 186/186/186 187/187/187
f 188/188/188 189/189/189 190/190/190
f 191/191/191 192/192/192 193/193/193
f 194/194/194 195/195/195 196/196/196
f 197/197/197 198/198/198 199/199/199
f 200/200/200 201/201/201 202/202/202
f 203/203/203 204/204/204 205/205/205
f 206/206/206 207/207/207 208/208/208
