# Generated from Roblox mesh JSON (v4.01)
# Hello from RBX_Toolbox ;)
o LowerTorso
v -0.596526 0.153520 0.210793
v -0.404517 0.039026 0.347785
v -0.388627 0.122805 0.341753
v -0.120780 0.026069 0.365620
v -0.576763 0.191558 0.207782
v -0.641705 0.072631 0.240828
v -0.420406 -0.044754 0.353817
v -0.666969 -0.008259 0.270864
v -0.752026 -0.000056 0.126427
v -0.124986 -0.077948 0.361704
v -0.129191 -0.181965 0.357788
v -0.720461 0.079257 0.118015
v -0.746721 -0.000857 -0.117441
v -0.678176 0.158570 0.109604
v -0.713206 0.078139 -0.128056
v -0.690574 -0.001658 -0.205019
v -0.662403 0.077953 -0.216269
v -0.429303 -0.059610 -0.338947
v -0.679690 0.157136 -0.138671
v -0.653724 0.195776 0.103901
v 0.634233 0.157564 -0.227519
v 0.402035 0.123058 -0.361254
v 0.611796 0.194928 -0.229899
v 0.389295 0.161387 -0.361725
v 0.589426 0.234684 -0.232431
v 0.376702 0.202170 -0.362226
v 0.129892 0.107517 -0.367856
v 0.132205 0.057121 -0.367333
v 0.000298 0.083357 -0.355958
v 0.416820 0.031592 -0.350100
v 0.662403 0.077953 -0.216269
v 0.431605 -0.059873 -0.338947
v 0.690574 -0.001658 -0.205019
v 0.134690 0.009758 -0.366842
v 0.135953 -0.070189 -0.355485
v 0.137215 -0.150135 -0.344127
v 0.000450 0.040511 -0.354125
v 0.000593 0.000671 -0.352402
v 0.000872 -0.095900 -0.338911
v 0.001151 -0.192471 -0.325419
v -0.134913 -0.150135 -0.344127
v -0.134209 -0.070189 -0.355485
v -0.133505 0.009758 -0.366842
v -0.415076 0.031792 -0.350100
v -0.634233 0.157564 -0.227519
v -0.400849 0.123193 -0.361254
v -0.611796 0.194928 -0.229899
v -0.131306 0.057121 -0.367333
v -0.129296 0.107517 -0.367856
v -0.388396 0.161490 -0.361725
v -0.376106 0.202238 -0.362226
v -0.589426 0.234684 -0.232431
v -0.557158 0.232031 0.203742
v -0.629313 0.235364 0.097833
v -0.375541 0.162666 0.330004
v -0.362543 0.205079 0.317261
v -0.112849 0.131277 0.350392
v -0.654038 0.194209 -0.141981
v -0.628347 0.233656 -0.145503
v -0.116790 0.077041 0.358360
v 0.000298 0.111072 0.357233
v 0.000450 0.063739 0.362826
v 0.117966 0.077051 0.353804
v 0.114001 0.131298 0.347357
v 0.000593 0.019681 0.367856
v 0.121965 0.026069 0.359635
v 0.376440 0.162622 0.330004
v 0.363139 0.205050 0.317261
v 0.557754 0.232031 0.203742
v 0.389812 0.122746 0.341753
v 0.577662 0.191558 0.207782
v 0.653724 0.195776 0.103901
v 0.629313 0.235364 0.097833
v 0.597711 0.153520 0.210793
v 0.654038 0.194209 -0.141981
v 0.628347 0.233656 -0.145503
v 0.611796 0.194928 -0.229899
v 0.589426 0.234684 -0.232431
v 0.634233 0.157564 -0.227519
v 0.679690 0.157136 -0.138671
v 0.662403 0.077953 -0.216269
v 0.678176 0.158570 0.109604
v 0.713206 0.078139 -0.128056
v 0.690574 -0.001658 -0.205019
v 0.746721 -0.000857 -0.117441
v 0.720461 0.079257 0.118015
v 0.752026 -0.000056 0.126427
v 0.643442 0.072631 0.240828
v 0.669271 -0.008259 0.270864
v 0.420406 -0.044754 0.353817
v 0.405109 0.038996 0.347785
v 0.126729 -0.077948 0.352899
v 0.131493 -0.181965 0.346164
v 0.000872 -0.086170 0.359223
v 0.001151 -0.192021 0.350590
v -0.752026 -0.000056 0.126427
v -0.414366 -0.104849 0.068132
v -0.666969 -0.008259 0.270864
v -0.420406 -0.044754 0.353817
v -0.746721 -0.000857 -0.117441
v -0.126549 -0.224262 0.083785
v -0.129191 -0.181965 0.357788
v -0.419291 -0.104935 -0.092409
v -0.690574 -0.001658 -0.205019
v -0.429303 -0.059610 -0.338947
v -0.134913 -0.150135 -0.344127
v 0.001151 -0.192021 0.350590
v -0.127759 -0.226127 -0.075646
v 0.001151 -0.192471 -0.325419
v -0.000000 -0.233986 0.085647
v 0.131493 -0.181965 0.346164
v -0.000000 -0.235364 -0.071182
v 0.126549 -0.224262 0.083785
v 0.127759 -0.226127 -0.075646
v 0.137215 -0.150135 -0.344127
v 0.414366 -0.104849 0.068132
v 0.420406 -0.044754 0.353817
v 0.669271 -0.008259 0.270864
v 0.752026 -0.000056 0.126427
v 0.746721 -0.000857 -0.117441
v 0.419291 -0.104935 -0.092409
v 0.431605 -0.059873 -0.338947
v 0.690574 -0.001658 -0.205019
v -0.362543 0.205079 0.317261
v -0.112849 0.131277 0.350392
v 0.000333 0.177875 0.019956
v 0.000298 0.111072 0.357233
v -0.557158 0.232031 0.203742
v 0.114001 0.131298 0.347357
v -0.629313 0.235364 0.097833
v 0.363139 0.205050 0.317261
v -0.628347 0.233656 -0.145503
v 0.557754 0.232031 0.203742
v -0.589426 0.234684 -0.232431
v 0.629313 0.235364 0.097833
v -0.376106 0.202238 -0.362226
v 0.628347 0.233656 -0.145503
v -0.129296 0.107517 -0.367856
v 0.589426 0.234684 -0.232431
v 0.000298 0.083357 -0.355958
v 0.376702 0.202170 -0.362226
v 0.129892 0.107517 -0.367856
vt 0.500397 0.331869
vt 0.567402 0.295226
vt 0.567402 0.331869
vt 0.632442 0.331869
vt 0.500397 0.357874
vt 0.500397 0.295226
vt 0.567402 0.258582
vt 0.500397 0.258582
vt 0.451036 0.258582
vt 0.632442 0.295226
vt 0.632442 0.258582
vt 0.451036 0.295226
vt 0.378039 0.258582
vt 0.451036 0.331869
vt 0.378039 0.295226
vt 0.334996 0.258582
vt 0.334996 0.295226
vt 0.267081 0.258582
vt 0.378039 0.331869
vt 0.451036 0.357874
vt 0.005804 0.331869
vt 0.076013 0.331869
vt 0.005804 0.357874
vt 0.076013 0.357874
vt 0.005804 0.375004
vt 0.076014 0.375004
vt 0.138672 0.375004
vt 0.138672 0.357874
vt 0.171333 0.375004
vt 0.076014 0.295226
vt 0.005804 0.295226
vt 0.076014 0.258582
vt 0.005804 0.258582
vt 0.138672 0.331869
vt 0.138672 0.295226
vt 0.138672 0.258582
vt 0.171333 0.357874
vt 0.171333 0.331869
vt 0.171333 0.295226
vt 0.171333 0.258582
vt 0.203994 0.258582
vt 0.203994 0.295226
vt 0.203994 0.331869
vt 0.267081 0.295226
vt 0.334996 0.331869
vt 0.267081 0.331869
vt 0.334996 0.357874
vt 0.203994 0.357874
vt 0.203994 0.375004
vt 0.267081 0.357874
vt 0.267081 0.375004
vt 0.334996 0.375004
vt 0.500397 0.375004
vt 0.451036 0.375004
vt 0.567402 0.357874
vt 0.567402 0.375004
vt 0.632442 0.375004
vt 0.378039 0.357874
vt 0.378039 0.375004
vt 0.632442 0.357874
vt 0.666019 0.375004
vt 0.666019 0.357874
vt 0.699596 0.357874
vt 0.699596 0.375004
vt 0.666019 0.331869
vt 0.699596 0.331869
vt 0.764636 0.357874
vt 0.764636 0.375004
vt 0.829816 0.375004
vt 0.764636 0.331869
vt 0.829816 0.357874
vt 0.872868 0.357874
vt 0.872868 0.375004
vt 0.829816 0.331869
vt 0.952232 0.357874
vt 0.952232 0.375004
vt 0.994545 0.357874
vt 0.994545 0.375004
vt 0.994545 0.331869
vt 0.952232 0.331869
vt 0.994545 0.295226
vt 0.872868 0.331869
vt 0.952232 0.295226
vt 0.994545 0.258582
vt 0.952232 0.258582
vt 0.872868 0.295226
vt 0.872868 0.258582
vt 0.829816 0.295226
vt 0.829816 0.258582
vt 0.764636 0.258582
vt 0.764636 0.295226
vt 0.699596 0.295226
vt 0.699596 0.258582
vt 0.666019 0.295226
vt 0.666019 0.258582
vt 0.333693 0.083117
vt 0.267081 0.083117
vt 0.333693 0.023299
vt 0.267081 0.023299
vt 0.333693 0.189702
vt 0.203994 0.083117
vt 0.203994 0.023299
vt 0.267081 0.189702
vt 0.333693 0.257190
vt 0.267081 0.257190
vt 0.203994 0.257190
vt 0.171333 0.023299
vt 0.203994 0.189702
vt 0.171333 0.257190
vt 0.171333 0.083117
vt 0.138672 0.023299
vt 0.171333 0.189702
vt 0.138672 0.083117
vt 0.138672 0.189702
vt 0.138672 0.257190
vt 0.076013 0.083117
vt 0.076013 0.023299
vt 0.005804 0.023878
vt 0.005804 0.083117
vt 0.005804 0.189702
vt 0.076013 0.189702
vt 0.076013 0.257190
vt 0.005804 0.257190
vt 0.477406 0.242936
vt 0.442793 0.242936
vt 0.427836 0.186388
vt 0.427500 0.242936
vt 0.508598 0.242936
vt 0.412166 0.242936
vt 0.508598 0.203373
vt 0.377687 0.242936
vt 0.508598 0.169328
vt 0.347074 0.242936
vt 0.508598 0.128044
vt 0.347074 0.202055
vt 0.480788 0.128044
vt 0.347074 0.168006
vt 0.445793 0.128044
vt 0.347074 0.128044
vt 0.428224 0.128044
vt 0.375626 0.128044
vt 0.410667 0.128044
vn -0.577998 0.425883 0.696090
vn -0.209052 0.166124 0.963691
vn -0.247612 0.240678 0.938489
vn -0.028557 0.065806 0.997424
vn -0.588019 0.412294 0.695879
vn -0.579248 0.394088 0.713559
vn -0.322958 -0.469277 0.821874
vn -0.604054 -0.383307 0.698709
vn -0.894826 -0.368677 0.251720
vn -0.012135 -0.022270 0.999678
vn -0.165023 -0.670167 0.723633
vn -0.861350 0.441185 0.251858
vn -0.888320 -0.400442 -0.224797
vn -0.813867 0.511094 0.276410
vn -0.902524 0.342791 -0.260661
vn -0.668702 -0.448378 -0.593124
vn -0.688389 0.137636 -0.712164
vn -0.348061 -0.565868 -0.747427
vn -0.870057 0.438105 -0.225975
vn -0.801130 0.527977 0.281835
vn 0.691207 0.254446 -0.676380
vn 0.279874 0.026699 -0.959665
vn 0.673952 0.344121 -0.653735
vn 0.260189 0.090505 -0.961307
vn 0.396880 0.785609 -0.474662
vn 0.056142 0.673925 -0.736663
vn -0.185747 0.540092 -0.820852
vn -0.035802 -0.017506 -0.999206
vn 0.000164 0.571017 -0.820938
vn 0.278442 -0.061013 -0.958513
vn 0.689230 0.138762 -0.711131
vn 0.349974 -0.566068 -0.746382
vn 0.670324 -0.448092 -0.591506
vn -0.022581 -0.080881 -0.996468
vn -0.015736 -0.132277 -0.991088
vn 0.135176 -0.647691 -0.749816
vn 0.000051 -0.027768 -0.999614
vn 0.000010 -0.086880 -0.996219
vn 0.000060 -0.139917 -0.990163
vn 0.000291 -0.754371 -0.656448
vn -0.134604 -0.646903 -0.750598
vn 0.015685 -0.132200 -0.991099
vn 0.022461 -0.080756 -0.996481
vn -0.277308 -0.062384 -0.958754
vn -0.690721 0.253381 -0.677275
vn -0.278977 0.025331 -0.959964
vn -0.673705 0.343088 -0.654532
vn 0.035800 -0.017268 -0.999210
vn 0.185660 0.540108 -0.820862
vn -0.259673 0.089283 -0.961560
vn -0.056537 0.674020 -0.736547
vn -0.397069 0.785052 -0.475426
vn -0.325823 0.824288 0.463021
vn -0.493179 0.852390 0.173799
vn -0.249326 0.286545 0.925056
vn -0.074757 0.755982 0.650310
vn 0.098325 0.671041 0.734872
vn -0.832038 0.519117 -0.195524
vn -0.499258 0.857239 -0.126027
vn -0.029222 0.172033 0.984658
vn 0.013884 0.630868 0.775766
vn 0.019998 0.124526 0.992015
vn 0.043269 0.157122 0.986631
vn -0.092566 0.668274 0.738134
vn 0.026480 0.025433 0.999326
vn 0.045939 0.050962 0.997643
vn 0.243594 0.279917 0.928605
vn 0.071540 0.752273 0.654956
vn 0.325807 0.824846 0.462038
vn 0.240485 0.233807 0.942073
vn 0.588651 0.415424 0.693479
vn 0.801341 0.529122 0.279075
vn 0.492655 0.853054 0.172018
vn 0.579407 0.428304 0.693429
vn 0.832039 0.519117 -0.195524
vn 0.499227 0.857258 -0.126018
vn 0.673952 0.344121 -0.653735
vn 0.396880 0.785609 -0.474662
vn 0.691207 0.254446 -0.676380
vn 0.870057 0.438105 -0.225975
vn 0.689230 0.138762 -0.711131
vn 0.814428 0.512030 0.273006
vn 0.902524 0.342791 -0.260661
vn 0.670324 -0.448092 -0.591506
vn 0.888525 -0.400421 -0.224024
vn 0.862210 0.441936 0.247559
vn 0.895610 -0.369324 0.247955
vn 0.581445 0.395741 0.710852
vn 0.606739 -0.382607 0.696764
vn 0.308258 -0.472621 0.825595
vn 0.196930 0.157464 0.967690
vn 0.034803 -0.036931 0.998712
vn 0.187879 -0.683740 0.705125
vn 0.035400 -0.065816 0.997204
vn 0.025968 -0.692627 0.720829
vn -0.894826 -0.368677 0.251720
vn -0.337525 -0.938025 0.078645
vn -0.604054 -0.383307 0.698709
vn -0.322958 -0.469277 0.821874
vn -0.888320 -0.400442 -0.224797
vn -0.235401 -0.968122 0.085589
vn -0.165023 -0.670167 0.723633
vn -0.327341 -0.940558 -0.090548
vn -0.668702 -0.448378 -0.593124
vn -0.348061 -0.565868 -0.747427
vn -0.134604 -0.646903 -0.750598
vn 0.025968 -0.692627 0.720829
vn -0.241552 -0.965283 -0.099408
vn 0.000291 -0.754371 -0.656448
vn 0.001652 -0.996493 0.083658
vn 0.187879 -0.683740 0.705125
vn -0.000199 -0.994848 -0.101374
vn 0.236222 -0.967829 0.086634
vn 0.241342 -0.965449 -0.098299
vn 0.135176 -0.647691 -0.749816
vn 0.336975 -0.938210 0.078806
vn 0.308258 -0.472621 0.825595
vn 0.606739 -0.382607 0.696764
vn 0.895610 -0.369324 0.247955
vn 0.888525 -0.400421 -0.224024
vn 0.327568 -0.940616 -0.089109
vn 0.349974 -0.566068 -0.746382
vn 0.670324 -0.448092 -0.591506
vn -0.074757 0.755982 0.650310
vn 0.098325 0.671041 0.734872
vn 0.000109 0.999955 -0.009522
vn 0.013884 0.630868 0.775766
vn -0.325823 0.824288 0.463021
vn -0.092566 0.668274 0.738134
vn -0.493179 0.852390 0.173799
vn 0.071540 0.752273 0.654956
vn -0.499258 0.857239 -0.126027
vn 0.325807 0.824846 0.462038
vn -0.397069 0.785052 -0.475426
vn 0.492655 0.853054 0.172018
vn -0.056537 0.674020 -0.736547
vn 0.499227 0.857258 -0.126018
vn 0.185660 0.540108 -0.820862
vn 0.396880 0.785609 -0.474662
vn 0.000164 0.571017 -0.820938
vn 0.056142 0.673925 -0.736663
vn -0.185747 0.540092 -0.820852
f 1/1/1 2/2/2 3/3/3
f 4/4/4 3/3/3 2/2/2
f 3/3/3 5/5/5 1/1/1
f 2/2/2 1/1/1 6/6/6
f 6/6/6 7/7/7 2/2/2
f 7/7/7 6/6/6 8/8/8
f 9/9/9 8/8/8 6/6/6
f 10/10/10 2/2/2 7/7/7
f 4/4/4 2/2/2 10/10/10
f 10/10/10 7/7/7 11/11/11
f 6/6/6 12/12/12 9/9/9
f 12/12/12 6/6/6 1/1/1
f 12/12/12 13/13/13 9/9/9
f 1/1/1 14/14/14 12/12/12
f 5/5/5 14/14/14 1/1/1
f 12/12/12 15/15/15 13/13/13
f 14/14/14 15/15/15 12/12/12
f 15/15/15 16/16/16 13/13/13
f 15/15/15 17/17/17 16/16/16
f 17/17/17 18/18/18 16/16/16
f 14/14/14 19/19/19 15/15/15
f 19/19/19 17/17/17 15/15/15
f 5/5/5 20/20/20 14/14/14
f 20/20/20 19/19/19 14/14/14
f 21/21/21 22/22/22 23/23/23
f 24/24/24 23/23/23 22/22/22
f 23/23/23 24/24/24 25/25/25
f 26/26/26 25/25/25 24/24/24
f 27/27/27 26/26/26 24/24/24
f 24/24/24 28/28/28 27/27/27
f 28/28/28 24/24/24 22/22/22
f 29/29/29 27/27/27 28/28/28
f 21/21/21 30/30/30 22/22/22
f 30/30/30 21/21/21 31/31/31
f 31/31/31 32/32/32 30/30/30
f 32/32/32 31/31/31 33/33/33
f 34/34/34 22/22/22 30/30/30
f 22/22/22 34/34/34 28/28/28
f 35/35/35 30/30/30 32/32/32
f 30/30/30 35/35/35 34/34/34
f 32/32/32 36/36/36 35/35/35
f 37/37/37 28/28/28 34/34/34
f 29/29/29 28/28/28 37/37/37
f 38/38/38 34/34/34 35/35/35
f 37/37/37 34/34/34 38/38/38
f 39/39/39 35/35/35 36/36/36
f 38/38/38 35/35/35 39/39/39
f 39/39/39 36/36/36 40/40/40
f 40/40/40 41/41/41 39/39/39
f 42/42/42 39/39/39 41/41/41
f 39/39/39 42/42/42 38/38/38
f 18/18/18 42/42/42 41/41/41
f 38/38/38 43/43/43 37/37/37
f 43/43/43 38/38/38 42/42/42
f 42/42/42 18/18/18 44/44/44
f 44/44/44 43/43/43 42/42/42
f 18/18/18 17/17/17 44/44/44
f 45/45/45 44/44/44 17/17/17
f 44/44/44 45/45/45 46/46/46
f 43/43/43 44/44/44 46/46/46
f 47/47/47 46/46/46 45/45/45
f 48/48/48 37/37/37 43/43/43
f 43/43/43 46/46/46 48/48/48
f 37/37/37 48/48/48 29/29/29
f 49/49/49 29/29/29 48/48/48
f 48/48/48 46/46/46 50/50/50
f 48/48/48 50/50/50 49/49/49
f 46/46/46 47/47/47 50/50/50
f 49/49/49 50/50/50 51/51/51
f 52/52/52 50/50/50 47/47/47
f 50/50/50 52/52/52 51/51/51
f 53/53/53 20/20/20 5/5/5
f 53/53/53 54/54/54 20/20/20
f 55/55/55 53/53/53 5/5/5
f 53/53/53 55/55/55 56/56/56
f 5/5/5 3/3/3 55/55/55
f 55/55/55 57/57/57 56/56/56
f 54/54/54 58/58/58 20/20/20
f 20/20/20 58/58/58 19/19/19
f 54/54/54 59/59/59 58/58/58
f 3/3/3 60/60/60 55/55/55
f 57/57/57 55/55/55 60/60/60
f 60/60/60 3/3/3 4/4/4
f 61/61/61 57/57/57 60/60/60
f 59/59/59 47/47/47 58/58/58
f 59/59/59 52/52/52 47/47/47
f 58/58/58 45/45/45 19/19/19
f 58/58/58 47/47/47 45/45/45
f 19/19/19 45/45/45 17/17/17
f 61/61/61 60/60/60 62/62/62
f 62/62/62 60/60/60 4/4/4
f 63/63/63 61/61/61 62/62/62
f 61/61/61 63/63/63 64/64/64
f 62/62/62 4/4/4 65/65/65
f 65/65/65 4/4/4 10/10/10
f 62/62/62 66/66/66 63/63/63
f 66/66/66 62/62/62 65/65/65
f 63/63/63 67/67/67 64/64/64
f 64/64/64 67/67/67 68/68/68
f 67/67/67 69/69/69 68/68/68
f 63/63/63 70/70/70 67/67/67
f 66/66/66 70/70/70 63/63/63
f 69/69/69 67/67/67 71/71/71
f 70/70/70 71/71/71 67/67/67
f 71/71/71 72/72/72 69/69/69
f 73/73/73 69/69/69 72/72/72
f 71/71/71 70/70/70 74/74/74
f 75/75/75 73/73/73 72/72/72
f 73/73/73 75/75/75 76/76/76
f 77/77/77 76/76/76 75/75/75
f 76/76/76 77/77/77 78/78/78
f 75/75/75 79/79/79 77/77/77
f 79/79/79 75/75/75 80/80/80
f 72/72/72 80/80/80 75/75/75
f 80/80/80 81/81/81 79/79/79
f 72/72/72 71/71/71 82/82/82
f 80/80/80 72/72/72 82/82/82
f 74/74/74 82/82/82 71/71/71
f 81/81/81 80/80/80 83/83/83
f 82/82/82 83/83/83 80/80/80
f 83/83/83 84/84/84 81/81/81
f 84/84/84 83/83/83 85/85/85
f 83/83/83 82/82/82 86/86/86
f 86/86/86 85/85/85 83/83/83
f 82/82/82 74/74/74 86/86/86
f 85/85/85 86/86/86 87/87/87
f 86/86/86 88/88/88 87/87/87
f 74/74/74 88/88/88 86/86/86
f 88/88/88 89/89/89 87/87/87
f 88/88/88 90/90/90 89/89/89
f 74/74/74 91/91/91 88/88/88
f 90/90/90 88/88/88 91/91/91
f 91/91/91 74/74/74 70/70/70
f 66/66/66 91/91/91 70/70/70
f 92/92/92 90/90/90 91/91/91
f 91/91/91 66/66/66 92/92/92
f 90/90/90 92/92/92 93/93/93
f 65/65/65 92/92/92 66/66/66
f 94/94/94 93/93/93 92/92/92
f 92/92/92 65/65/65 94/94/94
f 93/93/93 94/94/94 95/95/95
f 65/65/65 10/10/10 94/94/94
f 94/94/94 11/11/11 95/95/95
f 94/94/94 10/10/10 11/11/11
f 96/96/96 97/97/97 98/98/98
f 98/98/98 97/97/97 99/99/99
f 100/100/100 97/97/97 96/96/96
f 101/101/101 99/99/99 97/97/97
f 99/99/99 101/101/101 102/102/102
f 97/97/97 100/100/100 103/103/103
f 104/104/104 103/103/103 100/100/100
f 103/103/103 104/104/104 105/105/105
f 106/106/106 103/103/103 105/105/105
f 101/101/101 107/107/107 102/102/102
f 103/103/103 106/106/106 108/108/108
f 108/108/108 97/97/97 103/103/103
f 97/97/97 108/108/108 101/101/101
f 108/108/108 106/106/106 109/109/109
f 107/107/107 101/101/101 110/110/110
f 110/110/110 111/111/111 107/107/107
f 112/112/112 101/101/101 108/108/108
f 101/101/101 112/112/112 110/110/110
f 109/109/109 112/112/112 108/108/108
f 113/113/113 111/111/111 110/110/110
f 112/112/112 113/113/113 110/110/110
f 109/109/109 114/114/114 112/112/112
f 112/112/112 114/114/114 113/113/113
f 115/115/115 114/114/114 109/109/109
f 113/113/113 116/116/116 111/111/111
f 114/114/114 116/116/116 113/113/113
f 116/116/116 117/117/117 111/111/111
f 116/116/116 118/118/118 117/117/117
f 118/118/118 116/116/116 119/119/119
f 116/116/116 120/120/120 119/119/119
f 115/115/115 121/121/121 114/114/114
f 114/114/114 121/121/121 116/116/116
f 120/120/120 116/116/116 121/121/121
f 121/121/121 115/115/115 122/122/122
f 121/121/121 123/123/123 120/120/120
f 123/123/123 121/121/121 122/122/122
f 124/124/124 125/125/125 126/126/126
f 125/125/125 127/127/127 126/126/126
f 126/126/126 128/128/128 124/124/124
f 126/126/126 127/127/127 129/129/129
f 130/130/130 128/128/128 126/126/126
f 131/131/131 126/126/126 129/129/129
f 132/132/132 130/130/130 126/126/126
f 126/126/126 131/131/131 133/133/133
f 134/134/134 132/132/132 126/126/126
f 126/126/126 133/133/133 135/135/135
f 126/126/126 136/136/136 134/134/134
f 135/135/135 137/137/137 126/126/126
f 136/136/136 126/126/126 138/138/138
f 137/137/137 139/139/139 126/126/126
f 140/140/140 138/138/138 126/126/126
f 139/139/139 141/141/141 126/126/126
f 140/140/140 126/126/126 142/142/142
f 126/126/126 141/141/141 142/142/142
