# Generated from Roblox mesh JSON (v2.00)
# Hello from RBX_Toolbox ;)
o LeftHandWrapTarget
v -0.159495 0.315851 -0.172635
v -0.048590 0.141955 -0.268228
v -0.228685 0.199744 -0.261616
v -0.251277 0.075216 -0.339263
v 0.024325 0.252515 -0.229612
v 0.018886 0.019904 -0.234556
v 0.067822 0.050905 -0.243393
v 0.105918 -0.073957 -0.145378
v 0.156165 -0.165802 -0.140058
v 0.182965 -0.069008 -0.247497
v 0.227825 -0.019652 -0.283446
v 0.164144 0.092899 -0.261926
v 0.314154 0.173246 -0.190293
v 0.329778 0.032170 -0.228626
v 0.325369 -0.086585 -0.251284
v 0.182965 -0.069008 -0.247497
v 0.156165 -0.165802 -0.140058
v 0.298880 -0.141531 -0.165267
v 0.290824 -0.179225 -0.007523
v 0.365610 0.024854 -0.024223
v 0.156165 -0.165802 -0.140058
v 0.105918 -0.073957 -0.145378
v 0.243826 -0.170497 0.011996
v 0.018886 0.019904 -0.234556
v -0.346482 -0.079237 0.196196
v -0.022551 -0.046876 0.327607
v -0.295763 0.051031 0.241354
v -0.225706 0.169354 0.281264
v 0.040213 0.041508 0.362309
v 0.050778 0.111842 0.412360
v -0.190609 0.227570 0.331216
v -0.099931 -0.132078 0.267813
v -0.319421 0.120193 0.078043
v -0.268986 0.231362 0.144104
v -0.246515 0.306668 0.177543
v -0.224704 0.361293 0.025273
v -0.225561 0.284626 -0.034651
v -0.131945 0.386534 -0.093438
v -0.159495 0.315851 -0.172635
v 0.028087 0.367805 -0.173613
v 0.024325 0.252515 -0.229612
v 0.275256 0.273572 -0.160246
v 0.314154 0.173246 -0.190293
v 0.365610 0.024854 -0.024223
v 0.345832 0.173306 -0.036633
v -0.284995 0.175282 -0.100868
v -0.228685 0.199744 -0.261616
v -0.365610 -0.034953 0.019796
v -0.332177 0.035224 -0.167894
v -0.251277 0.075216 -0.339263
v -0.343692 -0.242707 0.136878
v -0.128383 -0.250643 0.193157
v -0.337690 -0.211251 -0.037444
v -0.202418 -0.386534 0.115333
v -0.089017 -0.341536 0.141805
v -0.306528 -0.137584 -0.230099
v -0.179460 -0.377796 -0.066014
v -0.013705 -0.305964 -0.029812
v -0.089017 -0.341536 0.141805
v 0.028860 -0.217676 -0.226734
v -0.087123 -0.272991 -0.316131
v -0.067717 -0.188583 -0.412360
v 0.040676 -0.146245 -0.355242
v -0.196191 -0.066524 -0.382508
v 0.040676 -0.146245 -0.355242
v -0.022915 -0.044996 -0.303231
v 0.018886 0.019904 -0.234556
v -0.016551 -0.115365 -0.118969
v 0.028860 -0.217676 -0.226734
v -0.013705 -0.305964 -0.029812
v 0.049695 -0.108766 0.020009
v -0.050015 -0.192341 0.059391
v -0.089017 -0.341536 0.141805
v 0.243826 -0.170497 0.011996
v -0.128383 -0.250643 0.193157
v 0.016435 -0.133453 0.162677
v -0.099931 -0.132078 0.267813
v 0.212595 -0.163988 0.103600
v 0.128546 -0.102279 0.249011
v -0.022551 -0.046876 0.327607
v 0.324882 -0.056023 0.153245
v 0.339688 0.106208 0.139812
v 0.225597 -0.044213 0.311275
v 0.040213 0.041508 0.362309
v 0.244075 0.044330 0.361245
v 0.050778 0.111842 0.412360
v 0.290824 -0.179225 -0.007523
v 0.018886 0.019904 -0.234556
v 0.105918 -0.073957 -0.145378
vt 6.552293 3.950107
vt 6.573895 3.887921
vt 6.573895 3.909998
vt 6.595818 3.948965
vt 6.536948 3.909998
vt 6.610842 3.909998
vt 6.573895 3.848419
vt 6.610842 3.848419
vt 6.610842 3.799157
vt 6.573895 3.799157
vt 6.536948 3.799157
vt 6.536947 3.848419
vt 6.500000 3.909998
vt 6.500000 3.848419
vt 6.500000 3.799157
vt 6.536947 3.762209
vt 6.500000 3.749893
vt 6.463053 3.799157
vt 6.463053 3.848419
vt 6.463053 3.909998
vt 6.389158 3.799156
vt 6.389158 3.848419
vt 6.425591 3.910355
vt 6.389158 3.909998
vt 6.500000 3.610332
vt 6.456269 3.699005
vt 6.456269 3.610332
vt 6.412539 3.610332
vt 6.412539 3.699005
vt 6.333029 3.699005
vt 6.333029 3.599324
vt 6.500000 3.699005
vt 6.455314 3.576329
vt 6.412539 3.580288
vt 6.333029 3.572104
vt 6.333029 3.530821
vt 6.412539 3.547842
vt 6.333029 3.482428
vt 6.412539 3.505410
vt 6.333029 3.414663
vt 6.412539 3.419507
vt 6.333029 3.352427
vt 6.398891 3.352426
vt 6.412539 3.320622
vt 6.333029 3.320637
vt 6.454282 3.539610
vt 6.492049 3.452422
vt 6.498089 3.572372
vt 6.496024 3.531377
vt 6.514695 3.452105
vt 6.571560 3.610332
vt 6.571560 3.699005
vt 6.571560 3.570577
vt 6.619266 3.610332
vt 6.619266 3.699005
vt 6.571560 3.530821
vt 6.619266 3.570577
vt 6.666971 3.570577
vt 6.666971 3.610332
vt 6.666971 3.530821
vt 6.619266 3.530821
vt 6.619266 3.451311
vt 6.666971 3.451311
vt 6.571560 3.451311
vt 6.619266 3.352426
vt 6.571560 3.352426
vt 6.505776 3.352882
vt 6.571560 3.280882
vt 6.619266 3.280882
vt 6.619266 3.245110
vt 6.502889 3.281110
vt 6.571560 3.245110
vt 6.619266 3.209338
vt 6.472491 3.322502
vt 6.571560 3.209337
vt 6.501444 3.245224
vt 6.500000 3.209337
vt 6.483845 3.275795
vt 6.470057 3.242566
vt 6.456269 3.209337
vt 6.412539 3.288847
vt 6.333029 3.288847
vt 6.412539 3.266474
vt 6.412539 3.209338
vt 6.333029 3.265375
vt 6.333029 3.209337
vt 6.463053 3.848419
vt 6.389158 3.909998
vt 6.389158 3.848419
vn -0.458258 0.658433 -0.597048
vn 0.128440 0.195929 -0.972170
vn -0.462062 0.610211 -0.643538
vn -0.448220 0.314669 -0.836709
vn 0.045392 0.388632 -0.920274
vn 0.429554 -0.357511 -0.829258
vn -0.111542 -0.354556 -0.928358
vn -0.883177 -0.086275 0.461037
vn -0.549422 -0.834797 -0.035352
vn -0.324279 -0.552390 -0.767925
vn 0.034108 -0.090639 -0.995300
vn 0.087049 0.202930 -0.975316
vn 0.769912 0.326011 -0.548591
vn 0.867083 0.163575 -0.470542
vn 0.700796 -0.428074 -0.570647
vn -0.324279 -0.552390 -0.767925
vn -0.549422 -0.834797 -0.035352
vn 0.637152 -0.727653 -0.254082
vn 0.480528 -0.771315 0.417331
vn 0.980768 -0.163763 -0.106186
vn -0.549422 -0.834797 -0.035352
vn -0.883177 -0.086275 0.461037
vn 0.160270 -0.979826 0.119391
vn 0.429554 -0.357511 -0.829258
vn -0.797089 -0.082721 0.598169
vn -0.118111 -0.415688 0.901805
vn -0.723140 0.116639 0.680782
vn -0.739353 0.024989 0.672854
vn -0.162938 -0.424538 0.890628
vn -0.258422 -0.528152 0.808872
vn -0.702433 -0.184881 0.687319
vn -0.019112 -0.561558 0.827217
vn -0.935318 0.341883 0.091082
vn -0.951689 0.260929 0.161876
vn -0.960966 0.203535 0.187399
vn -0.911288 0.285092 -0.297113
vn -0.861997 0.447075 -0.238924
vn -0.572702 0.664415 -0.480173
vn -0.458258 0.658433 -0.597048
vn -0.006370 0.507068 -0.861883
vn 0.045392 0.388632 -0.920274
vn 0.528063 0.391507 -0.753572
vn 0.769912 0.326011 -0.548591
vn 0.980768 -0.163763 -0.106186
vn 0.964113 0.072199 -0.255486
vn -0.876611 0.461323 -0.136871
vn -0.462062 0.610211 -0.643538
vn -0.995772 0.087429 -0.028173
vn -0.954658 0.176195 -0.239966
vn -0.448220 0.314669 -0.836709
vn -0.778678 -0.468930 0.416853
vn 0.261828 -0.493342 0.829494
vn -0.890831 -0.408042 -0.199805
vn -0.237995 -0.894989 0.377298
vn 0.584059 -0.586273 0.561391
vn -0.829693 -0.330202 -0.450084
vn -0.183033 -0.950661 -0.250485
vn 0.848774 -0.522853 0.078791
vn 0.584059 -0.586273 0.561391
vn 0.921829 -0.385242 -0.042649
vn 0.036320 -0.843570 -0.535790
vn 0.098818 -0.325314 -0.940429
vn 0.852426 0.023778 -0.522307
vn -0.305553 0.036513 -0.951475
vn 0.852426 0.023778 -0.522307
vn 0.692922 0.448539 -0.564510
vn 0.429554 -0.357511 -0.829258
vn 0.976468 -0.210171 -0.048366
vn 0.921829 -0.385242 -0.042649
vn 0.848774 -0.522853 0.078791
vn 0.176001 -0.947190 -0.268059
vn 0.886158 -0.428327 0.176804
vn 0.584059 -0.586273 0.561391
vn 0.160270 -0.979826 0.119391
vn 0.261828 -0.493342 0.829494
vn 0.289365 -0.942123 0.169330
vn -0.019112 -0.561558 0.827217
vn 0.268102 -0.941533 0.204053
vn 0.153577 -0.858592 0.489115
vn -0.118111 -0.415688 0.901805
vn 0.836269 -0.470574 0.281450
vn 0.977675 -0.112726 0.177325
vn 0.462044 -0.631564 0.622609
vn -0.162938 -0.424538 0.890628
vn 0.470774 -0.519140 0.713348
vn -0.258422 -0.528152 0.808872
vn 0.480528 -0.771315 0.417331
vn 0.429554 -0.357511 -0.829258
vn -0.883177 -0.086275 0.461037
f 1/1/1 2/2/2 3/3/3
f 2/2/2 4/4/4 3/3/3
f 2/2/2 1/1/1 5/5/5
f 4/4/4 2/2/2 6/6/6
f 7/7/7 6/6/6 2/2/2
f 6/6/6 7/7/7 8/8/8
f 9/9/9 8/8/8 7/7/7
f 7/7/7 10/10/10 9/9/9
f 7/7/7 11/11/11 10/10/10
f 12/12/12 2/2/2 5/5/5
f 2/2/2 12/12/12 7/7/7
f 11/11/11 7/7/7 12/12/12
f 12/12/12 5/5/5 13/13/13
f 11/11/11 12/12/12 14/14/14
f 13/13/13 14/14/14 12/12/12
f 14/14/14 15/15/15 11/11/11
f 11/11/11 15/15/15 16/16/16
f 17/17/17 16/16/16 15/15/15
f 18/18/18 17/17/17 15/15/15
f 14/14/14 18/18/18 15/15/15
f 13/13/13 19/19/19 14/14/14
f 19/19/19 18/18/18 14/14/14
f 19/19/19 13/13/13 20/20/20
f 19/19/19 21/21/21 18/18/18
f 21/21/21 19/19/19 22/22/22
f 19/19/19 20/20/20 23/23/23
f 19/19/19 23/23/23 24/24/24
f 25/25/25 26/26/26 27/27/27
f 26/26/26 28/28/28 27/27/27
f 28/28/28 26/26/26 29/29/29
f 30/30/30 28/28/28 29/29/29
f 28/28/28 30/30/30 31/31/31
f 26/26/26 25/25/25 32/32/32
f 28/28/28 33/33/33 27/27/27
f 33/33/33 25/25/25 27/27/27
f 31/31/31 34/34/34 28/28/28
f 33/33/33 28/28/28 34/34/34
f 35/35/35 34/34/34 31/31/31
f 36/36/36 34/34/34 35/35/35
f 36/36/36 37/37/37 34/34/34
f 37/37/37 33/33/33 34/34/34
f 38/38/38 37/37/37 36/36/36
f 38/38/38 39/39/39 37/37/37
f 39/39/39 38/38/38 40/40/40
f 40/40/40 41/41/41 39/39/39
f 42/42/42 41/41/41 40/40/40
f 41/41/41 42/42/42 43/43/43
f 42/42/42 44/44/44 43/43/43
f 44/44/44 42/42/42 45/45/45
f 39/39/39 46/46/46 37/37/37
f 46/46/46 33/33/33 37/37/37
f 39/39/39 47/47/47 46/46/46
f 46/46/46 48/48/48 33/33/33
f 25/25/25 33/33/33 48/48/48
f 47/47/47 49/49/49 46/46/46
f 46/46/46 49/49/49 48/48/48
f 50/50/50 49/49/49 47/47/47
f 48/48/48 51/51/51 25/25/25
f 51/51/51 32/32/32 25/25/25
f 32/32/32 51/51/51 52/52/52
f 48/48/48 53/53/53 51/51/51
f 49/49/49 53/53/53 48/48/48
f 54/54/54 52/52/52 51/51/51
f 53/53/53 54/54/54 51/51/51
f 52/52/52 54/54/54 55/55/55
f 49/49/49 56/56/56 53/53/53
f 50/50/50 56/56/56 49/49/49
f 57/57/57 54/54/54 53/53/53
f 56/56/56 57/57/57 53/53/53
f 58/58/58 54/54/54 57/57/57
f 54/54/54 58/58/58 59/59/59
f 57/57/57 60/60/60 58/58/58
f 61/61/61 57/57/57 56/56/56
f 60/60/60 57/57/57 61/61/61
f 60/60/60 61/61/61 62/62/62
f 56/56/56 62/62/62 61/61/61
f 63/63/63 60/60/60 62/62/62
f 62/62/62 56/56/56 64/64/64
f 50/50/50 64/64/64 56/56/56
f 64/64/64 65/65/65 62/62/62
f 50/50/50 66/66/66 64/64/64
f 65/65/65 64/64/64 66/66/66
f 66/66/66 50/50/50 67/67/67
f 66/66/66 68/68/68 65/65/65
f 67/67/67 68/68/68 66/66/66
f 68/68/68 69/69/69 65/65/65
f 68/68/68 70/70/70 69/69/69
f 68/68/68 67/67/67 71/71/71
f 70/70/70 68/68/68 72/72/72
f 71/71/71 72/72/72 68/68/68
f 72/72/72 73/73/73 70/70/70
f 74/74/74 71/71/71 67/67/67
f 73/73/73 72/72/72 75/75/75
f 76/76/76 75/75/75 72/72/72
f 72/72/72 71/71/71 76/76/76
f 75/75/75 76/76/76 77/77/77
f 71/71/71 74/74/74 78/78/78
f 78/78/78 76/76/76 71/71/71
f 44/44/44 78/78/78 74/74/74
f 79/79/79 77/77/77 76/76/76
f 76/76/76 78/78/78 79/79/79
f 77/77/77 79/79/79 80/80/80
f 78/78/78 44/44/44 81/81/81
f 81/81/81 79/79/79 78/78/78
f 45/45/45 81/81/81 44/44/44
f 81/81/81 45/45/45 82/82/82
f 79/79/79 81/81/81 83/83/83
f 83/83/83 80/80/80 79/79/79
f 82/82/82 83/83/83 81/81/81
f 80/80/80 83/83/83 84/84/84
f 83/83/83 82/82/82 85/85/85
f 85/85/85 84/84/84 83/83/83
f 84/84/84 85/85/85 86/86/86
f 87/87/87 88/88/88 89/89/89
