# Generated from Roblox mesh JSON (v4.01)
# Hello from RBX_Toolbox ;)
o LeftHand
v -0.162119 -0.178575 -0.332668
v -0.282144 -0.290877 0.073557
v -0.215159 -0.121493 -0.317047
v -0.080308 -0.220425 -0.336728
v -0.147293 -0.389764 0.053701
v -0.229104 -0.347932 0.057847
v -0.327065 -0.196605 0.106737
v -0.078810 -0.165567 -0.357203
v -0.162119 -0.178575 -0.332668
v -0.135732 -0.131766 -0.352349
v -0.215159 -0.121493 -0.317047
v -0.175181 -0.090181 -0.341145
v -0.260167 -0.027196 -0.283866
v -0.332360 -0.090596 0.151836
v -0.260167 -0.027196 -0.283866
v -0.142525 0.060210 -0.270366
v -0.023652 -0.199818 -0.318111
v -0.090546 -0.369149 0.072324
v -0.010061 -0.174189 -0.304693
v -0.169179 -0.150705 0.153687
v -0.076955 -0.343520 0.085824
v -0.010061 -0.174189 -0.304693
v -0.076955 -0.343520 0.085824
v -0.023652 -0.199818 -0.318111
v -0.080308 -0.220425 -0.336728
v -0.080308 -0.220425 -0.336728
v -0.041919 -0.152417 -0.345205
v -0.102285 0.018687 -0.236916
v -0.102285 0.018687 -0.236916
v -0.010061 -0.174189 -0.304693
v 0.013239 0.060122 -0.199144
v -0.053655 -0.109262 0.191460
v -0.254697 -0.291274 0.122540
v -0.282144 -0.290877 0.073557
v -0.229104 -0.347932 0.057847
v -0.215160 -0.332824 0.111242
v -0.327065 -0.196605 0.106737
v -0.298294 -0.201556 0.154044
v -0.222044 -0.140936 0.193407
v -0.332360 -0.090596 0.151836
v -0.304118 -0.113480 0.191285
v -0.270318 -0.034626 0.231266
v -0.158238 -0.366598 0.106300
v -0.147293 -0.389764 0.053701
v -0.121347 -0.353439 0.118392
v -0.147293 -0.389764 0.053701
v -0.090546 -0.369149 0.072324
v -0.076955 -0.343520 0.085824
v -0.169179 -0.150705 0.153687
v -0.053655 -0.109262 0.191460
v -0.076955 -0.088460 0.240970
v -0.183389 0.033505 0.275745
v -0.218778 -0.000420 -0.309728
v -0.224603 0.087674 -0.272568
v -0.265375 0.078832 -0.238855
v -0.265375 0.078832 -0.238855
v -0.227336 0.177683 -0.189434
v -0.191331 0.173756 -0.229503
v -0.227336 0.177683 -0.189434
v -0.294234 0.008247 0.201256
v -0.130965 0.247597 -0.142665
v -0.130965 0.247597 -0.142665
v 0.002473 0.112659 -0.222709
v -0.103871 0.234677 -0.188115
v 0.013239 0.060122 -0.199144
v -0.014118 0.263227 -0.160313
v -0.029123 0.280480 -0.110891
v -0.114640 0.389764 0.010547
v -0.089398 0.229735 -0.080356
v -0.121788 0.217035 -0.062702
v -0.097343 0.304467 -0.073118
v -0.258844 0.276474 0.100913
v -0.105992 0.353818 -0.081771
v -0.294234 0.008247 0.201256
v -0.197950 0.078152 0.248033
v -0.093545 0.062055 0.303540
v -0.197950 0.078152 0.248033
v -0.234841 0.231738 0.091910
v -0.150646 0.150625 0.285981
v -0.166795 0.185044 0.316164
v -0.156824 0.288714 0.263304
v -0.175091 0.067217 0.162076
v -0.133968 0.274814 0.291542
v -0.153383 0.049964 0.189434
v -0.096107 0.111053 0.279806
v 0.008472 0.061913 0.320932
v -0.024443 0.118219 0.357203
v -0.029123 0.280480 -0.110891
v -0.096107 0.111053 0.279806
v 0.019504 0.109967 0.299131
v 0.173330 -0.191293 0.029960
v 0.159385 -0.126065 0.005781
v 0.186301 -0.185794 -0.015489
v 0.186301 -0.185794 -0.015489
v 0.222223 -0.193949 -0.012931
v 0.212426 -0.198467 0.025192
v 0.173330 -0.191293 0.029960
v 0.143411 -0.166494 0.098973
v 0.235460 -0.193887 0.040725
v 0.186301 -0.185794 -0.015489
v 0.223017 -0.093067 -0.229502
v 0.222223 -0.193949 -0.012931
v 0.196098 -0.033311 -0.208233
v 0.223017 -0.093067 -0.229502
v 0.223017 -0.093067 -0.229502
v 0.196098 -0.033311 -0.208233
v 0.252229 -0.053001 -0.251567
v 0.169182 0.026445 -0.186962
v 0.109348 -0.125218 0.161188
v 0.227340 0.001575 -0.232236
v 0.259023 -0.101284 -0.226944
v 0.306767 -0.084242 -0.211323
v 0.270055 -0.177040 0.002603
v 0.270055 -0.177040 0.002603
v 0.332360 0.000692 -0.170109
v 0.283646 -0.122553 0.114063
v 0.259023 -0.101284 -0.226944
v 0.283999 -0.041960 -0.241326
v 0.306767 -0.084242 -0.211323
v 0.332360 0.000692 -0.170109
v 0.306767 -0.084242 -0.211323
v 0.270055 -0.177040 0.002603
v 0.283646 -0.122553 0.114063
v 0.174299 -0.167314 0.115651
v 0.143411 -0.166494 0.098973
v 0.109348 -0.125218 0.161188
v 0.132116 -0.117999 0.188989
v 0.062307 -0.067562 0.229408
v 0.129204 0.101812 -0.161195
v 0.062307 -0.067562 0.229408
v 0.068131 -0.034282 0.291805
v 0.165916 -0.002890 0.322077
v 0.224253 -0.087216 0.243710
v 0.242254 -0.155427 0.138067
v 0.267759 -0.059584 0.210522
v 0.326536 0.089280 -0.132686
v 0.267759 -0.059584 0.210522
v 0.209335 0.026471 0.295333
v 0.129204 0.101812 -0.161195
v 0.169182 0.026445 -0.186962
v 0.200952 0.056159 -0.213087
v 0.148178 0.165328 -0.174876
v 0.087900 0.263059 -0.142928
v 0.184009 0.234474 -0.138780
v 0.245698 0.199041 -0.143548
v 0.086489 0.279377 -0.091567
v 0.299533 0.025668 -0.209384
v 0.296796 0.095590 -0.179549
v 0.326536 0.089280 -0.132686
v 0.196189 0.244870 -0.087682
v 0.277027 0.195890 -0.095008
v 0.104581 0.033364 0.324985
v 0.129292 0.075478 0.302927
v 0.019504 0.109967 0.299131
v 0.086489 0.279377 -0.091567
v 0.129292 0.075478 0.302927
v 0.118347 -0.003085 0.214938
v 0.137233 0.238057 0.322077
v -0.153383 0.049964 0.189434
v 0.150737 0.009694 0.197373
v 0.277027 0.195890 -0.095008
v 0.209335 0.026471 0.295333
v 0.196189 0.244870 -0.087682
vt 0.218888 0.339344
vt 0.218777 0.340248
vt 0.218777 0.339344
vt 0.219017 0.339343
vt 0.219016 0.340248
vt 0.218888 0.340248
vt 0.218623 0.340247
vt 0.220042 0.337832
vt 0.220202 0.337980
vt 0.220086 0.338032
vt 0.220206 0.338234
vt 0.220090 0.338211
vt 0.220149 0.338574
vt 0.218462 0.340247
vt 0.218623 0.339344
vt 0.219802 0.338554
vt 0.219105 0.339343
vt 0.219105 0.340248
vt 0.219150 0.339344
vt 0.219485 0.340258
vt 0.219171 0.340257
vt 0.219171 0.339354
vt 0.219150 0.340248
vt 0.219940 0.337638
vt 0.220075 0.337650
vt 0.220133 0.337704
vt 0.219957 0.337817
vt 0.219485 0.339354
vt 0.219726 0.338361
vt 0.219875 0.337691
vt 0.219665 0.339354
vt 0.219665 0.340258
vt 0.217272 0.338248
vt 0.217154 0.338269
vt 0.217164 0.338015
vt 0.217280 0.338067
vt 0.217206 0.338612
vt 0.217321 0.338565
vt 0.217553 0.338602
vt 0.217335 0.338930
vt 0.217423 0.338817
vt 0.217575 0.339008
vt 0.217326 0.337870
vt 0.217236 0.337740
vt 0.217411 0.337858
vt 0.217293 0.337686
vt 0.217430 0.337681
vt 0.217493 0.337737
vt 0.217633 0.338408
vt 0.217911 0.338407
vt 0.217911 0.338600
vt 0.217817 0.339115
vt 0.220036 0.338521
vt 0.219930 0.338773
vt 0.220018 0.338888
vt 0.218462 0.339344
vt 0.218298 0.339344
vt 0.219769 0.338977
vt 0.219824 0.339130
vt 0.218298 0.340247
vt 0.218119 0.339344
vt 0.219554 0.339235
vt 0.219442 0.338544
vt 0.219536 0.339059
vt 0.219445 0.338355
vt 0.219328 0.339042
vt 0.219307 0.339220
vt 0.218696 0.340338
vt 0.218781 0.340873
vt 0.218699 0.340893
vt 0.793203 0.135608
vt 0.795187 0.136008
vt 0.793203 0.136008
vt 0.217527 0.339178
vt 0.217798 0.339291
vt 0.218027 0.339103
vt 0.218119 0.340247
vt 0.795187 0.135608
vt 0.797150 0.135608
vt 0.797150 0.136008
vt 0.218109 0.340338
vt 0.218123 0.341066
vt 0.218026 0.340338
vt 0.218041 0.341078
vt 0.218048 0.339281
vt 0.218234 0.338994
vt 0.798498 0.135608
vt 0.217963 0.339344
vt 0.217963 0.340247
vt 0.217799 0.340247
vt 0.220142 0.339944
vt 0.220066 0.339849
vt 0.220162 0.339849
vt 0.218292 0.337420
vt 0.218372 0.337403
vt 0.218371 0.337528
vt 0.218292 0.337575
vt 0.220066 0.340065
vt 0.218428 0.337560
vt 0.216936 0.339839
vt 0.216935 0.339344
vt 0.216987 0.339839
vt 0.220066 0.339354
vt 0.220163 0.339354
vt 0.219010 0.337657
vt 0.219066 0.337868
vt 0.218932 0.337769
vt 0.219970 0.339354
vt 0.219971 0.340160
vt 0.218966 0.337951
vt 0.216987 0.339344
vt 0.217061 0.339344
vt 0.217061 0.339839
vt 0.218487 0.337412
vt 0.217198 0.339344
vt 0.217198 0.340001
vt 0.218932 0.337603
vt 0.218859 0.337787
vt 0.218817 0.337614
vt 0.218691 0.337960
vt 0.218765 0.337669
vt 0.218512 0.337438
vt 0.218608 0.337820
vt 0.218341 0.337850
vt 0.218266 0.337831
vt 0.218235 0.338095
vt 0.218302 0.338156
vt 0.218196 0.338418
vt 0.219845 0.339354
vt 0.219845 0.340258
vt 0.218267 0.338627
vt 0.218486 0.338638
vt 0.218523 0.338265
vt 0.218491 0.337879
vt 0.218646 0.338197
vt 0.217333 0.339343
vt 0.217333 0.340138
vt 0.218609 0.338637
vt 0.219164 0.338355
vt 0.219107 0.338085
vt 0.219005 0.338148
vt 0.219082 0.338547
vt 0.219122 0.338933
vt 0.218949 0.338755
vt 0.218848 0.338597
vt 0.219065 0.339086
vt 0.218808 0.338012
vt 0.218789 0.338246
vt 0.218674 0.338263
vt 0.218863 0.338870
vt 0.218730 0.338640
vt 0.218402 0.338806
vt 0.218494 0.338910
vt 0.218294 0.339145
vt 0.217799 0.339344
vt 0.217638 0.340247
vt 0.217450 0.341155
vt 0.217439 0.340338
vt 0.218041 0.341078
vt 0.217368 0.341135
vt 0.217506 0.339343
vt 0.217506 0.340247
vt 0.217638 0.339343
vn -0.568457 -0.685915 -0.454287
vn -0.819177 -0.497576 -0.285249
vn -0.847249 -0.374841 -0.376382
vn -0.071065 -0.865760 -0.495389
vn -0.090403 -0.955701 -0.280112
vn -0.593450 -0.744827 -0.305042
vn -0.956962 -0.242661 -0.159181
vn 0.112641 0.118034 -0.986600
vn -0.568457 -0.685915 -0.454287
vn -0.034799 0.193399 -0.980503
vn -0.847249 -0.374841 -0.376382
vn -0.156399 0.230335 -0.960461
vn -0.953777 -0.067237 -0.292896
vn -0.986272 0.164710 -0.011742
vn -0.953777 -0.067237 -0.292896
vn 0.260341 0.368578 -0.892397
vn 0.543562 -0.772899 -0.327365
vn 0.681132 -0.713417 -0.164609
vn 0.942043 0.246731 0.227331
vn 0.959846 -0.192149 0.204388
vn 0.919756 0.208499 0.332530
vn 0.942043 0.246731 0.227331
vn 0.919756 0.208499 0.332530
vn 0.543562 -0.772899 -0.327365
vn -0.071065 -0.865760 -0.495389
vn -0.071065 -0.865760 -0.495389
vn 0.669749 0.439169 -0.598805
vn 0.993634 -0.071509 -0.087053
vn 0.993634 -0.071509 -0.087053
vn 0.942043 0.246731 0.227331
vn 0.420976 -0.827481 -0.371556
vn 0.411477 -0.869715 -0.272549
vn -0.444453 -0.519171 0.730016
vn -0.819177 -0.497576 -0.285249
vn -0.593450 -0.744827 -0.305042
vn -0.259929 -0.514296 0.817274
vn -0.956962 -0.242661 -0.159181
vn -0.532446 -0.394204 0.749069
vn -0.032248 -0.452916 0.890970
vn -0.986272 0.164710 -0.011742
vn -0.461428 -0.307430 0.832209
vn -0.448984 -0.177457 0.875741
vn -0.217876 -0.608011 0.763448
vn -0.090403 -0.955701 -0.280112
vn 0.403360 -0.277406 0.871979
vn -0.090403 -0.955701 -0.280112
vn 0.681132 -0.713417 -0.164609
vn 0.919756 0.208499 0.332530
vn 0.959846 -0.192149 0.204388
vn 0.411477 -0.869715 -0.272549
vn -0.041738 -0.609153 0.791954
vn -0.266615 -0.225030 0.937165
vn -0.227329 0.338256 -0.913184
vn -0.163198 0.434247 -0.885887
vn -0.947721 0.244755 -0.204743
vn -0.947721 0.244755 -0.204743
vn -0.838719 0.544321 0.016279
vn -0.183698 0.644830 -0.741923
vn -0.838719 0.544321 0.016279
vn -0.763820 0.605274 0.224104
vn -0.549967 0.814208 0.186017
vn -0.549967 0.814208 0.186017
vn 0.243938 0.190972 -0.950802
vn 0.047215 0.556663 -0.829396
vn 0.420976 -0.827481 -0.371556
vn 0.094749 0.595883 -0.797462
vn -0.208586 0.930651 0.300632
vn -0.939787 0.165666 -0.298924
vn 0.069646 0.377047 -0.923572
vn -0.975985 0.134083 -0.171681
vn -0.114162 -0.861642 -0.494509
vn -0.943474 0.280942 -0.175868
vn -0.602681 0.414029 -0.682170
vn -0.763820 0.605274 0.224104
vn -0.484039 0.804924 0.343225
vn -0.229214 -0.132127 0.964367
vn -0.484039 0.804924 0.343225
vn -0.080987 -0.916253 -0.392329
vn -0.163803 -0.938944 -0.302576
vn -0.786111 -0.065023 0.614655
vn -0.989886 0.101452 -0.099167
vn -0.995942 0.086585 -0.024550
vn -0.367641 -0.359035 0.857866
vn -0.202951 -0.387514 0.899246
vn -0.221966 0.869598 0.441056
vn -0.148573 -0.175781 0.973153
vn -0.070044 -0.957849 -0.278602
vn -0.208586 0.930651 0.300632
vn -0.221966 0.869598 0.441056
vn 0.043648 0.884261 0.464948
vn -0.703497 -0.696286 -0.142397
vn -0.923124 -0.351590 -0.155649
vn -0.711308 -0.611722 -0.346176
vn -0.711308 -0.611722 -0.346176
vn 0.201242 -0.910735 -0.360642
vn -0.005040 -0.999789 0.019929
vn -0.703497 -0.696286 -0.142397
vn -0.794582 -0.599892 -0.093643
vn 0.462282 -0.837299 0.291933
vn -0.711308 -0.611722 -0.346176
vn -0.713131 -0.541081 -0.445731
vn 0.201242 -0.910735 -0.360642
vn -0.872060 -0.239552 -0.426762
vn -0.713131 -0.541081 -0.445731
vn -0.713131 -0.541081 -0.445731
vn -0.872060 -0.239552 -0.426762
vn -0.153877 -0.135018 -0.978822
vn -0.873826 -0.288188 -0.391632
vn -0.883190 -0.393542 -0.255147
vn -0.218828 0.234150 -0.947253
vn 0.193581 -0.840444 -0.506143
vn 0.754874 -0.589977 -0.286517
vn 0.876678 -0.481078 0.000040
vn 0.876678 -0.481078 0.000040
vn 0.989461 -0.139733 -0.037966
vn 0.963323 -0.203972 0.174368
vn 0.193581 -0.840444 -0.506143
vn 0.567471 0.155566 -0.808564
vn 0.754874 -0.589977 -0.286517
vn 0.989461 -0.139733 -0.037966
vn 0.754874 -0.589977 -0.286517
vn 0.876678 -0.481078 0.000040
vn 0.963323 -0.203972 0.174368
vn -0.007595 -0.954795 0.297169
vn -0.794582 -0.599892 -0.093643
vn -0.883190 -0.393542 -0.255147
vn -0.080828 -0.800087 0.594413
vn -0.131265 -0.966880 -0.218890
vn -0.128590 -0.834524 -0.535756
vn -0.131265 -0.966880 -0.218890
vn -0.089709 -0.582174 0.808100
vn 0.099562 -0.515242 0.851242
vn 0.300508 -0.645437 0.702215
vn 0.324637 -0.803486 0.499020
vn 0.937400 0.145257 0.316515
vn 0.975972 0.185695 0.113998
vn 0.937400 0.145257 0.316515
vn 0.702906 0.540237 0.462673
vn -0.128590 -0.834524 -0.535756
vn -0.873826 -0.288188 -0.391632
vn -0.047284 0.306846 -0.950584
vn 0.119967 0.272379 -0.954682
vn 0.151131 0.544397 -0.825100
vn 0.287575 0.751544 -0.593702
vn 0.395301 0.540887 -0.742414
vn 0.171386 0.912697 0.370960
vn 0.390171 0.346251 -0.853157
vn 0.456362 0.429255 -0.779406
vn 0.975972 0.185695 0.113998
vn 0.421394 0.862715 0.279553
vn 0.822295 0.492299 0.285435
vn -0.018263 0.046174 0.998766
vn 0.320835 0.806929 0.495913
vn 0.043648 0.884261 0.464948
vn 0.171386 0.912697 0.370960
vn 0.320835 0.806929 0.495913
vn -0.079126 -0.403614 0.911502
vn -0.074874 -0.403652 0.911844
vn -0.202916 -0.387539 0.899244
vn 0.946451 -0.187100 0.263104
vn 0.822295 0.492299 0.285435
vn 0.702906 0.540237 0.462673
vn 0.421394 0.862715 0.279553
f 8/8/8 9/9/9 10/10/10
f 26/26/26 9/9/9 8/8/8
f 9/9/9 11/11/11 10/10/10
f 10/10/10 11/11/11 12/12/12
f 13/13/13 12/12/12 11/11/11
f 10/10/10 16/16/16 8/8/8
f 12/12/12 16/16/16 10/10/10
f 12/12/12 13/13/13 53/53/53
f 16/16/16 12/12/12 53/53/53
f 55/55/55 53/53/53 13/13/13
f 55/55/55 54/54/54 53/53/53
f 53/53/53 54/54/54 16/16/16
f 58/58/58 54/54/54 55/55/55
f 16/16/16 54/54/54 58/58/58
f 55/55/55 59/59/59 58/58/58
f 62/62/62 58/58/58 59/59/59
f 64/64/64 58/58/58 62/62/62
f 64/64/64 16/16/16 58/58/58
f 64/64/64 62/62/62 67/67/67
f 66/66/66 64/64/64 67/67/67
f 16/16/16 64/64/64 63/63/63
f 66/66/66 63/63/63 64/64/64
f 143/143/143 66/66/66 67/67/67
f 63/63/63 66/66/66 143/143/143
f 143/143/143 67/67/67 146/146/146
f 144/144/144 143/143/143 146/146/146
f 144/144/144 146/146/146 150/150/150
f 142/142/142 143/143/143 144/144/144
f 143/143/143 142/142/142 63/63/63
f 144/144/144 150/150/150 145/145/145
f 142/142/142 144/144/144 145/145/145
f 145/145/145 150/150/150 151/151/151
f 151/151/151 149/149/149 145/145/145
f 63/63/63 142/142/142 139/139/139
f 63/63/63 139/139/139 65/65/65
f 29/29/29 63/63/63 65/65/65
f 16/16/16 63/63/63 29/29/29
f 142/142/142 141/141/141 139/139/139
f 141/141/141 142/142/142 145/145/145
f 140/140/140 139/139/139 141/141/141
f 148/148/148 145/145/145 149/149/149
f 141/141/141 145/145/145 148/148/148
f 120/120/120 148/148/148 149/149/149
f 29/29/29 27/27/27 16/16/16
f 27/27/27 29/29/29 30/30/30
f 8/8/8 16/16/16 27/27/27
f 30/30/30 24/24/24 27/27/27
f 27/27/27 24/24/24 8/8/8
f 8/8/8 24/24/24 25/25/25
f 148/148/148 120/120/120 147/147/147
f 141/141/141 148/148/148 147/147/147
f 147/147/147 120/120/120 118/118/118
f 120/120/120 121/121/121 118/118/118
f 141/141/141 147/147/147 110/110/110
f 110/110/110 147/147/147 118/118/118
f 140/140/140 141/141/141 110/110/110
f 106/106/106 140/140/140 110/110/110
f 110/110/110 118/118/118 107/107/107
f 106/106/106 110/110/110 107/107/107
f 107/107/107 118/118/118 119/119/119
f 105/105/105 106/106/106 107/107/107
f 107/107/107 119/119/119 117/117/117
f 117/117/117 105/105/105 107/107/107
f 33/33/33 34/34/34 35/35/35
f 37/37/37 34/34/34 33/33/33
f 35/35/35 36/36/36 33/33/33
f 37/37/37 33/33/33 38/38/38
f 40/40/40 37/37/37 38/38/38
f 39/39/39 33/33/33 36/36/36
f 33/33/33 39/39/39 38/38/38
f 40/40/40 38/38/38 41/41/41
f 38/38/38 39/39/39 41/41/41
f 42/42/42 40/40/40 41/41/41
f 42/42/42 41/41/41 39/39/39
f 74/74/74 40/40/40 42/42/42
f 35/35/35 43/43/43 36/36/36
f 44/44/44 43/43/43 35/35/35
f 36/36/36 43/43/43 39/39/39
f 74/74/74 42/42/42 52/52/52
f 39/39/39 52/52/52 42/42/42
f 75/75/75 74/74/74 52/52/52
f 43/43/43 45/45/45 39/39/39
f 46/46/46 45/45/45 43/43/43
f 45/45/45 46/46/46 47/47/47
f 48/48/48 45/45/45 47/47/47
f 49/49/49 45/45/45 48/48/48
f 45/45/45 49/49/49 39/39/39
f 51/51/51 39/39/39 49/49/49
f 52/52/52 39/39/39 51/51/51
f 49/49/49 50/50/50 51/51/51
f 76/76/76 75/75/75 52/52/52
f 76/76/76 52/52/52 51/51/51
f 75/75/75 76/76/76 85/85/85
f 128/128/128 51/51/51 50/50/50
f 86/86/86 85/85/85 76/76/76
f 51/51/51 86/86/86 76/76/76
f 85/85/85 86/86/86 154/154/154
f 51/51/51 128/128/128 131/131/131
f 86/86/86 51/51/51 131/131/131
f 128/128/128 127/127/127 131/131/131
f 152/152/152 154/154/154 86/86/86
f 131/131/131 152/152/152 86/86/86
f 154/154/154 152/152/152 153/153/153
f 131/131/131 132/132/132 152/152/152
f 152/152/152 132/132/132 153/153/153
f 127/127/127 132/132/132 131/131/131
f 138/138/138 153/153/153 132/132/132
f 127/127/127 128/128/128 126/126/126
f 132/132/132 133/133/133 138/138/138
f 132/132/132 127/127/127 133/133/133
f 135/135/135 138/138/138 133/133/133
f 124/124/124 127/127/127 126/126/126
f 124/124/124 126/126/126 125/125/125
f 134/134/134 133/133/133 127/127/127
f 134/134/134 135/135/135 133/133/133
f 134/134/134 127/127/127 124/124/124
f 135/135/135 134/134/134 123/123/123
f 97/97/97 124/124/124 125/125/125
f 134/134/134 99/99/99 123/123/123
f 124/124/124 99/99/99 134/134/134
f 122/122/122 123/123/123 99/99/99
f 96/96/96 124/124/124 97/97/97
f 99/99/99 124/124/124 96/96/96
f 96/96/96 97/97/97 94/94/94
f 94/94/94 95/95/95 96/96/96
f 95/95/95 99/99/99 96/96/96
f 99/99/99 95/95/95 114/114/114
f 157/157/157 158/158/158 159/159/159
f 158/158/158 157/157/157 160/160/160
f 68/68/68 69/69/69 70/70/70
f 81/81/81 68/68/68 70/70/70
f 81/81/81 70/70/70 82/82/82
f 81/81/81 82/82/82 83/83/83
f 82/82/82 84/84/84 83/83/83
f 20/20/20 21/21/21 22/22/22
f 28/28/28 20/20/20 22/22/22
f 31/31/31 20/20/20 28/28/28
f 31/31/31 32/32/32 20/20/20
f 129/129/129 32/32/32 31/31/31
f 129/129/129 130/130/130 32/32/32
f 129/129/129 109/109/109 130/130/130
f 109/109/109 129/129/129 108/108/108
f 109/109/109 108/108/108 92/92/92
f 92/92/92 108/108/108 103/103/103
f 109/109/109 92/92/92 98/98/98
f 92/92/92 103/103/103 104/104/104
f 92/92/92 91/91/91 98/98/98
f 92/92/92 104/104/104 93/93/93
f 91/91/91 92/92/92 93/93/93
f 1/1/1 2/2/2 3/3/3
f 7/7/7 3/3/3 2/2/2
f 2/2/2 1/1/1 6/6/6
f 3/3/3 7/7/7 15/15/15
f 1/1/1 5/5/5 6/6/6
f 14/14/14 15/15/15 7/7/7
f 4/4/4 5/5/5 1/1/1
f 14/14/14 56/56/56 15/15/15
f 5/5/5 4/4/4 17/17/17
f 56/56/56 14/14/14 57/57/57
f 17/17/17 18/18/18 5/5/5
f 18/18/18 17/17/17 19/19/19
f 19/19/19 23/23/23 18/18/18
f 60/60/60 57/57/57 14/14/14
f 57/57/57 60/60/60 61/61/61
f 77/77/77 61/61/61 60/60/60
f 77/77/77 88/88/88 61/61/61
f 88/88/88 77/77/77 89/89/89
f 90/90/90 88/88/88 89/89/89
f 88/88/88 90/90/90 155/155/155
f 155/155/155 90/90/90 156/156/156
f 156/156/156 163/163/163 155/155/155
f 163/163/163 156/156/156 162/162/162
f 162/162/162 161/161/161 163/163/163
f 137/137/137 161/161/161 162/162/162
f 161/161/161 137/137/137 136/136/136
f 116/116/116 136/136/136 137/137/137
f 136/136/136 116/116/116 115/115/115
f 115/115/115 116/116/116 113/113/113
f 115/115/115 113/113/113 112/112/112
f 112/112/112 113/113/113 102/102/102
f 112/112/112 102/102/102 111/111/111
f 111/111/111 102/102/102 101/101/101
f 100/100/100 101/101/101 102/102/102
f 71/71/71 72/72/72 73/73/73
f 72/72/72 71/71/71 78/78/78
f 79/79/79 72/72/72 78/78/78
f 72/72/72 79/79/79 80/80/80
f 87/87/87 80/80/80 79/79/79
