# Generated from Roblox mesh JSON (v2.00)
# Hello from RBX_Toolbox ;)
o LeftFootWrapTarget
v -0.200106 0.044976 0.586789
v -0.379223 0.186513 0.503699
v -0.382121 0.050173 0.497217
v -0.184990 0.189148 0.583702
v -0.212446 -0.102044 0.584275
v -0.383921 -0.092435 0.504462
v -0.164770 -0.210678 0.582873
v -0.377637 -0.213289 0.504219
v 0.135486 -0.199122 0.593188
v 0.149204 -0.087592 0.596385
v 0.115693 0.046650 0.592184
v 0.103837 0.193764 0.581740
v 0.364784 0.196347 0.509485
v 0.380204 0.037569 0.510745
v 0.380926 -0.094906 0.499813
v 0.352837 -0.222142 0.481790
v 0.361781 -0.210363 0.132531
v -0.395887 -0.209579 0.204311
v 0.351102 -0.215400 -0.144842
v -0.380591 -0.203028 -0.094396
v -0.371904 -0.218680 -0.261764
v 0.351351 -0.218063 -0.295393
v -0.347624 -0.217270 -0.378616
v 0.331733 -0.215480 -0.420195
v -0.266571 -0.213470 -0.508986
v 0.238374 -0.210867 -0.523523
v -0.120850 -0.214490 -0.592004
v 0.070573 -0.207535 -0.594302
v -0.392107 0.191318 -0.201198
v -0.393980 0.058555 0.148970
v -0.407009 0.171350 0.159411
v -0.379223 0.186513 0.503699
v -0.382121 0.050173 0.497217
v -0.383921 -0.092435 0.504462
v -0.381637 0.098712 -0.195642
v -0.205191 0.209198 -0.315355
v -0.404608 -0.100240 0.174619
v -0.395887 -0.209579 0.204311
v -0.377637 -0.213289 0.504219
v -0.384492 -0.086827 -0.128648
v -0.380591 -0.203028 -0.094396
v -0.387953 -0.100056 -0.269911
v -0.371904 -0.218680 -0.261764
v -0.361595 -0.096318 -0.379846
v -0.347624 -0.217270 -0.378616
v -0.351739 0.063595 -0.320676
v -0.268994 -0.090782 -0.521656
v -0.266571 -0.213470 -0.508986
v -0.305732 0.044525 -0.419997
v -0.217412 0.190381 -0.359675
v -0.185642 0.151328 -0.422355
v -0.256692 0.003103 -0.496503
v -0.147270 0.105346 -0.493834
v 0.113007 0.194992 -0.369896
v 0.107784 0.222142 -0.312175
v 0.108330 0.164475 -0.432433
v 0.075604 0.116186 -0.504012
v -0.122450 0.026105 -0.558946
v 0.361186 0.097787 -0.251021
v 0.360672 0.199770 -0.232870
v 0.305628 0.077482 -0.363799
v 0.280491 0.055326 -0.437941
v 0.384588 0.044125 0.118585
v 0.407009 0.177649 0.117038
v 0.380204 0.037569 0.510745
v 0.364784 0.196347 0.509485
v 0.380926 -0.094906 0.499813
v 0.380182 -0.106842 0.154769
v 0.352837 -0.222142 0.481790
v 0.361781 -0.210363 0.132531
v 0.375160 -0.091074 -0.178278
v 0.351102 -0.215400 -0.144842
v 0.368506 -0.088682 -0.320335
v 0.351351 -0.218063 -0.295393
v 0.334967 -0.097159 -0.422883
v 0.331733 -0.215480 -0.420195
v 0.223479 0.002258 -0.513083
v 0.243688 -0.085759 -0.532051
v 0.238374 -0.210867 -0.523523
v 0.050983 0.038280 -0.557029
v 0.058038 -0.093794 -0.596385
v -0.118842 -0.092573 -0.594884
v 0.070573 -0.207535 -0.594302
v 0.238374 -0.210867 -0.523523
v -0.120850 -0.214490 -0.592004
v -0.266571 -0.213470 -0.508986
vt 4.238916 0.717542
vt 4.194766 0.734033
vt 4.194766 0.717542
vt 4.239410 0.734033
vt 4.238421 0.701050
vt 4.194766 0.701050
vt 4.239748 0.685211
vt 4.194766 0.668763
vt 4.271337 0.685211
vt 4.268683 0.701050
vt 4.269673 0.717542
vt 4.270662 0.734033
vt 4.318013 0.734033
vt 4.318013 0.717542
vt 4.318014 0.701050
vt 4.318014 0.668763
vt 4.348825 0.538116
vt 4.163954 0.538116
vt 4.348825 0.494111
vt 4.163954 0.462950
vt 4.163954 0.380830
vt 4.348826 0.380830
vt 4.179359 0.323398
vt 4.333420 0.323398
vt 4.189588 0.285271
vt 4.323192 0.285270
vt 4.194766 0.265967
vt 4.318013 0.265967
vt 4.682165 0.537171
vt 4.715122 0.584724
vt 4.682165 0.599918
vt 4.682165 0.655552
vt 4.715122 0.655552
vt 4.748080 0.655552
vt 4.704069 0.501414
vt 4.638152 0.537171
vt 4.748080 0.569530
vt 4.836046 0.578310
vt 4.836046 0.655553
vt 4.725915 0.472138
vt 4.836046 0.537171
vt 4.709523 0.418805
vt 4.792063 0.379687
vt 4.693130 0.365472
vt 4.770072 0.337042
vt 4.695858 0.454766
vt 4.682165 0.322827
vt 4.748080 0.294397
vt 4.687648 0.408117
vt 4.638152 0.468094
vt 4.638152 0.438105
vt 4.684693 0.357269
vt 4.638152 0.408117
vt 4.550125 0.476610
vt 4.550125 0.537171
vt 4.550125 0.442364
vt 4.550125 0.408117
vt 4.638481 0.354811
vt 4.483266 0.510566
vt 4.506112 0.537171
vt 4.491948 0.459342
vt 4.500629 0.408117
vt 4.473155 0.594565
vt 4.506112 0.599918
vt 4.473155 0.655553
vt 4.506112 0.655553
vt 4.440198 0.655553
vt 4.440198 0.589211
vt 4.352232 0.655553
vt 4.352232 0.537170
vt 4.459850 0.479509
vt 4.370994 0.469989
vt 4.477498 0.422491
vt 4.396214 0.379687
vt 4.495147 0.365472
vt 4.418206 0.337042
vt 4.503837 0.357023
vt 4.506112 0.322827
vt 4.440197 0.294397
vt 4.550454 0.354811
vt 4.551442 0.322827
vt 4.639468 0.322827
vt 4.553146 0.265967
vt 4.506112 0.265967
vt 4.641173 0.265968
vt 4.682165 0.265968
vn -0.228277 0.016329 0.973459
vn -0.813848 -0.003400 0.581068
vn -0.845666 0.011574 0.533587
vn -0.186317 0.048022 0.981315
vn -0.266676 -0.064336 0.961636
vn -0.820686 -0.010821 0.571277
vn -0.101808 -0.727038 0.679007
vn -0.624985 -0.621167 0.472806
vn 0.120551 -0.607790 0.784894
vn 0.185650 -0.005751 0.982599
vn 0.130899 0.062711 0.989410
vn 0.131808 0.080757 0.987980
vn 0.748688 0.088781 0.656951
vn 0.798860 0.018202 0.601241
vn 0.834865 -0.133918 0.533915
vn 0.591620 -0.713709 0.374973
vn 0.652391 -0.757856 -0.006383
vn -0.695854 -0.718182 -0.001283
vn 0.632333 -0.774666 -0.006902
vn -0.703383 -0.710810 -0.001381
vn -0.662669 -0.746572 -0.059171
vn 0.674525 -0.735270 -0.066284
vn -0.649894 -0.706657 -0.279774
vn 0.675192 -0.661063 -0.327278
vn -0.506453 -0.680268 -0.529850
vn 0.416804 -0.675118 -0.608679
vn -0.179735 -0.676752 -0.713934
vn 0.150448 -0.618997 -0.770849
vn -0.839199 -0.126077 -0.529008
vn -0.999812 -0.017015 0.009260
vn -0.992903 -0.116776 0.022502
vn -0.813848 -0.003400 0.581068
vn -0.845666 0.011574 0.533587
vn -0.820686 -0.010821 0.571277
vn -0.955839 0.086080 -0.281003
vn -0.360060 0.850112 -0.384273
vn -0.999911 -0.013341 0.000086
vn -0.695854 -0.718182 -0.001283
vn -0.624985 -0.621167 0.472806
vn -0.999658 -0.017113 -0.019780
vn -0.703383 -0.710810 -0.001381
vn -0.990631 -0.016709 -0.135539
vn -0.662669 -0.746572 -0.059171
vn -0.916246 0.031866 -0.399346
vn -0.649894 -0.706657 -0.279774
vn -0.838315 0.398603 -0.371946
vn -0.664108 0.096617 -0.741368
vn -0.506453 -0.680268 -0.529850
vn -0.720760 0.433688 -0.540758
vn -0.414635 0.784691 -0.460801
vn -0.331768 0.726663 -0.601574
vn -0.606823 0.366220 -0.705442
vn -0.265786 0.669449 -0.693683
vn 0.246697 0.874791 -0.416991
vn 0.240342 0.846004 -0.475933
vn 0.230285 0.820847 -0.522665
vn 0.149524 0.681343 -0.716529
vn -0.222202 0.426788 -0.876629
vn 0.894114 0.160873 -0.417948
vn 0.796252 0.084944 -0.598971
vn 0.751413 0.529242 -0.394057
vn 0.670135 0.497789 -0.550567
vn 0.994736 -0.090745 -0.047608
vn 0.989329 -0.134798 -0.055292
vn 0.798860 0.018202 0.601241
vn 0.748688 0.088781 0.656951
vn 0.834865 -0.133918 0.533915
vn 0.994674 -0.102450 -0.011257
vn 0.591620 -0.713709 0.374973
vn 0.652391 -0.757856 -0.006383
vn 0.997014 -0.043523 -0.063792
vn 0.632333 -0.774666 -0.006902
vn 0.981772 0.080742 -0.172059
vn 0.674525 -0.735270 -0.066284
vn 0.882745 0.091329 -0.460891
vn 0.675192 -0.661063 -0.327278
vn 0.487387 0.370390 -0.790737
vn 0.571712 0.127888 -0.810426
vn 0.416804 -0.675118 -0.608679
vn 0.126675 0.420523 -0.898395
vn 0.151829 0.141334 -0.978250
vn -0.219741 0.127841 -0.967146
vn 0.150448 -0.618997 -0.770849
vn 0.416804 -0.675118 -0.608679
vn -0.179735 -0.676752 -0.713934
vn -0.506453 -0.680268 -0.529850
f 1/1/1 2/2/2 3/3/3
f 2/2/2 1/1/1 4/4/4
f 5/5/5 1/1/1 3/3/3
f 6/6/6 5/5/5 3/3/3
f 6/6/6 7/7/7 5/5/5
f 7/7/7 6/6/6 8/8/8
f 9/9/9 5/5/5 7/7/7
f 8/8/8 9/9/9 7/7/7
f 10/10/10 1/1/1 5/5/5
f 5/5/5 9/9/9 10/10/10
f 11/11/11 4/4/4 1/1/1
f 1/1/1 10/10/10 11/11/11
f 4/4/4 11/11/11 12/12/12
f 11/11/11 13/13/13 12/12/12
f 13/13/13 11/11/11 14/14/14
f 10/10/10 14/14/14 11/11/11
f 14/14/14 10/10/10 15/15/15
f 9/9/9 15/15/15 10/10/10
f 15/15/15 9/9/9 16/16/16
f 8/8/8 16/16/16 9/9/9
f 17/17/17 16/16/16 8/8/8
f 18/18/18 17/17/17 8/8/8
f 18/18/18 19/19/19 17/17/17
f 19/19/19 18/18/18 20/20/20
f 21/21/21 19/19/19 20/20/20
f 21/21/21 22/22/22 19/19/19
f 23/23/23 22/22/22 21/21/21
f 23/23/23 24/24/24 22/22/22
f 25/25/25 24/24/24 23/23/23
f 25/25/25 26/26/26 24/24/24
f 27/27/27 26/26/26 25/25/25
f 26/26/26 27/27/27 28/28/28
f 29/29/29 30/30/30 31/31/31
f 31/31/31 30/30/30 32/32/32
f 30/30/30 33/33/33 32/32/32
f 30/30/30 34/34/34 33/33/33
f 30/30/30 29/29/29 35/35/35
f 36/36/36 35/35/35 29/29/29
f 34/34/34 30/30/30 37/37/37
f 35/35/35 37/37/37 30/30/30
f 37/37/37 38/38/38 34/34/34
f 38/38/38 39/39/39 34/34/34
f 40/40/40 38/38/38 37/37/37
f 37/37/37 35/35/35 40/40/40
f 38/38/38 40/40/40 41/41/41
f 42/42/42 41/41/41 40/40/40
f 35/35/35 42/42/42 40/40/40
f 41/41/41 42/42/42 43/43/43
f 44/44/44 43/43/43 42/42/42
f 45/45/45 43/43/43 44/44/44
f 42/42/42 35/35/35 46/46/46
f 46/46/46 44/44/44 42/42/42
f 47/47/47 45/45/45 44/44/44
f 48/48/48 45/45/45 47/47/47
f 44/44/44 46/46/46 49/49/49
f 46/46/46 35/35/35 50/50/50
f 36/36/36 50/50/50 35/35/35
f 51/51/51 49/49/49 46/46/46
f 46/46/46 50/50/50 51/51/51
f 44/44/44 49/49/49 52/52/52
f 47/47/47 44/44/44 52/52/52
f 49/49/49 51/51/51 53/53/53
f 52/52/52 49/49/49 53/53/53
f 36/36/36 54/54/54 50/50/50
f 54/54/54 36/36/36 55/55/55
f 50/50/50 56/56/56 51/51/51
f 56/56/56 50/50/50 54/54/54
f 51/51/51 57/57/57 53/53/53
f 57/57/57 51/51/51 56/56/56
f 52/52/52 53/53/53 58/58/58
f 58/58/58 53/53/53 57/57/57
f 58/58/58 47/47/47 52/52/52
f 59/59/59 54/54/54 55/55/55
f 59/59/59 55/55/55 60/60/60
f 56/56/56 54/54/54 61/61/61
f 59/59/59 61/61/61 54/54/54
f 61/61/61 62/62/62 56/56/56
f 57/57/57 56/56/56 62/62/62
f 60/60/60 63/63/63 59/59/59
f 63/63/63 60/60/60 64/64/64
f 63/63/63 64/64/64 65/65/65
f 64/64/64 66/66/66 65/65/65
f 63/63/63 65/65/65 67/67/67
f 68/68/68 63/63/63 67/67/67
f 59/59/59 63/63/63 68/68/68
f 69/69/69 68/68/68 67/67/67
f 68/68/68 69/69/69 70/70/70
f 71/71/71 59/59/59 68/68/68
f 70/70/70 71/71/71 68/68/68
f 71/71/71 61/61/61 59/59/59
f 71/71/71 70/70/70 72/72/72
f 61/61/61 71/71/71 73/73/73
f 72/72/72 73/73/73 71/71/71
f 73/73/73 62/62/62 61/61/61
f 73/73/73 72/72/72 74/74/74
f 74/74/74 75/75/75 73/73/73
f 62/62/62 73/73/73 75/75/75
f 75/75/75 74/74/74 76/76/76
f 75/75/75 77/77/77 62/62/62
f 77/77/77 57/57/57 62/62/62
f 76/76/76 78/78/78 75/75/75
f 77/77/77 75/75/75 78/78/78
f 78/78/78 76/76/76 79/79/79
f 57/57/57 77/77/77 80/80/80
f 78/78/78 80/80/80 77/77/77
f 58/58/58 57/57/57 80/80/80
f 80/80/80 78/78/78 81/81/81
f 80/80/80 82/82/82 58/58/58
f 82/82/82 80/80/80 81/81/81
f 47/47/47 58/58/58 82/82/82
f 81/81/81 78/78/78 83/83/83
f 83/83/83 82/82/82 81/81/81
f 78/78/78 84/84/84 83/83/83
f 82/82/82 83/83/83 85/85/85
f 85/85/85 47/47/47 82/82/82
f 47/47/47 85/85/85 86/86/86
