# Generated from Roblox mesh JSON (v4.01)
# Hello from RBX_Toolbox ;)
o LeftLowerArm
v -0.196761 -0.181157 -0.346700
v -0.334260 -0.253887 -0.181671
v -0.309818 -0.274473 -0.095485
v -0.310908 -0.168419 -0.266553
v -0.309818 -0.274473 -0.095485
v -0.270269 -0.281788 -0.144927
v -0.329759 -0.252716 -0.090093
v -0.310908 -0.168419 -0.266553
v -0.270269 -0.281788 -0.144927
v -0.358262 -0.209150 -0.172669
v -0.205410 -0.131807 -0.355353
v -0.310908 -0.168419 -0.266553
v -0.196761 -0.181157 -0.346700
v -0.310908 -0.168419 -0.266553
v 0.159076 -0.283106 -0.120951
v -0.250064 -0.335000 0.012399
v 0.082826 -0.308859 -0.328346
v -0.188816 -0.255890 -0.353938
v 0.088472 -0.126220 -0.254651
v -0.054321 -0.166392 -0.385618
v -0.054321 -0.166392 -0.385618
v -0.309818 -0.274473 -0.095485
v -0.309818 -0.274473 -0.095485
v -0.290589 -0.316116 0.030518
v -0.270269 -0.281788 -0.144927
v -0.266213 -0.300581 0.042583
v -0.329759 -0.252716 -0.090093
v -0.290589 -0.316116 0.030518
v -0.266213 -0.300581 0.042583
v -0.329759 -0.252716 -0.090093
v -0.270269 -0.281788 -0.144927
v -0.123861 -0.367406 0.083622
v -0.123861 -0.367406 0.083622
v -0.123861 -0.367406 0.083622
v 0.126070 -0.390820 0.131717
v -0.127039 -0.338883 0.121745
v -0.252801 -0.435661 -0.084148
v 0.037814 -0.247568 0.048495
v -0.233386 -0.210811 0.017960
v -0.182726 -0.089471 -0.285281
v -0.047611 -0.118366 -0.398155
v -0.214058 -0.095861 -0.263034
v -0.176461 0.421450 0.112743
v -0.056439 0.419773 -0.083353
v -0.046376 0.453451 -0.081239
v 0.196496 -0.176144 -0.372825
v 0.079028 0.388196 -0.141864
v -0.064261 0.475931 0.101545
v 0.069423 0.465001 -0.019641
v -0.159516 0.473828 0.119712
v 0.048494 0.305177 0.374939
v -0.079736 0.356232 0.312280
v -0.056702 0.422659 0.320400
v -0.064261 0.475931 0.101545
v 0.152457 -0.370733 0.175664
v 0.073204 0.374049 0.382002
v 0.017257 0.401575 0.261869
v 0.017257 0.401575 0.261869
v 0.069423 0.465001 -0.019641
v 0.111419 -0.140067 -0.226325
v 0.104534 -0.326113 -0.300989
v 0.196496 -0.176144 -0.372825
v 0.231003 -0.190698 -0.342553
v 0.069236 -0.241089 0.026343
v 0.226148 -0.133191 -0.383504
v 0.197553 -0.285949 -0.116804
v 0.267008 -0.146201 -0.351642
v 0.225882 -0.253904 -0.099419
v 0.231003 -0.190698 -0.342553
v 0.197553 -0.285949 -0.116804
v 0.231003 -0.190698 -0.342553
v 0.267008 -0.146201 -0.351642
v 0.358263 0.304524 -0.127220
v 0.051319 -0.475931 -0.076209
v 0.186699 -0.360283 0.150159
v 0.164193 -0.380105 0.106124
v 0.126070 -0.390820 0.131717
v 0.051319 -0.475931 -0.076209
v 0.069236 -0.241089 0.026343
v 0.037814 -0.247568 0.048495
v 0.164193 -0.380105 0.106124
v 0.186699 -0.360283 0.150159
v 0.164193 -0.380105 0.106124
v 0.341760 0.259595 0.120951
v 0.298249 0.223481 0.398155
v 0.358263 0.304524 -0.127220
v 0.320756 0.315767 -0.156516
v 0.297498 0.402772 -0.042698
v 0.069423 0.465001 -0.019641
v 0.158671 0.392455 0.166119
v 0.158671 0.392455 0.166119
v 0.313523 0.309532 0.215334
v 0.297498 0.402772 -0.042698
v 0.158671 0.392455 0.166119
v 0.297498 0.402772 -0.042698
v 0.158671 0.392455 0.166119
v 0.195286 0.299719 0.340006
v 0.195286 0.299719 0.340006
v 0.017257 0.401575 0.261869
v 0.158671 0.392455 0.166119
v 0.195286 0.299719 0.340006
v 0.313523 0.309532 0.215334
v 0.158671 0.392455 0.166119
v 0.325257 0.214665 0.365943
v 0.325257 0.214665 0.365943
v 0.313523 0.309532 0.215334
vt 0.789033 0.135124
vt 0.789439 0.133545
vt 0.789236 0.134335
vt 0.789033 0.135124
vt 0.789236 0.134335
vt 0.789033 0.135124
vt 0.795187 0.136008
vt 0.794195 0.136008
vt 0.795187 0.136008
vt 0.795187 0.136008
vt 0.793203 0.136008
vt 0.789033 0.135124
vt 0.793203 0.135608
vt 0.793203 0.136008
vt 0.787627 0.133549
vt 0.789031 0.131972
vt 0.219371 0.340965
vt 0.218781 0.340873
vt 0.219366 0.340338
vt 0.791900 0.135608
vt 0.788540 0.135124
vt 0.789439 0.133545
vt 0.789031 0.131972
vt 0.788784 0.131972
vt 0.789031 0.131972
vt 0.797150 0.136008
vt 0.797824 0.135808
vt 0.798498 0.135608
vt 0.797150 0.136008
vt 0.797150 0.136008
vt 0.798498 0.135608
vt 0.798498 0.135608
vt 0.788537 0.131972
vt 0.798498 0.135608
vt 0.800742 0.135608
vt 0.798498 0.136008
vt 0.218041 0.341078
vt 0.217439 0.340338
vt 0.218026 0.340338
vt 0.218779 0.340338
vt 0.791900 0.136008
vt 0.218696 0.340338
vt 0.795187 0.140453
vt 0.793203 0.140453
vt 0.793203 0.140815
vt 0.789678 0.135608
vt 0.791900 0.140453
vt 0.794195 0.140815
vt 0.793203 0.140815
vt 0.795187 0.140815
vt 0.798498 0.140453
vt 0.797150 0.140453
vt 0.797150 0.140815
vt 0.795187 0.140815
vt 0.800742 0.136008
vt 0.798498 0.140815
vt 0.796169 0.140815
vt 0.797150 0.140815
vt 0.791900 0.140453
vt 0.219449 0.340338
vt 0.219453 0.340980
vt 0.787628 0.135124
vt 0.787487 0.135124
vt 0.220036 0.340338
vt 0.789678 0.136008
vt 0.787486 0.133551
vt 0.789231 0.136008
vt 0.787171 0.136008
vt 0.789231 0.135608
vt 0.787171 0.135608
vt 0.789230 0.135608
vt 0.789230 0.136008
vt 0.789231 0.140453
vt 0.220028 0.341155
vt 0.801109 0.136008
vt 0.787486 0.131972
vt 0.787610 0.131972
vt 0.217368 0.341135
vt 0.217356 0.340338
vt 0.217439 0.340338
vt 0.801109 0.135608
vt 0.785282 0.136008
vt 0.785282 0.135608
vt 0.787171 0.140453
vt 0.800742 0.140453
vt 0.789230 0.140453
vt 0.789678 0.140453
vt 0.789678 0.140453
vt 0.790789 0.140453
vt 0.789678 0.140453
vt 0.793203 0.140815
vt 0.787171 0.140453
vt 0.788201 0.140453
vt 0.787171 0.140453
vt 0.789230 0.140453
vt 0.795187 0.140815
vt 0.798498 0.140453
vt 0.798498 0.140634
vt 0.798498 0.140815
vt 0.798498 0.140815
vt 0.800742 0.140453
vt 0.800925 0.140453
vt 0.800742 0.140453
vt 0.785282 0.140453
vt 0.801109 0.140453
vt 0.785282 0.140453
vn -0.114127 -0.861638 -0.494524
vn -0.080977 -0.916245 -0.392349
vn -0.122510 -0.929408 -0.348126
vn -0.494792 -0.309062 -0.812196
vn -0.122510 -0.929408 -0.348126
vn -0.684893 0.283451 0.671250
vn -0.962270 0.120127 0.244143
vn -0.494792 -0.309062 -0.812196
vn -0.684893 0.283451 0.671250
vn -0.943516 0.280850 -0.175784
vn -0.602614 0.414001 -0.682245
vn -0.494792 -0.309062 -0.812196
vn -0.114127 -0.861638 -0.494524
vn -0.494792 -0.309062 -0.812196
vn -0.018098 -0.919311 -0.393116
vn -0.163779 -0.938947 -0.302582
vn 0.332004 0.343028 -0.878695
vn 0.069719 0.377035 -0.923571
vn 0.201012 0.365115 -0.909003
vn -0.040724 -0.850824 -0.523870
vn -0.040724 -0.850824 -0.523870
vn -0.122510 -0.929408 -0.348126
vn -0.122510 -0.929408 -0.348126
vn -0.070202 -0.957801 -0.278726
vn -0.684893 0.283451 0.671250
vn -0.786084 -0.065013 0.614691
vn -0.962270 0.120127 0.244143
vn -0.070202 -0.957801 -0.278726
vn -0.786084 -0.065013 0.614691
vn -0.962270 0.120127 0.244143
vn -0.684893 0.283451 0.671250
vn -0.070079 -0.957840 -0.278625
vn -0.070079 -0.957840 -0.278625
vn -0.070079 -0.957840 -0.278625
vn -0.024184 -0.991733 -0.126019
vn -0.330634 -0.321277 0.887391
vn -0.202961 -0.387528 0.899238
vn -0.074887 -0.403651 0.911843
vn -0.367636 -0.359022 0.857873
vn 0.065500 0.377082 -0.923861
vn -0.100365 0.415088 -0.904228
vn -0.939778 0.165695 -0.298937
vn -0.965472 0.243026 0.093820
vn -0.611872 0.482104 -0.627047
vn -0.713185 0.227305 -0.663099
vn 0.015482 -0.809354 -0.587117
vn -0.013372 0.428100 -0.903633
vn -0.913698 0.379385 0.145677
vn -0.393356 0.354823 -0.848158
vn -0.913719 0.379368 0.145593
vn -0.313603 -0.253172 0.915181
vn -0.739839 -0.022424 0.672410
vn -0.627245 0.354519 0.693455
vn -0.913698 0.379385 0.145677
vn -0.146207 -0.347973 0.926034
vn -0.188824 0.203057 0.960788
vn -0.423470 0.289309 0.858472
vn -0.423470 0.289309 0.858472
vn -0.393356 0.354823 -0.848158
vn 0.998882 -0.017094 -0.044078
vn 0.989615 -0.105189 0.097969
vn 0.015482 -0.809354 -0.587117
vn 0.476420 -0.832090 -0.283988
vn 0.972888 -0.134562 0.188101
vn 0.165322 0.389675 -0.905992
vn 0.486773 -0.856741 -0.170433
vn 0.975553 -0.210825 -0.062047
vn 0.963530 -0.266939 0.018805
vn 0.476420 -0.832090 -0.283988
vn 0.486773 -0.856741 -0.170433
vn 0.476420 -0.832090 -0.283988
vn 0.975553 -0.210825 -0.062047
vn 0.979975 -0.182686 -0.079213
vn 0.946449 -0.187125 0.263095
vn 0.943462 -0.304643 0.130660
vn 0.476815 -0.854294 -0.206952
vn -0.024184 -0.991733 -0.126019
vn 0.946449 -0.187125 0.263095
vn 0.972888 -0.134562 0.188101
vn -0.074867 -0.403680 0.911832
vn 0.476815 -0.854294 -0.206952
vn 0.943462 -0.304643 0.130660
vn 0.476815 -0.854294 -0.206952
vn 0.974017 -0.222908 0.040047
vn -0.000111 -0.310090 0.950707
vn 0.979975 -0.182686 -0.079213
vn 0.166327 0.389951 -0.905690
vn 0.751413 0.135874 -0.645691
vn -0.393356 0.354823 -0.848158
vn 0.453991 0.861441 0.227620
vn 0.453991 0.861441 0.227620
vn 0.964836 -0.252798 0.072001
vn 0.751413 0.135874 -0.645691
vn 0.453991 0.861441 0.227620
vn 0.751413 0.135874 -0.645691
vn 0.453991 0.861441 0.227620
vn -0.158967 -0.285335 0.945153
vn -0.158967 -0.285335 0.945153
vn -0.423470 0.289309 0.858472
vn 0.453991 0.861441 0.227620
vn -0.158967 -0.285335 0.945153
vn 0.964836 -0.252798 0.072001
vn 0.453991 0.861441 0.227620
vn 0.953708 -0.282182 0.103992
vn 0.953708 -0.282182 0.103992
vn 0.964836 -0.252798 0.072001
f 26/26/26 27/27/27 28/28/28
f 28/28/28 27/27/27 31/31/31
f 26/26/26 28/28/28 32/32/32
f 1/1/1 2/2/2 3/3/3
f 1/1/1 3/3/3 12/12/12
f 1/1/1 15/15/15 2/2/2
f 1/1/1 21/21/21 15/15/15
f 21/21/21 62/62/62 15/15/15
f 15/15/15 62/62/62 63/63/63
f 15/15/15 63/63/63 66/66/66
f 76/76/76 15/15/15 66/66/66
f 15/15/15 76/76/76 77/77/77
f 15/15/15 77/77/77 33/33/33
f 2/2/2 15/15/15 16/16/16
f 33/33/33 16/16/16 15/15/15
f 2/2/2 16/16/16 22/22/22
f 16/16/16 33/33/33 24/24/24
f 16/16/16 24/24/24 23/23/23
f 23/23/23 24/24/24 25/25/25
f 67/67/67 68/68/68 69/69/69
f 69/69/69 68/68/68 70/70/70
f 68/68/68 83/83/83 70/70/70
f 73/73/73 68/68/68 67/67/67
f 68/68/68 82/82/82 83/83/83
f 68/68/68 73/73/73 84/84/84
f 84/84/84 82/82/82 68/68/68
f 104/104/104 82/82/82 84/84/84
f 104/104/104 84/84/84 106/106/106
f 84/84/84 73/73/73 93/93/93
f 84/84/84 93/93/93 92/92/92
f 92/92/92 93/93/93 94/94/94
f 37/37/37 38/38/38 39/39/39
f 78/78/78 79/79/79 80/80/80
f 7/7/7 8/8/8 9/9/9
f 10/10/10 8/8/8 7/7/7
f 10/10/10 11/11/11 8/8/8
f 11/11/11 13/13/13 14/14/14
f 11/11/11 20/20/20 13/13/13
f 11/11/11 41/41/41 20/20/20
f 41/41/41 46/46/46 20/20/20
f 10/10/10 44/44/44 11/11/11
f 41/41/41 11/11/11 44/44/44
f 41/41/41 65/65/65 46/46/46
f 71/71/71 46/46/46 65/65/65
f 72/72/72 71/71/71 65/65/65
f 86/86/86 72/72/72 65/65/65
f 65/65/65 87/87/87 86/86/86
f 86/86/86 87/87/87 95/95/95
f 47/47/47 65/65/65 41/41/41
f 65/65/65 47/47/47 87/87/87
f 47/47/47 41/41/41 44/44/44
f 47/47/47 88/88/88 87/87/87
f 47/47/47 89/89/89 88/88/88
f 88/88/88 89/89/89 90/90/90
f 45/45/45 47/47/47 44/44/44
f 47/47/47 45/45/45 59/59/59
f 43/43/43 45/45/45 44/44/44
f 44/44/44 10/10/10 43/43/43
f 45/45/45 43/43/43 50/50/50
f 45/45/45 50/50/50 48/48/48
f 45/45/45 48/48/48 49/49/49
f 49/49/49 48/48/48 91/91/91
f 53/53/53 50/50/50 43/43/43
f 53/53/53 54/54/54 50/50/50
f 53/53/53 57/57/57 54/54/54
f 54/54/54 57/57/57 96/96/96
f 43/43/43 52/52/52 53/53/53
f 29/29/29 43/43/43 10/10/10
f 43/43/43 29/29/29 52/52/52
f 29/29/29 10/10/10 30/30/30
f 52/52/52 56/56/56 53/53/53
f 53/53/53 56/56/56 58/58/58
f 52/52/52 29/29/29 51/51/51
f 52/52/52 51/51/51 56/56/56
f 56/56/56 51/51/51 98/98/98
f 56/56/56 98/98/98 99/99/99
f 99/99/99 98/98/98 100/100/100
f 36/36/36 51/51/51 29/29/29
f 36/36/36 29/29/29 34/34/34
f 34/34/34 35/35/35 36/36/36
f 55/55/55 51/51/51 36/36/36
f 55/55/55 36/36/36 35/35/35
f 55/55/55 35/35/35 75/75/75
f 35/35/35 81/81/81 75/75/75
f 51/51/51 55/55/55 85/85/85
f 75/75/75 85/85/85 55/55/55
f 51/51/51 85/85/85 97/97/97
f 85/85/85 75/75/75 105/105/105
f 105/105/105 101/101/101 85/85/85
f 105/105/105 102/102/102 101/101/101
f 101/101/101 102/102/102 103/103/103
f 17/17/17 18/18/18 19/19/19
f 40/40/40 19/19/19 18/18/18
f 18/18/18 42/42/42 40/40/40
f 17/17/17 19/19/19 60/60/60
f 60/60/60 61/61/61 17/17/17
f 60/60/60 64/64/64 61/61/61
f 64/64/64 74/74/74 61/61/61
f 4/4/4 5/5/5 6/6/6
