# Generated from Roblox mesh JSON (v2.00)
# Hello from RBX_Toolbox ;)
o LowerTorsoWrapTarget
v 0.676292 0.235646 -0.479483
v 0.789945 0.107355 -0.323264
v 0.704847 0.126250 -0.496769
v 0.781514 0.215976 -0.332849
v 0.779625 0.092350 0.002716
v 0.774550 0.201851 0.002734
v 0.792813 -0.030433 -0.002617
v 0.797123 -0.027127 -0.338850
v 0.686463 -0.024651 -0.487908
v 0.794338 -0.156121 0.002931
v 0.806078 -0.149036 -0.350540
v 0.327360 0.098680 0.483747
v 0.662791 0.188730 0.491371
v 0.338422 0.217732 0.474643
v 0.302916 -0.008292 0.500934
v -0.011095 -0.091123 0.476407
v 0.252706 -0.101978 0.487365
v 0.670858 0.079625 0.501483
v 0.808198 0.072614 0.338499
v 0.687910 -0.031012 0.506740
v 0.620097 -0.162260 0.494147
v 0.133526 -0.165329 0.479892
v 0.780647 0.186684 0.327333
v -0.018397 -0.150507 0.480793
v -0.148888 -0.174402 0.449506
v 0.015882 -0.209551 0.403000
v 0.779625 0.092350 0.002716
v 0.774550 0.201851 0.002734
v 0.792813 -0.030433 -0.002617
v 0.808762 -0.031919 0.352128
v 0.794338 -0.156121 0.002931
v 0.816653 -0.159103 0.354183
v 0.620097 -0.162260 0.494147
v 0.302811 -0.193309 0.460197
v 0.252706 -0.101978 0.487365
v 0.133526 -0.165329 0.479892
v 0.028997 -0.230549 0.425015
v 0.015882 -0.209551 0.403000
v -0.016130 -0.260418 -0.032186
v 0.028997 -0.230549 0.425015
v -0.016987 -0.246724 -0.023593
v -0.021531 -0.224546 -0.016138
v -0.001915 -0.184660 0.394764
v -0.022168 -0.195422 0.364997
v -0.023570 -0.230895 -0.032544
v -0.029185 -0.213937 -0.038098
v -0.035540 -0.201629 0.365463
v -0.807917 0.106159 0.324782
v -0.661466 0.221381 0.470179
v -0.772101 0.222857 0.316815
v -0.755371 0.228490 -0.034656
v -0.776621 0.105506 -0.030490
v -0.794188 -0.022263 -0.030264
v -0.813639 -0.014462 0.334590
v -0.789471 -0.145157 -0.021069
v -0.816653 -0.145597 0.347460
v -0.646322 0.002370 0.512507
v -0.816653 -0.145597 0.347460
v -0.635681 -0.156786 0.510603
v -0.655480 0.122437 0.486313
v -0.264231 -0.107173 0.496821
v -0.306437 -0.209680 0.457998
v -0.148888 -0.174402 0.449506
v -0.035540 -0.201629 0.365463
v -0.022168 -0.195422 0.364997
v -0.304701 0.120580 0.489185
v -0.316061 0.226321 0.480848
v -0.285365 0.015439 0.494473
v -0.264231 -0.107173 0.496821
v -0.635681 -0.156786 0.510603
v 0.006134 0.015361 0.476762
v 0.026929 0.104463 0.473946
v 0.026929 0.104463 0.473946
v -0.316061 0.226321 0.480848
v -0.304701 0.120580 0.489185
v 0.008058 0.215840 0.456744
v 0.338422 0.217732 0.474643
v 0.327360 0.098680 0.483747
v -0.068068 -0.162789 -0.428330
v -0.029185 -0.213937 -0.038098
v -0.071299 -0.188453 -0.457908
v -0.023570 -0.230895 -0.032544
v -0.129875 -0.094054 -0.486765
v -0.366972 -0.171017 -0.478128
v -0.031708 -0.165980 -0.439310
v -0.021531 -0.224546 -0.016138
v -0.016987 -0.246724 -0.023593
v -0.017906 -0.095366 -0.501957
v 0.014987 -0.182492 -0.427650
v -0.016130 -0.260418 -0.032186
v 0.035474 -0.205296 -0.438739
v 0.120822 -0.125547 -0.507445
v 0.331359 -0.165873 -0.479716
v 0.011390 0.007645 -0.482331
v 0.177711 -0.015733 -0.480264
v 0.396845 -0.025797 -0.487928
v 0.681150 -0.153277 -0.491675
v -0.176054 -0.001231 -0.478795
v 0.012558 0.145072 -0.475479
v 0.200980 0.139156 -0.479414
v -0.008507 0.256000 -0.470366
v 0.219313 0.259408 -0.474016
v 0.421901 0.130592 -0.493554
v 0.443481 0.251452 -0.486612
v -0.196600 0.126218 -0.474164
v -0.224500 0.256275 -0.469537
v -0.438067 0.131747 -0.493760
v -0.459724 0.260418 -0.491468
v -0.426728 0.000191 -0.505092
v -0.701762 -0.156354 -0.496744
v -0.701649 -0.033551 -0.512507
v -0.798312 -0.167096 -0.319545
v -0.685981 0.117687 -0.491031
v -0.674744 0.234830 -0.474203
v -0.798368 -0.029989 -0.345935
v -0.789471 -0.145157 -0.021069
v -0.794188 -0.022263 -0.030264
v -0.791907 0.112697 -0.344836
v -0.767018 0.216429 -0.326656
v -0.776621 0.105506 -0.030490
v -0.755371 0.228490 -0.034656
vt 3.271659 2.636393
vt 3.177870 2.546707
vt 3.271659 2.549852
vt 3.167464 2.636393
vt 3.042032 2.542630
vt 3.042032 2.636393
vt 3.042032 2.487455
vt 3.186493 2.489494
vt 3.275820 2.445803
vt 3.042032 2.432280
vt 3.195116 2.432280
vt 3.417974 1.377045
vt 3.336048 1.327824
vt 3.417974 1.327824
vt 3.417974 1.417494
vt 3.498074 1.477198
vt 3.417974 1.477198
vt 3.336048 1.376977
vt 3.172199 1.412895
vt 3.336048 1.417460
vt 3.258233 1.542105
vt 3.417974 1.534965
vt 3.172199 1.327824
vt 3.498074 1.534965
vt 3.582026 1.534965
vt 3.417974 1.605545
vt 3.008351 1.429885
vt 3.008351 1.327824
vt 3.008351 1.489942
vt 3.172199 1.481448
vt 3.008351 1.550001
vt 3.172199 1.550001
vt 3.258233 1.542105
vt 3.336048 1.534965
vt 3.417974 1.477198
vt 3.417974 1.534965
vt 3.336049 1.605545
vt 3.417974 1.605545
vt 3.424274 1.772176
vt 3.336049 1.605545
vt 3.462327 1.772176
vt 3.498074 1.772176
vt 3.498074 1.605545
vt 3.582026 1.605545
vt 3.537673 1.772176
vt 3.575727 1.772176
vt 3.663951 1.605545
vt 3.827801 1.412895
vt 3.663952 1.327824
vt 3.827801 1.327824
vt 3.991649 1.327824
vt 3.991649 1.429885
vt 3.991649 1.489942
vt 3.827801 1.481448
vt 3.991649 1.550001
vt 3.827801 1.550001
vt 3.663952 1.417460
vt 3.827801 1.550001
vt 3.741767 1.542106
vt 3.663952 1.376977
vt 3.582026 1.477198
vt 3.663952 1.534965
vt 3.582026 1.534965
vt 3.663951 1.605545
vt 3.582026 1.605545
vt 3.582026 1.377045
vt 3.582026 1.327824
vt 3.582026 1.417494
vt 3.582026 1.477198
vt 3.741767 1.542106
vt 3.498074 1.417527
vt 3.498074 1.377113
vt 3.498074 1.377113
vt 3.582026 1.327824
vt 3.582026 1.377045
vt 3.498074 1.327824
vt 3.417974 1.327824
vt 3.417974 1.377045
vt 3.554923 2.306781
vt 3.570145 2.263607
vt 3.610971 2.306781
vt 3.534590 2.263607
vt 3.575256 2.349955
vt 3.651798 2.349955
vt 3.500000 2.306782
vt 3.500000 2.263608
vt 3.465409 2.263607
vt 3.500000 2.349956
vt 3.445077 2.306781
vt 3.429855 2.263607
vt 3.389029 2.306781
vt 3.424744 2.349955
vt 3.348202 2.349955
vt 3.500000 2.457932
vt 3.424744 2.457932
vt 3.348202 2.457932
vt 3.264923 2.394740
vt 3.575256 2.457932
vt 3.500000 2.554491
vt 3.424744 2.553485
vt 3.500000 2.636393
vt 3.424744 2.636393
vt 3.348202 2.552480
vt 3.348202 2.636393
vt 3.575256 2.553485
vt 3.575256 2.636393
vt 3.651798 2.552480
vt 3.651798 2.636393
vt 3.651798 2.457932
vt 3.735077 2.394740
vt 3.724180 2.445803
vt 3.804884 2.432280
vt 3.728341 2.549852
vt 3.728341 2.636393
vt 3.813507 2.489494
vt 3.957968 2.432280
vt 3.957968 2.487455
vt 3.822130 2.546707
vt 3.832536 2.636393
vt 3.957968 2.542630
vt 3.957968 2.636393
vn 0.455188 0.207757 -0.865818
vn 0.972556 0.091408 -0.213959
vn 0.537947 0.100705 -0.836942
vn 0.944707 0.041250 -0.325312
vn 0.996000 0.088635 -0.011265
vn 0.998921 0.046297 0.003590
vn 0.998552 0.050959 -0.017214
vn 0.958975 0.058675 -0.277351
vn 0.429747 -0.033143 -0.902341
vn 0.999589 0.023305 -0.016707
vn 0.942637 0.072796 -0.325784
vn -0.043511 0.119082 0.991931
vn 0.387412 0.135322 0.911921
vn -0.040451 0.087023 0.995385
vn -0.043997 0.022263 0.998784
vn -0.027438 -0.016727 0.999484
vn -0.016037 -0.174798 0.984474
vn 0.394459 0.114093 0.911803
vn 0.949070 0.142244 0.281129
vn 0.435094 -0.046776 0.899169
vn 0.185351 -0.210556 0.959850
vn -0.043342 -0.360334 0.931816
vn 0.937594 0.231734 0.259260
vn -0.134308 -0.429405 0.893069
vn 0.136052 -0.658549 0.740137
vn -0.803055 -0.496853 0.328998
vn 0.996000 0.088635 -0.011265
vn 0.998921 0.046297 0.003590
vn 0.998552 0.050959 -0.017214
vn 0.948220 0.053074 0.313148
vn 0.999589 0.023305 -0.016707
vn 0.937503 -0.025722 0.347025
vn 0.185351 -0.210556 0.959850
vn -0.023906 -0.340034 0.940109
vn -0.016037 -0.174798 0.984474
vn -0.043342 -0.360334 0.931816
vn -0.722960 -0.003107 0.690883
vn -0.803055 -0.496853 0.328998
vn -0.997291 -0.067530 -0.029162
vn -0.722960 -0.003107 0.690883
vn -0.986988 -0.158160 0.028982
vn -0.064004 -0.990247 0.123748
vn -0.491712 -0.844345 0.212842
vn 0.311864 -0.926043 0.212566
vn 0.062992 -0.997939 -0.012269
vn -0.947301 -0.317128 0.045284
vn 0.374871 -0.811683 0.447931
vn -0.938551 0.170666 0.299991
vn -0.444070 0.150861 0.883200
vn -0.922090 0.286418 0.260222
vn -0.985416 0.170077 -0.005451
vn -0.986611 0.162546 -0.013343
vn -0.999124 0.037471 -0.018629
vn -0.941248 0.059158 0.332494
vn -0.999402 -0.028006 -0.020261
vn -0.927746 0.027855 0.372170
vn -0.355839 0.082269 0.930919
vn -0.927746 0.027855 0.372170
vn -0.299524 -0.070517 0.951479
vn -0.396102 0.137723 0.907819
vn 0.088893 -0.189413 0.977865
vn 0.118337 -0.442131 0.889110
vn 0.136052 -0.658549 0.740137
vn 0.374871 -0.811683 0.447931
vn 0.311864 -0.926043 0.212566
vn 0.017468 0.069156 0.997453
vn 0.008900 0.087497 0.996125
vn 0.047297 0.048909 0.997683
vn 0.088893 -0.189413 0.977865
vn -0.299524 -0.070517 0.951479
vn -0.002449 0.023721 0.999716
vn 0.003194 0.084196 0.996444
vn 0.003194 0.084196 0.996444
vn 0.008900 0.087497 0.996125
vn 0.017468 0.069156 0.997453
vn 0.019537 0.155835 0.987590
vn -0.040451 0.087023 0.995385
vn -0.043511 0.119082 0.991931
vn 0.626123 -0.536026 -0.566257
vn -0.947301 -0.317128 0.045284
vn 0.767324 0.091507 -0.634697
vn 0.062992 -0.997939 -0.012269
vn 0.012061 -0.121091 -0.992568
vn 0.055917 -0.121616 -0.991001
vn -0.198309 -0.818126 -0.539762
vn -0.064004 -0.990247 0.123748
vn -0.986988 -0.158160 0.028982
vn -0.117416 -0.233297 -0.965290
vn -0.479075 -0.710347 -0.515650
vn -0.997291 -0.067530 -0.029162
vn -0.602091 -0.428421 -0.673752
vn -0.012521 -0.239130 -0.970907
vn 0.001444 -0.083269 -0.996526
vn -0.010861 0.112103 -0.993637
vn 0.027519 0.079973 -0.996417
vn -0.029330 -0.027855 -0.999182
vn 0.386856 -0.000790 -0.922140
vn 0.016322 0.034473 -0.999272
vn -0.011809 0.040127 -0.999125
vn -0.036247 0.025990 -0.999005
vn -0.012653 0.042364 -0.999022
vn -0.039851 0.053254 -0.997786
vn -0.033555 0.012945 -0.999353
vn -0.023911 0.076018 -0.996820
vn 0.041032 0.047842 -0.998012
vn 0.047047 0.041809 -0.998017
vn 0.043006 0.063143 -0.997077
vn 0.023974 0.044239 -0.998733
vn 0.061635 -0.018554 -0.997926
vn -0.507036 -0.111566 -0.854674
vn -0.486599 0.015221 -0.873493
vn -0.976998 -0.035388 -0.210291
vn -0.480380 0.145274 -0.864946
vn -0.473714 0.192685 -0.859341
vn -0.960295 0.007432 -0.278887
vn -0.999402 -0.028006 -0.020261
vn -0.999124 0.037471 -0.018629
vn -0.947855 0.147180 -0.282682
vn -0.942251 0.256530 -0.215305
vn -0.986611 0.162546 -0.013343
vn -0.985416 0.170077 -0.005451
f 1/1/1 2/2/2 3/3/3
f 2/2/2 1/1/1 4/4/4
f 2/2/2 4/4/4 5/5/5
f 4/4/4 6/6/6 5/5/5
f 7/7/7 2/2/2 5/5/5
f 8/8/8 3/3/3 2/2/2
f 2/2/2 7/7/7 8/8/8
f 3/3/3 8/8/8 9/9/9
f 10/10/10 8/8/8 7/7/7
f 11/11/11 9/9/9 8/8/8
f 8/8/8 10/10/10 11/11/11
f 12/12/12 13/13/13 14/14/14
f 15/15/15 16/16/16 17/17/17
f 12/12/12 18/18/18 13/13/13
f 15/15/15 18/18/18 12/12/12
f 19/19/19 13/13/13 18/18/18
f 18/18/18 15/15/15 20/20/20
f 17/17/17 20/20/20 15/15/15
f 20/20/20 19/19/19 18/18/18
f 21/21/21 20/20/20 17/17/17
f 22/22/22 17/17/17 16/16/16
f 13/13/13 19/19/19 23/23/23
f 24/24/24 22/22/22 16/16/16
f 25/25/25 24/24/24 16/16/16
f 24/24/24 26/26/26 22/22/22
f 27/27/27 23/23/23 19/19/19
f 28/28/28 23/23/23 27/27/27
f 27/27/27 19/19/19 29/29/29
f 29/29/29 19/19/19 30/30/30
f 19/19/19 20/20/20 30/30/30
f 30/30/30 31/31/31 29/29/29
f 31/31/31 30/30/30 32/32/32
f 20/20/20 32/32/32 30/30/30
f 32/32/32 20/20/20 33/33/33
f 34/34/34 33/33/33 35/35/35
f 35/35/35 36/36/36 34/34/34
f 36/36/36 37/37/37 34/34/34
f 37/37/37 36/36/36 38/38/38
f 26/26/26 39/39/39 40/40/40
f 39/39/39 26/26/26 41/41/41
f 41/41/41 26/26/26 42/42/42
f 42/42/42 26/26/26 43/43/43
f 26/26/26 24/24/24 43/43/43
f 44/44/44 42/42/42 43/43/43
f 43/43/43 24/24/24 44/44/44
f 24/24/24 25/25/25 44/44/44
f 42/42/42 44/44/44 45/45/45
f 44/44/44 46/46/46 45/45/45
f 46/46/46 44/44/44 47/47/47
f 48/48/48 49/49/49 50/50/50
f 51/51/51 52/52/52 50/50/50
f 52/52/52 48/48/48 50/50/50
f 52/52/52 53/53/53 48/48/48
f 53/53/53 54/54/54 48/48/48
f 55/55/55 54/54/54 53/53/53
f 54/54/54 55/55/55 56/56/56
f 57/57/57 48/48/48 54/54/54
f 58/58/58 57/57/57 54/54/54
f 59/59/59 57/57/57 58/58/58
f 48/48/48 57/57/57 60/60/60
f 49/49/49 48/48/48 60/60/60
f 61/61/61 59/59/59 62/62/62
f 63/63/63 61/61/61 62/62/62
f 63/63/63 62/62/62 64/64/64
f 65/65/65 63/63/63 64/64/64
f 66/66/66 49/49/49 60/60/60
f 49/49/49 66/66/66 67/67/67
f 68/68/68 66/66/66 60/60/60
f 57/57/57 68/68/68 60/60/60
f 69/69/69 68/68/68 57/57/57
f 70/70/70 69/69/69 57/57/57
f 71/71/71 66/66/66 68/68/68
f 66/66/66 71/71/71 72/72/72
f 16/16/16 68/68/68 69/69/69
f 68/68/68 16/16/16 71/71/71
f 16/16/16 69/69/69 25/25/25
f 71/71/71 12/12/12 72/72/72
f 12/12/12 71/71/71 15/15/15
f 16/16/16 15/15/15 71/71/71
f 73/73/73 74/74/74 75/75/75
f 74/74/74 73/73/73 76/76/76
f 73/73/73 77/77/77 76/76/76
f 73/73/73 78/78/78 77/77/77
f 79/79/79 80/80/80 81/81/81
f 80/80/80 79/79/79 82/82/82
f 81/81/81 83/83/83 79/79/79
f 83/83/83 81/81/81 84/84/84
f 85/85/85 82/82/82 79/79/79
f 82/82/82 85/85/85 86/86/86
f 85/85/85 87/87/87 86/86/86
f 79/79/79 88/88/88 85/85/85
f 88/88/88 79/79/79 83/83/83
f 89/89/89 87/87/87 85/85/85
f 88/88/88 89/89/89 85/85/85
f 90/90/90 87/87/87 89/89/89
f 91/91/91 90/90/90 89/89/89
f 91/91/91 89/89/89 92/92/92
f 88/88/88 92/92/92 89/89/89
f 93/93/93 91/91/91 92/92/92
f 83/83/83 94/94/94 88/88/88
f 94/94/94 92/92/92 88/88/88
f 95/95/95 93/93/93 92/92/92
f 94/94/94 95/95/95 92/92/92
f 96/96/96 93/93/93 95/95/95
f 96/96/96 97/97/97 93/93/93
f 94/94/94 83/83/83 98/98/98
f 98/98/98 83/83/83 84/84/84
f 99/99/99 95/95/95 94/94/94
f 98/98/98 99/99/99 94/94/94
f 100/100/100 96/96/96 95/95/95
f 99/99/99 100/100/100 95/95/95
f 97/97/97 96/96/96 9/9/9
f 101/101/101 100/100/100 99/99/99
f 9/9/9 11/11/11 97/97/97
f 101/101/101 102/102/102 100/100/100
f 96/96/96 100/100/100 103/103/103
f 102/102/102 103/103/103 100/100/100
f 103/103/103 9/9/9 96/96/96
f 103/103/103 102/102/102 104/104/104
f 105/105/105 101/101/101 99/99/99
f 99/99/99 98/98/98 105/105/105
f 101/101/101 105/105/105 106/106/106
f 104/104/104 3/3/3 103/103/103
f 103/103/103 3/3/3 9/9/9
f 104/104/104 1/1/1 3/3/3
f 107/107/107 106/106/106 105/105/105
f 106/106/106 107/107/107 108/108/108
f 109/109/109 105/105/105 98/98/98
f 105/105/105 109/109/109 107/107/107
f 109/109/109 98/98/98 84/84/84
f 110/110/110 109/109/109 84/84/84
f 109/109/109 110/110/110 111/111/111
f 107/107/107 109/109/109 111/111/111
f 110/110/110 112/112/112 111/111/111
f 113/113/113 108/108/108 107/107/107
f 107/107/107 111/111/111 113/113/113
f 108/108/108 113/113/113 114/114/114
f 111/111/111 112/112/112 115/115/115
f 115/115/115 113/113/113 111/111/111
f 112/112/112 116/116/116 115/115/115
f 115/115/115 116/116/116 117/117/117
f 113/113/113 115/115/115 118/118/118
f 118/118/118 114/114/114 113/113/113
f 117/117/117 118/118/118 115/115/115
f 114/114/114 118/118/118 119/119/119
f 118/118/118 117/117/117 120/120/120
f 120/120/120 119/119/119 118/118/118
f 119/119/119 120/120/120 121/121/121
