# Generated from Roblox mesh JSON (v2.00)
# Hello from RBX_Toolbox ;)
o RightHandWrapTarget
v 0.164669 0.328606 -0.158449
v 0.025731 0.151883 -0.239863
v -0.021183 0.292936 -0.202728
v 0.212185 0.216690 -0.248081
v 0.237580 0.105471 -0.330982
v -0.017866 0.006532 -0.191734
v -0.112655 0.061058 -0.204128
v -0.163036 -0.085213 -0.092214
v -0.151024 -0.127174 -0.133235
v -0.183534 0.003734 -0.247027
v -0.240462 0.029097 -0.275344
v -0.240265 0.122307 -0.238703
v -0.312450 0.224819 -0.173840
v -0.346492 0.062025 -0.201458
v -0.308199 -0.032065 -0.261934
v -0.183534 0.003734 -0.247027
v -0.151024 -0.127174 -0.133235
v -0.308507 -0.099820 -0.187211
v -0.320506 -0.121395 -0.042312
v -0.363206 0.077724 0.004967
v -0.151024 -0.127174 -0.133235
v -0.163036 -0.085213 -0.092214
v -0.233975 -0.136792 0.044827
v -0.017866 0.006532 -0.191734
v 0.347764 -0.031076 0.212790
v 0.289675 0.079836 0.257748
v 0.089505 -0.039016 0.309382
v 0.205866 0.171553 0.291892
v 0.023713 0.054682 0.363919
v -0.036486 0.120788 0.388950
v 0.177370 0.231599 0.316362
v 0.135836 -0.110273 0.262594
v 0.324763 0.121934 0.091219
v 0.253273 0.237170 0.146347
v 0.245869 0.295505 0.183488
v 0.237493 0.345643 0.046373
v 0.250934 0.269181 -0.012900
v 0.139943 0.360842 -0.078373
v 0.164669 0.328606 -0.158449
v -0.037984 0.360651 -0.155969
v -0.021183 0.292936 -0.202728
v -0.261437 0.323854 -0.135672
v -0.312450 0.224819 -0.173840
v -0.363206 0.077724 0.004967
v -0.343011 0.181198 -0.001385
v 0.291539 0.174374 -0.080844
v 0.212185 0.216690 -0.248081
v 0.363206 0.014344 0.036184
v 0.331325 0.058364 -0.145415
v 0.237580 0.105471 -0.330982
v 0.320222 -0.211876 0.155929
v 0.137885 -0.209806 0.210446
v 0.322235 -0.166055 -0.017484
v 0.193457 -0.360842 0.104217
v 0.090303 -0.320301 0.148984
v 0.288225 -0.116446 -0.219137
v 0.164652 -0.332027 -0.064313
v 0.030311 -0.291526 -0.007185
v 0.090303 -0.320301 0.148984
v -0.004701 -0.180847 -0.210530
v 0.092351 -0.238502 -0.256912
v 0.057300 -0.162809 -0.388950
v -0.039466 -0.102349 -0.342605
v 0.184587 -0.051650 -0.375861
v -0.039466 -0.102349 -0.342605
v 0.025166 -0.023475 -0.285934
v -0.017866 0.006532 -0.191734
v 0.028267 -0.100544 -0.101522
v -0.004701 -0.180847 -0.210530
v 0.030311 -0.291526 -0.007185
v -0.018035 -0.068408 0.014208
v 0.054273 -0.157760 0.063728
v 0.090303 -0.320301 0.148984
v -0.233975 -0.136792 0.044827
v 0.137885 -0.209806 0.210446
v 0.020598 -0.095749 0.155227
v 0.135836 -0.110273 0.262594
v -0.201657 -0.130080 0.136911
v -0.109967 -0.087437 0.255690
v 0.089505 -0.039016 0.309382
v -0.320579 -0.020341 0.182059
v -0.323553 0.104294 0.164038
v -0.205224 -0.038079 0.313129
v 0.023713 0.054682 0.363919
v -0.217222 0.049294 0.356978
v -0.036486 0.120788 0.388950
v -0.320506 -0.121395 -0.042312
v -0.163036 -0.085213 -0.092214
v -0.017866 0.006532 -0.191734
vt 0.447707 3.950107
vt 0.426105 3.887921
vt 0.463052 3.909998
vt 0.426105 3.909998
vt 0.404183 3.948965
vt 0.389158 3.909998
vt 0.426105 3.848420
vt 0.389158 3.848420
vt 0.389158 3.799157
vt 0.426105 3.799157
vt 0.463052 3.799157
vt 0.463053 3.848420
vt 0.500000 3.909998
vt 0.500000 3.848420
vt 0.500000 3.799157
vt 0.463053 3.762209
vt 0.500000 3.749893
vt 0.536947 3.799157
vt 0.536947 3.848420
vt 0.536947 3.909998
vt 0.610842 3.799156
vt 0.610842 3.848420
vt 0.574410 3.910355
vt 0.610842 3.909998
vt 0.500000 3.610334
vt 0.543731 3.610334
vt 0.543731 3.699008
vt 0.587461 3.610334
vt 0.587461 3.699008
vt 0.666972 3.699008
vt 0.666973 3.599326
vt 0.500000 3.699008
vt 0.544687 3.576332
vt 0.587461 3.580290
vt 0.666972 3.572106
vt 0.666972 3.530823
vt 0.587461 3.547844
vt 0.666972 3.482430
vt 0.587461 3.505412
vt 0.666972 3.414665
vt 0.587461 3.419508
vt 0.666973 3.352427
vt 0.601109 3.352427
vt 0.587461 3.320623
vt 0.666973 3.320638
vt 0.545718 3.539611
vt 0.507951 3.452423
vt 0.501911 3.572374
vt 0.503976 3.531378
vt 0.485305 3.452107
vt 0.428439 3.610334
vt 0.428439 3.699008
vt 0.428439 3.570579
vt 0.380733 3.610334
vt 0.380733 3.699008
vt 0.428439 3.530823
vt 0.380733 3.570579
vt 0.333028 3.570579
vt 0.333028 3.610334
vt 0.333028 3.530823
vt 0.380733 3.530823
vt 0.380733 3.451313
vt 0.333028 3.451313
vt 0.428439 3.451313
vt 0.380733 3.352427
vt 0.428439 3.352427
vt 0.494224 3.352882
vt 0.428439 3.280882
vt 0.380733 3.280882
vt 0.380733 3.245110
vt 0.497112 3.281110
vt 0.428439 3.245110
vt 0.380733 3.209338
vt 0.527509 3.322503
vt 0.428439 3.209337
vt 0.498556 3.245224
vt 0.500000 3.209337
vt 0.516156 3.275795
vt 0.529943 3.242566
vt 0.543731 3.209337
vt 0.587461 3.288848
vt 0.666973 3.288848
vt 0.587461 3.266475
vt 0.587461 3.209338
vt 0.666973 3.265375
vt 0.666973 3.209337
vt 0.536947 3.848420
vt 0.610842 3.848420
vt 0.610842 3.909998
vn 0.419675 0.741506 -0.523490
vn -0.154277 0.103780 -0.982562
vn -0.002501 0.426182 -0.904634
vn 0.393096 0.636454 -0.663628
vn 0.398846 0.354998 -0.845517
vn -0.503344 -0.469223 -0.725586
vn 0.198436 -0.347227 -0.916546
vn 0.556597 0.087178 0.826196
vn 0.633695 -0.773179 -0.025007
vn 0.469935 -0.301039 -0.829781
vn 0.033251 0.064767 -0.997346
vn -0.158249 0.277488 -0.947606
vn -0.749821 0.415479 -0.514924
vn -0.929100 0.156267 -0.335191
vn -0.470951 -0.338447 -0.814653
vn 0.469935 -0.301039 -0.829781
vn 0.633695 -0.773179 -0.025007
vn -0.536022 -0.735261 -0.414815
vn -0.646846 -0.746083 0.157956
vn -0.998347 -0.050221 0.027955
vn 0.633695 -0.773179 -0.025007
vn 0.556597 0.087178 0.826196
vn -0.293995 -0.951475 0.090894
vn -0.503344 -0.469223 -0.725586
vn 0.818356 -0.082641 0.568738
vn 0.678159 0.212560 0.703504
vn 0.180442 -0.412479 0.892918
vn 0.663512 0.114069 0.739419
vn 0.221754 -0.274046 0.935801
vn 0.145862 -0.247618 0.957815
vn 0.688172 -0.022847 0.725188
vn 0.018367 -0.542944 0.839568
vn 0.909670 0.393385 0.133227
vn 0.944363 0.236319 0.228763
vn 0.974118 -0.019726 0.225180
vn 0.928233 0.312050 -0.202507
vn 0.865199 0.472593 -0.167593
vn 0.491408 0.826697 -0.274027
vn 0.419675 0.741506 -0.523490
vn -0.033611 0.623326 -0.781239
vn -0.002501 0.426182 -0.904634
vn -0.501745 0.505911 -0.701645
vn -0.749821 0.415479 -0.514924
vn -0.998347 -0.050221 0.027955
vn -0.968642 0.152740 -0.195969
vn 0.877966 0.447687 -0.169563
vn 0.393096 0.636454 -0.663628
vn 0.996280 0.077121 -0.038460
vn 0.950509 0.156676 -0.268301
vn 0.398846 0.354998 -0.845517
vn 0.750673 -0.496714 0.435621
vn -0.281397 -0.456162 0.844235
vn 0.894111 -0.408515 -0.183526
vn 0.281071 -0.925215 0.254905
vn -0.546056 -0.596196 0.588535
vn 0.806542 -0.388571 -0.445536
vn 0.187880 -0.923356 -0.334834
vn -0.829958 -0.557661 0.013544
vn -0.546056 -0.596196 0.588535
vn -0.896327 -0.443117 -0.015626
vn -0.049662 -0.890376 -0.452508
vn -0.139987 -0.472126 -0.870345
vn -0.871397 0.100383 -0.480199
vn 0.309566 -0.011444 -0.950809
vn -0.871397 0.100383 -0.480199
vn -0.686796 0.585447 -0.430771
vn -0.503344 -0.469223 -0.725586
vn -0.974225 -0.223578 0.029986
vn -0.896327 -0.443117 -0.015626
vn -0.829958 -0.557661 0.013544
vn -0.300847 -0.931871 -0.202750
vn -0.920452 -0.328096 0.212419
vn -0.546056 -0.596196 0.588535
vn -0.293995 -0.951475 0.090894
vn -0.281397 -0.456162 0.844235
vn -0.348619 -0.931070 0.107579
vn 0.018367 -0.542944 0.839568
vn -0.277491 -0.936599 0.213968
vn -0.086584 -0.888637 0.450364
vn 0.180442 -0.412479 0.892918
vn -0.845903 -0.424764 0.322528
vn -0.956403 -0.026524 0.290844
vn -0.427533 -0.651948 0.626242
vn 0.221754 -0.274046 0.935801
vn -0.450531 -0.438922 0.777412
vn 0.145862 -0.247618 0.957815
vn -0.646846 -0.746083 0.157956
vn 0.556597 0.087178 0.826196
vn -0.503344 -0.469223 -0.725586
f 1/1/1 2/2/2 3/3/3
f 2/2/2 1/1/1 4/4/4
f 4/4/4 5/5/5 2/2/2
f 2/2/2 5/5/5 6/6/6
f 6/6/6 7/7/7 2/2/2
f 7/7/7 6/6/6 8/8/8
f 9/9/9 7/7/7 8/8/8
f 10/10/10 7/7/7 9/9/9
f 11/11/11 7/7/7 10/10/10
f 2/2/2 12/12/12 3/3/3
f 12/12/12 2/2/2 7/7/7
f 7/7/7 11/11/11 12/12/12
f 3/3/3 12/12/12 13/13/13
f 12/12/12 11/11/11 14/14/14
f 13/13/13 12/12/12 14/14/14
f 14/14/14 11/11/11 15/15/15
f 11/11/11 16/16/16 15/15/15
f 17/17/17 15/15/15 16/16/16
f 18/18/18 15/15/15 17/17/17
f 14/14/14 15/15/15 18/18/18
f 13/13/13 14/14/14 19/19/19
f 18/18/18 19/19/19 14/14/14
f 19/19/19 20/20/20 13/13/13
f 18/18/18 21/21/21 19/19/19
f 21/21/21 22/22/22 19/19/19
f 19/19/19 23/23/23 20/20/20
f 19/19/19 24/24/24 23/23/23
f 25/25/25 26/26/26 27/27/27
f 26/26/26 28/28/28 27/27/27
f 28/28/28 29/29/29 27/27/27
f 28/28/28 30/30/30 29/29/29
f 30/30/30 28/28/28 31/31/31
f 25/25/25 27/27/27 32/32/32
f 33/33/33 28/28/28 26/26/26
f 25/25/25 33/33/33 26/26/26
f 34/34/34 31/31/31 28/28/28
f 28/28/28 33/33/33 34/34/34
f 31/31/31 34/34/34 35/35/35
f 34/34/34 36/36/36 35/35/35
f 36/36/36 34/34/34 37/37/37
f 37/37/37 34/34/34 33/33/33
f 37/37/37 38/38/38 36/36/36
f 38/38/38 37/37/37 39/39/39
f 38/38/38 39/39/39 40/40/40
f 39/39/39 41/41/41 40/40/40
f 41/41/41 42/42/42 40/40/40
f 42/42/42 41/41/41 43/43/43
f 42/42/42 43/43/43 44/44/44
f 44/44/44 45/45/45 42/42/42
f 37/37/37 46/46/46 39/39/39
f 37/37/37 33/33/33 46/46/46
f 47/47/47 39/39/39 46/46/46
f 48/48/48 46/46/46 33/33/33
f 47/47/47 46/46/46 49/49/49
f 46/46/46 48/48/48 49/49/49
f 33/33/33 25/25/25 48/48/48
f 47/47/47 49/49/49 50/50/50
f 51/51/51 48/48/48 25/25/25
f 32/32/32 51/51/51 25/25/25
f 51/51/51 32/32/32 52/52/52
f 48/48/48 51/51/51 53/53/53
f 53/53/53 49/49/49 48/48/48
f 52/52/52 54/54/54 51/51/51
f 53/53/53 51/51/51 54/54/54
f 54/54/54 52/52/52 55/55/55
f 49/49/49 53/53/53 56/56/56
f 56/56/56 50/50/50 49/49/49
f 57/57/57 53/53/53 54/54/54
f 56/56/56 53/53/53 57/57/57
f 57/57/57 54/54/54 58/58/58
f 54/54/54 59/59/59 58/58/58
f 60/60/60 57/57/57 58/58/58
f 61/61/61 56/56/56 57/57/57
f 57/57/57 60/60/60 61/61/61
f 60/60/60 62/62/62 61/61/61
f 62/62/62 56/56/56 61/61/61
f 62/62/62 60/60/60 63/63/63
f 56/56/56 62/62/62 64/64/64
f 50/50/50 56/56/56 64/64/64
f 65/65/65 64/64/64 62/62/62
f 66/66/66 50/50/50 64/64/64
f 64/64/64 65/65/65 66/66/66
f 50/50/50 66/66/66 67/67/67
f 65/65/65 68/68/68 66/66/66
f 68/68/68 67/67/67 66/66/66
f 68/68/68 65/65/65 69/69/69
f 70/70/70 68/68/68 69/69/69
f 67/67/67 68/68/68 71/71/71
f 68/68/68 70/70/70 72/72/72
f 72/72/72 71/71/71 68/68/68
f 73/73/73 72/72/72 70/70/70
f 71/71/71 74/74/74 67/67/67
f 72/72/72 73/73/73 75/75/75
f 76/76/76 72/72/72 75/75/75
f 71/71/71 72/72/72 76/76/76
f 76/76/76 75/75/75 77/77/77
f 74/74/74 71/71/71 78/78/78
f 76/76/76 78/78/78 71/71/71
f 78/78/78 44/44/44 74/74/74
f 79/79/79 76/76/76 77/77/77
f 78/78/78 76/76/76 79/79/79
f 79/79/79 77/77/77 80/80/80
f 44/44/44 78/78/78 81/81/81
f 79/79/79 81/81/81 78/78/78
f 81/81/81 45/45/45 44/44/44
f 45/45/45 81/81/81 82/82/82
f 81/81/81 79/79/79 83/83/83
f 83/83/83 79/79/79 80/80/80
f 83/83/83 82/82/82 81/81/81
f 83/83/83 80/80/80 84/84/84
f 82/82/82 83/83/83 85/85/85
f 84/84/84 85/85/85 83/83/83
f 85/85/85 84/84/84 86/86/86
f 87/87/87 88/88/88 89/89/89
