# Generated from Roblox mesh JSON (v4.01)
# Hello from RBX_Toolbox ;)
o RightHand
v -0.222177 -0.151300 0.003178
v -0.306810 -0.041594 -0.195214
v -0.258977 -0.058636 -0.210835
v -0.258977 -0.058636 -0.210835
v -0.252183 -0.010353 -0.235458
v -0.222972 -0.050419 -0.213393
v -0.270097 -0.134392 0.018712
v -0.332315 0.043340 -0.154001
v -0.283601 -0.079905 0.130172
v -0.306810 -0.041594 -0.195214
v -0.283954 0.000688 -0.225217
v -0.227382 0.044223 -0.216127
v -0.332315 0.043340 -0.154001
v -0.306810 -0.041594 -0.195214
v -0.326578 0.131928 -0.116578
v -0.299487 0.068316 -0.193275
v -0.270097 -0.134392 0.018712
v -0.222177 -0.151300 0.003178
v -0.235502 -0.151238 0.056834
v -0.222972 -0.050419 -0.213393
v -0.186347 -0.143146 0.000620
v -0.186347 -0.143146 0.000620
v -0.222972 -0.050419 -0.213393
v -0.159340 -0.083417 0.021890
v -0.186347 -0.143146 0.000620
v -0.212468 -0.155819 0.041301
v -0.173285 -0.148644 0.046069
v -0.173285 -0.148644 0.046069
v -0.196053 0.009337 -0.192124
v -0.196053 0.009337 -0.192124
v -0.169137 0.069093 -0.170854
v -0.109303 -0.082570 0.177297
v -0.283601 -0.079905 0.130172
v -0.270097 -0.134392 0.018712
v -0.174345 -0.124666 0.131762
v -0.242209 -0.112779 0.154175
v -0.224295 -0.044568 0.259818
v -0.132071 -0.075350 0.205098
v -0.267714 -0.016936 0.226631
v -0.267714 -0.016936 0.226631
v -0.209381 0.069119 0.311442
v -0.165871 0.039758 0.338186
v -0.143366 -0.123846 0.115083
v -0.143366 -0.123846 0.115083
v -0.109303 -0.082570 0.177297
v -0.062262 -0.024914 0.245517
v -0.129247 0.144460 -0.145085
v -0.062262 -0.024914 0.245517
v 0.053700 -0.066614 0.207569
v -0.068177 0.008367 0.307913
v -0.200908 0.098807 -0.196978
v -0.169137 0.069093 -0.170854
v -0.296838 0.138238 -0.163440
v -0.326578 0.131928 -0.116578
v -0.245652 0.241689 -0.127439
v -0.148133 0.207976 -0.158767
v -0.276982 0.238538 -0.078898
v -0.196140 0.287519 -0.071574
v -0.184051 0.277122 -0.122672
v -0.129247 0.144460 -0.145085
v -0.013281 0.102770 -0.183033
v -0.002515 0.155307 -0.206599
v -0.087945 0.305707 -0.126819
v -0.086444 0.322026 -0.075459
v 0.029168 0.323128 -0.094782
v -0.013281 0.102770 -0.183033
v -0.276982 0.238538 -0.078898
v -0.209381 0.069119 0.311442
v -0.215001 0.145723 0.233777
v -0.129247 0.118126 0.319038
v -0.215001 0.145723 0.233777
v -0.274884 0.268980 0.042919
v -0.215001 0.145723 0.233777
v -0.156240 0.211360 0.184226
v -0.274884 0.268980 0.042919
v -0.086444 0.322026 -0.075459
v -0.196140 0.287519 -0.071574
v -0.136973 0.323727 0.040736
v -0.274884 0.268980 0.042919
v -0.136973 0.323727 0.040736
v -0.276982 0.238538 -0.078898
v -0.156240 0.211360 0.184226
v -0.215001 0.145723 0.233777
v -0.044126 0.194334 0.241043
v -0.156240 0.211360 0.184226
v -0.129247 0.118126 0.319038
v -0.104536 0.076013 0.341094
v -0.008427 0.104561 0.337041
v -0.104536 0.076013 0.341094
v -0.019547 0.152615 0.315239
v -0.019547 0.152615 0.315239
v -0.044126 0.194334 0.241043
v -0.044126 0.194334 0.241043
v -0.136973 0.323727 0.040736
v -0.156240 0.211360 0.184226
v -0.086444 0.322026 -0.075459
v -0.019547 0.152615 0.315239
v -0.019547 0.152615 0.315239
v 0.029168 0.323128 -0.094782
v -0.086444 0.322026 -0.075459
v 0.090503 -0.326501 0.088433
v 0.010106 -0.131540 -0.288582
v 0.023607 -0.157170 -0.302002
v 0.080353 -0.177776 -0.320619
v 0.147250 -0.347116 0.069810
v 0.077000 -0.300872 0.101933
v 0.010106 -0.131540 -0.288582
v 0.077000 -0.300872 0.101933
v 0.169224 -0.108057 0.169796
v 0.023607 -0.157170 -0.302002
v 0.078764 -0.122919 -0.341094
v 0.080353 -0.177776 -0.320619
v 0.041964 -0.109768 -0.329095
v 0.142571 0.102858 -0.254257
v 0.010106 -0.131540 -0.288582
v 0.102239 0.061335 -0.220806
v 0.102239 0.061335 -0.220806
v 0.162164 -0.135927 -0.316558
v 0.080353 -0.177776 -0.320619
v 0.162164 -0.135927 -0.316558
v 0.215205 -0.078845 -0.300938
v 0.282098 -0.248229 0.089665
v 0.229058 -0.305284 0.073958
v 0.327110 -0.153957 0.122846
v 0.135690 -0.089117 -0.336239
v 0.215205 -0.078845 -0.300938
v 0.175227 -0.047532 -0.325035
v 0.260125 0.015452 -0.267758
v 0.260125 0.015452 -0.267758
v 0.332315 -0.047948 0.167945
v 0.229058 -0.305284 0.073958
v 0.158282 -0.323950 0.122408
v 0.147250 -0.347116 0.069810
v 0.090503 -0.326501 0.088433
v 0.147250 -0.347116 0.069810
v 0.121392 -0.310791 0.134501
v 0.215204 -0.290176 0.127351
v 0.077000 -0.300872 0.101933
v 0.221998 -0.098288 0.209516
v 0.169224 -0.108057 0.169796
v 0.077000 -0.045812 0.257078
v 0.053700 -0.066614 0.207569
v 0.254654 -0.248625 0.138649
v 0.282098 -0.248229 0.089665
v 0.327110 -0.153957 0.122846
v 0.298251 -0.158908 0.170153
v 0.332315 -0.047948 0.167945
v 0.304075 -0.070832 0.207394
v 0.270275 0.008022 0.247377
v 0.103916 0.277325 -0.172004
v 0.014075 0.305876 -0.144204
v 0.191289 0.216404 -0.213393
v 0.131010 0.290246 -0.126557
v 0.218824 0.042229 -0.293619
v 0.265421 0.121480 -0.222746
v 0.265421 0.121480 -0.222746
v 0.224648 0.130322 -0.256458
v 0.227294 0.220331 -0.173324
v 0.227294 0.220331 -0.173324
v 0.093590 0.104703 0.319649
v 0.183344 0.076153 0.291856
v 0.096061 0.153701 0.295915
v 0.197995 0.120800 0.264141
v 0.096061 0.153701 0.295915
v 0.131010 0.290246 -0.126557
v 0.197995 0.120800 0.264141
v 0.294279 0.050895 0.217366
v 0.294279 0.050895 0.217366
v 0.097388 0.347116 -0.057009
v 0.258889 0.319123 0.117022
v 0.234885 0.274386 0.108021
v 0.150604 0.193273 0.302090
vt 0.233384 0.339839
vt 0.233458 0.339344
vt 0.233384 0.339344
vt 0.235329 0.337603
vt 0.235328 0.337769
vt 0.235406 0.337657
vt 0.233458 0.339839
vt 0.233595 0.339344
vt 0.233595 0.340001
vt 0.235214 0.337614
vt 0.235256 0.337787
vt 0.235363 0.337951
vt 0.235088 0.337960
vt 0.235161 0.337669
vt 0.233730 0.339343
vt 0.235205 0.338012
vt 0.234884 0.337412
vt 0.234769 0.337403
vt 0.234825 0.337560
vt 0.233332 0.339344
vt 0.233332 0.339839
vt 0.236559 0.339849
vt 0.236559 0.339354
vt 0.236463 0.339849
vt 0.234689 0.337420
vt 0.234768 0.337528
vt 0.234688 0.337575
vt 0.236539 0.339944
vt 0.235462 0.337868
vt 0.236463 0.339354
vt 0.236367 0.339354
vt 0.236367 0.340160
vt 0.235005 0.337820
vt 0.234908 0.337438
vt 0.234738 0.337850
vt 0.234888 0.337879
vt 0.234920 0.338265
vt 0.234699 0.338156
vt 0.233730 0.340138
vt 0.235043 0.338197
vt 0.235005 0.338637
vt 0.234882 0.338638
vt 0.234662 0.337831
vt 0.236463 0.340065
vt 0.234631 0.338095
vt 0.234593 0.338418
vt 0.236242 0.339354
vt 0.236242 0.340258
vt 0.236062 0.340258
vt 0.234664 0.338627
vt 0.235401 0.338148
vt 0.235504 0.338085
vt 0.235186 0.338246
vt 0.235071 0.338263
vt 0.235245 0.338597
vt 0.235479 0.338547
vt 0.235126 0.338640
vt 0.235260 0.338870
vt 0.235346 0.338755
vt 0.235561 0.338355
vt 0.235842 0.338355
vt 0.235839 0.338544
vt 0.235518 0.338933
vt 0.235461 0.339086
vt 0.235704 0.339220
vt 0.236062 0.339354
vt 0.233902 0.339343
vt 0.233903 0.340247
vt 0.233903 0.339795
vt 0.234891 0.338910
vt 0.235005 0.338637
vt 0.233902 0.339343
vt 0.233903 0.339795
vt 0.233902 0.339343
vt 0.235193 0.338755
vt 0.235461 0.339086
vt 0.235260 0.338870
vt 0.235461 0.339086
vt 0.235193 0.338755
vt 0.235260 0.338870
vt 0.233902 0.339343
vt 0.235260 0.338870
vt 0.234891 0.338910
vt 0.234845 0.338858
vt 0.234891 0.338910
vt 0.234891 0.338910
vt 0.234798 0.338806
vt 0.234631 0.338994
vt 0.234798 0.338806
vt 0.234690 0.339145
vt 0.234690 0.339145
vt 0.234798 0.338806
vt 0.234196 0.340247
vt 0.234196 0.339795
vt 0.234196 0.340247
vt 0.234196 0.339344
vt 0.234196 0.340247
vt 0.234196 0.340247
vt 0.234360 0.339344
vt 0.234196 0.339344
vt 0.235502 0.340248
vt 0.235546 0.339344
vt 0.235502 0.339343
vt 0.235413 0.339343
vt 0.235413 0.340248
vt 0.235546 0.340248
vt 0.235568 0.339354
vt 0.235568 0.340257
vt 0.235882 0.340258
vt 0.236336 0.337638
vt 0.236439 0.337832
vt 0.236472 0.337650
vt 0.236354 0.337817
vt 0.236199 0.338554
vt 0.236272 0.337691
vt 0.236122 0.338361
vt 0.235882 0.339354
vt 0.236598 0.337980
vt 0.236530 0.337704
vt 0.235285 0.339344
vt 0.235174 0.339344
vt 0.235173 0.340248
vt 0.235285 0.340248
vt 0.235020 0.340247
vt 0.236483 0.338032
vt 0.236603 0.338234
vt 0.236486 0.338211
vt 0.236546 0.338574
vt 0.235020 0.339344
vt 0.234859 0.340247
vt 0.233561 0.338015
vt 0.233723 0.337870
vt 0.233632 0.337740
vt 0.233827 0.337681
vt 0.233690 0.337686
vt 0.233807 0.337858
vt 0.233677 0.338067
vt 0.233890 0.337737
vt 0.233950 0.338602
vt 0.234029 0.338408
vt 0.234308 0.338600
vt 0.234308 0.338407
vt 0.233669 0.338248
vt 0.233551 0.338269
vt 0.233603 0.338612
vt 0.233717 0.338565
vt 0.233732 0.338930
vt 0.233820 0.338817
vt 0.233972 0.339008
vt 0.235933 0.339059
vt 0.235725 0.339042
vt 0.236166 0.338977
vt 0.235951 0.339235
vt 0.236433 0.338521
vt 0.236414 0.338888
vt 0.234859 0.339344
vt 0.236327 0.338773
vt 0.236220 0.339130
vt 0.234695 0.339344
vt 0.234424 0.339103
vt 0.234214 0.339115
vt 0.234445 0.339281
vt 0.234516 0.340247
vt 0.234360 0.340247
vt 0.234516 0.339344
vt 0.234195 0.339291
vt 0.234695 0.340247
vt 0.233923 0.339178
vt 0.805622 0.135608
vt 0.803639 0.136008
vt 0.803639 0.135608
vt 0.801675 0.135608
vn -0.201186 -0.910760 -0.360612
vn -0.755037 -0.590015 -0.286011
vn -0.193424 -0.840501 -0.506108
vn -0.193424 -0.840501 -0.506108
vn 0.153870 -0.135009 -0.978824
vn 0.713044 -0.541030 -0.445931
vn -0.876662 -0.481107 0.000001
vn -0.989451 -0.139801 -0.037988
vn -0.963310 -0.204000 0.174410
vn -0.755037 -0.590015 -0.286011
vn -0.567505 0.155541 -0.808545
vn 0.219019 0.234182 -0.947201
vn -0.989451 -0.139801 -0.037988
vn -0.755037 -0.590015 -0.286011
vn -0.976009 0.185706 0.113667
vn -0.390136 0.346276 -0.853163
vn -0.876662 -0.481107 0.000001
vn -0.201186 -0.910760 -0.360612
vn -0.462242 -0.837331 0.291906
vn 0.713044 -0.541030 -0.445931
vn 0.711291 -0.611742 -0.346175
vn 0.711291 -0.611742 -0.346175
vn 0.713044 -0.541030 -0.445931
vn 0.928713 -0.343618 -0.139349
vn 0.711291 -0.611742 -0.346175
vn 0.004697 -0.999794 0.019771
vn 0.703355 -0.696354 -0.142768
vn 0.703355 -0.696354 -0.142768
vn 0.872016 -0.239640 -0.426804
vn 0.872016 -0.239640 -0.426804
vn 0.873766 -0.288282 -0.391697
vn 0.883182 -0.393564 -0.255140
vn -0.963310 -0.204000 0.174410
vn -0.876662 -0.481107 0.000001
vn 0.007668 -0.955289 0.295575
vn -0.324338 -0.803778 0.498745
vn -0.300524 -0.645423 0.702221
vn 0.080709 -0.799988 0.594563
vn -0.937416 0.145226 0.316482
vn -0.937416 0.145226 0.316482
vn -0.702927 0.540209 0.462675
vn -0.099616 -0.515197 0.851263
vn 0.794590 -0.599880 -0.093654
vn 0.794590 -0.599880 -0.093654
vn 0.883182 -0.393564 -0.255140
vn 0.131282 -0.966881 -0.218876
vn 0.128543 -0.834575 -0.535687
vn 0.131282 -0.966881 -0.218876
vn -0.411475 -0.869730 -0.272504
vn 0.089951 -0.580942 0.808959
vn 0.047321 0.306770 -0.950606
vn 0.873766 -0.288282 -0.391697
vn -0.498561 0.406247 -0.765768
vn -0.976009 0.185706 0.113667
vn -0.395326 0.540892 -0.742397
vn -0.119930 0.272335 -0.954699
vn -0.822339 0.492224 0.285436
vn -0.421421 0.862707 0.279537
vn -0.287567 0.751482 -0.593784
vn 0.128543 -0.834575 -0.535687
vn -0.420964 -0.827596 -0.371314
vn -0.243923 0.191058 -0.950788
vn -0.151151 0.544436 -0.825071
vn -0.171440 0.912547 0.371303
vn 0.208565 0.930643 0.300674
vn -0.420964 -0.827596 -0.371314
vn -0.822339 0.492224 0.285436
vn -0.702927 0.540209 0.462675
vn -0.526418 0.692748 0.492935
vn -0.320855 0.806925 0.495906
vn -0.526418 0.692748 0.492935
vn -0.822302 0.492268 0.285467
vn -0.526418 0.692748 0.492935
vn -0.034606 0.738308 0.673576
vn -0.822302 0.492268 0.285467
vn -0.171440 0.912547 0.371303
vn -0.421421 0.862707 0.279537
vn -0.299159 0.895882 0.328481
vn -0.822302 0.492268 0.285467
vn -0.299159 0.895882 0.328481
vn -0.822339 0.492224 0.285436
vn -0.034606 0.738308 0.673576
vn -0.526418 0.692748 0.492935
vn -0.014641 0.536332 0.843880
vn -0.034606 0.738308 0.673576
vn -0.320855 0.806925 0.495906
vn 0.018199 0.046140 0.998769
vn 0.148534 -0.175797 0.973156
vn 0.018199 0.046140 0.998769
vn -0.043591 0.884194 0.465082
vn -0.043591 0.884194 0.465082
vn -0.014641 0.536332 0.843880
vn -0.014641 0.536332 0.843880
vn -0.299159 0.895882 0.328481
vn -0.034606 0.738308 0.673576
vn -0.171440 0.912547 0.371303
vn -0.043591 0.884194 0.465082
vn -0.043591 0.884194 0.465082
vn 0.208565 0.930643 0.300674
vn -0.171440 0.912547 0.371303
vn -0.680923 -0.713566 -0.164826
vn -0.942108 0.246713 0.227081
vn -0.543527 -0.772885 -0.327456
vn 0.070763 -0.865597 -0.495716
vn 0.090311 -0.955636 -0.280364
vn -0.919733 0.208500 0.332594
vn -0.942108 0.246713 0.227081
vn -0.919733 0.208500 0.332594
vn -0.959825 -0.192207 0.204431
vn -0.543527 -0.772885 -0.327456
vn -0.112647 0.118032 -0.986600
vn 0.070763 -0.865597 -0.495716
vn -0.669814 0.439183 -0.598721
vn -0.260300 0.368602 -0.892399
vn -0.942108 0.246713 0.227081
vn -0.993637 -0.071479 -0.087044
vn -0.993637 -0.071479 -0.087044
vn 0.568500 -0.685874 -0.454297
vn 0.070763 -0.865597 -0.495716
vn 0.568500 -0.685874 -0.454297
vn 0.847153 -0.374931 -0.376508
vn 0.819182 -0.497581 -0.285226
vn 0.593471 -0.744820 -0.305018
vn 0.956973 -0.242646 -0.159141
vn 0.034772 0.193413 -0.980501
vn 0.847153 -0.374931 -0.376508
vn 0.156402 0.230352 -0.960456
vn 0.953649 -0.067183 -0.293325
vn 0.953649 -0.067183 -0.293325
vn 0.986268 0.164742 -0.011681
vn 0.593471 -0.744820 -0.305018
vn 0.217839 -0.608056 0.763423
vn 0.090311 -0.955636 -0.280364
vn -0.680923 -0.713566 -0.164826
vn 0.090311 -0.955636 -0.280364
vn -0.403335 -0.277457 0.871974
vn 0.260150 -0.514521 0.817062
vn -0.919733 0.208500 0.332594
vn 0.032135 -0.452997 0.890933
vn -0.959825 -0.192207 0.204431
vn 0.041810 -0.609101 0.791990
vn -0.411475 -0.869730 -0.272504
vn 0.444444 -0.519093 0.730077
vn 0.819182 -0.497581 -0.285226
vn 0.956973 -0.242646 -0.159141
vn 0.532190 -0.394118 0.749296
vn 0.986268 0.164742 -0.011681
vn 0.461593 -0.307435 0.832115
vn 0.449070 -0.177304 0.875728
vn -0.047202 0.556573 -0.829456
vn -0.094693 0.595574 -0.797699
vn 0.198462 0.626256 -0.753934
vn 0.550031 0.814109 0.186257
vn 0.227245 0.338203 -0.913224
vn 0.959710 0.230193 -0.161148
vn 0.959710 0.230193 -0.161148
vn 0.163178 0.434244 -0.885892
vn 0.838776 0.544229 0.016429
vn 0.838776 0.544229 0.016429
vn 0.229262 -0.132092 0.964360
vn 0.266565 -0.225064 0.937171
vn 0.221992 0.869597 0.441045
vn 0.483946 0.805034 0.343097
vn 0.221992 0.869597 0.441045
vn 0.550031 0.814109 0.186257
vn 0.483946 0.805034 0.343097
vn 0.763800 0.605282 0.224149
vn 0.763800 0.605282 0.224149
vn 0.114348 -0.861646 -0.494460
vn 0.943510 0.280807 -0.175886
vn 0.081160 -0.916437 -0.391862
vn 0.163930 -0.938885 -0.302692
f 76/76/76 77/77/77 78/78/78
f 77/77/77 79/79/79 80/80/80
f 80/80/80 79/79/79 82/82/82
f 83/83/83 84/84/84 85/85/85
f 86/86/86 84/84/84 83/83/83
f 86/86/86 87/87/87 84/84/84
f 87/87/87 91/91/91 92/92/92
f 72/72/72 73/73/73 74/74/74
f 81/81/81 73/73/73 72/72/72
f 1/1/1 2/2/2 3/3/3
f 1/1/1 3/3/3 20/20/20
f 20/20/20 21/21/21 1/1/1
f 2/2/2 1/1/1 7/7/7
f 7/7/7 8/8/8 2/2/2
f 9/9/9 8/8/8 7/7/7
f 9/9/9 15/15/15 8/8/8
f 15/15/15 9/9/9 39/39/39
f 15/15/15 39/39/39 67/67/67
f 68/68/68 67/67/67 39/39/39
f 67/67/67 68/68/68 69/69/69
f 93/93/93 94/94/94 95/95/95
f 96/96/96 94/94/94 93/93/93
f 96/96/96 93/93/93 97/97/97
f 17/17/17 18/18/18 19/19/19
f 19/19/19 18/18/18 26/26/26
f 18/18/18 25/25/25 26/26/26
f 25/25/25 27/27/27 26/26/26
f 27/27/27 35/35/35 26/26/26
f 35/35/35 19/19/19 26/26/26
f 35/35/35 27/27/27 43/43/43
f 43/43/43 45/45/45 35/35/35
f 38/38/38 35/35/35 45/45/45
f 46/46/46 38/38/38 45/45/45
f 19/19/19 35/35/35 36/36/36
f 36/36/36 35/35/35 38/38/38
f 19/19/19 36/36/36 33/33/33
f 33/33/33 34/34/34 19/19/19
f 36/36/36 40/40/40 33/33/33
f 36/36/36 37/37/37 40/40/40
f 37/37/37 36/36/36 38/38/38
f 41/41/41 40/40/40 37/37/37
f 37/37/37 38/38/38 42/42/42
f 41/41/41 37/37/37 42/42/42
f 70/70/70 41/41/41 42/42/42
f 41/41/41 70/70/70 71/71/71
f 70/70/70 42/42/42 89/89/89
f 42/42/42 38/38/38 50/50/50
f 50/50/50 89/89/89 42/42/42
f 38/38/38 46/46/46 50/50/50
f 50/50/50 88/88/88 89/89/89
f 90/90/90 89/89/89 88/88/88
f 88/88/88 162/162/162 90/90/90
f 46/46/46 141/141/141 50/50/50
f 50/50/50 141/141/141 88/88/88
f 141/141/141 46/46/46 142/142/142
f 88/88/88 160/160/160 162/162/162
f 88/88/88 141/141/141 160/160/160
f 160/160/160 166/166/166 162/162/162
f 140/140/140 141/141/141 142/142/142
f 160/160/160 161/161/161 166/166/166
f 160/160/160 141/141/141 161/161/161
f 168/168/168 166/166/166 161/161/161
f 141/141/141 140/140/140 139/139/139
f 139/139/139 161/161/161 141/141/141
f 161/161/161 149/149/149 168/168/168
f 161/161/161 139/139/139 149/149/149
f 147/147/147 168/168/168 149/149/149
f 149/149/149 148/148/148 147/147/147
f 149/149/149 139/139/139 148/148/148
f 146/146/146 147/147/147 148/148/148
f 146/146/146 148/148/148 139/139/139
f 147/147/147 146/146/146 145/145/145
f 143/143/143 145/145/145 146/146/146
f 139/139/139 143/143/143 146/146/146
f 145/145/145 143/143/143 144/144/144
f 144/144/144 143/143/143 131/131/131
f 139/139/139 137/137/137 143/143/143
f 143/143/143 137/137/137 131/131/131
f 132/132/132 131/131/131 137/137/137
f 137/137/137 139/139/139 132/132/132
f 131/131/131 132/132/132 133/133/133
f 132/132/132 139/139/139 136/136/136
f 136/136/136 139/139/139 140/140/140
f 136/136/136 135/135/135 132/132/132
f 140/140/140 138/138/138 136/136/136
f 134/134/134 135/135/135 136/136/136
f 138/138/138 134/134/134 136/136/136
f 4/4/4 5/5/5 6/6/6
f 10/10/10 5/5/5 4/4/4
f 29/29/29 6/6/6 5/5/5
f 5/5/5 10/10/10 11/11/11
f 5/5/5 12/12/12 29/29/29
f 12/12/12 5/5/5 11/11/11
f 52/52/52 29/29/29 12/12/12
f 12/12/12 51/51/51 52/52/52
f 60/60/60 52/52/52 51/51/51
f 16/16/16 12/12/12 11/11/11
f 12/12/12 16/16/16 51/51/51
f 13/13/13 16/16/16 11/11/11
f 13/13/13 11/11/11 14/14/14
f 53/53/53 16/16/16 13/13/13
f 53/53/53 51/51/51 16/16/16
f 53/53/53 13/13/13 54/54/54
f 55/55/55 53/53/53 54/54/54
f 51/51/51 53/53/53 55/55/55
f 55/55/55 54/54/54 57/57/57
f 58/58/58 55/55/55 57/57/57
f 58/58/58 57/57/57 75/75/75
f 56/56/56 51/51/51 55/55/55
f 51/51/51 56/56/56 60/60/60
f 55/55/55 58/58/58 59/59/59
f 56/56/56 55/55/55 59/59/59
f 64/64/64 59/59/59 58/58/58
f 59/59/59 64/64/64 63/63/63
f 63/63/63 56/56/56 59/59/59
f 65/65/65 63/63/63 64/64/64
f 56/56/56 62/62/62 60/60/60
f 63/63/63 62/62/62 56/56/56
f 61/61/61 60/60/60 62/62/62
f 63/63/63 65/65/65 151/151/151
f 62/62/62 63/63/63 151/151/151
f 62/62/62 116/116/116 61/61/61
f 150/150/150 151/151/151 65/65/65
f 151/151/151 150/150/150 62/62/62
f 65/65/65 153/153/153 150/150/150
f 116/116/116 62/62/62 114/114/114
f 150/150/150 114/114/114 62/62/62
f 152/152/152 150/150/150 153/153/153
f 114/114/114 150/150/150 152/152/152
f 153/153/153 158/158/158 152/152/152
f 158/158/158 155/155/155 152/152/152
f 152/152/152 155/155/155 157/157/157
f 114/114/114 152/152/152 157/157/157
f 157/157/157 155/155/155 154/154/154
f 154/154/154 114/114/114 157/157/157
f 155/155/155 128/128/128 154/154/154
f 128/128/128 127/127/127 154/154/154
f 127/127/127 114/114/114 154/154/154
f 128/128/128 126/126/126 127/127/127
f 126/126/126 125/125/125 127/127/127
f 114/114/114 127/127/127 125/125/125
f 125/125/125 126/126/126 118/118/118
f 118/118/118 111/111/111 125/125/125
f 125/125/125 111/111/111 114/114/114
f 111/111/111 118/118/118 119/119/119
f 111/111/111 113/113/113 114/114/114
f 113/113/113 116/116/116 114/114/114
f 116/116/116 113/113/113 115/115/115
f 115/115/115 113/113/113 110/110/110
f 111/111/111 110/110/110 113/113/113
f 110/110/110 111/111/111 112/112/112
f 98/98/98 99/99/99 100/100/100
f 99/99/99 98/98/98 164/164/164
f 163/163/163 99/99/99 164/164/164
f 99/99/99 163/163/163 165/165/165
f 165/165/165 163/163/163 167/167/167
f 165/165/165 167/167/167 159/159/159
f 159/159/159 167/167/167 130/130/130
f 159/159/159 130/130/130 156/156/156
f 156/156/156 130/130/130 129/129/129
f 124/124/124 129/129/129 130/130/130
f 124/124/124 121/121/121 129/129/129
f 121/121/121 124/124/124 122/122/122
f 121/121/121 122/122/122 120/120/120
f 123/123/123 120/120/120 122/122/122
f 105/105/105 120/120/120 123/123/123
f 120/120/120 105/105/105 104/104/104
f 104/104/104 105/105/105 103/103/103
f 103/103/103 105/105/105 101/101/101
f 101/101/101 102/102/102 103/103/103
f 102/102/102 101/101/101 106/106/106
f 169/169/169 170/170/170 171/171/171
f 170/170/170 172/172/172 171/171/171
f 22/22/22 23/23/23 24/24/24
f 30/30/30 24/24/24 23/23/23
f 24/24/24 28/28/28 22/22/22
f 28/28/28 24/24/24 44/44/44
f 31/31/31 24/24/24 30/30/30
f 24/24/24 32/32/32 44/44/44
f 31/31/31 32/32/32 24/24/24
f 47/47/47 32/32/32 31/31/31
f 32/32/32 47/47/47 48/48/48
f 47/47/47 49/49/49 48/48/48
f 66/66/66 49/49/49 47/47/47
f 66/66/66 109/109/109 49/49/49
f 117/117/117 109/109/109 66/66/66
f 109/109/109 117/117/117 107/107/107
f 107/107/107 108/108/108 109/109/109
