# Generated from Roblox mesh JSON (v2.00)
# Hello from RBX_Toolbox ;)
o RightLowerLegWrapTarget
v -0.415345 0.174241 0.002871
v -0.410193 0.274679 -0.004228
v -0.343432 0.164861 -0.355472
v -0.357542 0.270681 -0.348871
v -0.406349 0.357432 -0.006111
v -0.352780 0.358430 -0.353357
v -0.101390 0.355596 -0.428329
v -0.098304 0.268706 -0.426691
v 0.251602 0.360757 -0.435788
v -0.332492 0.070499 -0.348451
v -0.424016 0.062786 -0.013454
v -0.076918 0.165971 -0.424446
v 0.248540 0.268463 -0.428603
v -0.335330 -0.027098 -0.357776
v 0.415128 0.262404 -0.305016
v -0.422991 -0.038615 -0.022896
v 0.412125 0.358613 -0.300061
v -0.072661 0.066157 -0.422444
v 0.239581 0.174713 -0.426138
v 0.412235 0.158095 -0.310472
v 0.418687 0.266688 0.033880
v 0.423061 0.362196 0.036783
v 0.395258 0.348902 0.370205
v 0.424208 0.158749 0.031895
v 0.393691 0.253748 0.364371
v 0.177245 0.244387 0.447471
v 0.190901 0.348212 0.445000
v 0.396393 0.155859 0.368384
v 0.178595 0.157523 0.450169
v -0.133802 0.251006 0.443089
v -0.127564 0.343554 0.433362
v -0.370430 0.342870 0.373359
v -0.147891 0.153254 0.457303
v -0.366705 0.259638 0.375066
v -0.410193 0.274679 -0.004228
v -0.406349 0.357432 -0.006111
v -0.415345 0.174241 0.002871
v -0.368218 0.157934 0.387587
v -0.372558 0.063822 0.356719
v -0.424016 0.062786 -0.013454
v -0.380154 -0.043214 0.355779
v -0.422991 -0.038615 -0.022896
v -0.133521 0.055148 0.448857
v 0.190404 0.058061 0.457166
v -0.128575 -0.049131 0.445673
v -0.377700 -0.145780 0.355638
v -0.424208 -0.142318 -0.019962
v -0.140869 -0.148190 0.456557
v -0.368126 -0.255107 0.367329
v -0.416081 -0.253323 -0.007817
v -0.361602 -0.362196 0.376551
v -0.392239 -0.357214 -0.010517
v -0.136365 -0.245440 0.460048
v -0.116103 -0.349748 0.448112
v 0.178593 -0.047983 0.451693
v 0.188092 -0.150600 0.449955
v 0.201699 -0.255043 0.452836
v 0.215079 -0.361030 0.450459
v 0.404496 -0.356690 0.373856
v 0.404173 -0.256091 0.366282
v 0.400817 -0.151557 0.368169
v 0.421040 -0.249475 -0.002950
v 0.419949 -0.345737 -0.004012
v 0.403923 -0.058164 0.355507
v 0.408520 -0.159214 0.007289
v 0.409592 -0.227578 -0.332245
v 0.399797 -0.328028 -0.323752
v 0.205033 -0.307070 -0.446155
v 0.399293 0.052441 0.350129
v 0.421533 -0.054465 0.016305
v 0.416536 0.052413 0.020297
v 0.415849 0.055135 -0.315456
v 0.409522 -0.060086 -0.332594
v 0.233581 0.059863 -0.427082
v 0.395762 -0.146653 -0.317321
v -0.081269 -0.020388 -0.423016
v 0.215637 -0.036275 -0.413821
v 0.218287 -0.130656 -0.423528
v 0.232862 -0.233450 -0.440543
v -0.060381 -0.301286 -0.460048
v -0.062580 -0.217796 -0.433963
v -0.339665 -0.325575 -0.377699
v -0.065338 -0.122158 -0.427396
v -0.352482 -0.226093 -0.349177
v -0.392239 -0.357214 -0.010517
v -0.416081 -0.253323 -0.007817
v -0.424208 -0.142318 -0.019962
v -0.339938 -0.126656 -0.363924
vt 2.908824 1.605312
vt 2.908824 1.698511
vt 2.793036 1.605312
vt 2.793036 1.698511
vt 2.908824 1.792453
vt 2.793036 1.792453
vt 2.749558 1.792453
vt 2.749558 1.698511
vt 2.662603 1.792453
vt 2.793036 1.536557
vt 2.908824 1.536557
vt 2.749558 1.605312
vt 2.662603 1.698511
vt 2.793036 1.439684
vt 2.619125 1.698511
vt 2.908824 1.441824
vt 2.619125 1.792453
vt 2.749558 1.536557
vt 2.662603 1.605312
vt 2.619125 1.605312
vt 2.457450 1.698511
vt 2.457450 1.792453
vt 2.347780 1.792453
vt 2.457450 1.605312
vt 2.347780 1.698511
vt 2.315774 1.698511
vt 2.315774 1.792453
vt 2.347780 1.605312
vt 2.315774 1.605312
vt 2.283767 1.698511
vt 2.283767 1.792453
vt 2.219756 1.792453
vt 2.283767 1.605312
vt 2.219756 1.698511
vt 2.091176 1.698511
vt 2.091176 1.792453
vt 2.091176 1.605312
vt 2.219756 1.605312
vt 2.219756 1.536557
vt 2.091176 1.536557
vt 2.219756 1.436622
vt 2.091176 1.441824
vt 2.283767 1.536557
vt 2.315774 1.536557
vt 2.283767 1.434716
vt 2.219756 1.353774
vt 2.091176 1.353774
vt 2.283767 1.353774
vt 2.219756 1.266038
vt 2.091176 1.266038
vt 2.219756 1.207547
vt 2.091176 1.207547
vt 2.283767 1.266038
vt 2.283767 1.207547
vt 2.315774 1.433763
vt 2.315774 1.353774
vt 2.315774 1.266038
vt 2.315774 1.207547
vt 2.347780 1.207547
vt 2.347780 1.266038
vt 2.347780 1.353774
vt 2.457450 1.266038
vt 2.457450 1.207547
vt 2.347780 1.432810
vt 2.457450 1.353774
vt 2.619125 1.266038
vt 2.619125 1.207547
vt 2.662603 1.207547
vt 2.347780 1.536557
vt 2.457450 1.433402
vt 2.457450 1.536557
vt 2.619125 1.536557
vt 2.619125 1.436396
vt 2.662603 1.536557
vt 2.619125 1.353774
vt 2.749558 1.438862
vt 2.662603 1.437218
vt 2.662603 1.353774
vt 2.662603 1.266038
vt 2.749558 1.207547
vt 2.749558 1.266038
vt 2.793036 1.207547
vt 2.749558 1.353774
vt 2.793036 1.266038
vt 2.908824 1.207547
vt 2.908824 1.266038
vt 2.908824 1.353774
vt 2.793036 1.353774
vn -0.997916 0.052903 -0.036948
vn -0.998746 0.036252 -0.034543
vn -0.721841 -0.091495 -0.685984
vn -0.776532 -0.028129 -0.629450
vn -0.998447 0.045935 -0.031528
vn -0.738088 0.005563 -0.674682
vn -0.158027 -0.024751 -0.987125
vn -0.150338 -0.034296 -0.988040
vn 0.318917 -0.058589 -0.945970
vn -0.720101 -0.006858 -0.693835
vn -0.996439 0.047441 -0.069699
vn -0.127162 -0.039596 -0.991091
vn 0.307999 -0.061151 -0.949419
vn -0.702472 0.076072 -0.707635
vn 0.895373 0.018253 -0.444943
vn -0.997320 0.004524 -0.073021
vn 0.907115 0.042444 -0.418738
vn -0.133457 0.002251 -0.991052
vn 0.275728 -0.025356 -0.960901
vn 0.879376 0.014421 -0.475909
vn 0.999554 0.005837 0.029278
vn 0.998602 -0.046496 0.025155
vn 0.797981 -0.046362 0.600897
vn 0.999440 -0.016533 0.029095
vn 0.806654 -0.001558 0.591022
vn 0.171784 0.021883 0.984892
vn 0.181945 0.006544 0.983287
vn 0.797277 -0.003203 0.603606
vn 0.184962 0.062660 0.980746
vn -0.138400 0.127978 0.982073
vn -0.135087 0.112565 0.984419
vn -0.777326 0.000570 0.629097
vn -0.177303 0.012583 0.984076
vn -0.769890 0.039916 0.636927
vn -0.998746 0.036252 -0.034543
vn -0.998447 0.045935 -0.031528
vn -0.997916 0.052903 -0.036948
vn -0.731836 -0.047401 0.679830
vn -0.804066 -0.035329 0.593489
vn -0.996439 0.047441 -0.069699
vn -0.796432 0.016857 0.604492
vn -0.997320 0.004524 -0.073021
vn -0.186446 -0.070716 0.979917
vn 0.211030 -0.002768 0.977476
vn -0.173675 0.045214 0.983765
vn -0.811592 -0.014103 0.584054
vn -0.998353 -0.026519 -0.050873
vn -0.190283 0.065697 0.979529
vn -0.791183 -0.001946 0.611577
vn -0.989171 -0.141913 -0.037436
vn -0.767379 -0.044557 0.639644
vn -0.976123 -0.209947 -0.055732
vn -0.166160 -0.040154 0.985281
vn -0.114722 -0.125766 0.985404
vn 0.179676 -0.024063 0.983431
vn 0.197222 0.022173 0.980108
vn 0.201000 0.026161 0.979242
vn 0.203393 0.003717 0.979090
vn 0.802185 0.037898 0.595872
vn 0.826628 0.036710 0.561550
vn 0.802909 0.031421 0.595272
vn 0.998204 0.059891 -0.001531
vn 0.999801 -0.019958 0.000198
vn 0.841533 0.034847 0.539080
vn 0.999927 0.011978 -0.001342
vn 0.853047 0.060937 -0.518263
vn 0.863648 -0.125497 -0.488224
vn 0.252388 -0.020385 -0.967411
vn 0.854747 -0.000330 0.519045
vn 0.998911 -0.043705 0.016309
vn 0.999725 -0.004523 0.022994
vn 0.881850 0.035280 -0.470208
vn 0.827302 -0.093306 -0.553954
vn 0.247645 -0.057381 -0.967150
vn 0.871530 0.006331 -0.490301
vn -0.125221 0.019195 -0.991943
vn 0.195588 -0.037960 -0.979951
vn 0.236605 0.122306 -0.963877
vn 0.315095 0.076417 -0.945979
vn -0.143901 0.272813 -0.951244
vn -0.145849 0.180028 -0.972789
vn -0.712172 0.113052 -0.692842
vn -0.108611 0.040595 -0.993255
vn -0.785666 0.023853 -0.618191
vn -0.976123 -0.209947 -0.055732
vn -0.989171 -0.141913 -0.037436
vn -0.998353 -0.026519 -0.050873
vn -0.679937 0.015292 -0.733111
f 1/1/1 2/2/2 3/3/3
f 4/4/4 3/3/3 2/2/2
f 2/2/2 5/5/5 4/4/4
f 6/6/6 4/4/4 5/5/5
f 4/4/4 6/6/6 7/7/7
f 7/7/7 8/8/8 4/4/4
f 8/8/8 3/3/3 4/4/4
f 8/8/8 7/7/7 9/9/9
f 10/10/10 1/1/1 3/3/3
f 1/1/1 10/10/10 11/11/11
f 3/3/3 8/8/8 12/12/12
f 10/10/10 3/3/3 12/12/12
f 9/9/9 13/13/13 8/8/8
f 13/13/13 12/12/12 8/8/8
f 14/14/14 11/11/11 10/10/10
f 9/9/9 15/15/15 13/13/13
f 11/11/11 14/14/14 16/16/16
f 15/15/15 9/9/9 17/17/17
f 12/12/12 18/18/18 10/10/10
f 14/14/14 10/10/10 18/18/18
f 12/12/12 13/13/13 19/19/19
f 19/19/19 18/18/18 12/12/12
f 15/15/15 20/20/20 13/13/13
f 13/13/13 20/20/20 19/19/19
f 17/17/17 21/21/21 15/15/15
f 21/21/21 17/17/17 22/22/22
f 23/23/23 21/21/21 22/22/22
f 24/24/24 15/15/15 21/21/21
f 15/15/15 24/24/24 20/20/20
f 21/21/21 23/23/23 25/25/25
f 25/25/25 24/24/24 21/21/21
f 23/23/23 26/26/26 25/25/25
f 26/26/26 23/23/23 27/27/27
f 24/24/24 25/25/25 28/28/28
f 29/29/29 25/25/25 26/26/26
f 25/25/25 29/29/29 28/28/28
f 27/27/27 30/30/30 26/26/26
f 30/30/30 27/27/27 31/31/31
f 30/30/30 31/31/31 32/32/32
f 33/33/33 26/26/26 30/30/30
f 26/26/26 33/33/33 29/29/29
f 34/34/34 30/30/30 32/32/32
f 33/33/33 30/30/30 34/34/34
f 34/34/34 32/32/32 35/35/35
f 36/36/36 35/35/35 32/32/32
f 35/35/35 37/37/37 34/34/34
f 38/38/38 34/34/34 37/37/37
f 34/34/34 38/38/38 33/33/33
f 37/37/37 39/39/39 38/38/38
f 39/39/39 33/33/33 38/38/38
f 39/39/39 37/37/37 40/40/40
f 40/40/40 41/41/41 39/39/39
f 41/41/41 40/40/40 42/42/42
f 33/33/33 39/39/39 43/43/43
f 41/41/41 43/43/43 39/39/39
f 44/44/44 33/33/33 43/43/43
f 33/33/33 44/44/44 29/29/29
f 43/43/43 41/41/41 45/45/45
f 45/45/45 44/44/44 43/43/43
f 42/42/42 46/46/46 41/41/41
f 46/46/46 42/42/42 47/47/47
f 41/41/41 48/48/48 45/45/45
f 41/41/41 46/46/46 48/48/48
f 44/44/44 28/28/28 29/29/29
f 47/47/47 49/49/49 46/46/46
f 49/49/49 48/48/48 46/46/46
f 47/47/47 50/50/50 49/49/49
f 50/50/50 51/51/51 49/49/49
f 50/50/50 52/52/52 51/51/51
f 51/51/51 53/53/53 49/49/49
f 48/48/48 49/49/49 53/53/53
f 53/53/53 51/51/51 54/54/54
f 48/48/48 55/55/55 45/45/45
f 44/44/44 45/45/45 55/55/55
f 53/53/53 56/56/56 48/48/48
f 55/55/55 48/48/48 56/56/56
f 54/54/54 57/57/57 53/53/53
f 56/56/56 53/53/53 57/57/57
f 58/58/58 57/57/57 54/54/54
f 59/59/59 57/57/57 58/58/58
f 60/60/60 56/56/56 57/57/57
f 59/59/59 60/60/60 57/57/57
f 61/61/61 55/55/55 56/56/56
f 60/60/60 61/61/61 56/56/56
f 59/59/59 62/62/62 60/60/60
f 62/62/62 61/61/61 60/60/60
f 62/62/62 59/59/59 63/63/63
f 61/61/61 64/64/64 55/55/55
f 64/64/64 44/44/44 55/55/55
f 62/62/62 65/65/65 61/61/61
f 65/65/65 64/64/64 61/61/61
f 63/63/63 66/66/66 62/62/62
f 66/66/66 63/63/63 67/67/67
f 66/66/66 67/67/67 68/68/68
f 44/44/44 64/64/64 69/69/69
f 28/28/28 44/44/44 69/69/69
f 65/65/65 70/70/70 64/64/64
f 70/70/70 69/69/69 64/64/64
f 71/71/71 28/28/28 69/69/69
f 70/70/70 71/71/71 69/69/69
f 71/71/71 24/24/24 28/28/28
f 71/71/71 20/20/20 24/24/24
f 20/20/20 71/71/71 72/72/72
f 70/70/70 72/72/72 71/71/71
f 72/72/72 19/19/19 20/20/20
f 65/65/65 73/73/73 70/70/70
f 72/72/72 70/70/70 73/73/73
f 19/19/19 72/72/72 74/74/74
f 73/73/73 74/74/74 72/72/72
f 18/18/18 19/19/19 74/74/74
f 73/73/73 65/65/65 75/75/75
f 62/62/62 75/75/75 65/65/65
f 75/75/75 62/62/62 66/66/66
f 76/76/76 18/18/18 74/74/74
f 18/18/18 76/76/76 14/14/14
f 74/74/74 73/73/73 77/77/77
f 74/74/74 77/77/77 76/76/76
f 73/73/73 75/75/75 78/78/78
f 78/78/78 77/77/77 73/73/73
f 79/79/79 75/75/75 66/66/66
f 79/79/79 78/78/78 75/75/75
f 68/68/68 79/79/79 66/66/66
f 79/79/79 68/68/68 80/80/80
f 80/80/80 81/81/81 79/79/79
f 81/81/81 78/78/78 79/79/79
f 81/81/81 80/80/80 82/82/82
f 83/83/83 77/77/77 78/78/78
f 78/78/78 81/81/81 83/83/83
f 77/77/77 83/83/83 76/76/76
f 82/82/82 84/84/84 81/81/81
f 83/83/83 81/81/81 84/84/84
f 84/84/84 82/82/82 85/85/85
f 84/84/84 85/85/85 86/86/86
f 87/87/87 84/84/84 86/86/86
f 84/84/84 88/88/88 83/83/83
f 84/84/84 87/87/87 88/88/88
f 76/76/76 83/83/83 88/88/88
f 16/16/16 88/88/88 87/87/87
f 88/88/88 14/14/14 76/76/76
f 88/88/88 16/16/16 14/14/14
