# Generated from Roblox mesh JSON (v4.01)
# Hello from RBX_Toolbox ;)
o RightUpperLeg
v -0.290945 -0.116879 -0.376652
v -0.290946 -0.326318 -0.376673
v -0.308985 -0.326192 -0.362774
v -0.290946 -0.326318 -0.376673
v -0.243431 -0.415091 -0.236635
v -0.308985 -0.326192 -0.362774
v -0.323016 -0.326192 -0.351963
v -0.243431 -0.415091 -0.236635
v -0.323016 -0.326195 -0.175789
v -0.323016 -0.326192 -0.351963
v -0.243431 -0.415091 -0.236635
v -0.323016 -0.326204 0.000364
v -0.240308 -0.398727 -0.044964
v -0.323016 -0.116892 -0.087712
v -0.323016 -0.326213 0.176517
v -0.323016 -0.116879 -0.351941
v -0.240308 -0.398727 -0.044964
v -0.258936 -0.381403 0.174674
v -0.129949 -0.419769 -0.276720
v -0.243431 -0.415091 -0.236635
v 0.021453 -0.326318 -0.376673
v 0.071459 -0.418398 -0.266295
v -0.129949 -0.419769 -0.276720
v -0.129949 -0.419769 -0.276720
v 0.071459 -0.418398 -0.266295
v 0.021353 -0.413646 0.039599
v -0.240308 -0.398727 -0.044964
v 0.021353 -0.413646 0.039599
v 0.021353 -0.413646 0.039599
v -0.134746 -0.326318 -0.376673
v 0.099553 -0.111489 -0.376651
v 0.021453 -0.326318 -0.376673
v -0.129949 -0.419769 -0.276720
v 0.021353 -0.413646 0.039599
v -0.323016 -0.326221 0.352669
v -0.258936 -0.381403 0.174674
v -0.323016 -0.326221 0.352669
v -0.228353 -0.370520 0.281943
v -0.314999 -0.326216 0.358648
v -0.290947 -0.116923 0.376673
v -0.302973 -0.326219 0.367650
v -0.290947 -0.326223 0.376651
v -0.228353 -0.370520 0.281943
v -0.323016 -0.116914 0.352670
v -0.323016 -0.116905 0.176517
v -0.228353 -0.370520 0.281943
v -0.258936 -0.381403 0.174674
v 0.021353 -0.413646 0.039599
v -0.124925 -0.366881 0.312964
v 0.021353 -0.413646 0.039599
v 0.069677 -0.368710 0.299100
v -0.124925 -0.366881 0.312964
v 0.021353 -0.413646 0.039599
v 0.021452 -0.326223 0.376651
v -0.134747 -0.326223 0.376651
v -0.124925 -0.366881 0.312964
v -0.056641 -0.114228 0.376673
v 0.177664 -0.111532 0.376673
v -0.365540 -0.084561 -0.175711
v -0.363059 -0.073768 -0.364296
v -0.365540 -0.084552 -0.351941
v -0.346403 -0.073759 -0.376651
v -0.357212 -0.084548 -0.358119
v -0.363059 -0.073768 -0.364296
v -0.363059 -0.073790 0.364715
v -0.363059 0.049616 -0.364297
v -0.363059 0.296382 -0.364296
v -0.346403 0.419769 -0.376651
v -0.363059 0.419764 -0.364296
v -0.354731 0.049585 0.370694
v -0.354731 0.419720 0.370694
v -0.337191 -0.106121 0.000364
v -0.344278 -0.100737 0.088440
v -0.365540 -0.084552 -0.351941
v 0.083089 -0.016111 -0.376651
v -0.346403 0.419769 -0.376651
v -0.290945 -0.116879 -0.376652
v -0.346403 -0.073759 -0.376651
v -0.091307 0.234696 -0.376651
v 0.078756 0.419769 -0.376651
v 0.163788 0.234696 -0.376651
v -0.365540 -0.084567 0.293974
v -0.364959 -0.085009 0.352734
v -0.346403 -0.073794 0.376673
v -0.346403 0.419716 0.376673
v -0.346403 0.111272 0.376673
v 0.089209 -0.053058 0.376673
v -0.091272 0.203805 0.376673
v 0.078816 0.419716 0.376673
v 0.163860 0.234649 0.376673
v 0.177652 -0.326318 -0.376673
v 0.245801 -0.419012 -0.269323
v 0.071459 -0.418398 -0.266295
v 0.365540 -0.326191 -0.351963
v 0.295626 -0.408083 -0.160002
v 0.245801 -0.419012 -0.269323
v 0.021353 -0.413646 0.039599
v 0.021353 -0.413646 0.039599
v 0.295626 -0.408083 -0.160002
v 0.283875 -0.390000 0.065390
v 0.021353 -0.413646 0.039599
v 0.333852 -0.326318 -0.376673
v 0.333852 -0.116297 -0.376651
v 0.071459 -0.418398 -0.266295
v 0.351676 -0.326191 -0.362774
v 0.245801 -0.419012 -0.269323
v 0.365540 -0.326204 0.000320
v 0.365540 -0.116830 -0.351941
v 0.365540 -0.326195 -0.175811
v 0.295626 -0.408083 -0.160002
v 0.365539 -0.326213 0.176451
v 0.283875 -0.390000 0.065390
v 0.365540 -0.022186 -0.087745
v 0.365539 -0.022196 0.176451
v 0.300839 -0.374754 0.247961
v 0.236114 -0.367099 0.310213
v 0.021353 -0.413646 0.039599
v 0.283875 -0.390000 0.065390
v 0.300839 -0.374754 0.247961
v 0.021353 -0.413646 0.039599
v 0.236114 -0.367099 0.310213
v 0.069677 -0.368710 0.299100
v 0.021353 -0.413646 0.039599
v 0.177652 -0.326223 0.376651
v 0.345734 -0.326219 0.367617
v 0.069677 -0.368710 0.299100
v 0.333852 -0.326223 0.376651
v 0.236114 -0.367099 0.310213
v 0.333852 -0.116939 0.376673
v 0.365539 -0.326222 0.352581
v 0.357617 -0.326216 0.358582
v 0.300839 -0.374754 0.247961
v 0.365539 -0.326222 0.352581
v 0.365539 -0.116887 0.352582
v 0.365539 -0.116887 0.352582
v 0.333947 -0.073785 0.376673
v 0.333852 0.234696 -0.376651
v 0.347715 0.234692 -0.365841
v 0.365540 0.203845 -0.351941
v 0.333852 0.419769 -0.376651
v 0.365540 0.419760 -0.351941
v 0.365540 0.234680 -0.087740
v 0.365539 0.234670 0.176484
v 0.365539 -0.074044 0.352582
v 0.365540 0.419753 -0.175789
v 0.365540 0.419746 0.000364
v 0.365539 0.419739 0.176517
v 0.365539 0.234663 0.352636
v 0.343819 0.111275 0.369145
v 0.333947 0.234649 0.376673
v 0.341845 0.296341 0.370650
v 0.333947 0.419716 0.376673
v 0.355666 0.234658 0.360138
v 0.353692 0.111278 0.361616
v 0.365539 -0.074044 0.352582
v 0.365539 0.234663 0.352636
v 0.365539 0.419733 0.352669
v 0.365539 0.419733 0.352669
vt 0.809107 0.114303
vt 0.809106 0.112515
vt 0.809224 0.112506
vt 0.809106 0.112515
vt 0.809224 0.112506
vt 0.809224 0.112506
vt 0.809315 0.112494
vt 0.809315 0.112494
vt 0.810297 0.112478
vt 0.809315 0.112478
vt 0.809806 0.112478
vt 0.811279 0.112478
vt 0.811279 0.112478
vt 0.810788 0.114254
vt 0.812261 0.112478
vt 0.809314 0.114275
vt 0.811770 0.112478
vt 0.812261 0.112478
vt 0.809165 0.112510
vt 0.809224 0.112506
vt 0.807344 0.112490
vt 0.807784 0.112496
vt 0.808225 0.112503
vt 0.808225 0.112503
vt 0.807784 0.112496
vt 0.808225 0.112503
vt 0.810297 0.112478
vt 0.810297 0.112478
vt 0.809224 0.112506
vt 0.808225 0.112503
vt 0.806903 0.114320
vt 0.807344 0.112490
vt 0.809106 0.112515
vt 0.812261 0.112478
vt 0.813243 0.112478
vt 0.813243 0.112478
vt 0.813244 0.112478
vt 0.813296 0.112478
vt 0.813296 0.112478
vt 0.813449 0.114254
vt 0.813372 0.112478
vt 0.813449 0.112478
vt 0.813372 0.112478
vt 0.813244 0.114254
vt 0.812261 0.114254
vt 0.813411 0.112478
vt 0.813270 0.112478
vt 0.813296 0.112478
vt 0.813449 0.112478
vt 0.813449 0.112478
vt 0.815215 0.112478
vt 0.814774 0.112478
vt 0.815215 0.112478
vt 0.815215 0.112478
vt 0.814332 0.112478
vt 0.814332 0.112478
vt 0.814774 0.114278
vt 0.816098 0.114302
vt 0.810299 0.114544
vt 0.809210 0.115694
vt 0.809314 0.114544
vt 0.809106 0.114640
vt 0.809262 0.114549
vt 0.809210 0.114640
vt 0.813347 0.114640
vt 0.809210 0.116061
vt 0.809210 0.117323
vt 0.809106 0.118217
vt 0.809210 0.118217
vt 0.813398 0.115535
vt 0.813398 0.118217
vt 0.811279 0.114350
vt 0.811770 0.114399
vt 0.809314 0.114549
vt 0.806903 0.115055
vt 0.809106 0.118217
vt 0.809107 0.114303
vt 0.809106 0.114640
vt 0.807784 0.116876
vt 0.806903 0.118217
vt 0.806463 0.116876
vt 0.812261 0.114545
vt 0.813246 0.114544
vt 0.813449 0.114640
vt 0.813449 0.118217
vt 0.813449 0.115982
vt 0.815657 0.114773
vt 0.814774 0.116652
vt 0.815657 0.118217
vt 0.816098 0.116876
vt 0.806463 0.112478
vt 0.806022 0.112478
vt 0.806463 0.112478
vt 0.805342 0.112478
vt 0.805394 0.112478
vt 0.805446 0.112478
vt 0.806463 0.112478
vt 0.805446 0.112478
vt 0.804349 0.112478
vt 0.803852 0.112478
vt 0.804349 0.112478
vt 0.805581 0.112478
vt 0.805580 0.114257
vt 0.807344 0.112490
vt 0.805446 0.112478
vt 0.805581 0.112478
vt 0.803355 0.112478
vt 0.805342 0.114254
vt 0.804349 0.112478
vt 0.805342 0.112478
vt 0.802361 0.112478
vt 0.803355 0.112478
vt 0.803852 0.114997
vt 0.802361 0.114997
vt 0.817124 0.112478
vt 0.817088 0.112478
vt 0.817124 0.112478
vt 0.802361 0.112478
vt 0.801864 0.112478
vt 0.802361 0.112478
vt 0.816981 0.112478
vt 0.816540 0.112478
vt 0.816981 0.112478
vt 0.816098 0.112478
vt 0.817053 0.112478
vt 0.816098 0.112478
vt 0.816981 0.112478
vt 0.817053 0.112478
vt 0.816981 0.114254
vt 0.817171 0.112478
vt 0.817124 0.112478
vt 0.817171 0.112478
vt 0.801367 0.112478
vt 0.817171 0.114254
vt 0.801367 0.114254
vt 0.816982 0.114640
vt 0.805581 0.116876
vt 0.805477 0.116876
vt 0.805342 0.116652
vt 0.805581 0.118217
vt 0.805342 0.118217
vt 0.803852 0.116876
vt 0.802361 0.116876
vt 0.801367 0.114640
vt 0.804349 0.118217
vt 0.803355 0.118217
vt 0.802361 0.118217
vt 0.801367 0.116876
vt 0.817041 0.115982
vt 0.816981 0.116876
vt 0.817029 0.117323
vt 0.816982 0.118217
vt 0.817112 0.116876
vt 0.817100 0.115982
vt 0.817171 0.114639
vt 0.817171 0.116876
vt 0.817171 0.118217
vt 0.801367 0.118217
vn -0.204372 -0.115054 -0.972108
vn -0.410217 0.057689 -0.910161
vn -0.610308 0.000064 -0.792164
vn -0.410217 0.057689 -0.910161
vn -0.639657 0.000074 -0.768661
vn -0.610308 0.000064 -0.792164
vn -0.668175 0.000065 -0.744004
vn -0.639657 0.000074 -0.768661
vn -0.987398 -0.025591 0.156176
vn -0.668175 0.000065 -0.744004
vn -0.639657 0.000074 -0.768661
vn -0.991772 -0.024317 0.125688
vn -1.000000 0.000012 -0.000028
vn -0.940521 -0.174861 0.291280
vn -0.996560 -0.010461 -0.082212
vn -0.900817 -0.006895 -0.434145
vn -1.000000 0.000012 -0.000028
vn -0.890827 0.000165 0.454342
vn -0.041145 0.000068 -0.999153
vn -0.639657 0.000074 -0.768661
vn -0.118187 -0.024097 -0.992699
vn -0.000048 0.000141 -1.000000
vn -0.041145 0.000068 -0.999153
vn -0.041145 0.000068 -0.999153
vn -0.000048 0.000141 -1.000000
vn -0.033384 -0.994538 0.098888
vn -1.000000 0.000012 -0.000028
vn -0.033384 -0.994538 0.098888
vn -0.033384 -0.994538 0.098888
vn 0.078459 -0.013536 -0.996825
vn 0.000000 0.000051 -1.000000
vn -0.118187 -0.024097 -0.992699
vn -0.041145 0.000068 -0.999153
vn -0.033384 -0.994538 0.098888
vn -0.587177 0.000248 0.809458
vn -0.890827 0.000165 0.454342
vn -0.587177 0.000248 0.809458
vn -0.598895 -0.000035 0.800828
vn -0.598520 -0.000063 0.801108
vn -0.169471 -0.063926 0.983460
vn -0.599222 -0.000079 0.800583
vn 0.053929 0.035744 0.997905
vn -0.598895 -0.000035 0.800828
vn -0.942181 -0.235701 0.238201
vn -0.999168 -0.040791 -0.000298
vn -0.598895 -0.000035 0.800828
vn -0.890827 0.000165 0.454342
vn -0.033384 -0.994538 0.098888
vn -0.042911 0.052745 0.997686
vn -0.033384 -0.994538 0.098888
vn -0.001588 -0.001100 0.999998
vn -0.042911 0.052745 0.997686
vn -0.033384 -0.994538 0.098888
vn -0.187537 -0.036368 0.981584
vn -0.142658 -0.029701 0.989326
vn -0.042911 0.052745 0.997686
vn 0.000000 -0.000052 1.000000
vn -0.000001 -0.000051 1.000000
vn -0.914321 -0.394374 0.092124
vn -0.914953 -0.326686 0.236933
vn -0.999751 -0.015898 -0.015680
vn -0.103694 -0.124543 -0.986781
vn -0.468796 -0.616664 -0.632420
vn -0.914953 -0.326686 0.236933
vn -0.705081 0.029180 0.708526
vn -0.981662 0.146050 -0.122513
vn -0.999926 0.009764 -0.007272
vn -0.196064 -0.050132 -0.979309
vn -0.529595 0.847927 0.023431
vn -0.595382 -0.086328 0.798791
vn -0.558538 0.829474 -0.002996
vn -0.605188 -0.796082 -0.000039
vn -0.605304 -0.795995 -0.000025
vn -0.999751 -0.015898 -0.015680
vn 0.000000 0.000000 -1.000000
vn -0.196064 -0.050132 -0.979309
vn -0.204372 -0.115054 -0.972108
vn -0.103694 -0.124543 -0.986781
vn 0.000000 0.000000 -1.000000
vn 0.000000 0.000000 -1.000000
vn 0.000000 0.000000 -1.000000
vn -0.882912 -0.469484 -0.007174
vn -0.996979 -0.011304 0.076842
vn -0.004241 -0.259256 0.965799
vn -0.407229 0.103570 0.907435
vn -0.334718 -0.260460 0.905607
vn 0.000000 -0.000000 1.000000
vn 0.000000 -0.000000 1.000000
vn -0.000000 -0.000000 1.000000
vn -0.000000 -0.000000 1.000000
vn -0.000407 -0.001014 -0.999999
vn 0.363687 0.000037 -0.931521
vn -0.000048 0.000141 -1.000000
vn 0.854337 -0.146256 -0.498716
vn 0.962909 -0.075970 -0.258912
vn 0.363687 0.000037 -0.931521
vn -0.033384 -0.994538 0.098888
vn -0.033384 -0.994538 0.098888
vn 0.962909 -0.075970 -0.258912
vn 1.000000 -0.000029 0.000074
vn -0.033384 -0.994538 0.098888
vn 0.082032 -0.000029 -0.996630
vn 0.179273 0.119505 -0.976514
vn -0.000048 0.000141 -1.000000
vn 0.614929 0.000098 -0.788583
vn 0.363687 0.000037 -0.931521
vn 0.999982 -0.005988 0.000412
vn 0.842694 -0.241626 -0.481127
vn 1.000000 -0.000578 -0.000052
vn 0.962909 -0.075970 -0.258912
vn 1.000000 -0.000429 0.000014
vn 1.000000 -0.000029 0.000074
vn 1.000000 0.000000 0.000002
vn 1.000000 -0.000000 0.000002
vn 0.763972 -0.081655 0.640062
vn 0.478801 -0.051763 0.876396
vn -0.033384 -0.994538 0.098888
vn 1.000000 -0.000029 0.000074
vn 0.763972 -0.081655 0.640062
vn -0.033384 -0.994538 0.098888
vn 0.478801 -0.051763 0.876396
vn -0.001588 -0.001100 0.999998
vn -0.033384 -0.994538 0.098888
vn -0.008217 -0.002048 0.999964
vn 0.559482 0.015014 0.828706
vn -0.001588 -0.001100 0.999998
vn 0.389527 -0.117950 0.913431
vn 0.478801 -0.051763 0.876396
vn 0.095407 -0.000012 0.995438
vn 0.846485 -0.165892 0.505909
vn 0.657254 0.004758 0.753654
vn 0.763972 -0.081655 0.640062
vn 0.846485 -0.165892 0.505909
vn 0.970421 0.000002 0.241419
vn 0.970421 0.000002 0.241419
vn 0.377278 0.181879 0.908065
vn 0.069972 -0.040191 -0.996739
vn 0.614920 0.000000 -0.788589
vn 0.651349 0.143038 -0.745175
vn -0.479376 0.256617 -0.839253
vn 0.155502 0.086767 0.984018
vn 1.000000 -0.000000 0.000002
vn 1.000000 -0.000000 0.000002
vn 0.850407 -0.149680 0.504384
vn 0.900093 0.113251 0.420722
vn 0.061706 0.998094 -0.000105
vn 0.061801 0.998088 -0.000105
vn 0.844940 -0.179852 0.503717
vn 0.563865 0.035622 0.825099
vn 0.092213 0.049170 0.994525
vn 0.555124 0.004978 0.831753
vn 0.015103 0.998333 0.055709
vn 0.594359 0.027005 0.803746
vn 0.604581 0.062199 0.794112
vn 0.850407 -0.149680 0.504384
vn 0.844940 -0.179852 0.503717
vn 0.028942 0.999579 0.002241
vn 0.028942 0.999579 0.002241
f 4/4/4 5/5/5 6/6/6
f 21/21/21 22/22/22 23/23/23
f 76/76/76 77/77/77 78/78/78
f 1/1/1 2/2/2 3/3/3
f 7/7/7 3/3/3 8/8/8
f 3/3/3 7/7/7 16/16/16
f 3/3/3 16/16/16 1/1/1
f 2/2/2 19/19/19 20/20/20
f 20/20/20 19/19/19 29/29/29
f 2/2/2 30/30/30 33/33/33
f 2/2/2 1/1/1 30/30/30
f 16/16/16 74/74/74 63/63/63
f 16/16/16 63/63/63 62/62/62
f 62/62/62 63/63/63 64/64/64
f 62/62/62 1/1/1 16/16/16
f 66/66/66 62/62/62 64/64/64
f 1/1/1 31/31/31 30/30/30
f 68/68/68 62/62/62 66/66/66
f 30/30/30 31/31/31 32/32/32
f 32/32/32 24/24/24 30/30/30
f 24/24/24 25/25/25 26/26/26
f 32/32/32 31/31/31 91/91/91
f 32/32/32 91/91/91 104/104/104
f 31/31/31 103/103/103 91/91/91
f 1/1/1 75/75/75 31/31/31
f 31/31/31 75/75/75 103/103/103
f 1/1/1 79/79/79 75/75/75
f 68/68/68 79/79/79 1/1/1
f 79/79/79 81/81/81 75/75/75
f 75/75/75 81/81/81 103/103/103
f 68/68/68 80/80/80 79/79/79
f 79/79/79 80/80/80 81/81/81
f 81/81/81 80/80/80 137/137/137
f 81/81/81 137/137/137 103/103/103
f 80/80/80 140/140/140 137/137/137
f 138/138/138 137/137/137 140/140/140
f 103/103/103 137/137/137 138/138/138
f 115/115/115 116/116/116 117/117/117
f 125/125/125 116/116/116 115/115/115
f 125/125/125 115/115/115 131/131/131
f 130/130/130 131/131/131 132/132/132
f 130/130/130 134/134/134 131/131/131
f 125/125/125 131/131/131 134/134/134
f 125/125/125 134/134/134 129/129/129
f 127/127/127 125/125/125 129/129/129
f 125/125/125 127/127/127 128/128/128
f 129/129/129 124/124/124 127/127/127
f 124/124/124 121/121/121 127/127/127
f 124/124/124 122/122/122 121/121/121
f 121/121/121 122/122/122 123/123/123
f 9/9/9 10/10/10 11/11/11
f 27/27/27 11/11/11 28/28/28
f 9/9/9 11/11/11 27/27/27
f 10/10/10 9/9/9 16/16/16
f 16/16/16 9/9/9 14/14/14
f 12/12/12 9/9/9 13/13/13
f 14/14/14 9/9/9 12/12/12
f 16/16/16 14/14/14 59/59/59
f 16/16/16 59/59/59 61/61/61
f 59/59/59 60/60/60 61/61/61
f 59/59/59 14/14/14 72/72/72
f 59/59/59 65/65/65 60/60/60
f 60/60/60 65/65/65 66/66/66
f 59/59/59 72/72/72 73/73/73
f 14/14/14 45/45/45 72/72/72
f 72/72/72 45/45/45 73/73/73
f 59/59/59 73/73/73 82/82/82
f 65/65/65 59/59/59 82/82/82
f 45/45/45 44/44/44 73/73/73
f 82/82/82 73/73/73 44/44/44
f 82/82/82 83/83/83 65/65/65
f 82/82/82 44/44/44 83/83/83
f 65/65/65 83/83/83 84/84/84
f 83/83/83 44/44/44 84/84/84
f 70/70/70 66/66/66 65/65/65
f 84/84/84 70/70/70 65/65/65
f 138/138/138 140/140/140 141/141/141
f 141/141/141 139/139/139 138/138/138
f 138/138/138 139/139/139 103/103/103
f 139/139/139 141/141/141 142/142/142
f 141/141/141 145/145/145 142/142/142
f 145/145/145 146/146/146 142/142/142
f 113/113/113 139/139/139 142/142/142
f 142/142/142 146/146/146 143/143/143
f 146/146/146 147/147/147 143/143/143
f 143/143/143 147/147/147 148/148/148
f 147/147/147 158/158/158 148/148/148
f 143/143/143 148/148/148 144/144/144
f 142/142/142 143/143/143 114/114/114
f 114/114/114 143/143/143 144/144/144
f 113/113/113 142/142/142 114/114/114
f 114/114/114 144/144/144 135/135/135
f 133/133/133 114/114/114 135/135/135
f 133/133/133 111/111/111 114/114/114
f 111/111/111 113/113/113 114/114/114
f 111/111/111 133/133/133 119/119/119
f 111/111/111 119/119/119 118/118/118
f 118/118/118 119/119/119 120/120/120
f 111/111/111 107/107/107 113/113/113
f 107/107/107 111/111/111 112/112/112
f 107/107/107 109/109/109 113/113/113
f 107/107/107 99/99/99 109/109/109
f 107/107/107 100/100/100 99/99/99
f 99/99/99 100/100/100 101/101/101
f 109/109/109 108/108/108 113/113/113
f 108/108/108 139/139/139 113/113/113
f 139/139/139 108/108/108 103/103/103
f 108/108/108 109/109/109 94/94/94
f 94/94/94 109/109/109 110/110/110
f 105/105/105 103/103/103 108/108/108
f 94/94/94 105/105/105 108/108/108
f 103/103/103 105/105/105 102/102/102
f 102/102/102 105/105/105 106/106/106
f 94/94/94 96/96/96 105/105/105
f 103/103/103 102/102/102 91/91/91
f 94/94/94 95/95/95 96/96/96
f 96/96/96 95/95/95 98/98/98
f 91/91/91 102/102/102 92/92/92
f 91/91/91 92/92/92 93/93/93
f 93/93/93 92/92/92 97/97/97
f 14/14/14 15/15/15 45/45/45
f 14/14/14 12/12/12 15/15/15
f 45/45/45 15/15/15 35/35/35
f 45/45/45 35/35/35 44/44/44
f 35/35/35 15/15/15 36/36/36
f 12/12/12 18/18/18 15/15/15
f 12/12/12 17/17/17 18/18/18
f 18/18/18 17/17/17 34/34/34
f 40/40/40 84/84/84 44/44/44
f 84/84/84 86/86/86 70/70/70
f 84/84/84 88/88/88 86/86/86
f 84/84/84 40/40/40 88/88/88
f 86/86/86 85/85/85 70/70/70
f 86/86/86 88/88/88 85/85/85
f 70/70/70 85/85/85 71/71/71
f 88/88/88 89/89/89 85/85/85
f 71/71/71 67/67/67 70/70/70
f 66/66/66 70/70/70 67/67/67
f 67/67/67 71/71/71 69/69/69
f 67/67/67 68/68/68 66/66/66
f 69/69/69 68/68/68 67/67/67
f 88/88/88 90/90/90 89/89/89
f 90/90/90 152/152/152 89/89/89
f 90/90/90 88/88/88 87/87/87
f 40/40/40 87/87/87 88/88/88
f 90/90/90 150/150/150 152/152/152
f 90/90/90 87/87/87 150/150/150
f 151/151/151 152/152/152 150/150/150
f 152/152/152 151/151/151 153/153/153
f 152/152/152 153/153/153 157/157/157
f 157/157/157 153/153/153 156/156/156
f 153/153/153 155/155/155 156/156/156
f 151/151/151 154/154/154 153/153/153
f 153/153/153 154/154/154 155/155/155
f 154/154/154 151/151/151 149/149/149
f 149/149/149 151/151/151 150/150/150
f 155/155/155 154/154/154 149/149/149
f 149/149/149 150/150/150 136/136/136
f 155/155/155 149/149/149 136/136/136
f 87/87/87 136/136/136 150/150/150
f 134/134/134 155/155/155 136/136/136
f 136/136/136 87/87/87 58/58/58
f 129/129/129 134/134/134 136/136/136
f 136/136/136 58/58/58 129/129/129
f 58/58/58 87/87/87 57/57/57
f 57/57/57 87/87/87 40/40/40
f 124/124/124 129/129/129 58/58/58
f 54/54/54 58/58/58 57/57/57
f 54/54/54 124/124/124 58/58/58
f 124/124/124 54/54/54 126/126/126
f 55/55/55 54/54/54 57/57/57
f 54/54/54 55/55/55 52/52/52
f 54/54/54 52/52/52 51/51/51
f 51/51/51 52/52/52 53/53/53
f 42/42/42 55/55/55 57/57/57
f 42/42/42 57/57/57 40/40/40
f 55/55/55 42/42/42 56/56/56
f 40/40/40 41/41/41 42/42/42
f 44/44/44 41/41/41 40/40/40
f 42/42/42 41/41/41 46/46/46
f 42/42/42 46/46/46 49/49/49
f 49/49/49 46/46/46 50/50/50
f 44/44/44 39/39/39 41/41/41
f 41/41/41 39/39/39 43/43/43
f 39/39/39 44/44/44 37/37/37
f 37/37/37 38/38/38 39/39/39
f 37/37/37 47/47/47 38/38/38
f 38/38/38 47/47/47 48/48/48
