# Generated from Roblox mesh JSON (v4.01)
# Hello from RBX_Toolbox ;)
o RightUpperArm
v -0.174961 -0.335744 -0.237532
v -0.206203 -0.366862 -0.203207
v -0.212293 -0.347950 -0.208849
v -0.328433 -0.051800 -0.276540
v -0.168696 -0.355619 -0.232502
v 0.073031 -0.283190 -0.217851
v -0.189700 -0.411792 0.044964
v -0.173197 -0.456721 0.289957
v -0.197729 -0.391494 0.292953
v -0.197729 -0.391494 0.292953
v -0.173197 -0.456721 0.289957
v -0.146278 -0.447905 0.322168
v -0.325519 -0.077526 0.256772
v -0.170813 -0.382324 0.325521
v 0.078768 -0.297337 0.306015
v -0.209910 0.337924 0.200991
v -0.210525 0.339989 -0.325521
v 0.065352 -0.257103 -0.218821
v -0.114773 0.418014 -0.245565
v -0.082208 0.392208 -0.263744
v -0.210525 0.339989 -0.325521
v -0.082208 0.392208 -0.263744
v -0.022283 0.456721 -0.067911
v -0.081677 0.390629 0.139214
v -0.114773 0.418014 0.109562
v -0.209910 0.337924 0.200991
v -0.227648 0.371381 0.164020
v -0.081677 0.390629 0.139214
v 0.023166 0.434932 -0.062174
v 0.198436 -0.217936 -0.157226
v 0.208499 -0.251613 -0.159340
v 0.328433 -0.249936 0.036756
v 0.208674 -0.248727 0.244414
v 0.231795 -0.315155 0.236293
v 0.103478 -0.366209 0.298952
v 0.231795 -0.315155 0.236293
v 0.208674 -0.248727 0.244414
v 0.311577 -0.197558 0.043725
v 0.023166 0.434932 -0.062174
v -0.081677 0.390629 0.139214
vt 0.809147 0.140815
vt 0.809595 0.140453
vt 0.809595 0.140815
vt 0.809371 0.143759
vt 0.809147 0.140453
vt 0.806925 0.140453
vt 0.811655 0.140453
vt 0.813543 0.140453
vt 0.813543 0.140815
vt 0.813545 0.140815
vt 0.813545 0.140453
vt 0.813913 0.140453
vt 0.813729 0.143759
vt 0.813913 0.140815
vt 0.816156 0.140815
vt 0.816156 0.146702
vt 0.806925 0.146702
vt 0.806925 0.140815
vt 0.805175 0.147347
vt 0.805580 0.146795
vt 0.805580 0.149266
vt 0.805622 0.146702
vt 0.803544 0.147347
vt 0.801650 0.146795
vt 0.802022 0.147347
vt 0.801650 0.149266
vt 0.802022 0.149819
vt 0.817504 0.146702
vt 0.803498 0.146795
vt 0.805622 0.140815
vt 0.805622 0.140453
vt 0.803639 0.140453
vt 0.801675 0.140815
vt 0.801675 0.140453
vt 0.816156 0.140453
vt 0.817504 0.140453
vt 0.817504 0.140815
vt 0.803639 0.140815
vt 0.803639 0.146702
vt 0.801675 0.146702
vn 0.068632 -0.149621 -0.986359
vn -0.979962 -0.182743 -0.079250
vn -0.848451 -0.443948 -0.288168
vn -0.481489 -0.370388 -0.794343
vn -0.166321 0.389895 -0.905715
vn 0.013397 0.428107 -0.903629
vn -0.973980 -0.223114 0.039799
vn -0.953795 -0.282010 0.103663
vn -0.882428 -0.299515 0.362783
vn -0.882428 -0.299515 0.362783
vn -0.953795 -0.282010 0.103663
vn 0.000057 -0.310027 0.950728
vn -0.721314 -0.217822 0.657464
vn -0.055502 0.133369 0.989511
vn 0.188796 0.203026 0.960800
vn 0.076031 0.219799 0.972578
vn 0.199076 -0.065599 -0.977786
vn 0.273023 -0.025097 -0.961680
vn -0.315453 0.945391 -0.082006
vn 0.613679 0.200057 -0.763790
vn 0.199076 -0.065599 -0.977786
vn 0.613679 0.200057 -0.763790
vn -0.259096 0.965848 0.002658
vn 0.606334 0.410589 0.681011
vn -0.317458 0.944740 0.081770
vn 0.076031 0.219799 0.972578
vn -0.321714 0.938370 0.126340
vn 0.606334 0.410589 0.681011
vn 0.893683 0.417481 -0.164436
vn 0.713160 0.227322 -0.663119
vn 0.611841 0.482080 -0.627096
vn 0.965634 0.242454 0.093632
vn 0.627300 0.354594 0.693367
vn 0.739965 -0.022419 0.672272
vn 0.313581 -0.253165 0.915191
vn 0.739965 -0.022419 0.672272
vn 0.627300 0.354594 0.693367
vn 0.913078 0.380357 0.147030
vn 0.893683 0.417481 -0.164436
vn 0.606334 0.410589 0.681011
f 19/19/19 20/20/20 21/21/21
f 23/23/23 20/20/20 19/19/19
f 20/20/20 23/23/23 29/29/29
f 23/23/23 24/24/24 29/29/29
f 24/24/24 23/23/23 25/25/25
f 25/25/25 26/26/26 24/24/24
f 26/26/26 25/25/25 27/27/27
f 7/7/7 8/8/8 9/9/9
f 10/10/10 11/11/11 12/12/12
f 10/10/10 12/12/12 14/14/14
f 13/13/13 10/10/10 14/14/14
f 15/15/15 14/14/14 12/12/12
f 15/15/15 16/16/16 14/14/14
f 12/12/12 35/35/35 15/15/15
f 16/16/16 15/15/15 28/28/28
f 36/36/36 15/15/15 35/35/35
f 37/37/37 28/28/28 15/15/15
f 15/15/15 36/36/36 37/37/37
f 1/1/1 2/2/2 3/3/3
f 3/3/3 4/4/4 1/1/1
f 2/2/2 1/1/1 5/5/5
f 1/1/1 6/6/6 5/5/5
f 6/6/6 1/1/1 18/18/18
f 1/1/1 17/17/17 18/18/18
f 22/22/22 18/18/18 17/17/17
f 30/30/30 6/6/6 18/18/18
f 18/18/18 22/22/22 30/30/30
f 6/6/6 30/30/30 31/31/31
f 39/39/39 30/30/30 22/22/22
f 30/30/30 32/32/32 31/31/31
f 30/30/30 39/39/39 38/38/38
f 32/32/32 30/30/30 38/38/38
f 38/38/38 39/39/39 40/40/40
f 38/38/38 40/40/40 33/33/33
f 33/33/33 32/32/32 38/38/38
f 32/32/32 33/33/33 34/34/34
