# Generated from Roblox mesh JSON (v4.01)
# Hello from RBX_Toolbox ;)
o RightLowerLeg
v -0.321227 0.037040 -0.369713
v -0.312208 -0.277256 -0.376695
v -0.344278 -0.276951 -0.351985
v -0.344278 -0.276742 -0.175810
v -0.251465 -0.425690 -0.143717
v -0.344278 -0.276746 0.000365
v -0.251465 -0.425690 -0.143717
v -0.344278 -0.276750 0.176539
v -0.255298 -0.386627 0.079435
v -0.344278 0.037230 -0.351952
v -0.344278 0.037222 0.000394
v -0.255298 -0.386627 0.079435
v -0.151553 -0.438824 -0.236799
v -0.251465 -0.425690 -0.143717
v 0.000191 -0.277335 -0.376695
v -0.151553 -0.438824 -0.236799
v -0.156008 -0.277335 -0.376695
v 0.007428 -0.408394 0.062424
v 0.007428 -0.408394 0.062424
v -0.151553 -0.438824 -0.236799
v -0.038859 0.036914 -0.376662
v -0.276181 -0.369235 0.253540
v -0.255298 -0.386627 0.079435
v 0.007428 -0.408394 0.062424
v -0.336261 -0.373450 0.358692
v -0.344278 -0.276747 0.352713
v -0.276181 -0.369235 0.253540
v -0.324235 -0.373442 0.367661
v -0.276181 -0.369235 0.253540
v -0.344278 -0.276747 0.352713
v -0.336261 -0.373450 0.358692
v -0.324235 -0.373442 0.367661
v -0.312209 -0.276897 0.376629
v -0.312209 -0.373434 0.376629
v -0.344278 -0.276747 0.352713
v -0.344278 0.037208 0.352713
v -0.312209 -0.276897 0.376629
v -0.312209 -0.373434 0.376629
v -0.190605 -0.361292 0.305598
v 0.007428 -0.408394 0.062424
v -0.156009 -0.373434 0.376629
v 0.000190 -0.373434 0.376629
v -0.156009 -0.373434 0.376629
v 0.000190 -0.373434 0.376629
v 0.156390 -0.373434 0.376629
v 0.312589 -0.277035 0.376629
v -0.156009 0.351167 0.376695
v -0.312209 -0.276897 0.376629
v -0.344278 0.351169 0.352713
v -0.344278 0.037208 0.352713
v -0.330247 0.351198 -0.362730
v -0.312208 0.351072 -0.376629
v -0.344278 0.351198 -0.351919
v -0.344278 0.351195 -0.175745
v -0.344278 0.351186 0.000408
v -0.344278 0.351198 -0.351919
v -0.330247 0.351198 -0.362730
v -0.344278 0.351198 -0.351919
v -0.265146 0.391911 -0.285437
v -0.265146 0.391911 -0.285437
v -0.261580 0.410724 -0.061367
v -0.156008 0.351072 -0.376629
v 0.000191 0.351072 -0.376629
v 0.000191 0.351072 -0.376629
v -0.156008 0.351072 -0.376629
v -0.312208 0.351072 -0.376629
v 0.225479 0.393218 -0.283400
v 0.000092 0.438744 0.017988
v 0.225479 0.393218 -0.283400
v -0.344278 0.351195 -0.175745
v -0.261580 0.410724 -0.061367
v 0.000092 0.438744 0.017988
v -0.280260 0.426016 0.158821
v -0.261580 0.410724 -0.061367
v -0.344278 0.351177 0.176561
v -0.336261 0.351174 0.358693
v -0.344278 0.351169 0.352713
v -0.324235 0.351171 0.367694
v -0.312209 0.351167 0.376695
v -0.344278 0.351169 0.352713
v -0.280260 0.426016 0.158821
v -0.249637 0.435615 0.266362
v -0.249637 0.435615 0.266362
v -0.249637 0.435615 0.266362
v 0.000190 0.351167 0.376695
v -0.146160 0.438824 0.297451
v -0.146160 0.438824 0.297451
v -0.280260 0.426016 0.158821
v 0.000092 0.438744 0.017988
v 0.000092 0.438744 0.017988
v -0.146160 0.438824 0.297451
v 0.000092 0.438744 0.017988
v 0.221966 -0.345174 0.289427
v 0.239297 -0.419891 -0.239554
v 0.344278 -0.276742 -0.175832
v 0.267759 -0.400703 -0.091362
v 0.007428 -0.408394 0.062424
v 0.007428 -0.408394 0.062424
v 0.156390 -0.277335 -0.376695
v 0.312589 0.036914 -0.376662
v 0.312589 -0.277272 -0.376695
v 0.344278 -0.277308 -0.351985
v 0.344278 -0.276742 -0.175832
v 0.344278 -0.373411 -0.175832
v 0.267759 -0.400703 -0.091362
v 0.344278 -0.373415 0.000321
v 0.267759 -0.400703 -0.091362
v 0.344278 -0.373411 -0.175832
v 0.344278 -0.119763 0.022355
v 0.344278 -0.373415 0.000321
v 0.344278 -0.276742 -0.175832
v 0.337346 0.037199 -0.357357
v 0.344278 -0.119763 0.022355
v 0.262666 -0.381752 0.082646
v 0.262666 -0.381752 0.082646
v 0.221966 -0.345174 0.289427
v 0.007428 -0.408394 0.062424
v 0.007428 -0.408394 0.062424
v 0.344277 -0.373419 0.176473
v 0.007428 -0.408394 0.062424
v 0.312589 -0.373434 0.376629
v 0.330414 -0.373447 0.363127
v 0.156390 -0.373434 0.376629
v 0.312589 -0.277035 0.376629
v 0.312589 -0.373434 0.376629
v 0.344277 -0.373451 0.352625
v 0.262666 -0.381752 0.082646
v 0.344277 -0.373419 0.176473
v 0.344277 -0.373451 0.352625
v 0.330414 -0.373447 0.363127
v 0.344277 -0.015120 0.352625
v 0.344277 -0.373451 0.352625
v 0.344277 -0.015120 0.352625
v 0.344277 -0.373451 0.352625
v 0.344277 -0.015120 0.352625
v 0.344277 0.351168 0.352625
v 0.344277 -0.015120 0.352625
v 0.344277 0.351177 0.176495
v 0.156390 0.351072 -0.376629
v 0.312589 0.351072 -0.376629
v 0.156390 0.351072 -0.376629
v 0.312589 0.351072 -0.376629
v 0.344278 0.351199 -0.351919
v 0.260964 0.412539 -0.087878
v 0.330414 0.351199 -0.362730
v 0.260964 0.412539 -0.087878
v 0.000092 0.438744 0.017988
v 0.279648 0.431893 0.232296
v 0.000092 0.438744 0.017988
v 0.344278 0.351199 -0.351919
v 0.344278 0.351195 -0.175767
v 0.344278 0.351186 0.000364
v 0.330414 0.351199 -0.362730
v 0.156390 0.351167 0.376695
v 0.218186 0.437959 0.288641
v 0.312589 0.351167 0.376695
v 0.000092 0.438744 0.017988
v 0.279648 0.431893 0.232296
v 0.000092 0.438744 0.017988
v 0.324472 0.351171 0.367661
v 0.336355 0.351174 0.358626
v 0.344277 0.351168 0.352625
v 0.279648 0.431893 0.232296
vt 0.809430 0.109860
vt 0.809409 0.107181
vt 0.809618 0.107181
vt 0.810601 0.107181
vt 0.810601 0.107181
vt 0.811584 0.107181
vt 0.811092 0.107181
vt 0.812566 0.107181
vt 0.812566 0.107181
vt 0.809618 0.109846
vt 0.811583 0.109846
vt 0.811584 0.107181
vt 0.809514 0.107181
vt 0.809618 0.107181
vt 0.807645 0.107181
vt 0.808527 0.107181
vt 0.808527 0.107181
vt 0.809618 0.107181
vt 0.811584 0.107181
vt 0.809409 0.107181
vt 0.807790 0.109841
vt 0.813550 0.107181
vt 0.813058 0.107181
vt 0.813550 0.107181
vt 0.805540 0.100678
vt 0.805590 0.101065
vt 0.805540 0.100678
vt 0.805465 0.100678
vt 0.805502 0.100678
vt 0.805590 0.101065
vt 0.805540 0.100678
vt 0.805465 0.100678
vt 0.805390 0.101065
vt 0.805390 0.100678
vt 0.813550 0.107181
vt 0.813550 0.109846
vt 0.813755 0.107181
vt 0.805390 0.100678
vt 0.804888 0.100678
vt 0.805465 0.100678
vt 0.804510 0.100678
vt 0.803630 0.100678
vt 0.804510 0.100678
vt 0.803630 0.100678
vt 0.802751 0.100678
vt 0.817289 0.107177
vt 0.814332 0.112478
vt 0.813755 0.107181
vt 0.813244 0.112478
vt 0.813550 0.109846
vt 0.809224 0.112506
vt 0.809106 0.112515
vt 0.809315 0.112478
vt 0.810297 0.112478
vt 0.811279 0.112478
vt 0.809315 0.112494
vt 0.809224 0.112506
vt 0.809315 0.112494
vt 0.809160 0.112511
vt 0.809160 0.112511
vt 0.810297 0.112478
vt 0.808225 0.112503
vt 0.807344 0.112490
vt 0.807344 0.112490
vt 0.808225 0.112503
vt 0.809106 0.112515
vt 0.805579 0.112478
vt 0.807344 0.112490
vt 0.805579 0.112478
vt 0.810297 0.112478
vt 0.809806 0.112478
vt 0.809315 0.112478
vt 0.811770 0.112478
vt 0.811279 0.112478
vt 0.812261 0.112478
vt 0.813296 0.112478
vt 0.813244 0.112478
vt 0.813372 0.112478
vt 0.813449 0.112478
vt 0.813243 0.112478
vt 0.812261 0.112478
vt 0.813270 0.112478
vt 0.813296 0.112478
vt 0.813372 0.112478
vt 0.815215 0.112478
vt 0.814332 0.112478
vt 0.813449 0.112478
vt 0.813244 0.112478
vt 0.811279 0.112478
vt 0.813244 0.112478
vt 0.813411 0.112478
vt 0.813372 0.112478
vt 0.801773 0.100678
vt 0.806321 0.107181
vt 0.804646 0.107181
vt 0.805143 0.107181
vt 0.808527 0.107181
vt 0.805640 0.107181
vt 0.806763 0.107181
vt 0.805881 0.109846
vt 0.805881 0.107181
vt 0.805640 0.107181
vt 0.810556 0.103033
vt 0.810556 0.102663
vt 0.810556 0.103033
vt 0.811543 0.102663
vt 0.810556 0.102663
vt 0.810556 0.102663
vt 0.812036 0.103033
vt 0.811543 0.102663
vt 0.810556 0.103033
vt 0.805656 0.109842
vt 0.803491 0.108510
vt 0.811049 0.102663
vt 0.812529 0.102663
vt 0.813022 0.102663
vt 0.812529 0.102663
vt 0.810556 0.102663
vt 0.812529 0.102663
vt 0.802751 0.100678
vt 0.801871 0.100678
vt 0.801745 0.100678
vt 0.802751 0.100678
vt 0.801871 0.101065
vt 0.801871 0.100678
vt 0.801647 0.100678
vt 0.811543 0.102663
vt 0.812529 0.102663
vt 0.813515 0.102663
vt 0.801745 0.100678
vt 0.801647 0.101065
vt 0.801647 0.100678
vt 0.813515 0.103033
vt 0.813515 0.102663
vt 0.817480 0.109402
vt 0.817171 0.112478
vt 0.801664 0.109402
vt 0.802361 0.112478
vt 0.806463 0.112478
vt 0.805581 0.112478
vt 0.806463 0.112478
vt 0.805581 0.112478
vt 0.805342 0.112478
vt 0.803655 0.112478
vt 0.805446 0.112478
vt 0.803655 0.112478
vt 0.805342 0.112478
vt 0.801367 0.112478
vt 0.801367 0.112478
vt 0.805342 0.112478
vt 0.804349 0.112478
vt 0.803355 0.112478
vt 0.805446 0.112478
vt 0.816098 0.112478
vt 0.816548 0.112478
vt 0.816981 0.112478
vt 0.814332 0.112478
vt 0.817088 0.112478
vt 0.817053 0.112478
vt 0.817053 0.112478
vt 0.817124 0.112478
vt 0.801367 0.112478
vt 0.817124 0.112478
vn -0.295291 0.099075 -0.950257
vn -0.108515 0.001523 -0.994094
vn -0.991290 0.000548 -0.131694
vn -1.000000 -0.000216 0.000006
vn -0.997817 0.000212 -0.066039
vn -0.999997 -0.002577 0.000143
vn -0.997817 0.000212 -0.066039
vn -0.999992 -0.003933 -0.000099
vn -1.000000 0.000017 0.000075
vn -0.802922 0.285354 -0.523344
vn -1.000000 -0.000000 0.000000
vn -1.000000 0.000017 0.000075
vn -0.063624 -0.000102 -0.997974
vn -0.997817 0.000212 -0.066039
vn 0.001097 -0.006529 -0.999978
vn -0.063624 -0.000102 -0.997974
vn -0.000037 -0.005341 -0.999986
vn -0.029908 -0.993379 0.110918
vn -0.029908 -0.993379 0.110918
vn -0.063624 -0.000102 -0.997974
vn -0.007767 0.001279 -0.999969
vn -0.735613 -0.108899 0.668591
vn -1.000000 0.000017 0.000075
vn -0.029908 -0.993379 0.110918
vn -0.598520 -0.000035 0.801108
vn -0.834708 -0.214798 0.507074
vn -0.735613 -0.108899 0.668591
vn -0.600800 0.001232 0.799398
vn -0.735613 -0.108899 0.668591
vn -0.834708 -0.214798 0.507074
vn -0.598520 -0.000035 0.801108
vn -0.600800 0.001232 0.799398
vn -0.419175 -0.028854 0.907447
vn -0.258953 0.132760 0.956723
vn -0.834708 -0.214798 0.507074
vn -0.788023 -0.421210 0.449000
vn -0.419175 -0.028854 0.907447
vn -0.258953 0.132760 0.956723
vn -0.417936 0.045121 0.907355
vn -0.029908 -0.993379 0.110918
vn -0.000160 -0.038255 0.999268
vn -0.129500 -0.124654 0.983713
vn -0.000160 -0.038255 0.999268
vn -0.129500 -0.124654 0.983713
vn -0.166063 -0.090726 0.981933
vn 0.270060 -0.011101 0.962780
vn 0.000017 0.000348 1.000000
vn -0.419175 -0.028854 0.907447
vn -0.581593 0.006427 0.813454
vn -0.788023 -0.421210 0.449000
vn -0.588680 -0.016488 -0.808198
vn -0.081129 -0.009179 -0.996661
vn -0.673185 -0.007233 -0.739439
vn -0.999820 0.018476 -0.004378
vn -0.999983 0.005873 -0.000447
vn -0.673185 -0.007233 -0.739439
vn -0.588680 -0.016488 -0.808198
vn -0.673185 -0.007233 -0.739439
vn -0.939173 -0.029795 -0.342150
vn -0.939173 -0.029795 -0.342150
vn -0.999999 0.000518 -0.001351
vn -0.003288 0.021893 -0.999755
vn -0.003831 0.037475 -0.999290
vn -0.003831 0.037475 -0.999290
vn -0.003288 0.021893 -0.999755
vn -0.081129 -0.009179 -0.996661
vn 0.694898 0.014712 -0.718957
vn 0.101675 0.984518 -0.142781
vn 0.694898 0.014712 -0.718957
vn -0.999820 0.018476 -0.004378
vn -0.999999 0.000518 -0.001351
vn 0.101675 0.984518 -0.142781
vn -0.890857 0.000167 0.454283
vn -0.999999 0.000518 -0.001351
vn -1.000000 0.000341 -0.000050
vn -0.598441 0.012932 0.801063
vn -0.581593 0.006427 0.813454
vn -0.618445 0.021497 0.785534
vn -0.085501 0.105373 0.990750
vn -0.581593 0.006427 0.813454
vn -0.890857 0.000167 0.454283
vn -0.598909 -0.000080 0.800817
vn -0.598909 -0.000080 0.800817
vn -0.598909 -0.000080 0.800817
vn -0.004717 -0.003082 0.999984
vn -0.081735 0.054908 0.995140
vn -0.081735 0.054908 0.995140
vn -0.890857 0.000167 0.454283
vn 0.101675 0.984518 -0.142781
vn 0.101675 0.984518 -0.142781
vn -0.081735 0.054908 0.995140
vn 0.101675 0.984518 -0.142781
vn 0.695271 -0.076449 0.714670
vn 0.817866 0.097727 -0.567050
vn 0.999959 0.008824 -0.002192
vn 1.000000 -0.000389 -0.000019
vn -0.029908 -0.993379 0.110918
vn -0.029908 -0.993379 0.110918
vn -0.001750 -0.009141 -0.999957
vn 0.105513 0.142409 -0.984168
vn 0.195770 -0.000767 -0.980650
vn 0.982055 0.006279 -0.188489
vn 0.999959 0.008824 -0.002192
vn 0.999798 -0.010171 -0.017348
vn 1.000000 -0.000389 -0.000019
vn 0.809008 -0.267607 -0.523348
vn 1.000000 -0.000389 -0.000019
vn 0.999798 -0.010171 -0.017348
vn 0.999991 0.000815 -0.004220
vn 0.809008 -0.267607 -0.523348
vn 0.999959 0.008824 -0.002192
vn 0.949943 0.038333 -0.310062
vn 0.999991 0.000815 -0.004220
vn 0.979304 0.019623 0.201440
vn 0.979304 0.019623 0.201440
vn 0.695271 -0.076449 0.714670
vn -0.029908 -0.993379 0.110918
vn -0.029908 -0.993379 0.110918
vn 0.912523 -0.081202 -0.400885
vn -0.029908 -0.993379 0.110918
vn 0.800294 -0.227206 0.554893
vn 0.651518 -0.018379 0.758410
vn -0.166063 -0.090726 0.981933
vn 0.270060 -0.011101 0.962780
vn 0.800294 -0.227206 0.554893
vn 0.840284 -0.176719 0.512535
vn 0.979304 0.019623 0.201440
vn 0.912523 -0.081202 -0.400885
vn 0.840284 -0.176719 0.512535
vn 0.651518 -0.018379 0.758410
vn 0.833141 0.285360 0.473756
vn 0.840284 -0.176719 0.512535
vn 0.833141 0.285360 0.473756
vn 0.840284 -0.176719 0.512535
vn 0.833141 0.285360 0.473756
vn 0.846439 -0.165871 0.505991
vn 0.833141 0.285360 0.473756
vn 0.993127 0.004701 -0.116944
vn 0.000974 0.025293 -0.999680
vn 0.082135 0.002174 -0.996619
vn 0.000974 0.025293 -0.999680
vn 0.082135 0.002174 -0.996619
vn 0.847083 -0.143276 -0.511783
vn 0.972790 -0.017112 -0.231055
vn 0.583436 0.021788 -0.811867
vn 0.972790 -0.017112 -0.231055
vn 0.101675 0.984518 -0.142781
vn 0.746889 -0.077401 0.660429
vn 0.101675 0.984518 -0.142781
vn 0.847083 -0.143276 -0.511783
vn 0.981044 0.052647 0.186499
vn 0.999367 0.027711 0.022322
vn 0.583436 0.021788 -0.811867
vn 0.006422 0.011650 0.999912
vn 0.937387 0.101113 0.333290
vn 0.386302 -0.101453 0.916776
vn 0.101675 0.984518 -0.142781
vn 0.746889 -0.077401 0.660429
vn 0.101675 0.984518 -0.142781
vn 0.561067 0.032278 0.827141
vn 0.655916 0.018981 0.754596
vn 0.846439 -0.165871 0.505991
vn 0.746889 -0.077401 0.660429
f 48/48/48 49/49/49 50/50/50
f 57/57/57 58/58/58 59/59/59
f 59/59/59 71/71/71 72/72/72
f 70/70/70 71/71/71 59/59/59
f 64/64/64 65/65/65 59/59/59
f 65/65/65 66/66/66 59/59/59
f 67/67/67 59/59/59 68/68/68
f 141/141/141 67/67/67 142/142/142
f 145/145/145 142/142/142 67/67/67
f 143/143/143 145/145/145 67/67/67
f 143/143/143 67/67/67 144/144/144
f 103/103/103 104/104/104 105/105/105
f 106/106/106 107/107/107 104/104/104
f 106/106/106 114/114/114 107/107/107
f 107/107/107 114/114/114 118/118/118
f 106/106/106 119/119/119 127/127/127
f 119/119/119 129/129/129 116/116/116
f 119/119/119 116/116/116 115/115/115
f 115/115/115 116/116/116 117/117/117
f 137/137/137 113/113/113 138/138/138
f 137/137/137 138/138/138 162/162/162
f 138/138/138 148/148/148 162/162/162
f 138/138/138 113/113/113 152/152/152
f 138/138/138 146/146/146 148/148/148
f 138/138/138 152/152/152 146/146/146
f 148/148/148 146/146/146 149/149/149
f 113/113/113 151/151/151 152/152/152
f 152/152/152 151/151/151 146/146/146
f 150/150/150 151/151/151 113/113/113
f 151/151/151 150/150/150 146/146/146
f 146/146/146 69/69/69 147/147/147
f 25/25/25 26/26/26 27/27/27
f 28/28/28 25/25/25 29/29/29
f 28/28/28 29/29/29 39/39/39
f 39/39/39 29/29/29 40/40/40
f 38/38/38 28/28/28 39/39/39
f 41/41/41 38/38/38 39/39/39
f 42/42/42 41/41/41 39/39/39
f 42/42/42 39/39/39 93/93/93
f 93/93/93 39/39/39 120/120/120
f 42/42/42 93/93/93 123/123/123
f 121/121/121 123/123/123 93/93/93
f 121/121/121 93/93/93 122/122/122
f 126/126/126 122/122/122 93/93/93
f 108/108/108 109/109/109 110/110/110
f 111/111/111 109/109/109 108/108/108
f 110/110/110 109/109/109 128/128/128
f 109/109/109 133/133/133 128/128/128
f 128/128/128 133/133/133 134/134/134
f 30/30/30 31/31/31 32/32/32
f 30/30/30 32/32/32 33/33/33
f 33/33/33 32/32/32 34/34/34
f 34/34/34 43/43/43 33/33/33
f 43/43/43 44/44/44 33/33/33
f 44/44/44 45/45/45 33/33/33
f 45/45/45 124/124/124 33/33/33
f 45/45/45 125/125/125 124/124/124
f 125/125/125 130/130/130 124/124/124
f 130/130/130 131/131/131 124/124/124
f 131/131/131 130/130/130 132/132/132
f 1/1/1 2/2/2 3/3/3
f 2/2/2 17/17/17 20/20/20
f 3/3/3 2/2/2 13/13/13
f 3/3/3 13/13/13 14/14/14
f 14/14/14 13/13/13 18/18/18
f 21/21/21 17/17/17 2/2/2
f 1/1/1 21/21/21 2/2/2
f 21/21/21 15/15/15 17/17/17
f 15/15/15 16/16/16 17/17/17
f 15/15/15 94/94/94 16/16/16
f 16/16/16 94/94/94 97/97/97
f 21/21/21 99/99/99 15/15/15
f 15/15/15 99/99/99 94/94/94
f 94/94/94 96/96/96 98/98/98
f 95/95/95 96/96/96 94/94/94
f 95/95/95 94/94/94 102/102/102
f 99/99/99 101/101/101 94/94/94
f 101/101/101 102/102/102 94/94/94
f 112/112/112 95/95/95 102/102/102
f 112/112/112 102/102/102 101/101/101
f 100/100/100 101/101/101 99/99/99
f 100/100/100 112/112/112 101/101/101
f 21/21/21 100/100/100 99/99/99
f 140/140/140 112/112/112 100/100/100
f 140/140/140 100/100/100 21/21/21
f 140/140/140 153/153/153 112/112/112
f 112/112/112 153/153/153 150/150/150
f 139/139/139 140/140/140 21/21/21
f 112/112/112 113/113/113 95/95/95
f 150/150/150 113/113/113 112/112/112
f 63/63/63 139/139/139 21/21/21
f 139/139/139 63/63/63 69/69/69
f 21/21/21 62/62/62 63/63/63
f 63/63/63 60/60/60 69/69/69
f 1/1/1 62/62/62 21/21/21
f 52/52/52 62/62/62 1/1/1
f 52/52/52 51/51/51 60/60/60
f 51/51/51 52/52/52 1/1/1
f 1/1/1 10/10/10 51/51/51
f 10/10/10 56/56/56 51/51/51
f 3/3/3 10/10/10 1/1/1
f 3/3/3 4/4/4 10/10/10
f 4/4/4 3/3/3 5/5/5
f 10/10/10 4/4/4 11/11/11
f 10/10/10 11/11/11 53/53/53
f 54/54/54 60/60/60 53/53/53
f 53/53/53 11/11/11 54/54/54
f 54/54/54 55/55/55 61/61/61
f 54/54/54 11/11/11 55/55/55
f 4/4/4 6/6/6 11/11/11
f 6/6/6 4/4/4 7/7/7
f 6/6/6 7/7/7 12/12/12
f 12/12/12 7/7/7 19/19/19
f 8/8/8 6/6/6 9/9/9
f 6/6/6 8/8/8 11/11/11
f 8/8/8 35/35/35 11/11/11
f 8/8/8 22/22/22 35/35/35
f 8/8/8 23/23/23 22/22/22
f 22/22/22 23/23/23 24/24/24
f 11/11/11 35/35/35 36/36/36
f 35/35/35 37/37/37 36/36/36
f 75/75/75 11/11/11 36/36/36
f 75/75/75 36/36/36 80/80/80
f 75/75/75 80/80/80 81/81/81
f 75/75/75 55/55/55 11/11/11
f 55/55/55 75/75/75 73/73/73
f 55/55/55 73/73/73 74/74/74
f 74/74/74 73/73/73 89/89/89
f 37/37/37 76/76/76 77/77/77
f 77/77/77 76/76/76 82/82/82
f 77/77/77 82/82/82 88/88/88
f 88/88/88 82/82/82 90/90/90
f 76/76/76 37/37/37 78/78/78
f 76/76/76 78/78/78 83/83/83
f 78/78/78 37/37/37 79/79/79
f 79/79/79 84/84/84 78/78/78
f 79/79/79 91/91/91 84/84/84
f 84/84/84 91/91/91 92/92/92
f 37/37/37 47/47/47 79/79/79
f 79/79/79 47/47/47 87/87/87
f 37/37/37 46/46/46 47/47/47
f 47/47/47 46/46/46 85/85/85
f 85/85/85 86/86/86 47/47/47
f 85/85/85 155/155/155 86/86/86
f 86/86/86 155/155/155 157/157/157
f 85/85/85 154/154/154 155/155/155
f 46/46/46 154/154/154 85/85/85
f 154/154/154 156/156/156 155/155/155
f 156/156/156 154/154/154 46/46/46
f 156/156/156 160/160/160 155/155/155
f 46/46/46 160/160/160 156/156/156
f 160/160/160 158/158/158 155/155/155
f 155/155/155 158/158/158 159/159/159
f 160/160/160 161/161/161 158/158/158
f 46/46/46 161/161/161 160/160/160
f 46/46/46 136/136/136 161/161/161
f 161/161/161 136/136/136 163/163/163
f 135/135/135 136/136/136 46/46/46
