# Generated from Roblox mesh JSON (v7.00)
# Hello from RBX_Toolbox ;)
o LeftHand
v -0.154613 -0.334992 -0.304184
v -0.178949 -0.361803 -0.036001
v -0.290921 -0.169371 -0.317838
v -0.154613 -0.334992 -0.304184
v -0.130806 -0.058693 -0.405011
v -0.009705 -0.276763 -0.371514
v -0.045963 -0.374437 -0.177311
v 0.048487 -0.413016 -0.307254
v -0.325005 -0.198801 -0.003955
v 0.060614 -0.423609 -0.078219
v -0.290921 -0.169371 -0.317838
v -0.306203 0.060148 -0.306446
v -0.151764 0.109879 -0.408520
v -0.327570 0.053229 -0.171167
v -0.306203 0.060148 -0.306446
v -0.358751 0.054403 0.014637
v 0.048487 -0.413016 -0.307254
v 0.068979 -0.284675 -0.331594
v 0.078113 -0.207234 -0.311992
v 0.108839 -0.394179 -0.320234
v 0.078113 -0.207234 -0.311992
v -0.000728 -0.024480 -0.332930
v 0.059886 -0.235547 -0.061832
v -0.000728 -0.024480 -0.332930
v 0.093486 0.102201 -0.392579
v 0.094599 0.053228 -0.287739
v 0.072025 0.008926 -0.097184
v -0.014828 -0.053084 -0.071216
v 0.129000 0.012389 0.107401
v -0.200050 -0.386102 0.265956
v -0.332799 -0.212198 0.296100
v -0.039306 -0.304637 0.309213
v -0.200050 -0.386102 0.265956
v 0.030909 -0.444801 0.240117
v -0.202705 -0.143082 0.344846
v -0.332799 -0.212198 0.296100
v -0.104226 -0.078951 0.382571
v -0.366007 0.058713 0.310019
v -0.366007 0.058713 0.310019
v -0.160433 0.129858 0.408520
v 0.096127 0.044002 0.403764
v 0.030909 -0.444801 0.240117
v 0.087543 -0.423324 0.226960
v 0.118752 -0.359890 0.205415
v 0.061413 -0.242497 0.237135
v 0.002617 -0.063466 0.275841
v 0.061413 -0.242497 0.237135
v 0.086092 -0.028594 0.264252
v 0.002617 -0.063466 0.275841
v 0.086092 -0.028594 0.264252
v 0.094599 0.053228 -0.287739
v -0.233947 0.247089 -0.234192
v -0.181659 0.255659 -0.293104
v -0.131053 0.264208 -0.351116
v 0.072287 0.224893 -0.400293
v -0.233947 0.247089 -0.234192
v -0.259445 0.236261 -0.108992
v -0.138678 0.412748 -0.167908
v -0.083769 0.407319 -0.291361
v -0.138678 0.412748 -0.167908
v -0.189156 0.400974 0.021325
v 0.005860 0.405479 -0.303830
v 0.033638 0.322059 -0.348977
v 0.073590 0.325812 -0.330184
v 0.044785 0.403229 -0.270308
v 0.005860 0.405479 -0.303830
v -0.083769 0.407319 -0.291361
v 0.054711 0.444801 0.029021
v 0.044785 0.403229 -0.270308
v -0.138678 0.412748 -0.167908
v 0.068927 0.421422 -0.105032
v -0.189156 0.400974 0.021325
v -0.286157 0.227593 0.013395
v -0.279486 0.233125 0.135109
v -0.267367 0.238222 0.261101
v -0.195684 0.245437 0.313357
v -0.267367 0.238222 0.261101
v -0.151723 0.396794 0.210293
v -0.151723 0.396794 0.210293
v -0.061857 0.370965 0.315784
v -0.045094 0.250209 0.371470
v 0.005841 0.354936 0.347263
v 0.063774 0.153544 0.405368
v 0.110819 0.334707 0.317866
v -0.151723 0.396794 0.210293
v -0.061857 0.370965 0.315784
v 0.005841 0.354936 0.347263
v 0.110819 0.334707 0.317866
v 0.109519 -0.412981 -0.080842
v 0.048487 -0.413016 -0.307254
v 0.108839 -0.394179 -0.320234
v 0.149603 -0.332941 -0.277413
v 0.149603 -0.332941 -0.277413
v 0.135374 -0.356734 -0.079418
v 0.060614 -0.423609 -0.078219
v 0.149603 -0.332941 -0.277413
v 0.093486 0.102201 -0.392579
v 0.152730 0.070273 -0.325192
v 0.234210 0.068913 -0.382886
v 0.205636 0.043721 -0.248589
v 0.193933 0.079696 -0.121561
v 0.183607 0.088005 -0.168854
v 0.322861 0.084017 -0.351707
v 0.287784 0.051235 -0.205360
v 0.322974 0.088534 -0.165278
v 0.303794 0.116837 -0.125781
v 0.366007 0.130207 -0.284017
v 0.366007 0.130207 -0.284017
v 0.235529 0.100218 -0.146828
v 0.135374 -0.356734 -0.079418
v 0.118752 -0.359890 0.205415
v 0.118752 -0.359890 0.205415
v 0.030909 -0.444801 0.240117
v 0.087543 -0.423324 0.226960
v 0.183543 0.063508 -0.068881
v 0.161734 0.002290 0.235583
v 0.161734 0.002290 0.235583
v 0.228119 0.086977 0.342846
v 0.230537 0.098529 -0.099628
v 0.269619 0.134227 -0.023188
v 0.246498 0.106661 0.103704
v 0.228119 0.086977 0.342846
v 0.286008 0.125738 -0.077012
v 0.187346 0.183581 0.351245
v 0.299590 0.183100 0.234661
v 0.108858 0.252155 -0.384055
v 0.234210 0.068913 -0.382886
v 0.145757 0.277223 -0.367126
v 0.322861 0.084017 -0.351707
v 0.111933 0.337213 -0.305377
v 0.165066 0.390624 -0.177752
v 0.253929 0.377431 -0.113416
v 0.165066 0.390624 -0.177752
v 0.157759 0.396633 -0.074678
v 0.253929 0.377431 -0.113416
v 0.325407 0.302039 -0.139132
v 0.366007 0.130207 -0.284017
v 0.312729 0.207792 -0.127346
v 0.307953 0.204222 -0.073301
v 0.325407 0.302039 -0.139132
v 0.337833 0.278141 -0.020973
v 0.253929 0.377431 -0.113416
v 0.262032 0.352773 0.013059
v 0.187346 0.183581 0.351245
v 0.257281 0.250336 0.262918
v 0.193707 0.326942 0.253802
v 0.262032 0.352773 0.013059
v 0.110819 0.334707 0.317866
v 0.193707 0.326942 0.253802
v 0.155068 0.399184 0.024262
v 0.339996 0.271849 -0.000275
v 0.285594 0.271614 0.129585
vt 0.497211 0.087066
vt 0.498188 0.099138
vt 0.477099 0.086080
vt 0.439614 0.125765
vt 0.466140 0.126697
vt 0.445169 0.132186
vt 0.507684 0.092705
vt 0.516785 0.087109
vt 0.479495 0.100229
vt 0.518603 0.097799
vt 0.455722 0.119587
vt 0.477236 0.116453
vt 0.481515 0.124624
vt 0.455517 0.093266
vt 0.454758 0.086305
vt 0.455284 0.100803
vt 0.432652 0.134992
vt 0.443323 0.136340
vt 0.449984 0.136971
vt 0.435603 0.137958
vt 0.436073 0.049861
vt 0.453822 0.047857
vt 0.437209 0.061159
vt 0.467092 0.134137
vt 0.481227 0.138425
vt 0.466914 0.048888
vt 0.466794 0.057711
vt 0.456150 0.060216
vt 0.475027 0.066442
vt 0.498883 0.113024
vt 0.479945 0.113896
vt 0.447344 0.023909
vt 0.441342 0.030159
vt 0.437579 0.020110
vt 0.463336 0.033108
vt 0.455784 0.036761
vt 0.470443 0.029507
vt 0.453714 0.114108
vt 0.480968 0.041488
vt 0.490784 0.032825
vt 0.494841 0.021370
vt 0.518762 0.112152
vt 0.439333 0.017813
vt 0.443838 0.016252
vt 0.453189 0.018896
vt 0.459219 0.075272
vt 0.440081 0.074691
vt 0.471675 0.074360
vt 0.471497 0.021740
vt 0.481770 0.017723
vt 0.472838 0.139985
vt 0.497659 0.116313
vt 0.498226 0.120202
vt 0.498794 0.124090
vt 0.493361 0.136604
vt 0.434731 0.088511
vt 0.435289 0.094580
vt 0.518083 0.116427
vt 0.516464 0.123567
vt 0.414704 0.090717
vt 0.416090 0.101018
vt 0.517408 0.128804
vt 0.506631 0.132300
vt 0.509006 0.134993
vt 0.519131 0.131865
vt 0.429174 0.026087
vt 0.435299 0.026470
vt 0.424864 0.037399
vt 0.426017 0.027080
vt 0.438992 0.030593
vt 0.423934 0.032793
vt 0.442384 0.037083
vt 0.435848 0.100648
vt 0.434772 0.106677
vt 0.433697 0.112706
vt 0.503659 0.037483
vt 0.501366 0.041479
vt 0.414126 0.111304
vt 0.521233 0.041476
vt 0.521329 0.033720
vt 0.509581 0.030151
vt 0.522354 0.029700
vt 0.504057 0.023928
vt 0.523829 0.023294
vt 0.439336 0.043521
vt 0.433129 0.047046
vt 0.428784 0.048151
vt 0.421465 0.047126
vt 0.414830 0.065085
vt 0.410743 0.075875
vt 0.417350 0.075848
vt 0.439210 0.140000
vt 0.421906 0.074166
vt 0.419351 0.064860
vt 0.410792 0.064876
vt 0.424299 0.051920
vt 0.466632 0.044177
vt 0.473242 0.046303
vt 0.480372 0.043322
vt 0.479404 0.048907
vt 0.482045 0.056133
vt 0.480690 0.053418
vt 0.490049 0.043870
vt 0.488129 0.049852
vt 0.494021 0.051472
vt 0.495295 0.054293
vt 0.501391 0.047450
vt 0.498296 0.046398
vt 0.487928 0.053856
vt 0.425227 0.061325
vt 0.429649 0.074160
vt 0.420662 0.051313
vt 0.410684 0.050216
vt 0.415335 0.050643
vt 0.481140 0.058508
vt 0.480260 0.073033
vt 0.488411 0.014442
vt 0.504661 0.016023
vt 0.488124 0.056613
vt 0.495620 0.060257
vt 0.492680 0.066836
vt 0.493858 0.077765
vt 0.495370 0.057265
vt 0.512116 0.018669
vt 0.502680 0.072987
vt 0.498809 0.137999
vt 0.484920 0.145253
vt 0.503678 0.139343
vt 0.491309 0.149051
vt 0.512282 0.137093
vt 0.525305 0.140676
vt 0.529520 0.146574
vt 0.416698 0.030365
vt 0.417154 0.033809
vt 0.410392 0.032541
vt 0.523375 0.149152
vt 0.499472 0.151170
vt 0.505144 0.055847
vt 0.504330 0.058727
vt 0.514993 0.057402
vt 0.513773 0.061047
vt 0.522792 0.058466
vt 0.410360 0.036764
vt 0.501825 0.080146
vt 0.508482 0.075433
vt 0.514551 0.077864
vt 0.518706 0.064717
vt 0.514726 0.083641
vt 0.415768 0.044935
vt 0.417611 0.037253
vt 0.511517 0.062966
vt 0.510235 0.069201
vn -0.440218 -0.710486 -0.549276
vn -0.534499 -0.832954 -0.143968
vn -0.743470 -0.311982 -0.591070
vn -0.440218 -0.710486 -0.549276
vn -0.001863 -0.168132 -0.985687
vn 0.072978 -0.300318 -0.950696
vn -0.319695 -0.931122 -0.174098
vn -0.061153 -0.875720 -0.479294
vn -0.926199 -0.374187 -0.036080
vn -0.029078 -0.998187 -0.052603
vn -0.743470 -0.311982 -0.591070
vn -0.828031 0.209962 -0.520117
vn -0.343022 0.145812 -0.928341
vn -0.970910 0.133177 -0.199369
vn -0.828031 0.209962 -0.520117
vn -0.983545 0.177887 -0.033164
vn -0.061153 -0.875720 -0.479294
vn 0.552155 0.024317 -0.833089
vn 0.845688 0.235233 -0.479294
vn 0.583258 -0.539421 -0.606622
vn 0.845688 0.235233 -0.479294
vn 0.760155 -0.379047 -0.527893
vn 0.963295 0.266336 0.033902
vn 0.760155 -0.379047 -0.527893
vn 0.172118 -0.419870 -0.891406
vn 0.361650 -0.899047 -0.247967
vn 0.573538 -0.809626 -0.125500
vn 0.922473 -0.385851 -0.027332
vn 0.483146 -0.870860 -0.087594
vn -0.431471 -0.759084 0.487808
vn -0.754162 -0.368356 0.544182
vn 0.288753 -0.312954 0.904780
vn -0.431471 -0.759084 0.487808
vn 0.165314 -0.856281 0.489752
vn -0.282760 -0.244917 0.927135
vn -0.754162 -0.368356 0.544182
vn 0.183781 -0.266300 0.946574
vn -0.839695 0.127345 0.526686
vn -0.839695 0.127345 0.526686
vn -0.253602 0.161364 0.953378
vn 0.385949 -0.416954 0.823135
vn 0.165314 -0.856281 0.489752
vn 0.661987 -0.554972 0.504331
vn 0.904977 -0.043720 0.422686
vn 0.843744 0.108878 0.525714
vn 0.786398 -0.436393 0.437266
vn 0.843744 0.108878 0.525714
vn 0.521052 -0.832954 0.188443
vn 0.786398 -0.436393 0.437266
vn 0.521052 -0.832954 0.188443
vn 0.361650 -0.899047 -0.247967
vn -0.796928 0.504466 -0.331556
vn -0.672517 0.498634 -0.547332
vn -0.408144 0.498634 -0.765051
vn 0.082697 0.192466 -0.977911
vn -0.796928 0.504466 -0.331556
vn -0.872741 0.459756 -0.166323
vn -0.531583 0.810634 -0.246024
vn -0.316779 0.798971 -0.511369
vn -0.531583 0.810634 -0.246024
vn -0.628779 0.777588 -0.001089
vn 0.067146 0.796055 -0.600790
vn 0.051594 0.530709 -0.845724
vn 0.231407 0.627905 -0.742696
vn 0.299445 0.867008 -0.398622
vn 0.067146 0.796055 -0.600790
vn -0.316779 0.798971 -0.511369
vn 0.103108 0.991419 0.080556
vn 0.299445 0.867008 -0.398622
vn -0.531583 0.810634 -0.246024
vn 0.276118 0.954485 -0.113837
vn -0.628779 0.777588 -0.001089
vn -0.894125 0.442261 -0.064267
vn -0.862050 0.500578 0.080556
vn -0.741527 0.555980 0.375060
vn -0.533527 0.509326 0.675396
vn -0.741527 0.555980 0.375060
vn -0.463545 0.829102 0.312855
vn -0.463545 0.829102 0.312855
vn -0.233190 0.737737 0.633602
vn -0.093228 0.381999 0.919359
vn 0.079781 0.663868 0.744406
vn 0.181837 0.193438 0.964069
vn 0.374286 0.674560 0.636518
vn -0.463545 0.829102 0.312855
vn -0.233190 0.737737 0.633602
vn 0.079781 0.663868 0.744406
vn 0.374286 0.674560 0.636518
vn 0.634772 -0.772692 0.004743
vn -0.061153 -0.875720 -0.479294
vn 0.583258 -0.539421 -0.606622
vn 0.938024 0.030149 -0.344192
vn 0.938024 0.030149 -0.344192
vn 0.999258 -0.041776 0.017378
vn -0.029078 -0.998187 -0.052603
vn 0.938024 0.030149 -0.344192
vn 0.172118 -0.419870 -0.891406
vn 0.003968 -0.935010 -0.354883
vn 0.202249 -0.606486 -0.768939
vn 0.071034 -0.997215 -0.029276
vn 0.498697 -0.861140 -0.095369
vn 0.328604 -0.937925 0.110687
vn 0.655183 -0.426673 -0.623145
vn 0.352903 -0.915570 0.191359
vn 0.685314 -0.633701 0.358537
vn 0.747519 -0.571496 0.339098
vn 0.974958 -0.061216 -0.213949
vn 0.974958 -0.061216 -0.213949
vn 0.330548 -0.907795 0.256481
vn 0.999258 -0.041776 0.017378
vn 0.904977 -0.043720 0.422686
vn 0.904977 -0.043720 0.422686
vn 0.165314 -0.856281 0.489752
vn 0.661987 -0.554972 0.504331
vn 0.561875 -0.824206 -0.074958
vn 0.571594 -0.811570 0.124294
vn 0.571594 -0.811570 0.124294
vn 0.739744 -0.320730 0.590836
vn 0.488977 -0.868916 0.069864
vn 0.767931 -0.637589 0.063060
vn 0.811669 -0.582187 0.042649
vn 0.739744 -0.320730 0.590836
vn 0.735856 -0.646337 0.202051
vn 0.503557 0.280915 0.816331
vn 0.951631 -0.038861 0.303135
vn 0.257650 0.370335 -0.892378
vn 0.202249 -0.606486 -0.768939
vn 0.472454 0.505438 -0.722285
vn 0.655183 -0.426673 -0.623145
vn 0.377202 0.727046 -0.573575
vn 0.374286 0.889363 -0.264491
vn 0.548267 0.819382 -0.169239
vn 0.374286 0.889363 -0.264491
vn 0.328604 0.943793 -0.038024
vn 0.548267 0.819382 -0.169239
vn 0.885538 0.416990 -0.207145
vn 0.974958 -0.061216 -0.213949
vn 0.977874 -0.148692 0.148593
vn 0.963295 -0.247832 0.103883
vn 0.885538 0.416990 -0.207145
vn 0.954547 0.291607 0.053341
vn 0.548267 0.819382 -0.169239
vn 0.599781 0.783419 0.162200
vn 0.503557 0.280915 0.816331
vn 0.737800 0.429625 0.519883
vn 0.519108 0.744541 0.419770
vn 0.599781 0.783419 0.162200
vn 0.374286 0.674560 0.636518
vn 0.519108 0.744541 0.419770
vn 0.394697 0.912690 0.102911
vn 0.987594 -0.034973 0.154425
vn 0.821388 0.496691 0.278836
f 89/89/89 90/90/90 91/91/91
f 90/90/90 89/89/89 95/95/95
f 113/113/113 95/95/95 89/89/89
f 114/114/114 113/113/113 89/89/89
f 114/114/114 89/89/89 112/112/112
f 94/94/94 112/112/112 89/89/89
f 89/89/89 91/91/91 94/94/94
f 93/93/93 94/94/94 91/91/91
f 32/32/32 33/33/33 34/34/34
f 32/32/32 34/34/34 43/43/43
f 43/43/43 44/44/44 32/32/32
f 32/32/32 44/44/44 45/45/45
f 33/33/33 32/32/32 35/35/35
f 35/35/35 36/36/36 33/33/33
f 35/35/35 39/39/39 36/36/36
f 32/32/32 45/45/45 37/37/37
f 35/35/35 32/32/32 37/37/37
f 49/49/49 37/37/37 45/45/45
f 40/40/40 39/39/39 35/35/35
f 37/37/37 40/40/40 35/35/35
f 49/49/49 41/41/41 37/37/37
f 41/41/41 40/40/40 37/37/37
f 41/41/41 49/49/49 50/50/50
f 117/117/117 41/41/41 50/50/50
f 118/118/118 41/41/41 117/117/117
f 124/124/124 41/41/41 118/118/118
f 41/41/41 124/124/124 83/83/83
f 41/41/41 83/83/83 40/40/40
f 83/83/83 124/124/124 84/84/84
f 82/82/82 83/83/83 84/84/84
f 81/81/81 83/83/83 82/82/82
f 81/81/81 40/40/40 83/83/83
f 82/82/82 80/80/80 81/81/81
f 80/80/80 40/40/40 81/81/81
f 40/40/40 80/80/80 76/76/76
f 40/40/40 76/76/76 39/39/39
f 76/76/76 80/80/80 79/79/79
f 39/39/39 76/76/76 77/77/77
f 79/79/79 77/77/77 76/76/76
f 66/66/66 67/67/67 68/68/68
f 67/67/67 70/70/70 68/68/68
f 70/70/70 72/72/72 68/68/68
f 72/72/72 85/85/85 68/68/68
f 85/85/85 86/86/86 68/68/68
f 86/86/86 87/87/87 68/68/68
f 87/87/87 88/88/88 68/68/68
f 88/88/88 149/149/149 68/68/68
f 69/69/69 66/66/66 68/68/68
f 68/68/68 149/149/149 150/150/150
f 149/149/149 143/143/143 150/150/150
f 71/71/71 69/69/69 68/68/68
f 133/133/133 69/69/69 71/71/71
f 134/134/134 68/68/68 150/150/150
f 150/150/150 143/143/143 134/134/134
f 68/68/68 134/134/134 71/71/71
f 71/71/71 134/134/134 133/133/133
f 134/134/134 143/143/143 135/135/135
f 134/134/134 135/135/135 133/133/133
f 1/1/1 2/2/2 3/3/3
f 2/2/2 1/1/1 7/7/7
f 7/7/7 1/1/1 8/8/8
f 8/8/8 10/10/10 7/7/7
f 7/7/7 10/10/10 2/2/2
f 2/2/2 10/10/10 30/30/30
f 42/42/42 30/30/30 10/10/10
f 30/30/30 9/9/9 2/2/2
f 3/3/3 2/2/2 9/9/9
f 9/9/9 30/30/30 31/31/31
f 31/31/31 38/38/38 9/9/9
f 3/3/3 9/9/9 14/14/14
f 14/14/14 15/15/15 3/3/3
f 56/56/56 15/15/15 14/14/14
f 16/16/16 14/14/14 9/9/9
f 9/9/9 38/38/38 16/16/16
f 14/14/14 57/57/57 56/56/56
f 57/57/57 14/14/14 16/16/16
f 60/60/60 56/56/56 57/57/57
f 57/57/57 61/61/61 60/60/60
f 73/73/73 57/57/57 16/16/16
f 73/73/73 61/61/61 57/57/57
f 38/38/38 74/74/74 16/16/16
f 73/73/73 16/16/16 74/74/74
f 74/74/74 61/61/61 73/73/73
f 74/74/74 38/38/38 75/75/75
f 61/61/61 74/74/74 78/78/78
f 78/78/78 74/74/74 75/75/75
f 4/4/4 5/5/5 6/6/6
f 17/17/17 4/4/4 6/6/6
f 17/17/17 6/6/6 20/20/20
f 11/11/11 5/5/5 4/4/4
f 18/18/18 20/20/20 6/6/6
f 6/6/6 5/5/5 18/18/18
f 92/92/92 20/20/20 18/18/18
f 19/19/19 92/92/92 18/18/18
f 5/5/5 19/19/19 18/18/18
f 19/19/19 5/5/5 24/24/24
f 13/13/13 5/5/5 11/11/11
f 25/25/25 24/24/24 5/5/5
f 25/25/25 51/51/51 24/24/24
f 25/25/25 5/5/5 13/13/13
f 12/12/12 13/13/13 11/11/11
f 13/13/13 55/55/55 25/25/25
f 127/127/127 25/25/25 55/55/55
f 53/53/53 13/13/13 12/12/12
f 12/12/12 52/52/52 53/53/53
f 52/52/52 58/58/58 53/53/53
f 53/53/53 58/58/58 59/59/59
f 54/54/54 13/13/13 53/53/53
f 59/59/59 54/54/54 53/53/53
f 54/54/54 55/55/55 13/13/13
f 59/59/59 62/62/62 54/54/54
f 54/54/54 62/62/62 63/63/63
f 55/55/55 54/54/54 63/63/63
f 63/63/63 62/62/62 65/65/65
f 55/55/55 63/63/63 64/64/64
f 65/65/65 64/64/64 63/63/63
f 127/127/127 55/55/55 126/126/126
f 55/55/55 64/64/64 126/126/126
f 126/126/126 129/129/129 127/127/127
f 130/130/130 64/64/64 65/65/65
f 130/130/130 126/126/126 64/64/64
f 130/130/130 65/65/65 131/131/131
f 130/130/130 131/131/131 132/132/132
f 136/136/136 130/130/130 132/132/132
f 126/126/126 130/130/130 128/128/128
f 136/136/136 128/128/128 130/130/130
f 128/128/128 129/129/129 126/126/126
f 128/128/128 136/136/136 137/137/137
f 128/128/128 137/137/137 129/129/129
f 21/21/21 22/22/22 23/23/23
f 23/23/23 96/96/96 21/21/21
f 96/96/96 23/23/23 110/110/110
f 23/23/23 111/111/111 110/110/110
f 23/23/23 47/47/47 111/111/111
f 46/46/46 47/47/47 23/23/23
f 28/28/28 46/46/46 23/23/23
f 28/28/28 23/23/23 22/22/22
f 28/28/28 48/48/48 46/46/46
f 28/28/28 29/29/29 48/48/48
f 29/29/29 116/116/116 48/48/48
f 27/27/27 28/28/28 22/22/22
f 29/29/29 28/28/28 27/27/27
f 26/26/26 27/27/27 22/22/22
f 29/29/29 115/115/115 116/116/116
f 27/27/27 115/115/115 29/29/29
f 115/115/115 121/121/121 116/116/116
f 116/116/116 121/121/121 122/122/122
f 27/27/27 101/101/101 115/115/115
f 27/27/27 26/26/26 101/101/101
f 115/115/115 120/120/120 121/121/121
f 119/119/119 115/115/115 101/101/101
f 119/119/119 120/120/120 115/115/115
f 102/102/102 101/101/101 26/26/26
f 109/109/109 119/119/119 101/101/101
f 109/109/109 101/101/101 102/102/102
f 106/106/106 119/119/119 109/109/109
f 123/123/123 120/120/120 119/119/119
f 119/119/119 106/106/106 123/123/123
f 102/102/102 105/105/105 109/109/109
f 106/106/106 109/109/109 105/105/105
f 104/104/104 105/105/105 102/102/102
f 106/106/106 105/105/105 107/107/107
f 104/104/104 103/103/103 105/105/105
f 103/103/103 108/108/108 105/105/105
f 102/102/102 100/100/100 104/104/104
f 104/104/104 100/100/100 103/103/103
f 102/102/102 26/26/26 100/100/100
f 99/99/99 103/103/103 100/100/100
f 100/100/100 26/26/26 98/98/98
f 99/99/99 100/100/100 98/98/98
f 26/26/26 97/97/97 98/98/98
f 98/98/98 97/97/97 99/99/99
f 106/106/106 107/107/107 138/138/138
f 138/138/138 123/123/123 106/106/106
f 138/138/138 107/107/107 140/140/140
f 138/138/138 139/139/139 123/123/123
f 140/140/140 139/139/139 138/138/138
f 139/139/139 120/120/120 123/123/123
f 140/140/140 141/141/141 139/139/139
f 141/141/141 140/140/140 142/142/142
f 139/139/139 151/151/151 120/120/120
f 141/141/141 151/151/151 139/139/139
f 151/151/151 121/121/121 120/120/120
f 147/147/147 141/141/141 142/142/142
f 151/151/151 125/125/125 121/121/121
f 122/122/122 121/121/121 125/125/125
f 141/141/141 152/152/152 151/151/151
f 147/147/147 152/152/152 141/141/141
f 125/125/125 151/151/151 152/152/152
f 147/147/147 145/145/145 152/152/152
f 152/152/152 145/145/145 125/125/125
f 125/125/125 145/145/145 122/122/122
f 145/145/145 147/147/147 146/146/146
f 144/144/144 122/122/122 145/145/145
f 144/144/144 145/145/145 146/146/146
f 148/148/148 144/144/144 146/146/146
