# Generated from Roblox mesh JSON (v7.00)
# Hello from RBX_Toolbox ;)
o RightHand
v -0.287366 0.049043 -0.203901
v -0.323325 0.079697 -0.351872
v -0.234782 0.065455 -0.382667
v -0.202957 0.041047 -0.248281
v -0.151864 0.067019 -0.324699
v -0.180852 0.084298 -0.171977
v -0.226031 0.095810 -0.150050
v -0.324031 0.086356 -0.166086
v -0.091300 0.100359 -0.392572
v -0.324031 0.086356 -0.166086
v -0.366886 0.126980 -0.284012
v -0.303638 0.115765 -0.124360
v -0.366886 0.126980 -0.284012
v -0.219858 0.091562 -0.100798
v -0.090564 0.052325 -0.288493
v -0.113932 -0.401715 -0.179860
v -0.148212 -0.333644 -0.277119
v -0.106478 -0.393446 -0.320805
v -0.148212 -0.333644 -0.277119
v -0.058950 -0.279722 -0.335987
v -0.106478 -0.393446 -0.320805
v -0.048849 -0.412400 -0.306959
v -0.060266 -0.423117 -0.080353
v -0.133117 -0.355714 -0.074249
v -0.148212 -0.333644 -0.277119
v -0.133117 -0.355714 -0.074249
v -0.058195 -0.235206 -0.060030
v -0.078178 -0.209114 -0.310842
v -0.078178 -0.209114 -0.310842
v -0.183614 0.061912 -0.066458
v -0.072876 0.004388 -0.057403
v -0.163692 0.000340 0.234276
v -0.246856 0.105458 0.103339
v -0.131572 0.016116 0.073861
v -0.088703 -0.032991 0.263622
v -0.230946 0.088675 0.341686
v -0.097106 0.036665 0.403604
v -0.230946 0.088675 0.341686
v -0.163692 0.000340 0.234276
v -0.286414 0.123662 -0.077116
v -0.269505 0.132519 -0.027055
v -0.189938 0.184179 0.350416
v -0.108739 -0.414557 -0.074956
v -0.088180 -0.424333 0.226731
v -0.028888 -0.444329 0.240493
v -0.118740 -0.361439 0.205250
v -0.118740 -0.361439 0.205250
v -0.056424 -0.236253 0.239839
v -0.038282 -0.037758 0.100759
v -0.064505 0.151069 0.404941
v -0.088703 -0.032991 0.263622
v -0.300759 0.183475 0.234278
v -0.313389 0.205488 -0.127308
v -0.327151 0.300471 -0.137953
v -0.145829 0.274734 -0.367005
v -0.323325 0.079697 -0.351872
v -0.366886 0.126980 -0.284012
v -0.106550 0.253299 -0.382695
v -0.234782 0.065455 -0.382667
v -0.308607 0.202252 -0.073239
v -0.327151 0.300471 -0.137953
v -0.253996 0.377692 -0.112987
v -0.164486 0.389668 -0.177803
v -0.104869 0.351654 -0.287919
v -0.338955 0.276342 -0.020105
v -0.253996 0.377692 -0.112987
v -0.262287 0.351746 0.013754
v -0.071596 0.223854 -0.400252
v -0.091300 0.100359 -0.392572
v -0.055036 0.352524 -0.313651
v -0.033692 0.405003 -0.274054
v -0.068008 0.421048 -0.105028
v -0.033692 0.405003 -0.274054
v -0.164486 0.389668 -0.177803
v -0.253996 0.377692 -0.112987
v -0.157221 0.395876 -0.074627
v -0.340802 0.269708 0.000546
v -0.286584 0.270899 0.129530
v -0.258215 0.250760 0.261951
v -0.194770 0.327579 0.249511
v -0.189938 0.184179 0.350416
v -0.194770 0.327579 0.249511
v -0.154777 0.398450 0.024225
v -0.262287 0.351746 0.013754
v -0.109865 0.334733 0.316110
v -0.109865 0.334733 0.316110
v -0.005063 0.353894 0.346482
v -0.109865 0.334733 0.316110
v -0.054051 0.444329 0.029018
v 0.000816 -0.066928 0.275753
v 0.010350 -0.274332 -0.371621
v -0.048849 -0.412400 -0.306959
v 0.002457 -0.020880 -0.332280
v 0.132071 -0.054742 -0.404986
v 0.002322 -0.023535 -0.250758
v 0.059709 -0.382464 -0.072744
v -0.060266 -0.423117 -0.080353
v -0.048849 -0.412400 -0.306959
v 0.017188 -0.053101 -0.056873
v 0.002457 -0.020880 -0.332280
v 0.152432 -0.332388 -0.303824
v 0.289733 -0.163770 -0.318426
v 0.152432 -0.332388 -0.303824
v 0.174717 -0.358648 -0.046124
v 0.289733 -0.163770 -0.318426
v 0.320758 -0.189155 -0.043012
v 0.154423 0.114196 -0.408342
v 0.309846 0.058114 -0.303156
v 0.309846 0.058114 -0.303156
v 0.357073 0.050479 0.003255
v -0.118740 -0.361439 0.205250
v -0.088180 -0.424333 0.226731
v 0.038378 -0.303495 0.309181
v -0.056424 -0.236253 0.239839
v -0.028888 -0.444329 0.240493
v -0.028888 -0.444329 0.240493
v 0.196487 -0.384110 0.265927
v 0.000816 -0.066928 0.275753
v 0.105368 -0.074813 0.382909
v 0.196487 -0.384110 0.265927
v 0.326561 -0.212335 0.295392
v 0.155980 -0.233013 0.317689
v 0.326561 -0.212335 0.295392
v 0.366886 0.061250 0.152849
v 0.362686 0.066505 0.312059
v 0.362686 0.066505 0.312059
v 0.160437 0.129463 0.408342
v 0.117556 0.307376 -0.336102
v -0.022099 0.352424 -0.332446
v -0.090564 0.052325 -0.288493
v 0.082587 0.408167 -0.292139
v -0.005814 0.405552 -0.303425
v -0.005814 0.405552 -0.303425
v 0.082587 0.408167 -0.292139
v 0.140180 0.413425 -0.166556
v 0.182625 0.257893 -0.293676
v 0.226464 0.094985 -0.355882
v 0.234390 0.249441 -0.234550
v 0.234390 0.249441 -0.234550
v 0.259630 0.238056 -0.108940
v 0.140180 0.413425 -0.166556
v 0.140180 0.413425 -0.166556
v 0.113578 0.253823 0.360230
v 0.293469 0.196188 0.275873
v 0.055230 0.369354 0.317318
v 0.152828 0.396309 0.210069
v -0.005063 0.353894 0.346482
v 0.194292 0.400422 0.020614
v 0.152828 0.396309 0.210069
v 0.055230 0.369354 0.317318
v -0.005063 0.353894 0.346482
v 0.194292 0.400422 0.020614
v 0.278888 0.234076 0.135076
v 0.293469 0.196188 0.275873
v 0.285774 0.229178 0.013211
v 0.152828 0.396309 0.210069
vt 0.499944 0.046576
vt 0.501274 0.039927
vt 0.490693 0.039352
vt 0.489654 0.045531
vt 0.482929 0.042660
vt 0.490987 0.050596
vt 0.498855 0.051305
vt 0.505913 0.048400
vt 0.475652 0.040318
vt 0.505914 0.048400
vt 0.510500 0.042766
vt 0.507256 0.051699
vt 0.513909 0.043937
vt 0.499310 0.054180
vt 0.477371 0.046318
vt 0.420068 0.069211
vt 0.426436 0.073669
vt 0.420007 0.075861
vt 0.445473 0.146941
vt 0.450739 0.142678
vt 0.440501 0.144074
vt 0.414148 0.075562
vt 0.414203 0.063444
vt 0.423633 0.063121
vt 0.429066 0.048911
vt 0.430076 0.059307
vt 0.443174 0.059028
vt 0.457096 0.143609
vt 0.441777 0.046648
vt 0.491647 0.056146
vt 0.476308 0.057306
vt 0.490788 0.072451
vt 0.504317 0.065502
vt 0.485707 0.064974
vt 0.480638 0.074229
vt 0.505621 0.077626
vt 0.506683 0.014919
vt 0.517226 0.008993
vt 0.499729 0.007200
vt 0.507282 0.054860
vt 0.507367 0.058167
vt 0.525578 0.011924
vt 0.418614 0.063236
vt 0.419218 0.047493
vt 0.413945 0.047009
vt 0.425062 0.048235
vt 0.434959 0.073664
vt 0.446587 0.074183
vt 0.472896 0.066086
vt 0.517082 0.017835
vt 0.491630 0.011157
vt 0.515340 0.072345
vt 0.518036 0.053282
vt 0.528901 0.055015
vt 0.516423 0.146208
vt 0.502684 0.156972
vt 0.511797 0.159371
vt 0.511485 0.144587
vt 0.495722 0.152778
vt 0.517143 0.056487
vt 0.538121 0.157117
vt 0.545087 0.154183
vt 0.540224 0.147692
vt 0.526406 0.144095
vt 0.527782 0.059944
vt 0.537723 0.056233
vt 0.532933 0.063200
vt 0.505080 0.143167
vt 0.491638 0.145177
vt 0.525903 0.139555
vt 0.532966 0.137091
vt 0.428666 0.027624
vt 0.431752 0.020970
vt 0.420701 0.024921
vt 0.413759 0.027344
vt 0.421204 0.028754
vt 0.524985 0.061193
vt 0.523642 0.068145
vt 0.521782 0.075052
vt 0.528523 0.077707
vt 0.514316 0.080303
vt 0.419652 0.041130
vt 0.421706 0.032587
vt 0.413726 0.032075
vt 0.528493 0.084998
vt 0.538525 0.016948
vt 0.537588 0.021365
vt 0.426579 0.043923
vt 0.429690 0.032750
vt 0.481029 0.015365
vt 0.452045 0.138243
vt 0.438255 0.141367
vt 0.476240 0.140429
vt 0.475109 0.132128
vt 0.462691 0.051261
vt 0.521527 0.099780
vt 0.532850 0.099862
vt 0.530849 0.088085
vt 0.464162 0.058124
vt 0.461580 0.044382
vt 0.445925 0.131098
vt 0.463613 0.124249
vt 0.509314 0.088039
vt 0.510461 0.101241
vt 0.487226 0.086902
vt 0.485773 0.099181
vt 0.492036 0.129828
vt 0.486416 0.120773
vt 0.463487 0.087165
vt 0.463262 0.102683
vt 0.450571 0.009216
vt 0.445626 0.010947
vt 0.455552 0.017969
vt 0.460872 0.012142
vt 0.533033 0.115938
vt 0.443625 0.013571
vt 0.447536 0.024560
vt 0.467515 0.074859
vt 0.479933 0.023983
vt 0.511542 0.116888
vt 0.490316 0.117889
vt 0.461656 0.024632
vt 0.463625 0.032098
vt 0.462105 0.110403
vt 0.460949 0.118123
vt 0.492055 0.037258
vt 0.502058 0.027674
vt 0.516752 0.129071
vt 0.524468 0.137132
vt 0.482461 0.146928
vt 0.530527 0.128650
vt 0.531668 0.134890
vt 0.433936 0.020150
vt 0.441173 0.020587
vt 0.445241 0.025223
vt 0.510425 0.124905
vt 0.489441 0.125228
vt 0.509802 0.120578
vt 0.440544 0.089635
vt 0.441161 0.096389
vt 0.532254 0.120817
vt 0.418534 0.092285
vt 0.519497 0.027867
vt 0.513370 0.038193
vt 0.535675 0.028452
vt 0.535746 0.037288
vt 0.536480 0.026138
vt 0.449407 0.032426
vt 0.445624 0.039549
vt 0.438857 0.043746
vt 0.430110 0.043992
vt 0.420293 0.103604
vt 0.440594 0.109853
vt 0.439410 0.116563
vt 0.441777 0.103143
vt 0.417877 0.114979
vn -0.346945 -0.923820 0.158931
vn -0.660078 -0.345206 -0.667661
vn -0.197186 -0.639862 -0.742541
vn -0.022143 -0.999672 0.012089
vn 0.008976 -0.925765 -0.378840
vn -0.253589 -0.960774 0.114198
vn -0.274983 -0.909234 0.312580
vn -0.698976 -0.606798 0.377735
vn -0.163150 -0.441480 -0.882575
vn -0.698976 -0.606798 0.377735
vn -0.974183 -0.095283 -0.203797
vn -0.748572 -0.573734 0.333001
vn -0.974183 -0.095283 -0.203797
vn -0.498649 -0.866445 0.037373
vn -0.405293 -0.888812 -0.215467
vn -0.656188 -0.743915 -0.125028
vn -0.935284 -0.003872 -0.353556
vn -0.531713 -0.545533 -0.648212
vn -0.935284 -0.003872 -0.353556
vn -0.572556 0.037944 -0.818393
vn -0.531713 -0.545533 -0.648212
vn 0.019673 -0.877142 -0.479976
vn -0.025060 -0.998700 -0.040424
vn -0.994604 -0.039853 0.095721
vn -0.935284 -0.003872 -0.353556
vn -0.994604 -0.039853 0.095721
vn -0.952789 0.302453 0.013062
vn -0.874992 0.225629 -0.428436
vn -0.874992 0.225629 -0.428436
vn -0.521988 -0.847968 -0.091964
vn -0.555052 -0.824629 -0.113358
vn -0.584226 -0.803235 0.116143
vn -0.798167 -0.600963 0.032511
vn -0.444191 -0.889784 -0.103634
vn -0.491842 -0.852831 0.175463
vn -0.758296 -0.319922 0.567365
vn -0.389733 -0.412306 0.823122
vn -0.758296 -0.319922 0.567365
vn -0.584226 -0.803235 0.116143
vn -0.734957 -0.647641 0.200747
vn -0.791360 -0.604853 0.085024
vn -0.486007 0.258693 0.834792
vn -0.617289 -0.784758 0.052933
vn -0.675637 -0.549423 0.491513
vn -0.127169 -0.872280 0.473036
vn -0.890551 -0.043743 0.451642
vn -0.890551 -0.043743 0.451642
vn -0.883744 0.134218 0.448724
vn -0.508374 -0.858666 -0.057928
vn -0.133976 0.204235 0.969964
vn -0.491842 -0.852831 0.175463
vn -0.952789 -0.034991 0.301883
vn -0.976128 -0.154603 0.150179
vn -0.862350 0.465827 -0.197963
vn -0.490869 0.483331 -0.725037
vn -0.660078 -0.345206 -0.667661
vn -0.974183 -0.095283 -0.203797
vn -0.285680 0.379278 -0.879658
vn -0.197186 -0.639862 -0.742541
vn -0.961541 -0.253794 0.107390
vn -0.862350 0.465827 -0.197963
vn -0.528795 0.835362 -0.150312
vn -0.407238 0.872316 -0.271870
vn -0.417935 0.719639 -0.554856
vn -0.964458 0.254803 0.067519
vn -0.528795 0.835362 -0.150312
vn -0.614372 0.776042 0.144344
vn -0.097022 0.192565 -0.976904
vn -0.163150 -0.441480 -0.882575
vn -0.292487 0.631145 -0.719202
vn -0.313881 0.857729 -0.407042
vn -0.262341 0.953030 -0.150312
vn -0.313881 0.857729 -0.407042
vn -0.407238 0.872316 -0.271870
vn -0.528795 0.835362 -0.150312
vn -0.328468 0.943306 -0.038479
vn -0.986825 -0.038880 0.155041
vn -0.821506 0.498891 0.276599
vn -0.728150 0.447350 0.519714
vn -0.512264 0.773125 0.374817
vn -0.486007 0.258693 0.834792
vn -0.512264 0.773125 0.374817
vn -0.393623 0.914132 0.098638
vn -0.614372 0.776042 0.144344
vn -0.392651 0.691438 0.606263
vn -0.392651 0.691438 0.606263
vn -0.092160 0.665182 0.741435
vn -0.392651 0.691438 0.606263
vn -0.094105 0.990956 0.095721
vn -0.716480 -0.512469 0.474008
vn -0.085353 -0.285886 -0.954538
vn 0.019673 -0.877142 -0.479976
vn -0.758296 -0.327702 -0.563608
vn 0.011893 -0.162383 -0.986629
vn -0.941119 -0.331591 -0.066680
vn 0.293907 -0.952022 -0.089047
vn -0.025060 -0.998700 -0.040424
vn 0.019673 -0.877142 -0.479976
vn -0.940147 -0.339371 0.038346
vn -0.758296 -0.327702 -0.563608
vn 0.453391 -0.719604 -0.525682
vn 0.706231 -0.334509 -0.623901
vn 0.453391 -0.719604 -0.525682
vn 0.588563 -0.803235 -0.092937
vn 0.706231 -0.334509 -0.623901
vn 0.936704 -0.336454 -0.094882
vn 0.363924 0.163391 -0.917584
vn 0.861825 0.179923 -0.475114
vn 0.861825 0.179923 -0.475114
vn 0.982410 0.149777 -0.116276
vn -0.890551 -0.043743 0.451642
vn -0.675637 -0.549423 0.491513
vn -0.332358 -0.317004 0.888277
vn -0.883744 0.134218 0.448724
vn -0.127169 -0.872280 0.473036
vn -0.127169 -0.872280 0.473036
vn 0.396015 -0.764337 0.508045
vn -0.716480 -0.512469 0.474008
vn -0.024088 -0.319922 0.947597
vn 0.396015 -0.764337 0.508045
vn 0.721790 -0.413278 0.554723
vn 0.208330 -0.384104 0.899947
vn 0.721790 -0.413278 0.554723
vn 0.987272 0.148805 0.050988
vn 0.823899 0.136163 0.549860
vn 0.823899 0.136163 0.549860
vn 0.272513 0.126438 0.953432
vn 0.386291 0.483331 -0.786302
vn -0.074656 0.546541 -0.833952
vn -0.405293 -0.888812 -0.215467
vn 0.312384 0.790629 -0.526655
vn -0.129114 0.819803 -0.557773
vn -0.129114 0.819803 -0.557773
vn 0.312384 0.790629 -0.526655
vn 0.554527 0.805216 -0.210605
vn 0.647883 0.503753 -0.571388
vn 0.641076 0.382195 -0.665717
vn 0.782083 0.501808 -0.371061
vn 0.782083 0.501808 -0.371061
vn 0.860852 0.474579 -0.183376
vn 0.554527 0.805216 -0.210605
vn 0.554527 0.805216 -0.210605
vn 0.303632 0.456102 0.836737
vn 0.707203 0.546541 0.449697
vn 0.236532 0.786739 0.570282
vn 0.497151 0.820775 0.281461
vn -0.092160 0.665182 0.741435
vn 0.604122 0.796464 0.007227
vn 0.497151 0.820775 0.281461
vn 0.236532 0.786739 0.570282
vn -0.092160 0.665182 0.741435
vn 0.604122 0.796464 0.007227
vn 0.860852 0.499863 0.095721
vn 0.707203 0.546541 0.449697
vn 0.877384 0.476524 -0.062790
vn 0.497151 0.820775 0.281461
f 16/16/16 17/17/17 18/18/18
f 16/16/16 18/18/18 22/22/22
f 17/17/17 16/16/16 24/24/24
f 16/16/16 22/22/22 23/23/23
f 16/16/16 23/23/23 43/43/43
f 16/16/16 43/43/43 24/24/24
f 23/23/23 45/45/45 43/43/43
f 44/44/44 43/43/43 45/45/45
f 44/44/44 24/24/24 43/43/43
f 46/46/46 24/24/24 44/44/44
f 37/37/37 38/38/38 39/39/39
f 37/37/37 39/39/39 51/51/51
f 37/37/37 42/42/42 38/38/38
f 90/90/90 37/37/37 51/51/51
f 86/86/86 42/42/42 87/87/87
f 87/87/87 42/42/42 50/50/50
f 50/50/50 42/42/42 37/37/37
f 90/90/90 119/119/119 37/37/37
f 37/37/37 127/127/127 50/50/50
f 37/37/37 119/119/119 127/127/127
f 143/143/143 50/50/50 127/127/127
f 147/147/147 50/50/50 143/143/143
f 143/143/143 145/145/145 147/147/147
f 143/143/143 144/144/144 145/145/145
f 144/144/144 143/143/143 127/127/127
f 144/144/144 146/146/146 145/145/145
f 144/144/144 127/127/127 126/126/126
f 119/119/119 126/126/126 127/127/127
f 126/126/126 119/119/119 123/123/123
f 123/123/123 119/119/119 122/122/122
f 117/117/117 123/123/123 122/122/122
f 113/113/113 122/122/122 119/119/119
f 113/113/113 117/117/117 122/122/122
f 90/90/90 113/113/113 119/119/119
f 117/117/117 113/113/113 116/116/116
f 114/114/114 113/113/113 90/90/90
f 113/113/113 112/112/112 116/116/116
f 114/114/114 111/111/111 113/113/113
f 111/111/111 112/112/112 113/113/113
f 72/72/72 73/73/73 74/74/74
f 73/73/73 72/72/72 133/133/133
f 76/76/76 72/72/72 74/74/74
f 74/74/74 75/75/75 76/76/76
f 84/84/84 76/76/76 75/75/75
f 84/84/84 83/83/83 76/76/76
f 82/82/82 83/83/83 84/84/84
f 76/76/76 89/89/89 72/72/72
f 72/72/72 89/89/89 133/133/133
f 89/89/89 76/76/76 83/83/83
f 82/82/82 89/89/89 83/83/83
f 133/133/133 89/89/89 134/134/134
f 88/88/88 89/89/89 82/82/82
f 151/151/151 89/89/89 88/88/88
f 134/134/134 89/89/89 135/135/135
f 150/150/150 89/89/89 151/151/151
f 135/135/135 89/89/89 148/148/148
f 149/149/149 89/89/89 150/150/150
f 149/149/149 148/148/148 89/89/89
f 96/96/96 97/97/97 98/98/98
f 96/96/96 115/115/115 97/97/97
f 96/96/96 98/98/98 103/103/103
f 115/115/115 96/96/96 120/120/120
f 103/103/103 104/104/104 96/96/96
f 104/104/104 120/120/120 96/96/96
f 103/103/103 105/105/105 104/104/104
f 121/121/121 120/120/120 104/104/104
f 105/105/105 106/106/106 104/104/104
f 121/121/121 104/104/104 106/106/106
f 106/106/106 105/105/105 109/109/109
f 121/121/121 106/106/106 124/124/124
f 125/125/125 121/121/121 124/124/124
f 154/154/154 125/125/125 124/124/124
f 110/110/110 124/124/124 106/106/106
f 110/110/110 106/106/106 109/109/109
f 153/153/153 154/154/154 124/124/124
f 156/156/156 154/154/154 153/153/153
f 153/153/153 152/152/152 156/156/156
f 153/153/153 124/124/124 155/155/155
f 152/152/152 153/153/153 155/155/155
f 155/155/155 124/124/124 110/110/110
f 152/152/152 155/155/155 140/140/140
f 155/155/155 110/110/110 140/140/140
f 140/140/140 110/110/110 109/109/109
f 142/142/142 152/152/152 140/140/140
f 109/109/109 139/139/139 140/140/140
f 140/140/140 139/139/139 142/142/142
f 19/19/19 20/20/20 21/21/21
f 20/20/20 19/19/19 28/28/28
f 20/20/20 28/28/28 93/93/93
f 91/91/91 21/21/21 20/20/20
f 92/92/92 21/21/21 91/91/91
f 101/101/101 92/92/92 91/91/91
f 101/101/101 91/91/91 102/102/102
f 20/20/20 94/94/94 91/91/91
f 20/20/20 93/93/93 94/94/94
f 102/102/102 91/91/91 94/94/94
f 93/93/93 69/69/69 94/94/94
f 69/69/69 93/93/93 130/130/130
f 94/94/94 107/107/107 102/102/102
f 107/107/107 94/94/94 69/69/69
f 108/108/108 102/102/102 107/107/107
f 107/107/107 137/137/137 108/108/108
f 138/138/138 108/108/108 137/137/137
f 69/69/69 68/68/68 107/107/107
f 138/138/138 137/137/137 136/136/136
f 136/136/136 137/137/137 107/107/107
f 141/141/141 138/138/138 136/136/136
f 131/131/131 141/141/141 136/136/136
f 59/59/59 68/68/68 69/69/69
f 107/107/107 128/128/128 136/136/136
f 131/131/131 136/136/136 128/128/128
f 107/107/107 68/68/68 128/128/128
f 128/128/128 129/129/129 131/131/131
f 128/128/128 68/68/68 129/129/129
f 131/131/131 129/129/129 132/132/132
f 132/132/132 129/129/129 71/71/71
f 129/129/129 68/68/68 70/70/70
f 129/129/129 70/70/70 71/71/71
f 68/68/68 59/59/59 58/58/58
f 58/58/58 70/70/70 68/68/68
f 56/56/56 58/58/58 59/59/59
f 71/71/71 70/70/70 64/64/64
f 58/58/58 64/64/64 70/70/70
f 71/71/71 64/64/64 63/63/63
f 56/56/56 55/55/55 58/58/58
f 64/64/64 58/58/58 55/55/55
f 55/55/55 56/56/56 57/57/57
f 55/55/55 57/57/57 61/61/61
f 64/64/64 55/55/55 61/61/61
f 64/64/64 61/61/61 63/63/63
f 61/61/61 62/62/62 63/63/63
f 1/1/1 2/2/2 3/3/3
f 11/11/11 2/2/2 1/1/1
f 10/10/10 11/11/11 1/1/1
f 4/4/4 1/1/1 3/3/3
f 4/4/4 3/3/3 5/5/5
f 5/5/5 3/3/3 9/9/9
f 9/9/9 15/15/15 5/5/5
f 4/4/4 5/5/5 15/15/15
f 6/6/6 1/1/1 4/4/4
f 6/6/6 4/4/4 15/15/15
f 7/7/7 1/1/1 6/6/6
f 1/1/1 7/7/7 8/8/8
f 7/7/7 12/12/12 10/10/10
f 12/12/12 13/13/13 10/10/10
f 7/7/7 6/6/6 14/14/14
f 12/12/12 7/7/7 14/14/14
f 6/6/6 15/15/15 30/30/30
f 14/14/14 6/6/6 30/30/30
f 12/12/12 53/53/53 13/13/13
f 53/53/53 54/54/54 13/13/13
f 12/12/12 14/14/14 40/40/40
f 53/53/53 12/12/12 40/40/40
f 54/54/54 53/53/53 60/60/60
f 60/60/60 53/53/53 40/40/40
f 60/60/60 40/40/40 41/41/41
f 40/40/40 14/14/14 41/41/41
f 14/14/14 33/33/33 41/41/41
f 30/30/30 33/33/33 14/14/14
f 41/41/41 77/77/77 60/60/60
f 77/77/77 41/41/41 33/33/33
f 65/65/65 54/54/54 60/60/60
f 77/77/77 65/65/65 60/60/60
f 65/65/65 67/67/67 54/54/54
f 66/66/66 54/54/54 67/67/67
f 78/78/78 65/65/65 77/77/77
f 78/78/78 67/67/67 65/65/65
f 77/77/77 33/33/33 52/52/52
f 77/77/77 52/52/52 78/78/78
f 78/78/78 79/79/79 67/67/67
f 52/52/52 79/79/79 78/78/78
f 79/79/79 80/80/80 67/67/67
f 80/80/80 79/79/79 85/85/85
f 85/85/85 79/79/79 81/81/81
f 81/81/81 79/79/79 36/36/36
f 52/52/52 36/36/36 79/79/79
f 36/36/36 52/52/52 33/33/33
f 33/33/33 32/32/32 36/36/36
f 30/30/30 32/32/32 33/33/33
f 32/32/32 30/30/30 34/34/34
f 32/32/32 34/34/34 35/35/35
f 34/34/34 30/30/30 31/31/31
f 35/35/35 34/34/34 49/49/49
f 31/31/31 49/49/49 34/34/34
f 118/118/118 35/35/35 49/49/49
f 15/15/15 31/31/31 30/30/30
f 99/99/99 118/118/118 49/49/49
f 31/31/31 99/99/99 49/49/49
f 118/118/118 99/99/99 48/48/48
f 31/31/31 15/15/15 95/95/95
f 95/95/95 99/99/99 31/31/31
f 95/95/95 15/15/15 100/100/100
f 100/100/100 29/29/29 95/95/95
f 99/99/99 95/95/95 27/27/27
f 29/29/29 27/27/27 95/95/95
f 99/99/99 27/27/27 48/48/48
f 25/25/25 27/27/27 29/29/29
f 25/25/25 26/26/26 27/27/27
f 26/26/26 48/48/48 27/27/27
f 47/47/47 48/48/48 26/26/26
