# Generated from Roblox mesh JSON (v7.00)
# Hello from RBX_Toolbox ;)
o LeftLowerArm_body_cage
v -0.273301 -0.244271 0.003447
v -0.273301 -0.244271 0.279154
v -0.277944 -0.244271 0.003447
v -0.277944 -0.244271 0.279154
v -0.277944 -0.244271 -0.279154
v -0.273301 -0.244271 -0.279154
v 0.277947 0.250066 0.003447
v 0.277947 0.126827 0.279154
v 0.277947 0.126827 0.003447
v 0.277947 -0.000657 0.279154
v 0.277947 0.250066 0.279154
v 0.277947 0.384515 0.279154
v 0.277947 0.384515 0.003447
v 0.277947 -0.000657 0.003447
v 0.277947 -0.244271 0.279154
v 0.277947 -0.244271 0.003447
v 0.277947 0.250066 -0.279154
v 0.277947 0.126827 0.003447
v 0.277947 0.126827 -0.279154
v 0.277947 -0.000657 -0.279154
v 0.277947 0.250066 0.003447
v 0.277947 0.384515 -0.279154
v 0.277947 0.384515 0.003447
v 0.277947 -0.000657 0.003447
v 0.277947 -0.244271 -0.279154
v 0.277947 -0.244271 0.003447
v 0.277947 0.384515 0.003447
v 0.277947 0.384515 -0.279154
v 0.277947 0.517350 -0.279154
v 0.277947 0.517350 0.003447
v 0.277947 0.384515 0.279154
v 0.277947 0.384515 0.003447
v 0.277947 0.517350 0.003447
v 0.277947 0.517350 0.279154
v 0.072644 -0.244271 0.279154
v -0.110715 -0.244271 0.279154
v -0.025623 -0.244271 0.279154
v -0.273301 -0.244271 0.279154
v -0.277944 -0.244271 0.279154
v 0.072644 -0.517350 0.279154
v -0.277944 -0.000657 0.279154
v 0.277947 -0.244271 0.279154
v -0.110714 -0.000657 0.279154
v -0.277944 0.126827 0.279154
v 0.277947 -0.000657 0.279154
v 0.277947 -0.244271 0.279154
v 0.072644 -0.000657 0.279154
v 0.277947 0.126827 0.279154
v -0.110713 0.126827 0.279154
v 0.072644 0.126827 0.279154
v 0.072645 0.250066 0.279154
v -0.110713 0.250066 0.279154
v -0.277945 0.250066 0.279154
v 0.277947 0.250066 0.279154
v -0.110713 0.384515 0.279154
v -0.277947 0.384514 0.279154
v -0.277947 0.517350 0.279154
v -0.110713 0.517350 0.279154
v 0.072646 0.384515 0.279154
v 0.277947 0.384515 0.279154
v 0.072646 0.517350 0.279154
v 0.277947 0.384515 0.279154
v 0.072646 0.517350 0.279154
v 0.072646 0.384515 0.279154
v 0.277947 0.517350 0.279154
v -0.110713 0.250065 -0.279154
v 0.072644 0.126827 -0.279154
v -0.110713 0.126827 -0.279154
v -0.277944 0.126827 -0.279154
v -0.277946 0.250065 -0.279154
v -0.277944 -0.000657 -0.279154
v -0.110713 0.384514 -0.279154
v -0.277947 0.384514 -0.279154
v 0.072645 0.250066 -0.279154
v 0.072646 0.384515 -0.279154
v 0.277947 0.250066 -0.279154
v 0.277947 0.384515 -0.279154
v 0.277947 0.126827 -0.279154
v 0.072644 -0.000657 -0.279154
v 0.277947 -0.000657 -0.279154
v -0.110713 -0.000657 -0.279154
v 0.072644 -0.244271 -0.279154
v 0.277947 -0.244271 -0.279154
v -0.110714 -0.244271 -0.279154
v -0.277944 -0.244271 -0.279154
v 0.277947 -0.244271 -0.279154
v 0.277947 -0.244271 -0.279154
v 0.277947 -0.244271 -0.279154
v -0.025623 -0.244271 -0.279154
v -0.273301 -0.244271 -0.279154
v -0.277944 -0.244271 -0.279154
v 0.072646 0.517350 -0.279154
v 0.277947 0.517350 -0.279154
v 0.277947 0.384515 -0.279154
v 0.072646 0.384515 -0.279154
v -0.110713 0.384514 -0.279154
v -0.110714 0.517350 -0.279154
v -0.277947 0.384514 -0.279154
v -0.277947 0.517350 -0.279154
v -0.277944 0.126827 0.003447
v -0.277945 0.250066 0.279154
v -0.277945 0.250066 0.003447
v -0.277944 0.126827 0.279154
v -0.277944 -0.000657 0.279154
v -0.277947 0.384514 0.003447
v -0.277947 0.384514 0.279154
v -0.277944 0.126827 -0.279154
v -0.277946 0.250065 -0.279154
v -0.277947 0.384514 -0.279154
v -0.277947 0.517350 -0.279154
v -0.277947 0.517350 0.003447
v -0.277947 0.517350 0.279154
v -0.277944 -0.000657 -0.279154
v -0.277944 -0.000657 0.003447
v -0.277944 -0.244271 -0.279154
v -0.277944 -0.244271 0.279154
v -0.277944 -0.244271 0.003447
v 0.277947 -0.244271 0.279154
v 0.277947 -0.244271 0.003447
v 0.277947 -0.244271 0.003447
v 0.277947 -0.244271 0.279154
v 0.277947 -0.244271 0.003447
v 0.277947 -0.244271 -0.279154
v 0.277947 -0.244271 0.003447
v 0.277947 -0.244271 -0.279154
vt 5.687792 3.501845
vt 5.687792 3.557655
vt 5.638083 3.501845
vt 5.638083 3.557655
vt 5.638083 3.447445
vt 5.687792 3.447445
vt 5.414290 3.790663
vt 5.488954 3.754169
vt 5.488954 3.790663
vt 5.588373 3.754169
vt 5.414290 3.754205
vt 5.344955 3.754214
vt 5.344955 3.790663
vt 5.588373 3.790663
vt 5.638083 3.754169
vt 5.638083 3.790663
vt 5.414290 3.248313
vt 5.488954 3.209337
vt 5.488954 3.247544
vt 5.588373 3.247544
vt 5.414290 3.209337
vt 5.344956 3.248539
vt 5.344955 3.209337
vt 5.588373 3.209337
vt 5.638083 3.247544
vt 5.638083 3.209337
vt 5.344955 3.209337
vt 5.344956 3.248539
vt 5.312208 3.248766
vt 5.312208 3.209337
vt 5.344955 3.754214
vt 5.344955 3.790663
vt 5.312208 3.790663
vt 5.312208 3.754225
vt 5.638083 3.717676
vt 5.638083 3.635815
vt 5.687792 3.614785
vt 5.687792 3.557655
vt 5.638083 3.557655
vt 5.687792 3.717676
vt 5.588373 3.557655
vt 5.687792 3.769116
vt 5.588373 3.635815
vt 5.488954 3.557655
vt 5.588373 3.754169
vt 5.638083 3.754169
vt 5.588373 3.717676
vt 5.488954 3.754169
vt 5.488954 3.635815
vt 5.488954 3.717676
vt 5.414290 3.717676
vt 5.414290 3.635815
vt 5.414290 3.557655
vt 5.414290 3.754205
vt 5.344955 3.635815
vt 5.344956 3.557655
vt 5.312208 3.557655
vt 5.312208 3.635815
vt 5.344955 3.717676
vt 5.344955 3.754214
vt 5.312208 3.717676
vt 5.344955 3.754214
vt 5.312208 3.717676
vt 5.344955 3.717676
vt 5.312208 3.754225
vt 5.414290 3.367380
vt 5.488954 3.285752
vt 5.488954 3.367380
vt 5.488954 3.447445
vt 5.414290 3.447445
vt 5.588373 3.447445
vt 5.344955 3.367380
vt 5.344956 3.447445
vt 5.414290 3.285752
vt 5.344956 3.285752
vt 5.414290 3.248313
vt 5.344956 3.248539
vt 5.488954 3.247544
vt 5.588373 3.285752
vt 5.588373 3.247544
vt 5.588373 3.367380
vt 5.638083 3.285752
vt 5.638083 3.247544
vt 5.638083 3.367380
vt 5.638083 3.447445
vt 5.687792 3.247544
vt 5.638083 3.247544
vt 5.687792 3.285752
vt 5.687792 3.385719
vt 5.687792 3.447445
vt 5.638083 3.447445
vt 5.312208 3.285752
vt 5.312208 3.248766
vt 5.344956 3.248539
vt 5.344956 3.285752
vt 5.344955 3.367380
vt 5.312208 3.367380
vt 5.344956 3.447445
vt 5.312208 3.447445
vt 5.488954 3.501845
vt 5.414290 3.557655
vt 5.414290 3.501845
vt 5.488954 3.557655
vt 5.588373 3.557655
vt 5.344956 3.501845
vt 5.344956 3.557655
vt 5.488954 3.447445
vt 5.414290 3.447445
vt 5.344956 3.447445
vt 5.312208 3.447445
vt 5.312208 3.501846
vt 5.312208 3.557655
vt 5.588373 3.447445
vt 5.588373 3.501845
vt 5.638083 3.447445
vt 5.638083 3.557655
vt 5.638083 3.501845
vt 5.687792 3.769116
vt 5.687792 3.790663
vt 5.638083 3.790663
vt 5.638083 3.754169
vt 5.687792 3.209337
vt 5.638083 3.247544
vt 5.638083 3.209337
vt 5.687792 3.247544
vn -0.000489 -1.000000 0.000489
vn -0.000489 -1.000000 0.000489
vn -0.000489 -1.000000 0.000489
vn -0.000489 -1.000000 0.000489
vn -0.000489 -1.000000 0.000489
vn -0.000489 -1.000000 0.000489
vn 1.000000 0.000489 0.000489
vn 1.000000 0.000489 0.000489
vn 1.000000 0.000489 0.000489
vn 1.000000 0.000489 0.000489
vn 1.000000 0.000489 0.000489
vn 1.000000 0.000489 0.000489
vn 1.000000 0.000489 0.000489
vn 1.000000 0.000489 0.000489
vn 1.000000 0.000489 0.000489
vn 1.000000 0.000489 0.000489
vn 1.000000 0.000489 0.000489
vn 1.000000 0.000489 0.000489
vn 1.000000 0.000489 0.000489
vn 1.000000 0.000489 0.000489
vn 1.000000 0.000489 0.000489
vn 1.000000 0.000489 0.000489
vn 1.000000 0.000489 0.000489
vn 1.000000 0.000489 0.000489
vn 1.000000 0.000489 0.000489
vn 1.000000 0.000489 0.000489
vn 1.000000 0.000489 0.000489
vn 1.000000 0.000489 0.000489
vn 1.000000 0.000489 0.000489
vn 1.000000 0.000489 0.000489
vn 1.000000 0.000489 0.000489
vn 1.000000 0.000489 0.000489
vn 1.000000 0.000489 0.000489
vn 1.000000 0.000489 0.000489
vn 0.000489 0.000489 1.000000
vn 0.000489 0.000489 1.000000
vn 0.000489 0.000489 1.000000
vn 0.000489 0.000489 1.000000
vn 0.000489 0.000489 1.000000
vn 0.000489 0.000489 1.000000
vn 0.000489 0.000489 1.000000
vn 0.000489 0.000489 1.000000
vn 0.000489 0.000489 1.000000
vn 0.000489 0.000489 1.000000
vn 0.000489 0.000489 1.000000
vn 0.000489 0.000489 1.000000
vn 0.000489 0.000489 1.000000
vn 0.000489 0.000489 1.000000
vn 0.000489 0.000489 1.000000
vn 0.000489 0.000489 1.000000
vn 0.000489 0.000489 1.000000
vn 0.000489 0.000489 1.000000
vn 0.000489 0.000489 1.000000
vn 0.000489 0.000489 1.000000
vn 0.000489 0.000489 1.000000
vn 0.000489 0.000489 1.000000
vn 0.000489 0.000489 1.000000
vn 0.000489 0.000489 1.000000
vn 0.000489 0.000489 1.000000
vn 0.000489 0.000489 1.000000
vn 0.000489 0.000489 1.000000
vn 0.000489 0.000489 1.000000
vn 0.000489 0.000489 1.000000
vn 0.000489 0.000489 1.000000
vn 0.000489 0.000489 1.000000
vn 0.000489 -0.000489 -1.000000
vn 0.000489 -0.000489 -1.000000
vn 0.000489 -0.000489 -1.000000
vn 0.000489 -0.000489 -1.000000
vn 0.000489 -0.000489 -1.000000
vn 0.000489 -0.000489 -1.000000
vn 0.000489 -0.000489 -1.000000
vn 0.000489 -0.000489 -1.000000
vn 0.000489 -0.000489 -1.000000
vn 0.000489 -0.000489 -1.000000
vn 0.000489 -0.000489 -1.000000
vn 0.000489 -0.000489 -1.000000
vn 0.000489 -0.000489 -1.000000
vn 0.000489 -0.000489 -1.000000
vn 0.000489 -0.000489 -1.000000
vn 0.000489 -0.000489 -1.000000
vn 0.000489 -0.000489 -1.000000
vn 0.000489 -0.000489 -1.000000
vn 0.000489 -0.000489 -1.000000
vn 0.000489 -0.000489 -1.000000
vn 0.000489 0.264289 0.964827
vn 0.000489 0.264289 0.964827
vn 0.000489 0.264289 0.964827
vn -0.000489 -0.000489 -1.000000
vn 0.000489 -0.000489 -1.000000
vn -0.659013 -0.362970 -0.659013
vn 0.000489 -0.000489 -1.000000
vn 0.000489 -0.000489 -1.000000
vn 0.000489 -0.000489 -1.000000
vn 0.000489 -0.000489 -1.000000
vn 0.000489 -0.000489 -1.000000
vn 0.000489 -0.000489 -1.000000
vn 0.000489 -0.000489 -1.000000
vn 0.000489 -0.000489 -1.000000
vn -1.000000 -0.000489 0.000489
vn -1.000000 -0.000489 -0.000489
vn -1.000000 -0.000489 0.000489
vn -1.000000 -0.000489 -0.000489
vn -1.000000 0.000489 -0.000489
vn -1.000000 -0.000489 0.000489
vn -1.000000 -0.000489 -0.000489
vn -1.000000 -0.000489 0.000489
vn -1.000000 -0.000489 0.000489
vn -1.000000 -0.000489 0.000489
vn -1.000000 0.000489 0.000489
vn -1.000000 -0.000489 0.000489
vn -1.000000 -0.000489 -0.000489
vn -1.000000 -0.000489 0.000489
vn -1.000000 -0.000489 0.000489
vn -1.000000 0.000489 0.000489
vn -1.000000 0.000489 0.000489
vn -1.000000 0.000489 0.000489
vn -1.000000 0.000489 0.000489
vn -1.000000 0.000489 0.000489
vn -1.000000 0.000489 0.000489
vn -1.000000 0.000489 0.000489
vn -1.000000 0.000489 0.000489
vn -1.000000 0.000489 0.000489
vn -1.000000 0.000489 0.000489
vn -1.000000 0.000489 0.000489
f 1/1/1 2/2/2 3/3/3
f 3/3/3 2/2/2 4/4/4
f 5/5/5 1/1/1 3/3/3
f 1/1/1 5/5/5 6/6/6
f 7/7/7 8/8/8 9/9/9
f 9/9/9 8/8/8 10/10/10
f 8/8/8 7/7/7 11/11/11
f 7/7/7 12/12/12 11/11/11
f 12/12/12 7/7/7 13/13/13
f 10/10/10 14/14/14 9/9/9
f 14/14/14 10/10/10 15/15/15
f 15/15/15 16/16/16 14/14/14
f 17/17/17 18/18/18 19/19/19
f 19/19/19 18/18/18 20/20/20
f 18/18/18 17/17/17 21/21/21
f 22/22/22 21/21/21 17/17/17
f 21/21/21 22/22/22 23/23/23
f 20/20/20 18/18/18 24/24/24
f 20/20/20 24/24/24 25/25/25
f 25/25/25 24/24/24 26/26/26
f 27/27/27 28/28/28 29/29/29
f 29/29/29 30/30/30 27/27/27
f 31/31/31 32/32/32 33/33/33
f 33/33/33 34/34/34 31/31/31
f 35/35/35 36/36/36 37/37/37
f 38/38/38 37/37/37 36/36/36
f 36/36/36 39/39/39 38/38/38
f 37/37/37 40/40/40 35/35/35
f 36/36/36 41/41/41 39/39/39
f 40/40/40 42/42/42 35/35/35
f 41/41/41 36/36/36 43/43/43
f 35/35/35 43/43/43 36/36/36
f 43/43/43 44/44/44 41/41/41
f 45/45/45 35/35/35 46/46/46
f 35/35/35 45/45/45 47/47/47
f 43/43/43 35/35/35 47/47/47
f 48/48/48 47/47/47 45/45/45
f 44/44/44 43/43/43 49/49/49
f 47/47/47 49/49/49 43/43/43
f 47/47/47 48/48/48 50/50/50
f 49/49/49 47/47/47 50/50/50
f 50/50/50 48/48/48 51/51/51
f 44/44/44 49/49/49 52/52/52
f 50/50/50 52/52/52 49/49/49
f 52/52/52 50/50/50 51/51/51
f 44/44/44 52/52/52 53/53/53
f 54/54/54 51/51/51 48/48/48
f 55/55/55 53/53/53 52/52/52
f 51/51/51 55/55/55 52/52/52
f 53/53/53 55/55/55 56/56/56
f 55/55/55 57/57/57 56/56/56
f 57/57/57 55/55/55 58/58/58
f 55/55/55 51/51/51 59/59/59
f 51/51/51 54/54/54 59/59/59
f 59/59/59 58/58/58 55/55/55
f 60/60/60 59/59/59 54/54/54
f 58/58/58 59/59/59 61/61/61
f 62/62/62 63/63/63 64/64/64
f 63/63/63 62/62/62 65/65/65
f 66/66/66 67/67/67 68/68/68
f 69/69/69 66/66/66 68/68/68
f 66/66/66 69/69/69 70/70/70
f 68/68/68 71/71/71 69/69/69
f 70/70/70 72/72/72 66/66/66
f 72/72/72 70/70/70 73/73/73
f 72/72/72 74/74/74 66/66/66
f 67/67/67 66/66/66 74/74/74
f 72/72/72 75/75/75 74/74/74
f 75/75/75 76/76/76 74/74/74
f 75/75/75 77/77/77 76/76/76
f 74/74/74 76/76/76 78/78/78
f 74/74/74 78/78/78 67/67/67
f 78/78/78 79/79/79 67/67/67
f 79/79/79 68/68/68 67/67/67
f 79/79/79 78/78/78 80/80/80
f 68/68/68 79/79/79 81/81/81
f 71/71/71 68/68/68 81/81/81
f 80/80/80 82/82/82 79/79/79
f 82/82/82 81/81/81 79/79/79
f 82/82/82 80/80/80 83/83/83
f 84/84/84 71/71/71 81/81/81
f 81/81/81 82/82/82 84/84/84
f 71/71/71 84/84/84 85/85/85
f 86/86/86 82/82/82 87/87/87
f 82/82/82 86/86/86 88/88/88
f 88/88/88 89/89/89 82/82/82
f 84/84/84 82/82/82 89/89/89
f 89/89/89 90/90/90 84/84/84
f 91/91/91 84/84/84 90/90/90
f 92/92/92 93/93/93 94/94/94
f 92/92/92 94/94/94 95/95/95
f 96/96/96 92/92/92 95/95/95
f 92/92/92 96/96/96 97/97/97
f 98/98/98 97/97/97 96/96/96
f 97/97/97 98/98/98 99/99/99
f 100/100/100 101/101/101 102/102/102
f 101/101/101 100/100/100 103/103/103
f 100/100/100 104/104/104 103/103/103
f 102/102/102 101/101/101 105/105/105
f 105/105/105 101/101/101 106/106/106
f 102/102/102 107/107/107 100/100/100
f 107/107/107 102/102/102 108/108/108
f 102/102/102 109/109/109 108/108/108
f 109/109/109 102/102/102 105/105/105
f 105/105/105 110/110/110 109/109/109
f 110/110/110 105/105/105 111/111/111
f 105/105/105 106/106/106 111/111/111
f 111/111/111 106/106/106 112/112/112
f 113/113/113 100/100/100 107/107/107
f 100/100/100 113/113/113 114/114/114
f 114/114/114 104/104/104 100/100/100
f 115/115/115 114/114/114 113/113/113
f 114/114/114 116/116/116 104/104/104
f 114/114/114 115/115/115 117/117/117
f 117/117/117 116/116/116 114/114/114
f 118/118/118 119/119/119 120/120/120
f 120/120/120 121/121/121 118/118/118
f 122/122/122 123/123/123 124/124/124
f 123/123/123 122/122/122 125/125/125
