# Generated from Roblox mesh JSON (v7.00)
# Hello from RBX_Toolbox ;)
o LeftUpperLeg_body_cage
v 0.274548 0.174211 0.279153
v 0.274547 0.174210 0.003447
v 0.274547 0.296170 0.003447
v 0.274548 0.036983 0.279152
v 0.274548 0.296171 0.279153
v 0.275268 0.395689 0.279153
v 0.275268 0.401258 0.003447
v 0.274547 0.036983 0.003447
v 0.274547 -0.078397 0.279151
v 0.274547 -0.078397 0.003447
v 0.274547 -0.202164 0.003447
v 0.274549 -0.202164 0.279152
v 0.274547 -0.312669 0.003449
v 0.274549 -0.312669 0.279152
v 0.274549 -0.432695 0.279152
v 0.274547 -0.432695 0.003449
v -0.275266 -0.432694 0.003449
v -0.275266 -0.312669 -0.216731
v -0.275266 -0.432695 -0.216732
v -0.275266 -0.312669 0.003450
v -0.275266 -0.202164 -0.216731
v -0.275267 -0.432694 0.237165
v -0.275266 -0.202164 0.003451
v -0.275267 -0.312668 0.237164
v -0.275266 -0.078397 0.003451
v -0.275266 -0.078397 -0.216731
v -0.275266 0.036983 0.003451
v -0.275267 -0.202164 0.237164
v -0.275267 -0.078396 0.238438
v -0.275267 0.036983 0.242223
v -0.275257 -0.202164 0.279154
v -0.275257 -0.312669 0.279154
v -0.275256 -0.432694 0.279154
v -0.275258 -0.078396 0.279154
v -0.275259 0.036983 0.279154
v 0.010937 0.036983 0.279155
v 0.010939 -0.312669 0.279155
v 0.010940 -0.432695 0.279155
v 0.274549 -0.312669 0.279152
v 0.274549 -0.432695 0.279152
v 0.274549 -0.202164 0.279152
v 0.010938 -0.202164 0.279155
v 0.274547 -0.078397 0.279151
v 0.010937 -0.078396 0.279155
v 0.274548 0.036983 0.279152
v 0.274548 0.174211 0.279153
v 0.010937 0.174211 0.279155
v 0.274548 0.296171 0.279153
v 0.010936 0.296172 0.279155
v 0.275268 0.395689 0.279153
v -0.275260 0.174211 0.279154
v -0.275260 0.296171 0.279154
v 0.010939 0.412059 0.279154
v -0.275260 0.296171 0.279154
v -0.275258 0.431977 0.279153
v -0.275268 0.296171 0.279154
v -0.275268 0.432695 0.279154
v 0.010937 0.036983 -0.279155
v -0.275260 0.036983 -0.279154
v 0.010937 0.174210 -0.279155
v 0.274547 0.174210 -0.279152
v 0.274547 0.296170 -0.279152
v 0.274548 0.036983 -0.279153
v 0.010937 0.296170 -0.279155
v 0.274548 -0.078397 -0.279152
v -0.275260 0.174211 -0.279154
v -0.275260 0.296170 -0.279154
v -0.275267 0.174210 -0.216731
v -0.275267 0.296171 -0.216732
v -0.275266 0.296171 0.003449
v -0.275266 0.174210 0.003450
v -0.275267 0.174210 0.251155
v -0.275266 0.036983 -0.216731
v -0.275259 0.036983 0.279154
v -0.275260 0.174211 0.279154
v -0.275259 -0.078397 -0.279154
v 0.010938 -0.078397 -0.279155
v -0.275258 -0.202164 -0.279154
v 0.010938 -0.202164 -0.279155
v 0.274548 -0.202164 -0.279152
v 0.274547 -0.312669 -0.279151
v -0.275257 -0.312669 -0.279154
v 0.010938 -0.312669 -0.279155
v 0.010939 -0.432695 -0.279155
v 0.274547 -0.432695 -0.279150
v -0.275256 -0.432695 -0.279154
v -0.275268 0.296171 0.279154
v -0.275266 0.432695 0.003450
v -0.275268 0.432695 0.279154
v -0.275267 0.432695 -0.216732
v -0.275261 0.431647 -0.279154
v -0.275260 0.296170 -0.279154
v 0.010937 0.412061 -0.279154
v 0.010937 0.296170 -0.279155
v 0.275268 0.401339 -0.279154
v 0.274547 0.296170 -0.279152
v 0.275268 0.401258 0.003447
v 0.274547 0.296170 0.003447
v 0.274547 0.296170 -0.279152
v 0.274547 0.174210 0.003447
v 0.274547 0.174210 -0.279152
v 0.274547 0.036983 0.003447
v 0.274548 0.036983 -0.279153
v 0.274548 -0.078397 -0.279152
v 0.274547 -0.078397 0.003447
v 0.274548 -0.202164 -0.279152
v 0.274547 -0.202164 0.003447
v 0.274547 -0.312669 -0.279151
v 0.274547 -0.312669 0.003449
v 0.274547 -0.432695 -0.279150
v 0.274547 -0.432695 0.003449
vt 4.809030 2.706084
vt 4.947463 2.706528
vt 4.947463 2.846574
vt 4.809030 2.527062
vt 4.809030 2.845746
vt 4.809030 2.891038
vt 4.947463 2.891038
vt 4.947463 2.527062
vt 4.809030 2.392389
vt 4.947463 2.392389
vt 4.947463 2.290893
vt 4.809030 2.290893
vt 4.947463 2.177007
vt 4.809030 2.177007
vt 4.809030 2.106575
vt 4.947463 2.106575
vt 4.547419 2.106575
vt 4.369310 2.177007
vt 4.369310 2.106575
vt 4.547419 2.177007
vt 4.369310 2.290893
vt 4.670595 2.106575
vt 4.547419 2.290893
vt 4.670595 2.177007
vt 4.547419 2.392389
vt 4.369310 2.392389
vt 4.547419 2.527062
vt 4.670595 2.290893
vt 4.670595 2.392389
vt 4.670595 2.527062
vt 4.703386 2.290893
vt 4.703386 2.177007
vt 4.703386 2.106575
vt 4.703386 2.392389
vt 4.703386 2.527062
vt 4.736178 2.527062
vt 4.736178 2.177007
vt 4.736178 2.106575
vt 4.809030 2.177007
vt 4.809030 2.106575
vt 4.809030 2.290893
vt 4.736178 2.290893
vt 4.809030 2.392389
vt 4.736178 2.392389
vt 4.809030 2.527062
vt 4.809030 2.706084
vt 4.736178 2.689528
vt 4.809030 2.845746
vt 4.736178 2.814832
vt 4.809030 2.891038
vt 4.703386 2.686872
vt 4.703386 2.809872
vt 4.736178 2.891038
vt 4.703386 2.809872
vt 4.703322 2.891038
vt 4.670595 2.804911
vt 4.670595 2.891038
vt 4.226574 2.527062
vt 4.321732 2.527062
vt 4.242012 2.688115
vt 4.178995 2.693396
vt 4.178995 2.822055
vt 4.178995 2.527062
vt 4.236097 2.812195
vt 4.178995 2.392389
vt 4.337170 2.682878
vt 4.331255 2.802415
vt 4.369310 2.682921
vt 4.369310 2.802496
vt 4.547419 2.802904
vt 4.547419 2.683140
vt 4.670595 2.684215
vt 4.369310 2.527062
vt 4.703386 2.527062
vt 4.703386 2.686872
vt 4.321732 2.392389
vt 4.226574 2.392389
vt 4.321732 2.290893
vt 4.226574 2.290893
vt 4.178995 2.290893
vt 4.178995 2.177007
vt 4.321732 2.177007
vt 4.226574 2.177007
vt 4.226574 2.106575
vt 4.178995 2.106575
vt 4.321732 2.106575
vt 4.670595 2.804911
vt 4.547419 2.891038
vt 4.670595 2.891038
vt 4.369310 2.891038
vt 4.325919 2.891038
vt 4.331255 2.802415
vt 4.178995 2.891038
vt 4.236097 2.812195
vt 4.115766 2.858994
vt 4.178995 2.822055
vt 4.052537 2.826950
vt 4.052537 2.792779
vt 4.178995 2.822055
vt 4.052537 2.695761
vt 4.178995 2.693396
vt 4.052537 2.527062
vt 4.178995 2.527062
vt 4.178995 2.392389
vt 4.052537 2.392389
vt 4.178995 2.290893
vt 4.052537 2.290893
vt 4.178995 2.177007
vt 4.052537 2.177007
vt 4.178995 2.106575
vt 4.052537 2.106575
vn 1.000000 -0.000199 -0.000489
vn 1.000000 -0.000199 -0.000489
vn 1.000000 -0.003130 -0.000489
vn 1.000000 -0.000199 -0.000489
vn 1.000000 -0.003130 -0.000489
vn 1.000000 -0.007038 -0.000489
vn 1.000000 -0.007038 -0.000489
vn 1.000000 -0.000199 0.000489
vn 1.000000 -0.000199 -0.000489
vn 1.000000 -0.000199 0.000489
vn 1.000000 -0.000199 -0.000489
vn 1.000000 -0.000199 -0.000489
vn 1.000000 -0.000199 -0.000489
vn 1.000000 -0.000199 -0.000489
vn 1.000000 -0.000199 -0.000489
vn 1.000000 -0.000199 -0.000489
vn -1.000000 -0.000199 -0.000489
vn -1.000000 -0.000199 -0.000489
vn -1.000000 -0.000199 -0.000489
vn -1.000000 -0.000199 -0.000489
vn -1.000000 -0.000199 -0.000489
vn -1.000000 -0.000199 0.000489
vn -1.000000 -0.000199 -0.000489
vn -1.000000 -0.000199 0.000489
vn -1.000000 -0.000199 -0.000489
vn -1.000000 -0.000199 -0.000489
vn -1.000000 -0.000199 -0.000489
vn -1.000000 -0.000199 0.000489
vn -1.000000 -0.000199 0.000489
vn -1.000000 -0.000199 0.000489
vn -0.144113 -0.000199 0.989253
vn -0.145090 -0.000199 0.989253
vn -0.145090 -0.000199 0.989253
vn -0.138251 -0.000199 0.990230
vn -0.134343 -0.000199 0.991207
vn 0.000489 -0.000199 1.000000
vn 0.000489 -0.000199 1.000000
vn 0.000489 -0.000199 1.000000
vn 0.000489 -0.000199 1.000000
vn 0.000489 -0.000199 1.000000
vn 0.000489 -0.000199 1.000000
vn 0.000489 -0.000199 1.000000
vn 0.000489 -0.000199 1.000000
vn 0.000489 -0.000199 1.000000
vn 0.000489 -0.000199 1.000000
vn 0.000489 -0.000199 1.000000
vn 0.000489 -0.000199 1.000000
vn 0.000489 -0.000199 1.000000
vn 0.000489 -0.000199 1.000000
vn 0.000489 -0.000199 1.000000
vn -0.049340 -0.000199 0.999023
vn -0.048363 -0.000199 0.999023
vn 0.000489 -0.000199 1.000000
vn -0.000489 -0.000199 1.000000
vn -0.000489 -0.000199 1.000000
vn 0.027846 -0.000199 1.000000
vn 0.027846 -0.000199 1.000000
vn 0.000489 -0.000199 -1.000000
vn -0.213483 -0.000199 -0.976551
vn 0.000489 -0.000199 -1.000000
vn 0.000489 -0.000199 -1.000000
vn 0.000489 -0.000199 -1.000000
vn 0.000489 -0.000199 -1.000000
vn 0.000489 -0.000199 -1.000000
vn 0.000489 -0.000199 -1.000000
vn -0.213483 -0.000199 -0.976551
vn -0.213483 -0.000199 -0.976551
vn -1.000000 -0.000199 -0.000489
vn -1.000000 -0.000199 -0.000489
vn -1.000000 -0.000199 -0.000489
vn -1.000000 -0.000199 -0.000489
vn -1.000000 -0.000199 0.000489
vn -1.000000 -0.000199 -0.000489
vn -0.112848 -0.000199 0.993161
vn -0.112848 -0.000199 0.993161
vn -0.213483 -0.000199 -0.976551
vn 0.000489 -0.000199 -1.000000
vn -0.213483 -0.000199 -0.976551
vn 0.000489 -0.000199 -1.000000
vn 0.000489 -0.000199 -1.000000
vn 0.000489 -0.000199 -1.000000
vn -0.213483 -0.000199 -0.976551
vn 0.000489 -0.000199 -1.000000
vn 0.000489 -0.000199 -1.000000
vn 0.000489 -0.000199 -1.000000
vn -0.213483 -0.000199 -0.976551
vn -1.000000 -0.000199 0.000489
vn -1.000000 -0.000199 -0.000489
vn -1.000000 -0.000199 -0.000489
vn -1.000000 -0.000199 -0.000489
vn -0.235955 -0.000199 -0.971666
vn -0.230093 -0.000199 -0.973620
vn 0.000489 -0.000199 -1.000000
vn 0.000489 -0.000199 -1.000000
vn 0.710796 -0.005084 -0.702980
vn 0.710796 -0.005084 -0.703957
vn 1.000000 -0.007038 -0.000489
vn 1.000000 -0.003130 -0.000489
vn 1.000000 -0.000199 0.000489
vn 1.000000 -0.000199 -0.000489
vn 1.000000 -0.000199 0.000489
vn 1.000000 -0.000199 0.000489
vn 1.000000 -0.000199 0.000489
vn 1.000000 -0.000199 0.000489
vn 1.000000 -0.000199 0.000489
vn 1.000000 -0.000199 0.000489
vn 1.000000 -0.000199 -0.000489
vn 1.000000 -0.000199 0.000489
vn 1.000000 -0.000199 -0.000489
vn 1.000000 -0.000199 -0.000489
vn 1.000000 -0.000199 -0.000489
f 1/1/1 2/2/2 3/3/3
f 2/2/2 1/1/1 4/4/4
f 3/3/3 5/5/5 1/1/1
f 3/3/3 6/6/6 5/5/5
f 6/6/6 3/3/3 7/7/7
f 4/4/4 8/8/8 2/2/2
f 8/8/8 4/4/4 9/9/9
f 9/9/9 10/10/10 8/8/8
f 9/9/9 11/11/11 10/10/10
f 11/11/11 9/9/9 12/12/12
f 12/12/12 13/13/13 11/11/11
f 13/13/13 12/12/12 14/14/14
f 13/13/13 14/14/14 15/15/15
f 15/15/15 16/16/16 13/13/13
f 17/17/17 18/18/18 19/19/19
f 18/18/18 17/17/17 20/20/20
f 20/20/20 21/21/21 18/18/18
f 22/22/22 20/20/20 17/17/17
f 21/21/21 20/20/20 23/23/23
f 20/20/20 22/22/22 24/24/24
f 24/24/24 23/23/23 20/20/20
f 25/25/25 21/21/21 23/23/23
f 21/21/21 25/25/25 26/26/26
f 27/27/27 26/26/26 25/25/25
f 28/28/28 25/25/25 23/23/23
f 23/23/23 24/24/24 28/28/28
f 29/29/29 27/27/27 25/25/25
f 25/25/25 28/28/28 29/29/29
f 27/27/27 29/29/29 30/30/30
f 24/24/24 31/31/31 28/28/28
f 29/29/29 28/28/28 31/31/31
f 22/22/22 32/32/32 24/24/24
f 31/31/31 24/24/24 32/32/32
f 32/32/32 22/22/22 33/33/33
f 30/30/30 29/29/29 34/34/34
f 29/29/29 31/31/31 34/34/34
f 30/30/30 34/34/34 35/35/35
f 34/34/34 36/36/36 35/35/35
f 33/33/33 37/37/37 32/32/32
f 37/37/37 33/33/33 38/38/38
f 38/38/38 39/39/39 37/37/37
f 39/39/39 38/38/38 40/40/40
f 41/41/41 37/37/37 39/39/39
f 32/32/32 37/37/37 42/42/42
f 37/37/37 41/41/41 42/42/42
f 32/32/32 42/42/42 31/31/31
f 43/43/43 42/42/42 41/41/41
f 31/31/31 44/44/44 34/34/34
f 31/31/31 42/42/42 44/44/44
f 42/42/42 43/43/43 44/44/44
f 36/36/36 34/34/34 44/44/44
f 43/43/43 36/36/36 44/44/44
f 36/36/36 43/43/43 45/45/45
f 46/46/46 36/36/36 45/45/45
f 36/36/36 46/46/46 47/47/47
f 48/48/48 47/47/47 46/46/46
f 47/47/47 48/48/48 49/49/49
f 50/50/50 49/49/49 48/48/48
f 51/51/51 47/47/47 49/49/49
f 51/51/51 49/49/49 52/52/52
f 49/49/49 50/50/50 53/53/53
f 54/54/54 49/49/49 53/53/53
f 54/54/54 53/53/53 55/55/55
f 55/55/55 56/56/56 54/54/54
f 57/57/57 56/56/56 55/55/55
f 58/58/58 59/59/59 60/60/60
f 61/61/61 58/58/58 60/60/60
f 60/60/60 62/62/62 61/61/61
f 58/58/58 61/61/61 63/63/63
f 62/62/62 60/60/60 64/64/64
f 65/65/65 58/58/58 63/63/63
f 60/60/60 66/66/66 64/64/64
f 66/66/66 60/60/60 59/59/59
f 67/67/67 64/64/64 66/66/66
f 68/68/68 67/67/67 66/66/66
f 59/59/59 68/68/68 66/66/66
f 67/67/67 68/68/68 69/69/69
f 68/68/68 70/70/70 69/69/69
f 70/70/70 68/68/68 71/71/71
f 72/72/72 70/70/70 71/71/71
f 68/68/68 59/59/59 73/73/73
f 73/73/73 71/71/71 68/68/68
f 71/71/71 30/30/30 72/72/72
f 71/71/71 73/73/73 27/27/27
f 30/30/30 71/71/71 27/27/27
f 72/72/72 30/30/30 74/74/74
f 72/72/72 74/74/74 75/75/75
f 74/74/74 47/47/47 75/75/75
f 59/59/59 26/26/26 73/73/73
f 26/26/26 27/27/27 73/73/73
f 47/47/47 74/74/74 36/36/36
f 26/26/26 59/59/59 76/76/76
f 58/58/58 76/76/76 59/59/59
f 76/76/76 21/21/21 26/26/26
f 76/76/76 58/58/58 77/77/77
f 58/58/58 65/65/65 77/77/77
f 77/77/77 78/78/78 76/76/76
f 21/21/21 76/76/76 78/78/78
f 65/65/65 79/79/79 77/77/77
f 78/78/78 77/77/77 79/79/79
f 79/79/79 65/65/65 80/80/80
f 81/81/81 79/79/79 80/80/80
f 79/79/79 82/82/82 78/78/78
f 79/79/79 81/81/81 83/83/83
f 82/82/82 79/79/79 83/83/83
f 81/81/81 84/84/84 83/83/83
f 84/84/84 81/81/81 85/85/85
f 86/86/86 83/83/83 84/84/84
f 83/83/83 86/86/86 82/82/82
f 19/19/19 82/82/82 86/86/86
f 18/18/18 78/78/78 82/82/82
f 82/82/82 19/19/19 18/18/18
f 78/78/78 18/18/18 21/21/21
f 87/87/87 72/72/72 51/51/51
f 88/88/88 87/87/87 89/89/89
f 87/87/87 88/88/88 70/70/70
f 70/70/70 72/72/72 87/87/87
f 88/88/88 69/69/69 70/70/70
f 69/69/69 88/88/88 90/90/90
f 91/91/91 69/69/69 90/90/90
f 69/69/69 91/91/91 92/92/92
f 93/93/93 92/92/92 91/91/91
f 92/92/92 93/93/93 94/94/94
f 95/95/95 94/94/94 93/93/93
f 94/94/94 95/95/95 96/96/96
f 95/95/95 97/97/97 96/96/96
f 96/96/96 97/97/97 98/98/98
f 99/99/99 98/98/98 100/100/100
f 100/100/100 101/101/101 99/99/99
f 101/101/101 100/100/100 102/102/102
f 102/102/102 103/103/103 101/101/101
f 102/102/102 104/104/104 103/103/103
f 104/104/104 102/102/102 105/105/105
f 105/105/105 106/106/106 104/104/104
f 106/106/106 105/105/105 107/107/107
f 107/107/107 108/108/108 106/106/106
f 108/108/108 107/107/107 109/109/109
f 109/109/109 110/110/110 108/108/108
f 110/110/110 109/109/109 111/111/111
