# Generated from Roblox mesh JSON (v7.00)
# Hello from RBX_Toolbox ;)
o LeftHand_body_cage
v 0.309321 0.001801 0.242970
v 0.335722 0.063018 0.176514
v 0.256283 0.245512 0.294223
v 0.231049 -0.057651 0.297345
v 0.250892 0.214195 -0.088483
v 0.335722 0.063018 0.176514
v 0.338789 0.097168 -0.007056
v 0.256283 0.245512 0.294223
v 0.205753 0.235148 -0.272356
v 0.250892 0.214195 -0.088483
v 0.341477 0.093964 -0.185448
v 0.338789 0.097168 -0.007056
v 0.205753 0.235148 -0.272356
v 0.341477 0.093964 -0.185448
v 0.319203 -0.012814 -0.257569
v 0.080743 0.003227 -0.318113
v 0.231049 -0.057651 0.297345
v 0.276724 -0.081009 0.232388
v 0.309321 0.001801 0.242970
v 0.171225 -0.102855 0.251490
v -0.198017 -0.079988 0.306549
v -0.323466 0.206396 0.302223
v -0.317924 0.042527 0.289828
v -0.324360 -0.046747 0.318113
v -0.280611 -0.178246 0.288882
v -0.164556 -0.200928 0.286138
v -0.198017 -0.079988 0.306549
v -0.324360 -0.046747 0.318113
v 0.102875 0.224481 0.283758
v -0.198017 -0.079988 0.306549
v 0.054723 -0.009543 0.302379
v -0.323466 0.206396 0.302223
v 0.231049 -0.057651 0.297345
v 0.102875 0.224481 0.283758
v 0.054723 -0.009543 0.302379
v 0.256283 0.245512 0.294223
v 0.054723 -0.009543 0.302379
v -0.198017 -0.079988 0.306549
v -0.007684 -0.187210 0.256902
v -0.164556 -0.200928 0.286138
v -0.337057 0.047803 -0.261500
v -0.251540 0.014812 -0.304480
v -0.307471 -0.029976 -0.273976
v -0.294369 0.215048 -0.307138
v -0.061510 0.202147 -0.276646
v 0.205753 0.235148 -0.272356
v 0.080743 0.003227 -0.318113
v -0.125285 0.087287 -0.315944
v 0.171225 -0.102855 0.251490
v 0.054723 -0.009543 0.302379
v -0.007684 -0.187210 0.256902
v 0.231049 -0.057651 0.297345
v -0.280611 -0.178246 0.288882
v -0.310619 -0.136181 0.242611
v -0.290128 -0.210733 0.230651
v -0.324360 -0.046747 0.318113
v 0.291205 -0.127698 -0.207195
v 0.080743 0.003227 -0.318113
v 0.319203 -0.012814 -0.257569
v 0.083136 -0.159281 -0.266989
v -0.125285 0.087287 -0.315944
v -0.294369 0.215048 -0.307138
v -0.061510 0.202147 -0.276646
v -0.251540 0.014812 -0.304480
v -0.294369 0.215048 -0.307138
v -0.320881 0.224589 -0.076249
v -0.061510 0.202147 -0.276646
v -0.015655 0.244512 -0.138171
v -0.341477 -0.064914 -0.176108
v -0.337057 0.047803 -0.261500
v -0.307471 -0.029976 -0.273976
v -0.328912 -0.119122 -0.190609
v 0.205753 0.235148 -0.272356
v -0.061510 0.202147 -0.276646
v -0.015655 0.244512 -0.138171
v 0.250892 0.214195 -0.088483
v -0.120726 -0.139673 -0.307202
v 0.080743 0.003227 -0.318113
v 0.083136 -0.159281 -0.266989
v -0.113163 -0.206345 -0.252042
v -0.125285 0.087287 -0.315944
v -0.120726 -0.139673 -0.307202
v -0.175715 -0.054130 -0.285186
v 0.080743 0.003227 -0.318113
v -0.015655 0.244512 -0.138171
v -0.320881 0.224589 -0.076249
v -0.323466 0.206396 0.302223
v 0.102875 0.224481 0.283758
v -0.015655 0.244512 -0.138171
v 0.102875 0.224481 0.283758
v 0.250892 0.214195 -0.088483
v 0.256283 0.245512 0.294223
v -0.337057 0.047803 -0.261500
v -0.320881 0.224589 -0.076249
v -0.294369 0.215048 -0.307138
v -0.334394 0.117780 0.008680
v -0.280611 -0.178246 0.288882
v -0.185562 -0.245512 0.173033
v -0.164556 -0.200928 0.286138
v -0.224269 -0.226070 0.156429
v -0.332565 -0.092999 0.038013
v -0.269726 -0.218745 0.145752
v -0.290362 -0.141283 0.176553
v -0.300541 -0.167950 0.008681
v -0.323466 0.206396 0.302223
v -0.334394 0.117780 0.008680
v -0.317924 0.042527 0.289828
v -0.320881 0.224589 -0.076249
v -0.334394 0.117780 0.008680
v -0.341477 -0.064914 -0.176108
v -0.332565 -0.092999 0.038013
v -0.337057 0.047803 -0.261500
v -0.328912 -0.119122 -0.190609
v -0.300541 -0.167950 0.008681
v -0.341477 -0.064914 -0.176108
v -0.332565 -0.092999 0.038013
v -0.290362 -0.141283 0.176553
v -0.334394 0.117780 0.008680
v -0.332565 -0.092999 0.038013
v -0.317924 0.042527 0.289828
v -0.232124 -0.088783 -0.199621
v -0.175715 -0.054130 -0.285186
v -0.120726 -0.139673 -0.307202
v -0.247120 -0.072299 -0.217216
v -0.215211 -0.047797 -0.205630
v -0.251540 0.014812 -0.304480
v -0.175715 -0.054130 -0.285186
v -0.125285 0.087287 -0.315944
v -0.290128 -0.210733 0.230651
v -0.224269 -0.226070 0.156429
v -0.280611 -0.178246 0.288882
v -0.269726 -0.218745 0.145752
v -0.063002 -0.203295 0.133676
v -0.164556 -0.200928 0.286138
v -0.185562 -0.245512 0.173033
v -0.007684 -0.187210 0.256902
v 0.259846 -0.125972 0.145924
v 0.171225 -0.102855 0.251490
v 0.141823 -0.145110 0.128263
v 0.276724 -0.081009 0.232388
v 0.141823 -0.145110 0.128263
v -0.007684 -0.187210 0.256902
v -0.063002 -0.203295 0.133676
v 0.171225 -0.102855 0.251490
v 0.291205 -0.127698 -0.207195
v 0.081592 -0.162661 -0.191734
v 0.083136 -0.159281 -0.266989
v 0.262957 -0.171201 -0.083759
v -0.232124 -0.088783 -0.199621
v -0.113163 -0.206345 -0.252042
v -0.207387 -0.102129 -0.147903
v -0.120726 -0.139673 -0.307202
v -0.290362 -0.141283 0.176553
v -0.290128 -0.210733 0.230651
v -0.310619 -0.136181 0.242611
v -0.269726 -0.218745 0.145752
v -0.147480 -0.063968 -0.267730
v -0.220145 -0.110692 -0.141405
v -0.251540 0.014812 -0.304480
v -0.098876 -0.129256 -0.147215
v -0.220145 -0.110692 -0.141405
v -0.185562 -0.245512 0.173033
v -0.250594 -0.131236 -0.049146
v -0.224269 -0.226070 0.156429
v -0.310619 -0.136181 0.242611
v -0.324360 -0.046747 0.318113
v -0.317924 0.042527 0.289828
v -0.290362 -0.141283 0.176553
v 0.121878 -0.162132 -0.041635
v -0.063002 -0.203295 0.133676
v -0.098876 -0.129256 -0.147215
v 0.141823 -0.145110 0.128263
v 0.141823 -0.145110 0.128263
v 0.252905 -0.165490 0.055480
v 0.259846 -0.125972 0.145924
v 0.121878 -0.162132 -0.041635
v -0.250594 -0.131236 -0.049146
v -0.307471 -0.029976 -0.273976
v -0.220145 -0.110692 -0.141405
v -0.251540 0.014812 -0.304480
v -0.063002 -0.203295 0.133676
v -0.220145 -0.110692 -0.141405
v -0.098876 -0.129256 -0.147215
v -0.185562 -0.245512 0.173033
v 0.262957 -0.171201 -0.083759
v 0.121878 -0.162132 -0.041635
v 0.081592 -0.162661 -0.191734
v 0.252905 -0.165490 0.055480
v -0.238808 -0.072893 -0.173042
v -0.247120 -0.072299 -0.217216
v -0.207387 -0.102129 -0.147903
v 0.081592 -0.162661 -0.191734
v -0.098876 -0.129256 -0.147215
v -0.147480 -0.063968 -0.267730
v 0.121878 -0.162132 -0.041635
v -0.215211 -0.047797 -0.205630
v -0.247120 -0.072299 -0.217216
v -0.238808 -0.072893 -0.173042
v -0.175715 -0.054130 -0.285186
v -0.232124 -0.088783 -0.199621
v -0.207387 -0.102129 -0.147903
v -0.247120 -0.072299 -0.217216
v -0.250594 -0.131236 -0.049146
v -0.224269 -0.226070 0.156429
v -0.300541 -0.167950 0.008681
v -0.269726 -0.218745 0.145752
v -0.206671 -0.086569 -0.138636
v -0.238808 -0.072893 -0.173042
v -0.207387 -0.102129 -0.147903
v -0.113163 -0.206345 -0.252042
v 0.083136 -0.159281 -0.266989
v 0.081592 -0.162661 -0.191734
v -0.160103 -0.116733 -0.192593
v -0.307471 -0.029976 -0.273976
v -0.250594 -0.131236 -0.049146
v -0.328912 -0.119122 -0.190609
v -0.300541 -0.167950 0.008681
v -0.160103 -0.116733 -0.192593
v -0.251540 0.014812 -0.304480
v -0.215211 -0.047797 -0.205630
v -0.206671 -0.086569 -0.138636
v -0.215211 -0.047797 -0.205630
v -0.238808 -0.072893 -0.173042
v -0.160103 -0.116733 -0.192593
v -0.207387 -0.102129 -0.147903
v -0.160103 -0.116733 -0.192593
v -0.206671 -0.086569 -0.138636
v -0.113163 -0.206345 -0.252042
v -0.160103 -0.116733 -0.192593
v 0.081592 -0.162661 -0.191734
v -0.147480 -0.063968 -0.267730
v -0.160103 -0.116733 -0.192593
v -0.147480 -0.063968 -0.267730
v -0.251540 0.014812 -0.304480
vt 6.333025 3.599324
vt 6.333026 3.572104
vt 6.412535 3.580288
vt 6.412535 3.610332
vt 6.412535 3.547842
vt 6.333026 3.572104
vt 6.333026 3.530821
vt 6.412535 3.580288
vt 6.412535 3.505410
vt 6.412535 3.547842
vt 6.333026 3.482428
vt 6.333026 3.530821
vt 6.412535 3.505410
vt 6.333026 3.482428
vt 6.333026 3.414663
vt 6.412535 3.419507
vt 6.412535 3.610332
vt 6.333026 3.699004
vt 6.333025 3.599324
vt 6.412535 3.699004
vt 6.499997 3.610332
vt 6.498085 3.572372
vt 6.571557 3.570577
vt 6.571557 3.610332
vt 6.571557 3.699004
vt 6.499997 3.699004
vt 6.499997 3.610332
vt 6.571557 3.610332
vt 6.455310 3.576329
vt 6.499997 3.610332
vt 6.456266 3.610332
vt 6.498085 3.572372
vt 6.412535 3.610332
vt 6.455310 3.576329
vt 6.456266 3.610332
vt 6.412535 3.580288
vt 6.456266 3.610332
vt 6.499997 3.610332
vt 6.456266 3.699004
vt 6.499997 3.699004
vt 6.571557 3.451311
vt 6.505773 3.352882
vt 6.571557 3.352426
vt 6.514691 3.452105
vt 6.573892 3.909998
vt 6.552289 3.950106
vt 6.536945 3.909998
vt 6.573892 3.887921
vt 6.412535 3.699004
vt 6.456266 3.610332
vt 6.456266 3.699004
vt 6.412535 3.610332
vt 6.571557 3.699004
vt 6.619263 3.610332
vt 6.619263 3.699004
vt 6.571557 3.610332
vt 6.333025 3.352426
vt 6.412535 3.419507
vt 6.333026 3.414663
vt 6.398888 3.352426
vt 6.573892 3.887921
vt 6.595814 3.948965
vt 6.573892 3.909998
vt 6.610838 3.909998
vt 6.514691 3.452105
vt 6.496021 3.531377
vt 6.492046 3.452421
vt 6.454278 3.539609
vt 6.619263 3.451311
vt 6.571557 3.451311
vt 6.571557 3.352426
vt 6.619263 3.352426
vt 6.412535 3.505410
vt 6.492046 3.452421
vt 6.454278 3.539609
vt 6.412535 3.547842
vt 6.536944 3.848419
vt 6.536945 3.909998
vt 6.499997 3.909998
vt 6.499997 3.848419
vt 6.573892 3.887921
vt 6.536944 3.848419
vt 6.573892 3.848419
vt 6.536945 3.909998
vt 6.454278 3.539609
vt 6.496021 3.531377
vt 6.498085 3.572372
vt 6.455310 3.576329
vt 6.454278 3.539609
vt 6.455310 3.576329
vt 6.412535 3.547842
vt 6.412535 3.580288
vt 6.571557 3.451311
vt 6.496021 3.531377
vt 6.514691 3.452105
vt 6.571557 3.530821
vt 6.571557 3.209337
vt 6.501441 3.245223
vt 6.499997 3.209337
vt 6.571557 3.245109
vt 6.619263 3.530821
vt 6.666968 3.570577
vt 6.619263 3.570577
vt 6.666968 3.530821
vt 6.498085 3.572372
vt 6.571557 3.530821
vt 6.571557 3.570577
vt 6.496021 3.531377
vt 6.571557 3.530821
vt 6.619263 3.451311
vt 6.619263 3.530821
vt 6.571557 3.451311
vt 6.666968 3.451311
vt 6.666968 3.530821
vt 6.619263 3.451311
vt 6.619263 3.530821
vt 6.619263 3.570577
vt 6.571557 3.530821
vt 6.619263 3.530821
vt 6.571557 3.570577
vt 6.536945 3.799156
vt 6.573892 3.848419
vt 6.536944 3.848419
vt 6.573892 3.799156
vt 6.610838 3.848419
vt 6.610838 3.909998
vt 6.573892 3.848419
vt 6.573892 3.887921
vt 6.619263 3.209337
vt 6.571557 3.245109
vt 6.571557 3.209337
vt 6.619263 3.245109
vt 6.470054 3.242566
vt 6.499997 3.209337
vt 6.501441 3.245223
vt 6.456266 3.209337
vt 6.333025 3.265375
vt 6.412535 3.209337
vt 6.412535 3.266474
vt 6.333025 3.209337
vt 6.412535 3.266474
vt 6.456266 3.209337
vt 6.470054 3.242566
vt 6.412535 3.209337
vt 6.333025 3.352426
vt 6.412535 3.320622
vt 6.398888 3.352426
vt 6.333025 3.320637
vt 6.536945 3.799156
vt 6.499997 3.848419
vt 6.499997 3.799156
vt 6.536944 3.848419
vt 6.619263 3.570577
vt 6.666968 3.610332
vt 6.619263 3.610332
vt 6.666968 3.570577
vt 6.472488 3.322501
vt 6.502885 3.281110
vt 6.505773 3.352882
vt 6.483841 3.275795
vt 6.502885 3.281110
vt 6.501441 3.245223
vt 6.571557 3.280881
vt 6.571557 3.245109
vt 6.619263 3.610332
vt 6.571557 3.610332
vt 6.571557 3.570577
vt 6.619263 3.570577
vt 6.412535 3.288847
vt 6.470054 3.242566
vt 6.483841 3.275795
vt 6.412535 3.266474
vt 6.412535 3.266474
vt 6.333025 3.288847
vt 6.333025 3.265375
vt 6.412535 3.288847
vt 6.571557 3.280881
vt 6.571557 3.352426
vt 6.502885 3.281110
vt 6.505773 3.352882
vt 6.470054 3.242566
vt 6.502885 3.281110
vt 6.483841 3.275795
vt 6.501441 3.245223
vt 6.333025 3.320637
vt 6.412535 3.288847
vt 6.412535 3.320622
vt 6.333025 3.288847
vt 6.499997 3.749893
vt 6.536944 3.762209
vt 6.499997 3.799156
vt 6.412535 3.320622
vt 6.483841 3.275795
vt 6.472488 3.322501
vt 6.412535 3.288847
vt 6.610838 3.848419
vt 6.573892 3.799156
vt 6.610838 3.799156
vt 6.573892 3.848419
vt 6.536945 3.799156
vt 6.499997 3.799156
vt 6.536944 3.762209
vt 6.571557 3.280881
vt 6.571557 3.245109
vt 6.619263 3.280882
vt 6.619263 3.245109
vt 6.463049 3.799156
vt 6.499997 3.749893
vt 6.499997 3.799156
vt 6.499997 3.848419
vt 6.499997 3.909998
vt 6.463049 3.909998
vt 6.463049 3.848419
vt 6.571557 3.352426
vt 6.571557 3.280881
vt 6.619263 3.352426
vt 6.619263 3.280882
vt 6.463049 3.848419
vt 6.389155 3.909998
vt 6.389155 3.848419
vt 6.463049 3.799156
vt 6.389155 3.848419
vt 6.389155 3.799156
vt 6.463049 3.848419
vt 6.499997 3.799156
vt 6.463049 3.848419
vt 6.463049 3.799156
vt 6.499997 3.848419
vt 6.463049 3.848419
vt 6.463049 3.909998
vt 6.425587 3.910354
vt 6.463049 3.848419
vt 6.425587 3.910354
vt 6.389155 3.909998
vn 0.745226 0.021722 0.666951
vn 0.745226 0.021722 0.666951
vn 0.745226 0.021722 0.666951
vn 0.745226 0.021722 0.666951
vn 0.873064 0.488185 -0.001516
vn 0.873064 0.488185 -0.001516
vn 0.873064 0.488185 -0.001516
vn 0.873064 0.488185 -0.001516
vn 0.773526 0.630661 -0.060068
vn 0.773526 0.630661 -0.060068
vn 0.773526 0.630661 -0.060068
vn 0.773526 0.630661 -0.060068
vn 0.411481 0.134922 -0.901263
vn 0.411481 0.134922 -0.901263
vn 0.411481 0.134922 -0.901263
vn 0.411481 0.134922 -0.901263
vn 0.511995 -0.628204 0.585954
vn 0.511995 -0.628204 0.585954
vn 0.511995 -0.628204 0.585954
vn 0.511995 -0.628204 0.585954
vn -0.074500 0.062708 0.994841
vn -0.074500 0.062708 0.994841
vn -0.074500 0.062708 0.994841
vn -0.074500 0.062708 0.994841
vn 0.014304 -0.189065 0.982155
vn 0.014304 -0.189065 0.982155
vn 0.014304 -0.189065 0.982155
vn 0.014304 -0.189065 0.982155
vn 0.026990 0.048070 0.998744
vn 0.026990 0.048070 0.998744
vn 0.026990 0.048070 0.998744
vn 0.026990 0.048070 0.998744
vn -0.013020 0.042215 0.998744
vn -0.013020 0.042215 0.998744
vn -0.013020 0.042215 0.998744
vn -0.013020 0.042215 0.998744
vn 0.125552 -0.225172 0.966541
vn 0.125552 -0.225172 0.966541
vn 0.125552 -0.225172 0.966541
vn 0.125552 -0.225172 0.966541
vn -0.475580 -0.093430 -0.874914
vn -0.475580 -0.093430 -0.874914
vn -0.475580 -0.093430 -0.874914
vn -0.475580 -0.093430 -0.874914
vn 0.028942 0.223725 -0.974452
vn 0.028942 0.223725 -0.974452
vn 0.028942 0.223725 -0.974452
vn 0.028942 0.223725 -0.974452
vn 0.068952 -0.410586 0.908965
vn 0.068952 -0.410586 0.908965
vn 0.068952 -0.410586 0.908965
vn 0.068952 -0.410586 0.908965
vn -0.900081 -0.336421 0.277581
vn -0.900081 -0.336421 0.277581
vn -0.900081 -0.336421 0.277581
vn -0.900081 -0.336421 0.277581
vn 0.255342 -0.353010 -0.900287
vn 0.255342 -0.353010 -0.900287
vn 0.255342 -0.353010 -0.900287
vn 0.255342 -0.353010 -0.900287
vn 0.033821 0.113453 -0.992994
vn 0.033821 0.113453 -0.992994
vn 0.033821 0.113453 -0.992994
vn 0.033821 0.113453 -0.992994
vn -0.020827 0.989779 -0.138137
vn -0.020827 0.989779 -0.138137
vn -0.020827 0.989779 -0.138137
vn -0.020827 0.989779 -0.138137
vn -0.898129 -0.207606 -0.386007
vn -0.898129 -0.207606 -0.386007
vn -0.898129 -0.207606 -0.386007
vn -0.898129 -0.207606 -0.386007
vn 0.001618 0.997586 -0.066899
vn 0.001618 0.997586 -0.066899
vn 0.001618 0.997586 -0.066899
vn 0.001618 0.997586 -0.066899
vn 0.138239 -0.411562 -0.901263
vn 0.138239 -0.411562 -0.901263
vn 0.138239 -0.411562 -0.901263
vn 0.138239 -0.411562 -0.901263
vn -0.118414 -0.040734 -0.992018
vn -0.118414 -0.040734 -0.992018
vn -0.118414 -0.040734 -0.992018
vn -0.118414 -0.040734 -0.992018
vn -0.046200 0.997586 0.054108
vn -0.046200 0.997586 0.054108
vn -0.046200 0.997586 0.054108
vn -0.046200 0.997586 0.054108
vn 0.025038 0.999537 -0.018106
vn 0.025038 0.999537 -0.018106
vn 0.025038 0.999537 -0.018106
vn 0.025038 0.999537 -0.018106
vn -0.983029 0.167125 -0.073730
vn -0.983029 0.167125 -0.073730
vn -0.983029 0.167125 -0.073730
vn -0.983029 0.167125 -0.073730
vn -0.275528 -0.912180 0.303929
vn -0.275528 -0.912180 0.303929
vn -0.275528 -0.912180 0.303929
vn -0.275528 -0.912180 0.303929
vn -0.924477 -0.364721 0.113636
vn -0.924477 -0.364721 0.113636
vn -0.924477 -0.364721 0.113636
vn -0.924477 -0.364721 0.113636
vn -0.998643 0.036360 0.025808
vn -0.998643 0.036360 0.025808
vn -0.998643 0.036360 0.025808
vn -0.998643 0.036360 0.025808
vn -0.999619 0.015866 0.022880
vn -0.999619 0.015866 0.022880
vn -0.999619 0.015866 0.022880
vn -0.999619 0.015866 0.022880
vn -0.943019 -0.333493 0.022880
vn -0.943019 -0.333493 0.022880
vn -0.943019 -0.333493 0.022880
vn -0.943019 -0.333493 0.022880
vn -0.988884 -0.097334 0.109732
vn -0.988884 -0.097334 0.109732
vn -0.988884 -0.097334 0.109732
vn -0.988884 -0.097334 0.109732
vn -0.663922 -0.429128 -0.611431
vn -0.663922 -0.429128 -0.611431
vn -0.663922 -0.429128 -0.611431
vn -0.663922 -0.429128 -0.611431
vn -0.251131 -0.506221 -0.825145
vn -0.251131 -0.506221 -0.825145
vn -0.251131 -0.506221 -0.825145
vn -0.251131 -0.506221 -0.825145
vn 0.090421 -0.956094 0.277581
vn 0.090421 -0.956094 0.277581
vn 0.090421 -0.956094 0.277581
vn 0.090421 -0.956094 0.277581
vn 0.233873 -0.957070 0.170236
vn 0.233873 -0.957070 0.170236
vn 0.233873 -0.957070 0.170236
vn 0.233873 -0.957070 0.170236
vn 0.171418 -0.922915 0.345891
vn 0.171418 -0.922915 0.345891
vn 0.171418 -0.922915 0.345891
vn 0.171418 -0.922915 0.345891
vn 0.349025 -0.931698 0.100950
vn 0.349025 -0.931698 0.100950
vn 0.349025 -0.931698 0.100950
vn 0.349025 -0.931698 0.100950
vn 0.146046 -0.967805 -0.206448
vn 0.146046 -0.967805 -0.206448
vn 0.146046 -0.967805 -0.206448
vn 0.146046 -0.967805 -0.206448
vn -0.734184 -0.631131 -0.250361
vn -0.734184 -0.631131 -0.250361
vn -0.734184 -0.631131 -0.250361
vn -0.734184 -0.631131 -0.250361
vn -0.951801 -0.190041 -0.239627
vn -0.951801 -0.190041 -0.239627
vn -0.951801 -0.190041 -0.239627
vn -0.951801 -0.190041 -0.239627
vn -0.293093 -0.829232 -0.475786
vn -0.293093 -0.829232 -0.475786
vn -0.293093 -0.829232 -0.475786
vn -0.293093 -0.829232 -0.475786
vn -0.359452 -0.868266 -0.341117
vn -0.359452 -0.868266 -0.341117
vn -0.359452 -0.868266 -0.341117
vn -0.359452 -0.868266 -0.341117
vn -0.967415 0.026601 -0.250361
vn -0.967415 0.026601 -0.250361
vn -0.967415 0.026601 -0.250361
vn -0.967415 0.026601 -0.250361
vn 0.090421 -0.986346 -0.136185
vn 0.090421 -0.986346 -0.136185
vn 0.090421 -0.986346 -0.136185
vn 0.090421 -0.986346 -0.136185
vn -0.037417 -0.975611 0.216102
vn -0.037417 -0.975611 0.216102
vn -0.037417 -0.975611 0.216102
vn -0.037417 -0.975611 0.216102
vn -0.049127 -0.867291 -0.495303
vn -0.049127 -0.867291 -0.495303
vn -0.049127 -0.867291 -0.495303
vn -0.049127 -0.867291 -0.495303
vn 0.029918 -0.942432 -0.334286
vn 0.029918 -0.942432 -0.334286
vn 0.029918 -0.942432 -0.334286
vn 0.029918 -0.942432 -0.334286
vn -0.055958 -0.998056 0.027760
vn -0.055958 -0.998056 0.027760
vn -0.055958 -0.998056 0.027760
vn -0.055958 -0.998056 0.027760
vn -0.728329 -0.673094 0.128274
vn -0.728329 -0.673094 0.128274
vn -0.728329 -0.673094 0.128274
vn -0.217952 -0.962925 -0.158630
vn -0.217952 -0.962925 -0.158630
vn -0.217952 -0.962925 -0.158630
vn -0.217952 -0.962925 -0.158630
vn -0.557552 0.810220 -0.178147
vn -0.557552 0.810220 -0.178147
vn -0.557552 0.810220 -0.178147
vn -0.557552 0.810220 -0.178147
vn -0.840553 -0.463283 0.282460
vn -0.840553 -0.463283 0.282460
vn -0.840553 -0.463283 0.282460
vn 0.082614 -0.912180 -0.401620
vn 0.082614 -0.912180 -0.401620
vn 0.082614 -0.912180 -0.401620
vn 0.082614 -0.912180 -0.401620
vn -0.752725 -0.311048 0.580099
vn -0.752725 -0.311048 0.580099
vn -0.752725 -0.311048 0.580099
vn 0.020159 -0.838990 0.543992
vn 0.020159 -0.838990 0.543992
vn 0.020159 -0.838990 0.543992
vn 0.020159 -0.838990 0.543992
vn 0.561764 -0.738476 -0.374296
vn 0.561764 -0.738476 -0.374296
vn 0.561764 -0.738476 -0.374296
vn 0.561764 -0.738476 -0.374296
vn 0.763767 0.633588 0.120467
vn 0.763767 0.633588 0.120467
vn 0.763767 0.633588 0.120467
vn 0.520777 0.766306 0.377119
vn 0.520777 0.766306 0.377119
vn 0.520777 0.766306 0.377119
vn 0.520777 0.766306 0.377119
vn 0.637881 -0.204679 0.742092
vn 0.637881 -0.204679 0.742092
vn 0.637881 -0.204679 0.742092
vn 0.637881 -0.204679 0.742092
vn 0.148973 0.797533 0.584978
vn 0.148973 0.797533 0.584978
vn 0.148973 0.797533 0.584978
vn 0.353905 0.736054 0.576195
vn 0.353905 0.736054 0.576195
vn 0.353905 0.736054 0.576195
f 1/1/1 2/2/2 3/3/3
f 1/1/1 3/3/3 4/4/4
f 5/5/5 6/6/6 7/7/7
f 6/6/6 5/5/5 8/8/8
f 9/9/9 10/10/10 11/11/11
f 12/12/12 11/11/11 10/10/10
f 13/13/13 14/14/14 15/15/15
f 15/15/15 16/16/16 13/13/13
f 17/17/17 18/18/18 19/19/19
f 18/18/18 17/17/17 20/20/20
f 21/21/21 22/22/22 23/23/23
f 24/24/24 21/21/21 23/23/23
f 25/25/25 26/26/26 27/27/27
f 27/27/27 28/28/28 25/25/25
f 29/29/29 30/30/30 31/31/31
f 30/30/30 29/29/29 32/32/32
f 33/33/33 34/34/34 35/35/35
f 34/34/34 33/33/33 36/36/36
f 37/37/37 38/38/38 39/39/39
f 39/39/39 38/38/38 40/40/40
f 41/41/41 42/42/42 43/43/43
f 42/42/42 41/41/41 44/44/44
f 45/45/45 46/46/46 47/47/47
f 47/47/47 48/48/48 45/45/45
f 49/49/49 50/50/50 51/51/51
f 50/50/50 49/49/49 52/52/52
f 53/53/53 54/54/54 55/55/55
f 54/54/54 53/53/53 56/56/56
f 57/57/57 58/58/58 59/59/59
f 58/58/58 57/57/57 60/60/60
f 61/61/61 62/62/62 63/63/63
f 62/62/62 61/61/61 64/64/64
f 65/65/65 66/66/66 67/67/67
f 67/67/67 66/66/66 68/68/68
f 69/69/69 70/70/70 71/71/71
f 69/69/69 71/71/71 72/72/72
f 73/73/73 74/74/74 75/75/75
f 73/73/73 75/75/75 76/76/76
f 77/77/77 78/78/78 79/79/79
f 77/77/77 79/79/79 80/80/80
f 81/81/81 82/82/82 83/83/83
f 82/82/82 81/81/81 84/84/84
f 85/85/85 86/86/86 87/87/87
f 87/87/87 88/88/88 85/85/85
f 89/89/89 90/90/90 91/91/91
f 91/91/91 90/90/90 92/92/92
f 93/93/93 94/94/94 95/95/95
f 94/94/94 93/93/93 96/96/96
f 97/97/97 98/98/98 99/99/99
f 98/98/98 97/97/97 100/100/100
f 101/101/101 102/102/102 103/103/103
f 102/102/102 101/101/101 104/104/104
f 105/105/105 106/106/106 107/107/107
f 106/106/106 105/105/105 108/108/108
f 109/109/109 110/110/110 111/111/111
f 110/110/110 109/109/109 112/112/112
f 113/113/113 114/114/114 115/115/115
f 115/115/115 114/114/114 116/116/116
f 117/117/117 118/118/118 119/119/119
f 120/120/120 118/118/118 117/117/117
f 121/121/121 122/122/122 123/123/123
f 122/122/122 121/121/121 124/124/124
f 125/125/125 126/126/126 127/127/127
f 126/126/126 128/128/128 127/127/127
f 129/129/129 130/130/130 131/131/131
f 130/130/130 129/129/129 132/132/132
f 133/133/133 134/134/134 135/135/135
f 134/134/134 133/133/133 136/136/136
f 137/137/137 138/138/138 139/139/139
f 138/138/138 137/137/137 140/140/140
f 141/141/141 142/142/142 143/143/143
f 142/142/142 141/141/141 144/144/144
f 145/145/145 146/146/146 147/147/147
f 146/146/146 145/145/145 148/148/148
f 149/149/149 150/150/150 151/151/151
f 149/149/149 152/152/152 150/150/150
f 153/153/153 154/154/154 155/155/155
f 154/154/154 153/153/153 156/156/156
f 157/157/157 158/158/158 159/159/159
f 158/158/158 157/157/157 160/160/160
f 161/161/161 162/162/162 163/163/163
f 163/163/163 162/162/162 164/164/164
f 165/165/165 166/166/166 167/167/167
f 167/167/167 168/168/168 165/165/165
f 169/169/169 170/170/170 171/171/171
f 170/170/170 169/169/169 172/172/172
f 173/173/173 174/174/174 175/175/175
f 174/174/174 173/173/173 176/176/176
f 177/177/177 178/178/178 179/179/179
f 179/179/179 178/178/178 180/180/180
f 181/181/181 182/182/182 183/183/183
f 182/182/182 181/181/181 184/184/184
f 185/185/185 186/186/186 187/187/187
f 186/186/186 185/185/185 188/188/188
f 189/189/189 190/190/190 191/191/191
f 192/192/192 193/193/193 194/194/194
f 193/193/193 192/192/192 195/195/195
f 196/196/196 197/197/197 198/198/198
f 197/197/197 196/196/196 199/199/199
f 200/200/200 201/201/201 202/202/202
f 203/203/203 204/204/204 205/205/205
f 205/205/205 204/204/204 206/206/206
f 207/207/207 208/208/208 209/209/209
f 210/210/210 211/211/211 212/212/212
f 210/210/210 212/212/212 213/213/213
f 214/214/214 215/215/215 216/216/216
f 216/216/216 215/215/215 217/217/217
f 218/218/218 219/219/219 220/220/220
f 221/221/221 222/222/222 223/223/223
f 222/222/222 221/221/221 224/224/224
f 225/225/225 226/226/226 227/227/227
f 226/226/226 225/225/225 228/228/228
f 229/229/229 230/230/230 231/231/231
f 232/232/232 233/233/233 234/234/234
