# Generated from Roblox mesh JSON (v7.00)
# Hello from RBX_Toolbox ;)
o LowerTorso_body_cage
v -0.551250 0.063380 0.279154
v -0.551250 0.160629 0.279154
v -0.551250 0.160629 0.279154
v -0.551250 0.063380 0.279154
v -0.551250 0.063380 0.279154
v -0.551250 -0.032106 0.279154
v -0.551250 0.063380 0.279154
v -0.551250 -0.032107 0.279154
v 0.551250 -0.032106 0.279154
v 0.551250 0.063380 0.279154
v 0.551250 0.063380 0.279154
v 0.551250 -0.032107 0.279154
v 0.551250 0.160629 0.279154
v 0.551250 0.063380 0.279154
v 0.551250 0.160629 0.279154
v 0.551250 0.063380 0.279154
v -0.551250 0.063380 0.003447
v -0.551250 -0.032106 0.279154
v -0.551250 0.063380 0.279154
v -0.551250 0.160629 0.279154
v -0.551250 0.160629 0.003447
v -0.551250 -0.032107 0.003447
v -0.551248 -0.123623 0.003450
v -0.551250 -0.123623 0.279154
v 0.551250 0.063380 0.003447
v 0.551250 -0.032106 0.279154
v 0.551250 -0.032107 0.003447
v 0.551248 -0.123623 0.003450
v 0.551250 -0.123623 0.279154
v 0.551250 0.063380 0.279154
v 0.551250 0.160629 0.279154
v 0.551250 0.160629 0.003447
v -0.023309 -0.107741 -0.279154
v 0.000000 -0.032106 -0.279154
v 0.000000 -0.113582 -0.279154
v -0.003842 -0.146595 -0.279154
v 0.000000 -0.146273 -0.279154
v -0.000401 -0.154917 0.003447
v 0.000000 -0.154924 0.003447
v 0.023309 -0.107741 -0.279154
v 0.131689 -0.032107 -0.279154
v 0.003842 -0.146595 -0.279154
v 0.000000 -0.146273 -0.279154
v 0.000401 -0.154904 0.003447
v 0.000000 -0.154924 0.003447
v 0.265045 -0.144257 -0.279154
v 0.000714 -0.154979 -0.279154
v 0.003842 -0.146595 -0.279154
v 0.000401 -0.154904 0.003447
v 0.301571 -0.032107 -0.279154
v 0.551243 -0.124671 -0.279153
v 0.177436 0.063380 -0.279154
v 0.551250 -0.032107 -0.279154
v 0.551249 -0.123623 -0.216731
v 0.329898 0.063380 -0.279154
v 0.187284 0.160629 -0.279154
v 0.551250 -0.032107 -0.279154
v 0.356565 0.160629 -0.279154
v 0.551250 0.063380 -0.279154
v 0.551250 0.160629 -0.279154
v 0.551250 -0.032107 -0.216730
v 0.551250 -0.032107 0.003447
v 0.551248 -0.123623 0.003450
v 0.551250 0.063380 0.003447
v 0.551250 0.063380 -0.216730
v 0.551250 0.160629 0.003447
v 0.551250 0.160629 -0.216730
v 0.551250 0.160629 -0.279154
v 0.551250 0.063380 -0.279154
v 0.551250 -0.032107 -0.279154
v -0.000401 -0.154917 0.003447
v -0.000714 -0.154979 -0.279154
v -0.003842 -0.146595 -0.279154
v -0.265045 -0.144257 -0.279154
v -0.131689 -0.032107 -0.279154
v -0.301571 -0.032107 -0.279154
v -0.551243 -0.124671 -0.279153
v -0.551250 -0.032107 -0.279154
v -0.551249 -0.123623 -0.216731
v -0.551250 -0.032107 -0.216730
v -0.551250 -0.032107 0.003447
v -0.551248 -0.123623 0.003450
v -0.551250 0.063380 0.003447
v -0.551250 0.063380 -0.216730
v -0.551250 0.160629 0.003447
v -0.551250 0.160629 -0.216730
v -0.551250 0.160629 -0.279154
v -0.551250 0.063380 -0.279154
v -0.551250 -0.032107 -0.279154
v -0.177436 0.063380 -0.279154
v -0.329898 0.063380 -0.279154
v -0.551250 -0.032107 -0.279154
v -0.551250 0.063380 -0.279154
v -0.356565 0.160629 -0.279154
v -0.551250 0.160629 -0.279154
v -0.187284 0.160629 -0.279154
v 0.000000 0.160629 -0.279154
v 0.000000 0.063380 -0.279154
v -0.551250 0.063380 0.279154
v -0.265051 0.160629 0.279154
v -0.551250 0.160629 0.279154
v -0.248327 0.063380 0.279154
v -0.551250 -0.032107 0.279154
v -0.197388 -0.032106 0.279154
v -0.551240 -0.124341 0.279154
v 0.000000 0.063380 0.279154
v -0.104489 -0.081384 0.279154
v 0.000000 -0.032106 0.279154
v 0.197388 -0.032106 0.279154
v 0.248327 0.063380 0.279154
v 0.104489 -0.081388 0.279154
v 0.551240 -0.124337 0.279154
v 0.551250 -0.032107 0.279154
v 0.551250 0.063380 0.279154
v 0.265051 0.160629 0.279154
v 0.551250 0.160629 0.279154
v 0.000000 -0.085256 0.279154
v 0.061329 -0.107745 0.279154
v -0.061329 -0.107745 0.279154
v 0.000000 -0.113583 0.279154
v 0.003609 -0.147209 0.279154
v -0.003609 -0.147222 0.279154
v 0.000000 -0.148533 0.279154
v -0.265043 -0.144259 0.279154
v -0.061329 -0.107745 0.279154
v -0.104489 -0.081384 0.279154
v -0.551240 -0.124341 0.279154
v -0.000714 -0.160629 0.279154
v -0.003609 -0.147222 0.279154
v 0.000000 0.160629 0.279154
v -0.248327 0.063380 0.279154
v 0.000000 0.063380 0.279154
v -0.265051 0.160629 0.279154
v 0.248327 0.063380 0.279154
v 0.265051 0.160629 0.279154
v 0.551240 -0.124337 0.279154
v 0.104489 -0.081388 0.279154
v 0.265043 -0.144259 0.279154
v 0.061329 -0.107745 0.279154
v 0.000714 -0.160615 0.279154
v 0.003609 -0.147209 0.279154
v 0.551250 -0.032107 0.279154
v 0.551240 -0.124337 0.279154
v 0.551250 -0.123623 0.279154
v 0.551250 -0.032106 0.279154
v -0.551240 -0.124341 0.279154
v -0.551250 -0.032107 0.279154
v -0.551250 -0.123623 0.279154
v -0.551250 -0.032106 0.279154
v 0.000000 -0.148533 0.279154
v -0.000401 -0.154917 0.003447
v 0.000000 -0.154924 0.003447
v -0.003609 -0.147222 0.279154
v 0.000401 -0.154904 0.003447
v 0.000000 -0.148533 0.279154
v 0.000000 -0.154924 0.003447
v 0.003609 -0.147209 0.279154
v -0.000401 -0.154917 0.003447
v -0.000714 -0.160629 0.279154
v -0.000714 -0.155060 0.003447
v -0.000714 -0.154979 -0.279154
v -0.000401 -0.154917 0.003447
v -0.000714 -0.155060 0.003447
v 0.000714 -0.155047 0.003447
v 0.000714 -0.160615 0.279154
v 0.000401 -0.154904 0.003447
v 0.000401 -0.154904 0.003447
v 0.000714 -0.154979 -0.279154
v 0.000714 -0.155047 0.003447
v -0.000714 -0.160629 0.279154
v -0.000401 -0.154917 0.003447
v -0.003609 -0.147222 0.279154
v 0.000714 -0.160615 0.279154
v 0.003609 -0.147209 0.279154
v 0.000401 -0.154904 0.003447
vt 3.827801 1.412895
vt 3.663952 1.327824
vt 3.827801 1.327824
vt 3.663952 1.376977
vt 3.827801 1.412895
vt 3.827801 1.481448
vt 3.663952 1.376977
vt 3.663952 1.417460
vt 3.172199 1.481448
vt 3.172199 1.412895
vt 3.336048 1.376977
vt 3.336048 1.417460
vt 3.336048 1.327824
vt 3.172199 1.412895
vt 3.172199 1.327824
vt 3.336048 1.376977
vt 3.991649 1.429885
vt 3.827801 1.481448
vt 3.827801 1.412895
vt 3.827801 1.327824
vt 3.991649 1.327824
vt 3.991649 1.489942
vt 3.991649 1.550001
vt 3.827801 1.550001
vt 3.008351 1.429885
vt 3.172199 1.481448
vt 3.008351 1.489942
vt 3.008351 1.550001
vt 3.172199 1.550001
vt 3.172199 1.412895
vt 3.172199 1.327824
vt 3.008351 1.327824
vt 3.575256 2.349955
vt 3.500000 2.457932
vt 3.500000 2.349956
vt 3.554923 2.306781
vt 3.500000 2.306782
vt 3.534590 2.263607
vt 3.500000 2.263608
vt 3.424744 2.349955
vt 3.424744 2.457932
vt 3.445077 2.306781
vt 3.500000 2.306782
vt 3.465409 2.263607
vt 3.500000 2.263608
vt 3.348202 2.349955
vt 3.389029 2.306781
vt 3.445077 2.306781
vt 3.465409 2.263607
vt 3.348202 2.457932
vt 3.264923 2.394740
vt 3.424744 2.553485
vt 3.275820 2.445803
vt 3.195116 2.432280
vt 3.348202 2.552480
vt 3.424744 2.636393
vt 3.275820 2.445803
vt 3.348202 2.636393
vt 3.271659 2.549852
vt 3.271659 2.636393
vt 3.186493 2.489494
vt 3.042032 2.487455
vt 3.042032 2.432280
vt 3.042032 2.542630
vt 3.177870 2.546707
vt 3.042032 2.636393
vt 3.167464 2.636393
vt 3.271659 2.636393
vt 3.271659 2.549852
vt 3.275820 2.445803
vt 3.534590 2.263607
vt 3.610971 2.306781
vt 3.554923 2.306781
vt 3.651798 2.349955
vt 3.575256 2.457932
vt 3.651798 2.457932
vt 3.735077 2.394740
vt 3.724180 2.445803
vt 3.804884 2.432280
vt 3.813507 2.489494
vt 3.957968 2.487455
vt 3.957968 2.432280
vt 3.957968 2.542630
vt 3.822130 2.546707
vt 3.957968 2.636393
vt 3.832536 2.636393
vt 3.728341 2.636393
vt 3.728341 2.549852
vt 3.724180 2.445803
vt 3.575256 2.553485
vt 3.651798 2.552480
vt 3.724180 2.445803
vt 3.728341 2.549852
vt 3.651798 2.636393
vt 3.728341 2.636393
vt 3.575256 2.636393
vt 3.500000 2.636393
vt 3.500000 2.554491
vt 3.663952 1.376977
vt 3.582026 1.327824
vt 3.663952 1.327824
vt 3.582026 1.377045
vt 3.663952 1.417460
vt 3.582026 1.417494
vt 3.741767 1.542106
vt 3.498074 1.377113
vt 3.582026 1.477198
vt 3.498074 1.417527
vt 3.417974 1.417494
vt 3.417974 1.377045
vt 3.417974 1.477198
vt 3.258233 1.542105
vt 3.336048 1.417460
vt 3.336048 1.376977
vt 3.417974 1.327824
vt 3.336048 1.327824
vt 3.498074 1.477198
vt 3.417974 1.534965
vt 3.582026 1.534965
vt 3.498074 1.534965
vt 3.417974 1.605545
vt 3.582026 1.605545
vt 3.498074 1.605545
vt 3.663952 1.534965
vt 3.582026 1.534965
vt 3.582026 1.477198
vt 3.741767 1.542106
vt 3.663951 1.605545
vt 3.582026 1.605545
vt 3.498074 1.327824
vt 3.582026 1.377045
vt 3.498074 1.377113
vt 3.582026 1.327824
vt 3.417974 1.377045
vt 3.417974 1.327824
vt 3.258233 1.542105
vt 3.417974 1.477198
vt 3.336048 1.534965
vt 3.417974 1.534965
vt 3.336049 1.605545
vt 3.417974 1.605545
vt 3.336048 1.417460
vt 3.258233 1.542105
vt 3.172199 1.550001
vt 3.172199 1.481448
vt 3.741767 1.542106
vt 3.663952 1.417460
vt 3.827801 1.550001
vt 3.827801 1.481448
vt 3.498074 1.605545
vt 3.537673 1.772176
vt 3.498074 1.772176
vt 3.582026 1.605545
vt 3.462327 1.772176
vt 3.498074 1.605545
vt 3.498074 1.772176
vt 3.417974 1.605545
vt 3.537673 1.772176
vt 3.663951 1.605545
vt 3.575727 1.772176
vt 3.610971 2.306781
vt 3.534590 2.263607
vt 3.570145 2.263607
vt 3.424274 1.772176
vt 3.336049 1.605545
vt 3.462327 1.772176
vt 3.465409 2.263607
vt 3.389029 2.306781
vt 3.429855 2.263607
vt 3.663951 1.605545
vt 3.537673 1.772176
vt 3.582026 1.605545
vt 3.336049 1.605545
vt 3.417974 1.605545
vt 3.462327 1.772176
vn -0.831949 -0.000443 0.554470
vn -0.831949 -0.000443 0.554470
vn -0.831949 -0.000443 0.554470
vn -0.831949 -0.000443 0.554470
vn -0.794822 -0.000443 0.607230
vn -0.794822 -0.000443 0.607230
vn -0.794822 -0.000443 0.607230
vn -0.794822 -0.000443 0.607230
vn 0.794822 -0.000443 0.607230
vn 0.794822 -0.000443 0.607230
vn 0.794822 -0.000443 0.607230
vn 0.794822 -0.000443 0.607230
vn 0.731314 -0.000443 0.682462
vn 0.731314 -0.000443 0.682462
vn 0.731314 -0.000443 0.682462
vn 0.731314 -0.000443 0.682462
vn -1.000000 -0.000443 0.000489
vn -1.000000 -0.000443 -0.000489
vn -1.000000 -0.000443 0.000489
vn -1.000000 -0.000443 0.000489
vn -1.000000 -0.000443 0.000489
vn -1.000000 -0.000443 -0.000489
vn -1.000000 -0.000443 -0.000489
vn -1.000000 -0.000443 -0.000489
vn 1.000000 -0.000443 0.000489
vn 1.000000 -0.000443 -0.000489
vn 1.000000 -0.000443 -0.000489
vn 1.000000 -0.000443 -0.000489
vn 1.000000 -0.000443 -0.000489
vn 1.000000 -0.000443 0.000489
vn 1.000000 -0.000443 0.000489
vn 1.000000 -0.000443 0.000489
vn -0.000489 -0.000443 -1.000000
vn -0.000489 -0.000443 -1.000000
vn 0.000489 -0.000443 -1.000000
vn 0.048363 -0.658968 -0.750855
vn 0.057157 -0.772304 -0.632633
vn 0.073766 -0.997023 -0.030777
vn 0.073766 -0.997023 -0.030777
vn 0.000489 -0.000443 -1.000000
vn 0.000489 -0.000443 -1.000000
vn -0.046409 -0.658968 -0.750855
vn -0.055203 -0.772304 -0.632633
vn -0.070835 -0.997023 -0.030777
vn -0.070835 -0.997023 -0.030777
vn 0.000489 -0.000443 -1.000000
vn -0.306302 0.101169 -0.946263
vn -0.101124 0.033754 -0.994138
vn -0.949194 0.313187 -0.001466
vn 0.000489 -0.000443 -1.000000
vn 0.200782 -0.000443 -0.979482
vn -0.000489 -0.000443 -1.000000
vn 0.206644 -0.000443 -0.978505
vn 1.000000 -0.000443 -0.000489
vn 0.000489 -0.000443 -1.000000
vn -0.000489 -0.000443 -1.000000
vn 0.000489 -0.000443 -1.000000
vn 0.000489 -0.000443 -1.000000
vn 0.000489 -0.000443 -1.000000
vn 0.000489 -0.000443 -1.000000
vn 1.000000 -0.000443 -0.000489
vn 1.000000 -0.000443 -0.000489
vn 1.000000 -0.000443 -0.000489
vn 1.000000 -0.000443 0.000489
vn 1.000000 -0.000443 -0.000489
vn 1.000000 -0.000443 0.000489
vn 1.000000 -0.000443 -0.000489
vn 1.000000 -0.000443 -0.000489
vn 1.000000 -0.000443 -0.000489
vn 1.000000 -0.000443 -0.000489
vn 0.949194 0.313187 -0.001466
vn 0.306302 0.101169 -0.946263
vn 0.101124 0.033754 -0.994138
vn -0.000489 -0.000443 -1.000000
vn 0.000489 -0.000443 -1.000000
vn -0.000489 -0.000443 -1.000000
vn -0.200782 -0.000443 -0.979482
vn -0.206644 -0.000443 -0.978505
vn -1.000000 -0.000443 -0.000489
vn -1.000000 -0.000443 -0.000489
vn -1.000000 -0.000443 -0.000489
vn -1.000000 -0.000443 -0.000489
vn -1.000000 -0.000443 0.000489
vn -1.000000 -0.000443 -0.000489
vn -1.000000 -0.000443 0.000489
vn -1.000000 -0.000443 -0.000489
vn -1.000000 -0.000443 -0.000489
vn -1.000000 -0.000443 -0.000489
vn -1.000000 -0.000443 -0.000489
vn 0.000489 -0.000443 -1.000000
vn -0.000489 -0.000443 -1.000000
vn -0.000489 -0.000443 -1.000000
vn -0.000489 -0.000443 -1.000000
vn -0.000489 -0.000443 -1.000000
vn -0.000489 -0.000443 -1.000000
vn 0.000489 -0.000443 -1.000000
vn 0.000489 -0.000443 -1.000000
vn 0.000489 -0.000443 -1.000000
vn -0.000489 -0.000443 1.000000
vn 0.000489 -0.000443 1.000000
vn -0.000489 -0.000443 1.000000
vn 0.000489 -0.000443 1.000000
vn -0.000489 -0.000443 1.000000
vn -0.000489 -0.000443 1.000000
vn -0.000489 -0.000443 1.000000
vn 0.000489 -0.000443 1.000000
vn -0.000489 -0.000443 1.000000
vn 0.000489 -0.000443 1.000000
vn 0.000489 -0.000443 1.000000
vn 0.000489 -0.000443 1.000000
vn 0.000489 -0.000443 1.000000
vn 0.000489 -0.000443 1.000000
vn 0.000489 -0.000443 1.000000
vn 0.000489 -0.000443 1.000000
vn 0.000489 -0.000443 1.000000
vn 0.000489 -0.000443 1.000000
vn 0.000489 -0.000443 1.000000
vn 0.000489 -0.000443 1.000000
vn 0.000489 -0.000443 1.000000
vn 0.000489 -0.000443 1.000000
vn 0.000489 -0.000443 1.000000
vn 0.000489 -0.000443 1.000000
vn 0.000489 -0.000443 1.000000
vn -0.000489 -0.000443 1.000000
vn 0.000489 -0.000443 1.000000
vn -0.000489 -0.000443 1.000000
vn -0.000489 -0.000443 1.000000
vn 0.000489 -0.000443 1.000000
vn 0.000489 -0.000443 1.000000
vn 0.000489 -0.000443 1.000000
vn 0.000489 -0.000443 1.000000
vn 0.000489 -0.000443 1.000000
vn 0.000489 -0.000443 1.000000
vn 0.000489 -0.000443 1.000000
vn 0.000489 -0.000443 1.000000
vn 0.000489 -0.000443 1.000000
vn 0.000489 -0.000443 1.000000
vn 0.000489 -0.000443 1.000000
vn 0.000489 -0.000443 1.000000
vn -0.000489 -0.000443 1.000000
vn 0.000489 -0.000443 1.000000
vn -0.022960 -0.000443 1.000000
vn -0.022960 -0.000443 1.000000
vn -0.022960 -0.000443 1.000000
vn -0.022960 -0.000443 1.000000
vn 0.022960 -0.000443 1.000000
vn 0.022960 -0.000443 1.000000
vn 0.022960 -0.000443 1.000000
vn 0.022960 -0.000443 1.000000
vn -0.312164 -0.950125 0.021983
vn -0.312164 -0.950125 0.021983
vn -0.312164 -0.950125 0.021983
vn -0.312164 -0.950125 0.021983
vn 0.318026 -0.948171 0.021983
vn 0.318026 -0.948171 0.021983
vn 0.318026 -0.948171 0.021983
vn 0.318026 -0.948171 0.021983
vn 0.982413 0.187149 0.005374
vn 0.982413 0.187149 0.005374
vn 0.982413 0.187149 0.005374
vn 0.306302 0.101169 -0.946263
vn 0.949194 0.313187 -0.001466
vn 0.949194 0.313187 -0.001466
vn -0.982413 0.187149 0.005374
vn -0.982413 0.187149 0.005374
vn -0.982413 0.187149 0.005374
vn -0.949194 0.313187 -0.001466
vn -0.306302 0.101169 -0.946263
vn -0.949194 0.313187 -0.001466
vn 0.982413 0.187149 0.005374
vn 0.982413 0.187149 0.005374
vn 0.982413 0.187149 0.005374
vn -0.982413 0.187149 0.005374
vn -0.982413 0.187149 0.005374
vn -0.982413 0.187149 0.005374
f 1/1/1 2/2/2 3/3/3
f 2/2/2 1/1/1 4/4/4
f 5/5/5 6/6/6 7/7/7
f 7/7/7 6/6/6 8/8/8
f 9/9/9 10/10/10 11/11/11
f 11/11/11 12/12/12 9/9/9
f 13/13/13 14/14/14 15/15/15
f 14/14/14 13/13/13 16/16/16
f 17/17/17 18/18/18 19/19/19
f 17/17/17 19/19/19 20/20/20
f 20/20/20 21/21/21 17/17/17
f 18/18/18 17/17/17 22/22/22
f 23/23/23 18/18/18 22/22/22
f 18/18/18 23/23/23 24/24/24
f 25/25/25 26/26/26 27/27/27
f 26/26/26 28/28/28 27/27/27
f 28/28/28 26/26/26 29/29/29
f 26/26/26 25/25/25 30/30/30
f 25/25/25 31/31/31 30/30/30
f 32/32/32 31/31/31 25/25/25
f 33/33/33 34/34/34 35/35/35
f 35/35/35 36/36/36 33/33/33
f 36/36/36 35/35/35 37/37/37
f 37/37/37 38/38/38 36/36/36
f 38/38/38 37/37/37 39/39/39
f 34/34/34 40/40/40 35/35/35
f 34/34/34 41/41/41 40/40/40
f 40/40/40 42/42/42 35/35/35
f 35/35/35 42/42/42 43/43/43
f 42/42/42 44/44/44 43/43/43
f 43/43/43 44/44/44 45/45/45
f 46/46/46 40/40/40 41/41/41
f 46/46/46 47/47/47 40/40/40
f 40/40/40 47/47/47 48/48/48
f 47/47/47 49/49/49 48/48/48
f 41/41/41 50/50/50 46/46/46
f 50/50/50 51/51/51 46/46/46
f 52/52/52 50/50/50 41/41/41
f 51/51/51 50/50/50 53/53/53
f 53/53/53 54/54/54 51/51/51
f 50/50/50 52/52/52 55/55/55
f 56/56/56 55/55/55 52/52/52
f 57/57/57 50/50/50 55/55/55
f 55/55/55 56/56/56 58/58/58
f 55/55/55 59/59/59 57/57/57
f 59/59/59 55/55/55 58/58/58
f 58/58/58 60/60/60 59/59/59
f 54/54/54 53/53/53 61/61/61
f 54/54/54 62/62/62 63/63/63
f 62/62/62 54/54/54 61/61/61
f 61/61/61 64/64/64 62/62/62
f 65/65/65 64/64/64 61/61/61
f 65/65/65 66/66/66 64/64/64
f 66/66/66 65/65/65 67/67/67
f 65/65/65 68/68/68 67/67/67
f 68/68/68 65/65/65 69/69/69
f 61/61/61 69/69/69 65/65/65
f 69/69/69 61/61/61 70/70/70
f 71/71/71 72/72/72 73/73/73
f 72/72/72 33/33/33 73/73/73
f 33/33/33 72/72/72 74/74/74
f 33/33/33 74/74/74 75/75/75
f 76/76/76 75/75/75 74/74/74
f 77/77/77 76/76/76 74/74/74
f 76/76/76 77/77/77 78/78/78
f 79/79/79 78/78/78 77/77/77
f 78/78/78 79/79/79 80/80/80
f 81/81/81 79/79/79 82/82/82
f 79/79/79 81/81/81 80/80/80
f 80/80/80 81/81/81 83/83/83
f 83/83/83 84/84/84 80/80/80
f 85/85/85 84/84/84 83/83/83
f 84/84/84 85/85/85 86/86/86
f 87/87/87 84/84/84 86/86/86
f 84/84/84 87/87/87 88/88/88
f 88/88/88 80/80/80 84/84/84
f 80/80/80 88/88/88 89/89/89
f 76/76/76 90/90/90 75/75/75
f 90/90/90 76/76/76 91/91/91
f 92/92/92 91/91/91 76/76/76
f 91/91/91 92/92/92 93/93/93
f 93/93/93 94/94/94 91/91/91
f 94/94/94 93/93/93 95/95/95
f 96/96/96 91/91/91 94/94/94
f 91/91/91 96/96/96 90/90/90
f 97/97/97 90/90/90 96/96/96
f 90/90/90 98/98/98 75/75/75
f 90/90/90 97/97/97 98/98/98
f 75/75/75 98/98/98 34/34/34
f 75/75/75 34/34/34 33/33/33
f 97/97/97 52/52/52 98/98/98
f 97/97/97 56/56/56 52/52/52
f 98/98/98 41/41/41 34/34/34
f 98/98/98 52/52/52 41/41/41
f 99/99/99 100/100/100 101/101/101
f 100/100/100 99/99/99 102/102/102
f 103/103/103 102/102/102 99/99/99
f 102/102/102 103/103/103 104/104/104
f 105/105/105 104/104/104 103/103/103
f 106/106/106 102/102/102 104/104/104
f 105/105/105 107/107/107 104/104/104
f 104/104/104 108/108/108 106/106/106
f 108/108/108 104/104/104 107/107/107
f 109/109/109 106/106/106 108/108/108
f 106/106/106 109/109/109 110/110/110
f 109/109/109 108/108/108 111/111/111
f 111/111/111 112/112/112 109/109/109
f 109/109/109 112/112/112 113/113/113
f 113/113/113 110/110/110 109/109/109
f 110/110/110 113/113/113 114/114/114
f 114/114/114 115/115/115 110/110/110
f 115/115/115 114/114/114 116/116/116
f 111/111/111 108/108/108 117/117/117
f 107/107/107 117/117/117 108/108/108
f 111/111/111 117/117/117 118/118/118
f 117/117/117 107/107/107 119/119/119
f 120/120/120 118/118/118 117/117/117
f 119/119/119 120/120/120 117/117/117
f 120/120/120 121/121/121 118/118/118
f 119/119/119 122/122/122 120/120/120
f 121/121/121 120/120/120 123/123/123
f 123/123/123 120/120/120 122/122/122
f 124/124/124 125/125/125 126/126/126
f 126/126/126 127/127/127 124/124/124
f 124/124/124 128/128/128 125/125/125
f 125/125/125 128/128/128 129/129/129
f 130/130/130 131/131/131 132/132/132
f 131/131/131 130/130/130 133/133/133
f 134/134/134 130/130/130 132/132/132
f 130/130/130 134/134/134 135/135/135
f 136/136/136 137/137/137 138/138/138
f 139/139/139 138/138/138 137/137/137
f 140/140/140 138/138/138 139/139/139
f 140/140/140 139/139/139 141/141/141
f 142/142/142 143/143/143 144/144/144
f 144/144/144 145/145/145 142/142/142
f 146/146/146 147/147/147 148/148/148
f 149/149/149 148/148/148 147/147/147
f 150/150/150 151/151/151 152/152/152
f 151/151/151 150/150/150 153/153/153
f 154/154/154 155/155/155 156/156/156
f 155/155/155 154/154/154 157/157/157
f 158/158/158 159/159/159 160/160/160
f 161/161/161 162/162/162 163/163/163
f 164/164/164 165/165/165 166/166/166
f 167/167/167 168/168/168 169/169/169
f 170/170/170 171/171/171 172/172/172
f 173/173/173 174/174/174 175/175/175
