# Generated from Roblox mesh JSON (v7.00)
# Hello from RBX_Toolbox ;)
o RightFoot
v -0.181496 0.063579 -0.163429
v -0.180838 0.061717 -0.164026
v -0.181496 0.061717 -0.163429
v -0.255744 0.063579 -0.000000
v -0.255744 0.061717 -0.000844
v -0.255744 0.061717 -0.000000
v -0.180838 0.063579 -0.164026
v -0.180180 0.061717 -0.164623
v -0.180838 0.061717 -0.164026
v -0.180838 0.063579 -0.164026
v -0.255744 0.063579 -0.000844
v -0.180180 0.063579 -0.164623
v -0.000009 -0.065440 -0.000000
v 0.000000 -0.065440 -0.000008
v -0.000009 -0.065440 -0.000008
v 0.000000 -0.065440 -0.000000
v -0.000931 0.063579 -0.229977
v 0.000000 0.061717 -0.229977
v -0.000931 0.061717 -0.229977
v 0.000000 0.063579 -0.229977
v -0.000009 -0.065440 0.000008
v 0.000000 -0.065440 -0.000000
v -0.000009 -0.065440 -0.000000
v -0.255744 0.063579 0.000844
v -0.255744 0.061717 0.000844
v -0.179287 0.063579 0.162619
v -0.179945 0.061717 0.162022
v -0.179287 0.061717 0.162619
v -0.179945 0.063579 0.162022
v -0.178629 0.063579 0.163215
v 0.000000 -0.065440 0.000008
v -0.178629 0.061717 0.163215
v -0.000000 0.063579 0.229977
v -0.000931 0.061717 0.229977
v -0.000000 0.061717 0.229977
v -0.000931 0.063579 0.229977
v -0.255744 0.065440 0.000844
v -0.181496 0.065440 -0.163429
v -0.255744 0.065440 -0.000000
v -0.255744 0.065440 -0.000844
v -0.180838 0.065440 -0.164026
v -0.180838 0.065440 -0.164026
v -0.180180 0.063579 -0.164623
v -0.180838 0.063579 -0.164026
v -0.000931 0.065440 -0.229977
v -0.180180 0.065440 -0.164623
v 0.000000 0.065440 -0.229977
v -0.000931 0.065440 -0.000000
v 0.000000 0.065440 -0.000844
v -0.000931 0.065440 -0.000844
v 0.000000 0.065440 -0.000000
v -0.179287 0.065440 0.162619
v -0.179945 0.065440 0.162022
v -0.178629 0.065440 0.163215
v -0.000000 0.065440 0.229977
v -0.000931 0.065440 0.229977
v -0.000931 0.065440 0.000844
v 0.000000 0.065440 0.000844
v 0.000009 -0.065440 -0.000008
v 0.000931 0.061717 -0.229977
v 0.000009 -0.065440 -0.000000
v 0.178629 0.063579 -0.163215
v 0.179287 0.061717 -0.162619
v 0.178629 0.061717 -0.163215
v 0.000931 0.063579 -0.229977
v 0.179287 0.063579 -0.162619
v 0.179945 0.061717 -0.162022
v 0.255744 0.063579 -0.000844
v 0.255744 0.061717 0.000000
v 0.255744 0.061717 -0.000844
v 0.179945 0.063579 -0.162022
v 0.255744 0.063579 0.000000
v 0.000000 -0.065440 0.000008
v 0.000009 -0.065440 -0.000000
v 0.000000 -0.065440 -0.000000
v 0.000009 -0.065440 0.000008
v 0.000931 0.063579 0.229977
v 0.000931 0.061717 0.229977
v 0.180838 0.063579 0.164026
v 0.180180 0.063579 0.164622
v 0.180180 0.061717 0.164622
v 0.180838 0.061717 0.164026
v 0.255744 0.061717 0.000844
v 0.181496 0.063579 0.163429
v 0.180838 0.061717 0.164026
v 0.181496 0.061717 0.163429
v 0.255744 0.063579 0.000844
v 0.180838 0.063579 0.164026
v 0.179287 0.065440 -0.162619
v 0.000931 0.065440 -0.229977
v 0.000931 0.065440 -0.000844
v 0.000931 0.065440 -0.000000
v 0.178629 0.065440 -0.163215
v 0.255744 0.065440 -0.000844
v 0.179945 0.065440 -0.162022
v 0.255744 0.065440 0.000000
v 0.180838 0.065440 0.164026
v 0.180180 0.065440 0.164622
v 0.180180 0.063579 0.164622
v 0.000931 0.065440 0.229977
v 0.000931 0.065440 0.000844
v 0.180838 0.063579 0.164026
v 0.181496 0.065440 0.163429
v 0.180838 0.063579 0.164026
v 0.181496 0.063579 0.163429
v 0.180838 0.065440 0.164026
v 0.255744 0.065440 0.000844
vt 0.500000 0.250000
vt 0.375000 0.125000
vt 0.375000 0.250000
vt 0.500000 0.125000
vt 0.375000 0.000000
vt 0.375000 0.125000
vt 0.500000 0.125000
vt 0.375000 0.000000
vt 0.375000 0.125000
vt 0.500000 0.125000
vt 0.500000 0.000000
vt 0.500000 0.000000
vt 0.125000 0.625000
vt 0.250000 0.750000
vt 0.125000 0.750000
vt 0.250000 0.625000
vt 0.500000 1.000000
vt 0.375000 0.875000
vt 0.375000 1.000000
vt 0.500000 0.875000
vt 0.125000 0.500000
vt 0.250000 0.625000
vt 0.125000 0.625000
vt 0.500000 0.250000
vt 0.375000 0.250000
vt 0.500000 0.375000
vt 0.375000 0.250000
vt 0.375000 0.375000
vt 0.500000 0.250000
vt 0.500000 0.500000
vt 0.250000 0.500000
vt 0.375000 0.500000
vt 0.500000 0.375000
vt 0.375000 0.250000
vt 0.375000 0.375000
vt 0.500000 0.250000
vt 0.625000 0.250000
vt 0.625000 0.250000
vt 0.625000 0.125000
vt 0.625000 0.000000
vt 0.625000 0.125000
vt 0.625000 0.125000
vt 0.500000 0.000000
vt 0.500000 0.125000
vt 0.625000 1.000000
vt 0.625000 0.000000
vt 0.625000 0.875000
vt 0.875000 0.625000
vt 0.750000 0.750000
vt 0.875000 0.750000
vt 0.750000 0.625000
vt 0.625000 0.375000
vt 0.625000 0.250000
vt 0.625000 0.500000
vt 0.625000 0.375000
vt 0.625000 0.250000
vt 0.875000 0.500000
vt 0.750000 0.500000
vt 0.375000 0.750000
vt 0.375000 0.750000
vt 0.375000 0.625000
vt 0.500000 1.000000
vt 0.375000 0.875000
vt 0.375000 1.000000
vt 0.500000 0.750000
vt 0.500000 0.875000
vt 0.375000 0.750000
vt 0.500000 0.750000
vt 0.375000 0.625000
vt 0.375000 0.750000
vt 0.500000 0.750000
vt 0.500000 0.625000
vt 0.250000 0.500000
vt 0.375000 0.625000
vt 0.250000 0.625000
vt 0.375000 0.500000
vt 0.500000 0.500000
vt 0.375000 0.500000
vt 0.500000 0.625000
vt 0.500000 0.500000
vt 0.375000 0.500000
vt 0.375000 0.625000
vt 0.375000 0.500000
vt 0.500000 0.750000
vt 0.375000 0.625000
vt 0.375000 0.750000
vt 0.500000 0.500000
vt 0.500000 0.625000
vt 0.625000 0.875000
vt 0.625000 0.750000
vt 0.625000 0.750000
vt 0.625000 0.625000
vt 0.625000 1.000000
vt 0.625000 0.750000
vt 0.625000 0.750000
vt 0.625000 0.625000
vt 0.625000 0.625000
vt 0.625000 0.500000
vt 0.500000 0.500000
vt 0.625000 0.500000
vt 0.625000 0.500000
vt 0.500000 0.625000
vt 0.625000 0.750000
vt 0.500000 0.625000
vt 0.500000 0.750000
vt 0.625000 0.625000
vt 0.625000 0.500000
vn -0.671715 -0.000000 -0.741085
vn -0.671715 -0.000000 -0.741085
vn -0.671715 -0.000000 -0.741085
vn -1.000000 -0.000000 0.000489
vn -1.000000 -0.000000 0.000489
vn -1.000000 -0.000000 0.000489
vn -0.671715 -0.000000 -0.741085
vn -0.671715 -0.000000 -0.741085
vn -0.671715 -0.000000 -0.741085
vn -0.671715 -0.000000 -0.741085
vn -1.000000 -0.000000 0.000489
vn -0.671715 -0.000000 -0.741085
vn 0.000489 1.000488 -0.000489
vn 0.000489 1.000488 -0.000489
vn 0.000489 1.000488 -0.000489
vn 0.000489 1.000488 -0.000489
vn 0.000489 -0.000000 -1.000000
vn 0.000489 -0.000000 -1.000000
vn 0.000489 -0.000000 -1.000000
vn 0.000489 -0.000000 -1.000000
vn 0.003420 0.999511 -0.000489
vn 0.003420 0.999511 -0.000489
vn 0.003420 0.999511 -0.000489
vn -1.000000 -0.000000 0.000489
vn -1.000000 -0.000000 0.000489
vn -0.671715 -0.000000 0.741085
vn -0.671715 -0.000000 0.741085
vn -0.671715 -0.000000 0.741085
vn -0.671715 -0.000000 0.741085
vn -0.671715 -0.000000 0.741085
vn 0.003420 0.999511 -0.000489
vn -0.671715 -0.000000 0.741085
vn 0.000489 -0.000000 1.000000
vn 0.000489 -0.000000 1.000000
vn 0.000489 -0.000000 1.000000
vn 0.000489 -0.000000 1.000000
vn -1.000000 -0.000000 0.000489
vn -0.671715 -0.000000 -0.741085
vn -1.000000 -0.000000 0.000489
vn -1.000000 -0.000000 0.000489
vn -0.671715 -0.000000 -0.741085
vn -0.671715 -0.000000 -0.741085
vn -0.671715 -0.000000 -0.741085
vn -0.671715 -0.000000 -0.741085
vn 0.000489 -0.000000 -1.000000
vn -0.671715 -0.000000 -0.741085
vn 0.000489 -0.000000 -1.000000
vn 0.000489 1.000488 -0.000489
vn 0.000489 1.000488 -0.000489
vn 0.000489 1.000488 -0.000489
vn 0.000489 1.000488 -0.000489
vn -0.671715 -0.000000 0.741085
vn -0.671715 -0.000000 0.741085
vn -0.671715 -0.000000 0.741085
vn 0.000489 -0.000000 1.000000
vn 0.000489 -0.000000 1.000000
vn 0.000489 1.000488 -0.000489
vn 0.000489 1.000488 -0.000489
vn 0.000489 1.000488 -0.000489
vn 0.000489 -0.000000 -1.000000
vn 0.000489 1.000488 -0.000489
vn 0.671715 -0.000000 -0.741085
vn 0.671715 -0.000000 -0.741085
vn 0.671715 -0.000000 -0.741085
vn 0.000489 -0.000000 -1.000000
vn 0.671715 -0.000000 -0.741085
vn 0.671715 -0.000000 -0.741085
vn 1.000000 -0.000000 0.000489
vn 1.000000 -0.000000 0.000489
vn 1.000000 -0.000000 0.000489
vn 0.671715 -0.000000 -0.741085
vn 1.000000 -0.000000 0.000489
vn 0.003420 0.999511 -0.000489
vn 0.003420 0.999511 -0.000489
vn 0.003420 0.999511 -0.000489
vn 0.003420 0.999511 -0.000489
vn 0.000489 -0.000000 1.000000
vn 0.000489 -0.000000 1.000000
vn 0.671715 -0.000000 0.741085
vn 0.671715 -0.000000 0.741085
vn 0.671715 -0.000000 0.741085
vn 0.671715 -0.000000 0.741085
vn 1.000000 -0.000000 0.000489
vn 0.671715 -0.000000 0.741085
vn 0.671715 -0.000000 0.741085
vn 0.671715 -0.000000 0.741085
vn 1.000000 -0.000000 0.000489
vn 0.671715 -0.000000 0.741085
vn 0.671715 -0.000000 -0.741085
vn 0.000489 -0.000000 -1.000000
vn 0.000489 1.000488 -0.000489
vn 0.000489 1.000488 -0.000489
vn 0.671715 -0.000000 -0.741085
vn 1.000000 -0.000000 0.000489
vn 0.671715 -0.000000 -0.741085
vn 1.000000 -0.000000 0.000489
vn 0.671715 -0.000000 0.741085
vn 0.671715 -0.000000 0.741085
vn 0.671715 -0.000000 0.741085
vn 0.000489 -0.000000 1.000000
vn 0.000489 1.000488 -0.000489
vn 0.671715 -0.000000 0.741085
vn 0.671715 -0.000000 0.741085
vn 0.671715 -0.000000 0.741085
vn 0.671715 -0.000000 0.741085
vn 0.671715 -0.000000 0.741085
vn 1.000000 -0.000000 0.000489
f 4/4/4 5/5/5 6/6/6
f 4/4/4 11/11/11 5/5/5
f 24/24/24 4/4/4 6/6/6
f 24/24/24 6/6/6 25/25/25
f 37/37/37 4/4/4 24/24/24
f 37/37/37 39/39/39 4/4/4
f 39/39/39 11/11/11 4/4/4
f 39/39/39 40/40/40 11/11/11
f 68/68/68 69/69/69 70/70/70
f 68/68/68 72/72/72 69/69/69
f 72/72/72 83/83/83 69/69/69
f 94/94/94 72/72/72 68/68/68
f 72/72/72 87/87/87 83/83/83
f 94/94/94 96/96/96 72/72/72
f 96/96/96 87/87/87 72/72/72
f 96/96/96 107/107/107 87/87/87
f 1/1/1 2/2/2 3/3/3
f 1/1/1 10/10/10 2/2/2
f 38/38/38 10/10/10 1/1/1
f 38/38/38 41/41/41 10/10/10
f 7/7/7 8/8/8 9/9/9
f 7/7/7 12/12/12 8/8/8
f 42/42/42 43/43/43 44/44/44
f 42/42/42 46/46/46 43/43/43
f 79/79/79 80/80/80 81/81/81
f 79/79/79 81/81/81 82/82/82
f 84/84/84 85/85/85 86/86/86
f 84/84/84 88/88/88 85/85/85
f 97/97/97 98/98/98 99/99/99
f 97/97/97 99/99/99 102/102/102
f 103/103/103 104/104/104 105/105/105
f 103/103/103 106/106/106 104/104/104
f 26/26/26 27/27/27 28/28/28
f 26/26/26 29/29/29 27/27/27
f 30/30/30 26/26/26 28/28/28
f 30/30/30 28/28/28 32/32/32
f 54/54/54 26/26/26 30/30/30
f 54/54/54 52/52/52 26/26/26
f 52/52/52 29/29/29 26/26/26
f 52/52/52 53/53/53 29/29/29
f 62/62/62 63/63/63 64/64/64
f 62/62/62 66/66/66 63/63/63
f 66/66/66 67/67/67 63/63/63
f 93/93/93 66/66/66 62/62/62
f 66/66/66 71/71/71 67/67/67
f 93/93/93 89/89/89 66/66/66
f 89/89/89 71/71/71 66/66/66
f 89/89/89 95/95/95 71/71/71
f 17/17/17 18/18/18 19/19/19
f 17/17/17 20/20/20 18/18/18
f 20/20/20 60/60/60 18/18/18
f 45/45/45 20/20/20 17/17/17
f 20/20/20 65/65/65 60/60/60
f 45/45/45 47/47/47 20/20/20
f 47/47/47 65/65/65 20/20/20
f 47/47/47 90/90/90 65/65/65
f 33/33/33 34/34/34 35/35/35
f 33/33/33 36/36/36 34/34/34
f 77/77/77 33/33/33 35/35/35
f 77/77/77 35/35/35 78/78/78
f 100/100/100 33/33/33 77/77/77
f 100/100/100 55/55/55 33/33/33
f 55/55/55 36/36/36 33/33/33
f 55/55/55 56/56/56 36/36/36
f 48/48/48 49/49/49 50/50/50
f 49/49/49 48/48/48 51/51/51
f 57/57/57 51/51/51 48/48/48
f 51/51/51 91/91/91 49/49/49
f 51/51/51 57/57/57 58/58/58
f 91/91/91 51/51/51 92/92/92
f 58/58/58 92/92/92 51/51/51
f 92/92/92 58/58/58 101/101/101
f 13/13/13 14/14/14 15/15/15
f 16/16/16 14/14/14 13/13/13
f 16/16/16 59/59/59 14/14/14
f 61/61/61 59/59/59 16/16/16
f 21/21/21 22/22/22 23/23/23
f 31/31/31 22/22/22 21/21/21
f 73/73/73 74/74/74 75/75/75
f 76/76/76 74/74/74 73/73/73
