# Generated from Roblox mesh JSON (v7.00)
# Hello from RBX_Toolbox ;)
o RightLowerLeg_body_cage
v -0.274905 0.378336 -0.279154
v -0.274905 0.260681 0.003447
v -0.274905 0.378336 0.003447
v -0.274908 0.480282 -0.279152
v -0.274906 0.480282 0.003447
v -0.274905 0.260680 -0.279154
v -0.274905 0.137087 0.003447
v -0.274905 0.137086 -0.279154
v -0.274905 -0.017878 0.003447
v -0.274905 -0.017878 -0.279154
v -0.274905 -0.153711 -0.279154
v -0.274905 -0.153738 0.003447
v -0.274905 -0.303803 -0.279154
v -0.274905 -0.306779 0.003447
v -0.274905 -0.472283 -0.279154
v -0.274905 -0.480108 0.003447
v -0.274905 0.378336 0.003447
v -0.274905 0.260681 0.279154
v -0.274905 0.378336 0.279154
v -0.274908 0.480282 0.279153
v -0.274906 0.480282 0.003447
v -0.274905 0.260681 0.003447
v -0.274905 0.137087 0.279154
v -0.274905 0.137087 0.003447
v -0.274905 -0.017878 0.003447
v -0.274905 -0.017878 0.279154
v -0.274905 -0.153738 0.279154
v -0.274905 -0.153738 0.003447
v -0.274905 -0.303685 0.279154
v -0.274905 -0.306779 0.003447
v -0.274905 -0.480107 0.279154
v -0.274905 -0.480108 0.003447
v -0.011290 0.378336 0.279154
v -0.274905 0.260681 0.279154
v -0.011290 0.260681 0.279154
v -0.274905 0.378336 0.279154
v -0.011297 0.480282 0.279155
v -0.274908 0.480282 0.279153
v 0.274899 0.480283 0.279154
v 0.274908 0.378336 0.279154
v 0.274908 0.480283 0.237164
v 0.274908 0.260681 0.279154
v 0.274908 0.378336 0.237163
v 0.274907 0.480283 0.003448
v 0.274908 0.137087 0.279154
v -0.011290 0.137087 0.279154
v -0.274905 0.137087 0.279154
v -0.274905 -0.017878 0.279154
v -0.011290 -0.017878 0.279154
v -0.011290 -0.153738 0.279154
v -0.274905 -0.153738 0.279154
v -0.274905 -0.303685 0.279154
v -0.011290 -0.305455 0.279154
v -0.274905 -0.480107 0.279154
v -0.011290 -0.480107 0.279154
v 0.274908 -0.480108 0.279154
v 0.274908 -0.303104 0.279154
v 0.274908 -0.153738 0.279154
v 0.274908 -0.017878 0.279154
v 0.274908 -0.153738 0.237164
v 0.274908 -0.305437 0.237164
v 0.274908 -0.480108 0.237164
v 0.274908 -0.305838 0.003447
v 0.274908 -0.480283 0.003447
v 0.274908 -0.474505 -0.213221
v 0.274908 -0.153738 0.003447
v 0.274908 -0.307330 -0.214865
v 0.274908 -0.472600 -0.279154
v 0.274908 -0.153738 -0.214865
v 0.274908 -0.017878 0.237164
v 0.274908 -0.017878 0.003447
v 0.274908 0.137087 0.237164
v 0.274908 0.137087 0.003447
v 0.274908 0.260681 0.237163
v 0.274908 -0.017878 -0.214865
v 0.274908 0.378336 0.003447
v 0.274908 0.260681 0.003447
v 0.274908 0.137087 -0.214865
v 0.274908 0.260681 -0.214865
v 0.274908 0.378336 -0.214865
v 0.274907 0.480282 -0.216731
v 0.274908 0.260681 -0.279154
v 0.274908 0.378336 -0.279154
v 0.274899 0.480282 -0.279154
v -0.011290 0.378336 -0.279154
v -0.011296 0.480282 -0.279155
v -0.274905 0.378336 -0.279154
v -0.274908 0.480282 -0.279152
v -0.011290 0.260680 -0.279154
v -0.274905 0.260680 -0.279154
v -0.274905 0.137086 -0.279154
v -0.011290 0.137086 -0.279154
v 0.274908 0.137087 -0.279154
v -0.011290 -0.017878 -0.279154
v -0.274905 -0.017878 -0.279154
v 0.274908 -0.017878 -0.279154
v -0.274905 -0.153711 -0.279154
v 0.274908 -0.153738 -0.279154
v -0.011290 -0.153738 -0.279154
v -0.274905 -0.303803 -0.279154
v 0.274908 -0.304008 -0.279154
v -0.011290 -0.306282 -0.279154
v -0.011290 -0.471424 -0.279154
v -0.274905 -0.472283 -0.279154
vt 2.793036 1.698511
vt 2.908824 1.605312
vt 2.908824 1.698511
vt 2.793036 1.792453
vt 2.908824 1.792453
vt 2.793036 1.605312
vt 2.908824 1.536557
vt 2.793036 1.536557
vt 2.908824 1.441824
vt 2.793036 1.439684
vt 2.793036 1.353774
vt 2.908824 1.353774
vt 2.793036 1.266038
vt 2.908824 1.266038
vt 2.793036 1.207547
vt 2.908824 1.207547
vt 2.091176 1.698511
vt 2.219756 1.605312
vt 2.219756 1.698511
vt 2.219756 1.792453
vt 2.091176 1.792453
vt 2.091176 1.605312
vt 2.219756 1.536557
vt 2.091176 1.536557
vt 2.091176 1.441824
vt 2.219756 1.436622
vt 2.219756 1.353774
vt 2.091176 1.353774
vt 2.219756 1.266038
vt 2.091176 1.266038
vt 2.219756 1.207547
vt 2.091176 1.207547
vt 2.283767 1.698511
vt 2.219756 1.605312
vt 2.283767 1.605312
vt 2.219756 1.698511
vt 2.283767 1.792453
vt 2.219756 1.792453
vt 2.315774 1.792453
vt 2.315774 1.698511
vt 2.347780 1.792453
vt 2.315774 1.605312
vt 2.347780 1.698511
vt 2.457450 1.792453
vt 2.315774 1.536557
vt 2.283767 1.536557
vt 2.219756 1.536557
vt 2.219756 1.436622
vt 2.283767 1.434716
vt 2.283767 1.353774
vt 2.219756 1.353774
vt 2.219756 1.266038
vt 2.283767 1.266038
vt 2.219756 1.207547
vt 2.283767 1.207547
vt 2.315774 1.207547
vt 2.315774 1.266038
vt 2.315774 1.353774
vt 2.315774 1.433763
vt 2.347780 1.353774
vt 2.347780 1.266038
vt 2.347780 1.207547
vt 2.457450 1.266038
vt 2.457450 1.207547
vt 2.619125 1.207547
vt 2.457450 1.353774
vt 2.619125 1.266038
vt 2.662603 1.207547
vt 2.619125 1.353774
vt 2.347780 1.432810
vt 2.457450 1.433402
vt 2.347780 1.536557
vt 2.457450 1.536557
vt 2.347780 1.605312
vt 2.619125 1.436396
vt 2.457450 1.698511
vt 2.457450 1.605312
vt 2.619125 1.536557
vt 2.619125 1.605312
vt 2.619125 1.698511
vt 2.619125 1.792453
vt 2.662603 1.605312
vt 2.662603 1.698511
vt 2.662603 1.792453
vt 2.749558 1.698511
vt 2.749558 1.792453
vt 2.793036 1.698511
vt 2.793036 1.792453
vt 2.749558 1.605312
vt 2.793036 1.605312
vt 2.793036 1.536557
vt 2.749558 1.536557
vt 2.662603 1.536557
vt 2.749558 1.438862
vt 2.793036 1.439684
vt 2.662603 1.437218
vt 2.793036 1.353774
vt 2.662603 1.353774
vt 2.749558 1.353774
vt 2.793036 1.266038
vt 2.662603 1.266038
vt 2.749558 1.266038
vt 2.749558 1.207547
vt 2.793036 1.207547
vn -1.000000 -0.000031 0.000489
vn -1.000000 -0.000031 0.000489
vn -1.000000 -0.000031 -0.000489
vn -1.000000 -0.000031 0.000489
vn -1.000000 -0.000031 -0.000489
vn -1.000000 -0.000031 -0.000489
vn -1.000000 -0.000031 -0.000489
vn -1.000000 -0.000031 -0.000489
vn -1.000000 -0.000031 -0.000489
vn -1.000000 -0.000031 -0.000489
vn -1.000000 -0.000031 -0.000489
vn -1.000000 -0.000031 0.000489
vn -1.000000 -0.000031 -0.000489
vn -1.000000 -0.000031 0.000489
vn -1.000000 -0.000031 -0.000489
vn -1.000000 -0.000031 0.000489
vn -1.000000 -0.000031 -0.000489
vn -1.000000 -0.000031 0.000489
vn -1.000000 -0.000031 -0.000489
vn -1.000000 -0.000031 -0.000489
vn -1.000000 -0.000031 -0.000489
vn -1.000000 -0.000031 0.000489
vn -1.000000 -0.000031 0.000489
vn -1.000000 -0.000031 -0.000489
vn -1.000000 -0.000031 -0.000489
vn -1.000000 -0.000031 0.000489
vn -1.000000 -0.000031 0.000489
vn -1.000000 -0.000031 0.000489
vn -1.000000 -0.000031 0.000489
vn -1.000000 -0.000031 0.000489
vn -1.000000 -0.000031 0.000489
vn -1.000000 -0.000031 0.000489
vn -0.000489 -0.000031 1.000000
vn -0.000489 -0.000031 1.000000
vn -0.000489 -0.000031 1.000000
vn -0.000489 -0.000031 1.000000
vn -0.000489 -0.000031 1.000000
vn -0.000489 -0.000031 1.000000
vn 0.145090 -0.000031 0.989253
vn 0.145090 -0.000031 0.989253
vn 1.000000 -0.000031 0.000489
vn 0.145090 -0.000031 0.989253
vn 1.000000 -0.000031 0.000489
vn 1.000000 -0.000031 -0.000489
vn 0.145090 -0.000031 0.989253
vn -0.000489 -0.000031 1.000000
vn -0.000489 -0.000031 1.000000
vn 0.000489 -0.000031 1.000000
vn 0.000489 -0.000031 1.000000
vn -0.000489 -0.000031 1.000000
vn -0.000489 -0.000031 1.000000
vn 0.000489 -0.000031 1.000000
vn 0.000489 -0.000031 1.000000
vn 0.000489 -0.000031 1.000000
vn 0.000489 -0.000031 1.000000
vn 0.145090 -0.000031 0.989253
vn 0.145090 -0.000031 0.989253
vn 0.145090 -0.000031 0.989253
vn 0.145090 -0.000031 0.989253
vn 1.000000 -0.000031 0.000489
vn 1.000000 -0.000031 0.000489
vn 1.000000 -0.000031 0.000489
vn 1.000000 -0.000031 0.000489
vn 1.000000 -0.000031 0.000489
vn 1.000000 -0.000031 0.000489
vn 1.000000 -0.000031 0.000489
vn 1.000000 -0.000031 0.000489
vn 0.225208 0.000946 -0.974597
vn 1.000000 -0.000031 0.000489
vn 1.000000 -0.000031 0.000489
vn 1.000000 -0.000031 0.000489
vn 1.000000 -0.000031 0.000489
vn 1.000000 -0.000031 0.000489
vn 1.000000 -0.000031 0.000489
vn 1.000000 -0.000031 0.000489
vn 1.000000 -0.000031 -0.000489
vn 1.000000 -0.000031 0.000489
vn 1.000000 -0.000031 0.000489
vn 1.000000 -0.000031 0.000489
vn 1.000000 -0.000031 -0.000489
vn 1.000000 -0.000031 -0.000489
vn 0.219345 -0.000031 -0.975574
vn 0.217391 -0.000031 -0.975574
vn 0.216414 -0.000031 -0.976551
vn -0.000489 -0.000031 -1.000000
vn -0.000489 -0.000031 -1.000000
vn -0.000489 -0.000031 -1.000000
vn -0.000489 -0.000031 -1.000000
vn 0.000489 -0.000031 -1.000000
vn -0.000489 -0.000031 -1.000000
vn -0.000489 -0.000031 -1.000000
vn 0.000489 -0.000031 -1.000000
vn 0.219345 -0.000031 -0.975574
vn 0.000489 -0.000031 -1.000000
vn 0.000489 -0.000031 -1.000000
vn 0.219345 -0.000031 -0.975574
vn 0.000489 -0.000031 -1.000000
vn 0.219345 -0.000031 -0.975574
vn 0.000489 -0.000031 -1.000000
vn 0.000489 -0.000031 -1.000000
vn 0.221299 -0.000031 -0.975574
vn 0.000489 -0.000031 -1.000000
vn 0.000489 -0.000031 -1.000000
vn 0.000489 -0.000031 -1.000000
f 1/1/1 2/2/2 3/3/3
f 3/3/3 4/4/4 1/1/1
f 4/4/4 3/3/3 5/5/5
f 2/2/2 1/1/1 6/6/6
f 6/6/6 7/7/7 2/2/2
f 8/8/8 7/7/7 6/6/6
f 8/8/8 9/9/9 7/7/7
f 10/10/10 9/9/9 8/8/8
f 11/11/11 9/9/9 10/10/10
f 9/9/9 11/11/11 12/12/12
f 13/13/13 12/12/12 11/11/11
f 12/12/12 13/13/13 14/14/14
f 15/15/15 14/14/14 13/13/13
f 14/14/14 15/15/15 16/16/16
f 17/17/17 18/18/18 19/19/19
f 17/17/17 19/19/19 20/20/20
f 20/20/20 21/21/21 17/17/17
f 18/18/18 17/17/17 22/22/22
f 22/22/22 23/23/23 18/18/18
f 24/24/24 23/23/23 22/22/22
f 25/25/25 23/23/23 24/24/24
f 23/23/23 25/25/25 26/26/26
f 25/25/25 27/27/27 26/26/26
f 27/27/27 25/25/25 28/28/28
f 28/28/28 29/29/29 27/27/27
f 30/30/30 29/29/29 28/28/28
f 30/30/30 31/31/31 29/29/29
f 32/32/32 31/31/31 30/30/30
f 33/33/33 34/34/34 35/35/35
f 34/34/34 33/33/33 36/36/36
f 36/36/36 37/37/37 38/38/38
f 37/37/37 36/36/36 33/33/33
f 33/33/33 39/39/39 37/37/37
f 39/39/39 33/33/33 40/40/40
f 40/40/40 41/41/41 39/39/39
f 35/35/35 42/42/42 33/33/33
f 40/40/40 33/33/33 42/42/42
f 41/41/41 40/40/40 43/43/43
f 42/42/42 43/43/43 40/40/40
f 43/43/43 44/44/44 41/41/41
f 35/35/35 45/45/45 42/42/42
f 35/35/35 34/34/34 46/46/46
f 45/45/45 35/35/35 46/46/46
f 47/47/47 46/46/46 34/34/34
f 48/48/48 46/46/46 47/47/47
f 49/49/49 45/45/45 46/46/46
f 46/46/46 48/48/48 49/49/49
f 49/49/49 48/48/48 50/50/50
f 51/51/51 50/50/50 48/48/48
f 52/52/52 50/50/50 51/51/51
f 50/50/50 52/52/52 53/53/53
f 54/54/54 53/53/53 52/52/52
f 53/53/53 54/54/54 55/55/55
f 56/56/56 53/53/53 55/55/55
f 57/57/57 50/50/50 53/53/53
f 53/53/53 56/56/56 57/57/57
f 58/58/58 49/49/49 50/50/50
f 50/50/50 57/57/57 58/58/58
f 49/49/49 58/58/58 59/59/59
f 49/49/49 59/59/59 45/45/45
f 57/57/57 60/60/60 58/58/58
f 60/60/60 59/59/59 58/58/58
f 56/56/56 61/61/61 57/57/57
f 60/60/60 57/57/57 61/61/61
f 61/61/61 56/56/56 62/62/62
f 62/62/62 63/63/63 61/61/61
f 63/63/63 62/62/62 64/64/64
f 65/65/65 63/63/63 64/64/64
f 66/66/66 61/61/61 63/63/63
f 61/61/61 66/66/66 60/60/60
f 67/67/67 63/63/63 65/65/65
f 68/68/68 67/67/67 65/65/65
f 63/63/63 69/69/69 66/66/66
f 69/69/69 63/63/63 67/67/67
f 66/66/66 70/70/70 60/60/60
f 60/60/60 70/70/70 59/59/59
f 71/71/71 70/70/70 66/66/66
f 69/69/69 71/71/71 66/66/66
f 72/72/72 59/59/59 70/70/70
f 59/59/59 72/72/72 45/45/45
f 72/72/72 42/42/42 45/45/45
f 70/70/70 73/73/73 72/72/72
f 73/73/73 70/70/70 71/71/71
f 72/72/72 74/74/74 42/42/42
f 73/73/73 74/74/74 72/72/72
f 43/43/43 42/42/42 74/74/74
f 75/75/75 73/73/73 71/71/71
f 75/75/75 71/71/71 69/69/69
f 74/74/74 76/76/76 43/43/43
f 44/44/44 43/43/43 76/76/76
f 77/77/77 74/74/74 73/73/73
f 76/76/76 74/74/74 77/77/77
f 78/78/78 77/77/77 73/73/73
f 78/78/78 73/73/73 75/75/75
f 79/79/79 76/76/76 77/77/77
f 79/79/79 77/77/77 78/78/78
f 80/80/80 44/44/44 76/76/76
f 76/76/76 79/79/79 80/80/80
f 81/81/81 44/44/44 80/80/80
f 78/78/78 82/82/82 79/79/79
f 82/82/82 80/80/80 79/79/79
f 83/83/83 81/81/81 80/80/80
f 80/80/80 82/82/82 83/83/83
f 83/83/83 84/84/84 81/81/81
f 83/83/83 85/85/85 84/84/84
f 85/85/85 83/83/83 82/82/82
f 86/86/86 84/84/84 85/85/85
f 85/85/85 87/87/87 86/86/86
f 88/88/88 86/86/86 87/87/87
f 89/89/89 87/87/87 85/85/85
f 85/85/85 82/82/82 89/89/89
f 87/87/87 89/89/89 90/90/90
f 90/90/90 89/89/89 91/91/91
f 82/82/82 92/92/92 89/89/89
f 92/92/92 91/91/91 89/89/89
f 92/92/92 82/82/82 93/93/93
f 82/82/82 78/78/78 93/93/93
f 75/75/75 93/93/93 78/78/78
f 94/94/94 91/91/91 92/92/92
f 91/91/91 94/94/94 95/95/95
f 96/96/96 92/92/92 93/93/93
f 93/93/93 75/75/75 96/96/96
f 92/92/92 96/96/96 94/94/94
f 95/95/95 94/94/94 97/97/97
f 98/98/98 96/96/96 75/75/75
f 94/94/94 96/96/96 98/98/98
f 98/98/98 75/75/75 69/69/69
f 99/99/99 97/97/97 94/94/94
f 94/94/94 98/98/98 99/99/99
f 97/97/97 99/99/99 100/100/100
f 101/101/101 98/98/98 69/69/69
f 101/101/101 99/99/99 98/98/98
f 101/101/101 69/69/69 67/67/67
f 68/68/68 101/101/101 67/67/67
f 99/99/99 101/101/101 102/102/102
f 68/68/68 102/102/102 101/101/101
f 102/102/102 100/100/100 99/99/99
f 102/102/102 68/68/68 103/103/103
f 100/100/100 102/102/102 104/104/104
f 103/103/103 104/104/104 102/102/102
