# Generated from Roblox mesh JSON (v7.00)
# Hello from RBX_Toolbox ;)
o RightFoot_body_cage
v 0.056960 0.007326 0.302035
v -0.146996 0.093743 0.288346
v -0.160034 0.008063 0.297129
v 0.069381 0.093607 0.299375
v 0.331572 0.004356 0.284062
v 0.069381 0.093607 0.299375
v 0.056960 0.007326 0.302035
v 0.331572 0.098439 0.287579
v 0.042050 -0.148157 0.289123
v -0.166740 -0.069855 0.291553
v -0.168446 -0.148157 0.282281
v 0.042818 -0.071837 0.295194
v 0.331572 -0.074176 0.273757
v 0.042818 -0.071837 0.295194
v 0.331572 -0.148157 0.264573
v 0.042050 -0.148157 0.289123
v 0.042818 -0.071837 0.295194
v -0.160034 0.008063 0.297129
v -0.166740 -0.069855 0.291553
v 0.056960 0.007326 0.302035
v 0.331572 -0.074176 0.273757
v 0.056960 0.007326 0.302035
v 0.042818 -0.071837 0.295194
v 0.331572 0.004356 0.284062
v -0.204244 -0.071458 0.291468
v -0.166740 -0.069855 0.291553
v -0.160034 0.008063 0.297129
v -0.245595 0.011383 0.297987
v -0.160034 0.008063 0.297129
v -0.238308 0.097169 0.294475
v -0.245595 0.011383 0.297987
v -0.146996 0.093743 0.288346
v -0.168446 -0.148157 0.282281
v -0.204244 -0.071458 0.291468
v -0.210851 -0.148157 0.285762
v -0.166740 -0.069855 0.291553
v -0.265407 -0.148157 -0.218137
v -0.297330 -0.078926 -0.150667
v -0.268186 -0.081036 -0.228329
v -0.291176 -0.148157 -0.144619
v -0.291176 -0.148157 -0.144619
v -0.204244 -0.071458 0.291468
v -0.297330 -0.078926 -0.150667
v -0.210851 -0.148157 0.285762
v -0.297330 -0.078926 -0.150667
v -0.204244 -0.071458 0.291468
v -0.284936 0.011408 -0.115974
v -0.245595 0.011383 0.297987
v -0.284936 0.011408 -0.115974
v -0.238308 0.097169 0.294475
v -0.332250 0.102922 -0.111948
v -0.245595 0.011383 0.297987
v -0.268186 -0.081036 -0.228329
v -0.284936 0.011408 -0.115974
v -0.240828 0.044158 -0.267511
v -0.297330 -0.078926 -0.150667
v 0.305907 -0.148157 -0.271179
v 0.305919 -0.072522 -0.271179
v 0.320028 -0.078899 -0.245129
v 0.317437 -0.148157 -0.245351
v 0.332250 0.098927 -0.082372
v 0.331572 0.004356 0.284062
v 0.332250 0.006082 -0.101268
v 0.331572 0.098439 0.287579
v 0.332250 -0.078481 -0.139580
v 0.331572 -0.074176 0.273757
v 0.332250 -0.148157 -0.130203
v 0.331572 -0.148157 0.264573
v 0.332250 0.006082 -0.101268
v 0.331572 -0.074176 0.273757
v 0.332250 -0.078481 -0.139580
v 0.331572 0.004356 0.284062
v 0.317437 -0.148157 -0.245351
v 0.332250 -0.078481 -0.139580
v 0.332250 -0.148157 -0.130203
v 0.320028 -0.078899 -0.245129
v 0.320208 0.002020 -0.267087
v 0.332250 -0.078481 -0.139580
v 0.320028 -0.078899 -0.245129
v 0.332250 0.006082 -0.101268
v 0.331579 0.137447 -0.269787
v 0.332250 0.006082 -0.101268
v 0.320208 0.002020 -0.267087
v 0.332250 0.098927 -0.082372
v 0.305919 -0.072522 -0.271179
v 0.320208 0.002020 -0.267087
v 0.320028 -0.078899 -0.245129
v 0.293389 0.004382 -0.284134
v -0.268186 -0.081036 -0.228329
v -0.235975 -0.148157 -0.255145
v -0.265407 -0.148157 -0.218137
v -0.192875 -0.070830 -0.286240
v -0.259501 0.125560 -0.226544
v -0.284936 0.011408 -0.115974
v -0.332250 0.102922 -0.111948
v -0.240828 0.044158 -0.267511
v 0.305919 -0.072522 -0.271179
v 0.289027 -0.148157 -0.283530
v 0.288677 -0.055536 -0.283530
v 0.305907 -0.148157 -0.271179
v -0.240828 0.044158 -0.267511
v -0.192875 -0.070830 -0.286240
v -0.268186 -0.081036 -0.228329
v -0.171143 -0.060305 -0.302035
v -0.174995 -0.148157 -0.302035
v -0.192875 -0.070830 -0.286240
v -0.235975 -0.148157 -0.255145
v 0.252075 0.006915 -0.302035
v 0.288677 -0.055536 -0.283530
v 0.267251 -0.047550 -0.296476
v 0.250667 0.022102 -0.302035
v 0.288677 -0.055536 -0.283530
v 0.279256 -0.148157 -0.285852
v 0.267251 -0.047550 -0.296476
v 0.289027 -0.148157 -0.283530
v 0.293389 0.004382 -0.284134
v 0.288677 -0.055536 -0.283530
v 0.250667 0.022102 -0.302035
v 0.305919 -0.072522 -0.271179
v -0.259501 0.125560 -0.226544
v -0.109107 0.133345 -0.278986
v -0.240828 0.044158 -0.267511
v -0.109096 0.148157 -0.272595
v -0.240828 0.044158 -0.267511
v -0.109107 0.133345 -0.278986
v -0.143007 0.032202 -0.302035
v -0.084324 0.092704 -0.302035
v 0.138436 0.142081 -0.278614
v 0.320208 0.002020 -0.267087
v 0.293389 0.004382 -0.284134
v 0.119821 0.088800 -0.302035
v -0.114016 0.043013 -0.302035
v -0.171143 -0.060305 -0.302035
v -0.143007 0.032202 -0.302035
v -0.192875 -0.070830 -0.286240
v -0.192875 -0.070830 -0.286240
v -0.240828 0.044158 -0.267511
v -0.143007 0.032202 -0.302035
v 0.138411 0.058235 -0.302035
v 0.293389 0.004382 -0.284134
v 0.250667 0.022102 -0.302035
v 0.119821 0.088800 -0.302035
v -0.109096 0.148157 -0.272595
v 0.138436 0.142081 -0.278614
v -0.109107 0.133345 -0.278986
v 0.146734 0.144381 -0.275029
v -0.109107 0.133345 -0.278986
v 0.138436 0.142081 -0.278614
v -0.084324 0.092704 -0.302035
v 0.119821 0.088800 -0.302035
v 0.267251 -0.047550 -0.296476
v 0.183340 -0.148157 -0.302035
v 0.173197 -0.058765 -0.302035
v 0.279256 -0.148157 -0.285852
v 0.267251 -0.047550 -0.296476
v 0.173197 -0.058765 -0.302035
v 0.252075 0.006915 -0.302035
v 0.157011 0.006644 -0.302035
v 0.250667 0.022102 -0.302035
v 0.157011 0.006644 -0.302035
v 0.138411 0.058235 -0.302035
v 0.252075 0.006915 -0.302035
v -0.053305 0.063427 -0.302035
v -0.088792 0.006924 -0.302035
v -0.114016 0.043013 -0.302035
v -0.037696 0.012041 -0.302035
v -0.028094 -0.057452 -0.302035
v -0.154011 -0.053186 -0.302035
v -0.088792 0.006924 -0.302035
v -0.037696 0.012041 -0.302035
v -0.028094 -0.057452 -0.302035
v -0.150019 -0.148157 -0.302035
v -0.154011 -0.053186 -0.302035
v -0.023707 -0.148157 -0.302035
v 0.157011 0.006644 -0.302035
v 0.173197 -0.058765 -0.302035
v -0.037696 0.012041 -0.302035
v 0.138411 0.058235 -0.302035
v -0.037696 0.012041 -0.302035
v -0.053305 0.063427 -0.302035
v 0.157011 0.006644 -0.302035
v 0.173197 -0.058765 -0.302035
v -0.023707 -0.148157 -0.302035
v -0.028094 -0.057452 -0.302035
v 0.183340 -0.148157 -0.302035
v -0.154011 -0.053186 -0.302035
v -0.150019 -0.148157 -0.302035
v -0.171143 -0.060305 -0.302035
v -0.174995 -0.148157 -0.302035
v -0.154011 -0.053186 -0.302035
v -0.114016 0.043013 -0.302035
v -0.088792 0.006924 -0.302035
v -0.171143 -0.060305 -0.302035
v -0.143007 0.032202 -0.302035
v -0.084324 0.092704 -0.302035
v -0.114016 0.043013 -0.302035
v -0.053305 0.063427 -0.302035
v -0.084324 0.092704 -0.302035
v 0.119821 0.088800 -0.302035
v -0.053305 0.063427 -0.302035
v 0.138411 0.058235 -0.302035
v 0.320208 0.002020 -0.267087
v 0.146734 0.144381 -0.275029
v 0.331579 0.137447 -0.269787
v 0.138436 0.142081 -0.278614
v -0.023707 -0.148157 -0.302035
v 0.279256 -0.148157 -0.285852
v -0.150019 -0.148157 -0.302035
v 0.183340 -0.148157 -0.302035
v 0.332250 -0.148157 -0.130203
v -0.265407 -0.148157 -0.218137
v 0.317437 -0.148157 -0.245351
v -0.291176 -0.148157 -0.144619
v 0.042050 -0.148157 0.289123
v -0.210851 -0.148157 0.285762
v 0.331572 -0.148157 0.264573
v 0.332250 -0.148157 -0.130203
v -0.210851 -0.148157 0.285762
v -0.291176 -0.148157 -0.144619
v 0.331572 -0.148157 0.264573
v 0.317437 -0.148157 -0.245351
v -0.235975 -0.148157 -0.255145
v 0.305907 -0.148157 -0.271179
v -0.265407 -0.148157 -0.218137
v -0.150019 -0.148157 -0.302035
v 0.289027 -0.148157 -0.283530
v -0.174995 -0.148157 -0.302035
v 0.279256 -0.148157 -0.285852
v 0.305907 -0.148157 -0.271179
v -0.235975 -0.148157 -0.255145
v 0.289027 -0.148157 -0.283530
v -0.174995 -0.148157 -0.302035
vt 2.273862 0.717542
vt 2.244095 0.701050
vt 2.274357 0.701050
vt 2.243105 0.717542
vt 2.318013 0.717542
vt 2.273367 0.734033
vt 2.273862 0.717542
vt 2.318013 0.734033
vt 2.348825 0.538116
vt 2.163953 0.494111
vt 2.348825 0.462950
vt 2.163953 0.538116
vt 2.318013 0.701050
vt 2.274357 0.701050
vt 2.318013 0.668763
vt 2.273031 0.685211
vt 2.242115 0.734033
vt 2.273862 0.717542
vt 2.273367 0.734033
vt 2.243105 0.717542
vt 2.696328 0.459341
vt 2.638150 0.408116
vt 2.687646 0.408116
vt 2.638150 0.442363
vt 2.637821 0.354810
vt 2.684439 0.357022
vt 2.687646 0.408116
vt 2.638150 0.408116
vt 2.352230 0.655551
vt 2.440197 0.569529
vt 2.440197 0.655551
vt 2.352230 0.578308
vt 2.194765 0.717542
vt 2.242115 0.734033
vt 2.194765 0.734033
vt 2.243105 0.717542
vt 2.682164 0.655551
vt 2.715121 0.594563
vt 2.715121 0.655551
vt 2.682163 0.599917
vt 2.836044 0.537169
vt 2.748078 0.655551
vt 2.748078 0.589209
vt 2.836044 0.655551
vt 2.440197 0.569529
vt 2.462361 0.472137
vt 2.473154 0.584723
vt 2.484207 0.501413
vt 2.547102 0.265967
vt 2.636834 0.322826
vt 2.548808 0.322826
vt 2.635129 0.265967
vt 2.473154 0.584723
vt 2.440197 0.655551
vt 2.440197 0.569529
vt 2.473154 0.655551
vt 2.503583 0.357268
vt 2.500628 0.408116
vt 2.495145 0.365471
vt 2.506111 0.322826
vt 2.748078 0.589209
vt 2.817281 0.469988
vt 2.836044 0.537169
vt 2.728426 0.479508
vt 2.506111 0.599917
vt 2.506111 0.655551
vt 2.473154 0.584723
vt 2.473154 0.655551
vt 2.682164 0.537169
vt 2.638150 0.476609
vt 2.705010 0.510565
vt 2.638151 0.537169
vt 2.352230 0.537169
vt 2.440197 0.569529
vt 2.352230 0.578308
vt 2.462361 0.472137
vt 2.638150 0.476609
vt 2.550124 0.537169
vt 2.550124 0.468093
vt 2.638151 0.537169
vt 2.506111 0.537169
vt 2.473154 0.584723
vt 2.484207 0.501413
vt 2.506111 0.599917
vt 2.318013 0.717542
vt 2.274357 0.701050
vt 2.318013 0.701050
vt 2.273862 0.717542
vt 2.418205 0.337041
vt 2.506111 0.322826
vt 2.495145 0.365471
vt 2.440197 0.294397
vt 2.682164 0.537169
vt 2.715121 0.594563
vt 2.682163 0.599917
vt 2.705010 0.510565
vt 2.478753 0.418804
vt 2.352230 0.537169
vt 2.396213 0.379686
vt 2.462361 0.472137
vt 2.687646 0.408116
vt 2.682163 0.322826
vt 2.693129 0.365471
vt 2.728426 0.479508
vt 2.710778 0.422490
vt 2.817281 0.469988
vt 2.792061 0.379686
vt 2.495145 0.365471
vt 2.492417 0.454765
vt 2.478753 0.418804
vt 2.500628 0.408116
vt 2.179358 0.323398
vt 2.323191 0.285271
vt 2.333419 0.323398
vt 2.189586 0.285270
vt 2.478753 0.418804
vt 2.484207 0.501413
vt 2.462361 0.472137
vt 2.492417 0.454765
vt 2.243105 0.717542
vt 2.194764 0.701050
vt 2.244095 0.701050
vt 2.194765 0.717542
vt 2.748078 0.589209
vt 2.748078 0.655551
vt 2.715121 0.594563
vt 2.715121 0.655551
vt 2.638150 0.442363
vt 2.550124 0.438104
vt 2.550124 0.408116
vt 2.638150 0.408116
vt 2.705010 0.510565
vt 2.696328 0.459341
vt 2.728426 0.479508
vt 2.710778 0.422490
vt 2.682163 0.322826
vt 2.687646 0.408116
vt 2.684439 0.357022
vt 2.550124 0.468093
vt 2.492417 0.454765
vt 2.550124 0.438104
vt 2.484207 0.501413
vt 2.636834 0.322826
vt 2.684439 0.357022
vt 2.637821 0.354810
vt 2.682163 0.322826
vt 2.550124 0.537169
vt 2.506111 0.537169
vt 2.550124 0.468093
vt 2.484207 0.501413
vt 2.693129 0.365471
vt 2.748078 0.294397
vt 2.770070 0.337041
vt 2.682163 0.322826
vt 2.194765 0.265966
vt 2.318013 0.265967
vt 2.189586 0.285270
vt 2.323191 0.285271
vt 2.241441 0.685211
vt 2.194764 0.701050
vt 2.194764 0.668763
vt 2.244095 0.701050
vt 2.728426 0.479508
vt 2.715121 0.594563
vt 2.705010 0.510565
vt 2.748078 0.589209
vt 2.710778 0.422490
vt 2.696328 0.459341
vt 2.687646 0.408116
vt 2.693129 0.365471
vt 2.549795 0.354811
vt 2.636834 0.322826
vt 2.637821 0.354810
vt 2.548808 0.322826
vt 2.500628 0.408116
vt 2.503583 0.357268
vt 2.550124 0.408116
vt 2.500628 0.408116
vt 2.550124 0.438104
vt 2.492417 0.454765
vt 2.550124 0.408116
vt 2.506111 0.322826
vt 2.549795 0.354811
vt 2.503583 0.357268
vt 2.548808 0.322826
vt 2.333419 0.323398
vt 2.348825 0.380829
vt 2.179358 0.323398
vt 2.163952 0.380829
vt 2.693129 0.365471
vt 2.792061 0.379686
vt 2.710778 0.422490
vt 2.770070 0.337041
vt 2.696328 0.459341
vt 2.705010 0.510565
vt 2.638150 0.442363
vt 2.638150 0.476609
vt 2.638150 0.442363
vt 2.638150 0.476609
vt 2.550124 0.438104
vt 2.550124 0.468093
vt 2.163953 0.538116
vt 2.318013 0.668763
vt 2.194764 0.668763
vt 2.348825 0.538116
vt 2.635129 0.265967
vt 2.682163 0.322826
vt 2.636834 0.322826
vt 2.682164 0.265966
vt 2.550124 0.408116
vt 2.637821 0.354810
vt 2.638150 0.408116
vt 2.549795 0.354811
vt 2.548808 0.322826
vt 2.506111 0.265967
vt 2.547102 0.265967
vt 2.274357 0.701050
vt 2.241441 0.685211
vt 2.273031 0.685211
vt 2.244095 0.701050
vt 2.194764 0.668763
vt 2.273031 0.685211
vt 2.241441 0.685211
vt 2.318013 0.668763
vt 2.495145 0.365471
vt 2.396213 0.379686
vt 2.418205 0.337041
vt 2.478753 0.418804
vt 2.348825 0.380829
vt 2.348825 0.462950
vt 2.163952 0.380829
vt 2.163953 0.494111
vn -0.036761 0.071946 0.996475
vn -0.036761 0.071946 0.996475
vn -0.036761 0.071946 0.996475
vn -0.036761 0.071946 0.996475
vn 0.055008 -0.008108 0.998428
vn 0.055008 -0.008108 0.998428
vn 0.055008 -0.008108 0.998428
vn 0.055008 -0.008108 0.998428
vn -0.025046 -0.097925 0.994523
vn -0.025046 -0.097925 0.994523
vn -0.025046 -0.097925 0.994523
vn -0.025046 -0.097925 0.994523
vn 0.078439 -0.100854 0.991594
vn 0.078439 -0.100854 0.991594
vn 0.078439 -0.100854 0.991594
vn 0.078439 -0.100854 0.991594
vn -0.020165 -0.076447 0.996475
vn -0.020165 -0.076447 0.996475
vn -0.020165 -0.076447 0.996475
vn -0.020165 -0.076447 0.996475
vn 0.068676 -0.113546 0.991594
vn 0.068676 -0.113546 0.991594
vn 0.068676 -0.113546 0.991594
vn 0.068676 -0.113546 0.991594
vn 0.005218 -0.073518 0.997451
vn 0.005218 -0.073518 0.997451
vn 0.005218 -0.073518 0.997451
vn 0.005218 -0.073518 0.997451
vn 0.042317 0.066088 0.996475
vn 0.042317 0.066088 0.996475
vn 0.042317 0.066088 0.996475
vn 0.042317 0.066088 0.996475
vn 0.044269 -0.098901 0.994523
vn 0.044269 -0.098901 0.994523
vn 0.044269 -0.098901 0.994523
vn 0.044269 -0.098901 0.994523
vn -0.935907 -0.101830 -0.338088
vn -0.935907 -0.101830 -0.338088
vn -0.935907 -0.101830 -0.338088
vn -0.935907 -0.101830 -0.338088
vn -0.980816 0.003607 0.194956
vn -0.980816 0.003607 0.194956
vn -0.980816 0.003607 0.194956
vn -0.980816 0.003607 0.194956
vn -0.968124 -0.197505 0.152000
vn -0.968124 -0.197505 0.152000
vn -0.968124 -0.197505 0.152000
vn -0.968124 -0.197505 0.152000
vn -0.963243 -0.218007 0.154929
vn -0.963243 -0.218007 0.154929
vn -0.963243 -0.218007 0.154929
vn -0.963243 -0.218007 0.154929
vn -0.945670 0.168597 -0.279512
vn -0.945670 0.168597 -0.279512
vn -0.945670 0.168597 -0.279512
vn -0.945670 0.168597 -0.279512
vn 0.895578 -0.014942 -0.444502
vn 0.895578 -0.014942 -0.444502
vn 0.895578 -0.014942 -0.444502
vn 0.895578 -0.014942 -0.444502
vn 1.000039 -0.000298 0.001654
vn 1.000039 -0.000298 0.001654
vn 1.000039 -0.000298 0.001654
vn 1.000039 -0.000298 0.001654
vn 1.000039 -0.000298 0.001654
vn 1.000039 -0.000298 0.001654
vn 1.000039 -0.000298 0.001654
vn 1.000039 -0.000298 0.001654
vn 1.000039 -0.000298 0.001654
vn 1.000039 -0.000298 0.001654
vn 1.000039 -0.000298 0.001654
vn 1.000039 -0.000298 0.001654
vn 0.992229 -0.026657 -0.121356
vn 0.992229 -0.026657 -0.121356
vn 0.992229 -0.026657 -0.121356
vn 0.992229 -0.026657 -0.121356
vn 0.996134 0.007512 -0.089139
vn 0.996134 0.007512 -0.089139
vn 0.996134 0.007512 -0.089139
vn 0.996134 0.007512 -0.089139
vn 0.998086 -0.047159 -0.040325
vn 0.998086 -0.047159 -0.040325
vn 0.998086 -0.047159 -0.040325
vn 0.998086 -0.047159 -0.040325
vn 0.712039 -0.097925 -0.695403
vn 0.712039 -0.097925 -0.695403
vn 0.712039 -0.097925 -0.695403
vn 0.712039 -0.097925 -0.695403
vn -0.670362 -0.024705 -0.742264
vn -0.670362 -0.024705 -0.742264
vn -0.670362 -0.024705 -0.742264
vn -0.670362 -0.024705 -0.742264
vn -0.875379 -0.221912 -0.430834
vn -0.875379 -0.221912 -0.430834
vn -0.875379 -0.221912 -0.430834
vn -0.875379 -0.221912 -0.430834
vn 0.587076 0.001654 -0.809627
vn 0.587076 0.001654 -0.809627
vn 0.587076 0.001654 -0.809627
vn 0.587076 0.001654 -0.809627
vn -0.471202 -0.053017 -0.880895
vn -0.471202 -0.053017 -0.880895
vn -0.471202 -0.053017 -0.880895
vn -0.605928 0.022156 -0.794983
vn -0.605928 0.022156 -0.794983
vn -0.605928 0.022156 -0.794983
vn -0.605928 0.022156 -0.794983
vn 0.527523 0.058278 -0.847702
vn 0.527523 0.058278 -0.847702
vn 0.527523 0.058278 -0.847702
vn 0.527523 0.058278 -0.847702
vn 0.434778 -0.021776 -0.900420
vn 0.434778 -0.021776 -0.900420
vn 0.434778 -0.021776 -0.900420
vn 0.434778 -0.021776 -0.900420
vn 0.429896 -0.043254 -0.901397
vn 0.429896 -0.043254 -0.901397
vn 0.429896 -0.043254 -0.901397
vn 0.429896 -0.043254 -0.901397
vn -0.322809 0.366780 -0.872108
vn -0.322809 0.366780 -0.872108
vn -0.322809 0.366780 -0.872108
vn -0.322809 0.366780 -0.872108
vn -0.294497 0.305275 -0.905302
vn -0.294497 0.305275 -0.905302
vn -0.294497 0.305275 -0.905302
vn -0.294497 0.305275 -0.905302
vn 0.321530 0.396068 -0.859417
vn 0.321530 0.396068 -0.859417
vn 0.321530 0.396068 -0.859417
vn 0.321530 0.396068 -0.859417
vn -0.334524 0.102210 -0.936542
vn -0.334524 0.102210 -0.936542
vn -0.334524 0.102210 -0.936542
vn -0.334524 0.102210 -0.936542
vn -0.471202 -0.053017 -0.880895
vn -0.471202 -0.053017 -0.880895
vn -0.471202 -0.053017 -0.880895
vn 0.283456 0.556177 -0.781315
vn 0.283456 0.556177 -0.781315
vn 0.283456 0.556177 -0.781315
vn 0.283456 0.556177 -0.781315
vn -0.008450 0.506387 -0.862346
vn -0.008450 0.506387 -0.862346
vn -0.008450 0.506387 -0.862346
vn -0.008450 0.506387 -0.862346
vn -0.003568 0.442929 -0.896515
vn -0.003568 0.442929 -0.896515
vn -0.003568 0.442929 -0.896515
vn -0.003568 0.442929 -0.896515
vn 0.116513 -0.042278 -0.992190
vn 0.116513 -0.042278 -0.992190
vn 0.116513 -0.042278 -0.992190
vn 0.116513 -0.042278 -0.992190
vn 0.031578 -0.038373 -0.999024
vn 0.031578 -0.038373 -0.999024
vn 0.031578 -0.038373 -0.999024
vn 0.031578 -0.038373 -0.999024
vn 0.000337 -0.000298 -1.000000
vn 0.000337 -0.000298 -1.000000
vn 0.000337 -0.000298 -1.000000
vn 0.000337 -0.000298 -1.000000
vn 0.000337 -0.000298 -1.000000
vn 0.000337 -0.000298 -1.000000
vn 0.000337 -0.000298 -1.000000
vn 0.000337 -0.000298 -1.000000
vn 0.000337 -0.000298 -1.000000
vn 0.000337 -0.000298 -1.000000
vn 0.000337 -0.000298 -1.000000
vn 0.000337 -0.000298 -1.000000
vn 0.000337 -0.000298 -1.000000
vn 0.000337 -0.000298 -1.000000
vn 0.000337 -0.000298 -1.000000
vn 0.000337 -0.000298 -1.000000
vn 0.000337 -0.000298 -1.000000
vn 0.000337 -0.000298 -1.000000
vn 0.000337 -0.000298 -1.000000
vn 0.000337 -0.000298 -1.000000
vn 0.000337 -0.000298 -1.000000
vn 0.000337 -0.000298 -1.000000
vn 0.000337 -0.000298 -1.000000
vn 0.000337 -0.000298 -1.000000
vn 0.000337 -0.000298 -1.000000
vn 0.000337 -0.000298 -1.000000
vn 0.000337 -0.000298 -1.000000
vn 0.000337 -0.000298 -1.000000
vn 0.000337 -0.000298 -1.000000
vn 0.000337 -0.000298 -1.000000
vn 0.000337 -0.000298 -1.000000
vn 0.000337 -0.000298 -1.000000
vn 0.000337 -0.000298 -1.000000
vn 0.000337 -0.000298 -1.000000
vn 0.000337 -0.000298 -1.000000
vn 0.000337 -0.000298 -1.000000
vn 0.000337 -0.000298 -1.000000
vn 0.000337 -0.000298 -1.000000
vn 0.000337 -0.000298 -1.000000
vn 0.000337 -0.000298 -1.000000
vn 0.000337 -0.000298 -1.000000
vn 0.000337 -0.000298 -1.000000
vn 0.000337 -0.000298 -1.000000
vn 0.045245 -0.000298 -0.999024
vn 0.045245 -0.000298 -0.999024
vn 0.045245 -0.000298 -0.999024
vn 0.045245 -0.000298 -0.999024
vn 0.000337 -1.000000 -0.000298
vn 0.000337 -1.000000 -0.000298
vn 0.000337 -1.000000 -0.000298
vn 0.000337 -1.000000 -0.000298
vn 0.000337 -1.000000 -0.000298
vn 0.000337 -1.000000 -0.000298
vn 0.000337 -1.000000 -0.000298
vn 0.000337 -1.000000 -0.000298
vn 0.000337 -1.000000 -0.000298
vn 0.000337 -1.000000 -0.000298
vn 0.000337 -1.000000 -0.000298
vn 0.000337 -1.000000 -0.000298
vn 0.000337 -1.000000 -0.000298
vn 0.000337 -1.000000 -0.000298
vn 0.000337 -1.000000 -0.000298
vn 0.000337 -1.000000 -0.000298
vn 0.000337 -1.000000 -0.000298
vn 0.000337 -1.000000 -0.000298
vn 0.000337 -1.000000 -0.000298
vn 0.000337 -1.000000 -0.000298
vn 0.000337 -1.000000 -0.000298
vn 0.000337 -1.000000 -0.000298
vn 0.000337 -1.000000 -0.000298
vn 0.000337 -1.000000 -0.000298
vn 0.000337 -1.000000 -0.000298
vn 0.000337 -1.000000 -0.000298
vn 0.000337 -1.000000 -0.000298
f 1/1/1 2/2/2 3/3/3
f 2/2/2 1/1/1 4/4/4
f 5/5/5 6/6/6 7/7/7
f 6/6/6 5/5/5 8/8/8
f 9/9/9 10/10/10 11/11/11
f 10/10/10 9/9/9 12/12/12
f 13/13/13 14/14/14 15/15/15
f 16/16/16 15/15/15 14/14/14
f 17/17/17 18/18/18 19/19/19
f 18/18/18 17/17/17 20/20/20
f 21/21/21 22/22/22 23/23/23
f 22/22/22 21/21/21 24/24/24
f 25/25/25 26/26/26 27/27/27
f 27/27/27 28/28/28 25/25/25
f 29/29/29 30/30/30 31/31/31
f 30/30/30 29/29/29 32/32/32
f 33/33/33 34/34/34 35/35/35
f 34/34/34 33/33/33 36/36/36
f 37/37/37 38/38/38 39/39/39
f 38/38/38 37/37/37 40/40/40
f 41/41/41 42/42/42 43/43/43
f 42/42/42 41/41/41 44/44/44
f 45/45/45 46/46/46 47/47/47
f 47/47/47 46/46/46 48/48/48
f 49/49/49 50/50/50 51/51/51
f 50/50/50 49/49/49 52/52/52
f 53/53/53 54/54/54 55/55/55
f 54/54/54 53/53/53 56/56/56
f 57/57/57 58/58/58 59/59/59
f 57/57/57 59/59/59 60/60/60
f 61/61/61 62/62/62 63/63/63
f 62/62/62 61/61/61 64/64/64
f 65/65/65 66/66/66 67/67/67
f 67/67/67 66/66/66 68/68/68
f 69/69/69 70/70/70 71/71/71
f 70/70/70 69/69/69 72/72/72
f 73/73/73 74/74/74 75/75/75
f 74/74/74 73/73/73 76/76/76
f 77/77/77 78/78/78 79/79/79
f 78/78/78 77/77/77 80/80/80
f 81/81/81 82/82/82 83/83/83
f 82/82/82 81/81/81 84/84/84
f 85/85/85 86/86/86 87/87/87
f 86/86/86 85/85/85 88/88/88
f 89/89/89 90/90/90 91/91/91
f 90/90/90 89/89/89 92/92/92
f 93/93/93 94/94/94 95/95/95
f 94/94/94 93/93/93 96/96/96
f 97/97/97 98/98/98 99/99/99
f 98/98/98 97/97/97 100/100/100
f 101/101/101 102/102/102 103/103/103
f 104/104/104 105/105/105 106/106/106
f 106/106/106 105/105/105 107/107/107
f 108/108/108 109/109/109 110/110/110
f 111/111/111 109/109/109 108/108/108
f 112/112/112 113/113/113 114/114/114
f 113/113/113 112/112/112 115/115/115
f 116/116/116 117/117/117 118/118/118
f 117/117/117 116/116/116 119/119/119
f 120/120/120 121/121/121 122/122/122
f 121/121/121 120/120/120 123/123/123
f 124/124/124 125/125/125 126/126/126
f 126/126/126 125/125/125 127/127/127
f 128/128/128 129/129/129 130/130/130
f 128/128/128 130/130/130 131/131/131
f 132/132/132 133/133/133 134/134/134
f 134/134/134 133/133/133 135/135/135
f 136/136/136 137/137/137 138/138/138
f 139/139/139 140/140/140 141/141/141
f 142/142/142 140/140/140 139/139/139
f 143/143/143 144/144/144 145/145/145
f 144/144/144 143/143/143 146/146/146
f 147/147/147 148/148/148 149/149/149
f 149/149/149 148/148/148 150/150/150
f 151/151/151 152/152/152 153/153/153
f 152/152/152 151/151/151 154/154/154
f 155/155/155 156/156/156 157/157/157
f 158/158/158 157/157/157 156/156/156
f 159/159/159 160/160/160 161/161/161
f 160/160/160 159/159/159 162/162/162
f 163/163/163 164/164/164 165/165/165
f 164/164/164 163/163/163 166/166/166
f 167/167/167 168/168/168 169/169/169
f 167/167/167 169/169/169 170/170/170
f 171/171/171 172/172/172 173/173/173
f 172/172/172 171/171/171 174/174/174
f 171/171/171 175/175/175 176/176/176
f 175/175/175 171/171/171 177/177/177
f 178/178/178 179/179/179 180/180/180
f 179/179/179 178/178/178 181/181/181
f 182/182/182 183/183/183 184/184/184
f 183/183/183 182/182/182 185/185/185
f 186/186/186 187/187/187 188/188/188
f 188/188/188 187/187/187 189/189/189
f 190/190/190 191/191/191 192/192/192
f 193/193/193 191/191/191 190/190/190
f 194/194/194 195/195/195 196/196/196
f 197/197/197 196/196/196 195/195/195
f 198/198/198 199/199/199 200/200/200
f 201/201/201 200/200/200 199/199/199
f 202/202/202 203/203/203 204/204/204
f 202/202/202 205/205/205 203/203/203
f 206/206/206 207/207/207 208/208/208
f 207/207/207 206/206/206 209/209/209
f 210/210/210 211/211/211 212/212/212
f 211/211/211 210/210/210 213/213/213
f 214/214/214 215/215/215 216/216/216
f 217/217/217 218/218/218 219/219/219
f 218/218/218 217/217/217 220/220/220
f 221/221/221 222/222/222 223/223/223
f 222/222/222 221/221/221 224/224/224
f 225/225/225 226/226/226 227/227/227
f 226/226/226 225/225/225 228/228/228
f 229/229/229 230/230/230 231/231/231
f 231/231/231 230/230/230 232/232/232
