# Generated from Roblox mesh JSON (v7.00)
# Hello from RBX_Toolbox ;)
o RightHand
v -0.176478 0.035395 -0.320142
v -0.175820 0.034464 -0.321336
v -0.176478 0.034464 -0.320142
v -0.177136 0.035395 -0.318948
v -0.176478 0.034464 -0.320142
v -0.177136 0.034464 -0.318948
v -0.249578 0.035395 -0.000000
v -0.249578 0.034464 -0.001689
v -0.249578 0.034464 -0.000000
v -0.176478 0.035395 -0.320142
v -0.249578 0.035395 -0.001689
v -0.175820 0.035395 -0.321336
v -0.000051 -0.036326 -0.000093
v 0.000000 -0.036326 -0.000093
v -0.000051 -0.036326 -0.000000
v 0.000000 -0.036326 -0.000000
v -0.000930 0.035395 -0.441337
v 0.000000 0.034464 -0.441337
v -0.000930 0.034464 -0.441337
v 0.000000 0.035395 -0.441337
v -0.000051 -0.036326 -0.000000
v 0.000000 -0.036326 -0.000000
v -0.000051 -0.036326 0.000093
v -0.249578 0.035395 0.001688
v -0.249578 0.034464 0.001688
v -0.172030 0.035395 0.312072
v -0.172688 0.034464 0.310879
v -0.172030 0.034464 0.312072
v -0.172688 0.035395 0.310879
v -0.171372 0.035395 0.313266
v -0.172030 0.035395 0.312072
v -0.172030 0.034464 0.312072
v 0.000000 -0.036326 0.000093
v -0.171372 0.034464 0.313266
v -0.000000 0.035395 0.441337
v -0.000931 0.034464 0.441337
v -0.000000 0.034464 0.441337
v -0.000931 0.035395 0.441337
v -0.000930 0.036326 -0.441337
v -0.177136 0.036326 -0.318948
v -0.249578 0.036326 -0.000000
v -0.176478 0.036326 -0.320142
v -0.249578 0.036326 -0.001689
v -0.176478 0.036326 -0.320142
v 0.000000 0.036326 -0.441337
v -0.175820 0.036326 -0.321336
v -0.000931 0.036326 -0.000000
v 0.000000 0.036326 -0.001689
v -0.000931 0.036326 -0.001689
v 0.000000 0.036326 -0.000000
v -0.249578 0.036326 0.001688
v -0.172030 0.036326 0.312072
v -0.172688 0.035395 0.310879
v -0.172030 0.035395 0.312072
v -0.172688 0.036326 0.310879
v -0.171372 0.036326 0.313266
v -0.172030 0.036326 0.312072
v -0.172030 0.035395 0.312072
v -0.171372 0.035395 0.313266
v -0.000000 0.036326 0.441337
v -0.000931 0.036326 0.441337
v -0.000931 0.036326 0.001688
v 0.000000 0.036326 0.001688
v 0.000000 -0.036326 -0.000093
v 0.000051 -0.036326 -0.000093
v 0.000000 -0.036326 -0.000000
v 0.000931 0.034464 -0.441337
v 0.000051 -0.036326 -0.000000
v 0.171372 0.035395 -0.313266
v 0.172030 0.034464 -0.312072
v 0.171372 0.034464 -0.313266
v 0.000931 0.035395 -0.441337
v 0.172030 0.035395 -0.312072
v 0.172030 0.035395 -0.312072
v 0.172688 0.034464 -0.310879
v 0.172030 0.034464 -0.312072
v 0.249578 0.035395 -0.001688
v 0.249578 0.034464 -0.000000
v 0.249578 0.034464 -0.001688
v 0.172688 0.035395 -0.310879
v 0.249578 0.035395 -0.000000
v 0.000051 -0.036326 -0.000000
v 0.000000 -0.036326 0.000093
v 0.000051 -0.036326 0.000093
v 0.000931 0.035395 0.441337
v 0.000931 0.034464 0.441337
v 0.176478 0.035395 0.320142
v 0.175820 0.035395 0.321335
v 0.175820 0.034464 0.321335
v 0.176478 0.034464 0.320142
v 0.249578 0.034464 0.001688
v 0.177136 0.035395 0.318948
v 0.177136 0.034464 0.318948
v 0.249578 0.035395 0.001688
v 0.000931 0.036326 -0.441337
v 0.171372 0.036326 -0.313266
v 0.172030 0.035395 -0.312072
v 0.171372 0.035395 -0.313266
v 0.000931 0.036326 -0.001689
v 0.000931 0.036326 -0.000000
v 0.172030 0.036326 -0.312072
v 0.172030 0.036326 -0.312072
v 0.172688 0.035395 -0.310879
v 0.172030 0.035395 -0.312072
v 0.249578 0.036326 -0.001688
v 0.172688 0.036326 -0.310879
v 0.249578 0.036326 -0.000000
v 0.176478 0.036326 0.320142
v 0.175820 0.036326 0.321335
v 0.000931 0.036326 0.441337
v 0.000931 0.036326 0.001688
v 0.177136 0.036326 0.318948
v 0.249578 0.036326 0.001688
vt 0.500000 0.125000
vt 0.375000 0.000000
vt 0.375000 0.125000
vt 0.500000 0.250000
vt 0.375000 0.125000
vt 0.375000 0.250000
vt 0.500000 0.125000
vt 0.375000 0.000000
vt 0.375000 0.125000
vt 0.500000 0.125000
vt 0.500000 0.000000
vt 0.500000 0.000000
vt 0.375000 0.500000
vt 0.250000 0.500000
vt 0.375000 0.625000
vt 0.250000 0.625000
vt 0.500000 1.000000
vt 0.375000 0.875000
vt 0.375000 1.000000
vt 0.500000 0.875000
vt 0.375000 0.625000
vt 0.250000 0.625000
vt 0.375000 0.750000
vt 0.500000 0.250000
vt 0.375000 0.250000
vt 0.500000 0.375000
vt 0.375000 0.250000
vt 0.375000 0.375000
vt 0.500000 0.250000
vt 0.500000 0.500000
vt 0.500000 0.375000
vt 0.375000 0.375000
vt 0.250000 0.750000
vt 0.375000 0.500000
vt 0.500000 0.375000
vt 0.375000 0.250000
vt 0.375000 0.375000
vt 0.500000 0.250000
vt 0.625000 1.000000
vt 0.625000 0.250000
vt 0.625000 0.125000
vt 0.625000 0.125000
vt 0.625000 0.000000
vt 0.625000 0.125000
vt 0.625000 0.875000
vt 0.625000 0.000000
vt 0.875000 0.625000
vt 0.750000 0.750000
vt 0.875000 0.750000
vt 0.750000 0.625000
vt 0.625000 0.250000
vt 0.625000 0.375000
vt 0.500000 0.250000
vt 0.500000 0.375000
vt 0.625000 0.250000
vt 0.625000 0.500000
vt 0.625000 0.375000
vt 0.500000 0.375000
vt 0.500000 0.500000
vt 0.625000 0.375000
vt 0.625000 0.250000
vt 0.875000 0.500000
vt 0.750000 0.500000
vt 0.250000 0.500000
vt 0.125000 0.500000
vt 0.250000 0.625000
vt 0.375000 0.750000
vt 0.125000 0.625000
vt 0.500000 1.000000
vt 0.375000 0.875000
vt 0.375000 1.000000
vt 0.500000 0.750000
vt 0.500000 0.875000
vt 0.500000 0.875000
vt 0.375000 0.750000
vt 0.375000 0.875000
vt 0.500000 0.750000
vt 0.375000 0.625000
vt 0.375000 0.750000
vt 0.500000 0.750000
vt 0.500000 0.625000
vt 0.125000 0.625000
vt 0.250000 0.750000
vt 0.125000 0.750000
vt 0.500000 0.500000
vt 0.375000 0.500000
vt 0.500000 0.625000
vt 0.500000 0.500000
vt 0.375000 0.500000
vt 0.375000 0.625000
vt 0.375000 0.500000
vt 0.500000 0.750000
vt 0.375000 0.750000
vt 0.500000 0.500000
vt 0.625000 0.750000
vt 0.625000 1.000000
vt 0.500000 0.875000
vt 0.500000 1.000000
vt 0.625000 0.750000
vt 0.625000 0.625000
vt 0.625000 0.875000
vt 0.625000 0.875000
vt 0.500000 0.750000
vt 0.500000 0.875000
vt 0.625000 0.750000
vt 0.625000 0.750000
vt 0.625000 0.625000
vt 0.625000 0.625000
vt 0.625000 0.500000
vt 0.625000 0.500000
vt 0.625000 0.500000
vt 0.625000 0.750000
vt 0.625000 0.500000
vn -0.875916 -0.000489 -0.483146
vn -0.875916 -0.000489 -0.483146
vn -0.875916 -0.000489 -0.483146
vn -0.875916 -0.000489 -0.483146
vn -0.875916 -0.000489 -0.483146
vn -0.875916 -0.000489 -0.483146
vn -1.000000 0.000489 0.000489
vn -1.000000 0.000489 0.000489
vn -1.000000 0.000489 0.000489
vn -0.875916 -0.000489 -0.483146
vn -1.000000 0.000489 0.000489
vn -0.875916 -0.000489 -0.483146
vn 0.000489 -1.000000 0.000489
vn 0.000489 -1.000000 0.000489
vn 0.000489 -1.000000 0.000489
vn 0.000489 -1.000000 0.000489
vn 0.000489 -0.000489 -1.000000
vn 0.000489 -0.000489 -1.000000
vn 0.000489 -0.000489 -1.000000
vn 0.000489 -0.000489 -1.000000
vn -0.000489 -1.000000 0.000489
vn -0.000489 -1.000000 0.000489
vn -0.000489 -1.000000 0.000489
vn -1.000000 0.000489 0.000489
vn -1.000000 0.000489 0.000489
vn -0.875916 0.000489 0.483146
vn -0.875916 0.000489 0.483146
vn -0.875916 0.000489 0.483146
vn -0.875916 0.000489 0.483146
vn -0.875916 0.000489 0.483146
vn -0.875916 0.000489 0.483146
vn -0.875916 0.000489 0.483146
vn -0.000489 -1.000000 0.000489
vn -0.875916 0.000489 0.483146
vn 0.000489 0.000489 1.000000
vn 0.000489 0.000489 1.000000
vn 0.000489 0.000489 1.000000
vn 0.000489 0.000489 1.000000
vn 0.000489 -0.000489 -1.000000
vn -0.875916 -0.000489 -0.483146
vn -1.000000 0.000489 0.000489
vn -0.875916 -0.000489 -0.483146
vn -1.000000 0.000489 0.000489
vn -0.875916 -0.000489 -0.483146
vn 0.000489 -0.000489 -1.000000
vn -0.875916 -0.000489 -0.483146
vn 0.000489 1.000000 -0.000489
vn 0.000489 1.000000 -0.000489
vn 0.000489 1.000000 -0.000489
vn 0.000489 1.000000 -0.000489
vn -1.000000 0.000489 0.000489
vn -0.875916 0.000489 0.483146
vn -0.875916 0.000489 0.483146
vn -0.875916 0.000489 0.483146
vn -0.875916 0.000489 0.483146
vn -0.875916 0.000489 0.483146
vn -0.875916 0.000489 0.483146
vn -0.875916 0.000489 0.483146
vn -0.875916 0.000489 0.483146
vn 0.000489 0.000489 1.000000
vn 0.000489 0.000489 1.000000
vn 0.000489 1.000000 -0.000489
vn 0.000489 1.000000 -0.000489
vn 0.000489 -1.000000 0.000489
vn 0.000489 -1.000000 0.000489
vn 0.000489 -1.000000 0.000489
vn 0.000489 -0.000489 -1.000000
vn 0.000489 -1.000000 0.000489
vn 0.875916 -0.000489 -0.482169
vn 0.875916 -0.000489 -0.482169
vn 0.875916 -0.000489 -0.482169
vn 0.000489 -0.000489 -1.000000
vn 0.875916 -0.000489 -0.482169
vn 0.875916 -0.000489 -0.483146
vn 0.875916 -0.000489 -0.483146
vn 0.875916 -0.000489 -0.483146
vn 1.000000 0.000489 0.000489
vn 1.000000 0.000489 0.000489
vn 1.000000 0.000489 0.000489
vn 0.875916 -0.000489 -0.483146
vn 1.000000 0.000489 0.000489
vn 0.000489 -1.000000 0.000489
vn 0.000489 -1.000000 0.000489
vn 0.000489 -1.000000 0.000489
vn 0.000489 0.000489 1.000000
vn 0.000489 0.000489 1.000000
vn 0.875916 0.000489 0.483146
vn 0.875916 0.000489 0.483146
vn 0.875916 0.000489 0.483146
vn 0.875916 0.000489 0.483146
vn 1.000000 0.000489 0.000489
vn 0.875916 0.000489 0.483146
vn 0.875916 0.000489 0.483146
vn 1.000000 0.000489 0.000489
vn 0.000489 -0.000489 -1.000000
vn 0.875916 -0.000489 -0.482169
vn 0.875916 -0.000489 -0.482169
vn 0.875916 -0.000489 -0.482169
vn 0.000489 1.000000 -0.000489
vn 0.000489 1.000000 -0.000489
vn 0.875916 -0.000489 -0.482169
vn 0.875916 -0.000489 -0.483146
vn 0.875916 -0.000489 -0.483146
vn 0.875916 -0.000489 -0.483146
vn 1.000000 0.000489 0.000489
vn 0.875916 -0.000489 -0.483146
vn 1.000000 0.000489 0.000489
vn 0.875916 0.000489 0.483146
vn 0.875916 0.000489 0.483146
vn 0.000489 0.000489 1.000000
vn 0.000489 1.000000 -0.000489
vn 0.875916 0.000489 0.483146
vn 1.000000 0.000489 0.000489
f 17/17/17 18/18/18 19/19/19
f 17/17/17 20/20/20 18/18/18
f 20/20/20 67/67/67 18/18/18
f 39/39/39 20/20/20 17/17/17
f 20/20/20 72/72/72 67/67/67
f 39/39/39 45/45/45 20/20/20
f 45/45/45 72/72/72 20/20/20
f 45/45/45 95/95/95 72/72/72
f 35/35/35 36/36/36 37/37/37
f 35/35/35 38/38/38 36/36/36
f 85/85/85 35/35/35 37/37/37
f 85/85/85 37/37/37 86/86/86
f 110/110/110 35/35/35 85/85/85
f 110/110/110 60/60/60 35/35/35
f 60/60/60 38/38/38 35/35/35
f 60/60/60 61/61/61 38/38/38
f 1/1/1 2/2/2 3/3/3
f 1/1/1 12/12/12 2/2/2
f 44/44/44 12/12/12 1/1/1
f 44/44/44 46/46/46 12/12/12
f 4/4/4 5/5/5 6/6/6
f 4/4/4 10/10/10 5/5/5
f 40/40/40 10/10/10 4/4/4
f 40/40/40 42/42/42 10/10/10
f 87/87/87 88/88/88 89/89/89
f 87/87/87 89/89/89 90/90/90
f 108/108/108 88/88/88 87/87/87
f 108/108/108 109/109/109 88/88/88
f 112/112/112 108/108/108 87/87/87
f 112/112/112 87/87/87 92/92/92
f 92/92/92 87/87/87 90/90/90
f 92/92/92 90/90/90 93/93/93
f 26/26/26 27/27/27 28/28/28
f 26/26/26 29/29/29 27/27/27
f 30/30/30 31/31/31 32/32/32
f 30/30/30 32/32/32 34/34/34
f 52/52/52 53/53/53 54/54/54
f 52/52/52 55/55/55 53/53/53
f 56/56/56 57/57/57 58/58/58
f 56/56/56 58/58/58 59/59/59
f 69/69/69 70/70/70 71/71/71
f 69/69/69 73/73/73 70/70/70
f 74/74/74 75/75/75 76/76/76
f 74/74/74 80/80/80 75/75/75
f 96/96/96 97/97/97 98/98/98
f 96/96/96 101/101/101 97/97/97
f 102/102/102 103/103/103 104/104/104
f 102/102/102 106/106/106 103/103/103
f 7/7/7 8/8/8 9/9/9
f 7/7/7 11/11/11 8/8/8
f 24/24/24 7/7/7 9/9/9
f 24/24/24 9/9/9 25/25/25
f 51/51/51 7/7/7 24/24/24
f 51/51/51 41/41/41 7/7/7
f 41/41/41 11/11/11 7/7/7
f 41/41/41 43/43/43 11/11/11
f 77/77/77 78/78/78 79/79/79
f 77/77/77 81/81/81 78/78/78
f 81/81/81 91/91/91 78/78/78
f 105/105/105 81/81/81 77/77/77
f 81/81/81 94/94/94 91/91/91
f 105/105/105 107/107/107 81/81/81
f 107/107/107 94/94/94 81/81/81
f 107/107/107 113/113/113 94/94/94
f 13/13/13 14/14/14 15/15/15
f 14/14/14 16/16/16 15/15/15
f 16/16/16 82/82/82 83/83/83
f 82/82/82 84/84/84 83/83/83
f 21/21/21 22/22/22 23/23/23
f 22/22/22 33/33/33 23/23/23
f 64/64/64 65/65/65 66/66/66
f 65/65/65 68/68/68 66/66/66
f 47/47/47 48/48/48 49/49/49
f 48/48/48 47/47/47 50/50/50
f 62/62/62 50/50/50 47/47/47
f 50/50/50 99/99/99 48/48/48
f 50/50/50 62/62/62 63/63/63
f 99/99/99 50/50/50 100/100/100
f 63/63/63 100/100/100 50/50/50
f 100/100/100 63/63/63 111/111/111
