# Generated from Roblox mesh JSON (v7.00)
# Hello from RBX_Toolbox ;)
o RightFoot
v -0.328281 -0.203955 -0.424330
v -0.274279 -0.181919 -0.491173
v -0.277804 -0.294416 -0.491672
v -0.334332 -0.294416 -0.422746
v -0.277804 -0.294416 -0.491672
v -0.221563 -0.294416 -0.558513
v -0.221563 -0.294416 -0.558513
v -0.334332 -0.294416 -0.422746
v -0.345632 -0.189711 -0.291637
v -0.322940 -0.112485 -0.423837
v -0.278926 -0.020346 -0.361071
v -0.270558 -0.068168 -0.490538
v -0.338774 -0.084418 -0.288904
v -0.286685 0.027369 -0.231598
v -0.064648 -0.294416 -0.597198
v -0.370533 -0.294416 -0.163167
v -0.334332 -0.294416 -0.422746
v -0.219545 -0.159931 -0.558034
v -0.143764 -0.151010 -0.577297
v -0.064648 -0.294416 -0.597198
v -0.066889 -0.150757 -0.596493
v -0.221563 -0.294416 -0.558513
v 0.365945 -0.294416 -0.164336
v -0.143768 -0.006033 -0.576473
v -0.069427 0.011846 -0.595694
v -0.217415 -0.023913 -0.557255
v -0.370533 -0.294416 -0.163167
v -0.369422 -0.294416 0.357812
v -0.360974 -0.176112 0.344973
v -0.353536 -0.053537 -0.153874
v -0.297421 -0.294416 0.445300
v -0.290731 -0.154407 0.430648
v -0.224189 -0.294416 0.530884
v -0.352508 -0.057074 0.330390
v -0.283776 -0.013425 0.416195
v -0.219211 -0.132779 0.516298
v -0.369422 -0.294416 0.357812
v 0.320091 -0.294416 0.416356
v -0.297421 -0.294416 0.445300
v -0.146305 -0.294416 0.564098
v -0.224189 -0.294416 0.530884
v -0.146305 -0.294416 0.564098
v -0.219211 -0.132779 0.516298
v -0.224189 -0.294416 0.530884
v -0.069571 -0.187255 0.587524
v -0.067622 -0.294416 0.597306
v -0.145256 -0.132863 0.549486
v -0.213668 0.030114 0.501969
v -0.213668 0.030114 0.501969
v -0.072084 0.029834 0.568239
v 0.059397 0.030162 0.568084
v -0.143445 0.030006 0.535121
v -0.218109 0.043652 -0.433233
v -0.147215 0.063381 -0.451379
v -0.218573 0.111082 -0.309194
v -0.347840 0.050335 -0.145277
v -0.283396 0.092214 -0.225890
v -0.150381 0.132767 -0.326220
v -0.216929 0.158350 -0.303281
v -0.339884 0.159927 -0.132524
v -0.279734 0.160859 -0.219573
v -0.149633 0.155831 -0.323533
v -0.075698 0.083082 -0.469547
v 0.058719 0.083138 -0.469802
v -0.081298 0.154329 -0.343271
v 0.047949 0.154477 -0.343595
v -0.043784 0.294416 0.066726
v -0.348837 0.050509 0.083945
v -0.340596 0.157003 0.295841
v -0.211368 0.117965 0.485684
v -0.342643 0.157504 0.079828
v -0.043784 0.294416 0.066726
v -0.342643 0.157504 0.079828
v -0.340596 0.157003 0.295841
v -0.043784 0.294416 0.066726
v -0.210260 0.156314 0.478594
v -0.211368 0.117965 0.485684
v -0.143164 0.093118 0.521778
v -0.074369 0.156177 0.538503
v 0.057032 0.075779 0.557209
v -0.210260 0.156314 0.478594
v -0.279734 0.160859 -0.219573
v -0.339884 0.159927 -0.132524
v -0.043784 0.294416 0.066726
v -0.210260 0.156314 0.478594
v -0.043784 0.294416 0.066726
v -0.043784 0.294416 0.066726
v 0.070898 0.011893 -0.595876
v 0.077437 -0.150713 -0.596635
v 0.083215 -0.294416 -0.597306
v 0.145916 -0.150923 -0.577595
v 0.227495 -0.294416 -0.558496
v 0.216443 -0.159809 -0.558469
v 0.303262 -0.294416 -0.469795
v 0.083215 -0.294416 -0.597306
v 0.227495 -0.294416 -0.558496
v 0.272549 -0.181716 -0.491694
v 0.138151 -0.005992 -0.576885
v 0.206929 -0.023846 -0.557844
v 0.261734 -0.067997 -0.491205
v 0.303262 -0.294416 -0.469795
v 0.329322 -0.203684 -0.424925
v 0.341912 -0.294416 -0.424098
v 0.336810 -0.189206 -0.292289
v 0.341912 -0.294416 -0.424098
v 0.365945 -0.294416 -0.164336
v 0.317440 -0.112215 -0.424559
v 0.255447 -0.019958 -0.361844
v 0.321407 -0.083893 -0.289716
v 0.327097 -0.055812 -0.154966
v 0.149755 -0.294416 0.563920
v 0.135427 -0.132601 0.549251
v 0.080054 -0.294416 0.597218
v 0.149755 -0.294416 0.563920
v -0.067622 -0.294416 0.597306
v 0.080054 -0.294416 0.597218
v 0.068654 -0.132850 0.582551
v 0.202679 -0.132387 0.515941
v 0.186166 0.030512 0.501496
v 0.122631 0.030270 0.534812
v 0.220950 -0.294416 0.530614
v 0.350546 -0.175468 0.344371
v 0.320091 -0.294416 0.416356
v 0.370533 -0.294416 0.359219
v 0.370533 -0.294416 0.359219
v 0.275743 -0.153851 0.430166
v 0.220950 -0.294416 0.530614
v 0.220950 -0.294416 0.530614
v 0.202679 -0.132387 0.515941
v 0.331636 -0.056356 0.329639
v 0.236285 0.000783 0.441053
v 0.124704 0.063514 -0.451868
v 0.111832 0.133009 -0.326778
v 0.191416 0.043857 -0.433928
v 0.172938 0.157085 -0.304875
v 0.176574 0.111541 -0.309957
v 0.250120 0.027974 -0.232473
v 0.314087 0.048543 -0.146616
v 0.302518 0.157808 -0.137927
v 0.052860 0.156289 0.538315
v 0.118048 0.093373 0.521433
v 0.180512 0.093591 0.489738
v 0.175241 0.156859 0.477937
v 0.305791 0.157549 0.294614
v -0.043784 0.294416 0.066726
v 0.052860 0.156289 0.538315
v 0.175241 0.156859 0.477937
v -0.043784 0.294416 0.066726
v -0.043784 0.294416 0.066726
v 0.175241 0.156859 0.477937
v 0.186166 0.030512 0.501496
v 0.180512 0.093591 0.489738
v -0.043784 0.294416 0.066726
vt 0.492745 0.187026
vt 0.463567 0.186224
vt 0.465966 0.178527
vt 0.732955 0.438504
vt 0.705266 0.438504
vt 0.678132 0.438504
vt 0.440194 0.178527
vt 0.492956 0.178527
vt 0.502107 0.192380
vt 0.492745 0.195579
vt 0.467632 0.206480
vt 0.454527 0.196118
vt 0.492745 0.204342
vt 0.478296 0.217572
vt 0.891545 0.231041
vt 0.988003 0.151191
vt 0.976588 0.198946
vt 0.436451 0.187724
vt 0.413313 0.188448
vt 0.392511 0.178527
vt 0.390660 0.188427
vt 0.941027 0.223924
vt 0.755762 0.151406
vt 0.407992 0.199758
vt 0.388070 0.200850
vt 0.427882 0.198241
vt 0.528866 0.178527
vt 0.654208 0.178527
vt 0.654663 0.195490
vt 0.492517 0.213327
vt 0.695079 0.178527
vt 0.695079 0.198013
vt 0.735494 0.178527
vt 0.654663 0.211350
vt 0.695079 0.216395
vt 0.735494 0.200535
vt 0.987653 0.055345
vt 0.770222 0.044574
vt 0.964948 0.039249
vt 0.917295 0.017393
vt 0.941855 0.023504
vt 0.036751 0.108956
vt 0.009037 0.130130
vt 0.009037 0.108956
vt 0.068773 0.130130
vt 0.064465 0.108956
vt 0.039225 0.130130
vt 0.735494 0.221439
vt 0.009037 0.151305
vt 0.074360 0.151303
vt 0.160313 0.151305
vt 0.041699 0.151305
vt 0.437069 0.209257
vt 0.415222 0.212051
vt 0.448740 0.224663
vt 0.492745 0.222755
vt 0.472837 0.224817
vt 0.425038 0.228532
vt 0.448605 0.232365
vt 0.492745 0.232636
vt 0.471422 0.232670
vt 0.424155 0.232059
vt 0.393353 0.213532
vt 0.353127 0.213324
vt 0.399329 0.231877
vt 0.352372 0.231895
vt 0.378948 0.232428
vt 0.573943 0.222098
vt 0.654663 0.232844
vt 0.736107 0.227180
vt 0.573943 0.232845
vt 0.492745 0.232636
vt 0.573943 0.232845
vt 0.654663 0.232844
vt 0.573943 0.232845
vt 0.735498 0.232845
vt 0.009037 0.156492
vt 0.042496 0.156494
vt 0.077516 0.161685
vt 0.160953 0.156495
vt 0.009031 0.161679
vt 0.471422 0.232670
vt 0.492745 0.232636
vt 0.378948 0.232428
vt 0.735498 0.232845
vt 0.654663 0.232844
vt 0.009031 0.161679
vt 0.355129 0.200373
vt 0.351256 0.188311
vt 0.348886 0.178527
vt 0.330926 0.188333
vt 0.304804 0.178527
vt 0.308778 0.187556
vt 0.775528 0.207602
vt 0.844918 0.231060
vt 0.799421 0.223920
vt 0.281433 0.186238
vt 0.336731 0.199290
vt 0.317769 0.197786
vt 0.290962 0.195796
vt 0.270386 0.178527
vt 0.252016 0.186454
vt 0.251961 0.178527
vt 0.244925 0.191240
vt 0.763340 0.199195
vt 0.226205 0.178527
vt 0.252016 0.195159
vt 0.279645 0.206306
vt 0.251912 0.203970
vt 0.251803 0.212772
vt 0.823935 0.017426
vt 0.204336 0.130130
vt 0.159848 0.108956
vt 0.204194 0.108956
vt 0.892483 0.011284
vt 0.845915 0.011300
vt 0.160132 0.130130
vt 0.248539 0.130130
vt 0.248539 0.151305
vt 0.204478 0.151305
vt 0.248539 0.108956
vt 0.102326 0.194432
vt 0.056340 0.178527
vt 0.102326 0.178527
vt 0.754315 0.055086
vt 0.056340 0.197021
vt 0.801485 0.023553
vt 0.010354 0.178527
vt 0.010354 0.199610
vt 0.102326 0.210710
vt 0.056340 0.216922
vt 0.332277 0.211626
vt 0.327168 0.228568
vt 0.311435 0.208830
vt 0.306962 0.232211
vt 0.303183 0.224918
vt 0.270882 0.217592
vt 0.251720 0.222581
vt 0.251811 0.232599
vt 0.161070 0.161685
vt 0.204641 0.156494
vt 0.248539 0.156492
vt 0.010354 0.232770
vt 0.102356 0.232769
vt 0.010354 0.232770
vt 0.161070 0.161685
vt 0.248555 0.161679
vt 0.161070 0.161685
vt 0.077516 0.161685
vt 0.248555 0.161679
vt 0.010354 0.221064
vt 0.010354 0.226917
vt 0.102344 0.232770
vn -0.917527 0.051081 -0.393933
vn -0.780769 0.028614 -0.624468
vn -0.773931 0.026660 -0.632283
vn -0.000273 -1.000000 -0.000266
vn -0.000273 -1.000000 -0.000266
vn -0.000273 -1.000000 -0.000266
vn -0.535582 0.012008 -0.844257
vn -0.919480 0.051081 -0.390026
vn -0.988836 0.067688 -0.133117
vn -0.903851 0.246450 -0.349976
vn -0.824727 0.512151 -0.239592
vn -0.840356 0.290408 -0.458405
vn -0.937063 0.298222 -0.180982
vn -0.850125 0.307014 -0.427146
vn -0.000273 -1.000000 -0.000266
vn -0.000273 -1.000000 -0.000266
vn -0.000273 -1.000000 -0.000266
vn -0.540466 0.014938 -0.841327
vn -0.245460 0.004193 -0.969293
vn -0.120424 0.003216 -0.992737
vn -0.123355 0.004193 -0.992737
vn -0.000273 -1.000000 -0.000266
vn -0.000273 -1.000000 -0.000266
vn -0.331422 0.471123 -0.817883
vn -0.158521 0.505313 -0.848165
vn -0.570748 0.410559 -0.711407
vn -0.995674 0.070618 -0.067668
vn -0.933156 0.097970 0.346512
vn -0.939994 0.096993 0.325999
vn -0.977114 0.145835 -0.154607
vn -0.770024 0.100900 0.629796
vn -0.779792 0.101877 0.618074
vn -0.595169 0.093086 0.797813
vn -0.943901 0.097970 0.316230
vn -0.796398 0.118483 0.593653
vn -0.608845 0.093086 0.788045
vn -0.000273 -1.000000 -0.000266
vn -0.000273 -1.000000 -0.000266
vn -0.000273 -1.000000 -0.000266
vn -0.000273 -1.000000 -0.000266
vn -0.000273 -1.000000 -0.000266
vn -0.395893 0.086248 0.914057
vn -0.608845 0.093086 0.788045
vn -0.595169 0.093086 0.797813
vn -0.203456 0.087225 0.975598
vn -0.196618 0.088201 0.976575
vn -0.406639 0.085271 0.910150
vn -0.618613 0.129229 0.774369
vn -0.618613 0.129229 0.774369
vn -0.206386 0.150719 0.966807
vn 0.230262 0.166349 0.958992
vn -0.413476 0.136067 0.900381
vn -0.614706 0.694820 -0.374397
vn -0.344121 0.816925 -0.462312
vn -0.685038 0.409582 -0.602977
vn -0.945855 0.085271 -0.312856
vn -0.801283 0.101877 -0.589302
vn -0.349982 0.517035 -0.780763
vn -0.452550 0.585414 -0.672333
vn -0.791514 0.559039 -0.246430
vn -0.634243 0.614719 -0.469150
vn -0.203456 0.626441 -0.752434
vn -0.175127 0.855022 -0.487710
vn 0.184351 0.863813 -0.468173
vn -0.127262 0.885304 -0.447660
vn 0.128671 0.889211 -0.437891
vn -0.025670 0.999594 -0.012965
vn -0.998604 0.053035 0.001687
vn -0.787607 0.562946 0.249805
vn -0.628382 0.161464 0.760693
vn -0.826680 0.562946 0.003641
vn -0.025670 0.999594 -0.012965
vn -0.826680 0.562946 0.003641
vn -0.787607 0.562946 0.249805
vn -0.025670 0.999594 -0.012965
vn -0.503346 0.611788 0.609283
vn -0.628382 0.161464 0.760693
vn -0.405662 0.190770 0.893544
vn -0.160475 0.650862 0.742133
vn 0.228308 0.230820 0.945316
vn -0.503346 0.611788 0.609283
vn -0.634243 0.614719 -0.469150
vn -0.791514 0.559039 -0.246430
vn -0.025670 0.999594 -0.012965
vn -0.503346 0.611788 0.609283
vn -0.025670 0.999594 -0.012965
vn -0.025670 0.999594 -0.012965
vn 0.176536 0.515081 -0.838396
vn 0.134532 0.011031 -0.990784
vn 0.135508 0.012008 -0.990784
vn 0.266405 0.018846 -0.963432
vn 0.550666 0.049128 -0.833512
vn 0.545782 0.046197 -0.836443
vn -0.000273 -1.000000 -0.000266
vn -0.000273 -1.000000 -0.000266
vn -0.000273 -1.000000 -0.000266
vn 0.774363 0.079410 -0.627399
vn 0.355298 0.488706 -0.796392
vn 0.578018 0.440841 -0.686986
vn 0.826135 0.361717 -0.431053
vn 0.767525 0.084294 -0.636190
vn 0.922843 0.119460 -0.365605
vn 0.923819 0.127275 -0.362674
vn 0.985361 0.151696 -0.079390
vn -0.000273 -1.000000 -0.000266
vn 0.985361 0.162441 -0.050085
vn 0.892561 0.319713 -0.316763
vn 0.783154 0.593228 -0.184889
vn 0.914051 0.386138 -0.125302
vn 0.961916 0.231797 -0.141908
vn -0.000273 -1.000000 -0.000266
vn 0.442237 0.116530 0.889636
vn 0.230262 0.105785 0.966807
vn 0.432468 0.120437 0.893544
vn -0.000273 -1.000000 -0.000266
vn -0.000273 -1.000000 -0.000266
vn 0.227332 0.103831 0.967784
vn 0.619045 0.138997 0.772415
vn 0.632721 0.169279 0.755809
vn 0.451028 0.165372 0.876937
vn 0.610253 0.144858 0.778276
vn 0.928704 0.181978 0.324045
vn 0.753849 0.176117 0.632727
vn 0.919912 0.187839 0.343582
vn -0.000273 -1.000000 -0.000266
vn 0.767525 0.166349 0.619051
vn -0.000273 -1.000000 -0.000266
vn 0.610253 0.144858 0.778276
vn 0.619045 0.138997 0.772415
vn 0.934565 0.169279 0.313300
vn 0.789015 0.168302 0.590723
vn 0.361159 0.830601 -0.423239
vn 0.368974 0.530711 -0.763179
vn 0.597554 0.734870 -0.321647
vn 0.449075 0.598113 -0.664519
vn 0.674725 0.454517 -0.581487
vn 0.830043 0.372462 -0.415424
vn 0.935542 0.134113 -0.328485
vn 0.767525 0.582483 -0.266944
vn 0.172628 0.654769 0.736272
vn 0.442237 0.214214 0.871076
vn 0.639559 0.196631 0.743110
vn 0.500847 0.636209 0.585839
vn 0.764594 0.600066 0.235152
vn -0.025670 0.999594 -0.012965
vn 0.172628 0.654769 0.736272
vn 0.500847 0.636209 0.585839
vn -0.025670 0.999594 -0.012965
vn -0.025670 0.999594 -0.012965
vn 0.500847 0.636209 0.585839
vn 0.632721 0.169279 0.755809
vn 0.639559 0.196631 0.743110
vn -0.025670 0.999594 -0.012965
f 42/42/42 43/43/43 44/44/44
f 43/43/43 42/42/42 47/47/47
f 47/47/47 49/49/49 43/43/43
f 45/45/45 47/47/47 42/42/42
f 45/45/45 42/42/42 46/46/46
f 49/49/49 47/47/47 52/52/52
f 113/113/113 45/45/45 46/46/46
f 52/52/52 47/47/47 50/50/50
f 50/50/50 47/47/47 45/45/45
f 78/78/78 49/49/49 52/52/52
f 52/52/52 50/50/50 78/78/78
f 77/77/77 49/49/49 78/78/78
f 81/81/81 77/77/77 78/78/78
f 81/81/81 78/78/78 79/79/79
f 50/50/50 79/79/79 78/78/78
f 81/81/81 79/79/79 87/87/87
f 45/45/45 51/51/51 50/50/50
f 79/79/79 50/50/50 80/80/80
f 80/80/80 50/50/50 51/51/51
f 140/140/140 79/79/79 80/80/80
f 79/79/79 140/140/140 149/149/149
f 140/140/140 80/80/80 141/141/141
f 150/150/150 140/140/140 141/141/141
f 142/142/142 150/150/150 141/141/141
f 141/141/141 80/80/80 120/120/120
f 120/120/120 142/142/142 141/141/141
f 80/80/80 51/51/51 120/120/120
f 142/142/142 120/120/120 119/119/119
f 45/45/45 117/117/117 51/51/51
f 117/117/117 120/120/120 51/51/51
f 45/45/45 113/113/113 117/117/117
f 120/120/120 112/112/112 119/119/119
f 120/120/120 117/117/117 112/112/112
f 113/113/113 112/112/112 117/117/117
f 112/112/112 118/118/118 119/119/119
f 112/112/112 113/113/113 114/114/114
f 112/112/112 114/114/114 118/118/118
f 114/114/114 121/121/121 118/118/118
f 122/122/122 123/123/123 124/124/124
f 122/122/122 124/124/124 110/110/110
f 122/122/122 126/126/126 123/123/123
f 126/126/126 128/128/128 123/123/123
f 126/126/126 129/129/129 128/128/128
f 130/130/130 122/122/122 110/110/110
f 130/130/130 126/126/126 122/122/122
f 144/144/144 130/130/130 110/110/110
f 131/131/131 129/129/129 126/126/126
f 130/130/130 131/131/131 126/126/126
f 131/131/131 130/130/130 144/144/144
f 151/151/151 129/129/129 131/131/131
f 151/151/151 131/131/131 152/152/152
f 144/144/144 152/152/152 131/131/131
f 152/152/152 144/144/144 143/143/143
f 143/143/143 144/144/144 145/145/145
f 146/146/146 147/147/147 148/148/148
f 73/73/73 74/74/74 75/75/75
f 74/74/74 85/85/85 86/86/86
f 82/82/82 83/83/83 84/84/84
f 4/4/4 5/5/5 6/6/6
f 15/15/15 16/16/16 17/17/17
f 15/15/15 17/17/17 22/22/22
f 15/15/15 23/23/23 16/16/16
f 23/23/23 37/37/37 16/16/16
f 23/23/23 15/15/15 95/95/95
f 23/23/23 95/95/95 94/94/94
f 94/94/94 95/95/95 96/96/96
f 23/23/23 94/94/94 105/105/105
f 23/23/23 38/38/38 37/37/37
f 38/38/38 23/23/23 125/125/125
f 37/37/37 38/38/38 39/39/39
f 38/38/38 40/40/40 39/39/39
f 39/39/39 40/40/40 41/41/41
f 40/40/40 38/38/38 111/111/111
f 111/111/111 38/38/38 127/127/127
f 40/40/40 111/111/111 115/115/115
f 115/115/115 111/111/111 116/116/116
f 1/1/1 2/2/2 3/3/3
f 1/1/1 3/3/3 8/8/8
f 2/2/2 7/7/7 3/3/3
f 8/8/8 9/9/9 1/1/1
f 27/27/27 9/9/9 8/8/8
f 10/10/10 2/2/2 1/1/1
f 10/10/10 1/1/1 9/9/9
f 18/18/18 7/7/7 2/2/2
f 10/10/10 12/12/12 2/2/2
f 12/12/12 18/18/18 2/2/2
f 7/7/7 18/18/18 19/19/19
f 19/19/19 20/20/20 7/7/7
f 12/12/12 26/26/26 18/18/18
f 26/26/26 19/19/19 18/18/18
f 11/11/11 12/12/12 10/10/10
f 26/26/26 12/12/12 53/53/53
f 12/12/12 11/11/11 53/53/53
f 10/10/10 13/13/13 11/11/11
f 13/13/13 10/10/10 9/9/9
f 30/30/30 13/13/13 9/9/9
f 27/27/27 30/30/30 9/9/9
f 11/11/11 13/13/13 14/14/14
f 13/13/13 30/30/30 14/14/14
f 53/53/53 11/11/11 55/55/55
f 11/11/11 14/14/14 55/55/55
f 58/58/58 53/53/53 55/55/55
f 54/54/54 26/26/26 53/53/53
f 53/53/53 58/58/58 54/54/54
f 26/26/26 54/54/54 24/24/24
f 24/24/24 19/19/19 26/26/26
f 24/24/24 21/21/21 19/19/19
f 21/21/21 20/20/20 19/19/19
f 63/63/63 24/24/24 54/54/54
f 21/21/21 24/24/24 25/25/25
f 24/24/24 63/63/63 25/25/25
f 89/89/89 20/20/20 21/21/21
f 20/20/20 89/89/89 90/90/90
f 88/88/88 21/21/21 25/25/25
f 21/21/21 88/88/88 89/89/89
f 63/63/63 64/64/64 25/25/25
f 64/64/64 88/88/88 25/25/25
f 54/54/54 65/65/65 63/63/63
f 65/65/65 54/54/54 58/58/58
f 63/63/63 66/66/66 64/64/64
f 66/66/66 63/63/63 65/65/65
f 64/64/64 98/98/98 88/88/88
f 98/98/98 89/89/89 88/88/88
f 62/62/62 65/65/65 58/58/58
f 132/132/132 98/98/98 64/64/64
f 66/66/66 132/132/132 64/64/64
f 89/89/89 98/98/98 91/91/91
f 90/90/90 89/89/89 91/91/91
f 91/91/91 92/92/92 90/90/90
f 99/99/99 91/91/91 98/98/98
f 132/132/132 99/99/99 98/98/98
f 92/92/92 91/91/91 93/93/93
f 91/91/91 99/99/99 93/93/93
f 92/92/92 93/93/93 97/97/97
f 97/97/97 101/101/101 92/92/92
f 99/99/99 100/100/100 93/93/93
f 100/100/100 97/97/97 93/93/93
f 134/134/134 99/99/99 132/132/132
f 100/100/100 99/99/99 134/134/134
f 133/133/133 134/134/134 132/132/132
f 133/133/133 132/132/132 66/66/66
f 101/101/101 97/97/97 102/102/102
f 102/102/102 103/103/103 101/101/101
f 100/100/100 107/107/107 97/97/97
f 107/107/107 102/102/102 97/97/97
f 103/103/103 102/102/102 104/104/104
f 107/107/107 104/104/104 102/102/102
f 106/106/106 103/103/103 104/104/104
f 100/100/100 108/108/108 107/107/107
f 134/134/134 108/108/108 100/100/100
f 109/109/109 104/104/104 107/107/107
f 108/108/108 109/109/109 107/107/107
f 106/106/106 104/104/104 110/110/110
f 109/109/109 110/110/110 104/104/104
f 110/110/110 124/124/124 106/106/106
f 109/109/109 108/108/108 137/137/137
f 137/137/137 110/110/110 109/109/109
f 108/108/108 134/134/134 136/136/136
f 136/136/136 137/137/137 108/108/108
f 136/136/136 134/134/134 133/133/133
f 133/133/133 135/135/135 136/136/136
f 135/135/135 137/137/137 136/136/136
f 66/66/66 135/135/135 133/133/133
f 135/135/135 138/138/138 137/137/137
f 138/138/138 110/110/110 137/137/137
f 135/135/135 66/66/66 67/67/67
f 66/66/66 65/65/65 67/67/67
f 139/139/139 138/138/138 135/135/135
f 139/139/139 135/135/135 67/67/67
f 65/65/65 62/62/62 67/67/67
f 144/144/144 138/138/138 139/139/139
f 110/110/110 138/138/138 144/144/144
f 144/144/144 139/139/139 153/153/153
f 62/62/62 59/59/59 67/67/67
f 59/59/59 62/62/62 58/58/58
f 59/59/59 61/61/61 67/67/67
f 59/59/59 58/58/58 55/55/55
f 59/59/59 57/57/57 61/61/61
f 57/57/57 59/59/59 55/55/55
f 55/55/55 14/14/14 57/57/57
f 57/57/57 60/60/60 61/61/61
f 56/56/56 57/57/57 14/14/14
f 56/56/56 60/60/60 57/57/57
f 30/30/30 56/56/56 14/14/14
f 56/56/56 68/68/68 60/60/60
f 30/30/30 68/68/68 56/56/56
f 71/71/71 60/60/60 68/68/68
f 60/60/60 71/71/71 72/72/72
f 69/69/69 71/71/71 68/68/68
f 34/34/34 68/68/68 30/30/30
f 34/34/34 69/69/69 68/68/68
f 30/30/30 29/29/29 34/34/34
f 29/29/29 30/30/30 27/27/27
f 28/28/28 29/29/29 27/27/27
f 31/31/31 29/29/29 28/28/28
f 29/29/29 31/31/31 32/32/32
f 32/32/32 34/34/34 29/29/29
f 33/33/33 32/32/32 31/31/31
f 32/32/32 33/33/33 36/36/36
f 34/34/34 32/32/32 35/35/35
f 36/36/36 35/35/35 32/32/32
f 69/69/69 34/34/34 35/35/35
f 35/35/35 36/36/36 48/48/48
f 48/48/48 70/70/70 35/35/35
f 70/70/70 69/69/69 35/35/35
f 70/70/70 76/76/76 69/69/69
