# Generated from Roblox mesh JSON (v2.00)
# Hello from RBX_Toolbox ;)
o RightUpperArm
v 0.065383 -0.449851 -0.039973
v -0.021255 -0.199340 -0.075427
v 0.048990 -0.183729 -0.104784
v 0.044390 -0.452193 0.025506
v -0.044688 -0.202228 0.012329
v 0.083255 -0.489929 0.025494
v -0.092644 0.050728 -0.090432
v -0.120786 0.052782 0.004482
v 0.098148 -0.488268 -0.020955
v 0.153470 -0.503394 0.025492
v 0.122038 -0.440570 -0.061778
v 0.138337 -0.481684 -0.036423
v 0.183948 -0.458496 -0.021099
v 0.198318 -0.450842 0.025536
v 0.186334 -0.407882 -0.040176
v 0.119301 -0.167121 -0.075664
v 0.206593 -0.397092 0.025565
v 0.142204 -0.159222 0.012013
v 0.057117 0.070813 -0.090403
v 0.080174 0.078877 0.004752
v -0.017252 0.059138 -0.122107
v 0.021164 0.201995 -0.098080
v -0.061915 0.197401 -0.131245
v -0.144263 0.199461 -0.099500
v -0.171146 0.209310 -0.002824
v 0.046034 0.208732 -0.000303
v -0.008350 0.286092 -0.098721
v -0.181123 0.300654 -0.101380
v -0.095594 0.289493 -0.130629
v -0.203441 0.314421 -0.009608
v 0.019917 0.291610 -0.004791
v -0.189023 0.408797 -0.094445
v -0.206593 0.422858 -0.015211
v -0.113649 0.386654 -0.119563
v -0.032284 0.371038 -0.091406
v -0.161263 0.472394 -0.072165
v -0.174139 0.503394 -0.018838
v -0.109323 0.465640 -0.089175
v -0.101151 0.498605 -0.017589
v -0.054719 0.444409 -0.069157
v -0.032438 0.454148 -0.014876
v -0.002863 0.374492 -0.009847
v -0.044851 0.442053 0.040845
v -0.028176 0.382841 0.069970
v -0.100924 0.472753 0.052324
v -0.101151 0.498605 -0.017589
v -0.012166 0.297861 0.087858
v -0.105458 0.402361 0.094159
v -0.154456 0.481044 0.037699
v -0.174139 0.503394 -0.018838
v -0.182561 0.420719 0.065044
v -0.206593 0.422858 -0.015211
v -0.101676 0.305605 0.116260
v 0.014052 0.213651 0.096754
v -0.184431 0.313390 0.083460
v -0.203441 0.314421 -0.009608
v -0.073109 0.213160 0.127940
v 0.052033 0.080385 0.099788
v -0.153514 0.211852 0.094371
v -0.171146 0.209310 -0.002824
v -0.024557 0.071826 0.131245
v 0.117795 -0.161698 0.099769
v -0.099154 0.060912 0.099397
v -0.120786 0.052782 0.004482
v 0.047206 -0.176544 0.129126
v 0.186390 -0.407903 0.091249
v -0.022371 -0.193886 0.100006
v -0.044688 -0.202228 0.012329
v 0.183987 -0.458511 0.072131
v 0.153470 -0.503394 0.025492
v 0.122288 -0.440446 0.112709
v 0.138514 -0.481596 0.087354
v 0.060074 -0.451675 0.090941
v 0.044390 -0.452193 0.025506
v 0.094382 -0.489562 0.071912
v 0.083255 -0.489929 0.025494
vt 0.939402 0.344000
vt 0.939562 0.343354
vt 0.939378 0.343335
vt 0.939542 0.344076
vt 0.939777 0.343402
vt 0.939399 0.344200
vt 0.939623 0.342700
vt 0.939868 0.342703
vt 0.939329 0.344114
vt 0.939173 0.344235
vt 0.939268 0.343984
vt 0.939233 0.344090
vt 0.939103 0.344072
vt 0.938966 0.344114
vt 0.939108 0.343948
vt 0.939193 0.343336
vt 0.938964 0.343955
vt 0.938976 0.343340
vt 0.939220 0.342738
vt 0.938980 0.342740
vt 0.939420 0.342718
vt 0.939222 0.342410
vt 0.939430 0.342364
vt 0.939633 0.342298
vt 0.939876 0.342250
vt 0.938983 0.342415
vt 0.939220 0.342196
vt 0.939616 0.342028
vt 0.939427 0.342129
vt 0.939820 0.341929
vt 0.938988 0.342202
vt 0.939528 0.341781
vt 0.939657 0.341642
vt 0.939382 0.341897
vt 0.939193 0.341978
vt 0.939415 0.341647
vt 0.939426 0.341497
vt 0.939303 0.341714
vt 0.939195 0.341561
vt 0.939164 0.341784
vt 0.939001 0.341746
vt 0.938994 0.341982
vt 0.938846 0.341809
vt 0.938802 0.341972
vt 0.938720 0.341710
vt 0.938805 0.341557
vt 0.938757 0.342181
vt 0.938631 0.341883
vt 0.938604 0.341636
vt 0.938581 0.341486
vt 0.938483 0.341762
vt 0.938348 0.341620
vt 0.938549 0.342104
vt 0.938742 0.342392
vt 0.938368 0.342001
vt 0.938168 0.341897
vt 0.938530 0.342335
vt 0.938738 0.342724
vt 0.938334 0.342265
vt 0.938098 0.342221
vt 0.938536 0.342697
vt 0.938757 0.343334
vt 0.938335 0.342673
vt 0.938093 0.342678
vt 0.938569 0.343329
vt 0.938823 0.343954
vt 0.938383 0.343342
vt 0.938165 0.343381
vt 0.938828 0.344077
vt 0.938755 0.344239
vt 0.938667 0.343989
vt 0.938699 0.344094
vt 0.938523 0.344000
vt 0.938385 0.344063
vt 0.938592 0.344115
vt 0.938525 0.344198
vn -0.679680 -0.369513 -0.633637
vn -0.721870 -0.286643 -0.629873
vn 0.019437 -0.107106 -0.994058
vn -0.923795 -0.382763 -0.009759
vn -0.950660 -0.310018 -0.011558
vn -0.568276 -0.822075 -0.035435
vn -0.746725 -0.265851 -0.609693
vn -0.953449 -0.301406 -0.009443
vn -0.394915 -0.788247 -0.471921
vn 0.347908 -0.937529 -0.000073
vn 0.042981 -0.199068 -0.979043
vn 0.215397 -0.624061 -0.751100
vn 0.741960 -0.392929 -0.543233
vn 0.954989 -0.296641 -0.000476
vn 0.729224 0.058185 -0.681797
vn 0.739349 0.129814 -0.660691
vn 0.978335 0.206786 0.009964
vn 0.967882 0.251386 0.003008
vn 0.755488 0.163428 -0.634452
vn 0.967017 0.254375 0.013093
vn -0.001534 -0.068744 -0.997633
vn 0.736917 0.194822 -0.647301
vn -0.015578 -0.047566 -0.998747
vn -0.756168 -0.278247 -0.592274
vn -0.949568 -0.313275 -0.013384
vn 0.959730 0.280477 0.015842
vn 0.696467 0.233652 -0.678484
vn -0.776797 -0.147682 -0.612189
vn -0.018270 0.038677 -0.999085
vn -0.987673 -0.156527 0.000847
vn 0.955841 0.293875 -0.002228
vn -0.755265 0.146941 -0.638736
vn -0.987016 0.160175 0.011994
vn -0.030429 0.183372 -0.982572
vn 0.666257 0.259934 -0.698954
vn -0.455528 0.630425 -0.628537
vn -0.580486 0.813805 -0.027521
vn 0.064013 0.619228 -0.782598
vn 0.264752 0.964316 -0.000529
vn 0.612029 0.559520 -0.558890
vn 0.784880 0.616763 0.059722
vn 0.955002 0.296538 -0.005941
vn 0.718654 0.583673 0.377973
vn 0.697896 0.316053 0.642691
vn 0.163040 0.748973 0.642229
vn 0.264752 0.964316 -0.000529
vn 0.675074 0.276751 0.683874
vn -0.028958 0.304437 0.952092
vn -0.421553 0.700137 0.576283
vn -0.580486 0.813805 -0.027521
vn -0.729563 0.252296 0.635677
vn -0.987016 0.160175 0.011994
vn -0.053694 0.149626 0.987284
vn 0.701463 0.243614 0.669778
vn -0.794376 -0.041670 0.605995
vn -0.987673 -0.156527 0.000847
vn -0.045404 0.042206 0.998077
vn 0.730605 0.206769 0.650741
vn -0.784069 -0.217354 0.581372
vn -0.949568 -0.313275 -0.013384
vn -0.016230 -0.001351 0.999867
vn 0.723866 0.185679 0.664485
vn -0.759581 -0.232164 0.607566
vn -0.953449 -0.301406 -0.009443
vn 0.002880 -0.028024 0.999603
vn 0.700591 0.115689 0.704122
vn -0.734786 -0.239497 0.634610
vn -0.950660 -0.310018 -0.011558
vn 0.742077 -0.393480 0.542675
vn 0.347908 -0.937529 -0.000073
vn 0.019791 -0.114459 0.993231
vn 0.214573 -0.625712 0.749962
vn -0.687758 -0.307339 0.657671
vn -0.923795 -0.382763 -0.009759
vn -0.382368 -0.797415 0.466824
vn -0.568276 -0.822075 -0.035435
f 1/1/1 2/2/2 3/3/3
f 4/4/4 2/2/2 1/1/1
f 4/4/4 5/5/5 2/2/2
f 1/1/1 6/6/6 4/4/4
f 5/5/5 7/7/7 2/2/2
f 5/5/5 8/8/8 7/7/7
f 1/1/1 9/9/9 6/6/6
f 9/9/9 10/10/10 6/6/6
f 11/11/11 9/9/9 1/1/1
f 1/1/1 3/3/3 11/11/11
f 12/12/12 10/10/10 9/9/9
f 11/11/11 12/12/12 9/9/9
f 13/13/13 10/10/10 12/12/12
f 14/14/14 10/10/10 13/13/13
f 15/15/15 12/12/12 11/11/11
f 15/15/15 13/13/13 12/12/12
f 11/11/11 16/16/16 15/15/15
f 11/11/11 3/3/3 16/16/16
f 17/17/17 13/13/13 15/15/15
f 17/17/17 14/14/14 13/13/13
f 15/15/15 16/16/16 18/18/18
f 15/15/15 18/18/18 17/17/17
f 3/3/3 19/19/19 16/16/16
f 16/16/16 20/20/20 18/18/18
f 16/16/16 19/19/19 20/20/20
f 3/3/3 21/21/21 19/19/19
f 2/2/2 21/21/21 3/3/3
f 2/2/2 7/7/7 21/21/21
f 21/21/21 22/22/22 19/19/19
f 7/7/7 23/23/23 21/21/21
f 21/21/21 23/23/23 22/22/22
f 7/7/7 24/24/24 23/23/23
f 8/8/8 24/24/24 7/7/7
f 8/8/8 25/25/25 24/24/24
f 19/19/19 22/22/22 26/26/26
f 19/19/19 26/26/26 20/20/20
f 23/23/23 27/27/27 22/22/22
f 25/25/25 28/28/28 24/24/24
f 24/24/24 29/29/29 23/23/23
f 24/24/24 28/28/28 29/29/29
f 23/23/23 29/29/29 27/27/27
f 25/25/25 30/30/30 28/28/28
f 22/22/22 31/31/31 26/26/26
f 22/22/22 27/27/27 31/31/31
f 30/30/30 32/32/32 28/28/28
f 30/30/30 33/33/33 32/32/32
f 28/28/28 34/34/34 29/29/29
f 28/28/28 32/32/32 34/34/34
f 29/29/29 35/35/35 27/27/27
f 29/29/29 34/34/34 35/35/35
f 33/33/33 36/36/36 32/32/32
f 33/33/33 37/37/37 36/36/36
f 32/32/32 38/38/38 34/34/34
f 32/32/32 36/36/36 38/38/38
f 38/38/38 36/36/36 37/37/37
f 34/34/34 38/38/38 35/35/35
f 38/38/38 37/37/37 39/39/39
f 40/40/40 38/38/38 39/39/39
f 38/38/38 40/40/40 35/35/35
f 41/41/41 40/40/40 39/39/39
f 35/35/35 40/40/40 41/41/41
f 27/27/27 35/35/35 42/42/42
f 41/41/41 42/42/42 35/35/35
f 27/27/27 42/42/42 31/31/31
f 42/42/42 41/41/41 43/43/43
f 31/31/31 42/42/42 44/44/44
f 42/42/42 43/43/43 44/44/44
f 41/41/41 45/45/45 43/43/43
f 43/43/43 45/45/45 44/44/44
f 41/41/41 46/46/46 45/45/45
f 31/31/31 44/44/44 47/47/47
f 26/26/26 31/31/31 47/47/47
f 45/45/45 48/48/48 44/44/44
f 48/48/48 47/47/47 44/44/44
f 46/46/46 49/49/49 45/45/45
f 49/49/49 48/48/48 45/45/45
f 46/46/46 50/50/50 49/49/49
f 51/51/51 49/49/49 50/50/50
f 49/49/49 51/51/51 48/48/48
f 51/51/51 50/50/50 52/52/52
f 48/48/48 53/53/53 47/47/47
f 51/51/51 53/53/53 48/48/48
f 26/26/26 47/47/47 54/54/54
f 53/53/53 54/54/54 47/47/47
f 20/20/20 26/26/26 54/54/54
f 55/55/55 51/51/51 52/52/52
f 51/51/51 55/55/55 53/53/53
f 55/55/55 52/52/52 56/56/56
f 53/53/53 57/57/57 54/54/54
f 55/55/55 57/57/57 53/53/53
f 20/20/20 54/54/54 58/58/58
f 57/57/57 58/58/58 54/54/54
f 18/18/18 20/20/20 58/58/58
f 59/59/59 55/55/55 56/56/56
f 55/55/55 59/59/59 57/57/57
f 59/59/59 56/56/56 60/60/60
f 57/57/57 61/61/61 58/58/58
f 59/59/59 61/61/61 57/57/57
f 18/18/18 58/58/58 62/62/62
f 61/61/61 62/62/62 58/58/58
f 17/17/17 18/18/18 62/62/62
f 63/63/63 59/59/59 60/60/60
f 59/59/59 63/63/63 61/61/61
f 63/63/63 60/60/60 64/64/64
f 61/61/61 65/65/65 62/62/62
f 63/63/63 65/65/65 61/61/61
f 17/17/17 62/62/62 66/66/66
f 65/65/65 66/66/66 62/62/62
f 66/66/66 14/14/14 17/17/17
f 67/67/67 63/63/63 64/64/64
f 63/63/63 67/67/67 65/65/65
f 67/67/67 64/64/64 68/68/68
f 66/66/66 69/69/69 14/14/14
f 69/69/69 70/70/70 14/14/14
f 65/65/65 71/71/71 66/66/66
f 71/71/71 69/69/69 66/66/66
f 67/67/67 71/71/71 65/65/65
f 72/72/72 70/70/70 69/69/69
f 71/71/71 72/72/72 69/69/69
f 67/67/67 73/73/73 71/71/71
f 73/73/73 67/67/67 68/68/68
f 73/73/73 72/72/72 71/71/71
f 73/73/73 68/68/68 74/74/74
f 75/75/75 70/70/70 72/72/72
f 73/73/73 75/75/75 72/72/72
f 74/74/74 75/75/75 73/73/73
f 76/76/76 70/70/70 75/75/75
f 74/74/74 76/76/76 75/75/75
