# Generated from Roblox mesh JSON (v2.00)
# Hello from RBX_Toolbox ;)
o LeftUpperArm
v 0.059527 -0.539071 -0.008384
v -0.070439 -0.481360 0.395666
v -0.253892 -0.543989 0.232669
v -0.177723 -0.577812 -0.004134
v -0.078132 -0.479563 -0.390516
v -0.400433 -0.410141 0.307287
v -0.320480 -0.252979 0.522985
v -0.426583 -0.485518 0.001885
v -0.258400 -0.542936 -0.228090
v -0.289040 -0.291710 -0.522985
v -0.507490 -0.328991 0.232178
v -0.503148 -0.114513 0.394828
v -0.382008 -0.432841 -0.305727
v -0.495321 -0.120171 -0.380464
v -0.544268 -0.300544 0.003093
v -0.565902 -0.065975 0.003946
v -0.502904 -0.332307 -0.222199
v 0.501944 0.577812 -0.197705
v 0.523595 0.479701 0.138390
v 0.565901 0.389749 0.025588
v 0.553562 0.445663 -0.165957
v 0.434498 0.477145 -0.413958
v 0.536612 0.300235 0.052753
v 0.472203 0.322636 0.186055
v 0.555052 0.270551 -0.123888
v 0.515124 0.388292 -0.289203
v 0.375476 0.307536 -0.478301
v 0.487339 0.125379 0.084256
v 0.385745 0.015825 0.241332
v 0.481486 0.291629 -0.325873
v 0.283395 0.059845 -0.421833
v 0.458396 0.072992 -0.078975
v 0.334962 -0.076095 -0.045081
v 0.429008 0.150467 -0.293691
v -0.105550 0.265608 -0.068299
v -0.073722 0.260040 0.162753
v 0.008869 0.364818 0.093066
v -0.274143 0.123697 -0.053200
v -0.249492 0.112557 0.248519
v 0.087574 0.157066 0.285509
v -0.565902 -0.065975 0.003946
v -0.503148 -0.114513 0.394828
v -0.320480 -0.252979 0.522985
v -0.244259 0.073178 -0.344832
v -0.495321 -0.120171 -0.380464
v -0.289040 -0.291710 -0.522985
v -0.093181 0.018030 0.374946
v -0.070439 -0.481360 0.395666
v -0.093637 -0.041868 -0.470809
v -0.078132 -0.479563 -0.390516
v -0.054761 0.214794 -0.311745
v 0.127088 -0.176059 -0.353346
v 0.059527 -0.539071 -0.008384
v 0.235221 -0.249245 -0.038014
v 0.069348 0.165379 -0.436310
v 0.283395 0.059845 -0.421833
v 0.334962 -0.076095 -0.045081
v 0.021908 0.321373 -0.332393
v 0.166945 0.329432 -0.447218
v 0.375476 0.307536 -0.478301
v -0.013257 0.350383 -0.100497
v 0.087805 0.455144 -0.340823
v 0.231564 0.486926 -0.385468
v 0.434498 0.477145 -0.413958
v 0.501944 0.577812 -0.197705
v 0.102769 0.470842 -0.137220
v 0.290633 0.564691 -0.134850
v 0.107836 0.467410 0.029940
v 0.283251 0.511879 0.095404
v 0.523595 0.479701 0.138390
v 0.472203 0.322636 0.186055
v 0.238289 0.365497 0.161849
v 0.385745 0.015825 0.241332
v 0.168463 -0.194398 0.283403
v 0.334962 -0.076095 -0.045081
v 0.059527 -0.539071 -0.008384
v 0.235221 -0.249245 -0.038014
vt 0.818587 0.814695
vt 0.899578 0.842220
vt 0.866814 0.862261
vt 0.819347 0.846130
vt 0.741887 0.843399
vt 0.881723 0.902057
vt 0.925018 0.910123
vt 0.820457 0.896256
vt 0.774396 0.862952
vt 0.715235 0.899985
vt 0.866617 0.928946
vt 0.899242 0.956002
vt 0.758775 0.896116
vt 0.743741 0.953839
vt 0.820654 0.938196
vt 0.820816 0.971785
vt 0.775482 0.927678
vt 0.909439 0.822816
vt 0.811844 0.793499
vt 0.842666 0.772145
vt 0.898287 0.788853
vt 0.974322 0.791786
vt 0.835989 0.744619
vt 0.800127 0.745200
vt 0.886119 0.739196
vt 0.935265 0.771169
vt 0.995146 0.740476
vt 0.828841 0.691605
vt 0.787586 0.652180
vt 0.947133 0.741926
vt 0.982481 0.663719
vt 0.876959 0.676362
vt 0.872016 0.625434
vt 0.939915 0.698181
vt 0.367074 0.797865
vt 0.428197 0.800117
vt 0.412496 0.832978
vt 0.365692 0.741983
vt 0.445924 0.741382
vt 0.483219 0.821654
vt 0.376090 0.631186
vt 0.487656 0.633121
vt 0.556419 0.656789
vt 0.286662 0.746534
vt 0.265404 0.644878
vt 0.182016 0.674278
vt 0.501185 0.762585
vt 0.636941 0.708269
vt 0.229786 0.768486
vt 0.106096 0.715870
vt 0.300758 0.806321
vt 0.169102 0.812860
vt 0.028204 0.794058
vt 0.097873 0.865335
vt 0.259199 0.830670
vt 0.214078 0.867071
vt 0.124558 0.903758
vt 0.304842 0.839295
vt 0.276731 0.875648
vt 0.249553 0.921146
vt 0.363383 0.829408
vt 0.313614 0.873176
vt 0.304530 0.907554
vt 0.289030 0.955141
vt 0.353993 0.978278
vt 0.360147 0.871875
vt 0.365635 0.924175
vt 0.399076 0.868361
vt 0.419104 0.910543
vt 0.446786 0.964818
vt 0.481094 0.933855
vt 0.447351 0.883477
vt 0.540298 0.881983
vt 0.576230 0.814360
vt 0.608423 0.909523
vt 0.709174 0.797661
vt 0.638670 0.873061
vn 0.588410 -0.808382 -0.017118
vn 0.332195 -0.628086 0.703672
vn -0.240287 -0.915816 0.321782
vn -0.043288 -0.999052 -0.004554
vn 0.317141 -0.687018 -0.653780
vn -0.579558 -0.654575 0.485431
vn -0.218235 -0.093803 0.971378
vn -0.638850 -0.769326 0.002792
vn -0.232531 -0.923425 -0.305313
vn -0.234195 -0.216270 -0.947829
vn -0.865123 -0.410555 0.288110
vn -0.743642 0.312413 0.591096
vn -0.575639 -0.665578 -0.475021
vn -0.768439 0.273985 -0.578303
vn -0.954310 -0.298695 -0.008623
vn -0.902156 0.431197 -0.013591
vn -0.868529 -0.398310 -0.294969
vn 0.532226 0.829920 -0.167234
vn 0.559278 0.537809 0.630848
vn 0.983125 0.033704 0.179801
vn 0.968341 0.185608 -0.166927
vn 0.431825 0.537867 -0.724035
vn 0.928839 -0.207735 0.306764
vn 0.529559 0.105604 0.841674
vn 0.955097 -0.262251 -0.137888
vn 0.906609 0.018938 -0.421547
vn 0.379677 -0.035201 -0.924449
vn 0.894761 -0.389140 0.219026
vn 0.673655 -0.263819 0.690354
vn 0.837392 -0.255625 -0.483147
vn 0.471433 -0.411062 -0.780243
vn 0.805450 -0.575450 -0.141802
vn 0.777383 -0.620935 -0.100576
vn 0.765334 -0.499920 -0.405394
vn -0.681179 0.728830 -0.069293
vn -0.449562 0.755586 0.476429
vn -0.535855 0.721587 0.438375
vn -0.598326 0.799065 -0.059179
vn -0.413455 0.779581 0.470435
vn 0.032189 0.394688 0.918251
vn -0.902156 0.431197 -0.013591
vn -0.743642 0.312413 0.591096
vn -0.218235 -0.093803 0.971378
vn -0.483976 0.678347 -0.552823
vn -0.768439 0.273985 -0.578303
vn -0.234195 -0.216270 -0.947829
vn 0.092047 0.396506 0.913406
vn 0.332195 -0.628086 0.703672
vn -0.011381 0.177916 -0.983980
vn 0.317141 -0.687018 -0.653780
vn -0.612574 0.599423 -0.515213
vn 0.608040 -0.398840 -0.686450
vn 0.588410 -0.808382 -0.017118
vn 0.820678 -0.567103 -0.069868
vn -0.239868 0.128157 -0.962309
vn 0.471433 -0.411062 -0.780243
vn 0.777383 -0.620935 -0.100576
vn -0.717517 0.478788 -0.505896
vn -0.306478 0.211170 -0.928159
vn 0.379677 -0.035201 -0.924449
vn -0.756624 0.650592 -0.065197
vn -0.607734 0.668739 -0.428307
vn -0.268587 0.742104 -0.614120
vn 0.431825 0.537867 -0.724035
vn 0.532226 0.829920 -0.167234
vn -0.586845 0.809369 -0.023135
vn -0.174893 0.984587 -0.000687
vn -0.503172 0.789419 0.351619
vn -0.172347 0.795157 0.581396
vn 0.559278 0.537809 0.630848
vn 0.529559 0.105604 0.841674
vn -0.105273 0.456845 0.883295
vn 0.673655 -0.263819 0.690354
vn 0.667494 -0.294265 0.684002
vn 0.777383 -0.620935 -0.100576
vn 0.588410 -0.808382 -0.017118
vn 0.820678 -0.567103 -0.069868
f 1/1/1 2/2/2 3/3/3
f 1/1/1 3/3/3 4/4/4
f 5/5/5 1/1/1 4/4/4
f 2/2/2 6/6/6 3/3/3
f 2/2/2 7/7/7 6/6/6
f 4/4/4 3/3/3 8/8/8
f 3/3/3 6/6/6 8/8/8
f 5/5/5 4/4/4 9/9/9
f 9/9/9 4/4/4 8/8/8
f 10/10/10 5/5/5 9/9/9
f 7/7/7 11/11/11 6/6/6
f 6/6/6 11/11/11 8/8/8
f 7/7/7 12/12/12 11/11/11
f 10/10/10 9/9/9 13/13/13
f 13/13/13 9/9/9 8/8/8
f 14/14/14 10/10/10 13/13/13
f 12/12/12 15/15/15 11/11/11
f 11/11/11 15/15/15 8/8/8
f 12/12/12 16/16/16 15/15/15
f 17/17/17 13/13/13 8/8/8
f 14/14/14 13/13/13 17/17/17
f 15/15/15 17/17/17 8/8/8
f 16/16/16 14/14/14 17/17/17
f 16/16/16 17/17/17 15/15/15
f 18/18/18 19/19/19 20/20/20
f 18/18/18 20/20/20 21/21/21
f 22/22/22 18/18/18 21/21/21
f 19/19/19 23/23/23 20/20/20
f 19/19/19 24/24/24 23/23/23
f 21/21/21 20/20/20 25/25/25
f 20/20/20 23/23/23 25/25/25
f 22/22/22 21/21/21 26/26/26
f 26/26/26 21/21/21 25/25/25
f 27/27/27 22/22/22 26/26/26
f 24/24/24 28/28/28 23/23/23
f 23/23/23 28/28/28 25/25/25
f 24/24/24 29/29/29 28/28/28
f 27/27/27 26/26/26 30/30/30
f 30/30/30 26/26/26 25/25/25
f 31/31/31 27/27/27 30/30/30
f 29/29/29 32/32/32 28/28/28
f 28/28/28 32/32/32 25/25/25
f 29/29/29 33/33/33 32/32/32
f 34/34/34 30/30/30 25/25/25
f 31/31/31 30/30/30 34/34/34
f 32/32/32 34/34/34 25/25/25
f 33/33/33 31/31/31 34/34/34
f 33/33/33 34/34/34 32/32/32
f 35/35/35 36/36/36 37/37/37
f 38/38/38 36/36/36 35/35/35
f 38/38/38 39/39/39 36/36/36
f 40/40/40 37/37/37 36/36/36
f 39/39/39 40/40/40 36/36/36
f 41/41/41 39/39/39 38/38/38
f 41/41/41 42/42/42 39/39/39
f 43/43/43 39/39/39 42/42/42
f 41/41/41 38/38/38 44/44/44
f 44/44/44 38/38/38 35/35/35
f 41/41/41 44/44/44 45/45/45
f 46/46/46 45/45/45 44/44/44
f 43/43/43 47/47/47 39/39/39
f 39/39/39 47/47/47 40/40/40
f 48/48/48 47/47/47 43/43/43
f 46/46/46 44/44/44 49/49/49
f 50/50/50 46/46/46 49/49/49
f 49/49/49 44/44/44 51/51/51
f 44/44/44 35/35/35 51/51/51
f 50/50/50 49/49/49 52/52/52
f 53/53/53 50/50/50 52/52/52
f 53/53/53 52/52/52 54/54/54
f 52/52/52 49/49/49 55/55/55
f 49/49/49 51/51/51 55/55/55
f 54/54/54 52/52/52 56/56/56
f 52/52/52 55/55/55 56/56/56
f 54/54/54 56/56/56 57/57/57
f 58/58/58 55/55/55 51/51/51
f 35/35/35 58/58/58 51/51/51
f 59/59/59 56/56/56 55/55/55
f 58/58/58 59/59/59 55/55/55
f 59/59/59 60/60/60 56/56/56
f 35/35/35 61/61/61 58/58/58
f 35/35/35 37/37/37 61/61/61
f 59/59/59 58/58/58 62/62/62
f 61/61/61 62/62/62 58/58/58
f 63/63/63 60/60/60 59/59/59
f 59/59/59 62/62/62 63/63/63
f 63/63/63 64/64/64 60/60/60
f 63/63/63 65/65/65 64/64/64
f 61/61/61 66/66/66 62/62/62
f 67/67/67 63/63/63 62/62/62
f 63/63/63 67/67/67 65/65/65
f 67/67/67 62/62/62 66/66/66
f 61/61/61 68/68/68 66/66/66
f 68/68/68 67/67/67 66/66/66
f 61/61/61 37/37/37 68/68/68
f 69/69/69 65/65/65 67/67/67
f 68/68/68 69/69/69 67/67/67
f 69/69/69 70/70/70 65/65/65
f 69/69/69 71/71/71 70/70/70
f 72/72/72 69/69/69 68/68/68
f 69/69/69 72/72/72 71/71/71
f 72/72/72 68/68/68 37/37/37
f 40/40/40 72/72/72 37/37/37
f 72/72/72 73/73/73 71/71/71
f 72/72/72 40/40/40 73/73/73
f 47/47/47 73/73/73 40/40/40
f 47/47/47 74/74/74 73/73/73
f 48/48/48 74/74/74 47/47/47
f 74/74/74 75/75/75 73/73/73
f 76/76/76 74/74/74 48/48/48
f 74/74/74 77/77/77 75/75/75
f 76/76/76 77/77/77 74/74/74
