# Generated from Roblox mesh JSON (v2.00)
# Hello from RBX_Toolbox ;)
o LeftUpperLeg
v 0.104094 -0.513862 0.199069
v -0.001359 -0.518177 0.234589
v 0.003627 -0.592272 0.198005
v 0.064605 -0.589777 0.177467
v 0.128285 -0.564040 0.077703
v -0.049647 -0.597560 0.162463
v -0.093495 -0.527324 0.173121
v 0.010464 -0.648619 0.124571
v 0.078590 -0.618792 0.107292
v 0.099296 -0.618063 -0.018568
v -0.055553 -0.617232 0.105938
v -0.103706 -0.561342 0.075361
v 0.061828 -0.650029 0.051625
v 0.013393 -0.626777 -0.033963
v -0.031898 -0.641126 0.064762
v -0.062797 -0.602663 0.004152
v 0.012159 -0.655068 0.042722
v -0.107336 0.632978 0.049618
v 0.017072 0.622421 0.272708
v 0.045070 0.647874 0.171703
v -0.038782 0.655068 0.032259
v -0.105014 0.605984 -0.250050
v 0.143314 0.590256 0.235521
v 0.147451 0.532239 0.374807
v 0.156075 0.582329 0.003320
v -0.014491 0.636350 -0.155051
v 0.117976 0.476176 -0.400591
v 0.199328 0.440428 0.178127
v 0.272146 0.260970 0.282986
v 0.124890 0.555213 -0.249148
v 0.240862 0.268213 -0.296407
v 0.243961 0.400316 -0.002825
v 0.254991 0.228364 -0.006511
v 0.201701 0.425225 -0.184027
v -0.000968 -0.024440 0.246456
v 0.134846 -0.041048 0.187965
v 0.167745 0.184120 0.252102
v 0.236324 0.134442 0.000098
v 0.197551 -0.060622 0.013827
v 0.166926 -0.272986 0.031711
v 0.015995 0.209724 0.310257
v 0.113972 -0.246643 0.163611
v 0.120904 -0.428015 0.037091
v -0.146591 -0.024719 0.177954
v -0.157677 0.232696 0.228472
v -0.002601 -0.238071 0.215569
v -0.200632 -0.041079 0.018976
v -0.227997 0.231928 0.014734
v -0.125258 -0.258274 0.156060
v -0.168097 -0.302805 0.039187
v -0.134631 -0.066390 -0.158847
v -0.158752 0.217007 -0.246211
v 0.026048 0.177888 -0.317018
v 0.020063 -0.082433 -0.219708
v 0.175049 0.155408 -0.250982
v -0.103162 -0.350763 -0.075913
v -0.128613 -0.460710 0.042959
v 0.149430 -0.078877 -0.156635
v 0.197551 -0.060622 0.013827
v 0.236324 0.134442 0.000098
v 0.138729 -0.321635 -0.087539
v 0.166926 -0.272986 0.031711
v 0.120904 -0.428015 0.037091
v 0.026731 -0.360380 -0.125875
v 0.094876 -0.486061 -0.057440
v 0.099296 -0.618063 -0.018568
v 0.128285 -0.564040 0.077703
v 0.011399 -0.519678 -0.062055
v 0.013393 -0.626777 -0.033963
v -0.071872 -0.505696 -0.025599
v -0.062797 -0.602663 0.004152
v -0.103706 -0.561342 0.075361
v -0.093495 -0.527324 0.173121
v -0.107054 -0.405444 0.145356
v -0.001359 -0.518177 0.234589
v -0.012936 -0.378340 0.206697
v 0.104094 -0.513862 0.199069
v 0.085616 -0.383034 0.163029
v 0.128285 -0.564040 0.077703
v 0.125771 -0.120902 0.176622
v -0.001023 -0.106102 0.231478
v 0.002910 -0.136349 0.017627
v 0.184187 -0.140785 0.016562
v 0.125771 -0.120902 0.176622
v 0.002910 -0.136349 0.017627
v -0.123783 -0.154718 -0.138837
v 0.020224 -0.168680 -0.195330
v 0.002910 -0.136349 0.017627
v -0.136642 -0.109277 0.167425
v -0.186587 -0.128882 0.021807
v 0.002910 -0.136349 0.017627
v 0.141137 -0.161444 -0.138707
v 0.184187 -0.140785 0.016562
v 0.002910 -0.136349 0.017627
v -0.186587 -0.128882 0.021807
v -0.123783 -0.154718 -0.138837
v 0.002910 -0.136349 0.017627
v -0.001023 -0.106102 0.231478
v -0.136642 -0.109277 0.167425
v 0.002910 -0.136349 0.017627
v 0.020224 -0.168680 -0.195330
v 0.141137 -0.161444 -0.138707
v 0.002910 -0.136349 0.017627
v 0.147451 0.532239 0.374807
v 0.017072 0.622421 0.272708
v -0.069747 0.492405 0.275311
v -0.107336 0.632978 0.049618
v 0.067313 0.425306 0.375053
v 0.272146 0.260970 0.282986
v 0.024162 0.322469 0.340977
v -0.184314 0.510489 0.032511
v -0.163017 0.356637 0.252797
v -0.166996 0.480207 -0.282335
v -0.105014 0.605984 -0.250050
v 0.117976 0.476176 -0.400591
v -0.243804 0.376656 0.012694
v 0.054362 0.385833 -0.400873
v 0.240862 0.268213 -0.296407
v -0.170366 0.353459 -0.288274
v 0.028930 0.303228 -0.363869
v 0.031910 0.226386 -0.422078
v -0.212309 0.279068 -0.328599
v -0.303347 0.298030 0.018642
v -0.187422 0.298119 0.302278
v 0.228544 0.195360 -0.335268
v 0.254991 0.228364 -0.006511
v 0.309709 0.165544 -0.001119
v 0.253982 0.076222 -0.348639
v 0.342667 0.046649 0.004129
v 0.033430 0.100336 -0.448668
v -0.237830 0.151120 -0.344103
v 0.245053 -0.026917 -0.309150
v 0.328412 -0.042384 0.009118
v 0.212656 -0.112026 0.013834
v 0.031586 -0.008981 -0.408761
v -0.228152 0.033608 -0.307856
v -0.342667 0.178115 0.022792
v -0.332486 0.057993 0.023498
v -0.145237 -0.117645 -0.172206
v -0.241365 0.185488 0.328605
v -0.237857 0.076391 0.306522
v -0.216347 -0.091012 0.019383
v 0.006458 0.060477 0.421506
v 0.021430 -0.134833 -0.237777
v -0.158124 -0.073396 0.190665
v 0.160810 -0.131533 -0.169822
v 0.257272 -0.151332 0.016547
v 0.194150 -0.174304 -0.196991
v 0.021175 -0.183565 -0.278855
v 0.194278 -0.211629 -0.184197
v 0.252509 -0.184438 0.019125
v 0.184187 -0.140785 0.016562
v 0.141137 -0.161444 -0.138707
v 0.023807 -0.226825 -0.264211
v 0.020224 -0.168680 -0.195330
v -0.172200 -0.208562 -0.187385
v -0.123783 -0.154718 -0.138837
v -0.177395 -0.164202 -0.200013
v -0.255780 -0.171107 0.021231
v -0.186587 -0.128882 0.021807
v -0.260870 -0.130210 0.019652
v -0.188440 -0.149967 0.215220
v -0.136642 -0.109277 0.167425
v -0.190608 -0.113592 0.219908
v -0.001228 -0.073107 0.264467
v -0.003102 -0.113992 0.307532
v -0.002097 -0.147291 0.302751
v -0.001023 -0.106102 0.231478
v 0.175247 -0.163820 0.225919
v 0.125771 -0.120902 0.176622
v 0.252509 -0.184438 0.019125
v 0.184187 -0.140785 0.016562
v 0.176080 -0.131835 0.232187
v 0.257272 -0.151332 0.016547
v 0.212656 -0.112026 0.013834
v 0.145098 -0.090912 0.201451
v 0.328412 -0.042384 0.009118
v 0.227404 0.024963 0.331217
v 0.239899 0.123582 0.359410
v 0.342667 0.046649 0.004129
v 0.013661 0.159518 0.448668
v 0.019368 0.266610 0.410356
v 0.265282 0.232492 0.321060
v 0.309709 0.165544 -0.001119
v 0.254991 0.228364 -0.006511
vt 0.504870 0.795425
vt 0.456617 0.753951
vt 0.490338 0.733724
vt 0.513743 0.753993
vt 0.573366 0.767538
vt 0.487130 0.702884
vt 0.448763 0.691150
vt 0.526327 0.711624
vt 0.548405 0.738311
vt 0.608126 0.713396
vt 0.508230 0.682160
vt 0.489581 0.648258
vt 0.567123 0.711881
vt 0.588040 0.665817
vt 0.534300 0.679066
vt 0.542186 0.642215
vt 0.556857 0.689759
vt 0.715691 0.751295
vt 0.684276 0.729169
vt 0.700588 0.717310
vt 0.718785 0.729602
vt 0.759563 0.744425
vt 0.693738 0.701572
vt 0.673019 0.698972
vt 0.724127 0.701893
vt 0.744455 0.726285
vt 0.781563 0.705931
vt 0.702134 0.680477
vt 0.686944 0.660924
vt 0.757555 0.705046
vt 0.772568 0.667384
vt 0.727781 0.675495
vt 0.730887 0.652487
vt 0.752038 0.683803
vt 0.337640 0.809475
vt 0.375248 0.797278
vt 0.395449 0.859694
vt 0.448436 0.811257
vt 0.417496 0.772248
vt 0.392799 0.726638
vt 0.353514 0.873488
vt 0.358460 0.743001
vt 0.381865 0.691771
vt 0.294256 0.812465
vt 0.304114 0.880582
vt 0.325228 0.750604
vt 0.249049 0.809264
vt 0.247387 0.881226
vt 0.287546 0.749541
vt 0.252408 0.740268
vt 0.198146 0.803221
vt 0.178670 0.877998
vt 0.129579 0.861174
vt 0.155009 0.791240
vt 0.090719 0.839221
vt 0.217185 0.727203
vt 0.250941 0.697630
vt 0.120784 0.775139
vt 0.083180 0.746967
vt 0.047756 0.783292
vt 0.150067 0.713263
vt 0.117474 0.701927
vt 0.146787 0.671047
vt 0.182083 0.717348
vt 0.177212 0.675961
vt 0.189670 0.641802
vt 0.160219 0.636770
vt 0.202167 0.675864
vt 0.211449 0.647835
vt 0.226372 0.684213
vt 0.232618 0.657722
vt 0.255158 0.668850
vt 0.283209 0.674217
vt 0.282759 0.708976
vt 0.313603 0.672118
vt 0.316196 0.711622
vt 0.343012 0.670904
vt 0.347203 0.706858
vt 0.376342 0.659456
vt 0.973223 0.942841
vt 0.956081 0.955833
vt 0.949027 0.923141
vt 0.976296 0.916462
vt 0.973223 0.942841
vt 0.949027 0.923141
vt 0.924345 0.903895
vt 0.944013 0.890063
vt 0.949027 0.923141
vt 0.933362 0.951013
vt 0.920632 0.930639
vt 0.949027 0.923141
vt 0.964256 0.894384
vt 0.976296 0.916462
vt 0.949027 0.923141
vt 0.920632 0.930639
vt 0.924345 0.903895
vt 0.949027 0.923141
vt 0.956081 0.955833
vt 0.933362 0.951013
vt 0.949027 0.923141
vt 0.944013 0.890063
vt 0.964256 0.894384
vt 0.949027 0.923141
vt 0.864106 0.923643
vt 0.826276 0.940451
vt 0.821846 0.916650
vt 0.774405 0.942887
vt 0.860726 0.905352
vt 0.887981 0.877790
vt 0.854833 0.887107
vt 0.769770 0.918793
vt 0.814819 0.894128
vt 0.710092 0.917555
vt 0.714947 0.938907
vt 0.662553 0.917120
vt 0.766215 0.898217
vt 0.663648 0.901978
vt 0.633886 0.875876
vt 0.707843 0.897509
vt 0.666802 0.887365
vt 0.666596 0.872526
vt 0.707584 0.885265
vt 0.766582 0.886124
vt 0.814670 0.881870
vt 0.633833 0.859518
vt 0.581536 0.848973
vt 0.581685 0.831759
vt 0.636615 0.838986
vt 0.587323 0.804619
vt 0.668571 0.852762
vt 0.708788 0.866084
vt 0.640922 0.821020
vt 0.600064 0.785365
vt 0.623269 0.769569
vt 0.672548 0.835331
vt 0.712387 0.846749
vt 0.766078 0.865407
vt 0.765152 0.845104
vt 0.721469 0.810900
vt 0.813011 0.863942
vt 0.809427 0.846621
vt 0.763108 0.813528
vt 0.848455 0.840511
vt 0.684459 0.802501
vt 0.800599 0.813386
vt 0.653032 0.790381
vt 0.628839 0.759466
vt 0.659028 0.782394
vt 0.688410 0.793717
vt 0.662004 0.776409
vt 0.633917 0.753969
vt 0.645760 0.744789
vt 0.669080 0.763549
vt 0.690794 0.786832
vt 0.695618 0.772793
vt 0.724741 0.793582
vt 0.728089 0.779489
vt 0.723187 0.801191
vt 0.762665 0.796803
vt 0.764188 0.783207
vt 0.762989 0.803940
vt 0.797257 0.797674
vt 0.796574 0.783934
vt 0.798905 0.803877
vt 0.836923 0.807795
vt 0.833312 0.798876
vt 0.831302 0.793461
vt 0.827148 0.780069
vt 0.861243 0.782013
vt 0.853139 0.770522
vt 0.889606 0.757303
vt 0.876645 0.750140
vt 0.863499 0.786952
vt 0.894396 0.762623
vt 0.899242 0.772773
vt 0.868929 0.795218
vt 0.922899 0.787542
vt 0.880968 0.826030
vt 0.885160 0.843137
vt 0.935431 0.806323
vt 0.852562 0.856198
vt 0.854513 0.873556
vt 0.887638 0.862489
vt 0.940609 0.833363
vt 0.941429 0.850454
vn 0.735605 -0.083413 0.672255
vn -0.097464 -0.111047 0.989024
vn -0.070625 -0.605020 0.793072
vn 0.504927 -0.602781 0.617822
vn 0.961498 -0.260649 0.087085
vn -0.571903 -0.629144 0.526407
vn -0.786485 -0.220996 0.576717
vn -0.020737 -0.927630 0.372924
vn 0.650631 -0.693386 0.309668
vn 0.644901 -0.564589 -0.515114
vn -0.668455 -0.719698 0.187623
vn -0.913858 -0.405136 -0.026981
vn 0.429115 -0.903245 0.003051
vn -0.140979 -0.661251 -0.736798
vn -0.513449 -0.857113 -0.041557
vn -0.673676 -0.556551 -0.486222
vn -0.125383 -0.977006 -0.172450
vn -0.618732 0.771110 0.150202
vn -0.265214 0.777568 0.570131
vn 0.163621 0.979685 0.115950
vn -0.020634 0.999653 -0.016387
vn -0.445825 0.761663 -0.470223
vn 0.687823 0.706768 0.165464
vn 0.404556 0.462929 0.788690
vn 0.703998 0.707442 -0.062548
vn 0.102063 0.972309 -0.210235
vn 0.374279 0.421797 -0.825835
vn 0.939617 0.337060 0.059243
vn 0.842900 0.443114 0.305237
vn 0.600969 0.733125 -0.318378
vn 0.842641 0.302312 -0.445604
vn 0.950773 0.308660 -0.027555
vn 0.951104 0.303673 -0.056425
vn 0.922740 0.347414 -0.166894
vn -0.047788 -0.209279 0.976688
vn 0.709268 -0.204061 0.674758
vn 0.626384 -0.274416 0.729616
vn 0.977361 -0.208846 0.033882
vn 0.983731 -0.171295 0.054146
vn 0.976792 -0.188196 0.102274
vn -0.073571 -0.260656 0.962625
vn 0.718356 -0.152993 0.678644
vn 0.992702 -0.114475 0.037921
vn -0.745339 -0.140127 0.651793
vn -0.733152 -0.162210 0.660436
vn -0.019154 -0.119979 0.992592
vn -0.990922 -0.134426 0.001691
vn -0.992447 -0.120592 0.022506
vn -0.740001 -0.123460 0.661178
vn -0.981099 -0.192958 -0.014536
vn -0.718719 -0.249594 -0.648957
vn -0.729386 -0.245100 -0.638687
vn -0.048276 -0.356178 -0.933170
vn 0.001807 -0.337856 -0.941196
vn 0.659919 -0.325435 -0.677200
vn -0.677129 -0.289429 -0.676555
vn -0.966283 -0.228143 -0.119361
vn 0.750196 -0.267912 -0.604507
vn 0.983731 -0.171295 0.054146
vn 0.977361 -0.208846 0.033882
vn 0.776960 -0.283230 -0.562240
vn 0.976792 -0.188196 0.102274
vn 0.992702 -0.114475 0.037921
vn 0.002003 -0.330414 -0.943834
vn 0.686940 -0.256255 -0.680034
vn 0.644901 -0.564589 -0.515114
vn 0.961498 -0.260649 0.087085
vn -0.115426 -0.308517 -0.944190
vn -0.140979 -0.661251 -0.736798
vn -0.667621 -0.304498 -0.679385
vn -0.673676 -0.556551 -0.486222
vn -0.913858 -0.405136 -0.026981
vn -0.786485 -0.220996 0.576717
vn -0.800923 -0.074016 0.594175
vn -0.097464 -0.111047 0.989024
vn -0.101464 0.050685 0.993547
vn 0.735605 -0.083413 0.672255
vn 0.737676 0.010401 0.675075
vn 0.961498 -0.260649 0.087085
vn -0.055351 -0.988768 0.138830
vn -0.055351 -0.988768 0.138830
vn -0.055351 -0.988768 0.138830
vn -0.023627 -0.993115 0.114738
vn -0.023627 -0.993115 0.114738
vn -0.023627 -0.993115 0.114738
vn -0.038183 -0.988406 0.146957
vn -0.038183 -0.988406 0.146957
vn -0.038183 -0.988406 0.146957
vn -0.035755 -0.988730 0.145377
vn -0.035755 -0.988730 0.145377
vn -0.035755 -0.988730 0.145377
vn -0.023415 -0.990123 0.138233
vn -0.023415 -0.990123 0.138233
vn -0.023415 -0.990123 0.138233
vn -0.035765 -0.988779 0.145042
vn -0.035765 -0.988779 0.145042
vn -0.035765 -0.988779 0.145042
vn -0.042563 -0.989356 0.139149
vn -0.042563 -0.989356 0.139149
vn -0.042563 -0.989356 0.139149
vn -0.010715 -0.988743 0.149241
vn -0.010715 -0.988743 0.149241
vn -0.010715 -0.988743 0.149241
vn 0.404556 0.462929 0.788690
vn -0.265214 0.777568 0.570131
vn -0.660577 0.329753 0.674464
vn -0.618732 0.771110 0.150202
vn -0.163668 -0.017784 0.986355
vn 0.842900 0.443114 0.305237
vn -0.102424 0.384953 0.917235
vn -0.890928 0.430410 0.144893
vn -0.658349 0.522464 0.541856
vn -0.764473 0.301945 -0.569569
vn -0.445825 0.761663 -0.470223
vn 0.374279 0.421797 -0.825835
vn -0.875279 0.480452 0.055253
vn -0.095049 -0.078584 -0.992366
vn 0.842641 0.302312 -0.445604
vn -0.681724 0.389580 -0.619258
vn -0.033648 0.183148 -0.982509
vn 0.070949 0.362322 -0.929349
vn -0.630489 0.433595 -0.643800
vn -0.884866 0.464867 0.030185
vn -0.570935 0.552284 0.607466
vn 0.706227 0.345718 -0.617837
vn 0.951104 0.303673 -0.056425
vn 0.964424 0.262001 -0.035244
vn 0.753507 -0.031676 -0.656676
vn 0.999568 -0.026337 0.013019
vn 0.023412 -0.077235 -0.996738
vn -0.727668 0.010802 -0.685845
vn 0.641959 -0.552665 -0.531460
vn 0.847529 -0.527502 0.058623
vn 0.996418 -0.076005 0.037076
vn -0.025172 -0.576463 -0.816735
vn -0.692294 -0.453760 -0.561098
vn -0.993026 0.115234 0.024924
vn -0.931142 -0.362890 0.035858
vn -0.735794 -0.005952 -0.677179
vn -0.735899 0.125890 0.665285
vn -0.691194 -0.400372 0.601626
vn -0.996574 0.075469 -0.033846
vn -0.075047 -0.495003 0.865644
vn -0.011685 -0.108737 -0.994002
vn -0.770383 0.034982 0.636621
vn 0.747404 -0.105776 -0.655895
vn 0.947999 0.318260 0.002853
vn 0.707612 0.232916 -0.667110
vn 0.023477 0.154741 -0.987676
vn 0.477306 -0.848073 -0.230111
vn 0.546419 -0.829632 0.114620
vn -0.553706 -0.830108 0.065814
vn -0.394960 -0.806638 0.439707
vn 0.023904 -0.904893 -0.424967
vn -0.020428 -0.769202 0.638679
vn -0.425564 -0.869803 -0.249675
vn 0.359930 -0.790380 0.495732
vn -0.672336 0.212430 -0.709111
vn -0.557612 -0.824898 0.092799
vn 0.536553 -0.835160 0.120909
vn -0.950461 0.307699 -0.044101
vn -0.426472 -0.803291 0.415745
vn 0.399855 -0.868569 -0.292753
vn -0.703376 0.324035 0.632664
vn -0.059713 -0.055529 0.996670
vn -0.011819 0.305941 0.951977
vn -0.030201 -0.807129 0.589602
vn -0.021855 -0.872079 -0.488877
vn 0.397187 -0.816277 0.419445
vn -0.429655 -0.851027 -0.301909
vn 0.546419 -0.829632 0.114620
vn -0.553706 -0.830108 0.065814
vn 0.688818 0.303048 0.658552
vn 0.947999 0.318260 0.002853
vn 0.996418 -0.076005 0.037076
vn 0.711552 -0.068582 0.699279
vn 0.847529 -0.527502 0.058623
vn 0.592238 -0.514906 0.619779
vn 0.696367 -0.023759 0.717292
vn 0.999568 -0.026337 0.013019
vn -0.027732 0.038608 0.998870
vn 0.020754 0.535527 0.844263
vn 0.713328 0.448806 0.538272
vn 0.964424 0.262001 -0.035244
vn 0.951104 0.303673 -0.056425
f 1/1/1 2/2/2 3/3/3
f 1/1/1 3/3/3 4/4/4
f 5/5/5 1/1/1 4/4/4
f 2/2/2 6/6/6 3/3/3
f 2/2/2 7/7/7 6/6/6
f 4/4/4 3/3/3 8/8/8
f 3/3/3 6/6/6 8/8/8
f 5/5/5 4/4/4 9/9/9
f 9/9/9 4/4/4 8/8/8
f 10/10/10 5/5/5 9/9/9
f 7/7/7 11/11/11 6/6/6
f 6/6/6 11/11/11 8/8/8
f 7/7/7 12/12/12 11/11/11
f 10/10/10 9/9/9 13/13/13
f 13/13/13 9/9/9 8/8/8
f 14/14/14 10/10/10 13/13/13
f 12/12/12 15/15/15 11/11/11
f 11/11/11 15/15/15 8/8/8
f 12/12/12 16/16/16 15/15/15
f 17/17/17 13/13/13 8/8/8
f 14/14/14 13/13/13 17/17/17
f 15/15/15 17/17/17 8/8/8
f 16/16/16 14/14/14 17/17/17
f 16/16/16 17/17/17 15/15/15
f 18/18/18 19/19/19 20/20/20
f 18/18/18 20/20/20 21/21/21
f 22/22/22 18/18/18 21/21/21
f 19/19/19 23/23/23 20/20/20
f 19/19/19 24/24/24 23/23/23
f 21/21/21 20/20/20 25/25/25
f 20/20/20 23/23/23 25/25/25
f 22/22/22 21/21/21 26/26/26
f 26/26/26 21/21/21 25/25/25
f 27/27/27 22/22/22 26/26/26
f 24/24/24 28/28/28 23/23/23
f 23/23/23 28/28/28 25/25/25
f 24/24/24 29/29/29 28/28/28
f 27/27/27 26/26/26 30/30/30
f 30/30/30 26/26/26 25/25/25
f 31/31/31 27/27/27 30/30/30
f 29/29/29 32/32/32 28/28/28
f 28/28/28 32/32/32 25/25/25
f 29/29/29 33/33/33 32/32/32
f 34/34/34 30/30/30 25/25/25
f 31/31/31 30/30/30 34/34/34
f 32/32/32 34/34/34 25/25/25
f 33/33/33 31/31/31 34/34/34
f 33/33/33 34/34/34 32/32/32
f 35/35/35 36/36/36 37/37/37
f 36/36/36 38/38/38 37/37/37
f 36/36/36 39/39/39 38/38/38
f 36/36/36 40/40/40 39/39/39
f 35/35/35 37/37/37 41/41/41
f 36/36/36 42/42/42 40/40/40
f 35/35/35 42/42/42 36/36/36
f 42/42/42 43/43/43 40/40/40
f 44/44/44 35/35/35 41/41/41
f 44/44/44 41/41/41 45/45/45
f 35/35/35 46/46/46 42/42/42
f 47/47/47 44/44/44 45/45/45
f 47/47/47 45/45/45 48/48/48
f 35/35/35 44/44/44 49/49/49
f 35/35/35 49/49/49 46/46/46
f 44/44/44 47/47/47 50/50/50
f 44/44/44 50/50/50 49/49/49
f 51/51/51 47/47/47 48/48/48
f 51/51/51 50/50/50 47/47/47
f 51/51/51 48/48/48 52/52/52
f 51/51/51 52/52/52 53/53/53
f 51/51/51 53/53/53 54/54/54
f 54/54/54 53/53/53 55/55/55
f 51/51/51 56/56/56 50/50/50
f 54/54/54 56/56/56 51/51/51
f 56/56/56 57/57/57 50/50/50
f 54/54/54 55/55/55 58/58/58
f 59/59/59 58/58/58 55/55/55
f 59/59/59 55/55/55 60/60/60
f 59/59/59 61/61/61 58/58/58
f 61/61/61 54/54/54 58/58/58
f 59/59/59 62/62/62 61/61/61
f 63/63/63 61/61/61 62/62/62
f 61/61/61 64/64/64 54/54/54
f 54/54/54 64/64/64 56/56/56
f 63/63/63 65/65/65 61/61/61
f 65/65/65 64/64/64 61/61/61
f 66/66/66 65/65/65 63/63/63
f 66/66/66 63/63/63 67/67/67
f 66/66/66 68/68/68 65/65/65
f 65/65/65 68/68/68 64/64/64
f 66/66/66 69/69/69 68/68/68
f 64/64/64 70/70/70 56/56/56
f 64/64/64 68/68/68 70/70/70
f 69/69/69 70/70/70 68/68/68
f 69/69/69 71/71/71 70/70/70
f 56/56/56 70/70/70 57/57/57
f 71/71/71 57/57/57 70/70/70
f 71/71/71 72/72/72 57/57/57
f 73/73/73 57/57/57 72/72/72
f 73/73/73 74/74/74 57/57/57
f 50/50/50 57/57/57 74/74/74
f 75/75/75 74/74/74 73/73/73
f 50/50/50 74/74/74 49/49/49
f 75/75/75 76/76/76 74/74/74
f 49/49/49 74/74/74 76/76/76
f 77/77/77 76/76/76 75/75/75
f 49/49/49 76/76/76 46/46/46
f 46/46/46 76/76/76 78/78/78
f 77/77/77 78/78/78 76/76/76
f 46/46/46 78/78/78 42/42/42
f 42/42/42 78/78/78 43/43/43
f 77/77/77 43/43/43 78/78/78
f 77/77/77 79/79/79 43/43/43
f 80/80/80 81/81/81 82/82/82
f 83/83/83 84/84/84 85/85/85
f 86/86/86 87/87/87 88/88/88
f 89/89/89 90/90/90 91/91/91
f 92/92/92 93/93/93 94/94/94
f 95/95/95 96/96/96 97/97/97
f 98/98/98 99/99/99 100/100/100
f 101/101/101 102/102/102 103/103/103
f 104/104/104 105/105/105 106/106/106
f 106/106/106 105/105/105 107/107/107
f 104/104/104 106/106/106 108/108/108
f 109/109/109 104/104/104 108/108/108
f 106/106/106 110/110/110 108/108/108
f 110/110/110 109/109/109 108/108/108
f 106/106/106 107/107/107 111/111/111
f 106/106/106 112/112/112 110/110/110
f 112/112/112 106/106/106 111/111/111
f 107/107/107 113/113/113 111/111/111
f 107/107/107 114/114/114 113/113/113
f 115/115/115 113/113/113 114/114/114
f 113/113/113 116/116/116 111/111/111
f 112/112/112 111/111/111 116/116/116
f 115/115/115 117/117/117 113/113/113
f 115/115/115 118/118/118 117/117/117
f 113/113/113 119/119/119 116/116/116
f 117/117/117 119/119/119 113/113/113
f 118/118/118 120/120/120 117/117/117
f 117/117/117 120/120/120 119/119/119
f 121/121/121 120/120/120 118/118/118
f 122/122/122 119/119/119 120/120/120
f 122/122/122 120/120/120 121/121/121
f 123/123/123 116/116/116 119/119/119
f 123/123/123 119/119/119 122/122/122
f 124/124/124 116/116/116 123/123/123
f 124/124/124 112/112/112 116/116/116
f 121/121/121 118/118/118 125/125/125
f 125/125/125 118/118/118 126/126/126
f 125/125/125 126/126/126 127/127/127
f 128/128/128 125/125/125 127/127/127
f 128/128/128 127/127/127 129/129/129
f 130/130/130 121/121/121 125/125/125
f 130/130/130 125/125/125 128/128/128
f 131/131/131 121/121/121 130/130/130
f 131/131/131 122/122/122 121/121/121
f 132/132/132 128/128/128 129/129/129
f 132/132/132 129/129/129 133/133/133
f 134/134/134 132/132/132 133/133/133
f 135/135/135 130/130/130 128/128/128
f 135/135/135 128/128/128 132/132/132
f 136/136/136 131/131/131 130/130/130
f 136/136/136 130/130/130 135/135/135
f 137/137/137 122/122/122 131/131/131
f 137/137/137 123/123/123 122/122/122
f 138/138/138 131/131/131 136/136/136
f 138/138/138 137/137/137 131/131/131
f 139/139/139 136/136/136 135/135/135
f 139/139/139 138/138/138 136/136/136
f 140/140/140 123/123/123 137/137/137
f 140/140/140 124/124/124 123/123/123
f 141/141/141 137/137/137 138/138/138
f 141/141/141 140/140/140 137/137/137
f 142/142/142 141/141/141 138/138/138
f 139/139/139 142/142/142 138/138/138
f 143/143/143 140/140/140 141/141/141
f 139/139/139 135/135/135 144/144/144
f 144/144/144 135/135/135 132/132/132
f 142/142/142 145/145/145 141/141/141
f 145/145/145 143/143/143 141/141/141
f 144/144/144 132/132/132 146/146/146
f 134/134/134 146/146/146 132/132/132
f 146/146/146 134/134/134 147/147/147
f 144/144/144 146/146/146 148/148/148
f 146/146/146 147/147/147 148/148/148
f 144/144/144 148/148/148 149/149/149
f 139/139/139 144/144/144 149/149/149
f 147/147/147 150/150/150 148/148/148
f 147/147/147 151/151/151 150/150/150
f 152/152/152 150/150/150 151/151/151
f 152/152/152 153/153/153 150/150/150
f 154/154/154 148/148/148 150/150/150
f 153/153/153 154/154/154 150/150/150
f 154/154/154 149/149/149 148/148/148
f 153/153/153 155/155/155 154/154/154
f 155/155/155 156/156/156 154/154/154
f 149/149/149 154/154/154 156/156/156
f 155/155/155 157/157/157 156/156/156
f 139/139/139 149/149/149 158/158/158
f 149/149/149 156/156/156 158/158/158
f 142/142/142 139/139/139 158/158/158
f 157/157/157 159/159/159 156/156/156
f 158/158/158 156/156/156 159/159/159
f 157/157/157 160/160/160 159/159/159
f 142/142/142 158/158/158 161/161/161
f 158/158/158 159/159/159 161/161/161
f 145/145/145 142/142/142 161/161/161
f 160/160/160 162/162/162 159/159/159
f 160/160/160 163/163/163 162/162/162
f 164/164/164 161/161/161 159/159/159
f 145/145/145 161/161/161 164/164/164
f 164/164/164 159/159/159 162/162/162
f 165/165/165 145/145/145 164/164/164
f 145/145/145 165/165/165 143/143/143
f 166/166/166 164/164/164 162/162/162
f 165/165/165 164/164/164 166/166/166
f 163/163/163 167/167/167 162/162/162
f 166/166/166 162/162/162 167/167/167
f 163/163/163 168/168/168 167/167/167
f 168/168/168 169/169/169 167/167/167
f 166/166/166 167/167/167 169/169/169
f 168/168/168 170/170/170 169/169/169
f 170/170/170 171/171/171 169/169/169
f 170/170/170 172/172/172 171/171/171
f 173/173/173 169/169/169 171/171/171
f 166/166/166 169/169/169 173/173/173
f 173/173/173 171/171/171 174/174/174
f 175/175/175 173/173/173 174/174/174
f 176/176/176 166/166/166 173/173/173
f 175/175/175 176/176/176 173/173/173
f 176/176/176 165/165/165 166/166/166
f 176/176/176 175/175/175 177/177/177
f 165/165/165 176/176/176 178/178/178
f 176/176/176 177/177/177 178/178/178
f 165/165/165 178/178/178 143/143/143
f 177/177/177 179/179/179 178/178/178
f 177/177/177 180/180/180 179/179/179
f 178/178/178 181/181/181 143/143/143
f 178/178/178 179/179/179 181/181/181
f 143/143/143 181/181/181 140/140/140
f 181/181/181 124/124/124 140/140/140
f 181/181/181 182/182/182 124/124/124
f 179/179/179 182/182/182 181/181/181
f 182/182/182 112/112/112 124/124/124
f 182/182/182 110/110/110 112/112/112
f 179/179/179 183/183/183 182/182/182
f 183/183/183 110/110/110 182/182/182
f 180/180/180 183/183/183 179/179/179
f 183/183/183 109/109/109 110/110/110
f 180/180/180 184/184/184 183/183/183
f 184/184/184 109/109/109 183/183/183
f 184/184/184 185/185/185 109/109/109
