# Generated from Roblox mesh JSON (v2.00)
# Hello from RBX_Toolbox ;)
o RightLowerLeg
v 0.019372 0.430094 0.061814
v 0.013358 0.438230 -0.030946
v -0.038457 0.440349 -0.048399
v 0.111507 0.420947 0.000344
v -0.086083 0.434409 0.026293
v 0.058628 0.433735 -0.061149
v 0.121718 0.386929 -0.097414
v 0.007548 0.423876 -0.112595
v -0.050342 0.415695 -0.108031
v -0.110272 0.384231 -0.095072
v 0.063645 0.417021 -0.109182
v 0.080809 0.345607 -0.168623
v -0.036099 0.389150 -0.155334
v -0.081284 0.330206 -0.191343
v 0.043545 0.396717 -0.144170
v 0.004618 0.321492 -0.206738
v 0.006109 0.384869 -0.162898
v -0.114497 -0.394942 0.036351
v -0.082697 -0.431964 0.022593
v -0.065331 -0.429889 0.113669
v -0.108625 -0.391409 -0.107996
v -0.090460 -0.392070 0.162413
v -0.078455 -0.429411 -0.081693
v -0.088236 -0.382514 -0.119357
v 0.000083 -0.440349 -0.013223
v -0.008106 -0.431905 0.143430
v -0.011252 -0.394860 0.203607
v -0.063724 -0.422985 -0.089901
v -0.082968 -0.391078 -0.108227
v 0.052435 -0.429889 0.119915
v 0.072545 -0.392070 0.171060
v -0.059919 -0.429173 -0.081860
v 0.009884 -0.374111 -0.133153
v 0.081056 -0.431964 0.031502
v 0.112162 -0.394942 0.048683
v 0.007164 -0.416914 -0.099869
v 0.085756 -0.388570 -0.103316
v 0.089834 -0.429185 -0.072326
v 0.124312 -0.391096 -0.095031
v 0.061979 -0.427361 -0.078312
v 0.092380 -0.379884 -0.113708
v 0.066765 -0.421085 -0.085820
v -0.123893 -0.301446 0.026957
v -0.090460 -0.392070 0.162413
v -0.098889 -0.297073 0.153630
v -0.208269 -0.205699 0.016114
v -0.168132 -0.161189 0.178465
v -0.013012 -0.156268 0.231390
v -0.010585 -0.294267 0.193316
v -0.011252 -0.394860 0.203607
v -0.148479 -0.208434 -0.164199
v -0.098409 -0.310048 -0.107462
v -0.082747 -0.311813 -0.119080
v -0.115879 -0.212608 -0.177766
v -0.114497 -0.394942 0.036351
v -0.108625 -0.391409 -0.107996
v -0.088236 -0.382514 -0.119357
v -0.082968 -0.391078 -0.108227
v -0.079494 -0.298835 -0.122663
v -0.112596 -0.188209 -0.168016
v -0.114408 -0.186975 -0.201583
v 0.016265 -0.175678 -0.231390
v 0.010949 -0.296064 -0.147058
v 0.009884 -0.374111 -0.133153
v 0.085756 -0.388570 -0.103316
v 0.094637 -0.298725 -0.113953
v 0.134734 -0.186875 -0.190522
v 0.092380 -0.379884 -0.113708
v 0.128908 -0.188117 -0.157300
v 0.097374 -0.311551 -0.110063
v 0.133261 -0.212509 -0.166554
v 0.124312 -0.391096 -0.095031
v 0.171499 -0.208434 -0.147226
v 0.114506 -0.310048 -0.095588
v 0.112162 -0.394942 0.048683
v 0.123022 -0.301446 0.040481
v 0.208269 -0.205700 0.037892
v 0.072545 -0.392070 0.171060
v 0.082123 -0.297073 0.163447
v -0.011252 -0.394860 0.203607
v 0.147771 -0.161189 0.194951
v -0.010585 -0.294267 0.193316
v -0.013012 -0.156268 0.231390
v 0.133261 -0.212509 -0.166554
v 0.128908 -0.188117 -0.157300
v 0.171499 -0.208434 -0.147226
v 0.016265 -0.175678 -0.231390
v 0.134734 -0.186875 -0.190522
v 0.014228 -0.176875 -0.197291
v -0.114408 -0.186975 -0.201583
v -0.112596 -0.188209 -0.168016
v -0.115879 -0.212608 -0.177766
v -0.148479 -0.208434 -0.164199
v -0.208269 -0.205699 0.016114
v -0.000189 -0.223140 0.031265
v -0.112596 -0.188209 -0.168016
v -0.148479 -0.208434 -0.164199
v -0.168132 -0.161189 0.178465
v 0.014228 -0.176875 -0.197291
v 0.128908 -0.188117 -0.157300
v 0.171499 -0.208434 -0.147226
v -0.013012 -0.156268 0.231390
v 0.208269 -0.205700 0.037892
v 0.147771 -0.161189 0.194951
v 0.115070 0.253328 0.040981
v 0.033808 0.265707 0.118445
v 0.030565 0.083715 0.113770
v 0.111507 0.420947 0.000344
v 0.019372 0.430094 0.061814
v 0.121718 0.386929 -0.097414
v -0.094106 0.269431 0.053073
v -0.086083 0.434409 0.026293
v -0.076826 0.088025 0.073188
v -0.111114 0.232597 -0.068584
v -0.110272 0.384231 -0.095072
v -0.091274 0.073539 -0.016465
v -0.068408 -0.110457 0.002778
v -0.058096 -0.120268 0.078278
v -0.071564 -0.306637 0.077097
v -0.088503 -0.295843 -0.000757
v -0.001929 -0.135444 0.107777
v -0.017369 -0.328543 0.093762
v 0.094147 0.075955 0.067400
v 0.049419 -0.132151 0.084887
v 0.037466 -0.327286 0.080416
v 0.086925 0.231780 -0.059527
v 0.070555 0.057694 -0.011588
v 0.041472 0.202336 -0.130969
v 0.080809 0.345607 -0.168623
v 0.058345 -0.134444 0.010511
v 0.054199 -0.332815 0.010252
v 0.043877 -0.336360 -0.076519
v 0.041787 -0.136066 -0.058145
v -0.011054 -0.335591 -0.074720
v 0.039930 0.037860 -0.085551
v 0.001166 -0.131702 -0.076230
v -0.065360 -0.326544 -0.067825
v 0.001153 0.030820 -0.106729
v -0.007295 0.186952 -0.152472
v 0.004618 0.321492 -0.206738
v -0.041347 -0.118581 -0.060804
v -0.047863 0.047940 -0.088456
v -0.068408 -0.110457 0.002778
v -0.088503 -0.295843 -0.000757
v -0.091274 0.073539 -0.016465
v -0.068021 0.201381 -0.139807
v -0.081284 0.330206 -0.191343
v -0.111114 0.232597 -0.068584
v -0.110272 0.384231 -0.095072
vt 0.483460 0.528220
vt 0.478958 0.483675
vt 0.454209 0.475808
vt 0.528681 0.494658
vt 0.429799 0.510272
vt 0.499854 0.468227
vt 0.532755 0.442116
vt 0.475208 0.444530
vt 0.448178 0.445256
vt 0.415459 0.444885
vt 0.501304 0.444136
vt 0.512237 0.400000
vt 0.454131 0.419344
vt 0.429149 0.388941
vt 0.491805 0.425051
vt 0.472784 0.377915
vt 0.473957 0.414732
vt 0.452735 0.274899
vt 0.471470 0.281650
vt 0.479516 0.246324
vt 0.453260 0.334348
vt 0.466272 0.223752
vt 0.470896 0.322392
vt 0.461428 0.343944
vt 0.503306 0.297555
vt 0.501642 0.235564
vt 0.500903 0.207750
vt 0.475424 0.326592
vt 0.468029 0.341393
vt 0.524501 0.245106
vt 0.536553 0.221827
vt 0.478816 0.324187
vt 0.506287 0.354507
vt 0.535222 0.279797
vt 0.553782 0.271972
vt 0.505307 0.333042
vt 0.538209 0.341426
vt 0.538612 0.320260
vt 0.557148 0.331326
vt 0.527302 0.324155
vt 0.544604 0.344296
vt 0.530750 0.326648
vt 0.103375 0.275491
vt 0.060539 0.276261
vt 0.074970 0.296071
vt 0.121973 0.301210
vt 0.095044 0.330000
vt 0.056770 0.340723
vt 0.052088 0.306765
vt 0.040741 0.288645
vt 0.137843 0.283982
vt 0.133008 0.252098
vt 0.139706 0.248281
vt 0.141016 0.278610
vt 0.089939 0.257000
vt 0.124243 0.232510
vt 0.135225 0.229562
vt 0.141485 0.228102
vt 0.145266 0.248961
vt 0.144752 0.284523
vt 0.149972 0.282090
vt 0.172073 0.286874
vt 0.172073 0.249025
vt 0.172073 0.227126
vt 0.195083 0.226912
vt 0.195797 0.247308
vt 0.196599 0.276310
vt 0.201786 0.228619
vt 0.199568 0.277606
vt 0.198966 0.246678
vt 0.201689 0.276541
vt 0.216217 0.232195
vt 0.203575 0.280893
vt 0.206498 0.252084
vt 0.250435 0.256861
vt 0.237053 0.275310
vt 0.219268 0.301420
vt 0.280009 0.276250
vt 0.265835 0.295943
vt 0.299939 0.288735
vt 0.246134 0.329826
vt 0.288850 0.306672
vt 0.284520 0.340605
vt 0.201689 0.276541
vt 0.199568 0.277606
vt 0.203575 0.280893
vt 0.172073 0.286874
vt 0.196599 0.276310
vt 0.172073 0.294518
vt 0.149972 0.282090
vt 0.144752 0.284523
vt 0.141016 0.278610
vt 0.137843 0.283982
vt 0.381996 0.223004
vt 0.378153 0.264405
vt 0.418406 0.242927
vt 0.417784 0.235637
vt 0.349405 0.230621
vt 0.423756 0.268429
vt 0.415317 0.291115
vt 0.413137 0.299472
vt 0.338222 0.261418
vt 0.376011 0.306104
vt 0.344871 0.293644
vt 0.793313 0.515020
vt 0.844643 0.513256
vt 0.841043 0.424063
vt 0.796191 0.604094
vt 0.854679 0.600055
vt 0.742213 0.593767
vt 0.912115 0.514043
vt 0.911272 0.597718
vt 0.899334 0.422930
vt 0.973724 0.497830
vt 0.975408 0.575689
vt 0.945146 0.413213
vt 0.920995 0.320612
vt 0.881502 0.317817
vt 0.882708 0.221828
vt 0.924169 0.226605
vt 0.847709 0.312612
vt 0.852160 0.213775
vt 0.801833 0.423921
vt 0.817644 0.316764
vt 0.823242 0.216861
vt 0.742915 0.507903
vt 0.761441 0.414455
vt 0.700399 0.491784
vt 0.698838 0.572352
vt 0.777980 0.315397
vt 0.788076 0.213938
vt 0.747117 0.208593
vt 0.740262 0.312501
vt 0.723656 0.206477
vt 0.720912 0.403491
vt 0.716134 0.311858
vt 0.698849 0.204563
vt 0.698239 0.397146
vt 0.674331 0.479484
vt 0.658102 0.553326
vt 0.691187 0.312308
vt 0.669456 0.397171
vt 0.655917 0.306893
vt 0.662582 0.215210
vt 0.624927 0.389739
vt 0.641509 0.476122
vt 0.616194 0.541717
vt 0.597203 0.465783
vt 0.559520 0.532034
vn 0.115048 0.706658 0.698139
vn 0.069921 0.997501 -0.010175
vn -0.186676 0.970000 -0.155728
vn 0.764686 0.601497 0.231207
vn -0.628021 0.668240 0.398804
vn 0.237013 0.959299 -0.153527
vn 0.870458 0.324308 -0.370306
vn 0.000990 0.904304 -0.426888
vn -0.350570 0.837384 -0.419391
vn -0.870444 0.422058 -0.253368
vn 0.338279 0.825855 -0.451143
vn 0.654431 0.111003 -0.747929
vn -0.234183 0.716324 -0.657297
vn -0.592845 0.137015 -0.793575
vn 0.248643 0.696584 -0.673013
vn 0.129114 0.045776 -0.990573
vn 0.055055 0.660986 -0.748375
vn -0.926606 -0.370670 0.063281
vn -0.473490 -0.880329 0.028765
vn -0.396016 -0.892287 0.216786
vn -0.749044 -0.378916 -0.543466
vn -0.703284 -0.398029 0.589037
vn -0.330824 -0.874687 -0.354229
vn 0.094889 -0.195960 -0.976010
vn 0.003508 -0.997805 -0.066124
vn -0.019666 -0.935225 0.353508
vn -0.049972 -0.413147 0.909292
vn 0.760897 -0.325152 -0.561526
vn 0.644849 0.078208 -0.760298
vn 0.361247 -0.895323 0.260572
vn 0.629455 -0.400942 0.665606
vn -0.852245 -0.523021 -0.011321
vn 0.052591 -0.361205 -0.931002
vn 0.457237 -0.885261 0.085138
vn 0.907984 -0.379872 0.176810
vn 0.032339 -0.791267 -0.610615
vn -0.505670 0.003533 -0.862720
vn 0.372046 -0.873220 -0.314752
vn 0.798953 -0.378183 -0.467602
vn 0.804871 -0.590741 0.056640
vn -0.030481 -0.168978 -0.985148
vn -0.632686 -0.405530 -0.659738
vn -0.940240 -0.337618 0.044311
vn -0.703284 -0.398029 0.589037
vn -0.718318 -0.252647 0.648220
vn -0.809586 -0.584906 0.049557
vn -0.624795 -0.462233 0.629263
vn -0.051598 -0.303742 0.951356
vn -0.053481 -0.126831 0.990481
vn -0.049972 -0.413147 0.909292
vn -0.636448 -0.616300 -0.463798
vn -0.789075 -0.339637 -0.511867
vn 0.172244 -0.222776 -0.959533
vn 0.338231 -0.378943 -0.861395
vn -0.926606 -0.370670 0.063281
vn -0.749044 -0.378916 -0.543466
vn 0.094889 -0.195960 -0.976010
vn 0.644849 0.078208 -0.760298
vn 0.275166 -0.278592 -0.920147
vn -0.864035 -0.404351 -0.299905
vn -0.570037 -0.570838 -0.590933
vn 0.043674 -0.594846 -0.802653
vn 0.050342 -0.411621 -0.909964
vn 0.052591 -0.361205 -0.931002
vn -0.505670 0.003533 -0.862720
vn -0.217158 -0.275749 -0.936379
vn 0.631505 -0.564378 -0.531675
vn -0.030481 -0.168978 -0.985148
vn 0.914322 -0.369756 -0.165215
vn -0.045173 -0.165188 -0.985227
vn -0.292848 -0.380025 -0.877394
vn 0.798953 -0.378183 -0.467602
vn 0.669116 -0.623436 -0.404489
vn 0.822832 -0.353321 -0.445097
vn 0.907984 -0.379872 0.176810
vn 0.926806 -0.338483 0.162667
vn 0.797998 -0.584328 0.147516
vn 0.629455 -0.400942 0.665606
vn 0.638391 -0.249976 0.727990
vn -0.049972 -0.413147 0.909292
vn 0.551181 -0.457524 0.697761
vn -0.053481 -0.126831 0.990481
vn -0.051598 -0.303742 0.951356
vn 0.382876 0.386648 -0.838993
vn 0.115236 0.989651 -0.085511
vn 0.105338 0.984182 -0.142445
vn 0.000689 0.999174 0.040638
vn 0.080076 0.995753 0.045435
vn -0.003148 0.994445 0.105215
vn -0.079400 0.996209 0.035539
vn -0.103522 0.990989 -0.084999
vn -0.311212 0.388457 -0.867322
vn -0.108432 0.975627 -0.190776
vn 0.036765 0.993712 -0.105762
vn 0.004673 0.995702 -0.092501
vn -0.103522 0.990989 -0.084999
vn -0.108432 0.975627 -0.190776
vn 0.088735 0.950222 -0.298672
vn -0.003148 0.994445 0.105215
vn 0.115236 0.989651 -0.085511
vn 0.105338 0.984182 -0.142445
vn 0.016467 0.952516 -0.304044
vn -0.025379 0.993945 -0.106911
vn -0.057057 0.949717 -0.307866
vn 0.934227 0.002112 0.356672
vn 0.150052 0.143195 0.978253
vn 0.125492 -0.010072 0.992043
vn 0.764686 0.601497 0.231207
vn 0.115048 0.706658 0.698139
vn 0.870458 0.324308 -0.370306
vn -0.795074 0.070579 0.602392
vn -0.628021 0.668240 0.398804
vn -0.783787 -0.036409 0.619962
vn -0.986517 -0.106961 -0.123869
vn -0.870444 0.422058 -0.253368
vn -0.981864 -0.144538 -0.122689
vn -0.992683 -0.015690 -0.119725
vn -0.771744 0.003755 0.635922
vn -0.733246 0.038049 0.678898
vn -0.986102 0.105036 -0.128727
vn 0.002593 -0.036314 0.999337
vn -0.008004 -0.042437 0.999067
vn 0.918201 -0.106951 0.381404
vn 0.811357 -0.094758 0.576819
vn 0.758961 -0.063815 0.648002
vn 0.941151 -0.192614 -0.277730
vn 0.956846 -0.135896 -0.256864
vn 0.706598 -0.280696 -0.649561
vn 0.654431 0.111003 -0.747929
vn 0.993708 -0.066281 -0.090279
vn 0.999810 -0.019176 -0.003421
vn 0.689462 0.025013 -0.723890
vn 0.750978 -0.046851 -0.658663
vn -0.020523 0.035222 -0.999169
vn 0.744005 -0.162311 -0.648161
vn 0.018570 -0.062065 -0.997899
vn -0.572014 0.074085 -0.816892
vn 0.056538 -0.229537 -0.971656
vn 0.089578 -0.338798 -0.936585
vn 0.129114 0.045776 -0.990573
vn -0.673714 -0.048261 -0.737415
vn -0.668491 -0.235118 -0.705577
vn -0.992683 -0.015690 -0.119725
vn -0.986102 0.105036 -0.128727
vn -0.981864 -0.144538 -0.122689
vn -0.652130 -0.294632 -0.698512
vn -0.592845 0.137015 -0.793575
vn -0.986517 -0.106961 -0.123869
vn -0.870444 0.422058 -0.253368
f 1/1/1 2/2/2 3/3/3
f 4/4/4 2/2/2 1/1/1
f 1/1/1 3/3/3 5/5/5
f 4/4/4 6/6/6 2/2/2
f 7/7/7 6/6/6 4/4/4
f 2/2/2 8/8/8 3/3/3
f 6/6/6 8/8/8 2/2/2
f 5/5/5 3/3/3 9/9/9
f 3/3/3 8/8/8 9/9/9
f 5/5/5 9/9/9 10/10/10
f 7/7/7 11/11/11 6/6/6
f 11/11/11 8/8/8 6/6/6
f 12/12/12 11/11/11 7/7/7
f 10/10/10 9/9/9 13/13/13
f 9/9/9 8/8/8 13/13/13
f 10/10/10 13/13/13 14/14/14
f 12/12/12 15/15/15 11/11/11
f 15/15/15 8/8/8 11/11/11
f 16/16/16 15/15/15 12/12/12
f 13/13/13 8/8/8 17/17/17
f 14/14/14 13/13/13 17/17/17
f 17/17/17 8/8/8 15/15/15
f 14/14/14 17/17/17 16/16/16
f 16/16/16 17/17/17 15/15/15
f 18/18/18 19/19/19 20/20/20
f 21/21/21 19/19/19 18/18/18
f 18/18/18 20/20/20 22/22/22
f 21/21/21 23/23/23 19/19/19
f 24/24/24 23/23/23 21/21/21
f 19/19/19 25/25/25 20/20/20
f 23/23/23 25/25/25 19/19/19
f 22/22/22 20/20/20 26/26/26
f 20/20/20 25/25/25 26/26/26
f 22/22/22 26/26/26 27/27/27
f 24/24/24 28/28/28 23/23/23
f 28/28/28 25/25/25 23/23/23
f 29/29/29 28/28/28 24/24/24
f 27/27/27 26/26/26 30/30/30
f 26/26/26 25/25/25 30/30/30
f 27/27/27 30/30/30 31/31/31
f 29/29/29 32/32/32 28/28/28
f 32/32/32 25/25/25 28/28/28
f 33/33/33 32/32/32 29/29/29
f 31/31/31 30/30/30 34/34/34
f 30/30/30 25/25/25 34/34/34
f 31/31/31 34/34/34 35/35/35
f 33/33/33 36/36/36 32/32/32
f 36/36/36 25/25/25 32/32/32
f 37/37/37 36/36/36 33/33/33
f 35/35/35 34/34/34 38/38/38
f 34/34/34 25/25/25 38/38/38
f 35/35/35 38/38/38 39/39/39
f 37/37/37 40/40/40 36/36/36
f 40/40/40 25/25/25 36/36/36
f 41/41/41 40/40/40 37/37/37
f 38/38/38 25/25/25 42/42/42
f 39/39/39 38/38/38 42/42/42
f 42/42/42 25/25/25 40/40/40
f 39/39/39 42/42/42 41/41/41
f 41/41/41 42/42/42 40/40/40
f 43/43/43 44/44/44 45/45/45
f 45/45/45 46/46/46 43/43/43
f 45/45/45 47/47/47 46/46/46
f 48/48/48 47/47/47 45/45/45
f 48/48/48 45/45/45 49/49/49
f 49/49/49 45/45/45 44/44/44
f 49/49/49 44/44/44 50/50/50
f 51/51/51 52/52/52 43/43/43
f 53/53/53 52/52/52 51/51/51
f 51/51/51 43/43/43 46/46/46
f 53/53/53 51/51/51 54/54/54
f 52/52/52 55/55/55 43/43/43
f 52/52/52 56/56/56 55/55/55
f 53/53/53 56/56/56 52/52/52
f 43/43/43 55/55/55 44/44/44
f 53/53/53 57/57/57 56/56/56
f 53/53/53 58/58/58 57/57/57
f 54/54/54 59/59/59 53/53/53
f 53/53/53 59/59/59 58/58/58
f 54/54/54 60/60/60 59/59/59
f 61/61/61 59/59/59 60/60/60
f 62/62/62 59/59/59 61/61/61
f 63/63/63 58/58/58 59/59/59
f 62/62/62 63/63/63 59/59/59
f 63/63/63 64/64/64 58/58/58
f 65/65/65 64/64/64 63/63/63
f 66/66/66 63/63/63 62/62/62
f 65/65/65 63/63/63 66/66/66
f 66/66/66 62/62/62 67/67/67
f 68/68/68 65/65/65 66/66/66
f 67/67/67 69/69/69 66/66/66
f 68/68/68 66/66/66 70/70/70
f 70/70/70 66/66/66 69/69/69
f 70/70/70 69/69/69 71/71/71
f 70/70/70 72/72/72 68/68/68
f 73/73/73 70/70/70 71/71/71
f 70/70/70 74/74/74 72/72/72
f 73/73/73 74/74/74 70/70/70
f 74/74/74 75/75/75 72/72/72
f 73/73/73 76/76/76 74/74/74
f 74/74/74 76/76/76 75/75/75
f 73/73/73 77/77/77 76/76/76
f 76/76/76 78/78/78 75/75/75
f 79/79/79 76/76/76 77/77/77
f 76/76/76 79/79/79 78/78/78
f 79/79/79 80/80/80 78/78/78
f 79/79/79 77/77/77 81/81/81
f 79/79/79 82/82/82 80/80/80
f 81/81/81 82/82/82 79/79/79
f 81/81/81 83/83/83 82/82/82
f 84/84/84 85/85/85 86/86/86
f 87/87/87 85/85/85 88/88/88
f 87/87/87 89/89/89 85/85/85
f 90/90/90 89/89/89 87/87/87
f 90/90/90 91/91/91 89/89/89
f 92/92/92 93/93/93 91/91/91
f 94/94/94 95/95/95 96/96/96
f 94/94/94 96/96/96 97/97/97
f 95/95/95 94/94/94 98/98/98
f 96/96/96 95/95/95 99/99/99
f 95/95/95 100/100/100 99/99/99
f 95/95/95 101/101/101 100/100/100
f 95/95/95 98/98/98 102/102/102
f 95/95/95 103/103/103 101/101/101
f 103/103/103 95/95/95 102/102/102
f 103/103/103 102/102/102 104/104/104
f 105/105/105 106/106/106 107/107/107
f 108/108/108 106/106/106 105/105/105
f 108/108/108 109/109/109 106/106/106
f 110/110/110 108/108/108 105/105/105
f 111/111/111 106/106/106 109/109/109
f 111/111/111 109/109/109 112/112/112
f 113/113/113 106/106/106 111/111/111
f 113/113/113 107/107/107 106/106/106
f 114/114/114 111/111/111 112/112/112
f 114/114/114 113/113/113 111/111/111
f 114/114/114 112/112/112 115/115/115
f 114/114/114 116/116/116 113/113/113
f 117/117/117 113/113/113 116/116/116
f 118/118/118 107/107/107 113/113/113
f 117/117/117 118/118/118 113/113/113
f 117/117/117 119/119/119 118/118/118
f 117/117/117 120/120/120 119/119/119
f 121/121/121 118/118/118 119/119/119
f 118/118/118 121/121/121 107/107/107
f 121/121/121 119/119/119 122/122/122
f 123/123/123 107/107/107 121/121/121
f 105/105/105 107/107/107 123/123/123
f 122/122/122 124/124/124 121/121/121
f 123/123/123 121/121/121 124/124/124
f 122/122/122 125/125/125 124/124/124
f 126/126/126 105/105/105 123/123/123
f 110/110/110 105/105/105 126/126/126
f 127/127/127 123/123/123 124/124/124
f 126/126/126 123/123/123 127/127/127
f 128/128/128 110/110/110 126/126/126
f 127/127/127 128/128/128 126/126/126
f 128/128/128 129/129/129 110/110/110
f 125/125/125 130/130/130 124/124/124
f 127/127/127 124/124/124 130/130/130
f 125/125/125 131/131/131 130/130/130
f 130/130/130 131/131/131 132/132/132
f 130/130/130 132/132/132 133/133/133
f 133/133/133 127/127/127 130/130/130
f 133/133/133 132/132/132 134/134/134
f 127/127/127 135/135/135 128/128/128
f 133/133/133 135/135/135 127/127/127
f 133/133/133 134/134/134 136/136/136
f 136/136/136 135/135/135 133/133/133
f 136/136/136 134/134/134 137/137/137
f 128/128/128 135/135/135 138/138/138
f 136/136/136 138/138/138 135/135/135
f 139/139/139 129/129/129 128/128/128
f 128/128/128 138/138/138 139/139/139
f 139/139/139 140/140/140 129/129/129
f 141/141/141 138/138/138 136/136/136
f 136/136/136 137/137/137 141/141/141
f 139/139/139 138/138/138 142/142/142
f 141/141/141 142/142/142 138/138/138
f 137/137/137 143/143/143 141/141/141
f 143/143/143 142/142/142 141/141/141
f 137/137/137 144/144/144 143/143/143
f 143/143/143 145/145/145 142/142/142
f 146/146/146 140/140/140 139/139/139
f 139/139/139 142/142/142 146/146/146
f 145/145/145 146/146/146 142/142/142
f 146/146/146 147/147/147 140/140/140
f 145/145/145 148/148/148 146/146/146
f 148/148/148 147/147/147 146/146/146
f 148/148/148 149/149/149 147/147/147
