# Generated from Roblox mesh JSON (v2.00)
# Hello from RBX_Toolbox ;)
o RightUpperLeg
v -0.104094 -0.513862 0.199069
v -0.064605 -0.589777 0.177467
v -0.003627 -0.592272 0.198005
v -0.128285 -0.564039 0.077703
v 0.001359 -0.518177 0.234589
v -0.078590 -0.618792 0.107292
v -0.099296 -0.618063 -0.018568
v -0.010464 -0.648619 0.124571
v 0.049647 -0.597560 0.162463
v 0.093495 -0.527324 0.173121
v -0.061828 -0.650028 0.051625
v -0.013393 -0.626777 -0.033963
v 0.055553 -0.617232 0.105938
v 0.103706 -0.561342 0.075361
v -0.012159 -0.655068 0.042722
v 0.062797 -0.602663 0.004152
v 0.031898 -0.641126 0.064762
v 0.107336 0.632978 0.049618
v 0.038782 0.655068 0.032259
v -0.045070 0.647874 0.171703
v 0.105014 0.605984 -0.250050
v -0.017072 0.622421 0.272708
v 0.014491 0.636351 -0.155051
v -0.117976 0.476176 -0.400591
v -0.156075 0.582328 0.003320
v -0.143314 0.590256 0.235521
v -0.147451 0.532239 0.374807
v -0.124890 0.555213 -0.249148
v -0.240862 0.268214 -0.296407
v -0.199328 0.440428 0.178127
v -0.272146 0.260970 0.282986
v -0.201701 0.425224 -0.184027
v -0.254991 0.228364 -0.006511
v -0.243961 0.400316 -0.002825
v 0.000968 -0.024439 0.246456
v -0.015995 0.209724 0.310257
v -0.167745 0.184120 0.252102
v 0.146591 -0.024719 0.177954
v 0.157677 0.232696 0.228472
v -0.134846 -0.041048 0.187965
v -0.236324 0.134442 0.000098
v -0.197551 -0.060622 0.013827
v -0.166926 -0.272986 0.031711
v -0.113972 -0.246644 0.163611
v -0.120904 -0.428015 0.037091
v 0.002601 -0.238071 0.215569
v -0.085616 -0.383034 0.163029
v -0.104094 -0.513862 0.199069
v -0.128285 -0.564039 0.077703
v 0.012936 -0.378340 0.206697
v 0.001359 -0.518177 0.234589
v 0.125258 -0.258274 0.156060
v 0.107054 -0.405444 0.145356
v 0.093495 -0.527324 0.173121
v 0.168097 -0.302806 0.039187
v 0.128613 -0.460710 0.042958
v 0.103706 -0.561342 0.075361
v 0.062797 -0.602663 0.004152
v 0.200632 -0.041079 0.018976
v 0.227997 0.231928 0.014734
v 0.134631 -0.066390 -0.158847
v 0.158752 0.217007 -0.246211
v -0.026048 0.177889 -0.317018
v -0.020063 -0.082433 -0.219708
v 0.103162 -0.350763 -0.075914
v -0.175049 0.155408 -0.250982
v 0.071872 -0.505696 -0.025599
v -0.013393 -0.626777 -0.033963
v -0.026731 -0.360380 -0.125875
v -0.011399 -0.519678 -0.062055
v -0.099296 -0.618063 -0.018568
v -0.094876 -0.486061 -0.057440
v -0.138729 -0.321635 -0.087539
v -0.120904 -0.428015 0.037091
v -0.128285 -0.564039 0.077703
v -0.166926 -0.272986 0.031711
v -0.197551 -0.060622 0.013827
v -0.149430 -0.078877 -0.156635
v -0.236324 0.134442 0.000098
v -0.125771 -0.120902 0.176622
v -0.002910 -0.136349 0.017627
v 0.001023 -0.106103 0.231478
v -0.184187 -0.140784 0.016562
v -0.002910 -0.136349 0.017627
v -0.125771 -0.120902 0.176622
v -0.145098 -0.090912 0.201451
v -0.227404 0.024963 0.331217
v -0.328412 -0.042384 0.009118
v 0.001228 -0.073107 0.264467
v -0.212656 -0.112026 0.013834
v 0.003102 -0.113992 0.307532
v -0.176080 -0.131835 0.232187
v -0.257272 -0.151332 0.016547
v -0.252509 -0.184438 0.019125
v 0.190608 -0.113592 0.219908
v 0.158124 -0.073396 0.190665
v 0.260870 -0.130210 0.019652
v 0.216347 -0.091012 0.019383
v -0.175247 -0.163820 0.225919
v -0.125771 -0.120902 0.176622
v -0.184187 -0.140784 0.016562
v 0.001023 -0.106103 0.231478
v 0.002097 -0.147291 0.302751
v 0.136642 -0.109277 0.167425
v 0.188440 -0.149967 0.215220
v 0.186586 -0.128881 0.021807
v 0.255780 -0.171107 0.021231
v 0.123783 -0.154718 -0.138837
v 0.177395 -0.164202 -0.200013
v 0.145237 -0.117645 -0.172206
v 0.172200 -0.208562 -0.187385
v -0.020224 -0.168680 -0.195330
v -0.021175 -0.183565 -0.278855
v -0.021430 -0.134833 -0.237777
v -0.023807 -0.226825 -0.264211
v -0.141137 -0.161444 -0.138707
v -0.194150 -0.174304 -0.196991
v -0.160810 -0.131533 -0.169822
v -0.257272 -0.151332 0.016547
v -0.194278 -0.211629 -0.184197
v -0.184187 -0.140784 0.016562
v -0.252509 -0.184438 0.019125
v 0.123783 -0.154718 -0.138837
v -0.002910 -0.136349 0.017627
v -0.020224 -0.168680 -0.195330
v 0.136642 -0.109277 0.167425
v -0.002910 -0.136349 0.017627
v 0.186586 -0.128881 0.021807
v -0.141137 -0.161444 -0.138707
v -0.002910 -0.136349 0.017627
v -0.184187 -0.140784 0.016562
v 0.186586 -0.128881 0.021807
v -0.002910 -0.136349 0.017627
v 0.123783 -0.154718 -0.138837
v 0.001023 -0.106103 0.231478
v -0.002910 -0.136349 0.017627
v 0.136642 -0.109277 0.167425
v -0.020224 -0.168680 -0.195330
v -0.002910 -0.136349 0.017627
v -0.141137 -0.161444 -0.138707
v -0.147451 0.532239 0.374807
v -0.067313 0.425306 0.375053
v 0.069747 0.492405 0.275311
v -0.017072 0.622421 0.272708
v -0.272146 0.260970 0.282986
v 0.107336 0.632978 0.049618
v -0.024162 0.322469 0.340977
v -0.309709 0.165544 -0.001119
v -0.254991 0.228364 -0.006511
v -0.265282 0.232492 0.321060
v -0.342667 0.046649 0.004129
v -0.239899 0.123582 0.359410
v -0.019368 0.266610 0.410356
v 0.163017 0.356637 0.252797
v 0.184314 0.510489 0.032511
v 0.166996 0.480207 -0.282335
v 0.105014 0.605984 -0.250050
v -0.117976 0.476176 -0.400591
v 0.243804 0.376657 0.012694
v -0.054362 0.385833 -0.400873
v -0.240862 0.268214 -0.296407
v 0.170366 0.353459 -0.288274
v 0.187422 0.298119 0.302277
v -0.028930 0.303228 -0.363869
v 0.303347 0.298030 0.018642
v 0.212309 0.279068 -0.328599
v -0.031910 0.226386 -0.422078
v -0.228544 0.195360 -0.335268
v -0.254991 0.228364 -0.006511
v -0.309709 0.165544 -0.001119
v -0.253982 0.076222 -0.348639
v -0.342667 0.046649 0.004129
v -0.033430 0.100336 -0.448668
v -0.245053 -0.026917 -0.309150
v -0.328412 -0.042384 0.009118
v -0.212656 -0.112026 0.013834
v -0.031586 -0.008981 -0.408761
v 0.228152 0.033608 -0.307856
v 0.237830 0.151121 -0.344103
v 0.332486 0.057994 0.023498
v 0.342667 0.178115 0.022792
v 0.241365 0.185488 0.328605
v 0.237857 0.076391 0.306522
v -0.013661 0.159518 0.448668
v -0.006458 0.060477 0.421506
vt 0.504870 0.795425
vt 0.513743 0.753993
vt 0.490338 0.733724
vt 0.573366 0.767538
vt 0.456617 0.753951
vt 0.548405 0.738311
vt 0.608126 0.713396
vt 0.526327 0.711624
vt 0.487130 0.702884
vt 0.448763 0.691150
vt 0.567123 0.711881
vt 0.588040 0.665817
vt 0.508230 0.682160
vt 0.489581 0.648258
vt 0.556857 0.689759
vt 0.542186 0.642215
vt 0.534300 0.679066
vt 0.715691 0.751295
vt 0.718785 0.729602
vt 0.700588 0.717310
vt 0.759563 0.744425
vt 0.684276 0.729169
vt 0.744455 0.726285
vt 0.781563 0.705931
vt 0.724127 0.701893
vt 0.693738 0.701572
vt 0.673019 0.698972
vt 0.757555 0.705046
vt 0.772568 0.667384
vt 0.702134 0.680477
vt 0.686944 0.660924
vt 0.752038 0.683803
vt 0.730887 0.652487
vt 0.727781 0.675495
vt 0.337640 0.809475
vt 0.353514 0.873488
vt 0.395449 0.859694
vt 0.294256 0.812465
vt 0.304114 0.880582
vt 0.375248 0.797278
vt 0.448436 0.811257
vt 0.417496 0.772248
vt 0.392799 0.726638
vt 0.358460 0.743001
vt 0.381865 0.691771
vt 0.325228 0.750604
vt 0.347203 0.706858
vt 0.343012 0.670904
vt 0.376342 0.659456
vt 0.316196 0.711622
vt 0.313603 0.672118
vt 0.287546 0.749541
vt 0.282759 0.708976
vt 0.283209 0.674217
vt 0.252408 0.740268
vt 0.250941 0.697630
vt 0.255158 0.668850
vt 0.232618 0.657722
vt 0.249049 0.809264
vt 0.247387 0.881226
vt 0.198146 0.803221
vt 0.178670 0.877998
vt 0.129579 0.861174
vt 0.155009 0.791240
vt 0.217185 0.727203
vt 0.090719 0.839221
vt 0.226372 0.684213
vt 0.211449 0.647835
vt 0.182083 0.717348
vt 0.202167 0.675864
vt 0.189670 0.641802
vt 0.177212 0.675961
vt 0.150067 0.713263
vt 0.146787 0.671047
vt 0.160219 0.636770
vt 0.117474 0.701927
vt 0.083180 0.746967
vt 0.120784 0.775139
vt 0.047756 0.783292
vt 0.973223 0.942841
vt 0.949027 0.923141
vt 0.956081 0.955833
vt 0.976296 0.916462
vt 0.949027 0.923141
vt 0.973223 0.942841
vt 0.868929 0.795218
vt 0.880968 0.826030
vt 0.922899 0.787542
vt 0.836923 0.807795
vt 0.899242 0.772773
vt 0.833312 0.798876
vt 0.863499 0.786952
vt 0.894396 0.762623
vt 0.889606 0.757303
vt 0.798905 0.803877
vt 0.800599 0.813386
vt 0.762989 0.803940
vt 0.763108 0.813528
vt 0.861243 0.782013
vt 0.853139 0.770522
vt 0.876645 0.750140
vt 0.827148 0.780069
vt 0.831302 0.793461
vt 0.796574 0.783934
vt 0.797257 0.797674
vt 0.764188 0.783207
vt 0.762665 0.796803
vt 0.728089 0.779489
vt 0.723187 0.801191
vt 0.721469 0.810900
vt 0.724741 0.793582
vt 0.695618 0.772793
vt 0.688410 0.793717
vt 0.684459 0.802501
vt 0.690794 0.786832
vt 0.669080 0.763549
vt 0.659028 0.782394
vt 0.653032 0.790381
vt 0.628839 0.759466
vt 0.662004 0.776409
vt 0.645760 0.744789
vt 0.633917 0.753969
vt 0.924345 0.903895
vt 0.949027 0.923141
vt 0.944013 0.890063
vt 0.933362 0.951013
vt 0.949027 0.923141
vt 0.920632 0.930639
vt 0.964256 0.894384
vt 0.949027 0.923141
vt 0.976296 0.916462
vt 0.920632 0.930639
vt 0.949027 0.923141
vt 0.924345 0.903895
vt 0.956081 0.955833
vt 0.949027 0.923141
vt 0.933362 0.951013
vt 0.944013 0.890063
vt 0.949027 0.923141
vt 0.964256 0.894384
vt 0.864106 0.923643
vt 0.860726 0.905352
vt 0.821846 0.916650
vt 0.826276 0.940451
vt 0.887981 0.877790
vt 0.774405 0.942887
vt 0.854833 0.887107
vt 0.940609 0.833363
vt 0.941429 0.850454
vt 0.887638 0.862489
vt 0.935431 0.806323
vt 0.885160 0.843137
vt 0.854513 0.873556
vt 0.814819 0.894128
vt 0.769770 0.918793
vt 0.710092 0.917555
vt 0.714947 0.938907
vt 0.662553 0.917120
vt 0.766215 0.898217
vt 0.663648 0.901978
vt 0.633886 0.875876
vt 0.707843 0.897509
vt 0.814670 0.881870
vt 0.666802 0.887365
vt 0.766582 0.886124
vt 0.707584 0.885265
vt 0.666596 0.872526
vt 0.633833 0.859518
vt 0.581536 0.848973
vt 0.581685 0.831759
vt 0.636615 0.838986
vt 0.587323 0.804619
vt 0.668571 0.852762
vt 0.640922 0.821020
vt 0.600064 0.785365
vt 0.623269 0.769569
vt 0.672548 0.835331
vt 0.712387 0.846749
vt 0.708788 0.866084
vt 0.765152 0.845104
vt 0.766078 0.865407
vt 0.813011 0.863942
vt 0.809427 0.846621
vt 0.852562 0.856198
vt 0.848455 0.840511
vn -0.735605 -0.083413 0.672255
vn -0.504927 -0.602781 0.617822
vn 0.070626 -0.605020 0.793072
vn -0.961498 -0.260649 0.087085
vn 0.097464 -0.111047 0.989024
vn -0.650631 -0.693386 0.309668
vn -0.644901 -0.564589 -0.515114
vn 0.020737 -0.927630 0.372924
vn 0.571903 -0.629144 0.526407
vn 0.786485 -0.220996 0.576717
vn -0.429115 -0.903245 0.003051
vn 0.140979 -0.661251 -0.736798
vn 0.668455 -0.719698 0.187623
vn 0.913858 -0.405136 -0.026981
vn 0.125383 -0.977006 -0.172450
vn 0.673676 -0.556551 -0.486222
vn 0.513449 -0.857113 -0.041557
vn 0.618732 0.771110 0.150202
vn 0.020634 0.999653 -0.016387
vn -0.163621 0.979685 0.115950
vn 0.445825 0.761663 -0.470223
vn 0.265214 0.777568 0.570131
vn -0.102063 0.972309 -0.210235
vn -0.374279 0.421797 -0.825835
vn -0.703998 0.707442 -0.062548
vn -0.687823 0.706768 0.165464
vn -0.404556 0.462929 0.788690
vn -0.600969 0.733125 -0.318378
vn -0.842641 0.302312 -0.445604
vn -0.939617 0.337060 0.059243
vn -0.842900 0.443114 0.305237
vn -0.922740 0.347414 -0.166894
vn -0.951104 0.303673 -0.056425
vn -0.950773 0.308660 -0.027555
vn 0.047788 -0.209279 0.976688
vn 0.073571 -0.260656 0.962624
vn -0.626384 -0.274416 0.729616
vn 0.745339 -0.140127 0.651793
vn 0.733152 -0.162210 0.660436
vn -0.709268 -0.204062 0.674758
vn -0.977361 -0.208846 0.033882
vn -0.983731 -0.171295 0.054146
vn -0.976792 -0.188196 0.102274
vn -0.718356 -0.152993 0.678644
vn -0.992702 -0.114475 0.037921
vn 0.019154 -0.119979 0.992592
vn -0.737676 0.010401 0.675075
vn -0.735605 -0.083413 0.672255
vn -0.961498 -0.260649 0.087085
vn 0.101464 0.050685 0.993547
vn 0.097464 -0.111047 0.989024
vn 0.740001 -0.123460 0.661178
vn 0.800923 -0.074016 0.594175
vn 0.786485 -0.220996 0.576717
vn 0.981099 -0.192958 -0.014536
vn 0.966283 -0.228143 -0.119362
vn 0.913858 -0.405136 -0.026981
vn 0.673676 -0.556551 -0.486222
vn 0.990922 -0.134426 0.001691
vn 0.992447 -0.120592 0.022506
vn 0.718719 -0.249594 -0.648957
vn 0.729386 -0.245100 -0.638687
vn 0.048276 -0.356178 -0.933170
vn -0.001807 -0.337855 -0.941196
vn 0.677129 -0.289429 -0.676555
vn -0.659919 -0.325435 -0.677200
vn 0.667621 -0.304498 -0.679385
vn 0.140979 -0.661251 -0.736798
vn -0.002003 -0.330414 -0.943834
vn 0.115426 -0.308517 -0.944190
vn -0.644901 -0.564589 -0.515114
vn -0.686940 -0.256255 -0.680034
vn -0.776960 -0.283230 -0.562240
vn -0.992702 -0.114475 0.037921
vn -0.961498 -0.260649 0.087085
vn -0.976792 -0.188196 0.102274
vn -0.983731 -0.171295 0.054146
vn -0.750196 -0.267912 -0.604507
vn -0.977361 -0.208846 0.033882
vn 0.055351 -0.988768 0.138830
vn 0.055351 -0.988768 0.138830
vn 0.055351 -0.988768 0.138830
vn 0.023627 -0.993115 0.114738
vn 0.023627 -0.993115 0.114738
vn 0.023627 -0.993115 0.114738
vn -0.711552 -0.068582 0.699279
vn -0.592238 -0.514906 0.619779
vn -0.847529 -0.527502 0.058623
vn 0.059713 -0.055529 0.996670
vn -0.996418 -0.076005 0.037076
vn 0.011819 0.305941 0.951977
vn -0.688818 0.303048 0.658552
vn -0.947999 0.318260 0.002853
vn -0.546419 -0.829632 0.114620
vn 0.703376 0.324035 0.632664
vn 0.770383 0.034982 0.636621
vn 0.950461 0.307699 -0.044100
vn 0.996574 0.075469 -0.033846
vn -0.397187 -0.816277 0.419445
vn 0.429655 -0.851027 -0.301909
vn 0.553706 -0.830108 0.065814
vn 0.021855 -0.872079 -0.488877
vn 0.030201 -0.807129 0.589602
vn -0.399855 -0.868569 -0.292753
vn 0.426472 -0.803292 0.415745
vn -0.536553 -0.835160 0.120909
vn 0.557612 -0.824898 0.092799
vn -0.359929 -0.790380 0.495732
vn 0.672336 0.212430 -0.709111
vn 0.735794 -0.005952 -0.677179
vn 0.425564 -0.869803 -0.249675
vn 0.020428 -0.769202 0.638679
vn -0.023477 0.154741 -0.987676
vn 0.011685 -0.108737 -0.994002
vn -0.023904 -0.904893 -0.424967
vn 0.394960 -0.806638 0.439707
vn -0.707612 0.232916 -0.667110
vn -0.747404 -0.105775 -0.655895
vn -0.947999 0.318260 0.002853
vn -0.477306 -0.848073 -0.230111
vn 0.553706 -0.830108 0.065814
vn -0.546419 -0.829632 0.114620
vn 0.038183 -0.988406 0.146957
vn 0.038183 -0.988406 0.146957
vn 0.038183 -0.988406 0.146957
vn 0.035755 -0.988730 0.145377
vn 0.035755 -0.988730 0.145377
vn 0.035755 -0.988730 0.145377
vn 0.023415 -0.990123 0.138233
vn 0.023415 -0.990123 0.138233
vn 0.023415 -0.990123 0.138233
vn 0.035765 -0.988779 0.145042
vn 0.035765 -0.988779 0.145042
vn 0.035765 -0.988779 0.145042
vn 0.042563 -0.989356 0.139149
vn 0.042563 -0.989356 0.139149
vn 0.042563 -0.989356 0.139149
vn 0.010715 -0.988743 0.149241
vn 0.010715 -0.988743 0.149241
vn 0.010715 -0.988743 0.149241
vn -0.404556 0.462929 0.788690
vn 0.163668 -0.017785 0.986355
vn 0.660577 0.329752 0.674464
vn 0.265214 0.777568 0.570131
vn -0.842900 0.443114 0.305237
vn 0.618732 0.771110 0.150202
vn 0.102424 0.384953 0.917235
vn -0.964424 0.262001 -0.035244
vn -0.951104 0.303673 -0.056425
vn -0.713328 0.448806 0.538272
vn -0.999568 -0.026337 0.013019
vn -0.696367 -0.023759 0.717292
vn -0.020754 0.535526 0.844263
vn 0.658349 0.522464 0.541856
vn 0.890928 0.430410 0.144893
vn 0.764473 0.301945 -0.569569
vn 0.445825 0.761663 -0.470223
vn -0.374279 0.421797 -0.825835
vn 0.875279 0.480453 0.055252
vn 0.095049 -0.078584 -0.992366
vn -0.842641 0.302312 -0.445604
vn 0.681724 0.389580 -0.619258
vn 0.570935 0.552284 0.607466
vn 0.033648 0.183148 -0.982509
vn 0.884866 0.464867 0.030185
vn 0.630489 0.433595 -0.643800
vn -0.070949 0.362322 -0.929349
vn -0.706227 0.345718 -0.617837
vn -0.951104 0.303673 -0.056425
vn -0.964424 0.262001 -0.035244
vn -0.753507 -0.031676 -0.656676
vn -0.999568 -0.026337 0.013019
vn -0.023412 -0.077235 -0.996738
vn -0.641959 -0.552665 -0.531460
vn -0.847529 -0.527502 0.058623
vn -0.996418 -0.076005 0.037076
vn 0.025172 -0.576463 -0.816735
vn 0.692294 -0.453760 -0.561098
vn 0.727668 0.010802 -0.685845
vn 0.931142 -0.362890 0.035858
vn 0.993026 0.115234 0.024924
vn 0.735899 0.125890 0.665285
vn 0.691194 -0.400372 0.601626
vn 0.027732 0.038608 0.998870
vn 0.075047 -0.495003 0.865644
f 1/1/1 2/2/2 3/3/3
f 4/4/4 2/2/2 1/1/1
f 1/1/1 3/3/3 5/5/5
f 4/4/4 6/6/6 2/2/2
f 7/7/7 6/6/6 4/4/4
f 2/2/2 8/8/8 3/3/3
f 6/6/6 8/8/8 2/2/2
f 5/5/5 3/3/3 9/9/9
f 3/3/3 8/8/8 9/9/9
f 5/5/5 9/9/9 10/10/10
f 7/7/7 11/11/11 6/6/6
f 11/11/11 8/8/8 6/6/6
f 12/12/12 11/11/11 7/7/7
f 10/10/10 9/9/9 13/13/13
f 9/9/9 8/8/8 13/13/13
f 10/10/10 13/13/13 14/14/14
f 12/12/12 15/15/15 11/11/11
f 15/15/15 8/8/8 11/11/11
f 16/16/16 15/15/15 12/12/12
f 13/13/13 8/8/8 17/17/17
f 14/14/14 13/13/13 17/17/17
f 17/17/17 8/8/8 15/15/15
f 14/14/14 17/17/17 16/16/16
f 16/16/16 17/17/17 15/15/15
f 18/18/18 19/19/19 20/20/20
f 21/21/21 19/19/19 18/18/18
f 18/18/18 20/20/20 22/22/22
f 21/21/21 23/23/23 19/19/19
f 24/24/24 23/23/23 21/21/21
f 19/19/19 25/25/25 20/20/20
f 23/23/23 25/25/25 19/19/19
f 22/22/22 20/20/20 26/26/26
f 20/20/20 25/25/25 26/26/26
f 22/22/22 26/26/26 27/27/27
f 24/24/24 28/28/28 23/23/23
f 28/28/28 25/25/25 23/23/23
f 29/29/29 28/28/28 24/24/24
f 27/27/27 26/26/26 30/30/30
f 26/26/26 25/25/25 30/30/30
f 27/27/27 30/30/30 31/31/31
f 29/29/29 32/32/32 28/28/28
f 32/32/32 25/25/25 28/28/28
f 33/33/33 32/32/32 29/29/29
f 30/30/30 25/25/25 34/34/34
f 31/31/31 30/30/30 34/34/34
f 34/34/34 25/25/25 32/32/32
f 31/31/31 34/34/34 33/33/33
f 33/33/33 34/34/34 32/32/32
f 35/35/35 36/36/36 37/37/37
f 38/38/38 36/36/36 35/35/35
f 38/38/38 39/39/39 36/36/36
f 35/35/35 37/37/37 40/40/40
f 40/40/40 37/37/37 41/41/41
f 40/40/40 41/41/41 42/42/42
f 40/40/40 42/42/42 43/43/43
f 40/40/40 43/43/43 44/44/44
f 35/35/35 40/40/40 44/44/44
f 44/44/44 43/43/43 45/45/45
f 35/35/35 44/44/44 46/46/46
f 44/44/44 45/45/45 47/47/47
f 46/46/46 44/44/44 47/47/47
f 48/48/48 47/47/47 45/45/45
f 48/48/48 45/45/45 49/49/49
f 48/48/48 50/50/50 47/47/47
f 46/46/46 47/47/47 50/50/50
f 48/48/48 51/51/51 50/50/50
f 35/35/35 46/46/46 52/52/52
f 52/52/52 46/46/46 50/50/50
f 35/35/35 52/52/52 38/38/38
f 51/51/51 53/53/53 50/50/50
f 52/52/52 50/50/50 53/53/53
f 51/51/51 54/54/54 53/53/53
f 38/38/38 52/52/52 55/55/55
f 55/55/55 52/52/52 53/53/53
f 54/54/54 56/56/56 53/53/53
f 55/55/55 53/53/53 56/56/56
f 54/54/54 57/57/57 56/56/56
f 58/58/58 56/56/56 57/57/57
f 38/38/38 55/55/55 59/59/59
f 59/59/59 39/39/39 38/38/38
f 59/59/59 60/60/60 39/39/39
f 61/61/61 60/60/60 59/59/59
f 61/61/61 59/59/59 55/55/55
f 61/61/61 62/62/62 60/60/60
f 61/61/61 63/63/63 62/62/62
f 61/61/61 64/64/64 63/63/63
f 61/61/61 55/55/55 65/65/65
f 65/65/65 55/55/55 56/56/56
f 64/64/64 61/61/61 65/65/65
f 64/64/64 66/66/66 63/63/63
f 58/58/58 67/67/67 56/56/56
f 65/65/65 56/56/56 67/67/67
f 68/68/68 67/67/67 58/58/58
f 64/64/64 65/65/65 69/69/69
f 69/69/69 65/65/65 67/67/67
f 68/68/68 70/70/70 67/67/67
f 69/69/69 67/67/67 70/70/70
f 71/71/71 70/70/70 68/68/68
f 72/72/72 69/69/69 70/70/70
f 71/71/71 72/72/72 70/70/70
f 73/73/73 64/64/64 69/69/69
f 72/72/72 73/73/73 69/69/69
f 71/71/71 74/74/74 72/72/72
f 74/74/74 73/73/73 72/72/72
f 71/71/71 75/75/75 74/74/74
f 74/74/74 76/76/76 73/73/73
f 77/77/77 73/73/73 76/76/76
f 73/73/73 78/78/78 64/64/64
f 77/77/77 78/78/78 73/73/73
f 64/64/64 78/78/78 66/66/66
f 77/77/77 66/66/66 78/78/78
f 77/77/77 79/79/79 66/66/66
f 80/80/80 81/81/81 82/82/82
f 83/83/83 84/84/84 85/85/85
f 86/86/86 87/87/87 88/88/88
f 89/89/89 87/87/87 86/86/86
f 86/86/86 88/88/88 90/90/90
f 86/86/86 91/91/91 89/89/89
f 90/90/90 92/92/92 86/86/86
f 86/86/86 92/92/92 91/91/91
f 90/90/90 93/93/93 92/92/92
f 92/92/92 93/93/93 94/94/94
f 89/89/89 95/95/95 96/96/96
f 89/89/89 91/91/91 95/95/95
f 96/96/96 95/95/95 97/97/97
f 96/96/96 97/97/97 98/98/98
f 92/92/92 94/94/94 99/99/99
f 91/91/91 92/92/92 99/99/99
f 100/100/100 99/99/99 94/94/94
f 100/100/100 94/94/94 101/101/101
f 102/102/102 99/99/99 100/100/100
f 102/102/102 103/103/103 99/99/99
f 91/91/91 99/99/99 103/103/103
f 104/104/104 103/103/103 102/102/102
f 91/91/91 103/103/103 105/105/105
f 104/104/104 105/105/105 103/103/103
f 91/91/91 105/105/105 95/95/95
f 106/106/106 105/105/105 104/104/104
f 95/95/95 105/105/105 107/107/107
f 106/106/106 107/107/107 105/105/105
f 95/95/95 107/107/107 97/97/97
f 108/108/108 107/107/107 106/106/106
f 109/109/109 97/97/97 107/107/107
f 98/98/98 97/97/97 109/109/109
f 98/98/98 109/109/109 110/110/110
f 108/108/108 111/111/111 107/107/107
f 109/109/109 107/107/107 111/111/111
f 112/112/112 111/111/111 108/108/108
f 110/110/110 109/109/109 113/113/113
f 113/113/113 109/109/109 111/111/111
f 110/110/110 113/113/113 114/114/114
f 112/112/112 115/115/115 111/111/111
f 113/113/113 111/111/111 115/115/115
f 116/116/116 115/115/115 112/112/112
f 114/114/114 113/113/113 117/117/117
f 115/115/115 117/117/117 113/113/113
f 114/114/114 117/117/117 118/118/118
f 118/118/118 117/117/117 119/119/119
f 115/115/115 120/120/120 117/117/117
f 116/116/116 120/120/120 115/115/115
f 119/119/119 117/117/117 120/120/120
f 121/121/121 120/120/120 116/116/116
f 119/119/119 120/120/120 122/122/122
f 121/121/121 122/122/122 120/120/120
f 123/123/123 124/124/124 125/125/125
f 126/126/126 127/127/127 128/128/128
f 129/129/129 130/130/130 131/131/131
f 132/132/132 133/133/133 134/134/134
f 135/135/135 136/136/136 137/137/137
f 138/138/138 139/139/139 140/140/140
f 141/141/141 142/142/142 143/143/143
f 141/141/141 143/143/143 144/144/144
f 145/145/145 142/142/142 141/141/141
f 143/143/143 146/146/146 144/144/144
f 147/147/147 142/142/142 145/145/145
f 143/143/143 142/142/142 147/147/147
f 148/148/148 145/145/145 149/149/149
f 148/148/148 150/150/150 145/145/145
f 150/150/150 147/147/147 145/145/145
f 151/151/151 150/150/150 148/148/148
f 151/151/151 152/152/152 150/150/150
f 88/88/88 152/152/152 151/151/151
f 150/150/150 153/153/153 147/147/147
f 152/152/152 153/153/153 150/150/150
f 143/143/143 147/147/147 154/154/154
f 153/153/153 154/154/154 147/147/147
f 154/154/154 155/155/155 143/143/143
f 143/143/143 155/155/155 146/146/146
f 146/146/146 155/155/155 156/156/156
f 146/146/146 156/156/156 157/157/157
f 158/158/158 157/157/157 156/156/156
f 156/156/156 155/155/155 159/159/159
f 154/154/154 159/159/159 155/155/155
f 158/158/158 156/156/156 160/160/160
f 158/158/158 160/160/160 161/161/161
f 156/156/156 159/159/159 162/162/162
f 160/160/160 156/156/156 162/162/162
f 163/163/163 159/159/159 154/154/154
f 153/153/153 163/163/163 154/154/154
f 161/161/161 160/160/160 164/164/164
f 160/160/160 162/162/162 164/164/164
f 165/165/165 162/162/162 159/159/159
f 163/163/163 165/165/165 159/159/159
f 166/166/166 164/164/164 162/162/162
f 165/165/165 166/166/166 162/162/162
f 167/167/167 161/161/161 164/164/164
f 166/166/166 167/167/167 164/164/164
f 167/167/167 168/168/168 161/161/161
f 168/168/168 169/169/169 161/161/161
f 168/168/168 170/170/170 169/169/169
f 171/171/171 170/170/170 168/168/168
f 171/171/171 172/172/172 170/170/170
f 173/173/173 168/168/168 167/167/167
f 173/173/173 171/171/171 168/168/168
f 174/174/174 172/172/172 171/171/171
f 174/174/174 175/175/175 172/172/172
f 176/176/176 175/175/175 174/174/174
f 177/177/177 174/174/174 171/171/171
f 177/177/177 171/171/171 173/173/173
f 176/176/176 174/174/174 118/118/118
f 118/118/118 119/119/119 176/176/176
f 114/114/114 174/174/174 177/177/177
f 114/114/114 118/118/118 174/174/174
f 178/178/178 177/177/177 173/173/173
f 110/110/110 114/114/114 177/177/177
f 110/110/110 177/177/177 178/178/178
f 179/179/179 173/173/173 167/167/167
f 178/178/178 173/173/173 179/179/179
f 179/179/179 167/167/167 166/166/166
f 180/180/180 178/178/178 179/179/179
f 110/110/110 178/178/178 180/180/180
f 181/181/181 179/179/179 166/166/166
f 180/180/180 179/179/179 181/181/181
f 181/181/181 166/166/166 165/165/165
f 182/182/182 181/181/181 165/165/165
f 182/182/182 165/165/165 163/163/163
f 183/183/183 180/180/180 181/181/181
f 183/183/183 181/181/181 182/182/182
f 98/98/98 180/180/180 183/183/183
f 110/110/110 180/180/180 98/98/98
f 184/184/184 182/182/182 163/163/163
f 184/184/184 163/163/163 153/153/153
f 152/152/152 184/184/184 153/153/153
f 185/185/185 182/182/182 184/184/184
f 185/185/185 183/183/183 182/182/182
f 87/87/87 184/184/184 152/152/152
f 87/87/87 185/185/185 184/184/184
f 88/88/88 87/87/87 152/152/152
f 96/96/96 183/183/183 185/185/185
f 98/98/98 183/183/183 96/96/96
f 89/89/89 185/185/185 87/87/87
f 96/96/96 185/185/185 89/89/89
