# Generated from Roblox mesh JSON (v2.00)
# Hello from RBX_Toolbox ;)
o RightUpperLeg
v -0.073533 0.490194 -0.235764
v -0.119170 0.709494 -0.187847
v 0.031541 0.850885 -0.103601
v -0.044289 0.963569 -0.053099
v -0.153111 0.876457 -0.109926
v -0.214737 0.998579 0.050603
v 0.001621 0.997358 0.060751
v -0.250093 0.809990 -0.085756
v -0.277417 0.792845 0.036977
v -0.293171 0.571476 0.029938
v -0.254781 0.599990 -0.152014
v -0.290297 0.402071 0.018423
v -0.244706 0.412015 -0.183136
v -0.282921 0.206169 0.007238
v -0.225719 0.196593 -0.199982
v -0.271168 -0.036441 -0.006774
v -0.201335 -0.048170 -0.213326
v -0.235540 -0.237620 -0.010456
v -0.038346 0.258513 -0.270163
v -0.167794 -0.269648 -0.194644
v -0.215124 -0.366944 -0.004530
v -0.142221 -0.436710 -0.156071
v -0.011097 0.000316 -0.276112
v -0.004608 -0.226213 -0.257080
v 0.002384 -0.453931 -0.210808
v 0.096588 0.592933 -0.149239
v 0.159610 0.334413 -0.193010
v 0.170615 0.063908 -0.203700
v 0.164429 -0.174385 -0.202884
v 0.119439 -0.415151 -0.167288
v 0.226567 -0.157029 -0.003059
v 0.177434 -0.364394 -0.005078
v 0.240689 0.090331 0.014611
v 0.235584 0.370646 0.024167
v 0.172545 0.643162 0.051325
v 0.157551 -0.164034 0.191266
v 0.140710 -0.347305 0.159131
v 0.168710 0.084702 0.212773
v 0.171797 0.364423 0.226626
v 0.120740 0.618598 0.238832
v -0.025651 -0.184884 0.245879
v -0.017520 -0.375409 0.207667
v -0.033529 0.051203 0.280917
v -0.029877 0.312692 0.298298
v -0.055355 0.532153 0.302738
v -0.193239 -0.219418 0.179632
v -0.166589 -0.385242 0.152158
v -0.235540 -0.237620 -0.010456
v -0.215124 -0.366944 -0.004530
v -0.271168 -0.036441 -0.006774
v -0.215867 0.004202 0.207722
v -0.282921 0.206169 0.007238
v -0.220563 0.248578 0.227416
v -0.290297 0.402071 0.018423
v -0.228642 0.440448 0.232048
v -0.293171 0.571476 0.029938
v -0.241758 0.602632 0.227166
v -0.277417 0.792845 0.036977
v -0.241196 0.811078 0.170015
v -0.214737 0.998579 0.050603
v -0.097531 0.724873 0.290981
v -0.137747 0.885655 0.213060
v -0.033020 0.966655 0.172805
v 0.047837 0.856754 0.231303
v 0.095466 0.906157 0.065183
v -0.154549 -0.803516 -0.124106
v -0.150125 -0.678267 -0.123737
v -0.014810 -0.660001 -0.178703
v 0.003300 -0.449938 -0.176772
v -0.136272 -0.464369 -0.122875
v 0.112954 -0.414122 -0.138038
v -0.209031 -0.649650 0.016036
v -0.199876 -0.447518 0.017814
v -0.174554 -0.608204 0.155568
v -0.161461 -0.413417 0.134837
v -0.183662 -0.718003 0.157992
v -0.212601 -0.767976 0.019164
v -0.164408 -0.814358 0.181604
v -0.191214 -0.864029 0.037384
v -0.136308 -0.913892 0.164054
v -0.157366 -0.950050 0.059069
v -0.032699 -0.998579 0.077882
v -0.129063 -0.902045 -0.094210
v -0.036540 -0.794788 -0.176334
v -0.108542 -0.977723 -0.036724
v -0.033452 -0.892467 -0.146059
v -0.033432 -0.970751 -0.074468
v 0.082871 -0.764212 -0.131521
v 0.118259 -0.623703 -0.136433
v 0.166012 -0.397735 0.015829
v 0.171393 -0.597610 0.013733
v 0.136310 -0.377721 0.142701
v 0.063172 -0.866999 -0.102531
v 0.140472 -0.732196 0.011609
v 0.128127 -0.584419 0.160256
v -0.015874 -0.389483 0.188345
v 0.042474 -0.952212 -0.042782
v 0.124498 -0.832563 0.029408
v 0.108361 -0.701763 0.159535
v -0.026439 -0.587220 0.202162
v -0.161461 -0.413417 0.134837
v -0.174554 -0.608204 0.155568
v 0.090650 -0.927144 0.053264
v 0.104517 -0.810375 0.180891
v -0.041650 -0.703094 0.202572
v -0.183662 -0.718003 0.157992
v 0.074953 -0.910992 0.163535
v -0.034203 -0.812106 0.227693
v -0.164408 -0.814358 0.181604
v -0.034022 -0.912253 0.197605
v -0.136308 -0.913892 0.164054
v 0.004501 -0.683949 -0.334707
v -0.005087 -0.443465 -0.002668
v -0.089040 -0.701121 -0.265705
v 0.097841 -0.696241 -0.257522
v -0.209169 -0.658358 -0.247151
v 0.202025 -0.650666 -0.238612
v -0.228280 -0.667949 -0.115705
v 0.228589 -0.648247 -0.098437
v -0.294126 -0.611263 -0.004317
v 0.294126 -0.583565 -0.004126
v -0.252070 -0.629369 0.095671
v 0.234836 -0.611827 0.105847
v 0.225396 -0.562613 0.240735
v -0.259457 -0.572655 0.223101
v 0.093030 -0.611068 0.259753
v -0.137260 -0.615387 0.248211
v -0.022015 -0.582392 0.334707
v -0.142649 -0.525800 -0.153325
v -0.156656 -0.487448 -0.172638
v 0.005380 -0.488468 -0.233764
v -0.216544 -0.454860 -0.002844
v -0.237296 -0.403312 -0.003980
v 0.004340 -0.537426 -0.208127
v -0.142221 -0.436710 -0.156071
v -0.215124 -0.366944 -0.004530
v 0.002384 -0.453931 -0.210808
v 0.119439 -0.415151 -0.167288
v 0.133024 -0.448683 -0.185246
v 0.115027 -0.509726 -0.163867
v 0.177434 -0.364394 -0.005078
v 0.198080 -0.391195 -0.005392
v 0.175786 -0.450888 -0.004167
v 0.140710 -0.347305 0.159131
v 0.159681 -0.369824 0.177078
v 0.144498 -0.425545 0.158341
v -0.017520 -0.375409 0.207667
v -0.016998 -0.399504 0.231653
v -0.015818 -0.451031 0.209192
v -0.166589 -0.385242 0.152158
v -0.184047 -0.412953 0.169851
v -0.215124 -0.366944 -0.004530
v -0.169183 -0.457019 0.152605
v -0.237296 -0.403312 -0.003980
v -0.216544 -0.454860 -0.002844
v 0.004501 -0.683949 -0.334707
v 0.004340 -0.537426 -0.208127
v 0.097841 -0.696241 -0.257522
v -0.089040 -0.701121 -0.265705
v 0.115027 -0.509726 -0.163867
v -0.142649 -0.525800 -0.153325
v 0.202025 -0.650666 -0.238612
v -0.209169 -0.658358 -0.247151
v 0.228589 -0.648247 -0.098437
v -0.228280 -0.667949 -0.115705
v 0.175786 -0.450888 -0.004167
v -0.216544 -0.454860 -0.002844
v 0.294126 -0.583565 -0.004126
v -0.294126 -0.611263 -0.004317
v 0.234836 -0.611827 0.105847
v -0.252070 -0.629369 0.095671
v 0.144498 -0.425545 0.158341
v -0.169183 -0.457019 0.152605
v 0.225396 -0.562613 0.240735
v -0.259457 -0.572655 0.223101
v 0.093030 -0.611068 0.259753
v -0.137260 -0.615387 0.248211
v -0.015818 -0.451031 0.209192
v -0.022015 -0.582392 0.334707
vt 0.160494 0.731586
vt 0.115477 0.740211
vt 0.099905 0.780290
vt 0.072241 0.784431
vt 0.079375 0.753120
vt 0.035698 0.763246
vt 0.063882 0.813294
vt 0.078355 0.728439
vt 0.060425 0.712299
vt 0.103187 0.673032
vt 0.121874 0.705732
vt 0.144227 0.654896
vt 0.161688 0.693051
vt 0.212800 0.638796
vt 0.225195 0.682216
vt 0.270258 0.639315
vt 0.275639 0.684946
vt 0.318041 0.647633
vt 0.222482 0.724365
vt 0.322124 0.690951
vt 0.337833 0.651905
vt 0.346996 0.692624
vt 0.271441 0.726553
vt 0.316279 0.728584
vt 0.352121 0.730940
vt 0.150920 0.772325
vt 0.215527 0.768227
vt 0.263671 0.767517
vt 0.308658 0.766965
vt 0.347771 0.764187
vt 0.306755 0.813392
vt 0.341658 0.811908
vt 0.259313 0.815178
vt 0.209559 0.813548
vt 0.143688 0.813222
vt 0.304996 0.860120
vt 0.336013 0.858347
vt 0.256049 0.859254
vt 0.205618 0.855353
vt 0.143921 0.850000
vt 0.303972 0.903060
vt 0.335261 0.902085
vt 0.255640 0.904004
vt 0.206101 0.899018
vt 0.148012 0.889155
vt 0.306720 0.942665
vt 0.332810 0.940852
vt 0.313583 0.982762
vt 0.332164 0.977277
vt 0.267505 0.990099
vt 0.259332 0.944905
vt 0.211259 0.988368
vt 0.209397 0.941172
vt 0.142810 0.973565
vt 0.151157 0.929379
vt 0.101727 0.955197
vt 0.116904 0.918331
vt 0.055240 0.917493
vt 0.073812 0.896395
vt 0.032674 0.862896
vt 0.110115 0.881139
vt 0.075975 0.869048
vt 0.072204 0.839761
vt 0.098822 0.844849
vt 0.090654 0.813839
vt 0.939741 0.342193
vt 0.939686 0.342288
vt 0.939808 0.342370
vt 0.939790 0.342563
vt 0.939609 0.342477
vt 0.939945 0.342611
vt 0.939564 0.342206
vt 0.939455 0.342371
vt 0.939442 0.342134
vt 0.939338 0.342313
vt 0.939530 0.342034
vt 0.939637 0.342113
vt 0.939617 0.341937
vt 0.939709 0.342039
vt 0.939748 0.341898
vt 0.939795 0.341992
vt 0.939963 0.341967
vt 0.939797 0.342123
vt 0.939826 0.342258
vt 0.939847 0.342056
vt 0.939856 0.342180
vt 0.939889 0.342099
vt 0.939925 0.342301
vt 0.939939 0.342421
vt 0.940152 0.342586
vt 0.940099 0.342412
vt 0.940303 0.342535
vt 0.939931 0.342209
vt 0.940063 0.342296
vt 0.940241 0.342353
vt 0.940456 0.342428
vt 0.939947 0.342118
vt 0.940046 0.342208
vt 0.940201 0.342250
vt 0.940367 0.342248
vt 0.940578 0.342310
vt 0.940470 0.342127
vt 0.940022 0.342112
vt 0.940157 0.342158
vt 0.940311 0.342140
vt 0.940393 0.342023
vt 0.940098 0.342082
vt 0.940228 0.342060
vt 0.940293 0.341958
vt 0.940137 0.342005
vt 0.940167 0.341910
vt 0.758564 0.918798
vt 0.764210 0.817264
vt 0.731031 0.904798
vt 0.788112 0.906683
vt 0.701318 0.888747
vt 0.816063 0.894718
vt 0.690404 0.855735
vt 0.831748 0.861031
vt 0.681507 0.819923
vt 0.845109 0.829152
vt 0.688131 0.791556
vt 0.838592 0.796145
vt 0.830665 0.759485
vt 0.697776 0.756403
vt 0.797153 0.743502
vt 0.729546 0.742868
vt 0.764554 0.726835
vt 0.433994 0.943753
vt 0.433120 0.957380
vt 0.488801 0.957380
vt 0.373903 0.943343
vt 0.367120 0.957380
vt 0.487371 0.940879
vt 0.430738 0.971763
vt 0.367667 0.970911
vt 0.488474 0.969027
vt 0.536038 0.968688
vt 0.533268 0.957380
vt 0.530428 0.938758
vt 0.597875 0.967739
vt 0.597067 0.957380
vt 0.594231 0.939462
vt 0.656860 0.967566
vt 0.656844 0.957380
vt 0.655686 0.941164
vt 0.716367 0.967500
vt 0.716303 0.957380
vt 0.717125 0.940805
vt 0.773805 0.967736
vt 0.773706 0.957380
vt 0.831588 0.970297
vt 0.774584 0.943115
vt 0.833542 0.957380
vt 0.830653 0.941309
vt 0.412084 0.657798
vt 0.464876 0.715360
vt 0.457710 0.636732
vt 0.385601 0.698834
vt 0.508517 0.700930
vt 0.437524 0.769491
vt 0.505690 0.630427
vt 0.369431 0.750292
vt 0.564328 0.647255
vt 0.375526 0.807057
vt 0.567326 0.732673
vt 0.458485 0.831967
vt 0.609326 0.682147
vt 0.407516 0.861643
vt 0.645624 0.724734
vt 0.439444 0.901432
vt 0.596330 0.785781
vt 0.509627 0.862214
vt 0.659186 0.786268
vt 0.497222 0.922368
vt 0.646113 0.846421
vt 0.554186 0.919694
vt 0.567154 0.839983
vt 0.610805 0.893555
vn 0.027374 0.180789 -0.983141
vn -0.017520 0.276175 -0.960948
vn 0.603068 0.386051 -0.698050
vn 0.244492 0.703381 -0.667442
vn -0.198897 0.479888 -0.854487
vn -0.588778 0.808243 0.009103
vn 0.499817 0.865118 -0.041871
vn -0.799754 0.255780 -0.543112
vn -0.991420 0.126142 0.034267
vn -0.999282 0.016113 0.034279
vn -0.766559 0.116431 -0.631530
vn -0.998799 -0.041269 0.026426
vn -0.737065 0.035621 -0.674882
vn -0.998582 -0.052350 0.009712
vn -0.728902 -0.012765 -0.684500
vn -0.994158 -0.105412 -0.023191
vn -0.708661 -0.089113 -0.699899
vn -0.983726 -0.173280 -0.047510
vn 0.023623 0.084994 -0.996101
vn -0.675958 -0.188482 -0.712429
vn -0.979472 -0.190564 -0.065726
vn -0.616487 -0.232223 -0.752341
vn 0.024314 -0.017971 -0.999543
vn 0.025517 -0.141708 -0.989580
vn 0.018120 -0.220815 -0.975147
vn 0.664889 0.274879 -0.694524
vn 0.718162 0.153147 -0.678814
vn 0.744528 0.014494 -0.667434
vn 0.755786 -0.116844 -0.644310
vn 0.695802 -0.223134 -0.682694
vn 0.993109 -0.117022 -0.006364
vn 0.975908 -0.211852 -0.052178
vn 0.999889 -0.014691 0.002323
vn 0.990597 0.129733 -0.043441
vn 0.962287 0.265259 -0.060349
vn 0.706567 -0.142525 0.693145
vn 0.720906 -0.205658 0.661815
vn 0.711139 -0.066298 0.699919
vn 0.738784 0.041353 0.672673
vn 0.714573 0.169925 0.678609
vn 0.003028 -0.163037 0.986615
vn -0.010505 -0.203012 0.979120
vn 0.008730 -0.097998 0.995148
vn 0.044115 -0.042462 0.998124
vn 0.029185 0.021327 0.999346
vn -0.724903 -0.185770 0.663329
vn -0.691628 -0.210953 0.690760
vn -0.983726 -0.173280 -0.047510
vn -0.979472 -0.190564 -0.065726
vn -0.994158 -0.105412 -0.023191
vn -0.745224 -0.111981 0.657344
vn -0.998582 -0.052350 0.009712
vn -0.729693 -0.062995 0.680867
vn -0.998799 -0.041269 0.026426
vn -0.730892 -0.049467 0.680698
vn -0.999282 0.016113 0.034279
vn -0.774400 0.038456 0.631527
vn -0.991420 0.126142 0.034267
vn -0.814448 0.212920 0.539759
vn -0.588778 0.808243 0.009103
vn -0.100492 0.180766 0.978379
vn -0.322855 0.442710 0.836524
vn 0.198758 0.728105 0.656016
vn 0.606523 0.368906 0.704300
vn 0.898770 0.435414 -0.051258
vn -0.733652 -0.138283 -0.665307
vn -0.706699 0.040564 -0.706350
vn -0.051148 -0.007584 -0.998662
vn 0.004800 0.011335 -0.999924
vn -0.690211 0.046929 -0.722084
vn 0.775249 0.013081 -0.631521
vn -0.989791 0.055243 -0.131386
vn -0.995485 0.063405 -0.070641
vn -0.723040 0.081588 0.685971
vn -0.666436 0.098618 0.739011
vn -0.774028 0.038227 0.631996
vn -0.991142 -0.088213 -0.099277
vn -0.700716 -0.106141 0.705500
vn -0.953742 -0.298958 -0.031637
vn -0.616012 -0.474505 0.628788
vn -0.807889 -0.585375 0.068203
vn 0.074883 -0.966830 0.244196
vn -0.686448 -0.438785 -0.579876
vn -0.039302 -0.152086 -0.987585
vn -0.566728 -0.736288 -0.369728
vn 0.042438 -0.473828 -0.879594
vn 0.093421 -0.791870 -0.603501
vn 0.715890 -0.213411 -0.664799
vn 0.745582 -0.072211 -0.662490
vn 0.999320 0.014520 -0.033888
vn 0.995817 -0.072678 -0.055372
vn 0.700462 0.038424 0.712655
vn 0.722355 -0.379558 -0.578047
vn 0.978648 -0.191986 -0.073412
vn 0.698608 -0.025597 0.715047
vn 0.008310 0.083489 0.996474
vn 0.651490 -0.654532 -0.383599
vn 0.966712 -0.243617 -0.078221
vn 0.732993 -0.043649 0.678835
vn -0.020641 0.054791 0.998284
vn -0.666436 0.098618 0.739011
vn -0.723040 0.081588 0.685971
vn 0.842137 -0.538935 -0.018829
vn 0.733094 -0.077643 0.675682
vn -0.022585 0.098022 0.994928
vn -0.774028 0.038227 0.631996
vn 0.647839 -0.487440 0.585412
vn 0.010356 -0.010812 0.999888
vn -0.700716 -0.106141 0.705500
vn 0.007504 -0.475513 0.879677
vn -0.616012 -0.474505 0.628788
vn 0.003389 -0.809842 0.586638
vn 0.022939 -0.990782 0.133513
vn 0.209294 -0.731114 0.649359
vn -0.224375 -0.735689 0.639076
vn 0.242617 -0.820068 0.518291
vn -0.211261 -0.818878 0.533675
vn 0.593532 -0.744292 0.306185
vn -0.514835 -0.766777 0.383402
vn 0.488791 -0.844125 0.220310
vn -0.415056 -0.888470 0.195829
vn 0.615350 -0.785998 0.059596
vn -0.553067 -0.830536 -0.065776
vn -0.226885 -0.942239 -0.246393
vn 0.317538 -0.931868 -0.175474
vn -0.130607 -0.856989 -0.498510
vn 0.188182 -0.853574 -0.485797
vn 0.045067 -0.924525 -0.378448
vn -0.648936 -0.476337 -0.593283
vn -0.699474 -0.078818 -0.710299
vn -0.005064 -0.087044 -0.996192
vn -0.916650 -0.399397 -0.015326
vn -0.990014 0.084855 -0.112574
vn 0.024657 -0.481444 -0.876130
vn -0.574215 0.433571 -0.694473
vn -0.829674 0.527844 -0.181719
vn -0.118480 0.487761 -0.864900
vn 0.541605 0.572751 -0.615322
vn 0.783846 -0.063730 -0.617676
vn 0.746277 -0.408576 -0.525487
vn 0.769753 0.615971 -0.167510
vn 0.997461 0.002871 -0.071155
vn 0.936439 -0.348657 -0.038981
vn 0.490661 0.747042 0.448531
vn 0.740122 0.024697 0.672019
vn 0.707685 -0.390872 0.588558
vn -0.097217 0.687055 0.720072
vn 0.001927 -0.024861 0.999689
vn 0.026593 -0.412500 0.910570
vn -0.591705 0.636202 0.495108
vn -0.727812 -0.024820 0.685328
vn -0.829674 0.527844 -0.181719
vn -0.663321 -0.432229 0.610887
vn -0.990014 0.084855 -0.112574
vn -0.916650 -0.399397 -0.015326
vn -0.002318 0.653726 -0.756727
vn -0.021272 0.506871 -0.861759
vn 0.311347 0.503607 -0.805881
vn -0.292787 0.538832 -0.789896
vn 0.605029 0.503158 -0.617068
vn -0.590492 0.464732 -0.659805
vn 0.449362 0.618991 -0.644146
vn -0.385624 0.654106 -0.650722
vn 0.744103 0.509754 -0.431811
vn -0.816778 0.409598 -0.406328
vn 0.855882 0.497398 -0.141637
vn -0.915500 0.388097 -0.106023
vn 0.733583 0.654248 -0.183889
vn -0.874647 0.435857 -0.212183
vn 0.851129 0.497836 0.166550
vn -0.892422 0.424997 0.151528
vn 0.635932 0.537040 0.554236
vn -0.654420 0.506424 0.561488
vn 0.555113 0.644041 0.526365
vn -0.611400 0.701058 0.367026
vn 0.252025 0.513046 0.820528
vn -0.340206 0.532421 0.775105
vn -0.032031 0.529476 0.847720
vn -0.057846 0.691103 0.720438
f 1/1/1 2/2/2 3/3/3
f 2/2/2 4/4/4 3/3/3
f 2/2/2 5/5/5 4/4/4
f 5/5/5 6/6/6 4/4/4
f 3/3/3 4/4/4 7/7/7
f 4/4/4 6/6/6 7/7/7
f 8/8/8 6/6/6 5/5/5
f 9/9/9 6/6/6 8/8/8
f 10/10/10 9/9/9 8/8/8
f 11/11/11 8/8/8 5/5/5
f 10/10/10 8/8/8 11/11/11
f 11/11/11 5/5/5 2/2/2
f 12/12/12 10/10/10 11/11/11
f 13/13/13 11/11/11 2/2/2
f 12/12/12 11/11/11 13/13/13
f 13/13/13 2/2/2 1/1/1
f 14/14/14 12/12/12 13/13/13
f 14/14/14 13/13/13 15/15/15
f 15/15/15 13/13/13 1/1/1
f 16/16/16 14/14/14 15/15/15
f 16/16/16 15/15/15 17/17/17
f 18/18/18 16/16/16 17/17/17
f 15/15/15 1/1/1 19/19/19
f 17/17/17 15/15/15 19/19/19
f 18/18/18 17/17/17 20/20/20
f 21/21/21 18/18/18 20/20/20
f 21/21/21 20/20/20 22/22/22
f 20/20/20 17/17/17 23/23/23
f 17/17/17 19/19/19 23/23/23
f 22/22/22 20/20/20 24/24/24
f 20/20/20 23/23/23 24/24/24
f 22/22/22 24/24/24 25/25/25
f 19/19/19 1/1/1 26/26/26
f 1/1/1 3/3/3 26/26/26
f 23/23/23 19/19/19 27/27/27
f 19/19/19 26/26/26 27/27/27
f 24/24/24 23/23/23 28/28/28
f 23/23/23 27/27/27 28/28/28
f 25/25/25 24/24/24 29/29/29
f 24/24/24 28/28/28 29/29/29
f 25/25/25 29/29/29 30/30/30
f 30/30/30 29/29/29 31/31/31
f 30/30/30 31/31/31 32/32/32
f 29/29/29 28/28/28 33/33/33
f 29/29/29 33/33/33 31/31/31
f 28/28/28 27/27/27 34/34/34
f 28/28/28 34/34/34 33/33/33
f 27/27/27 35/35/35 34/34/34
f 27/27/27 26/26/26 35/35/35
f 32/32/32 31/31/31 36/36/36
f 32/32/32 36/36/36 37/37/37
f 31/31/31 33/33/33 38/38/38
f 31/31/31 38/38/38 36/36/36
f 33/33/33 34/34/34 39/39/39
f 33/33/33 39/39/39 38/38/38
f 34/34/34 40/40/40 39/39/39
f 34/34/34 35/35/35 40/40/40
f 41/41/41 37/37/37 36/36/36
f 41/41/41 42/42/42 37/37/37
f 43/43/43 36/36/36 38/38/38
f 43/43/43 41/41/41 36/36/36
f 44/44/44 38/38/38 39/39/39
f 44/44/44 43/43/43 38/38/38
f 45/45/45 44/44/44 39/39/39
f 45/45/45 39/39/39 40/40/40
f 46/46/46 42/42/42 41/41/41
f 46/46/46 47/47/47 42/42/42
f 47/47/47 46/46/46 48/48/48
f 47/47/47 48/48/48 49/49/49
f 46/46/46 50/50/50 48/48/48
f 51/51/51 46/46/46 41/41/41
f 46/46/46 51/51/51 50/50/50
f 51/51/51 41/41/41 43/43/43
f 51/51/51 52/52/52 50/50/50
f 53/53/53 51/51/51 43/43/43
f 51/51/51 53/53/53 52/52/52
f 53/53/53 43/43/43 44/44/44
f 53/53/53 54/54/54 52/52/52
f 55/55/55 53/53/53 44/44/44
f 53/53/53 55/55/55 54/54/54
f 55/55/55 44/44/44 45/45/45
f 55/55/55 56/56/56 54/54/54
f 55/55/55 57/57/57 56/56/56
f 57/57/57 55/55/55 45/45/45
f 57/57/57 58/58/58 56/56/56
f 57/57/57 59/59/59 58/58/58
f 59/59/59 60/60/60 58/58/58
f 57/57/57 45/45/45 61/61/61
f 61/61/61 59/59/59 57/57/57
f 61/61/61 45/45/45 40/40/40
f 62/62/62 60/60/60 59/59/59
f 61/61/61 62/62/62 59/59/59
f 63/63/63 60/60/60 62/62/62
f 7/7/7 60/60/60 63/63/63
f 64/64/64 62/62/62 61/61/61
f 61/61/61 40/40/40 64/64/64
f 64/64/64 63/63/63 62/62/62
f 35/35/35 64/64/64 40/40/40
f 65/65/65 7/7/7 63/63/63
f 65/65/65 63/63/63 64/64/64
f 35/35/35 65/65/65 64/64/64
f 3/3/3 7/7/7 65/65/65
f 26/26/26 65/65/65 35/35/35
f 26/26/26 3/3/3 65/65/65
f 66/66/66 67/67/67 68/68/68
f 67/67/67 69/69/69 68/68/68
f 67/67/67 70/70/70 69/69/69
f 68/68/68 69/69/69 71/71/71
f 72/72/72 70/70/70 67/67/67
f 72/72/72 73/73/73 70/70/70
f 74/74/74 73/73/73 72/72/72
f 74/74/74 75/75/75 73/73/73
f 76/76/76 74/74/74 72/72/72
f 77/77/77 72/72/72 67/67/67
f 76/76/76 72/72/72 77/77/77
f 77/77/77 67/67/67 66/66/66
f 78/78/78 76/76/76 77/77/77
f 78/78/78 77/77/77 79/79/79
f 79/79/79 77/77/77 66/66/66
f 79/79/79 80/80/80 78/78/78
f 79/79/79 81/81/81 80/80/80
f 81/81/81 82/82/82 80/80/80
f 79/79/79 66/66/66 83/83/83
f 83/83/83 81/81/81 79/79/79
f 83/83/83 66/66/66 84/84/84
f 66/66/66 68/68/68 84/84/84
f 83/83/83 85/85/85 81/81/81
f 85/85/85 82/82/82 81/81/81
f 86/86/86 85/85/85 83/83/83
f 83/83/83 84/84/84 86/86/86
f 86/86/86 87/87/87 85/85/85
f 87/87/87 82/82/82 85/85/85
f 86/86/86 84/84/84 88/88/88
f 84/84/84 68/68/68 89/89/89
f 84/84/84 89/89/89 88/88/88
f 68/68/68 71/71/71 89/89/89
f 89/89/89 71/71/71 90/90/90
f 89/89/89 90/90/90 91/91/91
f 88/88/88 89/89/89 91/91/91
f 91/91/91 90/90/90 92/92/92
f 86/86/86 88/88/88 93/93/93
f 93/93/93 87/87/87 86/86/86
f 88/88/88 91/91/91 94/94/94
f 93/93/93 88/88/88 94/94/94
f 91/91/91 92/92/92 95/95/95
f 94/94/94 91/91/91 95/95/95
f 96/96/96 95/95/95 92/92/92
f 93/93/93 97/97/97 87/87/87
f 97/97/97 82/82/82 87/87/87
f 93/93/93 94/94/94 98/98/98
f 98/98/98 97/97/97 93/93/93
f 94/94/94 95/95/95 99/99/99
f 98/98/98 94/94/94 99/99/99
f 96/96/96 100/100/100 95/95/95
f 100/100/100 99/99/99 95/95/95
f 101/101/101 100/100/100 96/96/96
f 101/101/101 102/102/102 100/100/100
f 98/98/98 103/103/103 97/97/97
f 103/103/103 82/82/82 97/97/97
f 98/98/98 99/99/99 104/104/104
f 104/104/104 103/103/103 98/98/98
f 100/100/100 105/105/105 99/99/99
f 102/102/102 105/105/105 100/100/100
f 105/105/105 104/104/104 99/99/99
f 102/102/102 106/106/106 105/105/105
f 104/104/104 107/107/107 103/103/103
f 107/107/107 82/82/82 103/103/103
f 105/105/105 108/108/108 104/104/104
f 106/106/106 108/108/108 105/105/105
f 108/108/108 107/107/107 104/104/104
f 106/106/106 109/109/109 108/108/108
f 110/110/110 82/82/82 107/107/107
f 108/108/108 110/110/110 107/107/107
f 109/109/109 110/110/110 108/108/108
f 111/111/111 82/82/82 110/110/110
f 109/109/109 111/111/111 110/110/110
f 112/112/112 113/113/113 114/114/114
f 115/115/115 113/113/113 112/112/112
f 114/114/114 113/113/113 116/116/116
f 117/117/117 113/113/113 115/115/115
f 116/116/116 113/113/113 118/118/118
f 119/119/119 113/113/113 117/117/117
f 118/118/118 113/113/113 120/120/120
f 121/121/121 113/113/113 119/119/119
f 120/120/120 113/113/113 122/122/122
f 123/123/123 113/113/113 121/121/121
f 124/124/124 113/113/113 123/123/123
f 122/122/122 113/113/113 125/125/125
f 126/126/126 113/113/113 124/124/124
f 125/125/125 113/113/113 127/127/127
f 128/128/128 113/113/113 126/126/126
f 127/127/127 113/113/113 128/128/128
f 129/129/129 130/130/130 131/131/131
f 132/132/132 130/130/130 129/129/129
f 132/132/132 133/133/133 130/130/130
f 129/129/129 131/131/131 134/134/134
f 133/133/133 135/135/135 130/130/130
f 133/133/133 136/136/136 135/135/135
f 130/130/130 135/135/135 137/137/137
f 130/130/130 137/137/137 131/131/131
f 131/131/131 137/137/137 138/138/138
f 134/134/134 131/131/131 139/139/139
f 131/131/131 138/138/138 139/139/139
f 134/134/134 139/139/139 140/140/140
f 139/139/139 138/138/138 141/141/141
f 140/140/140 139/139/139 142/142/142
f 139/139/139 141/141/141 142/142/142
f 140/140/140 142/142/142 143/143/143
f 142/142/142 141/141/141 144/144/144
f 143/143/143 142/142/142 145/145/145
f 142/142/142 144/144/144 145/145/145
f 143/143/143 145/145/145 146/146/146
f 147/147/147 145/145/145 144/144/144
f 148/148/148 146/146/146 145/145/145
f 147/147/147 148/148/148 145/145/145
f 148/148/148 149/149/149 146/146/146
f 150/150/150 148/148/148 147/147/147
f 151/151/151 149/149/149 148/148/148
f 150/150/150 151/151/151 148/148/148
f 151/151/151 150/150/150 152/152/152
f 151/151/151 153/153/153 149/149/149
f 151/151/151 152/152/152 154/154/154
f 153/153/153 151/151/151 154/154/154
f 153/153/153 154/154/154 155/155/155
f 156/156/156 157/157/157 158/158/158
f 156/156/156 159/159/159 157/157/157
f 157/157/157 160/160/160 158/158/158
f 157/157/157 159/159/159 161/161/161
f 158/158/158 160/160/160 162/162/162
f 163/163/163 161/161/161 159/159/159
f 162/162/162 160/160/160 164/164/164
f 165/165/165 161/161/161 163/163/163
f 160/160/160 166/166/166 164/164/164
f 167/167/167 161/161/161 165/165/165
f 164/164/164 166/166/166 168/168/168
f 169/169/169 167/167/167 165/165/165
f 168/168/168 166/166/166 170/170/170
f 169/169/169 171/171/171 167/167/167
f 166/166/166 172/172/172 170/170/170
f 167/167/167 171/171/171 173/173/173
f 170/170/170 172/172/172 174/174/174
f 175/175/175 173/173/173 171/171/171
f 172/172/172 176/176/176 174/174/174
f 173/173/173 175/175/175 177/177/177
f 178/178/178 176/176/176 172/172/172
f 178/178/178 173/173/173 177/177/177
f 179/179/179 176/176/176 178/178/178
f 179/179/179 178/178/178 177/177/177
