# Generated from Roblox mesh JSON (v7.00)
# Hello from RBX_Toolbox ;)
o LeftUpperArm_inner_cage
v 0.047359 0.406775 -0.028082
v 0.067777 0.402056 0.117517
v 0.115282 0.434133 -0.002468
v 0.136962 0.429474 0.125909
v 0.047359 0.406775 -0.028082
v 0.091331 0.407936 -0.140997
v 0.026311 0.363627 -0.164978
v 0.115282 0.434133 -0.002468
v 0.092869 0.342659 0.206548
v 0.136962 0.429474 0.125909
v 0.067777 0.402056 0.117517
v 0.148566 0.363449 0.204309
v -0.054029 0.328488 -0.011146
v -0.022554 0.334761 0.129273
v 0.047359 0.406775 -0.028082
v 0.067777 0.402056 0.117517
v -0.022554 0.334761 0.129273
v 0.092869 0.342659 0.206548
v 0.067777 0.402056 0.117517
v 0.032599 0.269839 0.212070
v -0.029056 0.288879 -0.160277
v -0.054029 0.328488 -0.011146
v 0.026311 0.363627 -0.164978
v 0.047359 0.406775 -0.028082
v -0.098325 -0.325984 0.194500
v 0.102202 -0.324937 0.222655
v -0.064739 -0.227831 0.212869
v 0.059207 -0.425169 0.196268
v 0.116357 -0.259491 0.220295
v -0.032071 -0.105609 0.228798
v -0.201002 -0.276293 0.085427
v -0.064739 -0.227831 0.212869
v -0.167427 -0.169455 0.116988
v -0.098325 -0.325984 0.194500
v 0.069069 0.165262 -0.214578
v 0.026311 0.363627 -0.164978
v 0.083760 0.332157 -0.228798
v 0.091331 0.407936 -0.140997
v 0.032599 0.269839 0.212070
v 0.135885 -0.048010 0.220492
v 0.145689 0.025092 0.217616
v 0.092869 0.342659 0.206548
v -0.122330 0.152154 -0.009012
v -0.022554 0.334761 0.129273
v -0.054029 0.328488 -0.011146
v -0.091416 0.133017 0.126046
v 0.000762 0.077439 0.221224
v 0.127713 -0.161731 0.216943
v 0.135885 -0.048010 0.220492
v 0.032599 0.269839 0.212070
v 0.000762 0.077439 0.221224
v -0.032071 -0.105609 0.228798
v 0.127713 -0.161731 0.216943
v 0.116357 -0.259491 0.220295
v -0.091416 0.133017 0.126046
v 0.032599 0.269839 0.212070
v -0.022554 0.334761 0.129273
v 0.000762 0.077439 0.221224
v -0.167427 -0.169455 0.116988
v -0.032071 -0.105609 0.228798
v -0.118925 -0.027512 0.125418
v -0.064739 -0.227831 0.212869
v -0.118925 -0.027512 0.125418
v 0.000762 0.077439 0.221224
v -0.091416 0.133017 0.126046
v -0.032071 -0.105609 0.228798
v -0.122330 0.152154 -0.009012
v -0.029056 0.288879 -0.160277
v -0.074159 0.125163 -0.144987
v -0.054029 0.328488 -0.011146
v 0.092869 0.342659 0.206548
v 0.145689 0.025092 0.217616
v 0.140130 0.170569 0.223868
v 0.148566 0.363449 0.204309
v 0.103138 -0.413135 -0.144026
v 0.152358 -0.326431 -0.042958
v 0.109866 -0.424996 -0.050247
v 0.147623 -0.313051 -0.132728
v 0.026311 0.363627 -0.164978
v 0.069069 0.165262 -0.214578
v -0.029056 0.288879 -0.160277
v 0.059469 0.112078 -0.204299
v -0.179964 -0.157662 0.007793
v -0.204225 -0.270685 -0.014747
v -0.201002 -0.276293 0.085427
v -0.167427 -0.169455 0.116988
v 0.147623 -0.313051 -0.132728
v 0.041860 -0.371216 -0.181811
v 0.088905 -0.268262 -0.179590
v 0.103138 -0.413135 -0.144026
v 0.109866 -0.424996 -0.050247
v 0.152358 -0.326431 -0.042958
v 0.090905 -0.434133 0.084817
v 0.139177 -0.325698 0.090656
v 0.088905 -0.268262 -0.179590
v 0.157779 -0.259068 -0.143819
v 0.147623 -0.313051 -0.132728
v 0.100572 -0.155753 -0.185572
v -0.141694 -0.013401 0.002942
v -0.091416 0.133017 0.126046
v -0.122330 0.152154 -0.009012
v -0.118925 -0.027512 0.125418
v 0.169075 -0.054237 -0.161410
v 0.134235 0.013626 -0.204444
v 0.165752 -0.016868 -0.174565
v 0.083012 0.213248 -0.227885
v 0.112742 -0.104556 -0.188029
v 0.170747 -0.113340 -0.151858
v 0.166406 -0.190923 -0.143957
v 0.125224 -0.034423 -0.197341
v -0.141694 -0.013401 0.002942
v -0.179964 -0.157662 0.007793
v -0.118925 -0.027512 0.125418
v -0.167427 -0.169455 0.116988
v 0.125224 -0.034423 -0.197341
v 0.169075 -0.054237 -0.161410
v 0.170747 -0.113340 -0.151858
v 0.134235 0.013626 -0.204444
v 0.100572 -0.155753 -0.185572
v 0.166406 -0.190923 -0.143957
v 0.157779 -0.259068 -0.143819
v 0.112742 -0.104556 -0.188029
v 0.204225 -0.039465 0.114767
v 0.140130 0.170569 0.223868
v 0.145689 0.025092 0.217616
v 0.193029 -0.077087 0.104891
v -0.141694 -0.013401 0.002942
v -0.074159 0.125163 -0.144987
v -0.101872 -0.036103 -0.117095
v -0.122330 0.152154 -0.009012
v -0.179964 -0.157662 0.007793
v -0.101872 -0.036103 -0.117095
v -0.134786 -0.181150 -0.109214
v -0.141694 -0.013401 0.002942
v 0.090905 -0.434133 0.084817
v 0.139177 -0.325698 0.090656
v 0.059207 -0.425169 0.196268
v 0.102202 -0.324937 0.222655
v 0.152004 -0.275930 0.089077
v 0.116357 -0.259491 0.220295
v 0.167725 -0.211567 0.088634
v 0.127713 -0.161731 0.216943
v 0.135885 -0.048010 0.220492
v 0.180317 -0.135528 0.095946
v 0.193029 -0.077087 0.104891
v 0.145689 0.025092 0.217616
v -0.204225 -0.270685 -0.014747
v -0.134786 -0.181150 -0.109214
v -0.162047 -0.290267 -0.111943
v -0.179964 -0.157662 0.007793
v 0.069069 0.165262 -0.214578
v 0.134235 0.013626 -0.204444
v 0.059469 0.112078 -0.204299
v 0.125224 -0.034423 -0.197341
v 0.046523 -0.007225 -0.180332
v -0.074159 0.125163 -0.144987
v 0.059469 0.112078 -0.204299
v -0.029056 0.288879 -0.160277
v 0.112742 -0.104556 -0.188029
v 0.046523 -0.007225 -0.180332
v 0.125224 -0.034423 -0.197341
v 0.059469 0.112078 -0.204299
v 0.139177 -0.325698 0.090656
v 0.152358 -0.326431 -0.042958
v 0.165694 -0.279805 -0.033768
v 0.152004 -0.275930 0.089077
v 0.100572 -0.155753 -0.185572
v 0.024797 -0.097758 -0.162164
v 0.112742 -0.104556 -0.188029
v 0.046523 -0.007225 -0.180332
v 0.165694 -0.279805 -0.033768
v 0.147623 -0.313051 -0.132728
v 0.157779 -0.259068 -0.143819
v 0.152358 -0.326431 -0.042958
v 0.100572 -0.155753 -0.185572
v -0.024922 -0.217150 -0.161457
v 0.024797 -0.097758 -0.162164
v 0.088905 -0.268262 -0.179590
v 0.180317 -0.135528 0.095946
v 0.127713 -0.161731 0.216943
v 0.167725 -0.211567 0.088634
v 0.135885 -0.048010 0.220492
v 0.046523 -0.007225 -0.180332
v 0.024797 -0.097758 -0.162164
v -0.101872 -0.036103 -0.117095
v -0.074159 0.125163 -0.144987
v 0.178903 -0.218336 -0.025259
v 0.152004 -0.275930 0.089077
v 0.165694 -0.279805 -0.033768
v 0.167725 -0.211567 0.088634
v 0.024797 -0.097758 -0.162164
v -0.134786 -0.181150 -0.109214
v -0.101872 -0.036103 -0.117095
v -0.024922 -0.217150 -0.161457
v 0.088905 -0.268262 -0.179590
v 0.041860 -0.371216 -0.181811
v -0.059754 -0.330302 -0.162770
v -0.024922 -0.217150 -0.161457
v -0.162047 -0.290267 -0.111943
v -0.024922 -0.217150 -0.161457
v -0.059754 -0.330302 -0.162770
v -0.134786 -0.181150 -0.109214
v 0.134235 0.013626 -0.204444
v 0.069069 0.165262 -0.214578
v 0.083012 0.213248 -0.227885
v 0.083760 0.332157 -0.228798
v 0.178903 -0.218336 -0.025259
v 0.157779 -0.259068 -0.143819
v 0.166406 -0.190923 -0.143957
v 0.165694 -0.279805 -0.033768
v 0.188486 -0.144584 -0.019781
v 0.170747 -0.113340 -0.151858
v 0.188486 -0.144584 -0.019781
v 0.167725 -0.211567 0.088634
v 0.178903 -0.218336 -0.025259
v 0.180317 -0.135528 0.095946
v 0.192588 -0.086791 -0.016792
v 0.193029 -0.077087 0.104891
v 0.195524 -0.048151 -0.016281
v 0.193029 -0.077087 0.104891
v 0.192588 -0.086791 -0.016792
v 0.204225 -0.039465 0.114767
v 0.195524 -0.048151 -0.016281
v 0.169075 -0.054237 -0.161410
v 0.165752 -0.016868 -0.174565
v 0.192588 -0.086791 -0.016792
v 0.192588 -0.086791 -0.016792
v 0.170747 -0.113340 -0.151858
v 0.169075 -0.054237 -0.161410
v 0.188486 -0.144584 -0.019781
vt 4.317513 3.462179
vt 4.317513 3.511224
vt 4.249259 3.462179
vt 4.249259 3.511224
vt 4.317513 3.462179
vt 4.249259 3.401921
vt 4.317513 3.414271
vt 4.249259 3.462179
vt 4.317513 3.579725
vt 4.249259 3.511224
vt 4.317513 3.511224
vt 4.249259 3.579725
vt 4.383102 3.462179
vt 4.383102 3.511224
vt 4.317513 3.462179
vt 4.317513 3.511224
vt 4.383102 3.511224
vt 4.317513 3.579725
vt 4.317513 3.511224
vt 4.383102 3.579725
vt 4.383102 3.414270
vt 4.383102 3.462179
vt 4.317513 3.414271
vt 4.317513 3.462179
vt 4.750740 3.579725
vt 4.674969 3.651093
vt 4.674969 3.579725
vt 4.750741 3.651093
vt 4.573396 3.651094
vt 4.573396 3.579725
vt 4.750740 3.511224
vt 4.674969 3.579725
vt 4.674968 3.511224
vt 4.750740 3.579725
vt 4.317513 3.344108
vt 4.317513 3.414271
vt 4.249259 3.343375
vt 4.249259 3.401921
vt 4.383102 3.579725
vt 4.383102 3.651093
vt 4.317513 3.651093
vt 4.317513 3.579725
vt 4.464461 3.462179
vt 4.383102 3.511224
vt 4.383102 3.462179
vt 4.464461 3.511224
vt 4.464461 3.579725
vt 4.464461 3.651093
vt 4.383102 3.651093
vt 4.383102 3.579725
vt 4.464461 3.579725
vt 4.573396 3.579725
vt 4.464461 3.651093
vt 4.573396 3.651094
vt 4.464461 3.511224
vt 4.383102 3.579725
vt 4.383102 3.511224
vt 4.464461 3.579725
vt 4.674968 3.511224
vt 4.573396 3.579725
vt 4.573396 3.511224
vt 4.674969 3.579725
vt 4.573396 3.511224
vt 4.464461 3.579725
vt 4.464461 3.511224
vt 4.573396 3.579725
vt 4.464461 3.462179
vt 4.383102 3.414270
vt 4.464461 3.414271
vt 4.383102 3.462179
vt 4.317513 3.579725
vt 4.317513 3.651093
vt 4.249260 3.651093
vt 4.249259 3.579725
vt 4.750740 3.241194
vt 4.674968 3.209337
vt 4.750740 3.209337
vt 4.674968 3.241194
vt 4.317513 3.414271
vt 4.317513 3.344108
vt 4.383102 3.414270
vt 4.383102 3.344108
vt 4.674968 3.462179
vt 4.750740 3.462179
vt 4.750740 3.511224
vt 4.674968 3.511224
vt 4.674968 3.241194
vt 4.750740 3.273265
vt 4.674968 3.273265
vt 4.750740 3.241194
vt 4.750741 3.714510
vt 4.674969 3.714510
vt 4.750740 3.682632
vt 4.674968 3.682632
vt 4.674968 3.273265
vt 4.573396 3.241194
vt 4.674968 3.241194
vt 4.573396 3.273265
vt 4.573396 3.462179
vt 4.464461 3.511224
vt 4.464461 3.462179
vt 4.573396 3.511224
vt 4.317513 3.241285
vt 4.317513 3.273265
vt 4.249259 3.241301
vt 4.249260 3.273265
vt 4.464461 3.273264
vt 4.383102 3.241270
vt 4.464461 3.241194
vt 4.383102 3.273265
vt 4.573396 3.462179
vt 4.674968 3.462179
vt 4.573396 3.511224
vt 4.674968 3.511224
vt 4.383102 3.273265
vt 4.317513 3.241285
vt 4.383102 3.241270
vt 4.317513 3.273265
vt 4.573396 3.273265
vt 4.464461 3.241194
vt 4.573396 3.241194
vt 4.464461 3.273264
vt 4.249259 3.682803
vt 4.249260 3.651093
vt 4.317513 3.651093
vt 4.317513 3.682776
vt 4.573396 3.462179
vt 4.464461 3.414271
vt 4.573396 3.414270
vt 4.464461 3.462179
vt 4.674968 3.462179
vt 4.573396 3.414270
vt 4.674968 3.414270
vt 4.573396 3.462179
vt 4.750740 3.682632
vt 4.674968 3.682632
vt 4.750741 3.651093
vt 4.674969 3.651093
vt 4.573396 3.682632
vt 4.573396 3.651094
vt 4.464461 3.682632
vt 4.464461 3.651093
vt 4.383102 3.651093
vt 4.383102 3.682749
vt 4.317513 3.682776
vt 4.317513 3.651093
vt 4.750740 3.462179
vt 4.674968 3.414270
vt 4.750740 3.414270
vt 4.674968 3.462179
vt 4.317513 3.344108
vt 4.317513 3.273265
vt 4.383102 3.344108
vt 4.383102 3.273265
vt 4.464461 3.344108
vt 4.464461 3.414271
vt 4.383102 3.344108
vt 4.383102 3.414270
vt 4.464461 3.273264
vt 4.464461 3.344108
vt 4.383102 3.273265
vt 4.383102 3.344108
vt 4.674968 3.682632
vt 4.674969 3.714510
vt 4.573396 3.714510
vt 4.573396 3.682632
vt 4.573396 3.273265
vt 4.573396 3.344108
vt 4.464461 3.273264
vt 4.464461 3.344108
vt 4.573396 3.209337
vt 4.674968 3.241194
vt 4.573396 3.241194
vt 4.674968 3.209337
vt 4.573396 3.273265
vt 4.674969 3.344108
vt 4.573396 3.344108
vt 4.674968 3.273265
vt 4.383102 3.682749
vt 4.464461 3.651093
vt 4.464461 3.682632
vt 4.383102 3.651093
vt 4.464461 3.344108
vt 4.573396 3.344108
vt 4.573396 3.414270
vt 4.464461 3.414271
vt 4.464461 3.714510
vt 4.573396 3.682632
vt 4.573396 3.714510
vt 4.464461 3.682632
vt 4.573396 3.344108
vt 4.674968 3.414270
vt 4.573396 3.414270
vt 4.674969 3.344108
vt 4.674968 3.273265
vt 4.750740 3.273265
vt 4.750741 3.344108
vt 4.674969 3.344108
vt 4.750740 3.414270
vt 4.674969 3.344108
vt 4.750741 3.344108
vt 4.674968 3.414270
vt 4.317513 3.273265
vt 4.317513 3.344108
vt 4.249260 3.273265
vt 4.249259 3.343375
vt 4.464461 3.209337
vt 4.573396 3.241194
vt 4.464461 3.241194
vt 4.573396 3.209337
vt 4.383102 3.209337
vt 4.383102 3.241270
vt 4.383102 3.714510
vt 4.464461 3.682632
vt 4.464461 3.714510
vt 4.383102 3.682749
vt 4.317512 3.714511
vt 4.317513 3.682776
vt 4.249260 3.714511
vt 4.317513 3.682776
vt 4.317512 3.714511
vt 4.249259 3.682803
vt 4.249260 3.209337
vt 4.317513 3.241285
vt 4.249259 3.241301
vt 4.317512 3.209337
vt 4.317512 3.209337
vt 4.383102 3.241270
vt 4.317513 3.241285
vt 4.383102 3.209337
vn -0.388745 0.916423 0.090983
vn -0.388745 0.916423 0.090983
vn -0.388745 0.916423 0.090983
vn -0.388745 0.916423 0.090983
vn -0.422723 0.892152 -0.155608
vn -0.422723 0.892152 -0.155608
vn -0.422723 0.892152 -0.155608
vn -0.422723 0.892152 -0.155608
vn -0.311078 0.727111 0.612317
vn -0.311078 0.727111 0.612317
vn -0.311078 0.727111 0.612317
vn -0.311078 0.727111 0.612317
vn -0.591647 0.799924 0.102633
vn -0.591647 0.799924 0.102633
vn -0.591647 0.799924 0.102633
vn -0.591647 0.799924 0.102633
vn -0.476119 0.592166 0.650179
vn -0.476119 0.592166 0.650179
vn -0.476119 0.592166 0.650179
vn -0.476119 0.592166 0.650179
vn -0.697468 0.685366 -0.208032
vn -0.697468 0.685366 -0.208032
vn -0.697468 0.685366 -0.208032
vn -0.697468 0.685366 -0.208032
vn -0.136329 -0.167991 0.976377
vn -0.105263 -0.117508 0.987056
vn -0.082934 -0.110713 0.989969
vn -0.136329 -0.167991 0.976377
vn -0.050897 -0.059259 0.996765
vn -0.050897 -0.059259 0.996765
vn -0.691643 0.051416 0.720079
vn -0.691643 0.051416 0.720079
vn -0.691643 0.051416 0.720079
vn -0.691643 0.051416 0.720079
vn -0.643101 0.275677 -0.714804
vn -0.643101 0.275677 -0.714804
vn -0.643101 0.275677 -0.714804
vn -0.643101 0.275677 -0.714804
vn 0.037449 0.039766 0.998706
vn 0.037449 0.039766 0.998706
vn 0.037449 0.039766 0.998706
vn 0.037449 0.039766 0.998706
vn -0.916875 0.331985 0.223015
vn -0.916875 0.331985 0.223015
vn -0.916875 0.331985 0.223015
vn -0.916875 0.331985 0.223015
vn 0.019974 0.015495 0.999677
vn 0.019974 0.015495 0.999677
vn 0.019974 0.015495 0.999677
vn 0.019974 0.015495 0.999677
vn 0.083078 0.026174 0.995794
vn 0.083078 0.026174 0.995794
vn 0.083078 0.026174 0.995794
vn 0.083078 0.026174 0.995794
vn -0.690672 0.187331 0.698721
vn -0.690672 0.187331 0.698721
vn -0.690672 0.187331 0.698721
vn -0.690672 0.187331 0.698721
vn -0.668343 0.137819 0.730758
vn -0.668343 0.137819 0.730758
vn -0.668343 0.137819 0.730758
vn -0.668343 0.137819 0.730758
vn -0.688730 0.134907 0.712312
vn -0.688730 0.134907 0.712312
vn -0.688730 0.134907 0.712312
vn -0.688730 0.134907 0.712312
vn -0.909108 0.288297 -0.300261
vn -0.909108 0.288297 -0.300261
vn -0.909108 0.288297 -0.300261
vn -0.909108 0.288297 -0.300261
vn -0.211083 0.039766 0.976377
vn -0.211083 0.039766 0.976377
vn -0.211083 0.039766 0.976377
vn -0.211083 0.039766 0.976377
vn 0.914106 -0.390311 -0.110949
vn 0.914106 -0.390311 -0.110949
vn 0.914106 -0.390311 -0.110949
vn 0.914106 -0.390311 -0.110949
vn -0.391657 0.091219 -0.915765
vn -0.391657 0.091219 -0.915765
vn -0.391657 0.091219 -0.915765
vn -0.391657 0.091219 -0.915765
vn -0.968328 0.231989 0.091953
vn -0.968328 0.231989 0.091953
vn -0.968328 0.231989 0.091953
vn -0.968328 0.231989 0.091953
vn 0.487913 -0.163137 -0.857516
vn 0.487913 -0.163137 -0.857516
vn 0.487913 -0.163137 -0.857516
vn 0.487913 -0.163137 -0.857516
vn 0.909252 -0.404873 0.095837
vn 0.909252 -0.404873 0.095837
vn 0.909252 -0.404873 0.095837
vn 0.909252 -0.404873 0.095837
vn 0.471409 -0.150517 -0.869166
vn 0.471409 -0.150517 -0.869166
vn 0.471409 -0.150517 -0.869166
vn 0.471409 -0.150517 -0.869166
vn -0.964445 0.146557 0.220103
vn -0.964445 0.146557 0.220103
vn -0.964445 0.146557 0.220103
vn -0.964445 0.146557 0.220103
vn 0.715086 0.057241 -0.696358
vn 0.715086 0.057241 -0.696358
vn 0.715086 0.057241 -0.696358
vn 0.715086 0.057241 -0.696358
vn 0.505388 -0.156341 -0.848778
vn 0.505388 -0.156341 -0.848778
vn 0.505388 -0.156341 -0.848778
vn 0.505388 -0.156341 -0.848778
vn -0.943087 0.283443 0.175445
vn -0.943087 0.283443 0.175445
vn -0.943087 0.283443 0.175445
vn -0.943087 0.283443 0.175445
vn 0.580141 -0.164108 -0.798295
vn 0.580141 -0.164108 -0.798295
vn 0.580141 -0.164108 -0.798295
vn 0.580141 -0.164108 -0.798295
vn 0.490825 -0.103917 -0.865282
vn 0.490825 -0.103917 -0.865282
vn 0.490825 -0.103917 -0.865282
vn 0.490825 -0.103917 -0.865282
vn 0.846148 -0.072850 0.526884
vn 0.846148 -0.072850 0.526884
vn 0.846148 -0.072850 0.526884
vn 0.846148 -0.072850 0.526884
vn -0.936291 0.093161 -0.340065
vn -0.936291 0.093161 -0.340065
vn -0.936291 0.093161 -0.340065
vn -0.936291 0.093161 -0.340065
vn -0.907166 0.206748 -0.365306
vn -0.907166 0.206748 -0.365306
vn -0.907166 0.206748 -0.365306
vn -0.907166 0.206748 -0.365306
vn 0.868477 -0.420407 0.261848
vn 0.910223 -0.309732 0.274469
vn 0.868477 -0.420407 0.261848
vn 0.911193 -0.318470 0.262819
vn 0.938377 -0.180612 0.294856
vn 0.940318 -0.178671 0.290002
vn 0.938377 -0.149546 0.311360
vn 0.938377 -0.149546 0.311360
vn 0.865565 -0.169933 0.470576
vn 0.865565 -0.169933 0.470576
vn 0.865565 -0.169933 0.470576
vn 0.865565 -0.169933 0.470576
vn -0.878042 0.250435 -0.408023
vn -0.878042 0.250435 -0.408023
vn -0.878042 0.250435 -0.408023
vn -0.878042 0.250435 -0.408023
vn -0.179046 -0.134012 -0.974986
vn -0.179046 -0.134012 -0.974986
vn -0.179046 -0.134012 -0.974986
vn -0.179046 -0.134012 -0.974986
vn -0.409132 -0.042755 -0.911882
vn -0.409132 -0.042755 -0.911882
vn -0.409132 -0.042755 -0.911882
vn -0.409132 -0.042755 -0.911882
vn -0.253800 -0.134012 -0.957511
vn -0.253800 -0.134012 -0.957511
vn -0.253800 -0.134012 -0.957511
vn -0.253800 -0.134012 -0.957511
vn 0.957793 -0.267987 0.105545
vn 0.957793 -0.267987 0.105545
vn 0.957793 -0.267987 0.105545
vn 0.957793 -0.267987 0.105545
vn -0.286808 -0.070909 -0.955569
vn -0.286808 -0.070909 -0.955569
vn -0.286808 -0.070909 -0.955569
vn -0.286808 -0.070909 -0.955569
vn 0.968472 -0.228183 -0.100270
vn 0.968472 -0.228183 -0.100270
vn 0.968472 -0.228183 -0.100270
vn 0.968472 -0.228183 -0.100270
vn -0.200404 0.025203 -0.979840
vn -0.200404 0.025203 -0.979840
vn -0.200404 0.025203 -0.979840
vn -0.200404 0.025203 -0.979840
vn 0.919931 -0.122363 0.373493
vn 0.919931 -0.122363 0.373493
vn 0.919931 -0.122363 0.373493
vn 0.919931 -0.122363 0.373493
vn -0.374182 -0.095179 -0.922561
vn -0.374182 -0.095179 -0.922561
vn -0.374182 -0.095179 -0.922561
vn -0.374182 -0.095179 -0.922561
vn 0.966531 -0.229154 0.112341
vn 0.966531 -0.229154 0.112341
vn 0.966531 -0.229154 0.112341
vn 0.966531 -0.229154 0.112341
vn -0.350882 0.079570 -0.933240
vn -0.350882 0.079570 -0.933240
vn -0.350882 0.079570 -0.933240
vn -0.350882 0.079570 -0.933240
vn -0.141184 0.069861 -0.987607
vn -0.141184 0.069861 -0.987607
vn -0.141184 0.069861 -0.987607
vn -0.141184 0.069861 -0.987607
vn -0.396511 0.127140 -0.908970
vn -0.396511 0.127140 -0.908970
vn -0.396511 0.127140 -0.908970
vn -0.396511 0.127140 -0.908970
vn -0.404278 -0.133042 -0.905086
vn -0.404278 -0.133042 -0.905086
vn -0.404278 -0.133042 -0.905086
vn -0.404278 -0.133042 -0.905086
vn 0.983035 -0.133042 -0.126483
vn 0.980122 -0.157312 -0.120658
vn 0.984005 -0.114596 -0.137162
vn 0.980122 -0.157312 -0.120658
vn 0.987889 -0.066055 -0.142987
vn 0.986918 -0.052463 -0.152695
vn 0.985947 -0.155371 0.065741
vn 0.984005 -0.153429 0.093895
vn 0.984005 -0.153429 0.093895
vn 0.986918 -0.145662 0.070595
vn 0.987889 -0.147604 0.043412
vn 0.987889 -0.147604 0.043412
vn 0.984005 -0.179641 -0.022604
vn 0.984005 -0.179641 -0.022604
vn 0.984005 -0.179641 -0.022604
vn 0.984005 -0.179641 -0.022604
vn 0.984005 -0.024309 -0.177937
vn 0.984005 -0.024309 -0.177937
vn 0.984005 -0.024309 -0.177937
vn 0.984005 -0.024309 -0.177937
vn 0.987889 -0.029163 -0.153666
vn 0.986918 -0.052463 -0.152695
vn 0.987889 -0.029163 -0.153666
vn 0.987889 -0.066055 -0.142987
f 1/1/1 2/2/2 3/3/3
f 2/2/2 4/4/4 3/3/3
f 5/5/5 6/6/6 7/7/7
f 6/6/6 5/5/5 8/8/8
f 9/9/9 10/10/10 11/11/11
f 10/10/10 9/9/9 12/12/12
f 13/13/13 14/14/14 15/15/15
f 14/14/14 16/16/16 15/15/15
f 17/17/17 18/18/18 19/19/19
f 18/18/18 17/17/17 20/20/20
f 21/21/21 22/22/22 23/23/23
f 22/22/22 24/24/24 23/23/23
f 25/25/25 26/26/26 27/27/27
f 26/26/26 25/25/25 28/28/28
f 29/29/29 27/27/27 26/26/26
f 27/27/27 29/29/29 30/30/30
f 31/31/31 32/32/32 33/33/33
f 32/32/32 31/31/31 34/34/34
f 35/35/35 36/36/36 37/37/37
f 36/36/36 38/38/38 37/37/37
f 39/39/39 40/40/40 41/41/41
f 41/41/41 42/42/42 39/39/39
f 43/43/43 44/44/44 45/45/45
f 44/44/44 43/43/43 46/46/46
f 47/47/47 48/48/48 49/49/49
f 49/49/49 50/50/50 47/47/47
f 51/51/51 52/52/52 53/53/53
f 52/52/52 54/54/54 53/53/53
f 55/55/55 56/56/56 57/57/57
f 56/56/56 55/55/55 58/58/58
f 59/59/59 60/60/60 61/61/61
f 60/60/60 59/59/59 62/62/62
f 63/63/63 64/64/64 65/65/65
f 64/64/64 63/63/63 66/66/66
f 67/67/67 68/68/68 69/69/69
f 68/68/68 67/67/67 70/70/70
f 71/71/71 72/72/72 73/73/73
f 73/73/73 74/74/74 71/71/71
f 75/75/75 76/76/76 77/77/77
f 76/76/76 75/75/75 78/78/78
f 79/79/79 80/80/80 81/81/81
f 82/82/82 81/81/81 80/80/80
f 83/83/83 84/84/84 85/85/85
f 83/83/83 85/85/85 86/86/86
f 87/87/87 88/88/88 89/89/89
f 88/88/88 87/87/87 90/90/90
f 91/91/91 92/92/92 93/93/93
f 92/92/92 94/94/94 93/93/93
f 95/95/95 96/96/96 97/97/97
f 96/96/96 95/95/95 98/98/98
f 99/99/99 100/100/100 101/101/101
f 100/100/100 99/99/99 102/102/102
f 103/103/103 104/104/104 105/105/105
f 104/104/104 106/106/106 105/105/105
f 107/107/107 108/108/108 109/109/109
f 108/108/108 107/107/107 110/110/110
f 111/111/111 112/112/112 113/113/113
f 112/112/112 114/114/114 113/113/113
f 115/115/115 116/116/116 117/117/117
f 116/116/116 115/115/115 118/118/118
f 119/119/119 120/120/120 121/121/121
f 120/120/120 119/119/119 122/122/122
f 123/123/123 124/124/124 125/125/125
f 125/125/125 126/126/126 123/123/123
f 127/127/127 128/128/128 129/129/129
f 128/128/128 127/127/127 130/130/130
f 131/131/131 132/132/132 133/133/133
f 132/132/132 131/131/131 134/134/134
f 135/135/135 136/136/136 137/137/137
f 136/136/136 138/138/138 137/137/137
f 138/138/138 136/136/136 139/139/139
f 139/139/139 140/140/140 138/138/138
f 140/140/140 139/139/139 141/141/141
f 141/141/141 142/142/142 140/140/140
f 143/143/143 144/144/144 145/145/145
f 143/143/143 145/145/145 146/146/146
f 147/147/147 148/148/148 149/149/149
f 148/148/148 147/147/147 150/150/150
f 151/151/151 152/152/152 153/153/153
f 154/154/154 153/153/153 152/152/152
f 155/155/155 156/156/156 157/157/157
f 156/156/156 158/158/158 157/157/157
f 159/159/159 160/160/160 161/161/161
f 160/160/160 162/162/162 161/161/161
f 163/163/163 164/164/164 165/165/165
f 165/165/165 166/166/166 163/163/163
f 167/167/167 168/168/168 169/169/169
f 168/168/168 170/170/170 169/169/169
f 171/171/171 172/172/172 173/173/173
f 172/172/172 171/171/171 174/174/174
f 175/175/175 176/176/176 177/177/177
f 176/176/176 175/175/175 178/178/178
f 179/179/179 180/180/180 181/181/181
f 180/180/180 179/179/179 182/182/182
f 183/183/183 184/184/184 185/185/185
f 185/185/185 186/186/186 183/183/183
f 187/187/187 188/188/188 189/189/189
f 188/188/188 187/187/187 190/190/190
f 191/191/191 192/192/192 193/193/193
f 192/192/192 191/191/191 194/194/194
f 195/195/195 196/196/196 197/197/197
f 195/195/195 197/197/197 198/198/198
f 199/199/199 200/200/200 201/201/201
f 200/200/200 199/199/199 202/202/202
f 203/203/203 204/204/204 205/205/205
f 204/204/204 206/206/206 205/205/205
f 207/207/207 208/208/208 209/209/209
f 208/208/208 207/207/207 210/210/210
f 209/209/209 211/211/211 207/207/207
f 212/212/212 211/211/211 209/209/209
f 213/213/213 214/214/214 215/215/215
f 214/214/214 213/213/213 216/216/216
f 217/217/217 216/216/216 213/213/213
f 216/216/216 217/217/217 218/218/218
f 219/219/219 220/220/220 221/221/221
f 220/220/220 219/219/219 222/222/222
f 223/223/223 224/224/224 225/225/225
f 224/224/224 223/223/223 226/226/226
f 227/227/227 228/228/228 229/229/229
f 228/228/228 227/227/227 230/230/230
