# Generated from Roblox mesh JSON (v7.00)
# Hello from RBX_Toolbox ;)
o LeftLowerArm
v -0.172581 -0.319747 -0.123582
v -0.181128 -0.316037 -0.126465
v -0.178494 -0.316449 -0.128428
v -0.182358 -0.303599 -0.159390
v -0.175860 -0.316860 -0.130391
v -0.172497 -0.319080 -0.127138
v -0.172665 -0.320414 -0.120026
v -0.183009 -0.315387 -0.123428
v -0.174770 -0.319619 -0.116266
v -0.182634 -0.316575 -0.118331
v -0.184889 -0.314736 -0.120392
v -0.173717 -0.320017 -0.118146
v -0.198596 -0.297253 -0.154756
v -0.212295 -0.270687 -0.180977
v -0.227141 -0.268291 -0.154111
v -0.206856 -0.295958 -0.140123
v -0.182962 -0.282816 -0.189239
v -0.166119 -0.309946 -0.164024
v -0.215116 -0.294664 -0.125490
v -0.139238 -0.323991 -0.145380
v -0.137938 -0.326856 -0.128969
v -0.105028 -0.327799 -0.134089
v -0.106753 -0.322060 -0.162930
v -0.136637 -0.329722 -0.112557
v -0.103303 -0.333537 -0.105247
v -0.105028 -0.327799 -0.134089
v -0.080688 -0.315355 -0.133772
v -0.106753 -0.322060 -0.162930
v -0.153629 -0.294945 -0.197501
v -0.139619 -0.272533 -0.209575
v -0.153629 -0.294945 -0.197501
v -0.083251 -0.307694 -0.168663
v -0.209042 -0.299908 -0.107611
v -0.180378 -0.318414 -0.116269
v -0.193079 -0.310282 -0.084801
v -0.177574 -0.319017 -0.116268
v -0.202969 -0.305153 -0.089732
v -0.183190 -0.315412 -0.079871
v -0.202330 -0.296697 -0.055537
v -0.230970 -0.276304 -0.095626
v -0.219953 -0.286713 -0.064008
v -0.202330 -0.296697 -0.055537
v -0.177627 -0.288898 -0.025991
v -0.199265 -0.275761 -0.037174
v -0.184707 -0.306681 -0.047065
v -0.184707 -0.306681 -0.047065
v -0.117499 -0.331102 -0.081883
v -0.144667 -0.328437 -0.099349
v -0.103303 -0.333537 -0.105247
v -0.152697 -0.327152 -0.086141
v -0.131695 -0.328667 -0.058518
v -0.095274 -0.320202 -0.070055
v -0.131695 -0.328667 -0.058518
v -0.117499 -0.331102 -0.081883
v -0.131695 -0.328667 -0.058518
v -0.112423 -0.317386 -0.041228
v -0.112423 -0.317386 -0.041228
v -0.219953 -0.286713 -0.064008
v -0.227331 -0.238681 -0.156257
v -0.212295 -0.270687 -0.180977
v -0.227141 -0.268291 -0.154111
v -0.174517 -0.257004 -0.199195
v -0.182962 -0.282816 -0.189239
v -0.241987 -0.265895 -0.127245
v -0.241987 -0.265895 -0.127245
v -0.233075 -0.249255 -0.086028
v -0.230970 -0.276304 -0.095626
v -0.209415 -0.241476 -0.188815
v -0.245247 -0.235887 -0.123699
v -0.187794 -0.137047 -0.137244
v -0.166930 -0.142811 -0.176395
v -0.208341 -0.133816 -0.098384
v -0.155259 -0.048888 -0.121503
v -0.125135 -0.162449 -0.190692
v -0.078531 -0.184794 -0.201009
v -0.083566 -0.077388 -0.181637
v -0.131738 -0.055336 -0.166959
v -0.099175 0.029354 -0.155821
v -0.125797 0.036192 -0.105974
v -0.068224 0.111882 -0.143898
v -0.177240 -0.045426 -0.076902
v -0.097626 0.118649 -0.090184
v -0.197694 -0.146131 -0.055738
v -0.220903 -0.262623 -0.048357
v -0.187632 -0.159971 -0.013223
v -0.152212 -0.177751 0.004644
v -0.164912 -0.058309 -0.029954
v -0.137222 0.024498 -0.005281
v -0.150506 0.039125 -0.056937
v -0.153750 -0.073940 0.017338
v -0.111005 -0.098671 0.039286
v -0.110305 -0.200757 0.020046
v -0.124914 0.005665 0.046948
v -0.099050 0.082719 0.074732
v -0.076205 -0.023213 0.071904
v -0.112148 0.103164 0.017667
v -0.125569 0.119282 -0.038179
v -0.102237 0.199403 -0.019616
v -0.072544 0.198903 -0.076071
v -0.090006 0.180064 0.040892
v -0.076004 0.158167 0.104171
v -0.078125 -0.323018 -0.098881
v -0.018553 -0.223025 -0.123882
v -0.031612 -0.212064 -0.170636
v -0.012145 -0.232281 -0.079745
v -0.029686 -0.228212 -0.039765
v -0.032196 -0.102023 -0.192695
v -0.046324 0.005959 -0.171894
v 0.016686 -0.129935 -0.168134
v 0.008868 -0.019674 -0.184551
v -0.011203 0.087980 -0.161916
v 0.035896 -0.145706 -0.115826
v 0.060799 -0.048412 -0.160824
v 0.082699 -0.066617 -0.104444
v 0.045115 -0.159197 -0.062306
v 0.093952 -0.082470 -0.044967
v 0.048041 0.062203 -0.176359
v 0.103806 0.033131 -0.152105
v 0.127408 0.013659 -0.091969
v 0.140094 -0.003256 -0.027670
v 0.168687 0.097127 -0.077954
v -0.053799 -0.224294 0.000229
v -0.053799 -0.224294 0.000229
v 0.023490 -0.156318 -0.011484
v -0.007938 -0.152063 0.035929
v -0.062825 -0.128650 0.055891
v -0.007938 -0.152063 0.035929
v -0.022167 -0.056079 0.090004
v -0.044763 0.052745 0.103444
v 0.036416 -0.079066 0.067283
v 0.016426 0.018451 0.124004
v 0.055551 0.095707 0.160736
v 0.070467 -0.081599 0.013142
v 0.036416 -0.079066 0.067283
v 0.116296 -0.004189 0.036541
v 0.161210 0.079144 0.057344
v 0.081338 -0.003896 0.097537
v 0.183389 0.081370 -0.010875
v 0.081338 -0.003896 0.097537
v 0.127859 0.077343 0.124851
v 0.127859 0.077343 0.124851
v 0.021096 0.168454 -0.153879
v 0.084967 0.143867 -0.169256
v -0.040405 0.192332 -0.133639
v -0.012419 0.264287 -0.119182
v 0.008308 0.326524 -0.104819
v 0.050059 0.242618 -0.139407
v -0.045370 0.270790 -0.060433
v 0.071512 0.310329 -0.123417
v -0.075149 0.273765 -0.001870
v -0.025724 0.331587 -0.047258
v 0.143982 0.116066 -0.141286
v 0.175020 0.198873 -0.125488
v 0.200992 0.182929 -0.062089
v 0.218629 0.170639 0.004788
v 0.115191 0.222087 -0.154453
v 0.135564 0.294669 -0.137635
v 0.194280 0.278648 -0.110578
v 0.223421 0.268518 -0.049829
v 0.245247 0.259519 0.016127
v -0.062657 0.256578 0.060904
v -0.047482 0.236614 0.127567
v -0.015791 0.129217 0.137431
v 0.017293 0.208854 0.162121
v -0.043668 0.321420 0.075754
v -0.056936 0.333537 0.011461
v -0.026216 0.309596 0.145966
v 0.043321 0.286249 0.183679
v 0.199536 0.170039 0.073443
v 0.170935 0.167710 0.143881
v 0.093454 0.179687 0.186540
v 0.170935 0.167710 0.143881
v 0.229050 0.258010 0.086189
v 0.202475 0.251963 0.160485
v 0.125050 0.261791 0.209575
v 0.202475 0.251963 0.160485
vt 0.202310 0.301657
vt 0.207197 0.302880
vt 0.206253 0.302913
vt 0.224723 0.330632
vt 0.205308 0.302947
vt 0.202343 0.302886
vt 0.202277 0.300428
vt 0.207219 0.301667
vt 0.202325 0.298231
vt 0.205962 0.299318
vt 0.207242 0.300455
vt 0.202301 0.299329
vt 0.236858 0.330616
vt 0.263838 0.360908
vt 0.265179 0.329051
vt 0.236869 0.314720
vt 0.241853 0.359631
vt 0.212588 0.330649
vt 0.236879 0.298825
vt 0.173693 0.330618
vt 0.173677 0.314789
vt 0.145043 0.327923
vt 0.145043 0.358353
vt 0.173662 0.298959
vt 0.127697 0.368772
vt 0.188913 0.368772
vt 0.188913 0.375185
vt 0.250127 0.368772
vt 0.219867 0.358353
vt 0.338452 0.375185
vt 0.338452 0.368772
vt 0.250127 0.375185
vt 0.236850 0.284591
vt 0.204681 0.298181
vt 0.220342 0.270348
vt 0.203503 0.298206
vt 0.236820 0.270359
vt 0.203864 0.270338
vt 0.234781 0.242497
vt 0.266520 0.269846
vt 0.266520 0.242497
vt 0.817938 0.368772
vt 0.891774 0.375185
vt 0.817938 0.375185
vt 0.203043 0.242497
vt 0.891774 0.368772
vt 0.145043 0.269995
vt 0.173674 0.284662
vt 0.145043 0.297493
vt 0.173686 0.270365
vt 0.145043 0.242497
vt 0.068475 0.375185
vt 0.009252 0.368772
vt 0.068475 0.368772
vt 0.977097 0.368772
vt 0.977097 0.375185
vt 0.009252 0.375185
vt 0.734610 0.368772
vt 0.551649 0.375185
vt 0.492746 0.368772
vt 0.551649 0.368772
vt 0.406922 0.375185
vt 0.406922 0.368772
vt 0.610551 0.368772
vt 0.266520 0.297194
vt 0.672581 0.375185
vt 0.672581 0.368772
vt 0.492746 0.375185
vt 0.610551 0.375185
vt 0.551649 0.401421
vt 0.492746 0.401420
vt 0.610551 0.401422
vt 0.551649 0.441266
vt 0.406922 0.401417
vt 0.338452 0.401415
vt 0.406922 0.441258
vt 0.492746 0.441264
vt 0.492746 0.458230
vt 0.551649 0.458233
vt 0.492746 0.475195
vt 0.610551 0.441268
vt 0.551649 0.475199
vt 0.672581 0.401423
vt 0.734610 0.375185
vt 0.734610 0.401424
vt 0.817938 0.401422
vt 0.672581 0.441270
vt 0.672581 0.458238
vt 0.610551 0.458236
vt 0.734610 0.441272
vt 0.817938 0.441268
vt 0.891774 0.401420
vt 0.734610 0.458240
vt 0.734610 0.475208
vt 0.817938 0.458236
vt 0.672581 0.475205
vt 0.610551 0.475203
vt 0.610551 0.509139
vt 0.551649 0.509134
vt 0.672581 0.509141
vt 0.734610 0.509143
vt 0.127697 0.375185
vt 0.188913 0.401412
vt 0.250127 0.401412
vt 0.127697 0.401412
vt 0.068475 0.401414
vt 0.338452 0.441254
vt 0.406922 0.458223
vt 0.250127 0.441250
vt 0.338452 0.458219
vt 0.406922 0.475188
vt 0.188913 0.441249
vt 0.250127 0.458213
vt 0.188913 0.458212
vt 0.127697 0.441248
vt 0.127697 0.458211
vt 0.338452 0.475183
vt 0.250127 0.475177
vt 0.188913 0.475175
vt 0.127697 0.475173
vt 0.188913 0.509101
vt 0.977097 0.401416
vt 0.009252 0.401416
vt 0.068475 0.441251
vt 0.009252 0.441254
vt 0.891774 0.441264
vt 0.977097 0.441254
vt 0.891774 0.458231
vt 0.817938 0.475204
vt 0.977095 0.458218
vt 0.891773 0.475197
vt 0.891774 0.509129
vt 0.068473 0.458214
vt 0.009248 0.458218
vt 0.068471 0.475178
vt 0.068475 0.509105
vt 0.009245 0.475183
vt 0.127697 0.509099
vt 0.977093 0.475183
vt 0.009252 0.509111
vt 0.977097 0.509111
vt 0.406922 0.509120
vt 0.338452 0.509112
vt 0.492746 0.509128
vt 0.492746 0.524905
vt 0.492746 0.540681
vt 0.406922 0.524900
vt 0.551649 0.524908
vt 0.406922 0.540681
vt 0.610551 0.524910
vt 0.551649 0.540681
vt 0.250127 0.509103
vt 0.250127 0.524892
vt 0.188913 0.524891
vt 0.127697 0.524890
vt 0.338452 0.524896
vt 0.338452 0.540681
vt 0.250127 0.540681
vt 0.188913 0.540681
vt 0.127697 0.540681
vt 0.672581 0.524911
vt 0.734610 0.524912
vt 0.817938 0.509137
vt 0.817937 0.524909
vt 0.672581 0.540681
vt 0.610551 0.540681
vt 0.734610 0.540681
vt 0.817937 0.540681
vt 0.068469 0.524892
vt 0.009241 0.524896
vt 0.891771 0.524905
vt 0.977086 0.524896
vt 0.068464 0.540681
vt 0.009231 0.540681
vt 0.891768 0.540681
vt 0.977076 0.540681
vn -0.282223 -0.945804 -0.162569
vn -0.430005 -0.880123 -0.202171
vn -0.371085 -0.895577 -0.243704
vn -0.426141 -0.807681 -0.406941
vn -0.351767 -0.887850 -0.294897
vn -0.294779 -0.927452 -0.229216
vn -0.298643 -0.951599 -0.074673
vn -0.476368 -0.871430 -0.117172
vn -0.380744 -0.923588 -0.036037
vn -0.348870 -0.876259 -0.332567
vn -0.512106 -0.845351 -0.153876
vn -0.308302 -0.950633 -0.034105
vn -0.532389 -0.762284 -0.368305
vn -0.658922 -0.394278 -0.640687
vn -0.825055 -0.368199 -0.427224
vn -0.611593 -0.745864 -0.264954
vn -0.420346 -0.511151 -0.749833
vn -0.332449 -0.848248 -0.412736
vn -0.651194 -0.745864 -0.141320
vn -0.166316 -0.945804 -0.279443
vn -0.143134 -0.974780 -0.172228
vn 0.199758 -0.958360 -0.202171
vn 0.177543 -0.870464 -0.459099
vn -0.154725 -0.984439 -0.083366
vn 0.192031 -0.981542 -0.014788
vn 0.199758 -0.958360 -0.202171
vn 0.669183 -0.702398 -0.240807
vn 0.177543 -0.870464 -0.459099
vn -0.179838 -0.618366 -0.765287
vn 0.043283 -0.229110 -0.971989
vn -0.179838 -0.618366 -0.765287
vn 0.562934 -0.602911 -0.565347
vn -0.638638 -0.769045 -0.019617
vn -0.331483 -0.915861 -0.225352
vn -0.484095 -0.865634 0.128165
vn -0.273530 -0.920690 -0.277511
vn -0.588411 -0.804783 0.078904
vn -0.416482 -0.898475 0.139755
vn -0.595173 -0.665694 0.450773
vn -0.883009 -0.442573 0.157142
vn -0.768068 -0.543992 0.338730
vn -0.595173 -0.665694 0.450773
vn -0.319893 -0.458993 0.829404
vn -0.544946 -0.312177 0.777245
vn -0.427107 -0.766147 0.479750
vn -0.427107 -0.766147 0.479750
vn 0.097373 -0.983474 0.154244
vn -0.180804 -0.983474 -0.008992
vn 0.192031 -0.981542 -0.014788
vn -0.255178 -0.964156 0.072143
vn -0.055238 -0.932281 0.358047
vn 0.492424 -0.781602 0.383161
vn -0.055238 -0.932281 0.358047
vn 0.097373 -0.983474 0.154244
vn -0.055238 -0.932281 0.358047
vn 0.246121 -0.720750 0.647816
vn 0.246121 -0.720750 0.647816
vn -0.768068 -0.543992 0.338730
vn -0.856930 0.181395 -0.482280
vn -0.658922 -0.394278 -0.640687
vn -0.825055 -0.368199 -0.427224
vn -0.277393 -0.024341 -0.960398
vn -0.420346 -0.511151 -0.749833
vn -0.927440 -0.348881 -0.138422
vn -0.927440 -0.348881 -0.138422
vn -0.955451 0.024920 0.293333
vn -0.883009 -0.442573 0.157142
vn -0.611593 0.116680 -0.782673
vn -0.984428 0.141793 -0.104616
vn -0.797044 0.394857 -0.456201
vn -0.543980 0.313722 -0.778810
vn -0.934201 0.351392 -0.060185
vn -0.806703 0.375539 -0.456201
vn -0.183702 0.182361 -0.966193
vn 0.156293 -0.010818 -0.987443
vn -0.173077 0.186224 -0.967159
vn -0.547844 0.307927 -0.777844
vn -0.542048 0.312756 -0.779776
vn -0.812499 0.363949 -0.456201
vn -0.551707 0.300200 -0.777844
vn -0.941928 0.328211 -0.074673
vn -0.813465 0.351392 -0.463928
vn -0.921645 0.232587 0.310719
vn -0.800908 -0.128657 0.585033
vn -0.773863 0.062590 0.630430
vn -0.471538 -0.144112 0.869971
vn -0.922611 0.239348 0.302026
vn -0.930338 0.216167 0.294298
vn -0.946758 0.312756 -0.074673
vn -0.776761 0.064521 0.626566
vn -0.458016 -0.153771 0.875767
vn -0.174043 -0.352745 0.919232
vn -0.781590 0.044238 0.622702
vn -0.793181 0.023954 0.608214
vn -0.460913 -0.164395 0.871903
vn -0.937099 0.204576 0.281742
vn -0.949656 0.302131 -0.088196
vn -0.942894 0.320483 -0.091093
vn -0.805737 0.375539 -0.458133
vn -0.933235 0.228723 0.276912
vn -0.785454 0.054863 0.615941
vn 0.632479 -0.772909 0.049927
vn 0.810203 -0.513083 -0.283306
vn 0.658558 -0.369165 -0.655175
vn 0.786056 -0.612570 0.077938
vn 0.663387 -0.620297 0.417933
vn 0.140839 0.011397 -0.990341
vn -0.174043 0.190088 -0.966193
vn 0.637308 -0.312177 -0.704436
vn 0.119589 0.036511 -0.992272
vn -0.190463 0.187190 -0.963295
vn 0.812135 -0.472516 -0.341260
vn 0.633445 -0.264848 -0.727617
vn 0.834351 -0.419391 -0.357680
vn 0.814067 -0.578764 0.046064
vn 0.844975 -0.534333 0.023848
vn 0.114760 0.041340 -0.992272
vn 0.643104 -0.238769 -0.727617
vn 0.848839 -0.391381 -0.355748
vn 0.874918 -0.484106 0.014189
vn 0.875884 -0.323768 -0.358646
vn 0.386176 -0.595184 0.704803
vn 0.386176 -0.595184 0.704803
vn 0.690432 -0.602911 0.399581
vn 0.401630 -0.580696 0.707701
vn -0.142168 -0.350813 0.925993
vn 0.401630 -0.580696 0.707701
vn -0.143134 -0.351779 0.925027
vn -0.464777 -0.178884 0.867074
vn 0.443164 -0.555582 0.703838
vn -0.102567 -0.371097 0.923095
vn -0.035920 -0.334393 0.941447
vn 0.731966 -0.563310 0.383161
vn 0.443164 -0.555582 0.703838
vn 0.770602 -0.531435 0.351286
vn 0.825658 -0.465754 0.319412
vn 0.495322 -0.543026 0.677758
vn 0.906793 -0.422289 -0.008992
vn 0.495322 -0.543026 0.677758
vn 0.581286 -0.486038 0.651679
vn 0.581286 -0.486038 0.651679
vn -0.190463 0.217133 -0.957500
vn 0.136009 0.085771 -0.987443
vn -0.539151 0.328211 -0.775912
vn -0.479265 0.352358 -0.803923
vn -0.542048 0.285711 -0.790400
vn -0.142168 0.227758 -0.963295
vn -0.803806 0.373608 -0.462962
vn -0.224269 0.106055 -0.969091
vn -0.938065 0.331108 -0.104616
vn -0.826987 0.322415 -0.461031
vn 0.677876 -0.178884 -0.713129
vn 0.690432 -0.144112 -0.709265
vn 0.878782 -0.267746 -0.395350
vn 0.940599 -0.338256 -0.032174
vn 0.241292 0.120543 -0.963295
vn 0.074192 0.015261 -0.997102
vn 0.717477 -0.001159 -0.696709
vn 0.908724 -0.244565 -0.337396
vn 0.956053 -0.291893 -0.028310
vn -0.922611 0.262530 0.282708
vn -0.791249 0.066453 0.608214
vn -0.449323 -0.150873 0.880596
vn -0.431936 -0.143146 0.890255
vn -0.947724 0.215201 0.235379
vn -0.950622 0.296336 -0.087230
vn -0.758409 0.020090 0.650713
vn -0.400062 -0.179850 0.898948
vn 0.872020 -0.392346 0.293333
vn 0.670149 -0.434846 0.600487
vn 0.014307 -0.321836 0.946277
vn 0.670149 -0.434846 0.600487
vn 0.885543 -0.362404 0.289469
vn 0.657592 -0.422289 0.623668
vn 0.191065 -0.055249 0.980083
vn 0.657592 -0.422289 0.623668
f 1/1/1 2/2/2 3/3/3
f 2/2/2 1/1/1 7/7/7
f 3/3/3 6/6/6 1/1/1
f 21/21/21 1/1/1 6/6/6
f 21/21/21 7/7/7 1/1/1
f 6/6/6 3/3/3 5/5/5
f 6/6/6 20/20/20 21/21/21
f 20/20/20 6/6/6 5/5/5
f 3/3/3 4/4/4 5/5/5
f 22/22/22 21/21/21 20/20/20
f 23/23/23 22/22/22 20/20/20
f 29/29/29 23/23/23 20/20/20
f 22/22/22 24/24/24 21/21/21
f 7/7/7 21/21/21 24/24/24
f 24/24/24 22/22/22 49/49/49
f 47/47/47 24/24/24 49/49/49
f 29/29/29 20/20/20 18/18/18
f 5/5/5 18/18/18 20/20/20
f 5/5/5 4/4/4 18/18/18
f 18/18/18 17/17/17 29/29/29
f 4/4/4 17/17/17 18/18/18
f 4/4/4 14/14/14 17/17/17
f 13/13/13 14/14/14 4/4/4
f 3/3/3 13/13/13 4/4/4
f 15/15/15 14/14/14 13/13/13
f 2/2/2 13/13/13 3/3/3
f 15/15/15 13/13/13 16/16/16
f 13/13/13 2/2/2 16/16/16
f 65/65/65 15/15/15 16/16/16
f 16/16/16 2/2/2 8/8/8
f 7/7/7 8/8/8 2/2/2
f 65/65/65 16/16/16 19/19/19
f 19/19/19 40/40/40 65/65/65
f 11/11/11 16/16/16 8/8/8
f 16/16/16 11/11/11 19/19/19
f 8/8/8 7/7/7 12/12/12
f 11/11/11 33/33/33 19/19/19
f 40/40/40 19/19/19 33/33/33
f 8/8/8 9/9/9 11/11/11
f 9/9/9 8/8/8 12/12/12
f 7/7/7 48/48/48 12/12/12
f 12/12/12 48/48/48 9/9/9
f 48/48/48 7/7/7 24/24/24
f 24/24/24 47/47/47 48/48/48
f 48/48/48 47/47/47 50/50/50
f 9/9/9 48/48/48 50/50/50
f 47/47/47 51/51/51 50/50/50
f 45/45/45 50/50/50 51/51/51
f 50/50/50 45/45/45 38/38/38
f 9/9/9 50/50/50 38/38/38
f 45/45/45 39/39/39 38/38/38
f 9/9/9 10/10/10 11/11/11
f 10/10/10 33/33/33 11/11/11
f 38/38/38 36/36/36 9/9/9
f 10/10/10 9/9/9 36/36/36
f 39/39/39 35/35/35 38/38/38
f 36/36/36 38/38/38 35/35/35
f 41/41/41 35/35/35 39/39/39
f 10/10/10 36/36/36 34/34/34
f 34/34/34 33/33/33 10/10/10
f 35/35/35 34/34/34 36/36/36
f 33/33/33 34/34/34 37/37/37
f 34/34/34 35/35/35 37/37/37
f 35/35/35 41/41/41 37/37/37
f 37/37/37 40/40/40 33/33/33
f 40/40/40 37/37/37 41/41/41
f 25/25/25 26/26/26 27/27/27
f 28/28/28 27/27/27 26/26/26
f 102/102/102 25/25/25 27/27/27
f 52/52/52 25/25/25 102/102/102
f 25/25/25 52/52/52 54/54/54
f 52/52/52 53/53/53 54/54/54
f 53/53/53 52/52/52 57/57/57
f 102/102/102 105/105/105 52/52/52
f 105/105/105 102/102/102 27/27/27
f 52/52/52 106/106/106 57/57/57
f 106/106/106 52/52/52 105/105/105
f 123/123/123 57/57/57 106/106/106
f 124/124/124 123/123/123 106/106/106
f 123/123/123 124/124/124 125/125/125
f 115/115/115 106/106/106 105/105/105
f 106/106/106 115/115/115 124/124/124
f 27/27/27 103/103/103 105/105/105
f 115/115/115 105/105/105 103/103/103
f 103/103/103 27/27/27 32/32/32
f 27/27/27 28/28/28 32/32/32
f 124/124/124 133/133/133 125/125/125
f 134/134/134 125/125/125 133/133/133
f 115/115/115 116/116/116 124/124/124
f 133/133/133 124/124/124 116/116/116
f 103/103/103 112/112/112 115/115/115
f 112/112/112 116/116/116 115/115/115
f 112/112/112 103/103/103 104/104/104
f 32/32/32 104/104/104 103/103/103
f 133/133/133 135/135/135 134/134/134
f 137/137/137 134/134/134 135/135/135
f 116/116/116 120/120/120 133/133/133
f 135/135/135 133/133/133 120/120/120
f 116/116/116 112/112/112 114/114/114
f 114/114/114 120/120/120 116/116/116
f 104/104/104 109/109/109 112/112/112
f 109/109/109 114/114/114 112/112/112
f 75/75/75 109/109/109 104/104/104
f 32/32/32 75/75/75 104/104/104
f 114/114/114 109/109/109 113/113/113
f 120/120/120 114/114/114 119/119/119
f 113/113/113 119/119/119 114/114/114
f 138/138/138 120/120/120 119/119/119
f 120/120/120 138/138/138 135/135/135
f 119/119/119 113/113/113 118/118/118
f 107/107/107 113/113/113 109/109/109
f 107/107/107 109/109/109 75/75/75
f 136/136/136 135/135/135 138/138/138
f 135/135/135 136/136/136 137/137/137
f 140/140/140 137/137/137 136/136/136
f 119/119/119 121/121/121 138/138/138
f 121/121/121 119/119/119 118/118/118
f 138/138/138 155/155/155 136/136/136
f 155/155/155 138/138/138 121/121/121
f 136/136/136 169/169/169 140/140/140
f 169/169/169 136/136/136 155/155/155
f 170/170/170 140/140/140 169/169/169
f 170/170/170 169/169/169 173/173/173
f 174/174/174 170/170/170 173/173/173
f 173/173/173 169/169/169 160/160/160
f 169/169/169 155/155/155 160/160/160
f 160/160/160 155/155/155 154/154/154
f 121/121/121 154/154/154 155/155/155
f 160/160/160 154/154/154 159/159/159
f 154/154/154 121/121/121 152/152/152
f 118/118/118 152/152/152 121/121/121
f 159/159/159 154/154/154 153/153/153
f 152/152/152 153/153/153 154/154/154
f 159/159/159 153/153/153 158/158/158
f 156/156/156 158/158/158 153/153/153
f 156/156/156 157/157/157 158/158/158
f 156/156/156 149/149/149 157/157/157
f 143/143/143 156/156/156 153/153/153
f 143/143/143 153/153/153 152/152/152
f 149/149/149 156/156/156 147/147/147
f 143/143/143 147/147/147 156/156/156
f 147/147/147 146/146/146 149/149/149
f 143/143/143 152/152/152 117/117/117
f 117/117/117 152/152/152 118/118/118
f 147/147/147 143/143/143 142/142/142
f 117/117/117 142/142/142 143/143/143
f 146/146/146 147/147/147 145/145/145
f 142/142/142 145/145/145 147/147/147
f 148/148/148 146/146/146 145/145/145
f 151/151/151 146/146/146 148/148/148
f 117/117/117 118/118/118 110/110/110
f 110/110/110 118/118/118 113/113/113
f 110/110/110 113/113/113 107/107/107
f 110/110/110 111/111/111 117/117/117
f 142/142/142 117/117/117 111/111/111
f 107/107/107 108/108/108 110/110/110
f 111/111/111 110/110/110 108/108/108
f 108/108/108 107/107/107 76/76/76
f 75/75/75 76/76/76 107/107/107
f 78/78/78 111/111/111 108/108/108
f 80/80/80 142/142/142 111/111/111
f 78/78/78 80/80/80 111/111/111
f 80/80/80 144/144/144 142/142/142
f 145/145/145 142/142/142 144/144/144
f 77/77/77 108/108/108 76/76/76
f 77/77/77 78/78/78 108/108/108
f 99/99/99 145/145/145 144/144/144
f 148/148/148 145/145/145 99/99/99
f 82/82/82 144/144/144 80/80/80
f 82/82/82 99/99/99 144/144/144
f 79/79/79 80/80/80 78/78/78
f 79/79/79 82/82/82 80/80/80
f 73/73/73 78/78/78 77/77/77
f 73/73/73 79/79/79 78/78/78
f 71/71/71 77/77/77 76/76/76
f 70/70/70 73/73/73 77/77/77
f 70/70/70 77/77/77 71/71/71
f 72/72/72 73/73/73 70/70/70
f 81/81/81 79/79/79 73/73/73
f 72/72/72 81/81/81 73/73/73
f 89/89/89 82/82/82 79/79/79
f 81/81/81 89/89/89 79/79/79
f 89/89/89 97/97/97 82/82/82
f 97/97/97 99/99/99 82/82/82
f 81/81/81 88/88/88 89/89/89
f 97/97/97 98/98/98 99/99/99
f 98/98/98 148/148/148 99/99/99
f 89/89/89 96/96/96 97/97/97
f 96/96/96 89/89/89 88/88/88
f 97/97/97 100/100/100 98/98/98
f 100/100/100 97/97/97 96/96/96
f 150/150/150 148/148/148 98/98/98
f 150/150/150 151/151/151 148/148/148
f 166/166/166 151/151/151 150/150/150
f 150/150/150 165/165/165 166/166/166
f 98/98/98 161/161/161 150/150/150
f 165/165/165 150/150/150 161/161/161
f 161/161/161 98/98/98 100/100/100
f 162/162/162 165/165/165 161/161/161
f 100/100/100 162/162/162 161/161/161
f 165/165/165 162/162/162 167/167/167
f 162/162/162 168/168/168 167/167/167
f 162/162/162 100/100/100 101/101/101
f 96/96/96 101/101/101 100/100/100
f 168/168/168 162/162/162 164/164/164
f 101/101/101 164/164/164 162/162/162
f 101/101/101 96/96/96 94/94/94
f 171/171/171 168/168/168 164/164/164
f 88/88/88 94/94/94 96/96/96
f 168/168/168 171/171/171 175/175/175
f 172/172/172 175/175/175 171/171/171
f 175/175/175 172/172/172 176/176/176
f 171/171/171 141/141/141 172/172/172
f 141/141/141 171/171/171 132/132/132
f 164/164/164 132/132/132 171/171/171
f 141/141/141 132/132/132 139/139/139
f 164/164/164 101/101/101 163/163/163
f 132/132/132 164/164/164 163/163/163
f 94/94/94 163/163/163 101/101/101
f 139/139/139 132/132/132 131/131/131
f 139/139/139 131/131/131 130/130/130
f 129/129/129 132/132/132 163/163/163
f 163/163/163 94/94/94 129/129/129
f 132/132/132 129/129/129 131/131/131
f 130/130/130 131/131/131 128/128/128
f 130/130/130 128/128/128 127/127/127
f 95/95/95 131/131/131 129/129/129
f 131/131/131 95/95/95 128/128/128
f 93/93/93 129/129/129 94/94/94
f 129/129/129 93/93/93 95/95/95
f 94/94/94 88/88/88 93/93/93
f 127/127/127 128/128/128 126/126/126
f 127/127/127 126/126/126 122/122/122
f 91/91/91 128/128/128 95/95/95
f 128/128/128 91/91/91 126/126/126
f 90/90/90 95/95/95 93/93/93
f 95/95/95 90/90/90 91/91/91
f 87/87/87 93/93/93 88/88/88
f 93/93/93 87/87/87 90/90/90
f 88/88/88 81/81/81 87/87/87
f 72/72/72 87/87/87 81/81/81
f 122/122/122 126/126/126 92/92/92
f 126/126/126 91/91/91 92/92/92
f 56/56/56 122/122/122 92/92/92
f 56/56/56 92/92/92 43/43/43
f 56/56/56 43/43/43 55/55/55
f 43/43/43 46/46/46 55/55/55
f 43/43/43 42/42/42 46/46/46
f 42/42/42 43/43/43 44/44/44
f 44/44/44 58/58/58 42/42/42
f 43/43/43 92/92/92 86/86/86
f 43/43/43 86/86/86 44/44/44
f 92/92/92 91/91/91 86/86/86
f 44/44/44 84/84/84 58/58/58
f 86/86/86 84/84/84 44/44/44
f 66/66/66 58/58/58 84/84/84
f 58/58/58 66/66/66 67/67/67
f 84/84/84 86/86/86 85/85/85
f 91/91/91 85/85/85 86/86/86
f 85/85/85 66/66/66 84/84/84
f 85/85/85 91/91/91 90/90/90
f 66/66/66 64/64/64 67/67/67
f 90/90/90 83/83/83 85/85/85
f 66/66/66 85/85/85 83/83/83
f 83/83/83 90/90/90 87/87/87
f 87/87/87 72/72/72 83/83/83
f 83/83/83 69/69/69 66/66/66
f 69/69/69 83/83/83 72/72/72
f 64/64/64 66/66/66 69/69/69
f 69/69/69 72/72/72 70/70/70
f 69/69/69 59/59/59 64/64/64
f 69/69/69 70/70/70 59/59/59
f 64/64/64 59/59/59 61/61/61
f 59/59/59 60/60/60 61/61/61
f 59/59/59 70/70/70 71/71/71
f 60/60/60 59/59/59 68/68/68
f 59/59/59 71/71/71 68/68/68
f 68/68/68 62/62/62 60/60/60
f 71/71/71 62/62/62 68/68/68
f 60/60/60 62/62/62 63/63/63
f 62/62/62 31/31/31 63/63/63
f 62/62/62 71/71/71 74/74/74
f 71/71/71 76/76/76 74/74/74
f 76/76/76 75/75/75 74/74/74
f 74/74/74 30/30/30 62/62/62
f 31/31/31 62/62/62 30/30/30
f 30/30/30 74/74/74 75/75/75
f 30/30/30 28/28/28 31/31/31
f 75/75/75 32/32/32 30/30/30
f 30/30/30 32/32/32 28/28/28
