# Generated from Roblox mesh JSON (v7.00)
# Hello from RBX_Toolbox ;)
o LeftHand_inner_cage
v -0.133102 -0.118799 -0.225830
v -0.214039 -0.165071 -0.167047
v -0.208518 -0.076588 -0.235949
v -0.128456 -0.200364 -0.156506
v -0.128456 -0.200364 -0.156506
v -0.203336 -0.195622 -0.058152
v -0.214039 -0.165071 -0.167047
v -0.105410 -0.226371 -0.051164
v -0.083583 0.112760 0.220780
v 0.070902 0.071231 0.231682
v -0.045914 0.152453 0.220828
v 0.135404 0.110579 0.235949
v -0.105410 -0.226371 -0.051164
v -0.178517 -0.188039 0.053478
v -0.203336 -0.195622 -0.058152
v -0.077494 -0.213100 0.048517
v -0.125274 0.041505 0.207255
v 0.019245 -0.002096 0.207847
v -0.083583 0.112760 0.220780
v 0.070902 0.071231 0.231682
v -0.178517 -0.188039 0.053478
v -0.051816 -0.139730 0.130159
v -0.172768 -0.100758 0.121125
v -0.077494 -0.213100 0.048517
v -0.015146 -0.064962 0.178219
v -0.125274 0.041505 0.207255
v -0.157493 -0.018822 0.171211
v 0.019245 -0.002096 0.207847
v -0.051816 -0.139730 0.130159
v -0.157493 -0.018822 0.171211
v -0.172768 -0.100758 0.121125
v -0.015146 -0.064962 0.178219
v 0.021215 0.094398 -0.180951
v 0.160655 0.118401 -0.072571
v 0.099531 0.049124 -0.140346
v 0.018893 0.176973 -0.111149
v 0.084569 0.210708 -0.023056
v 0.160655 0.118401 -0.072571
v 0.018893 0.176973 -0.111149
v 0.169240 0.184443 -0.016439
v -0.011933 -0.028453 -0.228405
v 0.099531 0.049124 -0.140346
v 0.033202 -0.057500 -0.180046
v 0.021215 0.094398 -0.180951
v 0.160655 0.118401 -0.072571
v 0.204303 0.149813 0.027109
v 0.147588 0.052262 0.017603
v 0.169240 0.184443 -0.016439
v -0.220610 -0.019542 -0.081426
v -0.214039 -0.165071 -0.167047
v -0.203336 -0.195622 -0.058152
v -0.209133 -0.052529 0.001997
v -0.220610 -0.019542 -0.081426
v -0.208518 -0.076588 -0.235949
v -0.214039 -0.165071 -0.167047
v -0.182260 0.030671 -0.184127
v -0.172768 -0.100758 0.121125
v -0.209133 -0.052529 0.001997
v -0.178517 -0.188039 0.053478
v -0.203336 -0.195622 -0.058152
v 0.018893 0.176973 -0.111149
v 0.006516 0.226371 0.004136
v 0.084569 0.210708 -0.023056
v -0.055289 0.179003 -0.036085
v -0.050100 0.183531 0.178501
v -0.083583 0.112760 0.220780
v -0.045914 0.152453 0.220828
v -0.106677 0.144149 0.093852
v -0.057174 0.127813 -0.123460
v 0.021215 0.094398 -0.180951
v -0.055625 0.074374 -0.158005
v 0.018893 0.176973 -0.111149
v -0.055289 0.179003 -0.036085
v -0.057174 0.127813 -0.123460
v -0.095482 0.140160 -0.083242
v 0.018893 0.176973 -0.111149
v -0.180079 0.030971 0.031951
v -0.172768 -0.100758 0.121125
v -0.157493 -0.018822 0.171211
v -0.209133 -0.052529 0.001997
v -0.055625 0.074374 -0.158005
v -0.011933 -0.028453 -0.228405
v -0.048345 -0.029138 -0.202381
v 0.021215 0.094398 -0.180951
v -0.150298 0.092510 0.057532
v -0.125274 0.041505 0.207255
v -0.106677 0.144149 0.093852
v -0.083583 0.112760 0.220780
v -0.150298 0.092510 0.057532
v -0.157493 -0.018822 0.171211
v -0.125274 0.041505 0.207255
v -0.180079 0.030971 0.031951
v -0.209133 -0.052529 0.001997
v -0.179246 0.061666 -0.035970
v -0.220610 -0.019542 -0.081426
v -0.180079 0.030971 0.031951
v -0.048445 0.204526 0.082199
v 0.006516 0.226371 0.004136
v -0.082869 0.161368 0.020381
v -0.055289 0.179003 -0.036085
v -0.131833 0.095487 -0.123658
v -0.220610 -0.019542 -0.081426
v -0.179246 0.061666 -0.035970
v -0.182260 0.030671 -0.184127
v -0.150298 0.092510 0.057532
v -0.179246 0.061666 -0.035970
v -0.180079 0.030971 0.031951
v -0.119501 0.122823 -0.006458
v -0.050100 0.183531 0.178501
v -0.048445 0.204526 0.082199
v -0.106677 0.144149 0.093852
v -0.082869 0.161368 0.020381
v -0.150298 0.092510 0.057532
v -0.119501 0.122823 -0.006458
v -0.082869 0.161368 0.020381
v -0.055289 0.179003 -0.036085
v -0.119501 0.122823 -0.006458
v -0.095482 0.140160 -0.083242
v -0.131833 0.095487 -0.123658
v -0.179246 0.061666 -0.035970
v -0.095482 0.140160 -0.083242
v -0.119501 0.122823 -0.006458
v 0.066764 -0.037756 -0.062761
v 0.160655 0.118401 -0.072571
v 0.147588 0.052262 0.017603
v 0.099531 0.049124 -0.140346
v -0.057174 0.127813 -0.123460
v -0.034518 0.010411 -0.125267
v -0.131833 0.095487 -0.123658
v -0.095482 0.140160 -0.083242
v 0.099531 0.049124 -0.140346
v 0.066764 -0.037756 -0.062761
v 0.015522 -0.069333 -0.114938
v 0.033202 -0.057500 -0.180046
v 0.204303 0.149813 0.027109
v 0.133585 0.056306 0.078354
v 0.147588 0.052262 0.017603
v 0.220610 0.139461 0.102745
v -0.133102 -0.118799 -0.225830
v -0.208518 -0.076588 -0.235949
v -0.080077 -0.026493 -0.169084
v -0.182260 0.030671 -0.184127
v -0.042076 -0.051857 -0.152245
v -0.048345 -0.029138 -0.202381
v 0.033202 -0.057500 -0.180046
v 0.135404 0.110579 0.235949
v 0.125814 0.061543 0.147269
v 0.188372 0.126168 0.185157
v 0.070902 0.071231 0.231682
v 0.125814 0.061543 0.147269
v 0.070902 0.071231 0.231682
v 0.019245 -0.002096 0.207847
v 0.041927 -0.004129 0.090306
v -0.011933 -0.028453 -0.228405
v 0.033202 -0.057500 -0.180046
v -0.048345 -0.029138 -0.202381
v 0.220610 0.139461 0.102745
v 0.125814 0.061543 0.147269
v 0.133585 0.056306 0.078354
v 0.188372 0.126168 0.185157
v 0.015522 -0.069333 -0.114938
v -0.042076 -0.051857 -0.152245
v 0.033202 -0.057500 -0.180046
v -0.080077 -0.026493 -0.169084
v -0.131833 0.095487 -0.123658
v -0.034518 0.010411 -0.125267
v -0.182260 0.030671 -0.184127
v 0.041927 -0.004129 0.090306
v -0.015146 -0.064962 0.178219
v -0.024428 -0.056039 0.050543
v 0.019245 -0.002096 0.207847
v 0.133585 0.056306 0.078354
v 0.041927 -0.004129 0.090306
v 0.033413 -0.000109 0.026939
v 0.125814 0.061543 0.147269
v 0.147588 0.052262 0.017603
v 0.033413 -0.000109 0.026939
v 0.031960 -0.013297 -0.014898
v 0.133585 0.056306 0.078354
v 0.033413 -0.000109 0.026939
v -0.024428 -0.056039 0.050543
v -0.029840 -0.042237 -0.015895
v 0.041927 -0.004129 0.090306
v -0.029840 -0.042237 -0.015895
v 0.031960 -0.013297 -0.014898
v 0.033413 -0.000109 0.026939
v -0.034518 0.010411 -0.125267
v 0.066764 -0.037756 -0.062761
v 0.147588 0.052262 0.017603
v 0.031960 -0.013297 -0.014898
v -0.064926 -0.119454 0.012188
v -0.029840 -0.042237 -0.015895
v -0.024428 -0.056039 0.050543
v -0.079773 -0.098886 -0.064049
v -0.024428 -0.056039 0.050543
v -0.015146 -0.064962 0.178219
v -0.051816 -0.139730 0.130159
v -0.064926 -0.119454 0.012188
v -0.080077 -0.026493 -0.169084
v -0.079773 -0.098886 -0.064049
v -0.133102 -0.118799 -0.225830
v -0.128456 -0.200364 -0.156506
v -0.034518 0.010411 -0.125267
v -0.029840 -0.042237 -0.015895
v -0.059948 0.004661 -0.106614
v -0.048345 -0.029138 -0.202381
v -0.042076 -0.051857 -0.152245
v -0.055625 0.074374 -0.158005
v -0.105410 -0.226371 -0.051164
v -0.079773 -0.098886 -0.064049
v -0.064926 -0.119454 0.012188
v -0.128456 -0.200364 -0.156506
v -0.064926 -0.119454 0.012188
v -0.077494 -0.213100 0.048517
v -0.105410 -0.226371 -0.051164
v -0.051816 -0.139730 0.130159
v 0.066764 -0.037756 -0.062761
v 0.031960 -0.013297 -0.014898
v -0.034518 0.010411 -0.125267
v -0.034518 0.010411 -0.125267
v -0.057174 0.127813 -0.123460
v -0.055625 0.074374 -0.158005
v 0.015522 -0.069333 -0.114938
v -0.059948 0.004661 -0.106614
v -0.042076 -0.051857 -0.152245
v 0.066764 -0.037756 -0.062761
v 0.066764 -0.037756 -0.062761
v -0.034518 0.010411 -0.125267
v -0.059948 0.004661 -0.106614
vt 6.666971 3.451311
vt 6.619266 3.530821
vt 6.619266 3.451311
vt 6.666971 3.530821
vt 6.666971 3.530821
vt 6.619266 3.570577
vt 6.619266 3.530821
vt 6.666971 3.570577
vt 6.412539 3.610332
vt 6.412539 3.699005
vt 6.333029 3.599324
vt 6.333029 3.699005
vt 6.666971 3.570577
vt 6.619266 3.610332
vt 6.619266 3.570577
vt 6.666971 3.610332
vt 6.456269 3.610332
vt 6.456269 3.699005
vt 6.412539 3.610332
vt 6.412539 3.699005
vt 6.619266 3.610332
vt 6.571560 3.699005
vt 6.571560 3.610332
vt 6.619266 3.699005
vt 6.500000 3.699005
vt 6.456269 3.610332
vt 6.500000 3.610332
vt 6.456269 3.699005
vt 6.571560 3.699005
vt 6.500000 3.610332
vt 6.571560 3.610332
vt 6.500000 3.699005
vt 6.536947 3.848419
vt 6.500000 3.909998
vt 6.500000 3.848419
vt 6.536948 3.909998
vt 6.333029 3.414663
vt 6.398891 3.352426
vt 6.412539 3.419507
vt 6.333029 3.352427
vt 6.536948 3.799157
vt 6.500000 3.848419
vt 6.500000 3.799157
vt 6.536947 3.848419
vt 6.398891 3.352426
vt 6.333029 3.320637
vt 6.412539 3.320622
vt 6.333029 3.352427
vt 6.571560 3.530821
vt 6.619266 3.530821
vt 6.619266 3.570577
vt 6.571560 3.570577
vt 6.571560 3.530821
vt 6.619266 3.451311
vt 6.619266 3.530821
vt 6.571560 3.451311
vt 6.571560 3.610332
vt 6.571560 3.570577
vt 6.619266 3.610332
vt 6.619266 3.570577
vt 6.412539 3.419507
vt 6.333029 3.482428
vt 6.333029 3.414663
vt 6.412539 3.505410
vt 6.333029 3.572104
vt 6.412539 3.610332
vt 6.333029 3.599324
vt 6.412539 3.580288
vt 6.573895 3.887921
vt 6.536947 3.848419
vt 6.573895 3.848419
vt 6.536948 3.909998
vt 6.552293 3.950107
vt 6.573895 3.887921
vt 6.573895 3.909998
vt 6.536948 3.909998
vt 6.498089 3.572372
vt 6.571560 3.610332
vt 6.500000 3.610332
vt 6.571560 3.570577
vt 6.573895 3.848419
vt 6.536948 3.799157
vt 6.573895 3.799157
vt 6.536947 3.848419
vt 6.455314 3.576329
vt 6.456269 3.610332
vt 6.412539 3.580288
vt 6.412539 3.610332
vt 6.455314 3.576329
vt 6.500000 3.610332
vt 6.456269 3.610332
vt 6.498089 3.572372
vt 6.571560 3.570577
vt 6.496024 3.531377
vt 6.571560 3.530821
vt 6.498089 3.572372
vt 6.333029 3.530821
vt 6.333029 3.482428
vt 6.412539 3.547842
vt 6.412539 3.505410
vt 6.514695 3.452105
vt 6.571560 3.530821
vt 6.496024 3.531377
vt 6.571560 3.451311
vt 6.455314 3.576329
vt 6.496024 3.531377
vt 6.498089 3.572372
vt 6.454282 3.539610
vt 6.333029 3.572104
vt 6.333029 3.530821
vt 6.412539 3.580288
vt 6.412539 3.547842
vt 6.455314 3.576329
vt 6.454282 3.539610
vt 6.412539 3.547842
vt 6.412539 3.505410
vt 6.454282 3.539610
vt 6.492049 3.452422
vt 6.514695 3.452105
vt 6.496024 3.531377
vt 6.492049 3.452422
vt 6.454282 3.539610
vt 6.463053 3.848419
vt 6.500000 3.909998
vt 6.463053 3.909998
vt 6.500000 3.848419
vt 6.573895 3.887921
vt 6.610842 3.909998
vt 6.595818 3.948965
vt 6.573895 3.909998
vt 6.500000 3.848419
vt 6.463053 3.848419
vt 6.463053 3.799157
vt 6.500000 3.799157
vt 6.333029 3.320637
vt 6.412539 3.288847
vt 6.412539 3.320622
vt 6.333029 3.288847
vt 6.619266 3.352426
vt 6.619266 3.451311
vt 6.571560 3.352426
vt 6.571560 3.451311
vt 6.500000 3.749893
vt 6.536947 3.762209
vt 6.500000 3.799157
vt 6.333029 3.209337
vt 6.412539 3.266474
vt 6.333029 3.265375
vt 6.412539 3.209338
vt 6.412539 3.266474
vt 6.412539 3.209338
vt 6.456269 3.209337
vt 6.470057 3.242566
vt 6.536948 3.799157
vt 6.500000 3.799157
vt 6.536947 3.762209
vt 6.333029 3.288847
vt 6.412539 3.266474
vt 6.412539 3.288847
vt 6.333029 3.265375
vt 6.463053 3.799157
vt 6.500000 3.749893
vt 6.500000 3.799157
vt 6.571560 3.352426
vt 6.514695 3.452105
vt 6.505776 3.352882
vt 6.571560 3.451311
vt 6.470057 3.242566
vt 6.500000 3.209337
vt 6.501444 3.245224
vt 6.456269 3.209337
vt 6.412539 3.288847
vt 6.470057 3.242566
vt 6.483845 3.275795
vt 6.412539 3.266474
vt 6.412539 3.320622
vt 6.483845 3.275795
vt 6.472491 3.322502
vt 6.412539 3.288847
vt 6.483845 3.275795
vt 6.501444 3.245224
vt 6.502889 3.281110
vt 6.470057 3.242566
vt 6.502889 3.281110
vt 6.472491 3.322502
vt 6.483845 3.275795
vt 6.505776 3.352882
vt 6.463053 3.848419
vt 6.463053 3.909998
vt 6.425591 3.910355
vt 6.571560 3.245110
vt 6.502889 3.281110
vt 6.501444 3.245224
vt 6.571560 3.280882
vt 6.501444 3.245224
vt 6.500000 3.209337
vt 6.571560 3.209337
vt 6.571560 3.245110
vt 6.571560 3.352426
vt 6.571560 3.280882
vt 6.619266 3.352426
vt 6.619266 3.280882
vt 6.505776 3.352882
vt 6.502889 3.281110
vt 6.610842 3.848419
vt 6.573895 3.799157
vt 6.610842 3.799157
vt 6.573895 3.848419
vt 6.619266 3.245110
vt 6.571560 3.280882
vt 6.571560 3.245110
vt 6.619266 3.280882
vt 6.571560 3.245110
vt 6.619266 3.209338
vt 6.619266 3.245110
vt 6.571560 3.209337
vt 6.463053 3.848419
vt 6.425591 3.910355
vt 6.389158 3.909998
vt 6.610842 3.909998
vt 6.573895 3.887921
vt 6.573895 3.848419
vt 6.463053 3.799157
vt 6.389158 3.848419
vt 6.389158 3.799156
vt 6.463053 3.848419
vt 6.463053 3.848419
vt 6.389158 3.909998
vt 6.389158 3.848419
vn -0.199225 -0.617336 -0.760746
vn -0.199225 -0.617336 -0.760746
vn -0.199225 -0.617336 -0.760746
vn -0.199225 -0.617336 -0.760746
vn -0.315838 -0.928939 -0.195845
vn -0.315838 -0.928939 -0.195845
vn -0.315838 -0.928939 -0.195845
vn -0.315838 -0.928939 -0.195845
vn -0.068275 0.034547 0.997043
vn -0.068275 0.034547 0.997043
vn -0.068275 0.034547 0.997043
vn -0.068275 0.034547 0.997043
vn -0.268046 -0.949968 0.160683
vn -0.268046 -0.949968 0.160683
vn -0.268046 -0.949968 0.160683
vn -0.268046 -0.949968 0.160683
vn -0.092171 -0.192943 0.976970
vn -0.092171 -0.192943 0.976970
vn -0.092171 -0.192943 0.976970
vn -0.092171 -0.192943 0.976970
vn -0.200181 -0.646011 0.737054
vn -0.200181 -0.646011 0.737054
vn -0.200181 -0.646011 0.737054
vn -0.200181 -0.646011 0.737054
vn -0.149522 -0.401316 0.903370
vn -0.149522 -0.401316 0.903370
vn -0.149522 -0.401316 0.903370
vn -0.149522 -0.401316 0.903370
vn -0.204005 -0.470136 0.858446
vn -0.204005 -0.470136 0.858446
vn -0.204005 -0.470136 0.858446
vn -0.204005 -0.470136 0.858446
vn 0.488023 0.475189 -0.733026
vn 0.488023 0.475189 -0.733026
vn 0.488023 0.475189 -0.733026
vn 0.488023 0.475189 -0.733026
vn 0.377146 0.659666 -0.650824
vn 0.377146 0.659666 -0.650824
vn 0.377146 0.659666 -0.650824
vn 0.377146 0.659666 -0.650824
vn 0.600812 0.042193 -0.798023
vn 0.600812 0.042193 -0.798023
vn 0.600812 0.042193 -0.798023
vn 0.600812 0.042193 -0.798023
vn 0.915283 -0.234044 -0.326795
vn 0.915283 -0.234044 -0.326795
vn 0.915283 -0.234044 -0.326795
vn 0.915283 -0.234044 -0.326795
vn -0.992572 -0.085889 0.086128
vn -0.992572 -0.085889 0.086128
vn -0.992572 -0.085889 0.086128
vn -0.992572 -0.085889 0.086128
vn -0.980146 0.147336 -0.130848
vn -0.980146 0.147336 -0.130848
vn -0.980146 0.147336 -0.130848
vn -0.980146 0.147336 -0.130848
vn -0.963897 -0.128902 0.232371
vn -0.963897 -0.128902 0.232371
vn -0.963897 -0.128902 0.232371
vn -0.963897 -0.128902 0.232371
vn -0.166727 0.899581 -0.403262
vn -0.166727 0.899581 -0.403262
vn -0.166727 0.899581 -0.403262
vn -0.166727 0.899581 -0.403262
vn -0.762215 0.557391 0.328911
vn -0.762215 0.557391 0.328911
vn -0.762215 0.557391 0.328911
vn -0.762215 0.557391 0.328911
vn -0.312014 0.572684 -0.757878
vn -0.312014 0.572684 -0.757878
vn -0.312014 0.572684 -0.757878
vn -0.312014 0.572684 -0.757878
vn -0.372232 0.803997 -0.463480
vn -0.372232 0.803997 -0.463480
vn -0.372232 0.803997 -0.463480
vn -0.372232 0.803997 -0.463480
vn -0.955294 0.127263 0.265826
vn -0.955294 0.127263 0.265826
vn -0.955294 0.127263 0.265826
vn -0.955294 0.127263 0.265826
vn -0.424803 0.381516 -0.820964
vn -0.424803 0.381516 -0.820964
vn -0.424803 0.381516 -0.820964
vn -0.424803 0.381516 -0.820964
vn -0.837726 0.466586 0.284942
vn -0.837726 0.466586 0.284942
vn -0.837726 0.466586 0.284942
vn -0.837726 0.466586 0.284942
vn -0.907502 0.327989 0.263914
vn -0.907502 0.327989 0.263914
vn -0.907502 0.327989 0.263914
vn -0.907502 0.327989 0.263914
vn -0.931398 0.308873 0.195094
vn -0.931398 0.308873 0.195094
vn -0.931398 0.308873 0.195094
vn -0.931398 0.308873 0.195094
vn -0.598766 0.789660 -0.135627
vn -0.598766 0.789660 -0.135627
vn -0.598766 0.789660 -0.135627
vn -0.598766 0.789660 -0.135627
vn -0.805227 0.583198 -0.105996
vn -0.805227 0.583198 -0.105996
vn -0.805227 0.583198 -0.105996
vn -0.805227 0.583198 -0.105996
vn -0.819565 0.568861 0.066055
vn -0.819565 0.568861 0.066055
vn -0.819565 0.568861 0.066055
vn -0.819565 0.568861 0.066055
vn -0.714423 0.697899 0.049806
vn -0.714423 0.697899 0.049806
vn -0.719202 0.695032 0.008705
vn -0.723981 0.689297 -0.011368
vn -0.727804 0.684517 -0.052469
vn -0.727804 0.684517 -0.052469
vn -0.674277 0.735177 -0.068718
vn -0.674277 0.735177 -0.068718
vn -0.674277 0.735177 -0.068718
vn -0.674277 0.735177 -0.068718
vn -0.707732 0.700767 -0.088791
vn -0.707732 0.700767 -0.088791
vn -0.707732 0.700767 -0.088791
vn -0.707732 0.700767 -0.088791
vn 0.825434 -0.511237 -0.240769
vn 0.825434 -0.511237 -0.240769
vn 0.825434 -0.511237 -0.240769
vn 0.825434 -0.511237 -0.240769
vn -0.109376 0.259169 -0.959560
vn -0.109376 0.259169 -0.959560
vn -0.109376 0.259169 -0.959560
vn -0.109376 0.259169 -0.959560
vn 0.795803 -0.591528 -0.127980
vn 0.795803 -0.591528 -0.127980
vn 0.795803 -0.591528 -0.127980
vn 0.795803 -0.591528 -0.127980
vn 0.785289 -0.617336 -0.041955
vn 0.785289 -0.617336 -0.041955
vn 0.785289 -0.617336 -0.041955
vn 0.785289 -0.617336 -0.041955
vn 0.320751 0.350929 -0.879270
vn 0.320751 0.350929 -0.879270
vn 0.320751 0.350929 -0.879270
vn 0.320751 0.350929 -0.879270
vn -0.208784 -0.900264 -0.382233
vn -0.208784 -0.900264 -0.382233
vn -0.208784 -0.900264 -0.382233
vn 0.510007 -0.775049 0.372880
vn 0.510007 -0.775049 0.372880
vn 0.510007 -0.775049 0.372880
vn 0.510007 -0.775049 0.372880
vn 0.603680 -0.748286 0.275384
vn 0.603680 -0.748286 0.275384
vn 0.603680 -0.748286 0.275384
vn 0.603680 -0.748286 0.275384
vn -0.225033 -0.913646 -0.339221
vn -0.225033 -0.913646 -0.339221
vn -0.225033 -0.913646 -0.339221
vn 0.666765 -0.732992 0.136787
vn 0.666765 -0.732992 0.136787
vn 0.666765 -0.732992 0.136787
vn 0.666765 -0.732992 0.136787
vn -0.152389 -0.964305 -0.216873
vn -0.152389 -0.964305 -0.216873
vn -0.152389 -0.964305 -0.216873
vn 0.381925 0.460851 -0.800891
vn 0.381925 0.460851 -0.800891
vn 0.381925 0.460851 -0.800891
vn 0.381925 0.460851 -0.800891
vn 0.745144 -0.667039 0.022087
vn 0.745144 -0.667039 0.022087
vn 0.745144 -0.667039 0.022087
vn 0.745144 -0.667039 0.022087
vn 0.551108 -0.834311 0.004882
vn 0.551108 -0.834311 0.004882
vn 0.551108 -0.834311 0.004882
vn 0.551108 -0.834311 0.004882
vn 0.422070 -0.884015 0.199873
vn 0.422070 -0.884015 0.199873
vn 0.422070 -0.884015 0.199873
vn 0.422070 -0.884015 0.199873
vn 0.647648 -0.742551 -0.170993
vn 0.647648 -0.742551 -0.170993
vn 0.647648 -0.742551 -0.170993
vn 0.647648 -0.742551 -0.170993
vn 0.414423 -0.876368 -0.245548
vn 0.414423 -0.876368 -0.245548
vn 0.414423 -0.876368 -0.245548
vn 0.414423 -0.876368 -0.245548
vn 0.269136 -0.764535 0.586032
vn 0.269136 -0.764535 0.586032
vn 0.269136 -0.764535 0.586032
vn 0.850286 -0.471092 -0.234078
vn 0.850286 -0.471092 -0.234078
vn 0.850286 -0.471092 -0.234078
vn 0.850286 -0.471092 -0.234078
vn 0.898078 -0.419477 -0.131803
vn 0.898078 -0.419477 -0.131803
vn 0.898078 -0.419477 -0.131803
vn 0.898078 -0.419477 -0.131803
vn 0.871315 -0.393669 -0.292384
vn 0.867491 -0.398448 -0.298119
vn 0.921974 -0.276101 -0.270400
vn 0.921974 -0.276101 -0.270400
vn 0.801538 -0.508370 -0.315325
vn 0.801538 -0.508370 -0.315325
vn -0.990660 -0.109785 -0.081144
vn -0.990660 -0.109785 -0.081144
vn -0.990660 -0.109785 -0.081144
vn -0.990660 -0.109785 -0.081144
vn 0.943003 -0.214927 -0.252239
vn 0.943003 -0.214927 -0.252239
vn 0.943003 -0.214927 -0.252239
vn 0.943003 -0.214927 -0.252239
vn 0.961163 -0.201546 -0.187242
vn 0.961163 -0.201546 -0.187242
vn 0.961163 -0.201546 -0.187242
vn 0.961163 -0.201546 -0.187242
vn -0.476419 -0.873500 0.099510
vn -0.476419 -0.873500 0.099510
vn -0.476419 -0.873500 0.099510
vn -0.723981 0.109102 0.680660
vn -0.723981 0.109102 0.680660
vn -0.723981 0.109102 0.680660
vn -0.479286 -0.564764 0.672057
vn -0.479286 -0.564764 0.672057
vn -0.479286 -0.564764 0.672057
vn -0.479286 -0.564764 0.672057
vn 0.136274 0.879509 0.456993
vn 0.136274 0.879509 0.456993
vn 0.136274 0.879509 0.456993
f 1/1/1 2/2/2 3/3/3
f 2/2/2 1/1/1 4/4/4
f 5/5/5 6/6/6 7/7/7
f 6/6/6 5/5/5 8/8/8
f 9/9/9 10/10/10 11/11/11
f 10/10/10 12/12/12 11/11/11
f 13/13/13 14/14/14 15/15/15
f 14/14/14 13/13/13 16/16/16
f 17/17/17 18/18/18 19/19/19
f 19/19/19 18/18/18 20/20/20
f 21/21/21 22/22/22 23/23/23
f 22/22/22 21/21/21 24/24/24
f 25/25/25 26/26/26 27/27/27
f 26/26/26 25/25/25 28/28/28
f 29/29/29 30/30/30 31/31/31
f 30/30/30 29/29/29 32/32/32
f 33/33/33 34/34/34 35/35/35
f 36/36/36 34/34/34 33/33/33
f 37/37/37 38/38/38 39/39/39
f 38/38/38 37/37/37 40/40/40
f 41/41/41 42/42/42 43/43/43
f 42/42/42 41/41/41 44/44/44
f 45/45/45 46/46/46 47/47/47
f 46/46/46 45/45/45 48/48/48
f 49/49/49 50/50/50 51/51/51
f 49/49/49 51/51/51 52/52/52
f 53/53/53 54/54/54 55/55/55
f 54/54/54 53/53/53 56/56/56
f 57/57/57 58/58/58 59/59/59
f 58/58/58 60/60/60 59/59/59
f 61/61/61 62/62/62 63/63/63
f 62/62/62 61/61/61 64/64/64
f 65/65/65 66/66/66 67/67/67
f 66/66/66 65/65/65 68/68/68
f 69/69/69 70/70/70 71/71/71
f 70/70/70 69/69/69 72/72/72
f 73/73/73 74/74/74 75/75/75
f 74/74/74 73/73/73 76/76/76
f 77/77/77 78/78/78 79/79/79
f 78/78/78 77/77/77 80/80/80
f 81/81/81 82/82/82 83/83/83
f 82/82/82 81/81/81 84/84/84
f 85/85/85 86/86/86 87/87/87
f 87/87/87 86/86/86 88/88/88
f 89/89/89 90/90/90 91/91/91
f 90/90/90 89/89/89 92/92/92
f 93/93/93 94/94/94 95/95/95
f 94/94/94 93/93/93 96/96/96
f 97/97/97 98/98/98 99/99/99
f 98/98/98 100/100/100 99/99/99
f 101/101/101 102/102/102 103/103/103
f 102/102/102 101/101/101 104/104/104
f 105/105/105 106/106/106 107/107/107
f 106/106/106 105/105/105 108/108/108
f 109/109/109 110/110/110 111/111/111
f 111/111/111 110/110/110 112/112/112
f 111/111/111 112/112/112 113/113/113
f 112/112/112 114/114/114 113/113/113
f 115/115/115 116/116/116 117/117/117
f 116/116/116 118/118/118 117/117/117
f 119/119/119 120/120/120 121/121/121
f 122/122/122 121/121/121 120/120/120
f 123/123/123 124/124/124 125/125/125
f 124/124/124 123/123/123 126/126/126
f 127/127/127 128/128/128 129/129/129
f 127/127/127 129/129/129 130/130/130
f 131/131/131 132/132/132 133/133/133
f 131/131/131 133/133/133 134/134/134
f 135/135/135 136/136/136 137/137/137
f 136/136/136 135/135/135 138/138/138
f 139/139/139 140/140/140 141/141/141
f 141/141/141 140/140/140 142/142/142
f 143/143/143 144/144/144 145/145/145
f 146/146/146 147/147/147 148/148/148
f 147/147/147 146/146/146 149/149/149
f 150/150/150 151/151/151 152/152/152
f 150/150/150 152/152/152 153/153/153
f 154/154/154 155/155/155 156/156/156
f 157/157/157 158/158/158 159/159/159
f 158/158/158 157/157/157 160/160/160
f 161/161/161 162/162/162 163/163/163
f 164/164/164 165/165/165 166/166/166
f 165/165/165 164/164/164 167/167/167
f 168/168/168 169/169/169 170/170/170
f 168/168/168 171/171/171 169/169/169
f 172/172/172 173/173/173 174/174/174
f 173/173/173 172/172/172 175/175/175
f 176/176/176 177/177/177 178/178/178
f 177/177/177 176/176/176 179/179/179
f 180/180/180 181/181/181 182/182/182
f 181/181/181 180/180/180 183/183/183
f 184/184/184 185/185/185 186/186/186
f 185/185/185 184/184/184 187/187/187
f 188/188/188 189/189/189 190/190/190
f 191/191/191 192/192/192 193/193/193
f 192/192/192 191/191/191 194/194/194
f 195/195/195 196/196/196 197/197/197
f 195/195/195 197/197/197 198/198/198
f 199/199/199 200/200/200 201/201/201
f 200/200/200 202/202/202 201/201/201
f 203/203/203 200/200/200 199/199/199
f 200/200/200 203/203/203 204/204/204
f 205/205/205 206/206/206 207/207/207
f 206/206/206 205/205/205 208/208/208
f 209/209/209 210/210/210 211/211/211
f 210/210/210 209/209/209 212/212/212
f 213/213/213 214/214/214 215/215/215
f 214/214/214 213/213/213 216/216/216
f 217/217/217 218/218/218 219/219/219
f 220/220/220 221/221/221 222/222/222
f 223/223/223 224/224/224 225/225/225
f 224/224/224 223/223/223 226/226/226
f 227/227/227 228/228/228 229/229/229
