# Generated from Roblox mesh JSON (v7.00)
# Hello from RBX_Toolbox ;)
o LeftUpperLeg_inner_cage
v -0.386967 0.432304 0.038312
v -0.282288 0.488419 0.286882
v -0.337903 0.498999 0.041594
v -0.328707 0.405415 0.303524
v -0.328707 0.405415 0.303524
v -0.097510 0.347280 0.477641
v -0.282288 0.488419 0.286882
v -0.081962 0.423142 0.457936
v 0.190255 0.322081 0.504338
v 0.189853 0.279052 0.495703
v -0.439520 0.291843 0.041301
v -0.328707 0.405415 0.303524
v -0.386967 0.432304 0.038312
v -0.360385 0.286451 0.313197
v -0.269537 0.492355 -0.194140
v -0.386967 0.432304 0.038312
v -0.337903 0.498999 0.041594
v -0.299239 0.406576 -0.205493
v -0.115123 0.250250 0.491041
v 0.183383 0.202463 0.489050
v 0.189853 0.279052 0.495703
v -0.097510 0.347280 0.477641
v -0.328707 0.405415 0.303524
v -0.360385 0.286451 0.313197
v -0.357967 0.148739 0.327806
v -0.115123 0.250250 0.491041
v -0.360385 0.286451 0.313197
v -0.121126 0.137921 0.508012
v 0.183383 0.202463 0.489050
v 0.181787 0.125793 0.481759
v -0.439520 0.291843 0.041301
v -0.299239 0.406576 -0.205493
v -0.339564 0.283711 -0.235179
v -0.386967 0.432304 0.038312
v -0.453438 0.143797 0.028116
v -0.360385 0.286451 0.313197
v -0.439520 0.291843 0.041301
v -0.357967 0.148739 0.327806
v 0.134823 -0.349468 -0.482162
v -0.078906 -0.471154 -0.416296
v -0.101479 -0.358978 -0.435519
v -0.289164 -0.473943 -0.270884
v -0.285138 -0.368051 -0.291679
v 0.159875 -0.468363 -0.444044
v 0.353029 -0.354708 -0.339904
v 0.347451 -0.469711 -0.313881
v -0.339564 0.283711 -0.235179
v -0.453438 0.143797 0.028116
v -0.439520 0.291843 0.041301
v -0.362940 0.149483 -0.262329
v -0.121126 0.137921 0.508012
v -0.307543 -0.051075 0.308101
v -0.108096 -0.061498 0.481761
v -0.357967 0.148739 0.327806
v 0.181787 0.125793 0.481759
v 0.187240 -0.062913 0.427130
v 0.347451 -0.469711 -0.313881
v 0.447253 -0.358162 -0.059406
v 0.436277 -0.498999 -0.048552
v 0.353029 -0.354708 -0.339904
v 0.408091 0.024348 0.216362
v 0.181787 0.125793 0.481759
v 0.402914 -0.035796 0.221923
v 0.183383 0.202463 0.489050
v -0.077024 -0.231883 0.418522
v 0.185967 -0.229968 0.375759
v 0.187240 -0.062913 0.427130
v -0.108096 -0.061498 0.481761
v -0.255216 -0.223891 0.258907
v -0.307543 -0.051075 0.308101
v 0.409080 0.121282 0.202114
v 0.189853 0.279052 0.495703
v 0.409948 0.080344 0.208738
v 0.190255 0.322081 0.504338
v 0.409948 0.080344 0.208738
v 0.183383 0.202463 0.489050
v 0.408091 0.024348 0.216362
v 0.189853 0.279052 0.495703
v 0.185967 -0.229968 0.375759
v 0.402469 -0.103316 0.213619
v 0.187240 -0.062913 0.427130
v 0.408535 -0.223521 0.192290
v 0.187240 -0.062913 0.427130
v 0.402914 -0.035796 0.221923
v 0.181787 0.125793 0.481759
v 0.402469 -0.103316 0.213619
v -0.067525 -0.382302 0.377264
v 0.184554 -0.381920 0.351502
v 0.185967 -0.229968 0.375759
v -0.077024 -0.231883 0.418522
v -0.234640 -0.377210 0.214032
v -0.255216 -0.223891 0.258907
v -0.136069 -0.208415 -0.448140
v -0.285138 -0.368051 -0.291679
v -0.312902 -0.219698 -0.289079
v -0.101479 -0.358978 -0.435519
v 0.100064 -0.207057 -0.495924
v 0.134823 -0.349468 -0.482162
v 0.347786 -0.218728 -0.360267
v 0.353029 -0.354708 -0.339904
v 0.353029 -0.354708 -0.339904
v 0.453438 -0.218979 -0.070134
v 0.447253 -0.358162 -0.059406
v 0.347786 -0.218728 -0.360267
v 0.447253 -0.358162 -0.059406
v 0.408535 -0.223521 0.192290
v 0.390207 -0.375943 0.194069
v 0.453438 -0.218979 -0.070134
v -0.362940 0.149483 -0.262329
v -0.414405 -0.048680 0.014788
v -0.453438 0.143797 0.028116
v -0.356773 -0.049074 -0.281933
v 0.087947 0.208226 -0.454972
v -0.103026 0.338703 -0.369939
v 0.105066 0.281908 -0.435170
v 0.345888 0.168695 -0.320603
v 0.347534 0.096344 -0.337900
v -0.132093 0.244329 -0.402135
v -0.299239 0.406576 -0.205493
v -0.339564 0.283711 -0.235179
v -0.103026 0.338703 -0.369939
v -0.269537 0.492355 -0.194140
v -0.072158 0.420002 -0.347223
v -0.299239 0.406576 -0.205493
v 0.105066 0.281908 -0.435170
v 0.124551 0.363345 -0.390133
v 0.343873 0.191817 -0.314535
v 0.345888 0.168695 -0.320603
v 0.437247 0.106784 -0.065848
v 0.439247 0.078718 -0.065712
v 0.390207 -0.375943 0.194069
v 0.185967 -0.229968 0.375759
v 0.184554 -0.381920 0.351502
v 0.408535 -0.223521 0.192290
v 0.386085 -0.474384 0.188045
v 0.436277 -0.498999 -0.048552
v 0.447253 -0.358162 -0.059406
v 0.390207 -0.375943 0.194069
v -0.453438 0.143797 0.028116
v -0.307543 -0.051075 0.308101
v -0.357967 0.148739 0.327806
v -0.414405 -0.048680 0.014788
v 0.347534 0.096344 -0.337900
v 0.439247 0.078718 -0.065712
v 0.442650 0.024437 -0.067144
v 0.345888 0.168695 -0.320603
v 0.346914 0.028803 -0.349563
v 0.442650 0.024437 -0.067144
v 0.444411 -0.027661 -0.069017
v 0.347534 0.096344 -0.337900
v -0.158422 -0.046771 -0.443704
v -0.312902 -0.219698 -0.289079
v -0.356773 -0.049074 -0.281933
v -0.136069 -0.208415 -0.448140
v 0.079250 -0.049745 -0.508012
v 0.100064 -0.207057 -0.495924
v 0.341767 -0.057904 -0.357098
v 0.347786 -0.218728 -0.360267
v 0.341767 -0.057904 -0.357098
v 0.444411 -0.027661 -0.069017
v 0.446039 -0.099703 -0.069542
v 0.346914 0.028803 -0.349563
v -0.356773 -0.049074 -0.281933
v -0.341581 -0.222829 -0.015080
v -0.414405 -0.048680 0.014788
v -0.312902 -0.219698 -0.289079
v 0.439247 0.078718 -0.065712
v 0.409080 0.121282 0.202114
v 0.409948 0.080344 0.208738
v 0.437247 0.106784 -0.065848
v 0.347534 0.096344 -0.337900
v 0.079202 0.125728 -0.482773
v 0.087947 0.208226 -0.454972
v 0.346914 0.028803 -0.349563
v -0.132093 0.244329 -0.402135
v -0.152196 0.137849 -0.411437
v -0.339564 0.283711 -0.235179
v -0.362940 0.149483 -0.262329
v 0.347786 -0.218728 -0.360267
v 0.446039 -0.099703 -0.069542
v 0.453438 -0.218979 -0.070134
v 0.341767 -0.057904 -0.357098
v 0.442650 0.024437 -0.067144
v 0.409948 0.080344 0.208738
v 0.408091 0.024348 0.216362
v 0.439247 0.078718 -0.065712
v 0.402469 -0.103316 0.213619
v 0.446039 -0.099703 -0.069542
v 0.444411 -0.027661 -0.069017
v 0.402914 -0.035796 0.221923
v 0.408091 0.024348 0.216362
v 0.442650 0.024437 -0.067144
v -0.152196 0.137849 -0.411437
v -0.356773 -0.049074 -0.281933
v -0.362940 0.149483 -0.262329
v -0.158422 -0.046771 -0.443704
v 0.079202 0.125728 -0.482773
v 0.079250 -0.049745 -0.508012
v 0.346914 0.028803 -0.349563
v 0.341767 -0.057904 -0.357098
v 0.408535 -0.223521 0.192290
v 0.453438 -0.218979 -0.070134
v 0.446039 -0.099703 -0.069542
v 0.402469 -0.103316 0.213619
v -0.414405 -0.048680 0.014788
v -0.255216 -0.223891 0.258907
v -0.307543 -0.051075 0.308101
v -0.341581 -0.222829 -0.015080
v 0.386085 -0.474384 0.188045
v 0.184554 -0.381920 0.351502
v 0.190635 -0.474699 0.349960
v 0.390207 -0.375943 0.194069
v -0.312902 -0.219698 -0.289079
v -0.313804 -0.369526 -0.063143
v -0.341581 -0.222829 -0.015080
v -0.285138 -0.368051 -0.291679
v -0.341581 -0.222829 -0.015080
v -0.234640 -0.377210 0.214032
v -0.255216 -0.223891 0.258907
v -0.313804 -0.369526 -0.063143
v 0.184554 -0.381920 0.351502
v -0.067525 -0.382302 0.377264
v 0.190635 -0.474699 0.349960
v -0.085544 -0.479576 0.371531
v -0.234640 -0.377210 0.214032
v -0.251914 -0.483552 0.207510
v -0.289164 -0.473943 -0.270884
v -0.313804 -0.369526 -0.063143
v -0.285138 -0.368051 -0.291679
v -0.344039 -0.475958 -0.049143
v -0.344039 -0.475958 -0.049143
v -0.234640 -0.377210 0.214032
v -0.313804 -0.369526 -0.063143
v -0.251914 -0.483552 0.207510
vt 4.547419 2.802904
vt 4.670595 2.891038
vt 4.547419 2.891038
vt 4.670595 2.804911
vt 4.670595 2.804911
vt 4.703386 2.809872
vt 4.670595 2.891038
vt 4.703322 2.891038
vt 4.736178 2.891038
vt 4.736178 2.814832
vt 4.547419 2.683140
vt 4.670595 2.804911
vt 4.547419 2.802904
vt 4.670595 2.684215
vt 4.369310 2.891038
vt 4.547419 2.802904
vt 4.547419 2.891038
vt 4.369310 2.802496
vt 4.703386 2.686872
vt 4.736178 2.689528
vt 4.736178 2.814832
vt 4.703386 2.809872
vt 4.670595 2.804911
vt 4.670595 2.684215
vt 4.670595 2.527062
vt 4.703386 2.686872
vt 4.670595 2.684215
vt 4.703386 2.527062
vt 4.736178 2.689528
vt 4.736178 2.527062
vt 4.547419 2.683140
vt 4.369310 2.802496
vt 4.369310 2.682921
vt 4.547419 2.802904
vt 4.547419 2.527062
vt 4.670595 2.684215
vt 4.547419 2.683140
vt 4.670595 2.527062
vt 4.226574 2.177007
vt 4.321732 2.106575
vt 4.321732 2.177007
vt 4.369310 2.106575
vt 4.369310 2.177007
vt 4.226574 2.106575
vt 4.178995 2.177007
vt 4.178995 2.106575
vt 4.369310 2.682921
vt 4.547419 2.527062
vt 4.547419 2.683140
vt 4.369310 2.527062
vt 4.703386 2.527062
vt 4.670595 2.392389
vt 4.703386 2.392389
vt 4.670595 2.527062
vt 4.736178 2.527062
vt 4.736178 2.392389
vt 4.178995 2.106575
vt 4.052537 2.177007
vt 4.052537 2.106575
vt 4.178995 2.177007
vt 4.809030 2.706084
vt 4.736178 2.527062
vt 4.809030 2.527062
vt 4.736178 2.689528
vt 4.703386 2.290893
vt 4.736178 2.290893
vt 4.736178 2.392389
vt 4.703386 2.392389
vt 4.670595 2.290893
vt 4.670595 2.392389
vt 4.809030 2.891038
vt 4.736178 2.814832
vt 4.809030 2.845746
vt 4.736178 2.891038
vt 4.809030 2.845746
vt 4.736178 2.689528
vt 4.809030 2.706084
vt 4.736178 2.814832
vt 4.736178 2.290893
vt 4.809030 2.392389
vt 4.736178 2.392389
vt 4.809030 2.290893
vt 4.736178 2.392389
vt 4.809030 2.527062
vt 4.736178 2.527062
vt 4.809030 2.392389
vt 4.703386 2.177007
vt 4.736178 2.177007
vt 4.736178 2.290893
vt 4.703386 2.290893
vt 4.670595 2.177007
vt 4.670595 2.290893
vt 4.321732 2.290893
vt 4.369310 2.177007
vt 4.369310 2.290893
vt 4.321732 2.177007
vt 4.226574 2.290893
vt 4.226574 2.177007
vt 4.178995 2.290893
vt 4.178995 2.177007
vt 4.178995 2.177007
vt 4.052537 2.290893
vt 4.052537 2.177007
vt 4.178995 2.290893
vt 4.947463 2.177007
vt 4.809030 2.290893
vt 4.809030 2.177007
vt 4.947463 2.290893
vt 4.369310 2.527062
vt 4.547419 2.392389
vt 4.547419 2.527062
vt 4.369310 2.392389
vt 4.242012 2.688115
vt 4.331255 2.802415
vt 4.236097 2.812195
vt 4.178995 2.822055
vt 4.178995 2.693396
vt 4.337170 2.682878
vt 4.369310 2.802496
vt 4.369310 2.682921
vt 4.331255 2.802415
vt 4.369310 2.891038
vt 4.325919 2.891038
vt 4.369310 2.802496
vt 4.236097 2.812195
vt 4.178995 2.891038
vt 4.115766 2.858994
vt 4.178995 2.822055
vt 4.052537 2.826950
vt 4.052537 2.792779
vt 4.809030 2.177007
vt 4.736178 2.290893
vt 4.736178 2.177007
vt 4.809030 2.290893
vt 4.809030 2.106575
vt 4.947463 2.106575
vt 4.947463 2.177007
vt 4.809030 2.177007
vt 4.547419 2.527062
vt 4.670595 2.392389
vt 4.670595 2.527062
vt 4.547419 2.392389
vt 4.178995 2.693396
vt 4.052537 2.792779
vt 4.052537 2.695761
vt 4.178995 2.822055
vt 4.178995 2.527062
vt 4.052537 2.695761
vt 4.052537 2.527062
vt 4.178995 2.693396
vt 4.321732 2.392389
vt 4.369310 2.290893
vt 4.369310 2.392389
vt 4.321732 2.290893
vt 4.226574 2.392389
vt 4.226574 2.290893
vt 4.178995 2.392389
vt 4.178995 2.290893
vt 4.178995 2.392389
vt 4.052537 2.527062
vt 4.052537 2.392389
vt 4.178995 2.527062
vt 4.369310 2.392389
vt 4.547419 2.290893
vt 4.547419 2.392389
vt 4.369310 2.290893
vt 4.947463 2.846574
vt 4.809030 2.891038
vt 4.809030 2.845746
vt 4.947463 2.891038
vt 4.178995 2.693396
vt 4.226574 2.527062
vt 4.242012 2.688115
vt 4.178995 2.527062
vt 4.337170 2.682878
vt 4.321732 2.527062
vt 4.369310 2.682921
vt 4.369310 2.527062
vt 4.178995 2.290893
vt 4.052537 2.392389
vt 4.052537 2.290893
vt 4.178995 2.392389
vt 4.947463 2.706528
vt 4.809030 2.845746
vt 4.809030 2.706084
vt 4.947463 2.846574
vt 4.809030 2.392389
vt 4.947463 2.392389
vt 4.947463 2.527062
vt 4.809030 2.527062
vt 4.809030 2.706084
vt 4.947463 2.706528
vt 4.321732 2.527062
vt 4.369310 2.392389
vt 4.369310 2.527062
vt 4.321732 2.392389
vt 4.226574 2.527062
vt 4.226574 2.392389
vt 4.178995 2.527062
vt 4.178995 2.392389
vt 4.809030 2.290893
vt 4.947463 2.290893
vt 4.947463 2.392389
vt 4.809030 2.392389
vt 4.547419 2.392389
vt 4.670595 2.290893
vt 4.670595 2.392389
vt 4.547419 2.290893
vt 4.809030 2.106575
vt 4.736178 2.177007
vt 4.736178 2.106575
vt 4.809030 2.177007
vt 4.369310 2.290893
vt 4.547419 2.177007
vt 4.547419 2.290893
vt 4.369310 2.177007
vt 4.547419 2.290893
vt 4.670595 2.177007
vt 4.670595 2.290893
vt 4.547419 2.177007
vt 4.736178 2.177007
vt 4.703386 2.177007
vt 4.736178 2.106575
vt 4.703386 2.106575
vt 4.670595 2.177007
vt 4.670595 2.106575
vt 4.369310 2.106575
vt 4.547419 2.177007
vt 4.369310 2.177007
vt 4.547419 2.106575
vt 4.547419 2.106575
vt 4.670595 2.177007
vt 4.547419 2.177007
vt 4.670595 2.106575
vn -0.813242 0.538197 0.220867
vn -0.813242 0.538197 0.220867
vn -0.813242 0.538197 0.220867
vn -0.813242 0.538197 0.220867
vn -0.510382 0.376541 0.773027
vn -0.350674 0.258708 0.899625
vn -0.510382 0.376541 0.773027
vn -0.386706 0.285975 0.877227
vn -0.082872 0.103870 0.991164
vn -0.082872 0.103870 0.991164
vn -0.916468 0.310321 0.253004
vn -0.916468 0.310321 0.253004
vn -0.916468 0.310321 0.253004
vn -0.916468 0.310321 0.253004
vn -0.834666 0.460290 -0.303052
vn -0.834666 0.460290 -0.303052
vn -0.834666 0.460290 -0.303052
vn -0.834666 0.460290 -0.303052
vn -0.331198 0.136980 0.933709
vn -0.019573 0.041545 0.998955
vn -0.019573 0.041545 0.998955
vn -0.347753 0.138927 0.926892
vn -0.553230 0.211964 0.805163
vn -0.553230 0.211964 0.805163
vn -0.585366 0.109713 0.803216
vn -0.336067 0.087315 0.937604
vn -0.585366 0.109713 0.803216
vn -0.302957 0.084393 0.949290
vn 0.051516 0.049335 0.997007
vn 0.051516 0.049335 0.997007
vn -0.876541 0.343431 -0.338110
vn -0.876541 0.343431 -0.338110
vn -0.876541 0.343431 -0.338110
vn -0.876541 0.343431 -0.338110
vn -0.955421 0.039597 0.291957
vn -0.955421 0.039597 0.291957
vn -0.955421 0.039597 0.291957
vn -0.955421 0.039597 0.291957
vn 0.161559 -0.244760 -0.955516
vn -0.395470 -0.237944 -0.887348
vn -0.418842 -0.235022 -0.876636
vn -0.576602 -0.195095 -0.793861
vn -0.576602 -0.195095 -0.793861
vn 0.273549 -0.231127 -0.934092
vn 0.546221 -0.178540 -0.818206
vn 0.546221 -0.178540 -0.818206
vn -0.933997 0.168142 -0.314738
vn -0.933997 0.168142 -0.314738
vn -0.933997 0.168142 -0.314738
vn -0.933997 0.168142 -0.314738
vn -0.301983 -0.209703 0.929813
vn -0.624320 -0.186331 0.758420
vn -0.274716 -0.209703 0.938578
vn -0.624320 -0.186331 0.758420
vn 0.127475 -0.196069 0.972662
vn 0.127475 -0.196069 0.972662
vn 0.940621 -0.107451 -0.321554
vn 0.940621 -0.107451 -0.321554
vn 0.940621 -0.107451 -0.321554
vn 0.940621 -0.107451 -0.321554
vn 0.751698 -0.045126 0.658116
vn 0.751698 -0.045126 0.658116
vn 0.751698 -0.045126 0.658116
vn 0.751698 -0.045126 0.658116
vn -0.247448 -0.374279 0.893782
vn 0.163507 -0.304164 0.938578
vn 0.163507 -0.304164 0.938578
vn -0.291271 -0.378175 0.878201
vn -0.623346 -0.376227 0.685383
vn -0.623346 -0.376227 0.685383
vn 0.798442 -0.010068 0.601634
vn 0.798442 -0.010068 0.601634
vn 0.798442 -0.010068 0.601634
vn 0.798442 -0.010068 0.601634
vn 0.767279 -0.043178 0.639613
vn 0.767279 -0.043178 0.639613
vn 0.767279 -0.043178 0.639613
vn 0.767279 -0.043178 0.639613
vn 0.653342 -0.175619 0.736022
vn 0.653342 -0.175619 0.736022
vn 0.653342 -0.175619 0.736022
vn 0.653342 -0.175619 0.736022
vn 0.691321 -0.160037 0.704859
vn 0.691321 -0.160037 0.704859
vn 0.691321 -0.160037 0.704859
vn 0.691321 -0.160037 0.704859
vn -0.307826 -0.261315 0.915206
vn 0.130396 -0.206781 0.969740
vn 0.130396 -0.206781 0.969740
vn -0.302957 -0.260342 0.917154
vn -0.664246 -0.264237 0.699990
vn -0.664246 -0.264237 0.699990
vn -0.487010 -0.152247 -0.860081
vn -0.630163 -0.157116 -0.760750
vn -0.630163 -0.157116 -0.760750
vn -0.450004 -0.149325 -0.880531
vn 0.113841 -0.096739 -0.988626
vn 0.227779 -0.080184 -0.970123
vn 0.511163 -0.031492 -0.859107
vn 0.511163 -0.031492 -0.859107
vn 0.942568 -0.040257 -0.330319
vn 0.942568 -0.040257 -0.330319
vn 0.942568 -0.040257 -0.330319
vn 0.942568 -0.040257 -0.330319
vn 0.978600 -0.074341 0.190679
vn 0.978600 -0.074341 0.190679
vn 0.978600 -0.074341 0.190679
vn 0.978600 -0.074341 0.190679
vn -0.965159 -0.090896 -0.244622
vn -0.965159 -0.090896 -0.244622
vn -0.965159 -0.090896 -0.244622
vn -0.965159 -0.090896 -0.244622
vn 0.147925 0.268446 -0.951621
vn -0.409104 0.364855 -0.835735
vn 0.119684 0.275263 -0.953568
vn 0.475131 0.169116 -0.863002
vn 0.475131 0.169116 -0.863002
vn -0.394496 0.366803 -0.842552
vn -0.523042 0.383358 -0.760750
vn -0.523042 0.383358 -0.760750
vn -0.328276 0.390175 -0.860081
vn -0.511356 0.345379 -0.787044
vn -0.342884 0.389201 -0.855212
vn -0.511356 0.345379 -0.787044
vn 0.186878 0.386280 -0.902929
vn 0.135266 0.390175 -0.910720
vn 0.718588 0.242153 -0.651682
vn 0.799416 0.208069 -0.564037
vn 0.943542 0.109713 -0.311816
vn 0.943542 0.109713 -0.311816
vn 0.621205 -0.097713 0.776922
vn 0.621205 -0.097713 0.776922
vn 0.621205 -0.097713 0.776922
vn 0.621205 -0.097713 0.776922
vn 0.974705 -0.056812 0.214050
vn 0.974705 -0.056812 0.214050
vn 0.974705 -0.056812 0.214050
vn 0.974705 -0.056812 0.214050
vn -0.919389 -0.235996 0.314355
vn -0.919389 -0.235996 0.314355
vn -0.919389 -0.235996 0.314355
vn -0.919389 -0.235996 0.314355
vn 0.945490 0.084393 -0.313764
vn 0.945490 0.084393 -0.313764
vn 0.945490 0.084393 -0.313764
vn 0.945490 0.084393 -0.313764
vn 0.946464 0.045440 -0.319607
vn 0.946464 0.045440 -0.319607
vn 0.946464 0.045440 -0.319607
vn 0.946464 0.045440 -0.319607
vn -0.505513 -0.083105 -0.859107
vn -0.644770 -0.101608 -0.757829
vn -0.644770 -0.101608 -0.757829
vn -0.475324 -0.082131 -0.875662
vn 0.102155 -0.023702 -0.994469
vn 0.176166 -0.016885 -0.984731
vn 0.489739 0.017199 -0.871767
vn 0.489739 0.017199 -0.871767
vn 0.942568 -0.004225 -0.335188
vn 0.942568 -0.004225 -0.335188
vn 0.942568 -0.004225 -0.335188
vn 0.942568 -0.004225 -0.335188
vn -0.941787 -0.303190 -0.144318
vn -0.941787 -0.303190 -0.144318
vn -0.941787 -0.303190 -0.144318
vn -0.941787 -0.303190 -0.144318
vn 0.993207 0.051283 0.104008
vn 0.993207 0.051283 0.104008
vn 0.993207 0.051283 0.104008
vn 0.993207 0.051283 0.104008
vn 0.481948 0.194436 -0.854238
vn 0.133318 0.223650 -0.965254
vn 0.087548 0.225598 -0.970123
vn 0.481948 0.194436 -0.854238
vn -0.442214 0.226572 -0.867871
vn -0.447083 0.224624 -0.865924
vn -0.570759 0.222677 -0.790939
vn -0.570759 0.222677 -0.790939
vn 0.939647 0.049335 -0.338110
vn 0.939647 0.049335 -0.338110
vn 0.939647 0.049335 -0.338110
vn 0.939647 0.049335 -0.338110
vn 0.993207 0.020121 0.113746
vn 0.993207 0.020121 0.113746
vn 0.993207 0.020121 0.113746
vn 0.993207 0.020121 0.113746
vn 0.989312 -0.001304 0.146856
vn 0.989312 -0.001304 0.146856
vn 0.990286 -0.012990 0.139066
vn 0.989312 -0.012990 0.142961
vn 0.991260 -0.025649 0.131275
vn 0.991260 -0.025649 0.131275
vn -0.481167 0.133085 -0.866898
vn -0.599974 0.107765 -0.792887
vn -0.599974 0.107765 -0.792887
vn -0.467533 0.134058 -0.873714
vn 0.064176 0.141849 -0.987652
vn 0.110920 0.138927 -0.983757
vn 0.484870 0.099001 -0.868845
vn 0.484870 0.099001 -0.868845
vn 0.986390 0.040571 0.160490
vn 0.986390 0.040571 0.160490
vn 0.986390 0.040571 0.160490
vn 0.986390 0.040571 0.160490
vn -0.875567 -0.383044 0.295852
vn -0.875567 -0.383044 0.295852
vn -0.875567 -0.383044 0.295852
vn -0.875567 -0.383044 0.295852
vn 0.623153 -0.024675 0.781792
vn 0.623153 -0.024675 0.781792
vn 0.623153 -0.024675 0.781792
vn 0.623153 -0.024675 0.781792
vn -0.979766 -0.164907 -0.113155
vn -0.979766 -0.164907 -0.113155
vn -0.979766 -0.164907 -0.113155
vn -0.979766 -0.164907 -0.113155
vn -0.932049 -0.235996 0.276375
vn -0.932049 -0.235996 0.276375
vn -0.932049 -0.235996 0.276375
vn -0.932049 -0.235996 0.276375
vn 0.089496 -0.044152 0.995060
vn -0.296140 0.011356 0.955133
vn 0.089496 -0.044152 0.995060
vn -0.393523 0.026937 0.919101
vn -0.698330 0.078550 0.711676
vn -0.698330 0.078550 0.711676
vn -0.974897 0.128215 -0.180350
vn -0.974897 0.128215 -0.180350
vn -0.974897 0.128215 -0.180350
vn -0.974897 0.128215 -0.180350
vn -0.927180 0.217807 0.303643
vn -0.927180 0.217807 0.303643
vn -0.927180 0.217807 0.303643
vn -0.927180 0.217807 0.303643
f 1/1/1 2/2/2 3/3/3
f 2/2/2 1/1/1 4/4/4
f 5/5/5 6/6/6 7/7/7
f 6/6/6 8/8/8 7/7/7
f 6/6/6 9/9/9 8/8/8
f 6/6/6 10/10/10 9/9/9
f 11/11/11 12/12/12 13/13/13
f 12/12/12 11/11/11 14/14/14
f 15/15/15 16/16/16 17/17/17
f 16/16/16 15/15/15 18/18/18
f 19/19/19 20/20/20 21/21/21
f 19/19/19 21/21/21 22/22/22
f 19/19/19 22/22/22 23/23/23
f 24/24/24 19/19/19 23/23/23
f 25/25/25 26/26/26 27/27/27
f 26/26/26 25/25/25 28/28/28
f 28/28/28 29/29/29 26/26/26
f 29/29/29 28/28/28 30/30/30
f 31/31/31 32/32/32 33/33/33
f 32/32/32 31/31/31 34/34/34
f 35/35/35 36/36/36 37/37/37
f 36/36/36 35/35/35 38/38/38
f 39/39/39 40/40/40 41/41/41
f 42/42/42 41/41/41 40/40/40
f 41/41/41 42/42/42 43/43/43
f 40/40/40 39/39/39 44/44/44
f 45/45/45 44/44/44 39/39/39
f 44/44/44 45/45/45 46/46/46
f 47/47/47 48/48/48 49/49/49
f 48/48/48 47/47/47 50/50/50
f 51/51/51 52/52/52 53/53/53
f 52/52/52 51/51/51 54/54/54
f 53/53/53 55/55/55 51/51/51
f 55/55/55 53/53/53 56/56/56
f 57/57/57 58/58/58 59/59/59
f 58/58/58 57/57/57 60/60/60
f 61/61/61 62/62/62 63/63/63
f 62/62/62 61/61/61 64/64/64
f 65/65/65 66/66/66 67/67/67
f 65/65/65 67/67/67 68/68/68
f 68/68/68 69/69/69 65/65/65
f 69/69/69 68/68/68 70/70/70
f 71/71/71 72/72/72 73/73/73
f 72/72/72 71/71/71 74/74/74
f 75/75/75 76/76/76 77/77/77
f 76/76/76 75/75/75 78/78/78
f 79/79/79 80/80/80 81/81/81
f 80/80/80 79/79/79 82/82/82
f 83/83/83 84/84/84 85/85/85
f 84/84/84 83/83/83 86/86/86
f 87/87/87 88/88/88 89/89/89
f 87/87/87 89/89/89 90/90/90
f 90/90/90 91/91/91 87/87/87
f 91/91/91 90/90/90 92/92/92
f 93/93/93 94/94/94 95/95/95
f 94/94/94 93/93/93 96/96/96
f 97/97/97 96/96/96 93/93/93
f 96/96/96 97/97/97 98/98/98
f 99/99/99 98/98/98 97/97/97
f 98/98/98 99/99/99 100/100/100
f 101/101/101 102/102/102 103/103/103
f 102/102/102 101/101/101 104/104/104
f 105/105/105 106/106/106 107/107/107
f 106/106/106 105/105/105 108/108/108
f 109/109/109 110/110/110 111/111/111
f 110/110/110 109/109/109 112/112/112
f 113/113/113 114/114/114 115/115/115
f 116/116/116 113/113/113 115/115/115
f 117/117/117 113/113/113 116/116/116
f 114/114/114 113/113/113 118/118/118
f 118/118/118 119/119/119 114/114/114
f 119/119/119 118/118/118 120/120/120
f 121/121/121 122/122/122 123/123/123
f 122/122/122 121/121/121 124/124/124
f 125/125/125 121/121/121 123/123/123
f 123/123/123 126/126/126 125/125/125
f 127/127/127 125/125/125 126/126/126
f 125/125/125 127/127/127 128/128/128
f 129/129/129 128/128/128 127/127/127
f 128/128/128 129/129/129 130/130/130
f 131/131/131 132/132/132 133/133/133
f 132/132/132 131/131/131 134/134/134
f 135/135/135 136/136/136 137/137/137
f 137/137/137 138/138/138 135/135/135
f 139/139/139 140/140/140 141/141/141
f 140/140/140 139/139/139 142/142/142
f 143/143/143 144/144/144 145/145/145
f 144/144/144 143/143/143 146/146/146
f 147/147/147 148/148/148 149/149/149
f 148/148/148 147/147/147 150/150/150
f 151/151/151 152/152/152 153/153/153
f 152/152/152 151/151/151 154/154/154
f 155/155/155 154/154/154 151/151/151
f 154/154/154 155/155/155 156/156/156
f 157/157/157 156/156/156 155/155/155
f 156/156/156 157/157/157 158/158/158
f 159/159/159 160/160/160 161/161/161
f 160/160/160 159/159/159 162/162/162
f 163/163/163 164/164/164 165/165/165
f 164/164/164 163/163/163 166/166/166
f 167/167/167 168/168/168 169/169/169
f 168/168/168 167/167/167 170/170/170
f 171/171/171 172/172/172 173/173/173
f 174/174/174 172/172/172 171/171/171
f 172/172/172 175/175/175 173/173/173
f 175/175/175 172/172/172 176/176/176
f 176/176/176 177/177/177 175/175/175
f 177/177/177 176/176/176 178/178/178
f 179/179/179 180/180/180 181/181/181
f 180/180/180 179/179/179 182/182/182
f 183/183/183 184/184/184 185/185/185
f 184/184/184 183/183/183 186/186/186
f 187/187/187 188/188/188 189/189/189
f 189/189/189 190/190/190 187/187/187
f 189/189/189 191/191/191 190/190/190
f 191/191/191 189/189/189 192/192/192
f 193/193/193 194/194/194 195/195/195
f 194/194/194 193/193/193 196/196/196
f 197/197/197 196/196/196 193/193/193
f 196/196/196 197/197/197 198/198/198
f 199/199/199 198/198/198 197/197/197
f 198/198/198 199/199/199 200/200/200
f 201/201/201 202/202/202 203/203/203
f 203/203/203 204/204/204 201/201/201
f 205/205/205 206/206/206 207/207/207
f 206/206/206 205/205/205 208/208/208
f 209/209/209 210/210/210 211/211/211
f 210/210/210 209/209/209 212/212/212
f 213/213/213 214/214/214 215/215/215
f 214/214/214 213/213/213 216/216/216
f 217/217/217 218/218/218 219/219/219
f 218/218/218 217/217/217 220/220/220
f 221/221/221 222/222/222 223/223/223
f 224/224/224 223/223/223 222/222/222
f 224/224/224 222/222/222 225/225/225
f 226/226/226 224/224/224 225/225/225
f 227/227/227 228/228/228 229/229/229
f 228/228/228 227/227/227 230/230/230
f 231/231/231 232/232/232 233/233/233
f 232/232/232 231/231/231 234/234/234
