# Generated from Roblox mesh JSON (v7.00)
# Hello from RBX_Toolbox ;)
o RightHand_inner_cage
v 0.133102 -0.118799 -0.225830
v 0.214039 -0.165071 -0.167047
v 0.128456 -0.200364 -0.156506
v 0.208518 -0.076588 -0.235949
v 0.203336 -0.195622 -0.058152
v 0.128456 -0.200364 -0.156506
v 0.214039 -0.165071 -0.167047
v 0.105410 -0.226371 -0.051164
v -0.070902 0.071231 0.231682
v 0.083583 0.112760 0.220780
v 0.045914 0.152453 0.220828
v -0.135404 0.110579 0.235949
v 0.105410 -0.226371 -0.051164
v 0.203336 -0.195622 -0.058152
v 0.178517 -0.188039 0.053478
v 0.077494 -0.213100 0.048517
v -0.019245 -0.002096 0.207847
v 0.125274 0.041505 0.207255
v 0.083583 0.112760 0.220780
v -0.070902 0.071231 0.231682
v 0.178517 -0.188039 0.053478
v 0.051816 -0.139730 0.130159
v 0.077494 -0.213100 0.048517
v 0.172768 -0.100758 0.121125
v 0.125274 0.041505 0.207255
v 0.015146 -0.064962 0.178219
v 0.157493 -0.018822 0.171211
v -0.019245 -0.002096 0.207847
v 0.051816 -0.139730 0.130159
v 0.172768 -0.100758 0.121125
v 0.157493 -0.018822 0.171211
v 0.015146 -0.064962 0.178219
v -0.099531 0.049124 -0.140346
v -0.160655 0.118401 -0.072571
v -0.021215 0.094398 -0.180951
v -0.018893 0.176973 -0.111149
v -0.160655 0.118401 -0.072571
v -0.084569 0.210708 -0.023056
v -0.018893 0.176973 -0.111149
v -0.169240 0.184443 -0.016439
v -0.021215 0.094398 -0.180951
v 0.011933 -0.028453 -0.228405
v -0.099531 0.049124 -0.140346
v -0.033202 -0.057500 -0.180046
v -0.160655 0.118401 -0.072571
v -0.204303 0.149813 0.027109
v -0.169240 0.184443 -0.016439
v -0.147588 0.052262 0.017603
v 0.220610 -0.019542 -0.081426
v 0.208518 -0.076588 -0.235949
v 0.182260 0.030671 -0.184127
v 0.214039 -0.165071 -0.167047
v 0.209133 -0.052529 0.001997
v 0.203336 -0.195622 -0.058152
v 0.220610 -0.019542 -0.081426
v 0.214039 -0.165071 -0.167047
v 0.172768 -0.100758 0.121125
v 0.178517 -0.188039 0.053478
v 0.209133 -0.052529 0.001997
v 0.203336 -0.195622 -0.058152
v -0.018893 0.176973 -0.111149
v -0.006516 0.226371 0.004136
v 0.055289 0.179003 -0.036085
v -0.084569 0.210708 -0.023056
v 0.083583 0.112760 0.220780
v 0.050100 0.183531 0.178501
v 0.045914 0.152453 0.220828
v 0.106677 0.144149 0.093852
v 0.057174 0.127813 -0.123460
v -0.021215 0.094398 -0.180951
v -0.018893 0.176973 -0.111149
v 0.055625 0.074374 -0.158005
v 0.055289 0.179003 -0.036085
v 0.057174 0.127813 -0.123460
v -0.018893 0.176973 -0.111149
v 0.095482 0.140160 -0.083242
v 0.180079 0.030971 0.031951
v 0.157493 -0.018822 0.171211
v 0.172768 -0.100758 0.121125
v 0.209133 -0.052529 0.001997
v 0.055625 0.074374 -0.158005
v 0.011933 -0.028453 -0.228405
v -0.021215 0.094398 -0.180951
v 0.048345 -0.029138 -0.202381
v 0.106677 0.144149 0.093852
v 0.083583 0.112760 0.220780
v 0.125274 0.041505 0.207255
v 0.150298 0.092510 0.057532
v 0.150298 0.092510 0.057532
v 0.157493 -0.018822 0.171211
v 0.180079 0.030971 0.031951
v 0.125274 0.041505 0.207255
v 0.209133 -0.052529 0.001997
v 0.179246 0.061666 -0.035970
v 0.180079 0.030971 0.031951
v 0.220610 -0.019542 -0.081426
v -0.006516 0.226371 0.004136
v 0.048445 0.204526 0.082199
v 0.082869 0.161368 0.020381
v 0.055289 0.179003 -0.036085
v 0.131833 0.095487 -0.123658
v 0.179246 0.061666 -0.035970
v 0.220610 -0.019542 -0.081426
v 0.182260 0.030671 -0.184127
v 0.150298 0.092510 0.057532
v 0.179246 0.061666 -0.035970
v 0.119501 0.122823 -0.006458
v 0.180079 0.030971 0.031951
v 0.048445 0.204526 0.082199
v 0.050100 0.183531 0.178501
v 0.106677 0.144149 0.093852
v 0.082869 0.161368 0.020381
v 0.150298 0.092510 0.057532
v 0.119501 0.122823 -0.006458
v 0.082869 0.161368 0.020381
v 0.119501 0.122823 -0.006458
v 0.055289 0.179003 -0.036085
v 0.095482 0.140160 -0.083242
v 0.095482 0.140160 -0.083242
v 0.119501 0.122823 -0.006458
v 0.179246 0.061666 -0.035970
v 0.131833 0.095487 -0.123658
v -0.147588 0.052262 0.017603
v -0.160655 0.118401 -0.072571
v -0.066764 -0.037756 -0.062761
v -0.099531 0.049124 -0.140346
v 0.034518 0.010411 -0.125267
v 0.057174 0.127813 -0.123460
v 0.131833 0.095487 -0.123658
v 0.095482 0.140160 -0.083242
v -0.066764 -0.037756 -0.062761
v -0.099531 0.049124 -0.140346
v -0.015522 -0.069333 -0.114938
v -0.033202 -0.057500 -0.180046
v -0.204303 0.149813 0.027109
v -0.133585 0.056306 0.078354
v -0.220610 0.139461 0.102745
v -0.147588 0.052262 0.017603
v 0.133102 -0.118799 -0.225830
v 0.080077 -0.026493 -0.169084
v 0.208518 -0.076588 -0.235949
v 0.182260 0.030671 -0.184127
v 0.042076 -0.051857 -0.152245
v -0.033202 -0.057500 -0.180046
v 0.048345 -0.029138 -0.202381
v -0.135404 0.110579 0.235949
v -0.188372 0.126168 0.185157
v -0.125814 0.061543 0.147269
v -0.070902 0.071231 0.231682
v -0.125814 0.061543 0.147269
v -0.019245 -0.002096 0.207847
v -0.070902 0.071231 0.231682
v -0.041927 -0.004129 0.090306
v 0.011933 -0.028453 -0.228405
v 0.048345 -0.029138 -0.202381
v -0.033202 -0.057500 -0.180046
v -0.220610 0.139461 0.102745
v -0.125814 0.061543 0.147269
v -0.188372 0.126168 0.185157
v -0.133585 0.056306 0.078354
v -0.015522 -0.069333 -0.114938
v -0.033202 -0.057500 -0.180046
v 0.042076 -0.051857 -0.152245
v 0.080077 -0.026493 -0.169084
v 0.131833 0.095487 -0.123658
v 0.182260 0.030671 -0.184127
v 0.034518 0.010411 -0.125267
v -0.041927 -0.004129 0.090306
v 0.015146 -0.064962 0.178219
v -0.019245 -0.002096 0.207847
v 0.024428 -0.056039 0.050543
v -0.133585 0.056306 0.078354
v -0.041927 -0.004129 0.090306
v -0.125814 0.061543 0.147269
v -0.033413 -0.000109 0.026939
v -0.147588 0.052262 0.017603
v -0.033413 -0.000109 0.026939
v -0.133585 0.056306 0.078354
v -0.031960 -0.013297 -0.014898
v 0.024428 -0.056039 0.050543
v -0.033413 -0.000109 0.026939
v 0.029840 -0.042237 -0.015895
v -0.041927 -0.004129 0.090306
v -0.031960 -0.013297 -0.014898
v 0.029840 -0.042237 -0.015895
v -0.033413 -0.000109 0.026939
v 0.034518 0.010411 -0.125267
v -0.066764 -0.037756 -0.062761
v -0.031960 -0.013297 -0.014898
v -0.147588 0.052262 0.017603
v 0.029840 -0.042237 -0.015895
v 0.064926 -0.119454 0.012188
v 0.024428 -0.056039 0.050543
v 0.079773 -0.098886 -0.064049
v 0.024428 -0.056039 0.050543
v 0.051816 -0.139730 0.130159
v 0.015146 -0.064962 0.178219
v 0.064926 -0.119454 0.012188
v 0.034518 0.010411 -0.125267
v 0.079773 -0.098886 -0.064049
v 0.029840 -0.042237 -0.015895
v 0.080077 -0.026493 -0.169084
v 0.133102 -0.118799 -0.225830
v 0.128456 -0.200364 -0.156506
v 0.059948 0.004661 -0.106614
v 0.048345 -0.029138 -0.202381
v 0.055625 0.074374 -0.158005
v 0.042076 -0.051857 -0.152245
v 0.079773 -0.098886 -0.064049
v 0.105410 -0.226371 -0.051164
v 0.064926 -0.119454 0.012188
v 0.128456 -0.200364 -0.156506
v 0.064926 -0.119454 0.012188
v 0.077494 -0.213100 0.048517
v 0.051816 -0.139730 0.130159
v 0.105410 -0.226371 -0.051164
v -0.066764 -0.037756 -0.062761
v 0.034518 0.010411 -0.125267
v -0.031960 -0.013297 -0.014898
v 0.057174 0.127813 -0.123460
v 0.034518 0.010411 -0.125267
v 0.055625 0.074374 -0.158005
v 0.059948 0.004661 -0.106614
v -0.015522 -0.069333 -0.114938
v 0.042076 -0.051857 -0.152245
v -0.066764 -0.037756 -0.062761
v -0.066764 -0.037756 -0.062761
v 0.059948 0.004661 -0.106614
v 0.034518 0.010411 -0.125267
vt 0.333028 3.451313
vt 0.380733 3.530823
vt 0.333028 3.530823
vt 0.380733 3.451313
vt 0.380733 3.570579
vt 0.333028 3.530823
vt 0.380733 3.530823
vt 0.333028 3.570579
vt 0.587461 3.699008
vt 0.587461 3.610334
vt 0.666973 3.599326
vt 0.666972 3.699008
vt 0.333028 3.570579
vt 0.380733 3.570579
vt 0.380733 3.610334
vt 0.333028 3.610334
vt 0.543731 3.699008
vt 0.543731 3.610334
vt 0.587461 3.610334
vt 0.587461 3.699008
vt 0.380733 3.610334
vt 0.428439 3.699008
vt 0.380733 3.699008
vt 0.428439 3.610334
vt 0.543731 3.610334
vt 0.500000 3.699008
vt 0.500000 3.610334
vt 0.543731 3.699008
vt 0.428439 3.699008
vt 0.428439 3.610334
vt 0.500000 3.610334
vt 0.500000 3.699008
vt 0.500000 3.848420
vt 0.500000 3.909998
vt 0.463053 3.848420
vt 0.463052 3.909998
vt 0.601109 3.352427
vt 0.666972 3.414665
vt 0.587461 3.419508
vt 0.666973 3.352427
vt 0.463053 3.848420
vt 0.463052 3.799157
vt 0.500000 3.848420
vt 0.500000 3.799157
vt 0.601109 3.352427
vt 0.666973 3.320638
vt 0.666973 3.352427
vt 0.587461 3.320623
vt 0.428439 3.530823
vt 0.380733 3.451313
vt 0.428439 3.451313
vt 0.380733 3.530823
vt 0.428439 3.570579
vt 0.380733 3.570579
vt 0.428439 3.530823
vt 0.380733 3.530823
vt 0.428439 3.610334
vt 0.380733 3.610334
vt 0.428439 3.570579
vt 0.380733 3.570579
vt 0.587461 3.419508
vt 0.666972 3.482430
vt 0.587461 3.505412
vt 0.666972 3.414665
vt 0.587461 3.610334
vt 0.666972 3.572106
vt 0.666973 3.599326
vt 0.587461 3.580290
vt 0.426105 3.887921
vt 0.463053 3.848420
vt 0.463052 3.909998
vt 0.426105 3.848420
vt 0.447707 3.950107
vt 0.426105 3.887921
vt 0.463052 3.909998
vt 0.426105 3.909998
vt 0.501911 3.572374
vt 0.500000 3.610334
vt 0.428439 3.610334
vt 0.428439 3.570579
vt 0.426105 3.848420
vt 0.463052 3.799157
vt 0.463053 3.848420
vt 0.426105 3.799157
vt 0.587461 3.580290
vt 0.587461 3.610334
vt 0.543731 3.610334
vt 0.544687 3.576332
vt 0.544687 3.576332
vt 0.500000 3.610334
vt 0.501911 3.572374
vt 0.543731 3.610334
vt 0.428439 3.570579
vt 0.503976 3.531378
vt 0.501911 3.572374
vt 0.428439 3.530823
vt 0.666972 3.482430
vt 0.666972 3.530823
vt 0.587461 3.547844
vt 0.587461 3.505412
vt 0.485305 3.452107
vt 0.503976 3.531378
vt 0.428439 3.530823
vt 0.428439 3.451313
vt 0.544687 3.576332
vt 0.503976 3.531378
vt 0.545718 3.539611
vt 0.501911 3.572374
vt 0.666972 3.530823
vt 0.666972 3.572106
vt 0.587461 3.580290
vt 0.587461 3.547844
vt 0.544687 3.576332
vt 0.545718 3.539611
vt 0.587461 3.547844
vt 0.545718 3.539611
vt 0.587461 3.505412
vt 0.507951 3.452423
vt 0.507951 3.452423
vt 0.545718 3.539611
vt 0.503976 3.531378
vt 0.485305 3.452107
vt 0.536947 3.909998
vt 0.500000 3.909998
vt 0.536947 3.848420
vt 0.500000 3.848420
vt 0.389158 3.909998
vt 0.426105 3.887921
vt 0.404183 3.948965
vt 0.426105 3.909998
vt 0.536947 3.848420
vt 0.500000 3.848420
vt 0.536947 3.799157
vt 0.500000 3.799157
vt 0.666973 3.320638
vt 0.587461 3.288848
vt 0.666973 3.288848
vt 0.587461 3.320623
vt 0.380733 3.352427
vt 0.428439 3.352427
vt 0.380733 3.451313
vt 0.428439 3.451313
vt 0.500000 3.749893
vt 0.500000 3.799157
vt 0.463053 3.762209
vt 0.666973 3.209337
vt 0.666973 3.265375
vt 0.587461 3.266475
vt 0.587461 3.209338
vt 0.587461 3.266475
vt 0.543731 3.209337
vt 0.587461 3.209338
vt 0.529943 3.242566
vt 0.463052 3.799157
vt 0.463053 3.762209
vt 0.500000 3.799157
vt 0.666973 3.288848
vt 0.587461 3.266475
vt 0.666973 3.265375
vt 0.587461 3.288848
vt 0.536947 3.799157
vt 0.500000 3.799157
vt 0.500000 3.749893
vt 0.428439 3.352427
vt 0.485305 3.452107
vt 0.428439 3.451313
vt 0.494224 3.352882
vt 0.529943 3.242566
vt 0.500000 3.209337
vt 0.543731 3.209337
vt 0.498556 3.245224
vt 0.587461 3.288848
vt 0.529943 3.242566
vt 0.587461 3.266475
vt 0.516156 3.275795
vt 0.587461 3.320623
vt 0.516156 3.275795
vt 0.587461 3.288848
vt 0.527509 3.322503
vt 0.498556 3.245224
vt 0.516156 3.275795
vt 0.497112 3.281110
vt 0.529943 3.242566
vt 0.527509 3.322503
vt 0.497112 3.281110
vt 0.516156 3.275795
vt 0.494224 3.352882
vt 0.536947 3.848420
vt 0.574410 3.910355
vt 0.536947 3.909998
vt 0.497112 3.281110
vt 0.428439 3.245110
vt 0.498556 3.245224
vt 0.428439 3.280882
vt 0.498556 3.245224
vt 0.428439 3.209337
vt 0.500000 3.209337
vt 0.428439 3.245110
vt 0.494224 3.352882
vt 0.428439 3.280882
vt 0.497112 3.281110
vt 0.428439 3.352427
vt 0.380733 3.352427
vt 0.380733 3.280882
vt 0.389158 3.848420
vt 0.426105 3.799157
vt 0.426105 3.848420
vt 0.389158 3.799157
vt 0.428439 3.280882
vt 0.380733 3.245110
vt 0.428439 3.245110
vt 0.380733 3.280882
vt 0.428439 3.245110
vt 0.380733 3.209338
vt 0.428439 3.209337
vt 0.380733 3.245110
vt 0.536947 3.848420
vt 0.610842 3.909998
vt 0.574410 3.910355
vt 0.426105 3.887921
vt 0.389158 3.909998
vt 0.426105 3.848420
vt 0.610842 3.848420
vt 0.536947 3.799157
vt 0.610842 3.799156
vt 0.536947 3.848420
vt 0.536947 3.848420
vt 0.610842 3.848420
vt 0.610842 3.909998
vn 0.200074 -0.617336 -0.760746
vn 0.200074 -0.617336 -0.760746
vn 0.200074 -0.617336 -0.760746
vn 0.200074 -0.617336 -0.760746
vn 0.315731 -0.928939 -0.195845
vn 0.315731 -0.928939 -0.195845
vn 0.315731 -0.928939 -0.195845
vn 0.315731 -0.928939 -0.195845
vn 0.069124 0.034547 0.997043
vn 0.069124 0.034547 0.997043
vn 0.069124 0.034547 0.997043
vn 0.069124 0.034547 0.997043
vn 0.267939 -0.949968 0.160683
vn 0.267939 -0.949968 0.160683
vn 0.267939 -0.949968 0.160683
vn 0.267939 -0.949968 0.160683
vn 0.092065 -0.192943 0.976970
vn 0.092065 -0.192943 0.976970
vn 0.092065 -0.192943 0.976970
vn 0.092065 -0.192943 0.976970
vn 0.200074 -0.646011 0.737054
vn 0.200074 -0.646011 0.737054
vn 0.200074 -0.646011 0.737054
vn 0.200074 -0.646011 0.737054
vn 0.149415 -0.401316 0.903370
vn 0.149415 -0.401316 0.903370
vn 0.149415 -0.401316 0.903370
vn 0.149415 -0.401316 0.903370
vn 0.203898 -0.470136 0.858446
vn 0.203898 -0.470136 0.858446
vn 0.203898 -0.470136 0.858446
vn 0.203898 -0.470136 0.858446
vn -0.488130 0.475189 -0.733026
vn -0.488130 0.475189 -0.733026
vn -0.488130 0.475189 -0.733026
vn -0.488130 0.475189 -0.733026
vn -0.377252 0.659666 -0.650824
vn -0.377252 0.659666 -0.650824
vn -0.377252 0.659666 -0.650824
vn -0.377252 0.659666 -0.650824
vn -0.600919 0.042193 -0.798023
vn -0.600919 0.042193 -0.798023
vn -0.600919 0.042193 -0.798023
vn -0.600919 0.042193 -0.798023
vn -0.915390 -0.234044 -0.326795
vn -0.915390 -0.234044 -0.326795
vn -0.915390 -0.234044 -0.326795
vn -0.915390 -0.234044 -0.326795
vn 0.980039 0.147336 -0.130848
vn 0.980039 0.147336 -0.130848
vn 0.980039 0.147336 -0.130848
vn 0.980039 0.147336 -0.130848
vn 0.992465 -0.085889 0.086128
vn 0.992465 -0.085889 0.086128
vn 0.992465 -0.085889 0.086128
vn 0.992465 -0.085889 0.086128
vn 0.963790 -0.128902 0.232371
vn 0.963790 -0.128902 0.232371
vn 0.963790 -0.128902 0.232371
vn 0.963790 -0.128902 0.232371
vn 0.166620 0.899581 -0.403262
vn 0.166620 0.899581 -0.403262
vn 0.166620 0.899581 -0.403262
vn 0.166620 0.899581 -0.403262
vn 0.763064 0.557391 0.328911
vn 0.763064 0.557391 0.328911
vn 0.763064 0.557391 0.328911
vn 0.763064 0.557391 0.328911
vn 0.311908 0.572684 -0.757878
vn 0.311908 0.572684 -0.757878
vn 0.311908 0.572684 -0.757878
vn 0.311908 0.572684 -0.757878
vn 0.372125 0.803997 -0.463480
vn 0.372125 0.803997 -0.463480
vn 0.372125 0.803997 -0.463480
vn 0.372125 0.803997 -0.463480
vn 0.955187 0.127263 0.265826
vn 0.955187 0.127263 0.265826
vn 0.955187 0.127263 0.265826
vn 0.955187 0.127263 0.265826
vn 0.424697 0.381516 -0.820963
vn 0.424697 0.381516 -0.820963
vn 0.424697 0.381516 -0.820963
vn 0.424697 0.381516 -0.820963
vn 0.837619 0.466586 0.284942
vn 0.837619 0.466586 0.284942
vn 0.837619 0.466586 0.284942
vn 0.837619 0.466586 0.284942
vn 0.907395 0.327989 0.263914
vn 0.907395 0.327989 0.263914
vn 0.907395 0.327989 0.263914
vn 0.907395 0.327989 0.263914
vn 0.931291 0.308873 0.195094
vn 0.931291 0.308873 0.195094
vn 0.931291 0.308873 0.195094
vn 0.931291 0.308873 0.195094
vn 0.598659 0.789660 -0.135627
vn 0.598659 0.789660 -0.135627
vn 0.598659 0.789660 -0.135627
vn 0.598659 0.789660 -0.135627
vn 0.805121 0.583198 -0.105996
vn 0.805121 0.583198 -0.105996
vn 0.805121 0.583198 -0.105996
vn 0.805121 0.583198 -0.105996
vn 0.820414 0.568861 0.066055
vn 0.820414 0.568861 0.066055
vn 0.820414 0.568861 0.066055
vn 0.820414 0.568861 0.066055
vn 0.714316 0.697899 0.049806
vn 0.714316 0.697899 0.049806
vn 0.719095 0.695032 0.008705
vn 0.724830 0.689297 -0.011368
vn 0.727698 0.684517 -0.052469
vn 0.727698 0.684517 -0.052469
vn 0.674171 0.735177 -0.068718
vn 0.674171 0.735177 -0.068718
vn 0.674171 0.735177 -0.068718
vn 0.674171 0.735177 -0.068718
vn 0.707625 0.700767 -0.088791
vn 0.707625 0.700767 -0.088791
vn 0.707625 0.700767 -0.088791
vn 0.707625 0.700767 -0.088791
vn -0.824585 -0.511237 -0.240769
vn -0.824585 -0.511237 -0.240769
vn -0.824585 -0.511237 -0.240769
vn -0.824585 -0.511237 -0.240769
vn 0.109270 0.259169 -0.959560
vn 0.109270 0.259169 -0.959560
vn 0.109270 0.259169 -0.959560
vn 0.109270 0.259169 -0.959560
vn -0.795910 -0.591528 -0.127980
vn -0.795910 -0.591528 -0.127980
vn -0.795910 -0.591528 -0.127980
vn -0.795910 -0.591528 -0.127980
vn -0.785396 -0.617336 -0.041955
vn -0.785396 -0.617336 -0.041955
vn -0.785396 -0.617336 -0.041955
vn -0.785396 -0.617336 -0.041955
vn -0.320858 0.350929 -0.879270
vn -0.320858 0.350929 -0.879270
vn -0.320858 0.350929 -0.879270
vn -0.320858 0.350929 -0.879270
vn 0.208677 -0.900264 -0.382233
vn 0.208677 -0.900264 -0.382233
vn 0.208677 -0.900264 -0.382233
vn -0.510114 -0.775049 0.372880
vn -0.510114 -0.775049 0.372880
vn -0.510114 -0.775049 0.372880
vn -0.510114 -0.775049 0.372880
vn -0.603786 -0.748286 0.275384
vn -0.603786 -0.748286 0.275384
vn -0.603786 -0.748286 0.275384
vn -0.603786 -0.748286 0.275384
vn 0.224926 -0.913646 -0.339221
vn 0.224926 -0.913646 -0.339221
vn 0.224926 -0.913646 -0.339221
vn -0.666872 -0.732992 0.136787
vn -0.666872 -0.732992 0.136787
vn -0.666872 -0.732992 0.136787
vn -0.666872 -0.732992 0.136787
vn 0.152282 -0.964305 -0.216873
vn 0.152282 -0.964305 -0.216873
vn 0.152282 -0.964305 -0.216873
vn -0.382032 0.460851 -0.800891
vn -0.382032 0.460851 -0.800891
vn -0.382032 0.460851 -0.800891
vn -0.382032 0.460851 -0.800891
vn -0.744295 -0.667039 0.022087
vn -0.744295 -0.667039 0.022087
vn -0.744295 -0.667039 0.022087
vn -0.744295 -0.667039 0.022087
vn -0.551215 -0.834311 0.004882
vn -0.551215 -0.834311 0.004882
vn -0.551215 -0.834311 0.004882
vn -0.551215 -0.834311 0.004882
vn -0.422177 -0.884015 0.199873
vn -0.422177 -0.884015 0.199873
vn -0.422177 -0.884015 0.199873
vn -0.422177 -0.884015 0.199873
vn -0.647755 -0.742551 -0.170993
vn -0.647755 -0.742551 -0.170993
vn -0.647755 -0.742551 -0.170993
vn -0.647755 -0.742551 -0.170993
vn -0.414530 -0.876368 -0.245548
vn -0.414530 -0.876368 -0.245548
vn -0.414530 -0.876368 -0.245548
vn -0.414530 -0.876368 -0.245548
vn -0.268287 -0.764535 0.586032
vn -0.268287 -0.764535 0.586032
vn -0.268287 -0.764535 0.586032
vn -0.850393 -0.471092 -0.234078
vn -0.850393 -0.471092 -0.234078
vn -0.850393 -0.471092 -0.234078
vn -0.850393 -0.471092 -0.234078
vn -0.898185 -0.419477 -0.131803
vn -0.898185 -0.419477 -0.131803
vn -0.898185 -0.419477 -0.131803
vn -0.898185 -0.419477 -0.131803
vn -0.801645 -0.508370 -0.315325
vn -0.867598 -0.398448 -0.298119
vn -0.801645 -0.508370 -0.315325
vn -0.871421 -0.393669 -0.292384
vn -0.922081 -0.276101 -0.270400
vn -0.922081 -0.276101 -0.270400
vn 0.990553 -0.109785 -0.081144
vn 0.990553 -0.109785 -0.081144
vn 0.990553 -0.109785 -0.081144
vn 0.990553 -0.109785 -0.081144
vn -0.943109 -0.214927 -0.252239
vn -0.943109 -0.214927 -0.252239
vn -0.943109 -0.214927 -0.252239
vn -0.943109 -0.214927 -0.252239
vn -0.961270 -0.201546 -0.187242
vn -0.961270 -0.201546 -0.187242
vn -0.961270 -0.201546 -0.187242
vn -0.961270 -0.201546 -0.187242
vn 0.477268 -0.873500 0.099510
vn 0.477268 -0.873500 0.099510
vn 0.477268 -0.873500 0.099510
vn 0.723874 0.109102 0.680660
vn 0.723874 0.109102 0.680660
vn 0.723874 0.109102 0.680660
vn 0.479179 -0.564764 0.672057
vn 0.479179 -0.564764 0.672057
vn 0.479179 -0.564764 0.672057
vn 0.479179 -0.564764 0.672057
vn -0.136381 0.879509 0.456994
vn -0.136381 0.879509 0.456994
vn -0.136381 0.879509 0.456994
f 1/1/1 2/2/2 3/3/3
f 2/2/2 1/1/1 4/4/4
f 5/5/5 6/6/6 7/7/7
f 6/6/6 5/5/5 8/8/8
f 9/9/9 10/10/10 11/11/11
f 11/11/11 12/12/12 9/9/9
f 13/13/13 14/14/14 15/15/15
f 15/15/15 16/16/16 13/13/13
f 17/17/17 18/18/18 19/19/19
f 19/19/19 20/20/20 17/17/17
f 21/21/21 22/22/22 23/23/23
f 22/22/22 21/21/21 24/24/24
f 25/25/25 26/26/26 27/27/27
f 26/26/26 25/25/25 28/28/28
f 29/29/29 30/30/30 31/31/31
f 31/31/31 32/32/32 29/29/29
f 33/33/33 34/34/34 35/35/35
f 34/34/34 36/36/36 35/35/35
f 37/37/37 38/38/38 39/39/39
f 38/38/38 37/37/37 40/40/40
f 41/41/41 42/42/42 43/43/43
f 44/44/44 43/43/43 42/42/42
f 45/45/45 46/46/46 47/47/47
f 46/46/46 45/45/45 48/48/48
f 49/49/49 50/50/50 51/51/51
f 50/50/50 49/49/49 52/52/52
f 53/53/53 54/54/54 55/55/55
f 55/55/55 54/54/54 56/56/56
f 57/57/57 58/58/58 59/59/59
f 60/60/60 59/59/59 58/58/58
f 61/61/61 62/62/62 63/63/63
f 62/62/62 61/61/61 64/64/64
f 65/65/65 66/66/66 67/67/67
f 66/66/66 65/65/65 68/68/68
f 69/69/69 70/70/70 71/71/71
f 70/70/70 69/69/69 72/72/72
f 73/73/73 74/74/74 75/75/75
f 74/74/74 73/73/73 76/76/76
f 77/77/77 78/78/78 79/79/79
f 77/77/77 79/79/79 80/80/80
f 81/81/81 82/82/82 83/83/83
f 82/82/82 81/81/81 84/84/84
f 85/85/85 86/86/86 87/87/87
f 85/85/85 87/87/87 88/88/88
f 89/89/89 90/90/90 91/91/91
f 90/90/90 89/89/89 92/92/92
f 93/93/93 94/94/94 95/95/95
f 94/94/94 93/93/93 96/96/96
f 97/97/97 98/98/98 99/99/99
f 97/97/97 99/99/99 100/100/100
f 101/101/101 102/102/102 103/103/103
f 103/103/103 104/104/104 101/101/101
f 105/105/105 106/106/106 107/107/107
f 106/106/106 105/105/105 108/108/108
f 109/109/109 110/110/110 111/111/111
f 111/111/111 112/112/112 109/109/109
f 111/111/111 113/113/113 112/112/112
f 112/112/112 113/113/113 114/114/114
f 115/115/115 116/116/116 117/117/117
f 117/117/117 116/116/116 118/118/118
f 119/119/119 120/120/120 121/121/121
f 119/119/119 121/121/121 122/122/122
f 123/123/123 124/124/124 125/125/125
f 124/124/124 126/126/126 125/125/125
f 127/127/127 128/128/128 129/129/129
f 128/128/128 130/130/130 129/129/129
f 131/131/131 132/132/132 133/133/133
f 132/132/132 134/134/134 133/133/133
f 135/135/135 136/136/136 137/137/137
f 136/136/136 135/135/135 138/138/138
f 139/139/139 140/140/140 141/141/141
f 140/140/140 142/142/142 141/141/141
f 143/143/143 144/144/144 145/145/145
f 146/146/146 147/147/147 148/148/148
f 148/148/148 149/149/149 146/146/146
f 150/150/150 151/151/151 152/152/152
f 151/151/151 150/150/150 153/153/153
f 154/154/154 155/155/155 156/156/156
f 157/157/157 158/158/158 159/159/159
f 158/158/158 157/157/157 160/160/160
f 161/161/161 162/162/162 163/163/163
f 164/164/164 165/165/165 166/166/166
f 165/165/165 164/164/164 167/167/167
f 168/168/168 169/169/169 170/170/170
f 168/168/168 171/171/171 169/169/169
f 172/172/172 173/173/173 174/174/174
f 173/173/173 172/172/172 175/175/175
f 176/176/176 177/177/177 178/178/178
f 177/177/177 176/176/176 179/179/179
f 180/180/180 181/181/181 182/182/182
f 181/181/181 180/180/180 183/183/183
f 184/184/184 185/185/185 186/186/186
f 185/185/185 184/184/184 187/187/187
f 188/188/188 189/189/189 190/190/190
f 191/191/191 192/192/192 193/193/193
f 192/192/192 191/191/191 194/194/194
f 195/195/195 196/196/196 197/197/197
f 196/196/196 195/195/195 198/198/198
f 199/199/199 200/200/200 201/201/201
f 200/200/200 199/199/199 202/202/202
f 202/202/202 203/203/203 200/200/200
f 200/200/200 203/203/203 204/204/204
f 205/205/205 206/206/206 207/207/207
f 206/206/206 205/205/205 208/208/208
f 209/209/209 210/210/210 211/211/211
f 210/210/210 209/209/209 212/212/212
f 213/213/213 214/214/214 215/215/215
f 214/214/214 213/213/213 216/216/216
f 217/217/217 218/218/218 219/219/219
f 220/220/220 221/221/221 222/222/222
f 223/223/223 224/224/224 225/225/225
f 224/224/224 223/223/223 226/226/226
f 227/227/227 228/228/228 229/229/229
