# Generated from Roblox mesh JSON (v7.00)
# Hello from RBX_Toolbox ;)
o RightFoot
v -0.216100 -0.065894 -0.141020
v -0.049256 -0.072245 -0.077090
v -0.227050 -0.068745 -0.042053
v -0.211947 -0.068615 0.047104
v -0.280559 -0.030455 -0.035370
v -0.227050 -0.068745 -0.042053
v -0.216100 -0.065894 -0.141020
v -0.258540 -0.030774 -0.146506
v -0.095659 -0.013728 -0.253110
v -0.211947 -0.068615 0.047104
v 0.064194 -0.067194 -0.205891
v -0.075614 -0.072069 -0.143430
v -0.103763 -0.061013 -0.225994
v 0.064194 -0.067194 -0.205891
v -0.103763 -0.061013 -0.225994
v -0.019666 -0.072444 0.005026
v -0.223318 -0.028990 0.146966
v -0.175752 -0.068734 0.125026
v -0.146070 -0.046768 0.207309
v -0.129564 -0.069538 0.172930
v -0.265744 -0.027070 0.062245
v -0.175752 -0.068734 0.125026
v 0.009668 -0.072615 0.087618
v -0.129564 -0.069538 0.172930
v 0.036219 -0.070278 0.164939
v 0.036219 -0.070278 0.164939
v -0.146070 -0.046768 0.207309
v -0.129564 -0.069538 0.172930
v 0.053266 -0.032387 0.215736
v -0.147232 -0.009100 0.228406
v -0.266854 0.001095 -0.138887
v -0.294853 0.007817 -0.030051
v -0.259620 0.062100 -0.130574
v -0.293156 0.068656 -0.021414
v -0.280726 0.012453 0.071925
v -0.087058 0.013253 -0.256027
v 0.104273 -0.032576 -0.229209
v -0.082013 0.033634 -0.257259
v -0.232905 0.008855 0.162153
v -0.280432 0.072615 0.082255
v -0.229525 0.070202 0.174189
v -0.147232 -0.009100 0.228406
v 0.063151 0.005093 0.238244
v -0.140808 0.060063 0.241860
v -0.140808 0.060063 0.241860
v 0.128869 -0.071248 -0.123939
v 0.172340 -0.071527 -0.038205
v 0.104273 -0.032576 -0.229209
v 0.128869 -0.071248 -0.123939
v 0.064194 -0.067194 -0.205891
v 0.126797 -0.003103 -0.228887
v 0.181147 -0.038030 -0.141013
v 0.172340 -0.071527 -0.038205
v 0.226600 -0.037893 -0.050293
v 0.207974 -0.010706 -0.145255
v 0.255256 -0.012462 -0.051484
v 0.245107 -0.029253 0.041291
v 0.194484 -0.060175 0.047999
v 0.194484 -0.060175 0.047999
v 0.190208 -0.050031 0.109334
v 0.190208 -0.050031 0.109334
v 0.190208 -0.050031 0.109334
v 0.221056 -0.026413 0.126755
v 0.221056 -0.026413 0.126755
v 0.126797 -0.003103 -0.228887
v 0.147553 0.042306 -0.218678
v 0.147553 0.042306 -0.218678
v 0.233566 0.038136 -0.139357
v 0.271535 -0.003113 0.045769
v 0.282628 0.039607 -0.045728
v 0.294853 0.043238 0.055403
v 0.241074 0.003367 0.140247
v 0.075465 0.061374 0.257259
v 0.258385 0.049815 0.153211
v 0.241074 0.003367 0.140247
v 0.258385 0.049815 0.153211
vt 0.990012 0.203746
vt 0.870366 0.133952
vt 0.990012 0.133952
vt 0.615604 0.178466
vt 0.556062 0.187261
vt 0.556299 0.178466
vt 0.492248 0.178451
vt 0.492701 0.187259
vt 0.370159 0.193838
vt 0.990012 0.091453
vt 0.753665 0.203746
vt 0.870366 0.203746
vt 0.870344 0.229433
vt 0.251490 0.178442
vt 0.370689 0.178442
vt 0.870366 0.091453
vt 0.673275 0.187261
vt 0.673512 0.178466
vt 0.733645 0.187261
vt 0.733645 0.178466
vt 0.615367 0.187261
vt 0.990012 0.050223
vt 0.870366 0.050223
vt 0.990012 0.012185
vt 0.870366 0.012185
vt 0.129869 0.107066
vt 0.010476 0.115754
vt 0.010476 0.107066
vt 0.129869 0.115754
vt 0.010476 0.124234
vt 0.492911 0.195589
vt 0.556062 0.195582
vt 0.492721 0.210401
vt 0.556062 0.210376
vt 0.615367 0.195582
vt 0.370689 0.205204
vt 0.251490 0.187257
vt 0.370689 0.210427
vt 0.673275 0.195582
vt 0.615367 0.210376
vt 0.673275 0.210376
vt 0.733645 0.195582
vt 0.129869 0.124234
vt 0.010476 0.138850
vt 0.733644 0.210376
vt 0.753664 0.133952
vt 0.753665 0.091453
vt 0.248006 0.187296
vt 0.187893 0.178451
vt 0.248006 0.178451
vt 0.248006 0.195666
vt 0.187893 0.187296
vt 0.129752 0.178451
vt 0.129752 0.187296
vt 0.187893 0.195666
vt 0.129752 0.195666
vt 0.070840 0.187296
vt 0.070840 0.178451
vt 0.753664 0.050223
vt 0.753664 0.012185
vt 0.249372 0.107066
vt 0.009637 0.178451
vt 0.249372 0.115754
vt 0.009637 0.187296
vt 0.251490 0.195598
vt 0.248006 0.210520
vt 0.251490 0.210427
vt 0.187893 0.210520
vt 0.070840 0.195666
vt 0.129752 0.210520
vt 0.070840 0.210520
vt 0.249372 0.124234
vt 0.129869 0.138850
vt 0.249372 0.138850
vt 0.009637 0.195666
vt 0.009637 0.210520
vn -0.364383 -0.872729 -0.326539
vn -0.007918 -0.999971 -0.007498
vn -0.342864 -0.939157 -0.010305
vn -0.327894 -0.939157 0.106646
vn -0.809731 -0.586434 -0.024339
vn -0.342864 -0.939157 -0.010305
vn -0.364383 -0.872729 -0.326539
vn -0.737689 -0.411476 -0.534243
vn -0.253982 -0.234647 -0.938424
vn -0.327894 -0.939157 0.106646
vn 0.139908 -0.875536 -0.462202
vn -0.020080 -0.998100 -0.052407
vn -0.215622 -0.754843 -0.619383
vn 0.139908 -0.875536 -0.462202
vn -0.215622 -0.754843 -0.619383
vn -0.007918 -0.999971 0.000923
vn -0.660034 -0.597662 0.454691
vn -0.297955 -0.936350 0.188044
vn -0.300762 -0.668767 0.680172
vn -0.124868 -0.941964 0.311543
vn -0.760144 -0.605146 0.237631
vn -0.297955 -0.936350 0.188044
vn 0.028571 -0.999036 0.021506
vn -0.124868 -0.941964 0.311543
vn 0.117453 -0.941964 0.314350
vn 0.117453 -0.941964 0.314350
vn -0.300762 -0.668767 0.680172
vn -0.124868 -0.941964 0.311543
vn 0.185753 -0.673445 0.715724
vn -0.337250 -0.317916 0.886005
vn -0.840606 0.018902 -0.540792
vn -0.987495 -0.145765 -0.058020
vn -0.819087 0.156436 -0.552020
vn -0.997787 0.031065 -0.058956
vn -0.933230 -0.212192 0.290024
vn -0.225913 -0.018522 -0.973977
vn 0.336385 -0.503165 -0.796212
vn -0.186618 0.011417 -0.982398
vn -0.761079 -0.237454 0.604388
vn -0.946329 -0.045655 0.320899
vn -0.750787 -0.083079 0.654910
vn -0.337250 -0.317916 0.886005
vn 0.198851 -0.435802 0.877584
vn -0.321345 -0.163541 0.932785
vn -0.321345 -0.163541 0.932785
vn 0.240018 -0.952256 -0.190876
vn 0.289605 -0.955998 -0.057085
vn 0.336385 -0.503165 -0.796212
vn 0.240018 -0.952256 -0.190876
vn 0.139908 -0.875536 -0.462202
vn 0.446786 -0.181318 -0.875739
vn 0.530055 -0.746423 -0.401387
vn 0.289605 -0.955998 -0.057085
vn 0.581513 -0.795074 -0.172164
vn 0.690043 -0.488196 -0.534243
vn 0.775183 -0.583627 -0.241399
vn 0.622680 -0.779169 0.069222
vn 0.340127 -0.934479 0.104775
vn 0.340127 -0.934479 0.104775
vn 0.328900 -0.897055 0.295638
vn 0.328900 -0.897055 0.295638
vn 0.328900 -0.897055 0.295638
vn 0.526313 -0.720226 0.450948
vn 0.526313 -0.720226 0.450948
vn 0.446786 -0.181318 -0.875739
vn 0.528184 -0.072787 -0.845799
vn 0.528184 -0.072787 -0.845799
vn 0.767699 -0.336628 -0.544535
vn 0.809801 -0.579885 0.089805
vn 0.873422 -0.424575 -0.239528
vn 0.881842 -0.452643 0.135650
vn 0.641392 -0.518135 0.565092
vn 0.213821 -0.354404 0.910330
vn 0.732146 -0.285170 0.619357
vn 0.641392 -0.518135 0.565092
vn 0.732146 -0.285170 0.619357
f 26/26/26 27/27/27 28/28/28
f 29/29/29 27/27/27 26/26/26
f 26/26/26 61/61/61 29/29/29
f 29/29/29 30/30/30 27/27/27
f 61/61/61 63/63/63 29/29/29
f 30/30/30 29/29/29 43/43/43
f 63/63/63 43/43/43 29/29/29
f 30/30/30 43/43/43 44/44/44
f 72/72/72 43/43/43 63/63/63
f 73/73/73 44/44/44 43/43/43
f 43/43/43 72/72/72 73/73/73
f 74/74/74 73/73/73 72/72/72
f 48/48/48 49/49/49 50/50/50
f 49/49/49 48/48/48 52/52/52
f 51/51/51 52/52/52 48/48/48
f 52/52/52 53/53/53 49/49/49
f 52/52/52 51/51/51 55/55/55
f 66/66/66 55/55/55 51/51/51
f 55/55/55 66/66/66 68/68/68
f 53/53/53 52/52/52 54/54/54
f 55/55/55 54/54/54 52/52/52
f 54/54/54 58/58/58 53/53/53
f 68/68/68 56/56/56 55/55/55
f 54/54/54 55/55/55 56/56/56
f 56/56/56 68/68/68 70/70/70
f 58/58/58 54/54/54 57/57/57
f 56/56/56 57/57/57 54/54/54
f 57/57/57 62/62/62 58/58/58
f 62/62/62 57/57/57 64/64/64
f 57/57/57 56/56/56 69/69/69
f 70/70/70 69/69/69 56/56/56
f 69/69/69 64/64/64 57/57/57
f 69/69/69 70/70/70 71/71/71
f 64/64/64 69/69/69 75/75/75
f 71/71/71 75/75/75 69/69/69
f 75/75/75 71/71/71 76/76/76
f 4/4/4 5/5/5 6/6/6
f 6/6/6 5/5/5 8/8/8
f 7/7/7 6/6/6 8/8/8
f 5/5/5 4/4/4 21/21/21
f 8/8/8 9/9/9 7/7/7
f 7/7/7 9/9/9 15/15/15
f 9/9/9 14/14/14 15/15/15
f 14/14/14 9/9/9 37/37/37
f 36/36/36 37/37/37 9/9/9
f 9/9/9 8/8/8 36/36/36
f 37/37/37 36/36/36 65/65/65
f 38/38/38 65/65/65 36/36/36
f 65/65/65 38/38/38 67/67/67
f 31/31/31 36/36/36 8/8/8
f 36/36/36 31/31/31 38/38/38
f 5/5/5 31/31/31 8/8/8
f 33/33/33 38/38/38 31/31/31
f 31/31/31 5/5/5 32/32/32
f 31/31/31 32/32/32 33/33/33
f 21/21/21 32/32/32 5/5/5
f 34/34/34 33/33/33 32/32/32
f 34/34/34 32/32/32 35/35/35
f 32/32/32 21/21/21 35/35/35
f 40/40/40 34/34/34 35/35/35
f 17/17/17 35/35/35 21/21/21
f 4/4/4 17/17/17 21/21/21
f 17/17/17 4/4/4 18/18/18
f 18/18/18 19/19/19 17/17/17
f 19/19/19 18/18/18 20/20/20
f 35/35/35 17/17/17 39/39/39
f 19/19/19 39/39/39 17/17/17
f 40/40/40 35/35/35 39/39/39
f 39/39/39 19/19/19 42/42/42
f 41/41/41 40/40/40 39/39/39
f 41/41/41 39/39/39 42/42/42
f 45/45/45 41/41/41 42/42/42
f 1/1/1 2/2/2 3/3/3
f 2/2/2 10/10/10 3/3/3
f 2/2/2 1/1/1 12/12/12
f 12/12/12 1/1/1 13/13/13
f 11/11/11 12/12/12 13/13/13
f 11/11/11 2/2/2 12/12/12
f 2/2/2 11/11/11 46/46/46
f 10/10/10 2/2/2 16/16/16
f 46/46/46 16/16/16 2/2/2
f 16/16/16 22/22/22 10/10/10
f 16/16/16 46/46/46 47/47/47
f 22/22/22 16/16/16 23/23/23
f 47/47/47 23/23/23 16/16/16
f 23/23/23 24/24/24 22/22/22
f 23/23/23 47/47/47 59/59/59
f 24/24/24 23/23/23 25/25/25
f 23/23/23 59/59/59 60/60/60
f 23/23/23 60/60/60 25/25/25
