# Generated from Roblox mesh JSON (v7.00)
# Hello from RBX_Toolbox ;)
o RightLowerLeg_inner_cage
v 0.380898 -0.376916 0.004036
v 0.335629 -0.391574 0.220592
v 0.349983 -0.463824 0.019936
v 0.288554 -0.473594 0.202026
v 0.432927 0.145079 -0.013543
v 0.339707 0.287407 0.236195
v 0.401180 0.142212 0.252469
v 0.379271 0.300270 -0.045282
v 0.211758 0.487605 0.202195
v 0.303884 0.495199 -0.054458
v 0.295042 -0.466758 -0.153164
v 0.326817 -0.378969 -0.164223
v 0.380898 -0.376916 0.004036
v 0.349983 -0.463824 0.019936
v 0.476433 -0.011852 0.007158
v 0.432927 0.145079 -0.013543
v 0.401180 0.142212 0.252469
v 0.409596 -0.001953 0.267973
v 0.460090 -0.151788 0.003598
v 0.361484 -0.284169 0.228486
v 0.420406 -0.278299 -0.002069
v 0.394674 -0.152301 0.249406
v 0.420406 -0.278299 -0.002069
v 0.361484 -0.284169 0.228486
v 0.380898 -0.376916 0.004036
v 0.335629 -0.391574 0.220592
v 0.476433 -0.011852 0.007158
v 0.394674 -0.152301 0.249406
v 0.460090 -0.151788 0.003598
v 0.409596 -0.001953 0.267973
v 0.211758 0.487605 0.202195
v 0.100860 0.284056 0.434948
v 0.339707 0.287407 0.236195
v 0.045388 0.491580 0.366216
v 0.127127 0.130137 0.449359
v 0.401180 0.142212 0.252469
v -0.190283 0.137298 0.413582
v -0.211839 0.284337 0.393367
v -0.230791 0.496458 0.344645
v 0.332399 0.159107 -0.238033
v 0.379271 0.300270 -0.045282
v 0.432927 0.145079 -0.013543
v 0.286838 0.305094 -0.260327
v 0.303884 0.495199 -0.054458
v 0.249008 0.497214 -0.276199
v 0.326817 -0.378969 -0.164223
v 0.339499 -0.265118 -0.184733
v 0.420406 -0.278299 -0.002069
v 0.380898 -0.376916 0.004036
v 0.360979 0.005038 -0.213030
v 0.332399 0.159107 -0.238033
v 0.432927 0.145079 -0.013543
v 0.476433 -0.011852 0.007158
v 0.288554 -0.473594 0.202026
v 0.090510 -0.413478 0.324416
v 0.082776 -0.487268 0.287485
v 0.335629 -0.391574 0.220592
v -0.110335 -0.435743 0.304981
v -0.110490 -0.502793 0.280673
v 0.345013 -0.136192 -0.208311
v 0.460090 -0.151788 0.003598
v 0.339499 -0.265118 -0.184733
v 0.420406 -0.278299 -0.002069
v -0.367295 0.161879 0.218125
v -0.211839 0.284337 0.393367
v -0.399729 0.294294 0.205517
v -0.190283 0.137298 0.413582
v -0.230791 0.496458 0.344645
v -0.426241 0.496773 0.182730
v 0.360979 0.005038 -0.213030
v 0.476433 -0.011852 0.007158
v 0.345013 -0.136192 -0.208311
v 0.460090 -0.151788 0.003598
v 0.137311 -0.015875 0.444658
v 0.401180 0.142212 0.252469
v 0.127127 0.130137 0.449359
v 0.409596 -0.001953 0.267973
v -0.170313 -0.015408 0.389652
v -0.190283 0.137298 0.413582
v 0.335629 -0.391574 0.220592
v 0.120823 -0.295106 0.367480
v 0.090510 -0.413478 0.324416
v 0.361484 -0.284169 0.228486
v -0.133020 -0.327364 0.320538
v -0.110335 -0.435743 0.304981
v -0.308252 -0.457888 0.027175
v -0.280031 -0.406650 0.198980
v -0.310377 -0.375768 0.035238
v -0.243380 -0.485711 0.212871
v -0.133020 -0.327364 0.320538
v -0.280031 -0.406650 0.198980
v -0.110335 -0.435743 0.304981
v -0.311069 -0.283746 0.208403
v 0.361484 -0.284169 0.228486
v 0.133470 -0.152007 0.417298
v 0.120823 -0.295106 0.367480
v 0.394674 -0.152301 0.249406
v -0.152538 -0.183112 0.345212
v -0.133020 -0.327364 0.320538
v -0.328845 -0.137143 0.217159
v -0.170313 -0.015408 0.389652
v -0.336014 0.013529 0.223564
v -0.152538 -0.183112 0.345212
v -0.311069 -0.283746 0.208403
v -0.152538 -0.183112 0.345212
v -0.328845 -0.137143 0.217159
v -0.133020 -0.327364 0.320538
v -0.336014 0.013529 0.223564
v -0.190283 0.137298 0.413582
v -0.367295 0.161879 0.218125
v -0.170313 -0.015408 0.389652
v 0.394674 -0.152301 0.249406
v 0.137311 -0.015875 0.444658
v 0.133470 -0.152007 0.417298
v 0.409596 -0.001953 0.267973
v -0.170313 -0.015408 0.389652
v -0.152538 -0.183112 0.345212
v -0.110335 -0.435743 0.304981
v -0.243380 -0.485711 0.212871
v -0.110490 -0.502793 0.280673
v -0.280031 -0.406650 0.198980
v -0.310377 -0.375768 0.035238
v -0.311069 -0.283746 0.208403
v -0.321810 -0.258004 0.035537
v -0.280031 -0.406650 0.198980
v -0.399729 0.294294 0.205517
v -0.436985 0.304353 -0.043389
v -0.407282 0.170676 -0.017864
v -0.367295 0.161879 0.218125
v -0.426241 0.496773 0.182730
v -0.476433 0.472158 -0.053867
v -0.344975 -0.115805 0.020190
v -0.336014 0.013529 0.223564
v -0.376186 0.028701 0.007780
v -0.328845 -0.137143 0.217159
v -0.321810 -0.258004 0.035537
v -0.328845 -0.137143 0.217159
v -0.344975 -0.115805 0.020190
v -0.311069 -0.283746 0.208403
v -0.376186 0.028701 0.007780
v -0.367295 0.161879 0.218125
v -0.407282 0.170676 -0.017864
v -0.336014 0.013529 0.223564
v -0.270001 -0.122425 -0.177587
v -0.376186 0.028701 0.007780
v -0.292339 0.025987 -0.215231
v -0.344975 -0.115805 0.020190
v -0.249777 -0.270101 -0.150817
v -0.321810 -0.258004 0.035537
v -0.292339 0.025987 -0.215231
v -0.407282 0.170676 -0.017864
v -0.313823 0.169399 -0.250126
v -0.376186 0.028701 0.007780
v -0.347327 0.304808 -0.285478
v -0.313823 0.169399 -0.250126
v -0.436985 0.304353 -0.043389
v -0.407282 0.170676 -0.017864
v -0.476433 0.472158 -0.053867
v -0.387606 0.501446 -0.319196
v -0.235902 -0.383709 -0.127945
v -0.321810 -0.258004 0.035537
v -0.249777 -0.270101 -0.150817
v -0.310377 -0.375768 0.035238
v 0.048612 0.301576 -0.397093
v -0.167889 0.163243 -0.387691
v -0.197452 0.301979 -0.415530
v -0.313823 0.169399 -0.250126
v -0.347327 0.304808 -0.285478
v 0.069373 0.159951 -0.364066
v -0.200031 0.502793 -0.449359
v -0.387606 0.501446 -0.319196
v 0.038751 0.500003 -0.421611
v 0.249008 0.497214 -0.276199
v 0.286838 0.305094 -0.260327
v 0.332399 0.159107 -0.238033
v -0.313823 0.169399 -0.250126
v -0.167889 0.163243 -0.387691
v -0.292339 0.025987 -0.215231
v -0.137960 0.018140 -0.335491
v 0.069373 0.159951 -0.364066
v 0.117383 0.014638 -0.329389
v 0.332399 0.159107 -0.238033
v 0.360979 0.005038 -0.213030
v 0.145854 -0.124152 -0.288390
v -0.075362 -0.264908 -0.248158
v -0.096730 -0.128105 -0.278106
v -0.249777 -0.270101 -0.150817
v -0.270001 -0.122425 -0.177587
v 0.178790 -0.259428 -0.252543
v 0.345013 -0.136192 -0.208311
v 0.339499 -0.265118 -0.184733
v -0.137960 0.018140 -0.335491
v 0.117383 0.014638 -0.329389
v -0.096730 -0.128105 -0.278106
v -0.270001 -0.122425 -0.177587
v -0.292339 0.025987 -0.215231
v 0.145854 -0.124152 -0.288390
v 0.360979 0.005038 -0.213030
v 0.345013 -0.136192 -0.208311
v -0.075362 -0.264908 -0.248158
v 0.178790 -0.259428 -0.252543
v 0.169691 -0.370400 -0.235781
v 0.326817 -0.378969 -0.164223
v 0.339499 -0.265118 -0.184733
v -0.068297 -0.376453 -0.245066
v -0.235902 -0.383709 -0.127945
v -0.249777 -0.270101 -0.150817
v 0.141918 -0.465193 -0.230996
v -0.068297 -0.376453 -0.245066
v 0.169691 -0.370400 -0.235781
v 0.295042 -0.466758 -0.153164
v 0.326817 -0.378969 -0.164223
v -0.064370 -0.463110 -0.244190
v -0.235902 -0.383709 -0.127945
v -0.248645 -0.464682 -0.136314
v -0.248645 -0.464682 -0.136314
v -0.308252 -0.457888 0.027175
v -0.235902 -0.383709 -0.127945
v -0.310377 -0.375768 0.035238
vt 2.457450 1.266038
vt 2.347780 1.266038
vt 2.457450 1.207547
vt 2.347780 1.207547
vt 2.457450 1.605312
vt 2.347780 1.698511
vt 2.347780 1.605312
vt 2.457450 1.698511
vt 2.347780 1.792453
vt 2.457450 1.792453
vt 2.619125 1.207547
vt 2.619125 1.266038
vt 2.457450 1.266038
vt 2.457450 1.207547
vt 2.457450 1.536557
vt 2.457450 1.605312
vt 2.347780 1.605312
vt 2.347780 1.536557
vt 2.457450 1.433402
vt 2.347780 1.353774
vt 2.457450 1.353774
vt 2.347780 1.432810
vt 2.457450 1.353774
vt 2.347780 1.353774
vt 2.457450 1.266038
vt 2.347780 1.266038
vt 2.457450 1.536557
vt 2.347780 1.432810
vt 2.457450 1.433402
vt 2.347780 1.536557
vt 2.347780 1.792453
vt 2.315774 1.698511
vt 2.347780 1.698511
vt 2.315774 1.792453
vt 2.315774 1.605312
vt 2.347780 1.605312
vt 2.283767 1.605312
vt 2.283767 1.698511
vt 2.283767 1.792453
vt 2.619125 1.605312
vt 2.457450 1.698511
vt 2.457450 1.605312
vt 2.619125 1.698511
vt 2.457450 1.792453
vt 2.619125 1.792453
vt 2.619125 1.266038
vt 2.619125 1.353774
vt 2.457450 1.353774
vt 2.457450 1.266038
vt 2.619125 1.536557
vt 2.619125 1.605312
vt 2.457450 1.605312
vt 2.457450 1.536557
vt 2.347780 1.207547
vt 2.315774 1.266038
vt 2.315774 1.207547
vt 2.347780 1.266038
vt 2.283767 1.266038
vt 2.283767 1.207547
vt 2.619125 1.436396
vt 2.457450 1.433402
vt 2.619125 1.353774
vt 2.457450 1.353774
vt 2.219756 1.605312
vt 2.283767 1.698511
vt 2.219756 1.698511
vt 2.283767 1.605312
vt 2.283767 1.792453
vt 2.219756 1.792453
vt 2.619125 1.536557
vt 2.457450 1.536557
vt 2.619125 1.436396
vt 2.457450 1.433402
vt 2.315774 1.536557
vt 2.347780 1.605312
vt 2.315774 1.605312
vt 2.347780 1.536557
vt 2.283767 1.536557
vt 2.283767 1.605312
vt 2.347780 1.266038
vt 2.315774 1.353774
vt 2.315774 1.266038
vt 2.347780 1.353774
vt 2.283767 1.353774
vt 2.283767 1.266038
vt 2.091176 1.207547
vt 2.219756 1.266038
vt 2.091176 1.266038
vt 2.219756 1.207547
vt 2.283767 1.353774
vt 2.219756 1.266038
vt 2.283767 1.266038
vt 2.219756 1.353774
vt 2.347780 1.353774
vt 2.315774 1.433763
vt 2.315774 1.353774
vt 2.347780 1.432810
vt 2.283767 1.434716
vt 2.283767 1.353774
vt 2.219756 1.436622
vt 2.283767 1.536557
vt 2.219756 1.536557
vt 2.283767 1.434716
vt 2.219756 1.353774
vt 2.283767 1.434716
vt 2.219756 1.436622
vt 2.283767 1.353774
vt 2.219756 1.536557
vt 2.283767 1.605312
vt 2.219756 1.605312
vt 2.283767 1.536557
vt 2.347780 1.432810
vt 2.315774 1.536557
vt 2.315774 1.433763
vt 2.347780 1.536557
vt 2.283767 1.536557
vt 2.283767 1.434716
vt 2.283767 1.266038
vt 2.219756 1.207547
vt 2.283767 1.207547
vt 2.219756 1.266038
vt 2.091176 1.266038
vt 2.219756 1.353774
vt 2.091176 1.353774
vt 2.219756 1.266038
vt 2.219756 1.698511
vt 2.091176 1.698511
vt 2.091176 1.605312
vt 2.219756 1.605312
vt 2.219756 1.792453
vt 2.091176 1.792453
vt 2.091176 1.441824
vt 2.219756 1.536557
vt 2.091176 1.536557
vt 2.219756 1.436622
vt 2.091176 1.353774
vt 2.219756 1.436622
vt 2.091176 1.441824
vt 2.219756 1.353774
vt 2.091176 1.536557
vt 2.219756 1.605312
vt 2.091176 1.605312
vt 2.219756 1.536557
vt 2.793036 1.439684
vt 2.908824 1.536557
vt 2.793036 1.536557
vt 2.908824 1.441824
vt 2.793036 1.353774
vt 2.908824 1.353774
vt 2.793036 1.536557
vt 2.908824 1.605312
vt 2.793036 1.605312
vt 2.908824 1.536557
vt 2.793036 1.698511
vt 2.793036 1.605312
vt 2.908824 1.698511
vt 2.908824 1.605312
vt 2.908824 1.792453
vt 2.793036 1.792453
vt 2.793036 1.266038
vt 2.908824 1.353774
vt 2.793036 1.353774
vt 2.908824 1.266038
vt 2.662603 1.698511
vt 2.749558 1.605312
vt 2.749558 1.698511
vt 2.793036 1.605312
vt 2.793036 1.698511
vt 2.662603 1.605312
vt 2.749558 1.792453
vt 2.793036 1.792453
vt 2.662603 1.792453
vt 2.619125 1.792453
vt 2.619125 1.698511
vt 2.619125 1.605312
vt 2.793036 1.605312
vt 2.749558 1.605312
vt 2.793036 1.536557
vt 2.749558 1.536557
vt 2.662603 1.605312
vt 2.662603 1.536557
vt 2.619125 1.605312
vt 2.619125 1.536557
vt 2.662603 1.437218
vt 2.749558 1.353774
vt 2.749558 1.438862
vt 2.793036 1.353774
vt 2.793036 1.439684
vt 2.662603 1.353774
vt 2.619125 1.436396
vt 2.619125 1.353774
vt 2.749558 1.536557
vt 2.662603 1.536557
vt 2.749558 1.438862
vt 2.793036 1.439684
vt 2.793036 1.536557
vt 2.662603 1.437218
vt 2.619125 1.536557
vt 2.619125 1.436396
vt 2.749558 1.353774
vt 2.662603 1.353774
vt 2.662603 1.266038
vt 2.619125 1.266038
vt 2.619125 1.353774
vt 2.749558 1.266038
vt 2.793036 1.266038
vt 2.793036 1.353774
vt 2.662603 1.207547
vt 2.749558 1.266038
vt 2.662603 1.266038
vt 2.619125 1.207547
vt 2.619125 1.266038
vt 2.749558 1.207547
vt 2.793036 1.266038
vt 2.793036 1.207547
vt 2.793036 1.207547
vt 2.908824 1.207547
vt 2.793036 1.266038
vt 2.908824 1.266038
vn 0.885653 -0.412504 0.212186
vn 0.885653 -0.412504 0.212186
vn 0.885653 -0.412504 0.212186
vn 0.885653 -0.412504 0.212186
vn 0.919075 0.373380 0.130064
vn 0.895202 0.411576 0.172080
vn 0.919075 0.373380 0.130064
vn 0.890428 0.418260 0.179719
vn 0.856051 0.465050 0.227464
vn 0.856051 0.465050 0.227464
vn 0.889473 -0.361894 -0.278634
vn 0.889473 -0.361894 -0.278634
vn 0.889473 -0.361894 -0.278634
vn 0.889473 -0.361894 -0.278634
vn 0.965865 0.188129 0.177809
vn 0.965865 0.188129 0.177809
vn 0.965865 0.188129 0.177809
vn 0.965865 0.188129 0.177809
vn 0.927669 -0.286457 0.237968
vn 0.927669 -0.286457 0.237968
vn 0.927669 -0.286457 0.237968
vn 0.927669 -0.286457 0.237968
vn 0.932443 -0.297916 0.203592
vn 0.932443 -0.297916 0.203592
vn 0.932443 -0.297916 0.203592
vn 0.932443 -0.297916 0.203592
vn 0.960135 -0.122214 0.253247
vn 0.960135 -0.122214 0.253247
vn 0.960135 -0.122214 0.253247
vn 0.960135 -0.122214 0.253247
vn 0.600137 0.438313 0.669584
vn 0.277381 0.271205 0.921678
vn 0.598228 0.323725 0.733562
vn 0.253508 0.367651 0.894941
vn 0.290749 0.194813 0.936956
vn 0.586769 0.251153 0.769848
vn -0.119858 0.094549 0.988521
vn -0.104580 0.176670 0.978972
vn -0.100760 0.251153 0.962739
vn 0.895202 0.226325 -0.383673
vn 0.905706 0.233009 -0.354071
vn 0.895202 0.226325 -0.383673
vn 0.909526 0.236829 -0.342612
vn 0.919075 0.249243 -0.306326
vn 0.919075 0.249243 -0.306326
vn 0.897112 -0.264494 -0.353116
vn 0.897112 -0.264494 -0.353116
vn 0.897112 -0.264494 -0.353116
vn 0.897112 -0.264494 -0.353116
vn 0.894247 0.145158 -0.423779
vn 0.894247 0.145158 -0.423779
vn 0.894247 0.145158 -0.423779
vn 0.894247 0.145158 -0.423779
vn 0.378600 -0.425873 0.821413
vn 0.189530 -0.423963 0.885392
vn 0.165657 -0.422053 0.891121
vn 0.378600 -0.425873 0.821413
vn -0.023413 -0.397226 0.916903
vn -0.023413 -0.397226 0.916903
vn 0.874194 -0.186192 -0.447651
vn 0.874194 -0.186192 -0.447651
vn 0.874194 -0.186192 -0.447651
vn 0.874194 -0.186192 -0.447651
vn -0.725266 -0.060145 0.685817
vn -0.707123 -0.016220 0.706825
vn -0.698529 0.001923 0.715419
vn -0.725266 -0.060145 0.685817
vn -0.671792 0.053488 0.738337
vn -0.671792 0.053488 0.738337
vn 0.874194 -0.102161 -0.474388
vn 0.874194 -0.102161 -0.474388
vn 0.874194 -0.102161 -0.474388
vn 0.874194 -0.102161 -0.474388
vn 0.236320 -0.020040 0.971333
vn 0.560987 0.066856 0.825233
vn 0.209583 -0.026724 0.977062
vn 0.560987 0.066856 0.825233
vn -0.143731 -0.108845 0.983746
vn -0.143731 -0.108845 0.983746
vn 0.442579 -0.300781 0.844331
vn 0.220087 -0.290277 0.931227
vn 0.124596 -0.280728 0.952235
vn 0.442579 -0.300781 0.844331
vn -0.111264 -0.245396 0.962739
vn -0.111264 -0.245396 0.962739
vn -0.949668 -0.220569 0.221735
vn -0.949668 -0.220569 0.221735
vn -0.949668 -0.220569 0.221735
vn -0.949668 -0.220569 0.221735
vn -0.550519 -0.214840 0.806135
vn -0.550519 -0.214840 0.806135
vn -0.550519 -0.214840 0.806135
vn -0.550519 -0.214840 0.806135
vn 0.503692 -0.293141 0.812819
vn 0.209583 -0.292187 0.933137
vn 0.167567 -0.288367 0.942686
vn 0.503692 -0.293141 0.812819
vn -0.180017 -0.251126 0.951280
vn -0.180017 -0.251126 0.951280
vn -0.664152 -0.168049 0.728788
vn -0.664152 -0.168049 0.728788
vn -0.664152 -0.168049 0.728788
vn -0.664152 -0.168049 0.728788
vn -0.582031 -0.166140 0.796586
vn -0.582031 -0.166140 0.796586
vn -0.582031 -0.166140 0.796586
vn -0.582031 -0.166140 0.796586
vn -0.728131 -0.165185 0.665764
vn -0.728131 -0.165185 0.665764
vn -0.728131 -0.165185 0.665764
vn -0.728131 -0.165185 0.665764
vn 0.538069 -0.168049 0.826188
vn 0.197169 -0.216749 0.956054
vn 0.183800 -0.217704 0.958919
vn 0.538069 -0.168049 0.826188
vn -0.192431 -0.233938 0.953190
vn -0.192431 -0.233938 0.953190
vn -0.510413 -0.187147 0.839556
vn -0.510413 -0.187147 0.839556
vn -0.510413 -0.187147 0.839556
vn -0.510413 -0.187147 0.839556
vn -0.980225 -0.176643 0.089958
vn -0.980225 -0.176643 0.089958
vn -0.980225 -0.176643 0.089958
vn -0.980225 -0.176643 0.089958
vn -0.968766 -0.192877 0.156802
vn -0.968766 -0.187147 0.161576
vn -0.967811 -0.205291 0.146298
vn -0.967811 -0.205291 0.146298
vn -0.970676 -0.156591 0.179719
vn -0.970676 -0.156591 0.179719
vn -0.984044 -0.125079 0.123380
vn -0.984044 -0.125079 0.123380
vn -0.984044 -0.125079 0.123380
vn -0.984044 -0.125079 0.123380
vn -0.988819 -0.139402 0.054627
vn -0.988819 -0.139402 0.054627
vn -0.988819 -0.139402 0.054627
vn -0.988819 -0.139402 0.054627
vn -0.967811 -0.190967 0.161576
vn -0.967811 -0.190967 0.161576
vn -0.967811 -0.190967 0.161576
vn -0.967811 -0.190967 0.161576
vn -0.919111 -0.205291 -0.336883
vn -0.913382 -0.225343 -0.339747
vn -0.913382 -0.225343 -0.339747
vn -0.917201 -0.206245 -0.341657
vn -0.920066 -0.187147 -0.342612
vn -0.920066 -0.187147 -0.342612
vn -0.904788 -0.240622 -0.350251
vn -0.904788 -0.240622 -0.350251
vn -0.904788 -0.240622 -0.350251
vn -0.904788 -0.240622 -0.350251
vn -0.900013 -0.267359 -0.344522
vn -0.893329 -0.287412 -0.344522
vn -0.899058 -0.269269 -0.344522
vn -0.893329 -0.287412 -0.344522
vn -0.911472 -0.239667 -0.334973
vn -0.911472 -0.239667 -0.334973
vn -0.916246 -0.136538 -0.376034
vn -0.916246 -0.136538 -0.376034
vn -0.916246 -0.136538 -0.376034
vn -0.916246 -0.136538 -0.376034
vn 0.323216 -0.104071 -0.940380
vn -0.274552 -0.270224 -0.923192
vn -0.311794 -0.228208 -0.922237
vn -0.643145 -0.309375 -0.700700
vn -0.621182 -0.253036 -0.741761
vn 0.330855 -0.121259 -0.935606
vn -0.271688 -0.180463 -0.945155
vn -0.599219 -0.196696 -0.776137
vn 0.343269 -0.086883 -0.935606
vn 0.532339 -0.022904 -0.845845
vn 0.490324 -0.046777 -0.870673
vn 0.463587 -0.063010 -0.884041
vn -0.625001 -0.325608 -0.710249
vn -0.331847 -0.322743 -0.885951
vn -0.625001 -0.325608 -0.710249
vn -0.287921 -0.319879 -0.903139
vn 0.229636 -0.199561 -0.952794
vn 0.318441 -0.149906 -0.935606
vn 0.429210 -0.069694 -0.900275
vn 0.429210 -0.069694 -0.900275
vn 0.185710 -0.217704 -0.958524
vn -0.255454 -0.247306 -0.934651
vn -0.278372 -0.246351 -0.927967
vn -0.480811 -0.238712 -0.843935
vn -0.480811 -0.238712 -0.843935
vn 0.256373 -0.199561 -0.946110
vn 0.368096 -0.168049 -0.914598
vn 0.368096 -0.168049 -0.914598
vn -0.310839 -0.360939 -0.879267
vn 0.200989 -0.253990 -0.946110
vn -0.258319 -0.357120 -0.897410
vn -0.531421 -0.361894 -0.766588
vn -0.531421 -0.361894 -0.766588
vn 0.269741 -0.219614 -0.937516
vn 0.396743 -0.130808 -0.908869
vn 0.396743 -0.130808 -0.908869
vn -0.275507 -0.123169 -0.952794
vn 0.257328 -0.143222 -0.955659
vn 0.247779 -0.139402 -0.958524
vn 0.387194 -0.187147 -0.903139
vn 0.387194 -0.187147 -0.903139
vn -0.267868 -0.122214 -0.955659
vn -0.521872 -0.145132 -0.840116
vn -0.521872 -0.145132 -0.840116
vn 0.244914 -0.113620 -0.962343
vn -0.266913 0.012427 -0.963298
vn 0.303163 -0.144177 -0.942290
vn 0.417751 -0.212930 -0.883086
vn 0.417751 -0.212930 -0.883086
vn -0.257364 0.012427 -0.966163
vn -0.539060 0.065902 -0.840116
vn -0.539060 0.065902 -0.840116
vn -0.919111 0.098368 -0.381763
vn -0.919111 0.098368 -0.381763
vn -0.919111 0.098368 -0.381763
vn -0.919111 0.098368 -0.381763
f 1/1/1 2/2/2 3/3/3
f 3/3/3 2/2/2 4/4/4
f 5/5/5 6/6/6 7/7/7
f 6/6/6 5/5/5 8/8/8
f 8/8/8 9/9/9 6/6/6
f 9/9/9 8/8/8 10/10/10
f 11/11/11 12/12/12 13/13/13
f 11/11/11 13/13/13 14/14/14
f 15/15/15 16/16/16 17/17/17
f 15/15/15 17/17/17 18/18/18
f 19/19/19 20/20/20 21/21/21
f 20/20/20 19/19/19 22/22/22
f 23/23/23 24/24/24 25/25/25
f 25/25/25 24/24/24 26/26/26
f 27/27/27 28/28/28 29/29/29
f 28/28/28 27/27/27 30/30/30
f 31/31/31 32/32/32 33/33/33
f 32/32/32 31/31/31 34/34/34
f 35/35/35 33/33/33 32/32/32
f 33/33/33 35/35/35 36/36/36
f 32/32/32 37/37/37 35/35/35
f 37/37/37 32/32/32 38/38/38
f 34/34/34 38/38/38 32/32/32
f 38/38/38 34/34/34 39/39/39
f 40/40/40 41/41/41 42/42/42
f 41/41/41 40/40/40 43/43/43
f 43/43/43 44/44/44 41/41/41
f 43/43/43 45/45/45 44/44/44
f 46/46/46 47/47/47 48/48/48
f 46/46/46 48/48/48 49/49/49
f 50/50/50 51/51/51 52/52/52
f 50/50/50 52/52/52 53/53/53
f 54/54/54 55/55/55 56/56/56
f 55/55/55 54/54/54 57/57/57
f 58/58/58 56/56/56 55/55/55
f 56/56/56 58/58/58 59/59/59
f 60/60/60 61/61/61 62/62/62
f 62/62/62 61/61/61 63/63/63
f 64/64/64 65/65/65 66/66/66
f 65/65/65 64/64/64 67/67/67
f 68/68/68 66/66/66 65/65/65
f 66/66/66 68/68/68 69/69/69
f 70/70/70 71/71/71 72/72/72
f 72/72/72 71/71/71 73/73/73
f 74/74/74 75/75/75 76/76/76
f 75/75/75 74/74/74 77/77/77
f 78/78/78 74/74/74 76/76/76
f 78/78/78 76/76/76 79/79/79
f 80/80/80 81/81/81 82/82/82
f 81/81/81 80/80/80 83/83/83
f 84/84/84 82/82/82 81/81/81
f 82/82/82 84/84/84 85/85/85
f 86/86/86 87/87/87 88/88/88
f 87/87/87 86/86/86 89/89/89
f 90/90/90 91/91/91 92/92/92
f 91/91/91 90/90/90 93/93/93
f 94/94/94 95/95/95 96/96/96
f 95/95/95 94/94/94 97/97/97
f 98/98/98 96/96/96 95/95/95
f 96/96/96 98/98/98 99/99/99
f 100/100/100 101/101/101 102/102/102
f 101/101/101 100/100/100 103/103/103
f 104/104/104 105/105/105 106/106/106
f 105/105/105 104/104/104 107/107/107
f 108/108/108 109/109/109 110/110/110
f 109/109/109 108/108/108 111/111/111
f 112/112/112 113/113/113 114/114/114
f 113/113/113 112/112/112 115/115/115
f 116/116/116 114/114/114 113/113/113
f 114/114/114 116/116/116 117/117/117
f 118/118/118 119/119/119 120/120/120
f 119/119/119 118/118/118 121/121/121
f 122/122/122 123/123/123 124/124/124
f 123/123/123 122/122/122 125/125/125
f 126/126/126 127/127/127 128/128/128
f 128/128/128 129/129/129 126/126/126
f 127/127/127 126/126/126 130/130/130
f 131/131/131 127/127/127 130/130/130
f 132/132/132 133/133/133 134/134/134
f 133/133/133 132/132/132 135/135/135
f 136/136/136 137/137/137 138/138/138
f 137/137/137 136/136/136 139/139/139
f 140/140/140 141/141/141 142/142/142
f 141/141/141 140/140/140 143/143/143
f 144/144/144 145/145/145 146/146/146
f 145/145/145 144/144/144 147/147/147
f 148/148/148 147/147/147 144/144/144
f 147/147/147 148/148/148 149/149/149
f 150/150/150 151/151/151 152/152/152
f 151/151/151 150/150/150 153/153/153
f 154/154/154 155/155/155 156/156/156
f 155/155/155 157/157/157 156/156/156
f 154/154/154 156/156/156 158/158/158
f 159/159/159 154/154/154 158/158/158
f 160/160/160 161/161/161 162/162/162
f 161/161/161 160/160/160 163/163/163
f 164/164/164 165/165/165 166/166/166
f 167/167/167 166/166/166 165/165/165
f 166/166/166 167/167/167 168/168/168
f 165/165/165 164/164/164 169/169/169
f 170/170/170 166/166/166 168/168/168
f 171/171/171 170/170/170 168/168/168
f 170/170/170 172/172/172 166/166/166
f 172/172/172 164/164/164 166/166/166
f 172/172/172 173/173/173 164/164/164
f 173/173/173 174/174/174 164/164/164
f 174/174/174 169/169/169 164/164/164
f 169/169/169 174/174/174 175/175/175
f 176/176/176 177/177/177 178/178/178
f 177/177/177 179/179/179 178/178/178
f 180/180/180 179/179/179 177/177/177
f 179/179/179 180/180/180 181/181/181
f 180/180/180 182/182/182 181/181/181
f 182/182/182 183/183/183 181/181/181
f 184/184/184 185/185/185 186/186/186
f 186/186/186 185/185/185 187/187/187
f 188/188/188 186/186/186 187/187/187
f 185/185/185 184/184/184 189/189/189
f 184/184/184 190/190/190 189/189/189
f 190/190/190 191/191/191 189/189/189
f 192/192/192 193/193/193 194/194/194
f 192/192/192 194/194/194 195/195/195
f 196/196/196 192/192/192 195/195/195
f 193/193/193 197/197/197 194/194/194
f 193/193/193 198/198/198 197/197/197
f 198/198/198 199/199/199 197/197/197
f 200/200/200 201/201/201 202/202/202
f 201/201/201 203/203/203 202/202/202
f 203/203/203 201/201/201 204/204/204
f 200/200/200 202/202/202 205/205/205
f 200/200/200 205/205/205 206/206/206
f 207/207/207 200/200/200 206/206/206
f 208/208/208 209/209/209 210/210/210
f 210/210/210 211/211/211 208/208/208
f 211/211/211 210/210/210 212/212/212
f 209/209/209 208/208/208 213/213/213
f 213/213/213 214/214/214 209/209/209
f 214/214/214 213/213/213 215/215/215
f 216/216/216 217/217/217 218/218/218
f 218/218/218 217/217/217 219/219/219
