# Generated from Roblox mesh JSON (v7.00)
# Hello from RBX_Toolbox ;)
o LeftFoot_inner_cage
v 0.264669 -0.326077 0.821299
v -0.127302 -0.183378 0.935738
v -0.138244 -0.326077 0.899882
v 0.294378 -0.183577 0.846856
v -0.127302 -0.183378 0.935738
v 0.294378 -0.183577 0.846856
v 0.269984 -0.025284 0.821621
v -0.098894 -0.015521 0.903684
v -0.098894 -0.015521 0.903684
v 0.229633 0.190186 0.843108
v -0.115768 0.203504 0.935563
v 0.269984 -0.025284 0.821621
v -0.379118 -0.326076 0.726859
v -0.138244 -0.326077 0.899882
v -0.127302 -0.183378 0.935738
v -0.406589 -0.182757 0.736313
v -0.225759 -0.208989 -0.898887
v 0.079138 -0.326076 -0.921522
v -0.246614 -0.326076 -0.888758
v 0.096541 -0.209530 -0.935738
v 0.362372 -0.326076 -0.830587
v 0.096541 -0.209530 -0.935738
v 0.380026 -0.215532 -0.817045
v 0.079138 -0.326076 -0.921522
v -0.406589 -0.182757 0.736313
v -0.127302 -0.183378 0.935738
v -0.384849 -0.015440 0.706728
v -0.098894 -0.015521 0.903684
v 0.491476 -0.182647 0.605564
v 0.264669 -0.326077 0.821299
v 0.481305 -0.326076 0.621773
v 0.294378 -0.183577 0.846856
v -0.384849 -0.015440 0.706728
v -0.115768 0.203504 0.935563
v -0.378619 0.209090 0.684859
v -0.098894 -0.015521 0.903684
v -0.246614 -0.326076 -0.888758
v -0.512344 -0.217211 -0.702076
v -0.225759 -0.208989 -0.898887
v -0.511603 -0.326077 -0.699608
v 0.491476 -0.182647 0.605564
v 0.455590 -0.024717 0.599384
v 0.269984 -0.025284 0.821621
v 0.294378 -0.183577 0.846856
v 0.455590 -0.024717 0.599384
v 0.400271 0.188744 0.571210
v 0.229633 0.190186 0.843108
v 0.269984 -0.025284 0.821621
v 0.380026 -0.215532 -0.817045
v 0.557047 -0.326077 -0.521430
v 0.362372 -0.326076 -0.830587
v 0.612716 -0.197782 -0.503384
v -0.511603 -0.326077 -0.699608
v -0.585734 -0.326076 -0.370200
v -0.512344 -0.217211 -0.702076
v -0.612716 -0.169279 -0.364269
v 0.380026 -0.215532 -0.817045
v 0.162622 -0.063869 -0.811137
v 0.392066 -0.077111 -0.682142
v 0.096541 -0.209530 -0.935738
v -0.477108 0.204615 0.372205
v -0.504410 -0.021959 0.419304
v -0.378619 0.209090 0.684859
v -0.384849 -0.015440 0.706728
v -0.503737 -0.181781 0.433630
v -0.379118 -0.326076 0.726859
v -0.406589 -0.182757 0.736313
v -0.489137 -0.326076 0.422835
v -0.504410 -0.021959 0.419304
v -0.503737 -0.181781 0.433630
v -0.384849 -0.015440 0.706728
v -0.406589 -0.182757 0.736313
v -0.253169 -0.067299 -0.772600
v 0.162622 -0.063869 -0.811137
v 0.096541 -0.209530 -0.935738
v -0.225759 -0.208989 -0.898887
v -0.512344 -0.217211 -0.702076
v -0.253169 -0.067299 -0.772600
v -0.225759 -0.208989 -0.898887
v -0.550066 -0.128365 -0.534798
v -0.585734 -0.326076 -0.370200
v -0.575163 -0.203893 -0.094061
v -0.612716 -0.169279 -0.364269
v -0.547602 -0.326076 -0.100185
v -0.575163 -0.203893 -0.094061
v -0.499447 -0.326076 0.092125
v -0.518779 -0.197112 0.088925
v -0.547602 -0.326076 -0.100185
v -0.512344 -0.217211 -0.702076
v -0.612716 -0.169279 -0.364269
v -0.550066 -0.128365 -0.534798
v -0.518861 -0.076704 -0.319184
v 0.469310 -0.326076 0.081178
v 0.491476 -0.182647 0.605564
v 0.481305 -0.326076 0.621773
v 0.506119 -0.202482 0.064464
v 0.456034 -0.326076 -0.075616
v 0.506119 -0.202482 0.064464
v 0.469310 -0.326076 0.081178
v 0.525682 -0.177573 -0.102522
v 0.612716 -0.197782 -0.503384
v 0.392066 -0.077111 -0.682142
v 0.435236 -0.034348 -0.415053
v 0.380026 -0.215532 -0.817045
v -0.489137 -0.326076 0.422835
v -0.518779 -0.197112 0.088925
v -0.499447 -0.326076 0.092125
v -0.503737 -0.181781 0.433630
v 0.495787 -0.326076 -0.276203
v 0.525682 -0.177573 -0.102522
v 0.456034 -0.326076 -0.075616
v 0.557976 -0.188145 -0.261611
v 0.612716 -0.197782 -0.503384
v 0.495787 -0.326076 -0.276203
v 0.557047 -0.326077 -0.521430
v 0.557976 -0.188145 -0.261611
v -0.518779 -0.197112 0.088925
v -0.504410 -0.021959 0.419304
v -0.484933 0.021029 -0.016120
v -0.503737 -0.181781 0.433630
v -0.575163 -0.203893 -0.094061
v -0.484933 0.021029 -0.016120
v -0.498708 -0.040718 -0.190511
v -0.518779 -0.197112 0.088925
v -0.484933 0.021029 -0.016120
v -0.477108 0.204615 0.372205
v -0.389561 0.227474 -0.052491
v -0.504410 -0.021959 0.419304
v 0.506119 -0.202482 0.064464
v 0.455590 -0.024717 0.599384
v 0.491476 -0.182647 0.605564
v 0.426072 -0.009001 0.038204
v 0.426072 -0.009001 0.038204
v 0.400271 0.188744 0.571210
v 0.455590 -0.024717 0.599384
v 0.408655 0.203040 0.018723
v 0.426072 -0.009001 0.038204
v 0.525682 -0.177573 -0.102522
v 0.395916 0.008032 -0.154838
v 0.506119 -0.202482 0.064464
v 0.395916 0.008032 -0.154838
v 0.334149 0.208755 -0.184686
v 0.408655 0.203040 0.018723
v 0.426072 -0.009001 0.038204
v -0.612716 -0.169279 -0.364269
v -0.575163 -0.203893 -0.094061
v -0.518861 -0.076704 -0.319184
v -0.498708 -0.040718 -0.190511
v 0.435236 -0.034348 -0.415053
v 0.557976 -0.188145 -0.261611
v 0.612716 -0.197782 -0.503384
v 0.448983 -0.004822 -0.295237
v 0.557976 -0.188145 -0.261611
v 0.395916 0.008032 -0.154838
v 0.525682 -0.177573 -0.102522
v 0.448983 -0.004822 -0.295237
v -0.484933 0.021029 -0.016120
v -0.230601 0.115941 -0.352555
v -0.498708 -0.040718 -0.190511
v -0.252577 0.042656 -0.437537
v -0.230601 0.115941 -0.352555
v 0.141735 0.042422 -0.454962
v -0.252577 0.042656 -0.437537
v 0.136697 0.120868 -0.377144
v -0.230601 0.115941 -0.352555
v -0.389561 0.227474 -0.052491
v -0.236176 0.323896 -0.398762
v -0.484933 0.021029 -0.016120
v -0.518861 -0.076704 -0.319184
v -0.252577 0.042656 -0.437537
v -0.241428 -0.010445 -0.564084
v -0.498708 -0.040718 -0.190511
v 0.136697 0.120868 -0.377144
v 0.395916 0.008032 -0.154838
v 0.448983 -0.004822 -0.295237
v 0.141735 0.042422 -0.454962
v 0.334149 0.208755 -0.184686
v 0.136697 0.120868 -0.377144
v 0.132766 0.326077 -0.437141
v 0.395916 0.008032 -0.154838
v 0.141735 0.042422 -0.454962
v 0.448983 -0.004822 -0.295237
v 0.435236 -0.034348 -0.415053
v 0.144221 -0.007668 -0.581653
v -0.252577 0.042656 -0.437537
v 0.141735 0.042422 -0.454962
v -0.241428 -0.010445 -0.564084
v 0.144221 -0.007668 -0.581653
v -0.518861 -0.076704 -0.319184
v -0.241428 -0.010445 -0.564084
v -0.550066 -0.128365 -0.534798
v -0.253169 -0.067299 -0.772600
v 0.144221 -0.007668 -0.581653
v 0.392066 -0.077111 -0.682142
v 0.162622 -0.063869 -0.811137
v 0.435236 -0.034348 -0.415053
v -0.241428 -0.010445 -0.564084
v 0.144221 -0.007668 -0.581653
v -0.253169 -0.067299 -0.772600
v 0.162622 -0.063869 -0.811137
v 0.132766 0.326077 -0.437141
v -0.230601 0.115941 -0.352555
v -0.236176 0.323896 -0.398762
v 0.136697 0.120868 -0.377144
v 0.079138 -0.326076 -0.921522
v -0.511603 -0.326077 -0.699608
v -0.246614 -0.326076 -0.888758
v 0.362372 -0.326076 -0.830587
v 0.469310 -0.326076 0.081178
v -0.489137 -0.326076 0.422835
v -0.499447 -0.326076 0.092125
v 0.456034 -0.326076 -0.075616
v -0.379118 -0.326076 0.726859
v 0.481305 -0.326076 0.621773
v 0.264669 -0.326077 0.821299
v -0.138244 -0.326077 0.899882
v -0.489137 -0.326076 0.422835
v 0.481305 -0.326076 0.621773
v -0.379118 -0.326076 0.726859
v 0.469310 -0.326076 0.081178
v -0.547602 -0.326076 -0.100185
v 0.495787 -0.326076 -0.276203
v 0.456034 -0.326076 -0.075616
v -0.499447 -0.326076 0.092125
v 0.362372 -0.326076 -0.830587
v -0.585734 -0.326076 -0.370200
v -0.511603 -0.326077 -0.699608
v 0.557047 -0.326077 -0.521430
v -0.585734 -0.326076 -0.370200
v 0.557047 -0.326077 -0.521430
v 0.495787 -0.326076 -0.276203
v -0.547602 -0.326076 -0.100185
vt 4.271337 0.685211
vt 4.238421 0.701050
vt 4.239748 0.685211
vt 4.268683 0.701050
vt 4.238421 0.701050
vt 4.268683 0.701050
vt 4.269673 0.717542
vt 4.238916 0.717542
vt 4.238916 0.717542
vt 4.270662 0.734033
vt 4.239410 0.734033
vt 4.269673 0.717542
vt 4.194766 0.668763
vt 4.239748 0.685211
vt 4.238421 0.701050
vt 4.194766 0.701050
vt 4.639468 0.322827
vt 4.553146 0.265967
vt 4.641173 0.265968
vt 4.551442 0.322827
vt 4.506112 0.265967
vt 4.551442 0.322827
vt 4.506112 0.322827
vt 4.553146 0.265967
vt 4.194766 0.701050
vt 4.238421 0.701050
vt 4.194766 0.717542
vt 4.238916 0.717542
vt 4.318014 0.701050
vt 4.271337 0.685211
vt 4.318014 0.668763
vt 4.268683 0.701050
vt 4.194766 0.717542
vt 4.239410 0.734033
vt 4.194766 0.734033
vt 4.238916 0.717542
vt 4.641173 0.265968
vt 4.682165 0.322827
vt 4.639468 0.322827
vt 4.682165 0.265968
vt 4.318014 0.701050
vt 4.318013 0.717542
vt 4.269673 0.717542
vt 4.268683 0.701050
vt 4.318013 0.717542
vt 4.318013 0.734033
vt 4.270662 0.734033
vt 4.269673 0.717542
vt 4.506112 0.322827
vt 4.418206 0.337042
vt 4.440197 0.294397
vt 4.495147 0.365472
vt 4.748080 0.294397
vt 4.770072 0.337042
vt 4.682165 0.322827
vt 4.693130 0.365472
vt 4.506112 0.322827
vt 4.550454 0.354811
vt 4.503837 0.357023
vt 4.551442 0.322827
vt 4.682165 0.599918
vt 4.715122 0.584724
vt 4.682165 0.655552
vt 4.715122 0.655552
vt 4.748080 0.569530
vt 4.836046 0.655553
vt 4.748080 0.655552
vt 4.836046 0.578310
vt 4.715122 0.584724
vt 4.748080 0.569530
vt 4.715122 0.655552
vt 4.748080 0.655552
vt 4.638481 0.354811
vt 4.550454 0.354811
vt 4.551442 0.322827
vt 4.639468 0.322827
vt 4.682165 0.322827
vt 4.638481 0.354811
vt 4.639468 0.322827
vt 4.684693 0.357269
vt 4.770072 0.337042
vt 4.709523 0.418805
vt 4.693130 0.365472
vt 4.792063 0.379687
vt 4.709523 0.418805
vt 4.836046 0.537171
vt 4.725915 0.472138
vt 4.792063 0.379687
vt 4.682165 0.322827
vt 4.693130 0.365472
vt 4.684693 0.357269
vt 4.687648 0.408117
vt 4.352232 0.537170
vt 4.440198 0.655553
vt 4.352232 0.655553
vt 4.440198 0.589211
vt 4.370994 0.469989
vt 4.440198 0.589211
vt 4.352232 0.537170
vt 4.459850 0.479509
vt 4.495147 0.365472
vt 4.503837 0.357023
vt 4.500629 0.408117
vt 4.506112 0.322827
vt 4.836046 0.578310
vt 4.725915 0.472138
vt 4.836046 0.537171
vt 4.748080 0.569530
vt 4.396214 0.379687
vt 4.459850 0.479509
vt 4.370994 0.469989
vt 4.477498 0.422491
vt 4.495147 0.365472
vt 4.396214 0.379687
vt 4.418206 0.337042
vt 4.477498 0.422491
vt 4.725915 0.472138
vt 4.715122 0.584724
vt 4.704069 0.501414
vt 4.748080 0.569530
vt 4.709523 0.418805
vt 4.704069 0.501414
vt 4.695858 0.454766
vt 4.725915 0.472138
vt 4.704069 0.501414
vt 4.682165 0.599918
vt 4.682165 0.537171
vt 4.715122 0.584724
vt 4.440198 0.589211
vt 4.473155 0.655553
vt 4.440198 0.655553
vt 4.473155 0.594565
vt 4.473155 0.594565
vt 4.506112 0.655553
vt 4.473155 0.655553
vt 4.506112 0.599918
vt 4.473155 0.594565
vt 4.459850 0.479509
vt 4.483266 0.510566
vt 4.440198 0.589211
vt 4.483266 0.510566
vt 4.506112 0.537171
vt 4.506112 0.599918
vt 4.473155 0.594565
vt 4.693130 0.365472
vt 4.709523 0.418805
vt 4.687648 0.408117
vt 4.695858 0.454766
vt 4.500629 0.408117
vt 4.477498 0.422491
vt 4.495147 0.365472
vt 4.491948 0.459342
vt 4.477498 0.422491
vt 4.483266 0.510566
vt 4.459850 0.479509
vt 4.491948 0.459342
vt 4.704069 0.501414
vt 4.638152 0.468094
vt 4.695858 0.454766
vt 4.638152 0.438105
vt 4.638152 0.468094
vt 4.550125 0.442364
vt 4.638152 0.438105
vt 4.550125 0.476610
vt 4.638152 0.468094
vt 4.682165 0.537171
vt 4.638152 0.537171
vt 4.704069 0.501414
vt 4.687648 0.408117
vt 4.638152 0.438105
vt 4.638152 0.408117
vt 4.695858 0.454766
vt 4.550125 0.476610
vt 4.483266 0.510566
vt 4.491948 0.459342
vt 4.550125 0.442364
vt 4.506112 0.537171
vt 4.550125 0.476610
vt 4.550125 0.537171
vt 4.483266 0.510566
vt 4.550125 0.442364
vt 4.491948 0.459342
vt 4.500629 0.408117
vt 4.550125 0.408117
vt 4.638152 0.438105
vt 4.550125 0.442364
vt 4.638152 0.408117
vt 4.550125 0.408117
vt 4.687648 0.408117
vt 4.638152 0.408117
vt 4.684693 0.357269
vt 4.638481 0.354811
vt 4.550125 0.408117
vt 4.503837 0.357023
vt 4.550454 0.354811
vt 4.500629 0.408117
vt 4.638152 0.408117
vt 4.550125 0.408117
vt 4.638481 0.354811
vt 4.550454 0.354811
vt 4.550125 0.537171
vt 4.638152 0.468094
vt 4.638152 0.537171
vt 4.550125 0.476610
vt 4.318013 0.265967
vt 4.189588 0.285271
vt 4.194766 0.265967
vt 4.323192 0.285270
vt 4.348825 0.538116
vt 4.163954 0.538116
vt 4.163954 0.462950
vt 4.348825 0.494111
vt 4.194766 0.668763
vt 4.318014 0.668763
vt 4.271337 0.685211
vt 4.239748 0.685211
vt 4.163954 0.538116
vt 4.318014 0.668763
vt 4.194766 0.668763
vt 4.348825 0.538116
vt 4.163954 0.380830
vt 4.348826 0.380830
vt 4.348825 0.494111
vt 4.163954 0.462950
vt 4.323192 0.285270
vt 4.179359 0.323398
vt 4.189588 0.285271
vt 4.333420 0.323398
vt 4.179359 0.323398
vt 4.333420 0.323398
vt 4.348826 0.380830
vt 4.163954 0.380830
vn 0.193799 -0.233109 0.952706
vn 0.218975 -0.233109 0.947864
vn 0.218006 -0.233109 0.947864
vn 0.193799 -0.233109 0.952706
vn 0.222848 0.166798 0.960452
vn 0.210260 0.166798 0.963357
vn 0.210260 0.166798 0.963357
vn 0.222848 0.166798 0.960452
vn 0.233499 -0.087864 0.968199
vn 0.233499 -0.087864 0.968199
vn 0.234467 -0.087864 0.968199
vn 0.233499 -0.087864 0.968199
vn -0.575029 -0.160486 0.802620
vn -0.573092 -0.135311 0.808430
vn -0.576966 -0.184694 0.795842
vn -0.575029 -0.160486 0.802620
vn -0.106373 -0.085928 -0.990666
vn -0.119929 -0.085928 -0.988730
vn -0.106373 -0.084959 -0.990666
vn -0.119929 -0.085928 -0.988730
vn 0.345821 -0.055910 -0.936442
vn 0.343885 -0.070435 -0.936442
vn 0.345821 -0.055910 -0.936442
vn 0.347758 -0.043323 -0.936442
vn -0.558568 0.229737 0.796810
vn -0.556631 0.242325 0.794873
vn -0.558568 0.229737 0.796810
vn -0.560505 0.218118 0.798747
vn 0.723457 -0.122723 0.678678
vn 0.723457 -0.122723 0.678678
vn 0.723457 -0.122723 0.678678
vn 0.723457 -0.122723 0.678678
vn -0.632159 -0.032671 0.774539
vn -0.632159 -0.032671 0.774539
vn -0.632159 -0.032671 0.774539
vn -0.632159 -0.032671 0.774539
vn -0.574061 0.005092 -0.819278
vn -0.573092 0.005092 -0.819278
vn -0.574061 0.005092 -0.819278
vn -0.573092 0.005092 -0.819278
vn 0.754443 0.205530 0.623485
vn 0.754443 0.205530 0.623485
vn 0.754443 0.205530 0.623485
vn 0.754443 0.205530 0.623485
vn 0.797048 0.187132 0.574102
vn 0.797048 0.187132 0.574102
vn 0.797048 0.187132 0.574102
vn 0.797048 0.187132 0.574102
vn 0.813509 -0.176948 -0.552996
vn 0.814477 -0.175979 -0.552996
vn 0.813509 -0.176948 -0.552996
vn 0.813509 -0.177916 -0.553964
vn -0.964284 -0.097547 -0.245078
vn -0.963316 -0.096579 -0.248951
vn -0.964284 -0.097547 -0.245078
vn -0.963316 -0.095611 -0.248951
vn 0.375839 0.566705 -0.733099
vn 0.370997 0.545402 -0.751497
vn 0.375839 0.566705 -0.733099
vn 0.372934 0.588007 -0.717607
vn -0.933299 0.121288 0.336869
vn -0.933299 0.121288 0.336869
vn -0.933299 0.121288 0.336869
vn -0.933299 0.121288 0.336869
vn -0.934267 -0.159518 0.318471
vn -0.934267 -0.159518 0.318471
vn -0.934267 -0.159518 0.318471
vn -0.934267 -0.159518 0.318471
vn -0.933299 0.105795 0.341710
vn -0.933299 0.105795 0.341710
vn -0.933299 0.105795 0.341710
vn -0.933299 0.105795 0.341710
vn -0.062800 0.661598 -0.747624
vn -0.105405 0.659661 -0.744719
vn -0.104437 0.654820 -0.748592
vn -0.063768 0.660629 -0.747624
vn -0.516931 0.613183 -0.596569
vn -0.516931 0.602532 -0.609157
vn -0.516931 0.623834 -0.585918
vn -0.516931 0.613183 -0.596569
vn -0.973967 -0.191472 0.124812
vn -0.972999 -0.196313 0.122875
vn -0.972031 -0.199218 0.121907
vn -0.972999 -0.196313 0.124812
vn -0.945887 -0.180821 0.268120
vn -0.946855 -0.179852 0.267152
vn -0.946855 -0.179852 0.267152
vn -0.946855 -0.180821 0.266183
vn -0.849057 0.490209 -0.194726
vn -0.851962 0.496987 -0.164709
vn -0.849057 0.490209 -0.194726
vn -0.855835 0.473748 -0.206346
vn 0.984898 -0.173074 0.005711
vn 0.984898 -0.173074 0.005711
vn 0.984898 -0.173074 0.005711
vn 0.984898 -0.173074 0.005711
vn 0.930673 -0.365765 -0.009781
vn 0.930673 -0.365765 -0.009781
vn 0.930673 -0.365765 -0.009781
vn 0.930673 -0.365765 -0.009781
vn 0.670201 0.647073 -0.363210
vn 0.662455 0.645137 -0.381607
vn 0.666328 0.634485 -0.390322
vn 0.662455 0.645137 -0.381607
vn -0.991397 -0.124659 0.039602
vn -0.991397 -0.124659 0.039602
vn -0.991397 -0.124659 0.039602
vn -0.991397 -0.124659 0.039602
vn 0.894846 -0.404497 0.189688
vn 0.894846 -0.403529 0.190656
vn 0.894846 -0.403529 0.190656
vn 0.893878 -0.405466 0.192593
vn 0.881290 -0.417085 0.219705
vn 0.881290 -0.419022 0.218737
vn 0.881290 -0.418053 0.219705
vn 0.882258 -0.418053 0.216800
vn -0.996238 0.086429 -0.003003
vn -0.996238 0.086429 -0.003003
vn -0.996238 0.086429 -0.003003
vn -0.996238 0.086429 -0.003003
vn -0.936204 0.330440 0.121907
vn -0.935236 0.333345 0.119970
vn -0.935236 0.333345 0.122875
vn -0.935236 0.333345 0.119970
vn -0.962348 0.252976 -0.100801
vn -0.962348 0.252976 -0.100801
vn -0.962348 0.252976 -0.100801
vn -0.962348 0.252976 -0.100801
vn 0.950039 0.312043 -0.013655
vn 0.950039 0.312043 -0.013655
vn 0.950039 0.312043 -0.013655
vn 0.950039 0.312043 -0.013655
vn 0.985866 0.166798 -0.014623
vn 0.985866 0.166798 -0.014623
vn 0.985866 0.166798 -0.014623
vn 0.985866 0.166798 -0.014623
vn 0.871607 0.489241 0.030887
vn 0.871607 0.489241 0.030887
vn 0.871607 0.489241 0.030887
vn 0.871607 0.489241 0.030887
vn 0.957785 0.154210 -0.244109
vn 0.957785 0.154210 -0.244109
vn 0.957785 0.154210 -0.244109
vn 0.957785 0.154210 -0.244109
vn -0.830659 0.543465 0.122875
vn -0.814198 0.568641 0.119002
vn -0.819040 0.557022 0.137400
vn -0.818072 0.562831 0.116097
vn 0.776714 0.628676 0.030887
vn 0.777682 0.627707 0.027014
vn 0.784460 0.619961 0.022172
vn 0.779619 0.626739 0.008616
vn 0.811572 0.557022 0.176132
vn 0.804794 0.563800 0.184846
vn 0.804794 0.563800 0.184846
vn 0.807699 0.556053 0.195498
vn -0.609888 0.734220 -0.298334
vn -0.620539 0.729379 -0.288651
vn -0.614729 0.731315 -0.294461
vn -0.610856 0.734220 -0.296397
vn -0.041497 0.722600 -0.689526
vn -0.052149 0.747776 -0.662414
vn -0.041497 0.735188 -0.676938
vn -0.042466 0.730347 -0.681780
vn -0.880043 0.067063 -0.470691
vn -0.865518 0.089334 -0.491993
vn -0.888757 0.069000 -0.452293
vn -0.865518 0.089334 -0.491993
vn -0.491755 0.827177 -0.271222
vn -0.491755 0.826208 -0.274127
vn -0.490787 0.831050 -0.261539
vn -0.488851 0.831050 -0.267348
vn 0.422317 0.870750 -0.251856
vn 0.417475 0.872686 -0.253792
vn 0.428127 0.866877 -0.254761
vn 0.431032 0.870750 -0.238300
vn 0.706996 -0.042354 -0.705987
vn 0.720552 -0.066562 -0.689526
vn 0.731204 -0.063657 -0.678875
vn 0.706996 -0.042354 -0.705987
vn 0.292565 0.898831 -0.326415
vn 0.283850 0.911418 -0.297366
vn 0.279977 0.909482 -0.307049
vn 0.273199 0.926911 -0.257665
vn -0.017290 0.924975 -0.378703
vn -0.043434 0.921101 -0.386449
vn -0.009544 0.924975 -0.379671
vn -0.074419 0.922070 -0.379671
vn -0.365877 0.909482 -0.195694
vn -0.368782 0.900767 -0.230553
vn -0.365877 0.909482 -0.195694
vn -0.363940 0.917228 -0.161804
vn 0.194767 0.949182 -0.248951
vn 0.187989 0.961770 -0.200536
vn 0.170560 0.972421 -0.156963
vn 0.187989 0.961770 -0.200536
vn 0.010791 0.967580 -0.251856
vn -0.074419 0.965643 -0.249919
vn 0.009822 0.967580 -0.252824
vn -0.073451 0.963706 -0.257665
vn -0.090880 -0.287333 -0.953871
vn -0.100563 -0.217616 -0.971300
vn -0.067641 -0.291207 -0.953871
vn -0.060863 -0.222457 -0.973237
vn 0.000139 -1.000000 -0.000098
vn 0.000139 -1.000000 -0.000098
vn 0.000139 -1.000000 -0.000098
vn 0.000139 -1.000000 -0.000098
vn 0.000139 -1.000000 -0.000098
vn 0.000139 -1.000000 -0.000098
vn 0.000139 -1.000000 -0.000098
vn 0.000139 -1.000000 -0.000098
vn 0.000139 -1.000000 -0.000098
vn 0.000139 -1.000000 -0.000098
vn 0.000139 -1.000000 -0.000098
vn 0.000139 -1.000000 -0.000098
vn 0.000139 -1.000000 -0.000098
vn 0.000139 -1.000000 -0.000098
vn 0.000139 -1.000000 -0.000098
vn 0.000139 -1.000000 -0.000098
vn 0.000139 -1.000000 -0.000098
vn 0.000139 -1.000000 -0.000098
vn 0.000139 -1.000000 -0.000098
vn 0.000139 -1.000000 -0.000098
vn 0.000139 -1.000000 -0.000098
vn 0.000139 -1.000000 -0.000098
vn 0.000139 -1.000000 -0.000098
vn 0.000139 -1.000000 -0.000098
vn 0.000139 -1.000000 -0.000098
vn 0.000139 -1.000000 -0.000098
vn 0.000139 -1.000000 -0.000098
vn 0.000139 -1.000000 -0.000098
f 1/1/1 2/2/2 3/3/3
f 2/2/2 1/1/1 4/4/4
f 5/5/5 6/6/6 7/7/7
f 5/5/5 7/7/7 8/8/8
f 9/9/9 10/10/10 11/11/11
f 10/10/10 9/9/9 12/12/12
f 13/13/13 14/14/14 15/15/15
f 13/13/13 15/15/15 16/16/16
f 17/17/17 18/18/18 19/19/19
f 18/18/18 17/17/17 20/20/20
f 21/21/21 22/22/22 23/23/23
f 22/22/22 21/21/21 24/24/24
f 25/25/25 26/26/26 27/27/27
f 26/26/26 28/28/28 27/27/27
f 29/29/29 30/30/30 31/31/31
f 30/30/30 29/29/29 32/32/32
f 33/33/33 34/34/34 35/35/35
f 34/34/34 33/33/33 36/36/36
f 37/37/37 38/38/38 39/39/39
f 38/38/38 37/37/37 40/40/40
f 41/41/41 42/42/42 43/43/43
f 41/41/41 43/43/43 44/44/44
f 45/45/45 46/46/46 47/47/47
f 45/45/45 47/47/47 48/48/48
f 49/49/49 50/50/50 51/51/51
f 50/50/50 49/49/49 52/52/52
f 53/53/53 54/54/54 55/55/55
f 54/54/54 56/56/56 55/55/55
f 57/57/57 58/58/58 59/59/59
f 58/58/58 57/57/57 60/60/60
f 61/61/61 62/62/62 63/63/63
f 62/62/62 64/64/64 63/63/63
f 65/65/65 66/66/66 67/67/67
f 66/66/66 65/65/65 68/68/68
f 69/69/69 70/70/70 71/71/71
f 70/70/70 72/72/72 71/71/71
f 73/73/73 74/74/74 75/75/75
f 73/73/73 75/75/75 76/76/76
f 77/77/77 78/78/78 79/79/79
f 78/78/78 77/77/77 80/80/80
f 81/81/81 82/82/82 83/83/83
f 82/82/82 81/81/81 84/84/84
f 85/85/85 86/86/86 87/87/87
f 86/86/86 85/85/85 88/88/88
f 89/89/89 90/90/90 91/91/91
f 90/90/90 92/92/92 91/91/91
f 93/93/93 94/94/94 95/95/95
f 94/94/94 93/93/93 96/96/96
f 97/97/97 98/98/98 99/99/99
f 98/98/98 97/97/97 100/100/100
f 101/101/101 102/102/102 103/103/103
f 102/102/102 101/101/101 104/104/104
f 105/105/105 106/106/106 107/107/107
f 106/106/106 105/105/105 108/108/108
f 109/109/109 110/110/110 111/111/111
f 110/110/110 109/109/109 112/112/112
f 113/113/113 114/114/114 115/115/115
f 114/114/114 113/113/113 116/116/116
f 117/117/117 118/118/118 119/119/119
f 118/118/118 117/117/117 120/120/120
f 121/121/121 122/122/122 123/123/123
f 122/122/122 121/121/121 124/124/124
f 125/125/125 126/126/126 127/127/127
f 126/126/126 125/125/125 128/128/128
f 129/129/129 130/130/130 131/131/131
f 130/130/130 129/129/129 132/132/132
f 133/133/133 134/134/134 135/135/135
f 134/134/134 133/133/133 136/136/136
f 137/137/137 138/138/138 139/139/139
f 138/138/138 137/137/137 140/140/140
f 141/141/141 142/142/142 143/143/143
f 141/141/141 143/143/143 144/144/144
f 145/145/145 146/146/146 147/147/147
f 147/147/147 146/146/146 148/148/148
f 149/149/149 150/150/150 151/151/151
f 150/150/150 149/149/149 152/152/152
f 153/153/153 154/154/154 155/155/155
f 154/154/154 153/153/153 156/156/156
f 157/157/157 158/158/158 159/159/159
f 158/158/158 160/160/160 159/159/159
f 161/161/161 162/162/162 163/163/163
f 162/162/162 161/161/161 164/164/164
f 165/165/165 166/166/166 167/167/167
f 166/166/166 165/165/165 168/168/168
f 169/169/169 170/170/170 171/171/171
f 170/170/170 169/169/169 172/172/172
f 173/173/173 174/174/174 175/175/175
f 175/175/175 176/176/176 173/173/173
f 177/177/177 178/178/178 179/179/179
f 178/178/178 177/177/177 180/180/180
f 181/181/181 182/182/182 183/183/183
f 183/183/183 184/184/184 181/181/181
f 185/185/185 186/186/186 187/187/187
f 188/188/188 187/187/187 186/186/186
f 189/189/189 190/190/190 191/191/191
f 190/190/190 192/192/192 191/191/191
f 193/193/193 194/194/194 195/195/195
f 194/194/194 193/193/193 196/196/196
f 197/197/197 198/198/198 199/199/199
f 200/200/200 199/199/199 198/198/198
f 201/201/201 202/202/202 203/203/203
f 202/202/202 201/201/201 204/204/204
f 205/205/205 206/206/206 207/207/207
f 208/208/208 206/206/206 205/205/205
f 209/209/209 210/210/210 211/211/211
f 211/211/211 212/212/212 209/209/209
f 213/213/213 214/214/214 215/215/215
f 213/213/213 215/215/215 216/216/216
f 217/217/217 218/218/218 219/219/219
f 218/218/218 217/217/217 220/220/220
f 221/221/221 222/222/222 223/223/223
f 221/221/221 223/223/223 224/224/224
f 225/225/225 226/226/226 227/227/227
f 226/226/226 225/225/225 228/228/228
f 229/229/229 230/230/230 231/231/231
f 229/229/229 231/231/231 232/232/232
