# Generated from Roblox mesh JSON (v7.00)
# Hello from RBX_Toolbox ;)
o LeftUpperArm_inner_cage
v 0.078309 1.388255 0.146003
v -0.377212 1.314285 0.136597
v -0.263559 1.235740 0.513772
v 0.202896 1.328537 0.520709
v -0.250840 1.161434 -0.657079
v 0.078309 1.388255 0.146003
v 0.204082 1.269501 -0.558442
v -0.377212 1.314285 0.136597
v -0.377212 1.314285 0.136597
v -0.756391 1.055918 0.089272
v -0.645300 0.955914 0.554649
v -0.263559 1.235740 0.513772
v -0.608268 0.847306 -0.709844
v -0.377212 1.314285 0.136597
v -0.250840 1.161434 -0.657079
v -0.756391 1.055918 0.089272
v 0.202896 1.328537 0.520709
v 0.015404 0.861538 0.922365
v 0.461967 1.065133 0.893425
v -0.263559 1.235740 0.513772
v -0.645300 0.955914 0.554649
v 0.015404 0.861538 0.922365
v -0.263559 1.235740 0.513772
v -0.342003 0.519624 0.941816
v 0.060145 0.644698 -0.896711
v 0.204082 1.269501 -0.558442
v 0.432858 0.836633 -0.820101
v -0.250840 1.161434 -0.657079
v 0.055604 -1.292726 0.859699
v 0.609342 -1.388255 0.679416
v 0.647931 -1.190932 0.739224
v 0.043464 -1.048658 1.013058
v -0.232324 0.351146 -0.949621
v -0.608268 0.847306 -0.709844
v 0.060145 0.644698 -0.896711
v -0.250840 1.161434 -0.657079
v -0.928011 0.629102 0.031154
v -0.645300 0.955914 0.554649
v -0.756391 1.055918 0.089272
v -0.813428 0.514911 0.511663
v -0.928011 0.629102 0.031154
v -0.608268 0.847306 -0.709844
v -0.739463 0.396955 -0.625118
v -0.756391 1.055918 0.089272
v 0.060145 0.644698 -0.896711
v 0.607685 0.267338 -0.918513
v 0.445768 0.014651 -1.013058
v 0.432858 0.836633 -0.820101
v 0.445768 0.014651 -1.013058
v 0.782988 -0.279548 -0.741098
v 0.715939 -0.458182 -0.722159
v 0.607685 0.267338 -0.918513
v 0.043464 -1.048658 1.013058
v 0.647931 -1.190932 0.739224
v 0.670659 -0.996873 0.815828
v 0.051781 -0.753732 1.013038
v 0.051781 -0.753732 1.013038
v 0.708508 -0.805483 0.893107
v 0.088284 -0.466578 1.000153
v 0.670659 -0.996873 0.815828
v 0.461967 1.065133 0.893425
v 0.463917 0.172028 0.995190
v 0.786585 0.370136 0.972600
v 0.015404 0.861538 0.922365
v 0.368551 -0.269295 -0.935262
v -0.232324 0.351146 -0.949621
v 0.445768 0.014651 -1.013058
v 0.060145 0.644698 -0.896711
v 0.928011 -0.146214 0.842553
v 0.786585 0.370136 0.972600
v 0.463917 0.172028 0.995190
v 0.784720 -0.327450 0.891837
v 0.784720 -0.327450 0.891837
v 0.463917 0.172028 0.995190
v 0.236444 -0.118191 1.004252
v 0.743658 -0.566351 0.902613
v -0.417030 -1.109553 0.696362
v 0.043464 -1.048658 1.013058
v -0.402482 -0.721462 0.742569
v 0.055604 -1.292726 0.859699
v 0.368551 -0.269295 -0.935262
v 0.715939 -0.458182 -0.722159
v 0.709301 -0.721796 -0.632494
v 0.445768 0.014651 -1.013058
v 0.088284 -0.466578 1.000153
v 0.743658 -0.566351 0.902613
v 0.236444 -0.118191 1.004252
v 0.708508 -0.805483 0.893107
v -0.342003 0.519624 0.941816
v 0.463917 0.172028 0.995190
v 0.015404 0.861538 0.922365
v 0.236444 -0.118191 1.004252
v 0.232892 -0.944472 -0.663597
v 0.678067 -1.019204 -0.509129
v 0.661323 -1.130913 -0.465716
v 0.266233 -0.744529 -0.758914
v 0.306192 -0.544112 -0.832516
v 0.709301 -0.721796 -0.632494
v 0.691111 -0.912304 -0.556090
v 0.368551 -0.269295 -0.935262
v 0.266233 -0.744529 -0.758914
v 0.691111 -0.912304 -0.556090
v 0.678067 -1.019204 -0.509129
v 0.306192 -0.544112 -0.832516
v -0.645300 0.955914 0.554649
v -0.813428 0.514911 0.511663
v -0.342003 0.519624 0.941816
v -0.383945 0.038715 0.857352
v -0.917102 0.131341 -0.060591
v -0.739463 0.396955 -0.625118
v -0.723795 -0.059234 -0.546117
v -0.928011 0.629102 0.031154
v -0.917102 0.131341 -0.060591
v -0.813428 0.514911 0.511663
v -0.928011 0.629102 0.031154
v -0.816347 0.037055 0.430253
v -0.291798 -0.056948 -0.816956
v -0.739463 0.396955 -0.625118
v -0.232324 0.351146 -0.949621
v -0.608268 0.847306 -0.709844
v -0.383945 0.038715 0.857352
v 0.236444 -0.118191 1.004252
v -0.342003 0.519624 0.941816
v 0.088284 -0.466578 1.000153
v -0.822864 -0.365289 -0.100467
v -0.723795 -0.059234 -0.546117
v -0.651324 -0.515953 -0.522550
v -0.917102 0.131341 -0.060591
v 0.609342 -1.388255 0.679416
v 0.727657 -1.333711 0.082269
v 0.745594 -1.224927 0.074675
v 0.647931 -1.190932 0.739224
v 0.715939 -0.458182 -0.722159
v 0.866522 -0.880440 0.033306
v 0.765758 -0.886417 0.054805
v 0.782988 -0.279548 -0.741098
v 0.636689 -1.243706 -0.425009
v 0.745594 -1.224927 0.074675
v 0.727657 -1.333711 0.082269
v 0.661323 -1.130913 -0.465716
v 0.765758 -0.886417 0.054805
v 0.928011 -0.146214 0.842553
v 0.784720 -0.327450 0.891837
v 0.866522 -0.880440 0.033306
v -0.725136 -0.861103 -0.145103
v -0.651324 -0.515953 -0.522550
v -0.585098 -0.972676 -0.562159
v -0.822864 -0.365289 -0.100467
v -0.725136 -0.861103 -0.145103
v -0.776749 -0.437208 0.337840
v -0.822864 -0.365289 -0.100467
v -0.685570 -0.911964 0.294499
v -0.917102 0.131341 -0.060591
v -0.822864 -0.365289 -0.100467
v -0.816347 0.037055 0.430253
v -0.776749 -0.437208 0.337840
v -0.291798 -0.056948 -0.816956
v -0.284662 -0.405500 -0.723028
v -0.723795 -0.059234 -0.546117
v -0.739463 0.396955 -0.625118
v -0.776749 -0.437208 0.337840
v -0.685570 -0.911964 0.294499
v -0.402482 -0.721462 0.742569
v -0.417030 -1.109553 0.696362
v 0.266233 -0.744529 -0.758914
v -0.257726 -0.761030 -0.643191
v -0.284662 -0.405500 -0.723028
v 0.232892 -0.944472 -0.663597
v -0.284662 -0.405500 -0.723028
v -0.651324 -0.515953 -0.522550
v -0.723795 -0.059234 -0.546117
v -0.257726 -0.761030 -0.643191
v -0.384745 -0.333915 0.717472
v 0.088284 -0.466578 1.000153
v -0.383945 0.038715 0.857352
v 0.051781 -0.753732 1.013038
v 0.266233 -0.744529 -0.758914
v -0.284662 -0.405500 -0.723028
v 0.306192 -0.544112 -0.832516
v -0.291798 -0.056948 -0.816956
v 0.661323 -1.130913 -0.465716
v 0.218965 -1.157430 -0.666424
v 0.232892 -0.944472 -0.663597
v 0.636689 -1.243706 -0.425009
v 0.306192 -0.544112 -0.832516
v -0.291798 -0.056948 -0.816956
v 0.368551 -0.269295 -0.935262
v -0.232324 0.351146 -0.949621
v -0.776749 -0.437208 0.337840
v -0.384745 -0.333915 0.717472
v -0.816347 0.037055 0.430253
v -0.402482 -0.721462 0.742569
v 0.765758 -0.886417 0.054805
v 0.743658 -0.566351 0.902613
v 0.750075 -0.935992 0.078106
v 0.784720 -0.327450 0.891837
v -0.816347 0.037055 0.430253
v -0.383945 0.038715 0.857352
v -0.813428 0.514911 0.511663
v -0.384745 -0.333915 0.717472
v -0.402482 -0.721462 0.742569
v 0.051781 -0.753732 1.013038
v -0.384745 -0.333915 0.717472
v 0.043464 -1.048658 1.013058
v 0.647931 -1.190932 0.739224
v 0.745594 -1.224927 0.074675
v 0.750439 -1.114437 0.073848
v 0.670659 -0.996873 0.815828
v 0.750075 -0.935992 0.078106
v 0.708508 -0.805483 0.893107
v 0.735573 -1.005429 0.085102
v 0.743658 -0.566351 0.902613
v 0.661323 -1.130913 -0.465716
v 0.750439 -1.114437 0.073848
v 0.745594 -1.224927 0.074675
v 0.678067 -1.019204 -0.509129
v 0.709301 -0.721796 -0.632494
v 0.750075 -0.935992 0.078106
v 0.691111 -0.912304 -0.556090
v 0.735573 -1.005429 0.085102
v 0.765758 -0.886417 0.054805
v 0.709301 -0.721796 -0.632494
v 0.715939 -0.458182 -0.722159
v 0.750075 -0.935992 0.078106
v 0.735573 -1.005429 0.085102
v 0.670659 -0.996873 0.815828
v 0.750439 -1.114437 0.073848
v 0.708508 -0.805483 0.893107
v 0.678067 -1.019204 -0.509129
v 0.735573 -1.005429 0.085102
v 0.750439 -1.114437 0.073848
v 0.691111 -0.912304 -0.556090
v -0.257726 -0.761030 -0.643191
v -0.585098 -0.972676 -0.562159
v -0.651324 -0.515953 -0.522550
v -0.214866 -1.096532 -0.770067
v 0.232892 -0.944472 -0.663597
v -0.214866 -1.096532 -0.770067
v -0.257726 -0.761030 -0.643191
v 0.218965 -1.157430 -0.666424
vt 4.249259 3.462179
vt 4.317513 3.462179
vt 4.317513 3.511224
vt 4.249259 3.511224
vt 4.317513 3.414271
vt 4.249259 3.462179
vt 4.249259 3.401921
vt 4.317513 3.462179
vt 4.317513 3.462179
vt 4.383102 3.462179
vt 4.383102 3.511224
vt 4.317513 3.511224
vt 4.383102 3.414270
vt 4.317513 3.462179
vt 4.317513 3.414271
vt 4.383102 3.462179
vt 4.249259 3.511224
vt 4.317513 3.579725
vt 4.249259 3.579725
vt 4.317513 3.511224
vt 4.383102 3.511224
vt 4.317513 3.579725
vt 4.317513 3.511224
vt 4.383102 3.579725
vt 4.317513 3.344108
vt 4.249259 3.401921
vt 4.249259 3.343375
vt 4.317513 3.414271
vt 4.750741 3.651093
vt 4.750740 3.682632
vt 4.674968 3.682632
vt 4.674969 3.651093
vt 4.383102 3.344108
vt 4.383102 3.414270
vt 4.317513 3.344108
vt 4.317513 3.414271
vt 4.464461 3.462179
vt 4.383102 3.511224
vt 4.383102 3.462179
vt 4.464461 3.511224
vt 4.464461 3.462179
vt 4.383102 3.414270
vt 4.464461 3.414271
vt 4.383102 3.462179
vt 4.317513 3.344108
vt 4.249260 3.273265
vt 4.317513 3.273265
vt 4.249259 3.343375
vt 4.317513 3.273265
vt 4.249259 3.241301
vt 4.317513 3.241285
vt 4.249260 3.273265
vt 4.674969 3.651093
vt 4.674968 3.682632
vt 4.573396 3.682632
vt 4.573396 3.651094
vt 4.573396 3.651094
vt 4.464461 3.682632
vt 4.464461 3.651093
vt 4.573396 3.682632
vt 4.249259 3.579725
vt 4.317513 3.651093
vt 4.249260 3.651093
vt 4.317513 3.579725
vt 4.383102 3.273265
vt 4.383102 3.344108
vt 4.317513 3.273265
vt 4.317513 3.344108
vt 4.249259 3.682803
vt 4.249260 3.651093
vt 4.317513 3.651093
vt 4.317513 3.682776
vt 4.317513 3.682776
vt 4.317513 3.651093
vt 4.383102 3.651093
vt 4.383102 3.682749
vt 4.750740 3.579725
vt 4.674969 3.651093
vt 4.674969 3.579725
vt 4.750741 3.651093
vt 4.383102 3.273265
vt 4.317513 3.241285
vt 4.383102 3.241270
vt 4.317513 3.273265
vt 4.464461 3.651093
vt 4.383102 3.682749
vt 4.383102 3.651093
vt 4.464461 3.682632
vt 4.383102 3.579725
vt 4.317513 3.651093
vt 4.317513 3.579725
vt 4.383102 3.651093
vt 4.674968 3.273265
vt 4.573396 3.241194
vt 4.674968 3.241194
vt 4.573396 3.273265
vt 4.464461 3.273264
vt 4.383102 3.241270
vt 4.464461 3.241194
vt 4.383102 3.273265
vt 4.573396 3.273265
vt 4.464461 3.241194
vt 4.573396 3.241194
vt 4.464461 3.273264
vt 4.383102 3.511224
vt 4.464461 3.511224
vt 4.383102 3.579725
vt 4.464461 3.579725
vt 4.573396 3.462179
vt 4.464461 3.414271
vt 4.573396 3.414270
vt 4.464461 3.462179
vt 4.573396 3.462179
vt 4.464461 3.511224
vt 4.464461 3.462179
vt 4.573396 3.511224
vt 4.464461 3.344108
vt 4.464461 3.414271
vt 4.383102 3.344108
vt 4.383102 3.414270
vt 4.464461 3.579725
vt 4.383102 3.651093
vt 4.383102 3.579725
vt 4.464461 3.651093
vt 4.674968 3.462179
vt 4.573396 3.414270
vt 4.674968 3.414270
vt 4.573396 3.462179
vt 4.750740 3.682632
vt 4.750741 3.714510
vt 4.674969 3.714510
vt 4.674968 3.682632
vt 4.317513 3.241285
vt 4.249260 3.209337
vt 4.317512 3.209337
vt 4.249259 3.241301
vt 4.750740 3.241194
vt 4.674968 3.209337
vt 4.750740 3.209337
vt 4.674968 3.241194
vt 4.317512 3.714511
vt 4.249259 3.682803
vt 4.317513 3.682776
vt 4.249260 3.714511
vt 4.750740 3.462179
vt 4.674968 3.414270
vt 4.750740 3.414270
vt 4.674968 3.462179
vt 4.750740 3.462179
vt 4.674968 3.511224
vt 4.674968 3.462179
vt 4.750740 3.511224
vt 4.573396 3.462179
vt 4.674968 3.462179
vt 4.573396 3.511224
vt 4.674968 3.511224
vt 4.464461 3.344108
vt 4.573396 3.344108
vt 4.573396 3.414270
vt 4.464461 3.414271
vt 4.674968 3.511224
vt 4.750740 3.511224
vt 4.674969 3.579725
vt 4.750740 3.579725
vt 4.573396 3.273265
vt 4.674969 3.344108
vt 4.573396 3.344108
vt 4.674968 3.273265
vt 4.573396 3.344108
vt 4.674968 3.414270
vt 4.573396 3.414270
vt 4.674969 3.344108
vt 4.573396 3.579725
vt 4.464461 3.651093
vt 4.464461 3.579725
vt 4.573396 3.651094
vt 4.573396 3.273265
vt 4.573396 3.344108
vt 4.464461 3.273264
vt 4.464461 3.344108
vt 4.674968 3.241194
vt 4.750740 3.273265
vt 4.674968 3.273265
vt 4.750740 3.241194
vt 4.464461 3.273264
vt 4.464461 3.344108
vt 4.383102 3.273265
vt 4.383102 3.344108
vt 4.674968 3.511224
vt 4.573396 3.579725
vt 4.573396 3.511224
vt 4.674969 3.579725
vt 4.317512 3.714511
vt 4.383102 3.682749
vt 4.383102 3.714510
vt 4.317513 3.682776
vt 4.573396 3.511224
vt 4.464461 3.579725
vt 4.464461 3.511224
vt 4.573396 3.579725
vt 4.674969 3.579725
vt 4.573396 3.651094
vt 4.573396 3.579725
vt 4.674969 3.651093
vt 4.674968 3.682632
vt 4.674969 3.714510
vt 4.573396 3.714510
vt 4.573396 3.682632
vt 4.383102 3.714510
vt 4.464461 3.682632
vt 4.464461 3.714510
vt 4.383102 3.682749
vt 4.674968 3.241194
vt 4.573396 3.209337
vt 4.674968 3.209337
vt 4.573396 3.241194
vt 4.383102 3.241270
vt 4.383102 3.209337
vt 4.464461 3.241194
vt 4.464461 3.209337
vt 4.317512 3.209337
vt 4.383102 3.241270
vt 4.317513 3.241285
vt 4.383102 3.209337
vt 4.464461 3.714510
vt 4.573396 3.682632
vt 4.573396 3.714510
vt 4.464461 3.682632
vt 4.573396 3.241194
vt 4.464461 3.209337
vt 4.573396 3.209337
vt 4.464461 3.241194
vt 4.674969 3.344108
vt 4.750740 3.414270
vt 4.674968 3.414270
vt 4.750741 3.344108
vt 4.674968 3.273265
vt 4.750741 3.344108
vt 4.674969 3.344108
vt 4.750740 3.273265
vn -0.176912 0.956836 0.232389
vn -0.176912 0.956836 0.232389
vn -0.176912 0.956836 0.232389
vn -0.176912 0.956836 0.232389
vn -0.169124 0.964624 -0.203728
vn -0.169124 0.964624 -0.203728
vn -0.169124 0.964624 -0.203728
vn -0.169124 0.964624 -0.203728
vn -0.550726 0.774796 0.311241
vn -0.550726 0.774796 0.311241
vn -0.550726 0.774796 0.311241
vn -0.550726 0.774796 0.311241
vn -0.566302 0.776743 -0.273818
vn -0.566302 0.776743 -0.273818
vn -0.566302 0.776743 -0.273818
vn -0.566302 0.776743 -0.273818
vn -0.205143 0.684263 0.699658
vn -0.205143 0.684263 0.699658
vn -0.205143 0.684263 0.699658
vn -0.205143 0.684263 0.699658
vn -0.362846 0.507090 0.781430
vn -0.362846 0.507090 0.781430
vn -0.362846 0.507090 0.781430
vn -0.362846 0.507090 0.781430
vn 0.014863 0.473018 -0.880293
vn 0.014863 0.473018 -0.880293
vn 0.014863 0.473018 -0.880293
vn 0.014863 0.473018 -0.880293
vn 0.250444 -0.433288 0.866122
vn 0.250444 -0.433288 0.866122
vn 0.245577 -0.435235 0.866122
vn 0.253364 -0.438155 0.862228
vn -0.159389 0.331864 -0.929941
vn -0.159389 0.331864 -0.929941
vn -0.159389 0.331864 -0.929941
vn -0.159389 0.331864 -0.929941
vn -0.903125 0.320183 0.287878
vn -0.903125 0.320183 0.287878
vn -0.903125 0.320183 0.287878
vn -0.903125 0.320183 0.287878
vn -0.904098 0.302660 -0.301075
vn -0.904098 0.302660 -0.301075
vn -0.904098 0.302660 -0.301075
vn -0.904098 0.302660 -0.301075
vn 0.119025 0.228676 -0.965959
vn 0.119025 0.228676 -0.965959
vn 0.119025 0.228676 -0.965959
vn 0.119025 0.228676 -0.965959
vn 0.542487 -0.143192 -0.827726
vn 0.542487 -0.143192 -0.827726
vn 0.542487 -0.143192 -0.827726
vn 0.542487 -0.143192 -0.827726
vn 0.313720 -0.163635 0.935239
vn 0.305932 -0.161688 0.938159
vn 0.305932 -0.168502 0.937186
vn 0.309826 -0.168502 0.936212
vn 0.168672 -0.154874 0.973204
vn 0.165752 -0.156820 0.973204
vn 0.165752 -0.156820 0.973204
vn 0.163805 -0.154874 0.974178
vn 0.007075 0.112832 0.993647
vn 0.007075 0.112832 0.993647
vn 0.007075 0.112832 0.993647
vn 0.007075 0.112832 0.993647
vn -0.087352 0.012564 -0.996137
vn -0.087352 0.012564 -0.996137
vn -0.087352 0.012564 -0.996137
vn -0.087352 0.012564 -0.996137
vn 0.239736 -0.112041 0.964443
vn 0.239736 -0.112041 0.964443
vn 0.239736 -0.112041 0.964443
vn 0.239736 -0.112041 0.964443
vn 0.180354 -0.054606 0.981966
vn 0.180354 -0.054606 0.981966
vn 0.180354 -0.054606 0.981966
vn 0.180354 -0.054606 0.981966
vn -0.525416 -0.254168 0.812581
vn -0.531257 -0.255142 0.807714
vn -0.522496 -0.260009 0.811608
vn -0.525416 -0.254168 0.812581
vn 0.361420 -0.323285 -0.874452
vn 0.361420 -0.323285 -0.874452
vn 0.361420 -0.323285 -0.874452
vn 0.361420 -0.323285 -0.874452
vn 0.137521 -0.065314 0.988780
vn 0.137521 -0.065314 0.988780
vn 0.137521 -0.065314 0.988780
vn 0.137521 -0.065314 0.988780
vn -0.032837 0.075840 0.996568
vn -0.032837 0.075840 0.996568
vn -0.032837 0.075840 0.996568
vn -0.032837 0.075840 0.996568
vn 0.231948 -0.426473 -0.874452
vn 0.231948 -0.426473 -0.874452
vn 0.231948 -0.426473 -0.874452
vn 0.231948 -0.426473 -0.874452
vn 0.267967 -0.386561 -0.882240
vn 0.267967 -0.386561 -0.882240
vn 0.267967 -0.386561 -0.882240
vn 0.267967 -0.386561 -0.882240
vn 0.266020 -0.391428 -0.881267
vn 0.266020 -0.391428 -0.881267
vn 0.266020 -0.391428 -0.881267
vn 0.266020 -0.391428 -0.881267
vn -0.673384 0.051503 0.737623
vn -0.673384 0.051503 0.737623
vn -0.673384 0.051503 0.737623
vn -0.673384 0.051503 0.737623
vn -0.950825 -0.022481 -0.309837
vn -0.950825 -0.022481 -0.309837
vn -0.950825 -0.022481 -0.309837
vn -0.950825 -0.022481 -0.309837
vn -0.977109 -0.044871 0.207079
vn -0.977109 -0.044871 0.207079
vn -0.977109 -0.044871 0.207079
vn -0.977109 -0.044871 0.207079
vn -0.542939 -0.090624 -0.835513
vn -0.542939 -0.090624 -0.835513
vn -0.542939 -0.090624 -0.835513
vn -0.542939 -0.090624 -0.835513
vn -0.242135 -0.047791 0.969311
vn -0.242135 -0.047791 0.969311
vn -0.242135 -0.047791 0.969311
vn -0.242135 -0.047791 0.969311
vn -0.935249 -0.157794 -0.316651
vn -0.935249 -0.157794 -0.316651
vn -0.935249 -0.157794 -0.316651
vn -0.935249 -0.157794 -0.316651
vn 0.964975 -0.205494 0.162299
vn 0.964975 -0.205494 0.162299
vn 0.964975 -0.205494 0.162299
vn 0.964975 -0.205494 0.162299
vn 0.595054 -0.645505 -0.479221
vn 0.595054 -0.645505 -0.479221
vn 0.595054 -0.645505 -0.479221
vn 0.595054 -0.645505 -0.479221
vn 0.953294 -0.226911 -0.198860
vn 0.953294 -0.226911 -0.198860
vn 0.953294 -0.226911 -0.198860
vn 0.953294 -0.226911 -0.198860
vn 0.619391 -0.631877 0.466024
vn 0.619391 -0.631877 0.466024
vn 0.619391 -0.631877 0.466024
vn 0.619391 -0.631877 0.466024
vn -0.942064 -0.135404 -0.307890
vn -0.942064 -0.135404 -0.307890
vn -0.942064 -0.135404 -0.307890
vn -0.942064 -0.135404 -0.307890
vn -0.978082 -0.196733 0.067872
vn -0.978082 -0.196733 0.067872
vn -0.978082 -0.196733 0.067872
vn -0.978082 -0.196733 0.067872
vn -0.980029 -0.152927 0.127254
vn -0.980029 -0.152927 0.127254
vn -0.980029 -0.152927 0.127254
vn -0.980029 -0.152927 0.127254
vn -0.520549 -0.193813 -0.831620
vn -0.520549 -0.193813 -0.831620
vn -0.520549 -0.193813 -0.831620
vn -0.520549 -0.193813 -0.831620
vn -0.811618 -0.131510 0.569212
vn -0.811618 -0.131510 0.569212
vn -0.811618 -0.131510 0.569212
vn -0.811618 -0.131510 0.569212
vn -0.197355 -0.293107 -0.935781
vn -0.197355 -0.293107 -0.935781
vn -0.197355 -0.293107 -0.935781
vn -0.197355 -0.293107 -0.935781
vn -0.433909 -0.165582 -0.885161
vn -0.433909 -0.165582 -0.885161
vn -0.433909 -0.165582 -0.885161
vn -0.433909 -0.165582 -0.885161
vn -0.535151 -0.130537 0.834971
vn -0.535151 -0.130537 0.834971
vn -0.535151 -0.130537 0.834971
vn -0.535151 -0.130537 0.834971
vn -0.236294 -0.270717 -0.932861
vn -0.236294 -0.270717 -0.932861
vn -0.236294 -0.270717 -0.932861
vn -0.236294 -0.270717 -0.932861
vn 0.415935 -0.153900 -0.896842
vn 0.415935 -0.153900 -0.896842
vn 0.415935 -0.153900 -0.896842
vn 0.415935 -0.153900 -0.896842
vn -0.254790 -0.274611 -0.927020
vn -0.254790 -0.274611 -0.927020
vn -0.254790 -0.274611 -0.927020
vn -0.254790 -0.274611 -0.927020
vn -0.684093 -0.074075 0.725942
vn -0.684093 -0.074075 0.725942
vn -0.684093 -0.074075 0.725942
vn -0.684093 -0.074075 0.725942
vn 0.978604 -0.181157 0.094156
vn 0.979577 -0.177263 0.099023
vn 0.977630 -0.186025 0.098050
vn 0.978604 -0.181157 0.094156
vn -0.690907 -0.179210 0.700631
vn -0.690907 -0.179210 0.700631
vn -0.690907 -0.179210 0.700631
vn -0.690907 -0.179210 0.700631
vn -0.502053 0.052477 0.863202
vn -0.507894 0.051503 0.859308
vn -0.507894 0.051503 0.859308
vn -0.509840 0.057344 0.858334
vn 0.982498 -0.122749 0.136989
vn 0.982498 -0.122749 0.136989
vn 0.982498 -0.122749 0.136989
vn 0.982498 -0.122749 0.136989
vn 0.984445 -0.162661 0.069819
vn 0.984445 -0.158767 0.075660
vn 0.984445 -0.158767 0.075660
vn 0.985418 -0.154874 0.070792
vn 0.979577 -0.126643 -0.157974
vn 0.979577 -0.126643 -0.157974
vn 0.979577 -0.126643 -0.157974
vn 0.979577 -0.126643 -0.157974
vn 0.983471 -0.150980 -0.096645
vn 0.983471 -0.153900 -0.092751
vn 0.982498 -0.151953 -0.103460
vn 0.981524 -0.160714 -0.100539
vn 0.988339 -0.109120 -0.107354
vn 0.987365 -0.110094 -0.111248
vn 0.988339 -0.109120 -0.107354
vn 0.988339 -0.113014 -0.106380
vn 0.990286 -0.102306 0.089289
vn 0.990286 -0.102306 0.089289
vn 0.990286 -0.102306 0.089289
vn 0.990286 -0.102306 0.089289
vn 0.995153 -0.007879 -0.095672
vn 0.996126 -0.010799 -0.090805
vn 0.995153 -0.007879 -0.095672
vn 0.996126 -0.002038 -0.091778
vn -0.327801 0.150798 -0.932861
vn -0.327801 0.150798 -0.932861
vn -0.327801 0.150798 -0.932861
vn -0.327801 0.150798 -0.932861
vn 0.148229 0.234517 -0.960118
vn 0.148229 0.234517 -0.960118
vn 0.148229 0.234517 -0.960118
vn 0.148229 0.234517 -0.960118
f 1/1/1 2/2/2 3/3/3
f 3/3/3 4/4/4 1/1/1
f 5/5/5 6/6/6 7/7/7
f 6/6/6 5/5/5 8/8/8
f 9/9/9 10/10/10 11/11/11
f 11/11/11 12/12/12 9/9/9
f 13/13/13 14/14/14 15/15/15
f 14/14/14 13/13/13 16/16/16
f 17/17/17 18/18/18 19/19/19
f 18/18/18 17/17/17 20/20/20
f 21/21/21 22/22/22 23/23/23
f 22/22/22 21/21/21 24/24/24
f 25/25/25 26/26/26 27/27/27
f 26/26/26 25/25/25 28/28/28
f 29/29/29 30/30/30 31/31/31
f 29/29/29 31/31/31 32/32/32
f 33/33/33 34/34/34 35/35/35
f 34/34/34 36/36/36 35/35/35
f 37/37/37 38/38/38 39/39/39
f 38/38/38 37/37/37 40/40/40
f 41/41/41 42/42/42 43/43/43
f 42/42/42 41/41/41 44/44/44
f 45/45/45 46/46/46 47/47/47
f 46/46/46 45/45/45 48/48/48
f 49/49/49 50/50/50 51/51/51
f 50/50/50 49/49/49 52/52/52
f 53/53/53 54/54/54 55/55/55
f 53/53/53 55/55/55 56/56/56
f 57/57/57 58/58/58 59/59/59
f 57/57/57 60/60/60 58/58/58
f 61/61/61 62/62/62 63/63/63
f 62/62/62 61/61/61 64/64/64
f 65/65/65 66/66/66 67/67/67
f 66/66/66 68/68/68 67/67/67
f 69/69/69 70/70/70 71/71/71
f 71/71/71 72/72/72 69/69/69
f 73/73/73 74/74/74 75/75/75
f 75/75/75 76/76/76 73/73/73
f 77/77/77 78/78/78 79/79/79
f 77/77/77 80/80/80 78/78/78
f 81/81/81 82/82/82 83/83/83
f 82/82/82 81/81/81 84/84/84
f 85/85/85 86/86/86 87/87/87
f 86/86/86 85/85/85 88/88/88
f 89/89/89 90/90/90 91/91/91
f 90/90/90 89/89/89 92/92/92
f 93/93/93 94/94/94 95/95/95
f 94/94/94 93/93/93 96/96/96
f 97/97/97 98/98/98 99/99/99
f 98/98/98 97/97/97 100/100/100
f 101/101/101 102/102/102 103/103/103
f 102/102/102 101/101/101 104/104/104
f 105/105/105 106/106/106 107/107/107
f 106/106/106 108/108/108 107/107/107
f 109/109/109 110/110/110 111/111/111
f 110/110/110 109/109/109 112/112/112
f 113/113/113 114/114/114 115/115/115
f 114/114/114 113/113/113 116/116/116
f 117/117/117 118/118/118 119/119/119
f 118/118/118 120/120/120 119/119/119
f 121/121/121 122/122/122 123/123/123
f 122/122/122 121/121/121 124/124/124
f 125/125/125 126/126/126 127/127/127
f 126/126/126 125/125/125 128/128/128
f 129/129/129 130/130/130 131/131/131
f 131/131/131 132/132/132 129/129/129
f 133/133/133 134/134/134 135/135/135
f 134/134/134 133/133/133 136/136/136
f 137/137/137 138/138/138 139/139/139
f 138/138/138 137/137/137 140/140/140
f 141/141/141 142/142/142 143/143/143
f 142/142/142 141/141/141 144/144/144
f 145/145/145 146/146/146 147/147/147
f 146/146/146 145/145/145 148/148/148
f 149/149/149 150/150/150 151/151/151
f 150/150/150 149/149/149 152/152/152
f 153/153/153 154/154/154 155/155/155
f 154/154/154 156/156/156 155/155/155
f 157/157/157 158/158/158 159/159/159
f 159/159/159 160/160/160 157/157/157
f 161/161/161 162/162/162 163/163/163
f 163/163/163 162/162/162 164/164/164
f 165/165/165 166/166/166 167/167/167
f 166/166/166 165/165/165 168/168/168
f 169/169/169 170/170/170 171/171/171
f 170/170/170 169/169/169 172/172/172
f 173/173/173 174/174/174 175/175/175
f 173/173/173 176/176/176 174/174/174
f 177/177/177 178/178/178 179/179/179
f 178/178/178 180/180/180 179/179/179
f 181/181/181 182/182/182 183/183/183
f 182/182/182 181/181/181 184/184/184
f 185/185/185 186/186/186 187/187/187
f 186/186/186 188/188/188 187/187/187
f 189/189/189 190/190/190 191/191/191
f 189/189/189 192/192/192 190/190/190
f 193/193/193 194/194/194 195/195/195
f 194/194/194 193/193/193 196/196/196
f 197/197/197 198/198/198 199/199/199
f 197/197/197 200/200/200 198/198/198
f 201/201/201 202/202/202 203/203/203
f 201/201/201 204/204/204 202/202/202
f 205/205/205 206/206/206 207/207/207
f 207/207/207 208/208/208 205/205/205
f 209/209/209 210/210/210 211/211/211
f 210/210/210 209/209/209 212/212/212
f 213/213/213 214/214/214 215/215/215
f 214/214/214 213/213/213 216/216/216
f 217/217/217 218/218/218 219/219/219
f 219/219/219 218/218/218 220/220/220
f 221/221/221 222/222/222 223/223/223
f 222/222/222 221/221/221 224/224/224
f 225/225/225 226/226/226 227/227/227
f 226/226/226 225/225/225 228/228/228
f 229/229/229 230/230/230 231/231/231
f 230/230/230 229/229/229 232/232/232
f 233/233/233 234/234/234 235/235/235
f 234/234/234 233/233/233 236/236/236
f 237/237/237 238/238/238 239/239/239
f 238/238/238 237/237/237 240/240/240
