# Generated from Roblox mesh JSON (v7.00)
# Hello from RBX_Toolbox ;)
o LeftHand
v -0.203003 -0.187873 -0.409180
v 0.060731 -0.446249 -0.407539
v -0.061582 -0.358073 -0.278080
v 0.017431 -0.499723 -0.201112
v -0.220925 -0.248415 -0.188635
v 0.002005 -0.299282 -0.195874
v 0.022027 -0.580520 -0.109873
v -0.267127 -0.334920 -0.038273
v 0.046985 -0.579500 -0.007292
v 0.002005 -0.299282 -0.195874
v -0.220925 -0.248415 -0.188635
v 0.003067 -0.210350 -0.454348
v 0.085133 -0.386625 -0.477473
v -0.295665 0.018881 -0.196462
v -0.295665 0.018881 -0.196462
v 0.104306 -0.467507 -0.274723
v -0.061582 -0.358073 -0.278080
v 0.060731 -0.446249 -0.407539
v 0.160665 -0.268437 -0.308620
v 0.082368 -0.193449 -0.249943
v 0.104306 -0.467507 -0.274723
v 0.052574 -0.309884 -0.151714
v 0.063404 -0.284982 0.015834
v 0.144018 -0.365380 -0.055146
v 0.076169 -0.141539 -0.108796
v 0.082853 0.039439 -0.310160
v 0.085858 -0.207672 -0.394243
v 0.076169 -0.141539 -0.108796
v 0.112224 -0.411028 0.038885
v -0.224679 -0.320382 0.127919
v 0.043836 -0.466291 0.066171
v 0.046382 -0.519369 0.148498
v -0.207481 -0.348316 0.274283
v 0.100831 -0.558749 0.263011
v -0.089488 -0.161755 0.450532
v -0.485064 0.291683 0.197473
v -0.391755 0.122003 0.324706
v 0.116083 -0.451019 0.312138
v 0.026598 -0.132470 0.421482
v 0.067676 -0.383447 0.107370
v 0.101553 -0.187429 0.111576
v 0.116154 -0.358463 0.178358
v 0.113513 -0.361826 0.263952
v 0.093953 0.007703 0.020464
v 0.108959 -0.052646 0.370246
v 0.077489 -0.063534 0.166132
v 0.105956 0.079830 -0.179575
v -0.056709 0.159920 -0.341303
v -0.295907 0.477545 -0.098354
v -0.467649 0.479290 0.071678
v -0.467649 0.479290 0.071678
v -0.137694 0.643263 -0.011105
v -0.101177 0.591210 -0.052642
v 0.184103 0.393643 -0.362678
v -0.352345 0.565691 -0.021070
v 0.230947 0.477970 -0.305245
v 0.093953 0.007703 0.020464
v 0.193512 0.302582 -0.349154
v 0.109617 0.576915 -0.056938
v 0.025519 0.543408 0.181784
v -0.492857 0.399975 0.301762
v -0.357811 0.376680 0.477473
v -0.304861 0.580595 0.244414
v -0.352345 0.565691 -0.021070
v -0.467649 0.479290 0.071678
v -0.137694 0.643263 -0.011105
v -0.061328 0.516560 0.428874
v -0.304861 0.580595 0.244414
v -0.020539 0.604518 0.208158
v 0.111822 0.253677 0.467299
v 0.187308 0.339419 0.369087
v 0.025519 0.543408 0.181784
v -0.020539 0.604518 0.208158
v 0.333900 -0.504234 -0.373190
v 0.333342 -0.560334 -0.205726
v 0.325126 -0.643262 -0.103053
v 0.333342 -0.560334 -0.205726
v 0.002005 -0.299282 -0.195874
v 0.332950 -0.439029 -0.121506
v 0.321065 -0.449011 -0.272863
v 0.002005 -0.299282 -0.195874
v 0.085133 -0.386625 -0.477473
v 0.003067 -0.210350 -0.454348
v 0.342833 -0.414444 -0.454405
v 0.354466 -0.397313 -0.279983
v 0.332950 -0.439029 -0.121506
v 0.017431 -0.499723 -0.201112
v 0.325126 -0.643262 -0.103053
v 0.321065 -0.449011 -0.272863
v 0.350986 -0.582510 -0.015465
v 0.342833 -0.414444 -0.454405
v 0.337596 -0.326039 -0.357994
v 0.354466 -0.397313 -0.279983
v 0.276742 -0.530813 0.062774
v 0.280751 -0.605889 0.116618
v 0.310181 -0.575770 0.202172
v 0.325171 -0.488123 -0.007888
v 0.323233 -0.481528 0.160051
v 0.325171 -0.488123 -0.007888
v 0.043836 -0.466291 0.066171
v 0.350986 -0.582510 -0.015465
v 0.144018 -0.365380 -0.055146
v 0.203324 0.183939 -0.173153
v 0.296949 0.227009 -0.228175
v 0.379889 0.170228 -0.374902
v 0.440335 0.212704 -0.433922
v 0.492857 0.269345 -0.384435
v 0.371993 0.423837 -0.264641
v 0.393013 0.357351 -0.197786
v 0.259419 0.320150 -0.031790
v 0.433720 0.172955 -0.286896
v 0.179785 0.110651 0.119379
v 0.215623 0.123827 0.399504
v 0.194095 0.478031 0.004842
v 0.205451 0.309848 0.186677
v 0.205451 0.309848 0.186677
v 0.179785 0.110651 0.119379
vt 0.804920 0.164965
vt 0.817200 0.187725
vt 0.804909 0.191834
vt 0.852741 0.189178
vt 0.812705 0.190885
vt 0.851137 0.212651
vt 0.853783 0.186687
vt 0.832833 0.173456
vt 0.855475 0.185161
vt 0.820892 0.222700
vt 0.759789 0.183640
vt 0.823718 0.176304
vt 0.817456 0.188189
vt 0.785872 0.115130
vt 0.777462 0.157471
vt 0.816538 0.187786
vt 0.804909 0.191834
vt 0.817200 0.187725
vt 0.822727 0.191036
vt 0.838017 0.198349
vt 0.816538 0.187786
vt 0.856188 0.205900
vt 0.871829 0.191940
vt 0.861127 0.191132
vt 0.881340 0.214504
vt 0.854446 0.166600
vt 0.827184 0.181955
vt 0.863444 0.211020
vt 0.862566 0.184833
vt 0.846165 0.164506
vt 0.861640 0.179643
vt 0.862509 0.174134
vt 0.856606 0.161136
vt 0.865401 0.172227
vt 0.874605 0.151724
vt 0.831907 0.102943
vt 0.850557 0.122734
vt 0.868646 0.170782
vt 0.882817 0.155868
vt 0.867928 0.181926
vt 0.885144 0.186524
vt 0.872437 0.177870
vt 0.873703 0.172989
vt 0.911421 0.199678
vt 0.894814 0.157182
vt 0.899024 0.179518
vt 0.878761 0.170309
vt 0.851205 0.138019
vt 0.869073 0.065688
vt 0.813739 0.067598
vt 0.859585 0.020821
vt 0.907549 0.068450
vt 0.903253 0.079246
vt 0.886968 0.127066
vt 0.880960 0.047758
vt 0.894795 0.124258
vt 0.905458 0.201792
vt 0.885765 0.133258
vt 0.915665 0.105608
vt 0.954647 0.086368
vt 0.847105 0.091857
vt 0.869775 0.101994
vt 0.874399 0.052798
vt 0.880960 0.047758
vt 0.859585 0.020821
vt 0.907549 0.068450
vt 0.906218 0.097860
vt 0.874399 0.052798
vt 0.954447 0.069532
vt 0.907906 0.131528
vt 0.924886 0.129057
vt 0.969663 0.078799
vt 0.954447 0.069532
vt 0.816805 0.188426
vt 0.856676 0.188231
vt 0.856655 0.188262
vt 0.856676 0.188231
vt 0.851137 0.212651
vt 0.856679 0.188212
vt 0.816567 0.188454
vt 0.820892 0.222700
vt 0.817456 0.188189
vt 0.823718 0.176304
vt 0.817056 0.188575
vt 0.816582 0.188916
vt 0.856679 0.188212
vt 0.852741 0.189178
vt 0.856655 0.188262
vt 0.816567 0.188454
vt 0.856661 0.188228
vt 0.817056 0.188575
vt 0.816900 0.188942
vt 0.816582 0.188916
vt 0.866158 0.173955
vt 0.866138 0.173866
vt 0.866200 0.173815
vt 0.856669 0.188210
vt 0.866258 0.173883
vt 0.856669 0.188210
vt 0.861640 0.179643
vt 0.856661 0.188228
vt 0.861127 0.191132
vt 0.894706 0.154572
vt 0.897076 0.142279
vt 0.896465 0.136149
vt 0.896612 0.135799
vt 0.896902 0.135651
vt 0.899836 0.131102
vt 0.902434 0.134498
vt 0.921026 0.141428
vt 0.897002 0.136243
vt 0.932234 0.178722
vt 0.911314 0.147357
vt 0.926850 0.119655
vt 0.962643 0.146141
vt 0.953771 0.143399
vt 0.938930 0.186754
vn -0.644006 -0.209797 -0.735326
vn -0.414472 -0.833365 -0.365202
vn -0.539759 -0.809455 0.230630
vn -0.239452 -0.375253 -0.895044
vn -0.707128 -0.595223 -0.381461
vn 0.794409 -0.112245 0.596929
vn -0.481419 -0.800848 -0.355639
vn -0.864933 -0.443157 -0.235133
vn -0.236583 -0.802761 0.548153
vn 0.794409 -0.112245 0.596929
vn -0.707128 -0.595223 -0.381461
vn 0.269349 0.353518 -0.896000
vn -0.229888 -0.316913 -0.919910
vn -0.851543 -0.012780 -0.523964
vn -0.851543 -0.012780 -0.523964
vn -0.212673 -0.839104 0.501289
vn -0.539759 -0.809455 0.230630
vn -0.414472 -0.833365 -0.365202
vn 0.526619 0.671041 0.521374
vn 0.993338 -0.042428 0.108212
vn -0.212673 -0.839104 0.501289
vn 0.785801 0.590704 -0.180619
vn 0.977080 0.211016 0.010660
vn 0.553398 0.802066 0.225848
vn 0.978036 -0.188756 -0.089761
vn 0.825013 0.281789 -0.489534
vn 0.693988 0.623221 -0.360420
vn 0.978036 -0.188756 -0.089761
vn 0.782932 0.239707 0.574932
vn -0.717648 -0.679386 0.156032
vn -0.057737 -0.936656 0.344441
vn -0.446989 -0.823801 -0.347987
vn -0.720517 -0.608613 0.332008
vn -0.150507 -0.793197 0.590234
vn -0.064432 -0.309262 0.948881
vn -0.960572 -0.277701 0.012573
vn -0.873540 -0.341779 0.345397
vn 0.561049 -0.002260 0.827419
vn 0.638517 -0.258573 0.725085
vn 0.848923 0.266486 -0.457016
vn 0.997164 0.001566 -0.075415
vn 0.765717 0.553404 -0.325990
vn 0.929260 0.195713 0.313836
vn 0.956039 -0.288221 -0.043854
vn 0.924478 -0.316913 0.213415
vn 0.968472 -0.241358 -0.063939
vn 0.911089 -0.258573 -0.321208
vn 0.053204 0.238751 -0.969643
vn -0.373347 0.502715 -0.779321
vn -0.913709 0.277963 -0.296342
vn -0.913709 0.277963 -0.296342
vn 0.051292 0.908226 -0.414935
vn 0.096242 0.910139 -0.402502
vn -0.234670 0.211972 -0.948602
vn -0.486201 0.759029 -0.433106
vn 0.135454 0.818325 -0.558394
vn 0.956039 -0.288221 -0.043854
vn -0.080691 -0.682255 -0.726719
vn 0.377421 0.924485 0.055610
vn 0.648081 0.744683 0.160814
vn -0.931880 0.175629 0.318618
vn -0.535934 0.264574 0.801597
vn -0.399169 0.878578 0.262191
vn -0.486201 0.759029 -0.433106
vn -0.913709 0.277963 -0.296342
vn 0.051292 0.908226 -0.414935
vn 0.421416 0.667215 0.615100
vn -0.399169 0.878578 0.262191
vn 0.472104 0.864232 0.173247
vn 0.292303 0.112507 0.949838
vn 0.789627 0.456809 0.410432
vn 0.648081 0.744683 0.160814
vn 0.472104 0.864232 0.173247
vn 0.253090 -0.964391 -0.072546
vn 0.679642 -0.028083 -0.732457
vn 0.017818 -0.997865 -0.062982
vn 0.679642 -0.028083 -0.732457
vn 0.794409 -0.112245 0.596929
vn 0.706421 0.702602 -0.084023
vn 0.220573 -0.408727 0.885759
vn 0.794409 -0.112245 0.596929
vn -0.229888 -0.316913 -0.919910
vn 0.269349 0.353518 -0.896000
vn 0.640430 0.265530 -0.720981
vn 0.768586 0.232056 0.596929
vn 0.706421 0.702602 -0.084023
vn -0.239452 -0.375253 -0.895044
vn 0.017818 -0.997865 -0.062982
vn 0.220573 -0.408727 0.885759
vn 0.644255 -0.336041 0.686830
vn 0.640430 0.265530 -0.720981
vn 0.675816 0.737032 0.007791
vn 0.768586 0.232056 0.596929
vn 0.289433 0.188062 -0.938082
vn 0.147887 -0.949089 -0.277214
vn 0.497927 -0.424986 0.755690
vn 0.551485 0.474024 0.685873
vn 0.802060 0.553404 0.224892
vn 0.551485 0.474024 0.685873
vn -0.057737 -0.936656 0.344441
vn 0.644255 -0.336041 0.686830
vn 0.553398 0.802066 0.225848
vn 0.689206 -0.708078 -0.152883
vn 0.185187 -0.921353 0.342528
vn -0.364739 -0.863970 -0.347987
vn 0.206227 -0.386730 -0.898870
vn 0.842228 0.461591 -0.279127
vn 0.650950 0.759029 -0.009424
vn 0.807798 0.064688 0.586408
vn 0.901525 -0.200233 0.384609
vn 0.594523 -0.666953 0.448688
vn 0.910132 -0.405858 -0.080197
vn 0.912045 -0.162934 0.376002
vn 0.779106 0.469242 0.416170
vn 0.966559 0.233969 0.107256
vn 0.966559 0.233969 0.107256
vn 0.910132 -0.405858 -0.080197
f 82/82/82 83/83/83 84/84/84
f 64/64/64 65/65/65 63/63/63
f 66/66/66 64/64/64 63/63/63
f 61/61/61 62/62/62 63/63/63
f 63/63/63 50/50/50 61/61/61
f 61/61/61 37/37/37 62/62/62
f 37/37/37 35/35/35 62/62/62
f 61/61/61 50/50/50 36/36/36
f 36/36/36 37/37/37 61/61/61
f 15/15/15 36/36/36 50/50/50
f 8/8/8 36/36/36 15/15/15
f 36/36/36 8/8/8 30/30/30
f 30/30/30 37/37/37 36/36/36
f 8/8/8 9/9/9 30/30/30
f 35/35/35 37/37/37 33/33/33
f 37/37/37 30/30/30 33/33/33
f 31/31/31 30/30/30 9/9/9
f 30/30/30 32/32/32 33/33/33
f 30/30/30 31/31/31 32/32/32
f 34/34/34 35/35/35 33/33/33
f 34/34/34 33/33/33 32/32/32
f 35/35/35 34/34/34 38/38/38
f 35/35/35 38/38/38 39/39/39
f 39/39/39 38/38/38 43/43/43
f 38/38/38 34/34/34 96/96/96
f 95/95/95 34/34/34 32/32/32
f 34/34/34 95/95/95 96/96/96
f 31/31/31 95/95/95 32/32/32
f 98/98/98 38/38/38 96/96/96
f 38/38/38 98/98/98 43/43/43
f 95/95/95 98/98/98 96/96/96
f 42/42/42 43/43/43 98/98/98
f 31/31/31 94/94/94 95/95/95
f 94/94/94 98/98/98 95/95/95
f 94/94/94 42/42/42 98/98/98
f 40/40/40 94/94/94 31/31/31
f 42/42/42 94/94/94 40/40/40
f 57/57/57 28/28/28 47/47/47
f 57/57/57 47/47/47 103/103/103
f 57/57/57 103/103/103 117/117/117
f 58/58/58 47/47/47 48/48/48
f 47/47/47 58/58/58 103/103/103
f 117/117/117 103/103/103 110/110/110
f 110/110/110 115/115/115 117/117/117
f 110/110/110 103/103/103 104/104/104
f 58/58/58 104/104/104 103/103/103
f 110/110/110 114/114/114 115/115/115
f 114/114/114 60/60/60 115/115/115
f 110/110/110 104/104/104 109/109/109
f 110/110/110 109/109/109 114/114/114
f 104/104/104 58/58/58 105/105/105
f 104/104/104 105/105/105 111/111/111
f 109/109/109 104/104/104 111/111/111
f 58/58/58 106/106/106 105/105/105
f 111/111/111 105/105/105 106/106/106
f 54/54/54 106/106/106 58/58/58
f 58/58/58 48/48/48 54/54/54
f 106/106/106 107/107/107 111/111/111
f 111/111/111 107/107/107 109/109/109
f 106/106/106 54/54/54 107/107/107
f 107/107/107 108/108/108 109/109/109
f 49/49/49 54/54/54 48/48/48
f 49/49/49 48/48/48 14/14/14
f 54/54/54 56/56/56 107/107/107
f 56/56/56 108/108/108 107/107/107
f 54/54/54 49/49/49 56/56/56
f 49/49/49 14/14/14 51/51/51
f 49/49/49 51/51/51 55/55/55
f 108/108/108 59/59/59 109/109/109
f 108/108/108 56/56/56 59/59/59
f 109/109/109 59/59/59 114/114/114
f 60/60/60 114/114/114 59/59/59
f 55/55/55 52/52/52 49/49/49
f 52/52/52 69/69/69 60/60/60
f 68/68/68 69/69/69 52/52/52
f 53/53/53 60/60/60 59/59/59
f 60/60/60 53/53/53 52/52/52
f 52/52/52 53/53/53 49/49/49
f 53/53/53 59/59/59 56/56/56
f 49/49/49 53/53/53 56/56/56
f 1/1/1 2/2/2 3/3/3
f 1/1/1 3/3/3 11/11/11
f 10/10/10 11/11/11 3/3/3
f 10/10/10 3/3/3 21/21/21
f 14/14/14 1/1/1 11/11/11
f 13/13/13 2/2/2 1/1/1
f 21/21/21 2/2/2 74/74/74
f 13/13/13 74/74/74 2/2/2
f 89/89/89 21/21/21 74/74/74
f 85/85/85 89/89/89 74/74/74
f 74/74/74 13/13/13 91/91/91
f 74/74/74 91/91/91 85/85/85
f 1/1/1 12/12/12 13/13/13
f 85/85/85 91/91/91 92/92/92
f 14/14/14 48/48/48 1/1/1
f 48/48/48 12/12/12 1/1/1
f 19/19/19 85/85/85 92/92/92
f 10/10/10 85/85/85 19/19/19
f 27/27/27 92/92/92 91/91/91
f 27/27/27 91/91/91 12/12/12
f 92/92/92 27/27/27 19/19/19
f 19/19/19 20/20/20 10/10/10
f 19/19/19 27/27/27 20/20/20
f 10/10/10 20/20/20 28/28/28
f 12/12/12 26/26/26 27/27/27
f 26/26/26 20/20/20 27/27/27
f 26/26/26 12/12/12 48/48/48
f 28/28/28 20/20/20 47/47/47
f 26/26/26 47/47/47 20/20/20
f 26/26/26 48/48/48 47/47/47
f 4/4/4 5/5/5 6/6/6
f 4/4/4 6/6/6 75/75/75
f 7/7/7 5/5/5 4/4/4
f 4/4/4 76/76/76 7/7/7
f 8/8/8 5/5/5 7/7/7
f 5/5/5 8/8/8 15/15/15
f 76/76/76 9/9/9 7/7/7
f 9/9/9 8/8/8 7/7/7
f 76/76/76 75/75/75 90/90/90
f 9/9/9 76/76/76 90/90/90
f 86/86/86 90/90/90 75/75/75
f 86/86/86 97/97/97 90/90/90
f 90/90/90 31/31/31 9/9/9
f 22/22/22 86/86/86 6/6/6
f 24/24/24 86/86/86 22/22/22
f 25/25/25 22/22/22 6/6/6
f 29/29/29 97/97/97 24/24/24
f 31/31/31 97/97/97 29/29/29
f 22/22/22 23/23/23 24/24/24
f 25/25/25 23/23/23 22/22/22
f 23/23/23 29/29/29 24/24/24
f 23/23/23 25/25/25 41/41/41
f 23/23/23 40/40/40 29/29/29
f 40/40/40 23/23/23 41/41/41
f 29/29/29 40/40/40 31/31/31
f 25/25/25 44/44/44 41/41/41
f 44/44/44 46/46/46 41/41/41
f 44/44/44 112/112/112 46/46/46
f 45/45/45 41/41/41 46/46/46
f 112/112/112 45/45/45 46/46/46
f 40/40/40 41/41/41 42/42/42
f 113/113/113 45/45/45 112/112/112
f 113/113/113 112/112/112 116/116/116
f 41/41/41 45/45/45 43/43/43
f 41/41/41 43/43/43 42/42/42
f 45/45/45 113/113/113 39/39/39
f 45/45/45 39/39/39 43/43/43
f 113/113/113 116/116/116 71/71/71
f 116/116/116 72/72/72 71/71/71
f 39/39/39 113/113/113 70/70/70
f 70/70/70 113/113/113 71/71/71
f 67/67/67 71/71/71 72/72/72
f 70/70/70 71/71/71 67/67/67
f 67/67/67 72/72/72 73/73/73
f 63/63/63 67/67/67 73/73/73
f 67/67/67 62/62/62 70/70/70
f 63/63/63 62/62/62 67/67/67
f 39/39/39 70/70/70 35/35/35
f 62/62/62 35/35/35 70/70/70
f 77/77/77 78/78/78 79/79/79
f 87/87/87 77/77/77 88/88/88
f 79/79/79 102/102/102 99/99/99
f 99/99/99 100/100/100 101/101/101
f 16/16/16 17/17/17 18/18/18
f 16/16/16 80/80/80 81/81/81
f 81/81/81 80/80/80 93/93/93
