# Generated from Roblox mesh JSON (v7.00)
# Hello from RBX_Toolbox ;)
o RightUpperArm_inner_cage
v -0.078309 1.388255 0.146003
v 0.263559 1.235740 0.513772
v 0.377212 1.314285 0.136597
v -0.202896 1.328537 0.520709
v -0.204082 1.269501 -0.558442
v -0.078309 1.388255 0.146003
v 0.250841 1.161434 -0.657079
v 0.377212 1.314285 0.136597
v 0.377212 1.314285 0.136597
v 0.645300 0.955914 0.554649
v 0.756391 1.055918 0.089272
v 0.263559 1.235740 0.513772
v 0.377212 1.314285 0.136597
v 0.608268 0.847306 -0.709844
v 0.250841 1.161434 -0.657079
v 0.756391 1.055918 0.089272
v -0.015404 0.861538 0.922365
v -0.202896 1.328537 0.520709
v -0.461967 1.065133 0.893425
v 0.263559 1.235740 0.513772
v -0.015404 0.861538 0.922365
v 0.645300 0.955914 0.554649
v 0.263559 1.235740 0.513772
v 0.342003 0.519624 0.941816
v -0.060145 0.644698 -0.896711
v -0.204082 1.269501 -0.558442
v 0.250841 1.161434 -0.657079
v -0.432858 0.836633 -0.820101
v -0.055604 -1.292726 0.859699
v -0.647931 -1.190932 0.739224
v -0.609342 -1.388255 0.679416
v -0.043464 -1.048658 1.013058
v -0.060145 0.644698 -0.896711
v 0.608268 0.847306 -0.709844
v 0.232324 0.351146 -0.949621
v 0.250841 1.161434 -0.657079
v 0.645300 0.955914 0.554649
v 0.928011 0.629102 0.031154
v 0.756391 1.055918 0.089272
v 0.813428 0.514911 0.511663
v 0.608268 0.847306 -0.709844
v 0.928011 0.629102 0.031154
v 0.739463 0.396955 -0.625118
v 0.756391 1.055918 0.089272
v -0.607685 0.267338 -0.918513
v -0.060145 0.644698 -0.896711
v -0.445768 0.014651 -1.013058
v -0.432858 0.836633 -0.820101
v -0.782988 -0.279548 -0.741098
v -0.445768 0.014651 -1.013058
v -0.716585 -0.458182 -0.722159
v -0.607685 0.267338 -0.918513
v -0.043464 -1.048658 1.013058
v -0.670659 -0.996873 0.815828
v -0.647931 -1.190932 0.739224
v -0.051781 -0.753732 1.013038
v -0.051781 -0.753732 1.013038
v -0.708508 -0.805483 0.893107
v -0.670659 -0.996873 0.815828
v -0.088284 -0.466578 1.000153
v -0.463917 0.172028 0.995190
v -0.461967 1.065133 0.893425
v -0.786585 0.370136 0.972600
v -0.015404 0.861538 0.922365
v -0.445768 0.014651 -1.013058
v 0.232324 0.351146 -0.949621
v -0.368551 -0.269295 -0.935262
v -0.060145 0.644698 -0.896711
v -0.928011 -0.146214 0.842553
v -0.463917 0.172028 0.995190
v -0.786585 0.370136 0.972600
v -0.784720 -0.327450 0.891837
v -0.784720 -0.327450 0.891837
v -0.236444 -0.118191 1.004252
v -0.463917 0.172028 0.995190
v -0.743658 -0.566351 0.902613
v 0.417030 -1.109553 0.696362
v -0.043464 -1.048658 1.013058
v -0.055604 -1.292726 0.859699
v 0.402482 -0.721462 0.742569
v -0.716585 -0.458182 -0.722159
v -0.368551 -0.269295 -0.935262
v -0.709301 -0.721796 -0.632494
v -0.445768 0.014651 -1.013058
v -0.088284 -0.466578 1.000153
v -0.743658 -0.566351 0.902613
v -0.708508 -0.805483 0.893107
v -0.236444 -0.118191 1.004252
v -0.015404 0.861538 0.922365
v -0.463917 0.172028 0.995190
v 0.342003 0.519624 0.941816
v -0.236444 -0.118191 1.004252
v -0.678067 -1.019204 -0.509129
v -0.232892 -0.944472 -0.663597
v -0.661323 -1.130913 -0.465716
v -0.266233 -0.744529 -0.758914
v -0.709301 -0.721796 -0.632494
v -0.306192 -0.544112 -0.832516
v -0.691111 -0.912304 -0.556090
v -0.368551 -0.269295 -0.935262
v -0.691111 -0.912304 -0.556090
v -0.266233 -0.744529 -0.758914
v -0.678067 -1.019204 -0.509129
v -0.306192 -0.544112 -0.832516
v 0.813428 0.514911 0.511663
v 0.645300 0.955914 0.554649
v 0.342003 0.519624 0.941816
v 0.383945 0.038715 0.857352
v 0.739463 0.396955 -0.625118
v 0.917102 0.131341 -0.060591
v 0.723795 -0.059234 -0.546117
v 0.928011 0.629102 0.031154
v 0.813428 0.514911 0.511663
v 0.917102 0.131341 -0.060591
v 0.928011 0.629102 0.031154
v 0.816347 0.037055 0.430253
v 0.232324 0.351146 -0.949621
v 0.739463 0.396955 -0.625118
v 0.291798 -0.056948 -0.816956
v 0.608268 0.847306 -0.709844
v 0.342003 0.519624 0.941816
v -0.236444 -0.118191 1.004252
v 0.383945 0.038715 0.857352
v -0.088284 -0.466578 1.000153
v 0.723795 -0.059234 -0.546117
v 0.822864 -0.365289 -0.100467
v 0.651324 -0.515953 -0.522550
v 0.917102 0.131341 -0.060591
v -0.745594 -1.224927 0.074675
v -0.609342 -1.388255 0.679416
v -0.647931 -1.190932 0.739224
v -0.727657 -1.333711 0.082269
v -0.716585 -0.458182 -0.722159
v -0.866522 -0.880440 0.033306
v -0.782988 -0.279548 -0.741098
v -0.766251 -0.886417 0.054805
v -0.636689 -1.243706 -0.425009
v -0.745594 -1.224927 0.074675
v -0.661323 -1.130913 -0.465716
v -0.727657 -1.333711 0.082269
v -0.766251 -0.886417 0.054805
v -0.928011 -0.146214 0.842553
v -0.866522 -0.880440 0.033306
v -0.784720 -0.327450 0.891837
v 0.585098 -0.972676 -0.562159
v 0.651324 -0.515953 -0.522550
v 0.725136 -0.861103 -0.145103
v 0.822864 -0.365289 -0.100467
v 0.725136 -0.861103 -0.145103
v 0.776749 -0.437208 0.337840
v 0.685570 -0.911964 0.294499
v 0.822864 -0.365289 -0.100467
v 0.822864 -0.365289 -0.100467
v 0.816347 0.037055 0.430253
v 0.776749 -0.437208 0.337840
v 0.917102 0.131341 -0.060591
v 0.291798 -0.056948 -0.816956
v 0.723795 -0.059234 -0.546117
v 0.284662 -0.405500 -0.723028
v 0.739463 0.396955 -0.625118
v 0.402482 -0.721462 0.742569
v 0.685570 -0.911964 0.294499
v 0.776749 -0.437208 0.337840
v 0.417030 -1.109553 0.696362
v -0.266233 -0.744529 -0.758914
v 0.284662 -0.405500 -0.723028
v 0.257726 -0.761030 -0.643191
v -0.232892 -0.944472 -0.663597
v 0.284662 -0.405500 -0.723028
v 0.651324 -0.515953 -0.522550
v 0.257726 -0.761030 -0.643191
v 0.723795 -0.059234 -0.546117
v 0.383945 0.038715 0.857352
v -0.088284 -0.466578 1.000153
v 0.384745 -0.333915 0.717472
v -0.051781 -0.753732 1.013038
v -0.306192 -0.544112 -0.832516
v 0.284662 -0.405500 -0.723028
v -0.266233 -0.744529 -0.758914
v 0.291798 -0.056948 -0.816956
v -0.661323 -1.130913 -0.465716
v -0.232892 -0.944472 -0.663597
v -0.218965 -1.157430 -0.666424
v -0.636689 -1.243706 -0.425009
v -0.368551 -0.269295 -0.935262
v 0.291798 -0.056948 -0.816956
v -0.306192 -0.544112 -0.832516
v 0.232324 0.351146 -0.949621
v 0.776749 -0.437208 0.337840
v 0.816347 0.037055 0.430253
v 0.384745 -0.333915 0.717472
v 0.402482 -0.721462 0.742569
v -0.784720 -0.327450 0.891837
v -0.766251 -0.886417 0.054805
v -0.743658 -0.566351 0.902613
v -0.750075 -0.935992 0.078106
v 0.816347 0.037055 0.430253
v 0.813428 0.514911 0.511663
v 0.383945 0.038715 0.857352
v 0.384745 -0.333915 0.717472
v 0.384745 -0.333915 0.717472
v -0.051781 -0.753732 1.013038
v 0.402482 -0.721462 0.742569
v -0.043464 -1.048658 1.013058
v -0.745594 -1.224927 0.074675
v -0.647931 -1.190932 0.739224
v -0.750439 -1.114437 0.073848
v -0.670659 -0.996873 0.815828
v -0.743658 -0.566351 0.902613
v -0.750075 -0.935992 0.078106
v -0.708508 -0.805483 0.893107
v -0.735573 -1.005429 0.085102
v -0.661323 -1.130913 -0.465716
v -0.750439 -1.114437 0.073848
v -0.678067 -1.019204 -0.509129
v -0.745594 -1.224927 0.074675
v -0.750075 -0.935992 0.078106
v -0.709301 -0.721796 -0.632494
v -0.691111 -0.912304 -0.556090
v -0.735573 -1.005429 0.085102
v -0.709301 -0.721796 -0.632494
v -0.766251 -0.886417 0.054805
v -0.716585 -0.458182 -0.722159
v -0.750075 -0.935992 0.078106
v -0.670659 -0.996873 0.815828
v -0.735573 -1.005429 0.085102
v -0.750439 -1.114437 0.073848
v -0.708508 -0.805483 0.893107
v -0.678067 -1.019204 -0.509129
v -0.735573 -1.005429 0.085102
v -0.691111 -0.912304 -0.556090
v -0.750439 -1.114437 0.073848
v 0.257726 -0.761030 -0.643191
v 0.651324 -0.515953 -0.522550
v 0.585098 -0.972676 -0.562159
v 0.214866 -1.096532 -0.770067
v -0.232892 -0.944472 -0.663597
v 0.257726 -0.761030 -0.643191
v 0.214866 -1.096532 -0.770067
v -0.218965 -1.157430 -0.666424
vt 2.750740 3.462179
vt 2.682487 3.511224
vt 2.682487 3.462179
vt 2.750740 3.511224
vt 2.750740 3.401921
vt 2.750740 3.462179
vt 2.682487 3.414271
vt 2.682487 3.462179
vt 2.682487 3.462179
vt 2.616898 3.511224
vt 2.616898 3.462179
vt 2.682487 3.511224
vt 2.682487 3.462179
vt 2.616898 3.414270
vt 2.682487 3.414271
vt 2.616898 3.462179
vt 2.682487 3.579725
vt 2.750740 3.511224
vt 2.750740 3.579725
vt 2.682487 3.511224
vt 2.682487 3.579725
vt 2.616898 3.511224
vt 2.682487 3.511224
vt 2.616898 3.579725
vt 2.682487 3.344108
vt 2.750740 3.401921
vt 2.682487 3.414271
vt 2.750740 3.343375
vt 2.249260 3.651093
vt 2.325032 3.682632
vt 2.249260 3.682632
vt 2.325031 3.651093
vt 2.682487 3.344108
vt 2.616898 3.414270
vt 2.616898 3.344108
vt 2.682487 3.414271
vt 2.616898 3.511224
vt 2.535539 3.462179
vt 2.616898 3.462179
vt 2.535539 3.511224
vt 2.616898 3.414270
vt 2.535539 3.462179
vt 2.535539 3.414271
vt 2.616898 3.462179
vt 2.750740 3.273265
vt 2.682487 3.344108
vt 2.682487 3.273265
vt 2.750740 3.343375
vt 2.750740 3.241301
vt 2.682487 3.273265
vt 2.682487 3.241285
vt 2.750740 3.273265
vt 2.325031 3.651093
vt 2.426604 3.682632
vt 2.325032 3.682632
vt 2.426604 3.651094
vt 2.426604 3.651094
vt 2.535539 3.682632
vt 2.426604 3.682632
vt 2.535539 3.651093
vt 2.682487 3.651093
vt 2.750740 3.579725
vt 2.750740 3.651093
vt 2.682487 3.579725
vt 2.682487 3.273265
vt 2.616898 3.344108
vt 2.616898 3.273265
vt 2.682487 3.344108
vt 2.750740 3.682803
vt 2.682487 3.651093
vt 2.750740 3.651093
vt 2.682487 3.682776
vt 2.682487 3.682776
vt 2.616898 3.651093
vt 2.682487 3.651093
vt 2.616898 3.682749
vt 2.249260 3.579725
vt 2.325031 3.651093
vt 2.249260 3.651093
vt 2.325032 3.579725
vt 2.682487 3.241285
vt 2.616898 3.273265
vt 2.616898 3.241270
vt 2.682487 3.273265
vt 2.535539 3.651093
vt 2.616898 3.682749
vt 2.535539 3.682632
vt 2.616898 3.651093
vt 2.682487 3.579725
vt 2.682487 3.651093
vt 2.616898 3.579725
vt 2.616898 3.651093
vt 2.426604 3.241194
vt 2.325032 3.273265
vt 2.325032 3.241194
vt 2.426604 3.273265
vt 2.616898 3.241270
vt 2.535539 3.273264
vt 2.535539 3.241194
vt 2.616898 3.273265
vt 2.535539 3.241194
vt 2.426604 3.273265
vt 2.426604 3.241194
vt 2.535539 3.273264
vt 2.535539 3.511224
vt 2.616898 3.511224
vt 2.616898 3.579725
vt 2.535539 3.579725
vt 2.535539 3.414271
vt 2.426604 3.462179
vt 2.426604 3.414270
vt 2.535539 3.462179
vt 2.535539 3.511224
vt 2.426604 3.462179
vt 2.535539 3.462179
vt 2.426604 3.511224
vt 2.616898 3.344108
vt 2.535539 3.414271
vt 2.535539 3.344108
vt 2.616898 3.414270
vt 2.616898 3.579725
vt 2.616898 3.651093
vt 2.535539 3.579725
vt 2.535539 3.651093
vt 2.426604 3.414270
vt 2.325032 3.462179
vt 2.325032 3.414270
vt 2.426604 3.462179
vt 2.325031 3.714510
vt 2.249260 3.682632
vt 2.325032 3.682632
vt 2.249260 3.714510
vt 2.682487 3.241285
vt 2.750740 3.209337
vt 2.750740 3.241301
vt 2.682487 3.209337
vt 2.249260 3.241194
vt 2.325032 3.209337
vt 2.325032 3.241194
vt 2.249260 3.209337
vt 2.682487 3.714511
vt 2.750740 3.682803
vt 2.750740 3.714511
vt 2.682487 3.682776
vt 2.249260 3.414270
vt 2.325032 3.414270
vt 2.249260 3.462179
vt 2.325032 3.462179
vt 2.249260 3.462179
vt 2.325032 3.511224
vt 2.249260 3.511224
vt 2.325032 3.462179
vt 2.325032 3.462179
vt 2.426604 3.511224
vt 2.325032 3.511224
vt 2.426604 3.462179
vt 2.535539 3.344108
vt 2.426604 3.414270
vt 2.426604 3.344108
vt 2.535539 3.414271
vt 2.325032 3.579725
vt 2.249260 3.511224
vt 2.325032 3.511224
vt 2.249260 3.579725
vt 2.426604 3.273265
vt 2.426604 3.344108
vt 2.325031 3.344108
vt 2.325032 3.273265
vt 2.426604 3.344108
vt 2.325032 3.414270
vt 2.325031 3.344108
vt 2.426604 3.414270
vt 2.535539 3.579725
vt 2.535539 3.651093
vt 2.426604 3.579725
vt 2.426604 3.651094
vt 2.535539 3.273264
vt 2.426604 3.344108
vt 2.426604 3.273265
vt 2.535539 3.344108
vt 2.325032 3.241194
vt 2.325032 3.273265
vt 2.249260 3.273265
vt 2.249260 3.241194
vt 2.616898 3.273265
vt 2.535539 3.344108
vt 2.535539 3.273264
vt 2.616898 3.344108
vt 2.325032 3.511224
vt 2.426604 3.511224
vt 2.426604 3.579725
vt 2.325032 3.579725
vt 2.682487 3.682776
vt 2.682487 3.714511
vt 2.616898 3.682749
vt 2.616898 3.714510
vt 2.426604 3.511224
vt 2.535539 3.511224
vt 2.535539 3.579725
vt 2.426604 3.579725
vt 2.426604 3.579725
vt 2.426604 3.651094
vt 2.325032 3.579725
vt 2.325031 3.651093
vt 2.325031 3.714510
vt 2.325032 3.682632
vt 2.426604 3.714510
vt 2.426604 3.682632
vt 2.616898 3.682749
vt 2.616898 3.714510
vt 2.535539 3.682632
vt 2.535539 3.714510
vt 2.325032 3.241194
vt 2.426604 3.209337
vt 2.426604 3.241194
vt 2.325032 3.209337
vt 2.616898 3.209337
vt 2.616898 3.241270
vt 2.535539 3.241194
vt 2.535539 3.209337
vt 2.616898 3.241270
vt 2.682487 3.209337
vt 2.682487 3.241285
vt 2.616898 3.209337
vt 2.426604 3.682632
vt 2.535539 3.714510
vt 2.426604 3.714510
vt 2.535539 3.682632
vt 2.426604 3.241194
vt 2.535539 3.209337
vt 2.535539 3.241194
vt 2.426604 3.209337
vt 2.325031 3.344108
vt 2.325032 3.414270
vt 2.249260 3.414270
vt 2.249260 3.344108
vt 2.325032 3.273265
vt 2.325031 3.344108
vt 2.249260 3.344108
vt 2.249260 3.273265
vn 0.177229 0.956508 0.232389
vn 0.177229 0.956508 0.232389
vn 0.177229 0.956508 0.232389
vn 0.177229 0.956508 0.232389
vn 0.168468 0.964296 -0.203728
vn 0.168468 0.964296 -0.203728
vn 0.168468 0.964296 -0.203728
vn 0.168468 0.964296 -0.203728
vn 0.551044 0.774468 0.311241
vn 0.551044 0.774468 0.311241
vn 0.551044 0.774468 0.311241
vn 0.551044 0.774468 0.311241
vn 0.566620 0.777388 -0.273818
vn 0.566620 0.777388 -0.273818
vn 0.566620 0.777388 -0.273818
vn 0.566620 0.777388 -0.273818
vn 0.205460 0.683935 0.699658
vn 0.205460 0.683935 0.699658
vn 0.205460 0.683935 0.699658
vn 0.205460 0.683935 0.699658
vn 0.363163 0.506762 0.781430
vn 0.363163 0.506762 0.781430
vn 0.363163 0.506762 0.781430
vn 0.363163 0.506762 0.781430
vn -0.014545 0.473664 -0.880293
vn -0.014545 0.473664 -0.880293
vn -0.014545 0.473664 -0.880293
vn -0.014545 0.473664 -0.880293
vn -0.250126 -0.433615 0.866122
vn -0.245259 -0.435562 0.866122
vn -0.250126 -0.433615 0.866122
vn -0.253047 -0.437509 0.862228
vn 0.159707 0.332510 -0.929941
vn 0.159707 0.332510 -0.929941
vn 0.159707 0.332510 -0.929941
vn 0.159707 0.332510 -0.929941
vn 0.902469 0.319855 0.287878
vn 0.902469 0.319855 0.287878
vn 0.902469 0.319855 0.287878
vn 0.902469 0.319855 0.287878
vn 0.904416 0.303306 -0.301075
vn 0.904416 0.303306 -0.301075
vn 0.904416 0.303306 -0.301075
vn 0.904416 0.303306 -0.301075
vn -0.118707 0.228348 -0.965959
vn -0.118707 0.228348 -0.965959
vn -0.118707 0.228348 -0.965959
vn -0.118707 0.228348 -0.965959
vn -0.543143 -0.142546 -0.827726
vn -0.543143 -0.142546 -0.827726
vn -0.543143 -0.142546 -0.827726
vn -0.543143 -0.142546 -0.827726
vn -0.314376 -0.163963 0.935239
vn -0.305615 -0.168830 0.937186
vn -0.305615 -0.161042 0.938159
vn -0.309508 -0.168830 0.936212
vn -0.168354 -0.155201 0.973204
vn -0.165434 -0.157148 0.973204
vn -0.163487 -0.154228 0.974178
vn -0.165434 -0.157148 0.973204
vn -0.007731 0.113478 0.993647
vn -0.007731 0.113478 0.993647
vn -0.007731 0.113478 0.993647
vn -0.007731 0.113478 0.993647
vn 0.086696 0.012237 -0.996137
vn 0.086696 0.012237 -0.996137
vn 0.086696 0.012237 -0.996137
vn 0.086696 0.012237 -0.996137
vn -0.240392 -0.112368 0.964443
vn -0.240392 -0.112368 0.964443
vn -0.240392 -0.112368 0.964443
vn -0.240392 -0.112368 0.964443
vn -0.180036 -0.054933 0.981966
vn -0.180036 -0.054933 0.981966
vn -0.180036 -0.054933 0.981966
vn -0.180036 -0.054933 0.981966
vn 0.524760 -0.254496 0.812581
vn 0.530601 -0.255469 0.807714
vn 0.524760 -0.254496 0.812581
vn 0.522813 -0.260337 0.811608
vn -0.360129 -0.323613 -0.875426
vn -0.360129 -0.323613 -0.875426
vn -0.360129 -0.323613 -0.875426
vn -0.360129 -0.323613 -0.875426
vn -0.137203 -0.065642 0.988780
vn -0.137203 -0.065642 0.988780
vn -0.137203 -0.065642 0.988780
vn -0.137203 -0.065642 0.988780
vn 0.033155 0.075512 0.996568
vn 0.033155 0.075512 0.996568
vn 0.033155 0.075512 0.996568
vn 0.033155 0.075512 0.996568
vn -0.231630 -0.426801 -0.874452
vn -0.231630 -0.426801 -0.874452
vn -0.231630 -0.426801 -0.874452
vn -0.231630 -0.426801 -0.874452
vn -0.267649 -0.385915 -0.882240
vn -0.267649 -0.385915 -0.882240
vn -0.267649 -0.385915 -0.882240
vn -0.267649 -0.385915 -0.882240
vn -0.265702 -0.391756 -0.881267
vn -0.265702 -0.391756 -0.881267
vn -0.265702 -0.391756 -0.881267
vn -0.265702 -0.391756 -0.881267
vn 0.673702 0.051176 0.737623
vn 0.673702 0.051176 0.737623
vn 0.673702 0.051176 0.737623
vn 0.673702 0.051176 0.737623
vn 0.950169 -0.022809 -0.309837
vn 0.950169 -0.022809 -0.309837
vn 0.950169 -0.022809 -0.309837
vn 0.950169 -0.022809 -0.309837
vn 0.977427 -0.045199 0.207079
vn 0.977427 -0.045199 0.207079
vn 0.977427 -0.045199 0.207079
vn 0.977427 -0.045199 0.207079
vn 0.542283 -0.090952 -0.835513
vn 0.542283 -0.090952 -0.835513
vn 0.542283 -0.090952 -0.835513
vn 0.542283 -0.090952 -0.835513
vn 0.241479 -0.048119 0.969311
vn 0.241479 -0.048119 0.969311
vn 0.241479 -0.048119 0.969311
vn 0.241479 -0.048119 0.969311
vn 0.935567 -0.158122 -0.316651
vn 0.935567 -0.158122 -0.316651
vn 0.935567 -0.158122 -0.316651
vn 0.935567 -0.158122 -0.316651
vn -0.964658 -0.205822 0.162299
vn -0.964658 -0.205822 0.162299
vn -0.964658 -0.205822 0.162299
vn -0.964658 -0.205822 0.162299
vn -0.596684 -0.643886 -0.478248
vn -0.596684 -0.643886 -0.478248
vn -0.596684 -0.643886 -0.478248
vn -0.596684 -0.643886 -0.478248
vn -0.952976 -0.226265 -0.198860
vn -0.952976 -0.226265 -0.198860
vn -0.952976 -0.226265 -0.198860
vn -0.952976 -0.226265 -0.198860
vn -0.620047 -0.631231 0.466024
vn -0.620047 -0.631231 0.466024
vn -0.620047 -0.631231 0.466024
vn -0.620047 -0.631231 0.466024
vn 0.942381 -0.134758 -0.307890
vn 0.942381 -0.134758 -0.307890
vn 0.942381 -0.134758 -0.307890
vn 0.942381 -0.134758 -0.307890
vn 0.978400 -0.196087 0.067872
vn 0.978400 -0.196087 0.067872
vn 0.978400 -0.196087 0.067872
vn 0.978400 -0.196087 0.067872
vn 0.980347 -0.152281 0.127254
vn 0.980347 -0.152281 0.127254
vn 0.980347 -0.152281 0.127254
vn 0.980347 -0.152281 0.127254
vn 0.520866 -0.193167 -0.831620
vn 0.520866 -0.193167 -0.831620
vn 0.520866 -0.193167 -0.831620
vn 0.520866 -0.193167 -0.831620
vn 0.811936 -0.130864 0.569212
vn 0.811936 -0.130864 0.569212
vn 0.811936 -0.130864 0.569212
vn 0.811936 -0.130864 0.569212
vn 0.197672 -0.292461 -0.935781
vn 0.197672 -0.292461 -0.935781
vn 0.197672 -0.292461 -0.935781
vn 0.197672 -0.292461 -0.935781
vn 0.434227 -0.165910 -0.885161
vn 0.434227 -0.165910 -0.885161
vn 0.434227 -0.165910 -0.885161
vn 0.434227 -0.165910 -0.885161
vn 0.535469 -0.129891 0.834971
vn 0.535469 -0.129891 0.834971
vn 0.535469 -0.129891 0.834971
vn 0.535469 -0.129891 0.834971
vn 0.236611 -0.271045 -0.932861
vn 0.236611 -0.271045 -0.932861
vn 0.236611 -0.271045 -0.932861
vn 0.236611 -0.271045 -0.932861
vn -0.415617 -0.153254 -0.896842
vn -0.415617 -0.153254 -0.896842
vn -0.415617 -0.153254 -0.896842
vn -0.415617 -0.153254 -0.896842
vn 0.254134 -0.273965 -0.927020
vn 0.254134 -0.273965 -0.927020
vn 0.254134 -0.273965 -0.927020
vn 0.254134 -0.273965 -0.927020
vn 0.683437 -0.074403 0.725942
vn 0.683437 -0.074403 0.725942
vn 0.683437 -0.074403 0.725942
vn 0.683437 -0.074403 0.725942
vn -0.978286 -0.182459 0.095129
vn -0.978286 -0.182459 0.095129
vn -0.978286 -0.178565 0.099997
vn -0.977313 -0.187326 0.099997
vn 0.691225 -0.179538 0.700631
vn 0.691225 -0.179538 0.700631
vn 0.691225 -0.179538 0.700631
vn 0.691225 -0.179538 0.700631
vn 0.508211 0.051176 0.859308
vn 0.508211 0.051176 0.859308
vn 0.502370 0.052149 0.863202
vn 0.510158 0.057016 0.858334
vn -0.983154 -0.123077 0.136989
vn -0.983154 -0.123077 0.136989
vn -0.983154 -0.123077 0.136989
vn -0.983154 -0.123077 0.136989
vn -0.985101 -0.154228 0.070792
vn -0.984127 -0.162989 0.069819
vn -0.984127 -0.159095 0.075660
vn -0.984127 -0.159095 0.075660
vn -0.979260 -0.126971 -0.157974
vn -0.979260 -0.126971 -0.157974
vn -0.979260 -0.126971 -0.157974
vn -0.979260 -0.126971 -0.157974
vn -0.984127 -0.154228 -0.092751
vn -0.984127 -0.150334 -0.096645
vn -0.983154 -0.152281 -0.103460
vn -0.982180 -0.160069 -0.100539
vn -0.987048 -0.114315 -0.113194
vn -0.988021 -0.113342 -0.109301
vn -0.988021 -0.113342 -0.109301
vn -0.987048 -0.117236 -0.108327
vn -0.990941 -0.101660 0.089289
vn -0.990941 -0.101660 0.089289
vn -0.990941 -0.101660 0.089289
vn -0.990941 -0.101660 0.089289
vn -0.995809 -0.007233 -0.095672
vn -0.995809 -0.011127 -0.090805
vn -0.995809 -0.002366 -0.091778
vn -0.995809 -0.007233 -0.095672
vn 0.328118 0.150470 -0.932861
vn 0.328118 0.150470 -0.932861
vn 0.328118 0.150470 -0.932861
vn 0.328118 0.150470 -0.932861
vn -0.148885 0.235162 -0.960118
vn -0.148885 0.235162 -0.960118
vn -0.148885 0.235162 -0.960118
vn -0.148885 0.235162 -0.960118
f 1/1/1 2/2/2 3/3/3
f 2/2/2 1/1/1 4/4/4
f 5/5/5 6/6/6 7/7/7
f 6/6/6 8/8/8 7/7/7
f 9/9/9 10/10/10 11/11/11
f 10/10/10 9/9/9 12/12/12
f 13/13/13 14/14/14 15/15/15
f 14/14/14 13/13/13 16/16/16
f 17/17/17 18/18/18 19/19/19
f 18/18/18 17/17/17 20/20/20
f 21/21/21 22/22/22 23/23/23
f 22/22/22 21/21/21 24/24/24
f 25/25/25 26/26/26 27/27/27
f 26/26/26 25/25/25 28/28/28
f 29/29/29 30/30/30 31/31/31
f 30/30/30 29/29/29 32/32/32
f 33/33/33 34/34/34 35/35/35
f 34/34/34 33/33/33 36/36/36
f 37/37/37 38/38/38 39/39/39
f 38/38/38 37/37/37 40/40/40
f 41/41/41 42/42/42 43/43/43
f 42/42/42 41/41/41 44/44/44
f 45/45/45 46/46/46 47/47/47
f 46/46/46 45/45/45 48/48/48
f 49/49/49 50/50/50 51/51/51
f 50/50/50 49/49/49 52/52/52
f 53/53/53 54/54/54 55/55/55
f 54/54/54 53/53/53 56/56/56
f 57/57/57 58/58/58 59/59/59
f 60/60/60 58/58/58 57/57/57
f 61/61/61 62/62/62 63/63/63
f 62/62/62 61/61/61 64/64/64
f 65/65/65 66/66/66 67/67/67
f 66/66/66 65/65/65 68/68/68
f 69/69/69 70/70/70 71/71/71
f 70/70/70 69/69/69 72/72/72
f 73/73/73 74/74/74 75/75/75
f 74/74/74 73/73/73 76/76/76
f 77/77/77 78/78/78 79/79/79
f 78/78/78 77/77/77 80/80/80
f 81/81/81 82/82/82 83/83/83
f 82/82/82 81/81/81 84/84/84
f 85/85/85 86/86/86 87/87/87
f 86/86/86 85/85/85 88/88/88
f 89/89/89 90/90/90 91/91/91
f 90/90/90 92/92/92 91/91/91
f 93/93/93 94/94/94 95/95/95
f 94/94/94 93/93/93 96/96/96
f 97/97/97 98/98/98 99/99/99
f 98/98/98 97/97/97 100/100/100
f 101/101/101 102/102/102 103/103/103
f 102/102/102 101/101/101 104/104/104
f 105/105/105 106/106/106 107/107/107
f 107/107/107 108/108/108 105/105/105
f 109/109/109 110/110/110 111/111/111
f 110/110/110 109/109/109 112/112/112
f 113/113/113 114/114/114 115/115/115
f 114/114/114 113/113/113 116/116/116
f 117/117/117 118/118/118 119/119/119
f 118/118/118 117/117/117 120/120/120
f 121/121/121 122/122/122 123/123/123
f 122/122/122 124/124/124 123/123/123
f 125/125/125 126/126/126 127/127/127
f 126/126/126 125/125/125 128/128/128
f 129/129/129 130/130/130 131/131/131
f 130/130/130 129/129/129 132/132/132
f 133/133/133 134/134/134 135/135/135
f 134/134/134 133/133/133 136/136/136
f 137/137/137 138/138/138 139/139/139
f 138/138/138 137/137/137 140/140/140
f 141/141/141 142/142/142 143/143/143
f 142/142/142 141/141/141 144/144/144
f 145/145/145 146/146/146 147/147/147
f 146/146/146 148/148/148 147/147/147
f 149/149/149 150/150/150 151/151/151
f 150/150/150 149/149/149 152/152/152
f 153/153/153 154/154/154 155/155/155
f 154/154/154 153/153/153 156/156/156
f 157/157/157 158/158/158 159/159/159
f 157/157/157 160/160/160 158/158/158
f 161/161/161 162/162/162 163/163/163
f 162/162/162 161/161/161 164/164/164
f 165/165/165 166/166/166 167/167/167
f 165/165/165 167/167/167 168/168/168
f 169/169/169 170/170/170 171/171/171
f 169/169/169 172/172/172 170/170/170
f 173/173/173 174/174/174 175/175/175
f 174/174/174 176/176/176 175/175/175
f 177/177/177 178/178/178 179/179/179
f 177/177/177 180/180/180 178/178/178
f 181/181/181 182/182/182 183/183/183
f 181/181/181 183/183/183 184/184/184
f 185/185/185 186/186/186 187/187/187
f 185/185/185 188/188/188 186/186/186
f 189/189/189 190/190/190 191/191/191
f 191/191/191 192/192/192 189/189/189
f 193/193/193 194/194/194 195/195/195
f 196/196/196 195/195/195 194/194/194
f 197/197/197 198/198/198 199/199/199
f 199/199/199 200/200/200 197/197/197
f 201/201/201 202/202/202 203/203/203
f 202/202/202 204/204/204 203/203/203
f 205/205/205 206/206/206 207/207/207
f 208/208/208 207/207/207 206/206/206
f 209/209/209 210/210/210 211/211/211
f 212/212/212 211/211/211 210/210/210
f 213/213/213 214/214/214 215/215/215
f 214/214/214 213/213/213 216/216/216
f 217/217/217 218/218/218 219/219/219
f 219/219/219 220/220/220 217/217/217
f 221/221/221 222/222/222 223/223/223
f 222/222/222 221/221/221 224/224/224
f 225/225/225 226/226/226 227/227/227
f 226/226/226 225/225/225 228/228/228
f 229/229/229 230/230/230 231/231/231
f 230/230/230 229/229/229 232/232/232
f 233/233/233 234/234/234 235/235/235
f 235/235/235 236/236/236 233/233/233
f 237/237/237 238/238/238 239/239/239
f 237/237/237 239/239/239 240/240/240
