# Generated from Roblox mesh JSON (v7.00)
# Hello from RBX_Toolbox ;)
o RightHand_inner_cage
v 0.075550 -0.062110 0.534042
v 0.345693 -0.115824 0.400978
v 0.370281 0.010258 0.439494
v 0.109276 0.080562 0.554217
v -0.333337 0.470783 -0.489446
v -0.345758 0.560673 -0.107847
v -0.212195 0.544727 -0.477308
v -0.399172 0.458582 -0.115062
v 0.291117 -0.264951 0.362125
v 0.075550 -0.062110 0.534042
v 0.022017 -0.182809 0.477510
v 0.345693 -0.115824 0.400978
v -0.459840 0.356925 -0.222569
v -0.333337 0.470783 -0.489446
v -0.428815 0.414960 -0.471967
v -0.399172 0.458582 -0.115062
v 0.498261 0.001131 0.202333
v 0.345693 -0.115824 0.400978
v 0.466148 -0.108702 0.130462
v 0.370281 0.010258 0.439494
v 0.404336 -0.265267 0.071938
v 0.466148 -0.108702 0.130462
v 0.291117 -0.264951 0.362125
v 0.345693 -0.115824 0.400978
v -0.065232 -0.281475 0.415966
v 0.182922 -0.388197 0.308123
v 0.022017 -0.182809 0.477510
v 0.291117 -0.264951 0.362125
v -0.179426 0.045834 0.455511
v 0.075550 -0.062110 0.534042
v 0.109276 0.080562 0.554217
v -0.156333 0.187871 0.503573
v 0.404336 -0.265267 0.071938
v 0.182922 -0.388197 0.308123
v 0.286587 -0.415792 0.031445
v 0.291117 -0.264951 0.362125
v 0.067961 -0.492470 0.227651
v -0.065232 -0.281475 0.415966
v -0.166331 -0.354189 0.326079
v 0.182922 -0.388197 0.308123
v 0.499214 0.022133 -0.080062
v 0.466148 -0.108702 0.130462
v 0.437407 -0.116483 -0.153968
v 0.498261 0.001131 0.202333
v 0.286587 -0.415792 0.031445
v 0.182922 -0.388197 0.308123
v 0.067961 -0.492470 0.227651
v 0.167974 -0.512546 0.004914
v -0.166331 -0.354189 0.326079
v -0.308067 -0.560673 0.137569
v 0.067961 -0.492470 0.227651
v -0.313920 -0.407007 0.242444
v 0.355509 -0.246488 -0.229553
v 0.437407 -0.116483 -0.153968
v 0.404336 -0.265267 0.071938
v 0.466148 -0.108702 0.130462
v 0.385342 0.113777 -0.326071
v 0.499214 0.022133 -0.080062
v 0.437407 -0.116483 -0.153968
v 0.334267 0.018214 -0.408277
v -0.465752 0.279139 -0.462149
v -0.459840 0.356925 -0.222569
v -0.428815 0.414960 -0.471967
v -0.499214 0.213422 -0.397329
v 0.334267 0.018214 -0.408277
v 0.437407 -0.116483 -0.153968
v 0.355509 -0.246488 -0.229553
v 0.232656 -0.122578 -0.497545
v 0.286587 -0.415792 0.031445
v 0.355509 -0.246488 -0.229553
v 0.404336 -0.265267 0.071938
v 0.239661 -0.358872 -0.286764
v 0.126032 -0.447756 -0.330574
v -0.080080 -0.332718 -0.544638
v 0.082208 -0.241110 -0.554217
v 0.239661 -0.358872 -0.286764
v 0.067961 -0.492470 0.227651
v -0.313712 -0.557016 -0.038031
v 0.167974 -0.512546 0.004914
v -0.308067 -0.560673 0.137569
v 0.239661 -0.358872 -0.286764
v 0.167974 -0.512546 0.004914
v 0.126032 -0.447756 -0.330574
v 0.286587 -0.415792 0.031445
v 0.232656 -0.122578 -0.497545
v 0.355509 -0.246488 -0.229553
v 0.239661 -0.358872 -0.286764
v 0.082208 -0.241110 -0.554217
v -0.309450 -0.430023 -0.544903
v -0.080080 -0.332718 -0.544638
v -0.295146 -0.520787 -0.284689
v 0.126032 -0.447756 -0.330574
v -0.295146 -0.520787 -0.284689
v 0.126032 -0.447756 -0.330574
v -0.313712 -0.557016 -0.038031
v 0.167974 -0.512546 0.004914
v 0.334267 0.018214 -0.408277
v -0.061554 0.056720 -0.533798
v -0.024811 0.207460 -0.484538
v 0.232656 -0.122578 -0.497545
v 0.111282 0.292987 -0.467119
v 0.385342 0.113777 -0.326071
v 0.334267 0.018214 -0.408277
v -0.024811 0.207460 -0.484538
v -0.187055 -0.053995 0.379016
v 0.075550 -0.062110 0.534042
v -0.179426 0.045834 0.455511
v 0.022017 -0.182809 0.477510
v -0.061554 0.056720 -0.533798
v -0.246641 0.177648 -0.453523
v -0.024811 0.207460 -0.484538
v -0.241881 0.256960 -0.465721
v -0.428815 0.414960 -0.471967
v -0.241881 0.256960 -0.465721
v -0.383962 0.207431 -0.492641
v -0.465752 0.279139 -0.462149
v -0.024811 0.207460 -0.484538
v -0.333337 0.470783 -0.489446
v -0.212195 0.544727 -0.477308
v 0.111282 0.292987 -0.467119
v 0.022017 -0.182809 0.477510
v -0.187505 -0.126695 0.288893
v -0.065232 -0.281475 0.415966
v -0.187055 -0.053995 0.379016
v 0.082208 -0.241110 -0.554217
v -0.061554 0.056720 -0.533798
v 0.232656 -0.122578 -0.497545
v -0.235479 0.006511 -0.360105
v -0.365031 -0.251313 -0.493792
v -0.080080 -0.332718 -0.544638
v -0.309450 -0.430023 -0.544903
v -0.266863 -0.132326 -0.444818
v -0.241881 0.256960 -0.465721
v -0.428815 0.414960 -0.471967
v -0.333337 0.470783 -0.489446
v -0.024811 0.207460 -0.484538
v -0.443579 0.156354 -0.404447
v -0.465752 0.279139 -0.462149
v -0.404989 0.187710 -0.458812
v -0.365031 -0.251313 -0.493792
v -0.295146 -0.520787 -0.284689
v -0.353643 -0.289514 -0.218085
v -0.309450 -0.430023 -0.544903
v -0.383962 0.207431 -0.492641
v -0.404989 0.187710 -0.458812
v -0.465752 0.279139 -0.462149
v -0.499214 0.213422 -0.397329
v -0.465752 0.279139 -0.462149
v -0.443579 0.156354 -0.404447
v -0.266863 -0.132326 -0.444818
v 0.082208 -0.241110 -0.554217
v -0.080080 -0.332718 -0.544638
v -0.235479 0.006511 -0.360105
v -0.187505 -0.126695 0.288893
v -0.166331 -0.354189 0.326079
v -0.065232 -0.281475 0.415966
v -0.225343 -0.220110 0.187036
v -0.353643 -0.289514 -0.218085
v -0.313712 -0.557016 -0.038031
v -0.324729 -0.351670 0.130497
v -0.295146 -0.520787 -0.284689
v -0.239442 0.338607 0.220689
v -0.345758 0.560673 -0.107847
v -0.399172 0.458582 -0.115062
v -0.227164 0.226488 0.174910
v -0.324729 -0.351670 0.130497
v -0.308067 -0.560673 0.137569
v -0.313920 -0.407007 0.242444
v -0.313712 -0.557016 -0.038031
v -0.061554 0.056720 -0.533798
v -0.235479 0.006511 -0.360105
v -0.246641 0.177648 -0.453523
v -0.345952 0.158411 -0.371347
v -0.156333 0.187871 0.503573
v -0.239442 0.338607 0.220689
v -0.227164 0.226488 0.174910
v -0.179426 0.045834 0.455511
v -0.246641 0.177648 -0.453523
v -0.383962 0.207431 -0.492641
v -0.241881 0.256960 -0.465721
v -0.404989 0.187710 -0.458812
v -0.225343 -0.220110 0.187036
v -0.313920 -0.407007 0.242444
v -0.166331 -0.354189 0.326079
v -0.324729 -0.351670 0.130497
v -0.235479 0.006511 -0.360105
v -0.206233 -0.183807 -0.097040
v -0.190083 -0.069533 0.000204
v -0.266863 -0.132326 -0.444818
v -0.280513 0.237547 -0.171133
v -0.190083 -0.069533 0.000204
v -0.188397 0.098405 0.104160
v -0.235479 0.006511 -0.360105
v -0.188397 0.098405 0.104160
v -0.187505 -0.126695 0.288893
v -0.187055 -0.053995 0.379016
v -0.190083 -0.069533 0.000204
v -0.190083 -0.069533 0.000204
v -0.225343 -0.220110 0.187036
v -0.187505 -0.126695 0.288893
v -0.206233 -0.183807 -0.097040
v -0.227164 0.226488 0.174910
v -0.187055 -0.053995 0.379016
v -0.179426 0.045834 0.455511
v -0.188397 0.098405 0.104160
v -0.459840 0.356925 -0.222569
v -0.345952 0.158411 -0.371347
v -0.235479 0.006511 -0.360105
v -0.399172 0.458582 -0.115062
v -0.280513 0.237547 -0.171133
v -0.227164 0.226488 0.174910
v -0.188397 0.098405 0.104160
v -0.266863 -0.132326 -0.444818
v -0.353643 -0.289514 -0.218085
v -0.206233 -0.183807 -0.097040
v -0.365031 -0.251313 -0.493792
v -0.206233 -0.183807 -0.097040
v -0.324729 -0.351670 0.130497
v -0.225343 -0.220110 0.187036
v -0.353643 -0.289514 -0.218085
v -0.459840 0.356925 -0.222569
v -0.280513 0.237547 -0.171133
v -0.399172 0.458582 -0.115062
v -0.459840 0.356925 -0.222569
v -0.235479 0.006511 -0.360105
v -0.280513 0.237547 -0.171133
v -0.345952 0.158411 -0.371347
v -0.404989 0.187710 -0.458812
v -0.246641 0.177648 -0.453523
v -0.443579 0.156354 -0.404447
v -0.345952 0.158411 -0.371347
v -0.499214 0.213422 -0.397329
v -0.443579 0.156354 -0.404447
v -0.459840 0.356925 -0.222569
vt 0.587461 3.699008
vt 0.587461 3.610334
vt 0.666973 3.599326
vt 0.666972 3.699008
vt 0.601109 3.352427
vt 0.666973 3.320638
vt 0.666973 3.352427
vt 0.587461 3.320623
vt 0.543731 3.610334
vt 0.587461 3.699008
vt 0.543731 3.699008
vt 0.587461 3.610334
vt 0.536947 3.848420
vt 0.500000 3.909998
vt 0.500000 3.848420
vt 0.536947 3.909998
vt 0.666972 3.572106
vt 0.587461 3.610334
vt 0.587461 3.580290
vt 0.666973 3.599326
vt 0.544687 3.576332
vt 0.587461 3.580290
vt 0.543731 3.610334
vt 0.587461 3.610334
vt 0.500000 3.699008
vt 0.500000 3.610334
vt 0.543731 3.699008
vt 0.543731 3.610334
vt 0.587461 3.266475
vt 0.587461 3.209338
vt 0.666973 3.209337
vt 0.666973 3.265375
vt 0.544687 3.576332
vt 0.500000 3.610334
vt 0.501911 3.572374
vt 0.543731 3.610334
vt 0.428439 3.610334
vt 0.500000 3.699008
vt 0.428439 3.699008
vt 0.500000 3.610334
vt 0.666972 3.530823
vt 0.587461 3.580290
vt 0.587461 3.547844
vt 0.666972 3.572106
vt 0.501911 3.572374
vt 0.500000 3.610334
vt 0.428439 3.610334
vt 0.428439 3.570579
vt 0.428439 3.699008
vt 0.380733 3.610334
vt 0.428439 3.610334
vt 0.380733 3.699008
vt 0.545718 3.539611
vt 0.587461 3.547844
vt 0.544687 3.576332
vt 0.587461 3.580290
vt 0.666972 3.482430
vt 0.666972 3.530823
vt 0.587461 3.547844
vt 0.587461 3.505412
vt 0.500000 3.799157
vt 0.536947 3.848420
vt 0.500000 3.848420
vt 0.536947 3.799157
vt 0.587461 3.505412
vt 0.587461 3.547844
vt 0.545718 3.539611
vt 0.507951 3.452423
vt 0.501911 3.572374
vt 0.545718 3.539611
vt 0.544687 3.576332
vt 0.503976 3.531378
vt 0.428439 3.530823
vt 0.428439 3.451313
vt 0.485305 3.452107
vt 0.503976 3.531378
vt 0.428439 3.610334
vt 0.380733 3.570579
vt 0.428439 3.570579
vt 0.380733 3.610334
vt 0.503976 3.531378
vt 0.428439 3.570579
vt 0.428439 3.530823
vt 0.501911 3.572374
vt 0.507951 3.452423
vt 0.545718 3.539611
vt 0.503976 3.531378
vt 0.485305 3.452107
vt 0.380733 3.451313
vt 0.428439 3.451313
vt 0.380733 3.530823
vt 0.428439 3.530823
vt 0.380733 3.530823
vt 0.428439 3.530823
vt 0.380733 3.570579
vt 0.428439 3.570579
vt 0.447707 3.950107
vt 0.426105 3.887921
vt 0.463052 3.909998
vt 0.426105 3.909998
vt 0.666972 3.414665
vt 0.666972 3.482430
vt 0.587461 3.505412
vt 0.587461 3.419508
vt 0.529943 3.242566
vt 0.587461 3.209338
vt 0.587461 3.266475
vt 0.543731 3.209337
vt 0.426105 3.887921
vt 0.426105 3.848420
vt 0.463052 3.909998
vt 0.463053 3.848420
vt 0.500000 3.848420
vt 0.463053 3.848420
vt 0.463052 3.799157
vt 0.500000 3.799157
vt 0.587461 3.419508
vt 0.601109 3.352427
vt 0.666973 3.352427
vt 0.666972 3.414665
vt 0.543731 3.209337
vt 0.498556 3.245224
vt 0.500000 3.209337
vt 0.529943 3.242566
vt 0.404183 3.948965
vt 0.426105 3.887921
vt 0.426105 3.909998
vt 0.389158 3.909998
vt 0.380733 3.352427
vt 0.428439 3.451313
vt 0.380733 3.451313
vt 0.428439 3.352427
vt 0.463053 3.848420
vt 0.500000 3.848420
vt 0.500000 3.909998
vt 0.463052 3.909998
vt 0.500000 3.749893
vt 0.500000 3.799157
vt 0.463053 3.762209
vt 0.333028 3.451313
vt 0.380733 3.530823
vt 0.333028 3.530823
vt 0.380733 3.451313
vt 0.463052 3.799157
vt 0.463053 3.762209
vt 0.500000 3.799157
vt 0.536947 3.799157
vt 0.500000 3.799157
vt 0.500000 3.749893
vt 0.428439 3.352427
vt 0.485305 3.452107
vt 0.428439 3.451313
vt 0.494224 3.352882
vt 0.498556 3.245224
vt 0.428439 3.209337
vt 0.500000 3.209337
vt 0.428439 3.245110
vt 0.333028 3.530823
vt 0.380733 3.570579
vt 0.333028 3.570579
vt 0.380733 3.530823
vt 0.666973 3.288848
vt 0.666973 3.320638
vt 0.587461 3.320623
vt 0.587461 3.288848
vt 0.333028 3.570579
vt 0.380733 3.610334
vt 0.333028 3.610334
vt 0.380733 3.570579
vt 0.426105 3.887921
vt 0.389158 3.909998
vt 0.426105 3.848420
vt 0.389158 3.848420
vt 0.666973 3.265375
vt 0.666973 3.288848
vt 0.587461 3.288848
vt 0.587461 3.266475
vt 0.426105 3.848420
vt 0.463052 3.799157
vt 0.463053 3.848420
vt 0.426105 3.799157
vt 0.428439 3.245110
vt 0.380733 3.209338
vt 0.428439 3.209337
vt 0.380733 3.245110
vt 0.494224 3.352882
vt 0.428439 3.280882
vt 0.497112 3.281110
vt 0.428439 3.352427
vt 0.527509 3.322503
vt 0.497112 3.281110
vt 0.516156 3.275795
vt 0.494224 3.352882
vt 0.516156 3.275795
vt 0.498556 3.245224
vt 0.529943 3.242566
vt 0.497112 3.281110
vt 0.497112 3.281110
vt 0.428439 3.245110
vt 0.498556 3.245224
vt 0.428439 3.280882
vt 0.587461 3.288848
vt 0.529943 3.242566
vt 0.587461 3.266475
vt 0.516156 3.275795
vt 0.536947 3.848420
vt 0.610842 3.848420
vt 0.610842 3.909998
vt 0.587461 3.320623
vt 0.527509 3.322503
vt 0.587461 3.288848
vt 0.516156 3.275795
vt 0.428439 3.352427
vt 0.380733 3.280882
vt 0.428439 3.280882
vt 0.380733 3.352427
vt 0.428439 3.280882
vt 0.380733 3.245110
vt 0.428439 3.245110
vt 0.380733 3.280882
vt 0.536947 3.848420
vt 0.574410 3.910355
vt 0.536947 3.909998
vt 0.536947 3.848420
vt 0.610842 3.909998
vt 0.574410 3.910355
vt 0.389158 3.848420
vt 0.426105 3.799157
vt 0.426105 3.848420
vt 0.389158 3.799157
vt 0.610842 3.848420
vt 0.536947 3.799157
vt 0.610842 3.799156
vt 0.536947 3.848420
vn 0.353848 -0.272206 0.894452
vn 0.353848 -0.272206 0.894452
vn 0.353848 -0.272206 0.894452
vn 0.353848 -0.272206 0.894452
vn -0.687401 0.701590 -0.187649
vn -0.687401 0.701590 -0.187649
vn -0.687401 0.701590 -0.187649
vn -0.687401 0.701590 -0.187649
vn 0.290195 -0.420413 0.859300
vn 0.290195 -0.420413 0.859300
vn 0.290195 -0.420413 0.859300
vn 0.290195 -0.420413 0.859300
vn -0.701652 0.712040 -0.028991
vn -0.701652 0.712040 -0.028991
vn -0.701652 0.712040 -0.028991
vn -0.701652 0.712040 -0.028991
vn 0.826970 -0.389061 0.406129
vn 0.826970 -0.389061 0.406129
vn 0.826970 -0.389061 0.406129
vn 0.826970 -0.389061 0.406129
vn 0.836470 -0.428013 0.343426
vn 0.836470 -0.428013 0.343426
vn 0.836470 -0.428013 0.343426
vn 0.836470 -0.428013 0.343426
vn 0.149588 -0.557219 0.817498
vn 0.149588 -0.557219 0.817498
vn 0.149588 -0.557219 0.817498
vn 0.149588 -0.557219 0.817498
vn -0.301683 -0.164851 0.939104
vn -0.301683 -0.164851 0.939104
vn -0.301683 -0.164851 0.939104
vn -0.301683 -0.164851 0.939104
vn 0.684463 -0.666474 0.294974
vn 0.684463 -0.666474 0.294974
vn 0.684463 -0.666474 0.294974
vn 0.684463 -0.666474 0.294974
vn -0.028070 -0.675024 0.736744
vn -0.028070 -0.675024 0.736744
vn -0.028070 -0.675024 0.736744
vn -0.028070 -0.675024 0.736744
vn 0.943825 -0.325408 -0.053693
vn 0.944775 -0.323508 -0.053693
vn 0.944775 -0.324458 -0.051792
vn 0.943825 -0.325408 -0.053693
vn 0.541956 -0.787130 0.295924
vn 0.541956 -0.787130 0.295924
vn 0.541956 -0.787130 0.295924
vn 0.541956 -0.787130 0.295924
vn -0.110724 -0.627522 0.770946
vn -0.110724 -0.627522 0.770946
vn -0.110724 -0.627522 0.770946
vn -0.110724 -0.627522 0.770946
vn 0.909624 -0.395711 -0.127796
vn 0.908674 -0.398561 -0.127796
vn 0.909624 -0.395711 -0.127796
vn 0.908674 -0.396661 -0.129696
vn 0.886823 -0.131599 -0.444161
vn 0.886823 -0.131599 -0.444161
vn 0.886823 -0.131599 -0.444161
vn 0.886823 -0.131599 -0.444161
vn -0.949613 0.303521 -0.075544
vn -0.949613 0.303521 -0.075544
vn -0.949613 0.303521 -0.075544
vn -0.949613 0.303521 -0.075544
vn 0.830770 -0.264605 -0.490713
vn 0.830770 -0.264605 -0.490713
vn 0.830770 -0.264605 -0.490713
vn 0.830770 -0.264605 -0.490713
vn 0.768067 -0.610421 -0.193349
vn 0.768067 -0.610421 -0.193349
vn 0.768067 -0.610421 -0.193349
vn 0.768067 -0.610421 -0.193349
vn 0.472603 -0.599021 -0.646520
vn 0.472603 -0.599021 -0.646520
vn 0.472603 -0.599021 -0.646520
vn 0.472603 -0.599021 -0.646520
vn 0.119187 -0.990439 0.068863
vn 0.119187 -0.990439 0.068863
vn 0.119187 -0.990439 0.068863
vn 0.119187 -0.990439 0.068863
vn 0.649311 -0.727277 -0.223751
vn 0.649311 -0.727277 -0.223751
vn 0.649311 -0.727277 -0.223751
vn 0.649311 -0.727277 -0.223751
vn 0.664512 -0.485966 -0.567667
vn 0.664512 -0.485966 -0.567667
vn 0.664512 -0.485966 -0.567667
vn 0.664512 -0.485966 -0.567667
vn 0.193290 -0.864083 -0.465062
vn 0.193290 -0.864083 -0.465062
vn 0.193290 -0.864083 -0.465062
vn 0.193290 -0.864083 -0.465062
vn 0.126787 -0.976189 -0.174348
vn 0.126787 -0.976189 -0.174348
vn 0.126787 -0.976189 -0.174348
vn 0.126787 -0.976189 -0.174348
vn 0.314896 0.281670 -0.906832
vn 0.314896 0.281670 -0.906832
vn 0.314896 0.281670 -0.906832
vn 0.314896 0.281670 -0.906832
vn 0.380449 0.111612 -0.918233
vn 0.380449 0.111612 -0.918233
vn 0.380449 0.111612 -0.918233
vn 0.380449 0.111612 -0.918233
vn -0.484092 -0.349159 0.802297
vn -0.484092 -0.349159 0.802297
vn -0.484092 -0.349159 0.802297
vn -0.484092 -0.349159 0.802297
vn -0.160126 0.184766 -0.969535
vn -0.160126 0.184766 -0.969535
vn -0.160126 0.184766 -0.969535
vn -0.160126 0.184766 -0.969535
vn -0.006219 0.097362 -0.995187
vn -0.006219 0.097362 -0.995187
vn -0.006219 0.097362 -0.995187
vn -0.006219 0.097362 -0.995187
vn 0.075485 0.063160 -0.995187
vn 0.075485 0.063160 -0.995187
vn 0.075485 0.063160 -0.995187
vn 0.075485 0.063160 -0.995187
vn -0.683601 -0.255105 0.683542
vn -0.683601 -0.255105 0.683542
vn -0.683601 -0.255105 0.683542
vn -0.683601 -0.255105 0.683542
vn -0.300733 -0.080297 -0.950535
vn -0.300733 -0.080297 -0.950535
vn -0.300733 -0.080297 -0.950535
vn -0.300733 -0.080297 -0.950535
vn -0.074622 0.327272 -0.941984
vn -0.074622 0.327272 -0.941984
vn -0.074622 0.327272 -0.941984
vn -0.074622 0.327272 -0.941984
vn -0.110724 -0.156300 -0.981886
vn -0.110724 -0.156300 -0.981886
vn -0.110724 -0.156300 -0.981886
vn -0.110724 -0.156300 -0.981886
vn -0.603797 -0.426113 -0.674072
vn -0.603797 -0.426113 -0.674072
vn -0.603797 -0.426113 -0.674072
vn -0.964814 -0.263655 -0.017591
vn -0.964814 -0.263655 -0.017591
vn -0.964814 -0.263655 -0.017591
vn -0.964814 -0.263655 -0.017591
vn -0.625648 -0.439413 -0.644620
vn -0.625648 -0.439413 -0.644620
vn -0.625648 -0.439413 -0.644620
vn -0.539194 -0.435613 -0.720624
vn -0.539194 -0.435613 -0.720624
vn -0.539194 -0.435613 -0.720624
vn -0.150626 0.418477 -0.895432
vn -0.150626 0.418477 -0.895432
vn -0.150626 0.418477 -0.895432
vn -0.150626 0.418477 -0.895432
vn -0.816607 0.018508 0.576187
vn -0.816607 0.018508 0.576187
vn -0.816607 0.018508 0.576187
vn -0.816607 0.018508 0.576187
vn -0.988565 -0.152500 -0.008090
vn -0.988565 -0.152500 -0.008090
vn -0.988565 -0.152500 -0.008090
vn -0.988565 -0.152500 -0.008090
vn -0.892611 0.061260 0.446031
vn -0.892611 0.061260 0.446031
vn -0.892611 0.061260 0.446031
vn -0.892611 0.061260 0.446031
vn -0.996166 -0.078396 0.041312
vn -0.996166 -0.078396 0.041312
vn -0.996166 -0.078396 0.041312
vn -0.996166 -0.078396 0.041312
vn -0.559145 -0.425163 -0.712073
vn -0.559145 -0.425163 -0.712073
vn -0.559145 -0.425163 -0.712073
vn -0.559145 -0.425163 -0.712073
vn -0.978115 -0.034694 0.206620
vn -0.978115 -0.034694 0.206620
vn -0.978115 -0.034694 0.206620
vn -0.978115 -0.034694 0.206620
vn 0.153388 -0.448914 -0.880231
vn 0.153388 -0.448914 -0.880231
vn 0.153388 -0.448914 -0.880231
vn 0.153388 -0.448914 -0.880231
vn -0.676951 0.484980 0.554336
vn -0.676951 0.484980 0.554336
vn -0.676951 0.484980 0.554336
vn -0.676951 0.484980 0.554336
vn -0.984765 0.069810 0.160067
vn -0.983815 0.075511 0.161017
vn -0.984765 0.069810 0.160067
vn -0.983815 0.070760 0.165768
vn -0.968614 -0.207603 0.139166
vn -0.968614 -0.207603 0.139166
vn -0.968614 -0.207603 0.139166
vn -0.968614 -0.207603 0.139166
vn -0.999966 0.002357 0.008060
vn -0.999966 0.002357 0.008060
vn -0.999966 0.002357 0.008060
vn -0.999966 0.002357 0.008060
vn -0.970514 0.241768 0.010910
vn -0.970514 0.241768 0.010910
vn -0.970514 0.241768 0.010910
vn -0.970514 0.241768 0.010910
vn -0.990465 -0.138249 0.004260
vn -0.990465 -0.138249 0.004260
vn -0.990465 -0.138249 0.004260
vn -0.990465 -0.138249 0.004260
vn -0.805207 -0.574320 0.150567
vn -0.805207 -0.574320 0.150567
vn -0.805207 -0.574320 0.150567
vn -0.886910 -0.444164 0.123016
vn -0.886910 -0.444164 0.123016
vn -0.886910 -0.444164 0.123016
vn -0.886910 -0.444164 0.123016
vn -0.733003 0.655988 0.180018
vn -0.729203 0.660738 0.179068
vn -0.730153 0.660738 0.174318
vn -0.729203 0.660738 0.179068
vn -0.730153 0.673089 0.116365
vn -0.730153 0.673089 0.116365
vn -0.730153 0.673089 0.116365
vn -0.730153 0.673089 0.116365
vn -0.513543 -0.459364 0.724394
vn -0.513543 -0.459364 0.724394
vn -0.513543 -0.459364 0.724394
vn -0.559145 -0.587620 0.584737
vn -0.559145 -0.587620 0.584737
vn -0.559145 -0.587620 0.584737
vn 0.020382 -0.943887 -0.329205
vn 0.020382 -0.943887 -0.329205
vn 0.020382 -0.943887 -0.329205
vn 0.020382 -0.943887 -0.329205
vn -0.347285 -0.645573 0.680692
vn -0.347285 -0.645573 0.680692
vn -0.347285 -0.645573 0.680692
vn -0.347285 -0.645573 0.680692
f 1/1/1 2/2/2 3/3/3
f 1/1/1 3/3/3 4/4/4
f 5/5/5 6/6/6 7/7/7
f 6/6/6 5/5/5 8/8/8
f 9/9/9 10/10/10 11/11/11
f 10/10/10 9/9/9 12/12/12
f 13/13/13 14/14/14 15/15/15
f 16/16/16 14/14/14 13/13/13
f 17/17/17 18/18/18 19/19/19
f 18/18/18 17/17/17 20/20/20
f 21/21/21 22/22/22 23/23/23
f 22/22/22 24/24/24 23/23/23
f 25/25/25 26/26/26 27/27/27
f 27/27/27 26/26/26 28/28/28
f 29/29/29 30/30/30 31/31/31
f 29/29/29 31/31/31 32/32/32
f 33/33/33 34/34/34 35/35/35
f 34/34/34 33/33/33 36/36/36
f 37/37/37 38/38/38 39/39/39
f 38/38/38 37/37/37 40/40/40
f 41/41/41 42/42/42 43/43/43
f 41/41/41 44/44/44 42/42/42
f 45/45/45 46/46/46 47/47/47
f 45/45/45 47/47/47 48/48/48
f 49/49/49 50/50/50 51/51/51
f 50/50/50 49/49/49 52/52/52
f 53/53/53 54/54/54 55/55/55
f 54/54/54 56/56/56 55/55/55
f 57/57/57 58/58/58 59/59/59
f 59/59/59 60/60/60 57/57/57
f 61/61/61 62/62/62 63/63/63
f 62/62/62 61/61/61 64/64/64
f 65/65/65 66/66/66 67/67/67
f 65/65/65 67/67/67 68/68/68
f 69/69/69 70/70/70 71/71/71
f 70/70/70 69/69/69 72/72/72
f 73/73/73 74/74/74 75/75/75
f 73/73/73 75/75/75 76/76/76
f 77/77/77 78/78/78 79/79/79
f 78/78/78 77/77/77 80/80/80
f 81/81/81 82/82/82 83/83/83
f 82/82/82 81/81/81 84/84/84
f 85/85/85 86/86/86 87/87/87
f 85/85/85 87/87/87 88/88/88
f 89/89/89 90/90/90 91/91/91
f 90/90/90 92/92/92 91/91/91
f 93/93/93 94/94/94 95/95/95
f 94/94/94 96/96/96 95/95/95
f 97/97/97 98/98/98 99/99/99
f 98/98/98 97/97/97 100/100/100
f 101/101/101 102/102/102 103/103/103
f 103/103/103 104/104/104 101/101/101
f 105/105/105 106/106/106 107/107/107
f 106/106/106 105/105/105 108/108/108
f 109/109/109 110/110/110 111/111/111
f 112/112/112 111/111/111 110/110/110
f 113/113/113 114/114/114 115/115/115
f 113/113/113 115/115/115 116/116/116
f 117/117/117 118/118/118 119/119/119
f 117/117/117 119/119/119 120/120/120
f 121/121/121 122/122/122 123/123/123
f 122/122/122 121/121/121 124/124/124
f 125/125/125 126/126/126 127/127/127
f 125/125/125 128/128/128 126/126/126
f 129/129/129 130/130/130 131/131/131
f 130/130/130 129/129/129 132/132/132
f 133/133/133 134/134/134 135/135/135
f 135/135/135 136/136/136 133/133/133
f 137/137/137 138/138/138 139/139/139
f 140/140/140 141/141/141 142/142/142
f 141/141/141 140/140/140 143/143/143
f 144/144/144 145/145/145 146/146/146
f 147/147/147 148/148/148 149/149/149
f 150/150/150 151/151/151 152/152/152
f 151/151/151 150/150/150 153/153/153
f 154/154/154 155/155/155 156/156/156
f 155/155/155 154/154/154 157/157/157
f 158/158/158 159/159/159 160/160/160
f 159/159/159 158/158/158 161/161/161
f 162/162/162 163/163/163 164/164/164
f 162/162/162 164/164/164 165/165/165
f 166/166/166 167/167/167 168/168/168
f 166/166/166 169/169/169 167/167/167
f 170/170/170 171/171/171 172/172/172
f 171/171/171 173/173/173 172/172/172
f 174/174/174 175/175/175 176/176/176
f 176/176/176 177/177/177 174/174/174
f 178/178/178 179/179/179 180/180/180
f 179/179/179 178/178/178 181/181/181
f 182/182/182 183/183/183 184/184/184
f 183/183/183 182/182/182 185/185/185
f 186/186/186 187/187/187 188/188/188
f 187/187/187 186/186/186 189/189/189
f 190/190/190 191/191/191 192/192/192
f 191/191/191 190/190/190 193/193/193
f 194/194/194 195/195/195 196/196/196
f 195/195/195 194/194/194 197/197/197
f 198/198/198 199/199/199 200/200/200
f 199/199/199 198/198/198 201/201/201
f 202/202/202 203/203/203 204/204/204
f 203/203/203 202/202/202 205/205/205
f 206/206/206 207/207/207 208/208/208
f 209/209/209 210/210/210 211/211/211
f 211/211/211 210/210/210 212/212/212
f 213/213/213 214/214/214 215/215/215
f 214/214/214 213/213/213 216/216/216
f 217/217/217 218/218/218 219/219/219
f 218/218/218 217/217/217 220/220/220
f 221/221/221 222/222/222 223/223/223
f 224/224/224 225/225/225 226/226/226
f 227/227/227 228/228/228 229/229/229
f 228/228/228 227/227/227 230/230/230
f 231/231/231 232/232/232 233/233/233
f 232/232/232 231/231/231 234/234/234
