# Generated from Roblox mesh JSON (v2.00)
# Hello from RBX_Toolbox ;)
o LeftUpperArm
v -0.054413 -0.191542 -0.145883
v -0.144308 -0.165625 -0.107299
v -0.122321 -0.152600 -0.086710
v -0.049466 -0.173918 -0.118110
v -0.146748 -0.144077 0.004933
v 0.035564 -0.215395 -0.107066
v 0.023494 -0.193522 -0.086536
v 0.066726 -0.220109 0.005476
v 0.048953 -0.197211 0.005030
v 0.054079 -0.247779 0.006202
v 0.024353 -0.243107 -0.102186
v 0.016589 -0.258725 0.006644
v -0.004899 -0.255083 -0.071878
v -0.062488 -0.219700 -0.139795
v -0.067671 -0.237048 -0.098981
v -0.149445 -0.194235 -0.102625
v -0.130484 -0.217685 -0.072078
v -0.174446 -0.155106 0.005317
v -0.120591 -0.147957 0.096573
v -0.178629 -0.183997 0.005995
v -0.151741 -0.210259 0.006453
v -0.142365 -0.160019 0.117942
v -0.047235 -0.167700 0.128074
v -0.147677 -0.188885 0.114489
v -0.129490 -0.213972 0.085018
v -0.051965 -0.184027 0.156684
v 0.025181 -0.188841 0.096595
v -0.060514 -0.212488 0.151755
v -0.066544 -0.232056 0.112097
v 0.037338 -0.209760 0.118012
v 0.048953 -0.197211 0.005030
v 0.066726 -0.220109 0.005476
v 0.025566 -0.237746 0.114476
v 0.054079 -0.247779 0.006202
v -0.004251 -0.251382 0.085151
v 0.016589 -0.258725 0.006644
v 0.002863 0.374492 -0.015470
v 0.044851 0.442053 0.035223
v 0.032438 0.454148 -0.020498
v -0.019917 0.291610 -0.010413
v 0.028176 0.382841 0.064348
v 0.100924 0.472753 0.046701
v 0.101151 0.498605 -0.023212
v 0.012166 0.297861 0.082236
v -0.046034 0.208732 -0.005925
v 0.105458 0.402361 0.088537
v 0.154456 0.481044 0.032077
v 0.174139 0.503394 -0.024460
v 0.182561 0.420719 0.059421
v 0.206593 0.422858 -0.020834
v 0.101676 0.305605 0.110638
v 0.184431 0.313390 0.077838
v 0.203441 0.314421 -0.015231
v -0.014052 0.213651 0.091132
v -0.080174 0.078877 -0.000870
v 0.073109 0.213160 0.122318
v 0.153514 0.211852 0.088748
v 0.171146 0.209310 -0.008446
v -0.052033 0.080385 0.094166
v -0.142204 -0.159222 0.006390
v 0.024557 0.071826 0.125622
v 0.099154 0.060912 0.093775
v 0.120786 0.052782 -0.001141
v -0.117795 -0.161698 0.094146
v -0.206593 -0.397092 0.019942
v -0.047206 -0.176544 0.123504
v 0.022371 -0.193886 0.094384
v 0.044688 -0.202228 0.006707
v -0.186390 -0.407903 0.085626
v -0.198318 -0.450842 0.019913
v -0.122288 -0.440446 0.107087
v -0.060074 -0.451675 0.085318
v -0.044390 -0.452193 0.019884
v -0.183987 -0.458511 0.066508
v -0.153470 -0.503394 0.019869
v -0.138514 -0.481596 0.081732
v -0.094382 -0.489562 0.066289
v -0.083255 -0.489929 0.019872
v 0.019303 0.064936 -0.154249
v -0.069029 0.089082 -0.114966
v -0.047555 0.099310 -0.093522
v 0.023584 0.079137 -0.125293
v -0.070938 0.107432 -0.000841
v 0.107845 0.041582 -0.115136
v 0.094687 0.059205 -0.093552
v 0.141394 0.039315 -0.000882
v 0.121768 0.057429 -0.001179
v 0.136337 0.008796 -0.000134
v 0.102184 0.011456 -0.117611
v 0.110221 -0.003280 0.000303
v 0.082026 -0.000947 -0.097004
v 0.010943 0.035851 -0.158001
v 0.006707 0.020561 -0.130467
v -0.080268 0.061004 -0.117615
v -0.068736 0.042302 -0.097021
v -0.098052 0.099205 -0.000491
v -0.043817 0.105088 0.091693
v -0.110266 0.071432 0.000207
v -0.093668 0.050971 0.000556
v -0.064618 0.096256 0.113930
v 0.029031 0.086792 0.123204
v -0.075925 0.068126 0.117871
v -0.065273 0.048128 0.098012
v 0.025843 0.074417 0.152991
v 0.099638 0.065200 0.091252
v 0.017212 0.045301 0.158001
v 0.011685 0.028296 0.131270
v 0.113818 0.048960 0.113523
v 0.121768 0.057429 -0.001179
v 0.141394 0.039315 -0.000882
v 0.107810 0.018817 0.117406
v 0.136337 0.008796 -0.000134
v 0.086468 0.005066 0.097658
v 0.110221 -0.003280 0.000303
v -0.065383 -0.449851 -0.045595
v -0.122038 -0.440570 -0.067400
v -0.048990 -0.183729 -0.110407
v -0.098148 -0.488268 -0.026577
v -0.083255 -0.489929 0.019872
v -0.044390 -0.452193 0.019884
v -0.153470 -0.503394 0.019869
v 0.021255 -0.199340 -0.081049
v 0.044688 -0.202228 0.006707
v -0.138337 -0.481684 -0.042045
v -0.183948 -0.458496 -0.026721
v -0.186334 -0.407882 -0.045799
v -0.119301 -0.167121 -0.081286
v -0.057117 0.070813 -0.096026
v 0.017252 0.059138 -0.127729
v 0.092644 0.050728 -0.096055
v 0.120786 0.052782 -0.001141
v 0.144263 0.199461 -0.105122
v 0.171146 0.209310 -0.008446
v 0.061915 0.197401 -0.136867
v -0.021164 0.201995 -0.103703
v 0.181123 0.300654 -0.107003
v 0.203441 0.314421 -0.015231
v 0.095594 0.289493 -0.136251
v 0.008350 0.286092 -0.104343
v 0.032284 0.371038 -0.097028
v 0.113649 0.386654 -0.125185
v 0.189023 0.408797 -0.100067
v 0.206593 0.422858 -0.020834
v 0.161263 0.472394 -0.077787
v 0.174139 0.503394 -0.024460
v 0.109323 0.465640 -0.094797
v 0.101151 0.498605 -0.023212
v 0.054719 0.444409 -0.074779
v -0.049466 -0.173918 -0.118110
v -0.122321 -0.152600 -0.086710
v -0.068736 0.042302 -0.097021
v 0.006707 0.020561 -0.130467
v -0.093668 0.050971 0.000556
v 0.023494 -0.193522 -0.086536
v -0.146748 -0.144077 0.004933
v 0.082026 -0.000947 -0.097004
v 0.048953 -0.197211 0.005030
v 0.110221 -0.003280 0.000303
v -0.065273 0.048128 0.098012
v -0.120591 -0.147957 0.096573
v 0.011685 0.028296 0.131270
v -0.047235 -0.167700 0.128074
v 0.086468 0.005066 0.097658
v 0.025181 -0.188841 0.096595
v 0.110221 -0.003280 0.000303
v 0.048953 -0.197211 0.005030
vt 0.438694 0.880903
vt 0.373717 0.880903
vt 0.373716 0.860170
vt 0.438694 0.860170
vt 0.298228 0.860170
vt 0.503649 0.880903
vt 0.503649 0.860170
vt 0.579369 0.880903
vt 0.579369 0.860170
vt 0.579369 0.901992
vt 0.503650 0.901992
vt 0.579369 0.930406
vt 0.503649 0.930406
vt 0.438696 0.901992
vt 0.438694 0.930406
vt 0.373718 0.901992
vt 0.373716 0.930406
vt 0.298228 0.880903
vt 0.222531 0.860170
vt 0.298228 0.901991
vt 0.298227 0.930406
vt 0.222531 0.880903
vt 0.157249 0.860169
vt 0.222531 0.901991
vt 0.222531 0.930405
vt 0.157249 0.880903
vt 0.092349 0.860170
vt 0.157249 0.901991
vt 0.157249 0.930406
vt 0.092349 0.880903
vt 0.016973 0.860170
vt 0.016973 0.880903
vt 0.092349 0.901991
vt 0.016973 0.901991
vt 0.092349 0.930405
vt 0.016973 0.930406
vt 0.938994 0.341982
vt 0.938846 0.341809
vt 0.939001 0.341746
vt 0.938988 0.342202
vt 0.938802 0.341972
vt 0.938720 0.341710
vt 0.938805 0.341557
vt 0.938757 0.342181
vt 0.938983 0.342415
vt 0.938631 0.341883
vt 0.938604 0.341636
vt 0.938581 0.341486
vt 0.938483 0.341762
vt 0.938348 0.341620
vt 0.938549 0.342104
vt 0.938368 0.342001
vt 0.938168 0.341897
vt 0.938742 0.342392
vt 0.938980 0.342740
vt 0.938530 0.342335
vt 0.938334 0.342265
vt 0.938098 0.342221
vt 0.938738 0.342724
vt 0.938976 0.343340
vt 0.938536 0.342697
vt 0.938335 0.342673
vt 0.938093 0.342678
vt 0.938757 0.343334
vt 0.938964 0.343955
vt 0.938569 0.343329
vt 0.938383 0.343342
vt 0.938165 0.343381
vt 0.938823 0.343954
vt 0.938966 0.344114
vt 0.938667 0.343989
vt 0.938523 0.344000
vt 0.938385 0.344063
vt 0.938828 0.344077
vt 0.938755 0.344239
vt 0.938699 0.344094
vt 0.938592 0.344115
vt 0.938525 0.344198
vt 0.438694 0.676487
vt 0.373717 0.676487
vt 0.373716 0.656191
vt 0.438694 0.656191
vt 0.298228 0.656191
vt 0.503649 0.676487
vt 0.503649 0.656191
vt 0.579369 0.676487
vt 0.579369 0.656191
vt 0.579369 0.697858
vt 0.503649 0.697858
vt 0.579369 0.717463
vt 0.503649 0.717463
vt 0.438694 0.697858
vt 0.438694 0.717463
vt 0.373716 0.697858
vt 0.373716 0.717463
vt 0.298228 0.676487
vt 0.222531 0.656191
vt 0.298227 0.697858
vt 0.298228 0.717463
vt 0.222531 0.676487
vt 0.157249 0.656191
vt 0.222531 0.697858
vt 0.222531 0.717463
vt 0.157249 0.676487
vt 0.092350 0.656191
vt 0.157249 0.697858
vt 0.157249 0.717463
vt 0.092349 0.676487
vt 0.016973 0.656191
vt 0.016973 0.676487
vt 0.092350 0.697858
vt 0.016973 0.697858
vt 0.092349 0.717463
vt 0.016973 0.717463
vt 0.939402 0.344000
vt 0.939268 0.343984
vt 0.939378 0.343335
vt 0.939329 0.344114
vt 0.939399 0.344200
vt 0.939542 0.344076
vt 0.939173 0.344235
vt 0.939562 0.343354
vt 0.939777 0.343402
vt 0.939233 0.344090
vt 0.939103 0.344072
vt 0.939108 0.343948
vt 0.939193 0.343336
vt 0.939220 0.342738
vt 0.939420 0.342718
vt 0.939623 0.342700
vt 0.939868 0.342703
vt 0.939633 0.342298
vt 0.939876 0.342250
vt 0.939430 0.342364
vt 0.939222 0.342410
vt 0.939616 0.342028
vt 0.939820 0.341929
vt 0.939427 0.342129
vt 0.939220 0.342196
vt 0.939193 0.341978
vt 0.939382 0.341897
vt 0.939528 0.341781
vt 0.939657 0.341642
vt 0.939415 0.341647
vt 0.939426 0.341497
vt 0.939303 0.341714
vt 0.939195 0.341561
vt 0.939164 0.341784
vt 0.438694 0.860170
vt 0.373716 0.860170
vt 0.373716 0.717463
vt 0.438694 0.717463
vt 0.298228 0.717463
vt 0.503649 0.860170
vt 0.298228 0.860170
vt 0.503649 0.717463
vt 0.579369 0.860170
vt 0.579369 0.717463
vt 0.222531 0.717463
vt 0.222531 0.860170
vt 0.157249 0.717463
vt 0.157249 0.860169
vt 0.092349 0.717463
vt 0.092349 0.860170
vt 0.016973 0.717463
vt 0.016973 0.860170
vn 0.091463 0.316294 -0.944242
vn -0.596012 0.504560 -0.624651
vn -0.201756 0.911732 -0.357826
vn 0.223014 0.804847 -0.549987
vn -0.371476 0.928244 -0.019184
vn 0.775085 0.101971 -0.623575
vn 0.636506 0.682715 -0.358832
vn 0.999025 0.043434 -0.007906
vn 0.789436 0.613444 -0.021865
vn 0.671365 -0.740989 0.014302
vn 0.457245 -0.725603 -0.514225
vn 0.277974 -0.960327 0.022439
vn 0.118017 -0.958890 -0.258074
vn -0.163809 -0.592540 -0.788710
vn -0.246796 -0.879506 -0.406892
vn -0.760595 -0.387827 -0.520659
vn -0.574730 -0.779290 -0.249786
vn -0.819971 0.572362 -0.007029
vn -0.198457 0.927252 0.317519
vn -0.954720 -0.297133 0.014881
vn -0.699545 -0.714220 0.022963
vn -0.587634 0.532550 0.609161
vn 0.229427 0.828855 0.510257
vn -0.754309 -0.358325 0.550110
vn -0.575123 -0.761437 0.299077
vn 0.102598 0.354998 0.929220
vn 0.644011 0.696382 0.316706
vn -0.155426 -0.551955 0.819261
vn -0.242030 -0.854864 0.458943
vn 0.783489 0.123597 0.608990
vn 0.789436 0.613444 -0.021865
vn 0.999025 0.043434 -0.007906
vn 0.461166 -0.701517 0.543323
vn 0.671365 -0.740989 0.014302
vn 0.123250 -0.943987 0.306102
vn 0.277974 -0.960327 0.022439
vn -0.955003 0.296538 -0.005941
vn -0.718654 0.583673 0.377973
vn -0.784880 0.616763 0.059722
vn -0.955841 0.293875 -0.002229
vn -0.697896 0.316053 0.642691
vn -0.163040 0.748973 0.642229
vn -0.264752 0.964316 -0.000529
vn -0.675074 0.276751 0.683874
vn -0.959730 0.280477 0.015842
vn 0.028958 0.304437 0.952092
vn 0.421553 0.700136 0.576283
vn 0.580486 0.813805 -0.027521
vn 0.729563 0.252296 0.635677
vn 0.987016 0.160175 0.011994
vn 0.053694 0.149626 0.987284
vn 0.794376 -0.041670 0.605995
vn 0.987673 -0.156527 0.000847
vn -0.701463 0.243614 0.669778
vn -0.967017 0.254375 0.013093
vn 0.045404 0.042206 0.998077
vn 0.784069 -0.217354 0.581372
vn 0.949568 -0.313275 -0.013384
vn -0.730605 0.206769 0.650741
vn -0.967882 0.251386 0.003008
vn 0.016230 -0.001351 0.999867
vn 0.759581 -0.232164 0.607566
vn 0.953449 -0.301406 -0.009443
vn -0.723866 0.185680 0.664485
vn -0.978335 0.206786 0.009964
vn -0.002880 -0.028024 0.999603
vn 0.734786 -0.239497 0.634610
vn 0.950660 -0.310018 -0.011558
vn -0.700591 0.115689 0.704122
vn -0.954989 -0.296641 -0.000476
vn -0.019791 -0.114459 0.993231
vn 0.687759 -0.307339 0.657671
vn 0.923795 -0.382763 -0.009759
vn -0.742077 -0.393480 0.542675
vn -0.347908 -0.937529 -0.000073
vn -0.214573 -0.625712 0.749962
vn 0.382368 -0.797415 0.466824
vn 0.568276 -0.822075 -0.035435
vn 0.131167 0.481149 -0.866770
vn -0.524234 0.642492 -0.558912
vn -0.144069 0.943807 -0.297444
vn 0.230181 0.861853 -0.451914
vn -0.291651 0.956248 -0.023025
vn 0.773484 0.268755 -0.574015
vn 0.561291 0.771151 -0.300465
vn 0.975697 0.217107 -0.029679
vn 0.678529 0.733366 -0.042099
vn 0.838362 -0.545106 -0.003102
vn 0.607472 -0.523663 -0.597290
vn 0.418387 -0.908106 0.017217
vn 0.232999 -0.920524 -0.313605
vn -0.097075 -0.356991 -0.929050
vn -0.223531 -0.835258 -0.502373
vn -0.789958 -0.125344 -0.600213
vn -0.633276 -0.712448 -0.302289
vn -0.726986 0.686623 -0.006330
vn -0.137526 0.959699 0.245082
vn -0.999193 -0.035609 0.018569
vn -0.776818 -0.628841 0.033355
vn -0.511073 0.667427 0.541613
vn 0.235057 0.889912 0.390902
vn -0.772042 -0.092820 0.628757
vn -0.625167 -0.688953 0.366755
vn 0.145772 0.521194 0.840897
vn 0.567020 0.791687 0.227421
vn -0.080998 -0.311683 0.946728
vn -0.213031 -0.802179 0.557787
vn 0.791725 0.294256 0.535336
vn 0.678529 0.733366 -0.042099
vn 0.975697 0.217107 -0.029679
vn 0.620033 -0.498087 0.606191
vn 0.838362 -0.545106 -0.003102
vn 0.237691 -0.902524 0.359101
vn 0.418387 -0.908106 0.017217
vn 0.679680 -0.369513 -0.633637
vn -0.042981 -0.199068 -0.979043
vn -0.019437 -0.107106 -0.994058
vn 0.394915 -0.788247 -0.471921
vn 0.568276 -0.822075 -0.035435
vn 0.923795 -0.382763 -0.009759
vn -0.347908 -0.937529 -0.000073
vn 0.721870 -0.286643 -0.629873
vn 0.950660 -0.310018 -0.011558
vn -0.215397 -0.624061 -0.751100
vn -0.741960 -0.392929 -0.543233
vn -0.729224 0.058185 -0.681797
vn -0.739349 0.129814 -0.660691
vn -0.755488 0.163428 -0.634452
vn 0.001534 -0.068744 -0.997633
vn 0.746725 -0.265851 -0.609693
vn 0.953449 -0.301406 -0.009443
vn 0.756168 -0.278247 -0.592274
vn 0.949568 -0.313275 -0.013384
vn 0.015578 -0.047566 -0.998747
vn -0.736917 0.194822 -0.647301
vn 0.776797 -0.147682 -0.612189
vn 0.987673 -0.156527 0.000847
vn 0.018270 0.038677 -0.999085
vn -0.696467 0.233652 -0.678484
vn -0.666257 0.259934 -0.698954
vn 0.030429 0.183372 -0.982572
vn 0.755265 0.146941 -0.638736
vn 0.987016 0.160175 0.011994
vn 0.455528 0.630426 -0.628536
vn 0.580486 0.813805 -0.027521
vn -0.064013 0.619228 -0.782597
vn -0.264752 0.964316 -0.000529
vn -0.612029 0.559520 -0.558890
vn -0.017718 -0.056294 -0.998257
vn -0.759532 0.176237 -0.626140
vn -0.752597 0.173788 -0.635134
vn -0.015527 -0.056929 -0.998257
vn -0.965116 0.261688 0.008439
vn 0.732273 -0.258463 -0.630058
vn -0.965156 0.261616 0.005512
vn 0.732712 -0.258566 -0.629506
vn 0.953106 -0.302555 -0.007025
vn 0.953133 -0.302523 -0.004164
vn -0.734901 0.201913 0.647419
vn -0.747578 0.205611 0.631547
vn 0.000632 -0.014966 0.999888
vn -0.007381 -0.012573 0.999894
vn 0.741275 -0.236503 0.628154
vn 0.741824 -0.236667 0.627444
vn 0.953133 -0.302523 -0.004164
vn 0.953106 -0.302555 -0.007025
f 1/1/1 2/2/2 3/3/3
f 1/1/1 3/3/3 4/4/4
f 2/2/2 5/5/5 3/3/3
f 6/6/6 1/1/1 4/4/4
f 6/6/6 4/4/4 7/7/7
f 8/8/8 6/6/6 7/7/7
f 8/8/8 7/7/7 9/9/9
f 10/10/10 6/6/6 8/8/8
f 10/10/10 11/11/11 6/6/6
f 11/11/11 1/1/1 6/6/6
f 12/12/12 11/11/11 10/10/10
f 12/12/12 13/13/13 11/11/11
f 11/11/11 14/14/14 1/1/1
f 13/13/13 14/14/14 11/11/11
f 14/14/14 2/2/2 1/1/1
f 13/13/13 15/15/15 14/14/14
f 15/15/15 16/16/16 14/14/14
f 14/14/14 16/16/16 2/2/2
f 15/15/15 17/17/17 16/16/16
f 2/2/2 18/18/18 5/5/5
f 16/16/16 18/18/18 2/2/2
f 18/18/18 19/19/19 5/5/5
f 17/17/17 20/20/20 16/16/16
f 16/16/16 20/20/20 18/18/18
f 17/17/17 21/21/21 20/20/20
f 18/18/18 22/22/22 19/19/19
f 20/20/20 22/22/22 18/18/18
f 23/23/23 19/19/19 22/22/22
f 21/21/21 24/24/24 20/20/20
f 20/20/20 24/24/24 22/22/22
f 21/21/21 25/25/25 24/24/24
f 23/23/23 22/22/22 26/26/26
f 26/26/26 22/22/22 24/24/24
f 27/27/27 23/23/23 26/26/26
f 28/28/28 24/24/24 25/25/25
f 26/26/26 24/24/24 28/28/28
f 28/28/28 25/25/25 29/29/29
f 27/27/27 26/26/26 30/30/30
f 30/30/30 26/26/26 28/28/28
f 30/30/30 31/31/31 27/27/27
f 30/30/30 32/32/32 31/31/31
f 30/30/30 28/28/28 33/33/33
f 33/33/33 32/32/32 30/30/30
f 33/33/33 28/28/28 29/29/29
f 33/33/33 34/34/34 32/32/32
f 33/33/33 29/29/29 35/35/35
f 35/35/35 34/34/34 33/33/33
f 35/35/35 36/36/36 34/34/34
f 37/37/37 38/38/38 39/39/39
f 40/40/40 41/41/41 37/37/37
f 37/37/37 41/41/41 38/38/38
f 39/39/39 38/38/38 42/42/42
f 38/38/38 41/41/41 42/42/42
f 39/39/39 42/42/42 43/43/43
f 40/40/40 44/44/44 41/41/41
f 45/45/45 44/44/44 40/40/40
f 42/42/42 41/41/41 46/46/46
f 46/46/46 41/41/41 44/44/44
f 43/43/43 42/42/42 47/47/47
f 47/47/47 42/42/42 46/46/46
f 43/43/43 47/47/47 48/48/48
f 49/49/49 48/48/48 47/47/47
f 47/47/47 46/46/46 49/49/49
f 49/49/49 50/50/50 48/48/48
f 46/46/46 44/44/44 51/51/51
f 49/49/49 46/46/46 51/51/51
f 52/52/52 50/50/50 49/49/49
f 49/49/49 51/51/51 52/52/52
f 52/52/52 53/53/53 50/50/50
f 45/45/45 54/54/54 44/44/44
f 51/51/51 44/44/44 54/54/54
f 55/55/55 54/54/54 45/45/45
f 52/52/52 51/51/51 56/56/56
f 51/51/51 54/54/54 56/56/56
f 57/57/57 53/53/53 52/52/52
f 52/52/52 56/56/56 57/57/57
f 57/57/57 58/58/58 53/53/53
f 55/55/55 59/59/59 54/54/54
f 56/56/56 54/54/54 59/59/59
f 60/60/60 59/59/59 55/55/55
f 57/57/57 56/56/56 61/61/61
f 56/56/56 59/59/59 61/61/61
f 62/62/62 58/58/58 57/57/57
f 57/57/57 61/61/61 62/62/62
f 62/62/62 63/63/63 58/58/58
f 60/60/60 64/64/64 59/59/59
f 61/61/61 59/59/59 64/64/64
f 65/65/65 64/64/64 60/60/60
f 62/62/62 61/61/61 66/66/66
f 61/61/61 64/64/64 66/66/66
f 67/67/67 63/63/63 62/62/62
f 62/62/62 66/66/66 67/67/67
f 67/67/67 68/68/68 63/63/63
f 65/65/65 69/69/69 64/64/64
f 66/66/66 64/64/64 69/69/69
f 69/69/69 65/65/65 70/70/70
f 67/67/67 66/66/66 71/71/71
f 66/66/66 69/69/69 71/71/71
f 72/72/72 68/68/68 67/67/67
f 67/67/67 71/71/71 72/72/72
f 72/72/72 73/73/73 68/68/68
f 69/69/69 70/70/70 74/74/74
f 71/71/71 69/69/69 74/74/74
f 74/74/74 70/70/70 75/75/75
f 71/71/71 74/74/74 76/76/76
f 72/72/72 71/71/71 76/76/76
f 76/76/76 74/74/74 75/75/75
f 73/73/73 72/72/72 77/77/77
f 72/72/72 76/76/76 77/77/77
f 77/77/77 76/76/76 75/75/75
f 73/73/73 77/77/77 78/78/78
f 78/78/78 77/77/77 75/75/75
f 79/79/79 80/80/80 81/81/81
f 79/79/79 81/81/81 82/82/82
f 80/80/80 83/83/83 81/81/81
f 84/84/84 79/79/79 82/82/82
f 84/84/84 82/82/82 85/85/85
f 86/86/86 84/84/84 85/85/85
f 86/86/86 85/85/85 87/87/87
f 88/88/88 84/84/84 86/86/86
f 88/88/88 89/89/89 84/84/84
f 89/89/89 79/79/79 84/84/84
f 90/90/90 89/89/89 88/88/88
f 90/90/90 91/91/91 89/89/89
f 89/89/89 92/92/92 79/79/79
f 91/91/91 92/92/92 89/89/89
f 92/92/92 80/80/80 79/79/79
f 91/91/91 93/93/93 92/92/92
f 93/93/93 94/94/94 92/92/92
f 92/92/92 94/94/94 80/80/80
f 93/93/93 95/95/95 94/94/94
f 80/80/80 96/96/96 83/83/83
f 94/94/94 96/96/96 80/80/80
f 96/96/96 97/97/97 83/83/83
f 95/95/95 98/98/98 94/94/94
f 94/94/94 98/98/98 96/96/96
f 95/95/95 99/99/99 98/98/98
f 96/96/96 100/100/100 97/97/97
f 98/98/98 100/100/100 96/96/96
f 101/101/101 97/97/97 100/100/100
f 99/99/99 102/102/102 98/98/98
f 98/98/98 102/102/102 100/100/100
f 99/99/99 103/103/103 102/102/102
f 101/101/101 100/100/100 104/104/104
f 104/104/104 100/100/100 102/102/102
f 105/105/105 101/101/101 104/104/104
f 106/106/106 102/102/102 103/103/103
f 104/104/104 102/102/102 106/106/106
f 106/106/106 103/103/103 107/107/107
f 105/105/105 104/104/104 108/108/108
f 108/108/108 104/104/104 106/106/106
f 108/108/108 109/109/109 105/105/105
f 108/108/108 110/110/110 109/109/109
f 108/108/108 106/106/106 111/111/111
f 111/111/111 110/110/110 108/108/108
f 111/111/111 106/106/106 107/107/107
f 111/111/111 112/112/112 110/110/110
f 111/111/111 107/107/107 113/113/113
f 113/113/113 112/112/112 111/111/111
f 113/113/113 114/114/114 112/112/112
f 115/115/115 116/116/116 117/117/117
f 116/116/116 115/115/115 118/118/118
f 115/115/115 119/119/119 118/118/118
f 115/115/115 120/120/120 119/119/119
f 118/118/118 119/119/119 121/121/121
f 120/120/120 115/115/115 122/122/122
f 115/115/115 117/117/117 122/122/122
f 120/120/120 122/122/122 123/123/123
f 124/124/124 118/118/118 121/121/121
f 116/116/116 118/118/118 124/124/124
f 125/125/125 124/124/124 121/121/121
f 70/70/70 125/125/125 121/121/121
f 126/126/126 116/116/116 124/124/124
f 126/126/126 124/124/124 125/125/125
f 116/116/116 126/126/126 127/127/127
f 116/116/116 127/127/127 117/117/117
f 65/65/65 126/126/126 125/125/125
f 65/65/65 125/125/125 70/70/70
f 126/126/126 60/60/60 127/127/127
f 126/126/126 65/65/65 60/60/60
f 117/117/117 127/127/127 128/128/128
f 127/127/127 60/60/60 55/55/55
f 127/127/127 55/55/55 128/128/128
f 117/117/117 128/128/128 129/129/129
f 122/122/122 117/117/117 129/129/129
f 122/122/122 129/129/129 130/130/130
f 123/123/123 122/122/122 130/130/130
f 123/123/123 130/130/130 131/131/131
f 131/131/131 130/130/130 132/132/132
f 131/131/131 132/132/132 133/133/133
f 130/130/130 129/129/129 134/134/134
f 130/130/130 134/134/134 132/132/132
f 129/129/129 128/128/128 135/135/135
f 129/129/129 135/135/135 134/134/134
f 128/128/128 45/45/45 135/135/135
f 128/128/128 55/55/55 45/45/45
f 133/133/133 132/132/132 136/136/136
f 133/133/133 136/136/136 137/137/137
f 132/132/132 134/134/134 138/138/138
f 132/132/132 138/138/138 136/136/136
f 134/134/134 135/135/135 139/139/139
f 134/134/134 139/139/139 138/138/138
f 135/135/135 40/40/40 139/139/139
f 135/135/135 45/45/45 40/40/40
f 138/138/138 139/139/139 140/140/140
f 136/136/136 138/138/138 141/141/141
f 138/138/138 140/140/140 141/141/141
f 137/137/137 136/136/136 142/142/142
f 136/136/136 141/141/141 142/142/142
f 137/137/137 142/142/142 143/143/143
f 143/143/143 142/142/142 144/144/144
f 143/143/143 144/144/144 145/145/145
f 142/142/142 141/141/141 146/146/146
f 142/142/142 146/146/146 144/144/144
f 146/146/146 145/145/145 144/144/144
f 141/141/141 140/140/140 146/146/146
f 146/146/146 147/147/147 145/145/145
f 148/148/148 147/147/147 146/146/146
f 146/146/146 140/140/140 148/148/148
f 39/39/39 147/147/147 148/148/148
f 140/140/140 39/39/39 148/148/148
f 139/139/139 37/37/37 140/140/140
f 39/39/39 140/140/140 37/37/37
f 139/139/139 40/40/40 37/37/37
f 149/149/149 150/150/150 151/151/151
f 149/149/149 151/151/151 152/152/152
f 150/150/150 153/153/153 151/151/151
f 154/154/154 149/149/149 152/152/152
f 150/150/150 155/155/155 153/153/153
f 154/154/154 152/152/152 156/156/156
f 157/157/157 154/154/154 156/156/156
f 157/157/157 156/156/156 158/158/158
f 155/155/155 159/159/159 153/153/153
f 155/155/155 160/160/160 159/159/159
f 161/161/161 159/159/159 160/160/160
f 161/161/161 160/160/160 162/162/162
f 163/163/163 161/161/161 162/162/162
f 163/163/163 162/162/162 164/164/164
f 164/164/164 165/165/165 163/163/163
f 164/164/164 166/166/166 165/165/165
