# Generated from Roblox mesh JSON (v2.00)
# Hello from RBX_Toolbox ;)
o LeftLowerArm
v -0.088930 -0.401174 -0.052191
v -0.128942 -0.394456 -0.068070
v -0.027371 -0.098382 -0.092526
v 0.040889 -0.110841 -0.069864
v -0.075472 -0.402605 -0.004557
v 0.063713 -0.114552 -0.001616
v -0.095542 -0.085437 -0.069670
v -0.168850 -0.387145 -0.052192
v 0.112165 0.061933 -0.078614
v 0.140789 0.056807 -0.000180
v 0.026309 0.077437 -0.104636
v -0.059428 0.093574 -0.078340
v 0.142440 0.191825 -0.074879
v 0.168008 0.186765 -0.000177
v 0.065890 0.207801 -0.099686
v -0.013507 0.224051 -0.074670
v 0.160685 0.294627 -0.063891
v 0.181998 0.294627 -0.001054
v 0.099024 0.304624 -0.085809
v 0.041833 0.341220 -0.063826
v 0.162798 0.358802 -0.042636
v 0.177075 0.358802 -0.000543
v 0.134371 0.402605 0.000221
v 0.121495 0.365499 -0.057317
v 0.083185 0.390012 -0.042591
v 0.069603 0.396223 -0.000484
v 0.021558 0.350492 -0.000964
v 0.083199 0.390091 0.043620
v 0.134371 0.402605 0.000221
v -0.039078 0.229090 0.000099
v 0.041854 0.341338 0.064876
v 0.121513 0.365607 0.058301
v 0.164109 0.354315 0.043420
v 0.177075 0.358802 -0.000543
v 0.099052 0.304785 0.086793
v 0.162642 0.287928 0.064577
v 0.181998 0.294627 -0.001054
v -0.013415 0.224536 0.074800
v 0.066009 0.208423 0.099609
v 0.142506 0.192167 0.074594
v 0.168008 0.186765 -0.000177
v -0.087954 0.099221 0.000180
v -0.059263 0.094425 0.078611
v -0.118180 -0.080691 -0.001360
v -0.181998 -0.383934 -0.004558
v -0.095321 -0.084284 0.066886
v -0.168515 -0.385390 0.043076
v 0.026520 0.078554 0.104636
v -0.027092 -0.096841 0.089550
v -0.128529 -0.392082 0.058954
v 0.112285 0.062586 0.078343
v 0.140789 0.056807 -0.000180
v 0.041086 -0.109682 0.066695
v 0.063713 -0.114552 -0.001616
v -0.088645 -0.399368 0.043077
v -0.075472 -0.402605 -0.004557
vt 0.938258 0.340806
vt 0.938258 0.340665
vt 0.939115 0.340897
vt 0.939113 0.341110
vt 0.938224 0.340947
vt 0.939073 0.341311
vt 0.939119 0.340681
vt 0.938259 0.340515
vt 0.939640 0.341230
vt 0.939633 0.341459
vt 0.939624 0.340987
vt 0.939618 0.340750
vt 0.940029 0.341221
vt 0.940070 0.341434
vt 0.940002 0.341006
vt 0.939989 0.340789
vt 0.940330 0.341153
vt 0.940419 0.341307
vt 0.940285 0.340988
vt 0.940340 0.340809
vt 0.940512 0.341072
vt 0.940600 0.341148
vt 0.940666 0.340931
vt 0.940475 0.340959
vt 0.940513 0.340820
vt 0.940581 0.340677
vt 0.940379 0.340650
vt 0.940555 0.340516
vt 0.940735 0.340454
vt 0.940006 0.340593
vt 0.940387 0.340479
vt 0.940559 0.340373
vt 0.940621 0.340264
vt 0.940735 0.340224
vt 0.940385 0.340293
vt 0.940464 0.340132
vt 0.940608 0.340018
vt 0.940047 0.340401
vt 0.940122 0.340196
vt 0.940208 0.339997
vt 0.940306 0.339803
vt 0.939636 0.340538
vt 0.939682 0.340332
vt 0.939141 0.340468
vt 0.938277 0.340345
vt 0.939186 0.340258
vt 0.938314 0.340178
vt 0.939756 0.340107
vt 0.939244 0.340050
vt 0.938357 0.340034
vt 0.939838 0.339878
vt 0.939892 0.339656
vt 0.939300 0.339845
vt 0.939312 0.339641
vt 0.938395 0.339897
vt 0.938395 0.339753
vn 0.636721 -0.326847 -0.698396
vn -0.046800 -0.071760 -0.996323
vn -0.008557 -0.079506 -0.996798
vn 0.650106 -0.319423 -0.689443
vn 0.902456 -0.430778 -0.001591
vn 0.907948 -0.419074 0.002809
vn -0.693063 0.117748 -0.711195
vn -0.726763 0.137317 -0.673023
vn 0.655753 -0.228647 -0.719520
vn 0.946963 -0.321337 0.001690
vn -0.003348 -0.022424 -0.999743
vn -0.664395 0.166571 -0.728583
vn 0.681791 -0.101483 -0.724474
vn 0.983155 -0.182676 -0.006025
vn 0.010707 0.079183 -0.996803
vn -0.631688 0.294823 -0.716973
vn 0.718069 0.021197 -0.695650
vn 0.997473 -0.068275 -0.019664
vn 0.047544 0.197417 -0.979166
vn -0.572389 0.442364 -0.690423
vn 0.713482 0.322991 -0.621788
vn 0.969001 0.246963 -0.006860
vn 0.356554 0.934184 0.013061
vn 0.181156 0.464921 -0.866621
vn -0.294868 0.718640 -0.629769
vn -0.575549 0.817768 -0.000041
vn -0.849837 0.527041 -0.002151
vn -0.305040 0.723913 0.618790
vn 0.356554 0.934184 0.013061
vn -0.919685 0.392657 -0.000136
vn -0.578984 0.443945 0.683878
vn 0.201440 0.463364 0.862969
vn 0.727007 0.304065 0.615634
vn 0.969001 0.246963 -0.006860
vn 0.049843 0.194631 0.979609
vn 0.727815 0.006674 0.685741
vn 0.997473 -0.068275 -0.019664
vn -0.634750 0.295868 0.713831
vn 0.011507 0.075352 0.997091
vn 0.682449 -0.106949 0.723067
vn 0.983155 -0.182676 -0.006025
vn -0.968594 0.248648 0.000756
vn -0.663499 0.159872 0.730897
vn -0.980948 0.194273 0.000121
vn -0.977495 0.210865 -0.006248
vn -0.693849 0.103972 0.712575
vn -0.736843 0.126234 0.664174
vn -0.002235 -0.031746 0.999493
vn -0.009712 -0.098018 0.995137
vn -0.048339 -0.091948 0.994590
vn 0.653497 -0.234089 0.719822
vn 0.946963 -0.321337 0.001690
vn 0.644507 -0.330092 0.689674
vn 0.907948 -0.419074 0.002809
vn 0.637992 -0.341596 0.690129
vn 0.902456 -0.430778 -0.001591
f 1/1/1 2/2/2 3/3/3
f 1/1/1 3/3/3 4/4/4
f 5/5/5 1/1/1 4/4/4
f 5/5/5 4/4/4 6/6/6
f 2/2/2 7/7/7 3/3/3
f 2/2/2 8/8/8 7/7/7
f 6/6/6 4/4/4 9/9/9
f 6/6/6 9/9/9 10/10/10
f 4/4/4 3/3/3 11/11/11
f 4/4/4 11/11/11 9/9/9
f 3/3/3 12/12/12 11/11/11
f 3/3/3 7/7/7 12/12/12
f 10/10/10 9/9/9 13/13/13
f 10/10/10 13/13/13 14/14/14
f 9/9/9 11/11/11 15/15/15
f 9/9/9 15/15/15 13/13/13
f 11/11/11 16/16/16 15/15/15
f 11/11/11 12/12/12 16/16/16
f 14/14/14 13/13/13 17/17/17
f 14/14/14 17/17/17 18/18/18
f 13/13/13 15/15/15 19/19/19
f 13/13/13 19/19/19 17/17/17
f 15/15/15 20/20/20 19/19/19
f 15/15/15 16/16/16 20/20/20
f 18/18/18 17/17/17 21/21/21
f 18/18/18 21/21/21 22/22/22
f 22/22/22 21/21/21 23/23/23
f 17/17/17 24/24/24 21/21/21
f 21/21/21 24/24/24 23/23/23
f 17/17/17 19/19/19 24/24/24
f 24/24/24 25/25/25 23/23/23
f 19/19/19 25/25/25 24/24/24
f 19/19/19 20/20/20 25/25/25
f 25/25/25 26/26/26 23/23/23
f 20/20/20 26/26/26 25/25/25
f 20/20/20 27/27/27 26/26/26
f 16/16/16 27/27/27 20/20/20
f 27/27/27 28/28/28 26/26/26
f 26/26/26 28/28/28 29/29/29
f 16/16/16 30/30/30 27/27/27
f 12/12/12 30/30/30 16/16/16
f 27/27/27 31/31/31 28/28/28
f 30/30/30 31/31/31 27/27/27
f 28/28/28 32/32/32 29/29/29
f 31/31/31 32/32/32 28/28/28
f 32/32/32 33/33/33 29/29/29
f 33/33/33 34/34/34 29/29/29
f 31/31/31 35/35/35 32/32/32
f 35/35/35 33/33/33 32/32/32
f 36/36/36 34/34/34 33/33/33
f 35/35/35 36/36/36 33/33/33
f 36/36/36 37/37/37 34/34/34
f 35/35/35 31/31/31 38/38/38
f 30/30/30 38/38/38 31/31/31
f 36/36/36 35/35/35 39/39/39
f 35/35/35 38/38/38 39/39/39
f 40/40/40 37/37/37 36/36/36
f 36/36/36 39/39/39 40/40/40
f 40/40/40 41/41/41 37/37/37
f 42/42/42 38/38/38 30/30/30
f 12/12/12 42/42/42 30/30/30
f 7/7/7 42/42/42 12/12/12
f 42/42/42 43/43/43 38/38/38
f 39/39/39 38/38/38 43/43/43
f 7/7/7 44/44/44 42/42/42
f 44/44/44 43/43/43 42/42/42
f 8/8/8 44/44/44 7/7/7
f 8/8/8 45/45/45 44/44/44
f 45/45/45 46/46/46 44/44/44
f 44/44/44 46/46/46 43/43/43
f 45/45/45 47/47/47 46/46/46
f 39/39/39 43/43/43 48/48/48
f 48/48/48 43/43/43 46/46/46
f 40/40/40 39/39/39 48/48/48
f 49/49/49 46/46/46 47/47/47
f 48/48/48 46/46/46 49/49/49
f 49/49/49 47/47/47 50/50/50
f 40/40/40 48/48/48 51/51/51
f 51/51/51 48/48/48 49/49/49
f 51/51/51 41/41/41 40/40/40
f 51/51/51 52/52/52 41/41/41
f 51/51/51 49/49/49 53/53/53
f 53/53/53 52/52/52 51/51/51
f 53/53/53 49/49/49 50/50/50
f 53/53/53 54/54/54 52/52/52
f 53/53/53 50/50/50 55/55/55
f 55/55/55 54/54/54 53/53/53
f 55/55/55 56/56/56 54/54/54
