# Generated from Roblox mesh JSON (v7.00)
# Hello from RBX_Toolbox ;)
o RightLowerArm
v -0.023696 -0.005593 -0.026483
v -0.001612 -0.067283 -0.026298
v -0.034977 -0.009691 0.001070
v -0.012921 -0.071502 0.001716
v -0.060193 0.059311 0.000950
v -0.022640 0.072946 -0.037577
v 0.002582 0.003968 -0.037505
v -0.048898 0.063426 -0.026548
v 0.024979 -0.057544 -0.036662
v 0.018806 -0.126644 -0.025814
v 0.008614 -0.131230 0.004521
v 0.002995 0.082294 -0.025349
v 0.028164 0.013266 -0.025173
v -0.024555 -0.005897 0.028876
v -0.001772 -0.067557 0.029363
v 0.001152 0.003456 0.040782
v -0.049809 0.063088 0.028775
v -0.024555 -0.005897 0.028876
v -0.049809 0.063088 0.028775
v -0.001772 -0.067557 0.029363
v 0.020751 -0.125360 0.030869
v 0.023732 -0.058273 0.040629
v 0.026972 0.012846 0.029686
v -0.024228 0.073016 0.040795
v -0.057590 0.168815 -0.037581
v -0.095094 0.155193 0.000962
v -0.083847 0.159327 -0.026514
v -0.031923 0.178203 -0.025410
v 0.013225 0.086446 0.002416
v -0.021765 0.182667 0.002365
v -0.084716 0.158982 0.028779
v -0.084716 0.158982 0.028779
v -0.059300 0.169358 0.040785
v -0.033281 0.178816 0.029659
v 0.001761 0.082460 0.029661
v 0.038374 0.016988 0.002602
v 0.063486 -0.153064 -0.043570
v 0.033024 -0.172878 -0.027637
v 0.027327 -0.182667 0.013891
v 0.046802 -0.115322 -0.036835
v 0.071464 -0.106874 -0.021838
v 0.091289 -0.152048 -0.021298
v 0.079150 -0.104171 0.005363
v 0.095093 -0.152299 0.010973
v 0.067742 -0.107371 0.029579
v 0.037081 -0.165708 0.035777
v 0.057865 -0.150543 0.043570
v 0.020751 -0.125360 0.030869
v 0.037081 -0.165708 0.035777
v 0.044914 -0.115515 0.039978
v 0.080261 -0.147793 0.034657
v 0.049906 -0.048383 -0.023915
v 0.059539 -0.044877 0.003261
v 0.048634 -0.049004 0.029589
vt 0.436523 0.669922
vt 0.436523 0.650879
vt 0.428711 0.669922
vt 0.428711 0.650879
vt 0.428711 0.688477
vt 0.443359 0.688477
vt 0.443359 0.669922
vt 0.436523 0.688477
vt 0.443359 0.650879
vt 0.436523 0.632324
vt 0.428711 0.632324
vt 0.450195 0.688477
vt 0.450195 0.669922
vt 0.420898 0.669922
vt 0.420898 0.650879
vt 0.471680 0.669922
vt 0.478516 0.688477
vt 0.478516 0.669922
vt 0.420898 0.688477
vt 0.478516 0.650879
vt 0.420898 0.632324
vt 0.471680 0.650879
vt 0.464844 0.669922
vt 0.471680 0.688477
vt 0.443359 0.707031
vt 0.428711 0.707031
vt 0.436523 0.707031
vt 0.450195 0.707031
vt 0.456055 0.688477
vt 0.456055 0.707031
vt 0.420898 0.707031
vt 0.478516 0.707031
vt 0.471680 0.707031
vt 0.464844 0.707031
vt 0.464844 0.688477
vt 0.456055 0.669922
vt 0.443359 0.618652
vt 0.436523 0.618652
vt 0.428711 0.618652
vt 0.443359 0.632324
vt 0.450195 0.632324
vt 0.450195 0.618652
vt 0.456055 0.632324
vt 0.456055 0.618652
vt 0.464844 0.632324
vt 0.420898 0.618652
vt 0.471680 0.618652
vt 0.478516 0.632324
vt 0.478516 0.618652
vt 0.471680 0.632324
vt 0.464844 0.618652
vt 0.450195 0.650879
vt 0.456055 0.650879
vt 0.464844 0.650879
vn -0.649596 -0.238115 -0.722324
vn -0.650573 -0.238115 -0.721348
vn -0.939741 -0.340691 -0.013081
vn -0.940718 -0.338737 0.006457
vn -0.939741 -0.342645 -0.016989
vn 0.021548 0.007092 -0.999770
vn 0.031317 0.004161 -0.999770
vn -0.652527 -0.238115 -0.719394
vn 0.050855 0.008069 -0.998793
vn -0.690626 -0.224438 -0.687155
vn -0.943649 -0.325061 0.063119
vn 0.679015 0.246437 -0.691063
vn 0.686830 0.238622 -0.686178
vn -0.672065 -0.243976 0.699093
vn -0.657411 -0.235184 0.715701
vn -0.009714 -0.004631 0.999984
vn -0.675973 -0.245930 0.695186
vn -0.672065 -0.243976 0.699093
vn -0.675973 -0.245930 0.695186
vn -0.657411 -0.235184 0.715701
vn -0.639827 -0.188292 0.745008
vn 0.005917 -0.001700 0.999984
vn 0.655568 0.233737 0.718632
vn -0.013621 -0.004631 0.999984
vn 0.020571 0.007092 -0.999770
vn -0.939741 -0.341668 -0.016989
vn -0.652527 -0.238115 -0.719394
vn 0.679991 0.247414 -0.690086
vn 0.939852 0.341198 0.021111
vn 0.939852 0.342175 0.025019
vn -0.673042 -0.244953 0.698116
vn -0.673042 -0.244953 0.698116
vn -0.009714 -0.003654 0.999984
vn 0.651661 0.236668 0.720585
vn 0.652638 0.236668 0.719609
vn 0.942783 0.333383 0.023065
vn 0.087978 0.141907 -0.986093
vn -0.758034 -0.229322 -0.610956
vn -0.942672 -0.307476 0.128572
vn 0.062578 0.073523 -0.994885
vn 0.748376 0.292353 -0.595325
vn 0.800153 0.341198 -0.493725
vn 0.937898 0.335337 0.088519
vn 0.928129 0.349991 0.126618
vn 0.648730 0.256206 0.716678
vn -0.669134 -0.161915 0.725470
vn -0.006783 0.101853 0.995100
vn -0.639827 -0.188292 0.745008
vn -0.669134 -0.161915 0.725470
vn 0.008848 0.053007 0.999007
vn 0.650684 0.293329 0.700070
vn 0.706368 0.237645 -0.667617
vn 0.945714 0.322637 0.037719
vn 0.658499 0.225922 0.717655
f 1/1/1 2/2/2 3/3/3
f 3/3/3 15/15/15 14/14/14
f 15/15/15 3/3/3 4/4/4
f 4/4/4 21/21/21 15/15/15
f 4/4/4 3/3/3 2/2/2
f 14/14/14 5/5/5 3/3/3
f 3/3/3 5/5/5 1/1/1
f 5/5/5 14/14/14 19/19/19
f 26/26/26 5/5/5 19/19/19
f 26/26/26 19/19/19 31/31/31
f 26/26/26 8/8/8 5/5/5
f 8/8/8 1/1/1 5/5/5
f 8/8/8 26/26/26 27/27/27
f 25/25/25 8/8/8 27/27/27
f 6/6/6 1/1/1 8/8/8
f 8/8/8 25/25/25 6/6/6
f 25/25/25 12/12/12 6/6/6
f 12/12/12 25/25/25 28/28/28
f 1/1/1 6/6/6 7/7/7
f 12/12/12 7/7/7 6/6/6
f 9/9/9 1/1/1 7/7/7
f 1/1/1 9/9/9 2/2/2
f 7/7/7 12/12/12 13/13/13
f 7/7/7 52/52/52 9/9/9
f 52/52/52 7/7/7 13/13/13
f 9/9/9 40/40/40 2/2/2
f 52/52/52 40/40/40 9/9/9
f 10/10/10 2/2/2 40/40/40
f 2/2/2 10/10/10 4/4/4
f 37/37/37 10/10/10 40/40/40
f 10/10/10 37/37/37 38/38/38
f 41/41/41 37/37/37 40/40/40
f 40/40/40 52/52/52 41/41/41
f 37/37/37 41/41/41 42/42/42
f 43/43/43 42/42/42 41/41/41
f 52/52/52 43/43/43 41/41/41
f 42/42/42 43/43/43 44/44/44
f 10/10/10 38/38/38 11/11/11
f 11/11/11 4/4/4 10/10/10
f 38/38/38 39/39/39 11/11/11
f 21/21/21 4/4/4 11/11/11
f 11/11/11 39/39/39 46/46/46
f 46/46/46 21/21/21 11/11/11
f 45/45/45 44/44/44 43/43/43
f 44/44/44 45/45/45 51/51/51
f 51/51/51 45/45/45 47/47/47
f 47/47/47 48/48/48 49/49/49
f 47/47/47 50/50/50 48/48/48
f 45/45/45 50/50/50 47/47/47
f 50/50/50 20/20/20 48/48/48
f 45/45/45 22/22/22 50/50/50
f 50/50/50 22/22/22 20/20/20
f 43/43/43 54/54/54 45/45/45
f 45/45/45 54/54/54 22/22/22
f 16/16/16 20/20/20 22/22/22
f 54/54/54 16/16/16 22/22/22
f 20/20/20 16/16/16 18/18/18
f 16/16/16 17/17/17 18/18/18
f 43/43/43 53/53/53 54/54/54
f 43/43/43 52/52/52 53/53/53
f 13/13/13 53/53/53 52/52/52
f 53/53/53 23/23/23 54/54/54
f 54/54/54 23/23/23 16/16/16
f 53/53/53 13/13/13 36/36/36
f 53/53/53 36/36/36 23/23/23
f 12/12/12 36/36/36 13/13/13
f 16/16/16 24/24/24 17/17/17
f 23/23/23 24/24/24 16/16/16
f 24/24/24 32/32/32 17/17/17
f 24/24/24 33/33/33 32/32/32
f 24/24/24 34/34/34 33/33/33
f 23/23/23 35/35/35 24/24/24
f 34/34/34 24/24/24 35/35/35
f 36/36/36 35/35/35 23/23/23
f 29/29/29 34/34/34 35/35/35
f 35/35/35 36/36/36 29/29/29
f 36/36/36 12/12/12 29/29/29
f 34/34/34 29/29/29 30/30/30
f 28/28/28 29/29/29 12/12/12
f 29/29/29 28/28/28 30/30/30
